<?xml version="1.0" encoding="utf-8"?>
<!-- Generator: Adobe Illustrator 26.5.0, SVG Export Plug-In . SVG Version: 6.00 Build 0)  -->
<svg version="1.1" xmlns="http://www.w3.org/2000/svg" xmlns:xlink="http://www.w3.org/1999/xlink" x="0px" y="0px"
	 viewBox="0 0 2738 2608" style="enable-background:new 0 0 2738 2608;" xml:space="preserve">
<style type="text/css">
	.st0{fill:#E6E6E6;stroke:#000000;stroke-width:23.753;stroke-miterlimit:10;}
	.st1{stroke:#000000;stroke-width:8.2038;stroke-miterlimit:10;}
	.st2{fill:#F7F7F7;stroke:#000000;stroke-width:15.5912;stroke-miterlimit:10;}
	.st3{stroke:#000000;stroke-width:9.5954;stroke-miterlimit:10;}
	.st4{fill:#F7F7F7;stroke:#000000;stroke-width:17.6277;stroke-miterlimit:10;}
	.st5{stroke:#000000;stroke-width:9.3761;stroke-miterlimit:10;}
	.st6{fill:#E6E6E6;stroke:#000000;stroke-width:16.0779;stroke-miterlimit:10;}
	.st7{fill:#FFFFFF;}
	.st8{fill:none;stroke:#000000;stroke-width:20.203;stroke-miterlimit:10;}
	.st9{fill:none;stroke:#000000;stroke-width:14.4307;stroke-miterlimit:10;}
	.st10{fill:none;stroke:#000000;stroke-width:17.3168;stroke-miterlimit:10;}
	.st11{fill:none;stroke:#000000;stroke-width:16.0779;stroke-miterlimit:10;}
</style>
<g id="CIRCULOS-SELECCION4">
</g>
<g id="CLOSET">
	<g id="LATERAL-DERECHA">
	</g>
	<g id="BASE">
	</g>
	<g id="DIVISIONES-VERTICALES">
		<g id="DIVISION-VERTICAL-DERECHA">
		</g>
		<g id="DIVISION-CENTRAL">
		</g>
		<g id="DIVISION-VERTICAL-IZQUIERDA_00000085229740836627909760000005526871516412138418_">
		</g>
	</g>
	<g id="DIVISIONES-HORIZONTALES">
	</g>
	<g id="LATERAL-IZQUIERDA">
	</g>
	<g id="TECHO">
	</g>
	<g id="SOPORTES-COOK">
	</g>
</g>
<g id="TABLITAS-TRASERAS">
</g>
<g id="TRIPLEX_00000062169277959621118470000012963048032068378272_">
</g>
<g id="PUNTILLAS">
</g>
<g id="SOPORTE-MUEBLE">
	<g id="PUERTAS">
		<g>
			<polyline class="st0" points="2088.7,239 1995.2,185.7 1375.9,177.8 1408.8,223.9 			"/>
			<polygon class="st0" points="1466.7,2262.8 2083.9,2263 2088.9,239 1464.7,223.3 			"/>
			<polygon class="st0" points="1382,2216.1 1474.1,2262.2 1464.1,223.9 1375.9,177.8 			"/>
		</g>
	</g>
	<g>
		<g>
			<polygon class="st1" points="2215.8,270.1 2191.3,211.9 2171,270.1 			"/>
			<polygon class="st1" points="2161.7,2211.7 2184.7,2270.6 2206.4,2212.9 			"/>
			<line class="st2" x1="2192.8" y1="252.1" x2="2183.7" y2="2241.2"/>
		</g>
		<g>
			<polygon class="st3" points="2035.2,2387.9 2103.1,2358.6 2034.7,2335.5 			"/>
			<line class="st4" x1="1408.5" y1="2361.4" x2="2030.7" y2="2361.2"/>
			<polygon class="st5" points="1459,2335.6 1389.3,2359.6 1456.4,2385.4 			"/>
		</g>
	</g>
	<circle cx="1421.7" cy="608.4" r="21.5"/>
	<line class="st2" x1="1424.6" y1="606.4" x2="1179.7" y2="607.2"/>
	<circle cx="315.2" cy="1287.2" r="21.5"/>
	<g>
		<g>
			<g>
				<path d="M2308.4,1256v11h-14v27h-12v-27h-43v-9.6l46.8-67.4h8.2v66H2308.4z M2282.4,1256v-50.3l-35.5,50.3H2282.4z"/>
				<path d="M2330.3,1193h53.1v2.7l-33.7,100.3h-8.3l30.3-91h-27c-3.3,0-6.2,0.3-8.5,0.9c-2.3,0.6-4.3,1.4-5.9,2.5
					c-1.6,1.1-3,2.3-4.1,3.9c-1.1,1.5-2.2,3.2-3.2,5.1l-2.1-0.8L2330.3,1193z"/>
				<path d="M2519.8,1190l2.3,34h-2.3c-3.1-10.2-7.4-17.5-13-22c-5.6-4.5-12.4-6.7-20.3-6.7c-5.1,0-9.9,1-14.2,2.9
					c-4.3,1.9-8.1,4.9-11.2,9c-3.1,4-5.6,9.1-7.3,15.2c-1.8,6.1-2.6,13.3-2.6,21.6c0,6.7,0.8,12.7,2.5,18.2
					c1.7,5.4,4.1,10.1,7.3,13.9c3.2,3.9,7.1,6.8,11.7,8.9s9.9,3.1,16,3.1c6.3,0,12-1.4,17.2-4.2c4.9-2.6,10.4-8.1,16.4-16.5l2.3,1.4
					c-5.1,8.9-10.9,15.4-17.6,19.5c-6.6,4.1-14.6,6.2-23.8,6.2c-7.1,0-13.6-1.2-19.6-3.7c-5.9-2.5-11.1-6-15.3-10.5
					c-4.3-4.5-7.6-9.9-10.1-16.1c-2.4-6.2-3.6-13-3.6-20.4c0-10,2.2-19.2,6.7-27.5c4.4-8.4,10.5-14.8,18.4-19.4
					c7.9-4.6,16.5-6.9,25.7-6.9c7.3,0,14.4,1.8,21.3,5.3c2.1,1.1,3.5,1.7,4.4,1.7c1.6,0,3-0.7,4-2c1.1-1.3,1.8-3,2.3-5H2519.8z"/>
				<path d="M2555.4,1237.5c2.5-2.5,4.5-4.5,6-5.9c1.5-1.4,2.4-2.3,2.8-2.7c2.2-1.9,4.6-3.4,7.3-4.5c2.6-1,5.2-1.6,7.7-1.6
					c4.3,0,8,1.2,11.1,3.7c3.1,2.5,5.1,6.1,6.2,10.9c2.5-3,4.9-5.4,7-7.4c2.1-1.9,4.1-3.4,6-4.5c1.9-1,3.7-1.8,5.5-2.2
					c1.7-0.4,3.6-0.6,5.4-0.6c2.5,0,4.9,0.4,7.1,1.3c2.2,0.9,4.1,2.3,5.7,4.2c1.6,2,2.9,4.6,3.8,7.9c0.9,3.3,1.4,7.3,1.4,12.1v29.9
					c0,2.2,0.1,4.1,0.2,5.7c0.1,1.6,0.5,2.9,1.1,3.9c0.7,1,1.6,1.8,3,2.2c1.3,0.5,3.2,0.7,5.7,0.7v3.1h-34v-3h1.6
					c1.7,0,3.2-0.1,4.4-0.4c1.2-0.3,2.2-0.9,2.9-1.8c0.7-0.9,1.2-2.2,1.6-3.8c0.3-1.7,0.5-3.9,0.5-6.7v-29.4c0-3.3-0.3-6-0.8-8.1
					c-0.5-2.1-1.2-3.8-2.2-5.1c-0.9-1.3-2.1-2.1-3.4-2.6c-1.4-0.5-2.9-0.7-4.6-0.7c-1.3,0-2.5,0.1-3.8,0.4c-1.2,0.3-2.5,0.7-3.8,1.4
					c-1.3,0.7-2.8,1.7-4.3,2.8c-1.5,1.2-3.2,3-5.1,5.5v36.1c0,2.5,0,4.4,0.1,5.7c0.1,1.4,0.3,2.4,0.6,3.1c0.3,0.7,0.7,1.2,1.1,1.6
					c0.4,0.4,1.1,0.8,1.9,1.2c1.4,0.7,3.9,1.1,7.3,1.1v2.7h-35v-2.7c2.6,0,4.7-0.2,6.2-0.6c1.5-0.4,2.6-1,3.3-2c0.7-1,1.1-2.3,1.3-4
					c0.1-1.7,0.2-3.8,0.2-6.3v-29.8c0-3.2-0.3-5.8-0.8-7.9s-1.3-3.8-2.4-5.1c-1-1.3-2.3-2.2-3.7-2.8c-1.4-0.6-3-0.8-4.6-0.8
					c-1.7,0-3.4,0.3-5.1,0.9c-1.7,0.6-3.3,1.3-4.9,2.3c-1.5,0.9-3,1.9-4.3,3c-1.3,1.1-2.4,2.2-3.2,3.2v36c0,2.3,0.1,4.2,0.2,5.6
					c0.1,1.4,0.4,2.5,0.7,3.3c0.3,0.8,0.7,1.4,1.2,1.8c0.5,0.4,1,0.8,1.6,1.1c1.2,0.7,3.6,1,7.4,1v2.7h-34v-2.7c2.2,0,4-0.2,5.3-0.5
					c1.3-0.3,2.3-1,3-1.9c0.7-1,1.2-2.3,1.4-3.9c0.2-1.6,0.3-3.8,0.3-6.4v-25.9c0-4.4-0.1-7.9-0.2-10.4c-0.1-2.5-0.4-4.4-0.8-5.6
					c-0.4-1.3-0.9-2-1.6-2.3c-0.7-0.3-1.5-0.4-2.6-0.4c-0.6,0-1.3,0.1-2.1,0.3c-0.8,0.2-1.7,0.5-2.7,0.8l-1.1-2.7l19.7-8.3h4.4
					V1237.5z"/>
			</g>
		</g>
	</g>
	<g id="SELECTOR-ELEMENTOS-MADERA-SUB">
		<circle class="st6" cx="671.9" cy="588" r="512.7"/>
		<ellipse class="st7" cx="669.6" cy="587.1" rx="518" ry="514"/>
		<line class="st8" x1="219.9" y1="363.9" x2="1128.7" y2="363.9"/>
		<line class="st8" x1="1063.7" y1="923.1" x2="285.5" y2="922.9"/>
		<line class="st9" x1="497.1" y1="399.3" x2="497.1" y2="887.7"/>
		<line class="st10" x1="569.2" y1="399.3" x2="424.9" y2="399.3"/>
		<line class="st10" x1="569.2" y1="887.5" x2="424.9" y2="887.5"/>
		<g>
			<path d="M567.2,607.3l31.2-15.2h3.1v108.1c0,3.8,0,6.7,0.1,8.8c0.1,2.1,0.3,3.7,0.7,4.9c0.4,1.1,0.8,1.9,1.4,2.4
				c0.6,0.5,1.4,0.9,2.4,1.4c1.9,1,5.7,1.6,11.6,1.6v3.5h-48.2v-3.5c3.1,0,5.6-0.1,7.5-0.4c1.9-0.3,3.3-0.6,4.4-1.1
				c1-0.4,1.8-1,2.3-1.6c0.5-0.7,0.9-1.4,1.2-2.1c0.7-1.4,1-6,1-13.8V631c0-5.5-0.1-9.8-0.4-12.9c-0.2-3.1-0.6-5.5-1.2-7
				c-0.6-1.5-1.3-2.5-2.3-2.9c-0.9-0.4-2.2-0.6-3.7-0.6c-2.6,0-5.9,0.8-9.7,2.5L567.2,607.3z"/>
			<path d="M665.5,704.4c2.8,0,5.3,1,7.3,3c2.1,2,3.1,4.5,3.1,7.4c0,2.9-1,5.4-3.1,7.5c-2.1,2.1-4.5,3.1-7.3,3.1
				c-2.9,0-5.4-1-7.5-3.1c-2.1-2.1-3.1-4.6-3.1-7.5c0-3,1-5.5,3.1-7.5C660.1,705.4,662.6,704.4,665.5,704.4z"/>
			<path d="M773.7,594.6l-7.5,16.1h-38.5l-8.5,17.2c7.6,1.1,14.6,3.1,21.1,6c6.4,2.9,12,6.4,16.6,10.6c4.6,4.2,8.2,9.1,10.8,14.6
				c2.6,5.5,3.9,11.4,3.9,17.7c0,7.8-1.6,14.7-4.9,20.7c-3.3,6-7.5,11-12.5,15.1c-5,4.1-10.5,7.2-16.4,9.3
				c-5.9,2.1-11.5,3.2-16.8,3.2c-3.9,0-7.3-0.4-10.1-1.1c-2.8-0.7-5-1.7-6.8-2.9c-1.7-1.2-3-2.6-3.9-4c-0.8-1.5-1.3-3-1.3-4.6
				c0-1.8,0.7-3.4,2.1-4.7c1.4-1.4,3.2-2,5.5-2c0.8,0,1.6,0,2.3,0.1c0.7,0.1,1.3,0.3,2,0.6c0.7,0.3,1.6,0.8,2.5,1.4
				c1,0.6,2.2,1.4,3.7,2.5c2.3,1.7,4.7,2.9,7.1,3.7c2.4,0.8,4.8,1.2,7.3,1.2c3.7,0,7.2-0.8,10.5-2.3c3.3-1.5,6.3-3.5,8.8-6.1
				c2.5-2.6,4.6-5.6,6.1-9.1c1.6-3.5,2.3-7.2,2.3-11.3c0-3.9-0.7-7.6-2-11.3c-1.3-3.7-3.2-7.1-5.6-10.4c-2.4-3.2-5.4-6.2-8.8-8.8
				c-3.4-2.6-7.3-4.9-11.6-6.8c-3.5-1.5-7.5-2.6-12.2-3.3c-4.7-0.7-9.9-1.2-15.9-1.5l24.5-49.9H773.7z"/>
			<path d="M951.2,591.8l3,43.6h-3c-3.9-13.1-9.5-22.5-16.7-28.2c-7.2-5.7-15.9-8.6-26-8.6c-6.6,0-12.6,1.2-18.2,3.7
				c-5.5,2.5-10.3,6.3-14.3,11.5c-4,5.2-7.1,11.7-9.4,19.5c-2.3,7.8-3.4,17-3.4,27.6c0,8.6,1.1,16.3,3.2,23.3
				c2.1,7,5.2,12.9,9.3,17.8c4.1,4.9,9.1,8.7,15,11.4c5.9,2.7,12.7,4,20.4,4c8.1,0,15.4-1.8,22-5.4c6.3-3.3,13.3-10.3,21-21.2l3,1.8
				c-6.5,11.4-14,19.7-22.5,25c-8.5,5.3-18.7,8-30.5,8c-9.1,0-17.5-1.6-25.1-4.8s-14.2-7.7-19.7-13.5c-5.5-5.8-9.8-12.6-12.9-20.6
				c-3.1-7.9-4.7-16.7-4.7-26.2c0-12.9,2.9-24.6,8.6-35.3c5.6-10.7,13.5-19,23.5-24.8c10.2-5.9,21.2-8.9,33-8.9
				c9.3,0,18.4,2.3,27.4,6.8c2.6,1.4,4.5,2.1,5.6,2.1c2.1,0,3.8-0.8,5.1-2.5c1.4-1.7,2.3-3.8,2.9-6.3H951.2z"/>
			<path d="M1042.8,722.8L993.3,615v85.6c0,4.4,0.3,7.9,0.9,10.4c0.6,2.5,1.5,4.3,2.7,5.6c1.2,1.2,2.6,2,4.3,2.3s3.6,0.4,5.8,0.4
				h4.5v3.5H967v-3.5h4.5c2.3,0,4.2-0.2,5.9-0.5c1.7-0.3,3.1-1.1,4.2-2.4s2-3.1,2.5-5.6c0.6-2.5,0.8-5.9,0.8-10.1v-83.8
				c0-3-0.1-5.7-0.4-8c-0.3-2.3-1-4.3-2.2-5.9c-1.2-1.6-3-2.8-5.4-3.7c-2.4-0.8-5.8-1.3-10.1-1.3v-3.5h36.2l46.5,100.3l45.7-100.3
				h36.2v3.5h-4.4c-2.4,0-4.4,0.2-6.1,0.6c-1.7,0.4-3.1,1.2-4.2,2.5s-2,3.2-2.5,5.6c-0.6,2.5-0.8,5.9-0.8,10.1v83.8
				c0,4.4,0.3,7.9,0.9,10.4c0.6,2.5,1.5,4.3,2.7,5.6c1.2,1.2,2.6,2,4.3,2.3s3.6,0.4,5.8,0.4h4.4v3.5h-54.4v-3.5h4.5
				c2.3,0,4.2-0.2,5.9-0.6c1.7-0.4,3.1-1.2,4.3-2.5c1.2-1.3,2-3.1,2.6-5.6c0.6-2.4,0.8-5.8,0.8-10V615l-49.4,107.7H1042.8z"/>
		</g>
		<circle class="st11" cx="670.4" cy="586" r="512.7"/>
	</g>
	<g>
		<g>
			<path d="M429.2,1248.9v18.4h-1.3c-0.6-4.9-2.1-8.4-4.3-10.5c-2.3-2-5.6-3.1-10-3.1h-11v59.8c0,2.6,0.2,4.7,0.6,6.2
				c0.4,1.5,0.9,2.7,1.6,3.4c0.7,0.7,1.5,1.2,2.6,1.4c1,0.2,2.2,0.3,3.6,0.3h2.7v2.2h-33.1v-2.2h2.8c1.4,0,2.6-0.1,3.6-0.3
				c1-0.2,1.9-0.7,2.6-1.5c0.7-0.8,1.2-1.9,1.6-3.4c0.4-1.5,0.6-3.5,0.6-6.1v-59.8h-9.4c-2.4,0-4.4,0.2-6.2,0.6
				c-1.8,0.4-3.4,1.1-4.7,2.1c-1.3,1-2.4,2.4-3.1,4.1c-0.8,1.8-1.2,4-1.4,6.8h-2.2v-18.4H429.2z"/>
			<path d="M457.2,1285.2h36.3v-22.4c0-1.8,0-3.3-0.1-4.5c-0.1-1.2-0.2-2.1-0.4-2.9c-0.2-0.7-0.6-1.3-1-1.8c-0.4-0.4-1-0.8-1.7-1.2
				c-1.6-0.9-3.4-1.4-5.2-1.4h-2.8v-2.2h33.5v2.2H513c-0.7,0-1.5,0.1-2.4,0.3c-0.8,0.2-1.6,0.4-2.3,0.8c-0.7,0.3-1.4,0.8-1.9,1.3
				c-0.6,0.5-1,1.1-1.2,1.8c-0.4,1.2-0.6,3.8-0.6,7.7v50.4c0,1.8,0,3.3,0.1,4.5c0.1,1.1,0.2,2.1,0.4,2.8c0.2,0.7,0.5,1.3,0.9,1.8
				c0.4,0.4,0.9,0.8,1.6,1.2c1.6,0.9,3.4,1.4,5.3,1.4h2.8v2.2h-33.5v-2.2h2.8c1.3,0,2.5-0.1,3.5-0.3c1-0.2,1.9-0.7,2.7-1.5
				c0.7-0.8,1.3-1.9,1.7-3.5c0.4-1.6,0.6-3.7,0.6-6.4v-23.8h-36.3v23.8c0,1.8,0,3.3,0.1,4.5c0.1,1.1,0.2,2.1,0.4,2.8
				c0.2,0.7,0.6,1.3,1,1.8c0.4,0.4,1,0.8,1.7,1.2c1.6,0.9,3.4,1.4,5.2,1.4h2.8v2.2h-33.5v-2.2h2.8c3.2,0,5.5-0.9,7-2.8
				c0.9-1.1,1.4-4.1,1.4-8.9v-50.4c0-1.9,0-3.4-0.1-4.6c-0.1-1.2-0.2-2.1-0.4-2.8c-0.2-0.7-0.5-1.3-0.9-1.7
				c-0.4-0.4-0.9-0.8-1.6-1.2c-1.6-0.9-3.4-1.4-5.2-1.4h-2.8v-2.2h33.5v2.2h-2.8c-0.7,0-1.4,0.1-2.3,0.3c-0.8,0.2-1.6,0.4-2.3,0.8
				c-0.7,0.3-1.4,0.8-1.9,1.3c-0.6,0.5-1,1.1-1.2,1.8c-0.5,1.4-0.7,3.9-0.7,7.7V1285.2z"/>
			<path d="M554.6,1324.9v2.2h-33.5v-2.2h2.8c1.4,0,2.6-0.1,3.7-0.3c1.1-0.2,1.9-0.7,2.6-1.5c0.7-0.8,1.2-1.9,1.6-3.5
				c0.4-1.6,0.6-3.7,0.6-6.4v-50.5c0-1.8,0-3.3-0.1-4.4c-0.1-1.2-0.2-2.1-0.4-2.9c-0.2-0.7-0.5-1.3-0.9-1.8
				c-0.4-0.4-0.9-0.8-1.6-1.2c-1.7-0.9-3.5-1.4-5.3-1.4h-2.8v-2.2h33.5v2.2h-2.8c-1.4,0-2.6,0.1-3.7,0.3c-1.1,0.2-1.9,0.7-2.6,1.5
				c-0.7,0.8-1.2,2-1.6,3.5c-0.4,1.6-0.6,3.7-0.6,6.3v50.5c0,1.8,0,3.3,0.1,4.5c0.1,1.1,0.2,2.1,0.4,2.8c0.2,0.7,0.6,1.3,1,1.8
				c0.4,0.4,1,0.8,1.7,1.2c1.6,0.9,3.4,1.4,5.2,1.4H554.6z"/>
			<path d="M628.5,1247.1l1.8,26.6h-1.8c-2.4-8-5.8-13.7-10.2-17.2c-4.4-3.5-9.7-5.2-15.9-5.2c-4,0-7.7,0.8-11.1,2.3
				c-3.4,1.5-6.3,3.9-8.7,7c-2.4,3.2-4.3,7.1-5.7,11.9c-1.4,4.8-2.1,10.4-2.1,16.9c0,5.2,0.6,10,1.9,14.2c1.3,4.2,3.2,7.9,5.7,10.9
				c2.5,3,5.5,5.3,9.2,7c3.6,1.6,7.8,2.5,12.5,2.5c4.9,0,9.4-1.1,13.4-3.3c3.8-2,8.1-6.3,12.8-12.9l1.8,1.1c-4,6.9-8.5,12-13.7,15.3
				c-5.2,3.2-11.4,4.9-18.6,4.9c-5.6,0-10.7-1-15.3-2.9c-4.6-1.9-8.6-4.7-12-8.2c-3.4-3.5-6-7.7-7.9-12.6c-1.9-4.8-2.8-10.2-2.8-16
				c0-7.9,1.7-15,5.2-21.5c3.4-6.5,8.2-11.6,14.4-15.1c6.2-3.6,12.9-5.4,20.1-5.4c5.7,0,11.2,1.4,16.7,4.1c1.6,0.9,2.8,1.3,3.4,1.3
				c1.3,0,2.3-0.5,3.1-1.5c0.8-1,1.4-2.3,1.8-3.9H628.5z"/>
			<path d="M671.5,1283.7l28.8,28.6c2.4,2.4,4.6,4.4,6.5,6c1.9,1.6,3.8,2.8,5.5,3.8c1.7,0.9,3.4,1.6,5,2.1c1.6,0.4,3.3,0.7,5,0.7
				v2.2h-37.2v-2.2c2.5,0,4.1-0.4,5-1.3c0.9-0.9,1.3-1.8,1.3-2.8c0-0.4,0-0.8-0.1-1.1c-0.1-0.3-0.2-0.7-0.5-1.1
				c-0.3-0.4-0.7-0.9-1.2-1.5c-0.6-0.6-1.3-1.4-2.3-2.4l-27-26.8v25.2c0,1.8,0,3.3,0.1,4.5c0.1,1.1,0.2,2.1,0.4,2.8
				c0.2,0.7,0.5,1.3,0.9,1.8c0.4,0.4,1,0.8,1.7,1.2c1.7,0.9,3.4,1.4,5.2,1.4h2.7v2.2h-33.3v-2.2h2.8c3.2,0,5.6-0.9,7.1-2.8
				c0.9-1.3,1.4-4.2,1.4-8.9v-50.5c0-1.7,0-3.2-0.1-4.3c-0.1-1.2-0.2-2.1-0.4-2.9c-0.2-0.7-0.5-1.4-0.9-1.8
				c-0.4-0.5-0.9-0.9-1.6-1.2c-1.8-0.9-3.6-1.4-5.3-1.4h-2.8v-2.2h33.3v2.2h-2.7c-1.4,0-2.9,0.3-4.5,0.9c-1.6,0.6-2.7,1.7-3.2,3.2
				c-0.5,1.3-0.7,3.8-0.7,7.6v23.9c0.1-0.1,0.4-0.4,1.2-1.1c0.7-0.7,1.5-1.4,2.4-2.2c0.9-0.8,1.7-1.6,2.6-2.4
				c0.8-0.8,1.4-1.3,1.8-1.6c4.2-3.8,7.7-7.1,10.6-9.9c2.9-2.8,5.2-5.1,6.9-7c1.7-1.9,3-3.5,3.7-4.8c0.7-1.3,1.1-2.4,1.1-3.2
				c0-0.9-0.4-1.7-1.2-2.4c-0.8-0.7-2.2-1-4.1-1h-1.8v-2.2h28.7v2.2c-1,0.1-2.1,0.2-3.1,0.3c-1.1,0.1-2.2,0.5-3.5,1.1
				c-1.3,0.6-2.8,1.5-4.4,2.7c-1.7,1.2-3.6,2.9-5.9,5c-0.5,0.4-1.6,1.6-3.5,3.6c-1.9,2-4.6,4.7-8.2,8.2L671.5,1283.7z"/>
			<path d="M719.9,1248.9h21.2l47.8,58.7v-45.1c0-2.6-0.2-4.7-0.6-6.3c-0.4-1.5-0.9-2.7-1.6-3.4c-0.7-0.7-1.6-1.2-2.6-1.4
				c-1-0.2-2.2-0.3-3.5-0.3h-2.8v-2.2h27.3v2.2h-2.8c-1.4,0-2.6,0.1-3.6,0.3c-1,0.2-1.9,0.7-2.6,1.5c-0.7,0.8-1.2,2-1.5,3.4
				c-0.3,1.5-0.5,3.5-0.5,6.1v65.9h-2.1l-51.5-63v48.2c0,2.7,0.2,4.8,0.6,6.3c0.4,1.5,0.9,2.7,1.6,3.4c0.7,0.7,1.5,1.2,2.6,1.4
				c1,0.2,2.2,0.3,3.5,0.3h2.8v2.2h-27.2v-2.2h2.8c1.4,0,2.6-0.1,3.6-0.3c1-0.2,1.9-0.7,2.6-1.5c0.7-0.8,1.2-1.9,1.6-3.4
				c0.3-1.5,0.5-3.5,0.5-6.1v-54.4c-1.1-1.4-2.1-2.5-2.9-3.3c-0.8-0.8-1.5-1.5-2.2-2c-0.7-0.5-1.4-0.9-2.2-1.3
				c-0.8-0.3-1.8-0.7-3-1.1c-1.1-0.3-2.8-0.5-5.1-0.5V1248.9z"/>
			<path d="M831.4,1253.2v30.9h17.1c2.5,0,4.6-0.2,6.1-0.7c1.5-0.5,2.8-1.1,3.7-2.1c0.9-0.9,1.5-2.1,1.8-3.5
				c0.3-1.4,0.6-3.1,0.7-5.1h2.2v27.2h-2.2c-0.3-2.2-0.6-4.1-1-5.6c-0.4-1.5-1-2.7-1.8-3.6c-0.8-0.9-2-1.5-3.5-1.9
				c-1.5-0.4-3.5-0.6-6-0.6h-17.1v25.8c0,2,0,3.5,0.1,4.6c0.1,1.1,0.3,2,0.7,2.6c0.4,0.6,1,1,1.9,1.2c0.9,0.2,2.1,0.3,3.8,0.3h13.2
				c2.2,0,4.1-0.1,5.7-0.2c1.5-0.1,2.9-0.3,4-0.7c1.1-0.3,2.1-0.8,3-1.4c0.9-0.6,1.8-1.4,2.8-2.3c2.3-2.2,4.7-5.8,7.3-10.8h2.3
				l-6.8,19.6h-60.2v-2.2h2.8c0.7,0,1.5-0.1,2.3-0.3c0.8-0.2,1.6-0.4,2.3-0.7c0.7-0.3,1.4-0.7,1.9-1.2c0.6-0.5,1-1.1,1.2-1.8
				c0.5-1.3,0.7-3.8,0.7-7.6v-50.8c0-5-0.5-8.1-1.5-9.2c-1.4-1.5-3.7-2.3-7-2.3h-2.8v-2.2h60.2v17.1h-1.4c-0.6-2.8-1.2-5.1-1.8-6.8
				c-0.7-1.7-1.5-3-2.6-3.9c-1.1-0.9-2.5-1.5-4.2-1.8c-1.7-0.3-3.9-0.4-6.5-0.4H831.4z"/>
			<path d="M932.9,1247.1v27h-2.2c-1-7.3-3.4-12.8-7.1-16.7c-3.8-3.8-8.6-5.8-14.5-5.8c-2,0-3.8,0.3-5.5,1c-1.7,0.7-3.1,1.6-4.4,2.7
				c-1.3,1.1-2.2,2.4-2.9,3.8c-0.7,1.4-1,2.9-1,4.5c0,1.4,0.3,2.8,0.9,4.1c0.6,1.3,2.4,3.3,5.3,6.1c5,3.2,9.4,5.8,13.3,7.8
				c3.7,2,8.6,5,14.9,9.1c2.7,2.1,4.8,4.5,6.2,7.4c1.4,2.8,2.2,5.8,2.2,8.9c0,2.9-0.6,5.7-1.8,8.3c-1.2,2.6-2.9,4.9-5,6.9
				c-2.2,2-4.7,3.6-7.8,4.7c-3,1.2-6.4,1.8-10,1.8c-2.3,0-4.4-0.2-6.4-0.5c-0.3-0.1-1.2-0.3-2.7-0.7s-3-0.9-4.7-1.3
				c-1.7-0.5-3.2-0.9-4.6-1.3c-1.4-0.4-2.3-0.6-2.5-0.6c-1,0-1.7,0.3-2.3,0.9c-0.5,0.6-1,1.8-1.2,3.6h-2.2V1302h2.2
				c1,5.5,2.4,9.7,4,12.6c0.8,1.4,1.9,2.7,3.2,3.8c1.3,1.2,2.9,2.2,4.6,3.1c1.7,0.9,3.5,1.6,5.5,2.1c1.9,0.5,3.9,0.7,5.9,0.7
				c2.4,0,4.6-0.3,6.5-1c1.9-0.7,3.6-1.6,4.9-2.8c1.3-1.2,2.4-2.5,3.1-4.1c0.7-1.5,1.1-3.2,1.1-4.9c0-1.9-0.5-3.9-1.6-5.8
				c-1.1-1.9-2.9-3.9-5.4-5.8c-2.5-1.5-5.4-3.2-8.8-5.2c-6.5-3.7-12.2-7.3-17.3-10.8c-2.8-2.2-4.9-4.7-6.4-7.4
				c-1.5-2.7-2.2-5.6-2.2-8.9c0-2.8,0.6-5.4,1.7-7.9c1.1-2.5,2.7-4.7,4.8-6.6c2-1.9,4.5-3.4,7.3-4.5c2.8-1.1,5.8-1.6,9.1-1.6
				c4.1,0,8.5,1,13.2,3c1.1,0.5,2,0.8,2.8,1.1c0.7,0.3,1.3,0.4,1.8,0.3c1,0,1.9-0.3,2.5-0.9c0.6-0.6,1.1-1.8,1.5-3.6H932.9z"/>
			<path d="M998.5,1247.1v27h-2.2c-1-7.3-3.4-12.8-7.1-16.7c-3.8-3.8-8.6-5.8-14.5-5.8c-2,0-3.8,0.3-5.5,1c-1.7,0.7-3.1,1.6-4.4,2.7
				c-1.3,1.1-2.2,2.4-2.9,3.8c-0.7,1.4-1,2.9-1,4.5c0,1.4,0.3,2.8,0.9,4.1c0.6,1.3,2.4,3.3,5.3,6.1c5,3.2,9.4,5.8,13.3,7.8
				c3.7,2,8.6,5,14.9,9.1c2.7,2.1,4.8,4.5,6.2,7.4c1.4,2.8,2.2,5.8,2.2,8.9c0,2.9-0.6,5.7-1.8,8.3c-1.2,2.6-2.9,4.9-5,6.9
				c-2.2,2-4.7,3.6-7.8,4.7c-3,1.2-6.4,1.8-10,1.8c-2.3,0-4.4-0.2-6.4-0.5c-0.3-0.1-1.2-0.3-2.7-0.7c-1.5-0.4-3-0.9-4.7-1.3
				c-1.7-0.5-3.2-0.9-4.6-1.3c-1.4-0.4-2.3-0.6-2.5-0.6c-1,0-1.7,0.3-2.3,0.9c-0.5,0.6-1,1.8-1.2,3.6h-2.2V1302h2.2
				c1,5.5,2.4,9.7,4,12.6c0.8,1.4,1.9,2.7,3.2,3.8c1.3,1.2,2.9,2.2,4.6,3.1c1.7,0.9,3.5,1.6,5.5,2.1c1.9,0.5,3.9,0.7,5.9,0.7
				c2.4,0,4.6-0.3,6.5-1c1.9-0.7,3.6-1.6,4.9-2.8c1.3-1.2,2.4-2.5,3.1-4.1c0.7-1.5,1.1-3.2,1.1-4.9c0-1.9-0.5-3.9-1.6-5.8
				c-1.1-1.9-2.9-3.9-5.4-5.8c-2.5-1.5-5.4-3.2-8.8-5.2c-6.5-3.7-12.2-7.3-17.3-10.8c-2.8-2.2-4.9-4.7-6.4-7.4
				c-1.5-2.7-2.2-5.6-2.2-8.9c0-2.8,0.6-5.4,1.7-7.9c1.1-2.5,2.7-4.7,4.8-6.6c2-1.9,4.5-3.4,7.3-4.5c2.8-1.1,5.8-1.6,9.1-1.6
				c4.1,0,8.5,1,13.2,3c1.1,0.5,2,0.8,2.8,1.1c0.7,0.3,1.3,0.4,1.8,0.3c1,0,1.9-0.3,2.5-0.9c0.6-0.6,1.1-1.8,1.5-3.6H998.5z"/>
		</g>
		<g>
			<path d="M404,1367.5c5,0,9.7,1,14.3,3.1c4.5,2.1,8.5,4.9,12,8.5s6.2,7.9,8.2,12.8c2,4.9,3.1,10.2,3.1,16c0,5.9-1,11.4-3.1,16.4
				c-2,5-4.8,9.4-8.3,13.1c-3.5,3.7-7.5,6.6-12.2,8.7c-4.7,2.1-9.6,3.1-14.9,3.1c-5.3,0-10.3-1-15-3c-4.6-2-8.7-4.8-12.1-8.5
				c-3.4-3.6-6.1-8-8.1-13c-2-5-3-10.6-3-16.7c0-5.6,1-10.9,3-15.8c2-4.9,4.7-9.2,8.2-12.9c3.5-3.6,7.6-6.5,12.3-8.6
				C393.2,1368.6,398.4,1367.5,404,1367.5z M402.9,1371.7c-4,0-7.5,0.8-10.5,2.5c-3.1,1.7-5.6,4.1-7.7,7.2
				c-2.1,3.1-3.7,6.9-4.8,11.4c-1.1,4.4-1.6,9.4-1.6,15c0,5.5,0.5,10.5,1.6,15.1c1.1,4.6,2.6,8.5,4.7,11.8c2.1,3.3,4.7,5.8,7.8,7.7
				c3.1,1.8,6.7,2.7,10.7,2.7c3.6,0,7-0.7,10-2.1c3.1-1.4,5.7-3.5,8-6.4c2.3-2.9,4.1-6.6,5.4-11.1c1.3-4.5,1.9-9.9,1.9-16.1
				c0-5.9-0.5-11.2-1.6-15.9c-1.1-4.7-2.7-8.6-4.8-11.9c-2.2-3.2-4.8-5.7-8-7.4C410.8,1372.6,407.1,1371.7,402.9,1371.7z"/>
			<path d="M470.2,1373.5v30.7h14.2c1.7,0,3.1-0.2,4.3-0.5c1.2-0.3,2.2-0.9,3-1.7c0.8-0.8,1.4-1.9,1.9-3.3c0.5-1.4,0.8-3.1,1.1-5.2
				h2.2v26.4h-2.2c-0.1-1.9-0.3-3.6-0.6-5c-0.3-1.4-0.9-2.5-1.7-3.4c-0.8-0.9-1.8-1.5-3.1-1.9c-1.3-0.4-2.9-0.6-4.9-0.6h-14.2v24.5
				c0,1.8,0,3.3,0.1,4.5c0.1,1.1,0.2,2.1,0.4,2.8c0.2,0.7,0.6,1.3,1,1.8c0.4,0.4,1,0.8,1.7,1.2c1.6,0.9,3.4,1.4,5.2,1.4h2.8v2.2H448
				v-2.2h2.8c1.4,0,2.6-0.1,3.7-0.3c1.1-0.2,1.9-0.7,2.6-1.5c0.7-0.8,1.2-1.9,1.6-3.5c0.4-1.6,0.6-3.7,0.6-6.4v-50.5
				c0-1.8,0-3.3-0.1-4.4c-0.1-1.2-0.2-2.1-0.4-2.9c-0.2-0.7-0.5-1.3-0.9-1.8c-0.4-0.5-0.9-0.9-1.6-1.2c-0.9-0.5-1.7-0.8-2.6-1
				c-0.9-0.2-1.8-0.3-2.8-0.3H448v-2.2h58.2v17.2h-1.3c-0.7-2.8-1.6-5.1-2.5-6.8c-0.9-1.7-2.1-3-3.4-3.9c-1.3-0.9-2.9-1.5-4.8-1.8
				c-1.8-0.3-4-0.4-6.6-0.4H470.2z"/>
			<path d="M555.1,1377l19-9.3h1.9v66c0,2.3,0,4.1,0.1,5.4c0.1,1.3,0.2,2.3,0.4,3c0.2,0.7,0.5,1.2,0.9,1.5c0.3,0.3,0.8,0.6,1.5,0.9
				c1.1,0.6,3.5,0.9,7.1,0.9v2.2h-29.4v-2.2c1.9,0,3.4-0.1,4.6-0.3c1.1-0.2,2-0.4,2.7-0.6c0.6-0.3,1.1-0.6,1.4-1
				c0.3-0.4,0.6-0.8,0.7-1.3c0.4-0.9,0.6-3.7,0.6-8.4v-42.2c0-3.3-0.1-5.9-0.2-7.9c-0.1-1.9-0.4-3.3-0.7-4.3
				c-0.3-0.9-0.8-1.5-1.4-1.8c-0.6-0.3-1.3-0.4-2.2-0.4c-1.6,0-3.6,0.5-5.9,1.5L555.1,1377z"/>
			<path d="M615,1436.2c1.7,0,3.2,0.6,4.5,1.8c1.3,1.2,1.9,2.7,1.9,4.5c0,1.8-0.6,3.3-1.9,4.6c-1.3,1.3-2.8,1.9-4.5,1.9
				c-1.8,0-3.3-0.6-4.6-1.9c-1.3-1.3-1.9-2.8-1.9-4.6c0-1.8,0.6-3.4,1.9-4.6C611.7,1436.8,613.2,1436.2,615,1436.2z"/>
			<path d="M681,1369.2l-4.6,9.8h-23.5l-5.2,10.5c4.6,0.7,8.9,1.9,12.9,3.7c3.9,1.8,7.3,3.9,10.1,6.5c2.8,2.6,5,5.5,6.6,8.9
				c1.6,3.4,2.4,7,2.4,10.8c0,4.8-1,9-3,12.6c-2,3.6-4.5,6.7-7.6,9.2c-3.1,2.5-6.4,4.4-10,5.7c-3.6,1.3-7,1.9-10.2,1.9
				c-2.4,0-4.5-0.2-6.2-0.6c-1.7-0.4-3.1-1-4.1-1.8c-1.1-0.7-1.8-1.6-2.4-2.5c-0.5-0.9-0.8-1.8-0.8-2.8c0-1.1,0.4-2,1.3-2.9
				c0.9-0.8,2-1.2,3.4-1.2c0.5,0,1,0,1.4,0.1c0.4,0.1,0.8,0.2,1.2,0.4c0.4,0.2,0.9,0.5,1.5,0.9c0.6,0.4,1.4,0.9,2.3,1.5
				c1.4,1,2.9,1.8,4.3,2.3c1.5,0.5,2.9,0.7,4.4,0.7c2.2,0,4.4-0.5,6.4-1.4c2-0.9,3.8-2.2,5.4-3.7c1.5-1.6,2.8-3.4,3.7-5.5
				c0.9-2.1,1.4-4.4,1.4-6.9c0-2.4-0.4-4.6-1.2-6.9c-0.8-2.2-2-4.3-3.4-6.3c-1.5-2-3.3-3.8-5.4-5.4c-2.1-1.6-4.5-3-7.1-4.1
				c-2.1-0.9-4.6-1.6-7.4-2c-2.8-0.4-6.1-0.7-9.7-0.9l15-30.5H681z"/>
			<path d="M789.3,1367.5l1.8,26.6h-1.8c-2.4-8-5.8-13.7-10.2-17.2c-4.4-3.5-9.7-5.2-15.9-5.2c-4,0-7.7,0.8-11.1,2.3
				c-3.4,1.5-6.3,3.9-8.7,7c-2.4,3.2-4.3,7.1-5.7,11.9c-1.4,4.8-2.1,10.4-2.1,16.9c0,5.2,0.6,10,1.9,14.2c1.3,4.2,3.2,7.9,5.7,10.9
				c2.5,3,5.5,5.3,9.2,7c3.6,1.6,7.8,2.5,12.5,2.5c4.9,0,9.4-1.1,13.4-3.3c3.8-2,8.1-6.3,12.8-12.9l1.8,1.1c-4,6.9-8.5,12-13.7,15.3
				c-5.2,3.2-11.4,4.9-18.6,4.9c-5.6,0-10.7-1-15.3-2.9c-4.6-1.9-8.6-4.7-12-8.2c-3.4-3.5-6-7.7-7.9-12.6c-1.9-4.8-2.8-10.2-2.8-16
				c0-7.9,1.7-15,5.2-21.5c3.4-6.5,8.2-11.6,14.4-15.1c6.2-3.6,12.9-5.4,20.1-5.4c5.7,0,11.2,1.4,16.7,4.1c1.6,0.9,2.8,1.3,3.4,1.3
				c1.3,0,2.3-0.5,3.1-1.5c0.8-1,1.4-2.3,1.8-3.9H789.3z"/>
			<path d="M845.2,1447.4l-30.2-65.7v52.2c0,2.7,0.2,4.8,0.6,6.3c0.4,1.5,0.9,2.7,1.6,3.4c0.7,0.7,1.6,1.2,2.6,1.4
				c1,0.2,2.2,0.3,3.5,0.3h2.8v2.2h-27.2v-2.2h2.8c1.4,0,2.6-0.1,3.6-0.3c1-0.2,1.9-0.7,2.6-1.5c0.7-0.8,1.2-1.9,1.5-3.4
				c0.3-1.5,0.5-3.6,0.5-6.2v-51.1c0-1.8-0.1-3.5-0.3-4.9c-0.2-1.4-0.6-2.6-1.3-3.6c-0.7-1-1.8-1.7-3.3-2.2s-3.5-0.8-6.2-0.8v-2.2
				H821l28.4,61.2l27.9-61.2h22.1v2.2h-2.7c-1.4,0-2.7,0.1-3.7,0.3c-1,0.2-1.9,0.7-2.6,1.5c-0.7,0.8-1.2,1.9-1.5,3.4
				c-0.3,1.5-0.5,3.6-0.5,6.2v51.1c0,2.7,0.2,4.8,0.6,6.3c0.4,1.5,0.9,2.7,1.6,3.4c0.7,0.7,1.6,1.2,2.6,1.4c1,0.2,2.2,0.3,3.5,0.3
				h2.7v2.2h-33.2v-2.2h2.8c1.4,0,2.6-0.1,3.6-0.3c1-0.2,1.9-0.7,2.6-1.5c0.7-0.8,1.2-1.9,1.6-3.4c0.3-1.5,0.5-3.5,0.5-6.1v-52.2
				l-30.1,65.7H845.2z"/>
		</g>
		<g>
			<path d="M475.3,1495.1v2.2c-1.5,0-2.8,0.1-3.8,0.4c-1,0.3-1.9,0.9-2.8,1.9c-0.9,1-1.7,2.5-2.6,4.5s-1.9,4.6-3,8l-21.8,63.1H439
				l-17.8-50l-17.6,50h-2.2l-23.2-64.9c-0.9-2.4-1.5-4.3-2.1-5.7c-0.5-1.4-0.9-2.3-1.2-2.8c-0.8-1.5-1.8-2.6-3.1-3.3
				c-1.3-0.7-3.1-1.1-5.4-1.1v-2.2h28.9v2.2h-1.4c-2,0-3.6,0.5-4.6,1.4c-1.1,0.9-1.6,2-1.6,3.4c0,1.4,0.9,4.5,2.6,9.3l15.4,43.9
				l12.9-37.3l-4.1-11.8c-0.6-1.4-1.3-2.7-1.9-3.8c-0.6-1.1-1.3-2-2.2-2.8c-0.8-0.7-1.7-1.3-2.8-1.7c-1.1-0.4-2.4-0.6-4-0.6v-2.2
				h30.4v2.2h-2.1c-2.2,0-3.8,0.5-4.7,1.4c-1,0.9-1.5,2.2-1.5,3.8c0,2,0.9,5.4,2.6,10.2l15,42.5l14.9-43.1c0.8-2.4,1.4-4.4,1.9-6
				c0.5-1.6,0.7-2.9,0.7-3.9c0-1.8-0.8-3.1-2.4-3.8c-1.6-0.7-3.7-1.1-6.3-1.1v-2.2H475.3z"/>
			<path d="M512.6,1571.1v2.2h-33.5v-2.2h2.8c1.4,0,2.6-0.1,3.7-0.3c1.1-0.2,1.9-0.7,2.6-1.5c0.7-0.8,1.2-1.9,1.6-3.5
				c0.4-1.6,0.6-3.7,0.6-6.4v-50.5c0-1.8,0-3.3-0.1-4.4c-0.1-1.2-0.2-2.1-0.4-2.9c-0.2-0.7-0.5-1.3-0.9-1.8
				c-0.4-0.4-0.9-0.8-1.6-1.2c-1.7-0.9-3.5-1.4-5.3-1.4h-2.8v-2.2h33.5v2.2h-2.8c-1.4,0-2.6,0.1-3.7,0.3c-1.1,0.2-1.9,0.7-2.6,1.5
				c-0.7,0.8-1.2,2-1.6,3.5c-0.4,1.6-0.6,3.7-0.6,6.3v50.5c0,1.8,0,3.3,0.1,4.5c0.1,1.1,0.2,2.1,0.4,2.8c0.2,0.7,0.6,1.3,1,1.8
				c0.4,0.4,1,0.8,1.7,1.2c1.6,0.9,3.4,1.4,5.2,1.4H512.6z"/>
			<path d="M583.8,1495.1v18.4h-1.3c-0.6-4.9-2.1-8.4-4.3-10.5c-2.3-2-5.6-3.1-10-3.1h-11v59.8c0,2.6,0.2,4.7,0.6,6.2
				c0.4,1.5,0.9,2.7,1.6,3.4c0.7,0.7,1.5,1.2,2.6,1.4c1,0.2,2.2,0.3,3.6,0.3h2.7v2.2h-33.1v-2.2h2.8c1.4,0,2.6-0.1,3.6-0.3
				c1-0.2,1.9-0.7,2.6-1.5c0.7-0.8,1.2-1.9,1.6-3.4c0.4-1.5,0.6-3.5,0.6-6.1V1500h-9.4c-2.4,0-4.4,0.2-6.2,0.6
				c-1.8,0.4-3.4,1.1-4.7,2.1c-1.3,1-2.4,2.4-3.1,4.1c-0.8,1.8-1.2,4-1.4,6.8h-2.2v-18.4H583.8z"/>
			<path d="M611.9,1531.4h36.3V1509c0-1.8,0-3.3-0.1-4.5c-0.1-1.2-0.2-2.1-0.4-2.9c-0.2-0.7-0.6-1.3-1-1.8s-1-0.8-1.7-1.2
				c-1.6-0.9-3.4-1.4-5.2-1.4H637v-2.2h33.5v2.2h-2.8c-0.7,0-1.5,0.1-2.4,0.3c-0.8,0.2-1.6,0.4-2.3,0.8c-0.7,0.3-1.4,0.8-1.9,1.3
				c-0.6,0.5-1,1.1-1.2,1.8c-0.4,1.2-0.6,3.8-0.6,7.7v50.4c0,1.8,0,3.3,0.1,4.5c0.1,1.1,0.2,2.1,0.4,2.8c0.2,0.7,0.5,1.3,0.9,1.8
				c0.4,0.4,0.9,0.8,1.6,1.2c1.6,0.9,3.4,1.4,5.3,1.4h2.8v2.2H637v-2.2h2.8c1.3,0,2.5-0.1,3.5-0.3c1-0.2,1.9-0.7,2.7-1.5
				c0.7-0.8,1.3-1.9,1.7-3.5c0.4-1.6,0.6-3.7,0.6-6.4v-23.8h-36.3v23.8c0,1.8,0,3.3,0.1,4.5c0.1,1.1,0.2,2.1,0.4,2.8
				c0.2,0.7,0.6,1.3,1,1.8c0.4,0.4,1,0.8,1.7,1.2c1.6,0.9,3.4,1.4,5.2,1.4h2.8v2.2h-33.5v-2.2h2.8c3.2,0,5.5-0.9,7-2.8
				c0.9-1.1,1.4-4.1,1.4-8.9V1509c0-1.9,0-3.4-0.1-4.6c-0.1-1.2-0.2-2.1-0.4-2.8c-0.2-0.7-0.5-1.3-0.9-1.7c-0.4-0.4-0.9-0.8-1.6-1.2
				c-1.6-0.9-3.4-1.4-5.2-1.4h-2.8v-2.2h33.5v2.2h-2.8c-0.7,0-1.4,0.1-2.3,0.3c-0.8,0.2-1.6,0.4-2.3,0.8c-0.7,0.3-1.4,0.8-1.9,1.3
				c-0.6,0.5-1,1.1-1.2,1.8c-0.5,1.4-0.7,3.9-0.7,7.7V1531.4z"/>
		</g>
		<g>
			<path d="M409.4,1696.1l-30.2-65.7v52.2c0,2.7,0.2,4.8,0.6,6.3c0.4,1.5,0.9,2.7,1.6,3.4c0.7,0.7,1.6,1.2,2.6,1.4
				c1,0.2,2.2,0.3,3.5,0.3h2.8v2.2h-27.2v-2.2h2.8c1.4,0,2.6-0.1,3.6-0.3c1-0.2,1.9-0.7,2.6-1.5c0.7-0.8,1.2-1.9,1.5-3.4
				c0.3-1.5,0.5-3.6,0.5-6.2v-51.1c0-1.8-0.1-3.5-0.3-4.9c-0.2-1.4-0.6-2.6-1.3-3.6c-0.7-1-1.8-1.7-3.3-2.2
				c-1.5-0.5-3.5-0.8-6.2-0.8v-2.2h22.1l28.4,61.2l27.9-61.2h22.1v2.2H461c-1.4,0-2.7,0.1-3.7,0.3c-1,0.2-1.9,0.7-2.6,1.5
				s-1.2,1.9-1.5,3.4c-0.3,1.5-0.5,3.6-0.5,6.2v51.1c0,2.7,0.2,4.8,0.6,6.3c0.4,1.5,0.9,2.7,1.6,3.4c0.7,0.7,1.6,1.2,2.6,1.4
				c1,0.2,2.2,0.3,3.5,0.3h2.7v2.2h-33.2v-2.2h2.8c1.4,0,2.6-0.1,3.6-0.3c1-0.2,1.9-0.7,2.6-1.5c0.7-0.8,1.2-1.9,1.6-3.4
				c0.3-1.5,0.5-3.5,0.5-6.1v-52.2l-30.1,65.7H409.4z"/>
			<path d="M520.1,1670h-30.3l-5.3,12.3c-1.3,3-1.9,5.3-1.9,6.8c0,0.6,0.1,1.2,0.3,1.7c0.2,0.5,0.6,1,1.3,1.4
				c0.7,0.4,1.6,0.8,2.8,1.1c1.2,0.3,2.7,0.5,4.7,0.6v2.2h-24.6v-2.2c1.9-0.3,3.5-0.7,4.7-1.3c1.2-0.6,2.2-1.4,3.1-2.4
				c0.9-1,1.6-2.3,2.4-3.9c0.7-1.6,1.6-3.6,2.6-5.9l27.5-64.3h2l27.2,64.9c1.1,2.7,2.1,4.9,3.1,6.5c0.9,1.6,1.9,2.9,2.9,3.8
				c1,0.9,2.1,1.5,3.3,1.9c1.2,0.3,2.6,0.5,4.3,0.6v2.2h-30.9v-2.2c3.1-0.1,5.2-0.6,6.3-1.5c1.1-0.9,1.7-2,1.7-3.2
				c-0.1-1.7-0.8-4.4-2.3-8.1L520.1,1670z M518.5,1665.7l-13.2-31.6l-13.6,31.6H518.5z"/>
			<path d="M606.6,1617.9v18.4h-1.3c-0.6-4.9-2.1-8.4-4.3-10.5c-2.3-2-5.6-3.1-10-3.1h-11v59.8c0,2.6,0.2,4.7,0.6,6.2
				c0.4,1.5,0.9,2.7,1.6,3.4c0.7,0.7,1.5,1.2,2.6,1.4c1,0.2,2.2,0.3,3.6,0.3h2.7v2.2h-33.1v-2.2h2.8c1.4,0,2.6-0.1,3.6-0.3
				c1-0.2,1.9-0.7,2.6-1.5c0.7-0.8,1.2-1.9,1.6-3.4c0.4-1.5,0.6-3.5,0.6-6.1v-59.8h-9.4c-2.4,0-4.4,0.2-6.2,0.6
				c-1.8,0.4-3.4,1.1-4.7,2.1c-1.3,1-2.4,2.4-3.1,4.1c-0.8,1.8-1.2,4-1.4,6.8h-2.2v-18.4H606.6z"/>
			<path d="M635.1,1622.2v30.9h17.1c2.5,0,4.6-0.2,6.1-0.7c1.5-0.5,2.8-1.1,3.7-2.1c0.9-0.9,1.5-2.1,1.8-3.5
				c0.3-1.4,0.6-3.1,0.7-5.1h2.2v27.2h-2.2c-0.3-2.2-0.6-4.1-1-5.6c-0.4-1.5-1-2.7-1.8-3.6c-0.8-0.9-2-1.5-3.5-1.9
				c-1.5-0.4-3.5-0.6-6-0.6h-17.1v25.8c0,2,0,3.5,0.1,4.6c0.1,1.1,0.3,2,0.7,2.6c0.4,0.6,1,1,1.9,1.2c0.9,0.2,2.1,0.3,3.8,0.3h13.2
				c2.2,0,4.1-0.1,5.7-0.2c1.5-0.1,2.9-0.3,4-0.7c1.1-0.3,2.1-0.8,3-1.4c0.9-0.6,1.8-1.4,2.8-2.3c2.3-2.2,4.7-5.8,7.3-10.8h2.3
				l-6.8,19.6h-60.2v-2.2h2.8c0.7,0,1.5-0.1,2.3-0.3c0.8-0.2,1.6-0.4,2.3-0.7c0.7-0.3,1.4-0.7,1.9-1.2c0.6-0.5,1-1.1,1.2-1.8
				c0.5-1.3,0.7-3.8,0.7-7.6v-50.8c0-5-0.5-8.1-1.5-9.2c-1.4-1.5-3.7-2.3-7-2.3h-2.8v-2.2H673v17.1h-1.4c-0.6-2.8-1.2-5.1-1.8-6.8
				c-0.7-1.7-1.5-3-2.6-3.9c-1.1-0.9-2.5-1.5-4.2-1.8c-1.7-0.3-3.9-0.4-6.5-0.4H635.1z"/>
			<path d="M762.2,1696.1h-20.8l-26.5-36.6c-1,0.1-1.8,0.1-2.6,0.1c-0.8,0-1.5,0-2.1,0c-0.5,0-1.1,0-1.6,0c-0.6,0-1.2-0.1-1.8-0.1
				v22.7c0,2.8,0.2,4.9,0.6,6.5c0.4,1.6,0.9,2.8,1.6,3.5c0.7,0.8,1.6,1.2,2.6,1.4c1,0.2,2.1,0.3,3.4,0.3h3.1v2.2h-33.5v-2.2h3
				c3.2,0,5.6-1.1,7.1-3.2c0.8-1.3,1.2-4.1,1.2-8.5v-50.5c0-4.8-0.5-7.9-1.6-9.1c-1.5-1.7-3.7-2.6-6.6-2.6h-3v-2.2h28.5
				c4.2,0,7.8,0.2,10.8,0.5c3,0.3,5.5,0.8,7.5,1.4c1.9,0.6,3.8,1.5,5.5,2.6s3.2,2.5,4.5,4c1.3,1.6,2.3,3.3,3.1,5.3
				c0.7,2,1.1,4,1.1,6.3c0,4.9-1.5,9.1-4.6,12.6c-3.1,3.5-7.9,6-14.5,7.5l16.1,22.4c1.9,2.6,3.6,4.7,5,6.4c1.5,1.7,2.9,3,4.4,4
				c1.5,1,3,1.7,4.6,2.2c1.6,0.5,3.6,0.8,5.8,1V1696.1z M706.7,1655.9c0.7,0,1.4,0,1.9,0c0.5,0,1,0,1.3,0c3.7,0,7-0.4,9.8-1.3
				c2.8-0.9,5.2-2.1,7.1-3.6c1.9-1.5,3.3-3.4,4.3-5.5c0.9-2.1,1.4-4.4,1.4-6.8c0-2.4-0.4-4.6-1.2-6.7c-0.8-2-2-3.8-3.4-5.2
				c-1.5-1.5-3.3-2.6-5.3-3.4c-2.1-0.8-4.3-1.2-6.8-1.2c-2.4,0-5.4,0.4-9,1.1V1655.9z"/>
			<path d="M797.6,1694v2.2h-33.5v-2.2h2.8c1.4,0,2.6-0.1,3.7-0.3c1.1-0.2,1.9-0.7,2.6-1.5c0.7-0.8,1.2-1.9,1.6-3.5
				c0.4-1.6,0.6-3.7,0.6-6.4v-50.5c0-1.8,0-3.3-0.1-4.4c-0.1-1.2-0.2-2.1-0.4-2.9c-0.2-0.7-0.5-1.3-0.9-1.8
				c-0.4-0.4-0.9-0.8-1.6-1.2c-1.7-0.9-3.5-1.4-5.3-1.4h-2.8v-2.2h33.5v2.2h-2.8c-1.4,0-2.6,0.1-3.7,0.3c-1.1,0.2-1.9,0.7-2.6,1.5
				c-0.7,0.8-1.2,2-1.6,3.5c-0.4,1.6-0.6,3.7-0.6,6.3v50.5c0,1.8,0,3.3,0.1,4.5c0.1,1.1,0.2,2.1,0.4,2.8c0.2,0.7,0.6,1.3,1,1.8
				c0.4,0.4,1,0.8,1.7,1.2c1.6,0.9,3.4,1.4,5.2,1.4H797.6z"/>
			<path d="M854.5,1670h-30.3l-5.3,12.3c-1.3,3-1.9,5.3-1.9,6.8c0,0.6,0.1,1.2,0.3,1.7c0.2,0.5,0.6,1,1.3,1.4
				c0.7,0.4,1.6,0.8,2.8,1.1c1.2,0.3,2.7,0.5,4.7,0.6v2.2h-24.6v-2.2c1.9-0.3,3.5-0.7,4.7-1.3c1.2-0.6,2.2-1.4,3.1-2.4
				c0.9-1,1.6-2.3,2.4-3.9c0.7-1.6,1.6-3.6,2.6-5.9l27.5-64.3h2l27.2,64.9c1.1,2.7,2.1,4.9,3.1,6.5c0.9,1.6,1.9,2.9,2.9,3.8
				c1,0.9,2.1,1.5,3.3,1.9c1.2,0.3,2.6,0.5,4.3,0.6v2.2h-30.9v-2.2c3.1-0.1,5.2-0.6,6.3-1.5c1.1-0.9,1.7-2,1.7-3.2
				c-0.1-1.7-0.8-4.4-2.3-8.1L854.5,1670z M852.9,1665.7l-13.2-31.6l-13.6,31.6H852.9z"/>
			<path d="M953.4,1674.5l1.9,0.3l-6.7,21.2H888v-2.2h3c3.2,0,5.6-1.1,7.1-3.2c0.8-1.3,1.2-4.1,1.2-8.5v-50.5c0-4.8-0.5-7.9-1.6-9.1
				c-1.5-1.7-3.7-2.6-6.6-2.6h-3v-2.2h35.4v2.2c-2.1,0-3.9,0.1-5.3,0.3c-1.4,0.2-2.6,0.5-3.5,0.9c-0.9,0.4-1.6,0.8-2.2,1.3
				c-0.5,0.5-0.9,1.1-1.3,1.7c-0.6,1.1-0.9,4.1-0.9,8.9v49.1c0,2.7,0.2,4.6,0.6,5.8c0.4,1.2,1.2,2,2.4,2.5c1,0.3,4,0.5,9,0.5h5.7
				c6,0,10.2-0.4,12.6-1.3c1.2-0.4,2.4-1,3.4-1.7c1.1-0.7,2.2-1.7,3.2-2.9c1-1.2,2-2.7,3-4.4C951.4,1679.1,952.4,1677,953.4,1674.5z
				"/>
		</g>
		<g>
			<path d="M409,1829.9l-30.2-65.7v52.2c0,2.7,0.2,4.8,0.6,6.3c0.4,1.5,0.9,2.7,1.6,3.4c0.7,0.7,1.6,1.2,2.6,1.4
				c1,0.2,2.2,0.3,3.5,0.3h2.8v2.2h-27.2v-2.2h2.8c1.4,0,2.6-0.1,3.6-0.3c1-0.2,1.9-0.7,2.6-1.5c0.7-0.8,1.2-1.9,1.5-3.4
				c0.3-1.5,0.5-3.6,0.5-6.2v-51.1c0-1.8-0.1-3.5-0.3-4.9c-0.2-1.4-0.6-2.6-1.3-3.6c-0.7-1-1.8-1.7-3.3-2.2
				c-1.5-0.5-3.5-0.8-6.2-0.8v-2.2h22.1l28.4,61.2l27.9-61.2h22.1v2.2h-2.7c-1.4,0-2.7,0.1-3.7,0.3c-1,0.2-1.9,0.7-2.6,1.5
				c-0.7,0.8-1.2,1.9-1.5,3.4c-0.3,1.5-0.5,3.6-0.5,6.2v51.1c0,2.7,0.2,4.8,0.6,6.3c0.4,1.5,0.9,2.7,1.6,3.4
				c0.7,0.7,1.6,1.2,2.6,1.4c1,0.2,2.2,0.3,3.5,0.3h2.7v2.2h-33.2v-2.2h2.8c1.4,0,2.6-0.1,3.6-0.3c1-0.2,1.9-0.7,2.6-1.5
				c0.7-0.8,1.2-1.9,1.6-3.4c0.3-1.5,0.5-3.5,0.5-6.1v-52.2l-30.1,65.7H409z"/>
			<path d="M490.3,1756v30.9h17.1c2.5,0,4.6-0.2,6.1-0.7c1.5-0.5,2.8-1.1,3.7-2.1c0.9-0.9,1.5-2.1,1.8-3.5c0.3-1.4,0.6-3.1,0.7-5.1
				h2.2v27.2h-2.2c-0.3-2.2-0.6-4.1-1-5.6c-0.4-1.5-1-2.7-1.8-3.6c-0.8-0.9-2-1.5-3.5-1.9c-1.5-0.4-3.5-0.6-6-0.6h-17.1v25.8
				c0,2,0,3.5,0.1,4.6c0.1,1.1,0.3,2,0.7,2.6c0.4,0.6,1,1,1.9,1.2c0.9,0.2,2.1,0.3,3.8,0.3H510c2.2,0,4.1-0.1,5.7-0.2
				c1.5-0.1,2.9-0.3,4-0.7c1.1-0.3,2.1-0.8,3-1.4s1.8-1.4,2.8-2.3c2.3-2.2,4.7-5.8,7.3-10.8h2.3l-6.8,19.6H468v-2.2h2.8
				c0.7,0,1.5-0.1,2.3-0.3c0.8-0.2,1.6-0.4,2.3-0.7c0.7-0.3,1.4-0.7,1.9-1.2c0.6-0.5,1-1.1,1.2-1.8c0.5-1.3,0.7-3.8,0.7-7.6v-50.8
				c0-5-0.5-8.1-1.5-9.2c-1.4-1.5-3.7-2.3-7-2.3H468v-2.2h60.2v17.1h-1.4c-0.6-2.8-1.2-5.1-1.8-6.8c-0.7-1.7-1.5-3-2.6-3.9
				c-1.1-0.9-2.5-1.5-4.2-1.8c-1.7-0.3-3.9-0.4-6.5-0.4H490.3z"/>
			<path d="M605.4,1808.3l1.9,0.3l-6.7,21.2H540v-2.2h3c3.2,0,5.6-1.1,7.1-3.2c0.8-1.3,1.2-4.1,1.2-8.5v-50.5c0-4.8-0.5-7.9-1.6-9.1
				c-1.5-1.7-3.7-2.6-6.6-2.6h-3v-2.2h35.4v2.2c-2.1,0-3.9,0.1-5.3,0.3c-1.4,0.2-2.6,0.5-3.5,0.9c-0.9,0.4-1.6,0.8-2.2,1.3
				c-0.5,0.5-0.9,1.1-1.3,1.7c-0.6,1.1-0.9,4.1-0.9,8.9v49.1c0,2.7,0.2,4.6,0.6,5.8c0.4,1.2,1.2,2,2.4,2.5c1,0.3,4,0.5,9,0.5h5.7
				c6,0,10.2-0.4,12.6-1.3c1.2-0.4,2.4-1,3.4-1.7c1.1-0.7,2.2-1.7,3.2-2.9c1-1.2,2-2.7,3-4.4
				C603.4,1812.9,604.4,1810.8,605.4,1808.3z"/>
			<path d="M663.8,1803.8h-30.3l-5.3,12.3c-1.3,3-1.9,5.3-1.9,6.8c0,0.6,0.1,1.2,0.3,1.7c0.2,0.5,0.6,1,1.3,1.4
				c0.7,0.4,1.6,0.8,2.8,1.1c1.2,0.3,2.7,0.5,4.7,0.6v2.2h-24.6v-2.2c1.9-0.3,3.5-0.7,4.7-1.3c1.2-0.6,2.2-1.4,3.1-2.4
				c0.9-1,1.6-2.3,2.4-3.9c0.7-1.6,1.6-3.6,2.6-5.9l27.5-64.3h2l27.2,64.9c1.1,2.7,2.1,4.9,3.1,6.5c0.9,1.6,1.9,2.9,2.9,3.8
				c1,0.9,2.1,1.5,3.3,1.9c1.2,0.3,2.6,0.5,4.3,0.6v2.2h-30.9v-2.2c3.1-0.1,5.2-0.6,6.3-1.5c1.1-0.9,1.7-2,1.7-3.2
				c-0.1-1.7-0.8-4.4-2.3-8.1L663.8,1803.8z M662.2,1799.5l-13.2-31.6l-13.6,31.6H662.2z"/>
			<path d="M743.3,1829.9l-30.2-65.7v52.2c0,2.7,0.2,4.8,0.6,6.3c0.4,1.5,0.9,2.7,1.6,3.4c0.7,0.7,1.6,1.2,2.6,1.4
				c1,0.2,2.2,0.3,3.5,0.3h2.8v2.2H697v-2.2h2.8c1.4,0,2.6-0.1,3.6-0.3c1-0.2,1.9-0.7,2.6-1.5c0.7-0.8,1.2-1.9,1.5-3.4
				c0.3-1.5,0.5-3.6,0.5-6.2v-51.1c0-1.8-0.1-3.5-0.3-4.9c-0.2-1.4-0.6-2.6-1.3-3.6c-0.7-1-1.8-1.7-3.3-2.2
				c-1.5-0.5-3.5-0.8-6.2-0.8v-2.2h22.1l28.4,61.2l27.9-61.2h22.1v2.2h-2.7c-1.4,0-2.7,0.1-3.7,0.3c-1,0.2-1.9,0.7-2.6,1.5
				c-0.7,0.8-1.2,1.9-1.5,3.4c-0.3,1.5-0.5,3.6-0.5,6.2v51.1c0,2.7,0.2,4.8,0.6,6.3c0.4,1.5,0.9,2.7,1.6,3.4
				c0.7,0.7,1.6,1.2,2.6,1.4c1,0.2,2.2,0.3,3.5,0.3h2.7v2.2h-33.2v-2.2h2.8c1.4,0,2.6-0.1,3.6-0.3c1-0.2,1.9-0.7,2.6-1.5
				c0.7-0.8,1.2-1.9,1.6-3.4c0.3-1.5,0.5-3.5,0.5-6.1v-52.2l-30.1,65.7H743.3z"/>
			<path d="M836.4,1827.8v2.2h-33.5v-2.2h2.8c1.4,0,2.6-0.1,3.7-0.3c1.1-0.2,1.9-0.7,2.6-1.5c0.7-0.8,1.2-1.9,1.6-3.5
				c0.4-1.6,0.6-3.7,0.6-6.4v-50.5c0-1.8,0-3.3-0.1-4.4c-0.1-1.2-0.2-2.1-0.4-2.9c-0.2-0.7-0.5-1.3-0.9-1.8
				c-0.4-0.4-0.9-0.8-1.6-1.2c-1.7-0.9-3.5-1.4-5.3-1.4h-2.8v-2.2h33.5v2.2h-2.8c-1.4,0-2.6,0.1-3.7,0.3c-1.1,0.2-1.9,0.7-2.6,1.5
				c-0.7,0.8-1.2,2-1.6,3.5c-0.4,1.6-0.6,3.7-0.6,6.3v50.5c0,1.8,0,3.3,0.1,4.5c0.1,1.1,0.2,2.1,0.4,2.8c0.2,0.7,0.6,1.3,1,1.8
				c0.4,0.4,1,0.8,1.7,1.2c1.6,0.9,3.4,1.4,5.2,1.4H836.4z"/>
			<path d="M837.8,1751.7h21.2l47.8,58.7v-45.1c0-2.6-0.2-4.7-0.6-6.3c-0.4-1.5-0.9-2.7-1.6-3.4c-0.7-0.7-1.6-1.2-2.6-1.4
				c-1-0.2-2.2-0.3-3.5-0.3h-2.8v-2.2h27.3v2.2h-2.8c-1.4,0-2.6,0.1-3.6,0.3c-1,0.2-1.9,0.7-2.6,1.5c-0.7,0.8-1.2,2-1.5,3.4
				c-0.3,1.5-0.5,3.5-0.5,6.1v65.9h-2.1l-51.5-63v48.2c0,2.7,0.2,4.8,0.6,6.3c0.4,1.5,0.9,2.7,1.6,3.4c0.7,0.7,1.5,1.2,2.6,1.4
				c1,0.2,2.2,0.3,3.5,0.3h2.8v2.2h-27.2v-2.2h2.8c1.4,0,2.6-0.1,3.6-0.3c1-0.2,1.9-0.7,2.6-1.5c0.7-0.8,1.2-1.9,1.6-3.4
				c0.3-1.5,0.5-3.5,0.5-6.1V1762c-1.1-1.4-2.1-2.5-2.9-3.3c-0.8-0.8-1.5-1.5-2.2-2c-0.7-0.5-1.4-0.9-2.2-1.3
				c-0.8-0.3-1.8-0.7-3-1.1c-1.1-0.3-2.8-0.5-5.1-0.5V1751.7z"/>
			<path d="M949.2,1756v30.9h17.1c2.5,0,4.6-0.2,6.1-0.7c1.5-0.5,2.8-1.1,3.7-2.1c0.9-0.9,1.5-2.1,1.8-3.5c0.3-1.4,0.6-3.1,0.7-5.1
				h2.2v27.2h-2.2c-0.3-2.2-0.6-4.1-1-5.6c-0.4-1.5-1-2.7-1.8-3.6c-0.8-0.9-2-1.5-3.5-1.9c-1.5-0.4-3.5-0.6-6-0.6h-17.1v25.8
				c0,2,0,3.5,0.1,4.6c0.1,1.1,0.3,2,0.7,2.6c0.4,0.6,1,1,1.9,1.2c0.9,0.2,2.1,0.3,3.8,0.3h13.2c2.2,0,4.1-0.1,5.7-0.2
				c1.5-0.1,2.9-0.3,4-0.7c1.1-0.3,2.1-0.8,3-1.4s1.8-1.4,2.8-2.3c2.3-2.2,4.7-5.8,7.3-10.8h2.3l-6.8,19.6H927v-2.2h2.8
				c0.7,0,1.5-0.1,2.3-0.3c0.8-0.2,1.6-0.4,2.3-0.7c0.7-0.3,1.4-0.7,1.9-1.2c0.6-0.5,1-1.1,1.2-1.8c0.5-1.3,0.7-3.8,0.7-7.6v-50.8
				c0-5-0.5-8.1-1.5-9.2c-1.4-1.5-3.7-2.3-7-2.3H927v-2.2h60.2v17.1h-1.4c-0.6-2.8-1.2-5.1-1.8-6.8c-0.7-1.7-1.5-3-2.6-3.9
				c-1.1-0.9-2.5-1.5-4.2-1.8c-1.7-0.3-3.9-0.4-6.5-0.4H949.2z"/>
		</g>
		<g>
			<path d="M471,1888.1v2.2c-1.5,0-2.8,0.1-3.8,0.4c-1,0.3-1.9,0.9-2.8,1.9c-0.9,1-1.7,2.5-2.6,4.5c-0.9,2-1.9,4.6-3,8l-21.8,63.1
				h-2.3l-17.8-50l-17.6,50h-2.2l-23.2-64.9c-0.9-2.4-1.5-4.3-2.1-5.7c-0.5-1.4-0.9-2.3-1.2-2.8c-0.8-1.5-1.8-2.6-3.1-3.3
				c-1.3-0.7-3.1-1.1-5.4-1.1v-2.2H391v2.2h-1.4c-2,0-3.6,0.5-4.6,1.4c-1.1,0.9-1.6,2-1.6,3.4c0,1.4,0.9,4.5,2.6,9.3l15.4,43.9
				l12.9-37.3l-4.1-11.8c-0.6-1.4-1.3-2.7-1.9-3.8c-0.6-1.1-1.3-2-2.2-2.8c-0.8-0.7-1.7-1.3-2.8-1.7c-1.1-0.4-2.4-0.6-4-0.6v-2.2
				h30.4v2.2h-2.1c-2.2,0-3.8,0.5-4.7,1.4c-1,0.9-1.5,2.2-1.5,3.8c0,2,0.9,5.4,2.6,10.2l15,42.5l14.9-43.1c0.8-2.4,1.4-4.4,1.9-6
				c0.5-1.6,0.7-2.9,0.7-3.9c0-1.8-0.8-3.1-2.4-3.8c-1.6-0.7-3.7-1.1-6.3-1.1v-2.2H471z"/>
			<path d="M496.2,1924.4h36.3V1902c0-1.8,0-3.3-0.1-4.5c-0.1-1.2-0.2-2.1-0.4-2.9c-0.2-0.7-0.6-1.3-1-1.8c-0.4-0.4-1-0.8-1.7-1.2
				c-1.6-0.9-3.4-1.4-5.2-1.4h-2.8v-2.2h33.5v2.2h-2.8c-0.7,0-1.5,0.1-2.4,0.3c-0.8,0.2-1.6,0.4-2.3,0.8c-0.7,0.3-1.4,0.8-1.9,1.3
				c-0.6,0.5-1,1.1-1.2,1.8c-0.4,1.2-0.6,3.8-0.6,7.7v50.4c0,1.8,0,3.3,0.1,4.5c0.1,1.1,0.2,2.1,0.4,2.8c0.2,0.7,0.5,1.3,0.9,1.8
				c0.4,0.4,0.9,0.8,1.6,1.2c1.6,0.9,3.4,1.4,5.3,1.4h2.8v2.2h-33.5v-2.2h2.8c1.3,0,2.5-0.1,3.5-0.3c1-0.2,1.9-0.7,2.7-1.5
				c0.7-0.8,1.3-1.9,1.7-3.5c0.4-1.6,0.6-3.7,0.6-6.4v-23.8h-36.3v23.8c0,1.8,0,3.3,0.1,4.5c0.1,1.1,0.2,2.1,0.4,2.8
				c0.2,0.7,0.6,1.3,1,1.8c0.4,0.4,1,0.8,1.7,1.2c1.6,0.9,3.4,1.4,5.2,1.4h2.8v2.2H474v-2.2h2.8c3.2,0,5.5-0.9,7-2.8
				c0.9-1.1,1.4-4.1,1.4-8.9V1902c0-1.9,0-3.4-0.1-4.6c-0.1-1.2-0.2-2.1-0.4-2.8c-0.2-0.7-0.5-1.3-0.9-1.7c-0.4-0.4-0.9-0.8-1.6-1.2
				c-1.6-0.9-3.4-1.4-5.2-1.4H474v-2.2h33.5v2.2h-2.8c-0.7,0-1.4,0.1-2.3,0.3c-0.8,0.2-1.6,0.4-2.3,0.8c-0.7,0.3-1.4,0.8-1.9,1.3
				c-0.6,0.5-1,1.1-1.2,1.8c-0.5,1.4-0.7,3.9-0.7,7.7V1924.4z"/>
			<path d="M593.6,1964.1v2.2h-33.5v-2.2h2.8c1.4,0,2.6-0.1,3.7-0.3c1.1-0.2,1.9-0.7,2.6-1.5c0.7-0.8,1.2-1.9,1.6-3.5
				c0.4-1.6,0.6-3.7,0.6-6.4v-50.5c0-1.8,0-3.3-0.1-4.4c-0.1-1.2-0.2-2.1-0.4-2.9c-0.2-0.7-0.5-1.3-0.9-1.8
				c-0.4-0.4-0.9-0.8-1.6-1.2c-1.7-0.9-3.5-1.4-5.3-1.4h-2.8v-2.2h33.5v2.2h-2.8c-1.4,0-2.6,0.1-3.7,0.3c-1.1,0.2-1.9,0.7-2.6,1.5
				c-0.7,0.8-1.2,2-1.6,3.5c-0.4,1.6-0.6,3.7-0.6,6.3v50.5c0,1.8,0,3.3,0.1,4.5c0.1,1.1,0.2,2.1,0.4,2.8c0.2,0.7,0.6,1.3,1,1.8
				c0.4,0.4,1,0.8,1.7,1.2c1.6,0.9,3.4,1.4,5.2,1.4H593.6z"/>
			<path d="M664.8,1888.1v18.4h-1.3c-0.6-4.9-2.1-8.4-4.3-10.5c-2.3-2-5.6-3.1-10-3.1h-11v59.8c0,2.6,0.2,4.7,0.6,6.2
				c0.4,1.5,0.9,2.7,1.6,3.4c0.7,0.7,1.5,1.2,2.6,1.4c1,0.2,2.2,0.3,3.6,0.3h2.7v2.2h-33.1v-2.2h2.8c1.4,0,2.6-0.1,3.6-0.3
				c1-0.2,1.9-0.7,2.6-1.5c0.7-0.8,1.2-1.9,1.6-3.4c0.4-1.5,0.6-3.5,0.6-6.1V1893h-9.4c-2.4,0-4.4,0.2-6.2,0.6
				c-1.8,0.4-3.4,1.1-4.7,2.1c-1.3,1-2.4,2.4-3.1,4.1c-0.8,1.8-1.2,4-1.4,6.8h-2.2v-18.4H664.8z"/>
			<path d="M693.3,1892.4v30.9h17.1c2.5,0,4.6-0.2,6.1-0.7c1.5-0.5,2.8-1.1,3.7-2.1c0.9-0.9,1.5-2.1,1.8-3.5
				c0.3-1.4,0.6-3.1,0.7-5.1h2.2v27.2h-2.2c-0.3-2.2-0.6-4.1-1-5.6c-0.4-1.5-1-2.7-1.8-3.6c-0.8-0.9-2-1.5-3.5-1.9
				c-1.5-0.4-3.5-0.6-6-0.6h-17.1v25.8c0,2,0,3.5,0.1,4.6c0.1,1.1,0.3,2,0.7,2.6c0.4,0.6,1,1,1.9,1.2c0.9,0.2,2.1,0.3,3.8,0.3H713
				c2.2,0,4.1-0.1,5.7-0.2c1.5-0.1,2.9-0.3,4-0.7c1.1-0.3,2.1-0.8,3-1.4c0.9-0.6,1.8-1.4,2.8-2.3c2.3-2.2,4.7-5.8,7.3-10.8h2.3
				l-6.8,19.6H671v-2.2h2.8c0.7,0,1.5-0.1,2.3-0.3c0.8-0.2,1.6-0.4,2.3-0.7c0.7-0.3,1.4-0.7,1.9-1.2c0.6-0.5,1-1.1,1.2-1.8
				c0.5-1.3,0.7-3.8,0.7-7.6v-50.8c0-5-0.5-8.1-1.5-9.2c-1.4-1.5-3.7-2.3-7-2.3H671v-2.2h60.2v17.1h-1.4c-0.6-2.8-1.2-5.1-1.8-6.8
				c-0.7-1.7-1.5-3-2.6-3.9c-1.1-0.9-2.5-1.5-4.2-1.8c-1.7-0.3-3.9-0.4-6.5-0.4H693.3z"/>
			<path d="M878.5,1888.1v2.2c-1.5,0-2.8,0.1-3.8,0.4c-1,0.3-1.9,0.9-2.8,1.9c-0.9,1-1.7,2.5-2.6,4.5c-0.9,2-1.9,4.6-3,8l-21.8,63.1
				h-2.3l-17.8-50l-17.6,50h-2.2l-23.2-64.9c-0.9-2.4-1.5-4.3-2.1-5.7c-0.5-1.4-0.9-2.3-1.2-2.8c-0.8-1.5-1.8-2.6-3.1-3.3
				c-1.3-0.7-3.1-1.1-5.4-1.1v-2.2h28.9v2.2h-1.4c-2,0-3.6,0.5-4.6,1.4c-1.1,0.9-1.6,2-1.6,3.4c0,1.4,0.9,4.5,2.6,9.3l15.4,43.9
				l12.9-37.3l-4.1-11.8c-0.6-1.4-1.3-2.7-1.9-3.8c-0.6-1.1-1.3-2-2.2-2.8c-0.8-0.7-1.7-1.3-2.8-1.7c-1.1-0.4-2.4-0.6-4-0.6v-2.2
				h30.4v2.2h-2.1c-2.2,0-3.8,0.5-4.7,1.4c-1,0.9-1.5,2.2-1.5,3.8c0,2,0.9,5.4,2.6,10.2l15,42.5l14.9-43.1c0.8-2.4,1.4-4.4,1.9-6
				c0.5-1.6,0.7-2.9,0.7-3.9c0-1.8-0.8-3.1-2.4-3.8c-1.6-0.7-3.7-1.1-6.3-1.1v-2.2H878.5z"/>
			<path d="M922.7,1886.4c5,0,9.7,1,14.3,3.1c4.5,2.1,8.5,4.9,12,8.5c3.4,3.6,6.2,7.9,8.2,12.8c2,4.9,3.1,10.2,3.1,16
				c0,5.9-1,11.4-3.1,16.4c-2,5-4.8,9.4-8.3,13.1c-3.5,3.7-7.5,6.6-12.2,8.7c-4.7,2.1-9.6,3.1-14.9,3.1c-5.3,0-10.3-1-15-3
				c-4.6-2-8.7-4.8-12.1-8.5c-3.4-3.6-6.1-8-8.1-13c-2-5-3-10.6-3-16.7c0-5.6,1-10.9,3-15.8c2-4.9,4.7-9.2,8.2-12.9
				c3.5-3.6,7.6-6.5,12.3-8.6C911.8,1887.4,917,1886.4,922.7,1886.4z M921.5,1890.6c-4,0-7.5,0.8-10.5,2.5c-3.1,1.7-5.6,4.1-7.7,7.2
				c-2.1,3.1-3.7,6.9-4.8,11.4c-1.1,4.4-1.6,9.4-1.6,15c0,5.5,0.5,10.5,1.6,15.1c1.1,4.6,2.6,8.5,4.7,11.8c2.1,3.3,4.7,5.8,7.8,7.7
				c3.1,1.8,6.7,2.7,10.7,2.7c3.6,0,7-0.7,10-2.1c3.1-1.4,5.7-3.5,8-6.4c2.3-2.9,4.1-6.6,5.4-11.1c1.3-4.5,1.9-9.9,1.9-16.1
				c0-5.9-0.5-11.2-1.6-15.9c-1.1-4.7-2.7-8.6-4.8-11.9c-2.2-3.2-4.8-5.7-8-7.4C929.4,1891.4,925.7,1890.6,921.5,1890.6z"/>
			<path d="M1007.9,1886.4c5,0,9.7,1,14.3,3.1c4.5,2.1,8.5,4.9,12,8.5c3.4,3.6,6.2,7.9,8.2,12.8c2,4.9,3.1,10.2,3.1,16
				c0,5.9-1,11.4-3.1,16.4c-2,5-4.8,9.4-8.3,13.1c-3.5,3.7-7.5,6.6-12.2,8.7c-4.7,2.1-9.6,3.1-14.9,3.1c-5.3,0-10.3-1-15-3
				c-4.6-2-8.7-4.8-12.1-8.5c-3.4-3.6-6.1-8-8.1-13c-2-5-3-10.6-3-16.7c0-5.6,1-10.9,3-15.8c2-4.9,4.7-9.2,8.2-12.9
				c3.5-3.6,7.6-6.5,12.3-8.6C997.1,1887.4,1002.3,1886.4,1007.9,1886.4z M1006.8,1890.6c-4,0-7.5,0.8-10.5,2.5
				c-3.1,1.7-5.6,4.1-7.7,7.2c-2.1,3.1-3.7,6.9-4.8,11.4c-1.1,4.4-1.6,9.4-1.6,15c0,5.5,0.5,10.5,1.6,15.1c1.1,4.6,2.6,8.5,4.7,11.8
				c2.1,3.3,4.7,5.8,7.8,7.7c3.1,1.8,6.7,2.7,10.7,2.7c3.6,0,7-0.7,10-2.1c3.1-1.4,5.7-3.5,8-6.4c2.3-2.9,4.1-6.6,5.4-11.1
				c1.3-4.5,1.9-9.9,1.9-16.1c0-5.9-0.5-11.2-1.6-15.9c-1.1-4.7-2.7-8.6-4.8-11.9c-2.2-3.2-4.8-5.7-8-7.4
				C1014.7,1891.4,1011,1890.6,1006.8,1890.6z"/>
			<path d="M1051.9,1966.3v-2.2h3c1.3,0,2.5-0.1,3.5-0.3c1-0.2,1.9-0.7,2.6-1.5c0.7-0.8,1.2-2,1.6-3.5c0.4-1.5,0.6-3.6,0.6-6.3
				v-50.5c0-4.8-0.5-7.9-1.6-9.1c-1.5-1.7-3.7-2.6-6.6-2.6h-3v-2.2h31.8c11.6,0,20.5,1.3,26.7,4c6.1,2.7,11,7.1,14.7,13.2
				c3.7,6.3,5.6,13.4,5.6,21.4c0,5.8-0.9,11.1-2.8,15.9c-1.9,4.8-4.6,9-8.3,12.5c-3.7,3.5-8.3,6.2-13.7,8.2c-5.4,2-11.8,2.9-19,2.9
				H1051.9z M1074.3,1960.6c4.8,1.1,8.8,1.6,12.2,1.6c4.4,0,8.5-0.8,12.3-2.5c3.8-1.6,7.1-4,9.8-7c2.8-3,5-6.7,6.5-11
				c1.6-4.3,2.4-9.1,2.4-14.5c0-5.4-0.8-10.2-2.3-14.6c-1.5-4.3-3.7-8-6.5-11c-2.8-3-6.1-5.3-10-6.9c-3.8-1.6-8.1-2.4-12.6-2.4
				c-3.4,0-7.3,0.6-11.8,1.7V1960.6z"/>
		</g>
	</g>
	<g>
		<path d="M1641.1,2415.4v2.7c-3.4,0.4-6.5,0.8-9.1,1.3c-2.6,0.5-5.1,1.3-7.3,2.3c-2.3,1-4.4,2.2-6.4,3.6c-2,1.4-4.1,3.2-6.4,5.2
			c-4.3,4-7.8,8.3-10.4,13.1c-2.7,4.8-4.9,10.5-6.8,17.1c7.4-4.8,14.8-7.2,22.1-7.2c3.5,0,6.9,0.7,10.1,2.2c3.2,1.4,6,3.4,8.4,6
			c2.4,2.6,4.3,5.6,5.7,9.2c1.4,3.6,2.1,7.4,2.1,11.6c0,4.6-0.8,9-2.5,13.2c-1.7,4.2-4,7.9-7,11.1c-3,3.2-6.5,5.7-10.5,7.6
			c-4.1,1.9-8.4,2.9-13.1,2.9c-5.2,0-9.8-1.2-13.9-3.6c-4.1-2.4-7.5-5.5-10.3-9.3c-2.8-3.8-4.9-8.1-6.4-12.9
			c-1.5-4.8-2.2-9.5-2.2-14.3c0-8.8,1.9-17.2,5.6-25.1c3.7-7.9,9-14.9,16-21c3.5-3.1,7-5.6,10.3-7.7c3.4-2,6.6-3.6,9.8-4.7
			c3.2-1.1,6.2-2,9.2-2.4c2.9-0.5,5.7-0.7,8.4-0.7H1641.1z M1593.3,2466c-0.9,6.5-1.4,11.7-1.4,15.7c0,3,0.4,6.4,1.3,10
			c0.8,3.7,2.1,7.1,3.8,10.2c1.7,3.2,3.8,5.8,6.4,7.9c2.6,2.1,5.6,3.2,9,3.2c2.2,0,4.4-0.5,6.4-1.5c2.1-1,3.9-2.5,5.5-4.4
			s2.9-4.3,3.8-7.2c1-2.8,1.4-6.1,1.4-9.8c0-4-0.4-7.9-1.3-11.5c-0.9-3.7-2.2-6.9-3.8-9.7c-1.7-2.8-3.8-5-6.3-6.7
			c-2.5-1.7-5.4-2.5-8.6-2.5c-1.1,0-2.1,0.1-3,0.2c-1,0.1-2,0.4-3.2,0.9c-1.2,0.4-2.6,1.1-4.1,1.9
			C1597.6,2463.6,1595.6,2464.7,1593.3,2466z"/>
		<path d="M1783.3,2415.2l2.4,33.3h-2.4c-3.2-10-7.7-17.2-13.6-21.6c-5.8-4.4-12.9-6.6-21.1-6.6c-5.3,0-10.3,1-14.8,2.9
			c-4.5,1.9-8.4,4.8-11.6,8.8c-3.2,4-5.8,8.9-7.6,14.9c-1.8,6-2.8,13-2.8,21.1c0,6.5,0.9,12.5,2.6,17.8c1.7,5.3,4.2,9.9,7.6,13.6
			c3.3,3.8,7.4,6.7,12.2,8.7c4.8,2,10.4,3.1,16.6,3.1c6.6,0,12.5-1.4,17.9-4.1c5.1-2.5,10.8-7.9,17.1-16.2l2.4,1.4
			c-5.3,8.7-11.4,15.1-18.3,19.1c-6.9,4.1-15.2,6.1-24.8,6.1c-7.4,0-14.2-1.2-20.4-3.7c-6.2-2.4-11.5-5.9-16-10.3s-8-9.7-10.5-15.7
			c-2.5-6.1-3.8-12.7-3.8-20c0-9.9,2.3-18.8,7-27c4.6-8.2,11-14.5,19.1-19c8.3-4.5,17.2-6.8,26.8-6.8c7.6,0,15,1.7,22.2,5.2
			c2.1,1.1,3.7,1.6,4.6,1.6c1.7,0,3.1-0.6,4.2-1.9c1.1-1.3,1.9-2.9,2.3-4.9H1783.3z"/>
		<path d="M1819.2,2461.3c2.6-2.4,4.6-4.3,6.1-5.7c1.5-1.4,2.5-2.2,2.9-2.6c2.3-1.9,4.8-3.3,7.4-4.3c2.7-1,5.3-1.5,7.9-1.5
			c4.4,0,8.2,1.2,11.4,3.6c3.2,2.4,5.3,5.9,6.4,10.5c2.6-2.9,5-5.2,7.2-7.1c2.2-1.9,4.2-3.3,6.2-4.3c1.9-1,3.8-1.7,5.6-2.1
			c1.8-0.4,3.6-0.6,5.6-0.6c2.6,0,5,0.4,7.3,1.2c2.3,0.8,4.2,2.2,5.9,4.1c1.7,1.9,3,4.4,4,7.6c1,3.2,1.4,7.1,1.4,11.8v28.5
			c0,2.2,0.1,4,0.2,5.6c0.1,1.6,0.5,2.9,1.2,3.9c0.7,1,1.7,1.7,3.2,2.2c1.4,0.5,3.4,0.7,6,0.7v2.6h-34.7v-2.6h1.5
			c1.8,0,3.4-0.1,4.7-0.4c1.3-0.3,2.3-0.9,3.1-1.7c0.8-0.9,1.3-2.1,1.7-3.7c0.3-1.6,0.5-3.8,0.5-6.5v-28.5c0-3.2-0.3-5.8-0.8-7.8
			c-0.5-2-1.3-3.7-2.3-4.9c-1-1.2-2.2-2.1-3.7-2.5c-1.5-0.5-3.1-0.7-4.9-0.7c-1.4,0-2.7,0.1-4,0.4c-1.3,0.3-2.7,0.7-4.1,1.4
			c-1.4,0.7-2.9,1.6-4.6,2.8c-1.6,1.2-3.5,2.9-5.4,5.3v34.6c0,2.4,0,4.2,0.1,5.6c0.1,1.3,0.3,2.3,0.6,3c0.3,0.7,0.7,1.2,1.1,1.6
			c0.5,0.4,1.1,0.8,1.9,1.2c1.5,0.7,4,1.1,7.6,1.1v2.6h-35.5v-2.6c2.8,0,4.9-0.2,6.5-0.5c1.6-0.4,2.7-1,3.4-1.9
			c0.7-0.9,1.2-2.2,1.3-3.8c0.2-1.6,0.2-3.6,0.2-6.1v-28.5c0-3.1-0.3-5.7-0.9-7.7c-0.6-2-1.4-3.7-2.5-5c-1.1-1.3-2.3-2.2-3.8-2.7
			c-1.5-0.5-3.1-0.8-4.8-0.8c-1.8,0-3.5,0.3-5.3,0.9c-1.8,0.6-3.4,1.3-5,2.2c-1.6,0.9-3.1,1.9-4.5,3c-1.4,1.1-2.5,2.1-3.3,3.1v35.5
			c0,2.2,0.1,4,0.2,5.4c0.2,1.4,0.4,2.4,0.7,3.2c0.3,0.8,0.7,1.4,1.2,1.8c0.5,0.4,1,0.7,1.7,1c1.2,0.6,3.8,1,7.7,1v2.6h-34.8v-2.6
			c2.4,0,4.3-0.2,5.7-0.5c1.4-0.3,2.5-1,3.3-1.9c0.8-0.9,1.3-2.2,1.5-3.8c0.2-1.6,0.3-3.7,0.3-6.3v-25.2c0-4.3-0.1-7.7-0.2-10.1
			c-0.2-2.4-0.4-4.3-0.9-5.5c-0.4-1.2-1-2-1.7-2.3c-0.7-0.3-1.7-0.4-2.8-0.4c-0.7,0-1.5,0.1-2.3,0.3c-0.8,0.2-1.8,0.5-2.9,0.8
			l-1.1-2.6l21.2-8.1h3.3V2461.3z"/>
	</g>
	<g>
		<path d="M1688.4,1701.2c1.2-5.4,2.8-10.1,4.9-14c2.1-3.9,4.5-7.1,7.3-9.5c2.8-2.4,5.8-4.2,9.2-5.3c3.4-1.1,6.9-1.7,10.5-1.7
			c3.4,0,6.7,0.5,9.9,1.6c3.3,1.1,6.3,2.6,9.3,4.7c2.9,2,5.5,4.5,7.9,7.5c2.3,3,4.2,6.3,5.7,10.1c2.8,7.1,4.1,18.3,4.1,33.6v63.6
			h-3.7v-5c0-2.3-0.2-4.3-0.6-6.1c-0.4-1.8-1.3-3.3-2.7-4.5c-1.4-1.2-3.4-2.2-6.1-2.8c-2.7-0.6-6.3-1-10.8-1h-87
			c-4.7,0-8.4,0.3-11.1,1c-2.7,0.7-4.7,1.7-6,3c-1.3,1.3-2.2,2.8-2.5,4.6c-0.3,1.8-0.5,3.7-0.5,5.8v5h-3.7v-58.1
			c0-18.7,3.2-32.8,9.5-42.5c6.3-9.6,15.2-14.4,26.5-14.4c6.8,0,12.9,2.1,18.2,6.2C1681.9,1687.2,1685.8,1693.2,1688.4,1701.2z
			 M1683.1,1753.2c0.5-2.5,0.9-5.3,1.1-8.4c0.2-3.1,0.4-6.5,0.4-10.3c0-13.1-2.4-22.6-7.1-28.3c-4.7-5.7-11.3-8.6-19.7-8.6
			c-3.9,0-7.5,0.8-11,2.4c-3.5,1.6-6.5,4-9.1,7.2c-2.6,3.2-4.6,7.1-6.2,11.8c-1.5,4.7-2.3,10.2-2.3,16.4c0,6.7,0.7,12.6,2.2,17.8
			H1683.1z M1747.4,1753.2c1.8-7.5,2.7-15.1,2.7-22.7c0-6-0.7-11.4-2.2-16c-1.5-4.6-3.5-8.5-6-11.6c-2.5-3.1-5.5-5.4-8.9-7
			c-3.4-1.6-7-2.4-10.9-2.4c-4.2,0-8.2,0.8-12,2.5c-3.8,1.7-7,4.3-9.8,7.8c-2.8,3.5-4.9,7.9-6.5,13.2c-1.6,5.3-2.4,11.5-2.4,18.6
			c0,4.1,0.1,7.7,0.1,10.5c0.1,2.9,0.3,5.2,0.7,7H1747.4z"/>
		<path d="M1712.1,1566.5v52.2l21.2,9.2c5.2,2.2,9.1,3.3,11.7,3.3c1.1,0,2.1-0.2,3-0.5c0.9-0.3,1.7-1.1,2.4-2.2
			c0.7-1.1,1.4-2.7,1.9-4.7c0.5-2,0.9-4.7,1.1-8.1h3.7v42.4h-3.7c-0.5-3.4-1.2-6.1-2.2-8.2c-1-2.1-2.3-3.9-4.1-5.3
			c-1.7-1.5-4-2.8-6.7-4.1c-2.8-1.2-6.2-2.7-10.2-4.5l-110.7-47.4v-3.4l111.9-46.8c4.6-1.9,8.4-3.6,11.2-5.3c2.8-1.6,5-3.3,6.6-5
			c1.6-1.7,2.7-3.6,3.3-5.6c0.6-2,0.9-4.5,1-7.3h3.7v53.2h-3.7c-0.2-5.3-1.1-9-2.6-10.9c-1.5-1.9-3.4-2.9-5.6-2.9
			c-2.9,0.1-7.5,1.4-13.9,4L1712.1,1566.5z M1704.7,1569.3l-54.4,22.8l54.4,23.4V1569.3z"/>
		<path d="M1619.5,1390.3l45.8-3.1v3.1c-13.7,4.1-23.6,10-29.6,17.6c-6,7.6-9,16.7-9,27.3c0,6.9,1.3,13.3,3.9,19.1
			c2.6,5.8,6.6,10.8,12.1,15c5.4,4.2,12.3,7.5,20.5,9.9c8.2,2.4,17.9,3.6,29,3.6c9,0,17.1-1.1,24.5-3.3c7.3-2.2,13.6-5.5,18.7-9.8
			c5.2-4.3,9.2-9.6,12-15.8c2.8-6.2,4.2-13.4,4.2-21.5c0-8.5-1.9-16.2-5.6-23.1c-3.5-6.6-10.9-14-22.2-22.1l1.9-3.1
			c12,6.8,20.7,14.7,26.3,23.6c5.6,8.9,8.4,19.6,8.4,32.1c0,9.6-1.7,18.4-5,26.4c-3.4,8-8.1,14.9-14.2,20.7
			c-6.1,5.8-13.3,10.3-21.6,13.6c-8.3,3.3-17.5,4.9-27.5,4.9c-13.5,0-25.9-3-37-9c-11.3-5.9-20-14.2-26.1-24.7
			c-6.2-10.7-9.3-22.2-9.3-34.7c0-9.8,2.4-19.4,7.1-28.8c1.5-2.8,2.2-4.7,2.2-5.9c0-2.2-0.9-4-2.7-5.4c-1.8-1.4-4-2.4-6.7-3V1390.3z
			"/>
		<path d="M1682.5,1316.4l49.3-49.6c4.1-4.1,7.6-7.9,10.3-11.3c2.7-3.4,4.9-6.5,6.5-9.5c1.6-3,2.8-5.9,3.6-8.7
			c0.7-2.8,1.2-5.7,1.3-8.7h3.7v64h-3.7c0-4.2-0.7-7.1-2.2-8.6c-1.5-1.5-3.1-2.2-4.7-2.2c-0.7,0-1.3,0.1-1.9,0.1
			c-0.5,0.1-1.2,0.4-1.9,0.8c-0.7,0.4-1.6,1.2-2.7,2.1c-1.1,1-2.5,2.3-4.1,4l-46.1,46.5h43.4c3.2,0,5.7-0.1,7.7-0.2
			c2-0.1,3.6-0.4,4.9-0.7c1.3-0.3,2.3-0.9,3-1.6c0.7-0.7,1.5-1.7,2.1-2.9c1.6-2.9,2.4-5.9,2.4-9v-4.6h3.7v57.4h-3.7v-4.7
			c0-5.5-1.6-9.6-4.9-12.2c-2.2-1.6-7.3-2.4-15.3-2.4h-87c-3,0-5.5,0.1-7.5,0.1c-2,0.1-3.7,0.3-5,0.7c-1.3,0.4-2.3,0.9-3.2,1.6
			c-0.8,0.7-1.6,1.6-2.1,2.8c-1.6,3.2-2.4,6.2-2.4,9.2v4.7h-3.7v-57.4h3.7v4.6c0,2.5,0.5,5.1,1.6,7.8c1.1,2.7,2.9,4.6,5.5,5.6
			c2.2,0.8,6.5,1.2,13,1.2h41.2c-0.1-0.1-0.7-0.8-1.9-2c-1.1-1.2-2.4-2.6-3.8-4.1c-1.4-1.5-2.8-3-4.1-4.4c-1.4-1.4-2.3-2.4-2.8-3
			c-6.6-7.2-12.3-13.3-17-18.2c-4.7-4.9-8.8-8.9-12.1-11.9c-3.3-3-6.1-5.1-8.3-6.4c-2.2-1.3-4.1-1.9-5.6-1.9c-1.6,0-2.9,0.7-4.1,2.1
			c-1.1,1.4-1.7,3.8-1.7,7.1v3.1h-3.7v-49.5h3.7c0.1,1.8,0.3,3.6,0.5,5.4c0.2,1.8,0.9,3.9,1.9,6.1c1,2.2,2.5,4.8,4.6,7.6
			c2.1,2.9,4.9,6.3,8.6,10.2c0.7,0.8,2.7,2.8,6.1,6.1c3.4,3.3,8.1,8,14.2,14.1L1682.5,1316.4z"/>
		<path d="M1757.2,1042.1v35.9l-63,45.6c0.1,1.7,0.2,3.2,0.2,4.5c0.1,1.3,0.1,2.5,0.1,3.6c0,0.9,0,1.8-0.1,2.8c0,1-0.1,2-0.2,3.1
			h39.1c4.7,0,8.5-0.3,11.2-1c2.7-0.6,4.7-1.6,6.1-2.8c1.3-1.2,2.1-2.7,2.4-4.4c0.3-1.7,0.4-3.7,0.4-5.9v-5.3h3.7v57.8h-3.7v-5.2
			c0-5.5-1.8-9.6-5.5-12.2c-2.2-1.4-7.1-2.1-14.7-2.1h-87c-8.3,0-13.5,0.9-15.7,2.8c-3,2.6-4.4,6.4-4.4,11.4v5.2h-3.7V1127
			c0-7.2,0.3-13.4,0.8-18.7c0.5-5.2,1.4-9.5,2.4-12.9c1.1-3.4,2.6-6.5,4.5-9.5c1.9-3,4.2-5.6,7-7.8c2.7-2.2,5.8-4,9.1-5.3
			c3.4-1.3,7-1.9,10.8-1.9c8.4,0,15.6,2.7,21.6,8c6,5.3,10.3,13.7,12.9,25l38.5-27.7c4.4-3.3,8.1-6.2,11-8.7c2.9-2.5,5.1-5,6.8-7.6
			c1.7-2.5,2.9-5.2,3.7-8c0.8-2.8,1.4-6.1,1.8-10H1757.2z M1688,1137.6c0-1.3,0-2.4,0.1-3.3c0.1-0.9,0.1-1.7,0.1-2.3
			c0-6.4-0.7-12.1-2.2-16.9c-1.5-4.8-3.6-8.9-6.2-12.2c-2.7-3.3-5.8-5.7-9.4-7.3c-3.6-1.6-7.5-2.4-11.8-2.4c-4.1,0-8,0.7-11.5,2.1
			c-3.5,1.4-6.5,3.4-9,5.9c-2.5,2.6-4.5,5.6-5.9,9.2c-1.4,3.6-2.1,7.5-2.1,11.7c0,4.1,0.6,9.2,1.9,15.6H1688z"/>
		<path d="M1753.5,981.1h3.7v57.6h-3.7v-4.7c0-2.4-0.2-4.5-0.5-6.3c-0.3-1.8-1.2-3.3-2.5-4.5c-1.3-1.2-3.4-2.1-6.1-2.7
			c-2.7-0.6-6.4-1-11-1h-87c-3.1,0-5.6,0.1-7.6,0.2c-2,0.1-3.7,0.4-5,0.7c-1.3,0.3-2.3,0.9-3,1.6c-0.7,0.7-1.5,1.6-2.1,2.8
			c-1.6,3-2.4,6-2.4,9.2v4.7h-3.7v-57.6h3.7v4.7c0,2.4,0.2,4.5,0.6,6.3c0.4,1.8,1.3,3.3,2.6,4.5c1.3,1.2,3.4,2.1,6.1,2.7
			c2.7,0.6,6.3,1,10.9,1h87c3.2,0,5.7,0,7.7-0.1c2-0.1,3.6-0.3,4.9-0.7c1.3-0.4,2.3-1,3-1.7c0.7-0.7,1.5-1.7,2.1-2.9
			c1.6-2.8,2.4-5.8,2.4-9V981.1z"/>
		<path d="M1619.5,851.3l42.4-3.6v3.6c-12.4,4.1-21.5,9.8-27,17.3c-5.6,7.5-8.4,16.5-8.4,27.2c0,7.9,1.6,15,4.7,21.2
			c3.1,6.2,7.4,11.5,12.9,15.9c5.5,4.3,12,7.7,19.4,9.9c7.5,2.3,15.5,3.4,24.2,3.4c12.7,0,24.5-2.5,35.1-7.6
			c5.3-2.5,9.9-5.4,13.8-8.7c3.9-3.3,7-6.9,9.6-10.7c2.5-3.9,4.4-7.9,5.6-12.1c1.2-4.2,1.8-8.4,1.8-12.7c0-9.9-2.5-19.2-7.4-27.9
			h-39c-3.4,0-6.1,0.1-8.2,0.4c-2.1,0.2-3.8,0.6-5,1.2c-1.2,0.5-2.2,1.2-2.8,2c-0.6,0.8-1.3,1.7-1.9,2.8c-1.1,2.2-1.6,5.9-1.6,11.3
			h-3.9v-52.2h3.9v2.5c0,2.3,0.2,4.2,0.7,5.8c0.5,1.6,1.4,2.9,2.8,3.9c1.4,1,3.4,1.8,5.9,2.2c2.6,0.4,5.9,0.7,10.1,0.7h41.2
			c2.1,3.9,3.9,7.6,5.4,11.3c1.5,3.7,2.7,7.4,3.6,11.2c2,7.7,3,16,3,24.7c0,11.3-1.7,21.5-5.2,30.6c-3.5,9.1-8.2,17-14.4,23.5
			c-6.1,6.5-13.3,11.6-21.6,15.1c-8.3,3.6-17.3,5.3-27.1,5.3c-11.8,0-23.1-2.9-34.1-8.6c-12.8-6.6-22.8-15.9-29.8-27.7
			c-5.7-9.9-8.6-21.5-8.6-35c0-2.7,0.1-5,0.2-7.1c0.1-2.1,0.4-4.2,0.9-6.4c0.4-2.2,1.1-4.6,1.9-7.3c0.8-2.6,2-5.8,3.3-9.6
			c1.5-3.8,2.2-6.3,2.1-7.6c0-1.2-0.6-2.2-1.7-3.1c-1.1-0.9-3.4-1.4-6.7-1.6V851.3z"/>
		<path d="M1685,787.5v-62.5h-38.5c-3.2,0-5.8,0.1-7.8,0.1c-2,0.1-3.7,0.3-5,0.7c-1.3,0.4-2.3,1-3,1.7c-0.7,0.7-1.5,1.7-2.1,2.9
			c-1.6,2.8-2.4,5.8-2.4,9v4.7h-3.7v-57.6h3.7v4.7c0,1.3,0.1,2.6,0.4,4.1c0.3,1.4,0.7,2.8,1.3,4c0.6,1.2,1.3,2.3,2.2,3.3
			c0.9,1,1.9,1.7,3.1,2.1c2.1,0.7,6.5,1,13.2,1h86.8c3.2,0,5.7-0.1,7.7-0.2c2-0.1,3.6-0.4,4.9-0.7c1.3-0.3,2.3-0.9,3-1.6
			c0.7-0.7,1.5-1.6,2.1-2.8c1.6-2.8,2.4-5.8,2.4-9.2v-4.7h3.7v57.6h-3.7v-4.7c0-2.3-0.2-4.3-0.5-6.1c-0.3-1.8-1.2-3.3-2.5-4.6
			c-1.3-1.3-3.4-2.2-6.1-2.9c-2.7-0.6-6.4-1-11-1h-41v62.5h41c3.2,0,5.7,0,7.7-0.1c2-0.1,3.6-0.3,4.9-0.7c1.3-0.4,2.3-1,3-1.7
			c0.7-0.7,1.5-1.7,2.1-2.9c1.6-2.8,2.4-5.8,2.4-9V768h3.7v57.8h-3.7V821c0-5.4-1.6-9.4-4.9-12c-2-1.6-7.1-2.4-15.3-2.4h-86.8
			c-3.3,0-5.9,0.1-7.9,0.1c-2,0.1-3.7,0.3-4.9,0.7c-1.2,0.4-2.2,0.9-3,1.6c-0.7,0.7-1.5,1.6-2.1,2.8c-1.6,2.8-2.4,5.8-2.4,9v4.9
			h-3.7V768h3.7v4.9c0,1.2,0.1,2.5,0.4,3.9c0.3,1.4,0.7,2.8,1.3,4c0.6,1.2,1.3,2.3,2.2,3.3c0.9,1,1.9,1.7,3.1,2.1
			c2.4,0.8,6.8,1.2,13.2,1.2H1685z"/>
		<path d="M1622.5,564.7h31.7v2.2c-8.5,1.1-14.5,3.6-18,7.5c-3.5,3.9-5.3,9.7-5.3,17.3v19h103c4.5,0,8.1-0.3,10.7-1
			c2.6-0.6,4.6-1.6,5.9-2.7c1.3-1.2,2.1-2.7,2.4-4.4c0.3-1.8,0.5-3.9,0.5-6.2v-4.6h3.7v57.1h-3.7V644c0-2.4-0.2-4.4-0.6-6.2
			c-0.4-1.8-1.3-3.3-2.6-4.4c-1.3-1.2-3.3-2.1-5.9-2.7c-2.6-0.6-6.1-1-10.5-1h-103v16.2c0,4.1,0.3,7.6,1,10.7
			c0.6,3.1,1.8,5.8,3.6,8.1c1.7,2.3,4.1,4.1,7.1,5.4c3,1.3,6.9,2.1,11.6,2.4v3.7h-31.7V564.7z"/>
	</g>
	<g>
		<path d="M1884,1504c1.2-5.4,2.8-10.1,4.9-14c2.1-3.9,4.5-7.1,7.3-9.5c2.8-2.4,5.8-4.2,9.2-5.3c3.4-1.1,6.9-1.7,10.5-1.7
			c3.4,0,6.7,0.5,9.9,1.6c3.3,1.1,6.3,2.6,9.3,4.7c2.9,2,5.5,4.5,7.9,7.5c2.3,3,4.2,6.3,5.7,10.1c2.8,7.1,4.1,18.3,4.1,33.6v63.6
			h-3.7v-5c0-2.3-0.2-4.3-0.6-6.1c-0.4-1.8-1.3-3.3-2.7-4.5c-1.4-1.2-3.4-2.2-6.1-2.8c-2.7-0.6-6.3-1-10.8-1h-87
			c-4.7,0-8.4,0.3-11.1,1c-2.7,0.7-4.7,1.7-6,3c-1.3,1.3-2.2,2.8-2.5,4.6c-0.3,1.8-0.5,3.7-0.5,5.8v5h-3.7v-58.1
			c0-18.7,3.2-32.8,9.5-42.5c6.3-9.6,15.2-14.4,26.5-14.4c6.8,0,12.9,2.1,18.2,6.2C1877.5,1489.9,1881.4,1496,1884,1504z
			 M1878.6,1556c0.5-2.5,0.9-5.3,1.1-8.4c0.2-3.1,0.4-6.5,0.4-10.3c0-13.1-2.4-22.6-7.1-28.3c-4.7-5.7-11.3-8.6-19.7-8.6
			c-3.9,0-7.5,0.8-11,2.4c-3.5,1.6-6.5,4-9.1,7.2c-2.6,3.2-4.6,7.1-6.1,11.8c-1.5,4.7-2.3,10.2-2.3,16.4c0,6.7,0.7,12.6,2.2,17.8
			H1878.6z M1942.9,1556c1.8-7.5,2.7-15.1,2.7-22.7c0-6-0.7-11.4-2.2-16c-1.5-4.6-3.5-8.5-6-11.6c-2.5-3.1-5.5-5.4-8.9-7
			c-3.4-1.6-7-2.4-10.9-2.4c-4.2,0-8.2,0.8-12,2.5c-3.8,1.7-7,4.3-9.8,7.8c-2.8,3.5-4.9,7.9-6.5,13.2c-1.6,5.3-2.4,11.5-2.4,18.6
			c0,4.1,0.1,7.7,0.1,10.5c0.1,2.9,0.3,5.2,0.7,7H1942.9z"/>
		<path d="M1815,1388c0-8.6,1.8-16.8,5.3-24.6c3.6-7.8,8.4-14.7,14.7-20.6c6.2-5.9,13.6-10.6,22-14.2c8.4-3.5,17.6-5.3,27.5-5.3
			c10.2,0,19.6,1.8,28.3,5.3c8.7,3.5,16.2,8.3,22.6,14.2c6.4,6,11.4,13,15,21c3.6,8.1,5.4,16.6,5.4,25.7c0,9.2-1.7,17.8-5.2,25.8
			c-3.5,8-8.3,14.9-14.6,20.8c-6.3,5.9-13.8,10.5-22.5,13.9c-8.7,3.4-18.3,5.1-28.8,5.1c-9.7,0-18.8-1.7-27.3-5.1
			c-8.5-3.4-15.9-8.1-22.2-14.1c-6.3-6-11.2-13.1-14.9-21.3C1816.9,1406.6,1815,1397.7,1815,1388z M1822.3,1389.9
			c0,6.8,1.5,12.9,4.4,18.2c2.9,5.3,7.1,9.7,12.4,13.3c5.4,3.6,11.9,6.3,19.6,8.2c7.7,1.9,16.3,2.8,25.9,2.8c9.5,0,18.2-0.9,26-2.7
			c7.9-1.8,14.6-4.5,20.3-8.2c5.7-3.6,10.1-8.1,13.2-13.4c3.1-5.3,4.7-11.5,4.7-18.4c0-6.2-1.2-12-3.6-17.3
			c-2.4-5.3-6.1-9.9-11-13.9c-5-4-11.4-7-19.1-9.3c-7.8-2.2-17-3.3-27.8-3.3c-10.2,0-19.3,0.9-27.3,2.7c-8.1,1.8-14.9,4.6-20.5,8.3
			c-5.6,3.7-9.8,8.3-12.7,13.8C1823.8,1376.4,1822.3,1382.7,1822.3,1389.9z"/>
		<path d="M1907.7,1222.5v52.2l21.2,9.2c5.2,2.2,9.1,3.3,11.7,3.3c1.1,0,2.1-0.2,3-0.5c0.9-0.3,1.7-1.1,2.4-2.2
			c0.7-1.1,1.4-2.7,1.9-4.7c0.5-2,0.9-4.7,1.1-8.1h3.7v42.4h-3.7c-0.5-3.4-1.2-6.1-2.2-8.2c-1-2.1-2.3-3.9-4.1-5.3
			c-1.7-1.5-4-2.8-6.7-4.1c-2.8-1.2-6.2-2.7-10.2-4.5l-110.7-47.4v-3.4l111.9-46.8c4.6-1.9,8.4-3.6,11.2-5.3c2.8-1.6,5-3.3,6.6-5
			c1.6-1.7,2.7-3.6,3.3-5.6c0.6-2,0.9-4.5,1-7.3h3.7v53.2h-3.7c-0.2-5.3-1.1-9-2.6-10.9c-1.5-1.9-3.4-2.9-5.6-2.9
			c-2.9,0.1-7.5,1.4-13.9,4L1907.7,1222.5z M1900.3,1225.3l-54.4,22.8l54.4,23.4V1225.3z"/>
		<path d="M1952.7,1031.3v35.9l-63,45.6c0.1,1.7,0.2,3.2,0.2,4.5c0.1,1.3,0.1,2.5,0.1,3.6c0,0.9,0,1.8-0.1,2.8c0,1-0.1,2-0.2,3.1
			h39.1c4.7,0,8.5-0.3,11.2-1c2.7-0.6,4.7-1.6,6.1-2.8c1.3-1.2,2.1-2.7,2.4-4.4c0.3-1.7,0.4-3.7,0.4-5.9v-5.3h3.7v57.8h-3.7v-5.2
			c0-5.5-1.8-9.6-5.5-12.2c-2.2-1.4-7.1-2.1-14.7-2.1h-87c-8.3,0-13.5,0.9-15.7,2.8c-3,2.6-4.4,6.4-4.4,11.4v5.2h-3.7v-49.1
			c0-7.2,0.3-13.4,0.8-18.7c0.5-5.2,1.4-9.5,2.4-12.9c1.1-3.4,2.6-6.5,4.5-9.5c1.9-3,4.2-5.6,7-7.8c2.7-2.2,5.8-4,9.1-5.3
			c3.4-1.3,7-1.9,10.8-1.9c8.4,0,15.6,2.7,21.6,8c6,5.3,10.3,13.7,12.9,25l38.5-27.7c4.4-3.3,8.1-6.2,11-8.7c2.9-2.5,5.1-5,6.8-7.6
			c1.7-2.5,2.9-5.2,3.7-8c0.8-2.8,1.4-6.2,1.8-10H1952.7z M1883.5,1126.9c0-1.3,0-2.4,0.1-3.3c0.1-0.9,0.1-1.7,0.1-2.3
			c0-6.4-0.7-12.1-2.2-16.9c-1.5-4.8-3.6-8.9-6.2-12.2c-2.7-3.3-5.8-5.7-9.4-7.3c-3.6-1.6-7.5-2.4-11.8-2.4c-4.1,0-8,0.7-11.5,2.1
			c-3.5,1.4-6.5,3.4-9,5.9c-2.5,2.6-4.5,5.6-5.9,9.2c-1.4,3.6-2.1,7.5-2.1,11.7c0,4.1,0.6,9.2,1.9,15.6H1883.5z"/>
		<path d="M1952.7,1029.6h-3.7v-5.2c0-2.3-0.2-4.3-0.6-6.1c-0.4-1.8-1.3-3.3-2.7-4.4c-1.4-1.2-3.4-2.1-6.1-2.7
			c-2.7-0.6-6.3-1-10.8-1h-87c-8.3,0-13.5,0.9-15.7,2.8c-3,2.6-4.4,6.4-4.4,11.4v5.2h-3.7v-54.8c0-20,2.3-35.3,7-45.9
			c4.6-10.6,12.3-19,22.8-25.3c10.8-6.4,23.1-9.6,36.9-9.6c10,0,19.1,1.6,27.4,4.8c8.3,3.2,15.5,8,21.5,14.4
			c6,6.4,10.7,14.3,14.1,23.6c3.4,9.4,5,20.3,5,32.8V1029.6z M1942.9,991.1c1.9-8.2,2.8-15.2,2.8-21c0-7.6-1.4-14.7-4.2-21.2
			c-2.8-6.5-6.8-12.2-12-17c-5.2-4.8-11.5-8.5-18.9-11.3c-7.4-2.7-15.7-4.1-24.9-4.1c-9.3,0-17.7,1.3-25.1,4
			c-7.5,2.7-13.8,6.4-19,11.3c-5.2,4.8-9.2,10.6-11.9,17.2c-2.8,6.6-4.1,13.9-4.1,21.8c0,5.8,1,12.6,3,20.3H1942.9z"/>
	</g>
</g>
<g id="SOPORTE-PARED">
</g>
<g id="MEDIDAS">
</g>
<g id="PROCESOS">
</g>
</svg>
