<?xml version="1.0" encoding="utf-8"?>
<!-- Generator: Adobe Illustrator 26.5.0, SVG Export Plug-In . SVG Version: 6.00 Build 0)  -->
<svg version="1.1" xmlns="http://www.w3.org/2000/svg" xmlns:xlink="http://www.w3.org/1999/xlink" x="0px" y="0px"
	 viewBox="0 0 4662 3367" style="enable-background:new 0 0 4662 3367;" xml:space="preserve">
<style type="text/css">
	.st0{fill:none;stroke:#000000;stroke-width:16.9126;stroke-miterlimit:10;}
	.st1{fill:#E6E6E6;}
	.st2{fill:none;stroke:#000000;stroke-width:28.0316;stroke-miterlimit:10;}
	.st3{fill:none;stroke:#000000;stroke-width:16.6782;stroke-miterlimit:10;}
	.st4{stroke:#000000;stroke-width:16.6782;stroke-miterlimit:10;}
</style>
<g id="CIRCULOS-SELECCION4">
</g>
<g id="CLOSET">
	<g id="LATERAL-DERECHA">
	</g>
	<g id="BASE">
	</g>
	<g id="DIVISIONES-VERTICALES">
		<g id="DIVISION-VERTICAL-DERECHA">
		</g>
		<g id="DIVISION-CENTRAL">
		</g>
		<g id="DIVISION-VERTICAL-IZQUIERDA_00000085229740836627909760000005526871516412138418_">
		</g>
	</g>
	<g id="DIVISIONES-HORIZONTALES">
	</g>
	<g id="LATERAL-IZQUIERDA">
	</g>
	<g id="TECHO">
	</g>
	<g id="SOPORTES-COOK">
	</g>
</g>
<g id="TABLITAS-TRASERAS">
</g>
<g id="TRIPLEX_00000062169277959621118470000012963048032068378272_">
</g>
<g id="PUNTILLAS">
</g>
<g id="SOPORTE-MUEBLE">
	<g id="BISAGRAS">
		<path class="st0" d="M2400.4,1272.5"/>
		<path class="st0" d="M2393.4,1268"/>
		<path class="st0" d="M2392.8,855.8"/>
		<g>
			<g>
				<path class="st1" d="M1371.4,656c-1.7-0.3-3.1-1.5-4.7-2.1c-1.3-14.2,9.2-24.9,14.6-37.8c11.9-28.6,12.4-56.9,12.4-87.3
					c0-25.1-0.2-50.3,0-75.4c0.2-32.7-8.9-64.2-14.5-96.3c-5.6-31.8-12.9-63.5-21-94.8c-5.3-20.5-19.5-41.2-14.9-62.9
					c-4.1,7.1-17.6,9.3-24.7,12.1c-11.6,4.5-20.9,10.7-31.3,17.5c-16,10.5-30,22.9-45.1,34.5c-9.8,7.4-19.5,16.9-30.1,22.7
					c-23.2,12.9-48.3,22.2-71.9,34.8c-33.9,18.2-63.3,40-94.4,62.7c-28.2,20.7-49.7,48.3-64.9,80.1c-6.5,13.6-10.2,22.7-10.9,37.5
					c-0.7,13.9,7.2,58.6-7.5,64.5c-10.2,4.1-32.1-1.7-43-2.4c-23.6-1.6-47.2-3.1-70.9-4.7c0,0-159.6,57.5-180.4,64.8
					c-10.5,3.7-14.7,6.7-16.2,8.7c-1.6,2-0.6,3.2-0.6,3.2l6.5,374.3c0,0-2.6,38.4,50.6,35.7c17.7-0.9,136.7,17.9,287.8,43.5
					c18.5,50.7,153.8,161.6,153.8,161.6l195,177.2c0,0,13.6,62.2,82.4,72.7c86.6,32.5,233.7,46.9,311.4,52.5c0,0,0.7,0.1,1.8,0.1
					c30.5,2.2,49.8,3,49.8,3s75.9,8.9,125.1-34.7c49.2-43.7,29.7-114.1,29.7-114.1s-11.2-84.8-26.3-112.1
					c-15.1-27.3,2.7-55.9,2.7-55.9c100.1,10.8,205,21.8,216.9,21.8c0,0,29.5,15.5,70.2,25.6l-0.1,0c0,0,2.6,22.7,23.3,22.7
					c20.8,0,55.2,0,55.2,0s18.9,2.8,27-18.4l-0.1,0c19.7-4.3,38.9-12.3,56.5-25.5l59.5-2.4h411.4l125.1-5l0,1.6
					c0,0,0.3,17.2,9.2,26.5c0.5,13.4-4.6,82.2-4.6,82.2s149.6,261.5,392.4,283.3l13.3,15c1,107.9-0.1,242.7-0.1,242.7
					s11.7,86,81.8,89.9c52.6,15.2,321.2,53.9,321.2,53.9s75.9,16.9,114.9-55.6c27.3-39.4,13-1265.5,13-1265.5l-5.2-329.4
					c0,0-9.1-85.3-85-103.8c-75.9-18.5-357.5-39.7-357.5-39.7s-90.8,4-94.1,108.5c3.2,120.4,4.5,217.6,4.5,217.6
					s-267-35.1-397.5,183.2c-1.9,31.7-2.9,101.7-2.9,101.7s-73.8-7.9-128.3-13.6h-411.4c-29.6-3.1-53.5-5.5-57.1-5.7
					c-5.7-0.3-7.4-0.9-7.9-1.3l0.1-0.7c0,0-0.1,0.1-0.1,0.1c0.1-0.1,0.1-0.1,0.1-0.1s3.9-6-5.4-25.8
					c-8.1-17.3-106.9-25.3-131.7-27.1l5.9-30.5c1-0.5,2-1.1,3.1-1.6c1.3-7.6,1.4-13.2,0.6-17.4c-2.4-12.7-13-12.2-23.3-11.7
					c-13.6,0.7-22.7-5.3-22.7-5.3s-1.9-11.2-25.3-14.5c-56.5,6.6-129.8-6-129.8-6s-39.6-9.3-87.6,0.7c-59.7,1.3-101.2-4-101.2-4
					s-13.3-1.7-35.4-4.6c33,4.3,43.7-14,45.4-22.1l0.3,0.2c0,0,68.2,0,79.2-34.7c0.6-34.1-0.6-274.8,0-353.2
					c-10.7-75.4-74.9-112.1-74.9-112.1l-108.7-12.9c0,0-188.8-14.8-212.2-16.1c-23.4-1.3-14.8-9.9-14.8-9.9l-65.7-7.9
					c0,0-12.3-10.6-82.7,16.5c-70.4,27.1-52.4,79.3-52.4,79.3c-10,30.5-0.9,86-0.9,86s0,47.6,6.3,52.1c12.2-4,22.9,28.3,22.9,28.3
					s1.9,60,0,74.9c-1.9,14.9-19.5,22.5-19.5,22.5s-1.9,46.4-1.9,82.8c-6.8,37.3-32.1,32.1-32.1,32.1l511.7,94.3
					c-110-14.3-439.9-57.8-453.9-65.5c-16.9-9.3-38.9-11.9-102.5-14.5c-12.3-0.5-23.1-1.7-32.6-3.3l74.8,5.5c0,0,2.9-14.4,2.5-25.4
					l6.5,1.8c0,0,4.5-7.7-3.2-25c-7.8-17.2-37.6-21.8-62.8-20.5c-25.1,1.3-25.5,20.5-25.5,20.5l14.7,4c-8.8,9-7.2,38.9-7.2,39
					c-39.9-6.7-56.8-20.5-56.8-20.5l-198.6-30.4c0,0-0.2,0-0.7,0c0.3,6.2,8.1,9.9,12.3,14.2c15.2,15.8,33.3,30,53,39.9
					c30.4,15.2,63.5,23.7,95.3,35.2c41.5,15.1,81.8,31.7,126.2,37c21,2.5,41.9,2.9,62.7,6.9c12.3,2.4,24.5,6.6,37,7.5
					c48.8,3.8,97.5-0.1,146.2,5.1c28.4,3,56.9,3.7,85.4,6.2c40.9,3.7,82,5.1,122.8,10.1c21,2.5,42,2.8,63.1,2.8
					c12.2,0,32.4,3.8,41.2-6.1c4.8-5.5,8.9-28.7,6.8-36.6c-2.4-9.1-10.5-10.1-20.3-12.2c-22.2-4.9-44.7-6.9-66.9-12
					c-29.6-6.8-59.5-11.1-88.8-18.9c-35.5-9.5-74.5-2.1-110.6-9.2c-23.7-4.7-47.4-9.1-71.1-13.4c-15.8-2.8-44.1-3.1-55.5-13.6
					c-13.5-12.6-20.2-37.6-19.1-55.4c-16.1,33.7-50.6,56.3-50.4,96.9c0.1,13.4,1.5,23.2,12.6,32.1"/>
			</g>
			<path class="st2" d="M3228,891.4l-255.8-17.9c0,0-73.8-7.9-128.3-13.6h-411.4c-29.6-3.1-53.5-5.5-57.1-5.7c-10.2-0.5-7.8-2-7.8-2
				s3.9-6-5.4-25.8c-9.2-19.8-137.2-27.4-137.2-27.4s-14.3-18.5,14.6-31.7c5.2-30.4-9.1-29.8-22.7-29.1c-13.6,0.7-22.7-5.3-22.7-5.3
				s-1.9-11.2-25.3-14.5c-56.5,6.6-129.8-6-129.8-6s-39.6-9.3-87.6,0.7c-59.7,1.3-101.2-4-101.2-4s-472.4-60.8-489.3-70.1
				c-16.9-9.3-38.9-11.9-102.5-14.5s-89.5-23.8-89.5-23.8l-198.6-30.4l-119.4-7.9c0,0-159.6,57.5-180.4,64.8
				c-20.8,7.3-16.9,11.9-16.9,11.9l6.5,374.3c0,0-2.6,38.4,50.6,35.7c53.2-2.6,1025.3,173.3,1025.3,173.3s381.6,42.3,404.9,42.3
				c0,0,139.5,73.7,232,4.3l59.5-2.4h411.4l148.5-5.9c0,0,99.9-18.5,232.3-15.9c2.6,7.9,4.5,11.9,4.5,11.9s64.9,3.3,114.9-6
				c20.1-12.6,24-25.1,24-25.1s-2.6-21.8-6.5-20.5c-3.9,1.3-15.6,8.6-32.4,13.9c-16.9,5.3-97.3,2-97.3,2L3235,916l103.8-1.3
				c0,0,35.7-7.3,26-37c-24,7.9-82.4,7.3-90.8,6.6c-8.4-0.7-3.9-7.3-40.2-1.3c-12.7,17.8-0.9,27.6-0.9,27.6l-536.4,10.1
				c0,0-16.2-5.5-12.8,63.5c0,73.4,1,228.7,1,228.7s15.6,35.7,54,32.7c38.4-3,140.2-2.5,140.2-2.5l348.9-11.6c0,0-2.3,9.4,0.3,19.5"
				/>
			<path class="st2" d="M2968.9,1263c0,0,0.3,17.2,9.2,26.5c0.5,13.4-4.6,82.2-4.6,82.2s155,271.2,405.5,284.4
				c1.3,109.8,0,256.6,0,256.6s11.7,86,81.8,89.9c52.6,15.2,321.2,53.9,321.2,53.9s75.9,16.9,114.9-55.6
				c27.3-39.4,13-1265.5,13-1265.5l-5.2-329.4c0,0-9.1-85.3-85-103.8s-357.5-39.7-357.5-39.7s-90.8,4-94.1,108.5
				c3.2,120.4,4.5,217.6,4.5,217.6s-267-35.1-397.5,183.2c-1.9,31.7-2.9,101.7-2.9,101.7"/>
			<path class="st3" d="M3092.8,881.9c0,0,60.9-103.7,113.9-102.7c53,1,167.4,10.9,167.4,10.9s20.4,30.8,16.5,44.6
				c-3.9,13.9,27.3-4.2,27.3-4.2s-37.6-15.8-29.8-60.8c1.9-106.5-15.6-181.2-15.6-181.2"/>
			<path class="st3" d="M3192.2,888.9c0,0,48.7-104.5,183-43.7c16.9,6,42.8-14.6,42.8-14.6l208.3,31.2c0,0,90.5,2.3,110,58.9
				c46.7,96.2,58.4,202.4,58.4,202.4s3.9,228.2-19.5,234.1c-38,124-72,129-72,129l-282.3-31.7l-2.9-15.9l-24.3-27.8
				c0,0-126.5,20.3-180.6-98.2c-3.9-30.3-137.7-21.8-137.7-21.8s-74.1,12.7-95.2-29.6"/>
			<path class="st3" d="M3045.5,1292.3c0,0,10.3,21.8,57.7,23.8c41.5,72.1,97.3,112.4,97.3,112.4s11,10.6,79.2,13.2
				c58.4,17.2,112.9,21.8,122,36.4c-24,17.2-2.9,80-22.6,191.8"/>
			<path class="st3" d="M3419.3,1445.5c0,0,0.6,14.8-7.1,26.7s220,21.8,270.6,37.7c29.2-13.9,34.2-26.2,47.8-49.3"/>
			<path class="st3" d="M3365.9,1229.8c0,0,156.1,31.1,205.3,27.1c64.8,28.8,81.3,73.4,81.3,73.4"/>
			<path class="st3" d="M3571.2,1256.9c0,0,65.8,64.5,68.7,85.3c32.2,30.8,133.2,21.8,133.2,21.8"/>
			
				<ellipse transform="matrix(0.9907 -0.1363 0.1363 0.9907 -31.6133 482.1972)" class="st3" cx="3505.7" cy="472" rx="87.2" ry="104.9"/>
			<path class="st4" d="M3524,525.7l-2.7-27.4c0,0,0.7-12.9,13.5-13.8l17.6-1.8c0,0,2.6-0.5,2.2-4.3c-0.4-3.8-2.4-24.2-2.4-24.2
				s-0.2-1.5-2.1-2.5c-2,0.2-22,2.3-22,2.3s-9.9-0.7-12.4-12c-1.3-10.9-2.7-27.3-2.7-27.3s-0.9-3.1-3.1-2.8
				c-2.2,0.3-20.1,2.1-20.1,2.1s-1.6,0.1-2.1,2.6c0.2,2.7,1.4,13.8,1.4,13.8l1.4,14.1c0,0-0.2,11.9-9.6,14.2
				c-9.5,1.7-22.4,2.6-22.4,2.6s-1.4,0.6-1.7,2.9c0.2,2.4,1.8,18.3,1.8,18.3l0.7,7c0,0,0.4,2.5,2.1,2.5s23-2.1,23-2.1
				s8.4-0.8,11.8,12.7c1.4,12.8,2.7,26.6,2.7,26.6s-0.1,2.4,2.4,2.8c2.7,0,20.4-2.2,21.1-2.2C3524.2,528.6,3524,525.7,3524,525.7z"
				/>
			
				<ellipse transform="matrix(0.89 -0.4559 0.4559 0.89 -454.3174 1802.5148)" class="st3" cx="3509" cy="1842.9" rx="87.3" ry="98.1"/>
			<path class="st4" d="M3541.1,1885.5l-10-23.6c0,0-2.8-11.8,9.2-16.4l16.3-6.9c0,0,2.3-1.2,0.9-4.5c-1.4-3.3-8.9-20.9-8.9-20.9
				s-0.6-1.3-2.7-1.6c-1.9,0.8-20.4,8.7-20.4,8.7s-9.7,2.3-15.1-7c-4.2-9.4-10-23.6-10-23.6s-1.7-2.6-3.7-1.6
				c-2,1-18.6,7.9-18.6,7.9s-1.5,0.5-1.3,2.9c0.9,2.3,5.1,11.9,5.1,11.9l5.2,12.2c0,0,3,10.7-5.4,15.6c-8.6,4.4-20.7,9.1-20.7,9.1
				s-1.2,0.9-0.8,3.1c0.8,2.1,6.7,15.8,6.7,15.8l2.6,6.1c0,0,1.1,2.1,2.7,1.6s21.4-8.9,21.4-8.9s7.8-3.2,14.7,7.8
				c4.9,11,9.8,22.9,9.8,22.9s0.6,2.1,3.1,1.7c2.6-0.8,18.9-8.2,19.5-8.3C3542.1,1888,3541.1,1885.5,3541.1,1885.5z"/>
			<line class="st3" x1="3270" y1="915.5" x2="3270" y2="1221.8"/>
			<line class="st3" x1="3316.8" y1="915.5" x2="3316.8" y2="1220.8"/>
			<path class="st3" d="M2367.6,852.1c0,0-24.8,24.8-46.9,27.4s-113.6,6.6-156.4-17.2c-14.9-10.3-25.3,6.6-25.3,6.6v367.7
				c0,0-3.2,21.2,25.3,14.5c25.3-0.7,54.5,30.4,159.6,18.5"/>
			<path class="st3" d="M2211.1,1290.1c0,0,2.6,22.7,23.3,22.7s55.2,0,55.2,0s18.9,2.8,27-18.4"/>
			<path class="st3" d="M2165.1,840.6c0,0,55.9,17.2,116.7,19.2s80.4-33.4,80.4-33.4"/>
			<path class="st3" d="M2184.1,870.6v32.8c0,0,2.2,16.5,43.8,16.5s51.3,0,51.3,0"/>
			<path class="st2" d="M1924,1242.7c0,0-17.8,28.6-2.7,55.9c15.1,27.3,26.3,112.1,26.3,112.1s19.5,70.4-29.7,114.1
				c-49.2,43.6-125.1,34.7-125.1,34.7s-241.4-9.9-363.1-55.6c-68.8-10.6-82.4-72.7-82.4-72.7l-195-177.2
				c0,0-135.3-110.8-153.8-161.6"/>
			<polygon class="st3" points="721.8,979 721.8,713.8 715.6,705 698.1,705 691.3,712.9 691.3,979.1 696,984.7 716.8,984.7 			"/>
			<polygon class="st3" points="771.8,984.5 771.8,719.3 765.6,710.5 748.1,710.5 741.3,718.5 741.3,984.7 746,990.3 766.7,990.3 
							"/>
			<path class="st3" d="M654.3,635.7l199.2,39.6c0,0,120.7-31.1,185.6,27.8c123.3,21.8,682.7,119.7,682.7,119.7
				s328.3-30.4,417.2,46.3"/>
			<path class="st3" d="M1219.4,1130.4v62l125,98.9c0,0,28.9,5.3,24.3-36c-1.4-22.1,2.2-98.3,2.2-98.3"/>
			<path class="st3" d="M1347.3,1431.2c0,0-7.1-101.8-2.9-139.9"/>
			<path class="st3" d="M1185.4,1130.4c0,0-4.9,53.1,3.9,63c10.7,32.6,79.8,118.1,153.8,128"/>
			<path class="st3" d="M1396.6,354.1c13.6-74.4,123.6-124,182-4c61.3,235.1-28.2,269.8-28.2,269.8s-121.7,51.6-146-76.4
				C1391.2,454.6,1396.6,430.5,1396.6,354.1z"/>
			<path class="st3" d="M1532,292.5c0,0-99.4-26.7-114.9,52.7c-15.6,79.4,5.4,202.5,12.7,216.9c7.3,14.4,26.3,75.7,120.7,57.9"/>
			<path class="st3" d="M1421,524.7c0,0,15.2-17.5,33.4,20.9c18.2,38.4,117.8,45.9,140,4.7"/>
			<path class="st3" d="M1415.3,355.6h26.1c0,0,56.6-72.3,138.6,0"/>
			<path class="st3" d="M1596.2,437.2c7.3,48.5-7.9,88.5-48.2,94.8c-40.3,6.3-78.8-27.9-86.1-76.5s15.4-94.3,56.2-95.1
				C1550.4,359.8,1588.9,388.7,1596.2,437.2z"/>
			<path class="st4" d="M1550.1,488.6l-4.1-22.9c0,0-0.3-10.9,9.8-12.5l13.9-2.6c0,0,2-0.6,1.4-3.8c-0.6-3.2-3.7-20.2-3.7-20.2
				s-0.2-1.3-1.9-2c-1.6,0.3-17.5,3.3-17.5,3.3s-8,0-10.7-9.3c-1.8-9.1-4.1-22.8-4.1-22.8s-0.9-2.6-2.7-2.2c-1.7,0.4-15.9,3-15.9,3
				s-1.2,0.1-1.5,2.3c0.4,2.3,2.1,11.5,2.1,11.5l2.1,11.8c0,0,0.7,10-6.7,12.6c-7.5,2-17.7,3.6-17.7,3.6s-1.1,0.6-1.1,2.5
				c0.3,2,2.8,15.3,2.8,15.3l1,5.9c0,0,0.5,2.1,1.9,2s18.3-3.2,18.3-3.2s6.6-1.2,10.4,10c2.1,10.7,4.1,22.2,4.1,22.2s0.1,2,2.1,2.2
				c2.2-0.2,16.2-3.1,16.7-3.1C1550.5,491,1550.1,488.6,1550.1,488.6z"/>
			<path class="st2" d="M970.3,570.1c0,0-24.3-128.6,78.8-193.1s278.4-178.6,278.4-178.6"/>
			<path class="st3" d="M1225.7,621c0,0-2.3-42.3,13.3-41.6c15.6,0.7,55.8,4,61.6,11.2c5.8,7.3,0,35.9,0,35.9"/>
			<path class="st3" d="M1220.8,562.1c0,0-66.2-17.2-56.5-120.4c-4.5-77.4,31.8-86.2,31.8-86.2l87.6-56c0,0,29.2-14.5,40.2,20.5"/>
			<path class="st3" d="M1303.2,610.1c0,0,25.3,5.2,32.1-32.1c0-36.3,1.9-82.8,1.9-82.8s17.5-7.6,19.5-22.5c1.9-14.9,0-74.9,0-74.9
				s-10.7-32.2-22.9-28.3c-6.3-4.5-6.3-52.1-6.3-52.1s-10.3-62.5,2.9-91.3s24.4-50.6,60.4-55.6c36-5,138.4,8.9,138.4,8.9l164.3,26.8
				c0,0,148.9-6,157.7,124s5.8,348.2,8.8,348.2s-3,31.3-45.1,25.8"/>
			<path class="st2" d="M1328.4,231.4c0,0-18-52.2,52.4-79.3c70.4-27.1,82.7-16.5,82.7-16.5l65.7,7.9c0,0-8.6,8.6,14.8,9.9
				c23.4,1.3,212.2,16.1,212.2,16.1l108.7,12.9c0,0,64.2,36.8,74.9,112.1c-0.6,78.4,0.6,319.1,0,353.2c-11,34.7-79.2,34.7-79.2,34.7
				"/>
			<path class="st3" d="M1218.2,578c0,0,0.3-19.1,25.5-20.5c25.1-1.3,55,3.2,62.8,20.5s3.2,25,3.2,25"/>
			<path class="st3" d="M1336,532.8c0,0-98.4-4.4-106.1-8.3s-23.4-5.3-20.8-34.4c2.6-29.1-2.6-82-2.6-82s1.9-15.8,22.7-23.8
				s97.1-60.8,97.1-60.8"/>
			<path class="st3" d="M1417.3,1165.2l4,150.9c0,0,46.1,115.1,139.5,93.9c70.1-37,39.7-212.2,39.7-212.2"/>
			<path class="st3" d="M1403.7,1162.8l6,163.5c0,0,49.3,131.9,136.3,86.3"/>
			<path class="st3" d="M1446.2,1170.3c0,0-42.6,260.9,153.3,180.8"/>
			<path class="st3" d="M1429.3,1332.6c0,0-2.8-28.8,28.5-17"/>
			<path class="st3" d="M1605.3,1237c-2.5-16.8-8.8-31.2-17.2-42.9c-6.7-0.9-13.4-1.7-20-3c-8.3-1.7-16.7-3.2-25.1-4.5
				c-17.2-2.8-34.4-5.2-51.4-8.8c-0.1,0-0.3-0.1-0.4-0.1c-0.4,0.1-0.8,0.1-1.2,0.1c-0.1,0-0.2,0-0.3,0c-16,17.9-23.3,47.2-18.7,77.6
				c7.3,48.5,45.9,82.8,86.1,76.5C1597.4,1325.5,1612.6,1285.5,1605.3,1237z"/>
			<path class="st4" d="M1539.8,1292.2l5.4-22.6c0,0,4.1-10.1,14-7.3l13.8,3.4c0,0,2.1,0.3,2.8-2.8s4.8-20,4.8-20s0.3-1.3-0.9-2.6
				c-1.6-0.4-17.2-4.3-17.2-4.3s-7.3-3.4-6-13c2-9.1,5.4-22.5,5.4-22.5s0.2-2.8-1.5-3.1s-15.7-3.9-15.7-3.9s-1.2-0.4-2.3,1.5
				c-0.6,2.2-2.7,11.4-2.7,11.4l-2.8,11.7c0,0-3.4,9.4-11.2,8.7c-7.6-1.3-17.6-4.1-17.6-4.1s-1.2,0.1-2,1.8
				c-0.5,2-3.6,15.1-3.6,15.1l-1.4,5.8c0,0-0.4,2.1,0.9,2.6s17.9,4.7,17.9,4.7s6.5,1.7,5.4,13.4c-2.4,10.6-5.2,22-5.2,22
				s-0.7,1.9,1.1,2.9c2,0.7,16,3.9,16.5,4.1C1539.2,1294.6,1539.8,1292.2,1539.8,1292.2z"/>
			<path class="st3" d="M1741.2,1556.4c0,0,135.4,12,140.2-83.2s0-235,0-235"/>
			<path class="st3" d="M839.9,797.6v-35.7c0,0,35-70,93.4-56.8c32.1,0.8,69.6,10.7,69.6,10.7s51.6,20.8,50.6,71.9
				c-7.3,25.3-6.3,46.1-6.3,46.1l2.9,162.2c0,0,15.6,44.3-29.2,49.6c-43.5,1.4-117.5-6.6-117.5-6.6l-49.3-10.6
				c0,0-22.7-0.7-20.8-42.3c-0.1-6-0.1-14.5-0.1-14.5"/>
			<path class="st3" d="M884.2,766.2c0,0,53.4-34.9,97.8-9.6c44.5,25.3,65.9,60.5,65.9,60.5l0.8,98.6l1.3,73.4
				c0,0-22.7,27.9-63.2,32.3"/>
			<ellipse class="st3" cx="924.7" cy="898.4" rx="99.7" ry="124.7"/>
			<ellipse class="st3" cx="930.3" cy="897.7" rx="116.6" ry="141.3"/>
			<path class="st3" d="M1123.5,864.4v-51.6c0,0,4.5-13.9,20.8-9.3c16.2,4.6,61,8.6,61,8.6s3.7,24.5,14.2,26.5s48.1,4.6,59.1,15.2
				c53.9,15.2,85,185.2-29.2,185.2c-15.6,0-29.9,0-29.9,0l-6.7,17.5l-67.2-12.9c0,0-24.8-2.5-17-48.1s-5-42.7-5-42.7
				s-21.7-27.8-5.7-67C1126.1,872.5,1123.5,864.4,1123.5,864.4z"/>
			<path class="st3" d="M1263.6,845.8c-16-4.5-39-5.2-44.9-8c-10.4-3.5-8.3-14.4-16.4-25.1c-15.2-6.8-48,37.6-48,78.7
				c0,46.8,28.8,84.8,64.4,84.8c35.6,0,64.4-38,64.4-84.8C1281.6,872.8,1268.3,847.1,1263.6,845.8z"/>
			
				<ellipse transform="matrix(0.9788 -0.205 0.205 0.9788 -170.1387 315.7527)" class="st3" cx="1438.8" cy="979" rx="111.6" ry="149.2"/>
			
				<ellipse transform="matrix(0.9727 -0.2323 0.2323 0.9727 -192.4407 354.2896)" class="st3" cx="1408.4" cy="994.4" rx="76.2" ry="95.7"/>
			<path class="st4" d="M1439.9,1032.5l-11-22.2c0,0-3.6-11.3,6-17.5l13.1-9c0,0,1.8-1.5,0.3-4.6c-1.5-3.1-9.7-19.6-9.7-19.6
				s-0.6-1.3-2.4-1.2c-1.5,1-16.4,11.2-16.4,11.2s-7.9,3.5-13.5-5c-4.5-8.8-10.9-22.1-10.9-22.1s-1.7-2.3-3.3-1.1
				c-1.6,1.2-14.9,10.2-14.9,10.2s-1.2,0.7-0.8,3.1c1,2.2,5.5,11.2,5.5,11.2l5.6,11.4c0,0,3.7,10.2-2.9,16.2
				c-6.9,5.4-16.5,11.7-16.5,11.7s-0.9,1.1-0.4,3.2c0.9,1.9,7.3,14.8,7.3,14.8l2.8,5.7c0,0,1.2,2,2.5,1.2s17.2-11.5,17.2-11.5
				s6.3-4.2,13.3,5.9c5.3,10.3,10.7,21.5,10.7,21.5s0.7,2,2.8,1.3c2.1-1.2,15.1-10.5,15.7-10.7
				C1441.1,1034.9,1439.9,1032.5,1439.9,1032.5z"/>
			<path class="st3" d="M1388.6,900.7c0,0,31.9-18.8,62.6-9.9c111.9,71.4,53,174.1,6,183c4.2-3.1,12.2-13.5,12.2-13.5"/>
			<path class="st4" d="M986.4,892.7l-18.2-16.6c0,0-7.4-9.2-0.7-18.5l8.9-13.2c0,0,1.2-2.1-1.4-4.4s-16-14.6-16-14.6
				s-1-0.9-2.7-0.2c-1,1.5-11.2,16.5-11.2,16.5s-6.1,6.2-14.3,0.4c-7.4-6.5-18.1-16.5-18.1-16.5s-2.4-1.5-3.5,0.2
				c-1.1,1.7-10.2,15.1-10.2,15.1s-0.9,1.1,0.4,3.1c1.8,1.7,9.2,8.3,9.2,8.3l9.4,8.5c0,0,7.1,8.1,3.1,16.1c-4.4,7.6-11.2,17-11.2,17
				s-0.4,1.3,0.8,3.1c1.6,1.5,12.1,11.1,12.1,11.1l4.7,4.3c0,0,1.8,1.4,2.7,0.2c1-1.2,11.9-17.1,11.9-17.1s4.3-6.2,14.5,0.5
				c8.6,7.6,17.7,16,17.7,16s1.4,1.6,3.1,0.2c1.5-1.9,10.3-15.4,10.7-15.8C988.3,894.5,986.4,892.7,986.4,892.7z"/>
			
				<ellipse transform="matrix(0.986 -0.1667 0.1667 0.986 -57.9244 293.5475)" class="st3" cx="1719.9" cy="491.9" rx="91.8" ry="109"/>
			<path class="st4" d="M1741,547l-3.8-28.3c0,0,0.3-13.4,13.7-14.9l18.4-2.6c0,0,2.7-0.6,2.2-4.6c-0.5-4-3.4-25-3.4-25
				s-0.2-1.6-2.3-2.5c-2.1,0.3-23.1,3.3-23.1,3.3s-10.4-0.4-13.4-11.9c-1.7-11.3-3.8-28.2-3.8-28.2s-1-3.2-3.3-2.8
				c-2.3,0.4-21.1,3-21.1,3s-1.6,0.1-2.1,2.7c0.3,2.8,1.9,14.3,1.9,14.3l1.9,14.6c0,0,0.2,12.3-9.7,15.1c-10,2.1-23.4,3.6-23.4,3.6
				s-1.4,0.6-1.6,3.1c0.3,2.5,2.5,18.9,2.5,18.9l1,7.3c0,0,0.5,2.6,2.3,2.5c1.8-0.1,24.2-3.2,24.2-3.2s8.8-1.2,12.9,12.7
				c2,13.2,3.8,27.5,3.8,27.5s0,2.4,2.7,2.8c2.8-0.1,21.4-3.1,22.1-3.1C1741.4,550,1741,547,1741,547z"/>
			<path class="st3" d="M1710.3,383.4c0,0,27-7.4,56.2-7.4c127.8,47.3,100.6,202-6.3,228.2c-13,3.3-34.6-3.6-34.6-3.6"/>
			<ellipse class="st3" cx="1828.3" cy="757.4" rx="42.3" ry="12.4"/>
			<path class="st3" d="M1786,757.4c0,0-1.6,20.3,0,25.3c1.6,5,62,11.6,82.1,2.6c4.5-6.6,2.6-27.9,2.6-27.9"/>
			<ellipse class="st3" cx="2147.7" cy="733.6" rx="42.3" ry="12.4"/>
			<path class="st3" d="M2105.3,733.6c0,0-1.6,20.3,0,25.3c1.6,5,62,11.6,82.1,2.6c4.5-6.6,2.6-27.9,2.6-27.9"/>
			<ellipse class="st3" cx="2263.8" cy="822.4" rx="42.3" ry="12.4"/>
			<path class="st3" d="M2221.5,822.4c0,0-1.6,20.3,0,25.3c1.6,5,62,11.6,82.1,2.6c4.5-6.6,2.6-27.9,2.6-27.9"/>
			<path class="st3" d="M2240.1,749.7l-53.5,33c0,0-11.3,8.3,3.7,12.9c15.1,4.6,40.1,3.7,40.1,3.7"/>
		</g>
	</g>
	<g>
		<path d="M1022.5,1856v33.4h-2.3c-1.1-8.9-3.8-15.2-7.9-18.9c-4.1-3.7-10.2-5.5-18.2-5.5h-19.9v108.3c0,4.8,0.3,8.5,1,11.3
			c0.7,2.8,1.6,4.8,2.9,6.2c1.2,1.4,2.8,2.2,4.7,2.6c1.9,0.4,4.1,0.5,6.5,0.5h4.8v3.9h-60v-3.9h5c2.5,0,4.7-0.2,6.5-0.6
			c1.9-0.4,3.4-1.3,4.7-2.7c1.2-1.4,2.2-3.5,2.9-6.2c0.7-2.7,1-6.4,1-11.1v-108.3h-17c-4.3,0-8,0.3-11.3,1c-3.3,0.7-6.1,1.9-8.5,3.7
			c-2.4,1.8-4.3,4.3-5.7,7.5c-1.4,3.2-2.3,7.2-2.6,12.2h-3.9V1856H1022.5z"/>
		<path d="M1073.3,1921.8h65.8v-40.5c0-3.3-0.1-6.1-0.2-8.2c-0.1-2.1-0.4-3.9-0.8-5.2c-0.4-1.3-1-2.4-1.8-3.2s-1.8-1.5-3-2.3
			c-2.9-1.7-6.1-2.5-9.5-2.5h-5v-3.9h60.6v3.9h-5c-1.4,0-2.8,0.2-4.3,0.5c-1.5,0.3-2.9,0.8-4.2,1.4c-1.3,0.6-2.5,1.4-3.5,2.3
			c-1,0.9-1.8,2-2.2,3.3c-0.7,2.2-1.1,6.8-1.1,13.9v91.3c0,3.3,0.1,6,0.2,8.1c0.2,2.1,0.4,3.8,0.8,5.1c0.4,1.4,0.9,2.4,1.6,3.2
			c0.7,0.8,1.7,1.5,3,2.3c2.9,1.7,6.1,2.5,9.7,2.5h5v3.9h-60.6v-3.9h5c2.4,0,4.5-0.2,6.4-0.5c1.9-0.4,3.5-1.2,4.8-2.6
			c1.3-1.4,2.4-3.5,3-6.4c0.7-2.9,1-6.7,1-11.6v-43.2h-65.8v43.2c0,3.3,0.1,6,0.2,8.1c0.1,2.1,0.4,3.8,0.8,5.1
			c0.4,1.4,1,2.4,1.8,3.2s1.8,1.5,3,2.3c2.9,1.7,6.1,2.5,9.5,2.5h5.1v3.9h-60.8v-3.9h5.1c5.7,0,9.9-1.7,12.6-5.1
			c1.7-2.1,2.5-7.4,2.5-16.1v-91.3c0-3.4-0.1-6.2-0.2-8.3c-0.1-2.1-0.4-3.8-0.8-5.1c-0.4-1.3-1-2.3-1.7-3.1c-0.7-0.8-1.7-1.5-3-2.3
			c-2.9-1.7-6.1-2.5-9.5-2.5h-5.1v-3.9h60.8v3.9h-5.1c-1.2,0-2.6,0.2-4.1,0.5c-1.5,0.3-2.9,0.8-4.2,1.4c-1.3,0.6-2.5,1.4-3.5,2.3
			c-1,0.9-1.8,2-2.2,3.3c-0.8,2.5-1.2,7.1-1.2,13.9V1921.8z"/>
		<path d="M1228.5,1863.8v55.9h31c4.6,0,8.3-0.4,11.1-1.2c2.8-0.8,5-2.1,6.6-3.7c1.6-1.7,2.7-3.8,3.4-6.4c0.6-2.6,1-5.7,1.2-9.2h3.9
			v49.2h-3.9c-0.5-4.1-1.1-7.4-1.8-10.1c-0.7-2.7-1.8-4.9-3.3-6.5c-1.5-1.6-3.6-2.8-6.3-3.4c-2.7-0.7-6.3-1-10.9-1h-31v46.8
			c0,3.5,0.1,6.3,0.2,8.4c0.1,2.1,0.5,3.7,1.2,4.8c0.7,1.1,1.9,1.8,3.4,2.1c1.6,0.3,3.8,0.5,6.9,0.5h24c4.1,0,7.5-0.1,10.3-0.3
			c2.8-0.2,5.2-0.6,7.2-1.2c2-0.6,3.8-1.5,5.4-2.6s3.2-2.5,5-4.1c4.2-4.1,8.6-10.5,13.2-19.5h4.2l-12.3,35.5h-109.1v-3.9h5
			c1.3,0,2.8-0.2,4.2-0.5c1.5-0.3,2.8-0.8,4.1-1.3c1.3-0.6,2.5-1.3,3.5-2.3c1-0.9,1.8-2,2.2-3.3c0.8-2.3,1.2-6.9,1.2-13.7v-91.9
			c0-9-0.9-14.6-2.6-16.7c-2.5-2.8-6.7-4.2-12.6-4.2h-5v-3.9h109.1v31h-2.5c-1-5.1-2.2-9.2-3.4-12.2c-1.2-3.1-2.8-5.4-4.8-7.1
			c-2-1.7-4.5-2.7-7.6-3.2c-3.1-0.5-7-0.7-11.8-0.7H1228.5z"/>
		<path d="M1411.8,1921.8h65.8v-40.5c0-3.3-0.1-6.1-0.2-8.2c-0.1-2.1-0.4-3.9-0.8-5.2c-0.4-1.3-1-2.4-1.8-3.2s-1.8-1.5-3-2.3
			c-2.9-1.7-6.1-2.5-9.5-2.5h-5v-3.9h60.6v3.9h-5c-1.4,0-2.8,0.2-4.3,0.5c-1.5,0.3-2.9,0.8-4.2,1.4c-1.3,0.6-2.5,1.4-3.5,2.3
			c-1,0.9-1.8,2-2.2,3.3c-0.7,2.2-1.1,6.8-1.1,13.9v91.3c0,3.3,0.1,6,0.2,8.1c0.2,2.1,0.4,3.8,0.8,5.1c0.4,1.4,0.9,2.4,1.6,3.2
			c0.7,0.8,1.7,1.5,3,2.3c2.9,1.7,6.1,2.5,9.7,2.5h5v3.9h-60.6v-3.9h5c2.4,0,4.5-0.2,6.4-0.5c1.9-0.4,3.5-1.2,4.8-2.6
			c1.3-1.4,2.4-3.5,3-6.4c0.7-2.9,1-6.7,1-11.6v-43.2h-65.8v43.2c0,3.3,0.1,6,0.2,8.1c0.1,2.1,0.4,3.8,0.8,5.1
			c0.4,1.4,1,2.4,1.8,3.2s1.8,1.5,3,2.3c2.9,1.7,6.1,2.5,9.5,2.5h5.1v3.9h-60.8v-3.9h5.1c5.7,0,9.9-1.7,12.6-5.1
			c1.7-2.1,2.5-7.4,2.5-16.1v-91.3c0-3.4-0.1-6.2-0.2-8.3c-0.1-2.1-0.4-3.8-0.8-5.1c-0.4-1.3-1-2.3-1.7-3.1c-0.7-0.8-1.7-1.5-3-2.3
			c-2.9-1.7-6.1-2.5-9.5-2.5h-5.1v-3.9h60.8v3.9h-5.1c-1.2,0-2.6,0.2-4.1,0.5c-1.5,0.3-2.9,0.8-4.2,1.4c-1.3,0.6-2.5,1.4-3.5,2.3
			c-1,0.9-1.8,2-2.2,3.3c-0.8,2.5-1.2,7.1-1.2,13.9V1921.8z"/>
		<path d="M1588.2,1993.8v3.9h-60.6v-3.9h5c2.5,0,4.7-0.2,6.6-0.5c1.9-0.4,3.5-1.2,4.8-2.6s2.2-3.5,2.9-6.4c0.7-2.9,1-6.7,1-11.6
			v-91.5c0-3.2-0.1-5.9-0.2-8c-0.2-2.1-0.4-3.9-0.8-5.2c-0.4-1.3-0.9-2.4-1.6-3.2c-0.7-0.8-1.7-1.5-3-2.3c-3.1-1.7-6.3-2.5-9.7-2.5
			h-5v-3.9h60.6v3.9h-5c-2.5,0-4.7,0.2-6.6,0.6c-1.9,0.4-3.5,1.3-4.8,2.7c-1.2,1.4-2.2,3.5-2.9,6.4c-0.7,2.9-1,6.7-1,11.5v91.5
			c0,3.3,0.1,6,0.2,8.1c0.1,2.1,0.4,3.8,0.8,5.1c0.4,1.4,1,2.4,1.8,3.2s1.8,1.5,3,2.3c2.9,1.7,6.1,2.5,9.5,2.5H1588.2z"/>
		<path d="M1590.7,1856h38.3l86.6,106.3v-81.7c0-4.8-0.3-8.6-1-11.4c-0.7-2.8-1.7-4.9-3-6.2c-1.3-1.3-2.9-2.2-4.8-2.6
			c-1.9-0.4-4-0.5-6.4-0.5h-5v-3.9h49.4v3.9h-5.1c-2.5,0-4.7,0.2-6.5,0.6c-1.9,0.4-3.4,1.4-4.7,2.8c-1.2,1.5-2.2,3.5-2.8,6.2
			c-0.6,2.7-0.9,6.4-0.9,11.1V2000h-3.7l-93.4-114.1v87.3c0,4.9,0.3,8.7,1,11.5c0.7,2.8,1.6,4.8,2.9,6.2c1.2,1.4,2.8,2.2,4.7,2.5
			s4,0.5,6.4,0.5h5v3.9h-49.2v-3.9h5c2.5,0,4.7-0.2,6.5-0.6c1.9-0.4,3.5-1.3,4.8-2.7c1.3-1.4,2.3-3.5,2.9-6.2
			c0.6-2.7,0.9-6.4,0.9-11.1v-98.5c-2.1-2.5-3.8-4.5-5.2-5.9c-1.4-1.5-2.7-2.6-4-3.6c-1.2-0.9-2.6-1.7-4.1-2.3
			c-1.5-0.6-3.3-1.3-5.5-2c-2.1-0.6-5.1-0.9-9.2-0.9V1856z"/>
		<path d="M1879.1,1852.9l3.7,44.6h-3.7c-4.3-13.1-10.3-22.6-18.2-28.4c-7.8-5.9-17.4-8.8-28.6-8.8c-8.3,0-15.7,1.6-22.3,4.9
			s-12.1,7.8-16.7,13.6c-4.6,5.8-8.1,12.6-10.4,20.4c-2.4,7.8-3.6,16.3-3.6,25.5c0,13.4,2.6,25.7,7.9,36.9
			c2.6,5.6,5.6,10.4,9.1,14.5c3.5,4.1,7.2,7.4,11.3,10.1c4.1,2.6,8.3,4.6,12.7,5.8c4.4,1.2,8.9,1.9,13.3,1.9
			c10.4,0,20.2-2.6,29.3-7.8v-41c0-3.5-0.1-6.4-0.4-8.6c-0.3-2.2-0.7-4-1.2-5.3c-0.6-1.3-1.3-2.3-2.1-3c-0.8-0.7-1.8-1.3-3-1.9
			c-2.3-1.1-6.2-1.7-11.8-1.7v-4.1h54.9v4.1h-2.6c-2.4,0-4.4,0.3-6.1,0.8c-1.7,0.5-3,1.5-4.1,3c-1.1,1.5-1.9,3.5-2.3,6.2
			c-0.5,2.7-0.7,6.2-0.7,10.6v43.3c-4.1,2.2-8,4.1-11.9,5.7c-3.9,1.6-7.8,2.9-11.8,3.8c-8.1,2.1-16.8,3.1-26,3.1
			c-11.8,0-22.6-1.8-32.2-5.5c-9.6-3.6-17.8-8.7-24.7-15.1c-6.9-6.4-12.2-14-15.9-22.8c-3.7-8.7-5.6-18.2-5.6-28.5
			c0-12.4,3-24.3,9-35.8c7-13.5,16.7-23.9,29.1-31.3c10.4-6,22.6-9,36.8-9c2.8,0,5.3,0.1,7.5,0.2c2.2,0.2,4.4,0.5,6.8,0.9
			c2.3,0.5,4.9,1.1,7.6,2c2.8,0.9,6.1,2.1,10.1,3.5c3.9,1.6,6.6,2.3,7.9,2.2c1.2,0,2.3-0.6,3.3-1.8c0.9-1.2,1.5-3.6,1.7-7.1H1879.1z
			"/>
		<path d="M1947.1,1863.8v55.9h31c4.6,0,8.3-0.4,11.1-1.2c2.8-0.8,5-2.1,6.6-3.7c1.6-1.7,2.7-3.8,3.4-6.4c0.6-2.6,1-5.7,1.2-9.2h3.9
			v49.2h-3.9c-0.5-4.1-1.1-7.4-1.8-10.1c-0.7-2.7-1.8-4.9-3.3-6.5c-1.5-1.6-3.6-2.8-6.3-3.4c-2.7-0.7-6.3-1-10.9-1h-31v46.8
			c0,3.5,0.1,6.3,0.2,8.4c0.1,2.1,0.5,3.7,1.2,4.8c0.7,1.1,1.9,1.8,3.4,2.1c1.6,0.3,3.8,0.5,6.9,0.5h24c4.1,0,7.5-0.1,10.3-0.3
			c2.8-0.2,5.2-0.6,7.2-1.2c2-0.6,3.8-1.5,5.4-2.6s3.2-2.5,5-4.1c4.2-4.1,8.6-10.5,13.2-19.5h4.2l-12.3,35.5h-109.1v-3.9h5
			c1.3,0,2.8-0.2,4.2-0.5c1.5-0.3,2.8-0.8,4.1-1.3c1.3-0.6,2.5-1.3,3.5-2.3c1-0.9,1.8-2,2.2-3.3c0.8-2.3,1.2-6.9,1.2-13.7v-91.9
			c0-9-0.9-14.6-2.6-16.7c-2.5-2.8-6.7-4.2-12.6-4.2h-5v-3.9h109.1v31h-2.5c-1-5.1-2.2-9.2-3.4-12.2c-1.2-3.1-2.8-5.4-4.8-7.1
			c-2-1.7-4.5-2.7-7.6-3.2c-3.1-0.5-7-0.7-11.8-0.7H1947.1z"/>
		<path d="M2130.2,1931.5v41.1c0,9,1,14.6,3,16.7c2.7,3,6.7,4.5,12,4.5h5.5v3.9H2090v-3.9h5.3c5.9,0,10.2-1.9,12.8-5.8
			c1.5-2.3,2.2-7.4,2.2-15.4v-91.5c0-8.8-0.9-14.3-2.8-16.5c-2.8-3.1-6.9-4.7-12.2-4.7h-5.3v-3.9h51.9c12.5,0,22.4,1.4,29.9,4.1
			c3.6,1.2,7,3,10.2,5.2c3.2,2.2,5.9,4.9,8.3,7.9c2.3,3.1,4.2,6.4,5.5,10.1c1.3,3.7,2,7.7,2,11.9c0,5.7-1,11-3,15.7
			c-2,4.8-4.8,8.9-8.6,12.3s-8.3,6.1-13.7,8c-5.4,1.9-11.6,2.9-18.5,2.9C2147.3,1934.3,2139.3,1933.3,2130.2,1931.5z M2130.2,1925.4
			c3.7,0.7,7,1.3,9.8,1.6c2.8,0.4,5.2,0.5,7.3,0.5c3.6,0,7.1-0.8,10.3-2.3c3.2-1.5,6.1-3.6,8.5-6.2c2.4-2.6,4.4-5.8,5.8-9.6
			s2.1-7.8,2.1-12.2c0-5.2-0.8-9.8-2.3-13.9c-1.6-4.1-3.7-7.5-6.4-10.3c-2.7-2.8-5.9-4.9-9.5-6.4c-3.6-1.5-7.6-2.2-11.8-2.2
			c-3.5,0-8.1,0.6-13.7,1.9V1925.4z"/>
		<path d="M2283.6,1950.3h-54.9l-9.7,22.3c-2.3,5.5-3.4,9.6-3.4,12.3c0,1.1,0.2,2.2,0.5,3.1c0.4,0.9,1.1,1.8,2.3,2.6
			c1.2,0.8,2.9,1.5,5,2c2.1,0.6,5,1,8.5,1.2v3.9h-44.6v-3.9c3.5-0.5,6.4-1.3,8.6-2.3c2.2-1,4.1-2.5,5.6-4.3c1.6-1.8,3-4.2,4.3-7.1
			c1.3-2.9,2.9-6.5,4.8-10.8l49.9-116.4h3.6l49.2,117.7c2,4.9,3.8,8.8,5.5,11.8c1.7,3,3.5,5.3,5.3,6.9c1.8,1.7,3.8,2.8,5.9,3.4
			c2.1,0.6,4.7,1,7.7,1.1v3.9h-55.9v-3.9c5.6-0.2,9.4-1.1,11.5-2.7c2-1.6,3-3.6,3-5.8c-0.1-3-1.5-7.9-4.2-14.6L2283.6,1950.3z
			 M2280.6,1942.5l-24-57.2l-24.6,57.2H2280.6z"/>
		<path d="M2440.2,1856v33.4h-2.3c-1.1-8.9-3.8-15.2-7.9-18.9c-4.1-3.7-10.2-5.5-18.2-5.5h-19.9v108.3c0,4.8,0.3,8.5,1,11.3
			c0.7,2.8,1.6,4.8,2.9,6.2c1.2,1.4,2.8,2.2,4.7,2.6c1.9,0.4,4.1,0.5,6.5,0.5h4.8v3.9h-60v-3.9h5c2.5,0,4.7-0.2,6.5-0.6
			c1.9-0.4,3.4-1.3,4.7-2.7c1.2-1.4,2.2-3.5,2.9-6.2c0.7-2.7,1-6.4,1-11.1v-108.3h-17c-4.3,0-8,0.3-11.3,1c-3.3,0.7-6.1,1.9-8.5,3.7
			c-2.4,1.8-4.3,4.3-5.7,7.5c-1.4,3.2-2.3,7.2-2.6,12.2h-3.9V1856H2440.2z"/>
		<path d="M2575.8,1852.9l3.3,48.2h-3.3c-4.4-14.4-10.5-24.8-18.5-31.2c-7.9-6.3-17.5-9.5-28.8-9.5c-7.3,0-14,1.4-20.1,4.1
			c-6.1,2.8-11.4,7-15.8,12.7c-4.4,5.7-7.9,12.9-10.4,21.5c-2.5,8.6-3.7,18.8-3.7,30.5c0,9.5,1.2,18,3.5,25.7
			c2.3,7.7,5.8,14.3,10.3,19.7c4.5,5.5,10.1,9.7,16.6,12.6c6.5,3,14.1,4.4,22.6,4.4c8.9,0,17-2,24.3-5.9c7-3.6,14.7-11.4,23.2-23.4
			l3.3,2c-7.2,12.6-15.5,21.8-24.9,27.7c-9.4,5.9-20.6,8.8-33.7,8.8c-10.1,0-19.3-1.8-27.7-5.3c-8.4-3.5-15.7-8.5-21.7-14.9
			s-10.8-14-14.3-22.8c-3.4-8.8-5.1-18.4-5.1-28.9c0-14.2,3.2-27.2,9.5-39c6.2-11.8,14.9-21,26-27.4c11.2-6.5,23.4-9.8,36.5-9.8
			c10.3,0,20.4,2.5,30.2,7.5c2.9,1.6,5,2.3,6.2,2.3c2.3,0,4.2-0.9,5.7-2.8c1.5-1.9,2.6-4.2,3.2-7H2575.8z"/>
		<path d="M2633.6,1921.8h65.8v-40.5c0-3.3-0.1-6.1-0.2-8.2c-0.1-2.1-0.4-3.9-0.8-5.2c-0.4-1.3-1-2.4-1.8-3.2s-1.8-1.5-3-2.3
			c-2.9-1.7-6.1-2.5-9.5-2.5h-5v-3.9h60.6v3.9h-5c-1.4,0-2.8,0.2-4.3,0.5c-1.5,0.3-2.9,0.8-4.2,1.4c-1.3,0.6-2.5,1.4-3.5,2.3
			c-1,0.9-1.8,2-2.2,3.3c-0.7,2.2-1.1,6.8-1.1,13.9v91.3c0,3.3,0.1,6,0.2,8.1c0.2,2.1,0.4,3.8,0.8,5.1c0.4,1.4,0.9,2.4,1.6,3.2
			c0.7,0.8,1.7,1.5,3,2.3c2.9,1.7,6.1,2.5,9.7,2.5h5v3.9h-60.6v-3.9h5c2.4,0,4.5-0.2,6.4-0.5c1.9-0.4,3.5-1.2,4.8-2.6
			c1.3-1.4,2.4-3.5,3-6.4c0.7-2.9,1-6.7,1-11.6v-43.2h-65.8v43.2c0,3.3,0.1,6,0.2,8.1c0.1,2.1,0.4,3.8,0.8,5.1
			c0.4,1.4,1,2.4,1.8,3.2s1.8,1.5,3,2.3c2.9,1.7,6.1,2.5,9.5,2.5h5.1v3.9h-60.8v-3.9h5.1c5.7,0,9.9-1.7,12.6-5.1
			c1.7-2.1,2.5-7.4,2.5-16.1v-91.3c0-3.4-0.1-6.2-0.2-8.3c-0.1-2.1-0.4-3.8-0.8-5.1c-0.4-1.3-1-2.3-1.7-3.1c-0.7-0.8-1.7-1.5-3-2.3
			c-2.9-1.7-6.1-2.5-9.5-2.5h-5.1v-3.9h60.8v3.9h-5.1c-1.2,0-2.6,0.2-4.1,0.5c-1.5,0.3-2.9,0.8-4.2,1.4c-1.3,0.6-2.5,1.4-3.5,2.3
			c-1,0.9-1.8,2-2.2,3.3c-0.8,2.5-1.2,7.1-1.2,13.9V1921.8z"/>
	</g>
	<g>
		<g>
			<path d="M820.6,2199.3v3.2h-49.7v-3.2h4.1c2,0,3.8-0.1,5.4-0.4c1.6-0.3,2.9-1,3.9-2.2c1-1.1,1.8-2.9,2.4-5.2
				c0.6-2.3,0.8-5.5,0.8-9.5v-74.9c0-2.6-0.1-4.8-0.2-6.6c-0.1-1.7-0.3-3.2-0.6-4.3c-0.3-1.1-0.7-2-1.3-2.6
				c-0.6-0.6-1.4-1.3-2.4-1.9c-2.6-1.4-5.2-2-7.9-2h-4.1v-3.2h49.7v3.2h-4.1c-2,0-3.9,0.2-5.4,0.5c-1.6,0.3-2.9,1.1-3.9,2.2
				c-1,1.1-1.8,2.9-2.4,5.2c-0.6,2.3-0.8,5.5-0.8,9.4v74.9c0,2.7,0,4.9,0.1,6.6c0.1,1.7,0.3,3.1,0.6,4.2c0.3,1.1,0.8,2,1.5,2.6
				c0.6,0.6,1.5,1.3,2.5,1.9c2.4,1.4,5,2,7.8,2H820.6z"/>
			<path d="M905.2,2084v40.1H902c-1.4-10.8-5-19.1-10.6-24.8c-5.6-5.7-12.8-8.6-21.4-8.6c-3,0-5.7,0.5-8.2,1.5c-2.5,1-4.6,2.4-6.5,4
				c-1.9,1.7-3.3,3.6-4.3,5.7c-1,2.1-1.5,4.3-1.5,6.6c0,2.1,0.4,4.1,1.3,6.1c0.8,1.9,3.5,4.9,7.9,9c7.4,4.7,14,8.6,19.8,11.6
				c5.4,3,12.8,7.5,22.1,13.5c4,3.1,7.1,6.7,9.2,10.9c2.1,4.2,3.2,8.6,3.2,13.2c0,4.3-0.9,8.5-2.7,12.4c-1.8,3.9-4.3,7.3-7.5,10.3
				s-7,5.3-11.6,7c-4.5,1.7-9.4,2.6-14.8,2.6c-3.4,0-6.6-0.3-9.4-0.8c-0.5-0.1-1.9-0.4-4-1.1c-2.2-0.6-4.5-1.3-7-2
				c-2.5-0.7-4.8-1.3-6.9-1.9c-2.1-0.6-3.4-0.9-3.7-0.9c-1.4,0-2.6,0.4-3.4,1.3c-0.8,0.9-1.4,2.6-1.9,5.4h-3.2v-39.8h3.2
				c1.5,8.2,3.5,14.4,6,18.8c1.2,2,2.8,3.9,4.8,5.7c2,1.7,4.3,3.3,6.8,4.6c2.5,1.3,5.2,2.3,8.1,3.1c2.9,0.7,5.8,1.1,8.8,1.1
				c3.6,0,6.8-0.5,9.6-1.5c2.9-1,5.3-2.4,7.3-4.1c2-1.7,3.5-3.8,4.6-6.1c1.1-2.3,1.6-4.7,1.6-7.3c0-2.9-0.8-5.8-2.4-8.7
				c-1.6-2.9-4.2-5.7-8-8.6c-3.7-2.2-8-4.8-13-7.8c-9.6-5.5-18.2-10.8-25.7-16c-4.2-3.3-7.3-7-9.5-10.9s-3.3-8.4-3.3-13.2
				c0-4.1,0.8-8,2.6-11.7c1.7-3.7,4.1-7,7.1-9.8c3-2.8,6.6-5,10.8-6.6c4.2-1.6,8.7-2.4,13.5-2.4c6.1,0,12.6,1.5,19.5,4.5
				c1.6,0.7,3,1.2,4.1,1.7c1.1,0.4,2,0.6,2.7,0.5c1.5,0,2.8-0.4,3.7-1.3c0.9-0.8,1.7-2.6,2.2-5.4H905.2z"/>
			<path d="M963.8,2086.5h31.4l71,87v-66.9c0-3.9-0.3-7-0.8-9.3c-0.6-2.3-1.4-4-2.4-5.1c-1.1-1.1-2.4-1.8-3.9-2.1
				c-1.5-0.3-3.3-0.4-5.2-0.4h-4.1v-3.2h40.5v3.2h-4.2c-2,0-3.8,0.2-5.4,0.5c-1.5,0.3-2.8,1.1-3.8,2.3c-1,1.2-1.8,2.9-2.3,5.1
				c-0.5,2.2-0.8,5.2-0.8,9.1v97.8h-3.1l-76.5-93.4v71.5c0,4,0.3,7.1,0.8,9.4c0.6,2.3,1.3,3.9,2.4,5c1,1.1,2.3,1.8,3.8,2
				c1.5,0.3,3.3,0.4,5.2,0.4h4.1v3.2h-40.3v-3.2h4.1c2,0,3.8-0.2,5.4-0.5c1.5-0.3,2.8-1.1,3.9-2.2c1.1-1.1,1.9-2.8,2.4-5
				c0.5-2.2,0.8-5.2,0.8-9.1v-80.7c-1.7-2-3.1-3.7-4.3-4.8c-1.1-1.2-2.2-2.2-3.3-2.9c-1-0.8-2.1-1.4-3.3-1.9
				c-1.2-0.5-2.7-1.1-4.5-1.7c-1.7-0.5-4.2-0.8-7.5-0.8V2086.5z"/>
			<path d="M1129.2,2092.9v45.8h25.4c3.7,0,6.8-0.3,9.1-1c2.3-0.7,4.1-1.7,5.4-3.1c1.3-1.4,2.2-3.1,2.7-5.2c0.5-2.1,0.8-4.6,1-7.5
				h3.2v40.3h-3.2c-0.4-3.3-0.9-6.1-1.5-8.3c-0.6-2.2-1.4-4-2.7-5.3c-1.2-1.3-3-2.3-5.2-2.8c-2.2-0.6-5.2-0.8-8.9-0.8h-25.4v38.3
				c0,2.9,0,5.2,0.1,6.9c0.1,1.7,0.4,3,1,3.9c0.6,0.9,1.5,1.5,2.8,1.7c1.3,0.3,3.1,0.4,5.6,0.4h19.7c3.3,0,6.1-0.1,8.4-0.3
				c2.3-0.2,4.3-0.5,5.9-1c1.7-0.5,3.1-1.2,4.4-2.1s2.6-2,4.1-3.4c3.4-3.3,7-8.6,10.8-16h3.4l-10.1,29.1h-89.3v-3.2h4.1
				c1.1,0,2.3-0.1,3.4-0.4c1.2-0.3,2.3-0.6,3.4-1.1c1.1-0.5,2-1.1,2.9-1.9c0.8-0.8,1.4-1.7,1.8-2.7c0.7-1.9,1-5.6,1-11.2v-75.3
				c0-7.4-0.7-12-2.2-13.7c-2-2.3-5.5-3.4-10.3-3.4h-4.1v-3.2h89.3v25.4h-2c-0.9-4.2-1.8-7.5-2.7-10c-1-2.5-2.3-4.4-3.9-5.8
				c-1.6-1.4-3.7-2.2-6.2-2.6c-2.5-0.4-5.7-0.6-9.6-0.6H1129.2z"/>
			<path d="M1305,2084l2.7,39.4h-2.7c-3.6-11.8-8.6-20.3-15.1-25.5c-6.5-5.2-14.4-7.8-23.5-7.8c-6,0-11.4,1.1-16.5,3.4
				c-5,2.3-9.3,5.7-13,10.4c-3.6,4.7-6.4,10.6-8.5,17.6c-2,7.1-3.1,15.4-3.1,25c0,7.7,1,14.8,2.9,21.1c1.9,6.3,4.7,11.7,8.4,16.1
				c3.7,4.5,8.2,7.9,13.6,10.3c5.4,2.4,11.5,3.6,18.5,3.6c7.3,0,14-1.6,19.9-4.8c5.7-3,12-9.4,19-19.1l2.7,1.7
				c-5.9,10.3-12.7,17.8-20.4,22.7c-7.7,4.8-16.9,7.2-27.6,7.2c-8.3,0-15.8-1.4-22.7-4.3s-12.8-7-17.8-12.2s-8.9-11.4-11.7-18.6
				c-2.8-7.2-4.2-15.1-4.2-23.7c0-11.7,2.6-22.3,7.8-31.9c5.1-9.7,12.2-17.2,21.3-22.5c9.2-5.4,19.1-8,29.9-8c8.4,0,16.7,2,24.8,6.1
				c2.4,1.3,4.1,1.9,5.1,1.9c1.9,0,3.4-0.8,4.7-2.3c1.2-1.5,2.1-3.4,2.6-5.7H1305z"/>
			<path d="M1421.8,2084l2.7,39.4h-2.7c-3.6-11.8-8.6-20.3-15.1-25.5c-6.5-5.2-14.4-7.8-23.5-7.8c-6,0-11.4,1.1-16.5,3.4
				c-5,2.3-9.3,5.7-13,10.4c-3.6,4.7-6.4,10.6-8.5,17.6c-2,7.1-3.1,15.4-3.1,25c0,7.7,1,14.8,2.9,21.1c1.9,6.3,4.7,11.7,8.4,16.1
				c3.7,4.5,8.2,7.9,13.6,10.3c5.4,2.4,11.5,3.6,18.5,3.6c7.3,0,14-1.6,19.9-4.8c5.7-3,12-9.4,19-19.1l2.7,1.7
				c-5.9,10.3-12.7,17.8-20.4,22.7c-7.7,4.8-16.9,7.2-27.6,7.2c-8.3,0-15.8-1.4-22.7-4.3s-12.8-7-17.8-12.2s-8.9-11.4-11.7-18.6
				c-2.8-7.2-4.2-15.1-4.2-23.7c0-11.7,2.6-22.3,7.8-31.9c5.1-9.7,12.2-17.2,21.3-22.5c9.2-5.4,19.1-8,29.9-8c8.4,0,16.7,2,24.8,6.1
				c2.4,1.3,4.1,1.9,5.1,1.9c1.9,0,3.4-0.8,4.7-2.3c1.2-1.5,2.1-3.4,2.6-5.7H1421.8z"/>
			<path d="M1469.8,2092.9v45.8h25.4c3.7,0,6.8-0.3,9.1-1c2.3-0.7,4.1-1.7,5.4-3.1c1.3-1.4,2.2-3.1,2.7-5.2c0.5-2.1,0.8-4.6,1-7.5
				h3.2v40.3h-3.2c-0.4-3.3-0.9-6.1-1.5-8.3c-0.6-2.2-1.4-4-2.7-5.3c-1.2-1.3-3-2.3-5.2-2.8c-2.2-0.6-5.2-0.8-8.9-0.8h-25.4v38.3
				c0,2.9,0,5.2,0.1,6.9c0.1,1.7,0.4,3,1,3.9c0.6,0.9,1.5,1.5,2.8,1.7c1.3,0.3,3.1,0.4,5.6,0.4h19.7c3.3,0,6.1-0.1,8.4-0.3
				c2.3-0.2,4.3-0.5,5.9-1c1.7-0.5,3.1-1.2,4.4-2.1s2.6-2,4.1-3.4c3.4-3.3,7-8.6,10.8-16h3.4l-10.1,29.1h-89.3v-3.2h4.1
				c1.1,0,2.3-0.1,3.4-0.4c1.2-0.3,2.3-0.6,3.4-1.1c1.1-0.5,2-1.1,2.9-1.9c0.8-0.8,1.4-1.7,1.8-2.7c0.7-1.9,1-5.6,1-11.2v-75.3
				c0-7.4-0.7-12-2.2-13.7c-2-2.3-5.5-3.4-10.3-3.4h-4.1v-3.2h89.3v25.4h-2c-0.9-4.2-1.8-7.5-2.7-10c-1-2.5-2.3-4.4-3.9-5.8
				c-1.6-1.4-3.7-2.2-6.2-2.6c-2.5-0.4-5.7-0.6-9.6-0.6H1469.8z"/>
			<path d="M1620.4,2084v40.1h-3.2c-1.4-10.8-5-19.1-10.6-24.8c-5.6-5.7-12.8-8.6-21.4-8.6c-3,0-5.7,0.5-8.2,1.5
				c-2.5,1-4.6,2.4-6.5,4c-1.9,1.7-3.3,3.6-4.3,5.7c-1,2.1-1.5,4.3-1.5,6.6c0,2.1,0.4,4.1,1.3,6.1c0.8,1.9,3.5,4.9,7.9,9
				c7.4,4.7,14,8.6,19.8,11.6c5.4,3,12.8,7.5,22.1,13.5c4,3.1,7.1,6.7,9.2,10.9c2.1,4.2,3.2,8.6,3.2,13.2c0,4.3-0.9,8.5-2.7,12.4
				c-1.8,3.9-4.3,7.3-7.5,10.3s-7,5.3-11.6,7c-4.5,1.7-9.4,2.6-14.8,2.6c-3.4,0-6.6-0.3-9.4-0.8c-0.5-0.1-1.9-0.4-4-1.1
				c-2.2-0.6-4.5-1.3-7-2c-2.5-0.7-4.8-1.3-6.9-1.9c-2.1-0.6-3.4-0.9-3.7-0.9c-1.4,0-2.6,0.4-3.4,1.3c-0.8,0.9-1.4,2.6-1.9,5.4h-3.2
				v-39.8h3.2c1.5,8.2,3.5,14.4,6,18.8c1.2,2,2.8,3.9,4.8,5.7c2,1.7,4.3,3.3,6.8,4.6c2.5,1.3,5.2,2.3,8.1,3.1
				c2.9,0.7,5.8,1.1,8.8,1.1c3.6,0,6.8-0.5,9.6-1.5c2.9-1,5.3-2.4,7.3-4.1c2-1.7,3.5-3.8,4.6-6.1c1.1-2.3,1.6-4.7,1.6-7.3
				c0-2.9-0.8-5.8-2.4-8.7c-1.6-2.9-4.2-5.7-8-8.6c-3.7-2.2-8-4.8-13-7.8c-9.6-5.5-18.2-10.8-25.7-16c-4.2-3.3-7.3-7-9.5-10.9
				s-3.3-8.4-3.3-13.2c0-4.1,0.8-8,2.6-11.7c1.7-3.7,4.1-7,7.1-9.8c3-2.8,6.6-5,10.8-6.6c4.2-1.6,8.7-2.4,13.5-2.4
				c6.1,0,12.6,1.5,19.5,4.5c1.6,0.7,3,1.2,4.1,1.7c1.1,0.4,2,0.6,2.7,0.5c1.5,0,2.8-0.4,3.7-1.3c0.9-0.8,1.7-2.6,2.2-5.4H1620.4z"
				/>
			<path d="M1717.6,2163.7h-44.9l-7.9,18.3c-1.9,4.5-2.8,7.9-2.8,10.1c0,0.9,0.1,1.8,0.4,2.6c0.3,0.8,0.9,1.5,1.9,2.1
				c1,0.6,2.3,1.2,4.1,1.7c1.7,0.5,4.1,0.8,7,1v3.2h-36.5v-3.2c2.9-0.4,5.2-1.1,7-1.9c1.8-0.8,3.3-2,4.6-3.5
				c1.3-1.5,2.4-3.4,3.5-5.8c1.1-2.4,2.4-5.3,3.9-8.8l40.8-95.3h2.9l40.3,96.4c1.6,4,3.1,7.2,4.5,9.6c1.4,2.4,2.9,4.3,4.3,5.7
				c1.5,1.4,3.1,2.3,4.9,2.8c1.7,0.5,3.8,0.8,6.3,0.9v3.2h-45.8v-3.2c4.6-0.2,7.7-0.9,9.4-2.2c1.7-1.3,2.5-2.9,2.5-4.8
				c-0.1-2.5-1.2-6.5-3.4-12L1717.6,2163.7z M1715.2,2157.3l-19.7-46.8l-20.2,46.8H1715.2z"/>
			<path d="M1882.3,2202.5h-30.9l-39.3-54.2c-1.4,0.1-2.7,0.1-3.9,0.2c-1.1,0-2.2,0.1-3.1,0.1c-0.8,0-1.6,0-2.4-0.1
				c-0.9,0-1.7-0.1-2.7-0.2v33.7c0,4.1,0.3,7.3,0.8,9.6c0.6,2.3,1.4,4.1,2.4,5.2c1.1,1.1,2.3,1.9,3.8,2.1c1.5,0.3,3.2,0.4,5,0.4h4.6
				v3.2h-49.8v-3.2h4.5c4.8,0,8.3-1.6,10.5-4.7c1.2-1.9,1.8-6.1,1.8-12.6v-74.9c0-7.1-0.8-11.7-2.4-13.5c-2.2-2.6-5.5-3.8-9.8-3.8
				h-4.5v-3.2h42.2c6.2,0,11.6,0.2,16.1,0.7c4.5,0.5,8.2,1.2,11.1,2.1c2.9,0.9,5.6,2.2,8.2,3.9s4.8,3.7,6.7,6c1.9,2.3,3.4,5,4.5,7.8
				c1.1,2.9,1.7,6,1.7,9.3c0,7.2-2.3,13.4-6.9,18.6c-4.6,5.2-11.8,8.9-21.6,11.1l23.9,33.2c2.8,3.8,5.3,7,7.5,9.4
				c2.2,2.5,4.3,4.4,6.5,5.9c2.2,1.4,4.5,2.5,6.9,3.2c2.4,0.7,5.3,1.2,8.6,1.5V2202.5z M1800,2142.9c1.1,0,2.1,0,2.9,0.1
				c0.8,0,1.5,0.1,2,0.1c5.5,0,10.4-0.6,14.6-1.9c4.2-1.3,7.7-3.1,10.5-5.4c2.8-2.3,4.9-5,6.3-8.1c1.4-3.1,2.1-6.5,2.1-10.1
				c0-3.6-0.6-6.9-1.8-9.9c-1.2-3-2.9-5.6-5.1-7.8c-2.2-2.2-4.9-3.8-7.9-5c-3.1-1.2-6.4-1.8-10.1-1.8c-3.5,0-8,0.6-13.4,1.7V2142.9z
				"/>
			<path d="M1954.5,2086.5h40.5v3.2h-2.3c-3.2,0-6.7,1.5-10.5,4.4c-3.7,2.9-7.9,8-12.4,15.3l-28,44v29.1c0,3.9,0.3,7,0.8,9.3
				c0.6,2.3,1.4,3.9,2.4,5c1.1,1.1,2.4,1.8,4,2.1c1.6,0.3,3.4,0.4,5.4,0.4h3.7v3.2H1909v-3.2h4.2c2,0,3.8-0.2,5.4-0.5
				c1.5-0.3,2.8-1.1,3.8-2.2c1-1.1,1.8-2.8,2.3-5c0.5-2.2,0.8-5.2,0.8-9.1v-27.6l-31.8-48.5c-2-2.9-3.6-5.2-4.8-7
				c-1.2-1.7-2.2-3-2.9-3.8c-0.3-0.3-0.9-0.8-1.7-1.5c-0.8-0.7-1.8-1.3-3-2c-1.2-0.6-2.5-1.2-4-1.7c-1.4-0.5-3-0.8-4.6-0.8v-3.2
				h49.5v3.2h-2.6c-1.3,0-2.6,0.1-3.8,0.4c-1.3,0.3-2.4,0.7-3.4,1.3c-1,0.6-1.9,1.4-2.5,2.4c-0.6,1-1,2.1-1,3.4
				c-0.1,1,0.3,2.4,1.3,4.3c0.9,1.8,2.3,4.1,4,6.8l24.1,37.4l22.8-35.7c3.2-5.2,4.9-9.2,5.1-12c-0.2-1.2-0.4-2.3-0.8-3.3
				c-0.4-1-1-1.9-1.9-2.6c-0.9-0.7-2.1-1.3-3.5-1.7c-1.4-0.4-3.3-0.6-5.5-0.6V2086.5z"/>
			<path d="M2133,2086.5v27.3h-1.9c-0.9-7.3-3.1-12.5-6.4-15.5c-3.4-3-8.3-4.5-14.9-4.5h-16.3v88.7c0,3.9,0.3,7,0.8,9.3
				c0.6,2.3,1.3,3.9,2.4,5c1,1.1,2.3,1.8,3.8,2.1c1.5,0.3,3.3,0.4,5.4,0.4h4v3.2h-49.1v-3.2h4.1c2,0,3.8-0.2,5.4-0.5
				c1.5-0.3,2.8-1.1,3.8-2.2c1-1.1,1.8-2.8,2.4-5c0.6-2.2,0.8-5.2,0.8-9.1v-88.7h-13.9c-3.5,0-6.6,0.3-9.3,0.8c-2.7,0.6-5,1.6-7,3.1
				c-2,1.5-3.5,3.5-4.7,6.1c-1.1,2.6-1.9,5.9-2.1,10h-3.2v-27.3H2133z"/>
			<path d="M2199.5,2084c7.4,0,14.5,1.5,21.2,4.6c6.7,3.1,12.6,7.3,17.7,12.6c5.1,5.4,9.2,11.7,12.2,19c3,7.3,4.5,15.2,4.5,23.7
				c0,8.8-1.5,16.9-4.5,24.4c-3,7.5-7.1,14-12.3,19.5c-5.1,5.5-11.2,9.8-18.1,12.9c-6.9,3.1-14.3,4.7-22.1,4.7
				c-7.9,0-15.3-1.5-22.2-4.5s-12.9-7.2-17.9-12.6c-5.1-5.4-9.1-11.8-12-19.3c-2.9-7.5-4.4-15.7-4.4-24.8c0-8.3,1.5-16.2,4.4-23.5
				c2.9-7.3,7-13.7,12.1-19.1c5.1-5.4,11.3-9.7,18.3-12.8C2183.4,2085.5,2191.1,2084,2199.5,2084z M2197.8,2090.2
				c-5.9,0-11.1,1.3-15.6,3.8c-4.6,2.5-8.4,6.1-11.5,10.7c-3.1,4.6-5.5,10.3-7.1,16.8c-1.6,6.6-2.4,14-2.4,22.3
				c0,8.2,0.8,15.6,2.4,22.4c1.6,6.8,3.9,12.6,7,17.5c3.1,4.9,7,8.7,11.6,11.4c4.6,2.7,9.9,4,15.8,4c5.4,0,10.3-1,14.9-3.1
				c4.6-2,8.5-5.2,11.9-9.5c3.4-4.3,6.1-9.8,8-16.5c1.9-6.7,2.9-14.7,2.9-23.9c0-8.8-0.8-16.6-2.4-23.5c-1.6-6.9-4-12.8-7.1-17.6
				c-3.2-4.8-7.1-8.5-11.9-11C2209.5,2091.5,2204,2090.2,2197.8,2090.2z"/>
			<path d="M2411.1,2084l2.7,39.4h-2.7c-3.6-11.8-8.6-20.3-15.1-25.5c-6.5-5.2-14.4-7.8-23.5-7.8c-6,0-11.4,1.1-16.5,3.4
				c-5,2.3-9.3,5.7-13,10.4c-3.6,4.7-6.4,10.6-8.5,17.6c-2,7.1-3.1,15.4-3.1,25c0,7.7,1,14.8,2.9,21.1c1.9,6.3,4.7,11.7,8.4,16.1
				c3.7,4.5,8.2,7.9,13.6,10.3c5.4,2.4,11.5,3.6,18.5,3.6c7.3,0,14-1.6,19.9-4.8c5.7-3,12-9.4,19-19.1l2.7,1.7
				c-5.9,10.3-12.7,17.8-20.4,22.7c-7.7,4.8-16.9,7.2-27.6,7.2c-8.3,0-15.8-1.4-22.7-4.3s-12.8-7-17.8-12.2
				c-5-5.2-8.9-11.4-11.7-18.6c-2.8-7.2-4.2-15.1-4.2-23.7c0-11.7,2.6-22.3,7.8-31.9c5.1-9.7,12.2-17.2,21.3-22.5
				c9.2-5.4,19.1-8,29.9-8c8.4,0,16.7,2,24.8,6.1c2.4,1.3,4.1,1.9,5.1,1.9c1.9,0,3.4-0.8,4.7-2.3c1.2-1.5,2.1-3.4,2.6-5.7H2411.1z"
				/>
			<path d="M2486.5,2084c7.4,0,14.5,1.5,21.2,4.6c6.7,3.1,12.6,7.3,17.7,12.6c5.1,5.4,9.2,11.7,12.2,19c3,7.3,4.5,15.2,4.5,23.7
				c0,8.8-1.5,16.9-4.5,24.4c-3,7.5-7.1,14-12.3,19.5c-5.1,5.5-11.2,9.8-18.1,12.9c-6.9,3.1-14.3,4.7-22.1,4.7
				c-7.9,0-15.3-1.5-22.2-4.5s-12.9-7.2-17.9-12.6c-5.1-5.4-9.1-11.8-12-19.3c-2.9-7.5-4.4-15.7-4.4-24.8c0-8.3,1.5-16.2,4.4-23.5
				c2.9-7.3,7-13.7,12.1-19.1c5.1-5.4,11.3-9.7,18.3-12.8C2470.5,2085.5,2478.2,2084,2486.5,2084z M2484.9,2090.2
				c-5.9,0-11.1,1.3-15.6,3.8c-4.6,2.5-8.4,6.1-11.5,10.7c-3.1,4.6-5.5,10.3-7.1,16.8c-1.6,6.6-2.4,14-2.4,22.3
				c0,8.2,0.8,15.6,2.4,22.4c1.6,6.8,3.9,12.6,7,17.5c3.1,4.9,7,8.7,11.6,11.4c4.6,2.7,9.9,4,15.8,4c5.4,0,10.3-1,14.9-3.1
				c4.6-2,8.5-5.2,11.9-9.5c3.4-4.3,6.1-9.8,8-16.5c1.9-6.7,2.9-14.7,2.9-23.9c0-8.8-0.8-16.6-2.4-23.5c-1.6-6.9-4-12.8-7.1-17.6
				c-3.2-4.8-7.1-8.5-11.9-11C2496.6,2091.5,2491.1,2090.2,2484.9,2090.2z"/>
			<path d="M2632.6,2089.7v-3.2h41v3.2h-4.3c-4.4,0-7.9,1.9-10.5,5.7c-1.2,1.7-1.8,5.8-1.8,12.4v47c0,11.4-1.2,20.5-3.6,27.2
				c-1.2,3.2-2.9,6.3-5.1,9.1c-2.2,2.8-5,5.3-8.4,7.3c-3.4,2.1-7.4,3.7-11.9,5c-4.6,1.2-9.8,1.9-15.6,1.9c-6.4,0-12-0.6-16.7-1.7
				c-4.8-1.1-8.9-2.7-12.3-4.9c-3.4-2.1-6.2-4.7-8.4-7.7c-2.2-3-4-6.3-5.4-10.1c-1.9-5.2-2.8-14.7-2.8-28.6v-45.3
				c0-3.6-0.2-6.5-0.7-8.7c-0.5-2.3-1.2-4-2.2-5.3c-1-1.3-2.3-2.1-3.9-2.6c-1.6-0.5-3.4-0.7-5.6-0.7h-4.5v-3.2h50.2v3.2h-4.5
				c-2,0-3.8,0.2-5.4,0.6c-1.5,0.4-2.8,1.3-3.8,2.5c-1,1.2-1.8,3-2.4,5.2c-0.6,2.3-0.8,5.3-0.8,9v50.5c0,5.1,0.3,10.1,1,14.9
				c0.7,4.9,2.1,9.2,4.2,13c2.1,3.8,5.2,6.8,9.1,9.1c4,2.3,9.2,3.4,15.8,3.4c3.7,0,7.4-0.4,10.8-1.3c3.5-0.9,6.7-2.1,9.5-3.6
				c2.9-1.5,5.3-3.4,7.5-5.6c2.1-2.2,3.7-4.5,4.7-7.1c2.2-5,3.3-13.8,3.3-26.3v-47c0-7.1-0.8-11.7-2.4-13.5
				c-2.2-2.6-5.5-3.8-9.8-3.8H2632.6z"/>
			<path d="M2673.1,2086.5h31.4l71,87v-66.9c0-3.9-0.3-7-0.8-9.3c-0.6-2.3-1.4-4-2.4-5.1c-1.1-1.1-2.4-1.8-3.9-2.1
				c-1.5-0.3-3.3-0.4-5.2-0.4h-4.1v-3.2h40.5v3.2h-4.2c-2,0-3.8,0.2-5.4,0.5c-1.5,0.3-2.8,1.1-3.8,2.3c-1,1.2-1.8,2.9-2.3,5.1
				c-0.5,2.2-0.8,5.2-0.8,9.1v97.8h-3.1l-76.5-93.4v71.5c0,4,0.3,7.1,0.8,9.4c0.6,2.3,1.3,3.9,2.4,5c1,1.1,2.3,1.8,3.8,2
				c1.5,0.3,3.3,0.4,5.2,0.4h4.1v3.2h-40.3v-3.2h4.1c2,0,3.8-0.2,5.4-0.5c1.5-0.3,2.8-1.1,3.9-2.2c1.1-1.1,1.9-2.8,2.4-5
				c0.5-2.2,0.8-5.2,0.8-9.1v-80.7c-1.7-2-3.1-3.7-4.3-4.8c-1.1-1.2-2.2-2.2-3.3-2.9c-1-0.8-2.1-1.4-3.3-1.9
				c-1.2-0.5-2.7-1.1-4.5-1.7c-1.7-0.5-4.2-0.8-7.5-0.8V2086.5z"/>
			<path d="M2903.3,2086.5v27.3h-1.9c-0.9-7.3-3.1-12.5-6.4-15.5c-3.4-3-8.3-4.5-14.9-4.5h-16.3v88.7c0,3.9,0.3,7,0.8,9.3
				c0.6,2.3,1.3,3.9,2.4,5c1,1.1,2.3,1.8,3.8,2.1c1.5,0.3,3.3,0.4,5.4,0.4h4v3.2h-49.1v-3.2h4.1c2,0,3.8-0.2,5.4-0.5
				c1.5-0.3,2.8-1.1,3.8-2.2c1-1.1,1.8-2.8,2.4-5c0.6-2.2,0.8-5.2,0.8-9.1v-88.7h-13.9c-3.5,0-6.6,0.3-9.3,0.8c-2.7,0.6-5,1.6-7,3.1
				c-2,1.5-3.5,3.5-4.7,6.1c-1.1,2.6-1.9,5.9-2.1,10h-3.2v-27.3H2903.3z"/>
		</g>
	</g>
	<g>
		<g>
			<path d="M958.7,2271.8v3.2c-2.3,0-4.2,0.2-5.7,0.6c-1.5,0.4-2.9,1.4-4.1,2.9c-1.3,1.5-2.6,3.7-3.8,6.6c-1.3,2.9-2.8,6.9-4.5,11.8
				l-32.3,93.6h-3.4l-26.4-74.2l-26.2,74.2h-3.2l-34.5-96.4c-1.3-3.6-2.3-6.4-3.1-8.5c-0.8-2.1-1.4-3.5-1.8-4.1
				c-1.2-2.2-2.7-3.8-4.7-4.9c-1.9-1.1-4.6-1.6-8-1.6v-3.2H840v3.2h-2c-3,0-5.3,0.7-6.9,2c-1.6,1.4-2.4,3-2.4,5
				c0,2,1.3,6.6,3.8,13.8l22.8,65.1l19.1-55.4l-6.1-17.5c-0.9-2.1-1.9-4-2.8-5.6c-0.9-1.6-2-3-3.2-4.1c-1.2-1.1-2.6-1.9-4.2-2.5
				c-1.6-0.6-3.6-0.8-5.9-0.8v-3.2h45.1v3.2h-3.1c-3.2,0-5.6,0.7-7,2c-1.4,1.4-2.2,3.2-2.2,5.6c0,2.9,1.3,8,3.8,15.2l22.2,63.1
				l22.1-63.9c1.2-3.6,2.1-6.6,2.8-8.9c0.7-2.4,1-4.3,1-5.7c0-2.7-1.2-4.6-3.6-5.7c-2.4-1.1-5.5-1.6-9.3-1.6v-3.2H958.7z"/>
			<path d="M1014.1,2384.7v3.2h-49.7v-3.2h4.1c2,0,3.8-0.1,5.4-0.4c1.6-0.3,2.9-1,3.9-2.2c1-1.1,1.8-2.9,2.4-5.2
				c0.6-2.3,0.8-5.5,0.8-9.5v-74.9c0-2.6-0.1-4.8-0.2-6.6c-0.1-1.7-0.3-3.2-0.6-4.3c-0.3-1.1-0.7-2-1.3-2.6
				c-0.6-0.6-1.4-1.3-2.4-1.9c-2.6-1.4-5.2-2-7.9-2h-4.1v-3.2h49.7v3.2h-4.1c-2,0-3.9,0.2-5.4,0.5c-1.6,0.3-2.9,1.1-3.9,2.2
				c-1,1.1-1.8,2.9-2.4,5.2c-0.6,2.3-0.8,5.5-0.8,9.4v74.9c0,2.7,0,4.9,0.1,6.6c0.1,1.7,0.3,3.1,0.6,4.2c0.3,1.1,0.8,2,1.5,2.6
				c0.6,0.6,1.5,1.3,2.5,1.9c2.4,1.4,5,2,7.8,2H1014.1z"/>
			<path d="M1119.8,2271.8v27.3h-1.9c-0.9-7.3-3.1-12.5-6.4-15.5c-3.4-3-8.3-4.5-14.9-4.5h-16.3v88.7c0,3.9,0.3,7,0.8,9.3
				c0.6,2.3,1.3,3.9,2.4,5c1,1.1,2.3,1.8,3.8,2.1c1.5,0.3,3.3,0.4,5.4,0.4h4v3.2h-49.1v-3.2h4.1c2,0,3.8-0.2,5.4-0.5
				c1.5-0.3,2.8-1.1,3.8-2.2c1-1.1,1.8-2.8,2.4-5c0.6-2.2,0.8-5.2,0.8-9.1v-88.7H1050c-3.5,0-6.6,0.3-9.3,0.8c-2.7,0.6-5,1.6-7,3.1
				c-2,1.5-3.5,3.5-4.7,6.1c-1.1,2.6-1.9,5.9-2.1,10h-3.2v-27.3H1119.8z"/>
			<path d="M1161.4,2325.7h53.9v-33.2c0-2.7,0-5-0.1-6.7c-0.1-1.7-0.3-3.2-0.6-4.3c-0.3-1.1-0.8-2-1.5-2.6c-0.6-0.6-1.5-1.3-2.5-1.9
				c-2.4-1.4-5-2-7.8-2h-4.1v-3.2h49.7v3.2h-4.1c-1.1,0-2.3,0.1-3.5,0.4c-1.2,0.3-2.4,0.6-3.4,1.1c-1.1,0.5-2,1.1-2.9,1.9
				c-0.9,0.8-1.4,1.7-1.8,2.7c-0.6,1.8-0.9,5.6-0.9,11.4v74.8c0,2.7,0.1,4.9,0.2,6.6c0.1,1.7,0.3,3.1,0.6,4.2c0.3,1.1,0.7,2,1.3,2.6
				c0.6,0.6,1.4,1.3,2.4,1.9c2.4,1.4,5,2,7.9,2h4.1v3.2h-49.7v-3.2h4.1c2,0,3.7-0.1,5.2-0.4c1.5-0.3,2.8-1,4-2.2
				c1.1-1.1,1.9-2.9,2.5-5.2c0.6-2.3,0.8-5.5,0.8-9.5v-35.4h-53.9v35.4c0,2.7,0,4.9,0.1,6.6c0.1,1.7,0.3,3.1,0.6,4.2
				c0.3,1.1,0.8,2,1.5,2.6s1.5,1.3,2.5,1.9c2.4,1.4,5,2,7.8,2h4.2v3.2h-49.8v-3.2h4.2c4.7,0,8.1-1.4,10.3-4.2c1.4-1.7,2-6.1,2-13.1
				v-74.8c0-2.8,0-5.1-0.1-6.8c-0.1-1.7-0.3-3.1-0.6-4.2c-0.3-1.1-0.8-1.9-1.4-2.6c-0.6-0.6-1.4-1.3-2.4-1.9c-2.4-1.4-5-2-7.8-2
				h-4.2v-3.2h49.8v3.2h-4.2c-1,0-2.1,0.1-3.4,0.4c-1.2,0.3-2.4,0.6-3.4,1.1c-1.1,0.5-2,1.1-2.9,1.9c-0.9,0.8-1.4,1.7-1.8,2.7
				c-0.7,2-1,5.8-1,11.4V2325.7z"/>
			<path d="M1393.8,2271.8v27.3h-1.9c-0.9-7.3-3.1-12.5-6.4-15.5c-3.4-3-8.3-4.5-14.9-4.5h-16.3v88.7c0,3.9,0.3,7,0.8,9.3
				c0.6,2.3,1.3,3.9,2.4,5c1,1.1,2.3,1.8,3.8,2.1c1.5,0.3,3.3,0.4,5.4,0.4h4v3.2h-49.1v-3.2h4.1c2,0,3.8-0.2,5.4-0.5
				c1.5-0.3,2.8-1.1,3.8-2.2c1-1.1,1.8-2.8,2.4-5c0.6-2.2,0.8-5.2,0.8-9.1v-88.7H1324c-3.5,0-6.6,0.3-9.3,0.8c-2.7,0.6-5,1.6-7,3.1
				c-2,1.5-3.5,3.5-4.7,6.1c-1.1,2.6-1.9,5.9-2.1,10h-3.2v-27.3H1393.8z"/>
			<path d="M1563.3,2271.8v3.2c-2.3,0-4.2,0.2-5.7,0.6c-1.5,0.4-2.9,1.4-4.1,2.9c-1.3,1.5-2.6,3.7-3.8,6.6
				c-1.3,2.9-2.8,6.9-4.5,11.8l-32.3,93.6h-3.4l-26.4-74.2l-26.2,74.2h-3.2l-34.5-96.4c-1.3-3.6-2.3-6.4-3.1-8.5
				c-0.8-2.1-1.4-3.5-1.8-4.1c-1.2-2.2-2.7-3.8-4.7-4.9c-1.9-1.1-4.6-1.6-8-1.6v-3.2h42.9v3.2h-2c-3,0-5.3,0.7-6.9,2
				c-1.6,1.4-2.4,3-2.4,5c0,2,1.3,6.6,3.8,13.8l22.8,65.1l19.1-55.4l-6.1-17.5c-0.9-2.1-1.9-4-2.8-5.6c-0.9-1.6-2-3-3.2-4.1
				c-1.2-1.1-2.6-1.9-4.2-2.5c-1.6-0.6-3.6-0.8-5.9-0.8v-3.2h45.1v3.2h-3.1c-3.2,0-5.6,0.7-7,2c-1.4,1.4-2.2,3.2-2.2,5.6
				c0,2.9,1.3,8,3.8,15.2l22.2,63.1l22.1-63.9c1.2-3.6,2.1-6.6,2.8-8.9c0.7-2.4,1-4.3,1-5.7c0-2.7-1.2-4.6-3.6-5.7
				c-2.4-1.1-5.5-1.6-9.3-1.6v-3.2H1563.3z"/>
			<path d="M1628.8,2269.3c7.4,0,14.5,1.5,21.2,4.6c6.7,3.1,12.6,7.3,17.7,12.6c5.1,5.4,9.2,11.7,12.2,19c3,7.3,4.5,15.2,4.5,23.7
				c0,8.8-1.5,16.9-4.5,24.4c-3,7.5-7.1,14-12.3,19.5c-5.1,5.5-11.2,9.8-18.1,12.9c-6.9,3.1-14.3,4.7-22.1,4.7
				c-7.9,0-15.3-1.5-22.2-4.5s-12.9-7.2-17.9-12.6c-5.1-5.4-9.1-11.8-12-19.3c-2.9-7.5-4.4-15.7-4.4-24.8c0-8.3,1.5-16.2,4.4-23.5
				c2.9-7.3,7-13.7,12.1-19.1c5.1-5.4,11.3-9.7,18.3-12.8C1612.8,2270.9,1620.5,2269.3,1628.8,2269.3z M1627.1,2275.5
				c-5.9,0-11.1,1.3-15.6,3.8c-4.6,2.5-8.4,6.1-11.5,10.7c-3.1,4.6-5.5,10.3-7.1,16.8c-1.6,6.6-2.4,14-2.4,22.3
				c0,8.2,0.8,15.6,2.4,22.4c1.6,6.8,3.9,12.6,7,17.5c3.1,4.9,7,8.7,11.6,11.4c4.6,2.7,9.9,4,15.8,4c5.4,0,10.3-1,14.9-3.1
				c4.6-2,8.5-5.2,11.9-9.5c3.4-4.3,6.1-9.8,8-16.5c1.9-6.7,2.9-14.7,2.9-23.9c0-8.8-0.8-16.6-2.4-23.5c-1.6-6.9-4-12.8-7.1-17.6
				c-3.2-4.8-7.1-8.5-11.9-11C1638.8,2276.8,1633.4,2275.5,1627.1,2275.5z"/>
			<path d="M1771,2325.7h53.9v-33.2c0-2.7,0-5-0.1-6.7c-0.1-1.7-0.3-3.2-0.6-4.3c-0.3-1.1-0.8-2-1.5-2.6c-0.6-0.6-1.5-1.3-2.5-1.9
				c-2.4-1.4-5-2-7.8-2h-4.1v-3.2h49.7v3.2h-4.1c-1.1,0-2.3,0.1-3.5,0.4c-1.2,0.3-2.4,0.6-3.4,1.1c-1.1,0.5-2,1.1-2.9,1.9
				c-0.9,0.8-1.4,1.7-1.8,2.7c-0.6,1.8-0.9,5.6-0.9,11.4v74.8c0,2.7,0.1,4.9,0.2,6.6c0.1,1.7,0.3,3.1,0.6,4.2c0.3,1.1,0.7,2,1.3,2.6
				c0.6,0.6,1.4,1.3,2.4,1.9c2.4,1.4,5,2,7.9,2h4.1v3.2h-49.7v-3.2h4.1c2,0,3.7-0.1,5.2-0.4c1.5-0.3,2.8-1,4-2.2
				c1.1-1.1,1.9-2.9,2.5-5.2c0.6-2.3,0.8-5.5,0.8-9.5v-35.4H1771v35.4c0,2.7,0,4.9,0.1,6.6c0.1,1.7,0.3,3.1,0.6,4.2
				c0.3,1.1,0.8,2,1.5,2.6s1.5,1.3,2.5,1.9c2.4,1.4,5,2,7.8,2h4.2v3.2h-49.8v-3.2h4.2c4.7,0,8.1-1.4,10.3-4.2c1.4-1.7,2-6.1,2-13.1
				v-74.8c0-2.8,0-5.1-0.1-6.8c-0.1-1.7-0.3-3.1-0.6-4.2c-0.3-1.1-0.8-1.9-1.4-2.6c-0.6-0.6-1.4-1.3-2.4-1.9c-2.4-1.4-5-2-7.8-2
				h-4.2v-3.2h49.8v3.2h-4.2c-1,0-2.1,0.1-3.4,0.4c-1.2,0.3-2.4,0.6-3.4,1.1c-1.1,0.5-2,1.1-2.9,1.9c-0.9,0.8-1.4,1.7-1.8,2.7
				c-0.7,2-1,5.8-1,11.4V2325.7z"/>
			<path d="M1915.5,2384.7v3.2h-49.7v-3.2h4.1c2,0,3.8-0.1,5.4-0.4c1.6-0.3,2.9-1,3.9-2.2c1-1.1,1.8-2.9,2.4-5.2
				c0.6-2.3,0.8-5.5,0.8-9.5v-74.9c0-2.6-0.1-4.8-0.2-6.6c-0.1-1.7-0.3-3.2-0.6-4.3c-0.3-1.1-0.7-2-1.3-2.6
				c-0.6-0.6-1.4-1.3-2.4-1.9c-2.6-1.4-5.2-2-7.9-2h-4.1v-3.2h49.7v3.2h-4.1c-2,0-3.9,0.2-5.4,0.5c-1.6,0.3-2.9,1.1-3.9,2.2
				c-1,1.1-1.8,2.9-2.4,5.2c-0.6,2.3-0.8,5.5-0.8,9.4v74.9c0,2.7,0,4.9,0.1,6.6c0.1,1.7,0.3,3.1,0.6,4.2c0.3,1.1,0.8,2,1.5,2.6
				c0.6,0.6,1.5,1.3,2.5,1.9c2.4,1.4,5,2,7.8,2H1915.5z"/>
			<path d="M1917.5,2271.8h31.4l71,87V2292c0-3.9-0.3-7-0.8-9.3c-0.6-2.3-1.4-4-2.4-5.1c-1.1-1.1-2.4-1.8-3.9-2.1
				c-1.5-0.3-3.3-0.4-5.2-0.4h-4.1v-3.2h40.5v3.2h-4.2c-2,0-3.8,0.2-5.4,0.5c-1.5,0.3-2.8,1.1-3.8,2.3c-1,1.2-1.8,2.9-2.3,5.1
				c-0.5,2.2-0.8,5.2-0.8,9.1v97.8h-3.1l-76.5-93.4v71.5c0,4,0.3,7.1,0.8,9.4c0.6,2.3,1.3,3.9,2.4,5c1,1.1,2.3,1.8,3.8,2
				c1.5,0.3,3.3,0.4,5.2,0.4h4.1v3.2h-40.3v-3.2h4.1c2,0,3.8-0.2,5.4-0.5c1.5-0.3,2.8-1.1,3.9-2.2c1.1-1.1,1.9-2.8,2.4-5
				c0.5-2.2,0.8-5.2,0.8-9.1v-80.7c-1.7-2-3.1-3.7-4.3-4.8c-1.1-1.2-2.2-2.2-3.3-2.9c-1-0.8-2.1-1.4-3.3-1.9
				c-1.2-0.5-2.7-1.1-4.5-1.7c-1.7-0.5-4.2-0.8-7.5-0.8V2271.8z"/>
			<path d="M2153.8,2269.3l3.1,36.5h-3.1c-3.5-10.7-8.4-18.5-14.9-23.3c-6.4-4.8-14.2-7.2-23.4-7.2c-6.8,0-12.9,1.3-18.3,4
				c-5.4,2.7-9.9,6.4-13.7,11.1c-3.7,4.7-6.6,10.3-8.6,16.7c-2,6.4-2.9,13.4-2.9,20.9c0,11,2.2,21.1,6.5,30.3
				c2.1,4.6,4.6,8.6,7.5,11.9c2.8,3.3,5.9,6.1,9.3,8.2s6.8,3.8,10.4,4.8c3.6,1,7.3,1.5,10.9,1.5c8.5,0,16.5-2.1,24-6.4v-33.6
				c0-2.9-0.1-5.3-0.3-7.1c-0.2-1.8-0.6-3.3-1-4.3c-0.5-1.1-1-1.9-1.7-2.4c-0.7-0.6-1.5-1.1-2.4-1.6c-1.9-0.9-5.1-1.4-9.7-1.4v-3.3
				h44.9v3.3h-2.2c-2,0-3.6,0.2-5,0.6c-1.4,0.4-2.5,1.2-3.4,2.4c-0.9,1.2-1.5,2.9-1.9,5.1c-0.4,2.2-0.6,5.1-0.6,8.7v35.5
				c-3.3,1.8-6.6,3.3-9.8,4.7c-3.2,1.3-6.4,2.4-9.6,3.1c-6.6,1.7-13.7,2.6-21.3,2.6c-9.7,0-18.5-1.5-26.4-4.5
				c-7.9-3-14.6-7.1-20.2-12.4c-5.6-5.3-10-11.5-13-18.6c-3.1-7.1-4.6-14.9-4.6-23.4c0-10.1,2.5-19.9,7.4-29.4
				c5.7-11.1,13.7-19.6,23.9-25.7c8.5-4.9,18.5-7.4,30.1-7.4c2.3,0,4.3,0.1,6.1,0.2c1.8,0.1,3.6,0.4,5.6,0.8c1.9,0.4,4,0.9,6.3,1.7
				c2.3,0.7,5,1.7,8.2,2.9c3.2,1.3,5.4,1.9,6.5,1.8c1,0,1.9-0.5,2.7-1.5c0.8-1,1.2-2.9,1.4-5.8H2153.8z"/>
			<path d="M2209.4,2278.2v45.8h25.4c3.7,0,6.8-0.3,9.1-1c2.3-0.7,4.1-1.7,5.4-3.1c1.3-1.4,2.2-3.1,2.7-5.2c0.5-2.1,0.8-4.6,1-7.5
				h3.2v40.3h-3.2c-0.4-3.3-0.9-6.1-1.5-8.3c-0.6-2.2-1.4-4-2.7-5.3c-1.2-1.3-3-2.3-5.2-2.8c-2.2-0.6-5.2-0.8-8.9-0.8h-25.4v38.3
				c0,2.9,0,5.2,0.1,6.9c0.1,1.7,0.4,3,1,3.9c0.6,0.9,1.5,1.5,2.8,1.7c1.3,0.3,3.1,0.4,5.6,0.4h19.7c3.3,0,6.1-0.1,8.4-0.3
				c2.3-0.2,4.3-0.5,5.9-1s3.1-1.2,4.4-2.1s2.6-2,4.1-3.4c3.4-3.3,7-8.6,10.8-16h3.4l-10.1,29.1h-89.3v-3.2h4.1
				c1.1,0,2.3-0.1,3.4-0.4c1.2-0.3,2.3-0.6,3.4-1.1c1.1-0.5,2-1.1,2.9-1.9c0.8-0.8,1.4-1.7,1.8-2.7c0.7-1.9,1-5.6,1-11.2v-75.3
				c0-7.4-0.7-12-2.2-13.7c-2-2.3-5.5-3.4-10.3-3.4h-4.1v-3.2h89.3v25.4h-2c-0.9-4.2-1.8-7.5-2.7-10c-1-2.5-2.3-4.4-3.9-5.8
				c-1.6-1.4-3.7-2.2-6.2-2.6c-2.5-0.4-5.7-0.6-9.6-0.6H2209.4z"/>
			<path d="M2359.4,2333.6v33.7c0,7.4,0.8,12,2.4,13.7c2.2,2.5,5.5,3.7,9.8,3.7h4.5v3.2h-49.7v-3.2h4.3c4.9,0,8.3-1.6,10.5-4.7
				c1.2-1.9,1.8-6.1,1.8-12.6v-74.9c0-7.2-0.8-11.7-2.3-13.5c-2.3-2.6-5.6-3.8-10-3.8h-4.3v-3.2h42.5c10.2,0,18.4,1.1,24.5,3.3
				c3,1,5.8,2.4,8.4,4.3c2.6,1.8,4.9,4,6.8,6.5c1.9,2.5,3.4,5.3,4.5,8.3c1.1,3,1.7,6.3,1.7,9.8c0,4.7-0.8,9-2.4,12.9
				c-1.6,3.9-4,7.3-7,10.1c-3.1,2.8-6.8,5-11.2,6.6c-4.4,1.6-9.5,2.4-15.2,2.4C2373.4,2335.9,2366.9,2335.1,2359.4,2333.6z
				 M2359.4,2328.6c3.1,0.6,5.7,1,8,1.3c2.3,0.3,4.3,0.4,6,0.4c3,0,5.8-0.6,8.4-1.9c2.6-1.2,5-2.9,7-5.1c2-2.2,3.6-4.8,4.7-7.8
				c1.1-3.1,1.7-6.4,1.7-10c0-4.3-0.6-8-1.9-11.4c-1.3-3.3-3-6.1-5.2-8.4c-2.2-2.3-4.8-4-7.8-5.2c-3-1.2-6.2-1.8-9.7-1.8
				c-2.9,0-6.6,0.5-11.2,1.5V2328.6z"/>
			<path d="M2485,2349.1h-44.9l-7.9,18.3c-1.9,4.5-2.8,7.9-2.8,10.1c0,0.9,0.1,1.8,0.4,2.6c0.3,0.8,0.9,1.5,1.9,2.1
				c1,0.6,2.3,1.2,4.1,1.7c1.7,0.5,4.1,0.8,7,1v3.2h-36.5v-3.2c2.9-0.4,5.2-1.1,7-1.9c1.8-0.8,3.3-2,4.6-3.5
				c1.3-1.5,2.4-3.4,3.5-5.8c1.1-2.4,2.4-5.3,3.9-8.8l40.8-95.3h2.9l40.3,96.4c1.6,4,3.1,7.2,4.5,9.6c1.4,2.4,2.8,4.3,4.3,5.7
				c1.5,1.4,3.1,2.3,4.9,2.8c1.7,0.5,3.8,0.8,6.3,0.9v3.2h-45.8v-3.2c4.6-0.2,7.7-0.9,9.4-2.2c1.7-1.3,2.5-2.9,2.5-4.8
				c-0.1-2.5-1.2-6.5-3.4-12L2485,2349.1z M2482.6,2342.7l-19.7-46.8l-20.2,46.8H2482.6z"/>
			<path d="M2613.3,2271.8v27.3h-1.9c-0.9-7.3-3.1-12.5-6.4-15.5c-3.4-3-8.3-4.5-14.9-4.5h-16.3v88.7c0,3.9,0.3,7,0.8,9.3
				c0.6,2.3,1.3,3.9,2.4,5c1,1.1,2.3,1.8,3.8,2.1c1.5,0.3,3.3,0.4,5.4,0.4h4v3.2h-49.1v-3.2h4.1c2,0,3.8-0.2,5.4-0.5
				c1.5-0.3,2.8-1.1,3.8-2.2c1-1.1,1.8-2.8,2.4-5c0.6-2.2,0.8-5.2,0.8-9.1v-88.7h-13.9c-3.5,0-6.6,0.3-9.3,0.8c-2.7,0.6-5,1.6-7,3.1
				c-2,1.5-3.5,3.5-4.7,6.1c-1.1,2.6-1.9,5.9-2.1,10h-3.2v-27.3H2613.3z"/>
			<path d="M2724.3,2269.3l2.7,39.4h-2.7c-3.6-11.8-8.6-20.3-15.1-25.5c-6.5-5.2-14.4-7.8-23.5-7.8c-6,0-11.4,1.1-16.5,3.4
				c-5,2.3-9.3,5.7-13,10.4c-3.6,4.7-6.4,10.6-8.5,17.6c-2,7.1-3.1,15.4-3.1,25c0,7.7,1,14.8,2.9,21.1c1.9,6.3,4.7,11.7,8.4,16.1
				c3.7,4.5,8.2,7.9,13.6,10.3c5.4,2.4,11.5,3.6,18.5,3.6c7.3,0,14-1.6,19.9-4.8c5.7-3,12-9.4,19-19.1l2.7,1.7
				c-5.9,10.3-12.7,17.8-20.4,22.7c-7.7,4.8-16.9,7.2-27.6,7.2c-8.3,0-15.8-1.4-22.7-4.3s-12.8-7-17.8-12.2
				c-5-5.2-8.9-11.4-11.7-18.6c-2.8-7.2-4.2-15.1-4.2-23.7c0-11.7,2.6-22.3,7.8-31.9c5.1-9.7,12.2-17.2,21.3-22.5
				c9.2-5.4,19.1-8,29.9-8c8.4,0,16.7,2,24.8,6.1c2.4,1.3,4.1,1.9,5.1,1.9c1.9,0,3.4-0.8,4.7-2.3c1.2-1.5,2.1-3.4,2.6-5.7H2724.3z"
				/>
			<path d="M2771.7,2325.7h53.9v-33.2c0-2.7,0-5-0.1-6.7c-0.1-1.7-0.3-3.2-0.6-4.3c-0.3-1.1-0.8-2-1.5-2.6c-0.6-0.6-1.5-1.3-2.5-1.9
				c-2.4-1.4-5-2-7.8-2h-4.1v-3.2h49.7v3.2h-4.1c-1.1,0-2.3,0.1-3.5,0.4c-1.2,0.3-2.4,0.6-3.4,1.1c-1.1,0.5-2,1.1-2.9,1.9
				c-0.9,0.8-1.4,1.7-1.8,2.7c-0.6,1.8-0.9,5.6-0.9,11.4v74.8c0,2.7,0.1,4.9,0.2,6.6c0.1,1.7,0.3,3.1,0.6,4.2c0.3,1.1,0.7,2,1.3,2.6
				c0.6,0.6,1.4,1.3,2.4,1.9c2.4,1.4,5,2,7.9,2h4.1v3.2H2809v-3.2h4.1c2,0,3.7-0.1,5.2-0.4c1.5-0.3,2.8-1,4-2.2
				c1.1-1.1,1.9-2.9,2.5-5.2c0.6-2.3,0.8-5.5,0.8-9.5v-35.4h-53.9v35.4c0,2.7,0,4.9,0.1,6.6c0.1,1.7,0.3,3.1,0.6,4.2
				c0.3,1.1,0.8,2,1.5,2.6c0.6,0.6,1.5,1.3,2.5,1.9c2.4,1.4,5,2,7.8,2h4.2v3.2h-49.8v-3.2h4.2c4.7,0,8.1-1.4,10.3-4.2
				c1.4-1.7,2-6.1,2-13.1v-74.8c0-2.8,0-5.1-0.1-6.8c-0.1-1.7-0.3-3.1-0.6-4.2c-0.3-1.1-0.8-1.9-1.4-2.6c-0.6-0.6-1.4-1.3-2.4-1.9
				c-2.4-1.4-5-2-7.8-2h-4.2v-3.2h49.8v3.2h-4.2c-1,0-2.1,0.1-3.4,0.4c-1.2,0.3-2.4,0.6-3.4,1.1c-1.1,0.5-2,1.1-2.9,1.9
				c-0.9,0.8-1.4,1.7-1.8,2.7c-0.7,2-1,5.8-1,11.4V2325.7z"/>
		</g>
	</g>
	<g>
		<g>
			<path d="M925,2458.7v45.6H946c2.5,0,4.6-0.2,6.3-0.7c1.7-0.5,3.2-1.3,4.4-2.5c1.2-1.2,2.1-2.8,2.8-4.9c0.7-2,1.2-4.6,1.7-7.8h3.2
				v39.2h-3.2c-0.1-2.9-0.4-5.4-0.9-7.4c-0.5-2-1.3-3.7-2.5-5c-1.1-1.3-2.7-2.3-4.6-2.9c-1.9-0.6-4.3-0.9-7.2-0.9H925v36.4
				c0,2.7,0,4.9,0.1,6.6c0.1,1.7,0.3,3.1,0.6,4.2c0.3,1.1,0.8,2,1.5,2.6s1.5,1.3,2.5,1.9c2.4,1.4,5,2,7.8,2h4.2v3.2h-49.8v-3.2h4.1
				c2,0,3.8-0.1,5.4-0.4c1.6-0.3,2.9-1,3.9-2.2c1-1.1,1.8-2.9,2.4-5.2c0.6-2.3,0.8-5.5,0.8-9.5v-74.9c0-2.6-0.1-4.8-0.2-6.6
				c-0.1-1.7-0.3-3.2-0.6-4.3c-0.3-1.1-0.7-2-1.3-2.7c-0.6-0.7-1.4-1.3-2.4-1.8c-1.3-0.7-2.6-1.2-3.8-1.5c-1.3-0.3-2.6-0.5-4.1-0.5
				h-4.1v-3.2h86.3v25.5h-1.9c-1.1-4.2-2.4-7.5-3.8-10c-1.4-2.5-3.1-4.4-5.1-5.8c-2-1.4-4.4-2.3-7.1-2.7c-2.7-0.4-6-0.6-9.8-0.6H925
				z"/>
			<path d="M1050.6,2449.8c7.4,0,14.5,1.5,21.2,4.6c6.7,3.1,12.6,7.3,17.7,12.6c5.1,5.4,9.2,11.7,12.2,19c3,7.3,4.5,15.2,4.5,23.7
				c0,8.8-1.5,16.9-4.5,24.4c-3,7.5-7.1,14-12.3,19.5c-5.1,5.5-11.2,9.8-18.1,12.9c-6.9,3.1-14.3,4.7-22.1,4.7
				c-7.9,0-15.3-1.5-22.2-4.5s-12.9-7.2-17.9-12.6c-5.1-5.4-9.1-11.8-12-19.3c-2.9-7.5-4.4-15.7-4.4-24.8c0-8.3,1.5-16.2,4.4-23.5
				c2.9-7.3,7-13.7,12.1-19.1c5.1-5.4,11.3-9.7,18.3-12.8C1034.5,2451.3,1042.2,2449.8,1050.6,2449.8z M1048.9,2456
				c-5.9,0-11.1,1.3-15.6,3.8c-4.6,2.5-8.4,6.1-11.5,10.7c-3.1,4.6-5.5,10.3-7.1,16.8c-1.6,6.6-2.4,14-2.4,22.3
				c0,8.2,0.8,15.6,2.4,22.4c1.6,6.8,3.9,12.6,7,17.5c3.1,4.9,7,8.7,11.6,11.4c4.6,2.7,9.9,4,15.8,4c5.4,0,10.3-1,14.9-3.1
				c4.6-2,8.5-5.2,11.9-9.5c3.4-4.3,6.1-9.8,8-16.5c1.9-6.7,2.9-14.7,2.9-23.9c0-8.8-0.8-16.6-2.4-23.5c-1.6-6.9-4-12.8-7.1-17.6
				c-3.2-4.8-7.1-8.5-11.9-11C1060.6,2457.3,1055.1,2456,1048.9,2456z"/>
			<path d="M1231.3,2568.3h-30.9l-39.3-54.2c-1.4,0.1-2.7,0.1-3.9,0.2c-1.1,0-2.2,0.1-3.1,0.1c-0.8,0-1.6,0-2.4-0.1
				c-0.9,0-1.7-0.1-2.7-0.2v33.7c0,4.1,0.3,7.3,0.8,9.6c0.6,2.3,1.4,4.1,2.4,5.2c1.1,1.1,2.3,1.9,3.8,2.1c1.5,0.3,3.2,0.4,5,0.4h4.6
				v3.2h-49.8v-3.2h4.5c4.8,0,8.3-1.6,10.5-4.7c1.2-1.9,1.8-6.1,1.8-12.6v-74.9c0-7.1-0.8-11.7-2.4-13.5c-2.2-2.6-5.5-3.8-9.8-3.8
				h-4.5v-3.2h42.2c6.2,0,11.6,0.2,16.1,0.7c4.5,0.5,8.2,1.2,11.1,2.1c2.9,0.9,5.6,2.2,8.2,3.9s4.8,3.7,6.7,6c1.9,2.3,3.4,5,4.5,7.8
				c1.1,2.9,1.7,6,1.7,9.3c0,7.2-2.3,13.4-6.9,18.6c-4.6,5.2-11.8,8.9-21.6,11.1l23.9,33.2c2.8,3.8,5.3,7,7.5,9.4
				c2.2,2.5,4.3,4.4,6.5,5.9c2.2,1.4,4.5,2.5,6.9,3.2c2.4,0.7,5.3,1.2,8.6,1.5V2568.3z M1149,2508.7c1.1,0,2.1,0,2.9,0.1
				c0.8,0,1.5,0.1,2,0.1c5.5,0,10.4-0.6,14.6-1.9c4.2-1.3,7.7-3.1,10.5-5.4c2.8-2.3,4.9-5,6.3-8.1c1.4-3.1,2.1-6.5,2.1-10.1
				c0-3.6-0.6-6.9-1.8-9.9c-1.2-3-2.9-5.6-5.1-7.8c-2.2-2.2-4.9-3.8-7.9-5c-3.1-1.2-6.4-1.8-10.1-1.8c-3.5,0-8,0.6-13.4,1.7V2508.7z
				"/>
			<path d="M1276.5,2568.3v-3.2h4.5c2,0,3.7-0.2,5.2-0.5c1.5-0.3,2.8-1.1,3.8-2.3c1-1.2,1.8-2.9,2.4-5.2c0.6-2.3,0.8-5.4,0.8-9.3
				v-74.9c0-7.1-0.8-11.7-2.4-13.5c-2.2-2.6-5.5-3.8-9.8-3.8h-4.5v-3.2h47.2c17.2,0,30.4,2,39.6,6c9.1,4,16.4,10.6,21.8,19.7
				c5.5,9.3,8.3,19.9,8.3,31.8c0,8.6-1.4,16.5-4.1,23.6c-2.8,7.1-6.9,13.3-12.4,18.5c-5.5,5.2-12.3,9.2-20.4,12.1
				c-8.1,2.9-17.5,4.3-28.2,4.3H1276.5z M1309.7,2559.9c7.1,1.6,13.1,2.4,18.1,2.4c6.6,0,12.6-1.2,18.3-3.6
				c5.6-2.4,10.5-5.9,14.6-10.3c4.1-4.5,7.4-9.9,9.7-16.3c2.3-6.4,3.5-13.5,3.5-21.4c0-8-1.1-15.2-3.4-21.6
				c-2.3-6.4-5.5-11.9-9.7-16.3c-4.2-4.5-9.1-7.9-14.8-10.3c-5.7-2.4-12-3.6-18.8-3.6c-5,0-10.8,0.9-17.5,2.6V2559.9z"/>
			<path d="M1464.1,2449.8c7.4,0,14.5,1.5,21.2,4.6c6.7,3.1,12.6,7.3,17.7,12.6c5.1,5.4,9.2,11.7,12.2,19c3,7.3,4.5,15.2,4.5,23.7
				c0,8.8-1.5,16.9-4.5,24.4c-3,7.5-7.1,14-12.3,19.5c-5.1,5.5-11.2,9.8-18.1,12.9c-6.9,3.1-14.3,4.7-22.1,4.7
				c-7.9,0-15.3-1.5-22.2-4.5s-12.9-7.2-17.9-12.6c-5.1-5.4-9.1-11.8-12-19.3c-2.9-7.5-4.4-15.7-4.4-24.8c0-8.3,1.5-16.2,4.4-23.5
				c2.9-7.3,7-13.7,12.1-19.1c5.1-5.4,11.3-9.7,18.3-12.8C1448.1,2451.3,1455.8,2449.8,1464.1,2449.8z M1462.4,2456
				c-5.9,0-11.1,1.3-15.6,3.8c-4.6,2.5-8.4,6.1-11.5,10.7c-3.1,4.6-5.5,10.3-7.1,16.8c-1.6,6.6-2.4,14-2.4,22.3
				c0,8.2,0.8,15.6,2.4,22.4c1.6,6.8,3.9,12.6,7,17.5c3.1,4.9,7,8.7,11.6,11.4c4.6,2.7,9.9,4,15.8,4c5.4,0,10.3-1,14.9-3.1
				c4.6-2,8.5-5.2,11.9-9.5c3.4-4.3,6.1-9.8,8-16.5c1.9-6.7,2.9-14.7,2.9-23.9c0-8.8-0.8-16.6-2.4-23.5c-1.6-6.9-4-12.8-7.1-17.6
				c-3.2-4.8-7.1-8.5-11.9-11C1474.1,2457.3,1468.7,2456,1462.4,2456z"/>
			<path d="M1590.6,2449.8c7.4,0,14.5,1.5,21.2,4.6c6.7,3.1,12.6,7.3,17.7,12.6c5.1,5.4,9.2,11.7,12.2,19c3,7.3,4.5,15.2,4.5,23.7
				c0,8.8-1.5,16.9-4.5,24.4c-3,7.5-7.1,14-12.3,19.5c-5.1,5.5-11.2,9.8-18.1,12.9c-6.9,3.1-14.3,4.7-22.1,4.7
				c-7.9,0-15.3-1.5-22.2-4.5s-12.9-7.2-17.9-12.6c-5.1-5.4-9.1-11.8-12-19.3c-2.9-7.5-4.4-15.7-4.4-24.8c0-8.3,1.5-16.2,4.4-23.5
				c2.9-7.3,7-13.7,12.1-19.1c5.1-5.4,11.3-9.7,18.3-12.8C1574.6,2451.3,1582.3,2449.8,1590.6,2449.8z M1588.9,2456
				c-5.9,0-11.1,1.3-15.6,3.8c-4.6,2.5-8.4,6.1-11.5,10.7c-3.1,4.6-5.5,10.3-7.1,16.8c-1.6,6.6-2.4,14-2.4,22.3
				c0,8.2,0.8,15.6,2.4,22.4c1.6,6.8,3.9,12.6,7,17.5c3.1,4.9,7,8.7,11.6,11.4c4.6,2.7,9.9,4,15.8,4c5.4,0,10.3-1,14.9-3.1
				c4.6-2,8.5-5.2,11.9-9.5c3.4-4.3,6.1-9.8,8-16.5c1.9-6.7,2.9-14.7,2.9-23.9c0-8.8-0.8-16.6-2.4-23.5c-1.6-6.9-4-12.8-7.1-17.6
				c-3.2-4.8-7.1-8.5-11.9-11C1600.6,2457.3,1595.2,2456,1588.9,2456z"/>
			<path d="M1771.3,2568.3h-30.9l-39.3-54.2c-1.4,0.1-2.7,0.1-3.9,0.2c-1.1,0-2.2,0.1-3.1,0.1c-0.8,0-1.6,0-2.4-0.1
				c-0.9,0-1.7-0.1-2.7-0.2v33.7c0,4.1,0.3,7.3,0.8,9.6c0.6,2.3,1.4,4.1,2.4,5.2c1.1,1.1,2.3,1.9,3.8,2.1c1.5,0.3,3.2,0.4,5,0.4h4.6
				v3.2H1656v-3.2h4.5c4.8,0,8.3-1.6,10.5-4.7c1.2-1.9,1.8-6.1,1.8-12.6v-74.9c0-7.1-0.8-11.7-2.4-13.5c-2.2-2.6-5.5-3.8-9.8-3.8
				h-4.5v-3.2h42.2c6.2,0,11.6,0.2,16.1,0.7c4.5,0.5,8.2,1.2,11.1,2.1c2.9,0.9,5.6,2.2,8.2,3.9s4.8,3.7,6.7,6c1.9,2.3,3.4,5,4.5,7.8
				c1.1,2.9,1.7,6,1.7,9.3c0,7.2-2.3,13.4-6.9,18.6c-4.6,5.2-11.8,8.9-21.6,11.1l23.9,33.2c2.8,3.8,5.3,7,7.5,9.4
				c2.2,2.5,4.3,4.4,6.5,5.9c2.2,1.4,4.5,2.5,6.9,3.2c2.4,0.7,5.3,1.2,8.6,1.5V2568.3z M1689,2508.7c1.1,0,2.1,0,2.9,0.1
				c0.8,0,1.5,0.1,2,0.1c5.5,0,10.4-0.6,14.6-1.9c4.2-1.3,7.7-3.1,10.5-5.4c2.8-2.3,4.9-5,6.3-8.1c1.4-3.1,2.1-6.5,2.1-10.1
				c0-3.6-0.6-6.9-1.8-9.9c-1.2-3-2.9-5.6-5.1-7.8c-2.2-2.2-4.9-3.8-7.9-5c-3.1-1.2-6.4-1.8-10.1-1.8c-3.5,0-8,0.6-13.4,1.7V2508.7z
				"/>
			<path d="M1867.6,2565.1v3.2h-49.7v-3.2h4.1c2,0,3.8-0.1,5.4-0.4c1.6-0.3,2.9-1,3.9-2.2c1-1.1,1.8-2.9,2.4-5.2
				c0.6-2.3,0.8-5.5,0.8-9.5v-74.9c0-2.6-0.1-4.8-0.2-6.6c-0.1-1.7-0.3-3.2-0.6-4.3c-0.3-1.1-0.7-2-1.3-2.6
				c-0.6-0.6-1.4-1.3-2.4-1.9c-2.6-1.4-5.2-2-7.9-2h-4.1v-3.2h49.7v3.2h-4.1c-2,0-3.9,0.2-5.4,0.5c-1.6,0.3-2.9,1.1-3.9,2.2
				c-1,1.1-1.8,2.9-2.4,5.2c-0.6,2.3-0.8,5.5-0.8,9.4v74.9c0,2.7,0,4.9,0.1,6.6c0.1,1.7,0.3,3.1,0.6,4.2c0.3,1.1,0.8,2,1.5,2.6
				c0.6,0.6,1.5,1.3,2.5,1.9c2.4,1.4,5,2,7.8,2H1867.6z"/>
			<path d="M1869.6,2452.3h31.4l71,87v-66.9c0-3.9-0.3-7-0.8-9.3c-0.6-2.3-1.4-4-2.4-5.1c-1.1-1.1-2.4-1.8-3.9-2.1
				c-1.5-0.3-3.3-0.4-5.2-0.4h-4.1v-3.2h40.5v3.2h-4.2c-2,0-3.8,0.2-5.4,0.5c-1.5,0.3-2.8,1.1-3.8,2.3c-1,1.2-1.8,2.9-2.3,5.1
				c-0.5,2.2-0.8,5.2-0.8,9.1v97.8h-3.1l-76.5-93.4v71.5c0,4,0.3,7.1,0.8,9.4c0.6,2.3,1.3,3.9,2.4,5c1,1.1,2.3,1.8,3.8,2
				c1.5,0.3,3.3,0.4,5.2,0.4h4.1v3.2H1876v-3.2h4.1c2,0,3.8-0.2,5.4-0.5c1.5-0.3,2.8-1.1,3.9-2.2c1.1-1.1,1.9-2.8,2.4-5
				c0.5-2.2,0.8-5.2,0.8-9.1v-80.7c-1.7-2-3.1-3.7-4.3-4.8c-1.1-1.2-2.2-2.2-3.3-2.9c-1-0.8-2.1-1.4-3.3-1.9
				c-1.2-0.5-2.7-1.1-4.5-1.7c-1.7-0.5-4.2-0.8-7.5-0.8V2452.3z"/>
			<path d="M2140.3,2452.3v27.3h-1.9c-0.9-7.3-3.1-12.5-6.4-15.5c-3.4-3-8.3-4.5-14.9-4.5h-16.3v88.7c0,3.9,0.3,7,0.8,9.3
				c0.6,2.3,1.3,3.9,2.4,5c1,1.1,2.3,1.8,3.8,2.1c1.5,0.3,3.3,0.4,5.4,0.4h4v3.2H2068v-3.2h4.1c2,0,3.8-0.2,5.4-0.5
				c1.5-0.3,2.8-1.1,3.8-2.2c1-1.1,1.8-2.8,2.4-5c0.6-2.2,0.8-5.2,0.8-9.1v-88.7h-13.9c-3.5,0-6.6,0.3-9.3,0.8c-2.7,0.6-5,1.6-7,3.1
				c-2,1.5-3.5,3.5-4.7,6.1c-1.1,2.6-1.9,5.9-2.1,10h-3.2v-27.3H2140.3z"/>
			<path d="M2206.8,2449.8c7.4,0,14.5,1.5,21.2,4.6c6.7,3.1,12.6,7.3,17.7,12.6c5.1,5.4,9.2,11.7,12.2,19c3,7.3,4.5,15.2,4.5,23.7
				c0,8.8-1.5,16.9-4.5,24.4c-3,7.5-7.1,14-12.3,19.5c-5.1,5.5-11.2,9.8-18.1,12.9c-6.9,3.1-14.3,4.7-22.1,4.7
				c-7.9,0-15.3-1.5-22.2-4.5s-12.9-7.2-17.9-12.6c-5.1-5.4-9.1-11.8-12-19.3c-2.9-7.5-4.4-15.7-4.4-24.8c0-8.3,1.5-16.2,4.4-23.5
				c2.9-7.3,7-13.7,12.1-19.1c5.1-5.4,11.3-9.7,18.3-12.8C2190.8,2451.3,2198.5,2449.8,2206.8,2449.8z M2205.2,2456
				c-5.9,0-11.1,1.3-15.6,3.8c-4.6,2.5-8.4,6.1-11.5,10.7c-3.1,4.6-5.5,10.3-7.1,16.8c-1.6,6.6-2.4,14-2.4,22.3
				c0,8.2,0.8,15.6,2.4,22.4c1.6,6.8,3.9,12.6,7,17.5c3.1,4.9,7,8.7,11.6,11.4c4.6,2.7,9.9,4,15.8,4c5.4,0,10.3-1,14.9-3.1
				c4.6-2,8.5-5.2,11.9-9.5c3.4-4.3,6.1-9.8,8-16.5c1.9-6.7,2.9-14.7,2.9-23.9c0-8.8-0.8-16.6-2.4-23.5c-1.6-6.9-4-12.8-7.1-17.6
				c-3.2-4.8-7.1-8.5-11.9-11C2216.9,2457.3,2211.4,2456,2205.2,2456z"/>
			<path d="M2370.6,2452.3v27.3h-1.9c-0.9-7.3-3.1-12.5-6.4-15.5c-3.4-3-8.3-4.5-14.9-4.5H2331v88.7c0,3.9,0.3,7,0.8,9.3
				c0.6,2.3,1.3,3.9,2.4,5c1,1.1,2.3,1.8,3.8,2.1c1.5,0.3,3.3,0.4,5.4,0.4h4v3.2h-49.1v-3.2h4.1c2,0,3.8-0.2,5.4-0.5
				c1.5-0.3,2.8-1.1,3.8-2.2c1-1.1,1.8-2.8,2.4-5c0.6-2.2,0.8-5.2,0.8-9.1v-88.7h-13.9c-3.5,0-6.6,0.3-9.3,0.8c-2.7,0.6-5,1.6-7,3.1
				c-2,1.5-3.5,3.5-4.7,6.1c-1.1,2.6-1.9,5.9-2.1,10h-3.2v-27.3H2370.6z"/>
			<path d="M2442.3,2529.5h-44.9l-7.9,18.3c-1.9,4.5-2.8,7.9-2.8,10.1c0,0.9,0.1,1.8,0.4,2.6c0.3,0.8,0.9,1.5,1.9,2.1
				c1,0.6,2.3,1.2,4.1,1.7c1.7,0.5,4.1,0.8,7,1v3.2h-36.5v-3.2c2.9-0.4,5.2-1.1,7-1.9c1.8-0.8,3.3-2,4.6-3.5
				c1.3-1.5,2.4-3.4,3.5-5.8c1.1-2.4,2.4-5.3,3.9-8.8l40.8-95.3h2.9l40.3,96.4c1.6,4,3.1,7.2,4.5,9.6c1.4,2.4,2.8,4.3,4.3,5.7
				c1.5,1.4,3.1,2.3,4.9,2.8c1.7,0.5,3.8,0.8,6.3,0.9v3.2h-45.8v-3.2c4.6-0.2,7.7-0.9,9.4-2.2c1.7-1.3,2.5-2.9,2.5-4.8
				c-0.1-2.5-1.2-6.5-3.4-12L2442.3,2529.5z M2439.9,2523.1l-19.7-46.8l-20.2,46.8H2439.9z"/>
			<path d="M2589.1,2536.3l2.8,0.5l-10,31.5h-89.9v-3.2h4.5c4.8,0,8.3-1.6,10.5-4.7c1.2-1.9,1.8-6.1,1.8-12.6v-74.9
				c0-7.1-0.8-11.7-2.4-13.5c-2.2-2.6-5.5-3.8-9.8-3.8h-4.5v-3.2h52.6v3.2c-3.1,0-5.8,0.1-7.9,0.4c-2.1,0.3-3.8,0.7-5.2,1.3
				c-1.4,0.6-2.4,1.2-3.2,2c-0.8,0.8-1.4,1.6-1.9,2.6c-0.9,1.7-1.3,6.1-1.3,13.1v72.9c0,4,0.3,6.9,0.9,8.7c0.6,1.8,1.8,3,3.6,3.7
				c1.5,0.5,6,0.8,13.4,0.8h8.4c8.9,0,15.2-0.6,18.8-1.9c1.8-0.6,3.5-1.4,5.1-2.6c1.6-1.1,3.2-2.6,4.7-4.3s3-4,4.5-6.5
				C2586.1,2543.1,2587.6,2540,2589.1,2536.3z"/>
			<path d="M2696.1,2536.3l2.8,0.5l-10,31.5h-89.9v-3.2h4.5c4.8,0,8.3-1.6,10.5-4.7c1.2-1.9,1.8-6.1,1.8-12.6v-74.9
				c0-7.1-0.8-11.7-2.4-13.5c-2.2-2.6-5.5-3.8-9.8-3.8h-4.5v-3.2h52.6v3.2c-3.1,0-5.8,0.1-7.9,0.4c-2.1,0.3-3.8,0.7-5.2,1.3
				c-1.4,0.6-2.4,1.2-3.2,2c-0.8,0.8-1.4,1.6-1.9,2.6c-0.9,1.7-1.3,6.1-1.3,13.1v72.9c0,4,0.3,6.9,0.9,8.7c0.6,1.8,1.8,3,3.6,3.7
				c1.5,0.5,6,0.8,13.4,0.8h8.4c8.9,0,15.2-0.6,18.8-1.9c1.8-0.6,3.5-1.4,5.1-2.6c1.6-1.1,3.2-2.6,4.7-4.3s3-4,4.5-6.5
				C2693.1,2543.1,2694.6,2540,2696.1,2536.3z"/>
			<path d="M2768.6,2452.3h40.5v3.2h-2.3c-3.2,0-6.7,1.5-10.5,4.4c-3.7,2.9-7.9,8-12.4,15.3l-28,44v29.1c0,3.9,0.3,7,0.8,9.3
				c0.6,2.3,1.4,3.9,2.4,5c1.1,1.1,2.4,1.8,4,2.1c1.6,0.3,3.4,0.4,5.4,0.4h3.7v3.2H2723v-3.2h4.2c2,0,3.8-0.2,5.4-0.5
				c1.5-0.3,2.8-1.1,3.8-2.2c1-1.1,1.8-2.8,2.3-5c0.5-2.2,0.8-5.2,0.8-9.1v-27.6l-31.8-48.5c-2-2.9-3.6-5.2-4.8-7
				c-1.2-1.7-2.2-3-2.9-3.8c-0.3-0.3-0.9-0.8-1.7-1.5c-0.8-0.7-1.8-1.3-3-2c-1.2-0.6-2.5-1.2-4-1.7c-1.4-0.5-3-0.8-4.6-0.8v-3.2
				h49.5v3.2h-2.6c-1.3,0-2.6,0.1-3.8,0.4c-1.3,0.3-2.4,0.7-3.4,1.3c-1,0.6-1.9,1.4-2.5,2.4c-0.6,1-1,2.1-1,3.4
				c-0.1,1,0.3,2.4,1.3,4.3c0.9,1.8,2.3,4.1,4,6.8l24.1,37.4l22.8-35.7c3.2-5.2,4.9-9.2,5.1-12c-0.2-1.2-0.4-2.3-0.8-3.3
				s-1-1.9-1.9-2.6c-0.9-0.7-2.1-1.3-3.5-1.7c-1.4-0.4-3.3-0.6-5.5-0.6V2452.3z"/>
		</g>
	</g>
	<g>
		<g>
			<path d="M991.7,2642.8v45.6h21.1c2.5,0,4.6-0.2,6.3-0.7c1.7-0.5,3.2-1.3,4.4-2.5c1.2-1.2,2.1-2.8,2.8-4.9c0.7-2,1.2-4.6,1.7-7.8
				h3.2v39.2h-3.2c-0.1-2.9-0.4-5.4-0.9-7.4c-0.5-2-1.3-3.7-2.5-5c-1.1-1.3-2.7-2.3-4.6-2.9c-1.9-0.6-4.3-0.9-7.2-0.9h-21.1v36.4
				c0,2.7,0,4.9,0.1,6.6c0.1,1.7,0.3,3.1,0.6,4.2c0.3,1.1,0.8,2,1.5,2.6s1.5,1.3,2.5,1.9c2.4,1.4,5,2,7.8,2h4.2v3.2h-49.8v-3.2h4.1
				c2,0,3.8-0.1,5.4-0.4c1.6-0.3,2.9-1,3.9-2.2c1-1.1,1.8-2.9,2.4-5.2c0.6-2.3,0.8-5.5,0.8-9.5V2657c0-2.6-0.1-4.8-0.2-6.6
				c-0.1-1.7-0.3-3.2-0.6-4.3c-0.3-1.1-0.7-2-1.3-2.7c-0.6-0.7-1.4-1.3-2.4-1.8c-1.3-0.7-2.6-1.2-3.8-1.5c-1.3-0.3-2.6-0.5-4.1-0.5
				h-4.1v-3.2h86.3v25.5h-1.9c-1.1-4.2-2.4-7.5-3.8-10c-1.4-2.5-3.1-4.4-5.1-5.8c-2-1.4-4.4-2.3-7.1-2.7c-2.7-0.4-6-0.6-9.8-0.6
				H991.7z"/>
			<path d="M1117.3,2633.9c7.4,0,14.5,1.5,21.2,4.6c6.7,3.1,12.6,7.3,17.7,12.6c5.1,5.4,9.2,11.7,12.2,19c3,7.3,4.5,15.2,4.5,23.7
				c0,8.8-1.5,16.9-4.5,24.4c-3,7.5-7.1,14-12.3,19.5c-5.1,5.5-11.2,9.8-18.1,12.9c-6.9,3.1-14.3,4.7-22.1,4.7
				c-7.9,0-15.3-1.5-22.2-4.5s-12.9-7.2-17.9-12.6c-5.1-5.4-9.1-11.8-12-19.3c-2.9-7.5-4.4-15.7-4.4-24.8c0-8.3,1.5-16.2,4.4-23.5
				c2.9-7.3,7-13.7,12.1-19.1c5.1-5.4,11.3-9.7,18.3-12.8C1101.2,2635.4,1109,2633.9,1117.3,2633.9z M1115.6,2640.1
				c-5.9,0-11.1,1.3-15.6,3.8c-4.6,2.5-8.4,6.1-11.5,10.7c-3.1,4.6-5.5,10.3-7.1,16.8c-1.6,6.6-2.4,14-2.4,22.3
				c0,8.2,0.8,15.6,2.4,22.4c1.6,6.8,3.9,12.6,7,17.5c3.1,4.9,7,8.7,11.6,11.4c4.6,2.7,9.9,4,15.8,4c5.4,0,10.3-1,14.9-3.1
				c4.6-2,8.5-5.2,11.9-9.5c3.4-4.3,6.1-9.8,8-16.5c1.9-6.7,2.9-14.7,2.9-23.9c0-8.8-0.8-16.6-2.4-23.5c-1.6-6.9-4-12.8-7.1-17.6
				c-3.2-4.8-7.1-8.5-11.9-11C1127.3,2641.4,1121.8,2640.1,1115.6,2640.1z"/>
			<path d="M1298,2752.4h-30.9l-39.3-54.2c-1.4,0.1-2.7,0.1-3.9,0.2c-1.1,0-2.2,0.1-3.1,0.1c-0.8,0-1.6,0-2.4-0.1
				c-0.9,0-1.7-0.1-2.7-0.2v33.7c0,4.1,0.3,7.3,0.8,9.6c0.6,2.3,1.4,4.1,2.4,5.2c1.1,1.1,2.3,1.9,3.8,2.1c1.5,0.3,3.2,0.4,5,0.4h4.6
				v3.2h-49.8v-3.2h4.5c4.8,0,8.3-1.6,10.5-4.7c1.2-1.9,1.8-6.1,1.8-12.6V2657c0-7.1-0.8-11.7-2.4-13.5c-2.2-2.6-5.5-3.8-9.8-3.8
				h-4.5v-3.2h42.2c6.2,0,11.6,0.2,16.1,0.7c4.5,0.5,8.2,1.2,11.1,2.1c2.9,0.9,5.6,2.2,8.2,3.9s4.8,3.7,6.7,6c1.9,2.3,3.4,5,4.5,7.8
				c1.1,2.9,1.7,6,1.7,9.3c0,7.2-2.3,13.4-6.9,18.6c-4.6,5.2-11.8,8.9-21.6,11.1l23.9,33.2c2.8,3.8,5.3,7,7.5,9.4
				c2.2,2.5,4.3,4.4,6.5,5.9c2.2,1.4,4.5,2.5,6.9,3.2c2.4,0.7,5.3,1.2,8.6,1.5V2752.4z M1215.7,2692.8c1.1,0,2.1,0,2.9,0.1
				c0.8,0,1.5,0.1,2,0.1c5.5,0,10.4-0.6,14.6-1.9c4.2-1.3,7.7-3.1,10.5-5.4c2.8-2.3,4.9-5,6.3-8.1c1.4-3.1,2.1-6.5,2.1-10.1
				c0-3.6-0.6-6.9-1.8-9.9c-1.2-3-2.9-5.6-5.1-7.8c-2.2-2.2-4.9-3.8-7.9-5c-3.1-1.2-6.4-1.8-10.1-1.8c-3.5,0-8,0.6-13.4,1.7V2692.8z
				"/>
			<path d="M1438.4,2636.4v27.3h-1.9c-0.9-7.3-3.1-12.5-6.4-15.5c-3.4-3-8.3-4.5-14.9-4.5h-16.3v88.7c0,3.9,0.3,7,0.8,9.3
				c0.6,2.3,1.3,3.9,2.4,5c1,1.1,2.3,1.8,3.8,2.1c1.5,0.3,3.3,0.4,5.4,0.4h4v3.2h-49.1v-3.2h4.1c2,0,3.8-0.2,5.4-0.5
				c1.5-0.3,2.8-1.1,3.8-2.2c1-1.1,1.8-2.8,2.4-5c0.6-2.2,0.8-5.2,0.8-9.1v-88.7h-13.9c-3.5,0-6.6,0.3-9.3,0.8c-2.7,0.6-5,1.6-7,3.1
				c-2,1.5-3.5,3.5-4.7,6.1c-1.1,2.6-1.9,5.9-2.1,10h-3.2v-27.3H1438.4z"/>
			<path d="M1480,2690.3h53.9v-33.2c0-2.7,0-5-0.1-6.7c-0.1-1.7-0.3-3.2-0.6-4.3c-0.3-1.1-0.8-2-1.5-2.6c-0.6-0.6-1.5-1.3-2.5-1.9
				c-2.4-1.4-5-2-7.8-2h-4.1v-3.2h49.7v3.2h-4.1c-1.1,0-2.3,0.1-3.5,0.4c-1.2,0.3-2.4,0.6-3.4,1.1c-1.1,0.5-2,1.1-2.9,1.9
				c-0.9,0.8-1.4,1.7-1.8,2.7c-0.6,1.8-0.9,5.6-0.9,11.4v74.8c0,2.7,0.1,4.9,0.2,6.6c0.1,1.7,0.3,3.1,0.6,4.2c0.3,1.1,0.7,2,1.3,2.6
				c0.6,0.6,1.4,1.3,2.4,1.9c2.4,1.4,5,2,7.9,2h4.1v3.2h-49.7v-3.2h4.1c2,0,3.7-0.1,5.2-0.4c1.5-0.3,2.8-1,4-2.2
				c1.1-1.1,1.9-2.9,2.5-5.2c0.6-2.3,0.8-5.5,0.8-9.5v-35.4H1480v35.4c0,2.7,0,4.9,0.1,6.6c0.1,1.7,0.3,3.1,0.6,4.2
				c0.3,1.1,0.8,2,1.5,2.6s1.5,1.3,2.5,1.9c2.4,1.4,5,2,7.8,2h4.2v3.2H1447v-3.2h4.2c4.7,0,8.1-1.4,10.3-4.2c1.4-1.7,2-6.1,2-13.1
				v-74.8c0-2.8,0-5.1-0.1-6.8c-0.1-1.7-0.3-3.1-0.6-4.2c-0.3-1.1-0.8-1.9-1.4-2.6c-0.6-0.6-1.4-1.3-2.4-1.9c-2.4-1.4-5-2-7.8-2
				h-4.2v-3.2h49.8v3.2h-4.2c-1,0-2.1,0.1-3.4,0.4c-1.2,0.3-2.4,0.6-3.4,1.1c-1.1,0.5-2,1.1-2.9,1.9c-0.9,0.8-1.4,1.7-1.8,2.7
				c-0.7,2-1,5.8-1,11.4V2690.3z"/>
			<path d="M1624.5,2749.3v3.2h-49.7v-3.2h4.1c2,0,3.8-0.1,5.4-0.4c1.6-0.3,2.9-1,3.9-2.2c1-1.1,1.8-2.9,2.4-5.2
				c0.6-2.3,0.8-5.5,0.8-9.5V2657c0-2.6-0.1-4.8-0.2-6.6c-0.1-1.7-0.3-3.2-0.6-4.3c-0.3-1.1-0.7-2-1.3-2.6c-0.6-0.6-1.4-1.3-2.4-1.9
				c-2.6-1.4-5.2-2-7.9-2h-4.1v-3.2h49.7v3.2h-4.1c-2,0-3.9,0.2-5.4,0.5c-1.6,0.3-2.9,1.1-3.9,2.2c-1,1.1-1.8,2.9-2.4,5.2
				c-0.6,2.3-0.8,5.5-0.8,9.4v74.9c0,2.7,0,4.9,0.1,6.6c0.1,1.7,0.3,3.1,0.6,4.2c0.3,1.1,0.8,2,1.5,2.6c0.6,0.6,1.5,1.3,2.5,1.9
				c2.4,1.4,5,2,7.8,2H1624.5z"/>
			<path d="M1709.2,2633.9v40.1h-3.2c-1.4-10.8-5-19.1-10.6-24.8c-5.6-5.7-12.8-8.6-21.4-8.6c-3,0-5.7,0.5-8.2,1.5
				c-2.5,1-4.6,2.4-6.5,4c-1.9,1.7-3.3,3.6-4.3,5.7c-1,2.1-1.5,4.3-1.5,6.6c0,2.1,0.4,4.1,1.3,6.1c0.8,1.9,3.5,4.9,7.9,9
				c7.4,4.7,14,8.6,19.8,11.6c5.4,3,12.8,7.5,22.1,13.5c4,3.1,7.1,6.7,9.2,10.9c2.1,4.2,3.2,8.6,3.2,13.2c0,4.3-0.9,8.5-2.7,12.4
				c-1.8,3.9-4.3,7.3-7.5,10.3s-7,5.3-11.6,7c-4.5,1.7-9.4,2.6-14.8,2.6c-3.4,0-6.6-0.3-9.4-0.8c-0.5-0.1-1.9-0.4-4-1.1
				c-2.2-0.6-4.5-1.3-7-2c-2.5-0.7-4.8-1.3-6.9-1.9c-2.1-0.6-3.4-0.9-3.7-0.9c-1.4,0-2.6,0.4-3.4,1.3c-0.8,0.9-1.4,2.6-1.9,5.4h-3.2
				v-39.8h3.2c1.5,8.2,3.5,14.4,6,18.8c1.2,2,2.8,3.9,4.8,5.7c2,1.7,4.3,3.3,6.8,4.6c2.5,1.3,5.2,2.3,8.1,3.1
				c2.9,0.7,5.8,1.1,8.8,1.1c3.6,0,6.8-0.5,9.6-1.5c2.9-1,5.3-2.4,7.3-4.1c2-1.7,3.5-3.8,4.6-6.1c1.1-2.3,1.6-4.7,1.6-7.3
				c0-2.9-0.8-5.8-2.4-8.7c-1.6-2.9-4.2-5.7-8-8.6c-3.7-2.2-8-4.8-13-7.8c-9.6-5.5-18.2-10.8-25.7-16c-4.2-3.3-7.3-7-9.5-10.9
				s-3.3-8.4-3.3-13.2c0-4.1,0.8-8,2.6-11.7c1.7-3.7,4.1-7,7.1-9.8c3-2.8,6.6-5,10.8-6.6c4.2-1.6,8.7-2.4,13.5-2.4
				c6.1,0,12.6,1.5,19.5,4.5c1.6,0.7,3,1.2,4.1,1.7c1.1,0.4,2,0.6,2.7,0.5c1.5,0,2.8-0.4,3.7-1.3c0.9-0.8,1.7-2.6,2.2-5.4H1709.2z"
				/>
			<path d="M1805.9,2642.8v45.6h21.1c2.5,0,4.6-0.2,6.3-0.7c1.7-0.5,3.2-1.3,4.4-2.5c1.2-1.2,2.1-2.8,2.8-4.9c0.7-2,1.2-4.6,1.7-7.8
				h3.2v39.2h-3.2c-0.1-2.9-0.4-5.4-0.9-7.4c-0.5-2-1.3-3.7-2.5-5c-1.1-1.3-2.7-2.3-4.6-2.9c-1.9-0.6-4.3-0.9-7.2-0.9h-21.1v36.4
				c0,2.7,0,4.9,0.1,6.6c0.1,1.7,0.3,3.1,0.6,4.2c0.3,1.1,0.8,2,1.5,2.6s1.5,1.3,2.5,1.9c2.4,1.4,5,2,7.8,2h4.2v3.2h-49.8v-3.2h4.1
				c2,0,3.8-0.1,5.4-0.4c1.6-0.3,2.9-1,3.9-2.2c1-1.1,1.8-2.9,2.4-5.2c0.6-2.3,0.8-5.5,0.8-9.5V2657c0-2.6-0.1-4.8-0.2-6.6
				c-0.1-1.7-0.3-3.2-0.6-4.3c-0.3-1.1-0.7-2-1.3-2.7c-0.6-0.7-1.4-1.3-2.4-1.8c-1.3-0.7-2.6-1.2-3.8-1.5c-1.3-0.3-2.6-0.5-4.1-0.5
				h-4.1v-3.2h86.3v25.5h-1.9c-1.1-4.2-2.4-7.5-3.8-10c-1.4-2.5-3.1-4.4-5.1-5.8c-2-1.4-4.4-2.3-7.1-2.7c-2.7-0.4-6-0.6-9.8-0.6
				H1805.9z"/>
			<path d="M1931.5,2633.9c7.4,0,14.5,1.5,21.2,4.6c6.7,3.1,12.6,7.3,17.7,12.6c5.1,5.4,9.2,11.7,12.2,19c3,7.3,4.5,15.2,4.5,23.7
				c0,8.8-1.5,16.9-4.5,24.4c-3,7.5-7.1,14-12.3,19.5c-5.1,5.5-11.2,9.8-18.1,12.9c-6.9,3.1-14.3,4.7-22.1,4.7
				c-7.9,0-15.3-1.5-22.2-4.5s-12.9-7.2-17.9-12.6c-5.1-5.4-9.1-11.8-12-19.3c-2.9-7.5-4.4-15.7-4.4-24.8c0-8.3,1.5-16.2,4.4-23.5
				c2.9-7.3,7-13.7,12.1-19.1c5.1-5.4,11.3-9.7,18.3-12.8C1915.5,2635.4,1923.2,2633.9,1931.5,2633.9z M1929.8,2640.1
				c-5.9,0-11.1,1.3-15.6,3.8c-4.6,2.5-8.4,6.1-11.5,10.7c-3.1,4.6-5.5,10.3-7.1,16.8c-1.6,6.6-2.4,14-2.4,22.3
				c0,8.2,0.8,15.6,2.4,22.4c1.6,6.8,3.9,12.6,7,17.5c3.1,4.9,7,8.7,11.6,11.4c4.6,2.7,9.9,4,15.8,4c5.4,0,10.3-1,14.9-3.1
				c4.6-2,8.5-5.2,11.9-9.5c3.4-4.3,6.1-9.8,8-16.5c1.9-6.7,2.9-14.7,2.9-23.9c0-8.8-0.8-16.6-2.4-23.5c-1.6-6.9-4-12.8-7.1-17.6
				c-3.2-4.8-7.1-8.5-11.9-11C1941.5,2641.4,1936.1,2640.1,1929.8,2640.1z"/>
			<path d="M2112.2,2752.4h-30.9l-39.3-54.2c-1.4,0.1-2.7,0.1-3.9,0.2c-1.1,0-2.2,0.1-3.1,0.1c-0.8,0-1.6,0-2.4-0.1
				c-0.9,0-1.7-0.1-2.7-0.2v33.7c0,4.1,0.3,7.3,0.8,9.6c0.6,2.3,1.4,4.1,2.4,5.2c1.1,1.1,2.3,1.9,3.8,2.1c1.5,0.3,3.2,0.4,5,0.4h4.6
				v3.2h-49.8v-3.2h4.5c4.8,0,8.3-1.6,10.5-4.7c1.2-1.9,1.8-6.1,1.8-12.6V2657c0-7.1-0.8-11.7-2.4-13.5c-2.2-2.6-5.5-3.8-9.8-3.8
				h-4.5v-3.2h42.2c6.2,0,11.6,0.2,16.1,0.7c4.5,0.5,8.2,1.2,11.1,2.1c2.9,0.9,5.6,2.2,8.2,3.9c2.6,1.7,4.8,3.7,6.7,6
				c1.9,2.3,3.4,5,4.5,7.8c1.1,2.9,1.7,6,1.7,9.3c0,7.2-2.3,13.4-6.9,18.6c-4.6,5.2-11.8,8.9-21.6,11.1l23.9,33.2
				c2.8,3.8,5.3,7,7.5,9.4c2.2,2.5,4.3,4.4,6.5,5.9c2.2,1.4,4.5,2.5,6.9,3.2c2.4,0.7,5.3,1.2,8.6,1.5V2752.4z M2029.9,2692.8
				c1.1,0,2.1,0,2.9,0.1c0.8,0,1.5,0.1,2,0.1c5.5,0,10.4-0.6,14.6-1.9c4.2-1.3,7.7-3.1,10.5-5.4c2.8-2.3,4.9-5,6.3-8.1
				c1.4-3.1,2.1-6.5,2.1-10.1c0-3.6-0.6-6.9-1.8-9.9c-1.2-3-2.9-5.6-5.1-7.8c-2.2-2.2-4.9-3.8-7.9-5c-3.1-1.2-6.4-1.8-10.1-1.8
				c-3.5,0-8,0.6-13.4,1.7V2692.8z"/>
			<path d="M2108.4,2636.4h31.4l71,87v-66.9c0-3.9-0.3-7-0.8-9.3c-0.6-2.3-1.4-4-2.4-5.1c-1.1-1.1-2.4-1.8-3.9-2.1
				c-1.5-0.3-3.3-0.4-5.2-0.4h-4.1v-3.2h40.5v3.2h-4.2c-2,0-3.8,0.2-5.4,0.5c-1.5,0.3-2.8,1.1-3.8,2.3c-1,1.2-1.8,2.9-2.3,5.1
				c-0.5,2.2-0.8,5.2-0.8,9.1v97.8h-3.1l-76.5-93.4v71.5c0,4,0.3,7.1,0.8,9.4c0.6,2.3,1.3,3.9,2.4,5c1,1.1,2.3,1.8,3.8,2
				c1.5,0.3,3.3,0.4,5.2,0.4h4.1v3.2h-40.3v-3.2h4.1c2,0,3.8-0.2,5.4-0.5c1.5-0.3,2.8-1.1,3.9-2.2c1.1-1.1,1.9-2.8,2.4-5
				c0.5-2.2,0.8-5.2,0.8-9.1v-80.7c-1.7-2-3.1-3.7-4.3-4.8c-1.1-1.2-2.2-2.2-3.3-2.9c-1-0.8-2.1-1.4-3.3-1.9
				c-1.2-0.5-2.7-1.1-4.5-1.7c-1.7-0.5-4.2-0.8-7.5-0.8V2636.4z"/>
			<path d="M2291.2,2749.3v3.2h-49.7v-3.2h4.1c2,0,3.8-0.1,5.4-0.4c1.6-0.3,2.9-1,3.9-2.2c1-1.1,1.8-2.9,2.4-5.2
				c0.6-2.3,0.8-5.5,0.8-9.5V2657c0-2.6-0.1-4.8-0.2-6.6c-0.1-1.7-0.3-3.2-0.6-4.3c-0.3-1.1-0.7-2-1.3-2.6c-0.6-0.6-1.4-1.3-2.4-1.9
				c-2.6-1.4-5.2-2-7.9-2h-4.1v-3.2h49.7v3.2h-4.1c-2,0-3.9,0.2-5.4,0.5c-1.6,0.3-2.9,1.1-3.9,2.2c-1,1.1-1.8,2.9-2.4,5.2
				c-0.6,2.3-0.8,5.5-0.8,9.4v74.9c0,2.7,0,4.9,0.1,6.6c0.1,1.7,0.3,3.1,0.6,4.2c0.3,1.1,0.8,2,1.5,2.6c0.6,0.6,1.5,1.3,2.5,1.9
				c2.4,1.4,5,2,7.8,2H2291.2z"/>
			<path d="M2396.9,2636.4v27.3h-1.9c-0.9-7.3-3.1-12.5-6.4-15.5c-3.4-3-8.3-4.5-14.9-4.5h-16.3v88.7c0,3.9,0.3,7,0.8,9.3
				c0.6,2.3,1.3,3.9,2.4,5c1,1.1,2.3,1.8,3.8,2.1c1.5,0.3,3.3,0.4,5.4,0.4h4v3.2h-49.1v-3.2h4.1c2,0,3.8-0.2,5.4-0.5
				c1.5-0.3,2.8-1.1,3.8-2.2c1-1.1,1.8-2.8,2.4-5c0.6-2.2,0.8-5.2,0.8-9.1v-88.7h-13.9c-3.5,0-6.6,0.3-9.3,0.8c-2.7,0.6-5,1.6-7,3.1
				c-2,1.5-3.5,3.5-4.7,6.1c-1.1,2.6-1.9,5.9-2.1,10h-3.2v-27.3H2396.9z"/>
			<path d="M2486.1,2639.6v-3.2h41v3.2h-4.3c-4.4,0-7.9,1.9-10.5,5.7c-1.2,1.7-1.8,5.8-1.8,12.4v47c0,11.4-1.2,20.5-3.6,27.2
				c-1.2,3.2-2.9,6.3-5.1,9.1c-2.2,2.8-5,5.3-8.4,7.3c-3.4,2.1-7.4,3.7-11.9,5c-4.6,1.2-9.8,1.9-15.6,1.9c-6.4,0-12-0.6-16.7-1.7
				c-4.8-1.1-8.9-2.7-12.3-4.9c-3.4-2.1-6.2-4.7-8.4-7.7c-2.2-3-4-6.3-5.4-10.1c-1.9-5.2-2.8-14.7-2.8-28.6V2657
				c0-3.6-0.2-6.5-0.7-8.7c-0.5-2.3-1.2-4-2.2-5.3c-1-1.3-2.3-2.1-3.9-2.6c-1.6-0.5-3.4-0.7-5.6-0.7h-4.5v-3.2h50.2v3.2h-4.5
				c-2,0-3.8,0.2-5.4,0.6c-1.5,0.4-2.8,1.3-3.8,2.5c-1,1.2-1.8,3-2.4,5.2c-0.6,2.3-0.8,5.3-0.8,9v50.5c0,5.1,0.3,10.1,1,14.9
				c0.7,4.9,2.1,9.2,4.2,13c2.1,3.8,5.2,6.8,9.1,9.1c4,2.3,9.2,3.4,15.8,3.4c3.7,0,7.4-0.4,10.8-1.3c3.5-0.9,6.7-2.1,9.5-3.6
				c2.9-1.5,5.3-3.4,7.5-5.6c2.1-2.2,3.7-4.5,4.7-7.1c2.2-5,3.3-13.8,3.3-26.3v-47c0-7.1-0.8-11.7-2.4-13.5
				c-2.2-2.6-5.5-3.8-9.8-3.8H2486.1z"/>
			<path d="M2647.3,2752.4h-30.9l-39.3-54.2c-1.4,0.1-2.7,0.1-3.9,0.2c-1.1,0-2.2,0.1-3.1,0.1c-0.8,0-1.6,0-2.4-0.1
				c-0.9,0-1.7-0.1-2.7-0.2v33.7c0,4.1,0.3,7.3,0.8,9.6c0.6,2.3,1.4,4.1,2.4,5.2c1.1,1.1,2.3,1.9,3.8,2.1c1.5,0.3,3.2,0.4,5,0.4h4.6
				v3.2h-49.8v-3.2h4.5c4.8,0,8.3-1.6,10.5-4.7c1.2-1.9,1.8-6.1,1.8-12.6V2657c0-7.1-0.8-11.7-2.4-13.5c-2.2-2.6-5.5-3.8-9.8-3.8
				h-4.5v-3.2h42.2c6.2,0,11.6,0.2,16.1,0.7c4.5,0.5,8.2,1.2,11.1,2.1c2.9,0.9,5.6,2.2,8.2,3.9c2.6,1.7,4.8,3.7,6.7,6
				c1.9,2.3,3.4,5,4.5,7.8c1.1,2.9,1.7,6,1.7,9.3c0,7.2-2.3,13.4-6.9,18.6c-4.6,5.2-11.8,8.9-21.6,11.1l23.9,33.2
				c2.8,3.8,5.3,7,7.5,9.4c2.2,2.5,4.3,4.4,6.5,5.9c2.2,1.4,4.5,2.5,6.9,3.2c2.4,0.7,5.3,1.2,8.6,1.5V2752.4z M2565,2692.8
				c1.1,0,2.1,0,2.9,0.1c0.8,0,1.5,0.1,2,0.1c5.5,0,10.4-0.6,14.6-1.9c4.2-1.3,7.7-3.1,10.5-5.4c2.8-2.3,4.9-5,6.3-8.1
				c1.4-3.1,2.1-6.5,2.1-10.1c0-3.6-0.6-6.9-1.8-9.9c-1.2-3-2.9-5.6-5.1-7.8c-2.2-2.2-4.9-3.8-7.9-5c-3.1-1.2-6.4-1.8-10.1-1.8
				c-3.5,0-8,0.6-13.4,1.7V2692.8z"/>
			<path d="M2682.4,2642.8v45.8h25.4c3.7,0,6.8-0.3,9.1-1c2.3-0.7,4.1-1.7,5.4-3.1c1.3-1.4,2.2-3.1,2.7-5.2c0.5-2.1,0.8-4.6,1-7.5
				h3.2v40.3h-3.2c-0.4-3.3-0.9-6.1-1.5-8.3c-0.6-2.2-1.4-4-2.7-5.3c-1.2-1.3-3-2.3-5.2-2.8c-2.2-0.6-5.2-0.8-8.9-0.8h-25.4v38.3
				c0,2.9,0,5.2,0.1,6.9c0.1,1.7,0.4,3,1,3.9c0.6,0.9,1.5,1.5,2.8,1.7c1.3,0.3,3.1,0.4,5.6,0.4h19.7c3.3,0,6.1-0.1,8.4-0.3
				c2.3-0.2,4.3-0.5,5.9-1s3.1-1.2,4.4-2.1s2.6-2,4.1-3.4c3.4-3.3,7-8.6,10.8-16h3.4l-10.1,29.1h-89.3v-3.2h4.1
				c1.1,0,2.3-0.1,3.4-0.4c1.2-0.3,2.3-0.6,3.4-1.1c1.1-0.5,2-1.1,2.9-1.9c0.8-0.8,1.4-1.7,1.8-2.7c0.7-1.9,1-5.6,1-11.2v-75.3
				c0-7.4-0.7-12-2.2-13.7c-2-2.3-5.5-3.4-10.3-3.4h-4.1v-3.2h89.3v25.4h-2c-0.9-4.2-1.8-7.5-2.7-10c-1-2.5-2.3-4.4-3.9-5.8
				c-1.6-1.4-3.7-2.2-6.2-2.6c-2.5-0.4-5.7-0.6-9.6-0.6H2682.4z"/>
		</g>
	</g>
	<g>
		<g>
			<path d="M615.3,2871l42.8,42.5c3.6,3.6,6.8,6.5,9.7,8.9c2.9,2.3,5.6,4.2,8.2,5.6c2.6,1.4,5,2.4,7.5,3.1c2.4,0.6,4.9,1,7.5,1.1
				v3.2h-55.1v-3.2c3.7,0,6.1-0.6,7.4-1.9s1.9-2.6,1.9-4.1c0-0.6,0-1.1-0.1-1.6c-0.1-0.5-0.3-1-0.7-1.6c-0.4-0.6-1-1.4-1.9-2.3
				c-0.9-0.9-2-2.1-3.4-3.6l-40.1-39.7v37.4c0,2.7,0.1,4.9,0.2,6.6c0.1,1.7,0.3,3.1,0.6,4.2c0.3,1.1,0.8,2,1.4,2.6s1.5,1.3,2.5,1.9
				c2.5,1.4,5.1,2,7.8,2h4v3.2h-49.4v-3.2h4.1c4.8,0,8.3-1.4,10.5-4.2c1.4-1.9,2-6.3,2-13.1v-74.9c0-2.6,0-4.7-0.1-6.4
				c-0.1-1.7-0.3-3.2-0.6-4.3c-0.3-1.1-0.8-2-1.4-2.7c-0.6-0.7-1.4-1.3-2.4-1.9c-2.7-1.4-5.4-2-7.9-2h-4.1v-3.2h49.4v3.2h-4
				c-2.1,0-4.4,0.5-6.7,1.4c-2.3,0.9-3.9,2.5-4.8,4.7c-0.7,1.9-1,5.6-1,11.2v35.5c0.1-0.1,0.7-0.6,1.7-1.6c1.1-1,2.3-2.1,3.6-3.3
				c1.3-1.2,2.6-2.4,3.8-3.6c1.2-1.2,2.1-2,2.6-2.4c6.2-5.7,11.4-10.6,15.7-14.7c4.3-4.1,7.7-7.6,10.2-10.4c2.6-2.9,4.4-5.2,5.5-7.1
				c1.1-1.9,1.7-3.5,1.7-4.8c0-1.4-0.6-2.5-1.8-3.5c-1.2-1-3.2-1.5-6.1-1.5h-2.7v-3.2h42.6v3.2c-1.5,0.1-3.1,0.2-4.7,0.4
				c-1.6,0.2-3.3,0.7-5.2,1.6c-1.9,0.9-4.1,2.2-6.6,4c-2.5,1.8-5.4,4.3-8.8,7.4c-0.7,0.6-2.4,2.4-5.2,5.3c-2.8,2.9-6.9,7-12.1,12.2
				L615.3,2871z"/>
			<path d="M743.5,2932.2v3.2h-49.7v-3.2h4.1c2,0,3.8-0.1,5.4-0.4c1.6-0.3,2.9-1,3.9-2.2c1-1.1,1.8-2.9,2.4-5.2
				c0.6-2.3,0.8-5.5,0.8-9.5v-74.9c0-2.6-0.1-4.8-0.2-6.6c-0.1-1.7-0.3-3.2-0.6-4.3c-0.3-1.1-0.7-2-1.3-2.6
				c-0.6-0.6-1.4-1.3-2.4-1.9c-2.6-1.4-5.2-2-7.9-2h-4.1v-3.2h49.7v3.2h-4.1c-2,0-3.9,0.2-5.4,0.5c-1.6,0.3-2.9,1.1-3.9,2.2
				c-1,1.1-1.8,2.9-2.4,5.2c-0.6,2.3-0.8,5.5-0.8,9.4v74.9c0,2.7,0,4.9,0.1,6.6c0.1,1.7,0.3,3.1,0.6,4.2c0.3,1.1,0.8,2,1.5,2.6
				c0.6,0.6,1.5,1.3,2.5,1.9c2.4,1.4,5,2,7.8,2H743.5z"/>
			<path d="M849.2,2819.3v27.3h-1.9c-0.9-7.3-3.1-12.5-6.4-15.5c-3.4-3-8.3-4.5-14.9-4.5h-16.3v88.7c0,3.9,0.3,7,0.8,9.3
				c0.6,2.3,1.3,3.9,2.4,5c1,1.1,2.3,1.8,3.8,2.1c1.5,0.3,3.3,0.4,5.4,0.4h4v3.2h-49.1v-3.2h4.1c2,0,3.8-0.2,5.4-0.5
				c1.5-0.3,2.8-1.1,3.8-2.2c1-1.1,1.8-2.8,2.4-5c0.6-2.2,0.8-5.2,0.8-9.1v-88.7h-13.9c-3.5,0-6.6,0.3-9.3,0.8c-2.7,0.6-5,1.6-7,3.1
				c-2,1.5-3.5,3.5-4.7,6.1c-1.1,2.6-1.9,5.9-2.1,10h-3.2v-27.3H849.2z"/>
			<path d="M960.2,2816.8l2.7,39.4h-2.7c-3.6-11.8-8.6-20.3-15.1-25.5c-6.5-5.2-14.4-7.8-23.5-7.8c-6,0-11.4,1.1-16.5,3.4
				c-5,2.3-9.3,5.7-13,10.4c-3.6,4.7-6.4,10.6-8.5,17.6c-2,7.1-3.1,15.4-3.1,25c0,7.7,1,14.8,2.9,21.1c1.9,6.3,4.7,11.7,8.4,16.1
				c3.7,4.5,8.2,7.9,13.6,10.3c5.4,2.4,11.5,3.6,18.5,3.6c7.3,0,14-1.6,19.9-4.8c5.7-3,12-9.4,19-19.1l2.7,1.7
				c-5.9,10.3-12.7,17.8-20.4,22.7c-7.7,4.8-16.9,7.2-27.6,7.2c-8.3,0-15.8-1.4-22.7-4.3s-12.8-7-17.8-12.2s-8.9-11.4-11.7-18.6
				c-2.8-7.2-4.2-15.1-4.2-23.7c0-11.7,2.6-22.3,7.8-31.9c5.1-9.7,12.2-17.2,21.3-22.5c9.2-5.4,19.1-8,29.9-8c8.4,0,16.7,2,24.8,6.1
				c2.4,1.3,4.1,1.9,5.1,1.9c1.9,0,3.4-0.8,4.7-2.3c1.2-1.5,2.1-3.4,2.6-5.7H960.2z"/>
			<path d="M1007.6,2873.2h53.9V2840c0-2.7,0-5-0.1-6.7c-0.1-1.7-0.3-3.2-0.6-4.3c-0.3-1.1-0.8-2-1.5-2.6c-0.6-0.6-1.5-1.3-2.5-1.9
				c-2.4-1.4-5-2-7.8-2h-4.1v-3.2h49.7v3.2h-4.1c-1.1,0-2.3,0.1-3.5,0.4c-1.2,0.3-2.4,0.6-3.4,1.1c-1.1,0.5-2,1.1-2.9,1.9
				c-0.9,0.8-1.4,1.7-1.8,2.7c-0.6,1.8-0.9,5.6-0.9,11.4v74.8c0,2.7,0.1,4.9,0.2,6.6c0.1,1.7,0.3,3.1,0.6,4.2c0.3,1.1,0.7,2,1.3,2.6
				c0.6,0.6,1.4,1.3,2.4,1.9c2.4,1.4,5,2,7.9,2h4.1v3.2h-49.7v-3.2h4.1c2,0,3.7-0.1,5.2-0.4c1.5-0.3,2.8-1,4-2.2
				c1.1-1.1,1.9-2.9,2.5-5.2c0.6-2.3,0.8-5.5,0.8-9.5v-35.4h-53.9v35.4c0,2.7,0,4.9,0.1,6.6c0.1,1.7,0.3,3.1,0.6,4.2
				c0.3,1.1,0.8,2,1.5,2.6s1.5,1.3,2.5,1.9c2.4,1.4,5,2,7.8,2h4.2v3.2h-49.8v-3.2h4.2c4.7,0,8.1-1.4,10.3-4.2c1.4-1.7,2-6.1,2-13.1
				V2840c0-2.8,0-5.1-0.1-6.8c-0.1-1.7-0.3-3.1-0.6-4.2c-0.3-1.1-0.8-1.9-1.4-2.6c-0.6-0.6-1.4-1.3-2.4-1.9c-2.4-1.4-5-2-7.8-2h-4.2
				v-3.2h49.8v3.2h-4.2c-1,0-2.1,0.1-3.4,0.4c-1.2,0.3-2.4,0.6-3.4,1.1c-1.1,0.5-2,1.1-2.9,1.9c-0.9,0.8-1.4,1.7-1.8,2.7
				c-0.7,2-1,5.8-1,11.4V2873.2z"/>
			<path d="M1134.7,2825.7v45.8h25.4c3.7,0,6.8-0.3,9.1-1c2.3-0.7,4.1-1.7,5.4-3.1c1.3-1.4,2.2-3.1,2.7-5.2c0.5-2.1,0.8-4.6,1-7.5
				h3.2v40.3h-3.2c-0.4-3.3-0.9-6.1-1.5-8.3c-0.6-2.2-1.4-4-2.7-5.3c-1.2-1.3-3-2.3-5.2-2.8c-2.2-0.6-5.2-0.8-8.9-0.8h-25.4v38.3
				c0,2.9,0,5.2,0.1,6.9c0.1,1.7,0.4,3,1,3.9c0.6,0.9,1.5,1.5,2.8,1.7c1.3,0.3,3.1,0.4,5.6,0.4h19.7c3.3,0,6.1-0.1,8.4-0.3
				c2.3-0.2,4.3-0.5,5.9-1c1.7-0.5,3.1-1.2,4.4-2.1s2.6-2,4.1-3.4c3.4-3.3,7-8.6,10.8-16h3.4l-10.1,29.1h-89.3v-3.2h4.1
				c1.1,0,2.3-0.1,3.4-0.4c1.2-0.3,2.3-0.6,3.4-1.1c1.1-0.5,2-1.1,2.9-1.9c0.8-0.8,1.4-1.7,1.8-2.7c0.7-1.9,1-5.6,1-11.2v-75.3
				c0-7.4-0.7-12-2.2-13.7c-2-2.3-5.5-3.4-10.3-3.4h-4.1v-3.2h89.3v25.4h-2c-0.9-4.2-1.8-7.5-2.7-10c-1-2.5-2.3-4.4-3.9-5.8
				c-1.6-1.4-3.7-2.2-6.2-2.6c-2.5-0.4-5.7-0.6-9.6-0.6H1134.7z"/>
			<path d="M1202.7,2819.3h31.4l71,87v-66.9c0-3.9-0.3-7-0.8-9.3c-0.6-2.3-1.4-4-2.4-5.1c-1.1-1.1-2.4-1.8-3.9-2.1
				c-1.5-0.3-3.3-0.4-5.2-0.4h-4.1v-3.2h40.5v3.2h-4.2c-2,0-3.8,0.2-5.4,0.5c-1.5,0.3-2.8,1.1-3.8,2.3c-1,1.2-1.8,2.9-2.3,5.1
				c-0.5,2.2-0.8,5.2-0.8,9.1v97.8h-3.1l-76.5-93.4v71.5c0,4,0.3,7.1,0.8,9.4c0.6,2.3,1.3,3.9,2.4,5c1,1.1,2.3,1.8,3.8,2
				c1.5,0.3,3.3,0.4,5.2,0.4h4.1v3.2h-40.3v-3.2h4.1c2,0,3.8-0.2,5.4-0.5c1.5-0.3,2.8-1.1,3.9-2.2c1.1-1.1,1.9-2.8,2.4-5
				c0.5-2.2,0.8-5.2,0.8-9.1v-80.7c-1.7-2-3.1-3.7-4.3-4.8c-1.1-1.2-2.2-2.2-3.3-2.9c-1-0.8-2.1-1.4-3.3-1.9
				c-1.2-0.5-2.7-1.1-4.5-1.7c-1.7-0.5-4.2-0.8-7.5-0.8V2819.3z"/>
			<path d="M1411.9,2825.7v45.8h25.4c3.7,0,6.8-0.3,9.1-1c2.3-0.7,4.1-1.7,5.4-3.1c1.3-1.4,2.2-3.1,2.7-5.2c0.5-2.1,0.8-4.6,1-7.5
				h3.2v40.3h-3.2c-0.4-3.3-0.9-6.1-1.5-8.3c-0.6-2.2-1.4-4-2.7-5.3c-1.2-1.3-3-2.3-5.2-2.8c-2.2-0.6-5.2-0.8-8.9-0.8h-25.4v38.3
				c0,2.9,0,5.2,0.1,6.9c0.1,1.7,0.4,3,1,3.9c0.6,0.9,1.5,1.5,2.8,1.7c1.3,0.3,3.1,0.4,5.6,0.4h19.7c3.3,0,6.1-0.1,8.4-0.3
				c2.3-0.2,4.3-0.5,5.9-1c1.7-0.5,3.1-1.2,4.4-2.1s2.6-2,4.1-3.4c3.4-3.3,7-8.6,10.8-16h3.4l-10.1,29.1h-89.3v-3.2h4.1
				c1.1,0,2.3-0.1,3.4-0.4c1.2-0.3,2.3-0.6,3.4-1.1c1.1-0.5,2-1.1,2.9-1.9c0.8-0.8,1.4-1.7,1.8-2.7c0.7-1.9,1-5.6,1-11.2v-75.3
				c0-7.4-0.7-12-2.2-13.7c-2-2.3-5.5-3.4-10.3-3.4h-4.1v-3.2h89.3v25.4h-2c-0.9-4.2-1.8-7.5-2.7-10c-1-2.5-2.3-4.4-3.9-5.8
				c-1.6-1.4-3.7-2.2-6.2-2.6c-2.5-0.4-5.7-0.6-9.6-0.6H1411.9z"/>
			<path d="M1536.3,2932.2v3.2h-49.7v-3.2h4.1c2,0,3.8-0.1,5.4-0.4c1.6-0.3,2.9-1,3.9-2.2c1-1.1,1.8-2.9,2.4-5.2
				c0.6-2.3,0.8-5.5,0.8-9.5v-74.9c0-2.6-0.1-4.8-0.2-6.6c-0.1-1.7-0.3-3.2-0.6-4.3c-0.3-1.1-0.7-2-1.3-2.6
				c-0.6-0.6-1.4-1.3-2.4-1.9c-2.6-1.4-5.2-2-7.9-2h-4.1v-3.2h49.7v3.2h-4.1c-2,0-3.9,0.2-5.4,0.5c-1.6,0.3-2.9,1.1-3.9,2.2
				c-1,1.1-1.8,2.9-2.4,5.2c-0.6,2.3-0.8,5.5-0.8,9.4v74.9c0,2.7,0,4.9,0.1,6.6c0.1,1.7,0.3,3.1,0.6,4.2c0.3,1.1,0.8,2,1.5,2.6
				c0.6,0.6,1.5,1.3,2.5,1.9c2.4,1.4,5,2,7.8,2H1536.3z"/>
			<path d="M1648.1,2816.8l3.1,36.5h-3.1c-3.5-10.7-8.4-18.5-14.9-23.3c-6.4-4.8-14.2-7.2-23.4-7.2c-6.8,0-12.9,1.3-18.3,4
				s-9.9,6.4-13.7,11.1c-3.7,4.7-6.6,10.3-8.6,16.7c-2,6.4-2.9,13.4-2.9,20.9c0,11,2.2,21.1,6.5,30.3c2.1,4.6,4.6,8.6,7.5,11.9
				c2.9,3.3,5.9,6.1,9.3,8.2c3.3,2.2,6.8,3.8,10.4,4.8c3.6,1,7.3,1.5,10.9,1.5c8.5,0,16.5-2.1,24-6.4v-33.6c0-2.9-0.1-5.3-0.3-7.1
				c-0.2-1.8-0.6-3.3-1-4.3c-0.5-1.1-1-1.9-1.7-2.4c-0.7-0.6-1.5-1.1-2.4-1.6c-1.9-0.9-5.1-1.4-9.7-1.4v-3.3h44.9v3.3h-2.2
				c-2,0-3.6,0.2-5,0.6c-1.4,0.4-2.5,1.2-3.4,2.4c-0.9,1.2-1.5,2.9-1.9,5.1c-0.4,2.2-0.6,5.1-0.6,8.7v35.5c-3.3,1.8-6.6,3.3-9.8,4.7
				c-3.2,1.3-6.4,2.4-9.6,3.1c-6.6,1.7-13.7,2.6-21.3,2.6c-9.7,0-18.5-1.5-26.4-4.5c-7.9-3-14.6-7.1-20.2-12.4
				c-5.6-5.3-10-11.5-13-18.6c-3.1-7.1-4.6-14.9-4.6-23.4c0-10.1,2.5-19.9,7.4-29.4c5.7-11.1,13.7-19.6,23.9-25.7
				c8.5-4.9,18.5-7.4,30.1-7.4c2.3,0,4.3,0.1,6.1,0.2s3.6,0.4,5.6,0.8s4,0.9,6.3,1.7c2.3,0.7,5,1.7,8.2,2.9c3.2,1.3,5.4,1.9,6.5,1.8
				c1,0,1.9-0.5,2.7-1.5c0.8-1,1.2-2.9,1.4-5.8H1648.1z"/>
			<path d="M1703.1,2873.2h53.9V2840c0-2.7,0-5-0.1-6.7c-0.1-1.7-0.3-3.2-0.6-4.3c-0.3-1.1-0.8-2-1.5-2.6c-0.6-0.6-1.5-1.3-2.5-1.9
				c-2.4-1.4-5-2-7.8-2h-4.1v-3.2h49.7v3.2h-4.1c-1.1,0-2.3,0.1-3.5,0.4c-1.2,0.3-2.4,0.6-3.4,1.1c-1.1,0.5-2,1.1-2.9,1.9
				c-0.9,0.8-1.4,1.7-1.8,2.7c-0.6,1.8-0.9,5.6-0.9,11.4v74.8c0,2.7,0.1,4.9,0.2,6.6c0.1,1.7,0.3,3.1,0.6,4.2c0.3,1.1,0.7,2,1.3,2.6
				c0.6,0.6,1.4,1.3,2.4,1.9c2.4,1.4,5,2,7.9,2h4.1v3.2h-49.7v-3.2h4.1c2,0,3.7-0.1,5.2-0.4c1.5-0.3,2.8-1,4-2.2
				c1.1-1.1,1.9-2.9,2.5-5.2c0.6-2.3,0.8-5.5,0.8-9.5v-35.4h-53.9v35.4c0,2.7,0,4.9,0.1,6.6c0.1,1.7,0.3,3.1,0.6,4.2
				c0.3,1.1,0.8,2,1.5,2.6s1.5,1.3,2.5,1.9c2.4,1.4,5,2,7.8,2h4.2v3.2H1670v-3.2h4.2c4.7,0,8.1-1.4,10.3-4.2c1.4-1.7,2-6.1,2-13.1
				V2840c0-2.8,0-5.1-0.1-6.8c-0.1-1.7-0.3-3.1-0.6-4.2c-0.3-1.1-0.8-1.9-1.4-2.6c-0.6-0.6-1.4-1.3-2.4-1.9c-2.4-1.4-5-2-7.8-2h-4.2
				v-3.2h49.8v3.2h-4.2c-1,0-2.1,0.1-3.4,0.4c-1.2,0.3-2.4,0.6-3.4,1.1c-1.1,0.5-2,1.1-2.9,1.9c-0.9,0.8-1.4,1.7-1.8,2.7
				c-0.7,2-1,5.8-1,11.4V2873.2z"/>
			<path d="M1894.9,2819.3v27.3h-1.9c-0.9-7.3-3.1-12.5-6.4-15.5c-3.4-3-8.3-4.5-14.9-4.5h-16.3v88.7c0,3.9,0.3,7,0.8,9.3
				c0.6,2.3,1.3,3.9,2.4,5c1,1.1,2.3,1.8,3.8,2.1c1.5,0.3,3.3,0.4,5.4,0.4h4v3.2h-49.1v-3.2h4.1c2,0,3.8-0.2,5.4-0.5
				c1.5-0.3,2.8-1.1,3.8-2.2c1-1.1,1.8-2.8,2.4-5c0.6-2.2,0.8-5.2,0.8-9.1v-88.7h-13.9c-3.5,0-6.6,0.3-9.3,0.8c-2.7,0.6-5,1.6-7,3.1
				c-2,1.5-3.5,3.5-4.7,6.1c-1.1,2.6-1.9,5.9-2.1,10h-3.2v-27.3H1894.9z"/>
			<path d="M1977.1,2873.2h53.9V2840c0-2.7,0-5-0.1-6.7c-0.1-1.7-0.3-3.2-0.6-4.3c-0.3-1.1-0.8-2-1.5-2.6c-0.6-0.6-1.5-1.3-2.5-1.9
				c-2.4-1.4-5-2-7.8-2h-4.1v-3.2h49.7v3.2h-4.1c-1.1,0-2.3,0.1-3.5,0.4c-1.2,0.3-2.4,0.6-3.4,1.1c-1.1,0.5-2,1.1-2.9,1.9
				c-0.9,0.8-1.4,1.7-1.8,2.7c-0.6,1.8-0.9,5.6-0.9,11.4v74.8c0,2.7,0.1,4.9,0.2,6.6c0.1,1.7,0.3,3.1,0.6,4.2c0.3,1.1,0.7,2,1.3,2.6
				c0.6,0.6,1.4,1.3,2.4,1.9c2.4,1.4,5,2,7.9,2h4.1v3.2h-49.7v-3.2h4.1c2,0,3.7-0.1,5.2-0.4c1.5-0.3,2.8-1,4-2.2
				c1.1-1.1,1.9-2.9,2.5-5.2c0.6-2.3,0.8-5.5,0.8-9.5v-35.4h-53.9v35.4c0,2.7,0,4.9,0.1,6.6c0.1,1.7,0.3,3.1,0.6,4.2
				c0.3,1.1,0.8,2,1.5,2.6s1.5,1.3,2.5,1.9c2.4,1.4,5,2,7.8,2h4.2v3.2h-49.8v-3.2h4.2c4.7,0,8.1-1.4,10.3-4.2c1.4-1.7,2-6.1,2-13.1
				V2840c0-2.8,0-5.1-0.1-6.8c-0.1-1.7-0.3-3.1-0.6-4.2c-0.3-1.1-0.8-1.9-1.4-2.6c-0.6-0.6-1.4-1.3-2.4-1.9c-2.4-1.4-5-2-7.8-2h-4.2
				v-3.2h49.8v3.2h-4.2c-1,0-2.1,0.1-3.4,0.4c-1.2,0.3-2.4,0.6-3.4,1.1c-1.1,0.5-2,1.1-2.9,1.9c-0.9,0.8-1.4,1.7-1.8,2.7
				c-0.7,2-1,5.8-1,11.4V2873.2z"/>
			<path d="M2121.6,2932.2v3.2H2072v-3.2h4.1c2,0,3.8-0.1,5.4-0.4c1.6-0.3,2.9-1,3.9-2.2c1-1.1,1.8-2.9,2.4-5.2
				c0.6-2.3,0.8-5.5,0.8-9.5v-74.9c0-2.6-0.1-4.8-0.2-6.6c-0.1-1.7-0.3-3.2-0.6-4.3c-0.3-1.1-0.7-2-1.3-2.6
				c-0.6-0.6-1.4-1.3-2.4-1.9c-2.6-1.4-5.2-2-7.9-2h-4.1v-3.2h49.7v3.2h-4.1c-2,0-3.9,0.2-5.4,0.5c-1.6,0.3-2.9,1.1-3.9,2.2
				c-1,1.1-1.8,2.9-2.4,5.2c-0.6,2.3-0.8,5.5-0.8,9.4v74.9c0,2.7,0,4.9,0.1,6.6c0.1,1.7,0.3,3.1,0.6,4.2c0.3,1.1,0.8,2,1.5,2.6
				c0.6,0.6,1.5,1.3,2.5,1.9c2.4,1.4,5,2,7.8,2H2121.6z"/>
			<path d="M2123.7,2819.3h31.4l71,87v-66.9c0-3.9-0.3-7-0.8-9.3c-0.6-2.3-1.4-4-2.4-5.1c-1.1-1.1-2.4-1.8-3.9-2.1
				c-1.5-0.3-3.3-0.4-5.2-0.4h-4.1v-3.2h40.5v3.2h-4.2c-2,0-3.8,0.2-5.4,0.5c-1.5,0.3-2.8,1.1-3.8,2.3c-1,1.2-1.8,2.9-2.3,5.1
				c-0.5,2.2-0.8,5.2-0.8,9.1v97.8h-3.1l-76.5-93.4v71.5c0,4,0.3,7.1,0.8,9.4c0.6,2.3,1.3,3.9,2.4,5c1,1.1,2.3,1.8,3.8,2
				c1.5,0.3,3.3,0.4,5.2,0.4h4.1v3.2H2130v-3.2h4.1c2,0,3.8-0.2,5.4-0.5c1.5-0.3,2.8-1.1,3.9-2.2c1.1-1.1,1.9-2.8,2.4-5
				c0.5-2.2,0.8-5.2,0.8-9.1v-80.7c-1.7-2-3.1-3.7-4.3-4.8c-1.1-1.2-2.2-2.2-3.3-2.9c-1-0.8-2.1-1.4-3.3-1.9
				c-1.2-0.5-2.7-1.1-4.5-1.7c-1.7-0.5-4.2-0.8-7.5-0.8V2819.3z"/>
			<path d="M2359.9,2816.8l3.1,36.5h-3.1c-3.5-10.7-8.4-18.5-14.9-23.3c-6.4-4.8-14.2-7.2-23.4-7.2c-6.8,0-12.9,1.3-18.3,4
				c-5.4,2.7-9.9,6.4-13.7,11.1c-3.7,4.7-6.6,10.3-8.6,16.7c-2,6.4-2.9,13.4-2.9,20.9c0,11,2.2,21.1,6.5,30.3
				c2.1,4.6,4.6,8.6,7.5,11.9c2.8,3.3,5.9,6.1,9.3,8.2s6.8,3.8,10.4,4.8c3.6,1,7.3,1.5,10.9,1.5c8.5,0,16.5-2.1,24-6.4v-33.6
				c0-2.9-0.1-5.3-0.3-7.1c-0.2-1.8-0.6-3.3-1-4.3c-0.5-1.1-1-1.9-1.7-2.4c-0.7-0.6-1.5-1.1-2.4-1.6c-1.9-0.9-5.1-1.4-9.7-1.4v-3.3
				h44.9v3.3h-2.2c-2,0-3.6,0.2-5,0.6c-1.4,0.4-2.5,1.2-3.4,2.4c-0.9,1.2-1.5,2.9-1.9,5.1c-0.4,2.2-0.6,5.1-0.6,8.7v35.5
				c-3.3,1.8-6.6,3.3-9.8,4.7c-3.2,1.3-6.4,2.4-9.6,3.1c-6.6,1.7-13.7,2.6-21.3,2.6c-9.7,0-18.5-1.5-26.4-4.5
				c-7.9-3-14.6-7.1-20.2-12.4c-5.6-5.3-10-11.5-13-18.6c-3.1-7.1-4.6-14.9-4.6-23.4c0-10.1,2.5-19.9,7.4-29.4
				c5.7-11.1,13.7-19.6,23.9-25.7c8.5-4.9,18.5-7.4,30.1-7.4c2.3,0,4.3,0.1,6.1,0.2c1.8,0.1,3.6,0.4,5.6,0.8c1.9,0.4,4,0.9,6.3,1.7
				c2.3,0.7,5,1.7,8.2,2.9c3.2,1.3,5.4,1.9,6.5,1.8c1,0,1.9-0.5,2.7-1.5c0.8-1,1.2-2.9,1.4-5.8H2359.9z"/>
			<path d="M2415.6,2825.7v45.8h25.4c3.7,0,6.8-0.3,9.1-1c2.3-0.7,4.1-1.7,5.4-3.1c1.3-1.4,2.2-3.1,2.7-5.2c0.5-2.1,0.8-4.6,1-7.5
				h3.2v40.3h-3.2c-0.4-3.3-0.9-6.1-1.5-8.3c-0.6-2.2-1.4-4-2.7-5.3c-1.2-1.3-3-2.3-5.2-2.8c-2.2-0.6-5.2-0.8-8.9-0.8h-25.4v38.3
				c0,2.9,0,5.2,0.1,6.9c0.1,1.7,0.4,3,1,3.9c0.6,0.9,1.5,1.5,2.8,1.7c1.3,0.3,3.1,0.4,5.6,0.4h19.7c3.3,0,6.1-0.1,8.4-0.3
				c2.3-0.2,4.3-0.5,5.9-1s3.1-1.2,4.4-2.1s2.6-2,4.1-3.4c3.4-3.3,7-8.6,10.8-16h3.4l-10.1,29.1h-89.3v-3.2h4.1
				c1.1,0,2.3-0.1,3.4-0.4c1.2-0.3,2.3-0.6,3.4-1.1c1.1-0.5,2-1.1,2.9-1.9c0.8-0.8,1.4-1.7,1.8-2.7c0.7-1.9,1-5.6,1-11.2v-75.3
				c0-7.4-0.7-12-2.2-13.7c-2-2.3-5.5-3.4-10.3-3.4h-4.1v-3.2h89.3v25.4h-2c-0.9-4.2-1.8-7.5-2.7-10c-1-2.5-2.3-4.4-3.9-5.8
				c-1.6-1.4-3.7-2.2-6.2-2.6c-2.5-0.4-5.7-0.6-9.6-0.6H2415.6z"/>
			<path d="M2565.5,2881.1v33.7c0,7.4,0.8,12,2.4,13.7c2.2,2.5,5.5,3.7,9.8,3.7h4.5v3.2h-49.7v-3.2h4.3c4.9,0,8.3-1.6,10.5-4.7
				c1.2-1.9,1.8-6.1,1.8-12.6v-74.9c0-7.2-0.8-11.7-2.3-13.5c-2.3-2.6-5.6-3.8-10-3.8h-4.3v-3.2h42.5c10.2,0,18.4,1.1,24.5,3.3
				c3,1,5.8,2.4,8.4,4.3c2.6,1.8,4.9,4,6.8,6.5c1.9,2.5,3.4,5.3,4.5,8.3c1.1,3,1.7,6.3,1.7,9.8c0,4.7-0.8,9-2.4,12.9
				c-1.6,3.9-4,7.3-7,10.1c-3.1,2.8-6.8,5-11.2,6.6c-4.4,1.6-9.5,2.4-15.2,2.4C2579.5,2883.4,2573,2882.6,2565.5,2881.1z
				 M2565.5,2876.1c3.1,0.6,5.7,1,8,1.3c2.3,0.3,4.3,0.4,6,0.4c3,0,5.8-0.6,8.4-1.9c2.6-1.2,5-2.9,7-5.1c2-2.2,3.6-4.8,4.7-7.8
				c1.1-3.1,1.7-6.4,1.7-10c0-4.3-0.6-8-1.9-11.4c-1.3-3.3-3-6.1-5.2-8.4c-2.2-2.3-4.8-4-7.8-5.2c-3-1.2-6.2-1.8-9.7-1.8
				c-2.9,0-6.6,0.5-11.2,1.5V2876.1z"/>
			<path d="M2691.1,2896.5h-44.9l-7.9,18.3c-1.9,4.5-2.8,7.9-2.8,10.1c0,0.9,0.1,1.8,0.4,2.6c0.3,0.8,0.9,1.5,1.9,2.1
				c1,0.6,2.3,1.2,4.1,1.7c1.7,0.5,4.1,0.8,7,1v3.2h-36.5v-3.2c2.9-0.4,5.2-1.1,7-1.9c1.8-0.8,3.3-2,4.6-3.5
				c1.3-1.5,2.4-3.4,3.5-5.8c1.1-2.4,2.4-5.3,3.9-8.8l40.8-95.3h2.9l40.3,96.4c1.6,4,3.1,7.2,4.5,9.6c1.4,2.4,2.8,4.3,4.3,5.7
				c1.5,1.4,3.1,2.3,4.9,2.8c1.7,0.5,3.8,0.8,6.3,0.9v3.2h-45.8v-3.2c4.6-0.2,7.7-0.9,9.4-2.2c1.7-1.3,2.5-2.9,2.5-4.8
				c-0.1-2.5-1.2-6.5-3.4-12L2691.1,2896.5z M2688.7,2890.2l-19.7-46.8l-20.2,46.8H2688.7z"/>
			<path d="M2819.4,2819.3v27.3h-1.9c-0.9-7.3-3.1-12.5-6.4-15.5c-3.4-3-8.3-4.5-14.9-4.5h-16.3v88.7c0,3.9,0.3,7,0.8,9.3
				c0.6,2.3,1.3,3.9,2.4,5c1,1.1,2.3,1.8,3.8,2.1c1.5,0.3,3.3,0.4,5.4,0.4h4v3.2H2747v-3.2h4.1c2,0,3.8-0.2,5.4-0.5
				c1.5-0.3,2.8-1.1,3.8-2.2c1-1.1,1.8-2.8,2.4-5c0.6-2.2,0.8-5.2,0.8-9.1v-88.7h-13.9c-3.5,0-6.6,0.3-9.3,0.8c-2.7,0.6-5,1.6-7,3.1
				c-2,1.5-3.5,3.5-4.7,6.1c-1.1,2.6-1.9,5.9-2.1,10h-3.2v-27.3H2819.4z"/>
			<path d="M2930.5,2816.8l2.7,39.4h-2.7c-3.6-11.8-8.6-20.3-15.1-25.5c-6.5-5.2-14.4-7.8-23.5-7.8c-6,0-11.4,1.1-16.5,3.4
				c-5,2.3-9.3,5.7-13,10.4c-3.6,4.7-6.4,10.6-8.5,17.6c-2,7.1-3.1,15.4-3.1,25c0,7.7,1,14.8,2.9,21.1c1.9,6.3,4.7,11.7,8.4,16.1
				c3.7,4.5,8.2,7.9,13.6,10.3c5.4,2.4,11.5,3.6,18.5,3.6c7.3,0,14-1.6,19.9-4.8c5.7-3,12-9.4,19-19.1l2.7,1.7
				c-5.9,10.3-12.7,17.8-20.4,22.7c-7.7,4.8-16.9,7.2-27.6,7.2c-8.3,0-15.8-1.4-22.7-4.3s-12.8-7-17.8-12.2
				c-5-5.2-8.9-11.4-11.7-18.6c-2.8-7.2-4.2-15.1-4.2-23.7c0-11.7,2.6-22.3,7.8-31.9c5.1-9.7,12.2-17.2,21.3-22.5
				c9.2-5.4,19.1-8,29.9-8c8.4,0,16.7,2,24.8,6.1c2.4,1.3,4.1,1.9,5.1,1.9c1.9,0,3.4-0.8,4.7-2.3c1.2-1.5,2.1-3.4,2.6-5.7H2930.5z"
				/>
			<path d="M2977.8,2873.2h53.9V2840c0-2.7,0-5-0.1-6.7c-0.1-1.7-0.3-3.2-0.6-4.3c-0.3-1.1-0.8-2-1.5-2.6c-0.6-0.6-1.5-1.3-2.5-1.9
				c-2.4-1.4-5-2-7.8-2h-4.1v-3.2h49.7v3.2h-4.1c-1.1,0-2.3,0.1-3.5,0.4c-1.2,0.3-2.4,0.6-3.4,1.1c-1.1,0.5-2,1.1-2.9,1.9
				c-0.9,0.8-1.4,1.7-1.8,2.7c-0.6,1.8-0.9,5.6-0.9,11.4v74.8c0,2.7,0.1,4.9,0.2,6.6c0.1,1.7,0.3,3.1,0.6,4.2c0.3,1.1,0.7,2,1.3,2.6
				c0.6,0.6,1.4,1.3,2.4,1.9c2.4,1.4,5,2,7.9,2h4.1v3.2h-49.7v-3.2h4.1c2,0,3.7-0.1,5.2-0.4c1.5-0.3,2.8-1,4-2.2
				c1.1-1.1,1.9-2.9,2.5-5.2c0.6-2.3,0.8-5.5,0.8-9.5v-35.4h-53.9v35.4c0,2.7,0,4.9,0.1,6.6c0.1,1.7,0.3,3.1,0.6,4.2
				c0.3,1.1,0.8,2,1.5,2.6c0.6,0.6,1.5,1.3,2.5,1.9c2.4,1.4,5,2,7.8,2h4.2v3.2h-49.8v-3.2h4.2c4.7,0,8.1-1.4,10.3-4.2
				c1.4-1.7,2-6.1,2-13.1V2840c0-2.8,0-5.1-0.1-6.8c-0.1-1.7-0.3-3.1-0.6-4.2c-0.3-1.1-0.8-1.9-1.4-2.6c-0.6-0.6-1.4-1.3-2.4-1.9
				c-2.4-1.4-5-2-7.8-2h-4.2v-3.2h49.8v3.2h-4.2c-1,0-2.1,0.1-3.4,0.4c-1.2,0.3-2.4,0.6-3.4,1.1c-1.1,0.5-2,1.1-2.9,1.9
				c-0.9,0.8-1.4,1.7-1.8,2.7c-0.7,2-1,5.8-1,11.4V2873.2z"/>
		</g>
	</g>
</g>
<g id="SOPORTE-PARED">
</g>
<g id="MEDIDAS">
</g>
<g id="PROCESOS">
</g>
</svg>
