<?xml version="1.0" encoding="utf-8"?>
<!-- Generator: Adobe Illustrator 26.5.0, SVG Export Plug-In . SVG Version: 6.00 Build 0)  -->
<svg version="1.1" xmlns="http://www.w3.org/2000/svg" xmlns:xlink="http://www.w3.org/1999/xlink" x="0px" y="0px"
	 viewBox="0 0 6635 2947" style="enable-background:new 0 0 6635 2947;" xml:space="preserve">
<style type="text/css">
	.st0{fill:none;stroke:#000000;stroke-width:69.7277;stroke-miterlimit:10;}
	.st1{fill:none;stroke:#000000;stroke-width:12.1384;stroke-miterlimit:10;}
	.st2{fill:#FFFFFF;}
	.st3{fill:none;stroke:#000000;stroke-width:20.1186;stroke-miterlimit:10;}
	.st4{fill:none;stroke:#000000;stroke-width:11.9702;stroke-miterlimit:10;}
	.st5{stroke:#000000;stroke-width:11.9702;stroke-miterlimit:10;}
	.st6{fill:none;}
</style>
<g id="CIRCULOS-SELECCION4">
</g>
<g id="CLOSET">
	<g id="LATERAL-DERECHA">
	</g>
	<g id="BASE">
	</g>
	<g id="DIVISIONES-VERTICALES">
		<g id="DIVISION-VERTICAL-DERECHA">
		</g>
		<g id="DIVISION-CENTRAL">
		</g>
		<g id="DIVISION-VERTICAL-IZQUIERDA_00000085229740836627909760000005526871516412138418_">
		</g>
	</g>
	<g id="DIVISIONES-HORIZONTALES">
	</g>
	<g id="LATERAL-IZQUIERDA">
	</g>
	<g id="TECHO">
	</g>
	<g id="SOPORTES-COOK">
	</g>
</g>
<g id="TABLITAS-TRASERAS">
</g>
<g id="TRIPLEX_00000062169277959621118470000012963048032068378272_">
</g>
<g id="PUNTILLAS">
</g>
<g id="SOPORTE-MUEBLE">
	
		<image style="display:none;overflow:visible;" width="500" height="428" xlink:href="F63BF6EB.jpg"  transform="matrix(-2.8056 3.1786 -3.1786 -2.8056 6512.9644 1191.9578)">
	</image>
	<g id="TORNILLOSMET3">
		<circle class="st0" cx="1585.2" cy="1491.7" r="1408.5"/>
	</g>
	<g>
		<path class="st1" d="M1585.7,1703.9"/>
		<path class="st1" d="M1580.7,1700.7"/>
		<path class="st1" d="M1580.3,1404.8"/>
		<g>
			<g>
				<path class="st2" d="M2667.5,1316l-3.7-236.4c0,0-6.5-61.2-61-74.5c-54.5-13.3-256.6-28.5-256.6-28.5s-65.2,2.8-67.5,77.8
					c2.3,86.4,3.3,156.2,3.3,156.2s-191.6-25.2-285.3,131.5c-1.4,22.8-2.1,73-2.1,73s-52.9-5.7-92.1-9.8h-295.3
					c-21.2-2.2-38.4-4-41-4.1c-4.1-0.2-5.3-0.6-5.6-0.9l0.1-0.5c0,0-0.1,0.1-0.1,0.1c0-0.1,0.1-0.1,0.1-0.1s2.8-4.3-3.8-18.5
					c-5.8-12.5-76.8-18.2-94.5-19.4l4.2-21.9c0.7-0.4,1.4-0.8,2.2-1.2c0.9-5.4,1-9.5,0.4-12.5l0,0h0c-1.8-9.1-9.4-8.7-16.7-8.4
					c-9.8,0.5-16.3-3.8-16.3-3.8s-1.4-8.1-18.2-10.4c-40.5,4.7-93.1-4.3-93.1-4.3s-28.4-6.6-62.9,0.5c-42.8,1-72.7-2.8-72.7-2.8
					s-9.5-1.2-25.4-3.3c23.7,3.1,31.4-10.1,32.6-15.9l0.2,0.2c0,0,48.9,0,56.8-24.9c0.5-24.4-0.5-197.2,0-253.5
					c-7.7-54.1-53.8-80.5-53.8-80.5l-78-9.3c0,0-135.5-10.6-152.3-11.6c-16.8-1-10.6-7.1-10.6-7.1l-47.2-5.7c0,0-8.8-7.6-59.4,11.9
					c-50.5,19.5-37.6,56.9-37.6,56.9l0,0c-7.2,21.9-0.6,61.7-0.6,61.7s0,34.2,4.5,37.4c8.7-2.8,16.4,20.3,16.4,20.3s1.4,43.1,0,53.8
					c-1.4,10.7-14,16.2-14,16.2s-1.4,33.3-1.4,59.4c-4.9,26.8-23.1,23.1-23.1,23.1l367.2,67.7c-78.9-10.3-315.7-41.5-325.8-47
					c-12.1-6.6-27.9-8.5-73.6-10.4c-8.8-0.4-16.6-1.2-23.4-2.4l53.7,4c0,0,2.1-10.3,1.8-18.2l4.7,1.3c0,0,3.3-5.5-2.3-17.9
					c-5.6-12.4-27-15.6-45.1-14.7c-18,1-18.3,14.7-18.3,14.7l10.5,2.9c-6.3,6.5-5.2,27.9-5.2,28c-28.6-4.8-40.8-14.7-40.8-14.7
					l-142.5-21.8l-85.7-5.7c0,0-114.6,41.3-129.5,46.5c-7.5,2.6-10.5,4.8-11.7,6.3l0,0l0,0c-1.1,1.5-0.4,2.3-0.4,2.3l4.7,268.7
					c0,0-1.9,27.5,36.3,25.6c12.7-0.6,98.1,12.9,206.5,31.2c13.3,36.4,110.4,116,110.4,116l140,127.2c0,0,9.8,44.6,59.1,52.2
					c62.1,23.3,167.7,33.6,223.5,37.6l0,0c0,0,0.5,0,1.3,0.1c21.9,1.6,35.8,2.1,35.8,2.1s54.5,6.4,89.8-24.9
					c35.3-31.3,21.3-81.9,21.3-81.9s-8-60.9-18.9-80.4c-10.8-19.6,2-40.1,2-40.1l0,0c71.8,7.7,147.1,15.6,155.7,15.6
					c0,0,21.1,11.2,50.4,18.4l-0.1,0c0,0,1.8,16.3,16.7,16.3c14.9,0,39.6,0,39.6,0s13.6,2,19.4-13.2l0,0
					c14.1-3.1,27.9-8.9,40.5-18.3l42.7-1.7h295.3l89.8-3.6l0,1.1c0,0,0.2,12.3,6.6,19c0.3,9.6-3.3,59-3.3,59
					s107.4,187.7,281.6,203.3l9.5,10.8c0.7,77.4-0.1,174.2-0.1,174.2s8.4,61.7,58.7,64.6c37.7,10.9,230.5,38.7,230.5,38.7
					s54.5,12.1,82.4-39.9C2677.7,2196.1,2667.5,1316,2667.5,1316z"/>
				<path class="st2" d="M614.3,1058.8c-74.1,46.3-56.6,138.6-56.6,138.6l256.4-266.8C814.1,930.6,688.4,1012.5,614.3,1058.8z"/>
				<path class="st2" d="M782.7,1003.2l-62.9,40.2c0,0-26.1,6.3-22.8,61.9c-7,74,40.5,86.4,40.5,86.4l11.1-26
					c16.9,2.5,71.6,5,71.6,5l-7-150.2c0,0-1.5,1-3.8,2.6l2.1-5C803.6,992.8,782.7,1003.2,782.7,1003.2z"/>
			</g>
			<path class="st3" d="M2179.7,1430.4l-183.6-12.9c0,0-52.9-5.7-92.1-9.8h-295.3c-21.2-2.2-38.4-4-41-4.1c-7.3-0.4-5.6-1.4-5.6-1.4
				s2.8-4.3-3.8-18.5c-6.6-14.2-98.5-19.7-98.5-19.7s-10.2-13.3,10.5-22.8c3.7-21.8-6.5-21.4-16.3-20.9c-9.8,0.5-16.3-3.8-16.3-3.8
				s-1.4-8.1-18.2-10.4c-40.5,4.7-93.1-4.3-93.1-4.3s-28.4-6.6-62.9,0.5c-42.8,0.9-72.7-2.8-72.7-2.8s-339.1-43.7-351.2-50.3
				c-12.1-6.6-27.9-8.5-73.6-10.4c-45.6-1.9-64.3-17.1-64.3-17.1l-142.5-21.8l-85.7-5.7c0,0-114.6,41.3-129.5,46.5
				c-14.9,5.2-12.1,8.5-12.1,8.5l4.7,268.7c0,0-1.9,27.5,36.3,25.6c38.2-1.9,735.9,124.4,735.9,124.4s273.8,30.4,290.6,30.4
				c0,0,100.1,52.9,166.5,3.1l42.7-1.7H1904l106.6-4.2c0,0,71.7-13.3,166.7-11.4c1.9,5.7,3.3,8.5,3.3,8.5s46.6,2.4,82.4-4.3
				c14.4-9,17.2-18,17.2-18s-1.9-15.7-4.7-14.7c-2.8,0.9-11.2,6.2-23.3,10s-69.9,1.4-69.9,1.4l2.3-218.8l74.5-0.9
				c0,0,25.6-5.2,18.6-26.6c-17.2,5.7-59.1,5.2-65.2,4.7c-6.1-0.5-2.8-5.2-28.9-0.9c-9.1,12.8-0.6,19.8-0.6,19.8l-385,7.3
				c0,0-11.6-3.9-9.2,45.6c0,52.7,0.7,164.1,0.7,164.1s11.2,25.6,38.8,23.5c27.6-2.1,100.6-1.8,100.6-1.8l250.4-8.3
				c0,0-1.6,6.8,0.2,14"/>
			<path class="st3" d="M1993.7,1697.1c0,0,0.2,12.3,6.6,19c0.3,9.6-3.3,59-3.3,59s111.3,194.6,291,204.1c0.9,78.8,0,184.2,0,184.2
				s8.4,61.7,58.7,64.6c37.7,10.9,230.5,38.7,230.5,38.7s54.5,12.1,82.4-39.9c19.6-28.2,9.3-908.3,9.3-908.3l-3.7-236.4
				c0,0-6.5-61.2-61-74.5c-54.5-13.3-256.6-28.5-256.6-28.5s-65.2,2.8-67.5,77.8c2.3,86.4,3.3,156.2,3.3,156.2
				s-191.6-25.2-285.3,131.5c-1.4,22.8-2.1,73-2.1,73"/>
			<path class="st4" d="M2082.7,1423.6c0,0,43.7-74.4,81.8-73.7c38.1,0.7,120.2,7.8,120.2,7.8s14.7,22.1,11.9,32
				c-2.8,10,19.6-3,19.6-3s-27-11.3-21.4-43.6c1.4-76.4-11.2-130.1-11.2-130.1"/>
			<path class="st4" d="M2154,1428.6c0,0,34.9-75,131.3-31.3c12.1,4.3,30.7-10.5,30.7-10.5l149.5,22.4c0,0,65,1.7,78.9,42.2
				c33.5,69.1,41.9,145.2,41.9,145.2s2.8,163.8-14,168c-27.2,89-51.7,92.6-51.7,92.6l-202.6-22.8l-2.1-11.4l-17.5-19.9
				c0,0-90.8,14.6-129.6-70.5c-2.8-21.7-98.9-15.7-98.9-15.7s-53.2,9.1-68.3-21.3"/>
			<path class="st4" d="M2048.7,1718.1c0,0,7.4,15.6,41.4,17.1c29.8,51.7,69.9,80.7,69.9,80.7s7.9,7.6,56.8,9.5
				c41.9,12.3,81,15.7,87.6,26.1c-17.2,12.3-2.1,57.5-16.2,137.7"/>
			<path class="st4" d="M2317,1828.1c0,0,0.5,10.6-5.1,19.1c-5.6,8.5,157.9,15.7,194.2,27.1c21-10,24.6-18.8,34.3-35.4"/>
			<path class="st4" d="M2278.7,1673.3c0,0,112,22.3,147.4,19.4c46.5,20.6,58.4,52.7,58.4,52.7"/>
			<path class="st4" d="M2426,1692.7c0,0,47.2,46.3,49.3,61.2c23.1,22.1,95.6,15.6,95.6,15.6"/>
			
				<ellipse transform="matrix(0.9907 -0.1363 0.1363 0.9907 -131.7237 334.7711)" class="st4" cx="2379" cy="1129.4" rx="62.5" ry="75.3"/>
			<path class="st5" d="M2392.1,1167.9l-2-19.6c0,0,0.5-9.3,9.7-9.9l12.6-1.3c0,0,1.8-0.3,1.6-3.1c-0.3-2.7-1.7-17.3-1.7-17.3
				s-0.1-1.1-1.5-1.8c-1.4,0.1-15.8,1.6-15.8,1.6s-7.1-0.5-8.9-8.6c-0.9-7.8-2-19.6-2-19.6s-0.6-2.3-2.2-2
				c-1.6,0.2-14.4,1.5-14.4,1.5s-1.1,0-1.5,1.8c0.2,1.9,1,9.9,1,9.9l1,10.1c0,0-0.1,8.5-6.9,10.2c-6.8,1.2-16.1,1.9-16.1,1.9
				s-1,0.4-1.2,2.1c0.1,1.7,1.3,13.1,1.3,13.1l0.5,5c0,0,0.3,1.8,1.5,1.8c1.2,0,16.5-1.5,16.5-1.5s6-0.6,8.5,9.1
				c1,9.2,1.9,19.1,1.9,19.1s0,1.7,1.7,2c1.9,0,14.7-1.6,15.1-1.6C2392.3,1170,2392.1,1167.9,2392.1,1167.9z"/>
			
				<ellipse transform="matrix(0.89 -0.4559 0.4559 0.89 -701.6093 1318.134)" class="st4" cx="2381.4" cy="2113.3" rx="62.7" ry="70.4"/>
			<path class="st5" d="M2404.4,2143.9l-7.2-17c0,0-2-8.4,6.6-11.8l11.7-5c0,0,1.7-0.9,0.7-3.2c-1-2.4-6.4-15-6.4-15s-0.4-1-1.9-1.1
				c-1.3,0.6-14.7,6.2-14.7,6.2s-6.9,1.7-10.8-5c-3-6.7-7.2-16.9-7.2-16.9s-1.2-1.8-2.7-1.1c-1.4,0.7-13.4,5.7-13.4,5.7
				s-1.1,0.4-0.9,2.1c0.7,1.7,3.6,8.6,3.6,8.6l3.7,8.8c0,0,2.2,7.7-3.8,11.2c-6.2,3.1-14.8,6.5-14.8,6.5s-0.8,0.7-0.6,2.2
				c0.6,1.5,4.8,11.3,4.8,11.3l1.8,4.4c0,0,0.8,1.5,1.9,1.1c1.2-0.4,15.4-6.4,15.4-6.4s5.6-2.3,10.6,5.6c3.5,7.9,7,16.5,7,16.5
				s0.4,1.5,2.2,1.3c1.8-0.6,13.6-5.8,14-6C2405.1,2145.7,2404.4,2143.9,2404.4,2143.9z"/>
			<line class="st4" x1="2209.8" y1="1447.7" x2="2209.8" y2="1667.5"/>
			<line class="st4" x1="2243.4" y1="1447.7" x2="2243.4" y2="1666.8"/>
			<path class="st4" d="M1562.1,1402.2c0,0-17.8,17.8-33.6,19.7c-15.8,1.9-81.5,4.7-112.2-12.3c-10.7-7.4-18.2,4.7-18.2,4.7v263.9
				c0,0-2.3,15.2,18.2,10.4c18.2-0.5,39.1,21.8,114.6,13.3"/>
			<path class="st4" d="M1449.8,1716.6c0,0,1.8,16.3,16.7,16.3c14.9,0,39.6,0,39.6,0s13.6,2,19.4-13.2"/>
			<path class="st4" d="M1416.8,1393.9c0,0,40.1,12.3,83.8,13.8c43.6,1.4,57.7-24,57.7-24"/>
			<path class="st4" d="M1430.5,1415.5v23.5c0,0,1.6,11.9,31.4,11.9s36.8,0,36.8,0"/>
			<path class="st3" d="M1243.8,1682.5c0,0-12.8,20.5-2,40.1c10.8,19.6,18.9,80.4,18.9,80.4s14,50.6-21.3,81.9
				c-35.3,31.3-89.8,24.9-89.8,24.9s-173.3-7.1-260.6-39.9c-49.4-7.6-59.1-52.2-59.1-52.2l-140-127.2c0,0-97.1-79.5-110.4-116"/>
			<polygon class="st4" points="380.9,1493.2 380.9,1302.9 376.5,1296.6 363.9,1296.6 359,1302.3 359,1493.4 362.4,1497.4 
				377.3,1497.4 			"/>
			<polygon class="st4" points="416.8,1497.2 416.8,1306.9 412.4,1300.6 399.8,1300.6 394.9,1306.3 394.9,1497.3 398.3,1501.4 
				413.2,1501.4 			"/>
			<path class="st4" d="M332.5,1246.9l143,28.4c0,0,86.6-22.3,133.2,19.9c88.5,15.7,489.9,85.9,489.9,85.9s235.7-21.8,299.5,33.2"/>
			<path class="st4" d="M738.1,1601.9v44.5l89.7,71c0,0,20.7,3.8,17.5-25.9c-1-15.9,1.6-70.5,1.6-70.5"/>
			<path class="st4" d="M829.9,1817.8c0,0-5.1-73.1-2.1-100.4"/>
			<path class="st4" d="M713.7,1601.9c0,0-3.5,38.1,2.8,45.2c7.7,23.4,57.3,84.7,110.4,91.8"/>
			<path class="st4" d="M865.3,1044.8c9.8-53.4,88.7-89,130.6-2.8c44,168.7-20.3,193.7-20.3,193.7s-87.3,37-104.8-54.8
				C861.3,1116.9,865.3,1099.6,865.3,1044.8z"/>
			<path class="st4" d="M962.4,1000.6c0,0-71.3-19.1-82.5,37.8c-11.2,57,3.9,145.4,9.1,155.7c5.2,10.3,18.9,54.3,86.6,41.5"/>
			<path class="st4" d="M882.8,1167.2c0,0,10.9-12.5,24,15s84.6,32.9,100.5,3.4"/>
			<path class="st4" d="M878.7,1045.8h18.8c0,0,40.6-51.9,99.5,0"/>
			<path class="st4" d="M1008.5,1104.4c5.2,34.8-5.7,63.5-34.6,68.1s-56.6-20-61.8-54.9s11.1-67.7,40.3-68.3
				C975.7,1048.8,1003.2,1069.6,1008.5,1104.4z"/>
			<path class="st5" d="M975.4,1141.3l-3-16.4c0,0-0.2-7.8,7-9l10-1.9c0,0,1.5-0.4,1-2.7c-0.4-2.3-2.6-14.5-2.6-14.5
				s-0.2-0.9-1.3-1.4c-1.1,0.2-12.5,2.4-12.5,2.4s-5.7,0-7.7-6.7c-1.3-6.6-3-16.4-3-16.4s-0.7-1.9-1.9-1.6
				c-1.3,0.3-11.4,2.1-11.4,2.1s-0.9,0.1-1.1,1.6c0.3,1.6,1.5,8.3,1.5,8.3l1.5,8.5c0,0,0.5,7.2-4.8,9c-5.4,1.4-12.7,2.6-12.7,2.6
				s-0.8,0.4-0.8,1.8c0.2,1.4,2,11,2,11l0.8,4.2c0,0,0.4,1.5,1.3,1.4c1-0.1,13.1-2.3,13.1-2.3s4.8-0.9,7.4,7.2
				c1.5,7.7,2.9,16,2.9,16s0.1,1.4,1.5,1.6c1.5-0.1,11.6-2.2,12-2.2C975.7,1143,975.4,1141.3,975.4,1141.3z"/>
			<path class="st3" d="M559.3,1199.8c0,0-17.5-92.3,56.6-138.6C689.9,1014.9,815.7,933,815.7,933"/>
			<path class="st4" d="M742.6,1236.3c0,0-1.6-30.4,9.5-29.9s40.1,2.8,44.2,8.1c4.2,5.2,0,25.8,0,25.8"/>
			<path class="st4" d="M739.1,1194.1c0,0-47.5-12.3-40.5-86.4c-3.3-55.5,22.8-61.9,22.8-61.9l62.9-40.2c0,0,21-10.4,28.9,14.7"/>
			<path class="st4" d="M798.2,1228.5c0,0,18.2,3.7,23.1-23.1c0-26.1,1.4-59.4,1.4-59.4s12.6-5.5,14-16.2c1.4-10.7,0-53.8,0-53.8
				s-7.7-23.1-16.4-20.3c-4.5-3.2-4.5-37.4-4.5-37.4s-7.4-44.9,2.1-65.5c9.5-20.6,17.5-36.3,43.4-39.9s99.3,6.4,99.3,6.4l117.9,19.2
				c0,0,106.9-4.3,113.2,89s4.2,249.9,6.3,249.9c2.1,0-2.2,22.5-32.4,18.5"/>
			<path class="st3" d="M816.3,956.7c0,0-12.9-37.5,37.6-56.9s59.4-11.9,59.4-11.9l47.2,5.7c0,0-6.2,6.2,10.6,7.1
				c16.8,0.9,152.3,11.6,152.3,11.6l78,9.3c0,0,46.1,26.4,53.8,80.5c-0.5,56.2,0.5,229,0,253.5c-7.9,24.9-56.8,24.9-56.8,24.9"/>
			<path class="st4" d="M737.2,1205.4c0,0,0.2-13.7,18.3-14.7c18-0.9,39.5,2.3,45.1,14.7s2.3,17.9,2.3,17.9"/>
			<path class="st4" d="M821.8,1173c0,0-70.6-3.1-76.2-6c-5.6-2.8-16.8-3.8-14.9-24.7s-1.9-58.9-1.9-58.9s1.4-11.4,16.3-17.1
				c14.9-5.7,69.7-43.6,69.7-43.6"/>
			<path class="st4" d="M880.1,1626.9l2.9,108.3c0,0,33.1,82.6,100.1,67.4c50.3-26.6,28.5-152.3,28.5-152.3"/>
			<path class="st4" d="M870.3,1625.1l4.3,117.4c0,0,35.4,94.7,97.8,61.9"/>
			<path class="st4" d="M900.9,1630.6c0,0-30.6,187.2,110,129.8"/>
			<path class="st4" d="M888.8,1747c0,0-2-20.7,20.5-12.2"/>
			<path class="st4" d="M1015,1678.4c-1.8-12-6.3-22.4-12.4-30.8c-4.8-0.7-9.6-1.2-14.4-2.1c-6-1.2-12-2.3-18-3.2
				c-12.3-2-24.7-3.7-36.9-6.3c-0.1,0-0.2-0.1-0.3-0.1c-0.3,0.1-0.6,0.1-0.9,0.1c-0.1,0-0.1,0-0.2,0c-11.5,12.8-16.7,33.9-13.4,55.7
				c5.2,34.8,32.9,59.4,61.8,54.9C1009.3,1742,1020.3,1713.3,1015,1678.4z"/>
			<path class="st5" d="M968,1718.1l3.9-16.2c0,0,2.9-7.2,10-5.2l9.9,2.5c0,0,1.5,0.2,2-2c0.5-2.3,3.5-14.3,3.5-14.3
				s0.2-0.9-0.7-1.9c-1.1-0.3-12.4-3.1-12.4-3.1s-5.2-2.4-4.3-9.3c1.5-6.5,3.9-16.2,3.9-16.2s0.2-2-1.1-2.2s-11.3-2.8-11.3-2.8
				s-0.9-0.3-1.6,1.1c-0.4,1.6-2,8.2-2,8.2l-2,8.4c0,0-2.4,6.8-8,6.2c-5.5-0.9-12.6-3-12.6-3s-0.9,0-1.5,1.3
				c-0.4,1.4-2.6,10.8-2.6,10.8l-1,4.2c0,0-0.3,1.5,0.7,1.9c0.9,0.3,12.9,3.4,12.9,3.4s4.7,1.2,3.9,9.6c-1.7,7.6-3.8,15.8-3.8,15.8
				s-0.5,1.3,0.8,2.1c1.5,0.5,11.5,2.8,11.8,3C967.6,1719.8,968,1718.1,968,1718.1z"/>
			<path class="st4" d="M1112.6,1907.6c0,0,97.1,8.6,100.6-59.7c3.5-68.4,0-168.7,0-168.7"/>
			<path class="st4" d="M465.7,1363.1v-25.6c0,0,25.1-50.3,67.1-40.8c23.1,0.6,49.9,7.7,49.9,7.7s37,15,36.3,51.6
				c-5.2,18.2-4.5,33.1-4.5,33.1l2.1,116.4c0,0,11.2,31.8-21,35.6c-31.2,1-84.3-4.7-84.3-4.7l-35.4-7.6c0,0-16.3-0.5-14.9-30.4
				c-0.1-4.3-0.1-10.4-0.1-10.4"/>
			<path class="st4" d="M497.5,1340.5c0,0,38.3-25,70.2-6.9c31.9,18.1,47.3,43.4,47.3,43.4l0.5,70.8l0.9,52.7c0,0-16.3,20-45.4,23.2
				"/>
			<ellipse class="st4" cx="526.6" cy="1435.4" rx="71.6" ry="89.5"/>
			<ellipse class="st4" cx="530.6" cy="1434.9" rx="83.7" ry="101.4"/>
			<path class="st4" d="M669.2,1411v-37c0,0,3.3-10,14.9-6.6c11.6,3.3,43.8,6.2,43.8,6.2s2.7,17.6,10.2,19
				c7.5,1.4,34.5,3.3,42.4,10.9c38.7,10.9,61,132.9-21,132.9c-11.2,0-21.5,0-21.5,0l-4.8,12.6l-48.2-9.3c0,0-17.8-1.8-12.2-34.5
				s-3.6-30.6-3.6-30.6s-15.6-19.9-4.1-48.1C671.1,1416.8,669.2,1411,669.2,1411z"/>
			<path class="st4" d="M769.8,1397.6c-11.5-3.2-28-3.7-32.2-5.8c-7.5-2.5-5.9-10.3-11.8-18c-10.9-4.9-34.5,27-34.5,56.5
				c0,33.6,20.7,60.9,46.2,60.9c25.5,0,46.2-27.3,46.2-60.9C782.7,1417,773.1,1398.6,769.8,1397.6z"/>
			
				<ellipse transform="matrix(0.9788 -0.205 0.205 0.9788 -287.1069 215.3057)" class="st4" cx="895.5" cy="1493.2" rx="80.1" ry="107.1"/>
			
				<ellipse transform="matrix(0.9727 -0.2323 0.2323 0.9727 -325.4904 244.0555)" class="st4" cx="873.7" cy="1504.3" rx="54.7" ry="68.7"/>
			<path class="st5" d="M896.4,1531.7l-7.9-15.9c0,0-2.6-8.1,4.3-12.5l9.4-6.4c0,0,1.3-1.1,0.2-3.3c-1.1-2.2-7-14.1-7-14.1
				s-0.4-0.9-1.8-0.9c-1.1,0.7-11.7,8-11.7,8s-5.7,2.5-9.7-3.6c-3.2-6.3-7.8-15.9-7.8-15.9s-1.2-1.7-2.4-0.8
				c-1.2,0.9-10.7,7.3-10.7,7.3s-0.9,0.5-0.6,2.2c0.7,1.6,4,8,4,8l4,8.2c0,0,2.6,7.3-2.1,11.6c-4.9,3.9-11.9,8.4-11.9,8.4
				s-0.6,0.8-0.3,2.3c0.7,1.4,5.3,10.6,5.3,10.6l2,4.1c0,0,0.8,1.4,1.8,0.9c0.9-0.5,12.3-8.3,12.3-8.3s4.5-3,9.5,4.2
				c3.8,7.4,7.7,15.4,7.7,15.4s0.5,1.5,2,1c1.5-0.8,10.9-7.5,11.2-7.7C897.2,1533.4,896.4,1531.7,896.4,1531.7z"/>
			<path class="st4" d="M859.5,1437.1c0,0,22.9-13.5,44.9-7.1c80.3,51.3,38.1,125,4.3,131.3c3-2.2,8.7-9.7,8.7-9.7"/>
			<path class="st5" d="M570.9,1431.3l-13-11.9c0,0-5.3-6.6-0.5-13.3l6.4-9.5c0,0,0.8-1.5-1-3.1s-11.5-10.5-11.5-10.5
				s-0.7-0.7-2-0.2c-0.7,1.1-8,11.9-8,11.9s-4.4,4.5-10.3,0.3c-5.3-4.7-13-11.8-13-11.8s-1.7-1.1-2.5,0.1
				c-0.8,1.2-7.3,10.8-7.3,10.8s-0.6,0.8,0.3,2.3c1.3,1.2,6.6,6,6.6,6l6.7,6.1c0,0,5.1,5.8,2.2,11.6c-3.2,5.5-8,12.2-8,12.2
				s-0.3,0.9,0.6,2.2c1.1,1.1,8.7,7.9,8.7,7.9l3.3,3.1c0,0,1.3,1,2,0.2c0.7-0.8,8.5-12.3,8.5-12.3s3.1-4.5,10.4,0.4
				c6.2,5.5,12.7,11.5,12.7,11.5s1,1.2,2.2,0.1c1.1-1.3,7.4-11.1,7.7-11.4C572.2,1432.6,570.9,1431.3,570.9,1431.3z"/>
			
				<ellipse transform="matrix(0.986 -0.1667 0.1667 0.986 -175.2652 198.891)" class="st4" cx="1097.3" cy="1143.6" rx="65.9" ry="78.3"/>
			<path class="st5" d="M1112.5,1183.2l-2.7-20.3c0,0,0.2-9.6,9.9-10.7l13.2-1.9c0,0,1.9-0.4,1.6-3.3s-2.4-18-2.4-18
				s-0.2-1.2-1.7-1.8c-1.5,0.2-16.6,2.3-16.6,2.3s-7.5-0.3-9.6-8.6c-1.2-8.1-2.7-20.3-2.7-20.3s-0.7-2.3-2.4-2
				c-1.7,0.3-15.1,2.1-15.1,2.1s-1.2,0.1-1.5,2c0.2,2,1.4,10.2,1.4,10.2l1.4,10.5c0,0,0.1,8.9-6.9,10.9c-7.1,1.5-16.8,2.6-16.8,2.6
				s-1,0.5-1.2,2.2c0.2,1.8,1.8,13.6,1.8,13.6l0.7,5.2c0,0,0.4,1.9,1.7,1.8c1.3-0.1,17.3-2.3,17.3-2.3s6.3-0.8,9.2,9.1
				c1.4,9.5,2.7,19.7,2.7,19.7s0,1.8,1.9,2c2-0.1,15.4-2.2,15.9-2.2C1112.7,1185.4,1112.5,1183.2,1112.5,1183.2z"/>
			<path class="st4" d="M1090.4,1065.8c0,0,19.4-5.3,40.4-5.3c91.7,33.9,72.2,145-4.5,163.8c-9.3,2.4-24.8-2.6-24.8-2.6"/>
			<ellipse class="st4" cx="1175.1" cy="1334.2" rx="30.4" ry="8.9"/>
			<path class="st4" d="M1144.7,1334.2c0,0-1.2,14.6,0,18.2c1.2,3.6,44.5,8.3,58.9,1.9c3.3-4.7,1.9-20.1,1.9-20.1"/>
			<ellipse class="st4" cx="1404.3" cy="1317.1" rx="30.4" ry="8.9"/>
			<path class="st4" d="M1373.9,1317.1c0,0-1.2,14.6,0,18.2c1.2,3.6,44.5,8.3,58.9,1.9c3.3-4.7,1.9-20.1,1.9-20.1"/>
			<ellipse class="st4" cx="1487.7" cy="1380.9" rx="30.4" ry="8.9"/>
			<path class="st4" d="M1457.3,1380.9c0,0-1.2,14.6,0,18.2c1.2,3.6,44.5,8.3,58.9,1.9c3.3-4.7,1.9-20.1,1.9-20.1"/>
			<path class="st4" d="M1470.7,1328.7l-38.4,23.7c0,0-8.1,5.9,2.7,9.3s28.8,2.6,28.8,2.6"/>
		</g>
	</g>
	<path class="st6" d="M2662.1,1319.4l-3.7-236.4c0,0-6.5-61.2-61-74.5c-54.5-13.3-256.6-28.5-256.6-28.5s-65.2,2.8-67.5,77.8
		c2.3,86.4,3.3,156.2,3.3,156.2s-191.6-25.2-285.3,131.5c-1.4,22.8-2.1,73-2.1,73s-52.9-5.7-92.1-9.8h-295.3
		c-21.2-2.2-38.4-4-41-4.1c-4.1-0.2-5.3-0.6-5.6-0.9l0.1-0.5c0,0,2.8-4.3-3.8-18.5c-5.8-12.5-76.8-18.2-94.5-19.4l4.2-21.9
		c0.7-0.4,1.4-0.8,2.2-1.2c0.9-5.4,1-9.5,0.4-12.5c-1.8-9.1-9.4-8.7-16.7-8.4c-9.8,0.5-16.3-3.8-16.3-3.8s-1.4-8.1-18.2-10.4
		c-40.5,4.7-93.1-4.3-93.1-4.3s-28.4-6.6-62.9,0.5c-42.8,1-72.7-2.8-72.7-2.8s-9.5-1.2-25.4-3.3c23.7,3.1,31.4-10.1,32.6-15.9
		l0.2,0.2c0,0,48.9,0,56.8-24.9c0.5-24.4-0.5-197.2,0-253.5c-7.7-54.1-53.8-80.5-53.8-80.5l-78-9.3c0,0-135.5-10.6-152.3-11.6
		c-16.8-1-10.6-7.1-10.6-7.1l-47.2-5.7c-12-10.3-45.2,7.1-55.3,13.3c-26.2,16.2-48.2,38.3-74.5,54.5c-15.7,9.6-33.2,17.9-48.3,28.2
		c-13.5,9.3-26,21.2-39.2,30.9c-17,12.4-35.6,20.2-53.3,31.1c-16.8,10.4-31.2,21.3-45.4,34.8c-21.9,20.8-25,42-29.5,71.1
		c-1.9,12.3-1.6,27.6-4.8,39.7c-4.6,17.5-31.9,7.2-44.4,6.2c-15-1.2-30-2.4-45.1-3.6c0,0-114.6,41.3-129.5,46.5
		c-7.5,2.6-10.5,4.8-11.7,6.3c-1.1,1.5-0.4,2.3-0.4,2.3l4.7,268.7c0,0-1.9,27.5,36.3,25.6c12.7-0.6,98.1,12.9,206.5,31.2
		c13.3,36.4,110.4,116,110.4,116l140,127.2c0,0,9.8,44.6,59.1,52.2c62.1,23.3,167.7,33.6,223.5,37.6c0,0,0.5,0,1.3,0.1
		c21.9,1.6,35.8,2.1,35.8,2.1s54.5,6.4,89.8-24.9c35.3-31.3,21.3-81.9,21.3-81.9s-8-60.9-18.9-80.4c-10.8-19.6,2-40.1,2-40.1
		c71.8,7.7,147.1,15.6,155.7,15.6c0,0,21.1,11.1,50.3,18.4c0,0,1.8,16.3,16.7,16.3c14.9,0,39.6,0,39.6,0s13.6,2,19.3-13.2
		c14.1-3.1,27.9-8.9,40.5-18.3l42.7-1.7H1897l89.8-3.6l0,1.1c0,0,0.2,12.3,6.6,19c0.3,9.6-3.3,59-3.3,59s107.4,187.7,281.6,203.3
		l9.5,10.8c0.7,77.4-0.1,174.2-0.1,174.2s8.4,61.7,58.7,64.6c37.7,10.9,230.5,38.7,230.5,38.7s54.5,12.1,82.4-39.9
		C2672.3,2199.4,2662.1,1319.4,2662.1,1319.4z"/>
	<g>
		<g>
			<path d="M4332,1057.9v126.7h70.2c10.4,0,18.7-0.9,25.1-2.8c6.4-1.9,11.3-4.7,15-8.5c3.6-3.8,6.2-8.6,7.6-14.5
				c1.4-5.9,2.3-12.8,2.8-20.8h8.8v111.5h-8.8c-1.2-9.2-2.5-16.8-4.1-22.9c-1.5-6.1-4-11-7.4-14.6c-3.4-3.6-8.2-6.2-14.3-7.8
				c-6.1-1.5-14.4-2.3-24.7-2.3H4332v105.9c0,8,0.1,14.4,0.4,19.1c0.2,4.7,1.2,8.3,2.8,10.8c1.6,2.5,4.2,4.1,7.8,4.8
				c3.5,0.7,8.7,1.1,15.5,1.1h54.4c9.2,0,16.9-0.2,23.3-0.7c6.4-0.5,11.8-1.4,16.4-2.8c4.6-1.4,8.6-3.4,12.2-5.8
				c3.5-2.5,7.3-5.6,11.3-9.4c9.4-9.2,19.4-23.9,30-44.1h9.5l-27.9,80.5h-247.1v-8.8h11.3c3.1,0,6.2-0.4,9.5-1.1
				c3.3-0.7,6.4-1.7,9.4-3c2.9-1.3,5.6-3,7.9-5.1c2.3-2.1,4-4.6,4.9-7.4c1.9-5.2,2.8-15.5,2.8-31.1v-208.2c0-20.5-2-33.1-6-37.8
				c-5.6-6.4-15.2-9.5-28.6-9.5h-11.3v-8.8h247.1v70.2h-5.6c-2.4-11.5-4.9-20.8-7.6-27.7c-2.7-6.9-6.3-12.3-10.8-16.1
				c-4.5-3.8-10.2-6.2-17.1-7.2c-6.9-1.1-15.8-1.6-26.6-1.6H4332z"/>
			<path d="M4675.7,1352.3v8.8h-137.3v-8.8h11.3c5.6,0,10.6-0.4,15-1.2c4.4-0.8,7.9-2.8,10.8-6c2.8-3.2,5-8,6.5-14.5
				c1.5-6.5,2.3-15.2,2.3-26.3v-207.2c0-7.3-0.2-13.3-0.5-18.2c-0.4-4.8-0.9-8.8-1.8-11.8c-0.8-3.1-2.1-5.5-3.7-7.2
				c-1.6-1.8-3.9-3.5-6.7-5.1c-7.1-3.8-14.4-5.6-21.9-5.6h-11.3v-8.8h137.3v8.8h-11.3c-5.6,0-10.6,0.5-15,1.4
				c-4.4,0.9-7.9,3-10.8,6.2c-2.8,3.2-5,8-6.5,14.5c-1.5,6.5-2.3,15.1-2.3,25.9v207.2c0,7.5,0.1,13.6,0.4,18.4
				c0.2,4.7,0.8,8.6,1.8,11.6c0.9,3.1,2.3,5.5,4.1,7.2c1.8,1.8,4.1,3.5,6.9,5.1c6.6,3.8,13.8,5.6,21.5,5.6H4675.7z"/>
			<path d="M4984.9,1033.2l8.5,100.9h-8.5c-9.7-29.6-23.4-51.1-41.1-64.4c-17.8-13.3-39.4-19.9-64.8-19.9
				c-18.8,0-35.6,3.7-50.5,11.1c-14.8,7.4-27.4,17.6-37.8,30.7c-10.4,13.1-18.2,28.5-23.6,46.2c-5.4,17.8-8.1,37-8.1,57.7
				c0,30.4,6,58.2,18,83.6c5.9,12.7,12.8,23.6,20.6,32.8c7.9,9.2,16.4,16.8,25.6,22.8c9.2,6,18.8,10.4,28.8,13.2
				c10,2.8,20.1,4.2,30.2,4.2c23.5,0,45.6-5.9,66.4-17.6v-92.8c0-8-0.3-14.5-0.9-19.6c-0.6-5.1-1.5-9.1-2.8-12
				c-1.3-2.9-2.9-5.2-4.8-6.7c-1.9-1.5-4.1-3-6.7-4.4c-5.2-2.6-14.1-3.9-26.8-3.9v-9.2h124.2v9.2h-6c-5.4,0-10,0.6-13.8,1.8
				c-3.8,1.2-6.9,3.4-9.4,6.7c-2.5,3.3-4.2,8-5.3,14.1c-1.1,6.1-1.6,14.1-1.6,24v98.1c-9.2,4.9-18.2,9.2-27,12.9
				c-8.8,3.6-17.7,6.5-26.6,8.6c-18.4,4.7-38,7.1-58.9,7.1c-26.8,0-51.1-4.1-72.9-12.4c-21.8-8.2-40.4-19.6-55.9-34.2
				c-15.5-14.6-27.5-31.8-36-51.5c-8.5-19.8-12.7-41.3-12.7-64.6c0-28,6.8-55.1,20.5-81.2c15.8-30.6,37.8-54.2,66-70.9
				c23.5-13.6,51.3-20.5,83.3-20.5c6.4,0,12,0.2,16.9,0.5c4.9,0.4,10.1,1.1,15.4,2.1c5.3,1.1,11.1,2.6,17.3,4.6
				c6.2,2,13.8,4.6,22.8,7.9c8.9,3.5,14.9,5.2,18,4.9c2.8,0,5.3-1.4,7.4-4.1c2.1-2.7,3.4-8.1,3.9-16.1H4984.9z"/>
			<path d="M5137,1189.2h148.9v-91.8c0-7.5-0.1-13.7-0.4-18.5c-0.2-4.8-0.8-8.8-1.8-11.8c-0.9-3.1-2.3-5.5-4.1-7.2
				c-1.8-1.8-4.1-3.5-6.9-5.1c-6.6-3.8-13.8-5.6-21.5-5.6h-11.3v-8.8h137.3v8.8h-11.3c-3.1,0-6.3,0.4-9.7,1.1
				c-3.4,0.7-6.6,1.8-9.5,3.2c-2.9,1.4-5.6,3.2-7.9,5.3c-2.4,2.1-4,4.6-4.9,7.4c-1.6,4.9-2.5,15.4-2.5,31.4v206.8
				c0,7.5,0.2,13.6,0.5,18.4c0.4,4.7,0.9,8.6,1.8,11.6c0.8,3.1,2.1,5.5,3.7,7.2c1.6,1.8,3.9,3.5,6.7,5.1c6.6,3.8,13.9,5.6,21.9,5.6
				h11.3v8.8h-137.3v-8.8h11.3c5.4,0,10.2-0.4,14.5-1.2c4.2-0.8,7.9-2.8,10.9-6c3.1-3.2,5.3-8,6.9-14.5c1.5-6.5,2.3-15.2,2.3-26.3
				v-97.8H5137v97.8c0,7.5,0.1,13.6,0.4,18.4c0.2,4.7,0.8,8.6,1.8,11.6c0.9,3.1,2.3,5.5,4.1,7.2c1.8,1.8,4.1,3.5,6.9,5.1
				c6.6,3.8,13.8,5.6,21.5,5.6h11.6v8.8h-137.6v-8.8h11.6c12.9,0,22.5-3.9,28.6-11.6c3.8-4.7,5.6-16.8,5.6-36.4v-206.8
				c0-7.8-0.1-14.1-0.4-18.9c-0.2-4.8-0.8-8.7-1.8-11.6c-0.9-2.9-2.2-5.3-3.9-7.1c-1.6-1.8-3.9-3.5-6.7-5.1
				c-6.6-3.8-13.8-5.6-21.5-5.6h-11.6v-8.8h137.6v8.8h-11.6c-2.8,0-5.9,0.4-9.4,1.1c-3.4,0.7-6.6,1.8-9.5,3.2
				c-2.9,1.4-5.6,3.2-7.9,5.3c-2.4,2.1-4,4.6-4.9,7.4c-1.9,5.6-2.8,16.1-2.8,31.4V1189.2z"/>
			<path d="M5667.5,1040.3v75.5h-5.3c-2.6-20.2-8.5-34.5-17.8-42.9c-9.3-8.3-23-12.5-41.1-12.5h-45.2v245.3
				c0,10.8,0.8,19.4,2.3,25.6c1.5,6.2,3.7,10.9,6.5,13.9c2.8,3.1,6.4,5,10.6,5.8c4.2,0.8,9.2,1.2,14.8,1.2h10.9v8.8h-135.9v-8.8
				h11.3c5.6,0,10.6-0.5,14.8-1.4c4.2-0.9,7.8-3,10.6-6.2c2.8-3.2,5-7.8,6.5-13.9c1.5-6.1,2.3-14.5,2.3-25.1v-245.3h-38.5
				c-9.7,0-18.2,0.8-25.6,2.3c-7.4,1.5-13.8,4.4-19.2,8.5c-5.4,4.1-9.7,9.8-12.9,16.9c-3.2,7.2-5.1,16.4-5.8,27.7h-8.8v-75.5H5667.5
				z"/>
		</g>
		<g>
			<path d="M3434.6,1658.9h148.9v-91.8c0-7.5-0.1-13.7-0.4-18.5c-0.2-4.8-0.8-8.8-1.8-11.8c-0.9-3.1-2.3-5.5-4.1-7.2
				c-1.8-1.8-4.1-3.5-6.9-5.1c-6.6-3.8-13.8-5.6-21.5-5.6h-11.3v-8.8h137.3v8.8h-11.3c-3.1,0-6.3,0.4-9.7,1.1
				c-3.4,0.7-6.6,1.8-9.5,3.2c-2.9,1.4-5.6,3.2-7.9,5.3c-2.4,2.1-4,4.6-4.9,7.4c-1.6,4.9-2.5,15.4-2.5,31.4v206.8
				c0,7.5,0.2,13.6,0.5,18.4c0.4,4.7,0.9,8.6,1.8,11.6c0.8,3.1,2.1,5.5,3.7,7.2c1.6,1.8,3.9,3.5,6.7,5.1c6.6,3.8,13.9,5.6,21.9,5.6
				h11.3v8.8h-137.3v-8.8h11.3c5.4,0,10.2-0.4,14.5-1.2c4.2-0.8,7.9-2.8,10.9-6c3.1-3.2,5.3-8,6.9-14.5c1.5-6.5,2.3-15.2,2.3-26.3
				v-97.8h-148.9v97.8c0,7.5,0.1,13.6,0.4,18.4c0.2,4.7,0.8,8.6,1.8,11.6c0.9,3.1,2.3,5.5,4.1,7.2c1.8,1.8,4.1,3.5,6.9,5.1
				c6.6,3.8,13.8,5.6,21.5,5.6h11.6v8.8h-137.6v-8.8h11.6c12.9,0,22.5-3.9,28.6-11.6c3.8-4.7,5.6-16.8,5.6-36.4v-206.8
				c0-7.8-0.1-14.1-0.4-18.9c-0.2-4.8-0.8-8.7-1.8-11.6c-0.9-2.9-2.2-5.3-3.9-7.1c-1.6-1.8-3.9-3.5-6.7-5.1
				c-6.6-3.8-13.8-5.6-21.5-5.6h-11.6v-8.8h137.6v8.8h-11.6c-2.8,0-5.9,0.4-9.4,1.1c-3.4,0.7-6.6,1.8-9.5,3.2
				c-2.9,1.4-5.6,3.2-7.9,5.3c-2.4,2.1-4,4.6-4.9,7.4c-1.9,5.6-2.8,16.1-2.8,31.4V1658.9z"/>
			<path d="M3834.1,1821.9v8.8h-137.3v-8.8h11.3c5.6,0,10.6-0.4,15-1.2c4.4-0.8,7.9-2.8,10.8-6c2.8-3.2,5-8,6.5-14.5
				c1.5-6.5,2.3-15.2,2.3-26.3v-207.2c0-7.3-0.2-13.3-0.5-18.2c-0.4-4.8-0.9-8.8-1.8-11.8c-0.8-3.1-2.1-5.5-3.7-7.2
				c-1.6-1.8-3.9-3.5-6.7-5.1c-7.1-3.8-14.4-5.6-21.9-5.6h-11.3v-8.8h137.3v8.8h-11.3c-5.6,0-10.6,0.5-15,1.4
				c-4.4,0.9-7.9,3-10.8,6.2c-2.8,3.2-5,8-6.5,14.5c-1.5,6.5-2.3,15.1-2.3,25.9v207.2c0,7.5,0.1,13.6,0.4,18.4
				c0.2,4.7,0.8,8.6,1.8,11.6c0.9,3.1,2.3,5.5,4.1,7.2c1.8,1.8,4.1,3.5,6.9,5.1c6.6,3.8,13.8,5.6,21.5,5.6H3834.1z"/>
			<path d="M3839.7,1509.9h86.8l196.2,240.7v-184.9c0-10.8-0.8-19.4-2.3-25.8c-1.5-6.4-3.8-11.1-6.7-14.1c-2.9-3.1-6.5-5-10.8-5.8
				c-4.2-0.8-9.1-1.2-14.5-1.2h-11.3v-8.8h111.9v8.8h-11.6c-5.6,0-10.6,0.5-14.8,1.4c-4.2,0.9-7.8,3.1-10.6,6.4
				c-2.8,3.3-4.9,8-6.4,14.1c-1.4,6.1-2.1,14.5-2.1,25.1v270.4h-8.5l-211.4-258.4v197.6c0,11.1,0.8,19.7,2.3,25.9
				c1.5,6.2,3.7,10.9,6.5,13.9c2.8,3.1,6.4,4.9,10.6,5.6c4.2,0.7,9.1,1.1,14.5,1.1h11.3v8.8h-111.5v-8.8h11.3
				c5.6,0,10.6-0.5,14.8-1.4c4.2-0.9,7.8-3,10.8-6.2c2.9-3.2,5.1-7.8,6.5-13.9c1.4-6.1,2.1-14.5,2.1-25.1v-223.1
				c-4.7-5.6-8.6-10.1-11.8-13.4c-3.2-3.3-6.2-6-9-8.1c-2.8-2.1-5.9-3.9-9.2-5.3c-3.3-1.4-7.4-2.9-12.4-4.6
				c-4.7-1.4-11.6-2.1-20.8-2.1V1509.9z"/>
			<path d="M4493,1502.9l8.5,100.9h-8.5c-9.7-29.6-23.4-51.1-41.1-64.4c-17.8-13.3-39.4-19.9-64.8-19.9c-18.8,0-35.6,3.7-50.5,11.1
				s-27.4,17.6-37.8,30.7c-10.4,13.1-18.2,28.5-23.6,46.2c-5.4,17.8-8.1,37-8.1,57.7c0,30.4,6,58.2,18,83.6
				c5.9,12.7,12.8,23.6,20.6,32.8c7.9,9.2,16.4,16.8,25.6,22.8c9.2,6,18.8,10.4,28.8,13.2c10,2.8,20.1,4.2,30.2,4.2
				c23.5,0,45.6-5.9,66.4-17.6v-92.8c0-8-0.3-14.5-0.9-19.6c-0.6-5.1-1.5-9.1-2.8-12c-1.3-2.9-2.9-5.2-4.8-6.7
				c-1.9-1.5-4.1-3-6.7-4.4c-5.2-2.6-14.1-3.9-26.8-3.9v-9.2h124.2v9.2h-6c-5.4,0-10,0.6-13.8,1.8c-3.8,1.2-6.9,3.4-9.4,6.7
				c-2.5,3.3-4.2,8-5.3,14.1c-1.1,6.1-1.6,14.1-1.6,24v98.1c-9.2,4.9-18.2,9.2-27,12.9c-8.8,3.6-17.7,6.5-26.6,8.6
				c-18.4,4.7-38,7.1-58.9,7.1c-26.8,0-51.1-4.1-72.9-12.4c-21.8-8.2-40.4-19.6-55.9-34.2c-15.5-14.6-27.5-31.8-36-51.5
				c-8.5-19.8-12.7-41.3-12.7-64.6c0-28,6.8-55.1,20.5-81.2c15.8-30.6,37.8-54.2,66-70.9c23.5-13.6,51.3-20.5,83.3-20.5
				c6.4,0,12,0.2,16.9,0.5c4.9,0.4,10.1,1.1,15.4,2.1s11.1,2.6,17.3,4.6c6.2,2,13.8,4.6,22.8,7.9c8.9,3.5,14.9,5.2,18,4.9
				c2.8,0,5.3-1.4,7.4-4.1c2.1-2.7,3.4-8.1,3.9-16.1H4493z"/>
			<path d="M4646.9,1527.6v126.7h70.2c10.4,0,18.7-0.9,25.1-2.8c6.4-1.9,11.3-4.7,15-8.5c3.6-3.8,6.2-8.6,7.6-14.5
				c1.4-5.9,2.3-12.8,2.8-20.8h8.8v111.5h-8.8c-1.2-9.2-2.5-16.8-4.1-22.9c-1.5-6.1-4-11-7.4-14.6c-3.4-3.6-8.2-6.2-14.3-7.8
				c-6.1-1.5-14.4-2.3-24.7-2.3h-70.2v105.9c0,8,0.1,14.4,0.4,19.1c0.2,4.7,1.2,8.3,2.8,10.8c1.6,2.5,4.2,4.1,7.8,4.8
				c3.5,0.7,8.7,1.1,15.5,1.1h54.4c9.2,0,16.9-0.2,23.3-0.7c6.4-0.5,11.8-1.4,16.4-2.8c4.6-1.4,8.6-3.4,12.2-5.8
				c3.5-2.5,7.3-5.6,11.3-9.4c9.4-9.2,19.4-23.9,30-44.1h9.5l-27.9,80.5h-247.1v-8.8h11.3c3.1,0,6.2-0.4,9.5-1.1
				c3.3-0.7,6.4-1.7,9.4-3c2.9-1.3,5.6-3,7.9-5.1c2.3-2.1,4-4.6,4.9-7.4c1.9-5.2,2.8-15.5,2.8-31.1v-208.2c0-20.5-2-33.1-6-37.8
				c-5.6-6.4-15.2-9.5-28.6-9.5h-11.3v-8.8h247.1v70.2h-5.6c-2.4-11.5-4.9-20.8-7.6-27.7c-2.7-6.9-6.3-12.3-10.8-16.1
				c-4.5-3.8-10.2-6.2-17.1-7.2c-6.9-1.1-15.8-1.6-26.6-1.6H4646.9z"/>
			<path d="M5061.6,1680.8v93.2c0,20.5,2.2,33.1,6.7,37.8c6.1,6.8,15.2,10.2,27.2,10.2h12.4v8.8h-137.3v-8.8h12
				c13.4,0,23.1-4.3,28.9-13.1c3.3-5.2,4.9-16.8,4.9-34.9v-207.2c0-20-2.1-32.5-6.4-37.4c-6.4-7.1-15.5-10.6-27.5-10.6h-12v-8.8
				h117.5c28.2,0,50.8,3.1,67.8,9.2c8.2,2.8,15.9,6.8,23.1,11.8c7.2,5.1,13.4,11.1,18.7,18c5.3,6.9,9.5,14.6,12.5,22.9
				c3.1,8.4,4.6,17.4,4.6,27c0,12.9-2.2,24.8-6.7,35.6c-4.5,10.8-10.9,20.1-19.4,27.9c-8.5,7.8-18.8,13.8-31.1,18.2
				c-12.2,4.4-26.2,6.5-42,6.5C5100.3,1687.1,5082.3,1685,5061.6,1680.8z M5061.6,1667c8.5,1.6,15.9,2.9,22.2,3.7
				c6.4,0.8,11.9,1.2,16.6,1.2c8.2,0,16-1.7,23.3-5.1c7.3-3.4,13.7-8.1,19.2-14.1c5.5-6,9.9-13.2,13.1-21.7
				c3.2-8.5,4.8-17.6,4.8-27.5c0-11.8-1.8-22.2-5.3-31.4c-3.5-9.2-8.4-16.9-14.5-23.3c-6.1-6.4-13.3-11.2-21.5-14.5
				c-8.2-3.3-17.2-4.9-26.8-4.9c-8,0-18.4,1.4-31.1,4.2V1667z"/>
			<path d="M5408.9,1723.5h-124.2l-21.9,50.5c-5.2,12.5-7.8,21.8-7.8,27.9c0,2.6,0.4,4.9,1.2,7.1c0.8,2.1,2.6,4.1,5.3,5.8
				c2.7,1.8,6.5,3.3,11.3,4.6c4.8,1.3,11.2,2.2,19.2,2.6v8.8h-100.9v-8.8c8-1.2,14.5-2.9,19.4-5.3c4.9-2.3,9.2-5.6,12.7-9.7
				c3.5-4.1,6.8-9.5,9.7-16.1c2.9-6.6,6.5-14.7,10.8-24.4l112.9-263.6h8.1l111.5,266.5c4.5,11.1,8.6,19.9,12.5,26.6
				c3.9,6.7,7.9,11.9,12,15.7c4.1,3.8,8.6,6.4,13.4,7.8c4.8,1.4,10.6,2.2,17.5,2.5v8.8H5405v-8.8c12.7-0.5,21.4-2.5,25.9-6.2
				c4.6-3.6,6.9-8.1,6.9-13.2c-0.2-6.8-3.4-17.9-9.5-33.2L5408.9,1723.5z M5402.2,1705.8l-54.4-129.5l-55.8,129.5H5402.2z"/>
			<path d="M5763.6,1509.9v75.5h-5.3c-2.6-20.2-8.5-34.5-17.8-42.9c-9.3-8.3-23-12.5-41.1-12.5h-45.2v245.3
				c0,10.8,0.8,19.4,2.3,25.6c1.5,6.2,3.7,10.9,6.5,13.9c2.8,3.1,6.4,5,10.6,5.8c4.2,0.8,9.2,1.2,14.8,1.2h10.9v8.8h-135.9v-8.8
				h11.3c5.6,0,10.6-0.5,14.8-1.4c4.2-0.9,7.8-3,10.6-6.2c2.8-3.2,5-7.8,6.5-13.9c1.5-6.1,2.3-14.5,2.3-25.1v-245.3h-38.5
				c-9.7,0-18.2,0.8-25.6,2.3c-7.4,1.5-13.8,4.4-19.2,8.5c-5.4,4.1-9.7,9.8-12.9,16.9c-3.2,7.2-5.1,16.4-5.8,27.7h-8.8v-75.5H5763.6
				z"/>
			<path d="M6070.6,1502.9l7.4,109.1h-7.4c-9.9-32.7-23.8-56.2-41.8-70.6c-18-14.3-39.7-21.5-65.1-21.5c-16.5,0-31.6,3.1-45.5,9.4
				c-13.9,6.2-25.8,15.8-35.8,28.8c-10,12.9-17.8,29.2-23.5,48.7c-5.6,19.5-8.5,42.6-8.5,69.2c0,21.4,2.6,40.8,7.9,58.2
				c5.3,17.4,13.1,32.3,23.3,44.7c10.2,12.3,22.8,21.9,37.6,28.6c14.8,6.7,31.9,10.1,51.2,10.1c20.2,0,38.6-4.5,55.1-13.4
				c15.8-8.2,33.3-25.9,52.6-52.9l7.4,4.6c-16.2,28.5-35,49.4-56.3,62.6c-21.3,13.3-46.8,19.9-76.4,19.9c-22.8,0-43.8-4-62.8-12
				c-19.1-8-35.5-19.2-49.2-33.7c-13.8-14.5-24.5-31.6-32.3-51.5c-7.8-19.9-11.6-41.7-11.6-65.5c0-32.2,7.2-61.6,21.5-88.2
				c14.1-26.8,33.8-47.5,58.9-62.1c25.4-14.8,52.9-22.2,82.6-22.2c23.3,0,46.1,5.6,68.5,16.9c6.6,3.5,11.3,5.3,14.1,5.3
				c5.2,0,9.5-2.1,12.9-6.4c3.4-4.2,5.8-9.5,7.2-15.9H6070.6z"/>
			<path d="M6201.6,1658.9h148.9v-91.8c0-7.5-0.1-13.7-0.4-18.5c-0.2-4.8-0.8-8.8-1.8-11.8c-0.9-3.1-2.3-5.5-4.1-7.2
				c-1.8-1.8-4.1-3.5-6.9-5.1c-6.6-3.8-13.8-5.6-21.5-5.6h-11.3v-8.8h137.3v8.8h-11.3c-3.1,0-6.3,0.4-9.7,1.1
				c-3.4,0.7-6.6,1.8-9.5,3.2c-2.9,1.4-5.6,3.2-7.9,5.3c-2.4,2.1-4,4.6-4.9,7.4c-1.6,4.9-2.5,15.4-2.5,31.4v206.8
				c0,7.5,0.2,13.6,0.5,18.4c0.4,4.7,0.9,8.6,1.8,11.6c0.8,3.1,2.1,5.5,3.7,7.2c1.6,1.8,3.9,3.5,6.7,5.1c6.6,3.8,13.9,5.6,21.9,5.6
				h11.3v8.8h-137.3v-8.8h11.3c5.4,0,10.2-0.4,14.5-1.2c4.2-0.8,7.9-2.8,10.9-6c3.1-3.2,5.3-8,6.9-14.5c1.5-6.5,2.3-15.2,2.3-26.3
				v-97.8h-148.9v97.8c0,7.5,0.1,13.6,0.4,18.4c0.2,4.7,0.8,8.6,1.8,11.6c0.9,3.1,2.3,5.5,4.1,7.2c1.8,1.8,4.1,3.5,6.9,5.1
				c6.6,3.8,13.8,5.6,21.5,5.6h11.6v8.8h-137.6v-8.8h11.6c12.9,0,22.5-3.9,28.6-11.6c3.8-4.7,5.6-16.8,5.6-36.4v-206.8
				c0-7.8-0.1-14.1-0.4-18.9c-0.2-4.8-0.8-8.7-1.8-11.6c-0.9-2.9-2.2-5.3-3.9-7.1c-1.6-1.8-3.9-3.5-6.7-5.1
				c-6.6-3.8-13.8-5.6-21.5-5.6h-11.6v-8.8h137.6v8.8h-11.6c-2.8,0-5.9,0.4-9.4,1.1c-3.4,0.7-6.6,1.8-9.5,3.2
				c-2.9,1.4-5.6,3.2-7.9,5.3c-2.4,2.1-4,4.6-4.9,7.4c-1.9,5.6-2.8,16.1-2.8,31.4V1658.9z"/>
		</g>
	</g>
</g>
<g id="SOPORTE-PARED">
</g>
<g id="MEDIDAS">
</g>
<g id="PROCESOS">
</g>
</svg>
