<?xml version="1.0" encoding="utf-8"?>
<!-- Generator: Adobe Illustrator 26.5.0, SVG Export Plug-In . SVG Version: 6.00 Build 0)  -->
<svg version="1.1" xmlns="http://www.w3.org/2000/svg" xmlns:xlink="http://www.w3.org/1999/xlink" x="0px" y="0px"
	 viewBox="0 0 4630 2071" style="enable-background:new 0 0 4630 2071;" xml:space="preserve">
<style type="text/css">
	.st0{fill:#E6E6E6;stroke:#000000;stroke-width:27.8562;stroke-miterlimit:10;}
	.st1{fill:#E6E6E6;stroke:#000000;stroke-width:24.8571;stroke-miterlimit:10;}
	.st2{stroke:#000000;stroke-width:8.8436;stroke-miterlimit:10;}
	.st3{fill:#F7F7F7;stroke:#000000;stroke-width:19.0024;stroke-miterlimit:10;}
	.st4{stroke:#000000;stroke-width:9.5954;stroke-miterlimit:10;}
	.st5{fill:#F7F7F7;stroke:#000000;stroke-width:17.6277;stroke-miterlimit:10;}
	.st6{stroke:#000000;stroke-width:9.3761;stroke-miterlimit:10;}
	.st7{fill:#F7F7F7;stroke:#000000;stroke-width:15.5912;stroke-miterlimit:10;}
	.st8{fill:#E6E6E6;stroke:#000000;stroke-width:16.0779;stroke-miterlimit:10;}
	.st9{fill:#FFFFFF;}
	.st10{fill:none;stroke:#000000;stroke-width:20.203;stroke-miterlimit:10;}
	.st11{fill:none;stroke:#000000;stroke-width:14.4307;stroke-miterlimit:10;}
	.st12{fill:none;stroke:#000000;stroke-width:17.3168;stroke-miterlimit:10;}
	.st13{fill:none;stroke:#000000;stroke-width:16.0779;stroke-miterlimit:10;}
</style>
<g id="CIRCULOS-SELECCION4">
</g>
<g id="CLOSET">
	<g id="LATERAL-DERECHA">
	</g>
	<g id="BASE">
	</g>
	<g id="DIVISIONES-VERTICALES">
		<g id="DIVISION-VERTICAL-DERECHA">
		</g>
		<g id="DIVISION-CENTRAL">
		</g>
		<g id="DIVISION-VERTICAL-IZQUIERDA_00000085229740836627909760000005526871516412138418_">
		</g>
	</g>
	<g id="DIVISIONES-HORIZONTALES">
	</g>
	<g id="LATERAL-IZQUIERDA">
	</g>
	<g id="TECHO">
	</g>
	<g id="SOPORTES-COOK">
	</g>
</g>
<g id="TABLITAS-TRASERAS">
</g>
<g id="TRIPLEX_00000062169277959621118470000012963048032068378272_">
</g>
<g id="PUNTILLAS">
</g>
<g id="SOPORTE-MUEBLE">
	<g id="PUERTAS">
		<g>
			<polyline class="st0" points="4403.7,1414.9 3578,339.4 1320.7,339.4 1824.8,1405.7 			"/>
			<polygon class="st1" points="1824.8,1575 4403.7,1581.3 4403.7,1413.1 1824.8,1405.7 			"/>
			<polygon class="st0" points="1327.7,558.2 1824.7,1604.2 1824.8,1405.7 1320.7,339.4 			"/>
		</g>
	</g>
	<g>
		<g>
			<polygon class="st2" points="3687.8,244.6 3627.2,212.8 3650.2,274.9 			"/>
			<polygon class="st2" points="4477.4,1342.3 4539,1372 4513.9,1310.7 			"/>
			<line class="st3" x1="3657.2" y1="244.1" x2="4523.7" y2="1359.7"/>
		</g>
		<g>
			<polygon class="st4" points="4345.2,1731.9 4413.1,1702.6 4344.7,1679.5 			"/>
			<line class="st5" x1="1813.5" y1="1705.4" x2="4385.7" y2="1704.2"/>
			<polygon class="st6" points="1864,1679.6 1794.3,1703.6 1861.4,1729.4 			"/>
		</g>
	</g>
	<circle cx="1386.7" cy="590.4" r="21.5"/>
	<line class="st7" x1="1389.6" y1="588.4" x2="1144.7" y2="589.2"/>
	<circle cx="280.2" cy="1269.2" r="21.5"/>
	<g id="SELECTOR-ELEMENTOS-MADERA-SUB">
		<circle class="st8" cx="636.9" cy="570" r="512.7"/>
		<ellipse class="st9" cx="634.6" cy="569.1" rx="518" ry="514"/>
		<line class="st10" x1="184.9" y1="345.9" x2="1093.7" y2="345.9"/>
		<line class="st10" x1="1028.7" y1="905.1" x2="250.5" y2="904.9"/>
		<line class="st11" x1="462.1" y1="381.3" x2="462.1" y2="869.7"/>
		<line class="st12" x1="534.2" y1="381.3" x2="389.9" y2="381.3"/>
		<line class="st12" x1="534.2" y1="869.5" x2="389.9" y2="869.5"/>
		<g>
			<path d="M532.2,589.3l31.2-15.2h3.1v108.1c0,3.8,0,6.7,0.1,8.8c0.1,2.1,0.3,3.7,0.7,4.9c0.4,1.1,0.8,1.9,1.4,2.4
				c0.6,0.5,1.4,0.9,2.4,1.4c1.9,1,5.7,1.6,11.6,1.6v3.5h-48.2v-3.5c3.1,0,5.6-0.1,7.5-0.4c1.9-0.3,3.3-0.6,4.4-1.1
				c1-0.4,1.8-1,2.3-1.6c0.5-0.7,0.9-1.4,1.2-2.1c0.7-1.4,1-6,1-13.8V613c0-5.5-0.1-9.8-0.4-12.9c-0.2-3.1-0.6-5.5-1.2-7
				c-0.6-1.5-1.3-2.5-2.3-2.9c-0.9-0.4-2.2-0.6-3.7-0.6c-2.6,0-5.9,0.8-9.7,2.5L532.2,589.3z"/>
			<path d="M630.5,686.4c2.8,0,5.3,1,7.3,3c2.1,2,3.1,4.5,3.1,7.4c0,2.9-1,5.4-3.1,7.5c-2.1,2.1-4.5,3.1-7.3,3.1
				c-2.9,0-5.4-1-7.5-3.1c-2.1-2.1-3.1-4.6-3.1-7.5c0-3,1-5.5,3.1-7.5C625.1,687.4,627.6,686.4,630.5,686.4z"/>
			<path d="M738.7,576.6l-7.5,16.1h-38.5l-8.5,17.2c7.6,1.1,14.6,3.1,21.1,6c6.4,2.9,12,6.4,16.6,10.6c4.6,4.2,8.2,9.1,10.8,14.6
				c2.6,5.5,3.9,11.4,3.9,17.7c0,7.8-1.6,14.7-4.9,20.7c-3.3,6-7.5,11-12.5,15.1c-5,4.1-10.5,7.2-16.4,9.3
				c-5.9,2.1-11.5,3.2-16.8,3.2c-3.9,0-7.3-0.4-10.1-1.1c-2.8-0.7-5-1.7-6.8-2.9c-1.7-1.2-3-2.6-3.9-4c-0.8-1.5-1.3-3-1.3-4.6
				c0-1.8,0.7-3.4,2.1-4.7c1.4-1.4,3.2-2,5.5-2c0.8,0,1.6,0,2.3,0.1c0.7,0.1,1.3,0.3,2,0.6c0.7,0.3,1.6,0.8,2.5,1.4
				c1,0.6,2.2,1.4,3.7,2.5c2.3,1.7,4.7,2.9,7.1,3.7c2.4,0.8,4.8,1.2,7.3,1.2c3.7,0,7.2-0.8,10.5-2.3c3.3-1.5,6.3-3.5,8.8-6.1
				c2.5-2.6,4.6-5.6,6.1-9.1c1.6-3.5,2.3-7.2,2.3-11.3c0-3.9-0.7-7.6-2-11.3c-1.3-3.7-3.2-7.1-5.6-10.4c-2.4-3.2-5.4-6.2-8.8-8.8
				c-3.4-2.6-7.3-4.9-11.6-6.8c-3.5-1.5-7.5-2.6-12.2-3.3c-4.7-0.7-9.9-1.2-15.9-1.5l24.5-49.9H738.7z"/>
			<path d="M916.2,573.8l3,43.6h-3c-3.9-13.1-9.5-22.5-16.7-28.2c-7.2-5.7-15.9-8.6-26-8.6c-6.6,0-12.6,1.2-18.2,3.7
				c-5.5,2.5-10.3,6.3-14.3,11.5c-4,5.2-7.1,11.7-9.4,19.5c-2.3,7.8-3.4,17-3.4,27.6c0,8.6,1.1,16.3,3.2,23.3
				c2.1,7,5.2,12.9,9.3,17.8c4.1,4.9,9.1,8.7,15,11.4c5.9,2.7,12.7,4,20.4,4c8.1,0,15.4-1.8,22-5.4c6.3-3.3,13.3-10.3,21-21.2l3,1.8
				c-6.5,11.4-14,19.7-22.5,25c-8.5,5.3-18.7,8-30.5,8c-9.1,0-17.5-1.6-25.1-4.8s-14.2-7.7-19.7-13.5c-5.5-5.8-9.8-12.6-12.9-20.6
				c-3.1-7.9-4.7-16.7-4.7-26.2c0-12.9,2.9-24.6,8.6-35.3c5.6-10.7,13.5-19,23.5-24.8c10.2-5.9,21.2-8.9,33-8.9
				c9.3,0,18.4,2.3,27.4,6.8c2.6,1.4,4.5,2.1,5.6,2.1c2.1,0,3.8-0.8,5.1-2.5c1.4-1.7,2.3-3.8,2.9-6.3H916.2z"/>
			<path d="M1007.8,704.8L958.3,597v85.6c0,4.4,0.3,7.9,0.9,10.4c0.6,2.5,1.5,4.3,2.7,5.6c1.2,1.2,2.6,2,4.3,2.3s3.6,0.4,5.8,0.4
				h4.5v3.5H932v-3.5h4.5c2.3,0,4.2-0.2,5.9-0.5c1.7-0.3,3.1-1.1,4.2-2.4s2-3.1,2.5-5.6c0.6-2.5,0.8-5.9,0.8-10.1v-83.8
				c0-3-0.1-5.7-0.4-8c-0.3-2.3-1-4.3-2.2-5.9c-1.2-1.6-3-2.8-5.4-3.7c-2.4-0.8-5.8-1.3-10.1-1.3v-3.5h36.2l46.5,100.3l45.7-100.3
				h36.2v3.5h-4.4c-2.4,0-4.4,0.2-6.1,0.6c-1.7,0.4-3.1,1.2-4.2,2.5s-2,3.2-2.5,5.6c-0.6,2.5-0.8,5.9-0.8,10.1v83.8
				c0,4.4,0.3,7.9,0.9,10.4c0.6,2.5,1.5,4.3,2.7,5.6c1.2,1.2,2.6,2,4.3,2.3s3.6,0.4,5.8,0.4h4.4v3.5h-54.4v-3.5h4.5
				c2.3,0,4.2-0.2,5.9-0.6c1.7-0.4,3.1-1.2,4.3-2.5c1.2-1.3,2-3.1,2.6-5.6c0.6-2.4,0.8-5.8,0.8-10V597l-49.4,107.7H1007.8z"/>
		</g>
		<circle class="st13" cx="635.4" cy="568" r="512.7"/>
	</g>
	<g>
		<g>
			<path d="M394.2,1230.9v18.4h-1.3c-0.6-4.9-2.1-8.4-4.3-10.5c-2.3-2-5.6-3.1-10-3.1h-11v59.8c0,2.6,0.2,4.7,0.6,6.2
				c0.4,1.5,0.9,2.7,1.6,3.4c0.7,0.7,1.5,1.2,2.6,1.4c1,0.2,2.2,0.3,3.6,0.3h2.7v2.2h-33.1v-2.2h2.8c1.4,0,2.6-0.1,3.6-0.3
				c1-0.2,1.9-0.7,2.6-1.5c0.7-0.8,1.2-1.9,1.6-3.4c0.4-1.5,0.6-3.5,0.6-6.1v-59.8h-9.4c-2.4,0-4.4,0.2-6.2,0.6
				c-1.8,0.4-3.4,1.1-4.7,2.1c-1.3,1-2.4,2.4-3.1,4.1c-0.8,1.8-1.2,4-1.4,6.8h-2.2v-18.4H394.2z"/>
			<path d="M422.2,1267.2h36.3v-22.4c0-1.8,0-3.3-0.1-4.5c-0.1-1.2-0.2-2.1-0.4-2.9c-0.2-0.7-0.6-1.3-1-1.8c-0.4-0.4-1-0.8-1.7-1.2
				c-1.6-0.9-3.4-1.4-5.2-1.4h-2.8v-2.2h33.5v2.2H478c-0.7,0-1.5,0.1-2.4,0.3c-0.8,0.2-1.6,0.4-2.3,0.8c-0.7,0.3-1.4,0.8-1.9,1.3
				c-0.6,0.5-1,1.1-1.2,1.8c-0.4,1.2-0.6,3.8-0.6,7.7v50.4c0,1.8,0,3.3,0.1,4.5c0.1,1.1,0.2,2.1,0.4,2.8c0.2,0.7,0.5,1.3,0.9,1.8
				c0.4,0.4,0.9,0.8,1.6,1.2c1.6,0.9,3.4,1.4,5.3,1.4h2.8v2.2h-33.5v-2.2h2.8c1.3,0,2.5-0.1,3.5-0.3c1-0.2,1.9-0.7,2.7-1.5
				c0.7-0.8,1.3-1.9,1.7-3.5c0.4-1.6,0.6-3.7,0.6-6.4v-23.8h-36.3v23.8c0,1.8,0,3.3,0.1,4.5c0.1,1.1,0.2,2.1,0.4,2.8
				c0.2,0.7,0.6,1.3,1,1.8c0.4,0.4,1,0.8,1.7,1.2c1.6,0.9,3.4,1.4,5.2,1.4h2.8v2.2h-33.5v-2.2h2.8c3.2,0,5.5-0.9,7-2.8
				c0.9-1.1,1.4-4.1,1.4-8.9v-50.4c0-1.9,0-3.4-0.1-4.6c-0.1-1.2-0.2-2.1-0.4-2.8c-0.2-0.7-0.5-1.3-0.9-1.7
				c-0.4-0.4-0.9-0.8-1.6-1.2c-1.6-0.9-3.4-1.4-5.2-1.4h-2.8v-2.2h33.5v2.2h-2.8c-0.7,0-1.4,0.1-2.3,0.3c-0.8,0.2-1.6,0.4-2.3,0.8
				c-0.7,0.3-1.4,0.8-1.9,1.3c-0.6,0.5-1,1.1-1.2,1.8c-0.5,1.4-0.7,3.9-0.7,7.7V1267.2z"/>
			<path d="M519.6,1306.9v2.2h-33.5v-2.2h2.8c1.4,0,2.6-0.1,3.7-0.3c1.1-0.2,1.9-0.7,2.6-1.5c0.7-0.8,1.2-1.9,1.6-3.5
				c0.4-1.6,0.6-3.7,0.6-6.4v-50.5c0-1.8,0-3.3-0.1-4.4c-0.1-1.2-0.2-2.1-0.4-2.9c-0.2-0.7-0.5-1.3-0.9-1.8
				c-0.4-0.4-0.9-0.8-1.6-1.2c-1.7-0.9-3.5-1.4-5.3-1.4h-2.8v-2.2h33.5v2.2h-2.8c-1.4,0-2.6,0.1-3.7,0.3c-1.1,0.2-1.9,0.7-2.6,1.5
				c-0.7,0.8-1.2,2-1.6,3.5c-0.4,1.6-0.6,3.7-0.6,6.3v50.5c0,1.8,0,3.3,0.1,4.5c0.1,1.1,0.2,2.1,0.4,2.8c0.2,0.7,0.6,1.3,1,1.8
				c0.4,0.4,1,0.8,1.7,1.2c1.6,0.9,3.4,1.4,5.2,1.4H519.6z"/>
			<path d="M593.5,1229.1l1.8,26.6h-1.8c-2.4-8-5.8-13.7-10.2-17.2c-4.4-3.5-9.7-5.2-15.9-5.2c-4,0-7.7,0.8-11.1,2.3
				c-3.4,1.5-6.3,3.9-8.7,7c-2.4,3.2-4.3,7.1-5.7,11.9c-1.4,4.8-2.1,10.4-2.1,16.9c0,5.2,0.6,10,1.9,14.2c1.3,4.2,3.2,7.9,5.7,10.9
				c2.5,3,5.5,5.3,9.2,7c3.6,1.6,7.8,2.5,12.5,2.5c4.9,0,9.4-1.1,13.4-3.3c3.8-2,8.1-6.3,12.8-12.9l1.8,1.1c-4,6.9-8.5,12-13.7,15.3
				c-5.2,3.2-11.4,4.9-18.6,4.9c-5.6,0-10.7-1-15.3-2.9c-4.6-1.9-8.6-4.7-12-8.2c-3.4-3.5-6-7.7-7.9-12.6c-1.9-4.8-2.8-10.2-2.8-16
				c0-7.9,1.7-15,5.2-21.5c3.4-6.5,8.2-11.6,14.4-15.1c6.2-3.6,12.9-5.4,20.1-5.4c5.7,0,11.2,1.4,16.7,4.1c1.6,0.9,2.8,1.3,3.4,1.3
				c1.3,0,2.3-0.5,3.1-1.5c0.8-1,1.4-2.3,1.8-3.9H593.5z"/>
			<path d="M636.5,1265.7l28.8,28.6c2.4,2.4,4.6,4.4,6.5,6c1.9,1.6,3.8,2.8,5.5,3.8c1.7,0.9,3.4,1.6,5,2.1c1.6,0.4,3.3,0.7,5,0.7
				v2.2h-37.2v-2.2c2.5,0,4.1-0.4,5-1.3c0.9-0.9,1.3-1.8,1.3-2.8c0-0.4,0-0.8-0.1-1.1c-0.1-0.3-0.2-0.7-0.5-1.1
				c-0.3-0.4-0.7-0.9-1.2-1.5c-0.6-0.6-1.3-1.4-2.3-2.4l-27-26.8v25.2c0,1.8,0,3.3,0.1,4.5c0.1,1.1,0.2,2.1,0.4,2.8
				c0.2,0.7,0.5,1.3,0.9,1.8c0.4,0.4,1,0.8,1.7,1.2c1.7,0.9,3.4,1.4,5.2,1.4h2.7v2.2h-33.3v-2.2h2.8c3.2,0,5.6-0.9,7.1-2.8
				c0.9-1.3,1.4-4.2,1.4-8.9v-50.5c0-1.7,0-3.2-0.1-4.3c-0.1-1.2-0.2-2.1-0.4-2.9c-0.2-0.7-0.5-1.4-0.9-1.8
				c-0.4-0.5-0.9-0.9-1.6-1.2c-1.8-0.9-3.6-1.4-5.3-1.4h-2.8v-2.2h33.3v2.2h-2.7c-1.4,0-2.9,0.3-4.5,0.9c-1.6,0.6-2.7,1.7-3.2,3.2
				c-0.5,1.3-0.7,3.8-0.7,7.6v23.9c0.1-0.1,0.4-0.4,1.2-1.1c0.7-0.7,1.5-1.4,2.4-2.2c0.9-0.8,1.7-1.6,2.6-2.4
				c0.8-0.8,1.4-1.3,1.8-1.6c4.2-3.8,7.7-7.1,10.6-9.9c2.9-2.8,5.2-5.1,6.9-7c1.7-1.9,3-3.5,3.7-4.8c0.7-1.3,1.1-2.4,1.1-3.2
				c0-0.9-0.4-1.7-1.2-2.4c-0.8-0.7-2.2-1-4.1-1h-1.8v-2.2h28.7v2.2c-1,0.1-2.1,0.2-3.1,0.3c-1.1,0.1-2.2,0.5-3.5,1.1
				c-1.3,0.6-2.8,1.5-4.4,2.7c-1.7,1.2-3.6,2.9-5.9,5c-0.5,0.4-1.6,1.6-3.5,3.6c-1.9,2-4.6,4.7-8.2,8.2L636.5,1265.7z"/>
			<path d="M684.9,1230.9h21.2l47.8,58.7v-45.1c0-2.6-0.2-4.7-0.6-6.3c-0.4-1.5-0.9-2.7-1.6-3.4c-0.7-0.7-1.6-1.2-2.6-1.4
				c-1-0.2-2.2-0.3-3.5-0.3h-2.8v-2.2h27.3v2.2h-2.8c-1.4,0-2.6,0.1-3.6,0.3c-1,0.2-1.9,0.7-2.6,1.5c-0.7,0.8-1.2,2-1.5,3.4
				c-0.3,1.5-0.5,3.5-0.5,6.1v65.9h-2.1l-51.5-63v48.2c0,2.7,0.2,4.8,0.6,6.3c0.4,1.5,0.9,2.7,1.6,3.4c0.7,0.7,1.5,1.2,2.6,1.4
				c1,0.2,2.2,0.3,3.5,0.3h2.8v2.2h-27.2v-2.2h2.8c1.4,0,2.6-0.1,3.6-0.3c1-0.2,1.9-0.7,2.6-1.5c0.7-0.8,1.2-1.9,1.6-3.4
				c0.3-1.5,0.5-3.5,0.5-6.1v-54.4c-1.1-1.4-2.1-2.5-2.9-3.3c-0.8-0.8-1.5-1.5-2.2-2c-0.7-0.5-1.4-0.9-2.2-1.3
				c-0.8-0.3-1.8-0.7-3-1.1c-1.1-0.3-2.8-0.5-5.1-0.5V1230.9z"/>
			<path d="M796.4,1235.2v30.9h17.1c2.5,0,4.6-0.2,6.1-0.7c1.5-0.5,2.8-1.1,3.7-2.1c0.9-0.9,1.5-2.1,1.8-3.5
				c0.3-1.4,0.6-3.1,0.7-5.1h2.2v27.2h-2.2c-0.3-2.2-0.6-4.1-1-5.6c-0.4-1.5-1-2.7-1.8-3.6c-0.8-0.9-2-1.5-3.5-1.9
				c-1.5-0.4-3.5-0.6-6-0.6h-17.1v25.8c0,2,0,3.5,0.1,4.6c0.1,1.1,0.3,2,0.7,2.6c0.4,0.6,1,1,1.9,1.2c0.9,0.2,2.1,0.3,3.8,0.3h13.2
				c2.2,0,4.1-0.1,5.7-0.2c1.5-0.1,2.9-0.3,4-0.7c1.1-0.3,2.1-0.8,3-1.4c0.9-0.6,1.8-1.4,2.8-2.3c2.3-2.2,4.7-5.8,7.3-10.8h2.3
				l-6.8,19.6h-60.2v-2.2h2.8c0.7,0,1.5-0.1,2.3-0.3c0.8-0.2,1.6-0.4,2.3-0.7c0.7-0.3,1.4-0.7,1.9-1.2c0.6-0.5,1-1.1,1.2-1.8
				c0.5-1.3,0.7-3.8,0.7-7.6v-50.8c0-5-0.5-8.1-1.5-9.2c-1.4-1.5-3.7-2.3-7-2.3h-2.8v-2.2h60.2v17.1h-1.4c-0.6-2.8-1.2-5.1-1.8-6.8
				c-0.7-1.7-1.5-3-2.6-3.9c-1.1-0.9-2.5-1.5-4.2-1.8c-1.7-0.3-3.9-0.4-6.5-0.4H796.4z"/>
			<path d="M897.9,1229.1v27h-2.2c-1-7.3-3.4-12.8-7.1-16.7c-3.8-3.8-8.6-5.8-14.5-5.8c-2,0-3.8,0.3-5.5,1c-1.7,0.7-3.1,1.6-4.4,2.7
				c-1.3,1.1-2.2,2.4-2.9,3.8c-0.7,1.4-1,2.9-1,4.5c0,1.4,0.3,2.8,0.9,4.1c0.6,1.3,2.4,3.3,5.3,6.1c5,3.2,9.4,5.8,13.3,7.8
				c3.7,2,8.6,5,14.9,9.1c2.7,2.1,4.8,4.5,6.2,7.4c1.4,2.8,2.2,5.8,2.2,8.9c0,2.9-0.6,5.7-1.8,8.3c-1.2,2.6-2.9,4.9-5,6.9
				c-2.2,2-4.7,3.6-7.8,4.7c-3,1.2-6.4,1.8-10,1.8c-2.3,0-4.4-0.2-6.4-0.5c-0.3-0.1-1.2-0.3-2.7-0.7s-3-0.9-4.7-1.3
				c-1.7-0.5-3.2-0.9-4.6-1.3c-1.4-0.4-2.3-0.6-2.5-0.6c-1,0-1.7,0.3-2.3,0.9c-0.5,0.6-1,1.8-1.2,3.6h-2.2V1284h2.2
				c1,5.5,2.4,9.7,4,12.6c0.8,1.4,1.9,2.7,3.2,3.8c1.3,1.2,2.9,2.2,4.6,3.1c1.7,0.9,3.5,1.6,5.5,2.1c1.9,0.5,3.9,0.7,5.9,0.7
				c2.4,0,4.6-0.3,6.5-1c1.9-0.7,3.6-1.6,4.9-2.8c1.3-1.2,2.4-2.5,3.1-4.1c0.7-1.5,1.1-3.2,1.1-4.9c0-1.9-0.5-3.9-1.6-5.8
				c-1.1-1.9-2.9-3.9-5.4-5.8c-2.5-1.5-5.4-3.2-8.8-5.2c-6.5-3.7-12.2-7.3-17.3-10.8c-2.8-2.2-4.9-4.7-6.4-7.4
				c-1.5-2.7-2.2-5.6-2.2-8.9c0-2.8,0.6-5.4,1.7-7.9c1.1-2.5,2.7-4.7,4.8-6.6c2-1.9,4.5-3.4,7.3-4.5c2.8-1.1,5.8-1.6,9.1-1.6
				c4.1,0,8.5,1,13.2,3c1.1,0.5,2,0.8,2.8,1.1c0.7,0.3,1.3,0.4,1.8,0.3c1,0,1.9-0.3,2.5-0.9c0.6-0.6,1.1-1.8,1.5-3.6H897.9z"/>
			<path d="M963.5,1229.1v27h-2.2c-1-7.3-3.4-12.8-7.1-16.7c-3.8-3.8-8.6-5.8-14.5-5.8c-2,0-3.8,0.3-5.5,1c-1.7,0.7-3.1,1.6-4.4,2.7
				c-1.3,1.1-2.2,2.4-2.9,3.8c-0.7,1.4-1,2.9-1,4.5c0,1.4,0.3,2.8,0.9,4.1c0.6,1.3,2.4,3.3,5.3,6.1c5,3.2,9.4,5.8,13.3,7.8
				c3.7,2,8.6,5,14.9,9.1c2.7,2.1,4.8,4.5,6.2,7.4c1.4,2.8,2.2,5.8,2.2,8.9c0,2.9-0.6,5.7-1.8,8.3c-1.2,2.6-2.9,4.9-5,6.9
				c-2.2,2-4.7,3.6-7.8,4.7c-3,1.2-6.4,1.8-10,1.8c-2.3,0-4.4-0.2-6.4-0.5c-0.3-0.1-1.2-0.3-2.7-0.7c-1.5-0.4-3-0.9-4.7-1.3
				c-1.7-0.5-3.2-0.9-4.6-1.3c-1.4-0.4-2.3-0.6-2.5-0.6c-1,0-1.7,0.3-2.3,0.9c-0.5,0.6-1,1.8-1.2,3.6h-2.2V1284h2.2
				c1,5.5,2.4,9.7,4,12.6c0.8,1.4,1.9,2.7,3.2,3.8c1.3,1.2,2.9,2.2,4.6,3.1c1.7,0.9,3.5,1.6,5.5,2.1c1.9,0.5,3.9,0.7,5.9,0.7
				c2.4,0,4.6-0.3,6.5-1c1.9-0.7,3.6-1.6,4.9-2.8c1.3-1.2,2.4-2.5,3.1-4.1c0.7-1.5,1.1-3.2,1.1-4.9c0-1.9-0.5-3.9-1.6-5.8
				c-1.1-1.9-2.9-3.9-5.4-5.8c-2.5-1.5-5.4-3.2-8.8-5.2c-6.5-3.7-12.2-7.3-17.3-10.8c-2.8-2.2-4.9-4.7-6.4-7.4
				c-1.5-2.7-2.2-5.6-2.2-8.9c0-2.8,0.6-5.4,1.7-7.9c1.1-2.5,2.7-4.7,4.8-6.6c2-1.9,4.5-3.4,7.3-4.5c2.8-1.1,5.8-1.6,9.1-1.6
				c4.1,0,8.5,1,13.2,3c1.1,0.5,2,0.8,2.8,1.1c0.7,0.3,1.3,0.4,1.8,0.3c1,0,1.9-0.3,2.5-0.9c0.6-0.6,1.1-1.8,1.5-3.6H963.5z"/>
		</g>
		<g>
			<path d="M369,1349.5c5,0,9.7,1,14.3,3.1c4.5,2.1,8.5,4.9,12,8.5s6.2,7.9,8.2,12.8c2,4.9,3.1,10.2,3.1,16c0,5.9-1,11.4-3.1,16.4
				c-2,5-4.8,9.4-8.3,13.1c-3.5,3.7-7.5,6.6-12.2,8.7c-4.7,2.1-9.6,3.1-14.9,3.1c-5.3,0-10.3-1-15-3c-4.6-2-8.7-4.8-12.1-8.5
				c-3.4-3.6-6.1-8-8.1-13c-2-5-3-10.6-3-16.7c0-5.6,1-10.9,3-15.8c2-4.9,4.7-9.2,8.2-12.9c3.5-3.6,7.6-6.5,12.3-8.6
				C358.2,1350.6,363.4,1349.5,369,1349.5z M367.9,1353.7c-4,0-7.5,0.8-10.5,2.5c-3.1,1.7-5.6,4.1-7.7,7.2
				c-2.1,3.1-3.7,6.9-4.8,11.4c-1.1,4.4-1.6,9.4-1.6,15c0,5.5,0.5,10.5,1.6,15.1c1.1,4.6,2.6,8.5,4.7,11.8c2.1,3.3,4.7,5.8,7.8,7.7
				c3.1,1.8,6.7,2.7,10.7,2.7c3.6,0,7-0.7,10-2.1c3.1-1.4,5.7-3.5,8-6.4c2.3-2.9,4.1-6.6,5.4-11.1c1.3-4.5,1.9-9.9,1.9-16.1
				c0-5.9-0.5-11.2-1.6-15.9c-1.1-4.7-2.7-8.6-4.8-11.9c-2.2-3.2-4.8-5.7-8-7.4C375.8,1354.6,372.1,1353.7,367.9,1353.7z"/>
			<path d="M435.2,1355.5v30.7h14.2c1.7,0,3.1-0.2,4.3-0.5c1.2-0.3,2.2-0.9,3-1.7c0.8-0.8,1.4-1.9,1.9-3.3c0.5-1.4,0.8-3.1,1.1-5.2
				h2.2v26.4h-2.2c-0.1-1.9-0.3-3.6-0.6-5c-0.3-1.4-0.9-2.5-1.7-3.4c-0.8-0.9-1.8-1.5-3.1-1.9c-1.3-0.4-2.9-0.6-4.9-0.6h-14.2v24.5
				c0,1.8,0,3.3,0.1,4.5c0.1,1.1,0.2,2.1,0.4,2.8c0.2,0.7,0.6,1.3,1,1.8c0.4,0.4,1,0.8,1.7,1.2c1.6,0.9,3.4,1.4,5.2,1.4h2.8v2.2H413
				v-2.2h2.8c1.4,0,2.6-0.1,3.7-0.3c1.1-0.2,1.9-0.7,2.6-1.5c0.7-0.8,1.2-1.9,1.6-3.5c0.4-1.6,0.6-3.7,0.6-6.4v-50.5
				c0-1.8,0-3.3-0.1-4.4c-0.1-1.2-0.2-2.1-0.4-2.9c-0.2-0.7-0.5-1.3-0.9-1.8c-0.4-0.5-0.9-0.9-1.6-1.2c-0.9-0.5-1.7-0.8-2.6-1
				c-0.9-0.2-1.8-0.3-2.8-0.3H413v-2.2h58.2v17.2h-1.3c-0.7-2.8-1.6-5.1-2.5-6.8c-0.9-1.7-2.1-3-3.4-3.9c-1.3-0.9-2.9-1.5-4.8-1.8
				c-1.8-0.3-4-0.4-6.6-0.4H435.2z"/>
			<path d="M520.1,1359l19-9.3h1.9v66c0,2.3,0,4.1,0.1,5.4c0.1,1.3,0.2,2.3,0.4,3c0.2,0.7,0.5,1.2,0.9,1.5c0.3,0.3,0.8,0.6,1.5,0.9
				c1.1,0.6,3.5,0.9,7.1,0.9v2.2h-29.4v-2.2c1.9,0,3.4-0.1,4.6-0.3c1.1-0.2,2-0.4,2.7-0.6c0.6-0.3,1.1-0.6,1.4-1
				c0.3-0.4,0.6-0.8,0.7-1.3c0.4-0.9,0.6-3.7,0.6-8.4v-42.2c0-3.3-0.1-5.9-0.2-7.9c-0.1-1.9-0.4-3.3-0.7-4.3
				c-0.3-0.9-0.8-1.5-1.4-1.8c-0.6-0.3-1.3-0.4-2.2-0.4c-1.6,0-3.6,0.5-5.9,1.5L520.1,1359z"/>
			<path d="M580,1418.2c1.7,0,3.2,0.6,4.5,1.8c1.3,1.2,1.9,2.7,1.9,4.5c0,1.8-0.6,3.3-1.9,4.6c-1.3,1.3-2.8,1.9-4.5,1.9
				c-1.8,0-3.3-0.6-4.6-1.9c-1.3-1.3-1.9-2.8-1.9-4.6c0-1.8,0.6-3.4,1.9-4.6C576.7,1418.8,578.2,1418.2,580,1418.2z"/>
			<path d="M646,1351.2l-4.6,9.8h-23.5l-5.2,10.5c4.6,0.7,8.9,1.9,12.9,3.7c3.9,1.8,7.3,3.9,10.1,6.5c2.8,2.6,5,5.5,6.6,8.9
				c1.6,3.4,2.4,7,2.4,10.8c0,4.8-1,9-3,12.6c-2,3.6-4.5,6.7-7.6,9.2c-3.1,2.5-6.4,4.4-10,5.7c-3.6,1.3-7,1.9-10.2,1.9
				c-2.4,0-4.5-0.2-6.2-0.6c-1.7-0.4-3.1-1-4.1-1.8c-1.1-0.7-1.8-1.6-2.4-2.5c-0.5-0.9-0.8-1.8-0.8-2.8c0-1.1,0.4-2,1.3-2.9
				c0.9-0.8,2-1.2,3.4-1.2c0.5,0,1,0,1.4,0.1c0.4,0.1,0.8,0.2,1.2,0.4c0.4,0.2,0.9,0.5,1.5,0.9c0.6,0.4,1.4,0.9,2.3,1.5
				c1.4,1,2.9,1.8,4.3,2.3c1.5,0.5,2.9,0.7,4.4,0.7c2.2,0,4.4-0.5,6.4-1.4c2-0.9,3.8-2.2,5.4-3.7c1.5-1.6,2.8-3.4,3.7-5.5
				c0.9-2.1,1.4-4.4,1.4-6.9c0-2.4-0.4-4.6-1.2-6.9c-0.8-2.2-2-4.3-3.4-6.3c-1.5-2-3.3-3.8-5.4-5.4c-2.1-1.6-4.5-3-7.1-4.1
				c-2.1-0.9-4.6-1.6-7.4-2c-2.8-0.4-6.1-0.7-9.7-0.9l15-30.5H646z"/>
			<path d="M754.3,1349.5l1.8,26.6h-1.8c-2.4-8-5.8-13.7-10.2-17.2c-4.4-3.5-9.7-5.2-15.9-5.2c-4,0-7.7,0.8-11.1,2.3
				c-3.4,1.5-6.3,3.9-8.7,7c-2.4,3.2-4.3,7.1-5.7,11.9c-1.4,4.8-2.1,10.4-2.1,16.9c0,5.2,0.6,10,1.9,14.2c1.3,4.2,3.2,7.9,5.7,10.9
				c2.5,3,5.5,5.3,9.2,7c3.6,1.6,7.8,2.5,12.5,2.5c4.9,0,9.4-1.1,13.4-3.3c3.8-2,8.1-6.3,12.8-12.9l1.8,1.1c-4,6.9-8.5,12-13.7,15.3
				c-5.2,3.2-11.4,4.9-18.6,4.9c-5.6,0-10.7-1-15.3-2.9c-4.6-1.9-8.6-4.7-12-8.2c-3.4-3.5-6-7.7-7.9-12.6c-1.9-4.8-2.8-10.2-2.8-16
				c0-7.9,1.7-15,5.2-21.5c3.4-6.5,8.2-11.6,14.4-15.1c6.2-3.6,12.9-5.4,20.1-5.4c5.7,0,11.2,1.4,16.7,4.1c1.6,0.9,2.8,1.3,3.4,1.3
				c1.3,0,2.3-0.5,3.1-1.5c0.8-1,1.4-2.3,1.8-3.9H754.3z"/>
			<path d="M810.2,1429.4l-30.2-65.7v52.2c0,2.7,0.2,4.8,0.6,6.3c0.4,1.5,0.9,2.7,1.6,3.4c0.7,0.7,1.6,1.2,2.6,1.4
				c1,0.2,2.2,0.3,3.5,0.3h2.8v2.2h-27.2v-2.2h2.8c1.4,0,2.6-0.1,3.6-0.3c1-0.2,1.9-0.7,2.6-1.5c0.7-0.8,1.2-1.9,1.5-3.4
				c0.3-1.5,0.5-3.6,0.5-6.2v-51.1c0-1.8-0.1-3.5-0.3-4.9c-0.2-1.4-0.6-2.6-1.3-3.6c-0.7-1-1.8-1.7-3.3-2.2s-3.5-0.8-6.2-0.8v-2.2
				H786l28.4,61.2l27.9-61.2h22.1v2.2h-2.7c-1.4,0-2.7,0.1-3.7,0.3c-1,0.2-1.9,0.7-2.6,1.5c-0.7,0.8-1.2,1.9-1.5,3.4
				c-0.3,1.5-0.5,3.6-0.5,6.2v51.1c0,2.7,0.2,4.8,0.6,6.3c0.4,1.5,0.9,2.7,1.6,3.4c0.7,0.7,1.6,1.2,2.6,1.4c1,0.2,2.2,0.3,3.5,0.3
				h2.7v2.2h-33.2v-2.2h2.8c1.4,0,2.6-0.1,3.6-0.3c1-0.2,1.9-0.7,2.6-1.5c0.7-0.8,1.2-1.9,1.6-3.4c0.3-1.5,0.5-3.5,0.5-6.1v-52.2
				l-30.1,65.7H810.2z"/>
		</g>
		<g>
			<path d="M440.3,1477.1v2.2c-1.5,0-2.8,0.1-3.8,0.4c-1,0.3-1.9,0.9-2.8,1.9c-0.9,1-1.7,2.5-2.6,4.5s-1.9,4.6-3,8l-21.8,63.1H404
				l-17.8-50l-17.6,50h-2.2l-23.2-64.9c-0.9-2.4-1.5-4.3-2.1-5.7c-0.5-1.4-0.9-2.3-1.2-2.8c-0.8-1.5-1.8-2.6-3.1-3.3
				c-1.3-0.7-3.1-1.1-5.4-1.1v-2.2h28.9v2.2h-1.4c-2,0-3.6,0.5-4.6,1.4c-1.1,0.9-1.6,2-1.6,3.4c0,1.4,0.9,4.5,2.6,9.3l15.4,43.9
				l12.9-37.3l-4.1-11.8c-0.6-1.4-1.3-2.7-1.9-3.8c-0.6-1.1-1.3-2-2.2-2.8c-0.8-0.7-1.7-1.3-2.8-1.7c-1.1-0.4-2.4-0.6-4-0.6v-2.2
				h30.4v2.2h-2.1c-2.2,0-3.8,0.5-4.7,1.4c-1,0.9-1.5,2.2-1.5,3.8c0,2,0.9,5.4,2.6,10.2l15,42.5l14.9-43.1c0.8-2.4,1.4-4.4,1.9-6
				c0.5-1.6,0.7-2.9,0.7-3.9c0-1.8-0.8-3.1-2.4-3.8c-1.6-0.7-3.7-1.1-6.3-1.1v-2.2H440.3z"/>
			<path d="M477.6,1553.1v2.2h-33.5v-2.2h2.8c1.4,0,2.6-0.1,3.7-0.3c1.1-0.2,1.9-0.7,2.6-1.5c0.7-0.8,1.2-1.9,1.6-3.5
				c0.4-1.6,0.6-3.7,0.6-6.4v-50.5c0-1.8,0-3.3-0.1-4.4c-0.1-1.2-0.2-2.1-0.4-2.9c-0.2-0.7-0.5-1.3-0.9-1.8
				c-0.4-0.4-0.9-0.8-1.6-1.2c-1.7-0.9-3.5-1.4-5.3-1.4h-2.8v-2.2h33.5v2.2h-2.8c-1.4,0-2.6,0.1-3.7,0.3c-1.1,0.2-1.9,0.7-2.6,1.5
				c-0.7,0.8-1.2,2-1.6,3.5c-0.4,1.6-0.6,3.7-0.6,6.3v50.5c0,1.8,0,3.3,0.1,4.5c0.1,1.1,0.2,2.1,0.4,2.8c0.2,0.7,0.6,1.3,1,1.8
				c0.4,0.4,1,0.8,1.7,1.2c1.6,0.9,3.4,1.4,5.2,1.4H477.6z"/>
			<path d="M548.8,1477.1v18.4h-1.3c-0.6-4.9-2.1-8.4-4.3-10.5c-2.3-2-5.6-3.1-10-3.1h-11v59.8c0,2.6,0.2,4.7,0.6,6.2
				c0.4,1.5,0.9,2.7,1.6,3.4c0.7,0.7,1.5,1.2,2.6,1.4c1,0.2,2.2,0.3,3.6,0.3h2.7v2.2h-33.1v-2.2h2.8c1.4,0,2.6-0.1,3.6-0.3
				c1-0.2,1.9-0.7,2.6-1.5c0.7-0.8,1.2-1.9,1.6-3.4c0.4-1.5,0.6-3.5,0.6-6.1V1482h-9.4c-2.4,0-4.4,0.2-6.2,0.6
				c-1.8,0.4-3.4,1.1-4.7,2.1c-1.3,1-2.4,2.4-3.1,4.1c-0.8,1.8-1.2,4-1.4,6.8h-2.2v-18.4H548.8z"/>
			<path d="M576.9,1513.4h36.3V1491c0-1.8,0-3.3-0.1-4.5c-0.1-1.2-0.2-2.1-0.4-2.9c-0.2-0.7-0.6-1.3-1-1.8s-1-0.8-1.7-1.2
				c-1.6-0.9-3.4-1.4-5.2-1.4H602v-2.2h33.5v2.2h-2.8c-0.7,0-1.5,0.1-2.4,0.3c-0.8,0.2-1.6,0.4-2.3,0.8c-0.7,0.3-1.4,0.8-1.9,1.3
				c-0.6,0.5-1,1.1-1.2,1.8c-0.4,1.2-0.6,3.8-0.6,7.7v50.4c0,1.8,0,3.3,0.1,4.5c0.1,1.1,0.2,2.1,0.4,2.8c0.2,0.7,0.5,1.3,0.9,1.8
				c0.4,0.4,0.9,0.8,1.6,1.2c1.6,0.9,3.4,1.4,5.3,1.4h2.8v2.2H602v-2.2h2.8c1.3,0,2.5-0.1,3.5-0.3c1-0.2,1.9-0.7,2.7-1.5
				c0.7-0.8,1.3-1.9,1.7-3.5c0.4-1.6,0.6-3.7,0.6-6.4v-23.8h-36.3v23.8c0,1.8,0,3.3,0.1,4.5c0.1,1.1,0.2,2.1,0.4,2.8
				c0.2,0.7,0.6,1.3,1,1.8c0.4,0.4,1,0.8,1.7,1.2c1.6,0.9,3.4,1.4,5.2,1.4h2.8v2.2h-33.5v-2.2h2.8c3.2,0,5.5-0.9,7-2.8
				c0.9-1.1,1.4-4.1,1.4-8.9V1491c0-1.9,0-3.4-0.1-4.6c-0.1-1.2-0.2-2.1-0.4-2.8c-0.2-0.7-0.5-1.3-0.9-1.7c-0.4-0.4-0.9-0.8-1.6-1.2
				c-1.6-0.9-3.4-1.4-5.2-1.4h-2.8v-2.2h33.5v2.2h-2.8c-0.7,0-1.4,0.1-2.3,0.3c-0.8,0.2-1.6,0.4-2.3,0.8c-0.7,0.3-1.4,0.8-1.9,1.3
				c-0.6,0.5-1,1.1-1.2,1.8c-0.5,1.4-0.7,3.9-0.7,7.7V1513.4z"/>
		</g>
		<g>
			<path d="M374.4,1678.1l-30.2-65.7v52.2c0,2.7,0.2,4.8,0.6,6.3c0.4,1.5,0.9,2.7,1.6,3.4c0.7,0.7,1.6,1.2,2.6,1.4
				c1,0.2,2.2,0.3,3.5,0.3h2.8v2.2h-27.2v-2.2h2.8c1.4,0,2.6-0.1,3.6-0.3c1-0.2,1.9-0.7,2.6-1.5c0.7-0.8,1.2-1.9,1.5-3.4
				c0.3-1.5,0.5-3.6,0.5-6.2v-51.1c0-1.8-0.1-3.5-0.3-4.9c-0.2-1.4-0.6-2.6-1.3-3.6c-0.7-1-1.8-1.7-3.3-2.2
				c-1.5-0.5-3.5-0.8-6.2-0.8v-2.2h22.1l28.4,61.2l27.9-61.2h22.1v2.2H426c-1.4,0-2.7,0.1-3.7,0.3c-1,0.2-1.9,0.7-2.6,1.5
				s-1.2,1.9-1.5,3.4c-0.3,1.5-0.5,3.6-0.5,6.2v51.1c0,2.7,0.2,4.8,0.6,6.3c0.4,1.5,0.9,2.7,1.6,3.4c0.7,0.7,1.6,1.2,2.6,1.4
				c1,0.2,2.2,0.3,3.5,0.3h2.7v2.2h-33.2v-2.2h2.8c1.4,0,2.6-0.1,3.6-0.3c1-0.2,1.9-0.7,2.6-1.5c0.7-0.8,1.2-1.9,1.6-3.4
				c0.3-1.5,0.5-3.5,0.5-6.1v-52.2l-30.1,65.7H374.4z"/>
			<path d="M485.1,1652h-30.3l-5.3,12.3c-1.3,3-1.9,5.3-1.9,6.8c0,0.6,0.1,1.2,0.3,1.7c0.2,0.5,0.6,1,1.3,1.4
				c0.7,0.4,1.6,0.8,2.8,1.1c1.2,0.3,2.7,0.5,4.7,0.6v2.2h-24.6v-2.2c1.9-0.3,3.5-0.7,4.7-1.3c1.2-0.6,2.2-1.4,3.1-2.4
				c0.9-1,1.6-2.3,2.4-3.9c0.7-1.6,1.6-3.6,2.6-5.9l27.5-64.3h2l27.2,64.9c1.1,2.7,2.1,4.9,3.1,6.5c0.9,1.6,1.9,2.9,2.9,3.8
				c1,0.9,2.1,1.5,3.3,1.9c1.2,0.3,2.6,0.5,4.3,0.6v2.2h-30.9v-2.2c3.1-0.1,5.2-0.6,6.3-1.5c1.1-0.9,1.7-2,1.7-3.2
				c-0.1-1.7-0.8-4.4-2.3-8.1L485.1,1652z M483.5,1647.7l-13.2-31.6l-13.6,31.6H483.5z"/>
			<path d="M571.6,1599.9v18.4h-1.3c-0.6-4.9-2.1-8.4-4.3-10.5c-2.3-2-5.6-3.1-10-3.1h-11v59.8c0,2.6,0.2,4.7,0.6,6.2
				c0.4,1.5,0.9,2.7,1.6,3.4c0.7,0.7,1.5,1.2,2.6,1.4c1,0.2,2.2,0.3,3.6,0.3h2.7v2.2h-33.1v-2.2h2.8c1.4,0,2.6-0.1,3.6-0.3
				c1-0.2,1.9-0.7,2.6-1.5c0.7-0.8,1.2-1.9,1.6-3.4c0.4-1.5,0.6-3.5,0.6-6.1v-59.8h-9.4c-2.4,0-4.4,0.2-6.2,0.6
				c-1.8,0.4-3.4,1.1-4.7,2.1c-1.3,1-2.4,2.4-3.1,4.1c-0.8,1.8-1.2,4-1.4,6.8h-2.2v-18.4H571.6z"/>
			<path d="M600.1,1604.2v30.9h17.1c2.5,0,4.6-0.2,6.1-0.7c1.5-0.5,2.8-1.1,3.7-2.1c0.9-0.9,1.5-2.1,1.8-3.5
				c0.3-1.4,0.6-3.1,0.7-5.1h2.2v27.2h-2.2c-0.3-2.2-0.6-4.1-1-5.6c-0.4-1.5-1-2.7-1.8-3.6c-0.8-0.9-2-1.5-3.5-1.9
				c-1.5-0.4-3.5-0.6-6-0.6h-17.1v25.8c0,2,0,3.5,0.1,4.6c0.1,1.1,0.3,2,0.7,2.6c0.4,0.6,1,1,1.9,1.2c0.9,0.2,2.1,0.3,3.8,0.3h13.2
				c2.2,0,4.1-0.1,5.7-0.2c1.5-0.1,2.9-0.3,4-0.7c1.1-0.3,2.1-0.8,3-1.4c0.9-0.6,1.8-1.4,2.8-2.3c2.3-2.2,4.7-5.8,7.3-10.8h2.3
				l-6.8,19.6h-60.2v-2.2h2.8c0.7,0,1.5-0.1,2.3-0.3c0.8-0.2,1.6-0.4,2.3-0.7c0.7-0.3,1.4-0.7,1.9-1.2c0.6-0.5,1-1.1,1.2-1.8
				c0.5-1.3,0.7-3.8,0.7-7.6v-50.8c0-5-0.5-8.1-1.5-9.2c-1.4-1.5-3.7-2.3-7-2.3h-2.8v-2.2H638v17.1h-1.4c-0.6-2.8-1.2-5.1-1.8-6.8
				c-0.7-1.7-1.5-3-2.6-3.9c-1.1-0.9-2.5-1.5-4.2-1.8c-1.7-0.3-3.9-0.4-6.5-0.4H600.1z"/>
			<path d="M727.2,1678.1h-20.8l-26.5-36.6c-1,0.1-1.8,0.1-2.6,0.1c-0.8,0-1.5,0-2.1,0c-0.5,0-1.1,0-1.6,0c-0.6,0-1.2-0.1-1.8-0.1
				v22.7c0,2.8,0.2,4.9,0.6,6.5c0.4,1.6,0.9,2.8,1.6,3.5c0.7,0.8,1.6,1.2,2.6,1.4c1,0.2,2.1,0.3,3.4,0.3h3.1v2.2h-33.5v-2.2h3
				c3.2,0,5.6-1.1,7.1-3.2c0.8-1.3,1.2-4.1,1.2-8.5v-50.5c0-4.8-0.5-7.9-1.6-9.1c-1.5-1.7-3.7-2.6-6.6-2.6h-3v-2.2h28.5
				c4.2,0,7.8,0.2,10.8,0.5c3,0.3,5.5,0.8,7.5,1.4c1.9,0.6,3.8,1.5,5.5,2.6s3.2,2.5,4.5,4c1.3,1.6,2.3,3.3,3.1,5.3
				c0.7,2,1.1,4,1.1,6.3c0,4.9-1.5,9.1-4.6,12.6c-3.1,3.5-7.9,6-14.5,7.5l16.1,22.4c1.9,2.6,3.6,4.7,5,6.4c1.5,1.7,2.9,3,4.4,4
				c1.5,1,3,1.7,4.6,2.2c1.6,0.5,3.6,0.8,5.8,1V1678.1z M671.7,1637.9c0.7,0,1.4,0,1.9,0c0.5,0,1,0,1.3,0c3.7,0,7-0.4,9.8-1.3
				c2.8-0.9,5.2-2.1,7.1-3.6c1.9-1.5,3.3-3.4,4.3-5.5c0.9-2.1,1.4-4.4,1.4-6.8c0-2.4-0.4-4.6-1.2-6.7c-0.8-2-2-3.8-3.4-5.2
				c-1.5-1.5-3.3-2.6-5.3-3.4c-2.1-0.8-4.3-1.2-6.8-1.2c-2.4,0-5.4,0.4-9,1.1V1637.9z"/>
			<path d="M762.6,1676v2.2h-33.5v-2.2h2.8c1.4,0,2.6-0.1,3.7-0.3c1.1-0.2,1.9-0.7,2.6-1.5c0.7-0.8,1.2-1.9,1.6-3.5
				c0.4-1.6,0.6-3.7,0.6-6.4v-50.5c0-1.8,0-3.3-0.1-4.4c-0.1-1.2-0.2-2.1-0.4-2.9c-0.2-0.7-0.5-1.3-0.9-1.8
				c-0.4-0.4-0.9-0.8-1.6-1.2c-1.7-0.9-3.5-1.4-5.3-1.4h-2.8v-2.2h33.5v2.2h-2.8c-1.4,0-2.6,0.1-3.7,0.3c-1.1,0.2-1.9,0.7-2.6,1.5
				c-0.7,0.8-1.2,2-1.6,3.5c-0.4,1.6-0.6,3.7-0.6,6.3v50.5c0,1.8,0,3.3,0.1,4.5c0.1,1.1,0.2,2.1,0.4,2.8c0.2,0.7,0.6,1.3,1,1.8
				c0.4,0.4,1,0.8,1.7,1.2c1.6,0.9,3.4,1.4,5.2,1.4H762.6z"/>
			<path d="M819.5,1652h-30.3l-5.3,12.3c-1.3,3-1.9,5.3-1.9,6.8c0,0.6,0.1,1.2,0.3,1.7c0.2,0.5,0.6,1,1.3,1.4
				c0.7,0.4,1.6,0.8,2.8,1.1c1.2,0.3,2.7,0.5,4.7,0.6v2.2h-24.6v-2.2c1.9-0.3,3.5-0.7,4.7-1.3c1.2-0.6,2.2-1.4,3.1-2.4
				c0.9-1,1.6-2.3,2.4-3.9c0.7-1.6,1.6-3.6,2.6-5.9l27.5-64.3h2l27.2,64.9c1.1,2.7,2.1,4.9,3.1,6.5c0.9,1.6,1.9,2.9,2.9,3.8
				c1,0.9,2.1,1.5,3.3,1.9c1.2,0.3,2.6,0.5,4.3,0.6v2.2h-30.9v-2.2c3.1-0.1,5.2-0.6,6.3-1.5c1.1-0.9,1.7-2,1.7-3.2
				c-0.1-1.7-0.8-4.4-2.3-8.1L819.5,1652z M817.9,1647.7l-13.2-31.6l-13.6,31.6H817.9z"/>
			<path d="M918.4,1656.5l1.9,0.3l-6.7,21.2H853v-2.2h3c3.2,0,5.6-1.1,7.1-3.2c0.8-1.3,1.2-4.1,1.2-8.5v-50.5c0-4.8-0.5-7.9-1.6-9.1
				c-1.5-1.7-3.7-2.6-6.6-2.6h-3v-2.2h35.4v2.2c-2.1,0-3.9,0.1-5.3,0.3c-1.4,0.2-2.6,0.5-3.5,0.9c-0.9,0.4-1.6,0.8-2.2,1.3
				c-0.5,0.5-0.9,1.1-1.3,1.7c-0.6,1.1-0.9,4.1-0.9,8.9v49.1c0,2.7,0.2,4.6,0.6,5.8c0.4,1.2,1.2,2,2.4,2.5c1,0.3,4,0.5,9,0.5h5.7
				c6,0,10.2-0.4,12.6-1.3c1.2-0.4,2.4-1,3.4-1.7c1.1-0.7,2.2-1.7,3.2-2.9c1-1.2,2-2.7,3-4.4C916.4,1661.1,917.4,1659,918.4,1656.5z
				"/>
		</g>
		<g>
			<path d="M374,1811.9l-30.2-65.7v52.2c0,2.7,0.2,4.8,0.6,6.3c0.4,1.5,0.9,2.7,1.6,3.4c0.7,0.7,1.6,1.2,2.6,1.4
				c1,0.2,2.2,0.3,3.5,0.3h2.8v2.2h-27.2v-2.2h2.8c1.4,0,2.6-0.1,3.6-0.3c1-0.2,1.9-0.7,2.6-1.5c0.7-0.8,1.2-1.9,1.5-3.4
				c0.3-1.5,0.5-3.6,0.5-6.2v-51.1c0-1.8-0.1-3.5-0.3-4.9c-0.2-1.4-0.6-2.6-1.3-3.6c-0.7-1-1.8-1.7-3.3-2.2
				c-1.5-0.5-3.5-0.8-6.2-0.8v-2.2h22.1l28.4,61.2l27.9-61.2h22.1v2.2h-2.7c-1.4,0-2.7,0.1-3.7,0.3c-1,0.2-1.9,0.7-2.6,1.5
				c-0.7,0.8-1.2,1.9-1.5,3.4c-0.3,1.5-0.5,3.6-0.5,6.2v51.1c0,2.7,0.2,4.8,0.6,6.3c0.4,1.5,0.9,2.7,1.6,3.4
				c0.7,0.7,1.6,1.2,2.6,1.4c1,0.2,2.2,0.3,3.5,0.3h2.7v2.2h-33.2v-2.2h2.8c1.4,0,2.6-0.1,3.6-0.3c1-0.2,1.9-0.7,2.6-1.5
				c0.7-0.8,1.2-1.9,1.6-3.4c0.3-1.5,0.5-3.5,0.5-6.1v-52.2l-30.1,65.7H374z"/>
			<path d="M455.3,1738v30.9h17.1c2.5,0,4.6-0.2,6.1-0.7c1.5-0.5,2.8-1.1,3.7-2.1c0.9-0.9,1.5-2.1,1.8-3.5c0.3-1.4,0.6-3.1,0.7-5.1
				h2.2v27.2h-2.2c-0.3-2.2-0.6-4.1-1-5.6c-0.4-1.5-1-2.7-1.8-3.6c-0.8-0.9-2-1.5-3.5-1.9c-1.5-0.4-3.5-0.6-6-0.6h-17.1v25.8
				c0,2,0,3.5,0.1,4.6c0.1,1.1,0.3,2,0.7,2.6c0.4,0.6,1,1,1.9,1.2c0.9,0.2,2.1,0.3,3.8,0.3H475c2.2,0,4.1-0.1,5.7-0.2
				c1.5-0.1,2.9-0.3,4-0.7c1.1-0.3,2.1-0.8,3-1.4s1.8-1.4,2.8-2.3c2.3-2.2,4.7-5.8,7.3-10.8h2.3l-6.8,19.6H433v-2.2h2.8
				c0.7,0,1.5-0.1,2.3-0.3c0.8-0.2,1.6-0.4,2.3-0.7c0.7-0.3,1.4-0.7,1.9-1.2c0.6-0.5,1-1.1,1.2-1.8c0.5-1.3,0.7-3.8,0.7-7.6v-50.8
				c0-5-0.5-8.1-1.5-9.2c-1.4-1.5-3.7-2.3-7-2.3H433v-2.2h60.2v17.1h-1.4c-0.6-2.8-1.2-5.1-1.8-6.8c-0.7-1.7-1.5-3-2.6-3.9
				c-1.1-0.9-2.5-1.5-4.2-1.8c-1.7-0.3-3.9-0.4-6.5-0.4H455.3z"/>
			<path d="M570.4,1790.3l1.9,0.3l-6.7,21.2H505v-2.2h3c3.2,0,5.6-1.1,7.1-3.2c0.8-1.3,1.2-4.1,1.2-8.5v-50.5c0-4.8-0.5-7.9-1.6-9.1
				c-1.5-1.7-3.7-2.6-6.6-2.6h-3v-2.2h35.4v2.2c-2.1,0-3.9,0.1-5.3,0.3c-1.4,0.2-2.6,0.5-3.5,0.9c-0.9,0.4-1.6,0.8-2.2,1.3
				c-0.5,0.5-0.9,1.1-1.3,1.7c-0.6,1.1-0.9,4.1-0.9,8.9v49.1c0,2.7,0.2,4.6,0.6,5.8c0.4,1.2,1.2,2,2.4,2.5c1,0.3,4,0.5,9,0.5h5.7
				c6,0,10.2-0.4,12.6-1.3c1.2-0.4,2.4-1,3.4-1.7c1.1-0.7,2.2-1.7,3.2-2.9c1-1.2,2-2.7,3-4.4
				C568.4,1794.9,569.4,1792.8,570.4,1790.3z"/>
			<path d="M628.8,1785.8h-30.3l-5.3,12.3c-1.3,3-1.9,5.3-1.9,6.8c0,0.6,0.1,1.2,0.3,1.7c0.2,0.5,0.6,1,1.3,1.4
				c0.7,0.4,1.6,0.8,2.8,1.1c1.2,0.3,2.7,0.5,4.7,0.6v2.2h-24.6v-2.2c1.9-0.3,3.5-0.7,4.7-1.3c1.2-0.6,2.2-1.4,3.1-2.4
				c0.9-1,1.6-2.3,2.4-3.9c0.7-1.6,1.6-3.6,2.6-5.9l27.5-64.3h2l27.2,64.9c1.1,2.7,2.1,4.9,3.1,6.5c0.9,1.6,1.9,2.9,2.9,3.8
				c1,0.9,2.1,1.5,3.3,1.9c1.2,0.3,2.6,0.5,4.3,0.6v2.2h-30.9v-2.2c3.1-0.1,5.2-0.6,6.3-1.5c1.1-0.9,1.7-2,1.7-3.2
				c-0.1-1.7-0.8-4.4-2.3-8.1L628.8,1785.8z M627.2,1781.5l-13.2-31.6l-13.6,31.6H627.2z"/>
			<path d="M708.3,1811.9l-30.2-65.7v52.2c0,2.7,0.2,4.8,0.6,6.3c0.4,1.5,0.9,2.7,1.6,3.4c0.7,0.7,1.6,1.2,2.6,1.4
				c1,0.2,2.2,0.3,3.5,0.3h2.8v2.2H662v-2.2h2.8c1.4,0,2.6-0.1,3.6-0.3c1-0.2,1.9-0.7,2.6-1.5c0.7-0.8,1.2-1.9,1.5-3.4
				c0.3-1.5,0.5-3.6,0.5-6.2v-51.1c0-1.8-0.1-3.5-0.3-4.9c-0.2-1.4-0.6-2.6-1.3-3.6c-0.7-1-1.8-1.7-3.3-2.2
				c-1.5-0.5-3.5-0.8-6.2-0.8v-2.2h22.1l28.4,61.2l27.9-61.2h22.1v2.2h-2.7c-1.4,0-2.7,0.1-3.7,0.3c-1,0.2-1.9,0.7-2.6,1.5
				c-0.7,0.8-1.2,1.9-1.5,3.4c-0.3,1.5-0.5,3.6-0.5,6.2v51.1c0,2.7,0.2,4.8,0.6,6.3c0.4,1.5,0.9,2.7,1.6,3.4
				c0.7,0.7,1.6,1.2,2.6,1.4c1,0.2,2.2,0.3,3.5,0.3h2.7v2.2h-33.2v-2.2h2.8c1.4,0,2.6-0.1,3.6-0.3c1-0.2,1.9-0.7,2.6-1.5
				c0.7-0.8,1.2-1.9,1.6-3.4c0.3-1.5,0.5-3.5,0.5-6.1v-52.2l-30.1,65.7H708.3z"/>
			<path d="M801.4,1809.8v2.2h-33.5v-2.2h2.8c1.4,0,2.6-0.1,3.7-0.3c1.1-0.2,1.9-0.7,2.6-1.5c0.7-0.8,1.2-1.9,1.6-3.5
				c0.4-1.6,0.6-3.7,0.6-6.4v-50.5c0-1.8,0-3.3-0.1-4.4c-0.1-1.2-0.2-2.1-0.4-2.9c-0.2-0.7-0.5-1.3-0.9-1.8
				c-0.4-0.4-0.9-0.8-1.6-1.2c-1.7-0.9-3.5-1.4-5.3-1.4h-2.8v-2.2h33.5v2.2h-2.8c-1.4,0-2.6,0.1-3.7,0.3c-1.1,0.2-1.9,0.7-2.6,1.5
				c-0.7,0.8-1.2,2-1.6,3.5c-0.4,1.6-0.6,3.7-0.6,6.3v50.5c0,1.8,0,3.3,0.1,4.5c0.1,1.1,0.2,2.1,0.4,2.8c0.2,0.7,0.6,1.3,1,1.8
				c0.4,0.4,1,0.8,1.7,1.2c1.6,0.9,3.4,1.4,5.2,1.4H801.4z"/>
			<path d="M802.8,1733.7h21.2l47.8,58.7v-45.1c0-2.6-0.2-4.7-0.6-6.3c-0.4-1.5-0.9-2.7-1.6-3.4c-0.7-0.7-1.6-1.2-2.6-1.4
				c-1-0.2-2.2-0.3-3.5-0.3h-2.8v-2.2h27.3v2.2h-2.8c-1.4,0-2.6,0.1-3.6,0.3c-1,0.2-1.9,0.7-2.6,1.5c-0.7,0.8-1.2,2-1.5,3.4
				c-0.3,1.5-0.5,3.5-0.5,6.1v65.9h-2.1l-51.5-63v48.2c0,2.7,0.2,4.8,0.6,6.3c0.4,1.5,0.9,2.7,1.6,3.4c0.7,0.7,1.5,1.2,2.6,1.4
				c1,0.2,2.2,0.3,3.5,0.3h2.8v2.2h-27.2v-2.2h2.8c1.4,0,2.6-0.1,3.6-0.3c1-0.2,1.9-0.7,2.6-1.5c0.7-0.8,1.2-1.9,1.6-3.4
				c0.3-1.5,0.5-3.5,0.5-6.1V1744c-1.1-1.4-2.1-2.5-2.9-3.3c-0.8-0.8-1.5-1.5-2.2-2c-0.7-0.5-1.4-0.9-2.2-1.3
				c-0.8-0.3-1.8-0.7-3-1.1c-1.1-0.3-2.8-0.5-5.1-0.5V1733.7z"/>
			<path d="M914.2,1738v30.9h17.1c2.5,0,4.6-0.2,6.1-0.7c1.5-0.5,2.8-1.1,3.7-2.1c0.9-0.9,1.5-2.1,1.8-3.5c0.3-1.4,0.6-3.1,0.7-5.1
				h2.2v27.2h-2.2c-0.3-2.2-0.6-4.1-1-5.6c-0.4-1.5-1-2.7-1.8-3.6c-0.8-0.9-2-1.5-3.5-1.9c-1.5-0.4-3.5-0.6-6-0.6h-17.1v25.8
				c0,2,0,3.5,0.1,4.6c0.1,1.1,0.3,2,0.7,2.6c0.4,0.6,1,1,1.9,1.2c0.9,0.2,2.1,0.3,3.8,0.3h13.2c2.2,0,4.1-0.1,5.7-0.2
				c1.5-0.1,2.9-0.3,4-0.7c1.1-0.3,2.1-0.8,3-1.4s1.8-1.4,2.8-2.3c2.3-2.2,4.7-5.8,7.3-10.8h2.3l-6.8,19.6H892v-2.2h2.8
				c0.7,0,1.5-0.1,2.3-0.3c0.8-0.2,1.6-0.4,2.3-0.7c0.7-0.3,1.4-0.7,1.9-1.2c0.6-0.5,1-1.1,1.2-1.8c0.5-1.3,0.7-3.8,0.7-7.6v-50.8
				c0-5-0.5-8.1-1.5-9.2c-1.4-1.5-3.7-2.3-7-2.3H892v-2.2h60.2v17.1h-1.4c-0.6-2.8-1.2-5.1-1.8-6.8c-0.7-1.7-1.5-3-2.6-3.9
				c-1.1-0.9-2.5-1.5-4.2-1.8c-1.7-0.3-3.9-0.4-6.5-0.4H914.2z"/>
		</g>
		<g>
			<path d="M436,1870.1v2.2c-1.5,0-2.8,0.1-3.8,0.4c-1,0.3-1.9,0.9-2.8,1.9c-0.9,1-1.7,2.5-2.6,4.5c-0.9,2-1.9,4.6-3,8l-21.8,63.1
				h-2.3l-17.8-50l-17.6,50h-2.2l-23.2-64.9c-0.9-2.4-1.5-4.3-2.1-5.7c-0.5-1.4-0.9-2.3-1.2-2.8c-0.8-1.5-1.8-2.6-3.1-3.3
				c-1.3-0.7-3.1-1.1-5.4-1.1v-2.2H356v2.2h-1.4c-2,0-3.6,0.5-4.6,1.4c-1.1,0.9-1.6,2-1.6,3.4c0,1.4,0.9,4.5,2.6,9.3l15.4,43.9
				l12.9-37.3l-4.1-11.8c-0.6-1.4-1.3-2.7-1.9-3.8c-0.6-1.1-1.3-2-2.2-2.8c-0.8-0.7-1.7-1.3-2.8-1.7c-1.1-0.4-2.4-0.6-4-0.6v-2.2
				h30.4v2.2h-2.1c-2.2,0-3.8,0.5-4.7,1.4c-1,0.9-1.5,2.2-1.5,3.8c0,2,0.9,5.4,2.6,10.2l15,42.5l14.9-43.1c0.8-2.4,1.4-4.4,1.9-6
				c0.5-1.6,0.7-2.9,0.7-3.9c0-1.8-0.8-3.1-2.4-3.8c-1.6-0.7-3.7-1.1-6.3-1.1v-2.2H436z"/>
			<path d="M461.2,1906.4h36.3V1884c0-1.8,0-3.3-0.1-4.5c-0.1-1.2-0.2-2.1-0.4-2.9c-0.2-0.7-0.6-1.3-1-1.8c-0.4-0.4-1-0.8-1.7-1.2
				c-1.6-0.9-3.4-1.4-5.2-1.4h-2.8v-2.2h33.5v2.2h-2.8c-0.7,0-1.5,0.1-2.4,0.3c-0.8,0.2-1.6,0.4-2.3,0.8c-0.7,0.3-1.4,0.8-1.9,1.3
				c-0.6,0.5-1,1.1-1.2,1.8c-0.4,1.2-0.6,3.8-0.6,7.7v50.4c0,1.8,0,3.3,0.1,4.5c0.1,1.1,0.2,2.1,0.4,2.8c0.2,0.7,0.5,1.3,0.9,1.8
				c0.4,0.4,0.9,0.8,1.6,1.2c1.6,0.9,3.4,1.4,5.3,1.4h2.8v2.2h-33.5v-2.2h2.8c1.3,0,2.5-0.1,3.5-0.3c1-0.2,1.9-0.7,2.7-1.5
				c0.7-0.8,1.3-1.9,1.7-3.5c0.4-1.6,0.6-3.7,0.6-6.4v-23.8h-36.3v23.8c0,1.8,0,3.3,0.1,4.5c0.1,1.1,0.2,2.1,0.4,2.8
				c0.2,0.7,0.6,1.3,1,1.8c0.4,0.4,1,0.8,1.7,1.2c1.6,0.9,3.4,1.4,5.2,1.4h2.8v2.2H439v-2.2h2.8c3.2,0,5.5-0.9,7-2.8
				c0.9-1.1,1.4-4.1,1.4-8.9V1884c0-1.9,0-3.4-0.1-4.6c-0.1-1.2-0.2-2.1-0.4-2.8c-0.2-0.7-0.5-1.3-0.9-1.7c-0.4-0.4-0.9-0.8-1.6-1.2
				c-1.6-0.9-3.4-1.4-5.2-1.4H439v-2.2h33.5v2.2h-2.8c-0.7,0-1.4,0.1-2.3,0.3c-0.8,0.2-1.6,0.4-2.3,0.8c-0.7,0.3-1.4,0.8-1.9,1.3
				c-0.6,0.5-1,1.1-1.2,1.8c-0.5,1.4-0.7,3.9-0.7,7.7V1906.4z"/>
			<path d="M558.6,1946.1v2.2h-33.5v-2.2h2.8c1.4,0,2.6-0.1,3.7-0.3c1.1-0.2,1.9-0.7,2.6-1.5c0.7-0.8,1.2-1.9,1.6-3.5
				c0.4-1.6,0.6-3.7,0.6-6.4v-50.5c0-1.8,0-3.3-0.1-4.4c-0.1-1.2-0.2-2.1-0.4-2.9c-0.2-0.7-0.5-1.3-0.9-1.8
				c-0.4-0.4-0.9-0.8-1.6-1.2c-1.7-0.9-3.5-1.4-5.3-1.4h-2.8v-2.2h33.5v2.2h-2.8c-1.4,0-2.6,0.1-3.7,0.3c-1.1,0.2-1.9,0.7-2.6,1.5
				c-0.7,0.8-1.2,2-1.6,3.5c-0.4,1.6-0.6,3.7-0.6,6.3v50.5c0,1.8,0,3.3,0.1,4.5c0.1,1.1,0.2,2.1,0.4,2.8c0.2,0.7,0.6,1.3,1,1.8
				c0.4,0.4,1,0.8,1.7,1.2c1.6,0.9,3.4,1.4,5.2,1.4H558.6z"/>
			<path d="M629.8,1870.1v18.4h-1.3c-0.6-4.9-2.1-8.4-4.3-10.5c-2.3-2-5.6-3.1-10-3.1h-11v59.8c0,2.6,0.2,4.7,0.6,6.2
				c0.4,1.5,0.9,2.7,1.6,3.4c0.7,0.7,1.5,1.2,2.6,1.4c1,0.2,2.2,0.3,3.6,0.3h2.7v2.2h-33.1v-2.2h2.8c1.4,0,2.6-0.1,3.6-0.3
				c1-0.2,1.9-0.7,2.6-1.5c0.7-0.8,1.2-1.9,1.6-3.4c0.4-1.5,0.6-3.5,0.6-6.1V1875h-9.4c-2.4,0-4.4,0.2-6.2,0.6
				c-1.8,0.4-3.4,1.1-4.7,2.1c-1.3,1-2.4,2.4-3.1,4.1c-0.8,1.8-1.2,4-1.4,6.8h-2.2v-18.4H629.8z"/>
			<path d="M658.3,1874.4v30.9h17.1c2.5,0,4.6-0.2,6.1-0.7c1.5-0.5,2.8-1.1,3.7-2.1c0.9-0.9,1.5-2.1,1.8-3.5
				c0.3-1.4,0.6-3.1,0.7-5.1h2.2v27.2h-2.2c-0.3-2.2-0.6-4.1-1-5.6c-0.4-1.5-1-2.7-1.8-3.6c-0.8-0.9-2-1.5-3.5-1.9
				c-1.5-0.4-3.5-0.6-6-0.6h-17.1v25.8c0,2,0,3.5,0.1,4.6c0.1,1.1,0.3,2,0.7,2.6c0.4,0.6,1,1,1.9,1.2c0.9,0.2,2.1,0.3,3.8,0.3H678
				c2.2,0,4.1-0.1,5.7-0.2c1.5-0.1,2.9-0.3,4-0.7c1.1-0.3,2.1-0.8,3-1.4c0.9-0.6,1.8-1.4,2.8-2.3c2.3-2.2,4.7-5.8,7.3-10.8h2.3
				l-6.8,19.6H636v-2.2h2.8c0.7,0,1.5-0.1,2.3-0.3c0.8-0.2,1.6-0.4,2.3-0.7c0.7-0.3,1.4-0.7,1.9-1.2c0.6-0.5,1-1.1,1.2-1.8
				c0.5-1.3,0.7-3.8,0.7-7.6v-50.8c0-5-0.5-8.1-1.5-9.2c-1.4-1.5-3.7-2.3-7-2.3H636v-2.2h60.2v17.1h-1.4c-0.6-2.8-1.2-5.1-1.8-6.8
				c-0.7-1.7-1.5-3-2.6-3.9c-1.1-0.9-2.5-1.5-4.2-1.8c-1.7-0.3-3.9-0.4-6.5-0.4H658.3z"/>
			<path d="M843.5,1870.1v2.2c-1.5,0-2.8,0.1-3.8,0.4c-1,0.3-1.9,0.9-2.8,1.9c-0.9,1-1.7,2.5-2.6,4.5c-0.9,2-1.9,4.6-3,8l-21.8,63.1
				h-2.3l-17.8-50l-17.6,50h-2.2l-23.2-64.9c-0.9-2.4-1.5-4.3-2.1-5.7c-0.5-1.4-0.9-2.3-1.2-2.8c-0.8-1.5-1.8-2.6-3.1-3.3
				c-1.3-0.7-3.1-1.1-5.4-1.1v-2.2h28.9v2.2h-1.4c-2,0-3.6,0.5-4.6,1.4c-1.1,0.9-1.6,2-1.6,3.4c0,1.4,0.9,4.5,2.6,9.3l15.4,43.9
				l12.9-37.3l-4.1-11.8c-0.6-1.4-1.3-2.7-1.9-3.8c-0.6-1.1-1.3-2-2.2-2.8c-0.8-0.7-1.7-1.3-2.8-1.7c-1.1-0.4-2.4-0.6-4-0.6v-2.2
				h30.4v2.2h-2.1c-2.2,0-3.8,0.5-4.7,1.4c-1,0.9-1.5,2.2-1.5,3.8c0,2,0.9,5.4,2.6,10.2l15,42.5l14.9-43.1c0.8-2.4,1.4-4.4,1.9-6
				c0.5-1.6,0.7-2.9,0.7-3.9c0-1.8-0.8-3.1-2.4-3.8c-1.6-0.7-3.7-1.1-6.3-1.1v-2.2H843.5z"/>
			<path d="M887.7,1868.4c5,0,9.7,1,14.3,3.1c4.5,2.1,8.5,4.9,12,8.5c3.4,3.6,6.2,7.9,8.2,12.8c2,4.9,3.1,10.2,3.1,16
				c0,5.9-1,11.4-3.1,16.4c-2,5-4.8,9.4-8.3,13.1c-3.5,3.7-7.5,6.6-12.2,8.7c-4.7,2.1-9.6,3.1-14.9,3.1c-5.3,0-10.3-1-15-3
				c-4.6-2-8.7-4.8-12.1-8.5c-3.4-3.6-6.1-8-8.1-13c-2-5-3-10.6-3-16.7c0-5.6,1-10.9,3-15.8c2-4.9,4.7-9.2,8.2-12.9
				c3.5-3.6,7.6-6.5,12.3-8.6C876.8,1869.4,882,1868.4,887.7,1868.4z M886.5,1872.6c-4,0-7.5,0.8-10.5,2.5c-3.1,1.7-5.6,4.1-7.7,7.2
				c-2.1,3.1-3.7,6.9-4.8,11.4c-1.1,4.4-1.6,9.4-1.6,15c0,5.5,0.5,10.5,1.6,15.1c1.1,4.6,2.6,8.5,4.7,11.8c2.1,3.3,4.7,5.8,7.8,7.7
				c3.1,1.8,6.7,2.7,10.7,2.7c3.6,0,7-0.7,10-2.1c3.1-1.4,5.7-3.5,8-6.4c2.3-2.9,4.1-6.6,5.4-11.1c1.3-4.5,1.9-9.9,1.9-16.1
				c0-5.9-0.5-11.2-1.6-15.9c-1.1-4.7-2.7-8.6-4.8-11.9c-2.2-3.2-4.8-5.7-8-7.4C894.4,1873.4,890.7,1872.6,886.5,1872.6z"/>
			<path d="M972.9,1868.4c5,0,9.7,1,14.3,3.1c4.5,2.1,8.5,4.9,12,8.5c3.4,3.6,6.2,7.9,8.2,12.8c2,4.9,3.1,10.2,3.1,16
				c0,5.9-1,11.4-3.1,16.4c-2,5-4.8,9.4-8.3,13.1c-3.5,3.7-7.5,6.6-12.2,8.7c-4.7,2.1-9.6,3.1-14.9,3.1c-5.3,0-10.3-1-15-3
				c-4.6-2-8.7-4.8-12.1-8.5c-3.4-3.6-6.1-8-8.1-13c-2-5-3-10.6-3-16.7c0-5.6,1-10.9,3-15.8c2-4.9,4.7-9.2,8.2-12.9
				c3.5-3.6,7.6-6.5,12.3-8.6C962.1,1869.4,967.3,1868.4,972.9,1868.4z M971.8,1872.6c-4,0-7.5,0.8-10.5,2.5
				c-3.1,1.7-5.6,4.1-7.7,7.2c-2.1,3.1-3.7,6.9-4.8,11.4c-1.1,4.4-1.6,9.4-1.6,15c0,5.5,0.5,10.5,1.6,15.1c1.1,4.6,2.6,8.5,4.7,11.8
				c2.1,3.3,4.7,5.8,7.8,7.7c3.1,1.8,6.7,2.7,10.7,2.7c3.6,0,7-0.7,10-2.1c3.1-1.4,5.7-3.5,8-6.4c2.3-2.9,4.1-6.6,5.4-11.1
				c1.3-4.5,1.9-9.9,1.9-16.1c0-5.9-0.5-11.2-1.6-15.9c-1.1-4.7-2.7-8.6-4.8-11.9c-2.2-3.2-4.8-5.7-8-7.4
				C979.7,1873.4,976,1872.6,971.8,1872.6z"/>
			<path d="M1016.9,1948.3v-2.2h3c1.3,0,2.5-0.1,3.5-0.3c1-0.2,1.9-0.7,2.6-1.5c0.7-0.8,1.2-2,1.6-3.5c0.4-1.5,0.6-3.6,0.6-6.3
				v-50.5c0-4.8-0.5-7.9-1.6-9.1c-1.5-1.7-3.7-2.6-6.6-2.6h-3v-2.2h31.8c11.6,0,20.5,1.3,26.7,4c6.1,2.7,11,7.1,14.7,13.2
				c3.7,6.3,5.6,13.4,5.6,21.4c0,5.8-0.9,11.1-2.8,15.9c-1.9,4.8-4.6,9-8.3,12.5c-3.7,3.5-8.3,6.2-13.7,8.2c-5.4,2-11.8,2.9-19,2.9
				H1016.9z M1039.3,1942.6c4.8,1.1,8.8,1.6,12.2,1.6c4.4,0,8.5-0.8,12.3-2.5c3.8-1.6,7.1-4,9.8-7c2.8-3,5-6.7,6.5-11
				c1.6-4.3,2.4-9.1,2.4-14.5c0-5.4-0.8-10.2-2.3-14.6c-1.5-4.3-3.7-8-6.5-11c-2.8-3-6.1-5.3-10-6.9c-3.8-1.6-8.1-2.4-12.6-2.4
				c-3.4,0-7.3,0.6-11.8,1.7V1942.6z"/>
		</g>
	</g>
	<g>
		<path d="M2899.6,1773.3c2.5-6.1,5.8-10.9,9.8-14.2c4-3.3,8.9-5,14.9-5c3.1,0,5.9,0.5,8.5,1.5c2.6,1,4.8,2.4,6.7,4.1
			c1.9,1.7,3.3,3.7,4.4,5.9c1,2.2,1.6,4.6,1.6,7c0,6.7-4.1,13.5-12.4,20.6c5.7,2.2,9.9,5.3,12.7,9.4c2.8,4,4.2,8.8,4.2,14.4
			c0,4.6-0.9,8.9-2.6,12.7c-1.7,3.9-4.1,7.2-7.3,10.1c-3.1,2.8-6.9,5-11.3,6.6c-4.4,1.6-9.3,2.4-14.7,2.4c-3.1,0-5.7-0.2-7.8-0.7
			c-2-0.4-3.7-1-4.9-1.7c-1.2-0.7-2-1.5-2.5-2.3c-0.5-0.8-0.7-1.7-0.7-2.6c0-1.6,0.6-2.8,1.9-3.7c1.2-0.8,2.7-1.3,4.5-1.3
			c0.4,0,0.8,0,1.1,0.1c0.3,0.1,0.8,0.2,1.3,0.4s1.2,0.5,2,0.9c0.8,0.4,1.9,1,3.3,1.7c1.6,0.9,2.9,1.5,3.9,2c1,0.4,1.9,0.8,2.6,1
			c0.7,0.2,1.4,0.3,2,0.3c0.7,0,1.5,0,2.4,0c2.3,0,4.4-0.5,6.5-1.5c2-1,3.8-2.3,5.4-3.9c1.6-1.6,2.8-3.5,3.7-5.7
			c0.9-2.2,1.4-4.4,1.4-6.8c0-1.5-0.2-3-0.5-4.6c-0.3-1.6-0.8-3.1-1.4-4.6c-0.6-1.5-1.2-2.8-2-4c-0.7-1.2-1.5-2.2-2.4-3
			c-0.9-0.9-2.1-1.7-3.5-2.6c-1.4-0.8-2.9-1.6-4.5-2.3c-1.6-0.7-3.3-1.2-5-1.6c-1.7-0.4-3.4-0.6-5.1-0.6h-2.2v-2
			c3.4-0.5,6.4-1.4,9-2.8c2.6-1.4,4.8-3,6.5-4.9c1.7-1.9,3.1-4,4-6.4c0.9-2.3,1.4-4.7,1.4-7.1c0-2.3-0.4-4.4-1.2-6.3
			c-0.8-1.9-1.9-3.5-3.2-4.9c-1.3-1.4-2.9-2.4-4.8-3.2c-1.9-0.7-3.8-1.1-5.9-1.1c-7,0-12.7,3.7-17.3,11.1L2899.6,1773.3z"/>
		<path d="M2988.5,1800.7c-3.6-3-6.6-5.7-8.8-8c-2.3-2.3-4-4.4-5.3-6.3c-1.2-1.9-2.1-3.8-2.5-5.6c-0.4-1.8-0.6-3.7-0.6-5.7
			c0-2.9,0.6-5.7,1.8-8.3c1.2-2.7,2.9-5,5.2-7c2.2-2,4.9-3.6,8-4.7c3.1-1.2,6.5-1.8,10.3-1.8c3.6,0,7,0.6,10,1.7
			c3,1.1,5.6,2.6,7.8,4.4c2.2,1.8,3.9,3.9,5,6.3c1.2,2.4,1.8,4.8,1.8,7.3c0,1.8-0.3,3.6-0.8,5.3s-1.5,3.5-2.9,5.3
			c-1.4,1.8-3.3,3.8-5.8,5.8c-2.5,2.1-5.6,4.3-9.4,6.7c4,3.1,7.3,5.8,9.9,8.2c2.6,2.4,4.6,4.5,5.9,6.2c3.4,4.6,5.2,9.5,5.2,14.5
			c0,3.2-0.6,6.2-1.9,9c-1.3,2.9-3.1,5.4-5.5,7.5c-2.4,2.1-5.2,3.8-8.5,5c-3.3,1.2-6.9,1.9-10.9,1.9c-3.8,0-7.4-0.6-10.6-1.8
			c-3.2-1.2-6-2.9-8.3-4.9c-2.3-2.1-4.1-4.5-5.4-7.2c-1.3-2.7-1.9-5.6-1.9-8.6c0-4.1,1.4-8.2,4.1-12.2
			C2977.2,1809.9,2981.9,1805.5,2988.5,1800.7z M2991.7,1803.4c-3.8,3.2-6.6,6.6-8.4,10.3c-1.8,3.7-2.6,7.7-2.6,12.1
			c0,2.9,0.4,5.5,1.3,7.9c0.8,2.4,2,4.4,3.5,6.1c1.5,1.7,3.2,3,5.3,3.9c2.1,0.9,4.3,1.4,6.8,1.4c2.4,0,4.6-0.4,6.6-1.1
			c2-0.7,3.7-1.8,5.1-3c1.4-1.3,2.5-2.8,3.3-4.5c0.8-1.7,1.2-3.6,1.2-5.5c0-2.1-0.4-4.1-1.3-6.1c-0.8-2-2.1-4-3.9-6.1
			c-1.8-2.1-4-4.4-6.8-6.9C2998.9,1809.3,2995.6,1806.5,2991.7,1803.4z M2999.1,1793.6c2.8-2.6,5.1-4.7,6.7-6.6
			c1.6-1.8,2.9-3.5,3.8-5c0.9-1.5,1.4-3.1,1.7-4.5c0.2-1.5,0.4-3.1,0.4-4.9c0-4.8-1.3-8.5-4-11.2c-2.7-2.7-6.3-4-11-4
			c-2.3,0-4.4,0.4-6.3,1.1c-1.9,0.7-3.5,1.7-4.9,2.9c-1.4,1.2-2.5,2.6-3.2,4.2c-0.8,1.6-1.2,3.3-1.2,5.2c0,2.4,0.6,4.7,1.8,7
			c1.2,2.3,2.9,4.6,5.2,6.7L2999.1,1793.6z"/>
		<path d="M3149,1752.9l2.1,31h-2.1c-2.8-9.3-6.8-16-11.9-20.1c-5.1-4.1-11.3-6.1-18.5-6.1c-4.7,0-9,0.9-12.9,2.7
			c-3.9,1.8-7.3,4.5-10.2,8.2c-2.8,3.7-5.1,8.3-6.7,13.8c-1.6,5.6-2.4,12.1-2.4,19.7c0,6.1,0.8,11.6,2.3,16.6
			c1.5,5,3.7,9.2,6.6,12.7c2.9,3.5,6.5,6.2,10.7,8.1c4.2,1.9,9.1,2.9,14.5,2.9c5.8,0,11-1.3,15.7-3.8c4.5-2.3,9.5-7.4,14.9-15
			l2.1,1.3c-4.6,8.1-9.9,14-16,17.8c-6.1,3.8-13.3,5.7-21.7,5.7c-6.5,0-12.4-1.1-17.9-3.4c-5.4-2.3-10.1-5.5-14-9.6
			c-3.9-4.1-7-9-9.2-14.6c-2.2-5.7-3.3-11.9-3.3-18.6c0-9.2,2-17.5,6.1-25.1c4-7.6,9.6-13.5,16.8-17.7c7.2-4.2,15-6.3,23.5-6.3
			c6.6,0,13.1,1.6,19.5,4.8c1.9,1,3.2,1.5,4,1.5c1.5,0,2.7-0.6,3.7-1.8c1-1.2,1.7-2.7,2.1-4.5H3149z"/>
		<path d="M3181.4,1796.1c2.3-2.3,4.1-4.1,5.4-5.4c1.3-1.3,2.2-2.1,2.6-2.4c2-1.7,4.2-3.1,6.6-4c2.4-0.9,4.7-1.4,7-1.4
			c3.9,0,7.2,1.1,10,3.4c2.8,2.3,4.7,5.5,5.6,9.8c2.3-2.7,4.4-4.9,6.3-6.7c1.9-1.8,3.7-3.1,5.4-4c1.7-0.9,3.4-1.6,4.9-2
			c1.6-0.4,3.2-0.6,4.9-0.6c2.3,0,4.4,0.4,6.4,1.2c2,0.8,3.7,2.1,5.2,3.8c1.5,1.8,2.6,4.2,3.5,7.1c0.8,3,1.3,6.6,1.3,11v27.1
			c0,2,0,3.7,0.1,5.1c0.1,1.4,0.4,2.6,1,3.5c0.6,0.9,1.5,1.6,2.7,2c1.2,0.4,2.9,0.6,5.1,0.6v2.5h-31v-2h1.3c1.6,0,3-0.1,4.1-0.4
			c1.1-0.3,2-0.8,2.7-1.6c0.7-0.8,1.2-2,1.5-3.5s0.4-3.6,0.4-6.1v-26.7c0-3-0.2-5.4-0.7-7.3c-0.5-1.9-1.1-3.4-2-4.6
			c-0.9-1.1-1.9-1.9-3.2-2.4c-1.3-0.4-2.7-0.7-4.3-0.7c-1.2,0-2.4,0.1-3.5,0.4c-1.1,0.2-2.3,0.7-3.6,1.3c-1.2,0.6-2.6,1.5-4,2.6
			c-1.4,1.1-3,2.7-4.8,4.9v32c0,2.2,0,4,0.1,5.2c0.1,1.2,0.2,2.2,0.5,2.8c0.3,0.6,0.6,1.1,1,1.5c0.4,0.3,1,0.7,1.7,1.1
			c1.3,0.7,3.5,1,6.7,1v2.4h-31v-2.4c2.4,0,4.3-0.2,5.6-0.5c1.4-0.3,2.4-0.9,3-1.8c0.6-0.9,1-2.1,1.1-3.6c0.1-1.5,0.2-3.4,0.2-5.7
			v-26.7c0-2.8-0.2-5.2-0.7-7.1c-0.5-1.9-1.2-3.4-2.1-4.6c-0.9-1.2-2-2-3.3-2.5c-1.3-0.5-2.6-0.7-4.2-0.7c-1.5,0-3,0.3-4.6,0.8
			c-1.5,0.5-3,1.2-4.4,2c-1.4,0.8-2.7,1.7-3.9,2.7c-1.2,1-2.2,2-2.9,2.9v33.2c0,2.1,0.1,3.8,0.2,5c0.1,1.3,0.3,2.3,0.6,3
			c0.3,0.7,0.6,1.3,1.1,1.7c0.4,0.4,0.9,0.7,1.4,1c1.1,0.6,3.3,0.9,6.7,0.9v2.4h-31v-2.4c2,0,3.6-0.2,4.7-0.5
			c1.2-0.3,2.1-0.9,2.7-1.8c0.6-0.9,1.1-2.1,1.2-3.5c0.2-1.5,0.3-3.4,0.3-5.9v-23.7c0-4.1-0.1-7.2-0.2-9.5c-0.1-2.3-0.4-4-0.7-5.2
			c-0.4-1.1-0.8-1.9-1.4-2.1c-0.6-0.3-1.4-0.4-2.3-0.4c-0.6,0-1.2,0.1-1.9,0.3c-0.7,0.2-1.5,0.4-2.4,0.8l-1-2.4l17.7-7.6h4.2V1796.1
			z"/>
	</g>
	<g>
		<path d="M4205.5,761.2l-6.6,18h-55.1v-2.3c15.8-15,27.1-26.9,33.9-35.8c6.6-9.2,9.9-17.7,9.9-25.4c0-2.9-0.5-5.6-1.5-8.1
			c-1-2.5-2.3-4.6-4-6.4c-1.7-1.8-3.6-3.2-5.8-4.2c-2.2-1-4.6-1.5-7.1-1.5c-4.5,0-8.6,1.3-12.2,4c-3.6,2.6-6.3,6.5-8,11.7h-2.4
			c1.2-8.5,4.1-14.9,8.7-19.4c4.6-4.4,10.5-6.7,17.7-6.7c3.7,0,7.2,0.7,10.4,2c3.2,1.3,6,3.1,8.3,5.3c2.3,2.2,4.2,4.8,5.5,7.7
			c1.4,2.9,2,6,2,9.2c0,4.7-0.8,9-2.5,12.9c-1.7,3.9-3.4,7.1-5.1,9.6c-1.7,2.5-4.2,5.8-7.5,9.9c-6.2,6.9-11.1,12.3-14.8,16.3
			c-3.7,3.9-7.4,7.6-11,11.1h23.3c3.2,0,6-0.1,8.2-0.2c2.2-0.1,4.1-0.5,5.7-1c1.5-0.5,2.9-1.4,3.9-2.4c1.1-1.1,2.2-2.5,3.2-4.3
			H4205.5z"/>
		<path d="M4397.4,685.2l2.1,31h-2.1c-2.8-9.3-6.8-16-11.9-20.1c-5.1-4.1-11.3-6.1-18.5-6.1c-4.7,0-9,0.9-12.9,2.7
			c-3.9,1.8-7.3,4.5-10.2,8.2c-2.8,3.7-5.1,8.3-6.7,13.8c-1.6,5.6-2.4,12.1-2.4,19.7c0,6.1,0.8,11.6,2.3,16.6
			c1.5,5,3.7,9.2,6.6,12.7c2.9,3.5,6.5,6.2,10.7,8.1c4.2,1.9,9.1,2.9,14.5,2.9c5.8,0,11-1.3,15.7-3.8c4.5-2.3,9.5-7.4,14.9-15
			l2.1,1.3c-4.6,8.1-9.9,14-16,17.8c-6.1,3.8-13.3,5.7-21.7,5.7c-6.5,0-12.4-1.1-17.9-3.4c-5.4-2.3-10.1-5.5-14-9.6
			c-3.9-4.1-7-9-9.2-14.6c-2.2-5.7-3.3-11.9-3.3-18.6c0-9.2,2-17.5,6.1-25.1c4-7.6,9.6-13.5,16.8-17.7c7.2-4.2,15-6.3,23.5-6.3
			c6.6,0,13.1,1.6,19.5,4.8c1.9,1,3.2,1.5,4,1.5c1.5,0,2.7-0.6,3.7-1.8c1-1.2,1.7-2.7,2.1-4.5H4397.4z"/>
		<path d="M4429.8,728.4c2.3-2.3,4.1-4.1,5.4-5.4c1.3-1.3,2.2-2.1,2.6-2.4c2-1.7,4.2-3.1,6.6-4c2.4-0.9,4.7-1.4,7-1.4
			c3.9,0,7.2,1.1,10,3.4c2.8,2.3,4.7,5.5,5.6,9.8c2.3-2.7,4.4-4.9,6.3-6.7c1.9-1.8,3.7-3.1,5.4-4c1.7-0.9,3.4-1.6,4.9-2
			c1.6-0.4,3.2-0.6,4.9-0.6c2.3,0,4.4,0.4,6.4,1.2c2,0.8,3.7,2.1,5.2,3.8c1.5,1.8,2.6,4.2,3.5,7.1c0.8,3,1.3,6.6,1.3,11V765
			c0,2,0,3.7,0.1,5.1c0.1,1.4,0.4,2.6,1,3.5c0.6,0.9,1.5,1.6,2.7,2c1.2,0.4,2.9,0.6,5.1,0.6v1.9h-31v-2h1.3c1.6,0,3-0.1,4.1-0.4
			c1.1-0.3,2-0.8,2.7-1.6c0.7-0.8,1.2-2,1.5-3.5s0.4-3.6,0.4-6.1v-26.7c0-3-0.2-5.4-0.7-7.3c-0.5-1.9-1.1-3.4-2-4.6
			c-0.9-1.1-1.9-1.9-3.2-2.4c-1.3-0.4-2.7-0.7-4.3-0.7c-1.2,0-2.4,0.1-3.5,0.4c-1.1,0.2-2.3,0.7-3.6,1.3c-1.2,0.6-2.6,1.5-4,2.6
			c-1.4,1.1-3,2.7-4.7,4.9v33c0,2.2,0,4,0.1,5.2c0.1,1.2,0.2,2.2,0.5,2.8c0.3,0.6,0.6,1.1,1,1.5c0.4,0.3,1,0.7,1.7,1.1
			c1.3,0.7,3.5,1,6.7,1v2.4h-31v-2.4c2.4,0,4.3-0.2,5.6-0.5c1.4-0.3,2.4-0.9,3-1.8c0.6-0.9,1-2.1,1.1-3.6c0.1-1.5,0.2-3.4,0.2-5.7
			V738c0-2.8-0.2-5.2-0.7-7.1c-0.5-1.9-1.2-3.4-2.1-4.6c-0.9-1.2-2-2-3.3-2.5c-1.3-0.5-2.6-0.7-4.2-0.7c-1.5,0-3,0.3-4.6,0.8
			c-1.5,0.5-3,1.2-4.4,2c-1.4,0.8-2.7,1.7-3.9,2.7c-1.2,1-2.2,2-2.9,2.9v33.6c0,2.1,0.1,3.8,0.2,5c0.1,1.3,0.3,2.3,0.6,3
			c0.3,0.7,0.6,1.3,1.1,1.7c0.4,0.4,0.9,0.7,1.4,1c1.1,0.6,3.3,0.9,6.7,0.9v2.4h-31v-2.4c2,0,3.6-0.2,4.7-0.5
			c1.2-0.3,2.1-0.9,2.7-1.8c0.6-0.9,1.1-2.1,1.2-3.5c0.2-1.5,0.3-3.4,0.3-5.9v-23.7c0-4.1-0.1-7.2-0.2-9.5c-0.1-2.3-0.4-4-0.7-5.2
			c-0.4-1.1-0.8-1.9-1.4-2.1c-0.6-0.3-1.4-0.4-2.3-0.4c-0.6,0-1.2,0.1-1.9,0.3c-0.7,0.2-1.5,0.4-2.4,0.8l-1-2.4l17.7-7.6h4.2V728.4z
			"/>
		<g>
			<path d="M4270.7,683.2v2.6c-3.1,0.3-5.9,0.8-8.2,1.3c-2.4,0.5-4.6,1.2-6.6,2.2c-2,0.9-4,2.1-5.8,3.5c-1.8,1.4-3.7,3-5.7,5
				c-3.9,3.8-7,8-9.4,12.6c-2.4,4.6-4.5,10.1-6.1,16.4c6.7-4.6,13.4-6.9,20-6.9c3.2,0,6.2,0.7,9.1,2.1c2.9,1.4,5.4,3.3,7.6,5.7
				c2.2,2.5,3.9,5.4,5.2,8.8c1.3,3.4,1.9,7.1,1.9,11.1c0,4.4-0.8,8.6-2.3,12.7c-1.5,4-3.6,7.6-6.3,10.6c-2.7,3-5.9,5.5-9.5,7.3
				c-3.7,1.8-7.6,2.7-11.8,2.7c-4.7,0-8.9-1.2-12.5-3.5c-3.7-2.3-6.7-5.3-9.3-9c-2.5-3.7-4.4-7.8-5.7-12.4c-1.3-4.6-2-9.2-2-13.7
				c0-8.5,1.7-16.5,5-24.1c3.3-7.6,8.2-14.3,14.4-20.1c3.2-3,6.3-5.4,9.3-7.4c3-1.9,6-3.5,8.9-4.6c2.9-1.1,5.6-1.9,8.3-2.3
				c2.7-0.4,5.2-0.7,7.6-0.7H4270.7z M4227.6,731.7c-0.8,6.2-1.2,11.3-1.2,15.1c0,2.9,0.4,6.1,1.1,9.6c0.8,3.5,1.9,6.8,3.4,9.8
				c1.5,3,3.4,5.6,5.7,7.6c2.3,2,5,3.1,8.1,3.1c2,0,3.9-0.5,5.8-1.4c1.9-1,3.5-2.4,5-4.2c1.5-1.9,2.6-4.2,3.5-6.9
				c0.9-2.7,1.3-5.9,1.3-9.4c0-3.9-0.4-7.6-1.2-11.1c-0.8-3.5-2-6.6-3.5-9.3c-1.5-2.7-3.4-4.8-5.7-6.4c-2.3-1.6-4.9-2.4-7.8-2.4
				c-1,0-1.9,0.1-2.7,0.2c-0.9,0.1-1.8,0.4-2.9,0.8c-1.1,0.4-2.3,1-3.7,1.8C4231.4,729.5,4229.6,730.5,4227.6,731.7z"/>
		</g>
	</g>
	<g>
		<g>
			<path d="M2224.9,813.6h33.8v-20.8c0-1.7,0-3.1-0.1-4.2c-0.1-1.1-0.2-2-0.4-2.7c-0.2-0.7-0.5-1.2-0.9-1.6
				c-0.4-0.4-0.9-0.8-1.6-1.2c-1.5-0.9-3.1-1.3-4.9-1.3h-2.6v-2h31.1v2h-2.6c-0.7,0-1.4,0.1-2.2,0.2s-1.5,0.4-2.2,0.7
				s-1.3,0.7-1.8,1.2s-0.9,1-1.1,1.7c-0.4,1.1-0.6,3.5-0.6,7.1v46.9c0,1.7,0,3.1,0.1,4.2c0.1,1.1,0.2,1.9,0.4,2.6
				c0.2,0.7,0.5,1.2,0.8,1.6c0.4,0.4,0.9,0.8,1.5,1.2c1.5,0.9,3.1,1.3,5,1.3h2.6v2h-31.1v-2h2.6c1.2,0,2.3-0.1,3.3-0.3
				c1-0.2,1.8-0.6,2.5-1.4c0.7-0.7,1.2-1.8,1.6-3.3c0.3-1.5,0.5-3.5,0.5-6v-22.2h-33.8v22.2c0,1.7,0,3.1,0.1,4.2
				c0.1,1.1,0.2,1.9,0.4,2.6c0.2,0.7,0.5,1.2,0.9,1.6s0.9,0.8,1.6,1.2c1.5,0.9,3.1,1.3,4.9,1.3h2.6v2h-31.2v-2h2.6
				c2.9,0,5.1-0.9,6.5-2.6c0.9-1.1,1.3-3.8,1.3-8.2v-46.9c0-1.8,0-3.2-0.1-4.3c-0.1-1.1-0.2-2-0.4-2.6c-0.2-0.7-0.5-1.2-0.9-1.6
				c-0.4-0.4-0.9-0.8-1.5-1.2c-1.5-0.9-3.1-1.3-4.9-1.3h-2.6v-2h31.2v2h-2.6c-0.6,0-1.3,0.1-2.1,0.2c-0.8,0.2-1.5,0.4-2.2,0.7
				c-0.7,0.3-1.3,0.7-1.8,1.2c-0.5,0.5-0.9,1-1.1,1.7c-0.4,1.3-0.6,3.7-0.6,7.1V813.6z"/>
			<path d="M2321.8,778.2c4.6,0,9.1,1,13.3,2.9c4.2,1.9,7.9,4.6,11.1,7.9c3.2,3.4,5.7,7.3,7.6,11.9c1.9,4.6,2.8,9.5,2.8,14.8
				c0,5.5-0.9,10.6-2.8,15.3c-1.9,4.7-4.5,8.8-7.7,12.2c-3.2,3.4-7,6.1-11.4,8.1c-4.3,1.9-9,2.9-13.9,2.9c-5,0-9.6-0.9-13.9-2.8
				c-4.3-1.9-8.1-4.5-11.2-7.9c-3.2-3.4-5.7-7.4-7.5-12.1c-1.8-4.7-2.8-9.9-2.8-15.5c0-5.2,0.9-10.1,2.8-14.7
				c1.8-4.6,4.4-8.6,7.6-12c3.2-3.4,7.1-6.1,11.5-8C2311.8,779.2,2316.6,778.2,2321.8,778.2z M2320.8,782.1c-3.7,0-7,0.8-9.8,2.4
				c-2.9,1.6-5.3,3.8-7.2,6.7c-1.9,2.9-3.4,6.4-4.4,10.6c-1,4.1-1.5,8.8-1.5,14c0,5.1,0.5,9.8,1.5,14s2.5,7.9,4.4,11
				c1.9,3.1,4.4,5.4,7.2,7.1c2.9,1.7,6.2,2.5,9.9,2.5c3.4,0,6.5-0.6,9.3-1.9c2.9-1.3,5.3-3.3,7.5-6c2.1-2.7,3.8-6.1,5-10.3
				c1.2-4.2,1.8-9.2,1.8-15c0-5.5-0.5-10.4-1.5-14.8c-1-4.3-2.5-8-4.5-11c-2-3-4.5-5.3-7.4-6.9
				C2328.1,782.9,2324.7,782.1,2320.8,782.1z"/>
			<path d="M2435.2,852.6h-19.4l-24.7-34c-0.9,0.1-1.7,0.1-2.4,0.1c-0.7,0-1.4,0-2,0c-0.5,0-1,0-1.5,0c-0.5,0-1.1-0.1-1.7-0.1v21.1
				c0,2.6,0.2,4.6,0.5,6c0.3,1.5,0.9,2.6,1.5,3.3c0.7,0.7,1.5,1.2,2.4,1.3c0.9,0.2,2,0.2,3.2,0.2h2.9v2h-31.2v-2h2.8
				c3,0,5.2-1,6.6-3c0.7-1.2,1.1-3.8,1.1-7.9v-47c0-4.5-0.5-7.3-1.5-8.5c-1.4-1.6-3.4-2.4-6.2-2.4h-2.8v-2h26.5
				c3.9,0,7.3,0.1,10.1,0.4c2.8,0.3,5.1,0.7,7,1.3c1.8,0.6,3.5,1.4,5.1,2.4c1.6,1,3,2.3,4.2,3.8c1.2,1.5,2.1,3.1,2.8,4.9
				c0.7,1.8,1,3.8,1,5.8c0,4.5-1.4,8.4-4.3,11.7c-2.9,3.3-7.4,5.6-13.5,7l15,20.8c1.8,2.4,3.3,4.4,4.7,5.9c1.4,1.5,2.7,2.8,4.1,3.7
				c1.4,0.9,2.8,1.6,4.3,2c1.5,0.4,3.3,0.7,5.4,1V852.6z M2383.5,815.2c0.7,0,1.3,0,1.8,0c0.5,0,0.9,0,1.2,0c3.5,0,6.5-0.4,9.1-1.2
				c2.6-0.8,4.8-1.9,6.6-3.4c1.8-1.4,3.1-3.1,4-5.1c0.9-1.9,1.3-4.1,1.3-6.4c0-2.2-0.4-4.3-1.1-6.2c-0.7-1.9-1.8-3.5-3.2-4.9
				c-1.4-1.4-3-2.4-5-3.2c-1.9-0.7-4-1.1-6.3-1.1c-2.2,0-5,0.3-8.4,1V815.2z"/>
			<path d="M2468.1,850.6v2h-31.1v-2h2.6c1.3,0,2.4-0.1,3.4-0.3c1-0.2,1.8-0.6,2.4-1.4c0.6-0.7,1.1-1.8,1.5-3.3
				c0.3-1.5,0.5-3.5,0.5-6v-47c0-1.7,0-3-0.1-4.1c-0.1-1.1-0.2-2-0.4-2.7c-0.2-0.7-0.5-1.2-0.8-1.6c-0.4-0.4-0.9-0.8-1.5-1.2
				c-1.6-0.9-3.3-1.3-5-1.3h-2.6v-2h31.1v2h-2.6c-1.3,0-2.4,0.1-3.4,0.3c-1,0.2-1.8,0.7-2.4,1.4c-0.6,0.7-1.1,1.8-1.5,3.3
				c-0.3,1.5-0.5,3.4-0.5,5.9v47c0,1.7,0,3.1,0.1,4.2c0.1,1.1,0.2,1.9,0.4,2.6c0.2,0.7,0.5,1.2,0.9,1.6s0.9,0.8,1.6,1.2
				c1.5,0.9,3.1,1.3,4.9,1.3H2468.1z"/>
			<path d="M2533.9,779.8l-47.8,68.4h29.9c2.3,0,4.3-0.2,6-0.6c1.7-0.4,3.2-1.2,4.6-2.3c1.3-1.1,2.5-2.7,3.5-4.6c1-2,2-4.5,3-7.6
				l1.8,0.3l-3.4,19.3h-59.2v-2l46.7-66.4h-23.2c-2.9,0-5.3,0.2-7,0.7c-1.8,0.5-3.1,1.2-4.2,2.3c-1,1.1-1.8,2.5-2.3,4.3
				c-0.5,1.8-1,4-1.4,6.6h-2.1l1.5-18.2H2533.9z"/>
			<path d="M2578,778.2c4.6,0,9.1,1,13.3,2.9c4.2,1.9,7.9,4.6,11.1,7.9c3.2,3.4,5.7,7.3,7.6,11.9c1.9,4.6,2.8,9.5,2.8,14.8
				c0,5.5-0.9,10.6-2.8,15.3c-1.9,4.7-4.5,8.8-7.7,12.2c-3.2,3.4-7,6.1-11.4,8.1c-4.3,1.9-9,2.9-13.9,2.9c-5,0-9.6-0.9-13.9-2.8
				c-4.3-1.9-8.1-4.5-11.2-7.9c-3.2-3.4-5.7-7.4-7.5-12.1c-1.8-4.7-2.8-9.9-2.8-15.5c0-5.2,0.9-10.1,2.8-14.7
				c1.8-4.6,4.4-8.6,7.6-12c3.2-3.4,7.1-6.1,11.5-8C2568,779.2,2572.8,778.2,2578,778.2z M2577,782.1c-3.7,0-7,0.8-9.8,2.4
				c-2.9,1.6-5.3,3.8-7.2,6.7c-1.9,2.9-3.4,6.4-4.4,10.6c-1,4.1-1.5,8.8-1.5,14c0,5.1,0.5,9.8,1.5,14s2.5,7.9,4.4,11
				c1.9,3.1,4.4,5.4,7.2,7.1c2.9,1.7,6.2,2.5,9.9,2.5c3.4,0,6.5-0.6,9.3-1.9c2.9-1.3,5.3-3.3,7.5-6c2.1-2.7,3.8-6.1,5-10.3
				c1.2-4.2,1.8-9.2,1.8-15c0-5.5-0.5-10.4-1.5-14.8c-1-4.3-2.5-8-4.5-11c-2-3-4.5-5.3-7.4-6.9
				C2584.3,782.9,2580.9,782.1,2577,782.1z"/>
			<path d="M2615.7,779.8h19.7l44.5,54.6v-41.9c0-2.5-0.2-4.4-0.5-5.8c-0.3-1.4-0.9-2.5-1.5-3.2c-0.7-0.7-1.5-1.1-2.4-1.3
				c-1-0.2-2.1-0.3-3.3-0.3h-2.6v-2h25.4v2h-2.6c-1.3,0-2.4,0.1-3.4,0.3c-1,0.2-1.8,0.7-2.4,1.4c-0.6,0.7-1.1,1.8-1.4,3.2
				c-0.3,1.4-0.5,3.3-0.5,5.7v61.3h-1.9l-47.9-58.6V840c0,2.5,0.2,4.5,0.5,5.9c0.3,1.4,0.8,2.5,1.5,3.2c0.6,0.7,1.4,1.1,2.4,1.3
				c1,0.2,2.1,0.2,3.3,0.2h2.6v2h-25.3v-2h2.6c1.3,0,2.4-0.1,3.4-0.3c1-0.2,1.8-0.7,2.4-1.4c0.7-0.7,1.2-1.8,1.5-3.2
				c0.3-1.4,0.5-3.3,0.5-5.7v-50.6c-1.1-1.3-2-2.3-2.7-3s-1.4-1.4-2-1.8c-0.6-0.5-1.3-0.9-2.1-1.2c-0.7-0.3-1.7-0.7-2.8-1
				c-1.1-0.3-2.6-0.5-4.7-0.5V779.8z"/>
			<path d="M2760.1,779.8v17.1h-1.2c-0.6-4.6-1.9-7.8-4-9.7c-2.1-1.9-5.2-2.8-9.3-2.8h-10.2V840c0,2.5,0.2,4.4,0.5,5.8
				c0.3,1.4,0.8,2.5,1.5,3.2c0.6,0.7,1.4,1.1,2.4,1.3c1,0.2,2.1,0.3,3.4,0.3h2.5v2h-30.8v-2h2.6c1.3,0,2.4-0.1,3.4-0.3
				c1-0.2,1.8-0.7,2.4-1.4c0.6-0.7,1.1-1.8,1.5-3.2c0.3-1.4,0.5-3.3,0.5-5.7v-55.6h-8.7c-2.2,0-4.1,0.2-5.8,0.5
				c-1.7,0.3-3.1,1-4.4,1.9c-1.2,0.9-2.2,2.2-2.9,3.8c-0.7,1.6-1.2,3.7-1.3,6.3h-2v-17.1H2760.1z"/>
			<path d="M2805,828.2h-28.2l-5,11.4c-1.2,2.8-1.8,4.9-1.8,6.3c0,0.6,0.1,1.1,0.3,1.6c0.2,0.5,0.6,0.9,1.2,1.3
				c0.6,0.4,1.5,0.7,2.6,1c1.1,0.3,2.5,0.5,4.4,0.6v2h-22.9v-2c1.8-0.3,3.3-0.7,4.4-1.2c1.1-0.5,2.1-1.3,2.9-2.2s1.5-2.1,2.2-3.6
				c0.7-1.5,1.5-3.3,2.4-5.5l25.6-59.8h1.8l25.3,60.4c1,2.5,2,4.5,2.8,6c0.9,1.5,1.8,2.7,2.7,3.6c0.9,0.9,1.9,1.4,3,1.8
				c1.1,0.3,2.4,0.5,4,0.6v2h-28.7v-2c2.9-0.1,4.8-0.6,5.9-1.4c1-0.8,1.6-1.8,1.6-3c-0.1-1.5-0.8-4.1-2.2-7.5L2805,828.2z
				 M2803.5,824.2l-12.3-29.4l-12.6,29.4H2803.5z"/>
			<path d="M2897.1,832.5l1.8,0.3l-6.2,19.8h-56.3v-2h2.8c3,0,5.2-1,6.6-3c0.7-1.2,1.1-3.8,1.1-7.9v-47c0-4.5-0.5-7.3-1.5-8.5
				c-1.4-1.6-3.4-2.4-6.2-2.4h-2.8v-2h33v2c-2,0-3.6,0.1-4.9,0.3c-1.3,0.2-2.4,0.5-3.2,0.8c-0.9,0.3-1.5,0.8-2,1.2
				c-0.5,0.5-0.9,1-1.2,1.6c-0.5,1.1-0.8,3.8-0.8,8.2v45.7c0,2.5,0.2,4.3,0.6,5.4c0.4,1.1,1.1,1.9,2.2,2.3c1,0.3,3.8,0.5,8.4,0.5
				h5.3c5.6,0,9.5-0.4,11.8-1.2c1.1-0.4,2.2-0.9,3.2-1.6s2-1.6,3-2.7c1-1.1,1.9-2.5,2.8-4.1S2896.1,834.8,2897.1,832.5z"/>
			<path d="M2905.6,823.9h27.7v8.1h-27.7V823.9z"/>
			<path d="M2939.6,852.6v-2h2.8c1.2,0,2.3-0.1,3.3-0.3c1-0.2,1.8-0.7,2.4-1.4c0.6-0.7,1.1-1.8,1.5-3.3c0.3-1.4,0.5-3.4,0.5-5.8v-47
				c0-4.5-0.5-7.3-1.5-8.5c-1.4-1.6-3.4-2.4-6.2-2.4h-2.8v-2h29.6c10.8,0,19,1.3,24.8,3.8c5.7,2.5,10.3,6.6,13.7,12.3
				c3.5,5.8,5.2,12.5,5.2,19.9c0,5.4-0.9,10.3-2.6,14.8c-1.7,4.5-4.3,8.4-7.8,11.6c-3.4,3.3-7.7,5.8-12.8,7.6
				c-5.1,1.8-11,2.7-17.7,2.7H2939.6z M2960.4,847.3c4.4,1,8.2,1.5,11.4,1.5c4.1,0,7.9-0.8,11.4-2.3c3.5-1.5,6.6-3.7,9.2-6.5
				c2.6-2.8,4.6-6.2,6.1-10.2c1.5-4,2.2-8.5,2.2-13.4c0-5-0.7-9.5-2.2-13.6c-1.4-4-3.5-7.4-6.1-10.2c-2.6-2.8-5.7-4.9-9.3-6.4
				c-3.6-1.5-7.5-2.2-11.8-2.2c-3.1,0-6.8,0.5-11,1.6V847.3z"/>
			<path d="M3050.9,850.6v2h-31.1v-2h2.6c1.3,0,2.4-0.1,3.4-0.3c1-0.2,1.8-0.6,2.4-1.4c0.6-0.7,1.1-1.8,1.5-3.3
				c0.3-1.5,0.5-3.5,0.5-6v-47c0-1.7,0-3-0.1-4.1c-0.1-1.1-0.2-2-0.4-2.7c-0.2-0.7-0.5-1.2-0.8-1.6c-0.4-0.4-0.9-0.8-1.5-1.2
				c-1.6-0.9-3.3-1.3-5-1.3h-2.6v-2h31.1v2h-2.6c-1.3,0-2.4,0.1-3.4,0.3c-1,0.2-1.8,0.7-2.4,1.4c-0.6,0.7-1.1,1.8-1.5,3.3
				c-0.3,1.5-0.5,3.4-0.5,5.9v47c0,1.7,0,3.1,0.1,4.2c0.1,1.1,0.2,1.9,0.4,2.6c0.2,0.7,0.5,1.2,0.9,1.6s0.9,0.8,1.6,1.2
				c1.5,0.9,3.1,1.3,4.9,1.3H3050.9z"/>
			<path d="M3131.6,779.8v2c-1.5,0.3-2.9,0.7-3.9,1.2c-1.1,0.6-2,1.3-2.8,2.1c-0.8,0.9-1.6,1.9-2.2,3.1c-0.6,1.2-1.3,2.6-1.9,4.1
				l-25.4,61.9h-2l-27.2-62.7c-0.8-2-1.5-3.6-2.2-4.8c-0.7-1.2-1.4-2.1-2.2-2.8s-1.8-1.2-2.9-1.5c-1.1-0.3-2.5-0.5-4.2-0.7v-2h29.7
				v2c-1.7,0.2-3.1,0.4-4.2,0.7c-1.1,0.3-1.9,0.7-2.4,1.1c-0.6,0.4-0.9,0.9-1.1,1.4c-0.2,0.5-0.3,1.1-0.3,1.7c0,1.8,0.8,4.6,2.5,8.4
				l18.5,42.6l17.1-42.1c1.7-4.2,2.6-7,2.6-8.6c0-1.1-0.6-2.2-1.8-3.2c-1.2-1-3.2-1.7-6-2v-2H3131.6z"/>
			<path d="M3166.8,850.6v2h-31.1v-2h2.6c1.3,0,2.4-0.1,3.4-0.3c1-0.2,1.8-0.6,2.4-1.4c0.6-0.7,1.1-1.8,1.5-3.3
				c0.3-1.5,0.5-3.5,0.5-6v-47c0-1.7,0-3-0.1-4.1c-0.1-1.1-0.2-2-0.4-2.7c-0.2-0.7-0.5-1.2-0.8-1.6c-0.4-0.4-0.9-0.8-1.5-1.2
				c-1.6-0.9-3.3-1.3-5-1.3h-2.6v-2h31.1v2h-2.6c-1.3,0-2.4,0.1-3.4,0.3c-1,0.2-1.8,0.7-2.4,1.4c-0.6,0.7-1.1,1.8-1.5,3.3
				c-0.3,1.5-0.5,3.4-0.5,5.9v47c0,1.7,0,3.1,0.1,4.2c0.1,1.1,0.2,1.9,0.4,2.6c0.2,0.7,0.5,1.2,0.9,1.6s0.9,0.8,1.6,1.2
				c1.5,0.9,3.1,1.3,4.9,1.3H3166.8z"/>
			<path d="M3219.9,778.2v25.1h-2c-0.9-6.8-3.1-12-6.6-15.5c-3.5-3.6-8-5.4-13.4-5.4c-1.9,0-3.6,0.3-5.1,1c-1.5,0.6-2.9,1.5-4.1,2.5
				c-1.2,1-2.1,2.2-2.7,3.6c-0.6,1.3-1,2.7-1,4.2c0,1.3,0.3,2.6,0.8,3.8c0.5,1.2,2.2,3.1,5,5.6c4.6,2.9,8.8,5.4,12.4,7.3
				c3.4,1.9,8,4.7,13.8,8.5c2.5,1.9,4.4,4.2,5.8,6.8c1.3,2.6,2,5.4,2,8.3c0,2.7-0.6,5.3-1.7,7.8c-1.1,2.5-2.7,4.6-4.7,6.4
				s-4.4,3.3-7.2,4.4c-2.8,1.1-5.9,1.6-9.3,1.6c-2.1,0-4.1-0.2-5.9-0.5c-0.3-0.1-1.2-0.3-2.5-0.7c-1.4-0.4-2.8-0.8-4.4-1.2
				c-1.5-0.4-3-0.8-4.3-1.2c-1.3-0.4-2.1-0.6-2.3-0.6c-0.9,0-1.6,0.3-2.1,0.8c-0.5,0.5-0.9,1.7-1.2,3.4h-2v-25h2
				c1,5.1,2.2,9,3.8,11.8c0.7,1.3,1.7,2.5,3,3.6c1.3,1.1,2.7,2.1,4.2,2.9c1.6,0.8,3.3,1.5,5.1,1.9c1.8,0.5,3.7,0.7,5.5,0.7
				c2.2,0,4.3-0.3,6-1c1.8-0.6,3.3-1.5,4.6-2.6c1.3-1.1,2.2-2.4,2.9-3.8c0.7-1.4,1-3,1-4.6c0-1.8-0.5-3.6-1.5-5.4
				c-1-1.8-2.7-3.6-5-5.4c-2.3-1.4-5-3-8.2-4.9c-6-3.5-11.4-6.8-16.1-10c-2.6-2.1-4.6-4.4-6-6.8c-1.4-2.5-2-5.2-2-8.3
				c0-2.6,0.5-5,1.6-7.3c1.1-2.3,2.5-4.4,4.4-6.1c1.9-1.8,4.1-3.1,6.8-4.2c2.6-1,5.4-1.5,8.5-1.5c3.8,0,7.9,0.9,12.2,2.8
				c1,0.4,1.9,0.8,2.6,1c0.7,0.3,1.3,0.4,1.7,0.3c1,0,1.7-0.3,2.3-0.8c0.6-0.5,1-1.7,1.4-3.4H3219.9z"/>
			<path d="M3264.5,850.6v2h-31.1v-2h2.6c1.3,0,2.4-0.1,3.4-0.3c1-0.2,1.8-0.6,2.4-1.4c0.6-0.7,1.1-1.8,1.5-3.3
				c0.3-1.5,0.5-3.5,0.5-6v-47c0-1.7,0-3-0.1-4.1c-0.1-1.1-0.2-2-0.4-2.7c-0.2-0.7-0.5-1.2-0.8-1.6c-0.4-0.4-0.9-0.8-1.5-1.2
				c-1.6-0.9-3.3-1.3-5-1.3h-2.6v-2h31.1v2h-2.6c-1.3,0-2.4,0.1-3.4,0.3c-1,0.2-1.8,0.7-2.4,1.4c-0.6,0.7-1.1,1.8-1.5,3.3
				c-0.3,1.5-0.5,3.4-0.5,5.9v47c0,1.7,0,3.1,0.1,4.2c0.1,1.1,0.2,1.9,0.4,2.6c0.2,0.7,0.5,1.2,0.9,1.6s0.9,0.8,1.6,1.2
				c1.5,0.9,3.1,1.3,4.9,1.3H3264.5z"/>
			<path d="M3307.4,778.2c4.6,0,9.1,1,13.3,2.9c4.2,1.9,7.9,4.6,11.1,7.9c3.2,3.4,5.7,7.3,7.6,11.9c1.9,4.6,2.8,9.5,2.8,14.8
				c0,5.5-0.9,10.6-2.8,15.3c-1.9,4.7-4.5,8.8-7.7,12.2c-3.2,3.4-7,6.1-11.4,8.1c-4.3,1.9-9,2.9-13.9,2.9c-5,0-9.6-0.9-13.9-2.8
				c-4.3-1.9-8.1-4.5-11.2-7.9c-3.2-3.4-5.7-7.4-7.5-12.1c-1.8-4.7-2.8-9.9-2.8-15.5c0-5.2,0.9-10.1,2.8-14.7
				c1.8-4.6,4.4-8.6,7.6-12c3.2-3.4,7.1-6.1,11.5-8C3297.3,779.2,3302.1,778.2,3307.4,778.2z M3306.3,782.1c-3.7,0-7,0.8-9.8,2.4
				c-2.9,1.6-5.3,3.8-7.2,6.7c-1.9,2.9-3.4,6.4-4.4,10.6c-1,4.1-1.5,8.8-1.5,14c0,5.1,0.5,9.8,1.5,14s2.5,7.9,4.4,11
				c1.9,3.1,4.4,5.4,7.2,7.1c2.9,1.7,6.2,2.5,9.9,2.5c3.4,0,6.5-0.6,9.3-1.9c2.9-1.3,5.3-3.3,7.5-6c2.1-2.7,3.8-6.1,5-10.3
				c1.2-4.2,1.8-9.2,1.8-15c0-5.5-0.5-10.4-1.5-14.8c-1-4.3-2.5-8-4.5-11c-2-3-4.5-5.3-7.4-6.9
				C3313.7,782.9,3310.2,782.1,3306.3,782.1z"/>
			<path d="M3345.1,779.8h19.7l44.5,54.6v-41.9c0-2.5-0.2-4.4-0.5-5.8c-0.3-1.4-0.9-2.5-1.5-3.2c-0.7-0.7-1.5-1.1-2.4-1.3
				c-1-0.2-2.1-0.3-3.3-0.3h-2.6v-2h25.4v2h-2.6c-1.3,0-2.4,0.1-3.4,0.3c-1,0.2-1.8,0.7-2.4,1.4c-0.6,0.7-1.1,1.8-1.4,3.2
				c-0.3,1.4-0.5,3.3-0.5,5.7v61.3h-1.9l-47.9-58.6V840c0,2.5,0.2,4.5,0.5,5.9c0.3,1.4,0.8,2.5,1.5,3.2c0.6,0.7,1.4,1.1,2.4,1.3
				c1,0.2,2.1,0.2,3.3,0.2h2.6v2h-25.3v-2h2.6c1.3,0,2.4-0.1,3.4-0.3c1-0.2,1.8-0.7,2.4-1.4c0.7-0.7,1.2-1.8,1.5-3.2
				c0.3-1.4,0.5-3.3,0.5-5.7v-50.6c-1.1-1.3-2-2.3-2.7-3s-1.4-1.4-2-1.8c-0.6-0.5-1.3-0.9-2.1-1.2c-0.7-0.3-1.7-0.7-2.8-1
				c-1.1-0.3-2.6-0.5-4.7-0.5V779.8z"/>
		</g>
	</g>
	<g>
		<path d="M2372.4,897.6V932h19.1c2.8,0,5.1-0.3,6.8-0.8c1.7-0.5,3.1-1.3,4.1-2.3c1-1,1.7-2.3,2.1-3.9c0.4-1.6,0.6-3.5,0.8-5.7h2.4
			v30.3h-2.4c-0.3-2.5-0.7-4.6-1.1-6.2c-0.4-1.7-1.1-3-2-4c-0.9-1-2.2-1.7-3.9-2.1c-1.7-0.4-3.9-0.6-6.7-0.6h-19.1v28.8
			c0,2.2,0,3.9,0.1,5.2c0.1,1.3,0.3,2.3,0.8,2.9c0.4,0.7,1.2,1.1,2.1,1.3s2.4,0.3,4.2,0.3h14.8c2.5,0,4.6-0.1,6.3-0.2
			c1.7-0.1,3.2-0.4,4.5-0.8c1.2-0.4,2.3-0.9,3.3-1.6s2-1.5,3.1-2.5c2.6-2.5,5.3-6.5,8.1-12h2.6l-7.6,21.9h-67.1v-2.4h3.1
			c0.8,0,1.7-0.1,2.6-0.3c0.9-0.2,1.7-0.5,2.5-0.8c0.8-0.4,1.5-0.8,2.2-1.4c0.6-0.6,1.1-1.2,1.3-2c0.5-1.4,0.8-4.2,0.8-8.4V908
			c0-5.6-0.5-9-1.6-10.3c-1.5-1.7-4.1-2.6-7.8-2.6h-3.1v-2.4h67.1v19.1h-1.5c-0.6-3.1-1.3-5.6-2.1-7.5c-0.7-1.9-1.7-3.3-2.9-4.4
			c-1.2-1-2.8-1.7-4.6-2c-1.9-0.3-4.3-0.4-7.2-0.4H2372.4z"/>
		<path d="M2478.9,931.7l18.7,27.9c2.7,4,4.9,7.1,6.7,9.4c1.8,2.3,3.4,4.1,4.9,5.3c1.5,1.2,3,2,4.4,2.4c1.4,0.4,3.1,0.7,5.1,0.7v2.4
			h-37.4v-2.4c3.5-0.1,5.8-0.6,7-1.6c1.1-1,1.7-2.5,1.7-4.3c0-0.3,0-0.6-0.1-0.9c-0.1-0.3-0.2-0.7-0.5-1.2c-0.3-0.5-0.7-1.2-1.3-2.1
			c-0.6-0.8-1.3-1.9-2.2-3.4l-14.8-22.3l-18.3,23.4c-1,1.3-1.8,2.3-2.3,3.1c-0.5,0.8-0.9,1.4-1.2,1.9c-0.3,0.5-0.4,1-0.4,1.3
			c0,0.4,0,0.8,0,1.2c0,1.3,0.6,2.5,1.7,3.4c1.2,0.9,3.4,1.4,6.6,1.5v2.4h-30.9v-2.4c2.1-0.1,4.1-0.5,5.9-1.2
			c1.9-0.7,3.6-1.6,5.3-2.8c1.7-1.2,3.4-2.7,5-4.4c1.7-1.8,3.4-3.8,5.2-6l20.5-26L2451,912c-2.4-3.5-4.5-6.2-6.4-8.4
			c-1.9-2.1-3.7-3.8-5.5-5c-1.8-1.2-3.5-2-5.3-2.5c-1.8-0.5-3.8-0.8-5.9-0.9v-2.4h40.3v2.4c-3.4,0.1-5.7,0.7-7,1.7
			c-1.3,1-1.9,2.1-1.9,3.3c0,1.6,1,3.9,3.1,6.9l13.4,20l15.4-19.7c1-1.2,1.7-2.2,2.2-2.9c0.5-0.7,0.9-1.3,1.2-1.8
			c0.3-0.5,0.4-0.9,0.5-1.3c0.1-0.4,0.1-0.8,0.1-1.3c0-1.9-0.7-3.1-2.1-3.7c-1.4-0.6-3.8-1-7.2-1.2v-2.4h30.9v2.4
			c-2.9,0.2-5.3,0.7-7.1,1.6c-1.8,0.9-3.6,2.1-5.2,3.5c-1.8,1.5-4.5,4.6-8.1,9.2L2478.9,931.7z"/>
		<path d="M2596.4,892.8v20.5h-1.4c-0.7-5.5-2.3-9.4-4.8-11.6c-2.5-2.3-6.2-3.4-11.2-3.4h-12.3v66.6c0,2.9,0.2,5.3,0.6,7
			c0.4,1.7,1,3,1.8,3.8c0.8,0.8,1.7,1.4,2.9,1.6c1.2,0.2,2.5,0.3,4,0.3h3v2.4H2542v-2.4h3.1c1.5,0,2.9-0.1,4-0.4
			c1.2-0.3,2.1-0.8,2.9-1.7c0.8-0.9,1.4-2.1,1.8-3.8c0.4-1.7,0.6-3.9,0.6-6.8v-66.6h-10.5c-2.6,0-4.9,0.2-7,0.6
			c-2,0.4-3.8,1.2-5.2,2.3c-1.5,1.1-2.6,2.7-3.5,4.6c-0.9,2-1.4,4.5-1.6,7.5h-2.4v-20.5H2596.4z"/>
		<path d="M2689.5,979.9h-23.2l-29.5-40.7c-1.1,0.1-2.1,0.1-2.9,0.1c-0.9,0-1.6,0-2.3,0c-0.6,0-1.2,0-1.8,0c-0.6,0-1.3-0.1-2-0.1
			v25.3c0,3.1,0.2,5.5,0.6,7.2c0.4,1.8,1,3.1,1.8,3.9c0.8,0.9,1.8,1.4,2.9,1.6c1.1,0.2,2.4,0.3,3.8,0.3h3.5v2.4h-37.4v-2.4h3.4
			c3.6,0,6.2-1.2,7.9-3.5c0.9-1.4,1.3-4.6,1.3-9.5v-56.3c0-5.4-0.6-8.8-1.8-10.2c-1.7-1.9-4.1-2.9-7.4-2.9h-3.4v-2.4h31.7
			c4.7,0,8.7,0.2,12.1,0.5c3.4,0.4,6.2,0.9,8.3,1.6c2.2,0.7,4.2,1.7,6.1,2.9c1.9,1.2,3.6,2.7,5,4.5c1.4,1.8,2.6,3.7,3.4,5.9
			c0.8,2.2,1.2,4.5,1.2,7c0,5.4-1.7,10.1-5.2,14c-3.5,3.9-8.9,6.7-16.2,8.3l17.9,24.9c2.1,2.9,4,5.2,5.6,7.1
			c1.6,1.9,3.3,3.3,4.9,4.4c1.6,1.1,3.4,1.9,5.2,2.4c1.8,0.5,4,0.9,6.5,1.2V979.9z M2627.6,935.2c0.8,0,1.5,0,2.2,0
			c0.6,0,1.1,0,1.5,0c4.2,0,7.8-0.5,10.9-1.4c3.1-1,5.8-2.3,7.9-4s3.7-3.8,4.7-6.1c1.1-2.3,1.6-4.9,1.6-7.6c0-2.7-0.4-5.2-1.3-7.4
			c-0.9-2.3-2.2-4.2-3.8-5.8c-1.7-1.6-3.6-2.9-5.9-3.8c-2.3-0.9-4.8-1.3-7.6-1.3c-2.6,0-6,0.4-10.1,1.2V935.2z"/>
		<path d="M2715.8,897.6V932h19.1c2.8,0,5.1-0.3,6.8-0.8c1.7-0.5,3.1-1.3,4.1-2.3c1-1,1.7-2.3,2.1-3.9c0.4-1.6,0.6-3.5,0.8-5.7h2.4
			v30.3h-2.4c-0.3-2.5-0.7-4.6-1.1-6.2c-0.4-1.7-1.1-3-2-4c-0.9-1-2.2-1.7-3.9-2.1c-1.7-0.4-3.9-0.6-6.7-0.6h-19.1v28.8
			c0,2.2,0,3.9,0.1,5.2c0.1,1.3,0.3,2.3,0.8,2.9c0.4,0.7,1.2,1.1,2.1,1.3s2.4,0.3,4.2,0.3h14.8c2.5,0,4.6-0.1,6.3-0.2
			c1.7-0.1,3.2-0.4,4.5-0.8c1.2-0.4,2.3-0.9,3.3-1.6s2-1.5,3.1-2.5c2.6-2.5,5.3-6.5,8.1-12h2.6l-7.6,21.9H2691v-2.4h3.1
			c0.8,0,1.7-0.1,2.6-0.3c0.9-0.2,1.7-0.5,2.5-0.8c0.8-0.4,1.5-0.8,2.2-1.4c0.6-0.6,1.1-1.2,1.3-2c0.5-1.4,0.8-4.2,0.8-8.4V908
			c0-5.6-0.5-9-1.6-10.3c-1.5-1.7-4.1-2.6-7.8-2.6h-3.1v-2.4h67.1v19.1h-1.5c-0.6-3.1-1.3-5.6-2.1-7.5c-0.7-1.9-1.7-3.3-2.9-4.4
			c-1.2-1-2.8-1.7-4.6-2c-1.9-0.3-4.3-0.4-7.2-0.4H2715.8z"/>
		<path d="M2822.4,979.9l-33.7-73.2v58.2c0,3,0.2,5.4,0.6,7c0.4,1.7,1,3,1.8,3.8c0.8,0.8,1.8,1.3,2.9,1.5c1.2,0.2,2.5,0.3,3.9,0.3
			h3.1v2.4h-30.3v-2.4h3.1c1.5,0,2.9-0.1,4-0.3c1.2-0.2,2.1-0.8,2.9-1.6c0.8-0.9,1.3-2.1,1.7-3.8c0.4-1.7,0.6-4,0.6-6.9v-56.9
			c0-2-0.1-3.8-0.3-5.4c-0.2-1.6-0.7-2.9-1.5-4c-0.8-1.1-2-1.9-3.6-2.5s-3.9-0.9-6.9-0.9v-2.4h24.6l31.6,68.2l31.1-68.2h24.6v2.4h-3
			c-1.6,0-3,0.1-4.1,0.4c-1.2,0.3-2.1,0.8-2.9,1.7c-0.8,0.9-1.3,2.1-1.7,3.8c-0.4,1.7-0.6,4-0.6,6.9v56.9c0,3,0.2,5.4,0.6,7
			c0.4,1.7,1,3,1.8,3.8c0.8,0.8,1.8,1.3,2.9,1.5c1.2,0.2,2.5,0.3,3.9,0.3h3v2.4h-37v-2.4h3.1c1.5,0,2.9-0.1,4-0.4
			c1.2-0.3,2.1-0.8,2.9-1.7c0.8-0.9,1.4-2.1,1.8-3.8c0.4-1.7,0.6-3.9,0.6-6.8v-58.2l-33.6,73.2H2822.4z"/>
		<path d="M2913.1,897.6V932h19.1c2.8,0,5.1-0.3,6.8-0.8c1.7-0.5,3.1-1.3,4.1-2.3c1-1,1.7-2.3,2.1-3.9c0.4-1.6,0.6-3.5,0.8-5.7h2.4
			v30.3h-2.4c-0.3-2.5-0.7-4.6-1.1-6.2c-0.4-1.7-1.1-3-2-4c-0.9-1-2.2-1.7-3.9-2.1c-1.7-0.4-3.9-0.6-6.7-0.6h-19.1v28.8
			c0,2.2,0,3.9,0.1,5.2c0.1,1.3,0.3,2.3,0.8,2.9c0.4,0.7,1.2,1.1,2.1,1.3s2.4,0.3,4.2,0.3h14.8c2.5,0,4.6-0.1,6.3-0.2
			c1.7-0.1,3.2-0.4,4.5-0.8c1.2-0.4,2.3-0.9,3.3-1.6s2-1.5,3.1-2.5c2.6-2.5,5.3-6.5,8.1-12h2.6l-7.6,21.9h-67.1v-2.4h3.1
			c0.8,0,1.7-0.1,2.6-0.3c0.9-0.2,1.7-0.5,2.5-0.8c0.8-0.4,1.5-0.8,2.2-1.4c0.6-0.6,1.1-1.2,1.3-2c0.5-1.4,0.8-4.2,0.8-8.4V908
			c0-5.6-0.5-9-1.6-10.3c-1.5-1.7-4.1-2.6-7.8-2.6h-3.1v-2.4h67.1v19.1h-1.5c-0.6-3.1-1.3-5.6-2.1-7.5c-0.7-1.9-1.7-3.3-2.9-4.4
			c-1.2-1-2.8-1.7-4.6-2c-1.9-0.3-4.3-0.4-7.2-0.4H2913.1z"/>
		<path d="M3074.3,955.9l2.1,0.4l-7.5,23.7h-67.5v-2.4h3.4c3.6,0,6.2-1.2,7.9-3.5c0.9-1.4,1.3-4.6,1.3-9.5v-56.3
			c0-5.4-0.6-8.8-1.8-10.2c-1.7-1.9-4.1-2.9-7.4-2.9h-3.4v-2.4h39.5v2.4c-2.4,0-4.3,0.1-5.9,0.3c-1.6,0.2-2.9,0.5-3.9,1
			c-1,0.4-1.8,0.9-2.4,1.5s-1.1,1.2-1.4,1.9c-0.6,1.3-1,4.6-1,9.9v54.7c0,3,0.2,5.2,0.7,6.5c0.4,1.3,1.3,2.3,2.7,2.8
			c1.2,0.4,4.5,0.6,10.1,0.6h6.3c6.7,0,11.4-0.5,14.1-1.4c1.3-0.4,2.6-1.1,3.8-1.9c1.2-0.8,2.4-1.9,3.5-3.3c1.2-1.3,2.3-3,3.4-4.9
			C3072,961,3073.1,958.6,3074.3,955.9z"/>
		<path d="M3106.7,897.6V932h19.1c2.8,0,5.1-0.3,6.8-0.8c1.7-0.5,3.1-1.3,4.1-2.3c1-1,1.7-2.3,2.1-3.9c0.4-1.6,0.6-3.5,0.8-5.7h2.4
			v30.3h-2.4c-0.3-2.5-0.7-4.6-1.1-6.2c-0.4-1.7-1.1-3-2-4c-0.9-1-2.2-1.7-3.9-2.1c-1.7-0.4-3.9-0.6-6.7-0.6h-19.1v28.8
			c0,2.2,0,3.9,0.1,5.2c0.1,1.3,0.3,2.3,0.8,2.9c0.4,0.7,1.2,1.1,2.1,1.3s2.4,0.3,4.2,0.3h14.8c2.5,0,4.6-0.1,6.3-0.2
			c1.7-0.1,3.2-0.4,4.5-0.8c1.2-0.4,2.3-0.9,3.3-1.6s2-1.5,3.1-2.5c2.6-2.5,5.3-6.5,8.1-12h2.6l-7.6,21.9h-67.1v-2.4h3.1
			c0.8,0,1.7-0.1,2.6-0.3c0.9-0.2,1.7-0.5,2.5-0.8c0.8-0.4,1.5-0.8,2.2-1.4c0.6-0.6,1.1-1.2,1.3-2c0.5-1.4,0.8-4.2,0.8-8.4V908
			c0-5.6-0.5-9-1.6-10.3c-1.5-1.7-4.1-2.6-7.8-2.6h-3.1v-2.4h67.1v19.1h-1.5c-0.6-3.1-1.3-5.6-2.1-7.5c-0.7-1.9-1.7-3.3-2.9-4.4
			c-1.2-1-2.8-1.7-4.6-2c-1.9-0.3-4.3-0.4-7.2-0.4H3106.7z"/>
		<path d="M3186.4,897.6v34.2h15.8c1.9,0,3.4-0.2,4.7-0.5c1.3-0.4,2.4-1,3.3-1.9c0.9-0.9,1.6-2.1,2.1-3.6c0.5-1.5,0.9-3.5,1.2-5.8
			h2.4v29.4h-2.4c-0.1-2.2-0.3-4-0.7-5.6s-1-2.8-1.9-3.8c-0.9-1-2-1.7-3.5-2.2c-1.4-0.4-3.2-0.7-5.4-0.7h-15.8v27.3c0,2,0,3.7,0.1,5
			c0.1,1.3,0.2,2.3,0.5,3.2c0.3,0.8,0.6,1.5,1.1,2c0.5,0.5,1.1,0.9,1.9,1.4c1.8,1,3.7,1.5,5.8,1.5h3.2v2.4h-37.4v-2.4h3.1
			c1.5,0,2.9-0.1,4.1-0.3c1.2-0.2,2.2-0.8,2.9-1.6c0.8-0.9,1.4-2.2,1.8-3.9c0.4-1.8,0.6-4.1,0.6-7.1v-56.3c0-2,0-3.6-0.1-4.9
			c-0.1-1.3-0.3-2.4-0.5-3.2c-0.2-0.8-0.6-1.5-1-2c-0.4-0.5-1.1-1-1.8-1.3c-1-0.5-1.9-0.9-2.9-1.2c-1-0.3-2-0.4-3.1-0.4h-3.1v-2.4
			h64.8V912h-1.4c-0.8-3.1-1.8-5.6-2.8-7.5c-1.1-1.9-2.3-3.3-3.8-4.4c-1.5-1-3.3-1.7-5.3-2c-2-0.3-4.5-0.5-7.4-0.5H3186.4z"/>
		<path d="M3308.8,892.8v20.5h-1.4c-0.7-5.5-2.3-9.4-4.8-11.6c-2.5-2.3-6.2-3.4-11.2-3.4H3279v66.6c0,2.9,0.2,5.3,0.6,7
			c0.4,1.7,1,3,1.8,3.8c0.8,0.8,1.7,1.4,2.9,1.6c1.2,0.2,2.5,0.3,4,0.3h3v2.4h-36.9v-2.4h3.1c1.5,0,2.9-0.1,4-0.4
			c1.2-0.3,2.1-0.8,2.9-1.7c0.8-0.9,1.4-2.1,1.8-3.8c0.4-1.7,0.6-3.9,0.6-6.8v-66.6h-10.5c-2.6,0-4.9,0.2-7,0.6
			c-2,0.4-3.8,1.2-5.2,2.3c-1.5,1.1-2.6,2.7-3.5,4.6c-0.9,2-1.4,4.5-1.6,7.5h-2.4v-20.5H3308.8z"/>
	</g>
</g>
<g id="SOPORTE-PARED">
</g>
<g id="MEDIDAS">
</g>
<g id="PROCESOS">
</g>
</svg>
