<?xml version="1.0" encoding="utf-8"?>
<!-- Generator: Adobe Illustrator 26.5.0, SVG Export Plug-In . SVG Version: 6.00 Build 0)  -->
<svg version="1.1" xmlns="http://www.w3.org/2000/svg" xmlns:xlink="http://www.w3.org/1999/xlink" x="0px" y="0px"
	 viewBox="0 0 6081.9 2122.1" style="enable-background:new 0 0 6081.9 2122.1;" xml:space="preserve">
<style type="text/css">
	.st0{fill:#EAEAEA;stroke:#000000;stroke-width:13.9944;stroke-miterlimit:10;}
	.st1{fill:#EAEAEA;stroke:#000000;stroke-width:13.8795;stroke-miterlimit:10;}
	.st2{fill:#F7F7F7;stroke:#000000;stroke-width:12.5772;stroke-miterlimit:10;}
	.st3{fill:#F7F7F7;stroke:#000000;stroke-width:12.4034;stroke-miterlimit:10;}
	.st4{fill:#F7F7F7;stroke:#000000;stroke-width:12.1572;stroke-miterlimit:10;}
	.st5{fill:#F7F7F7;stroke:#000000;stroke-width:12.3275;stroke-miterlimit:10;}
	.st6{fill:#F7F7F7;stroke:#3B7C67;stroke-width:25;stroke-miterlimit:10;}
	.st7{fill:#DDDDDD;stroke:#000000;stroke-width:9.2534;stroke-miterlimit:10;}
	.st8{fill:#E8E8E8;stroke:#000000;stroke-width:9.7259;stroke-miterlimit:10;}
	.st9{fill:#CCCCCC;stroke:#000000;stroke-width:9.2534;stroke-miterlimit:10;}
	.st10{fill:#6D6D6D;}
	.st11{fill:none;stroke:#000000;stroke-width:7.9919;stroke-miterlimit:10;}
	.st12{fill:none;stroke:#000000;stroke-width:8.0579;stroke-miterlimit:10;}
	.st13{fill:none;stroke:#000000;stroke-width:8.943;stroke-miterlimit:10;}
	.st14{fill:none;stroke:#000000;stroke-width:8.7846;stroke-miterlimit:10;}
	.st15{fill:none;stroke:#000000;stroke-width:8.5476;stroke-miterlimit:10;}
	.st16{fill:none;stroke:#000000;stroke-width:8.6182;stroke-miterlimit:10;}
</style>
<g id="CIRCULOS-SELECCION2">
</g>
<g id="CLOSET">
	<g id="LATERAL-DERECHA">
		<polygon class="st0" points="5807.4,1992.2 5274.7,1875.9 5276.6,168.2 5807.4,271.4 		"/>
		<rect x="5808" y="270.2" class="st0" width="103.6" height="1720"/>
	</g>
	<g id="BASE">
		<polyline class="st1" points="5272.3,1869 837.1,1875.2 5271.8,1869 5807.9,1989.7 755.8,1990 755.7,1875.2 837.4,1875.2 		"/>
		<rect x="676.1" y="1990.2" class="st0" width="5234.8" height="86.5"/>
		<polyline class="st0" points="665.4,1990 201.4,1875 201.4,1954 665.4,2075 666,1989.7 		"/>
	</g>
	<g id="DIVISIONES-VERTICALES">
		<g id="DIVISION-VERTICAL-DERECHA">
			<polygon class="st0" points="4538.1,1989.9 4072,1874.9 4073.2,269.7 4538.1,268.9 			"/>
			<rect x="4537" y="269.7" class="st0" width="90" height="1719.2"/>
		</g>
		<g id="DIVISION-CENTRAL">
			<polygon class="st0" points="3252.2,1989.9 2786.2,1874.9 2787.2,147.4 3252.2,268.9 			"/>
			<rect x="3251.1" y="268.7" class="st0" width="90" height="1720.2"/>
		</g>
		<g id="DIVISION-VERTICAL-IZQUIERDA_00000085229740836627909760000005526871516412138418_">
			<polygon class="st0" points="1930.1,1990.3 1464.1,1875.3 1465.2,269.7 1930.1,269.3 			"/>
			<rect x="1929" y="269.7" class="st0" width="90" height="1719.6"/>
		</g>
	</g>
	<g id="DIVISIONES-HORIZONTALES">
		<g id="DIVISION-HORIZONTAL-EXTREMA-IZQUIERDA">
			<polygon class="st2" points="757.2,1109.7 1814.3,1110.2 1464.2,1019.7 756.2,1019.2 			"/>
			<rect x="756.7" y="1106.9" class="st3" width="1058" height="84.7"/>
		</g>
		<g id="DIVISION-HORIZONTAL-INTERNA-DERECHA">
			<polygon class="st4" points="3342.5,1118.7 4399.6,1119.2 4049.6,1028.7 3341.6,1028.2 			"/>
			<rect x="3342" y="1115.9" class="st4" width="1058" height="84.7"/>
		</g>
		<g id="DIVISION-HORIZONTAL-EXTREMA-DERECHA">
			<polygon class="st4" points="4627.8,1123.7 5803.5,1124.2 5427.2,1033.7 4626.7,1033.2 			"/>
			<rect x="4627.2" y="1120.9" class="st4" width="1176.8" height="84.7"/>
		</g>
		<g id="DIVISION-HORIZONTAL-INTERNA-IZQUIERDA_00000054254641889117512190000003647137643466809518_">
			<polygon class="st5" points="2019.6,1140.4 3035.2,1140.9 2756.8,1050.1 2018.7,1049.9 			"/>
			<rect x="2019.2" y="1137.6" class="st4" width="1016.5" height="84.7"/>
		</g>
	</g>
	<g id="TECHO">
		<polygon class="st0" points="666,269.7 202.1,148.7 202.1,69.7 666,184.7 		"/>
		<rect x="672.9" y="184.7" class="st0" width="5239.2" height="85"/>
		<polyline class="st0" points="195.7,67.7 666.6,185.2 5912.7,184.4 5363.5,63.7 195.7,67.7 5364.1,63.7 		"/>
	</g>
</g>
<g id="MEDIDAS">
	<g id="TORNILLERIA-SOPORTES">
		<g id="TORNILLERIA-SOPORTE-1">
			<circle id="_x31_0_00000073681518737769082200000006098778274575974017_" class="st6" cx="1198.7" cy="1508.9" r="159"/>
			<path d="M1251.2,1559.6c-14.5-1.5-28.8,2.5-41.2-5.7c9.8-13.3,26.4-11.3,41.1-17c-14.7-1.3-28.8,2.6-41-5.8
				c9.9-13.6,26.8-11.2,41.1-17.1c-14.2-1.4-28.3,2.8-41.3-5.9c4.5-3.7,8.1-8.6,14.4-10c8.6-1.9,17.2-4.1,25.8-6.5
				c-13.4-2.1-27.6,2.4-39.9-6.1c9.8-13.6,26.6-11.2,41-17c-14.4-1.7-28.8,2.7-41-5.7c9.7-13.4,26.2-11.3,39.6-17.4
				c-4.1,0-8.3,0-12.4,0c-4.2,0-8.4,0.1-12.5-0.2c-1.5-0.1-2.9-1.3-4.3-2c0.2-0.6,0.5-1.2,0.7-1.8c13,0,26.1-0.5,39.1,0.3
				c4.3,0.3,8.5,3.7,13.5,6c-2.9,2.5-5.8,4.6-8.2,7.1c-1.3,1.3-2.1,3.3-2.6,5.2c-1.1,4.5,0.7,7.3,5.4,8c1.7,0.3,3.2,1.2,5.6,2.1
				c-3.1,2.6-5.9,4.8-8.4,7.4c-1.2,1.2-2.2,3-2.5,4.7c-0.7,4.3-0.1,8,5.4,8.6c1.7,0.2,3.2,1.2,5.6,2.1c-3.1,2.6-5.9,4.8-8.4,7.3
				c-1.2,1.2-2.2,3-2.5,4.7c-1,4.8,0.6,8,5.8,8.8c1.5,0.2,2.9,1.2,5,2.1c-3.1,2.7-5.9,4.8-8.4,7.3c-1.2,1.2-2.1,3-2.5,4.7
				c-0.9,4.5,0.3,7.8,5.5,8.5c1.6,0.2,3.1,1.2,5.4,2.2c-3.2,2.7-6.1,4.9-8.5,7.4c-1.2,1.2-2,3.1-2.4,4.7c-1,4.6,0.6,7.6,5.6,8.5
				c1.6,0.3,3.1,1.1,5.2,1.9c-1.5,1.4-2.5,2.6-3.8,3.5c-5.2,3.5-8.7,7.8-7.3,14.6c0.2,0.9-0.2,2.1-0.7,3
				c-6.6,12.2-13.3,24.4-20.4,37.4c-5.5-10-10.9-19.2-15.7-28.7c-3.5-7-7.5-12.9-16.5-13.5
				C1219.8,1563.1,1236.7,1565.4,1251.2,1559.6z"/>
			<path d="M1190.8,1436.7c-2.4-12.3,1.7-21.6,12.2-28.1c9-5.6,18.8-8.7,30-9.3c0,7.4,0,14.5,0,21.8c5.8,0,11.1,0,16.9,0
				c0-7.3,0-14.3,0-22c14.8,1.6,28.1,5.4,38.1,16.5c5.4,6,5.5,13.2,4.8,21.1C1259,1436.7,1225.1,1436.7,1190.8,1436.7z"/>
			<g>
				<path d="M1140,1517.1c-4.4-3.7-8-6.9-10.7-9.6c-2.7-2.8-4.8-5.3-6.3-7.6c-1.5-2.3-2.5-4.6-3-6.7c-0.5-2.2-0.7-4.5-0.7-6.9
					c0-3.5,0.7-6.9,2.2-10.1c1.5-3.2,3.5-6,6.2-8.4c2.7-2.4,5.9-4.3,9.6-5.7c3.7-1.4,7.9-2.1,12.4-2.1c4.4,0,8.4,0.7,12.1,2
					c3.7,1.3,6.8,3.1,9.5,5.3c2.6,2.2,4.7,4.7,6.1,7.6c1.4,2.9,2.1,5.8,2.1,8.8c0,2.2-0.3,4.3-0.9,6.4c-0.6,2.1-1.8,4.2-3.5,6.4
					c-1.7,2.2-4,4.5-7,7c-3,2.5-6.8,5.2-11.4,8.1c4.8,3.7,8.8,7.1,12,9.9c3.2,2.9,5.5,5.4,7.1,7.5c4.1,5.6,6.2,11.5,6.2,17.6
					c0,3.8-0.8,7.5-2.3,10.9c-1.5,3.5-3.7,6.5-6.6,9c-2.8,2.6-6.3,4.6-10.3,6.1c-4,1.5-8.4,2.3-13.2,2.3c-4.6,0-8.9-0.7-12.8-2.2
					c-3.9-1.5-7.2-3.5-10-6c-2.8-2.5-5-5.4-6.5-8.7c-1.5-3.3-2.3-6.7-2.3-10.4c0-5,1.7-9.9,5-14.7
					C1126.4,1528.2,1132,1522.9,1140,1517.1z M1143.9,1520.3c-4.6,3.8-8,8-10.1,12.4c-2.1,4.5-3.2,9.4-3.2,14.6
					c0,3.5,0.5,6.7,1.5,9.5c1,2.8,2.4,5.3,4.2,7.3c1.8,2,3.9,3.6,6.4,4.7c2.5,1.1,5.2,1.6,8.2,1.6c2.9,0,5.6-0.4,8-1.3
					c2.4-0.9,4.5-2.1,6.2-3.7c1.7-1.5,3-3.4,4-5.4c0.9-2.1,1.4-4.3,1.4-6.7c0-2.5-0.5-5-1.5-7.3c-1-2.4-2.6-4.8-4.7-7.4
					c-2.1-2.6-4.9-5.3-8.2-8.4C1152.7,1527.4,1148.6,1524,1143.9,1520.3z M1152.8,1508.5c3.4-3.1,6.1-5.7,8.1-7.9
					c2-2.2,3.5-4.2,4.6-6.1c1.1-1.9,1.7-3.7,2-5.5c0.3-1.8,0.4-3.8,0.4-6c0-5.8-1.6-10.3-4.8-13.5c-3.2-3.2-7.6-4.8-13.2-4.8
					c-2.8,0-5.3,0.4-7.6,1.3c-2.3,0.9-4.3,2-5.9,3.5c-1.7,1.5-3,3.2-3.9,5.1c-0.9,2-1.4,4-1.4,6.2c0,2.8,0.7,5.7,2.2,8.5
					c1.5,2.8,3.5,5.5,6.2,8.1L1152.8,1508.5z"/>
			</g>
		</g>
		<g id="TORNILLERIA-SOPORTE-2">
			<circle id="_x31_0_00000158011337096356301500000012697240466715582138_" class="st6" cx="2527" cy="1509" r="159"/>
			<path d="M2579.5,1559.7c-14.5-1.5-28.8,2.5-41.2-5.7c9.8-13.3,26.4-11.3,41.1-17c-14.7-1.3-28.8,2.6-41-5.8
				c9.9-13.6,26.8-11.2,41.1-17.1c-14.2-1.4-28.3,2.8-41.3-5.9c4.5-3.7,8.1-8.6,14.4-10c8.6-1.9,17.2-4.1,25.8-6.5
				c-13.4-2.1-27.6,2.4-39.9-6.1c9.8-13.6,26.6-11.2,41-17c-14.4-1.7-28.8,2.7-41-5.7c9.7-13.4,26.2-11.3,39.6-17.4
				c-4.1,0-8.3,0-12.4,0c-4.2,0-8.4,0.1-12.5-0.2c-1.5-0.1-2.9-1.3-4.3-2c0.2-0.6,0.5-1.2,0.7-1.8c13,0,26.1-0.5,39.1,0.3
				c4.3,0.3,8.5,3.7,13.5,6c-2.9,2.5-5.8,4.6-8.2,7.1c-1.3,1.3-2.1,3.3-2.6,5.2c-1.1,4.5,0.7,7.3,5.4,8c1.7,0.3,3.2,1.2,5.6,2.1
				c-3.1,2.6-5.9,4.8-8.4,7.4c-1.2,1.2-2.2,3-2.5,4.7c-0.7,4.3-0.1,8,5.4,8.6c1.7,0.2,3.2,1.2,5.6,2.1c-3.1,2.6-5.9,4.8-8.4,7.3
				c-1.2,1.2-2.2,3-2.5,4.7c-1,4.8,0.6,8,5.8,8.8c1.5,0.2,2.9,1.2,5,2.1c-3.1,2.7-5.9,4.8-8.4,7.3c-1.2,1.2-2.1,3-2.5,4.7
				c-0.9,4.5,0.3,7.8,5.5,8.5c1.6,0.2,3.1,1.2,5.4,2.2c-3.2,2.7-6.1,4.9-8.5,7.4c-1.2,1.2-2,3.1-2.4,4.7c-1,4.6,0.6,7.6,5.6,8.5
				c1.6,0.3,3.1,1.1,5.2,1.9c-1.5,1.4-2.5,2.6-3.8,3.5c-5.2,3.5-8.7,7.8-7.3,14.6c0.2,0.9-0.2,2.1-0.7,3
				c-6.6,12.2-13.3,24.4-20.4,37.4c-5.5-10-10.9-19.2-15.7-28.7c-3.5-7-7.5-12.9-16.5-13.5
				C2548.1,1563.2,2564.9,1565.5,2579.5,1559.7z"/>
			<path d="M2519.1,1436.9c-2.4-12.3,1.7-21.6,12.2-28.1c9-5.6,18.8-8.7,30-9.3c0,7.4,0,14.5,0,21.8c5.8,0,11.1,0,16.9,0
				c0-7.3,0-14.3,0-22c14.8,1.6,28.1,5.4,38.1,16.5c5.4,6,5.5,13.2,4.8,21.1C2587.2,1436.9,2553.4,1436.9,2519.1,1436.9z"/>
			<g>
				<path d="M2468.8,1519c-4.4-3.7-8-6.9-10.7-9.6c-2.7-2.8-4.8-5.3-6.3-7.6c-1.5-2.3-2.5-4.6-3-6.7c-0.5-2.2-0.7-4.5-0.7-6.9
					c0-3.5,0.7-6.9,2.2-10.1c1.5-3.2,3.5-6,6.2-8.4c2.7-2.4,5.9-4.3,9.6-5.7c3.7-1.4,7.9-2.1,12.4-2.1c4.4,0,8.4,0.7,12.1,2
					c3.7,1.3,6.8,3.1,9.5,5.3c2.6,2.2,4.7,4.7,6.1,7.6c1.4,2.9,2.1,5.8,2.1,8.8c0,2.2-0.3,4.3-0.9,6.4c-0.6,2.1-1.8,4.2-3.5,6.4
					c-1.7,2.2-4,4.5-7,7c-3,2.5-6.8,5.2-11.4,8.1c4.8,3.7,8.8,7.1,12,9.9c3.2,2.9,5.5,5.4,7.1,7.5c4.1,5.6,6.2,11.5,6.2,17.6
					c0,3.8-0.8,7.5-2.3,10.9c-1.5,3.5-3.7,6.5-6.6,9c-2.8,2.6-6.3,4.6-10.3,6.1c-4,1.5-8.4,2.3-13.2,2.3c-4.6,0-8.9-0.7-12.8-2.2
					c-3.9-1.5-7.2-3.5-10-6c-2.8-2.5-5-5.4-6.5-8.7c-1.5-3.3-2.3-6.7-2.3-10.4c0-5,1.7-9.9,5-14.7
					C2455.2,1530.1,2460.8,1524.8,2468.8,1519z M2472.7,1522.2c-4.6,3.8-8,8-10.1,12.4c-2.1,4.5-3.2,9.4-3.2,14.6
					c0,3.5,0.5,6.7,1.5,9.5c1,2.8,2.4,5.3,4.2,7.3c1.8,2,3.9,3.6,6.4,4.7c2.5,1.1,5.2,1.6,8.2,1.6c2.9,0,5.6-0.4,8-1.3
					c2.4-0.9,4.5-2.1,6.2-3.7c1.7-1.5,3-3.4,4-5.4c0.9-2.1,1.4-4.3,1.4-6.7c0-2.5-0.5-5-1.5-7.3c-1-2.4-2.6-4.8-4.7-7.4
					c-2.1-2.6-4.9-5.3-8.2-8.4C2481.5,1529.3,2477.4,1525.9,2472.7,1522.2z M2481.6,1510.3c3.4-3.1,6.1-5.7,8.1-7.9
					c2-2.2,3.5-4.2,4.6-6.1c1.1-1.9,1.7-3.7,2-5.5c0.3-1.8,0.4-3.8,0.4-6c0-5.8-1.6-10.3-4.8-13.5c-3.2-3.2-7.6-4.8-13.2-4.8
					c-2.8,0-5.3,0.4-7.6,1.3c-2.3,0.9-4.3,2-5.9,3.5c-1.7,1.5-3,3.2-3.9,5.1c-0.9,2-1.4,4-1.4,6.2c0,2.8,0.7,5.7,2.2,8.5
					c1.5,2.8,3.5,5.5,6.2,8.1L2481.6,1510.3z"/>
			</g>
		</g>
		<g id="TORNILLERIA-SOPORTE-3">
			<circle id="_x31_0_00000052063809218543019350000010134490617781531551_" class="st6" cx="3823" cy="1508" r="159"/>
			<path d="M3875.5,1558.7c-14.5-1.5-28.8,2.5-41.2-5.7c9.8-13.3,26.4-11.3,41.1-17c-14.7-1.3-28.8,2.6-41-5.8
				c9.9-13.6,26.8-11.2,41.1-17.1c-14.2-1.4-28.3,2.8-41.3-5.9c4.5-3.7,8.1-8.6,14.4-10c8.6-1.9,17.2-4.1,25.8-6.5
				c-13.4-2.1-27.6,2.4-39.9-6.1c9.8-13.6,26.6-11.2,41-17c-14.4-1.7-28.8,2.7-41-5.7c9.7-13.4,26.2-11.3,39.6-17.4
				c-4.1,0-8.3,0-12.4,0c-4.2,0-8.4,0.1-12.5-0.2c-1.5-0.1-2.9-1.3-4.3-2c0.2-0.6,0.5-1.2,0.7-1.8c13,0,26.1-0.5,39.1,0.3
				c4.3,0.3,8.5,3.7,13.5,6c-2.9,2.5-5.8,4.6-8.2,7.1c-1.3,1.3-2.1,3.3-2.6,5.2c-1.1,4.5,0.7,7.3,5.4,8c1.7,0.3,3.2,1.2,5.6,2.1
				c-3.1,2.6-5.9,4.8-8.4,7.4c-1.2,1.2-2.2,3-2.5,4.7c-0.7,4.3-0.1,8,5.4,8.6c1.7,0.2,3.2,1.2,5.6,2.1c-3.1,2.6-5.9,4.8-8.4,7.3
				c-1.2,1.2-2.2,3-2.5,4.7c-1,4.8,0.6,8,5.8,8.8c1.5,0.2,2.9,1.2,5,2.1c-3.1,2.7-5.9,4.8-8.4,7.3c-1.2,1.2-2.1,3-2.5,4.7
				c-0.9,4.5,0.3,7.8,5.5,8.5c1.6,0.2,3.1,1.2,5.4,2.2c-3.2,2.7-6.1,4.9-8.5,7.4c-1.2,1.2-2,3.1-2.4,4.7c-1,4.6,0.6,7.6,5.6,8.5
				c1.6,0.3,3.1,1.1,5.2,1.9c-1.5,1.4-2.5,2.6-3.8,3.5c-5.2,3.5-8.7,7.8-7.3,14.6c0.2,0.9-0.2,2.1-0.7,3
				c-6.6,12.2-13.3,24.4-20.4,37.4c-5.5-10-10.9-19.2-15.7-28.7c-3.5-7-7.5-12.9-16.5-13.5
				C3844.1,1562.2,3860.9,1564.5,3875.5,1558.7z"/>
			<path d="M3815.1,1435.9c-2.4-12.3,1.7-21.6,12.2-28.1c9-5.6,18.8-8.7,30-9.3c0,7.4,0,14.5,0,21.8c5.8,0,11.1,0,16.9,0
				c0-7.3,0-14.3,0-22c14.8,1.6,28.1,5.4,38.1,16.5c5.4,6,5.5,13.2,4.8,21.1C3883.2,1435.9,3849.4,1435.9,3815.1,1435.9z"/>
			<g>
				<path d="M3762.8,1517c-4.4-3.7-8-6.9-10.7-9.6c-2.7-2.8-4.8-5.3-6.3-7.6c-1.5-2.3-2.5-4.6-3-6.7c-0.5-2.2-0.7-4.5-0.7-6.9
					c0-3.5,0.7-6.9,2.2-10.1c1.5-3.2,3.5-6,6.2-8.4c2.7-2.4,5.9-4.3,9.6-5.7c3.7-1.4,7.9-2.1,12.4-2.1c4.4,0,8.4,0.7,12.1,2
					c3.7,1.3,6.8,3.1,9.5,5.3c2.6,2.2,4.7,4.7,6.1,7.6c1.4,2.9,2.1,5.8,2.1,8.8c0,2.2-0.3,4.3-0.9,6.4c-0.6,2.1-1.8,4.2-3.5,6.4
					c-1.7,2.2-4,4.5-7,7c-3,2.5-6.8,5.2-11.4,8.1c4.8,3.7,8.8,7.1,12,9.9c3.2,2.9,5.5,5.4,7.1,7.5c4.2,5.6,6.2,11.5,6.2,17.6
					c0,3.8-0.8,7.5-2.3,10.9c-1.5,3.5-3.7,6.5-6.6,9c-2.8,2.6-6.3,4.6-10.3,6.1c-4,1.5-8.4,2.3-13.2,2.3c-4.6,0-8.9-0.7-12.8-2.2
					c-3.9-1.5-7.2-3.5-10-6c-2.8-2.5-5-5.4-6.5-8.7c-1.5-3.3-2.3-6.7-2.3-10.4c0-5,1.7-9.9,5-14.7
					C3749.2,1528.1,3754.8,1522.8,3762.8,1517z M3766.7,1520.2c-4.6,3.8-8,8-10.1,12.4c-2.1,4.5-3.2,9.4-3.2,14.6
					c0,3.5,0.5,6.7,1.5,9.5c1,2.8,2.4,5.3,4.2,7.3c1.8,2,3.9,3.6,6.4,4.7c2.5,1.1,5.2,1.6,8.2,1.6c2.9,0,5.6-0.4,8-1.3
					c2.4-0.9,4.5-2.1,6.2-3.7c1.7-1.5,3-3.4,4-5.4c0.9-2.1,1.4-4.3,1.4-6.7c0-2.5-0.5-5-1.5-7.3c-1-2.4-2.6-4.8-4.7-7.4
					c-2.1-2.6-4.9-5.3-8.2-8.4C3775.5,1527.3,3771.4,1523.9,3766.7,1520.2z M3775.6,1508.3c3.4-3.1,6.1-5.7,8.1-7.9
					c2-2.2,3.5-4.2,4.6-6.1c1.1-1.9,1.7-3.7,2-5.5c0.3-1.8,0.4-3.8,0.4-6c0-5.8-1.6-10.3-4.8-13.5c-3.2-3.2-7.6-4.8-13.2-4.8
					c-2.8,0-5.3,0.4-7.6,1.3c-2.3,0.9-4.3,2-5.9,3.5s-3,3.2-3.9,5.1c-0.9,2-1.4,4-1.4,6.2c0,2.8,0.7,5.7,2.2,8.5
					c1.5,2.8,3.5,5.5,6.2,8.1L3775.6,1508.3z"/>
			</g>
		</g>
		<g id="TORNILLERIA-SOPORTE-4">
			<circle id="_x31_0_00000096744756361228490500000005210760938559015349_" class="st6" cx="5022" cy="1509" r="159"/>
			<path d="M5074.5,1559.7c-14.5-1.5-28.8,2.5-41.2-5.7c9.8-13.3,26.4-11.3,41.1-17c-14.7-1.3-28.8,2.6-41-5.8
				c9.9-13.6,26.8-11.2,41.1-17.1c-14.2-1.4-28.3,2.8-41.3-5.9c4.5-3.7,8.1-8.6,14.4-10c8.6-1.9,17.2-4.1,25.8-6.5
				c-13.4-2.1-27.6,2.4-39.9-6.1c9.8-13.6,26.6-11.2,41-17c-14.4-1.7-28.8,2.7-41-5.7c9.7-13.4,26.2-11.3,39.6-17.4
				c-4.1,0-8.3,0-12.4,0c-4.2,0-8.4,0.1-12.5-0.2c-1.5-0.1-2.9-1.3-4.3-2c0.2-0.6,0.5-1.2,0.7-1.8c13,0,26.1-0.5,39.1,0.3
				c4.3,0.3,8.5,3.7,13.5,6c-2.9,2.5-5.8,4.6-8.2,7.1c-1.3,1.3-2.1,3.3-2.6,5.2c-1.1,4.5,0.7,7.3,5.4,8c1.7,0.3,3.2,1.2,5.6,2.1
				c-3.1,2.6-5.9,4.8-8.4,7.4c-1.2,1.2-2.2,3-2.5,4.7c-0.7,4.3-0.1,8,5.4,8.6c1.7,0.2,3.2,1.2,5.6,2.1c-3.1,2.6-5.9,4.8-8.4,7.3
				c-1.2,1.2-2.2,3-2.5,4.7c-1,4.8,0.6,8,5.8,8.8c1.5,0.2,2.9,1.2,5,2.1c-3.1,2.7-5.9,4.8-8.4,7.3c-1.2,1.2-2.1,3-2.5,4.7
				c-0.9,4.5,0.3,7.8,5.5,8.5c1.6,0.2,3.1,1.2,5.4,2.2c-3.2,2.7-6.1,4.9-8.5,7.4c-1.2,1.2-2,3.1-2.4,4.7c-1,4.6,0.6,7.6,5.6,8.5
				c1.6,0.3,3.1,1.1,5.2,1.9c-1.5,1.4-2.5,2.6-3.8,3.5c-5.2,3.5-8.7,7.8-7.3,14.6c0.2,0.9-0.2,2.1-0.7,3
				c-6.6,12.2-13.3,24.4-20.4,37.4c-5.5-10-10.9-19.2-15.7-28.7c-3.5-7-7.5-12.9-16.5-13.5
				C5043.1,1563.2,5059.9,1565.5,5074.5,1559.7z"/>
			<path d="M5014.1,1436.9c-2.4-12.3,1.7-21.6,12.2-28.1c9-5.6,18.8-8.7,30-9.3c0,7.4,0,14.5,0,21.8c5.8,0,11.1,0,16.9,0
				c0-7.3,0-14.3,0-22c14.8,1.6,28.1,5.4,38.1,16.5c5.4,6,5.5,13.2,4.8,21.1C5082.2,1436.9,5048.4,1436.9,5014.1,1436.9z"/>
			<g>
				<path d="M4966.7,1519c-4.4-3.7-8-6.9-10.7-9.6c-2.7-2.8-4.8-5.3-6.3-7.6c-1.5-2.3-2.5-4.6-3-6.7c-0.5-2.2-0.7-4.5-0.7-6.9
					c0-3.5,0.7-6.9,2.2-10.1c1.5-3.2,3.5-6,6.2-8.4c2.7-2.4,5.9-4.3,9.6-5.7c3.7-1.4,7.9-2.1,12.5-2.1c4.4,0,8.4,0.7,12.1,2
					c3.7,1.3,6.8,3.1,9.5,5.3c2.6,2.2,4.7,4.7,6.1,7.6c1.4,2.9,2.1,5.8,2.1,8.8c0,2.2-0.3,4.3-0.9,6.4c-0.6,2.1-1.8,4.2-3.5,6.4
					c-1.7,2.2-4,4.5-7,7c-3,2.5-6.8,5.2-11.4,8.1c4.8,3.7,8.8,7.1,12,9.9c3.2,2.9,5.5,5.4,7.1,7.5c4.1,5.6,6.2,11.5,6.2,17.6
					c0,3.8-0.8,7.5-2.3,10.9c-1.5,3.5-3.7,6.5-6.6,9c-2.8,2.6-6.3,4.6-10.3,6.1c-4,1.5-8.4,2.3-13.2,2.3c-4.6,0-8.9-0.7-12.8-2.2
					c-3.9-1.5-7.2-3.5-10-6c-2.8-2.5-5-5.4-6.5-8.7c-1.5-3.3-2.3-6.7-2.3-10.4c0-5,1.7-9.9,5-14.7
					C4953,1530.1,4958.7,1524.8,4966.7,1519z M4970.6,1522.2c-4.6,3.8-8,8-10.1,12.4c-2.1,4.5-3.2,9.4-3.2,14.6
					c0,3.5,0.5,6.7,1.5,9.5c1,2.8,2.4,5.3,4.2,7.3c1.8,2,3.9,3.6,6.4,4.7c2.5,1.1,5.2,1.6,8.2,1.6c2.9,0,5.6-0.4,8-1.3
					c2.4-0.9,4.5-2.1,6.2-3.7c1.7-1.5,3-3.4,4-5.4c0.9-2.1,1.4-4.3,1.4-6.7c0-2.5-0.5-5-1.5-7.3c-1-2.4-2.6-4.8-4.7-7.4
					c-2.1-2.6-4.9-5.3-8.2-8.4C4979.3,1529.3,4975.3,1525.9,4970.6,1522.2z M4979.5,1510.3c3.4-3.1,6.1-5.7,8.1-7.9
					c2-2.2,3.5-4.2,4.6-6.1c1.1-1.9,1.7-3.7,2-5.5c0.3-1.8,0.4-3.8,0.4-6c0-5.8-1.6-10.3-4.8-13.5c-3.2-3.2-7.6-4.8-13.2-4.8
					c-2.8,0-5.3,0.4-7.6,1.3c-2.3,0.9-4.3,2-5.9,3.5c-1.7,1.5-3,3.2-3.9,5.1c-0.9,2-1.4,4-1.4,6.2c0,2.8,0.7,5.7,2.2,8.5
					c1.5,2.8,3.5,5.5,6.2,8.1L4979.5,1510.3z"/>
			</g>
		</g>
		<g id="SOPORTES">
			<polygon class="st7" points="1505.7,1221 1524.8,1221.2 1524.8,1246.5 1524.8,1273.2 1573.7,1273.2 1573.7,1244.6 1573.7,1193.6 
				1505.7,1193.6 			"/>
			<polygon class="st7" points="1690,1225.7 1713,1226 1713,1255.3 1713,1286.2 1771.7,1286.2 1771.7,1253.1 1771.7,1194 1690,1194 
							"/>
			<polygon class="st7" points="830.7,1225.5 809.9,1225.8 809.9,1255.2 809.9,1286 756.7,1286 756.7,1253 756.7,1193.9 
				830.7,1193.9 			"/>
			<polygon class="st7" points="508.7,1190.7 493.2,1190.9 493.2,1216.3 493.2,1242.9 453.3,1242.9 453.3,1214.4 453.3,1163.4 
				508.7,1163.4 			"/>
			<polygon class="st7" points="2801.7,1249.6 2820.8,1249.8 2820.8,1275.2 2820.8,1301.8 2869.7,1301.8 2869.7,1273.3 
				2869.7,1222.3 2801.7,1222.3 			"/>
			<polygon class="st7" points="2936,1256.3 2959,1256.6 2959,1286 2959,1316.8 3017.7,1316.8 3017.7,1283.7 3017.7,1224.7 
				2936,1224.7 			"/>
			<polygon class="st7" points="2092.8,1253.7 2072,1254 2072,1283.4 2072,1314.2 2018.8,1314.2 2018.8,1281.1 2018.8,1222.1 
				2092.8,1222.1 			"/>
			<polygon class="st7" points="4294.3,1235.2 4317.2,1235.4 4317.2,1264.8 4317.2,1295.6 4376,1295.6 4376,1262.6 4376,1203.5 
				4294.3,1203.5 			"/>
			<polygon class="st8" points="3415.6,1234.3 3394.8,1234.6 3394.8,1264 3394.8,1294.8 3341.6,1294.8 3341.6,1261.7 3341.6,1202.7 
				3415.6,1202.7 			"/>
			<polygon class="st7" points="4110,1230.4 4129.1,1230.6 4129.1,1256 4129.1,1282.6 4178,1282.6 4178,1254.1 4178,1203.1 
				4110,1203.1 			"/>
			<polygon class="st7" points="5472.8,1235.2 5491.9,1235.4 5491.9,1260.7 5491.9,1287.4 5540.8,1287.4 5540.8,1258.8 
				5540.8,1207.8 5472.8,1207.8 			"/>
			<polygon class="st8" points="4700.3,1235.4 4679.5,1235.7 4679.5,1265 4679.5,1295.9 4626.3,1295.9 4626.3,1262.8 4626.3,1203.8 
				4700.3,1203.8 			"/>
			<polygon class="st7" points="5657.1,1208.3 5657.1,1239.9 5680,1240.2 5680,1269.5 5680,1300.4 5738.8,1300.4 5738.8,1267.3 
				5738.8,1208.3 			"/>
		</g>
	</g>
	<g id="TABLITA-DELANTERA_00000134928484676515735100000014033209265469078427_">
		<g id="TABLITA-DELANTERA">
			<rect x="3169.3" y="269.1" class="st9" width="82.4" height="1709.5"/>
			<polygon class="st9" points="3170,1976.1 3035.9,1952.1 3035.6,269.6 3170,270.1 			"/>
		</g>
		<g id="TORNILLERIA-TABLITA-DELANTERA">
			<path class="st10" d="M3087.2,1891.6c10.6,11.5,26.4,10.4,35.3-2.3c8.8-12.8,7.4-32.4-3.2-43.9s-26.4-10.4-35.3,2.3
				C3075.1,1860.4,3076.5,1880.1,3087.2,1891.6z M3094.8,1853.4c0.6-0.5,0.9,0.1,0.9,0.1s2.4,2.9,4.7,5.6c2.8,2.4,4.4,0.2,4.4,0.2
				s4.2-5.4,4.5-5.8c0.4-0.4,0.8,0.1,0.8,0.1l1.2,1.5c0,0,2.8,3.4,3.2,3.9c0.3,0.6,0.1,1.1,0.1,1.1s-2.6,3.2-4.3,5.8
				c-1.6,2.7,0.2,5.6,0.2,5.6l2.5,3c0,0,2,2.3,2.4,2.9c0.3,0.7,0,1.1,0,1.1s-3.5,4.6-3.9,5.2c-0.4,0.6-1.1,0.1-1.1,0.1
				s-2.8-3.5-4.8-5.8c-2.2-2.1-4.4,0.1-4.4,0.1s-3.9,5.1-4.3,5.6c-0.6,0.2-0.8-0.1-0.8-0.1s-3.6-4.3-4.2-5.1
				c-0.7-0.8-0.2-1.5-0.2-1.5l3.4-4.5c2.5-3.2,0.7-6.4,0.7-6.4l-4.8-5.8c0,0-0.5-0.6-0.3-1.3
				C3090.9,1858.6,3094.3,1854,3094.8,1853.4z"/>
			<path class="st10" d="M3087,1203.2c10.6,11.5,26.4,10.4,35.3-2.3c8.8-12.8,7.4-32.4-3.2-43.9s-26.4-10.4-35.3,2.3
				C3074.9,1172,3076.4,1191.7,3087,1203.2z M3094.7,1164.9c0.6-0.5,0.9,0.1,0.9,0.1s2.4,2.9,4.7,5.6c2.8,2.4,4.4,0.2,4.4,0.2
				s4.2-5.4,4.5-5.8c0.4-0.4,0.8,0.1,0.8,0.1l1.2,1.5c0,0,2.8,3.4,3.2,3.9c0.3,0.6,0.1,1.1,0.1,1.1s-2.6,3.2-4.3,5.8
				c-1.6,2.7,0.2,5.6,0.2,5.6l2.5,3c0,0,2,2.3,2.4,2.9c0.3,0.7,0,1.1,0,1.1s-3.5,4.6-3.9,5.2c-0.4,0.6-1.1,0.1-1.1,0.1
				s-2.8-3.5-4.8-5.8c-2.2-2.1-4.4,0.1-4.4,0.1s-3.9,5.1-4.3,5.6c-0.6,0.2-0.8-0.1-0.8-0.1s-3.6-4.3-4.2-5.1
				c-0.7-0.8-0.2-1.5-0.2-1.5l3.4-4.5c2.5-3.2,0.7-6.4,0.7-6.4l-4.8-5.8c0,0-0.5-0.6-0.3-1.3
				C3090.8,1170.2,3094.1,1165.6,3094.7,1164.9z"/>
			<path class="st10" d="M3086.3,393c10.6,11.5,26.4,10.4,35.3-2.3c8.8-12.8,7.4-32.4-3.2-43.9c-10.6-11.5-26.4-10.4-35.3,2.3
				C3074.2,361.9,3075.7,381.6,3086.3,393z M3094,354.8c0.6-0.5,0.9,0.1,0.9,0.1s2.4,2.9,4.7,5.6c2.8,2.4,4.4,0.2,4.4,0.2
				s4.2-5.4,4.5-5.8c0.4-0.4,0.8,0.1,0.8,0.1l1.2,1.5c0,0,2.8,3.4,3.2,3.9c0.3,0.6,0.1,1.1,0.1,1.1s-2.6,3.2-4.3,5.8
				c-1.6,2.7,0.2,5.6,0.2,5.6l2.5,3c0,0,2,2.3,2.4,2.9c0.3,0.7,0,1.1,0,1.1s-3.5,4.6-3.9,5.2c-0.4,0.6-1.1,0.1-1.1,0.1
				s-2.8-3.5-4.8-5.8c-2.2-2.1-4.4,0.1-4.4,0.1s-3.9,5.1-4.3,5.6c-0.6,0.2-0.8-0.1-0.8-0.1s-3.6-4.3-4.2-5.1
				c-0.7-0.8-0.2-1.5-0.2-1.5l3.4-4.5c2.5-3.2,0.7-6.4,0.7-6.4l-4.8-5.8c0,0-0.5-0.6-0.3-1.3C3090.1,360.1,3093.5,355.4,3094,354.8z
				"/>
		</g>
	</g>
	<g id="TABLITA-TRASERAS">
		<g id="TABLITA-TRASERA">
			<polyline class="st9" points="5371,1205.7 5371,1891.8 5275,1869 5274.2,1205.7 5429.2,1206.2 5429.5,1894.2 5370.5,1894.2 
				5370.5,1207.4 			"/>
			<line class="st9" x1="5371" y1="1033.6" x2="5371" y2="1037.7"/>
			<polyline class="st9" points="5371,1033.6 5371,271.1 5274.8,270.7 5274.9,1033.6 5429.2,1033.7 5429.5,270.2 5370.5,270.2 
				5370.5,1037.7 			"/>
		</g>
		<g id="TABLITA-TRASERA-ESCONDIDA">
			<polygon class="st9" points="385,1911 326,1911 326.2,185.2 385.2,201.2 			"/>
			<polygon class="st9" points="326.5,1908.5 230.5,1884.5 230.2,160.2 326.2,185.2 			"/>
		</g>
	</g>
	<g id="LATERAL-IZQUIERDA">
		<rect x="666" y="269.7" class="st0" width="90" height="1720"/>
		<polygon class="st0" points="667.1,1990.7 201,1875.7 202.1,148.2 667.1,269.7 		"/>
	</g>
	<polyline class="st11" points="1111.5,1381.1 809.2,1381.1 809.1,1289 	"/>
	<polyline class="st12" points="1043.1,1511.7 788.1,1511.7 788.1,1290 	"/>
	<polyline class="st13" points="1239.1,1357 1239.4,1243.2 1525.7,1243.2 	"/>
	<polyline class="st14" points="1361.1,1503.5 1745.1,1501.7 1745.6,1290 	"/>
	<polyline class="st14" points="2531.1,1354 2531.1,1252 2817.4,1252 	"/>
	<polyline class="st14" points="2689.3,1511.9 3002.6,1510.5 3002.6,1319.7 	"/>
	<polyline class="st15" points="2408.1,1411.5 2062.2,1411.5 2062.1,1319.4 	"/>
	<polyline class="st16" points="2372.1,1542.5 2038,1542.2 2038,1320.4 	"/>
	<polyline class="st15" points="3725.1,1389.5 3390.3,1389.2 3390.1,1297.1 	"/>
	<polyline class="st16" points="3668.1,1520.5 3366.1,1519.8 3366.1,1298.1 	"/>
	<polyline class="st14" points="3839.1,1352 3839.5,1245.7 4133.1,1245.5 	"/>
	<polyline class="st14" points="3985.8,1518.6 4349.1,1517.2 4349.1,1326.4 4349.1,1298.5 	"/>
	<polyline class="st14" points="5022.6,1352 5023.1,1250.2 5496.1,1250 	"/>
	<polyline class="st14" points="5185.1,1511.5 5715.1,1517.2 5715.1,1326.4 5715.1,1298.5 	"/>
	<polyline class="st15" points="4924.1,1389.5 4673.5,1389.1 4673.3,1297.1 	"/>
	<polyline class="st16" points="4867.1,1520.5 4649.3,1519.8 4649.3,1298.1 	"/>
</g>
</svg>
