<?xml version="1.0" encoding="utf-8"?>
<!-- Generator: Adobe Illustrator 26.5.0, SVG Export Plug-In . SVG Version: 6.00 Build 0)  -->
<svg version="1.1" xmlns="http://www.w3.org/2000/svg" xmlns:xlink="http://www.w3.org/1999/xlink" x="0px" y="0px"
	 viewBox="0 0 7359 2071" style="enable-background:new 0 0 7359 2071;" xml:space="preserve">
<style type="text/css">
	.st0{fill:#E6E6E6;stroke:#000000;stroke-width:27.8562;stroke-miterlimit:10;}
	.st1{stroke:#000000;stroke-width:8.8436;stroke-miterlimit:10;}
	.st2{fill:#F7F7F7;stroke:#000000;stroke-width:19.0024;stroke-miterlimit:10;}
	.st3{stroke:#000000;stroke-width:9.5954;stroke-miterlimit:10;}
	.st4{fill:#F7F7F7;stroke:#000000;stroke-width:17.6277;stroke-miterlimit:10;}
	.st5{stroke:#000000;stroke-width:9.3761;stroke-miterlimit:10;}
	.st6{fill:#F7F7F7;stroke:#000000;stroke-width:15.5912;stroke-miterlimit:10;}
	.st7{fill:#E6E6E6;stroke:#000000;stroke-width:16.0779;stroke-miterlimit:10;}
	.st8{fill:#FFFFFF;}
	.st9{fill:none;stroke:#000000;stroke-width:20.203;stroke-miterlimit:10;}
	.st10{fill:none;stroke:#000000;stroke-width:14.4307;stroke-miterlimit:10;}
	.st11{fill:none;stroke:#000000;stroke-width:17.3168;stroke-miterlimit:10;}
	.st12{fill:none;stroke:#000000;stroke-width:16.0779;stroke-miterlimit:10;}
</style>
<g id="CIRCULOS-SELECCION4">
</g>
<g id="CLOSET">
	<g id="LATERAL-DERECHA">
	</g>
	<g id="BASE">
	</g>
	<g id="DIVISIONES-VERTICALES">
		<g id="DIVISION-VERTICAL-DERECHA">
		</g>
		<g id="DIVISION-CENTRAL">
		</g>
		<g id="DIVISION-VERTICAL-IZQUIERDA_00000085229740836627909760000005526871516412138418_">
		</g>
	</g>
	<g id="DIVISIONES-HORIZONTALES">
	</g>
	<g id="LATERAL-IZQUIERDA">
	</g>
	<g id="TECHO">
	</g>
	<g id="SOPORTES-COOK">
	</g>
</g>
<g id="TABLITAS-TRASERAS">
</g>
<g id="TRIPLEX_00000062169277959621118470000012963048032068378272_">
</g>
<g id="PUNTILLAS">
</g>
<g id="SOPORTE-MUEBLE">
	<g id="PUERTAS">
		<g>
			<polyline class="st0" points="7007.7,1406.2 6177.7,339.2 1320.7,339.4 1824.8,1405.7 			"/>
			<polygon class="st0" points="1824.8,1575 7007.7,1581.6 7007.7,1413.4 1824.8,1405.7 			"/>
			<polygon class="st0" points="1327.7,558.2 1824.7,1604.2 1824.8,1405.7 1320.7,339.4 			"/>
		</g>
	</g>
	<g>
		<g>
			<polygon class="st1" points="6339.8,269.6 6279.2,237.8 6302.2,299.9 			"/>
			<polygon class="st1" points="7129.4,1367.3 7191,1397 7165.9,1335.7 			"/>
			<line class="st2" x1="6309.2" y1="269.1" x2="7175.7" y2="1384.7"/>
		</g>
		<g>
			<polygon class="st3" points="6950.2,1731.9 7018.1,1702.6 6949.7,1679.5 			"/>
			<line class="st4" x1="1813.5" y1="1705.4" x2="6983.7" y2="1703.2"/>
			<polygon class="st5" points="1864,1679.6 1794.3,1703.6 1861.4,1729.4 			"/>
		</g>
	</g>
	<circle cx="1386.7" cy="590.4" r="21.5"/>
	<line class="st6" x1="1389.6" y1="588.4" x2="1144.7" y2="589.2"/>
	<circle cx="280.2" cy="1269.2" r="21.5"/>
	<g id="SELECTOR-ELEMENTOS-MADERA-SUB">
		<circle class="st7" cx="636.9" cy="570" r="512.7"/>
		<ellipse class="st8" cx="634.6" cy="569.1" rx="518" ry="514"/>
		<line class="st9" x1="184.9" y1="345.9" x2="1093.7" y2="345.9"/>
		<line class="st9" x1="1028.7" y1="905.1" x2="250.5" y2="904.9"/>
		<line class="st10" x1="462.1" y1="381.3" x2="462.1" y2="869.7"/>
		<line class="st11" x1="534.2" y1="381.3" x2="389.9" y2="381.3"/>
		<line class="st11" x1="534.2" y1="869.5" x2="389.9" y2="869.5"/>
		<g>
			<path d="M532.2,589.3l31.2-15.2h3.1v108.1c0,3.8,0,6.7,0.1,8.8c0.1,2.1,0.3,3.7,0.7,4.9c0.4,1.1,0.8,1.9,1.4,2.4
				c0.6,0.5,1.4,0.9,2.4,1.4c1.9,1,5.7,1.6,11.6,1.6v3.5h-48.2v-3.5c3.1,0,5.6-0.1,7.5-0.4c1.9-0.3,3.3-0.6,4.4-1.1
				c1-0.4,1.8-1,2.3-1.6c0.5-0.7,0.9-1.4,1.2-2.1c0.7-1.4,1-6,1-13.8V613c0-5.5-0.1-9.8-0.4-12.9c-0.2-3.1-0.6-5.5-1.2-7
				c-0.6-1.5-1.3-2.5-2.3-2.9c-0.9-0.4-2.2-0.6-3.7-0.6c-2.6,0-5.9,0.8-9.7,2.5L532.2,589.3z"/>
			<path d="M630.5,686.4c2.8,0,5.3,1,7.3,3c2.1,2,3.1,4.5,3.1,7.4c0,2.9-1,5.4-3.1,7.5c-2.1,2.1-4.5,3.1-7.3,3.1
				c-2.9,0-5.4-1-7.5-3.1c-2.1-2.1-3.1-4.6-3.1-7.5c0-3,1-5.5,3.1-7.5C625.1,687.4,627.6,686.4,630.5,686.4z"/>
			<path d="M738.7,576.6l-7.5,16.1h-38.5l-8.5,17.2c7.6,1.1,14.6,3.1,21.1,6c6.4,2.9,12,6.4,16.6,10.6c4.6,4.2,8.2,9.1,10.8,14.6
				c2.6,5.5,3.9,11.4,3.9,17.7c0,7.8-1.6,14.7-4.9,20.7c-3.3,6-7.5,11-12.5,15.1c-5,4.1-10.5,7.2-16.4,9.3
				c-5.9,2.1-11.5,3.2-16.8,3.2c-3.9,0-7.3-0.4-10.1-1.1c-2.8-0.7-5-1.7-6.8-2.9c-1.7-1.2-3-2.6-3.9-4c-0.8-1.5-1.3-3-1.3-4.6
				c0-1.8,0.7-3.4,2.1-4.7c1.4-1.4,3.2-2,5.5-2c0.8,0,1.6,0,2.3,0.1c0.7,0.1,1.3,0.3,2,0.6c0.7,0.3,1.6,0.8,2.5,1.4
				c1,0.6,2.2,1.4,3.7,2.5c2.3,1.7,4.7,2.9,7.1,3.7c2.4,0.8,4.8,1.2,7.3,1.2c3.7,0,7.2-0.8,10.5-2.3c3.3-1.5,6.3-3.5,8.8-6.1
				c2.5-2.6,4.6-5.6,6.1-9.1c1.6-3.5,2.3-7.2,2.3-11.3c0-3.9-0.7-7.6-2-11.3c-1.3-3.7-3.2-7.1-5.6-10.4c-2.4-3.2-5.4-6.2-8.8-8.8
				c-3.4-2.6-7.3-4.9-11.6-6.8c-3.5-1.5-7.5-2.6-12.2-3.3c-4.7-0.7-9.9-1.2-15.9-1.5l24.5-49.9H738.7z"/>
			<path d="M916.2,573.8l3,43.6h-3c-3.9-13.1-9.5-22.5-16.7-28.2c-7.2-5.7-15.9-8.6-26-8.6c-6.6,0-12.6,1.2-18.2,3.7
				c-5.5,2.5-10.3,6.3-14.3,11.5c-4,5.2-7.1,11.7-9.4,19.5c-2.3,7.8-3.4,17-3.4,27.6c0,8.6,1.1,16.3,3.2,23.3
				c2.1,7,5.2,12.9,9.3,17.8c4.1,4.9,9.1,8.7,15,11.4c5.9,2.7,12.7,4,20.4,4c8.1,0,15.4-1.8,22-5.4c6.3-3.3,13.3-10.3,21-21.2l3,1.8
				c-6.5,11.4-14,19.7-22.5,25c-8.5,5.3-18.7,8-30.5,8c-9.1,0-17.5-1.6-25.1-4.8s-14.2-7.7-19.7-13.5c-5.5-5.8-9.8-12.6-12.9-20.6
				c-3.1-7.9-4.7-16.7-4.7-26.2c0-12.9,2.9-24.6,8.6-35.3c5.6-10.7,13.5-19,23.5-24.8c10.2-5.9,21.2-8.9,33-8.9
				c9.3,0,18.4,2.3,27.4,6.8c2.6,1.4,4.5,2.1,5.6,2.1c2.1,0,3.8-0.8,5.1-2.5c1.4-1.7,2.3-3.8,2.9-6.3H916.2z"/>
			<path d="M1007.8,704.8L958.3,597v85.6c0,4.4,0.3,7.9,0.9,10.4c0.6,2.5,1.5,4.3,2.7,5.6c1.2,1.2,2.6,2,4.3,2.3s3.6,0.4,5.8,0.4
				h4.5v3.5H932v-3.5h4.5c2.3,0,4.2-0.2,5.9-0.5c1.7-0.3,3.1-1.1,4.2-2.4s2-3.1,2.5-5.6c0.6-2.5,0.8-5.9,0.8-10.1v-83.8
				c0-3-0.1-5.7-0.4-8c-0.3-2.3-1-4.3-2.2-5.9c-1.2-1.6-3-2.8-5.4-3.7c-2.4-0.8-5.8-1.3-10.1-1.3v-3.5h36.2l46.5,100.3l45.7-100.3
				h36.2v3.5h-4.4c-2.4,0-4.4,0.2-6.1,0.6c-1.7,0.4-3.1,1.2-4.2,2.5s-2,3.2-2.5,5.6c-0.6,2.5-0.8,5.9-0.8,10.1v83.8
				c0,4.4,0.3,7.9,0.9,10.4c0.6,2.5,1.5,4.3,2.7,5.6c1.2,1.2,2.6,2,4.3,2.3s3.6,0.4,5.8,0.4h4.4v3.5h-54.4v-3.5h4.5
				c2.3,0,4.2-0.2,5.9-0.6c1.7-0.4,3.1-1.2,4.3-2.5c1.2-1.3,2-3.1,2.6-5.6c0.6-2.4,0.8-5.8,0.8-10V597l-49.4,107.7H1007.8z"/>
		</g>
		<circle class="st12" cx="635.4" cy="568" r="512.7"/>
	</g>
	<g>
		<g>
			<path d="M394.2,1230.9v18.4h-1.3c-0.6-4.9-2.1-8.4-4.3-10.5c-2.3-2-5.6-3.1-10-3.1h-11v59.8c0,2.6,0.2,4.7,0.6,6.2
				c0.4,1.5,0.9,2.7,1.6,3.4c0.7,0.7,1.5,1.2,2.6,1.4c1,0.2,2.2,0.3,3.6,0.3h2.7v2.2h-33.1v-2.2h2.8c1.4,0,2.6-0.1,3.6-0.3
				c1-0.2,1.9-0.7,2.6-1.5c0.7-0.8,1.2-1.9,1.6-3.4c0.4-1.5,0.6-3.5,0.6-6.1v-59.8h-9.4c-2.4,0-4.4,0.2-6.2,0.6
				c-1.8,0.4-3.4,1.1-4.7,2.1c-1.3,1-2.4,2.4-3.1,4.1c-0.8,1.8-1.2,4-1.4,6.8h-2.2v-18.4H394.2z"/>
			<path d="M422.2,1267.2h36.3v-22.4c0-1.8,0-3.3-0.1-4.5c-0.1-1.2-0.2-2.1-0.4-2.9c-0.2-0.7-0.6-1.3-1-1.8c-0.4-0.4-1-0.8-1.7-1.2
				c-1.6-0.9-3.4-1.4-5.2-1.4h-2.8v-2.2h33.5v2.2H478c-0.7,0-1.5,0.1-2.4,0.3c-0.8,0.2-1.6,0.4-2.3,0.8c-0.7,0.3-1.4,0.8-1.9,1.3
				c-0.6,0.5-1,1.1-1.2,1.8c-0.4,1.2-0.6,3.8-0.6,7.7v50.4c0,1.8,0,3.3,0.1,4.5c0.1,1.1,0.2,2.1,0.4,2.8c0.2,0.7,0.5,1.3,0.9,1.8
				c0.4,0.4,0.9,0.8,1.6,1.2c1.6,0.9,3.4,1.4,5.3,1.4h2.8v2.2h-33.5v-2.2h2.8c1.3,0,2.5-0.1,3.5-0.3c1-0.2,1.9-0.7,2.7-1.5
				c0.7-0.8,1.3-1.9,1.7-3.5c0.4-1.6,0.6-3.7,0.6-6.4v-23.8h-36.3v23.8c0,1.8,0,3.3,0.1,4.5c0.1,1.1,0.2,2.1,0.4,2.8
				c0.2,0.7,0.6,1.3,1,1.8c0.4,0.4,1,0.8,1.7,1.2c1.6,0.9,3.4,1.4,5.2,1.4h2.8v2.2h-33.5v-2.2h2.8c3.2,0,5.5-0.9,7-2.8
				c0.9-1.1,1.4-4.1,1.4-8.9v-50.4c0-1.9,0-3.4-0.1-4.6c-0.1-1.2-0.2-2.1-0.4-2.8c-0.2-0.7-0.5-1.3-0.9-1.7
				c-0.4-0.4-0.9-0.8-1.6-1.2c-1.6-0.9-3.4-1.4-5.2-1.4h-2.8v-2.2h33.5v2.2h-2.8c-0.7,0-1.4,0.1-2.3,0.3c-0.8,0.2-1.6,0.4-2.3,0.8
				c-0.7,0.3-1.4,0.8-1.9,1.3c-0.6,0.5-1,1.1-1.2,1.8c-0.5,1.4-0.7,3.9-0.7,7.7V1267.2z"/>
			<path d="M519.6,1306.9v2.2h-33.5v-2.2h2.8c1.4,0,2.6-0.1,3.7-0.3c1.1-0.2,1.9-0.7,2.6-1.5c0.7-0.8,1.2-1.9,1.6-3.5
				c0.4-1.6,0.6-3.7,0.6-6.4v-50.5c0-1.8,0-3.3-0.1-4.4c-0.1-1.2-0.2-2.1-0.4-2.9c-0.2-0.7-0.5-1.3-0.9-1.8
				c-0.4-0.4-0.9-0.8-1.6-1.2c-1.7-0.9-3.5-1.4-5.3-1.4h-2.8v-2.2h33.5v2.2h-2.8c-1.4,0-2.6,0.1-3.7,0.3c-1.1,0.2-1.9,0.7-2.6,1.5
				c-0.7,0.8-1.2,2-1.6,3.5c-0.4,1.6-0.6,3.7-0.6,6.3v50.5c0,1.8,0,3.3,0.1,4.5c0.1,1.1,0.2,2.1,0.4,2.8c0.2,0.7,0.6,1.3,1,1.8
				c0.4,0.4,1,0.8,1.7,1.2c1.6,0.9,3.4,1.4,5.2,1.4H519.6z"/>
			<path d="M593.5,1229.1l1.8,26.6h-1.8c-2.4-8-5.8-13.7-10.2-17.2c-4.4-3.5-9.7-5.2-15.9-5.2c-4,0-7.7,0.8-11.1,2.3
				c-3.4,1.5-6.3,3.9-8.7,7c-2.4,3.2-4.3,7.1-5.7,11.9c-1.4,4.8-2.1,10.4-2.1,16.9c0,5.2,0.6,10,1.9,14.2c1.3,4.2,3.2,7.9,5.7,10.9
				c2.5,3,5.5,5.3,9.2,7c3.6,1.6,7.8,2.5,12.5,2.5c4.9,0,9.4-1.1,13.4-3.3c3.8-2,8.1-6.3,12.8-12.9l1.8,1.1c-4,6.9-8.5,12-13.7,15.3
				c-5.2,3.2-11.4,4.9-18.6,4.9c-5.6,0-10.7-1-15.3-2.9c-4.6-1.9-8.6-4.7-12-8.2c-3.4-3.5-6-7.7-7.9-12.6c-1.9-4.8-2.8-10.2-2.8-16
				c0-7.9,1.7-15,5.2-21.5c3.4-6.5,8.2-11.6,14.4-15.1c6.2-3.6,12.9-5.4,20.1-5.4c5.7,0,11.2,1.4,16.7,4.1c1.6,0.9,2.8,1.3,3.4,1.3
				c1.3,0,2.3-0.5,3.1-1.5c0.8-1,1.4-2.3,1.8-3.9H593.5z"/>
			<path d="M636.5,1265.7l28.8,28.6c2.4,2.4,4.6,4.4,6.5,6c1.9,1.6,3.8,2.8,5.5,3.8c1.7,0.9,3.4,1.6,5,2.1c1.6,0.4,3.3,0.7,5,0.7
				v2.2h-37.2v-2.2c2.5,0,4.1-0.4,5-1.3c0.9-0.9,1.3-1.8,1.3-2.8c0-0.4,0-0.8-0.1-1.1c-0.1-0.3-0.2-0.7-0.5-1.1
				c-0.3-0.4-0.7-0.9-1.2-1.5c-0.6-0.6-1.3-1.4-2.3-2.4l-27-26.8v25.2c0,1.8,0,3.3,0.1,4.5c0.1,1.1,0.2,2.1,0.4,2.8
				c0.2,0.7,0.5,1.3,0.9,1.8c0.4,0.4,1,0.8,1.7,1.2c1.7,0.9,3.4,1.4,5.2,1.4h2.7v2.2h-33.3v-2.2h2.8c3.2,0,5.6-0.9,7.1-2.8
				c0.9-1.3,1.4-4.2,1.4-8.9v-50.5c0-1.7,0-3.2-0.1-4.3c-0.1-1.2-0.2-2.1-0.4-2.9c-0.2-0.7-0.5-1.4-0.9-1.8
				c-0.4-0.5-0.9-0.9-1.6-1.2c-1.8-0.9-3.6-1.4-5.3-1.4h-2.8v-2.2h33.3v2.2h-2.7c-1.4,0-2.9,0.3-4.5,0.9c-1.6,0.6-2.7,1.7-3.2,3.2
				c-0.5,1.3-0.7,3.8-0.7,7.6v23.9c0.1-0.1,0.4-0.4,1.2-1.1c0.7-0.7,1.5-1.4,2.4-2.2c0.9-0.8,1.7-1.6,2.6-2.4
				c0.8-0.8,1.4-1.3,1.8-1.6c4.2-3.8,7.7-7.1,10.6-9.9c2.9-2.8,5.2-5.1,6.9-7c1.7-1.9,3-3.5,3.7-4.8c0.7-1.3,1.1-2.4,1.1-3.2
				c0-0.9-0.4-1.7-1.2-2.4c-0.8-0.7-2.2-1-4.1-1h-1.8v-2.2h28.7v2.2c-1,0.1-2.1,0.2-3.1,0.3c-1.1,0.1-2.2,0.5-3.5,1.1
				c-1.3,0.6-2.8,1.5-4.4,2.7c-1.7,1.2-3.6,2.9-5.9,5c-0.5,0.4-1.6,1.6-3.5,3.6c-1.9,2-4.6,4.7-8.2,8.2L636.5,1265.7z"/>
			<path d="M684.9,1230.9h21.2l47.8,58.7v-45.1c0-2.6-0.2-4.7-0.6-6.3c-0.4-1.5-0.9-2.7-1.6-3.4c-0.7-0.7-1.6-1.2-2.6-1.4
				c-1-0.2-2.2-0.3-3.5-0.3h-2.8v-2.2h27.3v2.2h-2.8c-1.4,0-2.6,0.1-3.6,0.3c-1,0.2-1.9,0.7-2.6,1.5c-0.7,0.8-1.2,2-1.5,3.4
				c-0.3,1.5-0.5,3.5-0.5,6.1v65.9h-2.1l-51.5-63v48.2c0,2.7,0.2,4.8,0.6,6.3c0.4,1.5,0.9,2.7,1.6,3.4c0.7,0.7,1.5,1.2,2.6,1.4
				c1,0.2,2.2,0.3,3.5,0.3h2.8v2.2h-27.2v-2.2h2.8c1.4,0,2.6-0.1,3.6-0.3c1-0.2,1.9-0.7,2.6-1.5c0.7-0.8,1.2-1.9,1.6-3.4
				c0.3-1.5,0.5-3.5,0.5-6.1v-54.4c-1.1-1.4-2.1-2.5-2.9-3.3c-0.8-0.8-1.5-1.5-2.2-2c-0.7-0.5-1.4-0.9-2.2-1.3
				c-0.8-0.3-1.8-0.7-3-1.1c-1.1-0.3-2.8-0.5-5.1-0.5V1230.9z"/>
			<path d="M796.4,1235.2v30.9h17.1c2.5,0,4.6-0.2,6.1-0.7c1.5-0.5,2.8-1.1,3.7-2.1c0.9-0.9,1.5-2.1,1.8-3.5
				c0.3-1.4,0.6-3.1,0.7-5.1h2.2v27.2h-2.2c-0.3-2.2-0.6-4.1-1-5.6c-0.4-1.5-1-2.7-1.8-3.6c-0.8-0.9-2-1.5-3.5-1.9
				c-1.5-0.4-3.5-0.6-6-0.6h-17.1v25.8c0,2,0,3.5,0.1,4.6c0.1,1.1,0.3,2,0.7,2.6c0.4,0.6,1,1,1.9,1.2c0.9,0.2,2.1,0.3,3.8,0.3h13.2
				c2.2,0,4.1-0.1,5.7-0.2c1.5-0.1,2.9-0.3,4-0.7c1.1-0.3,2.1-0.8,3-1.4c0.9-0.6,1.8-1.4,2.8-2.3c2.3-2.2,4.7-5.8,7.3-10.8h2.3
				l-6.8,19.6h-60.2v-2.2h2.8c0.7,0,1.5-0.1,2.3-0.3c0.8-0.2,1.6-0.4,2.3-0.7c0.7-0.3,1.4-0.7,1.9-1.2c0.6-0.5,1-1.1,1.2-1.8
				c0.5-1.3,0.7-3.8,0.7-7.6v-50.8c0-5-0.5-8.1-1.5-9.2c-1.4-1.5-3.7-2.3-7-2.3h-2.8v-2.2h60.2v17.1h-1.4c-0.6-2.8-1.2-5.1-1.8-6.8
				c-0.7-1.7-1.5-3-2.6-3.9c-1.1-0.9-2.5-1.5-4.2-1.8c-1.7-0.3-3.9-0.4-6.5-0.4H796.4z"/>
			<path d="M897.9,1229.1v27h-2.2c-1-7.3-3.4-12.8-7.1-16.7c-3.8-3.8-8.6-5.8-14.5-5.8c-2,0-3.8,0.3-5.5,1c-1.7,0.7-3.1,1.6-4.4,2.7
				c-1.3,1.1-2.2,2.4-2.9,3.8c-0.7,1.4-1,2.9-1,4.5c0,1.4,0.3,2.8,0.9,4.1c0.6,1.3,2.4,3.3,5.3,6.1c5,3.2,9.4,5.8,13.3,7.8
				c3.7,2,8.6,5,14.9,9.1c2.7,2.1,4.8,4.5,6.2,7.4c1.4,2.8,2.2,5.8,2.2,8.9c0,2.9-0.6,5.7-1.8,8.3c-1.2,2.6-2.9,4.9-5,6.9
				c-2.2,2-4.7,3.6-7.8,4.7c-3,1.2-6.4,1.8-10,1.8c-2.3,0-4.4-0.2-6.4-0.5c-0.3-0.1-1.2-0.3-2.7-0.7s-3-0.9-4.7-1.3
				c-1.7-0.5-3.2-0.9-4.6-1.3c-1.4-0.4-2.3-0.6-2.5-0.6c-1,0-1.7,0.3-2.3,0.9c-0.5,0.6-1,1.8-1.2,3.6h-2.2V1284h2.2
				c1,5.5,2.4,9.7,4,12.6c0.8,1.4,1.9,2.7,3.2,3.8c1.3,1.2,2.9,2.2,4.6,3.1c1.7,0.9,3.5,1.6,5.5,2.1c1.9,0.5,3.9,0.7,5.9,0.7
				c2.4,0,4.6-0.3,6.5-1c1.9-0.7,3.6-1.6,4.9-2.8c1.3-1.2,2.4-2.5,3.1-4.1c0.7-1.5,1.1-3.2,1.1-4.9c0-1.9-0.5-3.9-1.6-5.8
				c-1.1-1.9-2.9-3.9-5.4-5.8c-2.5-1.5-5.4-3.2-8.8-5.2c-6.5-3.7-12.2-7.3-17.3-10.8c-2.8-2.2-4.9-4.7-6.4-7.4
				c-1.5-2.7-2.2-5.6-2.2-8.9c0-2.8,0.6-5.4,1.7-7.9c1.1-2.5,2.7-4.7,4.8-6.6c2-1.9,4.5-3.4,7.3-4.5c2.8-1.1,5.8-1.6,9.1-1.6
				c4.1,0,8.5,1,13.2,3c1.1,0.5,2,0.8,2.8,1.1c0.7,0.3,1.3,0.4,1.8,0.3c1,0,1.9-0.3,2.5-0.9c0.6-0.6,1.1-1.8,1.5-3.6H897.9z"/>
			<path d="M963.5,1229.1v27h-2.2c-1-7.3-3.4-12.8-7.1-16.7c-3.8-3.8-8.6-5.8-14.5-5.8c-2,0-3.8,0.3-5.5,1c-1.7,0.7-3.1,1.6-4.4,2.7
				c-1.3,1.1-2.2,2.4-2.9,3.8c-0.7,1.4-1,2.9-1,4.5c0,1.4,0.3,2.8,0.9,4.1c0.6,1.3,2.4,3.3,5.3,6.1c5,3.2,9.4,5.8,13.3,7.8
				c3.7,2,8.6,5,14.9,9.1c2.7,2.1,4.8,4.5,6.2,7.4c1.4,2.8,2.2,5.8,2.2,8.9c0,2.9-0.6,5.7-1.8,8.3c-1.2,2.6-2.9,4.9-5,6.9
				c-2.2,2-4.7,3.6-7.8,4.7c-3,1.2-6.4,1.8-10,1.8c-2.3,0-4.4-0.2-6.4-0.5c-0.3-0.1-1.2-0.3-2.7-0.7c-1.5-0.4-3-0.9-4.7-1.3
				c-1.7-0.5-3.2-0.9-4.6-1.3c-1.4-0.4-2.3-0.6-2.5-0.6c-1,0-1.7,0.3-2.3,0.9c-0.5,0.6-1,1.8-1.2,3.6h-2.2V1284h2.2
				c1,5.5,2.4,9.7,4,12.6c0.8,1.4,1.9,2.7,3.2,3.8c1.3,1.2,2.9,2.2,4.6,3.1c1.7,0.9,3.5,1.6,5.5,2.1c1.9,0.5,3.9,0.7,5.9,0.7
				c2.4,0,4.6-0.3,6.5-1c1.9-0.7,3.6-1.6,4.9-2.8c1.3-1.2,2.4-2.5,3.1-4.1c0.7-1.5,1.1-3.2,1.1-4.9c0-1.9-0.5-3.9-1.6-5.8
				c-1.1-1.9-2.9-3.9-5.4-5.8c-2.5-1.5-5.4-3.2-8.8-5.2c-6.5-3.7-12.2-7.3-17.3-10.8c-2.8-2.2-4.9-4.7-6.4-7.4
				c-1.5-2.7-2.2-5.6-2.2-8.9c0-2.8,0.6-5.4,1.7-7.9c1.1-2.5,2.7-4.7,4.8-6.6c2-1.9,4.5-3.4,7.3-4.5c2.8-1.1,5.8-1.6,9.1-1.6
				c4.1,0,8.5,1,13.2,3c1.1,0.5,2,0.8,2.8,1.1c0.7,0.3,1.3,0.4,1.8,0.3c1,0,1.9-0.3,2.5-0.9c0.6-0.6,1.1-1.8,1.5-3.6H963.5z"/>
		</g>
		<g>
			<path d="M369,1349.5c5,0,9.7,1,14.3,3.1c4.5,2.1,8.5,4.9,12,8.5s6.2,7.9,8.2,12.8c2,4.9,3.1,10.2,3.1,16c0,5.9-1,11.4-3.1,16.4
				c-2,5-4.8,9.4-8.3,13.1c-3.5,3.7-7.5,6.6-12.2,8.7c-4.7,2.1-9.6,3.1-14.9,3.1c-5.3,0-10.3-1-15-3c-4.6-2-8.7-4.8-12.1-8.5
				c-3.4-3.6-6.1-8-8.1-13c-2-5-3-10.6-3-16.7c0-5.6,1-10.9,3-15.8c2-4.9,4.7-9.2,8.2-12.9c3.5-3.6,7.6-6.5,12.3-8.6
				C358.2,1350.6,363.4,1349.5,369,1349.5z M367.9,1353.7c-4,0-7.5,0.8-10.5,2.5c-3.1,1.7-5.6,4.1-7.7,7.2
				c-2.1,3.1-3.7,6.9-4.8,11.4c-1.1,4.4-1.6,9.4-1.6,15c0,5.5,0.5,10.5,1.6,15.1c1.1,4.6,2.6,8.5,4.7,11.8c2.1,3.3,4.7,5.8,7.8,7.7
				c3.1,1.8,6.7,2.7,10.7,2.7c3.6,0,7-0.7,10-2.1c3.1-1.4,5.7-3.5,8-6.4c2.3-2.9,4.1-6.6,5.4-11.1c1.3-4.5,1.9-9.9,1.9-16.1
				c0-5.9-0.5-11.2-1.6-15.9c-1.1-4.7-2.7-8.6-4.8-11.9c-2.2-3.2-4.8-5.7-8-7.4C375.8,1354.6,372.1,1353.7,367.9,1353.7z"/>
			<path d="M435.2,1355.5v30.7h14.2c1.7,0,3.1-0.2,4.3-0.5c1.2-0.3,2.2-0.9,3-1.7c0.8-0.8,1.4-1.9,1.9-3.3c0.5-1.4,0.8-3.1,1.1-5.2
				h2.2v26.4h-2.2c-0.1-1.9-0.3-3.6-0.6-5c-0.3-1.4-0.9-2.5-1.7-3.4c-0.8-0.9-1.8-1.5-3.1-1.9c-1.3-0.4-2.9-0.6-4.9-0.6h-14.2v24.5
				c0,1.8,0,3.3,0.1,4.5c0.1,1.1,0.2,2.1,0.4,2.8c0.2,0.7,0.6,1.3,1,1.8c0.4,0.4,1,0.8,1.7,1.2c1.6,0.9,3.4,1.4,5.2,1.4h2.8v2.2H413
				v-2.2h2.8c1.4,0,2.6-0.1,3.7-0.3c1.1-0.2,1.9-0.7,2.6-1.5c0.7-0.8,1.2-1.9,1.6-3.5c0.4-1.6,0.6-3.7,0.6-6.4v-50.5
				c0-1.8,0-3.3-0.1-4.4c-0.1-1.2-0.2-2.1-0.4-2.9c-0.2-0.7-0.5-1.3-0.9-1.8c-0.4-0.5-0.9-0.9-1.6-1.2c-0.9-0.5-1.7-0.8-2.6-1
				c-0.9-0.2-1.8-0.3-2.8-0.3H413v-2.2h58.2v17.2h-1.3c-0.7-2.8-1.6-5.1-2.5-6.8c-0.9-1.7-2.1-3-3.4-3.9c-1.3-0.9-2.9-1.5-4.8-1.8
				c-1.8-0.3-4-0.4-6.6-0.4H435.2z"/>
			<path d="M520.1,1359l19-9.3h1.9v66c0,2.3,0,4.1,0.1,5.4c0.1,1.3,0.2,2.3,0.4,3c0.2,0.7,0.5,1.2,0.9,1.5c0.3,0.3,0.8,0.6,1.5,0.9
				c1.1,0.6,3.5,0.9,7.1,0.9v2.2h-29.4v-2.2c1.9,0,3.4-0.1,4.6-0.3c1.1-0.2,2-0.4,2.7-0.6c0.6-0.3,1.1-0.6,1.4-1
				c0.3-0.4,0.6-0.8,0.7-1.3c0.4-0.9,0.6-3.7,0.6-8.4v-42.2c0-3.3-0.1-5.9-0.2-7.9c-0.1-1.9-0.4-3.3-0.7-4.3
				c-0.3-0.9-0.8-1.5-1.4-1.8c-0.6-0.3-1.3-0.4-2.2-0.4c-1.6,0-3.6,0.5-5.9,1.5L520.1,1359z"/>
			<path d="M580,1418.2c1.7,0,3.2,0.6,4.5,1.8c1.3,1.2,1.9,2.7,1.9,4.5c0,1.8-0.6,3.3-1.9,4.6c-1.3,1.3-2.8,1.9-4.5,1.9
				c-1.8,0-3.3-0.6-4.6-1.9c-1.3-1.3-1.9-2.8-1.9-4.6c0-1.8,0.6-3.4,1.9-4.6C576.7,1418.8,578.2,1418.2,580,1418.2z"/>
			<path d="M646,1351.2l-4.6,9.8h-23.5l-5.2,10.5c4.6,0.7,8.9,1.9,12.9,3.7c3.9,1.8,7.3,3.9,10.1,6.5c2.8,2.6,5,5.5,6.6,8.9
				c1.6,3.4,2.4,7,2.4,10.8c0,4.8-1,9-3,12.6c-2,3.6-4.5,6.7-7.6,9.2c-3.1,2.5-6.4,4.4-10,5.7c-3.6,1.3-7,1.9-10.2,1.9
				c-2.4,0-4.5-0.2-6.2-0.6c-1.7-0.4-3.1-1-4.1-1.8c-1.1-0.7-1.8-1.6-2.4-2.5c-0.5-0.9-0.8-1.8-0.8-2.8c0-1.1,0.4-2,1.3-2.9
				c0.9-0.8,2-1.2,3.4-1.2c0.5,0,1,0,1.4,0.1c0.4,0.1,0.8,0.2,1.2,0.4c0.4,0.2,0.9,0.5,1.5,0.9c0.6,0.4,1.4,0.9,2.3,1.5
				c1.4,1,2.9,1.8,4.3,2.3c1.5,0.5,2.9,0.7,4.4,0.7c2.2,0,4.4-0.5,6.4-1.4c2-0.9,3.8-2.2,5.4-3.7c1.5-1.6,2.8-3.4,3.7-5.5
				c0.9-2.1,1.4-4.4,1.4-6.9c0-2.4-0.4-4.6-1.2-6.9c-0.8-2.2-2-4.3-3.4-6.3c-1.5-2-3.3-3.8-5.4-5.4c-2.1-1.6-4.5-3-7.1-4.1
				c-2.1-0.9-4.6-1.6-7.4-2c-2.8-0.4-6.1-0.7-9.7-0.9l15-30.5H646z"/>
			<path d="M754.3,1349.5l1.8,26.6h-1.8c-2.4-8-5.8-13.7-10.2-17.2c-4.4-3.5-9.7-5.2-15.9-5.2c-4,0-7.7,0.8-11.1,2.3
				c-3.4,1.5-6.3,3.9-8.7,7c-2.4,3.2-4.3,7.1-5.7,11.9c-1.4,4.8-2.1,10.4-2.1,16.9c0,5.2,0.6,10,1.9,14.2c1.3,4.2,3.2,7.9,5.7,10.9
				c2.5,3,5.5,5.3,9.2,7c3.6,1.6,7.8,2.5,12.5,2.5c4.9,0,9.4-1.1,13.4-3.3c3.8-2,8.1-6.3,12.8-12.9l1.8,1.1c-4,6.9-8.5,12-13.7,15.3
				c-5.2,3.2-11.4,4.9-18.6,4.9c-5.6,0-10.7-1-15.3-2.9c-4.6-1.9-8.6-4.7-12-8.2c-3.4-3.5-6-7.7-7.9-12.6c-1.9-4.8-2.8-10.2-2.8-16
				c0-7.9,1.7-15,5.2-21.5c3.4-6.5,8.2-11.6,14.4-15.1c6.2-3.6,12.9-5.4,20.1-5.4c5.7,0,11.2,1.4,16.7,4.1c1.6,0.9,2.8,1.3,3.4,1.3
				c1.3,0,2.3-0.5,3.1-1.5c0.8-1,1.4-2.3,1.8-3.9H754.3z"/>
			<path d="M810.2,1429.4l-30.2-65.7v52.2c0,2.7,0.2,4.8,0.6,6.3c0.4,1.5,0.9,2.7,1.6,3.4c0.7,0.7,1.6,1.2,2.6,1.4
				c1,0.2,2.2,0.3,3.5,0.3h2.8v2.2h-27.2v-2.2h2.8c1.4,0,2.6-0.1,3.6-0.3c1-0.2,1.9-0.7,2.6-1.5c0.7-0.8,1.2-1.9,1.5-3.4
				c0.3-1.5,0.5-3.6,0.5-6.2v-51.1c0-1.8-0.1-3.5-0.3-4.9c-0.2-1.4-0.6-2.6-1.3-3.6c-0.7-1-1.8-1.7-3.3-2.2s-3.5-0.8-6.2-0.8v-2.2
				H786l28.4,61.2l27.9-61.2h22.1v2.2h-2.7c-1.4,0-2.7,0.1-3.7,0.3c-1,0.2-1.9,0.7-2.6,1.5c-0.7,0.8-1.2,1.9-1.5,3.4
				c-0.3,1.5-0.5,3.6-0.5,6.2v51.1c0,2.7,0.2,4.8,0.6,6.3c0.4,1.5,0.9,2.7,1.6,3.4c0.7,0.7,1.6,1.2,2.6,1.4c1,0.2,2.2,0.3,3.5,0.3
				h2.7v2.2h-33.2v-2.2h2.8c1.4,0,2.6-0.1,3.6-0.3c1-0.2,1.9-0.7,2.6-1.5c0.7-0.8,1.2-1.9,1.6-3.4c0.3-1.5,0.5-3.5,0.5-6.1v-52.2
				l-30.1,65.7H810.2z"/>
		</g>
		<g>
			<path d="M440.3,1477.1v2.2c-1.5,0-2.8,0.1-3.8,0.4c-1,0.3-1.9,0.9-2.8,1.9c-0.9,1-1.7,2.5-2.6,4.5s-1.9,4.6-3,8l-21.8,63.1H404
				l-17.8-50l-17.6,50h-2.2l-23.2-64.9c-0.9-2.4-1.5-4.3-2.1-5.7c-0.5-1.4-0.9-2.3-1.2-2.8c-0.8-1.5-1.8-2.6-3.1-3.3
				c-1.3-0.7-3.1-1.1-5.4-1.1v-2.2h28.9v2.2h-1.4c-2,0-3.6,0.5-4.6,1.4c-1.1,0.9-1.6,2-1.6,3.4c0,1.4,0.9,4.5,2.6,9.3l15.4,43.9
				l12.9-37.3l-4.1-11.8c-0.6-1.4-1.3-2.7-1.9-3.8c-0.6-1.1-1.3-2-2.2-2.8c-0.8-0.7-1.7-1.3-2.8-1.7c-1.1-0.4-2.4-0.6-4-0.6v-2.2
				h30.4v2.2h-2.1c-2.2,0-3.8,0.5-4.7,1.4c-1,0.9-1.5,2.2-1.5,3.8c0,2,0.9,5.4,2.6,10.2l15,42.5l14.9-43.1c0.8-2.4,1.4-4.4,1.9-6
				c0.5-1.6,0.7-2.9,0.7-3.9c0-1.8-0.8-3.1-2.4-3.8c-1.6-0.7-3.7-1.1-6.3-1.1v-2.2H440.3z"/>
			<path d="M477.6,1553.1v2.2h-33.5v-2.2h2.8c1.4,0,2.6-0.1,3.7-0.3c1.1-0.2,1.9-0.7,2.6-1.5c0.7-0.8,1.2-1.9,1.6-3.5
				c0.4-1.6,0.6-3.7,0.6-6.4v-50.5c0-1.8,0-3.3-0.1-4.4c-0.1-1.2-0.2-2.1-0.4-2.9c-0.2-0.7-0.5-1.3-0.9-1.8
				c-0.4-0.4-0.9-0.8-1.6-1.2c-1.7-0.9-3.5-1.4-5.3-1.4h-2.8v-2.2h33.5v2.2h-2.8c-1.4,0-2.6,0.1-3.7,0.3c-1.1,0.2-1.9,0.7-2.6,1.5
				c-0.7,0.8-1.2,2-1.6,3.5c-0.4,1.6-0.6,3.7-0.6,6.3v50.5c0,1.8,0,3.3,0.1,4.5c0.1,1.1,0.2,2.1,0.4,2.8c0.2,0.7,0.6,1.3,1,1.8
				c0.4,0.4,1,0.8,1.7,1.2c1.6,0.9,3.4,1.4,5.2,1.4H477.6z"/>
			<path d="M548.8,1477.1v18.4h-1.3c-0.6-4.9-2.1-8.4-4.3-10.5c-2.3-2-5.6-3.1-10-3.1h-11v59.8c0,2.6,0.2,4.7,0.6,6.2
				c0.4,1.5,0.9,2.7,1.6,3.4c0.7,0.7,1.5,1.2,2.6,1.4c1,0.2,2.2,0.3,3.6,0.3h2.7v2.2h-33.1v-2.2h2.8c1.4,0,2.6-0.1,3.6-0.3
				c1-0.2,1.9-0.7,2.6-1.5c0.7-0.8,1.2-1.9,1.6-3.4c0.4-1.5,0.6-3.5,0.6-6.1V1482h-9.4c-2.4,0-4.4,0.2-6.2,0.6
				c-1.8,0.4-3.4,1.1-4.7,2.1c-1.3,1-2.4,2.4-3.1,4.1c-0.8,1.8-1.2,4-1.4,6.8h-2.2v-18.4H548.8z"/>
			<path d="M576.9,1513.4h36.3V1491c0-1.8,0-3.3-0.1-4.5c-0.1-1.2-0.2-2.1-0.4-2.9c-0.2-0.7-0.6-1.3-1-1.8s-1-0.8-1.7-1.2
				c-1.6-0.9-3.4-1.4-5.2-1.4H602v-2.2h33.5v2.2h-2.8c-0.7,0-1.5,0.1-2.4,0.3c-0.8,0.2-1.6,0.4-2.3,0.8c-0.7,0.3-1.4,0.8-1.9,1.3
				c-0.6,0.5-1,1.1-1.2,1.8c-0.4,1.2-0.6,3.8-0.6,7.7v50.4c0,1.8,0,3.3,0.1,4.5c0.1,1.1,0.2,2.1,0.4,2.8c0.2,0.7,0.5,1.3,0.9,1.8
				c0.4,0.4,0.9,0.8,1.6,1.2c1.6,0.9,3.4,1.4,5.3,1.4h2.8v2.2H602v-2.2h2.8c1.3,0,2.5-0.1,3.5-0.3c1-0.2,1.9-0.7,2.7-1.5
				c0.7-0.8,1.3-1.9,1.7-3.5c0.4-1.6,0.6-3.7,0.6-6.4v-23.8h-36.3v23.8c0,1.8,0,3.3,0.1,4.5c0.1,1.1,0.2,2.1,0.4,2.8
				c0.2,0.7,0.6,1.3,1,1.8c0.4,0.4,1,0.8,1.7,1.2c1.6,0.9,3.4,1.4,5.2,1.4h2.8v2.2h-33.5v-2.2h2.8c3.2,0,5.5-0.9,7-2.8
				c0.9-1.1,1.4-4.1,1.4-8.9V1491c0-1.9,0-3.4-0.1-4.6c-0.1-1.2-0.2-2.1-0.4-2.8c-0.2-0.7-0.5-1.3-0.9-1.7c-0.4-0.4-0.9-0.8-1.6-1.2
				c-1.6-0.9-3.4-1.4-5.2-1.4h-2.8v-2.2h33.5v2.2h-2.8c-0.7,0-1.4,0.1-2.3,0.3c-0.8,0.2-1.6,0.4-2.3,0.8c-0.7,0.3-1.4,0.8-1.9,1.3
				c-0.6,0.5-1,1.1-1.2,1.8c-0.5,1.4-0.7,3.9-0.7,7.7V1513.4z"/>
		</g>
		<g>
			<path d="M374.4,1678.1l-30.2-65.7v52.2c0,2.7,0.2,4.8,0.6,6.3c0.4,1.5,0.9,2.7,1.6,3.4c0.7,0.7,1.6,1.2,2.6,1.4
				c1,0.2,2.2,0.3,3.5,0.3h2.8v2.2h-27.2v-2.2h2.8c1.4,0,2.6-0.1,3.6-0.3c1-0.2,1.9-0.7,2.6-1.5c0.7-0.8,1.2-1.9,1.5-3.4
				c0.3-1.5,0.5-3.6,0.5-6.2v-51.1c0-1.8-0.1-3.5-0.3-4.9c-0.2-1.4-0.6-2.6-1.3-3.6c-0.7-1-1.8-1.7-3.3-2.2
				c-1.5-0.5-3.5-0.8-6.2-0.8v-2.2h22.1l28.4,61.2l27.9-61.2h22.1v2.2H426c-1.4,0-2.7,0.1-3.7,0.3c-1,0.2-1.9,0.7-2.6,1.5
				s-1.2,1.9-1.5,3.4c-0.3,1.5-0.5,3.6-0.5,6.2v51.1c0,2.7,0.2,4.8,0.6,6.3c0.4,1.5,0.9,2.7,1.6,3.4c0.7,0.7,1.6,1.2,2.6,1.4
				c1,0.2,2.2,0.3,3.5,0.3h2.7v2.2h-33.2v-2.2h2.8c1.4,0,2.6-0.1,3.6-0.3c1-0.2,1.9-0.7,2.6-1.5c0.7-0.8,1.2-1.9,1.6-3.4
				c0.3-1.5,0.5-3.5,0.5-6.1v-52.2l-30.1,65.7H374.4z"/>
			<path d="M485.1,1652h-30.3l-5.3,12.3c-1.3,3-1.9,5.3-1.9,6.8c0,0.6,0.1,1.2,0.3,1.7c0.2,0.5,0.6,1,1.3,1.4
				c0.7,0.4,1.6,0.8,2.8,1.1c1.2,0.3,2.7,0.5,4.7,0.6v2.2h-24.6v-2.2c1.9-0.3,3.5-0.7,4.7-1.3c1.2-0.6,2.2-1.4,3.1-2.4
				c0.9-1,1.6-2.3,2.4-3.9c0.7-1.6,1.6-3.6,2.6-5.9l27.5-64.3h2l27.2,64.9c1.1,2.7,2.1,4.9,3.1,6.5c0.9,1.6,1.9,2.9,2.9,3.8
				c1,0.9,2.1,1.5,3.3,1.9c1.2,0.3,2.6,0.5,4.3,0.6v2.2h-30.9v-2.2c3.1-0.1,5.2-0.6,6.3-1.5c1.1-0.9,1.7-2,1.7-3.2
				c-0.1-1.7-0.8-4.4-2.3-8.1L485.1,1652z M483.5,1647.7l-13.2-31.6l-13.6,31.6H483.5z"/>
			<path d="M571.6,1599.9v18.4h-1.3c-0.6-4.9-2.1-8.4-4.3-10.5c-2.3-2-5.6-3.1-10-3.1h-11v59.8c0,2.6,0.2,4.7,0.6,6.2
				c0.4,1.5,0.9,2.7,1.6,3.4c0.7,0.7,1.5,1.2,2.6,1.4c1,0.2,2.2,0.3,3.6,0.3h2.7v2.2h-33.1v-2.2h2.8c1.4,0,2.6-0.1,3.6-0.3
				c1-0.2,1.9-0.7,2.6-1.5c0.7-0.8,1.2-1.9,1.6-3.4c0.4-1.5,0.6-3.5,0.6-6.1v-59.8h-9.4c-2.4,0-4.4,0.2-6.2,0.6
				c-1.8,0.4-3.4,1.1-4.7,2.1c-1.3,1-2.4,2.4-3.1,4.1c-0.8,1.8-1.2,4-1.4,6.8h-2.2v-18.4H571.6z"/>
			<path d="M600.1,1604.2v30.9h17.1c2.5,0,4.6-0.2,6.1-0.7c1.5-0.5,2.8-1.1,3.7-2.1c0.9-0.9,1.5-2.1,1.8-3.5
				c0.3-1.4,0.6-3.1,0.7-5.1h2.2v27.2h-2.2c-0.3-2.2-0.6-4.1-1-5.6c-0.4-1.5-1-2.7-1.8-3.6c-0.8-0.9-2-1.5-3.5-1.9
				c-1.5-0.4-3.5-0.6-6-0.6h-17.1v25.8c0,2,0,3.5,0.1,4.6c0.1,1.1,0.3,2,0.7,2.6c0.4,0.6,1,1,1.9,1.2c0.9,0.2,2.1,0.3,3.8,0.3h13.2
				c2.2,0,4.1-0.1,5.7-0.2c1.5-0.1,2.9-0.3,4-0.7c1.1-0.3,2.1-0.8,3-1.4c0.9-0.6,1.8-1.4,2.8-2.3c2.3-2.2,4.7-5.8,7.3-10.8h2.3
				l-6.8,19.6h-60.2v-2.2h2.8c0.7,0,1.5-0.1,2.3-0.3c0.8-0.2,1.6-0.4,2.3-0.7c0.7-0.3,1.4-0.7,1.9-1.2c0.6-0.5,1-1.1,1.2-1.8
				c0.5-1.3,0.7-3.8,0.7-7.6v-50.8c0-5-0.5-8.1-1.5-9.2c-1.4-1.5-3.7-2.3-7-2.3h-2.8v-2.2H638v17.1h-1.4c-0.6-2.8-1.2-5.1-1.8-6.8
				c-0.7-1.7-1.5-3-2.6-3.9c-1.1-0.9-2.5-1.5-4.2-1.8c-1.7-0.3-3.9-0.4-6.5-0.4H600.1z"/>
			<path d="M727.2,1678.1h-20.8l-26.5-36.6c-1,0.1-1.8,0.1-2.6,0.1c-0.8,0-1.5,0-2.1,0c-0.5,0-1.1,0-1.6,0c-0.6,0-1.2-0.1-1.8-0.1
				v22.7c0,2.8,0.2,4.9,0.6,6.5c0.4,1.6,0.9,2.8,1.6,3.5c0.7,0.8,1.6,1.2,2.6,1.4c1,0.2,2.1,0.3,3.4,0.3h3.1v2.2h-33.5v-2.2h3
				c3.2,0,5.6-1.1,7.1-3.2c0.8-1.3,1.2-4.1,1.2-8.5v-50.5c0-4.8-0.5-7.9-1.6-9.1c-1.5-1.7-3.7-2.6-6.6-2.6h-3v-2.2h28.5
				c4.2,0,7.8,0.2,10.8,0.5c3,0.3,5.5,0.8,7.5,1.4c1.9,0.6,3.8,1.5,5.5,2.6s3.2,2.5,4.5,4c1.3,1.6,2.3,3.3,3.1,5.3
				c0.7,2,1.1,4,1.1,6.3c0,4.9-1.5,9.1-4.6,12.6c-3.1,3.5-7.9,6-14.5,7.5l16.1,22.4c1.9,2.6,3.6,4.7,5,6.4c1.5,1.7,2.9,3,4.4,4
				c1.5,1,3,1.7,4.6,2.2c1.6,0.5,3.6,0.8,5.8,1V1678.1z M671.7,1637.9c0.7,0,1.4,0,1.9,0c0.5,0,1,0,1.3,0c3.7,0,7-0.4,9.8-1.3
				c2.8-0.9,5.2-2.1,7.1-3.6c1.9-1.5,3.3-3.4,4.3-5.5c0.9-2.1,1.4-4.4,1.4-6.8c0-2.4-0.4-4.6-1.2-6.7c-0.8-2-2-3.8-3.4-5.2
				c-1.5-1.5-3.3-2.6-5.3-3.4c-2.1-0.8-4.3-1.2-6.8-1.2c-2.4,0-5.4,0.4-9,1.1V1637.9z"/>
			<path d="M762.6,1676v2.2h-33.5v-2.2h2.8c1.4,0,2.6-0.1,3.7-0.3c1.1-0.2,1.9-0.7,2.6-1.5c0.7-0.8,1.2-1.9,1.6-3.5
				c0.4-1.6,0.6-3.7,0.6-6.4v-50.5c0-1.8,0-3.3-0.1-4.4c-0.1-1.2-0.2-2.1-0.4-2.9c-0.2-0.7-0.5-1.3-0.9-1.8
				c-0.4-0.4-0.9-0.8-1.6-1.2c-1.7-0.9-3.5-1.4-5.3-1.4h-2.8v-2.2h33.5v2.2h-2.8c-1.4,0-2.6,0.1-3.7,0.3c-1.1,0.2-1.9,0.7-2.6,1.5
				c-0.7,0.8-1.2,2-1.6,3.5c-0.4,1.6-0.6,3.7-0.6,6.3v50.5c0,1.8,0,3.3,0.1,4.5c0.1,1.1,0.2,2.1,0.4,2.8c0.2,0.7,0.6,1.3,1,1.8
				c0.4,0.4,1,0.8,1.7,1.2c1.6,0.9,3.4,1.4,5.2,1.4H762.6z"/>
			<path d="M819.5,1652h-30.3l-5.3,12.3c-1.3,3-1.9,5.3-1.9,6.8c0,0.6,0.1,1.2,0.3,1.7c0.2,0.5,0.6,1,1.3,1.4
				c0.7,0.4,1.6,0.8,2.8,1.1c1.2,0.3,2.7,0.5,4.7,0.6v2.2h-24.6v-2.2c1.9-0.3,3.5-0.7,4.7-1.3c1.2-0.6,2.2-1.4,3.1-2.4
				c0.9-1,1.6-2.3,2.4-3.9c0.7-1.6,1.6-3.6,2.6-5.9l27.5-64.3h2l27.2,64.9c1.1,2.7,2.1,4.9,3.1,6.5c0.9,1.6,1.9,2.9,2.9,3.8
				c1,0.9,2.1,1.5,3.3,1.9c1.2,0.3,2.6,0.5,4.3,0.6v2.2h-30.9v-2.2c3.1-0.1,5.2-0.6,6.3-1.5c1.1-0.9,1.7-2,1.7-3.2
				c-0.1-1.7-0.8-4.4-2.3-8.1L819.5,1652z M817.9,1647.7l-13.2-31.6l-13.6,31.6H817.9z"/>
			<path d="M918.4,1656.5l1.9,0.3l-6.7,21.2H853v-2.2h3c3.2,0,5.6-1.1,7.1-3.2c0.8-1.3,1.2-4.1,1.2-8.5v-50.5c0-4.8-0.5-7.9-1.6-9.1
				c-1.5-1.7-3.7-2.6-6.6-2.6h-3v-2.2h35.4v2.2c-2.1,0-3.9,0.1-5.3,0.3c-1.4,0.2-2.6,0.5-3.5,0.9c-0.9,0.4-1.6,0.8-2.2,1.3
				c-0.5,0.5-0.9,1.1-1.3,1.7c-0.6,1.1-0.9,4.1-0.9,8.9v49.1c0,2.7,0.2,4.6,0.6,5.8c0.4,1.2,1.2,2,2.4,2.5c1,0.3,4,0.5,9,0.5h5.7
				c6,0,10.2-0.4,12.6-1.3c1.2-0.4,2.4-1,3.4-1.7c1.1-0.7,2.2-1.7,3.2-2.9c1-1.2,2-2.7,3-4.4C916.4,1661.1,917.4,1659,918.4,1656.5z
				"/>
		</g>
		<g>
			<path d="M374,1811.9l-30.2-65.7v52.2c0,2.7,0.2,4.8,0.6,6.3c0.4,1.5,0.9,2.7,1.6,3.4c0.7,0.7,1.6,1.2,2.6,1.4
				c1,0.2,2.2,0.3,3.5,0.3h2.8v2.2h-27.2v-2.2h2.8c1.4,0,2.6-0.1,3.6-0.3c1-0.2,1.9-0.7,2.6-1.5c0.7-0.8,1.2-1.9,1.5-3.4
				c0.3-1.5,0.5-3.6,0.5-6.2v-51.1c0-1.8-0.1-3.5-0.3-4.9c-0.2-1.4-0.6-2.6-1.3-3.6c-0.7-1-1.8-1.7-3.3-2.2
				c-1.5-0.5-3.5-0.8-6.2-0.8v-2.2h22.1l28.4,61.2l27.9-61.2h22.1v2.2h-2.7c-1.4,0-2.7,0.1-3.7,0.3c-1,0.2-1.9,0.7-2.6,1.5
				c-0.7,0.8-1.2,1.9-1.5,3.4c-0.3,1.5-0.5,3.6-0.5,6.2v51.1c0,2.7,0.2,4.8,0.6,6.3c0.4,1.5,0.9,2.7,1.6,3.4
				c0.7,0.7,1.6,1.2,2.6,1.4c1,0.2,2.2,0.3,3.5,0.3h2.7v2.2h-33.2v-2.2h2.8c1.4,0,2.6-0.1,3.6-0.3c1-0.2,1.9-0.7,2.6-1.5
				c0.7-0.8,1.2-1.9,1.6-3.4c0.3-1.5,0.5-3.5,0.5-6.1v-52.2l-30.1,65.7H374z"/>
			<path d="M455.3,1738v30.9h17.1c2.5,0,4.6-0.2,6.1-0.7c1.5-0.5,2.8-1.1,3.7-2.1c0.9-0.9,1.5-2.1,1.8-3.5c0.3-1.4,0.6-3.1,0.7-5.1
				h2.2v27.2h-2.2c-0.3-2.2-0.6-4.1-1-5.6c-0.4-1.5-1-2.7-1.8-3.6c-0.8-0.9-2-1.5-3.5-1.9c-1.5-0.4-3.5-0.6-6-0.6h-17.1v25.8
				c0,2,0,3.5,0.1,4.6c0.1,1.1,0.3,2,0.7,2.6c0.4,0.6,1,1,1.9,1.2c0.9,0.2,2.1,0.3,3.8,0.3H475c2.2,0,4.1-0.1,5.7-0.2
				c1.5-0.1,2.9-0.3,4-0.7c1.1-0.3,2.1-0.8,3-1.4s1.8-1.4,2.8-2.3c2.3-2.2,4.7-5.8,7.3-10.8h2.3l-6.8,19.6H433v-2.2h2.8
				c0.7,0,1.5-0.1,2.3-0.3c0.8-0.2,1.6-0.4,2.3-0.7c0.7-0.3,1.4-0.7,1.9-1.2c0.6-0.5,1-1.1,1.2-1.8c0.5-1.3,0.7-3.8,0.7-7.6v-50.8
				c0-5-0.5-8.1-1.5-9.2c-1.4-1.5-3.7-2.3-7-2.3H433v-2.2h60.2v17.1h-1.4c-0.6-2.8-1.2-5.1-1.8-6.8c-0.7-1.7-1.5-3-2.6-3.9
				c-1.1-0.9-2.5-1.5-4.2-1.8c-1.7-0.3-3.9-0.4-6.5-0.4H455.3z"/>
			<path d="M570.4,1790.3l1.9,0.3l-6.7,21.2H505v-2.2h3c3.2,0,5.6-1.1,7.1-3.2c0.8-1.3,1.2-4.1,1.2-8.5v-50.5c0-4.8-0.5-7.9-1.6-9.1
				c-1.5-1.7-3.7-2.6-6.6-2.6h-3v-2.2h35.4v2.2c-2.1,0-3.9,0.1-5.3,0.3c-1.4,0.2-2.6,0.5-3.5,0.9c-0.9,0.4-1.6,0.8-2.2,1.3
				c-0.5,0.5-0.9,1.1-1.3,1.7c-0.6,1.1-0.9,4.1-0.9,8.9v49.1c0,2.7,0.2,4.6,0.6,5.8c0.4,1.2,1.2,2,2.4,2.5c1,0.3,4,0.5,9,0.5h5.7
				c6,0,10.2-0.4,12.6-1.3c1.2-0.4,2.4-1,3.4-1.7c1.1-0.7,2.2-1.7,3.2-2.9c1-1.2,2-2.7,3-4.4
				C568.4,1794.9,569.4,1792.8,570.4,1790.3z"/>
			<path d="M628.8,1785.8h-30.3l-5.3,12.3c-1.3,3-1.9,5.3-1.9,6.8c0,0.6,0.1,1.2,0.3,1.7c0.2,0.5,0.6,1,1.3,1.4
				c0.7,0.4,1.6,0.8,2.8,1.1c1.2,0.3,2.7,0.5,4.7,0.6v2.2h-24.6v-2.2c1.9-0.3,3.5-0.7,4.7-1.3c1.2-0.6,2.2-1.4,3.1-2.4
				c0.9-1,1.6-2.3,2.4-3.9c0.7-1.6,1.6-3.6,2.6-5.9l27.5-64.3h2l27.2,64.9c1.1,2.7,2.1,4.9,3.1,6.5c0.9,1.6,1.9,2.9,2.9,3.8
				c1,0.9,2.1,1.5,3.3,1.9c1.2,0.3,2.6,0.5,4.3,0.6v2.2h-30.9v-2.2c3.1-0.1,5.2-0.6,6.3-1.5c1.1-0.9,1.7-2,1.7-3.2
				c-0.1-1.7-0.8-4.4-2.3-8.1L628.8,1785.8z M627.2,1781.5l-13.2-31.6l-13.6,31.6H627.2z"/>
			<path d="M708.3,1811.9l-30.2-65.7v52.2c0,2.7,0.2,4.8,0.6,6.3c0.4,1.5,0.9,2.7,1.6,3.4c0.7,0.7,1.6,1.2,2.6,1.4
				c1,0.2,2.2,0.3,3.5,0.3h2.8v2.2H662v-2.2h2.8c1.4,0,2.6-0.1,3.6-0.3c1-0.2,1.9-0.7,2.6-1.5c0.7-0.8,1.2-1.9,1.5-3.4
				c0.3-1.5,0.5-3.6,0.5-6.2v-51.1c0-1.8-0.1-3.5-0.3-4.9c-0.2-1.4-0.6-2.6-1.3-3.6c-0.7-1-1.8-1.7-3.3-2.2
				c-1.5-0.5-3.5-0.8-6.2-0.8v-2.2h22.1l28.4,61.2l27.9-61.2h22.1v2.2h-2.7c-1.4,0-2.7,0.1-3.7,0.3c-1,0.2-1.9,0.7-2.6,1.5
				c-0.7,0.8-1.2,1.9-1.5,3.4c-0.3,1.5-0.5,3.6-0.5,6.2v51.1c0,2.7,0.2,4.8,0.6,6.3c0.4,1.5,0.9,2.7,1.6,3.4
				c0.7,0.7,1.6,1.2,2.6,1.4c1,0.2,2.2,0.3,3.5,0.3h2.7v2.2h-33.2v-2.2h2.8c1.4,0,2.6-0.1,3.6-0.3c1-0.2,1.9-0.7,2.6-1.5
				c0.7-0.8,1.2-1.9,1.6-3.4c0.3-1.5,0.5-3.5,0.5-6.1v-52.2l-30.1,65.7H708.3z"/>
			<path d="M801.4,1809.8v2.2h-33.5v-2.2h2.8c1.4,0,2.6-0.1,3.7-0.3c1.1-0.2,1.9-0.7,2.6-1.5c0.7-0.8,1.2-1.9,1.6-3.5
				c0.4-1.6,0.6-3.7,0.6-6.4v-50.5c0-1.8,0-3.3-0.1-4.4c-0.1-1.2-0.2-2.1-0.4-2.9c-0.2-0.7-0.5-1.3-0.9-1.8
				c-0.4-0.4-0.9-0.8-1.6-1.2c-1.7-0.9-3.5-1.4-5.3-1.4h-2.8v-2.2h33.5v2.2h-2.8c-1.4,0-2.6,0.1-3.7,0.3c-1.1,0.2-1.9,0.7-2.6,1.5
				c-0.7,0.8-1.2,2-1.6,3.5c-0.4,1.6-0.6,3.7-0.6,6.3v50.5c0,1.8,0,3.3,0.1,4.5c0.1,1.1,0.2,2.1,0.4,2.8c0.2,0.7,0.6,1.3,1,1.8
				c0.4,0.4,1,0.8,1.7,1.2c1.6,0.9,3.4,1.4,5.2,1.4H801.4z"/>
			<path d="M802.8,1733.7h21.2l47.8,58.7v-45.1c0-2.6-0.2-4.7-0.6-6.3c-0.4-1.5-0.9-2.7-1.6-3.4c-0.7-0.7-1.6-1.2-2.6-1.4
				c-1-0.2-2.2-0.3-3.5-0.3h-2.8v-2.2h27.3v2.2h-2.8c-1.4,0-2.6,0.1-3.6,0.3c-1,0.2-1.9,0.7-2.6,1.5c-0.7,0.8-1.2,2-1.5,3.4
				c-0.3,1.5-0.5,3.5-0.5,6.1v65.9h-2.1l-51.5-63v48.2c0,2.7,0.2,4.8,0.6,6.3c0.4,1.5,0.9,2.7,1.6,3.4c0.7,0.7,1.5,1.2,2.6,1.4
				c1,0.2,2.2,0.3,3.5,0.3h2.8v2.2h-27.2v-2.2h2.8c1.4,0,2.6-0.1,3.6-0.3c1-0.2,1.9-0.7,2.6-1.5c0.7-0.8,1.2-1.9,1.6-3.4
				c0.3-1.5,0.5-3.5,0.5-6.1V1744c-1.1-1.4-2.1-2.5-2.9-3.3c-0.8-0.8-1.5-1.5-2.2-2c-0.7-0.5-1.4-0.9-2.2-1.3
				c-0.8-0.3-1.8-0.7-3-1.1c-1.1-0.3-2.8-0.5-5.1-0.5V1733.7z"/>
			<path d="M914.2,1738v30.9h17.1c2.5,0,4.6-0.2,6.1-0.7c1.5-0.5,2.8-1.1,3.7-2.1c0.9-0.9,1.5-2.1,1.8-3.5c0.3-1.4,0.6-3.1,0.7-5.1
				h2.2v27.2h-2.2c-0.3-2.2-0.6-4.1-1-5.6c-0.4-1.5-1-2.7-1.8-3.6c-0.8-0.9-2-1.5-3.5-1.9c-1.5-0.4-3.5-0.6-6-0.6h-17.1v25.8
				c0,2,0,3.5,0.1,4.6c0.1,1.1,0.3,2,0.7,2.6c0.4,0.6,1,1,1.9,1.2c0.9,0.2,2.1,0.3,3.8,0.3h13.2c2.2,0,4.1-0.1,5.7-0.2
				c1.5-0.1,2.9-0.3,4-0.7c1.1-0.3,2.1-0.8,3-1.4s1.8-1.4,2.8-2.3c2.3-2.2,4.7-5.8,7.3-10.8h2.3l-6.8,19.6H892v-2.2h2.8
				c0.7,0,1.5-0.1,2.3-0.3c0.8-0.2,1.6-0.4,2.3-0.7c0.7-0.3,1.4-0.7,1.9-1.2c0.6-0.5,1-1.1,1.2-1.8c0.5-1.3,0.7-3.8,0.7-7.6v-50.8
				c0-5-0.5-8.1-1.5-9.2c-1.4-1.5-3.7-2.3-7-2.3H892v-2.2h60.2v17.1h-1.4c-0.6-2.8-1.2-5.1-1.8-6.8c-0.7-1.7-1.5-3-2.6-3.9
				c-1.1-0.9-2.5-1.5-4.2-1.8c-1.7-0.3-3.9-0.4-6.5-0.4H914.2z"/>
		</g>
		<g>
			<path d="M436,1870.1v2.2c-1.5,0-2.8,0.1-3.8,0.4c-1,0.3-1.9,0.9-2.8,1.9c-0.9,1-1.7,2.5-2.6,4.5c-0.9,2-1.9,4.6-3,8l-21.8,63.1
				h-2.3l-17.8-50l-17.6,50h-2.2l-23.2-64.9c-0.9-2.4-1.5-4.3-2.1-5.7c-0.5-1.4-0.9-2.3-1.2-2.8c-0.8-1.5-1.8-2.6-3.1-3.3
				c-1.3-0.7-3.1-1.1-5.4-1.1v-2.2H356v2.2h-1.4c-2,0-3.6,0.5-4.6,1.4c-1.1,0.9-1.6,2-1.6,3.4c0,1.4,0.9,4.5,2.6,9.3l15.4,43.9
				l12.9-37.3l-4.1-11.8c-0.6-1.4-1.3-2.7-1.9-3.8c-0.6-1.1-1.3-2-2.2-2.8c-0.8-0.7-1.7-1.3-2.8-1.7c-1.1-0.4-2.4-0.6-4-0.6v-2.2
				h30.4v2.2h-2.1c-2.2,0-3.8,0.5-4.7,1.4c-1,0.9-1.5,2.2-1.5,3.8c0,2,0.9,5.4,2.6,10.2l15,42.5l14.9-43.1c0.8-2.4,1.4-4.4,1.9-6
				c0.5-1.6,0.7-2.9,0.7-3.9c0-1.8-0.8-3.1-2.4-3.8c-1.6-0.7-3.7-1.1-6.3-1.1v-2.2H436z"/>
			<path d="M461.2,1906.4h36.3V1884c0-1.8,0-3.3-0.1-4.5c-0.1-1.2-0.2-2.1-0.4-2.9c-0.2-0.7-0.6-1.3-1-1.8c-0.4-0.4-1-0.8-1.7-1.2
				c-1.6-0.9-3.4-1.4-5.2-1.4h-2.8v-2.2h33.5v2.2h-2.8c-0.7,0-1.5,0.1-2.4,0.3c-0.8,0.2-1.6,0.4-2.3,0.8c-0.7,0.3-1.4,0.8-1.9,1.3
				c-0.6,0.5-1,1.1-1.2,1.8c-0.4,1.2-0.6,3.8-0.6,7.7v50.4c0,1.8,0,3.3,0.1,4.5c0.1,1.1,0.2,2.1,0.4,2.8c0.2,0.7,0.5,1.3,0.9,1.8
				c0.4,0.4,0.9,0.8,1.6,1.2c1.6,0.9,3.4,1.4,5.3,1.4h2.8v2.2h-33.5v-2.2h2.8c1.3,0,2.5-0.1,3.5-0.3c1-0.2,1.9-0.7,2.7-1.5
				c0.7-0.8,1.3-1.9,1.7-3.5c0.4-1.6,0.6-3.7,0.6-6.4v-23.8h-36.3v23.8c0,1.8,0,3.3,0.1,4.5c0.1,1.1,0.2,2.1,0.4,2.8
				c0.2,0.7,0.6,1.3,1,1.8c0.4,0.4,1,0.8,1.7,1.2c1.6,0.9,3.4,1.4,5.2,1.4h2.8v2.2H439v-2.2h2.8c3.2,0,5.5-0.9,7-2.8
				c0.9-1.1,1.4-4.1,1.4-8.9V1884c0-1.9,0-3.4-0.1-4.6c-0.1-1.2-0.2-2.1-0.4-2.8c-0.2-0.7-0.5-1.3-0.9-1.7c-0.4-0.4-0.9-0.8-1.6-1.2
				c-1.6-0.9-3.4-1.4-5.2-1.4H439v-2.2h33.5v2.2h-2.8c-0.7,0-1.4,0.1-2.3,0.3c-0.8,0.2-1.6,0.4-2.3,0.8c-0.7,0.3-1.4,0.8-1.9,1.3
				c-0.6,0.5-1,1.1-1.2,1.8c-0.5,1.4-0.7,3.9-0.7,7.7V1906.4z"/>
			<path d="M558.6,1946.1v2.2h-33.5v-2.2h2.8c1.4,0,2.6-0.1,3.7-0.3c1.1-0.2,1.9-0.7,2.6-1.5c0.7-0.8,1.2-1.9,1.6-3.5
				c0.4-1.6,0.6-3.7,0.6-6.4v-50.5c0-1.8,0-3.3-0.1-4.4c-0.1-1.2-0.2-2.1-0.4-2.9c-0.2-0.7-0.5-1.3-0.9-1.8
				c-0.4-0.4-0.9-0.8-1.6-1.2c-1.7-0.9-3.5-1.4-5.3-1.4h-2.8v-2.2h33.5v2.2h-2.8c-1.4,0-2.6,0.1-3.7,0.3c-1.1,0.2-1.9,0.7-2.6,1.5
				c-0.7,0.8-1.2,2-1.6,3.5c-0.4,1.6-0.6,3.7-0.6,6.3v50.5c0,1.8,0,3.3,0.1,4.5c0.1,1.1,0.2,2.1,0.4,2.8c0.2,0.7,0.6,1.3,1,1.8
				c0.4,0.4,1,0.8,1.7,1.2c1.6,0.9,3.4,1.4,5.2,1.4H558.6z"/>
			<path d="M629.8,1870.1v18.4h-1.3c-0.6-4.9-2.1-8.4-4.3-10.5c-2.3-2-5.6-3.1-10-3.1h-11v59.8c0,2.6,0.2,4.7,0.6,6.2
				c0.4,1.5,0.9,2.7,1.6,3.4c0.7,0.7,1.5,1.2,2.6,1.4c1,0.2,2.2,0.3,3.6,0.3h2.7v2.2h-33.1v-2.2h2.8c1.4,0,2.6-0.1,3.6-0.3
				c1-0.2,1.9-0.7,2.6-1.5c0.7-0.8,1.2-1.9,1.6-3.4c0.4-1.5,0.6-3.5,0.6-6.1V1875h-9.4c-2.4,0-4.4,0.2-6.2,0.6
				c-1.8,0.4-3.4,1.1-4.7,2.1c-1.3,1-2.4,2.4-3.1,4.1c-0.8,1.8-1.2,4-1.4,6.8h-2.2v-18.4H629.8z"/>
			<path d="M658.3,1874.4v30.9h17.1c2.5,0,4.6-0.2,6.1-0.7c1.5-0.5,2.8-1.1,3.7-2.1c0.9-0.9,1.5-2.1,1.8-3.5
				c0.3-1.4,0.6-3.1,0.7-5.1h2.2v27.2h-2.2c-0.3-2.2-0.6-4.1-1-5.6c-0.4-1.5-1-2.7-1.8-3.6c-0.8-0.9-2-1.5-3.5-1.9
				c-1.5-0.4-3.5-0.6-6-0.6h-17.1v25.8c0,2,0,3.5,0.1,4.6c0.1,1.1,0.3,2,0.7,2.6c0.4,0.6,1,1,1.9,1.2c0.9,0.2,2.1,0.3,3.8,0.3H678
				c2.2,0,4.1-0.1,5.7-0.2c1.5-0.1,2.9-0.3,4-0.7c1.1-0.3,2.1-0.8,3-1.4c0.9-0.6,1.8-1.4,2.8-2.3c2.3-2.2,4.7-5.8,7.3-10.8h2.3
				l-6.8,19.6H636v-2.2h2.8c0.7,0,1.5-0.1,2.3-0.3c0.8-0.2,1.6-0.4,2.3-0.7c0.7-0.3,1.4-0.7,1.9-1.2c0.6-0.5,1-1.1,1.2-1.8
				c0.5-1.3,0.7-3.8,0.7-7.6v-50.8c0-5-0.5-8.1-1.5-9.2c-1.4-1.5-3.7-2.3-7-2.3H636v-2.2h60.2v17.1h-1.4c-0.6-2.8-1.2-5.1-1.8-6.8
				c-0.7-1.7-1.5-3-2.6-3.9c-1.1-0.9-2.5-1.5-4.2-1.8c-1.7-0.3-3.9-0.4-6.5-0.4H658.3z"/>
			<path d="M843.5,1870.1v2.2c-1.5,0-2.8,0.1-3.8,0.4c-1,0.3-1.9,0.9-2.8,1.9c-0.9,1-1.7,2.5-2.6,4.5c-0.9,2-1.9,4.6-3,8l-21.8,63.1
				h-2.3l-17.8-50l-17.6,50h-2.2l-23.2-64.9c-0.9-2.4-1.5-4.3-2.1-5.7c-0.5-1.4-0.9-2.3-1.2-2.8c-0.8-1.5-1.8-2.6-3.1-3.3
				c-1.3-0.7-3.1-1.1-5.4-1.1v-2.2h28.9v2.2h-1.4c-2,0-3.6,0.5-4.6,1.4c-1.1,0.9-1.6,2-1.6,3.4c0,1.4,0.9,4.5,2.6,9.3l15.4,43.9
				l12.9-37.3l-4.1-11.8c-0.6-1.4-1.3-2.7-1.9-3.8c-0.6-1.1-1.3-2-2.2-2.8c-0.8-0.7-1.7-1.3-2.8-1.7c-1.1-0.4-2.4-0.6-4-0.6v-2.2
				h30.4v2.2h-2.1c-2.2,0-3.8,0.5-4.7,1.4c-1,0.9-1.5,2.2-1.5,3.8c0,2,0.9,5.4,2.6,10.2l15,42.5l14.9-43.1c0.8-2.4,1.4-4.4,1.9-6
				c0.5-1.6,0.7-2.9,0.7-3.9c0-1.8-0.8-3.1-2.4-3.8c-1.6-0.7-3.7-1.1-6.3-1.1v-2.2H843.5z"/>
			<path d="M887.7,1868.4c5,0,9.7,1,14.3,3.1c4.5,2.1,8.5,4.9,12,8.5c3.4,3.6,6.2,7.9,8.2,12.8c2,4.9,3.1,10.2,3.1,16
				c0,5.9-1,11.4-3.1,16.4c-2,5-4.8,9.4-8.3,13.1c-3.5,3.7-7.5,6.6-12.2,8.7c-4.7,2.1-9.6,3.1-14.9,3.1c-5.3,0-10.3-1-15-3
				c-4.6-2-8.7-4.8-12.1-8.5c-3.4-3.6-6.1-8-8.1-13c-2-5-3-10.6-3-16.7c0-5.6,1-10.9,3-15.8c2-4.9,4.7-9.2,8.2-12.9
				c3.5-3.6,7.6-6.5,12.3-8.6C876.8,1869.4,882,1868.4,887.7,1868.4z M886.5,1872.6c-4,0-7.5,0.8-10.5,2.5c-3.1,1.7-5.6,4.1-7.7,7.2
				c-2.1,3.1-3.7,6.9-4.8,11.4c-1.1,4.4-1.6,9.4-1.6,15c0,5.5,0.5,10.5,1.6,15.1c1.1,4.6,2.6,8.5,4.7,11.8c2.1,3.3,4.7,5.8,7.8,7.7
				c3.1,1.8,6.7,2.7,10.7,2.7c3.6,0,7-0.7,10-2.1c3.1-1.4,5.7-3.5,8-6.4c2.3-2.9,4.1-6.6,5.4-11.1c1.3-4.5,1.9-9.9,1.9-16.1
				c0-5.9-0.5-11.2-1.6-15.9c-1.1-4.7-2.7-8.6-4.8-11.9c-2.2-3.2-4.8-5.7-8-7.4C894.4,1873.4,890.7,1872.6,886.5,1872.6z"/>
			<path d="M972.9,1868.4c5,0,9.7,1,14.3,3.1c4.5,2.1,8.5,4.9,12,8.5c3.4,3.6,6.2,7.9,8.2,12.8c2,4.9,3.1,10.2,3.1,16
				c0,5.9-1,11.4-3.1,16.4c-2,5-4.8,9.4-8.3,13.1c-3.5,3.7-7.5,6.6-12.2,8.7c-4.7,2.1-9.6,3.1-14.9,3.1c-5.3,0-10.3-1-15-3
				c-4.6-2-8.7-4.8-12.1-8.5c-3.4-3.6-6.1-8-8.1-13c-2-5-3-10.6-3-16.7c0-5.6,1-10.9,3-15.8c2-4.9,4.7-9.2,8.2-12.9
				c3.5-3.6,7.6-6.5,12.3-8.6C962.1,1869.4,967.3,1868.4,972.9,1868.4z M971.8,1872.6c-4,0-7.5,0.8-10.5,2.5
				c-3.1,1.7-5.6,4.1-7.7,7.2c-2.1,3.1-3.7,6.9-4.8,11.4c-1.1,4.4-1.6,9.4-1.6,15c0,5.5,0.5,10.5,1.6,15.1c1.1,4.6,2.6,8.5,4.7,11.8
				c2.1,3.3,4.7,5.8,7.8,7.7c3.1,1.8,6.7,2.7,10.7,2.7c3.6,0,7-0.7,10-2.1c3.1-1.4,5.7-3.5,8-6.4c2.3-2.9,4.1-6.6,5.4-11.1
				c1.3-4.5,1.9-9.9,1.9-16.1c0-5.9-0.5-11.2-1.6-15.9c-1.1-4.7-2.7-8.6-4.8-11.9c-2.2-3.2-4.8-5.7-8-7.4
				C979.7,1873.4,976,1872.6,971.8,1872.6z"/>
			<path d="M1016.9,1948.3v-2.2h3c1.3,0,2.5-0.1,3.5-0.3c1-0.2,1.9-0.7,2.6-1.5c0.7-0.8,1.2-2,1.6-3.5c0.4-1.5,0.6-3.6,0.6-6.3
				v-50.5c0-4.8-0.5-7.9-1.6-9.1c-1.5-1.7-3.7-2.6-6.6-2.6h-3v-2.2h31.8c11.6,0,20.5,1.3,26.7,4c6.1,2.7,11,7.1,14.7,13.2
				c3.7,6.3,5.6,13.4,5.6,21.4c0,5.8-0.9,11.1-2.8,15.9c-1.9,4.8-4.6,9-8.3,12.5c-3.7,3.5-8.3,6.2-13.7,8.2c-5.4,2-11.8,2.9-19,2.9
				H1016.9z M1039.3,1942.6c4.8,1.1,8.8,1.6,12.2,1.6c4.4,0,8.5-0.8,12.3-2.5c3.8-1.6,7.1-4,9.8-7c2.8-3,5-6.7,6.5-11
				c1.6-4.3,2.4-9.1,2.4-14.5c0-5.4-0.8-10.2-2.3-14.6c-1.5-4.3-3.7-8-6.5-11c-2.8-3-6.1-5.3-10-6.9c-3.8-1.6-8.1-2.4-12.6-2.4
				c-3.4,0-7.3,0.6-11.8,1.7V1942.6z"/>
		</g>
	</g>
	<g>
		<g>
			<path d="M3835.5,908l3.8,0.7l-13.6,42.9h-122.4v-4.3h6.1c6.5,0,11.2-2.1,14.3-6.4c1.6-2.5,2.4-8.3,2.4-17.2v-102
				c0-9.7-1.1-15.9-3.3-18.4c-3-3.5-7.5-5.2-13.4-5.2h-6.1v-4.3h71.6v4.3c-4.3,0-7.9,0.2-10.7,0.6c-2.8,0.4-5.2,1-7,1.7
				c-1.9,0.8-3.3,1.7-4.3,2.7c-1,1-1.9,2.2-2.6,3.5c-1.2,2.3-1.7,8.3-1.7,17.9v99.3c0,5.4,0.4,9.4,1.2,11.8c0.8,2.4,2.4,4.1,4.9,5
				c2.1,0.7,8.2,1,18.3,1h11.5c12.2,0,20.7-0.9,25.6-2.6c2.4-0.8,4.8-2,7-3.5c2.2-1.5,4.3-3.5,6.4-5.9c2.1-2.4,4.1-5.4,6.1-8.9
				C3831.4,917.2,3833.5,912.9,3835.5,908z"/>
			<path d="M3931.7,790.1c10.1,0,19.7,2.1,28.9,6.3c9.2,4.2,17.2,9.9,24.2,17.2c7,7.3,12.5,15.9,16.6,25.8
				c4.1,9.9,6.2,20.7,6.2,32.2c0,11.9-2.1,23-6.2,33.2c-4.1,10.2-9.7,19-16.7,26.5c-7,7.5-15.2,13.3-24.7,17.6
				c-9.4,4.2-19.5,6.3-30.2,6.3c-10.8,0-20.9-2-30.2-6.1c-9.4-4.1-17.5-9.8-24.4-17.1c-6.9-7.4-12.3-16.1-16.3-26.3
				c-4-10.2-6-21.4-6-33.7c0-11.4,2-22,6-32c4-10,9.5-18.6,16.5-26c7-7.4,15.3-13.2,24.9-17.5
				C3909.8,792.2,3920.3,790.1,3931.7,790.1z M3929.4,798.6c-8,0-15.1,1.7-21.3,5.1c-6.2,3.4-11.4,8.3-15.6,14.6
				c-4.2,6.3-7.4,14-9.6,22.9c-2.2,9-3.3,19.1-3.3,30.3c0,11.1,1.1,21.3,3.2,30.5c2.1,9.2,5.3,17.2,9.6,23.8
				c4.2,6.7,9.5,11.8,15.7,15.5s13.4,5.5,21.6,5.5c7.3,0,14.1-1.4,20.3-4.2c6.2-2.8,11.6-7.1,16.3-13c4.6-5.9,8.3-13.3,10.9-22.4
				c2.6-9.1,3.9-20,3.9-32.6c0-11.9-1.1-22.6-3.2-32.1c-2.1-9.4-5.4-17.4-9.7-24c-4.3-6.5-9.7-11.5-16.2-15
				C3945.3,800.3,3937.9,798.6,3929.4,798.6z"/>
			<path d="M4239.9,793.6v4.3c-3.1,0-5.7,0.3-7.7,0.9c-2,0.6-3.9,1.9-5.6,3.9c-1.7,2-3.5,5-5.2,9c-1.7,4-3.8,9.4-6.1,16.1l-44,127.4
				h-4.7l-36-101l-35.6,101h-4.3L4043.6,824c-1.7-4.9-3.1-8.7-4.2-11.6c-1-2.8-1.9-4.7-2.4-5.7c-1.6-3-3.7-5.2-6.3-6.7
				c-2.6-1.4-6.2-2.2-10.9-2.2v-4.3h58.4v4.3h-2.8c-4.1,0-7.2,0.9-9.4,2.8c-2.2,1.9-3.3,4.1-3.3,6.8c0,2.8,1.7,9,5.2,18.8l31.1,88.7
				l26.1-75.4l-8.3-23.8c-1.3-2.9-2.6-5.4-3.8-7.6c-1.3-2.2-2.7-4.1-4.3-5.6c-1.6-1.5-3.5-2.6-5.7-3.4c-2.2-0.8-4.9-1.1-8-1.1v-4.3
				h61.4v4.3h-4.2c-4.4,0-7.6,0.9-9.6,2.8c-2,1.9-3,4.4-3,7.6c0,3.9,1.7,10.8,5.2,20.7l30.2,85.9l30.1-87.1
				c1.6-4.9,2.9-8.9,3.8-12.2c0.9-3.2,1.4-5.9,1.4-7.8c0-3.7-1.6-6.3-4.9-7.7c-3.2-1.4-7.5-2.2-12.7-2.2v-4.3H4239.9z"/>
			<path d="M4406.4,790.1v54.6h-4.3c-2-14.7-6.8-26-14.4-33.7c-7.6-7.8-17.4-11.6-29.2-11.6c-4.1,0-7.8,0.7-11.1,2.1
				c-3.4,1.4-6.3,3.2-8.9,5.5c-2.6,2.3-4.5,4.8-5.9,7.7c-1.4,2.9-2.1,5.9-2.1,9c0,2.9,0.6,5.6,1.7,8.3c1.2,2.6,4.8,6.7,10.8,12.3
				c10.1,6.4,19.1,11.6,26.9,15.8c7.4,4.1,17.4,10.2,30.1,18.4c5.4,4.2,9.6,9.1,12.5,14.9c2.9,5.7,4.3,11.7,4.3,18
				c0,5.9-1.2,11.5-3.7,16.9c-2.4,5.3-5.8,10-10.2,14c-4.3,4-9.6,7.2-15.7,9.6c-6.1,2.4-12.9,3.6-20.2,3.6c-4.6,0-8.9-0.3-12.9-1
				c-0.7-0.1-2.5-0.6-5.5-1.5c-3-0.9-6.1-1.8-9.5-2.7c-3.4-0.9-6.5-1.8-9.4-2.6c-2.9-0.8-4.6-1.2-5-1.2c-2,0-3.5,0.6-4.6,1.7
				c-1.1,1.2-1.9,3.6-2.5,7.3h-4.3V901h4.3c2.1,11.1,4.8,19.6,8.2,25.6c1.6,2.8,3.8,5.4,6.5,7.7c2.7,2.4,5.8,4.5,9.2,6.3
				c3.4,1.8,7.1,3.2,11,4.2c3.9,1,7.9,1.5,12,1.5c4.9,0,9.2-0.7,13.1-2.1c3.9-1.4,7.2-3.3,9.9-5.6c2.7-2.4,4.8-5.1,6.3-8.3
				c1.4-3.1,2.2-6.4,2.2-9.9c0-3.9-1.1-7.9-3.2-11.8c-2.1-3.9-5.8-7.8-10.9-11.6c-5-3-10.9-6.5-17.7-10.6
				c-13.1-7.5-24.7-14.8-34.9-21.7c-5.7-4.5-10-9.5-13-14.9c-3-5.4-4.4-11.4-4.4-18c0-5.6,1.2-10.9,3.5-15.9c2.3-5,5.5-9.5,9.6-13.3
				c4.1-3.8,9-6.8,14.7-9c5.7-2.2,11.8-3.3,18.4-3.3c8.3,0,17.2,2,26.6,6.1c2.2,0.9,4.1,1.7,5.6,2.3c1.5,0.6,2.7,0.8,3.7,0.7
				c2.1,0,3.8-0.6,5-1.7c1.3-1.2,2.3-3.6,3-7.3H4406.4z"/>
			<path d="M4503.3,947.2v4.3h-67.6v-4.3h5.6c2.8,0,5.2-0.2,7.4-0.6c2.1-0.4,3.9-1.4,5.3-3c1.4-1.6,2.5-3.9,3.2-7.1
				c0.8-3.2,1.1-7.5,1.1-13v-102c0-3.6-0.1-6.6-0.3-9c-0.2-2.4-0.5-4.3-0.9-5.8c-0.4-1.5-1-2.7-1.8-3.6c-0.8-0.9-1.9-1.7-3.3-2.5
				c-3.5-1.9-7.1-2.8-10.8-2.8h-5.6v-4.3h67.6v4.3h-5.6c-2.8,0-5.2,0.2-7.4,0.7c-2.1,0.5-3.9,1.5-5.3,3c-1.4,1.6-2.5,3.9-3.2,7.1
				c-0.8,3.2-1.1,7.4-1.1,12.8v102c0,3.7,0.1,6.7,0.2,9c0.1,2.3,0.4,4.2,0.9,5.7c0.5,1.5,1.1,2.7,2,3.6c0.9,0.9,2,1.7,3.4,2.5
				c3.2,1.9,6.8,2.8,10.6,2.8H4503.3z"/>
			<path d="M4513.2,951.6v-4.3h6.1c2.7,0,5-0.2,7.1-0.7c2.1-0.5,3.8-1.5,5.2-3.1c1.4-1.6,2.5-4,3.2-7.1c0.8-3.1,1.1-7.4,1.1-12.7
				v-102c0-9.7-1.1-15.9-3.3-18.4c-3-3.5-7.5-5.2-13.4-5.2h-6.1v-4.3h64.3c23.4,0,41.4,2.7,53.9,8.2c12.4,5.4,22.3,14.4,29.7,26.8
				c7.5,12.6,11.3,27.1,11.3,43.3c0,11.7-1.9,22.4-5.6,32.2c-3.8,9.7-9.4,18.1-16.9,25.2c-7.5,7.1-16.7,12.6-27.7,16.5
				c-11,3.9-23.8,5.9-38.4,5.9H4513.2z M4558.4,940.1c9.6,2.2,17.8,3.3,24.7,3.3c8.9,0,17.2-1.7,24.9-5c7.6-3.3,14.3-8,19.9-14.1
				c5.6-6.1,10-13.5,13.2-22.2c3.2-8.7,4.8-18.4,4.8-29.2c0-10.9-1.6-20.7-4.7-29.5c-3.1-8.7-7.5-16.2-13.2-22.3
				c-5.7-6.1-12.4-10.7-20.2-14c-7.8-3.2-16.3-4.9-25.6-4.9c-6.8,0-14.8,1.2-23.8,3.5V940.1z"/>
			<path d="M4731.3,802.3v62.4h34.6c5.1,0,9.2-0.5,12.3-1.4c3.1-0.9,5.6-2.3,7.4-4.2c1.8-1.9,3-4.2,3.7-7.1
				c0.7-2.9,1.2-6.3,1.4-10.3h4.3v54.9h-4.3c-0.6-4.5-1.2-8.3-2-11.3c-0.8-3-2-5.4-3.7-7.2c-1.7-1.8-4-3.1-7-3.8
				c-3-0.8-7.1-1.1-12.2-1.1h-34.6v52.2c0,3.9,0.1,7.1,0.2,9.4c0.1,2.3,0.6,4.1,1.4,5.3c0.8,1.2,2.1,2,3.8,2.3
				c1.7,0.3,4.3,0.5,7.6,0.5h26.8c4.5,0,8.3-0.1,11.5-0.3c3.1-0.2,5.8-0.7,8.1-1.4c2.3-0.7,4.3-1.7,6-2.9c1.7-1.2,3.6-2.8,5.6-4.6
				c4.6-4.5,9.6-11.8,14.8-21.7h4.7l-13.7,39.6h-121.7v-4.3h5.6c1.5,0,3.1-0.2,4.7-0.5c1.6-0.3,3.2-0.8,4.6-1.5
				c1.4-0.6,2.8-1.5,3.9-2.5c1.2-1,2-2.3,2.4-3.7c0.9-2.5,1.4-7.6,1.4-15.3V821.2c0-10.1-1-16.3-3-18.6c-2.8-3.1-7.5-4.7-14.1-4.7
				h-5.6v-4.3H4808v34.6h-2.8c-1.2-5.7-2.4-10.2-3.7-13.6c-1.3-3.4-3.1-6.1-5.3-7.9c-2.2-1.9-5-3-8.4-3.6c-3.4-0.5-7.8-0.8-13.1-0.8
				H4731.3z"/>
		</g>
	</g>
	<g>
		<path d="M4261.9,1785.1l22.9-11h1.8v77.8c0,2.7,0,4.8,0.1,6.3c0.1,1.5,0.2,2.7,0.5,3.5c0.3,0.8,0.6,1.4,1,1.7c0.4,0.3,1,0.7,1.8,1
			c1.4,0.7,4.2,1.1,8.6,1.1v2.5h-35v-2.5c2.3,0,4.1-0.1,5.5-0.3c1.4-0.2,2.4-0.5,3.2-0.8c0.8-0.3,1.3-0.7,1.7-1.2
			c0.4-0.5,0.7-1,0.9-1.5c0.5-1,0.7-4.3,0.7-9.9v-49.8c0-3.9-0.1-7-0.3-9.3c-0.2-2.3-0.5-3.9-0.9-5c-0.4-1.1-1-1.8-1.7-2.1
			c-0.7-0.3-1.6-0.5-2.7-0.5c-1.9,0-4.3,0.6-7.1,1.8L4261.9,1785.1z"/>
		<path d="M4377.6,1774.2v2.5c-3,0.3-5.7,0.8-8,1.3s-4.5,1.2-6.5,2.1c-2,0.9-3.9,2-5.7,3.4c-1.8,1.3-3.7,3-5.6,4.8
			c-3.8,3.7-6.8,7.8-9.2,12.3c-2.4,4.5-4.3,9.8-6,16c6.5-4.5,13-6.8,19.5-6.8c3.1,0,6.1,0.7,8.9,2c2.8,1.3,5.3,3.2,7.4,5.6
			c2.1,2.4,3.8,5.3,5.1,8.6c1.2,3.3,1.9,7,1.9,10.9c0,4.3-0.7,8.4-2.2,12.4c-1.5,3.9-3.5,7.4-6.2,10.4c-2.6,3-5.7,5.3-9.3,7.1
			c-3.6,1.8-7.4,2.7-11.5,2.7c-4.6,0-8.7-1.1-12.2-3.4c-3.6-2.3-6.6-5.2-9-8.7c-2.5-3.6-4.3-7.6-5.6-12.1c-1.3-4.5-1.9-8.9-1.9-13.4
			c0-8.3,1.6-16.1,4.9-23.5c3.3-7.4,8-13.9,14.1-19.6c3.1-2.9,6.1-5.3,9.1-7.2s5.8-3.4,8.6-4.4c2.8-1.1,5.5-1.8,8.1-2.3
			c2.6-0.4,5.1-0.7,7.4-0.7H4377.6z M4335.2,1822c-0.8,6.1-1.2,11-1.2,14.7c0,2.8,0.4,6,1.1,9.4s1.9,6.6,3.3,9.6
			c1.5,3,3.3,5.4,5.6,7.4c2.3,2,4.9,3,7.9,3c2,0,3.8-0.5,5.7-1.4c1.8-0.9,3.4-2.3,4.8-4.1c1.4-1.8,2.5-4.1,3.4-6.7
			c0.8-2.7,1.3-5.7,1.3-9.1c0-3.8-0.4-7.4-1.2-10.8c-0.8-3.4-1.9-6.5-3.4-9.1c-1.5-2.6-3.3-4.7-5.6-6.3c-2.2-1.5-4.7-2.3-7.6-2.3
			c-0.9,0-1.8,0.1-2.7,0.2c-0.8,0.1-1.8,0.4-2.8,0.8c-1,0.4-2.3,1-3.6,1.8C4338.9,1819.8,4337.2,1820.8,4335.2,1822z"/>
		<path d="M4389.5,1822.9c0-10.6,1.5-19.6,4.6-27c2.8-6.7,6.5-11.9,11-15.7c4.5-3.8,9.2-5.7,14.3-5.7c4,0,7.8,1.2,11.4,3.5
			c3.5,2.4,6.6,5.6,9.3,9.8c2.7,4.2,4.8,9.2,6.4,14.9c1.5,5.7,2.3,11.9,2.3,18.6c0,10.6-1.5,19.7-4.5,27.2c-1.5,3.6-3.3,6.8-5.4,9.5
			c-2,2.7-4.1,4.9-6.4,6.6s-4.5,3-6.9,3.8c-2.4,0.8-4.7,1.3-6.9,1.3c-4,0-7.7-1.2-11.3-3.5c-3.5-2.4-6.6-5.6-9.3-9.8
			c-2.7-4.2-4.8-9.2-6.3-14.9C4390.3,1835.9,4389.5,1829.6,4389.5,1822.9z M4402.8,1824.6c0,5.6,0.3,10.9,1,15.9
			c0.6,5,1.6,9.3,2.9,13.1c1.3,3.7,3,6.7,5,8.8c2,2.2,4.4,3.2,7.3,3.2c2.6,0,5-0.9,7-2.7c2.1-1.8,3.8-4.6,5.2-8.4s2.5-8.7,3.3-14.6
			c0.8-6,1.2-13.1,1.2-21.4c0-5.9-0.3-11.3-1-16.2c-0.7-4.9-1.7-9-3.1-12.5c-1.4-3.4-3.1-6.1-5.1-8c-2-1.9-4.4-2.8-7.1-2.8
			c-3,0-5.6,1.2-7.7,3.6c-2.1,2.4-3.8,5.7-5.1,9.9c-1.3,4.2-2.3,9-2.9,14.5C4403.1,1812.7,4402.8,1818.5,4402.8,1824.6z"/>
		<path d="M4571.6,1774.2l2.1,31h-2.1c-2.8-9.3-6.8-16-11.9-20.1c-5.1-4.1-11.3-6.1-18.5-6.1c-4.7,0-9,0.9-12.9,2.7
			c-3.9,1.8-7.3,4.5-10.2,8.2c-2.8,3.7-5.1,8.3-6.7,13.8c-1.6,5.6-2.4,12.1-2.4,19.7c0,6.1,0.8,11.6,2.3,16.6
			c1.5,5,3.7,9.2,6.6,12.7c2.9,3.5,6.5,6.2,10.7,8.1c4.2,1.9,9.1,2.9,14.5,2.9c5.8,0,11-1.3,15.7-3.8c4.5-2.3,9.5-7.4,14.9-15
			l2.1,1.3c-4.6,8.1-9.9,14-16,17.8c-6.1,3.8-13.3,5.7-21.7,5.7c-6.5,0-12.4-1.1-17.9-3.4c-5.4-2.3-10.1-5.5-14-9.6
			c-3.9-4.1-7-9-9.2-14.6c-2.2-5.7-3.3-11.9-3.3-18.6c0-9.2,2-17.5,6.1-25.1c4-7.6,9.6-13.5,16.8-17.7c7.2-4.2,15-6.3,23.5-6.3
			c6.6,0,13.1,1.6,19.5,4.8c1.9,1,3.2,1.5,4,1.5c1.5,0,2.7-0.6,3.7-1.8c1-1.2,1.7-2.7,2.1-4.5H4571.6z"/>
		<path d="M4603.6,1817.4c2.3-2.3,4.1-4.1,5.4-5.4c1.3-1.3,2.2-2.1,2.6-2.4c2-1.7,4.2-3.1,6.6-4c2.4-0.9,4.7-1.4,7-1.4
			c3.9,0,7.2,1.1,10,3.4c2.8,2.3,4.7,5.5,5.6,9.8c2.3-2.7,4.4-4.9,6.3-6.7c1.9-1.8,3.7-3.1,5.4-4c1.7-0.9,3.4-1.6,4.9-2
			c1.6-0.4,3.2-0.6,4.9-0.6c2.3,0,4.4,0.4,6.4,1.2c2,0.8,3.7,2.1,5.2,3.8c1.5,1.8,2.6,4.2,3.5,7.1c0.8,3,1.3,6.6,1.3,11v26.5
			c0,2.2,0.1,4.1,0.2,5.7c0.1,1.6,0.5,2.9,1.1,3.9c0.7,1,1.6,1.8,3,2.2c1.3,0.5,3.2,0.7,5.7,0.7v1.9h-31v-2h1.3c1.6,0,3-0.1,4.1-0.4
			c1.1-0.3,2-0.8,2.7-1.6c0.7-0.8,1.2-2,1.5-3.5s0.4-3.6,0.4-6.1v-26.7c0-3-0.2-5.4-0.7-7.3c-0.5-1.9-1.1-3.4-2-4.6
			c-0.9-1.1-1.9-1.9-3.2-2.4c-1.3-0.4-2.7-0.7-4.3-0.7c-1.2,0-2.4,0.1-3.5,0.4c-1.1,0.2-2.3,0.7-3.6,1.3c-1.2,0.6-2.6,1.5-4,2.6
			c-1.4,1.1-3,2.7-4.8,4.9v32c0,2.2,0,4,0.1,5.2c0.1,1.2,0.2,2.2,0.5,2.8c0.3,0.6,0.6,1.1,1,1.5c0.4,0.3,1,0.7,1.7,1.1
			c1.3,0.7,3.5,1,6.7,1v2.4h-32v-2.4c2.4,0,4.3-0.2,5.6-0.5c1.4-0.3,2.4-0.9,3-1.8c0.6-0.9,1-2.1,1.2-3.6c0.1-1.5,0.2-3.4,0.2-5.7
			v-26.7c0-2.8-0.2-5.2-0.7-7.1c-0.5-1.9-1.2-3.4-2.1-4.6c-0.9-1.2-2-2-3.3-2.5c-1.3-0.5-2.6-0.7-4.2-0.7c-1.5,0-3,0.3-4.6,0.8
			c-1.5,0.5-3,1.2-4.4,2c-1.4,0.8-2.7,1.7-3.9,2.7c-1.2,1-2.2,2-2.9,2.9v33.1c0,2.1,0.1,3.8,0.2,5c0.1,1.3,0.3,2.3,0.6,3
			c0.3,0.7,0.6,1.3,1,1.7c0.4,0.4,0.9,0.7,1.4,1c1.1,0.6,3.3,0.9,6.7,0.9v2.4h-30v-2.4c2,0,3.6-0.2,4.7-0.5c1.2-0.3,2.1-0.9,2.7-1.8
			c0.6-0.9,1.1-2.1,1.2-3.5c0.2-1.5,0.3-3.4,0.3-5.9v-23.7c0-4.1-0.1-7.2-0.2-9.5c-0.1-2.3-0.4-4-0.7-5.2c-0.4-1.1-0.8-1.9-1.4-2.1
			c-0.6-0.3-1.4-0.4-2.3-0.4c-0.6,0-1.2,0.1-1.9,0.3c-0.7,0.2-1.5,0.4-2.4,0.8l-1-2.4l17.7-7.6h3.2V1817.4z"/>
	</g>
	<g>
		<path d="M6767,705.8c2.5-6.1,5.8-10.9,9.8-14.2c4-3.3,8.9-5,14.9-5c3.1,0,5.9,0.5,8.5,1.5c2.6,1,4.8,2.4,6.7,4.1
			c1.9,1.7,3.3,3.7,4.4,5.9c1,2.2,1.6,4.6,1.6,7c0,6.7-4.1,13.5-12.4,20.6c5.7,2.2,9.9,5.3,12.7,9.4c2.8,4,4.2,8.8,4.2,14.4
			c0,4.6-0.9,8.9-2.6,12.7c-1.7,3.9-4.1,7.2-7.3,10.1c-3.1,2.8-6.9,5-11.3,6.6c-4.4,1.6-9.3,2.4-14.7,2.4c-3.1,0-5.7-0.2-7.8-0.7
			c-2-0.4-3.7-1-4.9-1.7c-1.2-0.7-2-1.5-2.5-2.3c-0.5-0.8-0.7-1.7-0.7-2.6c0-1.6,0.6-2.8,1.9-3.7c1.2-0.8,2.7-1.3,4.5-1.3
			c0.4,0,0.8,0,1.1,0.1c0.3,0.1,0.8,0.2,1.3,0.4c0.5,0.2,1.2,0.5,2,0.9c0.8,0.4,1.9,1,3.3,1.7c1.6,0.9,2.9,1.5,3.9,2
			c1,0.4,1.9,0.8,2.6,1c0.7,0.2,1.4,0.3,2,0.3c0.7,0,1.5,0,2.4,0c2.3,0,4.4-0.5,6.5-1.5c2-1,3.8-2.3,5.4-3.9
			c1.6-1.6,2.8-3.5,3.7-5.7c0.9-2.2,1.4-4.4,1.4-6.8c0-1.5-0.2-3-0.5-4.6c-0.3-1.6-0.8-3.1-1.4-4.6c-0.6-1.5-1.2-2.8-2-4
			c-0.7-1.2-1.5-2.2-2.4-3c-0.9-0.9-2.1-1.7-3.5-2.6c-1.4-0.8-2.9-1.6-4.5-2.3c-1.6-0.7-3.3-1.2-5-1.6c-1.7-0.4-3.4-0.6-5.1-0.6
			h-2.2v-2c3.4-0.5,6.4-1.4,9-2.8c2.6-1.4,4.8-3,6.5-4.9c1.7-1.9,3.1-4,4-6.4c0.9-2.3,1.4-4.7,1.4-7.1c0-2.3-0.4-4.4-1.2-6.3
			c-0.8-1.9-1.9-3.5-3.2-4.9c-1.3-1.4-2.9-2.4-4.8-3.2c-1.9-0.7-3.8-1.1-5.9-1.1c-7,0-12.7,3.7-17.3,11.1L6767,705.8z"/>
		<path d="M6893.9,745.4v10h-12v24h-11v-24h-39v-8.6l42.5-60.4h7.5v59H6893.9z M6869.9,745.4v-45.5l-32.2,45.5H6869.9z"/>
		<path d="M7016.4,686.4l2.1,31h-2.1c-2.8-9.3-6.8-16-11.9-20.1c-5.1-4.1-11.3-6.1-18.5-6.1c-4.7,0-9,0.9-12.9,2.7
			c-3.9,1.8-7.3,4.5-10.2,8.2c-2.8,3.7-5.1,8.3-6.7,13.8c-1.6,5.6-2.4,12.1-2.4,19.7c0,6.1,0.8,11.6,2.3,16.6
			c1.5,5,3.7,9.2,6.6,12.7c2.9,3.5,6.5,6.2,10.7,8.1c4.2,1.9,9.1,2.9,14.5,2.9c5.8,0,11-1.3,15.7-3.8c4.5-2.3,9.5-7.4,14.9-15
			l2.1,1.3c-4.6,8.1-9.9,14-16,17.8c-6.1,3.8-13.3,5.7-21.7,5.7c-6.5,0-12.4-1.1-17.9-3.4c-5.4-2.3-10.1-5.5-14-9.6
			c-3.9-4.1-7-9-9.2-14.6c-2.2-5.7-3.3-11.9-3.3-18.6c0-9.2,2-17.5,6.1-25.1c4-7.6,9.6-13.5,16.8-17.7c7.2-4.2,15-6.3,23.5-6.3
			c6.6,0,13.1,1.6,19.5,4.8c1.9,1,3.2,1.5,4,1.5c1.5,0,2.7-0.6,3.7-1.8c1-1.2,1.7-2.7,2.1-4.5H7016.4z"/>
		<path d="M7048.9,728.6c2.3-2.3,4.1-4.1,5.4-5.4c1.3-1.3,2.2-2.1,2.6-2.4c2-1.7,4.2-3.1,6.6-4c2.4-0.9,4.7-1.4,7-1.4
			c3.9,0,7.2,1.1,10,3.4c2.8,2.3,4.7,5.5,5.6,9.8c2.3-2.7,4.4-4.9,6.3-6.7c1.9-1.8,3.7-3.1,5.4-4c1.7-0.9,3.4-1.6,4.9-2
			c1.6-0.4,3.2-0.6,4.9-0.6c2.3,0,4.4,0.4,6.4,1.2c2,0.8,3.7,2.1,5.2,3.8c1.5,1.8,2.6,4.2,3.5,7.1c0.8,3,1.3,6.6,1.3,11v27.3
			c0,2,0,3.7,0.1,5.1c0.1,1.4,0.4,2.6,1,3.5c0.6,0.9,1.5,1.6,2.7,2c1.2,0.4,2.9,0.6,5.1,0.6v2.4h-31v-2h1.3c1.6,0,3-0.1,4.1-0.4
			c1.1-0.3,2-0.8,2.7-1.6c0.7-0.8,1.2-2,1.5-3.5s0.4-3.6,0.4-6.1v-26.7c0-3-0.2-5.4-0.7-7.3c-0.5-1.9-1.1-3.4-2-4.6
			c-0.9-1.1-1.9-1.9-3.2-2.4c-1.3-0.4-2.7-0.7-4.3-0.7c-1.2,0-2.4,0.1-3.5,0.4c-1.1,0.2-2.3,0.7-3.6,1.3c-1.2,0.6-2.6,1.5-4,2.6
			c-1.4,1.1-3,2.7-4.8,4.9v32c0,2.2,0,4,0.1,5.2c0.1,1.2,0.2,2.2,0.5,2.8c0.3,0.6,0.6,1.1,1,1.5c0.4,0.3,1,0.7,1.7,1.1
			c1.3,0.7,3.5,1,6.7,1v2.4h-31v-2.4c2.4,0,4.3-0.2,5.7-0.5c1.4-0.3,2.4-0.9,3-1.8c0.6-0.9,1-2.1,1.1-3.6c0.1-1.5,0.2-3.4,0.2-5.7
			v-26.5c0-2.8-0.2-5.2-0.7-7.1s-1.2-3.4-2.1-4.6c-0.9-1.2-2-2-3.3-2.5c-1.3-0.5-2.6-0.7-4.2-0.7c-1.5,0-3,0.3-4.6,0.8
			c-1.5,0.5-3,1.2-4.4,2c-1.4,0.8-2.7,1.7-3.9,2.7s-2.2,2-2.9,2.9v33c0,2.1,0.1,3.8,0.2,5c0.1,1.3,0.3,2.3,0.6,3
			c0.3,0.7,0.6,1.3,1.1,1.7c0.4,0.4,0.9,0.7,1.4,1c1.1,0.6,3.3,0.9,6.7,0.9v2.4h-31v-2.4c2,0,3.6-0.2,4.7-0.5
			c1.2-0.3,2.1-0.9,2.7-1.8c0.6-0.9,1.1-2.1,1.2-3.5c0.2-1.5,0.3-3.4,0.3-5.9v-23.7c0-4.1-0.1-7.2-0.2-9.5c-0.1-2.3-0.4-4-0.7-5.2
			c-0.4-1.1-0.8-1.9-1.4-2.1c-0.6-0.3-1.4-0.4-2.3-0.4c-0.6,0-1.2,0.1-1.9,0.3c-0.7,0.2-1.5,0.4-2.4,0.8l-1-2.4l17.7-7.6h4.2V728.6z
			"/>
	</g>
</g>
<g id="SOPORTE-PARED">
</g>
<g id="MEDIDAS">
</g>
<g id="PROCESOS">
</g>
</svg>
