<?xml version="1.0" encoding="utf-8"?>
<!-- Generator: Adobe Illustrator 26.5.0, SVG Export Plug-In . SVG Version: 6.00 Build 0)  -->
<svg version="1.1" xmlns="http://www.w3.org/2000/svg" xmlns:xlink="http://www.w3.org/1999/xlink" x="0px" y="0px"
	 viewBox="0 0 5922.9 2911.1" style="enable-background:new 0 0 5922.9 2911.1;" xml:space="preserve">
<style type="text/css">
	.st0{fill:#FFFFFF;}
	.st1{fill:#EAEAEA;stroke:#000000;stroke-width:13.9944;stroke-miterlimit:10;}
	.st2{fill:#CCCCCC;stroke:#000000;stroke-width:9.2534;stroke-miterlimit:10;}
	.st3{fill:#CCCCCC;stroke:#000000;stroke-width:9.0246;stroke-miterlimit:10;}
	.st4{fill:#EAEAEA;stroke:#000000;stroke-width:13.0549;stroke-miterlimit:10;}
	.st5{fill:#EAEAEA;stroke:#000000;stroke-width:14.0923;stroke-miterlimit:10;}
	.st6{fill:#DBDBDB;stroke:#000000;stroke-width:9.2534;stroke-miterlimit:10;}
	.st7{fill:#E8E8E8;stroke:#000000;stroke-width:9.2534;stroke-miterlimit:10;}
</style>
<g id="CIRCULOS-SELECCION1">
	<g id="_x31_">
		<g>
			<circle class="st0" cx="541.2" cy="2620.7" r="138"/>
			<path d="M541.2,2486.2c35.9,0,69.7,14,95.1,39.4c25.4,25.4,39.4,59.2,39.4,95.1s-14,69.7-39.4,95.1
				c-25.4,25.4-59.2,39.4-95.1,39.4s-69.7-14-95.1-39.4c-25.4-25.4-39.4-59.2-39.4-95.1s14-69.7,39.4-95.1
				C471.5,2500.2,505.3,2486.2,541.2,2486.2 M541.2,2479.2c-78.1,0-141.5,63.4-141.5,141.5s63.4,141.5,141.5,141.5
				s141.5-63.4,141.5-141.5S619.4,2479.2,541.2,2479.2L541.2,2479.2z"/>
		</g>
		<g id="PRIMERO">
			<path d="M501.2,2690.1l0.5-7.3l33.4-5.1v-116.8h-31.6l0.6-7.4l47.1-7.8h3.3v132.7l32.7,3.4l-1.1,8.4H501.2z"/>
		</g>
	</g>
	<g id="_x32_">
		<g>
			<circle class="st0" cx="1471.2" cy="2620.7" r="138"/>
			<g>
				<path d="M1471.2,2486.2c35.9,0,69.7,14,95.1,39.4c25.4,25.4,39.4,59.2,39.4,95.1s-14,69.7-39.4,95.1
					c-25.4,25.4-59.2,39.4-95.1,39.4s-69.7-14-95.1-39.4c-25.4-25.4-39.4-59.2-39.4-95.1s14-69.7,39.4-95.1
					C1401.5,2500.2,1435.3,2486.2,1471.2,2486.2 M1471.2,2479.2c-78.1,0-141.5,63.4-141.5,141.5s63.4,141.5,141.5,141.5
					s141.5-63.4,141.5-141.5S1549.4,2479.2,1471.2,2479.2L1471.2,2479.2z"/>
			</g>
		</g>
		<g id="SEGUNDO">
			<path d="M1420.7,2681.4l29.1-24.9c7.6-6.5,13.9-12.3,18.9-17.4s9.5-10.5,13.5-16.1s7-11.4,8.9-17.1c1.9-5.7,2.8-11.8,2.8-18.2
				c0-10-2.1-18.3-6.3-25c-4.2-6.6-10.8-9.9-19.8-9.9c-6.1,0-11.3,1.3-15.7,3.8c-4.4,2.5-7.5,5.6-9.5,9.3l-5,29.4l-7-1l-1.2-32.8
				c3.5-4.7,9.5-9,17.9-12.8c8.5-3.8,17.1-5.7,26-5.7c12.9,0,23,3.6,30.5,10.9c7.5,7.2,11.2,17.8,11.2,31.7c0,3.2-0.3,6.3-0.8,9.4
				c-0.5,3.1-1.4,6.2-2.7,9.3c-1.3,3.1-2.6,5.9-3.8,8.5c-1.3,2.6-3.1,5.4-5.6,8.5c-2.5,3.1-4.6,5.8-6.3,8c-1.8,2.2-4.3,4.9-7.8,8.1
				c-3.4,3.2-6.1,5.8-8.2,7.6c-2,1.9-5.1,4.5-9.3,7.9s-7.3,6-9.3,7.6c-2.1,1.7-5.4,4.3-9.9,8l-9.6,7.6h60.9l11.6-29.7l6.7,1
				l-5.7,43.1h-93.6L1420.7,2681.4z"/>
		</g>
	</g>
	<g id="_x33_">
		<g>
			<circle class="st0" cx="2436.2" cy="2620.7" r="138"/>
			<g>
				<path d="M2436.2,2486.2c35.9,0,69.7,14,95.1,39.4c25.4,25.4,39.4,59.2,39.4,95.1s-14,69.7-39.4,95.1
					c-25.4,25.4-59.2,39.4-95.1,39.4s-69.7-14-95.1-39.4c-25.4-25.4-39.4-59.2-39.4-95.1s14-69.7,39.4-95.1
					C2366.5,2500.2,2400.3,2486.2,2436.2,2486.2 M2436.2,2479.2c-78.1,0-141.5,63.4-141.5,141.5s63.4,141.5,141.5,141.5
					c78.1,0,141.5-63.4,141.5-141.5S2514.4,2479.2,2436.2,2479.2L2436.2,2479.2z"/>
			</g>
		</g>
		<g id="TERCERO">
			<path d="M2394,2679.2l5.5-32.1l8.2,1.3l1.2,24.9c1.9,3.3,5,6.1,9.5,8.7c4.4,2.5,9.2,3.8,14.3,3.8c9.4,0,16.9-2.8,22.6-8.5
				c5.7-5.7,8.6-13.2,8.6-22.8c0-9.3-3.9-16.9-11.6-22.8c-7.7-5.9-17.5-9-29.4-9.3l-0.7-6.1c2-0.9,3.9-1.7,5.5-2.5
				c1.6-0.8,3.8-1.9,6.4-3.4c2.6-1.5,5-3,7-4.5c2-1.5,4.1-3.3,6.4-5.5c2.3-2.2,4.2-4.4,5.6-6.7c1.5-2.3,2.7-4.9,3.7-7.8
				s1.5-6,1.5-9.2c0-6.7-1.9-12.6-5.8-17.7c-3.9-5.1-9.3-7.7-16.4-7.7c-8.1,0-14.9,3.3-20.6,9.8l-5.2,27.3l-7.8-1.3l-0.9-30.3
				c3.7-3.6,9.3-6.9,16.5-9.9c7.3-3.1,15.4-4.6,24.2-4.6c10.4,0,19.1,2.8,26,8.4c6.9,5.6,10.4,13.1,10.4,22.3c0,4.7-1,9.2-3,13.5
				c-2,4.3-4.6,8.1-7.9,11.2s-6.8,5.9-10.5,8.2c-3.7,2.3-7.5,4.2-11.4,5.6v1.2c11.3,1.6,20.5,5.5,27.7,11.7
				c7.2,6.2,10.7,14,10.7,23.4c0,8.6-2.5,16.5-7.6,23.6c-5,7.1-11.7,12.7-19.9,16.6c-8.2,3.9-17,5.9-26.4,5.9
				c-8.2,0-15.7-1.5-22.6-4.5C2400.9,2686.8,2396.3,2683.3,2394,2679.2z"/>
		</g>
	</g>
	<g id="_x34_">
		<g>
			<circle class="st0" cx="3366.2" cy="2620.7" r="138"/>
			<g>
				<path d="M3366.2,2486.2c35.9,0,69.7,14,95.1,39.4c25.4,25.4,39.4,59.2,39.4,95.1s-14,69.7-39.4,95.1
					c-25.4,25.4-59.2,39.4-95.1,39.4s-69.7-14-95.1-39.4c-25.4-25.4-39.4-59.2-39.4-95.1s14-69.7,39.4-95.1
					C3296.5,2500.2,3330.3,2486.2,3366.2,2486.2 M3366.2,2479.2c-78.1,0-141.5,63.4-141.5,141.5s63.4,141.5,141.5,141.5
					s141.5-63.4,141.5-141.5S3444.4,2479.2,3366.2,2479.2L3366.2,2479.2z"/>
			</g>
		</g>
		<g id="CUARTO">
			<path d="M3304.2,2639.6l75.3-94.7l6,1.8c-0.7,14.5-1.1,34.5-1.1,60.2v27h31.1l-2,12.8h-29.2v32.7l25.1,3.1l-1.3,7.8H3336l0.9-7
				l30.2-4.6v-32.5h-60.4L3304.2,2639.6z M3322.3,2633.9h44.2v-59.3L3322.3,2633.9z"/>
		</g>
	</g>
	<g id="_x35_">
		<g>
			<circle class="st0" cx="4350.2" cy="2620.7" r="138"/>
			<g>
				<path d="M4350.2,2486.2c35.9,0,69.7,14,95.1,39.4c25.4,25.4,39.4,59.2,39.4,95.1s-14,69.7-39.4,95.1
					c-25.4,25.4-59.2,39.4-95.1,39.4s-69.7-14-95.1-39.4c-25.4-25.4-39.4-59.2-39.4-95.1s14-69.7,39.4-95.1
					C4280.5,2500.2,4314.3,2486.2,4350.2,2486.2 M4350.2,2479.2c-78.1,0-141.5,63.4-141.5,141.5s63.4,141.5,141.5,141.5
					s141.5-63.4,141.5-141.5S4428.4,2479.2,4350.2,2479.2L4350.2,2479.2z"/>
			</g>
		</g>
		<g id="QUINTO">
			<path d="M4308.8,2681.9l3.4-34.3l8.2,1.7l2.2,24.4c6.4,7.9,14.9,11.8,25.4,11.8c8.7,0,15.6-2.8,20.8-8.4s7.7-13,7.7-22.2
				c0-12-5-21.5-15.1-28.4c-10.1-6.9-23.9-10.9-41.6-12l14-64.9l54.8-3.3l-2.6,18.2l-47,2.1l-5.4,31.9c10.5,0.7,19.7,2.4,27.6,5.2
				c7.9,2.8,14.3,6.5,19,10.9c4.7,4.5,8.2,9.5,10.6,15c2.3,5.5,3.5,11.5,3.5,18.1c0,12.8-4.9,23.8-14.8,33
				c-9.9,9.2-22.2,13.9-36.8,13.9C4328.9,2694.6,4317.6,2690.3,4308.8,2681.9z"/>
		</g>
	</g>
	<g id="_x36_">
		<g>
			<circle class="st0" cx="5315.2" cy="2620.7" r="138"/>
			<g>
				<path d="M5315.2,2486.2c35.9,0,69.7,14,95.1,39.4c25.4,25.4,39.4,59.2,39.4,95.1s-14,69.7-39.4,95.1
					c-25.4,25.4-59.2,39.4-95.1,39.4s-69.7-14-95.1-39.4c-25.4-25.4-39.4-59.2-39.4-95.1s14-69.7,39.4-95.1
					C5245.5,2500.2,5279.3,2486.2,5315.2,2486.2 M5315.2,2479.2c-78.1,0-141.5,63.4-141.5,141.5s63.4,141.5,141.5,141.5
					c78.1,0,141.5-63.4,141.5-141.5S5393.4,2479.2,5315.2,2479.2L5315.2,2479.2z"/>
			</g>
		</g>
		<g id="SEXTO">
			<path d="M5268.4,2638.6c0-20.4,6.8-40,20.3-58.6c13.6-18.6,30.1-31.3,49.7-38.1l3.5,6.1c-28.5,12.7-46,35.3-52.5,67.7h1.1
				c8.8-8.1,19.2-12.2,31.1-12.2c11.7,0,21.1,3.9,28.2,11.8c7.1,7.9,10.6,18.1,10.6,30.5c0,13.4-4.6,24.6-13.9,33.4
				c-9.2,8.9-20.5,13.3-33.9,13.3c-7.7,0-14.5-1.5-20.4-4.4s-10.5-6.9-13.9-12c-3.4-5.1-6-10.8-7.6-17.1
				C5269.2,2652.9,5268.4,2646,5268.4,2638.6z M5288.3,2640.5c0,12.7,2.5,23.3,7.6,31.7c5,8.4,11.3,12.6,18.8,12.6
				c17.3,0,26-11.5,26-34.5c0-10-2.4-18.5-7.3-25.3s-11.7-10.3-20.5-10.3c-5.2,0-10,1-14.5,3c-4.4,2-7.5,4.2-9.2,6.7
				C5288.6,2628.1,5288.3,2633.6,5288.3,2640.5z"/>
		</g>
	</g>
</g>
<g id="CLOSET">
	<g id="LATERAL-DERECHA">
		<polygon class="st1" points="5726.4,2014.2 5193.7,1897.9 5195.7,292.2 5726.4,293.4 		"/>
		<rect x="5727" y="290.2" class="st1" width="103.6" height="1722"/>
	</g>
	<g id="TABLITA-TRASERA-ESCONDIDA">
		<polygon class="st2" points="295.1,1926.5 236.1,1926.5 236.2,200.7 295.2,216.7 		"/>
		<polygon class="st2" points="236.6,1924 140.6,1900 140.2,175.7 236.2,200.7 		"/>
	</g>
	<g id="TABLITA-TRASERA">
		<rect x="5289.5" y="290.2" class="st3" width="59" height="1626"/>
		<polygon class="st3" points="5290,1913.8 5194,1891 5193.8,290.7 5290,291.1 		"/>
		<path d="M5225.5,472.9c10.6,10.9,26.4,9.9,35.3-2.2c8.8-12.2,7.4-30.9-3.2-41.8s-26.4-9.9-35.3,2.2
			C5213.4,443.3,5214.9,462,5225.5,472.9z M5233.2,436.6c0.6-0.5,0.9,0.1,0.9,0.1s2.4,2.8,4.7,5.3c2.8,2.3,4.4,0.2,4.4,0.2
			s4.2-5.2,4.5-5.6c0.4-0.4,0.8,0.1,0.8,0.1l1.2,1.4c0,0,2.8,3.2,3.2,3.7c0.3,0.6,0.1,1,0.1,1s-2.6,3.1-4.3,5.5
			c-1.6,2.6,0.2,5.3,0.2,5.3l2.5,2.8c0,0,2,2.2,2.4,2.8c0.3,0.7,0,1,0,1s-3.5,4.3-3.9,4.9c-0.4,0.6-1.1,0-1.1,0s-2.8-3.3-4.8-5.5
			c-2.2-2-4.4,0-4.4,0s-3.9,4.9-4.3,5.4c-0.6,0.2-0.8-0.1-0.8-0.1s-3.6-4.1-4.2-4.9c-0.7-0.8-0.2-1.4-0.2-1.4l3.4-4.3
			c2.5-3,0.7-6.1,0.7-6.1l-4.8-5.5c0,0-0.5-0.6-0.3-1.2C5229.3,441.6,5232.6,437.2,5233.2,436.6z"/>
		<path d="M5225.5,1842.6c10.6,10.9,26.4,9.9,35.3-2.2c8.8-12.2,7.4-30.9-3.2-41.8s-26.4-9.9-35.3,2.2
			C5213.4,1813,5214.9,1831.7,5225.5,1842.6z M5233.2,1806.2c0.6-0.5,0.9,0.1,0.9,0.1s2.4,2.8,4.7,5.3c2.8,2.3,4.4,0.2,4.4,0.2
			s4.2-5.2,4.5-5.6c0.4-0.4,0.8,0.1,0.8,0.1l1.2,1.4c0,0,2.8,3.2,3.2,3.7c0.3,0.6,0.1,1,0.1,1s-2.6,3.1-4.3,5.5
			c-1.6,2.6,0.2,5.3,0.2,5.3l2.5,2.8c0,0,2,2.2,2.4,2.8c0.3,0.7,0,1,0,1s-3.5,4.3-3.9,4.9c-0.4,0.6-1.1,0-1.1,0s-2.8-3.3-4.8-5.5
			c-2.2-2-4.4,0-4.4,0s-3.9,4.9-4.3,5.4c-0.6,0.2-0.8-0.1-0.8-0.1s-3.6-4.1-4.2-4.9c-0.7-0.8-0.2-1.4-0.2-1.4l3.4-4.3
			c2.5-3,0.7-6.1,0.7-6.1l-4.8-5.5c0,0-0.5-0.6-0.3-1.2C5229.3,1811.2,5232.6,1806.8,5233.2,1806.2z"/>
		<path d="M5225.5,1047.2c10.6,10.9,26.4,9.9,35.3-2.2c8.8-12.2,7.4-30.9-3.2-41.8s-26.4-9.9-35.3,2.2
			C5213.4,1017.6,5214.9,1036.3,5225.5,1047.2z M5233.2,1010.9c0.6-0.5,0.9,0.1,0.9,0.1s2.4,2.8,4.7,5.3c2.8,2.3,4.4,0.2,4.4,0.2
			s4.2-5.2,4.5-5.6c0.4-0.4,0.8,0.1,0.8,0.1l1.2,1.4c0,0,2.8,3.2,3.2,3.7c0.3,0.6,0.1,1,0.1,1s-2.6,3.1-4.3,5.5
			c-1.6,2.6,0.2,5.3,0.2,5.3l2.5,2.8c0,0,2,2.2,2.4,2.8c0.3,0.7,0,1,0,1s-3.5,4.3-3.9,4.9c-0.4,0.6-1.1,0-1.1,0s-2.8-3.3-4.8-5.5
			c-2.2-2-4.4,0-4.4,0s-3.9,4.9-4.3,5.4c-0.6,0.2-0.8-0.1-0.8-0.1s-3.6-4.1-4.2-4.9c-0.7-0.8-0.2-1.4-0.2-1.4l3.4-4.3
			c2.5-3,0.7-6.1,0.7-6.1l-4.8-5.5c0,0-0.5-0.6-0.3-1.2C5229.2,1015.9,5232.6,1011.5,5233.2,1010.9z"/>
	</g>
	<g id="BASE">
		<polyline class="st1" points="5182.4,1891 673.5,1897.2 5181.8,1891 5726.9,2011.7 590.8,2012 590.8,1902.9 672.4,1898.2 		"/>
		<rect x="595.1" y="2012.2" class="st1" width="5234.8" height="86.5"/>
		<polyline class="st1" points="584.4,2012 120.4,1897 120.4,1976 584.4,2097 585,2011.7 		"/>
	</g>
	<g id="DIVISIONES-VERTICALES">
		<g id="DIVISION-VERTICAL-DERECHA">
			<polygon class="st1" points="4457.1,2011.9 3991,1896.9 3992.2,290.7 4457.1,290.9 			"/>
			<rect x="4457" y="290.7" class="st1" width="90" height="1722"/>
		</g>
		<g id="DIVISION-CENTRAL">
			<polygon class="st1" points="3171.2,2011.9 2705.2,1896.9 2706.2,290.7 3171.2,290.9 			"/>
			<rect x="3170.5" y="290.7" class="st1" width="90" height="1722"/>
		</g>
		<g id="DIVISION-VERTICAL-IZQUIERDA_00000085229740836627909760000005526871516412138418_">
			<polygon class="st1" points="1849.1,2012.3 1383.1,1897.3 1384.2,291.7 1849.1,291.3 			"/>
			<rect x="1848" y="291.7" class="st1" width="90" height="1719.6"/>
		</g>
	</g>
	<g id="DIVISIONES-HORIZONTALES">
		<g id="DIVISION-HORIZONTAL-EXTREMA-IZQUIERDA">
			<polygon class="st1" points="676.2,1131.7 1733.3,1132.2 1383.2,1041.7 675.2,1041.2 			"/>
			<rect x="675.7" y="1128.9" class="st1" width="1058" height="84.7"/>
		</g>
		<g id="DIVISION-HORIZONTAL-INTERNA-IZQUIERDA">
			<polygon class="st1" points="1938.9,1136 3015.2,1136.5 2720.2,1045.7 1938,1045.5 			"/>
			<rect x="1938.5" y="1133.2" class="st1" width="1077.3" height="84.7"/>
		</g>
		<g id="DIVISION-HORIZONTAL-INTERNA-DERECHA">
			<polygon class="st1" points="3261.5,1140.7 4318.6,1141.2 3968.6,1050.7 3260.6,1050.2 			"/>
			<rect x="3261" y="1137.9" class="st1" width="1058" height="84.7"/>
		</g>
		<g id="DIVISION-HORIZONTAL-EXTREMA-DERECHA">
			<polygon class="st1" points="4546.8,1145.7 5722.5,1146.2 5346.2,1055.7 4545.7,1055.2 			"/>
			<rect x="4546.2" y="1142.9" class="st1" width="1176.8" height="84.7"/>
		</g>
	</g>
	<g id="LATERAL-IZQUIERDA">
		<polygon class="st1" points="586.1,2012.7 120,1897.7 121.1,170.2 586.1,291.7 		"/>
		<rect x="585" y="293.7" class="st1" width="90" height="1718"/>
	</g>
	<g id="TECHO">
		<polygon class="st4" points="585,291.7 121.1,170.7 121.1,91.7 585,206.7 		"/>
		<rect x="591.9" y="206.7" class="st5" width="5239.2" height="85"/>
		<polyline class="st1" points="114.7,89.7 585.6,207.2 5831.7,206.4 5282.5,85.7 114.7,89.7 5283.1,85.7 		"/>
	</g>
	<g id="TABLITA-PUERTA">
		<g>
			<rect x="3111.7" y="290.7" class="st2" width="59" height="1709.5"/>
			<polygon class="st2" points="3112.2,1997.7 3016.2,1973.7 3016,291.2 3112.2,291.7 			"/>
		</g>
		<path d="M3048.2,396c10.6,11.5,26.4,10.4,35.3-2.3c8.8-12.8,7.4-32.4-3.2-43.9c-10.6-11.5-26.4-10.4-35.3,2.3
			C3036.1,364.9,3037.5,384.5,3048.2,396z M3055.9,357.8c0.6-0.5,0.9,0.1,0.9,0.1s2.4,2.9,4.7,5.6c2.8,2.4,4.4,0.2,4.4,0.2
			s4.2-5.4,4.5-5.8c0.4-0.4,0.8,0.1,0.8,0.1l1.2,1.5c0,0,2.8,3.4,3.2,3.9c0.3,0.6,0.1,1.1,0.1,1.1s-2.6,3.2-4.3,5.8
			c-1.6,2.7,0.2,5.6,0.2,5.6l2.5,3c0,0,2,2.3,2.4,2.9c0.3,0.7,0,1.1,0,1.1s-3.5,4.6-3.9,5.2c-0.4,0.6-1.1,0.1-1.1,0.1
			s-2.8-3.5-4.8-5.8c-2.2-2.1-4.4,0.1-4.4,0.1s-3.9,5.1-4.3,5.6c-0.6,0.2-0.8-0.1-0.8-0.1s-3.6-4.3-4.2-5.1
			c-0.7-0.8-0.2-1.5-0.2-1.5l3.4-4.5c2.5-3.2,0.7-6.4,0.7-6.4l-4.8-5.8c0,0-0.5-0.6-0.3-1.3C3051.9,363,3055.3,358.4,3055.9,357.8z"
			/>
		<path d="M3048.4,1214.7c10.6,11.5,26.4,10.4,35.3-2.3c8.8-12.8,7.4-32.4-3.2-43.9s-26.4-10.4-35.3,2.3
			C3036.4,1183.5,3037.8,1203.2,3048.4,1214.7z M3056.1,1176.4c0.6-0.5,0.9,0.1,0.9,0.1s2.4,2.9,4.7,5.6c2.8,2.4,4.4,0.2,4.4,0.2
			s4.2-5.4,4.5-5.8c0.4-0.4,0.8,0.1,0.8,0.1l1.2,1.5c0,0,2.8,3.4,3.2,3.9c0.3,0.6,0.1,1.1,0.1,1.1s-2.6,3.2-4.3,5.8
			c-1.6,2.7,0.2,5.6,0.2,5.6l2.5,3c0,0,2,2.3,2.4,2.9c0.3,0.7,0,1.1,0,1.1s-3.5,4.6-3.9,5.2c-0.4,0.6-1.1,0.1-1.1,0.1
			s-2.8-3.5-4.8-5.8c-2.2-2.1-4.4,0.1-4.4,0.1s-3.9,5.1-4.3,5.6c-0.6,0.2-0.8-0.1-0.8-0.1s-3.6-4.3-4.2-5.1
			c-0.7-0.8-0.2-1.5-0.2-1.5l3.4-4.5c2.5-3.2,0.7-6.4,0.7-6.4l-4.8-5.8c0,0-0.5-0.6-0.3-1.3
			C3052.2,1181.7,3055.6,1177.1,3056.1,1176.4z"/>
		<path d="M3048.4,1943.7c10.6,11.5,26.4,10.4,35.3-2.3c8.8-12.8,7.4-32.4-3.2-43.9s-26.4-10.4-35.3,2.3
			C3036.4,1912.5,3037.8,1932.2,3048.4,1943.7z M3056.1,1905.4c0.6-0.5,0.9,0.1,0.9,0.1s2.4,2.9,4.7,5.6c2.8,2.4,4.4,0.2,4.4,0.2
			s4.2-5.4,4.5-5.8c0.4-0.4,0.8,0.1,0.8,0.1l1.2,1.5c0,0,2.8,3.4,3.2,3.9c0.3,0.6,0.1,1.1,0.1,1.1s-2.6,3.2-4.3,5.8
			c-1.6,2.7,0.2,5.6,0.2,5.6l2.5,3c0,0,2,2.3,2.4,2.9c0.3,0.7,0,1.1,0,1.1s-3.5,4.6-3.9,5.2c-0.4,0.6-1.1,0.1-1.1,0.1
			s-2.8-3.5-4.8-5.8c-2.2-2.1-4.4,0.1-4.4,0.1s-3.9,5.1-4.3,5.6c-0.6,0.2-0.8-0.1-0.8-0.1s-3.6-4.3-4.2-5.1
			c-0.7-0.8-0.2-1.5-0.2-1.5l3.4-4.5c2.5-3.2,0.7-6.4,0.7-6.4l-4.8-5.8c0,0-0.5-0.6-0.3-1.3
			C3052.2,1910.7,3055.6,1906.1,3056.1,1905.4z"/>
	</g>
	<g id="SOPORTES-COOK">
		<polygon class="st6" points="4222.2,1284.8 4222.2,1315.6 4281,1315.6 4281,1282.6 4281,1223.5 4199.3,1223.5 4199.3,1255.2 
			4222.2,1255.4 		"/>
		<polygon class="st6" points="5396.9,1280.7 5396.9,1307.4 5445.8,1307.4 5445.8,1278.8 5445.8,1227.8 5377.8,1227.8 
			5377.8,1255.2 5396.9,1255.4 		"/>
		<polygon class="st6" points="5585,1289.5 5585,1320.4 5643.8,1320.4 5643.8,1287.3 5643.8,1228.3 5562.1,1228.3 5562.1,1259.9 
			5585,1260.2 		"/>
		<polygon class="st7" points="1429.8,1266.5 1429.8,1293.2 1478.7,1293.2 1478.7,1264.6 1478.7,1213.6 1410.7,1213.6 1410.7,1241 
			1429.8,1241.2 		"/>
		<polygon class="st7" points="1618,1275.3 1618,1306.2 1676.7,1306.2 1676.7,1273.1 1676.7,1214 1595,1214 1595,1245.7 1618,1246 
					"/>
		<polygon class="st6" points="2741.3,1268.7 2741.3,1295.4 2790.2,1295.4 2790.2,1266.8 2790.2,1215.8 2722.2,1215.8 
			2722.2,1243.2 2741.3,1243.4 		"/>
		<polygon class="st6" points="2929.5,1277.5 2929.5,1308.4 2988.2,1308.4 2988.2,1275.3 2988.2,1216.3 2906.5,1216.3 
			2906.5,1247.9 2929.5,1248.2 		"/>
		<polygon class="st6" points="4034.1,1276 4034.1,1302.6 4083,1302.6 4083,1274.1 4083,1223.1 4015,1223.1 4015,1250.4 
			4034.1,1250.6 		"/>
		<polygon class="st7" points="749.2,1245.4 728.4,1245.7 728.4,1275 728.4,1305.9 675.2,1305.9 675.2,1272.8 675.2,1213.7 
			749.2,1213.7 		"/>
		<polygon class="st7" points="2012.3,1248.4 1991.5,1248.7 1991.5,1278 1991.5,1308.9 1938.3,1308.9 1938.3,1275.8 1938.3,1216.8 
			2012.3,1216.8 		"/>
		<polygon class="st6" points="3333.7,1254.4 3312.9,1254.7 3312.9,1284 3312.9,1314.9 3259.7,1314.9 3259.7,1281.8 3259.7,1222.8 
			3333.7,1222.8 		"/>
		<polygon class="st6" points="4620.3,1259.9 4599.5,1260.2 4599.5,1289.5 4599.5,1320.4 4546.3,1320.4 4546.3,1287.3 
			4546.3,1228.3 4620.3,1228.3 		"/>
	</g>
</g>
</svg>
