<?xml version="1.0" encoding="utf-8"?>
<!-- Generator: Adobe Illustrator 26.5.0, SVG Export Plug-In . SVG Version: 6.00 Build 0)  -->
<svg version="1.1" xmlns="http://www.w3.org/2000/svg" xmlns:xlink="http://www.w3.org/1999/xlink" x="0px" y="0px"
	 viewBox="0 0 8797 3235" style="enable-background:new 0 0 8797 3235;" xml:space="preserve">
<style type="text/css">
	.st0{fill:#F7F7F7;stroke:#000000;stroke-width:20.2836;stroke-miterlimit:10;}
	.st1{fill:#EAEAEA;stroke:#000000;stroke-width:20.8215;stroke-miterlimit:10;}
	.st2{fill:#F7F7F7;stroke:#000000;stroke-width:21.1893;stroke-miterlimit:10;}
	.st3{fill:#F7F7F7;stroke:#000000;stroke-width:19.3908;stroke-miterlimit:10;}
	.st4{fill:#F7F7F7;stroke:#000000;stroke-width:19.4351;stroke-miterlimit:10;}
	.st5{fill:#F7F7F7;stroke:#000000;stroke-width:19.3658;stroke-miterlimit:10;}
	.st6{fill:#F7F7F7;stroke:#000000;stroke-width:17.9043;stroke-miterlimit:10;}
	.st7{fill:#F7F7F7;stroke:#000000;stroke-width:17.6516;stroke-miterlimit:10;}
	.st8{fill:#F7F7F7;stroke:#000000;stroke-width:19.8939;stroke-miterlimit:10;}
	.st9{fill:#F7F7F7;stroke:#000000;stroke-width:19.619;stroke-miterlimit:10;}
	.st10{fill:#F7F7F7;stroke:#000000;stroke-width:17.8673;stroke-miterlimit:10;}
	.st11{fill:#F7F7F7;stroke:#000000;stroke-width:17.6204;stroke-miterlimit:10;}
	.st12{fill:#F7F7F7;stroke:#000000;stroke-width:20.1956;stroke-miterlimit:10;}
	.st13{fill:#F7F7F7;stroke:#000000;stroke-width:19.9166;stroke-miterlimit:10;}
	.st14{fill:#F7F7F7;stroke:#000000;stroke-width:18.8988;stroke-miterlimit:10;}
	.st15{fill:#DDDBDB;stroke:#000000;stroke-width:12.2651;stroke-miterlimit:10;}
	.st16{fill:#DDDBDB;stroke:#000000;stroke-width:13.3545;stroke-miterlimit:10;}
	.st17{fill:#DDDBDB;stroke:#000000;stroke-width:15.7546;stroke-miterlimit:10;}
	.st18{opacity:0.49;}
	.st19{fill:#BCBCBC;stroke:#000000;stroke-width:23.8055;stroke-miterlimit:10;}
	.st20{fill:#BCBCBC;stroke:#000000;stroke-width:19.4351;stroke-miterlimit:10;}
	.st21{fill:#BCBCBC;stroke:#000000;stroke-width:19.4598;stroke-miterlimit:10;}
	.st22{opacity:0.49;fill:#C9C7C7;stroke:#FD2929;stroke-width:66.9529;stroke-miterlimit:10;}
	.st23{fill:#FFFFFF;}
</style>
<g id="CIRCULOS-SELECCION4">
</g>
<g id="CLOSET">
	<g id="LATERAL-DERECHA">
		<path class="st0" d="M8330.4,2925.8"/>
		<polyline class="st0" points="8141.7,2880.6 7669.9,2777.5 7672.8,236.7 8462.5,390.3 8462.5,2950.5 		"/>
		<rect x="8464.9" y="391.4" class="st1" width="154.1" height="2559.1"/>
	</g>
	<g id="BASE">
		<polyline class="st2" points="8464.8,2951.3 823.1,2951.7 823.1,2789.4 944.5,2782.4 		"/>
		<polyline class="st2" points="1082.2,2780.7 7653.8,2771.7 8135.7,2879.1 		"/>
		<line class="st2" x1="7654.7" y1="2771.7" x2="1082.2" y2="2780.7"/>
		<rect x="829.4" y="2952" class="st1" width="7788.6" height="128.7"/>
		<polyline class="st3" points="813.5,2951.7 123.2,2780.6 123.2,2898.1 813.5,3078.2 814.4,2951.3 		"/>
	</g>
	<g id="DIVISIONES-VERTICALES">
		<g id="DIVISION-VERTICAL-DERECHA">
			<polygon class="st4" points="6575.4,2951.6 5882,2780.5 5883.6,210.3 6575.4,391 			"/>
			<rect x="6573.8" y="264.6" class="st5" width="134" height="2685.6"/>
		</g>
		<g id="DIVISION-CENTRAL">
			<polygon class="st4" points="4662.3,2951.6 3968.9,2780.5 3970.5,210.3 4662.3,391 			"/>
			<rect x="4660.7" y="264.6" class="st5" width="134" height="2685.6"/>
		</g>
		<g id="DIVISION-VERTICAL-IZQUIERDA_00000085229740836627909760000005526871516412138418_">
			<polygon class="st4" points="2695.2,2952.2 2001.8,2781.1 2003.4,210.8 2695.2,391.6 			"/>
			<rect x="2693.6" y="265.1" class="st5" width="134" height="2685.6"/>
		</g>
	</g>
	<g id="DIVISIONES-HORIZONTALES">
		<g id="DIVISION-HORIZONTAL-EXTREMA-IZQUIERDA">
			<polyline class="st6" points="1083.1,1641.9 2522.9,1642.7 2046.2,1508.1 1081.8,1507.3 			"/>
			<polyline class="st7" points="1083.3,1637.8 2523.6,1637.8 2523.6,1763.9 1083.3,1763.9 			"/>
		</g>
		<g id="DIVISION-HORIZONTAL-INTERNA-DERECHA">
			<polygon class="st8" points="4795.5,1665.8 6573.1,1666.6 5984.6,1531.9 4794,1531.2 			"/>
			<rect x="4794.8" y="1661.7" class="st9" width="1779.2" height="126"/>
		</g>
		<g id="DIVISION-HORIZONTAL-EXTREMA-DERECHA">
			<polygon class="st10" points="6708.6,1662.8 8142.5,1663.6 7683.6,1528.9 6707.4,1528.2 			"/>
			<rect x="6708" y="1658.7" class="st11" width="1435.2" height="126"/>
		</g>
		<g id="DIVISION-HORIZONTAL-INTERNA-IZQUIERDA_00000054254641889117512190000003647137643466809518_">
			<polygon class="st12" points="2828.7,1684.7 4660.6,1685.5 4158.4,1550.3 2827.1,1550.1 			"/>
			<rect x="2827.9" y="1680.6" class="st13" width="1833.6" height="126"/>
		</g>
	</g>
	<g id="LATERAL-IZQUIERDA">
		<polygon class="st4" points="816,2952.8 122.6,2781.7 124.2,211.4 816,392.2 		"/>
		<rect x="814.4" y="393.7" class="st14" width="134" height="2557.6"/>
	</g>
	<g id="TECHO">
		<polygon class="st1" points="814.4,392.2 124.2,212.1 124.2,94.6 814.4,265.7 		"/>
		<rect x="824.7" y="265.7" class="st1" width="7795.1" height="126.5"/>
		<polyline class="st1" points="114.7,91.6 815.2,266.5 8620.7,265.3 7803.5,85.7 114.7,91.6 7804.4,85.7 		"/>
	</g>
	<g id="SOPORTES-COOK">
		<g>
			<polygon class="st15" points="6383.9,1828.7 6418,1829.1 6418,1872.7 6418,1918.6 6505.4,1918.6 6505.4,1869.4 6505.4,1781.6 
				6383.9,1781.6 			"/>
			<polygon class="st15" points="7719.2,1825.7 7747.6,1826 7747.6,1863.8 7747.6,1903.4 7820.4,1903.4 7820.4,1860.9 7820.4,1785 
				7719.2,1785 			"/>
			<polygon class="st15" points="7963.6,1785.7 7963.6,1832.7 7997.8,1833.1 7997.8,1876.8 7997.8,1922.7 8085.2,1922.7 
				8085.2,1873.5 8085.2,1785.7 			"/>
			<polygon class="st15" points="2043,1804.5 2071.4,1804.9 2071.4,1842.6 2071.4,1882.3 2144.2,1882.3 2144.2,1839.8 
				2144.2,1763.9 2043,1763.9 			"/>
			<polygon class="st15" points="2317.2,1811.6 2351.3,1812 2351.3,1855.7 2351.3,1901.6 2438.7,1901.6 2438.7,1852.4 
				2438.7,1764.5 2317.2,1764.5 			"/>
			<polygon class="st15" points="6109.7,1821.6 6138.1,1821.9 6138.1,1859.7 6138.1,1899.3 6210.9,1899.3 6210.9,1856.8 
				6210.9,1780.9 6109.7,1780.9 			"/>
			<polygon class="st16" points="4257.9,1882.2 4257.9,1921.9 4344.2,1921.9 4344.2,1879.4 4344.2,1803.5 4224.3,1803.5 
				4224.3,1844.2 4257.9,1844.5 			"/>
			<polygon class="st17" points="4501.5,1898.3 4501.5,1944.2 4605.2,1944.2 4605.2,1895 4605.2,1807.1 4461.1,1807.1 
				4461.1,1854.2 4501.5,1854.6 			"/>
		</g>
	</g>
</g>
<g id="TABLITAS-TRASERAS">
	<g id="TABLITA-TRASERA-IZQUIERDA" class="st18">
		<rect x="948.5" y="394.1" class="st19" width="122.6" height="2558"/>
	</g>
	<g id="TABLITA-TRASERA-DERECHA" class="st18">
		<path class="st20" d="M8341.9,396v1.5l1,0l-1.2,2533v3v-4.5c0,2.2,9.7,1.5,11.9,1.5h111.6c2.2,0-1.5-12.7-1.5-14.9l0.7-2515.6
			c0-2.2-1.8-4-4-4H8341.9z"/>
		<path class="st21" d="M8143.1,400.7l0.7,2465.3c0,1.8-0.2,14.8,1.5,15.3l193.4,42.2c2.6,0.7,2.2,1.2,3-3.6l2.2-2518.6
			c0-2.2-1.8-4-4.1-4l-192.8-0.7C8144.9,396.7,8143.1,398.5,8143.1,400.7z"/>
	</g>
</g>
<g id="TRIPLEX_00000062169277959621118470000012963048032068378272_">
	<rect id="TRIPLEX" x="948.7" y="393.7" class="st22" width="7516.6" height="2556.1"/>
</g>
<g id="PUNTILLAS">
	<circle cx="2760.9" cy="451.7" r="29"/>
	<circle cx="2760.9" cy="1186.7" r="29"/>
	<circle cx="2760.9" cy="2107.7" r="29"/>
	<circle cx="2760.9" cy="2875.4" r="29"/>
	<circle cx="4723.3" cy="448.7" r="29"/>
	<circle cx="4723.3" cy="1183.7" r="29"/>
	<circle cx="4723.3" cy="2104.7" r="29"/>
	<circle cx="4723.3" cy="2872.4" r="29"/>
	<circle cx="6641.2" cy="460.6" r="29"/>
	<circle cx="6641.2" cy="1195.6" r="29"/>
	<circle cx="6641.2" cy="2116.6" r="29"/>
	<circle cx="6641.2" cy="2884.3" r="29"/>
	<circle cx="8404.3" cy="454.7" r="29"/>
	<circle cx="8404.3" cy="1189.7" r="29"/>
	<circle cx="8404.3" cy="2110.6" r="29"/>
	<circle cx="8404.3" cy="2878.4" r="29"/>
	<circle cx="1010.4" cy="2108.4" r="29"/>
	<circle cx="1010.4" cy="2876.1" r="29"/>
	<circle cx="1010.4" cy="452.4" r="29"/>
	<circle cx="1010.4" cy="1187.4" r="29"/>
</g>
<g id="SOPORTE-MUEBLE">
	<rect id="COLGADOR-1" x="947.9" y="394.4" class="st4" width="7518.1" height="416.6"/>
	<g id="TORNILLOS-COLGADOR">
		<circle cx="8404.3" cy="482.9" r="46.9"/>
		<circle cx="6641.2" cy="468.1" r="46.9"/>
		<circle cx="4724.8" cy="478.5" r="46.9"/>
		<circle cx="2760.9" cy="480" r="46.9"/>
		<circle cx="1009.7" cy="480" r="46.9"/>
		<path class="st23" d="M4738.2,453.1l-8.1,10.4c0,0-4.6,4.2-9.6-0.1l-7.1-5.7c0,0-1.1-0.8-2.2,0.7c-1.1,1.5-7.2,9.2-7.2,9.2
			s-0.5,0.6-0.1,1.6c0.8,0.6,8.9,7.1,8.9,7.1s3.4,3.8,0.6,8.5c-3.2,4.2-8.1,10.4-8.1,10.4s-0.7,1.4,0.2,2.1c0.9,0.7,8.1,6.5,8.1,6.5
			s0.6,0.5,1.6-0.1c0.8-1,4.1-5.2,4.1-5.2l4.2-5.4c0,0,4-4,8.3-1.4c4.1,2.8,9.1,7.1,9.1,7.1s0.7,0.3,1.6-0.4c0.7-0.9,5.4-7,5.4-7
			l2.1-2.7c0,0,0.7-1,0-1.6c-0.6-0.6-9.2-7.5-9.2-7.5s-3.4-2.7-0.1-8.6c3.7-4.9,7.9-10.1,7.9-10.1s0.8-0.8,0-1.8
			c-1-1-8.3-6.5-8.5-6.8C4739.1,452,4738.2,453.1,4738.2,453.1z"/>
		<path class="st23" d="M1035.3,492.9l-10.1-8.5c0,0-4-4.7,0.5-9.6l5.9-6.9c0,0,0.8-1.1-0.6-2.3s-8.9-7.5-8.9-7.5s-0.6-0.5-1.6-0.1
			c-0.7,0.8-7.4,8.6-7.4,8.6s-3.9,3.2-8.6,0.2c-4.1-3.3-10-8.5-10-8.5s-1.4-0.8-2.1,0.1s-6.8,7.9-6.8,7.9s-0.6,0.6,0.1,1.6
			c1,0.9,5.1,4.3,5.1,4.3l5.2,4.4c0,0,3.9,4.2,1.1,8.3c-3,4-7.4,8.9-7.4,8.9s-0.3,0.7,0.3,1.6c0.9,0.8,6.7,5.7,6.7,5.7l2.6,2.2
			c0,0,1,0.7,1.6,0.1c0.6-0.6,7.9-8.9,7.9-8.9s2.9-3.3,8.6,0.2c4.8,3.9,9.8,8.3,9.8,8.3s0.8,0.8,1.8,0.1c1-1,6.9-8,7.1-8.2
			C1036.4,493.8,1035.3,492.9,1035.3,492.9z"/>
		<path class="st23" d="M2770.5,506.5l-1.4-13.1c0,0,0.4-6.2,6.9-6.6l9-0.9c0,0,1.3-0.2,1.1-2.1c-0.2-1.8-1.2-11.6-1.2-11.6
			s-0.1-0.7-1.1-1.2c-1,0.1-11.3,1.1-11.3,1.1s-5.1-0.4-6.4-5.7c-0.6-5.2-1.4-13.1-1.4-13.1s-0.4-1.5-1.6-1.3
			c-1.1,0.2-10.3,1-10.3,1s-0.8,0-1.1,1.2c0.1,1.3,0.7,6.6,0.7,6.6l0.7,6.8c0,0-0.1,5.7-5,6.8c-4.9,0.8-11.5,1.3-11.5,1.3
			s-0.7,0.3-0.9,1.4c0.1,1.1,0.9,8.8,0.9,8.8l0.4,3.4c0,0,0.2,1.2,1.1,1.2s11.8-1,11.8-1s4.3-0.4,6.1,6.1c0.7,6.1,1.4,12.7,1.4,12.7
			s0,1.1,1.3,1.3c1.4,0,10.5-1.1,10.8-1C2770.6,507.8,2770.5,506.5,2770.5,506.5z"/>
		<path class="st23" d="M6633.3,494.5l6.7-11.4c0,0,4-4.7,9.5-1.2l7.8,4.7c0,0,1.2,0.6,2.1-1c0.9-1.6,5.9-10.1,5.9-10.1
			s0.4-0.6-0.2-1.6c-0.9-0.5-9.8-5.8-9.8-5.8s-3.9-3.3-1.7-8.4c2.6-4.6,6.6-11.3,6.6-11.3s0.5-1.5-0.5-2s-8.9-5.3-8.9-5.3
			s-0.7-0.5-1.6,0.4c-0.7,1.1-3.4,5.7-3.4,5.7l-3.4,5.9c0,0-3.5,4.5-8,2.5c-4.4-2.3-10-5.8-10-5.8s-0.7-0.2-1.5,0.6
			c-0.6,1-4.5,7.6-4.5,7.6l-1.7,2.9c0,0-0.5,1.1,0.2,1.6c0.7,0.5,10.1,6.2,10.1,6.2s3.7,2.3,1.3,8.5c-3,5.4-6.4,11.1-6.4,11.1
			s-0.7,0.9,0.2,1.8c1.1,0.8,9.1,5.4,9.3,5.6C6632.6,495.7,6633.3,494.5,6633.3,494.5z"/>
		<path class="st23" d="M8413.6,508.9l-1.4-13.1c0,0,0.4-6.2,6.9-6.6l9-0.9c0,0,1.3-0.2,1.1-2.1c-0.2-1.8-1.2-11.6-1.2-11.6
			s-0.1-0.7-1.1-1.2c-1,0.1-11.3,1.1-11.3,1.1s-5.1-0.4-6.4-5.7c-0.6-5.2-1.4-13.1-1.4-13.1s-0.4-1.5-1.6-1.3
			c-1.1,0.2-10.3,1-10.3,1s-0.8,0-1.1,1.2c0.1,1.3,0.7,6.6,0.7,6.6l0.7,6.8c0,0-0.1,5.7-5,6.8c-4.9,0.8-11.5,1.3-11.5,1.3
			s-0.7,0.3-0.9,1.4c0.1,1.1,0.9,8.8,0.9,8.8l0.4,3.4c0,0,0.2,1.2,1.1,1.2c0.9,0,11.8-1,11.8-1s4.3-0.4,6.1,6.1
			c0.7,6.1,1.4,12.7,1.4,12.7s0,1.1,1.3,1.3c1.4,0,10.5-1.1,10.8-1C8413.7,510.2,8413.6,508.9,8413.6,508.9z"/>
	</g>
</g>
<g id="SOPORTE-PARED">
</g>
<g id="MEDIDAS">
</g>
<g id="PROCESOS">
</g>
</svg>
