<?xml version="1.0" encoding="utf-8"?>
<!-- Generator: Adobe Illustrator 26.5.0, SVG Export Plug-In . SVG Version: 6.00 Build 0)  -->
<svg version="1.1" xmlns="http://www.w3.org/2000/svg" xmlns:xlink="http://www.w3.org/1999/xlink" x="0px" y="0px"
	 viewBox="0 0 5922.9 6112.1" style="enable-background:new 0 0 5922.9 6112.1;" xml:space="preserve">
<style type="text/css">
	.stc0{fill:#FFFFFF;}
	.stc1{fill:#F7F7F7;stroke:#000000;stroke-width:13.6329;stroke-miterlimit:10;}
	.stc2{fill:#EAEAEA;stroke:#000000;stroke-width:13.9944;stroke-miterlimit:10;}
	.stc3{fill:#F7F7F7;stroke:#000000;stroke-width:14.2417;stroke-miterlimit:10;}
	.stc4{fill:#F7F7F7;stroke:#000000;stroke-width:13.0328;stroke-miterlimit:10;}
	.stc5{fill:#F7F7F7;stroke:#000000;stroke-width:13.0626;stroke-miterlimit:10;}
	.stc6{fill:#F7F7F7;stroke:#000000;stroke-width:13.016;stroke-miterlimit:10;}
	.stc7{fill:#F7F7F7;stroke:#000000;stroke-width:12.0337;stroke-miterlimit:10;}
	.stc8{fill:#F7F7F7;stroke:#000000;stroke-width:11.8639;stroke-miterlimit:10;}
	.stc9{fill:#F7F7F7;stroke:#000000;stroke-width:13.371;stroke-miterlimit:10;}
	.stc10{fill:#F7F7F7;stroke:#000000;stroke-width:13.1862;stroke-miterlimit:10;}
	.stc11{fill:#F7F7F7;stroke:#000000;stroke-width:12.0088;stroke-miterlimit:10;}
	.stc12{fill:#F7F7F7;stroke:#000000;stroke-width:11.8429;stroke-miterlimit:10;}
	.stc13{fill:#F7F7F7;stroke:#000000;stroke-width:13.5737;stroke-miterlimit:10;}
	.stc14{fill:#F7F7F7;stroke:#000000;stroke-width:13.3862;stroke-miterlimit:10;}
	.stc15{fill:#F7F7F7;stroke:#000000;stroke-width:12.7022;stroke-miterlimit:10;}
	.stc16{fill:#DDDBDB;stroke:#000000;stroke-width:8.2435;stroke-miterlimit:10;}
	.stc17{fill:#DDDBDB;stroke:#000000;stroke-width:8.9757;stroke-miterlimit:10;}
	.stc18{fill:#DDDBDB;stroke:#000000;stroke-width:10.5889;stroke-miterlimit:10;}
	.stc19{opacity:0.49;}
	.stc20{fill:#BCBCBC;stroke:#000000;stroke-width:16;stroke-miterlimit:10;}
	.stc21{fill:#BCBCBC;stroke:#000000;stroke-width:13.0626;stroke-miterlimit:10;}
	.stc22{fill:#BCBCBC;stroke:#000000;stroke-width:13.0792;stroke-miterlimit:10;}
	.stc23{opacity:0.49;fill:#C9C7C7;}
	.stc24{fill:#F7F7F7;stroke:#000000;stroke-width:11.4288;stroke-miterlimit:10;}
	.stc25{fill:#E6E6E6;stroke:#000000;stroke-width:9;stroke-miterlimit:10;}
	.stc26{fill:#E6E6E6;stroke:#000000;stroke-width:9.6383;stroke-miterlimit:10;}
	.stc27{fill:#F7F7F7;stroke:#000000;stroke-width:13.1125;stroke-miterlimit:10;}
	.stc28{fill:none;stroke:#000000;stroke-width:18;stroke-miterlimit:10;}
	.stc29{fill:none;stroke:#000000;stroke-width:14;stroke-miterlimit:10;}
	
		.stc30{clip-path:url(#SVGID_00000175290729260217075780000012961704250788079507_);fill:#F7F7F7;stroke:#000000;stroke-width:23.229;stroke-miterlimit:10;}
	
		.stc31{clip-path:url(#SVGID_00000175290729260217075780000012961704250788079507_);fill:#F7F7F7;stroke:#000000;stroke-width:22.588;stroke-miterlimit:10;}
	
		.stc32{clip-path:url(#SVGID_00000175290729260217075780000012961704250788079507_);fill:#EAEAEA;stroke:#000000;stroke-width:24.8859;stroke-miterlimit:10;}
	.stc33{clip-path:url(#SVGID_00000175290729260217075780000012961704250788079507_);}
	.stc34{opacity:0.49;clip-path:url(#SVGID_00000175290729260217075780000012961704250788079507_);}
	.stc35{fill:#BCBCBC;stroke:#000000;stroke-width:28.4525;stroke-miterlimit:10;}
	.stc36{opacity:0.49;clip-path:url(#SVGID_00000175290729260217075780000012961704250788079507_);fill:#C9C7C7;}
	
		.st37{clip-path:url(#SVGID_00000175290729260217075780000012961704250788079507_);fill:none;stroke:#000000;stroke-width:18.3247;stroke-miterlimit:10;}
	.stc38{fill:none;stroke:#000000;stroke-width:18.3247;stroke-miterlimit:10;}
	.stc39{fill:none;stroke:#000000;stroke-width:14.9205;stroke-miterlimit:10;}
	
		.stc40{clip-path:url(#SVGID_00000065789857612728236010000013617627466778022794_);fill:#F7F7F7;stroke:#000000;stroke-width:24.3561;stroke-miterlimit:10;}
	
		.stc41{clip-path:url(#SVGID_00000065789857612728236010000013617627466778022794_);fill:#EAEAEA;stroke:#000000;stroke-width:23.9332;stroke-miterlimit:10;}
	
		.stc42{clip-path:url(#SVGID_00000065789857612728236010000013617627466778022794_);fill:#F7F7F7;stroke:#000000;stroke-width:22.3397;stroke-miterlimit:10;}
	
		.stc43{clip-path:url(#SVGID_00000065789857612728236010000013617627466778022794_);fill:#F7F7F7;stroke:#000000;stroke-width:22.26;stroke-miterlimit:10;}
	.stc44{opacity:0.49;clip-path:url(#SVGID_00000065789857612728236010000013617627466778022794_);fill:#C9C7C7;}
	
		.stc45{clip-path:url(#SVGID_00000065789857612728236010000013617627466778022794_);fill:none;stroke:#000000;stroke-width:17.6231;stroke-miterlimit:10;}
	.stc46{clip-path:url(#SVGID_00000065789857612728236010000013617627466778022794_);}
	.stc47{fill:none;stroke:#000000;stroke-width:17.6231;stroke-miterlimit:10;}
	.stc48{fill:none;stroke:#000000;stroke-width:8.8692;stroke-miterlimit:10;}
	
		.stc49{clip-path:url(#SVGID_00000126301748880580735370000012572459034334529697_);fill:none;stroke:#000000;stroke-width:17.6598;stroke-miterlimit:10;}
	
		.stc50{clip-path:url(#SVGID_00000126301748880580735370000012572459034334529697_);fill:#F7F7F7;stroke:#000000;stroke-width:18.5788;stroke-miterlimit:10;}
	.stc51{clip-path:url(#SVGID_00000126301748880580735370000012572459034334529697_);}
	.stc52{fill:#E6E6E6;stroke:#000000;stroke-width:17.9201;stroke-miterlimit:10;}
	.stc53{fill:#E6E6E6;stroke:#000000;stroke-width:19.1912;stroke-miterlimit:10;}
	.stc54{fill:#F7F7F7;stroke:#000000;stroke-width:26.1087;stroke-miterlimit:10;}
	.stc55{fill:none;stroke:#000000;stroke-width:17.6598;stroke-miterlimit:10;}
</style>
<g id="CIRCULOS-SELECCION4">
	<g id="_x31_">
		<g>
			<circle class="stc0" cx="1601.2" cy="5760.7" r="138"/>
			<path d="M1601.2,5626.2c35.9,0,69.7,14,95.1,39.4c25.4,25.4,39.4,59.2,39.4,95.1s-14,69.7-39.4,95.1
				c-25.4,25.4-59.2,39.4-95.1,39.4s-69.7-14-95.1-39.4c-25.4-25.4-39.4-59.2-39.4-95.1s14-69.7,39.4-95.1
				C1531.5,5640.2,1565.3,5626.2,1601.2,5626.2 M1601.2,5619.2c-78.1,0-141.5,63.4-141.5,141.5s63.4,141.5,141.5,141.5
				s141.5-63.4,141.5-141.5S1679.4,5619.2,1601.2,5619.2L1601.2,5619.2z"/>
		</g>
		<g id="PRIMERO">
			<path d="M1561.2,5830.1l0.5-7.3l33.4-5.1v-116.8h-31.6l0.6-7.4l47.1-7.8h3.3v132.7l32.7,3.4l-1.1,8.4H1561.2z"/>
		</g>
	</g>
	<g id="_x32_">
		<g>
			<circle class="stc0" cx="2531.2" cy="5760.7" r="138"/>
			<g>
				<path d="M2531.2,5626.2c35.9,0,69.7,14,95.1,39.4c25.4,25.4,39.4,59.2,39.4,95.1s-14,69.7-39.4,95.1
					c-25.4,25.4-59.2,39.4-95.1,39.4s-69.7-14-95.1-39.4c-25.4-25.4-39.4-59.2-39.4-95.1s14-69.7,39.4-95.1
					C2461.5,5640.2,2495.3,5626.2,2531.2,5626.2 M2531.2,5619.2c-78.1,0-141.5,63.4-141.5,141.5s63.4,141.5,141.5,141.5
					c78.1,0,141.5-63.4,141.5-141.5S2609.4,5619.2,2531.2,5619.2L2531.2,5619.2z"/>
			</g>
		</g>
		<g id="SEGUNDO">
			<path d="M2480.7,5821.4l29.1-24.9c7.6-6.5,13.9-12.3,18.9-17.4s9.5-10.5,13.5-16.1s7-11.4,8.9-17.1c1.9-5.7,2.8-11.8,2.8-18.2
				c0-10-2.1-18.3-6.3-25c-4.2-6.6-10.8-9.9-19.8-9.9c-6.1,0-11.3,1.3-15.7,3.8c-4.4,2.5-7.5,5.6-9.5,9.3l-5,29.4l-7-1l-1.2-32.8
				c3.5-4.7,9.5-9,17.9-12.8c8.5-3.8,17.1-5.7,26-5.7c12.9,0,23,3.6,30.5,10.9c7.5,7.2,11.2,17.8,11.2,31.7c0,3.2-0.3,6.3-0.8,9.4
				c-0.5,3.1-1.4,6.2-2.7,9.3c-1.3,3.1-2.6,5.9-3.8,8.5c-1.3,2.6-3.1,5.4-5.6,8.5c-2.5,3.1-4.6,5.8-6.3,8c-1.8,2.2-4.3,4.9-7.8,8.1
				c-3.4,3.2-6.1,5.8-8.2,7.6c-2,1.9-5.1,4.5-9.3,7.9s-7.3,6-9.3,7.6c-2.1,1.7-5.4,4.3-9.9,8l-9.6,7.6h60.9l11.6-29.7l6.7,1
				l-5.7,43.1h-93.6L2480.7,5821.4z"/>
		</g>
	</g>
	<g id="_x33_">
		<g>
			<circle class="st0" cx="3496.2" cy="5760.7" r="138"/>
			<g>
				<path d="M3496.2,5626.2c35.9,0,69.7,14,95.1,39.4c25.4,25.4,39.4,59.2,39.4,95.1s-14,69.7-39.4,95.1
					c-25.4,25.4-59.2,39.4-95.1,39.4s-69.7-14-95.1-39.4c-25.4-25.4-39.4-59.2-39.4-95.1s14-69.7,39.4-95.1
					C3426.5,5640.2,3460.3,5626.2,3496.2,5626.2 M3496.2,5619.2c-78.1,0-141.5,63.4-141.5,141.5s63.4,141.5,141.5,141.5
					s141.5-63.4,141.5-141.5S3574.4,5619.2,3496.2,5619.2L3496.2,5619.2z"/>
			</g>
		</g>
		<g id="TERCERO">
			<path d="M3454,5819.2l5.5-32.1l8.2,1.3l1.2,24.9c1.9,3.3,5,6.1,9.5,8.7c4.4,2.5,9.2,3.8,14.3,3.8c9.4,0,16.9-2.8,22.6-8.5
				c5.7-5.7,8.6-13.2,8.6-22.8c0-9.3-3.9-16.9-11.6-22.8c-7.7-5.9-17.5-9-29.4-9.3l-0.7-6.1c2-0.9,3.9-1.7,5.5-2.5
				c1.6-0.8,3.8-1.9,6.4-3.4c2.6-1.5,5-3,7-4.5c2-1.5,4.1-3.3,6.4-5.5c2.3-2.2,4.2-4.4,5.6-6.7c1.5-2.3,2.7-4.9,3.7-7.8
				s1.5-6,1.5-9.2c0-6.7-1.9-12.6-5.8-17.7c-3.9-5.1-9.3-7.7-16.4-7.7c-8.1,0-14.9,3.3-20.6,9.8l-5.2,27.3l-7.8-1.3l-0.9-30.3
				c3.7-3.6,9.3-6.9,16.5-9.9c7.3-3.1,15.4-4.6,24.2-4.6c10.4,0,19.1,2.8,26,8.4c6.9,5.6,10.4,13.1,10.4,22.3c0,4.7-1,9.2-3,13.5
				c-2,4.3-4.6,8.1-7.9,11.2s-6.8,5.9-10.5,8.2c-3.7,2.3-7.5,4.2-11.4,5.6v1.2c11.3,1.6,20.5,5.5,27.7,11.7
				c7.2,6.2,10.7,14,10.7,23.4c0,8.6-2.5,16.5-7.6,23.6c-5,7.1-11.7,12.7-19.9,16.6c-8.2,3.9-17,5.9-26.4,5.9
				c-8.2,0-15.7-1.5-22.6-4.5C3460.9,5826.8,3456.3,5823.3,3454,5819.2z"/>
		</g>
	</g>
	<g id="_x34_">
		<g>
			<circle class="stc0" cx="4426.2" cy="5760.7" r="138"/>
			<g>
				<path d="M4426.2,5626.2c35.9,0,69.7,14,95.1,39.4s39.4,59.2,39.4,95.1s-14,69.7-39.4,95.1s-59.2,39.4-95.1,39.4
					s-69.7-14-95.1-39.4s-39.4-59.2-39.4-95.1s14-69.7,39.4-95.1S4390.3,5626.2,4426.2,5626.2 M4426.2,5619.2
					c-78.1,0-141.5,63.4-141.5,141.5s63.4,141.5,141.5,141.5s141.5-63.4,141.5-141.5S4504.4,5619.2,4426.2,5619.2L4426.2,5619.2z"/>
			</g>
		</g>
		<g id="CUARTO">
			<path d="M4364.2,5779.6l75.3-94.7l6,1.8c-0.7,14.5-1.1,34.5-1.1,60.2v27h31.1l-2,12.8h-29.2v32.7l25.1,3.1l-1.3,7.8H4396l0.9-7
				l30.2-4.6v-32.5h-60.4L4364.2,5779.6z M4382.3,5773.9h44.2v-59.3L4382.3,5773.9z"/>
		</g>
	</g>
</g>
<g id="CLOSET">
	<g id="LATERAL-DERECHA">
		<path class="stc1" d="M5636.6,1994.6"/>
		<polyline class="stc1" points="5509.7,1964.2 5192.7,1894.9 5194.6,187.2 5725.4,290.4 5725.4,2011.2 		"/>
		<rect x="5727" y="291.2" class="stc2" width="103.6" height="1720"/>
	</g>
	<g id="BASE">
		<polyline class="stc3" points="5726.9,2011.7 590.8,2012 590.8,1902.9 672.4,1898.2 		"/>
		<polyline class="stc3" points="765,1897.1 5181.8,1891 5505.7,1963.2 		"/>
		<line class="stc3" x1="5182.4" y1="1891" x2="765" y2="1897.1"/>
		<rect x="595.1" y="2012.2" class="stc2" width="5234.8" height="86.5"/>
		<polyline class="stc4" points="584.4,2012 120.4,1897 120.4,1976 584.4,2097 585,2011.7 		"/>
	</g>
	<g id="DIVISIONES-VERTICALES">
		<g id="DIVISION-VERTICAL-DERECHA">
			<polygon class="stc5" points="4457.1,2011.9 3991,1896.9 3992.1,169.4 4457.1,290.9 			"/>
			<rect x="4456" y="205.9" class="stc6" width="90" height="1805"/>
		</g>
		<g id="DIVISION-CENTRAL">
			<polygon class="stc5" points="3171.2,2011.9 2705.2,1896.9 2706.2,169.4 3171.2,290.9 			"/>
			<rect x="3170.1" y="205.9" class="stc6" width="90" height="1805"/>
		</g>
		<g id="DIVISION-VERTICAL-IZQUIERDA_00000085229740836627909760000005526871516412138418_">
			<polygon class="stc5" points="1849.1,2012.3 1383.1,1897.3 1384.1,169.8 1849.1,291.3 			"/>
			<rect x="1848" y="206.3" class="stc6" width="90" height="1805"/>
		</g>
	</g>
	<g id="DIVISIONES-HORIZONTALES">
		<g id="DIVISION-HORIZONTAL-EXTREMA-IZQUIERDA">
			<polyline class="stc7" points="765.6,1131.7 1733.3,1132.2 1412.9,1041.7 764.7,1041.2 			"/>
			<polyline class="stc8" points="765.7,1128.9 1733.7,1128.9 1733.7,1213.6 765.7,1213.6 			"/>
		</g>
		<g id="DIVISION-HORIZONTAL-INTERNA-DERECHA">
			<polygon class="stc9" points="3260.8,1147.7 4455.5,1148.2 4059.9,1057.7 3259.7,1057.2 			"/>
			<rect x="3260.3" y="1144.9" class="stc10" width="1195.8" height="84.7"/>
		</g>
		<g id="DIVISION-HORIZONTAL-EXTREMA-DERECHA">
			<polygon class="stc11" points="4546.6,1145.7 5510.3,1146.2 5201.9,1055.7 4545.7,1055.2 			"/>
			<rect x="4546.2" y="1142.9" class="stc12" width="964.6" height="84.7"/>
		</g>
		<g id="DIVISION-HORIZONTAL-INTERNA-IZQUIERDA_00000054254641889117512190000003647137643466809518_">
			<polygon class="stc13" points="1938.8,1160.4 3170.1,1160.9 2832.6,1070.1 1937.7,1069.9 			"/>
			<rect x="1938.3" y="1157.6" class="stc14" width="1232.4" height="84.7"/>
		</g>
	</g>
	<g id="LATERAL-IZQUIERDA">
		<polygon class="stc5" points="586.1,2012.7 120,1897.7 121.1,170.2 586.1,291.7 		"/>
		<rect x="585" y="292.7" class="stc15" width="90" height="1719"/>
	</g>
	<g id="TECHO">
		<polygon class="stc2" points="585,291.7 121.1,170.7 121.1,91.7 585,206.7 		"/>
		<rect x="591.9" y="206.7" class="stc2" width="5239.2" height="85"/>
		<polyline class="stc2" points="114.7,89.7 585.6,207.2 5831.7,206.4 5282.5,85.7 114.7,89.7 5283.1,85.7 		"/>
	</g>
	<g id="SOPORTES-COOK">
		<g>
			<polygon class="stc16" points="4328.3,1257.2 4351.3,1257.4 4351.3,1286.8 4351.3,1317.6 4410,1317.6 4410,1284.6 4410,1225.5 
				4328.3,1225.5 			"/>
			<polygon class="stc16" points="5225.8,1255.2 5244.9,1255.4 5244.9,1280.7 5244.9,1307.4 5293.8,1307.4 5293.8,1278.8 
				5293.8,1227.8 5225.8,1227.8 			"/>
			<polygon class="stc16" points="5390.1,1228.3 5390.1,1259.9 5413,1260.2 5413,1289.5 5413,1320.4 5471.8,1320.4 5471.8,1287.3 
				5471.8,1228.3 			"/>
			<polygon class="stc16" points="1410.7,1241 1429.8,1241.2 1429.8,1266.5 1429.8,1293.2 1478.7,1293.2 1478.7,1264.6 
				1478.7,1213.6 1410.7,1213.6 			"/>
			<polygon class="stc16" points="1595,1245.7 1618,1246 1618,1275.3 1618,1306.2 1676.7,1306.2 1676.7,1273.1 1676.7,1214 
				1595,1214 			"/>
			<polygon class="stc16" points="4144.1,1252.4 4163.1,1252.6 4163.1,1278 4163.1,1304.6 4212,1304.6 4212,1276.1 4212,1225.1 
				4144.1,1225.1 			"/>
			<polygon class="stc17" points="2899.4,1293.2 2899.4,1319.8 2957.4,1319.8 2957.4,1291.3 2957.4,1240.3 2876.8,1240.3 
				2876.8,1267.6 2899.4,1267.8 			"/>
			<polygon class="stc18" points="3063.2,1304 3063.2,1334.8 3132.8,1334.8 3132.8,1301.7 3132.8,1242.7 3036,1242.7 3036,1274.3 
				3063.2,1274.6 			"/>
		</g>
	</g>
</g>
<g id="TABLITAS-TRASERAS">
	<g id="TABLITA-TRASERA-IZQUIERDA" class="stc19">
		<rect x="675.1" y="293" class="stc20" width="82.4" height="1719.3"/>
	</g>
	<g id="TABLITA-TRASERA-DERECHA" class="stc19">
		<path class="stc21" d="M5644.3,294.2v1l0.7,0l-0.8,1702.4v2v-3c0,1.5,6.5,1,8,1h75c1.5,0-1-8.5-1-10l0.5-1690.7
			c0-1.5-1.2-2.7-2.7-2.7H5644.3z"/>
		<path class="stc22" d="M5510.7,297.4l0.5,1656.9c0,1.2-0.2,10,1,10.3l130,28.4c1.7,0.5,1.5,0.8,2-2.4l1.5-1692.8
			c0-1.5-1.2-2.7-2.7-2.7l-129.6-0.5C5511.9,294.7,5510.7,295.9,5510.7,297.4z"/>
	</g>
</g>
<g id="TRIPLEX_00000062169277959621118470000012963048032068378272_">
	<rect id="TRIPLEX" x="675.2" y="292.7" class="stc23" width="5052" height="1718"/>
</g>
<g id="PUNTILLAS">
	<circle cx="1893.2" cy="331.7" r="19.5"/>
	<circle cx="1893.2" cy="825.7" r="19.5"/>
	<circle cx="1893.2" cy="1444.7" r="19.5"/>
	<circle cx="1893.2" cy="1960.7" r="19.5"/>
	<circle cx="3212.2" cy="329.7" r="19.5"/>
	<circle cx="3212.2" cy="823.7" r="19.5"/>
	<circle cx="3212.2" cy="1442.7" r="19.5"/>
	<circle cx="3212.2" cy="1958.7" r="19.5"/>
	<circle cx="4501.2" cy="337.7" r="19.5"/>
	<circle cx="4501.2" cy="831.7" r="19.5"/>
	<circle cx="4501.2" cy="1450.7" r="19.5"/>
	<circle cx="4501.2" cy="1966.7" r="19.5"/>
	<circle cx="5686.2" cy="333.7" r="19.5"/>
	<circle cx="5686.2" cy="827.7" r="19.5"/>
	<circle cx="5686.2" cy="1446.7" r="19.5"/>
	<circle cx="5686.2" cy="1962.7" r="19.5"/>
	<circle cx="716.7" cy="1445.2" r="19.5"/>
	<circle cx="716.7" cy="1961.2" r="19.5"/>
	<circle cx="716.7" cy="332.2" r="19.5"/>
	<circle cx="716.7" cy="826.2" r="19.5"/>
</g>
<g id="SOPORTE-MUEBLE">
	<rect id="COLGADOR-1" x="674.7" y="293.2" class="stc5" width="5053" height="280"/>
	<g id="TORNILLOS-COLGADOR">
		<circle cx="5686.2" cy="352.7" r="31.5"/>
		<circle cx="4501.2" cy="342.7" r="31.5"/>
		<circle cx="3213.2" cy="349.7" r="31.5"/>
		<circle cx="1893.2" cy="350.7" r="31.5"/>
		<circle cx="716.2" cy="350.7" r="31.5"/>
		<path class="stc0" d="M3222.2,332.6l-5.5,7c0,0-3.1,2.8-6.5,0l-4.8-3.8c0,0-0.7-0.5-1.5,0.5c-0.8,1-4.8,6.2-4.8,6.2s-0.3,0.4,0,1.1
			c0.5,0.4,6,4.8,6,4.8s2.3,2.5,0.4,5.7c-2.1,2.8-5.4,7-5.4,7s-0.5,0.9,0.1,1.4c0.6,0.5,5.5,4.3,5.5,4.3s0.4,0.4,1.1-0.1
			c0.5-0.7,2.7-3.5,2.7-3.5l2.8-3.6c0,0,2.7-2.7,5.6-1c2.7,1.9,6.1,4.8,6.1,4.8s0.5,0.2,1.1-0.3c0.5-0.6,3.6-4.7,3.6-4.7l1.4-1.8
			c0,0,0.5-0.7,0-1.1c-0.4-0.4-6.2-5-6.2-5s-2.3-1.8-0.1-5.8c2.5-3.3,5.3-6.8,5.3-6.8s0.5-0.5,0-1.2c-0.7-0.6-5.6-4.4-5.7-4.6
			C3222.8,331.9,3222.2,332.6,3222.2,332.6z"/>
		<path class="stc0" d="M733.5,359.3l-6.8-5.7c0,0-2.7-3.2,0.3-6.4l4-4.6c0,0,0.5-0.7-0.4-1.5c-0.9-0.8-6-5.1-6-5.1s-0.4-0.3-1.1-0.1
			c-0.5,0.5-5,5.8-5,5.8s-2.6,2.2-5.8,0.2c-2.7-2.2-6.7-5.7-6.7-5.7s-0.9-0.5-1.4,0.1c-0.5,0.6-4.6,5.3-4.6,5.3s-0.4,0.4,0.1,1.1
			c0.7,0.6,3.4,2.9,3.4,2.9l3.5,3c0,0,2.6,2.8,0.7,5.6c-2,2.7-5,5.9-5,5.9s-0.2,0.5,0.2,1.1c0.6,0.5,4.5,3.8,4.5,3.8l1.7,1.5
			c0,0,0.7,0.5,1.1,0.1c0.4-0.4,5.3-6,5.3-6s1.9-2.2,5.8,0.1c3.2,2.6,6.6,5.5,6.6,5.5s0.5,0.6,1.2,0.1c0.7-0.7,4.6-5.4,4.8-5.5
			C734.2,360,733.5,359.3,733.5,359.3z"/>
		<path class="stc0" d="M1899.7,368.5l-0.9-8.8c0,0,0.3-4.2,4.7-4.5l6.1-0.6c0,0,0.9-0.2,0.8-1.4c-0.1-1.2-0.8-7.8-0.8-7.8
			s-0.1-0.5-0.7-0.8c-0.7,0.1-7.6,0.7-7.6,0.7s-3.4-0.2-4.3-3.9c-0.4-3.5-0.9-8.8-0.9-8.8s-0.3-1-1.1-0.9c-0.8,0.1-6.9,0.7-6.9,0.7
			s-0.5,0-0.7,0.8c0.1,0.9,0.5,4.4,0.5,4.4l0.5,4.5c0,0-0.1,3.8-3.3,4.6c-3.3,0.5-7.7,0.8-7.7,0.8s-0.5,0.2-0.6,0.9
			c0.1,0.8,0.6,5.9,0.6,5.9l0.2,2.3c0,0,0.2,0.8,0.7,0.8c0.6,0,8-0.7,8-0.7s2.9-0.3,4.1,4.1c0.5,4.1,0.9,8.6,0.9,8.6s0,0.8,0.8,0.9
			c0.9,0,7.1-0.7,7.3-0.7C1899.8,369.4,1899.7,368.5,1899.7,368.5z"/>
		<path class="stc0" d="M4496,360.5l4.5-7.7c0,0,2.7-3.2,6.4-0.8l5.2,3.1c0,0,0.8,0.4,1.4-0.7c0.6-1.1,4-6.8,4-6.8s0.3-0.4-0.1-1.1
			c-0.6-0.4-6.6-3.9-6.6-3.9s-2.6-2.2-1.1-5.6c1.7-3.1,4.5-7.6,4.5-7.6s0.4-1-0.3-1.4c-0.7-0.4-6-3.6-6-3.6s-0.4-0.3-1.1,0.2
			c-0.5,0.7-2.3,3.9-2.3,3.9l-2.3,3.9c0,0-2.3,3-5.4,1.7c-3-1.5-6.7-3.9-6.7-3.9s-0.5-0.1-1,0.4c-0.4,0.7-3,5.1-3,5.1l-1.2,2
			c0,0-0.4,0.7,0.1,1.1c0.5,0.3,6.8,4.2,6.8,4.2s2.5,1.5,0.9,5.7c-2,3.6-4.3,7.4-4.3,7.4s-0.5,0.6,0.1,1.2c0.8,0.5,6.1,3.6,6.3,3.8
			C4495.5,361.3,4496,360.5,4496,360.5z"/>
		<path class="st0" d="M5692.5,370.1l-0.9-8.8c0,0,0.3-4.2,4.7-4.5l6.1-0.6c0,0,0.9-0.2,0.8-1.4c-0.1-1.2-0.8-7.8-0.8-7.8
			s-0.1-0.5-0.7-0.8c-0.7,0.1-7.6,0.7-7.6,0.7s-3.4-0.2-4.3-3.9c-0.4-3.5-0.9-8.8-0.9-8.8s-0.3-1-1.1-0.9s-6.9,0.7-6.9,0.7
			s-0.5,0-0.7,0.8c0.1,0.9,0.5,4.4,0.5,4.4l0.5,4.5c0,0-0.1,3.8-3.3,4.6c-3.3,0.5-7.7,0.8-7.7,0.8s-0.5,0.2-0.6,0.9
			c0.1,0.8,0.6,5.9,0.6,5.9l0.2,2.3c0,0,0.2,0.8,0.7,0.8s8-0.7,8-0.7s2.9-0.3,4.1,4.1c0.5,4.1,0.9,8.6,0.9,8.6s0,0.8,0.8,0.9
			c0.9,0,7.1-0.7,7.3-0.7C5692.6,371,5692.5,370.1,5692.5,370.1z"/>
	</g>
</g>
<g id="SOPORTE-PARED">
	
		<rect id="PARED_00000034052576289905919050000005868552616210041769_" x="302.2" y="3931.7" class="stc24" width="5397" height="1550.5"/>
	<g id="SOPORTE-PARED_00000074417353772419720460000007673287504397408398_">
		<g id="SOPORTE-PARED_00000026881553288952433760000003125116705174961595_">
			<g>
				<polygon class="stc25" points="5560,5250.7 453,5234.7 447.9,4822.2 5556.6,4832.7 				"/>
				<polygon class="stc26" points="397.6,5222.4 453.3,5232.7 447.4,4820.6 395.6,4919.3 				"/>
			</g>
		</g>
		<circle class="stc27" cx="586.7" cy="5037.2" r="29.5"/>
		<circle class="stc27" cx="2986.7" cy="5036.2" r="29.5"/>
		<circle class="stc27" cx="5421.7" cy="5036.2" r="29.5"/>
	</g>
</g>
<g id="MEDIDAS">
	<polyline class="stc28" points="3232.7,2430.2 3232.7,2367.2 3231.7,2073.2 	"/>
	<polyline class="stc28" points="5084.7,5104.7 4926.2,5104.2 4926.2,3556.2 	"/>
	<polyline class="stc28" points="404.7,476.2 191.4,476.2 191.4,2607.2 625.7,2607.2 	"/>
	<g>
		<path d="M2091.8,4100.3v70.3h-5.6c-2.5-19-8.7-33.4-18.6-43.4c-9.9-10-22.4-15-37.6-15c-5.2,0-10,0.9-14.3,2.7
			c-4.3,1.8-8.1,4.1-11.4,7.1c-3.3,2.9-5.8,6.2-7.6,10c-1.8,3.7-2.7,7.6-2.7,11.6c0,3.7,0.7,7.3,2.2,10.6c1.5,3.4,6.1,8.6,13.9,15.8
			c13,8.2,24.6,15,34.7,20.4c9.6,5.2,22.5,13.1,38.7,23.7c7,5.4,12.4,11.8,16.1,19.1c3.7,7.4,5.6,15.1,5.6,23.2
			c0,7.6-1.6,14.9-4.7,21.7c-3.1,6.9-7.5,12.9-13.1,18c-5.6,5.1-12.4,9.3-20.3,12.3c-7.9,3.1-16.6,4.6-26,4.6
			c-6,0-11.5-0.4-16.6-1.3c-0.9-0.2-3.2-0.8-7.1-1.9c-3.8-1.1-7.9-2.3-12.2-3.5c-4.3-1.2-8.4-2.3-12.1-3.4c-3.7-1-5.9-1.6-6.5-1.6
			c-2.5,0-4.5,0.7-5.9,2.2c-1.4,1.5-2.5,4.6-3.2,9.4h-5.6v-69.9h5.6c2.7,14.3,6.2,25.3,10.5,32.9c2.1,3.6,4.9,6.9,8.4,10
			c3.5,3.1,7.5,5.7,11.9,8.1c4.4,2.3,9.1,4.1,14.2,5.4c5.1,1.3,10.2,1.9,15.5,1.9c6.3,0,11.9-0.9,16.9-2.7c5-1.8,9.3-4.2,12.8-7.3
			c3.5-3.1,6.2-6.6,8.1-10.6c1.9-4,2.8-8.3,2.8-12.8c0-5.1-1.4-10.2-4.1-15.2c-2.8-5.1-7.4-10.1-14-15c-6.4-3.9-14-8.4-22.8-13.7
			c-16.9-9.7-31.9-19-45-28c-7.3-5.8-12.9-12.2-16.7-19.1s-5.7-14.7-5.7-23.2c0-7.2,1.5-14,4.5-20.5c3-6.5,7.1-12.2,12.4-17.1
			c5.3-4.9,11.6-8.8,18.9-11.6c7.3-2.8,15.2-4.3,23.7-4.3c10.7,0,22.2,2.6,34.3,7.8c2.8,1.2,5.2,2.2,7.2,2.9c1.9,0.7,3.5,1,4.7,0.9
			c2.7,0,4.8-0.7,6.5-2.2c1.6-1.5,2.9-4.6,3.8-9.4H2091.8z"/>
		<path d="M2268.5,4110.4v-5.6h71.9v5.6h-7.6c-7.8,0-13.9,3.4-18.4,10.1c-2.1,3-3.1,10.2-3.1,21.7v82.4c0,20-2.1,35.9-6.3,47.7
			c-2.1,5.7-5.1,11-9,15.9c-3.9,4.9-8.8,9.2-14.8,12.9c-6,3.7-13,6.6-20.9,8.7c-8,2.2-17.1,3.2-27.4,3.2c-11.2,0-21-1-29.3-2.9
			c-8.4-1.9-15.5-4.8-21.5-8.5c-6-3.7-10.9-8.2-14.8-13.4c-3.9-5.2-7-11.1-9.4-17.7c-3.3-9.1-4.9-25.8-4.9-50.2v-79.5
			c0-6.3-0.4-11.4-1.2-15.3c-0.8-4-2.1-7.1-3.9-9.3c-1.8-2.2-4.1-3.8-6.8-4.6c-2.8-0.8-6-1.2-9.7-1.2h-7.8v-5.6h88v5.6h-7.8
			c-3.6,0-6.7,0.4-9.4,1.1c-2.7,0.7-4.9,2.2-6.7,4.4c-1.8,2.2-3.2,5.2-4.1,9.2c-1,4-1.5,9.2-1.5,15.8v88.7c0,9,0.6,17.7,1.8,26.2
			c1.2,8.5,3.7,16.1,7.4,22.7c3.7,6.6,9.1,11.9,16,15.9c6.9,4,16.2,5.9,27.7,5.9c6.6,0,12.9-0.8,19-2.4c6.1-1.6,11.7-3.7,16.7-6.4
			c5-2.7,9.4-5.9,13.1-9.7c3.7-3.8,6.5-7.9,8.3-12.4c3.9-8.8,5.8-24.2,5.8-46.1v-82.4c0-12.5-1.4-20.5-4.3-23.7
			c-3.9-4.5-9.6-6.7-17.2-6.7H2268.5z"/>
		<path d="M2406.7,4213.1v59.1c0,13,1.4,21,4.3,24c3.9,4.3,9.6,6.5,17.2,6.5h7.8v5.6h-87.1v-5.6h7.6c8.5,0,14.6-2.8,18.4-8.3
			c2.1-3.3,3.1-10.7,3.1-22.2v-131.4c0-12.7-1.3-20.6-4-23.7c-4-4.5-9.9-6.7-17.5-6.7h-7.6v-5.6h74.6c17.9,0,32.2,1.9,43,5.8
			c5.2,1.8,10.1,4.3,14.7,7.5c4.6,3.2,8.5,7,11.9,11.4c3.4,4.4,6,9.3,7.9,14.6c1.9,5.3,2.9,11,2.9,17.1c0,8.2-1.4,15.8-4.3,22.6
			c-2.8,6.9-6.9,12.8-12.3,17.7c-5.4,4.9-11.9,8.8-19.7,11.5c-7.8,2.8-16.6,4.1-26.6,4.1C2431.2,4217.2,2419.8,4215.8,2406.7,4213.1
			z M2406.7,4204.4c5.4,1,10.1,1.8,14.1,2.4c4,0.5,7.5,0.8,10.5,0.8c5.2,0,10.1-1.1,14.8-3.2c4.6-2.2,8.7-5.1,12.2-9
			c3.5-3.8,6.3-8.4,8.3-13.8c2-5.4,3-11.2,3-17.5c0-7.5-1.1-14.1-3.4-19.9s-5.3-10.7-9.2-14.8c-3.9-4-8.4-7.1-13.7-9.2
			c-5.2-2.1-10.9-3.1-17-3.1c-5.1,0-11.6,0.9-19.7,2.7V4204.4z"/>
		<path d="M2577.5,4213.1v59.1c0,13,1.4,21,4.3,24c3.9,4.3,9.6,6.5,17.2,6.5h7.8v5.6h-87.1v-5.6h7.6c8.5,0,14.6-2.8,18.4-8.3
			c2.1-3.3,3.1-10.7,3.1-22.2v-131.4c0-12.7-1.3-20.6-4-23.7c-4-4.5-9.9-6.7-17.5-6.7h-7.6v-5.6h74.6c17.9,0,32.2,1.9,43,5.8
			c5.2,1.8,10.1,4.3,14.7,7.5c4.6,3.2,8.5,7,11.9,11.4c3.4,4.4,6,9.3,7.9,14.6c1.9,5.3,2.9,11,2.9,17.1c0,8.2-1.4,15.8-4.3,22.6
			c-2.8,6.9-6.9,12.8-12.3,17.7c-5.4,4.9-11.9,8.8-19.7,11.5c-7.8,2.8-16.6,4.1-26.6,4.1C2602.1,4217.2,2590.7,4215.8,2577.5,4213.1
			z M2577.5,4204.4c5.4,1,10.1,1.8,14.1,2.4c4,0.5,7.5,0.8,10.5,0.8c5.2,0,10.1-1.1,14.8-3.2c4.6-2.2,8.7-5.1,12.2-9
			c3.5-3.8,6.3-8.4,8.3-13.8c2-5.4,3-11.2,3-17.5c0-7.5-1.1-14.1-3.4-19.9s-5.3-10.7-9.2-14.8c-3.9-4-8.4-7.1-13.7-9.2
			c-5.2-2.1-10.9-3.1-17-3.1c-5.1,0-11.6,0.9-19.7,2.7V4204.4z"/>
		<path d="M2797.9,4100.3c13,0,25.4,2.7,37.2,8.1c11.8,5.4,22.2,12.8,31.1,22.2s16.1,20.5,21.4,33.3c5.3,12.8,7.9,26.6,7.9,41.5
			c0,15.4-2.7,29.6-7.9,42.8c-5.3,13.1-12.5,24.5-21.5,34.1c-9,9.6-19.6,17.2-31.8,22.6c-12.2,5.4-25.1,8.2-38.8,8.2
			c-13.9,0-26.9-2.6-39-7.8c-12.1-5.2-22.6-12.6-31.5-22.1c-8.9-9.5-15.9-20.8-21-33.9c-5.1-13.1-7.7-27.6-7.7-43.4
			c0-14.6,2.6-28.4,7.7-41.2c5.1-12.8,12.2-24,21.3-33.5c9-9.5,19.7-17,32.1-22.5C2769.7,4103.1,2783.2,4100.3,2797.9,4100.3z
			 M2794.9,4111.3c-10.3,0-19.4,2.2-27.4,6.6c-8,4.4-14.7,10.7-20.2,18.8c-5.5,8.1-9.6,18-12.4,29.6c-2.8,11.6-4.3,24.6-4.3,39.1
			c0,14.3,1.4,27.4,4.1,39.3c2.8,11.9,6.9,22.1,12.3,30.7c5.4,8.6,12.2,15.2,20.3,19.9c8.1,4.7,17.3,7.1,27.8,7.1
			c9.4,0,18.1-1.8,26.1-5.4c8-3.6,15-9.1,20.9-16.7c6-7.5,10.6-17.2,14-28.9c3.4-11.7,5-25.7,5-42c0-15.4-1.4-29.1-4.1-41.3
			c-2.8-12.2-6.9-22.5-12.5-30.9c-5.6-8.4-12.5-14.9-20.8-19.3C2815.4,4113.5,2805.8,4111.3,2794.9,4111.3z"/>
		<path d="M3114.9,4308.3h-54.2l-69-95.2c-2.5,0.2-4.8,0.3-6.8,0.3c-2,0.1-3.8,0.1-5.5,0.1c-1.3,0-2.8,0-4.3-0.1
			c-1.5-0.1-3.1-0.2-4.7-0.3v59.1c0,7.2,0.5,12.8,1.5,16.9c1,4.1,2.4,7.2,4.3,9.2c1.9,2,4.1,3.2,6.7,3.7c2.6,0.4,5.6,0.7,8.8,0.7
			h8.1v5.6h-87.3v-5.6h7.8c8.4,0,14.5-2.8,18.4-8.3c2.1-3.3,3.1-10.7,3.1-22.2v-131.4c0-12.5-1.4-20.5-4.3-23.7
			c-3.9-4.5-9.6-6.7-17.2-6.7h-7.8v-5.6h74.1c10.9,0,20.3,0.4,28.2,1.2c7.9,0.8,14.4,2.1,19.5,3.7c5.1,1.6,9.9,3.9,14.3,6.8
			c4.5,2.9,8.4,6.4,11.8,10.5c3.4,4.1,6,8.7,7.9,13.8c1.9,5.1,2.9,10.5,2.9,16.3c0,12.7-4,23.6-12.1,32.7
			c-8.1,9.1-20.7,15.6-37.8,19.5l41.9,58.2c4.9,6.7,9.3,12.2,13.1,16.6c3.8,4.3,7.6,7.8,11.4,10.3c3.8,2.5,7.8,4.4,12.1,5.6
			c4.3,1.2,9.3,2.1,15.1,2.7V4308.3z M2970.5,4203.7c1.9,0,3.6,0,5,0.1c1.4,0.1,2.6,0.1,3.5,0.1c9.7,0,18.2-1.1,25.5-3.4
			c7.3-2.2,13.4-5.4,18.4-9.4s8.6-8.8,11.1-14.2c2.5-5.4,3.7-11.4,3.7-17.8c0-6.3-1-12.1-3.1-17.4c-2.1-5.3-5.1-9.9-9-13.7
			c-3.9-3.8-8.5-6.8-13.9-8.8c-5.4-2.1-11.3-3.1-17.7-3.1c-6.1,0-14,1-23.5,2.9V4203.7z"/>
		<path d="M3271.7,4104.8v47.9h-3.4c-1.6-12.8-5.4-21.9-11.3-27.2c-5.9-5.3-14.6-7.9-26.1-7.9h-28.7v155.6c0,6.9,0.5,12.3,1.5,16.2
			c1,4,2.4,6.9,4.1,8.8c1.8,1.9,4,3.2,6.7,3.7c2.7,0.5,5.8,0.8,9.4,0.8h6.9v5.6h-86.2v-5.6h7.2c3.6,0,6.7-0.3,9.4-0.9
			c2.7-0.6,4.9-1.9,6.7-3.9c1.8-2,3.2-5,4.1-8.8c1-3.9,1.5-9.2,1.5-15.9v-155.6h-24.4c-6.1,0-11.5,0.5-16.2,1.5
			c-4.7,1-8.8,2.8-12.2,5.4c-3.4,2.6-6.2,6.2-8.2,10.7c-2,4.6-3.2,10.4-3.7,17.6h-5.6v-47.9H3271.7z"/>
		<path d="M3634.6,4104.8v5.6c-4,0-7.4,0.4-10,1.1c-2.6,0.7-5,2.4-7.3,5c-2.2,2.6-4.5,6.5-6.7,11.6c-2.2,5.1-4.9,12.1-7.8,20.7
			l-56.7,164.1h-6l-46.4-130.1l-45.9,130.1h-5.6l-60.5-169.1c-2.2-6.3-4-11.2-5.4-14.9c-1.3-3.7-2.4-6.1-3.1-7.3
			c-2.1-3.9-4.8-6.8-8.2-8.6c-3.4-1.9-8-2.8-14-2.8v-5.6h75.2v5.6h-3.6c-5.2,0-9.3,1.2-12.1,3.6c-2.8,2.4-4.3,5.3-4.3,8.7
			c0,3.6,2.2,11.6,6.7,24.2l40.1,114.2l33.6-97.2l-10.7-30.7c-1.6-3.7-3.3-7-4.9-9.9c-1.6-2.8-3.5-5.2-5.6-7.2
			c-2.1-1.9-4.6-3.4-7.4-4.4c-2.8-1-6.3-1.5-10.3-1.5v-5.6h79v5.6h-5.4c-5.7,0-9.8,1.2-12.3,3.6c-2.5,2.4-3.8,5.7-3.8,9.9
			c0,5.1,2.2,14,6.7,26.6l39,110.6l38.7-112.2c2.1-6.3,3.7-11.5,4.9-15.7c1.2-4.2,1.8-7.5,1.8-10.1c0-4.8-2.1-8.1-6.3-10
			c-4.2-1.9-9.6-2.8-16.3-2.8v-5.6H3634.6z"/>
		<path d="M3743.7,4240.2h-78.8l-13.9,32c-3.3,7.9-4.9,13.8-4.9,17.7c0,1.6,0.3,3.1,0.8,4.5c0.5,1.3,1.6,2.6,3.4,3.7
			c1.7,1.1,4.1,2.1,7.2,2.9c3.1,0.8,7.1,1.4,12.2,1.7v5.6h-64v-5.6c5.1-0.7,9.2-1.9,12.3-3.4c3.1-1.5,5.8-3.5,8.1-6.2
			c2.2-2.6,4.3-6,6.2-10.2c1.9-4.2,4.1-9.3,6.8-15.5l71.7-167.3h5.1l70.8,169.1c2.8,7,5.5,12.7,7.9,16.9c2.5,4.3,5,7.6,7.6,10
			c2.6,2.4,5.4,4,8.5,4.9c3.1,0.9,6.8,1.4,11.1,1.6v5.6h-80.4v-5.6c8.1-0.3,13.5-1.6,16.5-3.9c2.9-2.3,4.4-5.1,4.4-8.4
			c-0.2-4.3-2.2-11.3-6-21L3743.7,4240.2z M3739.4,4229l-34.5-82.2l-35.4,82.2H3739.4z"/>
		<path d="M4001.2,4252.1l4.9,0.9l-17.5,55.3H3831v-5.6h7.8c8.4,0,14.5-2.8,18.4-8.3c2.1-3.3,3.1-10.7,3.1-22.2v-131.4
			c0-12.5-1.4-20.5-4.3-23.7c-3.9-4.5-9.6-6.7-17.2-6.7h-7.8v-5.6h92.3v5.6c-5.5,0-10.1,0.3-13.8,0.8c-3.7,0.5-6.7,1.3-9.1,2.2
			c-2.4,1-4.3,2.1-5.6,3.5c-1.3,1.3-2.5,2.8-3.4,4.5c-1.5,3-2.2,10.7-2.2,23.1v127.9c0,7,0.5,12.1,1.6,15.2c1,3.1,3.1,5.3,6.3,6.5
			c2.7,0.9,10.5,1.3,23.5,1.3h14.8c15.7,0,26.6-1.1,32.9-3.4c3.1-1,6.1-2.5,9-4.5c2.8-1.9,5.6-4.5,8.3-7.6c2.7-3.1,5.3-6.9,7.8-11.4
			C3995.9,4264,3998.5,4258.5,4001.2,4252.1z"/>
		<path d="M4188.8,4252.1l4.9,0.9l-17.5,55.3h-157.6v-5.6h7.8c8.4,0,14.5-2.8,18.4-8.3c2.1-3.3,3.1-10.7,3.1-22.2v-131.4
			c0-12.5-1.4-20.5-4.3-23.7c-3.9-4.5-9.6-6.7-17.2-6.7h-7.8v-5.6h92.3v5.6c-5.5,0-10.1,0.3-13.8,0.8c-3.7,0.5-6.7,1.3-9.1,2.2
			c-2.4,1-4.3,2.1-5.6,3.5c-1.3,1.3-2.5,2.8-3.4,4.5c-1.5,3-2.2,10.7-2.2,23.1v127.9c0,7,0.5,12.1,1.6,15.2c1,3.1,3.1,5.3,6.3,6.5
			c2.7,0.9,10.5,1.3,23.5,1.3h14.8c15.7,0,26.6-1.1,32.9-3.4c3.1-1,6.1-2.5,9-4.5c2.8-1.9,5.6-4.5,8.3-7.6c2.7-3.1,5.3-6.9,7.8-11.4
			C4183.5,4264,4186.1,4258.5,4188.8,4252.1z"/>
	</g>
</g>
<g id="PROCESOS">
	<g id="PROCESO-SOPORTE-MUEBLE">
		<circle class="stc29" cx="855.4" cy="475.8" r="445.8"/>
		<g>
			<g>
				<defs>
					<circle id="SVGID_1_" cx="1286.1" cy="2881.3" r="714.9"/>
				</defs>
				<clipPath id="SVGID_00000073702759096118367180000012448432914790357130_">
					<use xlink:href="#SVGID_1_"  style="overflow:visible;"/>
				</clipPath>
				
					<polygon style="clip-path:url(#SVGID_00000073702759096118367180000012448432914790357130_);fill:#F7F7F7;stroke:#000000;stroke-width:23.229;stroke-miterlimit:10;" points="
					896.5,5608.9 67.8,5404.4 69.7,2332.4 896.5,2548.5 				"/>
				
					<rect x="894.7" y="2550.3" style="clip-path:url(#SVGID_00000073702759096118367180000012448432914790357130_);fill:#F7F7F7;stroke:#000000;stroke-width:22.588;stroke-miterlimit:10;" width="160.1" height="3056.9"/>
				
					<polygon style="clip-path:url(#SVGID_00000073702759096118367180000012448432914790357130_);fill:#EAEAEA;stroke:#000000;stroke-width:24.8859;stroke-miterlimit:10;" points="
					894.7,2548.5 69.7,2333.3 69.7,2192.8 894.7,2397.4 				"/>
				
					<rect x="906.9" y="2397.4" style="clip-path:url(#SVGID_00000073702759096118367180000012448432914790357130_);fill:#EAEAEA;stroke:#000000;stroke-width:24.8859;stroke-miterlimit:10;" width="9316.8" height="151.2"/>
				
					<polyline style="clip-path:url(#SVGID_00000073702759096118367180000012448432914790357130_);fill:#EAEAEA;stroke:#000000;stroke-width:24.8859;stroke-miterlimit:10;" points="
					58.4,2189.3 895.6,2398.2 10224.8,2396.9 9248,2182.2 58.4,2189.3 9249.1,2182.2 				"/>
				
					<circle style="clip-path:url(#SVGID_00000073702759096118367180000012448432914790357130_);" cx="1128.9" cy="2620.5" r="34.7"/>
				
					<g id="TABLITA-TRASERA-IZQUIERDA_00000108294836153591765730000011827334928670526891_" style="opacity:0.49;clip-path:url(#SVGID_00000073702759096118367180000012448432914790357130_);">
					<rect x="1054.9" y="2550.8" class="stc35" width="146.5" height="3057.3"/>
				</g>
				
					<rect id="TRIPLEX_00000123399270166434211820000013364678090517148035_" x="1066.8" y="2550.3" style="opacity:0.49;clip-path:url(#SVGID_00000073702759096118367180000012448432914790357130_);fill:#C9C7C7;" width="8972.2" height="3055.1"/>
				
					<rect id="COLGADOR-1_00000008110045287676795690000011314622312259075473_" x="1054.2" y="2551.2" style="clip-path:url(#SVGID_00000073702759096118367180000012448432914790357130_);fill:#F7F7F7;stroke:#000000;stroke-width:23.229;stroke-miterlimit:10;" width="8985.6" height="497.9"/>
				
					<g id="TORNILLOS-COLGADOR_00000168796852056319995250000009729684098832982699_" style="clip-path:url(#SVGID_00000073702759096118367180000012448432914790357130_);">
					<circle cx="9966" cy="2657" r="56"/>
					<circle cx="7858.8" cy="2639.2" r="56"/>
					<circle cx="5568.4" cy="2651.6" r="56"/>
					<circle cx="3221" cy="2653.4" r="56"/>
					<circle cx="1128" cy="2653.4" r="56"/>
					<path class="stc0" d="M5584.4,2621.3l-9.7,12.4c0,0-5.5,5-11.5-0.1l-8.5-6.8c0,0-1.3-0.9-2.7,0.8s-8.6,11-8.6,11
						s-0.5,0.7-0.1,1.9c1,0.8,10.6,8.5,10.6,8.5s4.1,4.5,0.7,10.2c-3.8,5-9.7,12.4-9.7,12.4s-0.9,1.7,0.2,2.5s9.7,7.7,9.7,7.7
						s0.7,0.6,1.9-0.2c1-1.2,4.9-6.3,4.9-6.3l5-6.4c0,0,4.8-4.8,9.9-1.7c4.9,3.4,10.9,8.5,10.9,8.5s0.8,0.4,1.9-0.5
						c0.9-1.1,6.5-8.3,6.5-8.3l2.5-3.2c0,0,0.8-1.2,0.1-1.9c-0.8-0.7-11-9-11-9s-4-3.3-0.2-10.3c4.5-5.9,9.4-12.1,9.4-12.1
						s1-0.9,0-2.2c-1.2-1.1-9.9-7.8-10.2-8.1C5585.4,2620,5584.4,2621.3,5584.4,2621.3z"/>
					<path class="stc0" d="M1158.7,2668.8l-12-10.2c0,0-4.8-5.7,0.5-11.5l7.1-8.2c0,0,1-1.3-0.7-2.7s-10.6-9-10.6-9s-0.7-0.6-1.9-0.1
						c-0.8,0.9-8.9,10.3-8.9,10.3s-4.7,3.9-10.2,0.3c-4.9-4-12-10.1-12-10.1s-1.6-0.9-2.5,0.1s-8.1,9.4-8.1,9.4s-0.7,0.7,0.1,1.9
						c1.2,1,6.1,5.1,6.1,5.1l6.2,5.3c0,0,4.6,5,1.3,10c-3.6,4.7-8.9,10.6-8.9,10.6s-0.4,0.8,0.4,1.9c1,0.9,8,6.8,8,6.8l3.1,2.6
						c0,0,1.2,0.9,1.9,0.1s9.4-10.7,9.4-10.7s3.4-3.9,10.3,0.2c5.7,4.7,11.7,9.9,11.7,9.9s0.9,1,2.2,0.1c1.2-1.2,8.2-9.6,8.5-9.8
						C1159.9,2669.9,1158.7,2668.8,1158.7,2668.8z"/>
					<path class="stc0" d="M3232.6,2685.1l-1.7-15.7c0,0,0.5-7.4,8.3-7.9l10.8-1.1c0,0,1.6-0.3,1.3-2.5c-0.2-2.2-1.5-13.8-1.5-13.8
						s-0.1-0.9-1.3-1.4c-1.2,0.1-13.5,1.3-13.5,1.3s-6.1-0.4-7.6-6.9c-0.8-6.3-1.7-15.6-1.7-15.6s-0.5-1.8-1.9-1.6
						c-1.4,0.2-12.3,1.2-12.3,1.2s-1,0-1.3,1.5c0.1,1.5,0.8,7.9,0.8,7.9l0.9,8.1c0,0-0.1,6.8-5.9,8.1c-5.8,1-13.7,1.5-13.7,1.5
						s-0.8,0.3-1,1.7c0.1,1.4,1.1,10.5,1.1,10.5l0.4,4c0,0,0.3,1.4,1.3,1.4c1,0,14.1-1.2,14.1-1.2s5.1-0.5,7.3,7.3
						c0.9,7.3,1.7,15.2,1.7,15.2s0,1.3,1.5,1.6c1.7,0,12.5-1.3,12.9-1.3C3232.7,2686.8,3232.6,2685.1,3232.6,2685.1z"/>
					<path class="stc0" d="M7849.4,2670.8l8-13.6c0,0,4.8-5.7,11.4-1.4l9.3,5.6c0,0,1.4,0.7,2.5-1.2c1.1-1.9,7-12,7-12
						s0.5-0.8-0.2-1.9c-1.1-0.6-11.7-7-11.7-7s-4.6-4-2-10c3.1-5.5,7.9-13.6,7.9-13.6s0.6-1.8-0.6-2.4s-10.6-6.4-10.6-6.4
						s-0.8-0.5-1.9,0.4c-0.8,1.3-4,6.9-4,6.9l-4.1,7c0,0-4.1,5.4-9.6,3c-5.3-2.7-12-7-12-7s-0.9-0.2-1.8,0.7
						c-0.7,1.2-5.3,9.1-5.3,9.1l-2.1,3.5c0,0-0.6,1.3,0.2,1.9c0.8,0.6,12.1,7.4,12.1,7.4s4.4,2.7,1.5,10.2
						c-3.6,6.4-7.7,13.2-7.7,13.2s-0.8,1.1,0.3,2.2c1.3,1,10.9,6.4,11.2,6.7C7848.6,2672.3,7849.4,2670.8,7849.4,2670.8z"/>
					<path class="stc0" d="M9977.2,2688l-1.7-15.7c0,0,0.5-7.4,8.3-7.9l10.8-1.1c0,0,1.6-0.3,1.3-2.5c-0.2-2.2-1.5-13.8-1.5-13.8
						s-0.1-0.9-1.3-1.4c-1.2,0.1-13.5,1.3-13.5,1.3s-6.1-0.4-7.6-6.9c-0.8-6.3-1.7-15.6-1.7-15.6s-0.5-1.8-1.9-1.6
						c-1.4,0.2-12.3,1.2-12.3,1.2s-1,0-1.3,1.5c0.1,1.5,0.8,7.9,0.8,7.9l0.9,8.1c0,0-0.1,6.8-5.9,8.1c-5.8,1-13.7,1.5-13.7,1.5
						s-0.8,0.3-1,1.7c0.1,1.4,1.1,10.5,1.1,10.5l0.4,4c0,0,0.3,1.4,1.3,1.4c1,0,14.1-1.2,14.1-1.2s5.1-0.5,7.3,7.3
						c0.9,7.3,1.7,15.2,1.7,15.2s0,1.3,1.5,1.6c1.7,0,12.5-1.3,12.9-1.3C9977.3,2689.6,9977.2,2688,9977.2,2688z"/>
				</g>
				
					<circle style="clip-path:url(#SVGID_00000073702759096118367180000012448432914790357130_);fill:none;stroke:#000000;stroke-width:18.3247;stroke-miterlimit:10;" cx="1286.1" cy="2881.3" r="714.9"/>
			</g>
			<circle class="stc38" cx="1286.1" cy="2881.3" r="714.9"/>
			<circle cx="1122.5" cy="3523.3" r="23.1"/>
		</g>
	</g>
	<g id="PROCESO-PUNTILLAS">
		<circle class="stc39" cx="3225" cy="1704.4" r="368.8"/>
		<g>
			<g>
				<defs>
					<circle id="SVGID_00000167360199963219557340000015115418183245288617_" cx="3232.2" cy="3117.7" r="687.5"/>
				</defs>
				<clipPath id="SVGID_00000066497113894227150760000004659270515204933553_">
					<use xlink:href="#SVGID_00000167360199963219557340000015115418183245288617_"  style="overflow:visible;"/>
				</clipPath>
				
					<polyline style="clip-path:url(#SVGID_00000066497113894227150760000004659270515204933553_);fill:#F7F7F7;stroke:#000000;stroke-width:24.3561;stroke-miterlimit:10;" points="
					7536.1,3759.2 -1247.6,3759.6 -1247.6,3573.1 -1108.2,3565 				"/>
				
					<polyline style="clip-path:url(#SVGID_00000066497113894227150760000004659270515204933553_);fill:#F7F7F7;stroke:#000000;stroke-width:24.3561;stroke-miterlimit:10;" points="
					-949.9,3563.1 6603.9,3552.7 7157.8,3676.2 				"/>
				
					<line style="clip-path:url(#SVGID_00000066497113894227150760000004659270515204933553_);fill:#F7F7F7;stroke:#000000;stroke-width:24.3561;stroke-miterlimit:10;" x1="6604.9" y1="3552.7" x2="-949.9" y2="3563.1"/>
				
					<rect x="-1240.4" y="3760" style="clip-path:url(#SVGID_00000066497113894227150760000004659270515204933553_);fill:#EAEAEA;stroke:#000000;stroke-width:23.9332;stroke-miterlimit:10;" width="8952.6" height="147.9"/>
				
					<polygon style="clip-path:url(#SVGID_00000066497113894227150760000004659270515204933553_);fill:#F7F7F7;stroke:#000000;stroke-width:22.3397;stroke-miterlimit:10;" points="
					3165.3,3759.6 2368.3,3562.9 2370.1,608.5 3165.3,816.3 				"/>
				
					<rect x="3163.5" y="670.9" style="clip-path:url(#SVGID_00000066497113894227150760000004659270515204933553_);fill:#F7F7F7;stroke:#000000;stroke-width:22.26;stroke-miterlimit:10;" width="154" height="3086.9"/>
				
					<rect id="TRIPLEX_00000132785022538100410500000000349461699563126708_" x="-1103.3" y="819.3" style="opacity:0.49;clip-path:url(#SVGID_00000066497113894227150760000004659270515204933553_);fill:#C9C7C7;" width="8639.9" height="2938.1"/>
				
					<circle style="clip-path:url(#SVGID_00000066497113894227150760000004659270515204933553_);fill:none;stroke:#000000;stroke-width:17.6231;stroke-miterlimit:10;" cx="3232.2" cy="3117.7" r="687.5"/>
				
					<circle style="clip-path:url(#SVGID_00000066497113894227150760000004659270515204933553_);" cx="3235.5" cy="3668.5" r="33.3"/>
				
					<circle style="clip-path:url(#SVGID_00000066497113894227150760000004659270515204933553_);" cx="3243.9" cy="2748.1" r="39.7"/>
			</g>
			<circle class="st47" cx="3232.2" cy="3117.7" r="687.5"/>
		</g>
	</g>
	<g id="PROCESO-SOPORTE-PARED">
		<circle class="stc48" cx="5421.2" cy="5006.7" r="346"/>
		<g>
			<g>
				<defs>
					<circle id="SVGID_00000090986575070217770990000002262176119794978971_" cx="5157.8" cy="2907.2" r="688.9"/>
				</defs>
				<clipPath id="SVGID_00000019668222098198539290000000291112347152811449_">
					<use xlink:href="#SVGID_00000090986575070217770990000002262176119794978971_"  style="overflow:visible;"/>
				</clipPath>
				
					<circle style="clip-path:url(#SVGID_00000019668222098198539290000000291112347152811449_);fill:none;stroke:#000000;stroke-width:17.6598;stroke-miterlimit:10;" cx="5162.8" cy="2903.1" r="688.9"/>
				
					<rect id="PARED_00000101086115103397520770000007661877619153221511_" x="-5052.7" y="1601.1" style="clip-path:url(#SVGID_00000019668222098198539290000000291112347152811449_);fill:#F7F7F7;stroke:#000000;stroke-width:18.5788;stroke-miterlimit:10;" width="10746.1" height="2057.8"/>
				<g style="clip-path:url(#SVGID_00000019668222098198539290000000291112347152811449_);">
					<g id="SOPORTE-PARED_00000008839720699564429470000011872970174067008650_">
						<g>
							<polygon class="stc52" points="5416.2,3197.9 -4752.5,3166.1 -4762.6,2344.8 5409.5,2365.6 							"/>
							<polygon class="stc53" points="-4862.7,3141.6 -4751.9,3162.1 -4763.5,2341.6 -4866.8,2538.2 							"/>
						</g>
					</g>
					<circle class="stc54" cx="-4486.2" cy="2772.8" r="58.7"/>
					<circle class="stc54" cx="292.5" cy="2770.9" r="58.7"/>
					<circle class="stc54" cx="5140.9" cy="2770.9" r="58.7"/>
				</g>
			</g>
			<circle class="stc55" cx="5158.8" cy="2907.1" r="688.9"/>
		</g>
	</g>
</g>
</svg>
