<?xml version="1.0" encoding="utf-8"?>
<!-- Generator: Adobe Illustrator 26.5.0, SVG Export Plug-In . SVG Version: 6.00 Build 0)  -->
<svg version="1.1" xmlns="http://www.w3.org/2000/svg" xmlns:xlink="http://www.w3.org/1999/xlink" x="0px" y="0px"
	 viewBox="0 0 9095.9 2794.1" style="enable-background:new 0 0 9095.9 2794.1;" xml:space="preserve">
<style type="text/css">
	.sts0{fill:#E6E6E6;stroke:#000000;stroke-width:11.8296;stroke-miterlimit:10;}
	.sts1{fill:#E6E6E6;stroke:#000000;stroke-width:23.1155;stroke-miterlimit:10;}
	.sts2{fill:#FFFFFF;}
	.sts3{fill:none;stroke:#000000;stroke-width:29.0461;stroke-miterlimit:10;}
	.sts4{fill:none;stroke:#000000;stroke-width:20.7472;stroke-miterlimit:10;}
	.sts5{fill:none;stroke:#000000;stroke-width:24.8967;stroke-miterlimit:10;}
	.sts6{fill:none;stroke:#000000;stroke-width:23.1155;stroke-miterlimit:10;}
	.sts7{fill:#F7F7F7;stroke:#000000;stroke-width:14.9919;stroke-miterlimit:10;}
	.sts8{font-family:'Microsoft-Himalaya';}
	.sts9{font-size:321.673px;}
	.sts10{fill:none;}
</style>
<g id="INFORMACION-PRUEBA">
	<g id="PARTES-720">
		<g id="TRIPLEX20">
			<g>
				<polyline class="sts0" points="2117.9,550.2 2264.7,475.2 8476.7,505.2 8441.2,593.1 				"/>
				<polygon class="sts0" points="8425.1,2381 2110.8,2352.9 2125.2,555.4 8447.4,586.1 				"/>
				<polygon class="sts0" points="8461.2,2345.1 8423.9,2385.4 8441.2,590 8476.7,505.2 				"/>
			</g>
		</g>
		<g id="SELECTOR-TRIPLEX20-SUB">
			<circle class="sts1" cx="872.5" cy="890.6" r="737.1"/>
			<ellipse class="sts2" cx="876" cy="890.2" rx="744.7" ry="739"/>
			<line class="sts3" x1="222.7" y1="568.5" x2="1529.2" y2="568.5"/>
			<line class="sts3" x1="1435.9" y1="1372.4" x2="316.9" y2="1372.2"/>
			<line class="sts4" x1="621.2" y1="619.3" x2="621.2" y2="1321.6"/>
			<line class="sts5" x1="724.9" y1="619.3" x2="517.5" y2="619.3"/>
			<line class="sts5" x1="724.9" y1="1321.3" x2="517.5" y2="1321.3"/>
			<g>
				<path d="M784,864.9h101.6v5.4l-63.2,188.2h-15.7l56.8-170.7h-52.2c-6.4,0-11.8,0.6-16.2,1.7c-4.4,1.1-8.1,2.7-11.3,4.7
					c-3.1,2-5.8,4.5-7.9,7.4c-2.2,2.9-4.2,6.2-6.2,9.8l-4-1.5L784,864.9z"/>
				<path d="M1087,1054.5l-73.2-159.4v126.7c0,6.5,0.5,11.7,1.4,15.3c0.9,3.7,2.2,6.4,4,8.2c1.7,1.8,3.9,2.9,6.4,3.3
					c2.5,0.4,5.4,0.6,8.6,0.6h6.7v5.2h-65.9v-5.2h6.7c3.3,0,6.3-0.2,8.8-0.7c2.5-0.5,4.6-1.7,6.3-3.5c1.7-1.9,2.9-4.7,3.8-8.3
					c0.8-3.7,1.3-8.7,1.3-14.9v-124c0-4.5-0.2-8.4-0.6-11.8c-0.4-3.4-1.5-6.3-3.2-8.7c-1.7-2.4-4.4-4.2-7.9-5.4
					c-3.5-1.3-8.5-1.9-14.9-1.9v-5.2h53.6l68.9,148.4l67.6-148.4h53.6v5.2h-6.5c-3.5,0-6.5,0.3-9,0.8c-2.5,0.6-4.6,1.8-6.3,3.7
					c-1.7,1.9-2.9,4.7-3.8,8.3c-0.8,3.7-1.3,8.7-1.3,14.9v124c0,6.5,0.5,11.7,1.4,15.3c0.9,3.7,2.2,6.4,4,8.2
					c1.7,1.8,3.9,2.9,6.4,3.3c2.5,0.4,5.4,0.6,8.6,0.6h6.5v5.2h-80.5v-5.2h6.7c3.3,0,6.3-0.3,8.8-0.8c2.5-0.6,4.6-1.8,6.4-3.7
					c1.7-1.9,3-4.6,3.9-8.2c0.8-3.6,1.3-8.6,1.3-14.8V895.1l-73,159.4H1087z"/>
				<path d="M1341.6,1054.5l-73.2-159.4v126.7c0,6.5,0.5,11.7,1.4,15.3c0.9,3.7,2.2,6.4,4,8.2c1.7,1.8,3.9,2.9,6.4,3.3
					c2.5,0.4,5.4,0.6,8.6,0.6h6.7v5.2h-65.9v-5.2h6.7c3.3,0,6.3-0.2,8.8-0.7c2.5-0.5,4.6-1.7,6.3-3.5c1.7-1.9,2.9-4.7,3.8-8.3
					c0.8-3.7,1.3-8.7,1.3-14.9v-124c0-4.5-0.2-8.4-0.6-11.8c-0.4-3.4-1.5-6.3-3.2-8.7c-1.7-2.4-4.4-4.2-7.9-5.4
					c-3.5-1.3-8.5-1.9-14.9-1.9v-5.2h53.6l68.9,148.4l67.6-148.4h53.6v5.2h-6.5c-3.5,0-6.5,0.3-9,0.8c-2.5,0.6-4.6,1.8-6.3,3.7
					c-1.7,1.9-2.9,4.7-3.8,8.3c-0.8,3.7-1.3,8.7-1.3,14.9v124c0,6.5,0.5,11.7,1.4,15.3c0.9,3.7,2.2,6.4,4,8.2
					c1.7,1.8,3.9,2.9,6.4,3.3c2.5,0.4,5.4,0.6,8.6,0.6h6.5v5.2h-80.5v-5.2h6.7c3.3,0,6.3-0.3,8.8-0.8c2.5-0.6,4.6-1.8,6.4-3.7
					c1.7-1.9,3-4.6,3.9-8.2c0.8-3.6,1.3-8.6,1.3-14.8V895.1l-73,159.4H1341.6z"/>
			</g>
			<circle class="sts6" cx="870.4" cy="887.8" r="737.1"/>
		</g>
		<circle cx="307.2" cy="1869.7" r="28.5"/>
		<line class="sts7" x1="1506.7" y1="513.7" x2="2392.7" y2="513.7"/>
		<circle cx="2400.4" cy="514" r="26.1"/>
		<circle cx="4809.2" cy="1525.7" r="28.5"/>
	</g>
</g>
<g id="SELECTOR-MADERAS">
	<text transform="matrix(1 0 0 1 4902.668 1554.3422)" class="sts8 sts9">Lorem ipsum</text>
	<text transform="matrix(1 0 0 1 400.668 1898.3422)" class="sts8 sts9">Lorem ipsum</text>
	<text transform="matrix(1 0 0 1 396.6679 2119.342)" class="sts8 sts9">Lorem ipsum</text>
	<text transform="matrix(1 0 0 1 400.8478 2322.1128)" class="sts8 sts9">Lorem ipsum</text>
	<rect x="2264.7" y="710.8" class="sts10" width="2365" height="1454.4"/>
</g>
</svg>
