<?xml version="1.0" encoding="utf-8"?>
<!-- Generator: Adobe Illustrator 26.5.0, SVG Export Plug-In . SVG Version: 6.00 Build 0)  -->
<svg version="1.1" xmlns="http://www.w3.org/2000/svg" xmlns:xlink="http://www.w3.org/1999/xlink" x="0px" y="0px"
	 viewBox="0 0 3963 2608" style="enable-background:new 0 0 3963 2608;" xml:space="preserve">
<style type="text/css">
	.st0{fill:#E6E6E6;stroke:#000000;stroke-width:23.753;stroke-miterlimit:10;}
	.st1{stroke:#000000;stroke-width:8.2038;stroke-miterlimit:10;}
	.st2{fill:#F7F7F7;stroke:#000000;stroke-width:15.5912;stroke-miterlimit:10;}
	.st3{stroke:#000000;stroke-width:9.5954;stroke-miterlimit:10;}
	.st4{fill:#F7F7F7;stroke:#000000;stroke-width:17.6277;stroke-miterlimit:10;}
	.st5{stroke:#000000;stroke-width:9.3761;stroke-miterlimit:10;}
	.st6{fill:#E6E6E6;stroke:#000000;stroke-width:16.0779;stroke-miterlimit:10;}
	.st7{fill:#FFFFFF;}
	.st8{fill:none;stroke:#000000;stroke-width:17.3168;stroke-miterlimit:10;}
	.st9{fill:none;stroke:#000000;stroke-width:16.0779;stroke-miterlimit:10;}
	.st10{fill:none;stroke:#000000;stroke-width:20.203;stroke-miterlimit:10;}
	.st11{fill:none;stroke:#000000;stroke-width:14.4307;stroke-miterlimit:10;}
</style>
<g id="CIRCULOS-SELECCION4">
</g>
<g id="CLOSET">
	<g id="LATERAL-DERECHA">
	</g>
	<g id="BASE">
	</g>
	<g id="DIVISIONES-VERTICALES">
		<g id="DIVISION-VERTICAL-DERECHA">
		</g>
		<g id="DIVISION-CENTRAL">
		</g>
		<g id="DIVISION-VERTICAL-IZQUIERDA_00000085229740836627909760000005526871516412138418_">
		</g>
	</g>
	<g id="DIVISIONES-HORIZONTALES">
	</g>
	<g id="LATERAL-IZQUIERDA">
	</g>
	<g id="TECHO">
	</g>
	<g id="SOPORTES-COOK">
	</g>
</g>
<g id="TABLITAS-TRASERAS">
</g>
<g id="TRIPLEX_00000062169277959621118470000012963048032068378272_">
</g>
<g id="PUNTILLAS">
</g>
<g id="SOPORTE-MUEBLE">
	<g id="PUERTAS">
		<g>
			<polyline class="st0" points="3282.7,239.2 3123.7,186.2 1375.9,177.8 1464.1,223.9 			"/>
			<polygon class="st0" points="1470.9,2262.8 3268.7,2263.2 3282.7,239.2 1464.7,223.3 			"/>
			<polygon class="st0" points="1382,2216.1 1474.1,2262.2 1464.1,223.9 1375.9,177.8 			"/>
		</g>
	</g>
	<g>
		<g>
			<polygon class="st1" points="3404.8,292.1 3380.3,233.9 3360,292.1 			"/>
			<polygon class="st1" points="3350.7,2233.7 3373.7,2292.6 3395.4,2234.9 			"/>
			<line class="st2" x1="3381.8" y1="274.1" x2="3372.7" y2="2263.2"/>
			<g>
				<path d="M3498.8,1289.1v10h-13v24h-11v-24h-38v-8.6l42.5-60.4h7.5v59H3498.8z M3474.8,1289.1v-45.5l-32.2,45.5H3474.8z"/>
				<path d="M3529.9,1277c-3.6-3-6.6-5.7-8.8-8c-2.3-2.3-4-4.4-5.3-6.3c-1.2-1.9-2.1-3.8-2.5-5.6c-0.4-1.8-0.6-3.7-0.6-5.7
					c0-2.9,0.6-5.7,1.8-8.3c1.2-2.7,2.9-5,5.2-7c2.2-2,4.9-3.6,8-4.7c3.1-1.2,6.5-1.8,10.3-1.8c3.6,0,7,0.6,10,1.7
					c3,1.1,5.6,2.6,7.8,4.4c2.2,1.8,3.9,3.9,5,6.3c1.2,2.4,1.8,4.8,1.8,7.3c0,1.8-0.3,3.6-0.8,5.3s-1.5,3.5-2.9,5.3
					c-1.4,1.8-3.3,3.8-5.8,5.8c-2.5,2.1-5.6,4.3-9.4,6.7c4,3.1,7.3,5.8,9.9,8.2c2.6,2.4,4.6,4.5,5.9,6.2c3.4,4.6,5.2,9.5,5.2,14.5
					c0,3.2-0.6,6.2-1.9,9c-1.3,2.9-3.1,5.4-5.5,7.5c-2.4,2.1-5.2,3.8-8.5,5c-3.3,1.2-6.9,1.9-10.9,1.9c-3.8,0-7.4-0.6-10.6-1.8
					c-3.2-1.2-6-2.9-8.3-4.9c-2.3-2.1-4.1-4.5-5.4-7.2c-1.3-2.7-1.9-5.6-1.9-8.6c0-4.1,1.4-8.2,4.1-12.2
					C3518.7,1286.2,3523.3,1281.8,3529.9,1277z M3533.2,1279.6c-3.8,3.2-6.6,6.6-8.4,10.3c-1.8,3.7-2.6,7.7-2.6,12.1
					c0,2.9,0.4,5.5,1.3,7.9c0.8,2.4,2,4.4,3.5,6.1c1.5,1.7,3.2,3,5.3,3.9c2.1,0.9,4.3,1.4,6.8,1.4c2.4,0,4.6-0.4,6.6-1.1
					c2-0.7,3.7-1.8,5.1-3c1.4-1.3,2.5-2.8,3.3-4.5c0.8-1.7,1.2-3.6,1.2-5.5c0-2.1-0.4-4.1-1.3-6.1c-0.8-2-2.1-4-3.9-6.1
					c-1.8-2.1-4-4.4-6.8-6.9C3540.4,1285.5,3537.1,1282.7,3533.2,1279.6z M3540.5,1269.8c2.8-2.6,5.1-4.7,6.7-6.6
					c1.6-1.8,2.9-3.5,3.8-5c0.9-1.5,1.4-3.1,1.7-4.5c0.2-1.5,0.4-3.1,0.4-4.9c0-4.8-1.3-8.5-4-11.2c-2.7-2.7-6.3-4-11-4
					c-2.3,0-4.4,0.4-6.3,1.1c-1.9,0.7-3.5,1.7-4.9,2.9c-1.4,1.2-2.5,2.6-3.2,4.2c-0.8,1.6-1.2,3.3-1.2,5.2c0,2.4,0.6,4.7,1.8,7
					c1.2,2.3,2.9,4.6,5.2,6.7L3540.5,1269.8z"/>
				<path d="M3590,1310.1c2,0,3.8,0.7,5.3,2.2c1.5,1.4,2.2,3.2,2.2,5.3c0,2.1-0.7,3.9-2.2,5.4c-1.5,1.5-3.2,2.2-5.3,2.2
					c-2.1,0-3.9-0.7-5.4-2.2c-1.5-1.5-2.2-3.3-2.2-5.4c0-2.2,0.7-3.9,2.2-5.4C3586.2,1310.8,3587.9,1310.1,3590,1310.1z"/>
				<path d="M3667.5,1231.1l-5.4,12h-27.6l-6.1,12.1c5.5,0.8,10.5,2.2,15.1,4.3c4.6,2.1,8.6,4.6,11.9,7.6c3.3,3,5.9,6.5,7.7,10.5
					c1.9,3.9,2.8,8.2,2.8,12.7c0,5.6-1.2,10.5-3.5,14.8c-2.4,4.3-5.3,7.9-8.9,10.8c-3.6,2.9-7.5,5.2-11.8,6.7
					c-4.2,1.5-8.2,2.3-12,2.3c-2.8,0-5.2-0.3-7.2-0.8c-2-0.5-3.6-1.2-4.8-2.1c-1.2-0.9-2.2-1.8-2.8-2.9c-0.6-1-0.9-2.1-0.9-3.3
					c0-1.3,0.5-2.4,1.5-3.4c1-1,2.3-1.5,3.9-1.5c0.6,0,1.1,0,1.6,0.1c0.5,0.1,1,0.2,1.5,0.5c0.5,0.2,1.1,0.6,1.8,1
					c0.7,0.4,1.6,1,2.7,1.8c1.7,1.2,3.4,2.1,5.1,2.7c1.7,0.6,3.4,0.9,5.2,0.9c2.6,0,5.1-0.5,7.5-1.6c2.4-1.1,4.5-2.5,6.3-4.4
					c1.8-1.9,3.3-4,4.4-6.5c1.1-2.5,1.7-5.2,1.7-8.1c0-2.8-0.5-5.5-1.4-8.1c-0.9-2.6-2.3-5.1-4-7.4c-1.8-2.3-3.9-4.4-6.3-6.3
					c-2.5-1.9-5.2-3.5-8.3-4.8c-2.5-1.1-5.4-1.9-8.7-2.4c-3.3-0.5-7.1-0.9-11.4-1.1l17.6-36.1H3667.5z"/>
				<path d="M3794.4,1229.1l2.1,31h-2.1c-2.8-9.3-6.8-16-11.9-20.1c-5.1-4.1-11.3-6.1-18.5-6.1c-4.7,0-9,0.9-12.9,2.7
					c-3.9,1.8-7.3,4.5-10.2,8.2c-2.8,3.7-5.1,8.3-6.7,13.8c-1.6,5.6-2.4,12.1-2.4,19.7c0,6.1,0.8,11.6,2.3,16.6
					c1.5,5,3.7,9.2,6.6,12.7c2.9,3.5,6.5,6.2,10.7,8.1s9.1,2.9,14.5,2.9c5.8,0,11-1.3,15.7-3.8c4.5-2.3,9.5-7.4,14.9-15l2.1,1.3
					c-4.6,8.1-9.9,14-16,17.8c-6.1,3.8-13.3,5.7-21.7,5.7c-6.5,0-12.4-1.1-17.9-3.4c-5.4-2.3-10.1-5.5-14-9.6c-3.9-4.1-7-9-9.2-14.6
					c-2.2-5.7-3.3-11.9-3.3-18.6c0-9.2,2-17.5,6.1-25.1c4-7.6,9.6-13.5,16.8-17.7c7.2-4.2,15-6.3,23.5-6.3c6.6,0,13.1,1.6,19.5,4.8
					c1.9,1,3.2,1.5,4,1.5c1.5,0,2.7-0.6,3.7-1.8c1-1.2,1.7-2.7,2.1-4.5H3794.4z"/>
				<path d="M3826.8,1272.4c2.3-2.3,4.1-4.1,5.4-5.4c1.3-1.3,2.2-2.1,2.6-2.4c2-1.7,4.2-3.1,6.6-4c2.4-0.9,4.7-1.4,7-1.4
					c3.9,0,7.2,1.1,10,3.4c2.8,2.3,4.7,5.5,5.6,9.8c2.3-2.7,4.4-4.9,6.3-6.7c1.9-1.8,3.7-3.1,5.4-4c1.7-0.9,3.4-1.6,4.9-2
					c1.6-0.4,3.2-0.6,4.9-0.6c2.3,0,4.4,0.4,6.4,1.2c2,0.8,3.7,2.1,5.2,3.8c1.5,1.8,2.6,4.2,3.5,7.1c0.8,3,1.3,6.6,1.3,11v27.1
					c0,2,0,3.7,0.1,5.1c0.1,1.4,0.4,2.6,1,3.5c0.6,0.9,1.5,1.6,2.7,2c1.2,0.4,2.9,0.6,5.1,0.6v2.5h-31v-2h1.3c1.6,0,3-0.1,4.1-0.4
					c1.1-0.3,2-0.8,2.7-1.6c0.7-0.8,1.2-2,1.5-3.5s0.4-3.6,0.4-6.1v-26.7c0-3-0.2-5.4-0.7-7.3c-0.5-1.9-1.1-3.4-2-4.6
					c-0.9-1.1-1.9-1.9-3.2-2.4c-1.3-0.4-2.7-0.7-4.3-0.7c-1.2,0-2.4,0.1-3.5,0.4c-1.1,0.2-2.3,0.7-3.6,1.3c-1.2,0.6-2.6,1.5-4,2.6
					c-1.4,1.1-3,2.7-4.8,4.9v32c0,2.2,0,4,0.1,5.2c0.1,1.2,0.2,2.2,0.5,2.8c0.3,0.6,0.6,1.1,1,1.5c0.4,0.3,1,0.7,1.7,1.1
					c1.3,0.7,3.5,1,6.7,1v2.4h-31v-2.4c2.4,0,4.3-0.2,5.7-0.5c1.4-0.3,2.4-0.9,3-1.8c0.6-0.9,1-2.1,1.1-3.6c0.1-1.5,0.2-3.4,0.2-5.7
					v-26.7c0-2.8-0.2-5.2-0.7-7.1s-1.2-3.4-2.1-4.6c-0.9-1.2-2-2-3.3-2.5c-1.3-0.5-2.6-0.7-4.2-0.7c-1.5,0-3,0.3-4.6,0.8
					c-1.5,0.5-3,1.2-4.4,2c-1.4,0.8-2.7,1.7-3.9,2.7c-1.2,1-2.2,2-2.9,2.9v33.1c0,2.1,0.1,3.8,0.2,5c0.1,1.3,0.3,2.3,0.6,3
					c0.3,0.7,0.6,1.3,1.1,1.7c0.4,0.4,0.9,0.7,1.4,1c1.1,0.6,3.3,0.9,6.7,0.9v2.4h-31v-2.4c2,0,3.6-0.2,4.7-0.5
					c1.2-0.3,2.1-0.9,2.7-1.8c0.6-0.9,1.1-2.1,1.2-3.5c0.2-1.5,0.3-3.4,0.3-5.9v-23.7c0-4.1-0.1-7.2-0.2-9.5c-0.1-2.3-0.4-4-0.7-5.2
					c-0.4-1.1-0.8-1.9-1.4-2.1c-0.6-0.3-1.4-0.4-2.3-0.4c-0.6,0-1.2,0.1-1.9,0.3c-0.7,0.2-1.5,0.4-2.4,0.8l-1-2.4l17.7-7.6h4.2
					V1272.4z"/>
			</g>
		</g>
		<g>
			<polygon class="st3" points="3187.2,2387.9 3255.1,2358.6 3186.7,2335.5 			"/>
			<line class="st4" x1="1408.5" y1="2361.4" x2="3220.7" y2="2360.2"/>
			<polygon class="st5" points="1459,2335.6 1389.3,2359.6 1456.4,2385.4 			"/>
			<g>
				<path d="M2137.9,2471.6c2.5-6.1,5.8-10.9,9.8-14.2c4-3.3,8.9-5,14.9-5c3.1,0,5.9,0.5,8.5,1.5c2.6,1,4.8,2.4,6.7,4.1
					c1.9,1.7,3.3,3.7,4.4,5.9c1,2.2,1.6,4.6,1.6,7c0,6.7-4.1,13.5-12.4,20.6c5.7,2.2,9.9,5.3,12.7,9.4c2.8,4,4.2,8.8,4.2,14.4
					c0,4.6-0.9,8.9-2.6,12.7c-1.7,3.9-4.1,7.2-7.3,10.1c-3.1,2.8-6.9,5-11.3,6.6c-4.4,1.6-9.3,2.4-14.7,2.4c-3.1,0-5.7-0.2-7.8-0.7
					c-2-0.4-3.7-1-4.9-1.7c-1.2-0.7-2-1.5-2.5-2.3c-0.5-0.8-0.7-1.7-0.7-2.6c0-1.6,0.6-2.8,1.9-3.7c1.2-0.8,2.7-1.3,4.5-1.3
					c0.4,0,0.8,0,1.1,0.1c0.3,0.1,0.8,0.2,1.3,0.4s1.2,0.5,2,0.9c0.8,0.4,1.9,1,3.3,1.7c1.6,0.9,2.9,1.5,3.9,2c1,0.4,1.9,0.8,2.6,1
					c0.7,0.2,1.4,0.3,2,0.3c0.7,0,1.5,0,2.4,0c2.3,0,4.4-0.5,6.5-1.5c2-1,3.8-2.3,5.4-3.9c1.6-1.6,2.8-3.5,3.7-5.7
					c0.9-2.2,1.4-4.4,1.4-6.8c0-1.5-0.2-3-0.5-4.6c-0.3-1.6-0.8-3.1-1.4-4.6c-0.6-1.5-1.2-2.8-2-4c-0.7-1.2-1.5-2.2-2.4-3
					c-0.9-0.9-2.1-1.7-3.5-2.6c-1.4-0.8-2.9-1.6-4.5-2.3c-1.6-0.7-3.3-1.2-5-1.6c-1.7-0.4-3.4-0.6-5.1-0.6h-2.2v-2
					c3.4-0.5,6.4-1.4,9-2.8c2.6-1.4,4.8-3,6.5-4.9c1.7-1.9,3.1-4,4-6.4c0.9-2.3,1.4-4.7,1.4-7.1c0-2.3-0.4-4.4-1.2-6.3
					c-0.8-1.9-1.9-3.5-3.2-4.9c-1.3-1.4-2.9-2.4-4.8-3.2c-1.9-0.7-3.8-1.1-5.9-1.1c-7,0-12.7,3.7-17.3,11.1L2137.9,2471.6z"/>
				<path d="M2206.8,2547.1v-2.5c3-0.1,5.9-0.4,8.6-1.1c2.7-0.6,5.4-1.7,7.9-3.1c2.5-1.4,5-3.2,7.4-5.5c2.4-2.3,4.8-5,7.1-8.3
					c2.4-3.3,4.4-6.7,6-10.3c1.6-3.6,2.9-7.4,3.9-11.4c-7.1,4.6-13.5,6.9-19.2,6.9c-3.2,0-6.3-0.7-9.1-2c-2.9-1.3-5.4-3.2-7.5-5.6
					c-2.1-2.4-3.8-5.3-5-8.6c-1.2-3.4-1.9-7.1-1.9-11.2c0-4.4,0.7-8.7,2.2-12.7c1.5-4,3.5-7.5,6.1-10.5c2.6-3,5.6-5.3,9.1-7.1
					c3.5-1.8,7.2-2.6,11.2-2.6c4.3,0,8.2,1.1,11.8,3.2c3.6,2.1,6.6,4.9,9.2,8.4c2.6,3.5,4.6,7.5,6,12.1c1.4,4.5,2.1,9.3,2.1,14.2
					c0,10.1-2.5,19.6-7.5,28.6c-2.6,4.4-5.6,8.5-9,12.1c-3.5,3.6-7.4,6.9-11.9,9.8c-7.3,4.8-15.2,7.2-23.7,7.2H2206.8z
					 M2249.1,2500.1c0.8-5.9,1.2-10.6,1.2-14.1c0-4.3-0.5-8.3-1.5-11.9c-1-3.6-2.3-6.8-3.9-9.4c-1.6-2.7-3.5-4.7-5.7-6.3
					c-2.2-1.5-4.4-2.3-6.9-2.3c-2,0-3.8,0.5-5.7,1.4c-1.8,0.9-3.4,2.3-4.8,4c-1.4,1.8-2.5,4-3.3,6.7c-0.8,2.7-1.3,5.8-1.3,9.4
					c0,4,0.4,7.7,1.2,11.1c0.8,3.4,1.9,6.4,3.3,8.9c1.4,2.5,3.2,4.5,5.3,6c2.1,1.4,4.4,2.2,7,2.2c1,0,2.2-0.1,3.5-0.4
					c1.3-0.3,2.6-0.6,4-1.1c1.3-0.5,2.7-1.1,3.9-1.8C2246.9,2501.8,2248.1,2501,2249.1,2500.1z"/>
				<path d="M2286.5,2532.2c2,0,3.8,0.7,5.3,2.2c1.5,1.4,2.2,3.2,2.2,5.3c0,2.1-0.7,3.9-2.2,5.4c-1.5,1.5-3.2,2.2-5.3,2.2
					c-2.1,0-3.9-0.7-5.4-2.2c-1.5-1.5-2.2-3.3-2.2-5.4c0-2.2,0.7-3.9,2.2-5.4C2282.6,2533,2284.4,2532.2,2286.5,2532.2z"/>
				<path d="M2364,2453.1l-5.4,12H2331l-6.1,12.3c5.5,0.8,10.5,2.2,15.1,4.3c4.6,2.1,8.6,4.6,11.9,7.6c3.3,3,5.9,6.5,7.7,10.5
					c1.9,3.9,2.8,8.2,2.8,12.7c0,5.6-1.2,10.5-3.5,14.8c-2.4,4.3-5.3,7.9-8.9,10.8c-3.6,2.9-7.5,5.2-11.8,6.7
					c-4.2,1.5-8.2,2.3-12,2.3c-2.8,0-5.2-0.3-7.2-0.8c-2-0.5-3.6-1.2-4.8-2.1c-1.2-0.9-2.2-1.8-2.8-2.9c-0.6-1-0.9-2.1-0.9-3.3
					c0-1.3,0.5-2.4,1.5-3.4c1-1,2.3-1.5,3.9-1.5c0.6,0,1.1,0,1.6,0.1c0.5,0.1,1,0.2,1.5,0.5c0.5,0.2,1.1,0.6,1.8,1
					c0.7,0.4,1.6,1,2.7,1.8c1.7,1.2,3.4,2.1,5.1,2.7c1.7,0.6,3.4,0.9,5.2,0.9c2.6,0,5.1-0.5,7.5-1.6c2.4-1.1,4.5-2.5,6.3-4.4
					c1.8-1.9,3.3-4,4.4-6.5c1.1-2.5,1.7-5.2,1.7-8.1c0-2.8-0.5-5.5-1.4-8.1c-0.9-2.6-2.3-5.1-4-7.4c-1.8-2.3-3.9-4.4-6.3-6.3
					c-2.5-1.9-5.2-3.5-8.3-4.8c-2.5-1.1-5.4-1.9-8.7-2.4c-3.3-0.5-7.1-0.9-11.4-1.1l17.6-36.2H2364z"/>
				<path d="M2490.9,2452.1l2.1,31h-2.1c-2.8-9.3-6.8-16-11.9-20.1c-5.1-4.1-11.3-6.1-18.5-6.1c-4.7,0-9,0.9-12.9,2.7
					c-3.9,1.8-7.3,4.5-10.2,8.2c-2.8,3.7-5.1,8.3-6.7,13.8c-1.6,5.6-2.4,12.1-2.4,19.7c0,6.1,0.8,11.6,2.3,16.6
					c1.5,5,3.7,9.2,6.6,12.7c2.9,3.5,6.5,6.2,10.7,8.1c4.2,1.9,9.1,2.9,14.5,2.9c5.8,0,11-1.3,15.7-3.8c4.5-2.3,9.5-7.4,14.9-15
					l2.1,1.3c-4.6,8.1-9.9,14-16,17.8c-6.1,3.8-13.3,5.7-21.7,5.7c-6.5,0-12.4-1.1-17.9-3.4c-5.4-2.3-10.1-5.5-14-9.6
					c-3.9-4.1-7-9-9.2-14.6c-2.2-5.7-3.3-11.9-3.3-18.6c0-9.2,2-17.5,6.1-25.1c4-7.6,9.6-13.5,16.8-17.7c7.2-4.2,15-6.3,23.5-6.3
					c6.6,0,13.1,1.6,19.5,4.8c1.9,1,3.2,1.5,4,1.5c1.5,0,2.7-0.6,3.7-1.8c1-1.2,1.7-2.7,2.1-4.5H2490.9z"/>
				<path d="M2522.8,2494.4c2.3-2.3,4.1-4.1,5.4-5.4c1.3-1.3,2.2-2.1,2.6-2.4c2-1.7,4.2-3.1,6.6-4c2.4-0.9,4.7-1.4,7-1.4
					c3.9,0,7.2,1.1,10,3.4c2.8,2.3,4.7,5.5,5.6,9.8c2.3-2.7,4.4-4.9,6.3-6.7c1.9-1.8,3.7-3.1,5.4-4c1.7-0.9,3.4-1.6,4.9-2
					c1.6-0.4,3.2-0.6,4.9-0.6c2.3,0,4.4,0.4,6.4,1.2c2,0.8,3.7,2.1,5.2,3.8c1.5,1.8,2.6,4.2,3.5,7.1c0.8,3,1.3,6.6,1.3,11v26.6
					c0,2.2,0.1,4.1,0.2,5.7c0.1,1.6,0.5,2.9,1.1,3.9c0.7,1,1.6,1.8,3,2.2c1.3,0.5,3.2,0.7,5.7,0.7v1.7h-31v-2h1.3
					c1.6,0,3-0.1,4.1-0.4c1.1-0.3,2-0.8,2.7-1.6c0.7-0.8,1.2-2,1.5-3.5s0.4-3.6,0.4-6.1v-26.7c0-3-0.2-5.4-0.7-7.3
					c-0.5-1.9-1.1-3.4-2-4.6c-0.9-1.1-1.9-1.9-3.2-2.4c-1.3-0.4-2.7-0.7-4.3-0.7c-1.2,0-2.4,0.1-3.5,0.4c-1.1,0.2-2.3,0.7-3.6,1.3
					c-1.2,0.6-2.6,1.5-4,2.6c-1.4,1.1-3,2.7-4.8,4.9v32c0,2.2,0,4,0.1,5.2c0.1,1.2,0.2,2.2,0.5,2.8c0.3,0.6,0.6,1.1,1,1.5
					c0.4,0.3,1,0.7,1.7,1.1c1.3,0.7,3.5,1,6.7,1v2.4h-32v-2.4c2.4,0,4.3-0.2,5.7-0.5c1.4-0.3,2.4-0.9,3-1.8c0.6-0.9,1-2.1,1.1-3.6
					c0.1-1.5,0.2-3.4,0.2-5.7v-26.5c0-2.8-0.2-5.2-0.7-7.1s-1.2-3.4-2.1-4.6c-0.9-1.2-2-2-3.3-2.5c-1.3-0.5-2.6-0.7-4.2-0.7
					c-1.5,0-3,0.3-4.6,0.8c-1.5,0.5-3,1.2-4.4,2c-1.4,0.8-2.7,1.7-3.9,2.7c-1.2,1-2.2,2-2.9,2.9v33c0,2.1,0.1,3.8,0.2,5
					c0.1,1.3,0.3,2.3,0.6,3c0.3,0.7,0.6,1.3,1.1,1.7c0.4,0.4,0.9,0.7,1.4,1c1.1,0.6,3.3,0.9,6.7,0.9v2.4h-30v-2.4
					c2,0,3.6-0.2,4.7-0.5c1.2-0.3,2.1-0.9,2.7-1.8c0.6-0.9,1.1-2.1,1.2-3.5c0.2-1.5,0.3-3.4,0.3-5.9v-23.7c0-4.1-0.1-7.2-0.2-9.5
					c-0.1-2.3-0.4-4-0.7-5.2c-0.4-1.1-0.8-1.9-1.4-2.1c-0.6-0.3-1.4-0.4-2.3-0.4c-0.6,0-1.2,0.1-1.9,0.3c-0.7,0.2-1.5,0.4-2.4,0.8
					l-1-2.4l17.7-7.6h3.2V2494.4z"/>
			</g>
		</g>
	</g>
	<circle cx="1421.7" cy="608.4" r="21.5"/>
	<line class="st2" x1="1424.6" y1="606.4" x2="1179.7" y2="607.2"/>
	<g id="SELECTOR-PUERTAS-SUB">
		<circle class="st6" cx="658.6" cy="606.4" r="512.7"/>
		<ellipse class="st7" cx="658.2" cy="607.3" rx="518" ry="514"/>
		<line class="st8" x1="555.9" y1="906" x2="411.6" y2="906"/>
		<circle class="st9" cx="657.1" cy="604.5" r="512.7"/>
		<g>
			<line class="st10" x1="206.5" y1="382.4" x2="1115.3" y2="382.4"/>
			<line class="st10" x1="1050.4" y1="941.5" x2="272.1" y2="941.4"/>
			<line class="st11" x1="483.7" y1="417.7" x2="483.7" y2="906.2"/>
			<line class="st8" x1="555.9" y1="417.7" x2="411.6" y2="417.7"/>
			<g>
				<path d="M555.7,605.4l31.1-15.2h3.1v108.1c0,3.8,0,6.7,0.1,8.8c0.1,2.1,0.3,3.7,0.7,4.9c0.4,1.1,0.8,1.9,1.4,2.4
					c0.6,0.5,1.4,0.9,2.4,1.4c1.9,1,5.7,1.6,11.6,1.6v3.5H558v-3.5c3.1,0,5.6-0.1,7.5-0.4c1.9-0.3,3.3-0.6,4.4-1.1
					c1-0.4,1.8-1,2.3-1.6c0.5-0.7,0.9-1.4,1.2-2.1c0.7-1.4,1-6,1-13.8v-69.2c0-5.4-0.1-9.7-0.4-12.9c-0.2-3.1-0.6-5.5-1.2-7
					c-0.6-1.5-1.3-2.5-2.3-2.9c-0.9-0.4-2.2-0.6-3.7-0.6c-2.6,0-5.9,0.8-9.7,2.5L555.7,605.4z"/>
				<path d="M653.9,702.5c2.8,0,5.3,1,7.3,3c2.1,2,3.1,4.5,3.1,7.4c0,2.9-1,5.4-3.1,7.5c-2.1,2.1-4.5,3.1-7.3,3.1
					c-2.9,0-5.4-1-7.5-3.1c-2.1-2.1-3.1-4.6-3.1-7.5c0-3,1-5.5,3.1-7.5C648.5,703.5,651,702.5,653.9,702.5z"/>
				<path d="M715.1,656.3c-5.1-4.2-9.2-7.9-12.3-11.1c-3.1-3.2-5.6-6.1-7.3-8.8c-1.7-2.7-2.9-5.3-3.5-7.8c-0.6-2.5-0.8-5.1-0.8-8
					c0-4,0.8-7.9,2.5-11.6c1.7-3.7,4.1-7,7.2-9.7c3.1-2.8,6.8-5,11.1-6.6c4.3-1.6,9.1-2.5,14.4-2.5c5.1,0,9.7,0.8,14,2.3
					s7.9,3.6,10.9,6.1c3.1,2.5,5.4,5.5,7,8.8c1.6,3.3,2.5,6.7,2.5,10.2c0,2.5-0.4,5-1.1,7.4c-0.7,2.4-2,4.9-4,7.4s-4.7,5.2-8.1,8.1
					c-3.4,2.9-7.8,6-13.2,9.4c5.5,4.3,10.1,8.2,13.8,11.5c3.7,3.3,6.4,6.2,8.2,8.7c4.8,6.5,7.2,13.2,7.2,20.3
					c0,4.4-0.9,8.6-2.7,12.6c-1.8,4-4.3,7.5-7.6,10.4c-3.3,3-7.2,5.3-11.8,7c-4.6,1.7-9.7,2.6-15.2,2.6c-5.4,0-10.3-0.8-14.7-2.5
					c-4.5-1.7-8.3-4-11.6-6.9c-3.2-2.9-5.8-6.2-7.5-10c-1.8-3.8-2.7-7.8-2.7-12c0-5.7,1.9-11.4,5.8-17
					C699.4,669.1,705.9,663,715.1,656.3z M719.6,660c-5.4,4.4-9.3,9.2-11.7,14.4c-2.4,5.2-3.7,10.8-3.7,16.9c0,4,0.6,7.7,1.8,11
					c1.2,3.3,2.8,6.1,4.9,8.5c2.1,2.3,4.5,4.2,7.4,5.4c2.9,1.3,6,1.9,9.5,1.9c3.4,0,6.5-0.5,9.2-1.6c2.8-1,5.1-2.4,7.1-4.2
					c2-1.8,3.5-3.9,4.6-6.3c1.1-2.4,1.6-5,1.6-7.7c0-2.9-0.6-5.7-1.8-8.5c-1.2-2.7-3-5.6-5.4-8.5c-2.4-3-5.6-6.2-9.5-9.7
					C729.8,668.2,725.1,664.3,719.6,660z M729.9,646.3c3.9-3.6,7.1-6.6,9.4-9.2c2.3-2.5,4.1-4.9,5.3-7c1.2-2.2,2-4.3,2.3-6.3
					c0.3-2.1,0.5-4.4,0.5-6.9c0-6.7-1.9-11.9-5.6-15.6c-3.7-3.7-8.8-5.6-15.3-5.6c-3.2,0-6.1,0.5-8.7,1.5c-2.6,1-4.9,2.3-6.8,4
					c-1.9,1.7-3.4,3.7-4.5,5.9c-1.1,2.3-1.6,4.7-1.6,7.2c0,3.3,0.8,6.6,2.5,9.8c1.7,3.2,4.1,6.4,7.2,9.4L729.9,646.3z"/>
				<path d="M939.5,589.9l3,43.6h-3c-3.9-13.1-9.5-22.5-16.7-28.2c-7.2-5.7-15.9-8.6-26-8.6c-6.6,0-12.6,1.2-18.2,3.7
					c-5.5,2.5-10.3,6.3-14.3,11.5c-4,5.2-7.1,11.7-9.4,19.5c-2.3,7.8-3.4,17-3.4,27.6c0,8.6,1.1,16.3,3.2,23.3
					c2.1,7,5.2,12.9,9.3,17.8s9.1,8.7,15,11.4c5.9,2.7,12.7,4,20.4,4c8.1,0,15.4-1.8,22-5.4c6.3-3.3,13.3-10.3,21-21.1l3,1.8
					c-6.5,11.4-14,19.7-22.5,25c-8.5,5.3-18.7,8-30.5,8c-9.1,0-17.5-1.6-25.1-4.8c-7.6-3.2-14.2-7.7-19.7-13.5
					c-5.5-5.8-9.8-12.6-12.9-20.6c-3.1-7.9-4.7-16.7-4.7-26.1c0-12.9,2.9-24.6,8.6-35.2c5.6-10.7,13.5-19,23.5-24.8
					c10.1-5.9,21.1-8.9,33-8.9c9.3,0,18.4,2.3,27.3,6.8c2.6,1.4,4.5,2.1,5.6,2.1c2.1,0,3.8-0.8,5.1-2.5c1.4-1.7,2.3-3.8,2.9-6.3
					H939.5z"/>
				<path d="M1031.1,720.8l-49.5-107.7v85.6c0,4.4,0.3,7.9,0.9,10.4c0.6,2.5,1.5,4.3,2.7,5.6c1.2,1.2,2.6,2,4.3,2.3
					c1.7,0.3,3.6,0.4,5.8,0.4h4.5v3.5h-44.5v-3.5h4.5c2.3,0,4.2-0.2,5.9-0.5c1.7-0.3,3.1-1.1,4.2-2.4c1.1-1.3,2-3.1,2.5-5.6
					c0.6-2.5,0.8-5.8,0.8-10.1V615c0-3-0.1-5.7-0.4-8c-0.3-2.3-1-4.3-2.2-5.8c-1.2-1.6-3-2.8-5.4-3.7s-5.8-1.3-10.1-1.3v-3.5h36.2
					l46.5,100.2l45.7-100.2h36.2v3.5h-4.4c-2.4,0-4.4,0.2-6.1,0.6c-1.7,0.4-3.1,1.2-4.2,2.5c-1.1,1.3-2,3.1-2.5,5.6
					c-0.6,2.5-0.8,5.8-0.8,10.1v83.7c0,4.4,0.3,7.9,0.9,10.4c0.6,2.5,1.5,4.3,2.7,5.6c1.2,1.2,2.6,2,4.3,2.3
					c1.7,0.3,3.6,0.4,5.8,0.4h4.4v3.5h-54.4v-3.5h4.5c2.3,0,4.2-0.2,5.9-0.6c1.7-0.4,3.1-1.2,4.3-2.5c1.2-1.3,2-3.1,2.6-5.6
					c0.6-2.4,0.8-5.8,0.8-10v-85.6l-49.3,107.7H1031.1z"/>
			</g>
		</g>
	</g>
	<g>
		<g>
			<path d="M422.3,1252.7v16.5h-1.2c-0.6-4.4-1.9-7.5-3.9-9.3c-2-1.8-5-2.7-9-2.7h-9.8v53.4c0,2.4,0.2,4.2,0.5,5.6
				c0.3,1.4,0.8,2.4,1.4,3c0.6,0.7,1.4,1.1,2.3,1.3c0.9,0.2,2,0.3,3.2,0.3h2.4v1.9h-29.6v-1.9h2.5c1.2,0,2.3-0.1,3.2-0.3
				c0.9-0.2,1.7-0.7,2.3-1.3c0.6-0.7,1.1-1.7,1.4-3c0.3-1.3,0.5-3.2,0.5-5.5v-53.4h-8.4c-2.1,0-4,0.2-5.6,0.5
				c-1.6,0.3-3,0.9-4.2,1.8c-1.2,0.9-2.1,2.1-2.8,3.7c-0.7,1.6-1.1,3.6-1.3,6h-1.9v-16.5H422.3z"/>
			<path d="M447.3,1285.2h32.4v-20c0-1.6,0-3-0.1-4c-0.1-1-0.2-1.9-0.4-2.6c-0.2-0.7-0.5-1.2-0.9-1.6c-0.4-0.4-0.9-0.8-1.5-1.1
				c-1.4-0.8-3-1.2-4.7-1.2h-2.5v-1.9h29.9v1.9h-2.5c-0.7,0-1.4,0.1-2.1,0.2c-0.7,0.2-1.4,0.4-2.1,0.7c-0.6,0.3-1.2,0.7-1.7,1.2
				c-0.5,0.5-0.9,1-1.1,1.6c-0.4,1.1-0.5,3.4-0.5,6.8v45c0,1.6,0,3,0.1,4c0.1,1,0.2,1.9,0.4,2.5c0.2,0.7,0.4,1.2,0.8,1.6
				c0.4,0.4,0.8,0.8,1.5,1.1c1.4,0.8,3,1.2,4.8,1.2h2.5v1.9h-29.9v-1.9h2.5c1.2,0,2.2-0.1,3.2-0.3c0.9-0.2,1.7-0.6,2.4-1.3
				c0.7-0.7,1.2-1.7,1.5-3.2c0.3-1.4,0.5-3.3,0.5-5.7v-21.3h-32.4v21.3c0,1.6,0,3,0.1,4c0.1,1,0.2,1.9,0.4,2.5
				c0.2,0.7,0.5,1.2,0.9,1.6c0.4,0.4,0.9,0.8,1.5,1.1c1.4,0.8,3,1.2,4.7,1.2h2.5v1.9h-30v-1.9h2.5c2.8,0,4.9-0.8,6.2-2.5
				c0.8-1,1.2-3.7,1.2-7.9v-45c0-1.7,0-3.1-0.1-4.1c-0.1-1-0.2-1.9-0.4-2.5c-0.2-0.6-0.5-1.2-0.8-1.5c-0.4-0.4-0.8-0.8-1.5-1.1
				c-1.4-0.8-3-1.2-4.7-1.2h-2.5v-1.9h30v1.9h-2.5c-0.6,0-1.3,0.1-2,0.2c-0.7,0.2-1.4,0.4-2.1,0.7c-0.6,0.3-1.2,0.7-1.7,1.2
				c-0.5,0.5-0.9,1-1.1,1.6c-0.4,1.2-0.6,3.5-0.6,6.8V1285.2z"/>
			<path d="M534.3,1320.7v1.9h-29.9v-1.9h2.5c1.2,0,2.3-0.1,3.3-0.3c0.9-0.2,1.7-0.6,2.3-1.3c0.6-0.7,1.1-1.7,1.4-3.2
				c0.3-1.4,0.5-3.3,0.5-5.7v-45.1c0-1.6,0-2.9-0.1-4c-0.1-1-0.2-1.9-0.4-2.6c-0.2-0.7-0.4-1.2-0.8-1.6c-0.4-0.4-0.8-0.8-1.5-1.1
				c-1.5-0.8-3.1-1.2-4.8-1.2h-2.5v-1.9h29.9v1.9h-2.5c-1.2,0-2.3,0.1-3.3,0.3c-0.9,0.2-1.7,0.7-2.3,1.3c-0.6,0.7-1.1,1.7-1.4,3.2
				c-0.3,1.4-0.5,3.3-0.5,5.7v45.1c0,1.6,0,3,0.1,4c0.1,1,0.2,1.9,0.4,2.5c0.2,0.7,0.5,1.2,0.9,1.6c0.4,0.4,0.9,0.8,1.5,1.1
				c1.4,0.8,3,1.2,4.7,1.2H534.3z"/>
			<path d="M600.5,1251.2l1.6,23.8h-1.6c-2.2-7.1-5.2-12.2-9.1-15.4c-3.9-3.1-8.6-4.7-14.2-4.7c-3.6,0-6.9,0.7-9.9,2
				c-3,1.4-5.6,3.4-7.8,6.3c-2.2,2.8-3.9,6.4-5.1,10.6c-1.2,4.3-1.8,9.3-1.8,15.1c0,4.7,0.6,8.9,1.7,12.7c1.2,3.8,2.8,7,5.1,9.7
				c2.2,2.7,5,4.8,8.2,6.2c3.2,1.5,6.9,2.2,11.1,2.2c4.4,0,8.4-1,12-2.9c3.4-1.8,7.3-5.6,11.5-11.5l1.6,1
				c-3.5,6.2-7.6,10.8-12.3,13.6c-4.6,2.9-10.2,4.3-16.6,4.3c-5,0-9.5-0.9-13.7-2.6c-4.2-1.7-7.7-4.2-10.7-7.3
				c-3-3.2-5.3-6.9-7-11.2c-1.7-4.3-2.5-9.1-2.5-14.3c0-7,1.6-13.4,4.7-19.2c3.1-5.8,7.4-10.4,12.8-13.5c5.5-3.2,11.5-4.8,18-4.8
				c5.1,0,10,1.2,14.9,3.7c1.4,0.8,2.5,1.2,3.1,1.2c1.1,0,2.1-0.5,2.8-1.4c0.7-0.9,1.3-2.1,1.6-3.5H600.5z"/>
			<path d="M638.8,1283.9l25.8,25.6c2.2,2.2,4.1,3.9,5.8,5.3c1.7,1.4,3.4,2.5,4.9,3.4c1.5,0.8,3,1.5,4.5,1.8c1.5,0.4,3,0.6,4.5,0.7
				v1.9h-33.2v-1.9c2.2,0,3.7-0.4,4.5-1.2c0.8-0.8,1.2-1.6,1.2-2.5c0-0.4,0-0.7-0.1-1c-0.1-0.3-0.2-0.6-0.4-1
				c-0.2-0.4-0.6-0.8-1.1-1.4c-0.5-0.6-1.2-1.3-2.1-2.2l-24.1-23.9v22.5c0,1.6,0,3,0.1,4c0.1,1,0.2,1.9,0.4,2.5
				c0.2,0.7,0.5,1.2,0.8,1.6c0.4,0.4,0.9,0.8,1.5,1.1c1.5,0.8,3,1.2,4.7,1.2h2.4v1.9h-29.8v-1.9h2.5c2.9,0,5-0.8,6.3-2.5
				c0.8-1.1,1.2-3.8,1.2-7.9v-45.1c0-1.5,0-2.8-0.1-3.9c-0.1-1-0.2-1.9-0.4-2.6c-0.2-0.7-0.5-1.2-0.8-1.7c-0.4-0.4-0.8-0.8-1.5-1.1
				c-1.6-0.8-3.2-1.2-4.8-1.2h-2.5v-1.9h29.8v1.9h-2.4c-1.3,0-2.6,0.3-4,0.8c-1.4,0.6-2.4,1.5-2.9,2.8c-0.4,1.1-0.6,3.4-0.6,6.8
				v21.4c0.1-0.1,0.4-0.4,1-1c0.6-0.6,1.4-1.2,2.2-2c0.8-0.7,1.6-1.4,2.3-2.2c0.7-0.7,1.3-1.2,1.6-1.5c3.7-3.4,6.9-6.4,9.5-8.8
				c2.6-2.5,4.6-4.5,6.1-6.3c1.5-1.7,2.6-3.2,3.3-4.3c0.7-1.2,1-2.1,1-2.9c0-0.8-0.4-1.5-1.1-2.1c-0.7-0.6-1.9-0.9-3.7-0.9h-1.6
				v-1.9h25.7v1.9c-0.9,0.1-1.9,0.1-2.8,0.3c-0.9,0.1-2,0.4-3.2,1c-1.2,0.5-2.5,1.3-4,2.4c-1.5,1.1-3.3,2.6-5.3,4.5
				c-0.4,0.4-1.5,1.4-3.2,3.2c-1.7,1.8-4.1,4.2-7.3,7.3L638.8,1283.9z"/>
			<path d="M682.1,1252.7H701l42.7,52.4v-40.3c0-2.4-0.2-4.2-0.5-5.6c-0.3-1.4-0.8-2.4-1.5-3.1c-0.6-0.7-1.4-1.1-2.3-1.3
				c-0.9-0.2-2-0.3-3.2-0.3h-2.5v-1.9h24.4v1.9h-2.5c-1.2,0-2.3,0.1-3.2,0.3c-0.9,0.2-1.7,0.7-2.3,1.4c-0.6,0.7-1.1,1.7-1.4,3.1
				c-0.3,1.3-0.5,3.2-0.5,5.5v58.9h-1.8l-46-56.3v43c0,2.4,0.2,4.3,0.5,5.7c0.3,1.4,0.8,2.4,1.4,3c0.6,0.7,1.4,1.1,2.3,1.2
				c0.9,0.2,2,0.2,3.2,0.2h2.5v1.9h-24.3v-1.9h2.5c1.2,0,2.3-0.1,3.2-0.3c0.9-0.2,1.7-0.7,2.3-1.3c0.6-0.7,1.1-1.7,1.4-3
				c0.3-1.3,0.5-3.2,0.5-5.5V1262c-1-1.2-1.9-2.2-2.6-2.9c-0.7-0.7-1.3-1.3-2-1.8c-0.6-0.5-1.3-0.8-2-1.2c-0.7-0.3-1.6-0.6-2.7-1
				c-1-0.3-2.5-0.5-4.5-0.5V1252.7z"/>
			<path d="M781.7,1256.6v27.6H797c2.3,0,4.1-0.2,5.5-0.6c1.4-0.4,2.5-1,3.3-1.8c0.8-0.8,1.3-1.9,1.7-3.2c0.3-1.3,0.5-2.8,0.6-4.5
				h1.9v24.3H808c-0.3-2-0.6-3.7-0.9-5c-0.3-1.3-0.9-2.4-1.6-3.2c-0.7-0.8-1.8-1.4-3.1-1.7c-1.3-0.3-3.1-0.5-5.4-0.5h-15.3v23.1
				c0,1.7,0,3.1,0.1,4.2c0.1,1,0.3,1.8,0.6,2.3c0.4,0.5,0.9,0.9,1.7,1c0.8,0.2,1.9,0.2,3.4,0.2h11.8c2,0,3.7-0.1,5.1-0.2
				c1.4-0.1,2.6-0.3,3.6-0.6c1-0.3,1.9-0.7,2.7-1.3c0.8-0.5,1.6-1.2,2.5-2c2-2,4.2-5.2,6.5-9.6h2.1l-6.1,17.5h-53.8v-1.9h2.5
				c0.7,0,1.4-0.1,2.1-0.2c0.7-0.2,1.4-0.4,2-0.7c0.6-0.3,1.2-0.7,1.7-1.1c0.5-0.5,0.9-1,1.1-1.6c0.4-1.1,0.6-3.4,0.6-6.8V1265
				c0-4.5-0.4-7.2-1.3-8.2c-1.2-1.4-3.3-2.1-6.2-2.1h-2.5v-1.9h53.8v15.3h-1.2c-0.5-2.5-1.1-4.5-1.7-6c-0.6-1.5-1.4-2.7-2.3-3.5
				c-1-0.8-2.2-1.3-3.7-1.6c-1.5-0.2-3.4-0.3-5.8-0.3H781.7z"/>
			<path d="M872.4,1251.2v24.1h-1.9c-0.9-6.5-3-11.5-6.4-14.9c-3.4-3.4-7.7-5.2-12.9-5.2c-1.8,0-3.4,0.3-4.9,0.9
				c-1.5,0.6-2.8,1.4-3.9,2.4c-1.1,1-2,2.1-2.6,3.4c-0.6,1.3-0.9,2.6-0.9,4c0,1.3,0.3,2.5,0.8,3.7c0.5,1.2,2.1,3,4.8,5.4
				c4.5,2.8,8.4,5.2,11.9,7c3.3,1.8,7.7,4.5,13.3,8.1c2.4,1.8,4.3,4,5.5,6.6c1.3,2.5,1.9,5.2,1.9,8c0,2.6-0.5,5.1-1.6,7.5
				c-1.1,2.4-2.6,4.4-4.5,6.2c-1.9,1.8-4.2,3.2-7,4.2c-2.7,1-5.7,1.6-8.9,1.6c-2.1,0-3.9-0.2-5.7-0.5c-0.3-0.1-1.1-0.3-2.4-0.7
				c-1.3-0.4-2.7-0.8-4.2-1.2c-1.5-0.4-2.9-0.8-4.2-1.2c-1.3-0.4-2-0.5-2.2-0.5c-0.9,0-1.6,0.3-2,0.8c-0.5,0.5-0.9,1.6-1.1,3.2h-1.9
				v-24h1.9c0.9,4.9,2.1,8.7,3.6,11.3c0.7,1.2,1.7,2.4,2.9,3.4c1.2,1.1,2.6,2,4.1,2.8c1.5,0.8,3.1,1.4,4.9,1.8
				c1.7,0.4,3.5,0.7,5.3,0.7c2.2,0,4.1-0.3,5.8-0.9c1.7-0.6,3.2-1.4,4.4-2.5c1.2-1,2.1-2.3,2.8-3.7c0.6-1.4,1-2.8,1-4.4
				c0-1.7-0.5-3.5-1.4-5.2c-0.9-1.7-2.6-3.5-4.8-5.2c-2.2-1.3-4.8-2.9-7.8-4.7c-5.8-3.3-10.9-6.5-15.5-9.6c-2.5-2-4.4-4.2-5.7-6.6
				s-2-5-2-8c0-2.5,0.5-4.8,1.5-7c1-2.2,2.4-4.2,4.3-5.9c1.8-1.7,4-3,6.5-4c2.5-1,5.2-1.5,8.1-1.5c3.7,0,7.6,0.9,11.8,2.7
				c1,0.4,1.8,0.7,2.5,1c0.7,0.3,1.2,0.4,1.6,0.3c0.9,0,1.7-0.3,2.2-0.8c0.6-0.5,1-1.6,1.3-3.2H872.4z"/>
			<path d="M931.1,1251.2v24.1h-1.9c-0.9-6.5-3-11.5-6.4-14.9c-3.4-3.4-7.7-5.2-12.9-5.2c-1.8,0-3.4,0.3-4.9,0.9
				c-1.5,0.6-2.8,1.4-3.9,2.4c-1.1,1-2,2.1-2.6,3.4c-0.6,1.3-0.9,2.6-0.9,4c0,1.3,0.3,2.5,0.8,3.7c0.5,1.2,2.1,3,4.8,5.4
				c4.5,2.8,8.4,5.2,11.9,7c3.3,1.8,7.7,4.5,13.3,8.1c2.4,1.8,4.3,4,5.5,6.6c1.3,2.5,1.9,5.2,1.9,8c0,2.6-0.5,5.1-1.6,7.5
				c-1.1,2.4-2.6,4.4-4.5,6.2c-1.9,1.8-4.2,3.2-7,4.2c-2.7,1-5.7,1.6-8.9,1.6c-2.1,0-3.9-0.2-5.7-0.5c-0.3-0.1-1.1-0.3-2.4-0.7
				c-1.3-0.4-2.7-0.8-4.2-1.2c-1.5-0.4-2.9-0.8-4.2-1.2c-1.3-0.4-2-0.5-2.2-0.5c-0.9,0-1.6,0.3-2,0.8c-0.5,0.5-0.9,1.6-1.1,3.2H890
				v-24h1.9c0.9,4.9,2.1,8.7,3.6,11.3c0.7,1.2,1.7,2.4,2.9,3.4c1.2,1.1,2.6,2,4.1,2.8c1.5,0.8,3.1,1.4,4.9,1.8
				c1.7,0.4,3.5,0.7,5.3,0.7c2.2,0,4.1-0.3,5.8-0.9c1.7-0.6,3.2-1.4,4.4-2.5c1.2-1,2.1-2.3,2.8-3.7c0.6-1.4,1-2.8,1-4.4
				c0-1.7-0.5-3.5-1.4-5.2c-0.9-1.7-2.6-3.5-4.8-5.2c-2.2-1.3-4.8-2.9-7.8-4.7c-5.8-3.3-10.9-6.5-15.5-9.6c-2.5-2-4.4-4.2-5.7-6.6
				s-2-5-2-8c0-2.5,0.5-4.8,1.5-7c1-2.2,2.4-4.2,4.3-5.9c1.8-1.7,4-3,6.5-4c2.5-1,5.2-1.5,8.1-1.5c3.7,0,7.6,0.9,11.8,2.7
				c1,0.4,1.8,0.7,2.5,1c0.7,0.3,1.2,0.4,1.6,0.3c0.9,0,1.7-0.3,2.2-0.8c0.6-0.5,1-1.6,1.3-3.2H931.1z"/>
		</g>
		<g>
			<path d="M399.8,1358.8c4.5,0,8.7,0.9,12.8,2.8c4,1.8,7.6,4.4,10.7,7.6c3.1,3.2,5.5,7,7.3,11.4c1.8,4.4,2.7,9.1,2.7,14.3
				c0,5.3-0.9,10.2-2.7,14.7c-1.8,4.5-4.3,8.4-7.4,11.7c-3.1,3.3-6.7,5.9-10.9,7.8c-4.2,1.9-8.6,2.8-13.3,2.8
				c-4.8,0-9.2-0.9-13.4-2.7c-4.2-1.8-7.8-4.3-10.8-7.6c-3-3.3-5.5-7.1-7.2-11.6c-1.8-4.5-2.7-9.5-2.7-14.9c0-5,0.9-9.7,2.7-14.1
				c1.8-4.4,4.2-8.2,7.3-11.5c3.1-3.3,6.8-5.8,11-7.7C390.1,1359.7,394.8,1358.8,399.8,1358.8z M398.8,1362.5
				c-3.5,0-6.7,0.8-9.4,2.3c-2.7,1.5-5,3.7-6.9,6.5c-1.9,2.8-3.3,6.2-4.3,10.1c-1,4-1.5,8.4-1.5,13.4c0,4.9,0.5,9.4,1.4,13.5
				c0.9,4.1,2.4,7.6,4.2,10.5c1.9,2.9,4.2,5.2,7,6.8c2.8,1.6,5.9,2.4,9.5,2.4c3.2,0,6.2-0.6,9-1.8c2.7-1.2,5.1-3.1,7.2-5.7
				c2-2.6,3.7-5.9,4.8-9.9c1.2-4,1.7-8.8,1.7-14.4c0-5.3-0.5-10-1.4-14.2c-0.9-4.2-2.4-7.7-4.3-10.6c-1.9-2.9-4.3-5.1-7.1-6.6
				C405.8,1363.3,402.5,1362.5,398.8,1362.5z"/>
			<path d="M459,1364.1v27.4h12.7c1.5,0,2.8-0.1,3.8-0.4c1-0.3,1.9-0.8,2.7-1.5c0.7-0.7,1.3-1.7,1.7-2.9c0.4-1.2,0.7-2.8,1-4.7h1.9
				v23.6h-1.9c-0.1-1.7-0.2-3.2-0.5-4.5c-0.3-1.2-0.8-2.2-1.5-3c-0.7-0.8-1.6-1.4-2.8-1.7c-1.2-0.4-2.6-0.5-4.3-0.5H459v21.9
				c0,1.6,0,3,0.1,4c0.1,1,0.2,1.9,0.4,2.5c0.2,0.7,0.5,1.2,0.9,1.6c0.4,0.4,0.9,0.8,1.5,1.1c1.4,0.8,3,1.2,4.7,1.2h2.5v1.9h-30
				v-1.9h2.5c1.2,0,2.3-0.1,3.3-0.3c0.9-0.2,1.7-0.6,2.3-1.3c0.6-0.7,1.1-1.7,1.4-3.2c0.3-1.4,0.5-3.3,0.5-5.7v-45.1
				c0-1.6,0-2.9-0.1-4c-0.1-1-0.2-1.9-0.4-2.6c-0.2-0.7-0.4-1.2-0.8-1.6c-0.4-0.4-0.8-0.8-1.5-1.1c-0.8-0.4-1.5-0.7-2.3-0.9
				c-0.8-0.2-1.6-0.3-2.5-0.3h-2.5v-1.9h52v15.4h-1.2c-0.7-2.5-1.4-4.5-2.3-6c-0.8-1.5-1.9-2.7-3.1-3.5c-1.2-0.8-2.6-1.4-4.3-1.6
				c-1.6-0.3-3.6-0.4-5.9-0.4H459z"/>
			<path d="M534.8,1367.2l17-8.3h1.7v59c0,2.1,0,3.7,0.1,4.8c0.1,1.2,0.2,2,0.4,2.7c0.2,0.6,0.5,1.1,0.8,1.3
				c0.3,0.3,0.7,0.5,1.3,0.8c1,0.6,3.1,0.8,6.3,0.8v1.9H536v-1.9c1.7,0,3-0.1,4.1-0.2c1-0.2,1.8-0.3,2.4-0.6c0.6-0.2,1-0.5,1.3-0.9
				c0.3-0.4,0.5-0.7,0.7-1.2c0.4-0.8,0.5-3.3,0.5-7.5v-37.7c0-3-0.1-5.3-0.2-7c-0.1-1.7-0.3-3-0.7-3.8c-0.3-0.8-0.7-1.3-1.2-1.6
				c-0.5-0.2-1.2-0.3-2-0.3c-1.4,0-3.2,0.5-5.3,1.4L534.8,1367.2z"/>
			<path d="M588.4,1420.2c1.5,0,2.9,0.6,4,1.7c1.1,1.1,1.7,2.4,1.7,4c0,1.6-0.6,2.9-1.7,4.1c-1.1,1.1-2.5,1.7-4,1.7
				c-1.6,0-2.9-0.6-4.1-1.7c-1.1-1.1-1.7-2.5-1.7-4.1c0-1.6,0.6-3,1.7-4.1C585.4,1420.7,586.8,1420.2,588.4,1420.2z"/>
			<path d="M621.7,1395c-2.8-2.3-5-4.3-6.7-6.1c-1.7-1.7-3-3.3-4-4.8c-0.9-1.5-1.6-2.9-1.9-4.2c-0.3-1.4-0.5-2.8-0.5-4.3
				c0-2.2,0.5-4.3,1.4-6.3c0.9-2,2.2-3.8,3.9-5.3c1.7-1.5,3.7-2.7,6.1-3.6c2.4-0.9,5-1.3,7.8-1.3c2.8,0,5.3,0.4,7.6,1.3
				c2.3,0.8,4.3,2,6,3.3c1.7,1.4,2.9,3,3.8,4.8c0.9,1.8,1.3,3.7,1.3,5.6c0,1.4-0.2,2.7-0.6,4c-0.4,1.3-1.1,2.7-2.2,4
				c-1.1,1.4-2.6,2.9-4.4,4.4c-1.9,1.6-4.3,3.3-7.2,5.1c3,2.4,5.5,4.4,7.5,6.3c2,1.8,3.5,3.4,4.5,4.7c2.6,3.5,3.9,7.2,3.9,11.1
				c0,2.4-0.5,4.7-1.5,6.9c-1,2.2-2.4,4.1-4.2,5.7c-1.8,1.6-3.9,2.9-6.5,3.8c-2.5,0.9-5.3,1.4-8.3,1.4c-2.9,0-5.6-0.5-8-1.4
				c-2.4-0.9-4.5-2.2-6.3-3.8c-1.8-1.6-3.1-3.4-4.1-5.5c-1-2-1.5-4.2-1.5-6.5c0-3.1,1-6.2,3.2-9.3
				C613.1,1402,616.7,1398.6,621.7,1395z M624.2,1397c-2.9,2.4-5,5-6.4,7.8c-1.3,2.8-2,5.9-2,9.2c0,2.2,0.3,4.2,1,6
				c0.6,1.8,1.5,3.3,2.7,4.6c1.1,1.3,2.5,2.3,4,3c1.6,0.7,3.3,1,5.2,1c1.8,0,3.5-0.3,5-0.8c1.5-0.6,2.8-1.3,3.9-2.3
				c1.1-1,1.9-2.1,2.5-3.4c0.6-1.3,0.9-2.7,0.9-4.2c0-1.6-0.3-3.1-1-4.6c-0.6-1.5-1.6-3-3-4.7c-1.3-1.6-3.1-3.4-5.2-5.3
				C629.7,1401.5,627.2,1399.3,624.2,1397z M629.8,1389.5c2.2-1.9,3.9-3.6,5.1-5c1.3-1.4,2.2-2.7,2.9-3.8c0.7-1.2,1.1-2.3,1.3-3.5
				c0.2-1.1,0.3-2.4,0.3-3.8c0-3.6-1-6.5-3-8.5c-2-2-4.8-3-8.3-3c-1.7,0-3.3,0.3-4.8,0.8c-1.4,0.5-2.7,1.3-3.7,2.2
				c-1.1,0.9-1.9,2-2.5,3.2c-0.6,1.2-0.9,2.5-0.9,3.9c0,1.8,0.5,3.6,1.4,5.3c0.9,1.8,2.2,3.5,3.9,5.1L629.8,1389.5z"/>
			<path d="M744.1,1358.8l1.6,23.8h-1.6c-2.2-7.1-5.2-12.2-9.1-15.4c-3.9-3.1-8.6-4.7-14.2-4.7c-3.6,0-6.9,0.7-9.9,2
				c-3,1.4-5.6,3.4-7.8,6.3c-2.2,2.8-3.9,6.4-5.1,10.6c-1.2,4.3-1.8,9.3-1.8,15.1c0,4.7,0.6,8.9,1.7,12.7c1.2,3.8,2.8,7,5.1,9.7
				c2.2,2.7,5,4.8,8.2,6.2c3.2,1.5,6.9,2.2,11.1,2.2c4.4,0,8.4-1,12-2.9c3.4-1.8,7.3-5.6,11.5-11.5l1.6,1
				c-3.5,6.2-7.6,10.8-12.3,13.6c-4.6,2.9-10.2,4.3-16.6,4.3c-5,0-9.5-0.9-13.7-2.6c-4.2-1.7-7.7-4.2-10.7-7.3
				c-3-3.2-5.3-6.9-7-11.2c-1.7-4.3-2.5-9.1-2.5-14.3c0-7,1.6-13.4,4.7-19.2c3.1-5.8,7.4-10.4,12.8-13.5c5.5-3.2,11.5-4.8,18-4.8
				c5.1,0,10,1.2,14.9,3.7c1.4,0.8,2.5,1.2,3.1,1.2c1.1,0,2.1-0.5,2.8-1.4c0.7-0.9,1.3-2.1,1.6-3.5H744.1z"/>
			<path d="M794.1,1430.2l-27-58.7v46.7c0,2.4,0.2,4.3,0.5,5.7c0.3,1.4,0.8,2.4,1.5,3c0.6,0.7,1.4,1.1,2.3,1.2
				c0.9,0.2,2,0.2,3.2,0.2h2.5v1.9h-24.3v-1.9h2.5c1.2,0,2.3-0.1,3.2-0.3c0.9-0.2,1.7-0.6,2.3-1.3c0.6-0.7,1.1-1.7,1.4-3.1
				c0.3-1.4,0.5-3.2,0.5-5.5v-45.7c0-1.6-0.1-3.1-0.2-4.3c-0.2-1.3-0.6-2.3-1.2-3.2c-0.6-0.9-1.6-1.5-2.9-2s-3.1-0.7-5.5-0.7v-1.9
				h19.8l25.4,54.7l24.9-54.7h19.8v1.9h-2.4c-1.3,0-2.4,0.1-3.3,0.3c-0.9,0.2-1.7,0.7-2.3,1.3c-0.6,0.7-1.1,1.7-1.4,3.1
				c-0.3,1.4-0.5,3.2-0.5,5.5v45.7c0,2.4,0.2,4.3,0.5,5.7c0.3,1.4,0.8,2.4,1.5,3c0.6,0.7,1.4,1.1,2.3,1.2c0.9,0.2,2,0.2,3.2,0.2h2.4
				v1.9h-29.7v-1.9h2.5c1.2,0,2.3-0.1,3.2-0.3c0.9-0.2,1.7-0.7,2.3-1.3s1.1-1.7,1.4-3c0.3-1.3,0.5-3.2,0.5-5.5v-46.7l-26.9,58.7
				H794.1z"/>
		</g>
		<g>
			<path d="M463.5,1472.8v1.9c-1.4,0-2.5,0.1-3.4,0.4c-0.9,0.3-1.7,0.8-2.5,1.7c-0.8,0.9-1.5,2.2-2.3,4c-0.8,1.8-1.7,4.1-2.7,7.1
				l-19.4,56.3H431l-15.9-44.7l-15.8,44.7h-1.9l-20.8-58c-0.8-2.2-1.4-3.9-1.8-5.1c-0.5-1.3-0.8-2.1-1.1-2.5c-0.7-1.3-1.7-2.3-2.8-3
				c-1.2-0.6-2.8-1-4.8-1v-1.9H392v1.9h-1.2c-1.8,0-3.2,0.4-4.2,1.2c-1,0.8-1.5,1.8-1.5,3c0,1.2,0.8,4,2.3,8.3l13.8,39.2l11.5-33.4
				l-3.7-10.5c-0.6-1.3-1.1-2.4-1.7-3.4c-0.6-1-1.2-1.8-1.9-2.5c-0.7-0.7-1.6-1.2-2.5-1.5c-1-0.3-2.2-0.5-3.5-0.5v-1.9h27.1v1.9
				h-1.8c-1.9,0-3.4,0.4-4.2,1.2c-0.9,0.8-1.3,1.9-1.3,3.4c0,1.7,0.8,4.8,2.3,9.1l13.4,38l13.3-38.5c0.7-2.2,1.3-3.9,1.7-5.4
				c0.4-1.4,0.6-2.6,0.6-3.5c0-1.6-0.7-2.8-2.2-3.4c-1.4-0.6-3.3-1-5.6-1v-1.9H463.5z"/>
			<path d="M496.8,1540.7v1.9h-29.9v-1.9h2.5c1.2,0,2.3-0.1,3.3-0.3c0.9-0.2,1.7-0.6,2.3-1.3c0.6-0.7,1.1-1.7,1.4-3.2
				c0.3-1.4,0.5-3.3,0.5-5.7v-45.1c0-1.6,0-2.9-0.1-4c-0.1-1-0.2-1.9-0.4-2.6c-0.2-0.7-0.4-1.2-0.8-1.6c-0.4-0.4-0.8-0.8-1.5-1.1
				c-1.5-0.8-3.1-1.2-4.8-1.2h-2.5v-1.9h29.9v1.9h-2.5c-1.2,0-2.3,0.1-3.3,0.3c-0.9,0.2-1.7,0.7-2.3,1.3c-0.6,0.7-1.1,1.7-1.4,3.2
				c-0.3,1.4-0.5,3.3-0.5,5.7v45.1c0,1.6,0,3,0.1,4c0.1,1,0.2,1.9,0.4,2.5c0.2,0.7,0.5,1.2,0.9,1.6c0.4,0.4,0.9,0.8,1.5,1.1
				c1.4,0.8,3,1.2,4.7,1.2H496.8z"/>
			<path d="M560.5,1472.8v16.5h-1.2c-0.6-4.4-1.9-7.5-3.9-9.3c-2-1.8-5-2.7-9-2.7h-9.8v53.4c0,2.4,0.2,4.2,0.5,5.6
				c0.3,1.4,0.8,2.4,1.4,3c0.6,0.7,1.4,1.1,2.3,1.3c0.9,0.2,2,0.3,3.2,0.3h2.4v1.9h-29.6v-1.9h2.5c1.2,0,2.3-0.1,3.2-0.3
				c0.9-0.2,1.7-0.7,2.3-1.3c0.6-0.7,1.1-1.7,1.4-3c0.3-1.3,0.5-3.2,0.5-5.5v-53.4h-8.4c-2.1,0-4,0.2-5.6,0.5
				c-1.6,0.3-3,0.9-4.2,1.8c-1.2,0.9-2.1,2.1-2.8,3.7c-0.7,1.6-1.1,3.6-1.3,6h-1.9v-16.5H560.5z"/>
			<path d="M585.6,1505.2H618v-20c0-1.6,0-3-0.1-4c-0.1-1-0.2-1.9-0.4-2.6c-0.2-0.7-0.5-1.2-0.9-1.6c-0.4-0.4-0.9-0.8-1.5-1.1
				c-1.4-0.8-3-1.2-4.7-1.2H608v-1.9h29.9v1.9h-2.5c-0.7,0-1.4,0.1-2.1,0.2c-0.7,0.2-1.4,0.4-2.1,0.7c-0.6,0.3-1.2,0.7-1.7,1.2
				c-0.5,0.5-0.9,1-1.1,1.6c-0.4,1.1-0.5,3.4-0.5,6.8v45c0,1.6,0,3,0.1,4c0.1,1,0.2,1.9,0.4,2.5c0.2,0.7,0.4,1.2,0.8,1.6
				c0.4,0.4,0.8,0.8,1.5,1.1c1.4,0.8,3,1.2,4.8,1.2h2.5v1.9H608v-1.9h2.5c1.2,0,2.2-0.1,3.2-0.3c0.9-0.2,1.7-0.6,2.4-1.3
				c0.7-0.7,1.2-1.7,1.5-3.2c0.3-1.4,0.5-3.3,0.5-5.7V1509h-32.4v21.3c0,1.6,0,3,0.1,4c0.1,1,0.2,1.9,0.4,2.5
				c0.2,0.7,0.5,1.2,0.9,1.6c0.4,0.4,0.9,0.8,1.5,1.1c1.4,0.8,3,1.2,4.7,1.2h2.5v1.9h-30v-1.9h2.5c2.8,0,4.9-0.8,6.2-2.5
				c0.8-1,1.2-3.7,1.2-7.9v-45c0-1.7,0-3.1-0.1-4.1c-0.1-1-0.2-1.9-0.4-2.5c-0.2-0.6-0.5-1.2-0.8-1.5c-0.4-0.4-0.8-0.8-1.5-1.1
				c-1.4-0.8-3-1.2-4.7-1.2h-2.5v-1.9h30v1.9h-2.5c-0.6,0-1.3,0.1-2,0.2c-0.7,0.2-1.4,0.4-2.1,0.7c-0.6,0.3-1.2,0.7-1.7,1.2
				c-0.5,0.5-0.9,1-1.1,1.6c-0.4,1.2-0.6,3.5-0.6,6.8V1505.2z"/>
		</g>
		<g>
			<path d="M404.6,1652.4l-27-58.7v46.7c0,2.4,0.2,4.3,0.5,5.7c0.3,1.4,0.8,2.4,1.5,3c0.6,0.7,1.4,1.1,2.3,1.2
				c0.9,0.2,2,0.2,3.2,0.2h2.5v1.9h-24.3v-1.9h2.5c1.2,0,2.3-0.1,3.2-0.3c0.9-0.2,1.7-0.6,2.3-1.3c0.6-0.7,1.1-1.7,1.4-3.1
				c0.3-1.4,0.5-3.2,0.5-5.5v-45.7c0-1.6-0.1-3.1-0.2-4.3c-0.2-1.3-0.6-2.3-1.2-3.2c-0.6-0.9-1.6-1.5-2.9-2s-3.1-0.7-5.5-0.7v-1.9
				H383l25.4,54.7l24.9-54.7h19.8v1.9h-2.4c-1.3,0-2.4,0.1-3.3,0.3c-0.9,0.2-1.7,0.7-2.3,1.3c-0.6,0.7-1.1,1.7-1.4,3.1
				c-0.3,1.4-0.5,3.2-0.5,5.5v45.7c0,2.4,0.2,4.3,0.5,5.7c0.3,1.4,0.8,2.4,1.5,3c0.6,0.7,1.4,1.1,2.3,1.2c0.9,0.2,2,0.2,3.2,0.2h2.4
				v1.9h-29.7v-1.9h2.5c1.2,0,2.3-0.1,3.2-0.3c0.9-0.2,1.7-0.7,2.3-1.3c0.6-0.7,1.1-1.7,1.4-3c0.3-1.3,0.5-3.2,0.5-5.5v-46.7
				l-26.9,58.7H404.6z"/>
			<path d="M503.6,1629.1h-27.1l-4.8,11c-1.1,2.7-1.7,4.7-1.7,6.1c0,0.6,0.1,1.1,0.3,1.5c0.2,0.5,0.6,0.9,1.2,1.3
				c0.6,0.4,1.4,0.7,2.5,1c1.1,0.3,2.4,0.5,4.2,0.6v1.9h-22v-1.9c1.7-0.3,3.2-0.6,4.2-1.2c1.1-0.5,2-1.2,2.8-2.1
				c0.8-0.9,1.5-2.1,2.1-3.5c0.6-1.4,1.4-3.2,2.3-5.3l24.6-57.4h1.8l24.3,58c1,2.4,1.9,4.3,2.7,5.8c0.8,1.5,1.7,2.6,2.6,3.4
				c0.9,0.8,1.9,1.4,2.9,1.7c1.1,0.3,2.3,0.5,3.8,0.5v1.9h-27.6v-1.9c2.8-0.1,4.7-0.6,5.6-1.3c1-0.8,1.5-1.8,1.5-2.9
				c-0.1-1.5-0.7-3.9-2.1-7.2L503.6,1629.1z M502.1,1625.2l-11.8-28.2l-12.1,28.2H502.1z"/>
			<path d="M580.8,1582.5v16.5h-1.2c-0.6-4.4-1.9-7.5-3.9-9.3c-2-1.8-5-2.7-9-2.7H557v53.4c0,2.4,0.2,4.2,0.5,5.6
				c0.3,1.4,0.8,2.4,1.4,3c0.6,0.7,1.4,1.1,2.3,1.3c0.9,0.2,2,0.3,3.2,0.3h2.4v1.9h-29.6v-1.9h2.5c1.2,0,2.3-0.1,3.2-0.3
				c0.9-0.2,1.7-0.7,2.3-1.3c0.6-0.7,1.1-1.7,1.4-3c0.3-1.3,0.5-3.2,0.5-5.5v-53.4h-8.4c-2.1,0-4,0.2-5.6,0.5
				c-1.6,0.3-3,0.9-4.2,1.8c-1.2,0.9-2.1,2.1-2.8,3.7c-0.7,1.6-1.1,3.6-1.3,6H523v-16.5H580.8z"/>
			<path d="M606.3,1586.4v27.6h15.3c2.3,0,4.1-0.2,5.5-0.6c1.4-0.4,2.5-1,3.3-1.8c0.8-0.8,1.3-1.9,1.7-3.2c0.3-1.3,0.5-2.8,0.6-4.5
				h1.9v24.3h-1.9c-0.3-2-0.6-3.7-0.9-5c-0.3-1.3-0.9-2.4-1.6-3.2c-0.7-0.8-1.8-1.4-3.1-1.7c-1.3-0.3-3.1-0.5-5.4-0.5h-15.3v23.1
				c0,1.7,0,3.1,0.1,4.2c0.1,1,0.3,1.8,0.6,2.3c0.4,0.5,0.9,0.9,1.7,1c0.8,0.2,1.9,0.2,3.4,0.2h11.8c2,0,3.7-0.1,5.1-0.2
				c1.4-0.1,2.6-0.3,3.6-0.6c1-0.3,1.9-0.7,2.7-1.3c0.8-0.5,1.6-1.2,2.5-2c2-2,4.2-5.2,6.5-9.6h2.1l-6.1,17.5h-53.8v-1.9h2.5
				c0.7,0,1.4-0.1,2.1-0.2c0.7-0.2,1.4-0.4,2-0.7c0.6-0.3,1.2-0.7,1.7-1.1c0.5-0.5,0.9-1,1.1-1.6c0.4-1.1,0.6-3.4,0.6-6.8v-45.4
				c0-4.5-0.4-7.2-1.3-8.2c-1.2-1.4-3.3-2.1-6.2-2.1h-2.5v-1.9h53.8v15.3h-1.2c-0.5-2.5-1.1-4.5-1.7-6c-0.6-1.5-1.4-2.7-2.3-3.5
				c-1-0.8-2.2-1.3-3.7-1.6c-1.5-0.2-3.4-0.3-5.8-0.3H606.3z"/>
			<path d="M719.9,1652.4h-18.6l-23.7-32.7c-0.9,0.1-1.7,0.1-2.3,0.1c-0.7,0-1.3,0-1.9,0c-0.5,0-0.9,0-1.5,0c-0.5,0-1.1-0.1-1.6-0.1
				v20.3c0,2.5,0.2,4.4,0.5,5.8c0.3,1.4,0.8,2.5,1.5,3.2c0.6,0.7,1.4,1.1,2.3,1.3c0.9,0.2,1.9,0.2,3,0.2h2.8v1.9h-30v-1.9h2.7
				c2.9,0,5-0.9,6.3-2.8c0.7-1.1,1.1-3.7,1.1-7.6v-45.1c0-4.3-0.5-7-1.5-8.1c-1.3-1.5-3.3-2.3-5.9-2.3h-2.7v-1.9h25.4
				c3.7,0,7,0.1,9.7,0.4c2.7,0.3,4.9,0.7,6.7,1.3c1.7,0.6,3.4,1.3,4.9,2.3c1.5,1,2.9,2.2,4,3.6c1.2,1.4,2.1,3,2.7,4.7
				c0.7,1.7,1,3.6,1,5.6c0,4.4-1.4,8.1-4.2,11.2c-2.8,3.1-7.1,5.4-13,6.7l14.4,20c1.7,2.3,3.2,4.2,4.5,5.7c1.3,1.5,2.6,2.7,3.9,3.5
				c1.3,0.9,2.7,1.5,4.2,1.9c1.5,0.4,3.2,0.7,5.2,0.9V1652.4z M670.3,1616.5c0.7,0,1.2,0,1.7,0c0.5,0,0.9,0,1.2,0
				c3.3,0,6.3-0.4,8.8-1.2c2.5-0.8,4.6-1.8,6.3-3.2c1.7-1.4,3-3,3.8-4.9c0.8-1.9,1.3-3.9,1.3-6.1c0-2.2-0.4-4.1-1.1-6
				c-0.7-1.8-1.7-3.4-3.1-4.7c-1.3-1.3-2.9-2.3-4.8-3c-1.8-0.7-3.9-1.1-6.1-1.1c-2.1,0-4.8,0.3-8.1,1V1616.5z"/>
			<path d="M751.5,1650.5v1.9h-29.9v-1.9h2.5c1.2,0,2.3-0.1,3.3-0.3c0.9-0.2,1.7-0.6,2.3-1.3c0.6-0.7,1.1-1.7,1.4-3.2
				c0.3-1.4,0.5-3.3,0.5-5.7v-45.1c0-1.6,0-2.9-0.1-4c-0.1-1-0.2-1.9-0.4-2.6c-0.2-0.7-0.4-1.2-0.8-1.6c-0.4-0.4-0.8-0.8-1.5-1.1
				c-1.5-0.8-3.1-1.2-4.8-1.2h-2.5v-1.9h29.9v1.9H749c-1.2,0-2.3,0.1-3.3,0.3c-0.9,0.2-1.7,0.7-2.3,1.3c-0.6,0.7-1.1,1.7-1.4,3.2
				c-0.3,1.4-0.5,3.3-0.5,5.7v45.1c0,1.6,0,3,0.1,4c0.1,1,0.2,1.9,0.4,2.5c0.2,0.7,0.5,1.2,0.9,1.6c0.4,0.4,0.9,0.8,1.5,1.1
				c1.4,0.8,3,1.2,4.7,1.2H751.5z"/>
			<path d="M802.4,1629.1h-27.1l-4.8,11c-1.1,2.7-1.7,4.7-1.7,6.1c0,0.6,0.1,1.1,0.3,1.5c0.2,0.5,0.6,0.9,1.2,1.3
				c0.6,0.4,1.4,0.7,2.5,1c1.1,0.3,2.4,0.5,4.2,0.6v1.9h-22v-1.9c1.7-0.3,3.2-0.6,4.2-1.2c1.1-0.5,2-1.2,2.8-2.1
				c0.8-0.9,1.5-2.1,2.1-3.5c0.6-1.4,1.4-3.2,2.3-5.3L791,1581h1.8l24.3,58c1,2.4,1.9,4.3,2.7,5.8c0.8,1.5,1.7,2.6,2.6,3.4
				c0.9,0.8,1.9,1.4,2.9,1.7c1.1,0.3,2.3,0.5,3.8,0.5v1.9h-27.6v-1.9c2.8-0.1,4.7-0.6,5.6-1.3c1-0.8,1.5-1.8,1.5-2.9
				c-0.1-1.5-0.7-3.9-2.1-7.2L802.4,1629.1z M800.9,1625.2l-11.8-28.2l-12.1,28.2H800.9z"/>
			<path d="M890.8,1633.1l1.7,0.3l-6,19h-54.1v-1.9h2.7c2.9,0,5-0.9,6.3-2.8c0.7-1.1,1.1-3.7,1.1-7.6v-45.1c0-4.3-0.5-7-1.5-8.1
				c-1.3-1.5-3.3-2.3-5.9-2.3h-2.7v-1.9H864v1.9c-1.9,0-3.5,0.1-4.7,0.3c-1.3,0.2-2.3,0.4-3.1,0.8c-0.8,0.3-1.5,0.7-1.9,1.2
				c-0.5,0.5-0.8,1-1.2,1.5c-0.5,1-0.8,3.7-0.8,7.9v43.9c0,2.4,0.2,4.2,0.5,5.2c0.4,1.1,1.1,1.8,2.2,2.2c0.9,0.3,3.6,0.5,8.1,0.5
				h5.1c5.4,0,9.1-0.4,11.3-1.2c1.1-0.4,2.1-0.9,3.1-1.5c1-0.7,1.9-1.5,2.8-2.6c0.9-1.1,1.8-2.4,2.7-3.9
				C889,1637.2,889.9,1635.3,890.8,1633.1z"/>
		</g>
		<g>
			<path d="M404.2,1772l-27-58.7v46.7c0,2.4,0.2,4.3,0.5,5.7c0.3,1.4,0.8,2.4,1.5,3c0.6,0.7,1.4,1.1,2.3,1.2c0.9,0.2,2,0.2,3.2,0.2
				h2.5v1.9h-24.3v-1.9h2.5c1.2,0,2.3-0.1,3.2-0.3c0.9-0.2,1.7-0.6,2.3-1.3c0.6-0.7,1.1-1.7,1.4-3.1c0.3-1.4,0.5-3.2,0.5-5.5v-45.7
				c0-1.6-0.1-3.1-0.2-4.3c-0.2-1.3-0.6-2.3-1.2-3.2c-0.6-0.9-1.6-1.5-2.9-2s-3.1-0.7-5.5-0.7v-1.9h19.8l25.4,54.7l24.9-54.7h19.8
				v1.9h-2.4c-1.3,0-2.4,0.1-3.3,0.3c-0.9,0.2-1.7,0.7-2.3,1.3c-0.6,0.7-1.1,1.7-1.4,3.1c-0.3,1.4-0.5,3.2-0.5,5.5v45.7
				c0,2.4,0.2,4.3,0.5,5.7c0.3,1.4,0.8,2.4,1.5,3c0.6,0.7,1.4,1.1,2.3,1.2c0.9,0.2,2,0.2,3.2,0.2h2.4v1.9H423v-1.9h2.5
				c1.2,0,2.3-0.1,3.2-0.3c0.9-0.2,1.7-0.7,2.3-1.3c0.6-0.7,1.1-1.7,1.4-3c0.3-1.3,0.5-3.2,0.5-5.5v-46.7L406,1772H404.2z"/>
			<path d="M476.9,1706v27.6h15.3c2.3,0,4.1-0.2,5.5-0.6c1.4-0.4,2.5-1,3.3-1.8c0.8-0.8,1.3-1.9,1.7-3.2c0.3-1.3,0.5-2.8,0.6-4.5
				h1.9v24.3h-1.9c-0.3-2-0.6-3.7-0.9-5c-0.3-1.3-0.9-2.4-1.6-3.2c-0.7-0.8-1.8-1.4-3.1-1.7c-1.3-0.3-3.1-0.5-5.4-0.5h-15.3v23.1
				c0,1.7,0,3.1,0.1,4.2c0.1,1,0.3,1.8,0.6,2.3c0.4,0.5,0.9,0.9,1.7,1c0.8,0.2,1.9,0.2,3.4,0.2h11.8c2,0,3.7-0.1,5.1-0.2
				c1.4-0.1,2.6-0.3,3.6-0.6c1-0.3,1.9-0.7,2.7-1.3c0.8-0.5,1.6-1.2,2.5-2c2-2,4.2-5.2,6.5-9.6h2.1l-6.1,17.5H457v-1.9h2.5
				c0.7,0,1.4-0.1,2.1-0.2c0.7-0.2,1.4-0.4,2-0.7c0.6-0.3,1.2-0.7,1.7-1.1c0.5-0.5,0.9-1,1.1-1.6c0.4-1.1,0.6-3.4,0.6-6.8v-45.4
				c0-4.5-0.4-7.2-1.3-8.2c-1.2-1.4-3.3-2.1-6.2-2.1H457v-1.9h53.8v15.3h-1.2c-0.5-2.5-1.1-4.5-1.7-6c-0.6-1.5-1.4-2.7-2.3-3.5
				c-1-0.8-2.2-1.3-3.7-1.6c-1.5-0.2-3.4-0.3-5.8-0.3H476.9z"/>
			<path d="M579.8,1752.7l1.7,0.3l-6,19h-54.1v-1.9h2.7c2.9,0,5-0.9,6.3-2.8c0.7-1.1,1.1-3.7,1.1-7.6v-45.1c0-4.3-0.5-7-1.5-8.1
				c-1.3-1.5-3.3-2.3-5.9-2.3h-2.7v-1.9H553v1.9c-1.9,0-3.5,0.1-4.7,0.3c-1.3,0.2-2.3,0.4-3.1,0.8c-0.8,0.3-1.5,0.7-1.9,1.2
				c-0.5,0.5-0.8,1-1.2,1.5c-0.5,1-0.8,3.7-0.8,7.9v43.9c0,2.4,0.2,4.2,0.5,5.2c0.4,1.1,1.1,1.8,2.2,2.2c0.9,0.3,3.6,0.5,8.1,0.5
				h5.1c5.4,0,9.1-0.4,11.3-1.2c1.1-0.4,2.1-0.9,3.1-1.5c1-0.7,1.9-1.5,2.8-2.6c0.9-1.1,1.8-2.4,2.7-3.9
				C578,1756.8,578.9,1754.9,579.8,1752.7z"/>
			<path d="M632,1748.6h-27.1l-4.8,11c-1.1,2.7-1.7,4.7-1.7,6.1c0,0.6,0.1,1.1,0.3,1.5c0.2,0.5,0.6,0.9,1.2,1.3
				c0.6,0.4,1.4,0.7,2.5,1c1.1,0.3,2.4,0.5,4.2,0.6v1.9h-22v-1.9c1.7-0.3,3.2-0.6,4.2-1.2c1.1-0.5,2-1.2,2.8-2.1
				c0.8-0.9,1.5-2.1,2.1-3.5c0.6-1.4,1.4-3.2,2.3-5.3l24.6-57.4h1.8l24.3,58c1,2.4,1.9,4.3,2.7,5.8c0.8,1.5,1.7,2.6,2.6,3.4
				c0.9,0.8,1.9,1.4,2.9,1.7c1.1,0.3,2.3,0.5,3.8,0.5v1.9h-27.6v-1.9c2.8-0.1,4.7-0.6,5.6-1.3c1-0.8,1.5-1.8,1.5-2.9
				c-0.1-1.5-0.7-3.9-2.1-7.2L632,1748.6z M630.5,1744.8l-11.8-28.2l-12.1,28.2H630.5z"/>
			<path d="M703,1772l-27-58.7v46.7c0,2.4,0.2,4.3,0.5,5.7c0.3,1.4,0.8,2.4,1.5,3c0.6,0.7,1.4,1.1,2.3,1.2c0.9,0.2,2,0.2,3.2,0.2
				h2.5v1.9h-24.3v-1.9h2.5c1.2,0,2.3-0.1,3.2-0.3c0.9-0.2,1.7-0.6,2.3-1.3c0.6-0.7,1.1-1.7,1.4-3.1c0.3-1.4,0.5-3.2,0.5-5.5v-45.7
				c0-1.6-0.1-3.1-0.2-4.3c-0.2-1.3-0.6-2.3-1.2-3.2c-0.6-0.9-1.6-1.5-2.9-2s-3.1-0.7-5.5-0.7v-1.9h19.8l25.4,54.7l24.9-54.7h19.8
				v1.9h-2.4c-1.3,0-2.4,0.1-3.3,0.3c-0.9,0.2-1.7,0.7-2.3,1.3c-0.6,0.7-1.1,1.7-1.4,3.1c-0.3,1.4-0.5,3.2-0.5,5.5v45.7
				c0,2.4,0.2,4.3,0.5,5.7c0.3,1.4,0.8,2.4,1.5,3c0.6,0.7,1.4,1.1,2.3,1.2c0.9,0.2,2,0.2,3.2,0.2h2.4v1.9h-29.7v-1.9h2.5
				c1.2,0,2.3-0.1,3.2-0.3c0.9-0.2,1.7-0.7,2.3-1.3c0.6-0.7,1.1-1.7,1.4-3c0.3-1.3,0.5-3.2,0.5-5.5v-46.7l-26.9,58.7H703z"/>
			<path d="M786.2,1770.1v1.9h-29.9v-1.9h2.5c1.2,0,2.3-0.1,3.3-0.3c0.9-0.2,1.7-0.6,2.3-1.3c0.6-0.7,1.1-1.7,1.4-3.2
				c0.3-1.4,0.5-3.3,0.5-5.7v-45.1c0-1.6,0-2.9-0.1-4c-0.1-1-0.2-1.9-0.4-2.6c-0.2-0.7-0.4-1.2-0.8-1.6c-0.4-0.4-0.8-0.8-1.5-1.1
				c-1.5-0.8-3.1-1.2-4.8-1.2h-2.5v-1.9h29.9v1.9h-2.5c-1.2,0-2.3,0.1-3.3,0.3c-0.9,0.2-1.7,0.7-2.3,1.3c-0.6,0.7-1.1,1.7-1.4,3.2
				c-0.3,1.4-0.5,3.3-0.5,5.7v45.1c0,1.6,0,3,0.1,4c0.1,1,0.2,1.9,0.4,2.5c0.2,0.7,0.5,1.2,0.9,1.6c0.4,0.4,0.9,0.8,1.5,1.1
				c1.4,0.8,3,1.2,4.7,1.2H786.2z"/>
			<path d="M787.4,1702.1h18.9l42.7,52.4v-40.3c0-2.4-0.2-4.2-0.5-5.6c-0.3-1.4-0.8-2.4-1.5-3.1c-0.6-0.7-1.4-1.1-2.3-1.3
				c-0.9-0.2-2-0.3-3.2-0.3h-2.5v-1.9h24.4v1.9H861c-1.2,0-2.3,0.1-3.2,0.3c-0.9,0.2-1.7,0.7-2.3,1.4c-0.6,0.7-1.1,1.7-1.4,3.1
				c-0.3,1.3-0.5,3.2-0.5,5.5v58.9h-1.8l-46-56.3v43c0,2.4,0.2,4.3,0.5,5.7c0.3,1.4,0.8,2.4,1.4,3c0.6,0.7,1.4,1.1,2.3,1.2
				c0.9,0.2,2,0.2,3.2,0.2h2.5v1.9h-24.3v-1.9h2.5c1.2,0,2.3-0.1,3.2-0.3c0.9-0.2,1.7-0.7,2.3-1.3c0.6-0.7,1.1-1.7,1.4-3
				c0.3-1.3,0.5-3.2,0.5-5.5v-48.6c-1-1.2-1.9-2.2-2.6-2.9c-0.7-0.7-1.3-1.3-2-1.8c-0.6-0.5-1.3-0.8-2-1.2c-0.7-0.3-1.6-0.6-2.7-1
				c-1-0.3-2.5-0.5-4.5-0.5V1702.1z"/>
			<path d="M887.1,1706v27.6h15.3c2.3,0,4.1-0.2,5.5-0.6c1.4-0.4,2.5-1,3.3-1.8c0.8-0.8,1.3-1.9,1.7-3.2c0.3-1.3,0.5-2.8,0.6-4.5
				h1.9v24.3h-1.9c-0.3-2-0.6-3.7-0.9-5c-0.3-1.3-0.9-2.4-1.6-3.2c-0.7-0.8-1.8-1.4-3.1-1.7c-1.3-0.3-3.1-0.5-5.4-0.5h-15.3v23.1
				c0,1.7,0,3.1,0.1,4.2c0.1,1,0.3,1.8,0.6,2.3c0.4,0.5,0.9,0.9,1.7,1c0.8,0.2,1.9,0.2,3.4,0.2h11.8c2,0,3.7-0.1,5.1-0.2
				c1.4-0.1,2.6-0.3,3.6-0.6c1-0.3,1.9-0.7,2.7-1.3c0.8-0.5,1.6-1.2,2.5-2c2-2,4.2-5.2,6.5-9.6h2.1L921,1772h-53.8v-1.9h2.5
				c0.7,0,1.4-0.1,2.1-0.2c0.7-0.2,1.4-0.4,2-0.7c0.6-0.3,1.2-0.7,1.7-1.1c0.5-0.5,0.9-1,1.1-1.6c0.4-1.1,0.6-3.4,0.6-6.8v-45.4
				c0-4.5-0.4-7.2-1.3-8.2c-1.2-1.4-3.3-2.1-6.2-2.1h-2.5v-1.9H921v15.3h-1.2c-0.5-2.5-1.1-4.5-1.7-6c-0.6-1.5-1.4-2.7-2.3-3.5
				c-1-0.8-2.2-1.3-3.7-1.6c-1.5-0.2-3.4-0.3-5.8-0.3H887.1z"/>
		</g>
		<g>
			<path d="M425.7,1822.5l1.8,22h-1.8c-2.1-6.5-5.1-11.1-9-14c-3.9-2.9-8.6-4.3-14.1-4.3c-4.1,0-7.8,0.8-11,2.4
				c-3.2,1.6-6,3.8-8.2,6.7c-2.3,2.8-4,6.2-5.2,10.1c-1.2,3.9-1.8,8.1-1.8,12.6c0,6.6,1.3,12.7,3.9,18.2c1.3,2.8,2.8,5.2,4.5,7.1
				c1.7,2,3.6,3.7,5.6,5c2,1.3,4.1,2.3,6.3,2.9c2.2,0.6,4.4,0.9,6.6,0.9c5.1,0,9.9-1.3,14.5-3.8v-20.2c0-1.7-0.1-3.2-0.2-4.3
				c-0.1-1.1-0.3-2-0.6-2.6c-0.3-0.6-0.6-1.1-1-1.5c-0.4-0.3-0.9-0.7-1.5-1c-1.1-0.6-3.1-0.8-5.8-0.8v-2h27.1v2h-1.3
				c-1.2,0-2.2,0.1-3,0.4c-0.8,0.3-1.5,0.7-2,1.5c-0.5,0.7-0.9,1.7-1.2,3.1c-0.2,1.3-0.3,3.1-0.3,5.2v21.4c-2,1.1-4,2-5.9,2.8
				c-1.9,0.8-3.9,1.4-5.8,1.9c-4,1-8.3,1.5-12.8,1.5c-5.8,0-11.1-0.9-15.9-2.7c-4.7-1.8-8.8-4.3-12.2-7.5c-3.4-3.2-6-6.9-7.8-11.2
				c-1.8-4.3-2.8-9-2.8-14.1c0-6.1,1.5-12,4.5-17.7c3.4-6.7,8.2-11.8,14.4-15.5c5.1-3,11.2-4.5,18.1-4.5c1.4,0,2.6,0,3.7,0.1
				c1.1,0.1,2.2,0.2,3.3,0.5c1.2,0.2,2.4,0.6,3.8,1c1.4,0.4,3,1,5,1.7c1.9,0.8,3.3,1.1,3.9,1.1c0.6,0,1.2-0.3,1.6-0.9
				c0.5-0.6,0.7-1.8,0.8-3.5H425.7z"/>
			<path d="M508.4,1893.9h-18.6l-23.7-32.7c-0.9,0.1-1.7,0.1-2.3,0.1c-0.7,0-1.3,0-1.9,0c-0.5,0-0.9,0-1.5,0c-0.5,0-1.1-0.1-1.6-0.1
				v20.3c0,2.5,0.2,4.4,0.5,5.8c0.3,1.4,0.8,2.5,1.5,3.2s1.4,1.1,2.3,1.3c0.9,0.2,1.9,0.2,3,0.2h2.8v1.9h-30v-1.9h2.7
				c2.9,0,5-0.9,6.3-2.8c0.7-1.1,1.1-3.7,1.1-7.6v-45.1c0-4.3-0.5-7-1.5-8.1c-1.3-1.5-3.3-2.3-5.9-2.3h-2.7v-1.9h25.4
				c3.7,0,7,0.1,9.7,0.4c2.7,0.3,4.9,0.7,6.7,1.3c1.7,0.6,3.4,1.3,4.9,2.3c1.5,1,2.9,2.2,4,3.6c1.2,1.4,2.1,3,2.7,4.7
				c0.7,1.7,1,3.6,1,5.6c0,4.4-1.4,8.1-4.2,11.2c-2.8,3.1-7.1,5.4-13,6.7l14.4,20c1.7,2.3,3.2,4.2,4.5,5.7c1.3,1.5,2.6,2.7,3.9,3.5
				c1.3,0.9,2.7,1.5,4.2,1.9c1.5,0.4,3.2,0.7,5.2,0.9V1893.9z M458.9,1858c0.7,0,1.2,0,1.7,0c0.5,0,0.9,0,1.2,0
				c3.3,0,6.3-0.4,8.8-1.2c2.5-0.8,4.6-1.8,6.3-3.2c1.7-1.4,3-3,3.8-4.9c0.8-1.9,1.3-3.9,1.3-6.1c0-2.2-0.4-4.1-1.1-6
				c-0.7-1.8-1.7-3.4-3.1-4.7c-1.3-1.3-2.9-2.3-4.8-3c-1.8-0.7-3.9-1.1-6.1-1.1c-2.1,0-4.8,0.3-8.1,1V1858z"/>
			<path d="M529.6,1827.8v27.6h15.3c2.3,0,4.1-0.2,5.5-0.6c1.4-0.4,2.5-1,3.3-1.8c0.8-0.8,1.3-1.9,1.7-3.2c0.3-1.3,0.5-2.8,0.6-4.5
				h1.9v24.3h-1.9c-0.3-2-0.6-3.7-0.9-5c-0.3-1.3-0.9-2.4-1.6-3.2c-0.7-0.8-1.8-1.4-3.1-1.7c-1.3-0.3-3.1-0.5-5.4-0.5h-15.3v23.1
				c0,1.7,0,3.1,0.1,4.2c0.1,1,0.3,1.8,0.6,2.3c0.4,0.5,0.9,0.9,1.7,1c0.8,0.2,1.9,0.2,3.4,0.2h11.8c2,0,3.7-0.1,5.1-0.2
				c1.4-0.1,2.6-0.3,3.6-0.6c1-0.3,1.9-0.7,2.7-1.3c0.8-0.5,1.6-1.2,2.5-2c2-2,4.2-5.2,6.5-9.6h2.1l-6.1,17.5h-53.8v-1.9h2.5
				c0.7,0,1.4-0.1,2.1-0.2c0.7-0.2,1.4-0.4,2-0.7c0.6-0.3,1.2-0.7,1.7-1.1c0.5-0.5,0.9-1,1.1-1.6c0.4-1.1,0.6-3.4,0.6-6.8v-45.4
				c0-4.5-0.4-7.2-1.3-8.2c-1.2-1.4-3.3-2.1-6.2-2.1h-2.5v-1.9h53.8v15.3h-1.2c-0.5-2.5-1.1-4.5-1.7-6c-0.6-1.5-1.4-2.7-2.3-3.5
				c-1-0.8-2.2-1.3-3.7-1.6c-1.5-0.2-3.4-0.3-5.8-0.3H529.6z"/>
			<path d="M622.2,1824h24.4v1.9h-1.4c-1.9,0-4,0.9-6.3,2.7c-2.3,1.8-4.7,4.8-7.5,9.2l-16.8,26.5v17.5c0,2.4,0.2,4.2,0.5,5.6
				c0.3,1.4,0.8,2.4,1.5,3c0.6,0.7,1.4,1.1,2.4,1.3c0.9,0.2,2,0.3,3.3,0.3h2.2v1.9h-29.7v-1.9h2.5c1.2,0,2.3-0.1,3.2-0.3
				c0.9-0.2,1.7-0.7,2.3-1.3c0.6-0.7,1.1-1.7,1.4-3c0.3-1.3,0.5-3.2,0.5-5.5v-16.6l-19.1-29.2c-1.2-1.7-2.1-3.1-2.9-4.2
				c-0.7-1-1.3-1.8-1.7-2.3c-0.2-0.2-0.6-0.5-1-0.9c-0.5-0.4-1.1-0.8-1.8-1.2c-0.7-0.4-1.5-0.7-2.4-1c-0.9-0.3-1.8-0.5-2.8-0.5v-1.9
				h29.8v1.9h-1.5c-0.8,0-1.5,0.1-2.3,0.3c-0.8,0.2-1.5,0.4-2.1,0.8c-0.6,0.4-1.1,0.8-1.5,1.4c-0.4,0.6-0.6,1.3-0.6,2
				c-0.1,0.6,0.2,1.5,0.8,2.6c0.6,1.1,1.4,2.5,2.4,4.1l14.5,22.5l13.8-21.5c1.9-3.1,3-5.5,3.1-7.2c-0.1-0.7-0.3-1.4-0.5-2
				c-0.2-0.6-0.6-1.1-1.2-1.6c-0.5-0.4-1.2-0.8-2.1-1c-0.9-0.3-2-0.4-3.3-0.4V1824z"/>
			<path d="M767.3,1824v1.9c-1.4,0-2.5,0.1-3.4,0.4c-0.9,0.3-1.7,0.8-2.5,1.7c-0.8,0.9-1.5,2.2-2.3,4c-0.8,1.8-1.7,4.1-2.7,7.1
				l-19.4,56.3h-2.1l-15.9-44.7l-15.8,44.7h-1.9l-20.8-58c-0.8-2.2-1.4-3.9-1.8-5.1c-0.5-1.3-0.8-2.1-1.1-2.5
				c-0.7-1.3-1.7-2.3-2.8-3c-1.2-0.6-2.8-1-4.8-1v-1.9h25.8v1.9h-1.2c-1.8,0-3.2,0.4-4.2,1.2c-1,0.8-1.5,1.8-1.5,3
				c0,1.2,0.8,4,2.3,8.3l13.8,39.2l11.5-33.4l-3.7-10.5c-0.6-1.3-1.1-2.4-1.7-3.4c-0.6-1-1.2-1.8-1.9-2.5c-0.7-0.7-1.6-1.2-2.5-1.5
				c-1-0.3-2.2-0.5-3.5-0.5v-1.9h27.1v1.9h-1.8c-1.9,0-3.4,0.4-4.2,1.2c-0.9,0.8-1.3,1.9-1.3,3.4c0,1.7,0.8,4.8,2.3,9.1l13.4,38
				l13.3-38.5c0.7-2.2,1.3-3.9,1.7-5.4c0.4-1.4,0.6-2.6,0.6-3.5c0-1.6-0.7-2.8-2.2-3.4c-1.4-0.6-3.3-1-5.6-1v-1.9H767.3z"/>
			<path d="M806.8,1822.5c4.5,0,8.7,0.9,12.8,2.8c4,1.8,7.6,4.4,10.7,7.6c3.1,3.2,5.5,7,7.3,11.4c1.8,4.4,2.7,9.1,2.7,14.3
				c0,5.3-0.9,10.2-2.7,14.7c-1.8,4.5-4.3,8.4-7.4,11.7c-3.1,3.3-6.7,5.9-10.9,7.8c-4.2,1.9-8.6,2.8-13.3,2.8
				c-4.8,0-9.2-0.9-13.4-2.7c-4.2-1.8-7.8-4.3-10.8-7.6c-3-3.3-5.5-7.1-7.2-11.6c-1.8-4.5-2.7-9.5-2.7-14.9c0-5,0.9-9.7,2.7-14.1
				c1.8-4.4,4.2-8.2,7.3-11.5c3.1-3.3,6.8-5.8,11-7.7C797.1,1823.4,801.8,1822.5,806.8,1822.5z M805.8,1826.2
				c-3.5,0-6.7,0.8-9.4,2.3c-2.7,1.5-5,3.7-6.9,6.5c-1.9,2.8-3.3,6.2-4.3,10.1c-1,4-1.5,8.4-1.5,13.4c0,4.9,0.5,9.4,1.4,13.5
				c0.9,4.1,2.4,7.6,4.2,10.5c1.9,2.9,4.2,5.2,7,6.8c2.8,1.6,5.9,2.4,9.5,2.4c3.2,0,6.2-0.6,9-1.8c2.7-1.2,5.1-3.1,7.2-5.7
				c2-2.6,3.7-5.9,4.8-9.9c1.2-4,1.7-8.8,1.7-14.4c0-5.3-0.5-10-1.4-14.2c-0.9-4.2-2.4-7.7-4.3-10.6c-1.9-2.9-4.3-5.1-7.1-6.6
				C812.8,1827,809.5,1826.2,805.8,1826.2z"/>
			<path d="M883,1822.5c4.5,0,8.7,0.9,12.8,2.8c4,1.8,7.6,4.4,10.7,7.6c3.1,3.2,5.5,7,7.3,11.4c1.8,4.4,2.7,9.1,2.7,14.3
				c0,5.3-0.9,10.2-2.7,14.7c-1.8,4.5-4.3,8.4-7.4,11.7c-3.1,3.3-6.7,5.9-10.9,7.8c-4.2,1.9-8.6,2.8-13.3,2.8
				c-4.8,0-9.2-0.9-13.4-2.7c-4.2-1.8-7.8-4.3-10.8-7.6c-3-3.3-5.5-7.1-7.2-11.6c-1.8-4.5-2.7-9.5-2.7-14.9c0-5,0.9-9.7,2.7-14.1
				c1.8-4.4,4.2-8.2,7.3-11.5c3.1-3.3,6.8-5.8,11-7.7C873.3,1823.4,877.9,1822.5,883,1822.5z M882,1826.2c-3.5,0-6.7,0.8-9.4,2.3
				c-2.7,1.5-5,3.7-6.9,6.5c-1.9,2.8-3.3,6.2-4.3,10.1c-1,4-1.5,8.4-1.5,13.4c0,4.9,0.5,9.4,1.4,13.5c0.9,4.1,2.4,7.6,4.2,10.5
				c1.9,2.9,4.2,5.2,7,6.8c2.8,1.6,5.9,2.4,9.5,2.4c3.2,0,6.2-0.6,9-1.8c2.7-1.2,5.1-3.1,7.2-5.7c2-2.6,3.7-5.9,4.8-9.9
				c1.2-4,1.7-8.8,1.7-14.4c0-5.3-0.5-10-1.4-14.2c-0.9-4.2-2.4-7.7-4.3-10.6c-1.9-2.9-4.3-5.1-7.1-6.6
				C889,1827,885.7,1826.2,882,1826.2z"/>
			<path d="M922.3,1893.9v-1.9h2.7c1.2,0,2.2-0.1,3.2-0.3c0.9-0.2,1.7-0.7,2.3-1.4c0.6-0.7,1.1-1.8,1.4-3.2c0.3-1.4,0.5-3.3,0.5-5.6
				v-45.1c0-4.3-0.5-7-1.5-8.1c-1.3-1.5-3.3-2.3-5.9-2.3h-2.7v-1.9h28.4c10.4,0,18.3,1.2,23.8,3.6c5.5,2.4,9.9,6.4,13.1,11.8
				c3.3,5.6,5,12,5,19.1c0,5.2-0.8,9.9-2.5,14.2c-1.7,4.3-4.2,8-7.5,11.1c-3.3,3.1-7.4,5.6-12.3,7.3c-4.9,1.7-10.5,2.6-17,2.6H922.3
				z M942.3,1888.8c4.3,1,7.9,1.5,10.9,1.5c3.9,0,7.6-0.7,11-2.2c3.4-1.5,6.3-3.5,8.8-6.2c2.5-2.7,4.4-6,5.8-9.8
				c1.4-3.8,2.1-8.1,2.1-12.9c0-4.8-0.7-9.2-2.1-13c-1.4-3.9-3.3-7.1-5.8-9.8c-2.5-2.7-5.5-4.8-8.9-6.2c-3.4-1.4-7.2-2.2-11.3-2.2
				c-3,0-6.5,0.5-10.5,1.5V1888.8z"/>
		</g>
	</g>
	<circle cx="315.2" cy="1287.2" r="21.5"/>
</g>
<g id="SOPORTE-PARED">
</g>
<g id="MEDIDAS">
</g>
<g id="PROCESOS">
	<g>
		<path d="M2109.1,1232.9v-3.6h5.1c2.2,0,4.2-0.2,6-0.6c1.8-0.4,3.2-1.3,4.4-2.6c1.2-1.4,2.1-3.4,2.7-6c0.6-2.6,0.9-6.2,0.9-10.6
			v-85.6c0-8.2-0.9-13.3-2.8-15.5c-2.5-2.9-6.3-4.4-11.2-4.4h-5.1v-3.6h54c19.6,0,34.7,2.3,45.2,6.9c10.4,4.6,18.7,12.1,24.9,22.5
			c6.3,10.6,9.5,22.7,9.5,36.3c0,9.8-1.6,18.8-4.7,27c-3.2,8.2-7.9,15.2-14.1,21.1c-6.3,5.9-14,10.5-23.3,13.9c-9.2,3.3-20,5-32.2,5
			H2109.1z M2147.1,1223.2c8.1,1.8,15,2.8,20.7,2.8c7.5,0,14.4-1.4,20.9-4.2c6.4-2.8,12-6.7,16.7-11.8c4.7-5.1,8.4-11.3,11.1-18.6
			c2.7-7.3,4-15.5,4-24.5c0-9.1-1.3-17.4-3.9-24.7c-2.6-7.3-6.3-13.6-11.1-18.7c-4.8-5.1-10.4-9-16.9-11.7
			c-6.5-2.7-13.7-4.1-21.4-4.1c-5.7,0-12.4,1-20,2.9V1223.2z"/>
		<path d="M2323.5,1097.4c8.5,0,16.5,1.8,24.2,5.2c7.7,3.5,14.4,8.3,20.3,14.4c5.8,6.1,10.5,13.3,13.9,21.7c3.4,8.3,5.2,17.3,5.2,27
			c0,10-1.7,19.3-5.2,27.9c-3.5,8.6-8.1,16-14,22.2c-5.9,6.3-12.8,11.2-20.7,14.7c-7.9,3.5-16.4,5.3-25.3,5.3
			c-9,0-17.5-1.7-25.4-5.1c-7.9-3.4-14.7-8.2-20.5-14.4c-5.8-6.2-10.4-13.5-13.7-22.1c-3.4-8.6-5-18-5-28.3c0-9.5,1.7-18.5,5-26.8
			c3.4-8.4,8-15.6,13.9-21.8c5.9-6.2,12.9-11.1,20.9-14.7C2305.2,1099.2,2314,1097.4,2323.5,1097.4z M2321.6,1104.5
			c-6.7,0-12.7,1.4-17.9,4.3c-5.2,2.9-9.6,7-13.1,12.2c-3.5,5.3-6.2,11.7-8.1,19.2c-1.8,7.5-2.8,16-2.8,25.4
			c0,9.3,0.9,17.9,2.7,25.6c1.8,7.7,4.5,14.4,8,20c3.5,5.6,7.9,9.9,13.2,13c5.2,3.1,11.3,4.6,18.1,4.6c6.1,0,11.8-1.2,17-3.5
			c5.2-2.3,9.7-6,13.6-10.9c3.9-4.9,6.9-11.2,9.1-18.8c2.2-7.6,3.3-16.7,3.3-27.3c0-10-0.9-19-2.7-26.9c-1.8-7.9-4.5-14.6-8.2-20.1
			c-3.6-5.5-8.2-9.7-13.6-12.5C2335,1106,2328.7,1104.5,2321.6,1104.5z"/>
		<path d="M2468,1097.4c8.5,0,16.5,1.8,24.2,5.2c7.7,3.5,14.4,8.3,20.3,14.4c5.8,6.1,10.5,13.3,13.9,21.7c3.4,8.3,5.2,17.3,5.2,27
			c0,10-1.7,19.3-5.2,27.9c-3.5,8.6-8.1,16-14,22.2c-5.9,6.3-12.8,11.2-20.7,14.7c-7.9,3.5-16.4,5.3-25.3,5.3
			c-9,0-17.5-1.7-25.4-5.1c-7.9-3.4-14.7-8.2-20.5-14.4c-5.8-6.2-10.4-13.5-13.7-22.1c-3.4-8.6-5-18-5-28.3c0-9.5,1.7-18.5,5-26.8
			c3.4-8.4,8-15.6,13.9-21.8c5.9-6.2,12.9-11.1,20.9-14.7C2449.7,1099.2,2458.5,1097.4,2468,1097.4z M2466.1,1104.5
			c-6.7,0-12.7,1.4-17.9,4.3c-5.2,2.9-9.6,7-13.1,12.2c-3.5,5.3-6.2,11.7-8.1,19.2c-1.8,7.5-2.8,16-2.8,25.4
			c0,9.3,0.9,17.9,2.7,25.6c1.8,7.7,4.5,14.4,8,20c3.5,5.6,7.9,9.9,13.2,13c5.2,3.1,11.3,4.6,18.1,4.6c6.1,0,11.8-1.2,17-3.5
			c5.2-2.3,9.7-6,13.6-10.9c3.9-4.9,6.9-11.2,9.1-18.8c2.2-7.6,3.3-16.7,3.3-27.3c0-10-0.9-19-2.7-26.9c-1.8-7.9-4.5-14.6-8.2-20.1
			c-3.6-5.5-8.2-9.7-13.6-12.5C2479.5,1106,2473.2,1104.5,2466.1,1104.5z"/>
		<path d="M2674.5,1232.9h-35.3l-44.9-62c-1.7,0.1-3.1,0.2-4.4,0.2c-1.3,0-2.5,0.1-3.6,0.1c-0.9,0-1.8,0-2.8-0.1c-1,0-2-0.1-3.1-0.2
			v38.5c0,4.7,0.3,8.3,0.9,11c0.6,2.7,1.6,4.7,2.8,6c1.2,1.3,2.7,2.1,4.4,2.4c1.7,0.3,3.6,0.4,5.8,0.4h5.2v3.6h-56.9v-3.6h5.1
			c5.4,0,9.4-1.8,12-5.4c1.4-2.1,2-6.9,2-14.4v-85.6c0-8.2-0.9-13.3-2.8-15.5c-2.5-2.9-6.3-4.4-11.2-4.4h-5.1v-3.6h48.3
			c7.1,0,13.2,0.3,18.4,0.8c5.2,0.5,9.4,1.3,12.7,2.4c3.3,1.1,6.4,2.6,9.3,4.4c2.9,1.9,5.5,4.2,7.7,6.9c2.2,2.7,3.9,5.7,5.2,9
			c1.3,3.3,1.9,6.9,1.9,10.6c0,8.3-2.6,15.4-7.9,21.3c-5.2,5.9-13.5,10.2-24.6,12.7l27.3,37.9c3.2,4.4,6.1,8,8.5,10.8
			c2.5,2.8,5,5.1,7.4,6.7c2.5,1.7,5.1,2.9,7.9,3.6c2.8,0.8,6.1,1.4,9.8,1.8V1232.9z M2580.5,1164.8c1.3,0,2.4,0,3.3,0.1
			c0.9,0,1.7,0.1,2.3,0.1c6.3,0,11.9-0.7,16.6-2.2c4.8-1.5,8.8-3.5,12-6.1s5.6-5.7,7.2-9.3c1.6-3.5,2.4-7.4,2.4-11.6
			c0-4.1-0.7-7.8-2-11.3c-1.4-3.5-3.3-6.4-5.8-8.9c-2.5-2.5-5.5-4.4-9-5.8c-3.5-1.4-7.3-2-11.5-2c-4,0-9.1,0.6-15.3,1.9V1164.8z"/>
	</g>
	<g>
		<path d="M1695.6,1284.9v52.4h29c4.3,0,7.7-0.4,10.4-1.2c2.6-0.8,4.7-1.9,6.2-3.5c1.5-1.6,2.6-3.5,3.1-6c0.6-2.4,1-5.3,1.2-8.6h3.6
			v46.1h-3.6c-0.5-3.8-1-6.9-1.7-9.5c-0.6-2.5-1.7-4.5-3.1-6.1c-1.4-1.5-3.4-2.6-5.9-3.2c-2.5-0.6-5.9-0.9-10.2-0.9h-29v43.7
			c0,3.3,0,5.9,0.1,7.9c0.1,1.9,0.5,3.4,1.2,4.4c0.7,1,1.8,1.7,3.2,2c1.5,0.3,3.6,0.4,6.4,0.4h22.5c3.8,0,7-0.1,9.6-0.3
			c2.6-0.2,4.9-0.6,6.8-1.2c1.9-0.6,3.6-1.4,5-2.4c1.5-1,3-2.3,4.7-3.9c3.9-3.8,8-9.9,12.4-18.2h3.9l-11.5,33.2h-102.1v-3.6h4.7
			c1.3,0,2.6-0.1,3.9-0.4c1.4-0.3,2.6-0.7,3.9-1.2c1.2-0.5,2.3-1.2,3.3-2.1c1-0.9,1.7-1.9,2-3.1c0.8-2.1,1.2-6.4,1.2-12.8v-86
			c0-8.5-0.8-13.7-2.5-15.6c-2.3-2.6-6.3-3.9-11.8-3.9h-4.7v-3.6h102.1v29h-2.3c-1-4.8-2-8.6-3.1-11.4c-1.1-2.9-2.6-5.1-4.4-6.6
			c-1.8-1.6-4.2-2.6-7.1-3c-2.9-0.4-6.5-0.7-11-0.7H1695.6z"/>
		<path d="M1857.6,1336.8l28.4,42.4c4.1,6,7.5,10.8,10.1,14.4c2.7,3.5,5.2,6.2,7.4,8.1c2.3,1.8,4.5,3.1,6.7,3.7
			c2.2,0.6,4.8,1,7.8,1.1v3.6h-56.9v-3.6c5.3-0.1,8.9-0.9,10.6-2.5c1.7-1.6,2.6-3.7,2.6-6.6c0-0.5-0.1-0.9-0.1-1.4
			c-0.1-0.4-0.4-1.1-0.8-1.9c-0.4-0.8-1.1-1.9-2-3.1c-0.9-1.3-2-3-3.4-5.1l-22.5-34l-27.9,35.6c-1.6,1.9-2.7,3.5-3.6,4.7
			c-0.8,1.2-1.4,2.1-1.8,2.9c-0.4,0.8-0.6,1.5-0.7,2c-0.1,0.6-0.1,1.2-0.1,1.9c0,2,0.9,3.7,2.6,5.1c1.8,1.4,5.1,2.1,10.1,2.3v3.6
			h-47v-3.6c3.2-0.2,6.2-0.8,9-1.9c2.8-1.1,5.5-2.5,8.1-4.3c2.6-1.8,5.1-4,7.7-6.7c2.5-2.7,5.2-5.7,7.9-9.1l31.2-39.5l-26.1-38.2
			c-3.6-5.2-6.8-9.5-9.7-12.8c-2.9-3.3-5.6-5.8-8.3-7.6c-2.7-1.8-5.4-3.1-8.1-3.8c-2.7-0.7-5.7-1.2-9-1.4v-3.6h61.2v3.6
			c-5.2,0.2-8.7,1-10.6,2.6c-1.9,1.5-2.9,3.2-2.9,5c0,2.4,1.6,5.9,4.7,10.5l20.4,30.5l23.5-29.9c1.5-1.8,2.6-3.3,3.4-4.4
			c0.8-1.1,1.4-2,1.8-2.8c0.4-0.7,0.6-1.4,0.7-2c0.1-0.6,0.1-1.3,0.1-2c0-2.8-1-4.7-3.1-5.7c-2.1-1-5.8-1.6-11-1.7v-3.6h47v3.6
			c-4.5,0.3-8.1,1.1-10.9,2.5c-2.8,1.4-5.4,3.2-7.9,5.4c-2.7,2.3-6.9,7-12.4,14L1857.6,1336.8z"/>
		<path d="M2036.2,1277.6v31.2h-2.2c-1.1-8.4-3.5-14.3-7.4-17.7c-3.8-3.4-9.5-5.2-17-5.2H1991v101.3c0,4.5,0.3,8,0.9,10.6
			c0.6,2.6,1.5,4.5,2.7,5.8c1.2,1.3,2.6,2.1,4.4,2.4c1.7,0.3,3.8,0.5,6.1,0.5h4.5v3.6h-56.1v-3.6h4.7c2.3,0,4.4-0.2,6.1-0.6
			c1.8-0.4,3.2-1.2,4.4-2.6s2.1-3.2,2.7-5.8c0.6-2.5,0.9-6,0.9-10.4v-101.3h-15.9c-4,0-7.5,0.3-10.6,0.9c-3.1,0.6-5.7,1.8-7.9,3.5
			c-2.2,1.7-4,4-5.3,7c-1.3,3-2.1,6.8-2.4,11.4h-3.6v-31.2H2036.2z"/>
		<path d="M2177.8,1410.1h-35.3l-44.9-62c-1.7,0.1-3.1,0.2-4.4,0.2c-1.3,0-2.5,0.1-3.6,0.1c-0.9,0-1.8,0-2.8-0.1c-1,0-2-0.1-3.1-0.2
			v38.5c0,4.7,0.3,8.3,0.9,11c0.6,2.7,1.6,4.7,2.8,6c1.2,1.3,2.7,2.1,4.4,2.4c1.7,0.3,3.6,0.4,5.8,0.4h5.2v3.6H2046v-3.6h5.1
			c5.4,0,9.4-1.8,12-5.4c1.4-2.1,2-6.9,2-14.4V1301c0-8.2-0.9-13.3-2.8-15.5c-2.5-2.9-6.3-4.4-11.2-4.4h-5.1v-3.6h48.3
			c7.1,0,13.2,0.3,18.4,0.8c5.2,0.5,9.4,1.3,12.7,2.4c3.3,1.1,6.4,2.6,9.3,4.4c2.9,1.9,5.5,4.2,7.7,6.9c2.2,2.7,3.9,5.7,5.2,9
			c1.3,3.3,1.9,6.9,1.9,10.6c0,8.3-2.6,15.4-7.9,21.3c-5.2,5.9-13.5,10.2-24.6,12.7l27.3,37.9c3.2,4.4,6.1,8,8.5,10.8
			c2.5,2.8,5,5.1,7.4,6.7c2.5,1.7,5.1,2.9,7.9,3.6c2.8,0.8,6.1,1.4,9.8,1.8V1410.1z M2083.8,1342c1.3,0,2.4,0,3.3,0.1
			c0.9,0,1.7,0.1,2.3,0.1c6.3,0,11.9-0.7,16.6-2.2c4.8-1.5,8.8-3.5,12-6.1s5.6-5.7,7.2-9.3c1.6-3.5,2.4-7.4,2.4-11.6
			c0-4.1-0.7-7.8-2-11.3c-1.4-3.5-3.3-6.4-5.8-8.9c-2.5-2.5-5.5-4.4-9-5.8c-3.5-1.4-7.3-2-11.5-2c-4,0-9.1,0.6-15.3,1.9V1342z"/>
		<path d="M2217.9,1284.9v52.4h29c4.3,0,7.7-0.4,10.4-1.2c2.6-0.8,4.7-1.9,6.2-3.5c1.5-1.6,2.6-3.5,3.1-6c0.6-2.4,1-5.3,1.2-8.6h3.6
			v46.1h-3.6c-0.5-3.8-1-6.9-1.7-9.5c-0.6-2.5-1.7-4.5-3.1-6.1c-1.4-1.5-3.4-2.6-5.9-3.2c-2.5-0.6-5.9-0.9-10.2-0.9h-29v43.7
			c0,3.3,0,5.9,0.1,7.9c0.1,1.9,0.5,3.4,1.2,4.4c0.7,1,1.8,1.7,3.2,2c1.5,0.3,3.6,0.4,6.4,0.4h22.5c3.8,0,7-0.1,9.6-0.3
			c2.6-0.2,4.9-0.6,6.8-1.2c1.9-0.6,3.6-1.4,5-2.4c1.5-1,3-2.3,4.7-3.9c3.9-3.8,8-9.9,12.4-18.2h3.9l-11.5,33.2h-102.1v-3.6h4.7
			c1.3,0,2.6-0.1,3.9-0.4c1.4-0.3,2.6-0.7,3.9-1.2c1.2-0.5,2.3-1.2,3.3-2.1c1-0.9,1.7-1.9,2-3.1c0.8-2.1,1.2-6.4,1.2-12.8v-86
			c0-8.5-0.8-13.7-2.5-15.6c-2.3-2.6-6.3-3.9-11.8-3.9h-4.7v-3.6h102.1v29h-2.3c-1-4.8-2-8.6-3.1-11.4c-1.1-2.9-2.6-5.1-4.4-6.6
			c-1.8-1.6-4.2-2.6-7.1-3c-2.9-0.4-6.5-0.7-11-0.7H2217.9z"/>
		<path d="M2380.1,1410.1l-51.2-111.4v88.5c0,4.6,0.3,8.1,0.9,10.7c0.6,2.6,1.6,4.5,2.8,5.8c1.2,1.3,2.7,2,4.4,2.3
			c1.8,0.3,3.7,0.4,6,0.4h4.7v3.6h-46.1v-3.6h4.7c2.3,0,4.4-0.2,6.1-0.5c1.7-0.3,3.2-1.2,4.4-2.5c1.2-1.3,2-3.3,2.6-5.8
			c0.6-2.6,0.9-6.1,0.9-10.4v-86.6c0-3.1-0.1-5.9-0.4-8.2c-0.3-2.4-1-4.4-2.3-6.1c-1.2-1.7-3.1-2.9-5.5-3.8c-2.5-0.9-6-1.3-10.4-1.3
			v-3.6h37.5l48.1,103.7l47.2-103.7h37.5v3.6h-4.5c-2.4,0-4.5,0.2-6.3,0.6c-1.8,0.4-3.2,1.2-4.4,2.6c-1.2,1.3-2,3.3-2.6,5.8
			c-0.6,2.6-0.9,6.1-0.9,10.4v86.6c0,4.6,0.3,8.1,0.9,10.7c0.6,2.6,1.6,4.5,2.8,5.8c1.2,1.3,2.7,2,4.4,2.3s3.7,0.4,6,0.4h4.5v3.6
			h-56.3v-3.6h4.7c2.3,0,4.4-0.2,6.1-0.6c1.8-0.4,3.2-1.2,4.4-2.6c1.2-1.3,2.1-3.2,2.7-5.8c0.6-2.5,0.9-6,0.9-10.4v-88.5l-51,111.4
			H2380.1z"/>
		<path d="M2518,1284.9v52.4h29c4.3,0,7.7-0.4,10.4-1.2c2.6-0.8,4.7-1.9,6.2-3.5c1.5-1.6,2.6-3.5,3.1-6c0.6-2.4,1-5.3,1.2-8.6h3.6
			v46.1h-3.6c-0.5-3.8-1-6.9-1.7-9.5c-0.6-2.5-1.7-4.5-3.1-6.1c-1.4-1.5-3.4-2.6-5.9-3.2c-2.5-0.6-5.9-0.9-10.2-0.9h-29v43.7
			c0,3.3,0,5.9,0.1,7.9c0.1,1.9,0.5,3.4,1.2,4.4c0.7,1,1.8,1.7,3.2,2c1.5,0.3,3.6,0.4,6.4,0.4h22.5c3.8,0,7-0.1,9.6-0.3
			c2.6-0.2,4.9-0.6,6.8-1.2c1.9-0.6,3.6-1.4,5-2.4c1.5-1,3-2.3,4.7-3.9c3.9-3.8,8-9.9,12.4-18.2h3.9l-11.5,33.2h-102.1v-3.6h4.7
			c1.3,0,2.6-0.1,3.9-0.4c1.4-0.3,2.6-0.7,3.9-1.2c1.2-0.5,2.3-1.2,3.3-2.1c1-0.9,1.7-1.9,2-3.1c0.8-2.1,1.2-6.4,1.2-12.8v-86
			c0-8.5-0.8-13.7-2.5-15.6c-2.3-2.6-6.3-3.9-11.8-3.9h-4.7v-3.6h102.1v29h-2.3c-1-4.8-2-8.6-3.1-11.4c-1.1-2.9-2.6-5.1-4.4-6.6
			c-1.8-1.6-4.2-2.6-7.1-3c-2.9-0.4-6.5-0.7-11-0.7H2518z"/>
		<path d="M2606.6,1357.9h50.5v14.7h-50.5V1357.9z"/>
		<path d="M2779.8,1373.5l3.2,0.6l-11.4,36H2669v-3.6h5.1c5.4,0,9.4-1.8,12-5.4c1.4-2.1,2-6.9,2-14.4V1301c0-8.2-0.9-13.3-2.8-15.5
			c-2.5-2.9-6.3-4.4-11.2-4.4h-5.1v-3.6h60.1v3.6c-3.6,0-6.6,0.2-9,0.5c-2.4,0.3-4.4,0.8-5.9,1.5c-1.6,0.6-2.8,1.4-3.6,2.3
			c-0.9,0.9-1.6,1.8-2.2,2.9c-1,1.9-1.5,7-1.5,15v83.3c0,4.6,0.3,7.9,1,9.9c0.7,2,2,3.5,4.1,4.2c1.8,0.6,6.9,0.9,15.3,0.9h9.6
			c10.2,0,17.4-0.7,21.4-2.2c2-0.7,4-1.7,5.8-2.9c1.8-1.3,3.6-2.9,5.4-5c1.8-2,3.5-4.5,5.1-7.4
			C2776.3,1381.3,2778.1,1377.7,2779.8,1373.5z"/>
		<path d="M2829.1,1284.9v52.4h29c4.3,0,7.7-0.4,10.4-1.2c2.6-0.8,4.7-1.9,6.2-3.5c1.5-1.6,2.6-3.5,3.1-6c0.6-2.4,1-5.3,1.2-8.6h3.6
			v46.1h-3.6c-0.5-3.8-1-6.9-1.7-9.5c-0.6-2.5-1.7-4.5-3.1-6.1c-1.4-1.5-3.4-2.6-5.9-3.2c-2.5-0.6-5.9-0.9-10.2-0.9h-29v43.7
			c0,3.3,0,5.9,0.1,7.9c0.1,1.9,0.5,3.4,1.2,4.4c0.7,1,1.8,1.7,3.2,2c1.5,0.3,3.6,0.4,6.4,0.4h22.5c3.8,0,7-0.1,9.6-0.3
			c2.6-0.2,4.9-0.6,6.8-1.2c1.9-0.6,3.6-1.4,5-2.4c1.5-1,3-2.3,4.7-3.9c3.9-3.8,8-9.9,12.4-18.2h3.9l-11.5,33.2h-102.1v-3.6h4.7
			c1.3,0,2.6-0.1,3.9-0.4c1.4-0.3,2.6-0.7,3.9-1.2c1.2-0.5,2.3-1.2,3.3-2.1c1-0.9,1.7-1.9,2-3.1c0.8-2.1,1.2-6.4,1.2-12.8v-86
			c0-8.5-0.8-13.7-2.5-15.6c-2.3-2.6-6.3-3.9-11.8-3.9h-4.7v-3.6h102.1v29h-2.3c-1-4.8-2-8.6-3.1-11.4c-1.1-2.9-2.6-5.1-4.4-6.6
			c-1.8-1.6-4.2-2.6-7.1-3c-2.9-0.4-6.5-0.7-11-0.7H2829.1z"/>
		<path d="M2950.4,1284.9v52.1h24.1c2.8,0,5.2-0.3,7.2-0.8c2-0.5,3.7-1.5,5-2.8c1.4-1.4,2.4-3.2,3.2-5.5c0.8-2.3,1.4-5.3,1.9-8.9
			h3.6v44.8h-3.6c-0.1-3.3-0.4-6.1-1-8.5c-0.6-2.3-1.5-4.3-2.8-5.8c-1.3-1.5-3.1-2.6-5.2-3.3c-2.2-0.7-4.9-1-8.2-1h-24.1v41.6
			c0,3.1,0,5.6,0.1,7.6c0.1,1.9,0.3,3.5,0.7,4.8c0.4,1.3,0.9,2.3,1.7,3c0.7,0.7,1.7,1.4,2.8,2.1c2.7,1.6,5.7,2.3,8.9,2.3h4.8v3.6
			h-56.9v-3.6h4.7c2.3,0,4.4-0.2,6.2-0.5c1.8-0.3,3.3-1.2,4.4-2.5c1.2-1.3,2.1-3.3,2.7-6c0.6-2.7,0.9-6.3,0.9-10.9V1301
			c0-3-0.1-5.5-0.2-7.5c-0.1-2-0.4-3.6-0.7-4.9c-0.3-1.3-0.9-2.3-1.5-3.1c-0.7-0.8-1.6-1.5-2.8-2c-1.5-0.8-2.9-1.4-4.4-1.8
			c-1.5-0.4-3-0.6-4.7-0.6h-4.7v-3.6h98.6v29.2h-2.2c-1.3-4.8-2.7-8.6-4.3-11.4c-1.6-2.9-3.5-5.1-5.8-6.6c-2.3-1.6-5-2.6-8.1-3.1
			c-3.1-0.5-6.9-0.7-11.2-0.7H2950.4z"/>
		<path d="M3136.5,1277.6v31.2h-2.2c-1.1-8.4-3.5-14.3-7.4-17.7c-3.8-3.4-9.5-5.2-17-5.2h-18.7v101.3c0,4.5,0.3,8,0.9,10.6
			c0.6,2.6,1.5,4.5,2.7,5.8c1.2,1.3,2.6,2.1,4.4,2.4c1.8,0.3,3.8,0.5,6.1,0.5h4.5v3.6h-56.1v-3.6h4.7c2.3,0,4.4-0.2,6.1-0.6
			c1.8-0.4,3.2-1.2,4.4-2.6c1.2-1.3,2.1-3.2,2.7-5.8c0.6-2.5,0.9-6,0.9-10.4v-101.3h-15.9c-4,0-7.5,0.3-10.6,0.9
			c-3.1,0.6-5.7,1.8-7.9,3.5c-2.2,1.7-4,4-5.3,7c-1.3,3-2.1,6.8-2.4,11.4h-3.6v-31.2H3136.5z"/>
	</g>
</g>
</svg>
