<?xml version="1.0" encoding="utf-8"?>
<!-- Generator: Adobe Illustrator 26.5.0, SVG Export Plug-In . SVG Version: 6.00 Build 0)  -->
<svg version="1.1" id="TORNILLOSMAD" xmlns="http://www.w3.org/2000/svg" xmlns:xlink="http://www.w3.org/1999/xlink" x="0px"
	 y="0px" viewBox="0 0 5314 2701" style="enable-background:new 0 0 5314 2701;" xml:space="preserve">
<style type="text/css">
	.st0{fill:#F7F7F7;stroke:#000000;stroke-width:20.8718;stroke-miterlimit:10;}
	.st1{fill:#F7F7F7;stroke:#000000;stroke-width:68.3278;stroke-miterlimit:10;}
	.st2{fill:none;stroke:#000000;stroke-width:68.0729;stroke-miterlimit:10;}
</style>
<g id="PUNTILLAS">
	<g id="TORNILLERIA-SOPORTE-4_00000073697413006203562230000008240210573162313872_">
		<circle id="_x31_0_00000165195292160582914830000008888818712141629096_" class="st0" cx="1363" cy="1334.9" r="1289.8"/>
		<g>
			<g>
				<path class="st1" d="M739.6,657.7c0,0,132-36.5,159.5,64.3c27.5,100.8,746.8,1395.4,746.8,1395.4s50.6,113.2,227.1,145.6
					c40.6-120.8-54.7-268.9-54.7-268.9l-756-1470.9c0,0,241.6-153.5-30.2-108C790.7,535,744.3,580.6,722.4,622.2
					C700.8,663.9,739.6,657.7,739.6,657.7z"/>
				<g>
					<g>
						<path d="M906.2,746.1c25.4,3.4,49.6-8.2,67.6-25.1c9.5-9,17.9-19.4,25.5-29.9c7.6-10.5,16.7-21.6,20.8-33.9
							c0.6-2,0.6-5.4,1.1-7.4c0.6-6.1,1.3-11.9,1.9-18s1.3-11.9,1.9-18c0.3-2.4-0.1-5.5,0.4-7.5c-4,12.3-13.1,23.3-20.8,33.9
							c-7.7,10.9-16,21-25.5,29.9c-18.3,17-42.6,28.8-67.6,25.1C911.6,695.1,905.1,746,906.2,746.1L906.2,746.1z"/>
					</g>
				</g>
				<g>
					<g>
						<path d="M918.5,782.1c18.2-3.2,35.5-10.7,50.1-21.8c0.4-0.3,0.5-5.1,0.5-5.1c0.4-4.1,0.9-8.2,1.3-11.9s0.9-8.2,1.3-11.9
							c0.1-0.7-0.2-4.8,0.5-5.1c-14.6,11.2-31.9,18.6-50.1,21.8c-0.3,0-0.6,5.8-0.5,5.1c-0.4,4.1-0.9,8.2-1.3,11.9
							c-0.4,3.7-0.9,8.2-1.3,11.9C919,777.7,918.5,782.1,918.5,782.1L918.5,782.1z"/>
					</g>
				</g>
				<g>
					<g>
						<path d="M952.1,844.4c41.7,1.7,74.4-27.5,98.2-58.3c0.8-0.9,1.1-7.1,1.1-7.4c0.6-6.1,1.3-11.9,1.9-18s1.3-11.9,1.9-18
							c0.2-1.7-0.3-6.6,0.4-7.5c-23.9,30.8-56.5,60.3-98.2,58.3C955.8,793.2,952.8,844.5,952.1,844.4L952.1,844.4z"/>
					</g>
				</g>
				<g>
					<g>
						<path d="M983.1,889.2c16.1,0.7,32.2-5.5,43.7-17c0.4-0.6,0.5-5.1,0.5-5.1c0.4-4.1,0.9-8.2,1.3-11.9c0.4-3.7,0.9-8.2,1.3-11.9
							c0.1-1,0.2-1.7,0.3-2.7c0.1-0.7,0.2-1.7,0.3-2.4c-11.5,11.5-27.3,17.7-43.7,17c-0.3,0-2,15.6-1.8,17
							C984.5,873.2,983.1,889.2,983.1,889.2L983.1,889.2z"/>
					</g>
				</g>
				<g>
					<g>
						<path d="M1002.7,944.2c4.1,3.9,9.8,1.4,14.4-0.2c5-1.9,10.1-4.1,15.1-6.6c10.1-4.8,19.7-10.6,28.9-16.9
							c18.2-12.8,34.3-28.3,47.8-46.1c0.8-0.9,1.1-7.1,1.1-7.4c0.6-6.1,1.3-11.9,1.9-18s1.3-11.9,1.9-18c0.2-1.7-0.4-6.2,0.4-7.5
							c-13.2,17.8-29.3,33.3-47.8,46.1c-8.9,6.3-18.4,11.8-28.2,16.6c-5.1,2.6-9.8,4.8-15.1,6.6c-4.7,1.9-10.8,4.4-14.8,0.5
							c0.3,0-1.2,8.5-1.1,7.4c-0.6,6.1-1.3,11.9-1.9,18c-0.6,6.1-1.3,11.9-1.9,18C1003.4,938.1,1002.1,943.8,1002.7,944.2
							L1002.7,944.2z"/>
					</g>
				</g>
			</g>
			<path class="st2" d="M817,653.2c0,0,219.1-112.5,245.3-130"/>
		</g>
		<g>
			<g>
				<path d="M3484.6,681.7h64.4l145.6,178.6V723c0-8-0.6-14.4-1.7-19.1c-1.1-4.7-2.8-8.2-5-10.5c-2.2-2.3-4.8-3.7-8-4.3
					s-6.7-0.9-10.7-0.9h-8.4v-6.5h83v6.5h-8.6c-4.2,0-7.9,0.4-11,1c-3.1,0.7-5.8,2.3-7.9,4.7c-2.1,2.4-3.7,5.9-4.7,10.5
					c-1,4.5-1.6,10.7-1.6,18.6v200.6h-6.3l-156.9-191.7v146.7c0,8.2,0.6,14.6,1.7,19.3c1.1,4.6,2.7,8.1,4.8,10.3
					c2.1,2.3,4.7,3.7,7.9,4.2s6.7,0.8,10.7,0.8h8.4v6.5h-82.8v-6.5h8.4c4.2,0,7.9-0.3,11-1c3.1-0.7,5.8-2.2,8-4.6
					c2.2-2.4,3.8-5.8,4.8-10.3c1-4.5,1.6-10.7,1.6-18.6V713.1c-3.5-4.2-6.4-7.5-8.8-10c-2.4-2.4-4.6-4.5-6.7-6
					c-2.1-1.6-4.4-2.9-6.8-3.9c-2.4-1-5.5-2.2-9.2-3.4c-3.5-1-8.6-1.6-15.5-1.6V681.7z"/>
				<path d="M3913.3,840.1h-92.2l-16.2,37.5c-3.8,9.3-5.8,16.2-5.8,20.7c0,1.9,0.3,3.7,0.9,5.2c0.6,1.6,1.9,3,3.9,4.3
					c2,1.3,4.8,2.4,8.4,3.4c3.6,1,8.3,1.6,14.3,2v6.5h-74.9v-6.5c5.9-0.9,10.7-2.2,14.4-3.9c3.7-1.7,6.8-4.1,9.4-7.2
					c2.6-3.1,5-7,7.2-11.9c2.2-4.9,4.8-10.9,8-18.1l83.8-195.7h6l82.8,197.7c3.3,8.2,6.4,14.8,9.3,19.8c2.9,5,5.8,8.9,8.9,11.7
					c3.1,2.8,6.4,4.7,10,5.8c3.6,1,7.9,1.7,13,1.8v6.5h-94v-6.5c9.4-0.3,15.8-1.9,19.3-4.6c3.4-2.7,5.1-6,5.1-9.8
					c-0.2-5.1-2.5-13.3-7.1-24.6L3913.3,840.1z M3908.4,827l-40.3-96.1l-41.4,96.1H3908.4z"/>
				<path d="M4119.2,913.2v6.5h-101.9v-6.5h8.4c4.2,0,7.9-0.3,11.1-0.9c3.2-0.6,5.9-2.1,8-4.5c2.1-2.4,3.7-5.9,4.8-10.7
					c1.1-4.8,1.7-11.3,1.7-19.5V723.8c0-5.4-0.1-9.9-0.4-13.5c-0.3-3.6-0.7-6.5-1.3-8.8c-0.6-2.3-1.5-4.1-2.7-5.4
					c-1.2-1.3-2.9-2.6-5-3.8c-5.2-2.8-10.7-4.2-16.2-4.2h-8.4v-6.5h101.9v6.5h-8.4c-4.2,0-7.9,0.4-11.1,1c-3.2,0.7-5.9,2.2-8,4.6
					c-2.1,2.4-3.7,5.9-4.8,10.7c-1.1,4.8-1.7,11.2-1.7,19.3v153.7c0,5.6,0.1,10.1,0.3,13.6c0.2,3.5,0.6,6.4,1.3,8.6
					c0.7,2.3,1.7,4.1,3,5.4s3,2.6,5.1,3.8c4.9,2.8,10.2,4.2,16,4.2H4119.2z"/>
				<path d="M4334.2,854l5.8,1l-20.4,64.7h-184.4v-6.5h9.2c9.8,0,16.9-3.2,21.5-9.7c2.4-3.8,3.7-12.5,3.7-25.9V723.8
					c0-14.7-1.7-23.9-5-27.8c-4.5-5.2-11.3-7.9-20.2-7.9h-9.2v-6.5h107.9v6.5c-6.5,0-11.8,0.3-16.1,0.9c-4.3,0.6-7.8,1.5-10.6,2.6
					c-2.8,1.1-5,2.5-6.5,4.1c-1.6,1.6-2.9,3.3-3.9,5.2c-1.7,3.5-2.6,12.5-2.6,27v149.6c0,8.2,0.6,14.1,1.8,17.8
					c1.2,3.7,3.7,6.2,7.3,7.6c3.1,1,12.3,1.6,27.5,1.6h17.3c18.3,0,31.2-1.3,38.5-3.9c3.7-1.2,7.2-3,10.5-5.2
					c3.3-2.3,6.5-5.2,9.7-8.9c3.1-3.7,6.2-8.1,9.2-13.4C4328,867.9,4331.1,861.5,4334.2,854z"/>
				<path d="M4512.3,676.4v82.2h-6.5c-3-22.2-10.2-39.1-21.7-50.8c-11.5-11.7-26.2-17.5-44-17.5c-6.1,0-11.7,1-16.8,3.1
					c-5.1,2.1-9.5,4.8-13.4,8.2c-3.8,3.4-6.8,7.3-8.9,11.7c-2.1,4.4-3.1,8.9-3.1,13.6c0,4.4,0.9,8.5,2.6,12.4
					c1.7,3.9,7.2,10.1,16.2,18.5c15.2,9.6,28.7,17.5,40.6,23.8c11.2,6.1,26.3,15.4,45.3,27.8c8.2,6.3,14.5,13.8,18.9,22.4
					c4.4,8.6,6.5,17.7,6.5,27.1c0,8.9-1.8,17.4-5.5,25.4c-3.7,8-8.8,15.1-15.3,21.1c-6.5,6-14.5,10.8-23.7,14.4
					c-9.3,3.6-19.4,5.4-30.4,5.4c-7,0-13.4-0.5-19.4-1.6c-1-0.2-3.8-0.9-8.2-2.2c-4.5-1.3-9.2-2.7-14.3-4.1
					c-5.1-1.4-9.8-2.7-14.1-3.9c-4.4-1.2-6.9-1.8-7.6-1.8c-3,0-5.3,0.9-6.9,2.6c-1.7,1.7-2.9,5.4-3.8,11h-6.5v-81.7h6.5
					c3.1,16.8,7.2,29.6,12.3,38.5c2.4,4.2,5.7,8.1,9.8,11.7c4.1,3.6,8.7,6.7,13.9,9.4c5.1,2.7,10.7,4.8,16.6,6.3
					c5.9,1.5,12,2.2,18.1,2.2c7.3,0,13.9-1,19.8-3.1c5.8-2.1,10.8-4.9,14.9-8.5c4.1-3.6,7.2-7.7,9.4-12.4c2.2-4.7,3.3-9.7,3.3-14.9
					c0-5.9-1.6-11.9-4.8-17.8c-3.2-5.9-8.7-11.8-16.4-17.5c-7.5-4.5-16.4-9.9-26.7-16c-19.7-11.3-37.3-22.3-52.6-32.7
					c-8.6-6.8-15.1-14.3-19.5-22.4c-4.5-8.1-6.7-17.2-6.7-27.1c0-8.4,1.7-16.4,5.2-24c3.5-7.6,8.3-14.3,14.5-20
					c6.2-5.8,13.6-10.3,22.1-13.6c8.6-3.3,17.8-5,27.8-5c12.6,0,25.9,3.1,40.1,9.2c3.3,1.4,6.1,2.5,8.4,3.4c2.3,0.9,4.1,1.2,5.5,1
					c3.1,0,5.7-0.9,7.6-2.6c1.9-1.7,3.4-5.4,4.5-11H4512.3z"/>
			</g>
			<g>
				<path d="M2909.7,1007.8c15.2,0,29.7,3.1,43.5,9.4c13.8,6.3,25.9,14.9,36.4,25.9c10.5,11,18.8,24,25,38.9
					c6.2,14.9,9.3,31.1,9.3,48.6c0,18-3.1,34.7-9.3,50c-6.2,15.4-14.6,28.7-25.1,39.9c-10.6,11.3-23,20.1-37.2,26.5
					c-14.2,6.4-29.4,9.6-45.4,9.6c-16.2,0-31.4-3.1-45.6-9.2c-14.1-6.1-26.4-14.7-36.8-25.8c-10.4-11.1-18.6-24.3-24.6-39.7
					c-6-15.4-9-32.3-9-50.8c0-17.1,3-33.2,9-48.2c6-15,14.3-28.1,24.9-39.2c10.6-11.1,23.1-19.9,37.6-26.3
					C2876.8,1011,2892.6,1007.8,2909.7,1007.8z M2906.3,1020.6c-12,0-22.7,2.6-32.1,7.7c-9.3,5.2-17.2,12.5-23.6,22
					c-6.4,9.5-11.2,21-14.5,34.6c-3.3,13.5-5,28.8-5,45.7c0,16.8,1.6,32.1,4.8,46c3.2,13.9,8,25.8,14.4,35.9
					c6.4,10,14.3,17.8,23.7,23.3c9.4,5.5,20.3,8.2,32.5,8.2c11,0,21.2-2.1,30.5-6.3c9.3-4.2,17.5-10.7,24.5-19.5
					c7-8.8,12.4-20.1,16.4-33.8c3.9-13.7,5.9-30.1,5.9-49.1c0-18-1.6-34.1-4.8-48.3c-3.2-14.2-8.1-26.3-14.7-36.1
					c-6.5-9.9-14.7-17.4-24.4-22.5C2930.3,1023.2,2919.1,1020.6,2906.3,1020.6z"/>
				<path d="M3111.4,1026.1v93.5h43.2c5.1,0,9.4-0.5,13-1.4c3.6-1,6.6-2.7,9-5.1c2.4-2.4,4.4-5.8,5.8-10c1.4-4.2,2.5-9.5,3.4-16h6.5
					v80.4h-6.5c-0.2-5.9-0.8-11-1.8-15.2s-2.7-7.6-5.1-10.3c-2.4-2.7-5.5-4.7-9.4-5.9c-3.9-1.2-8.9-1.8-14.8-1.8h-43.2v74.6
					c0,5.6,0.1,10.1,0.3,13.6c0.2,3.5,0.6,6.4,1.3,8.6c0.7,2.3,1.7,4.1,3,5.4s3,2.6,5.1,3.8c4.9,2.8,10.2,4.2,16,4.2h8.6v6.5h-102.1
					v-6.5h8.4c4.2,0,7.9-0.3,11.1-0.9c3.2-0.6,5.9-2.1,8-4.5c2.1-2.4,3.7-5.9,4.8-10.7c1.1-4.8,1.7-11.3,1.7-19.5v-153.7
					c0-5.4-0.1-9.9-0.4-13.5c-0.3-3.6-0.7-6.5-1.3-8.8c-0.6-2.3-1.5-4.1-2.7-5.5c-1.2-1.4-2.9-2.6-5-3.7c-2.6-1.4-5.2-2.4-7.9-3.1
					c-2.6-0.7-5.4-1-8.4-1h-8.4v-6.5h177.1v52.4h-3.9c-2.3-8.6-4.8-15.4-7.7-20.6c-2.9-5.1-6.4-9.1-10.5-11.9
					c-4.1-2.8-9-4.6-14.5-5.5c-5.6-0.9-12.3-1.3-20.2-1.3H3111.4z"/>
				<path d="M3345.8,1058.3c6.6-16.1,15.1-28.4,25.5-37.1c10.4-8.6,23.3-13,38.9-13c8,0,15.5,1.3,22.3,3.9
					c6.8,2.6,12.7,6.2,17.5,10.6c4.9,4.5,8.7,9.6,11.4,15.5c2.7,5.9,4.1,11.9,4.1,18.2c0,17.5-10.8,35.4-32.5,53.7
					c14.8,5.8,25.9,13.9,33.3,24.5c7.3,10.6,11,23.1,11,37.6c0,12-2.2,23.1-6.7,33.3c-4.5,10.1-10.8,18.9-19,26.3
					c-8.2,7.4-18.1,13.2-29.6,17.3c-11.5,4.1-24.4,6.2-38.5,6.2c-8.2,0-15-0.6-20.3-1.7c-5.3-1.1-9.6-2.6-12.7-4.5
					c-3.1-1.8-5.3-3.8-6.5-6c-1.2-2.2-1.8-4.4-1.8-6.7c0-4.2,1.6-7.4,4.8-9.6c3.2-2.2,7.1-3.3,11.7-3.3c1,0,2,0.1,2.9,0.3
					c0.9,0.2,2,0.5,3.3,1c1.3,0.5,3,1.3,5.1,2.4c2.1,1,5,2.5,8.6,4.5c4.2,2.3,7.6,4,10.2,5.1c2.6,1.1,4.9,2,6.8,2.5
					c1.9,0.5,3.7,0.8,5.2,0.8c1.7,0,3.8,0,6.3,0c5.9,0,11.6-1.3,16.9-3.8c5.3-2.5,10-5.9,14.1-10.2c4.1-4.3,7.3-9.3,9.7-14.9
					c2.4-5.7,3.5-11.6,3.5-17.7c0-3.8-0.4-7.8-1.3-11.9c-0.9-4.1-2.1-8.1-3.5-11.9c-1.5-3.8-3.2-7.3-5.1-10.5
					c-1.9-3.1-4-5.8-6.3-7.9c-2.4-2.3-5.5-4.5-9.2-6.7c-3.7-2.2-7.6-4.1-11.8-5.9c-4.2-1.7-8.6-3.1-13.1-4.2c-4.5-1-9-1.6-13.4-1.6
					h-5.8v-5.2c8.9-1.2,16.8-3.6,23.6-7.2c6.8-3.6,12.5-7.9,17-12.8c4.5-5,8-10.5,10.3-16.6c2.4-6.1,3.5-12.3,3.5-18.6
					c0-5.9-1-11.4-3.1-16.4c-2.1-5-4.9-9.3-8.4-12.8c-3.5-3.6-7.7-6.3-12.6-8.3c-4.9-1.9-10-2.9-15.5-2.9
					c-18.2,0-33.3,9.7-45.3,29.1L3345.8,1058.3z"/>
				<path d="M3608,1001.5l-86.2,254.6h-14.1l86.2-254.6H3608z"/>
				<path d="M3774.3,1163.3v24.9h-32v62.9h-29.1v-62.9h-100.8v-22.5l110.5-157.4h19.4v155.1H3774.3z M3713.3,1163.3v-118.1
					l-83.5,118.1H3713.3z"/>
				<path d="M3987.2,1244.5v6.5h-101.9v-6.5h8.4c4.2,0,7.9-0.3,11.1-0.9c3.2-0.6,5.9-2.1,8-4.5c2.1-2.4,3.7-5.9,4.8-10.7
					c1.1-4.8,1.7-11.3,1.7-19.5v-153.7c0-5.4-0.1-9.9-0.4-13.5c-0.3-3.6-0.7-6.5-1.3-8.8c-0.6-2.3-1.5-4.1-2.7-5.4
					c-1.2-1.3-2.9-2.6-5-3.8c-5.2-2.8-10.7-4.2-16.2-4.2h-8.4v-6.5h101.9v6.5h-8.4c-4.2,0-7.9,0.4-11.1,1c-3.2,0.7-5.9,2.2-8,4.6
					c-2.1,2.4-3.7,5.9-4.8,10.7c-1.1,4.8-1.7,11.2-1.7,19.3v153.7c0,5.6,0.1,10.1,0.3,13.6c0.2,3.5,0.6,6.4,1.3,8.6
					c0.7,2.3,1.7,4.1,3,5.4s3,2.6,5.1,3.8c4.9,2.8,10.2,4.2,16,4.2H3987.2z"/>
				<path d="M3991.4,1013h64.4l145.6,178.6v-137.2c0-8-0.6-14.4-1.7-19.1c-1.1-4.7-2.8-8.2-5-10.5c-2.2-2.3-4.8-3.7-8-4.3
					s-6.7-0.9-10.7-0.9h-8.4v-6.5h83v6.5h-8.6c-4.2,0-7.9,0.4-11,1c-3.1,0.7-5.8,2.3-7.9,4.7c-2.1,2.4-3.7,5.9-4.7,10.5
					c-1,4.5-1.6,10.7-1.6,18.6V1255h-6.3l-156.9-191.7V1210c0,8.2,0.6,14.6,1.7,19.3c1.1,4.6,2.7,8.1,4.8,10.3
					c2.1,2.3,4.7,3.7,7.9,4.2c3.1,0.5,6.7,0.8,10.7,0.8h8.4v6.5h-82.8v-6.5h8.4c4.2,0,7.9-0.3,11-1c3.1-0.7,5.8-2.2,8-4.6
					c2.2-2.4,3.8-5.8,4.8-10.3c1-4.5,1.6-10.7,1.6-18.6v-165.5c-3.5-4.2-6.4-7.5-8.8-10c-2.4-2.4-4.6-4.5-6.7-6
					c-2.1-1.6-4.4-2.9-6.8-3.9c-2.4-1-5.5-2.2-9.2-3.4c-3.5-1-8.6-1.6-15.5-1.6V1013z"/>
				<path d="M4472.1,1007.8l5.5,80.9h-5.5c-7.3-24.3-17.7-41.7-31-52.4s-29.5-16-48.3-16c-12.2,0-23.5,2.3-33.8,6.9
					c-10.3,4.6-19.2,11.7-26.6,21.3c-7.4,9.6-13.2,21.7-17.4,36.1c-4.2,14.5-6.3,31.6-6.3,51.3c0,15.9,2,30.3,5.9,43.2
					c3.9,12.9,9.7,24,17.3,33.1c7.6,9.2,16.9,16.2,27.9,21.2s23.7,7.5,38,7.5c15,0,28.6-3.3,40.9-10c11.7-6.1,24.7-19.2,39-39.3
					l5.5,3.4c-12,21.1-26,36.6-41.8,46.5c-15.8,9.9-34.7,14.8-56.7,14.8c-16.9,0-32.5-3-46.6-8.9c-14.1-5.9-26.3-14.3-36.5-25
					c-10.2-10.7-18.2-23.5-24-38.2c-5.8-14.8-8.6-30.9-8.6-48.6c0-23.9,5.3-45.7,16-65.5c10.5-19.9,25.1-35.3,43.7-46.1
					c18.9-11,39.3-16.5,61.3-16.5c17.3,0,34.2,4.2,50.8,12.6c4.9,2.6,8.4,3.9,10.5,3.9c3.8,0,7-1.6,9.6-4.7
					c2.5-3.1,4.3-7.1,5.4-11.8H4472.1z"/>
				<path d="M4569.2,1123.5h110.5v-68.1c0-5.6-0.1-10.2-0.3-13.7c-0.2-3.6-0.6-6.5-1.3-8.8c-0.7-2.3-1.7-4.1-3-5.4
					c-1.3-1.3-3-2.6-5.1-3.8c-4.9-2.8-10.2-4.2-16-4.2h-8.4v-6.5h101.9v6.5h-8.4c-2.3,0-4.7,0.3-7.2,0.8c-2.5,0.5-4.9,1.3-7.1,2.4
					c-2.2,1-4.1,2.4-5.9,3.9c-1.7,1.6-3,3.4-3.7,5.5c-1.2,3.7-1.8,11.4-1.8,23.3v153.5c0,5.6,0.1,10.1,0.4,13.6
					c0.3,3.5,0.7,6.4,1.3,8.6c0.6,2.3,1.5,4.1,2.8,5.4c1.2,1.3,2.9,2.6,5,3.8c4.9,2.8,10.3,4.2,16.2,4.2h8.4v6.5h-101.9v-6.5h8.4
					c4,0,7.6-0.3,10.7-0.9c3.1-0.6,5.8-2.1,8.1-4.5c2.3-2.4,4-5.9,5.1-10.7c1.1-4.8,1.7-11.3,1.7-19.5v-72.6h-110.5v72.6
					c0,5.6,0.1,10.1,0.3,13.6c0.2,3.5,0.6,6.4,1.3,8.6c0.7,2.3,1.7,4.1,3,5.4c1.3,1.3,3,2.6,5.1,3.8c4.9,2.8,10.2,4.2,16,4.2h8.6
					v6.5h-102.1v-6.5h8.6c9.6,0,16.7-2.9,21.2-8.6c2.8-3.5,4.2-12.5,4.2-27v-153.5c0-5.8-0.1-10.4-0.3-14c-0.2-3.6-0.6-6.5-1.3-8.6
					c-0.7-2.2-1.7-3.9-2.9-5.2c-1.2-1.3-2.9-2.6-5-3.8c-4.9-2.8-10.2-4.2-16-4.2h-8.6v-6.5h102.1v6.5h-8.6c-2.1,0-4.4,0.3-6.9,0.8
					c-2.5,0.5-4.9,1.3-7.1,2.4c-2.2,1-4.2,2.4-5.9,3.9c-1.7,1.6-3,3.4-3.7,5.5c-1.4,4.2-2.1,12-2.1,23.3V1123.5z"/>
				<path d="M4830.1,1026.1v94h52.1c7.7,0,13.9-0.7,18.6-2.1c4.7-1.4,8.4-3.5,11.1-6.3c2.7-2.8,4.6-6.4,5.6-10.7
					c1-4.4,1.7-9.5,2.1-15.5h6.5v82.8h-6.5c-0.9-6.8-1.9-12.5-3-17c-1.1-4.5-3-8.2-5.5-10.9c-2.5-2.7-6.1-4.6-10.6-5.8
					c-4.5-1.1-10.7-1.7-18.3-1.7h-52.1v78.6c0,5.9,0.1,10.7,0.3,14.1c0.2,3.5,0.9,6.2,2.1,8c1.2,1.8,3.1,3,5.8,3.5
					c2.6,0.5,6.5,0.8,11.5,0.8h40.3c6.8,0,12.6-0.2,17.3-0.5c4.7-0.3,8.8-1,12.2-2.1c3.4-1,6.4-2.5,9-4.3c2.6-1.8,5.4-4.1,8.4-6.9
					c7-6.8,14.4-17.7,22.3-32.7h7.1l-20.7,59.7h-183.3v-6.5h8.4c2.3,0,4.6-0.3,7.1-0.8c2.4-0.5,4.8-1.3,6.9-2.2
					c2.2-1,4.1-2.2,5.9-3.8c1.7-1.6,3-3.4,3.7-5.5c1.4-3.8,2.1-11.5,2.1-23v-154.5c0-15.2-1.5-24.5-4.5-28
					c-4.2-4.7-11.3-7.1-21.2-7.1h-8.4v-6.5h183.3v52.1h-4.2c-1.7-8.6-3.6-15.4-5.6-20.6c-2-5.1-4.7-9.1-8-11.9
					c-3.3-2.8-7.6-4.6-12.7-5.4c-5.2-0.8-11.7-1.2-19.8-1.2H4830.1z"/>
				<path d="M5139.1,1007.8v82.2h-6.5c-3-22.2-10.2-39.1-21.7-50.8c-11.5-11.7-26.2-17.5-44-17.5c-6.1,0-11.7,1-16.8,3.1
					c-5.1,2.1-9.5,4.8-13.4,8.2c-3.8,3.4-6.8,7.3-8.9,11.7c-2.1,4.4-3.1,8.9-3.1,13.6c0,4.4,0.9,8.5,2.6,12.4
					c1.7,3.9,7.2,10.1,16.2,18.5c15.2,9.6,28.7,17.5,40.6,23.8c11.2,6.1,26.3,15.4,45.3,27.8c8.2,6.3,14.5,13.8,18.9,22.4
					c4.4,8.6,6.5,17.7,6.5,27.1c0,8.9-1.8,17.4-5.5,25.4c-3.7,8-8.8,15.1-15.3,21.1c-6.5,6-14.5,10.8-23.7,14.4
					c-9.3,3.6-19.4,5.4-30.4,5.4c-7,0-13.4-0.5-19.4-1.6c-1-0.2-3.8-0.9-8.2-2.2s-9.2-2.7-14.3-4.1c-5.1-1.4-9.8-2.7-14.1-3.9
					c-4.4-1.2-6.9-1.8-7.6-1.8c-3,0-5.3,0.9-6.9,2.6c-1.7,1.7-2.9,5.4-3.8,11h-6.5v-81.7h6.5c3.1,16.8,7.2,29.6,12.3,38.5
					c2.4,4.2,5.7,8.1,9.8,11.7c4.1,3.6,8.7,6.7,13.9,9.4c5.1,2.7,10.7,4.8,16.6,6.3c5.9,1.5,12,2.2,18.1,2.2c7.3,0,13.9-1,19.8-3.1
					c5.8-2.1,10.8-4.9,14.9-8.5c4.1-3.6,7.2-7.7,9.4-12.4c2.2-4.7,3.3-9.7,3.3-14.9c0-5.9-1.6-11.9-4.8-17.8
					c-3.2-5.9-8.7-11.8-16.4-17.5c-7.5-4.5-16.4-9.9-26.7-16c-19.7-11.3-37.3-22.3-52.6-32.7c-8.6-6.8-15.1-14.3-19.5-22.4
					c-4.5-8.1-6.7-17.2-6.7-27.1c0-8.4,1.7-16.4,5.2-24c3.5-7.6,8.3-14.3,14.5-20c6.2-5.8,13.6-10.3,22.1-13.6
					c8.6-3.3,17.8-5,27.8-5c12.6,0,25.9,3.1,40.1,9.2c3.3,1.4,6.1,2.5,8.4,3.4c2.3,0.9,4.1,1.2,5.5,1c3.1,0,5.7-0.9,7.6-2.6
					c1.9-1.7,3.4-5.4,4.5-11H5139.1z"/>
			</g>
			<g>
				<path d="M3071.3,1400l57.9-28.3h5.8v200.9c0,7,0.1,12.4,0.3,16.4c0.2,3.9,0.6,6.9,1.3,9c0.7,2.1,1.6,3.6,2.6,4.5
					c1,0.9,2.5,1.7,4.5,2.6c3.5,1.9,10.6,2.9,21.5,2.9v6.5h-89.6v-6.5c5.8,0,10.4-0.3,13.9-0.8c3.5-0.5,6.2-1.2,8.1-2
					c1.9-0.8,3.4-1.8,4.3-3c1-1.2,1.7-2.5,2.2-3.9c1.2-2.6,1.8-11.2,1.8-25.7V1444c0-10.1-0.2-18.1-0.7-24c-0.4-5.8-1.2-10.2-2.2-13
					c-1-2.8-2.4-4.6-4.2-5.4c-1.7-0.8-4-1.2-6.8-1.2c-4.9,0-10.9,1.6-18.1,4.7L3071.3,1400z"/>
				<path d="M3515,1371.2l5.5,80.9h-5.5c-7.3-24.3-17.7-41.7-31-52.4s-29.5-16-48.3-16c-12.2,0-23.5,2.3-33.8,6.9
					c-10.3,4.6-19.2,11.7-26.6,21.3c-7.4,9.6-13.2,21.7-17.4,36.1c-4.2,14.5-6.3,31.6-6.3,51.3c0,15.9,2,30.3,5.9,43.2
					c3.9,12.9,9.7,24,17.3,33.1c7.6,9.2,16.9,16.2,27.9,21.2c11,5,23.7,7.5,38,7.5c15,0,28.6-3.3,40.9-10
					c11.7-6.1,24.7-19.2,39-39.3l5.5,3.4c-12,21.1-26,36.6-41.8,46.5c-15.8,9.9-34.7,14.8-56.7,14.8c-16.9,0-32.5-3-46.6-8.9
					c-14.1-5.9-26.3-14.3-36.5-25c-10.2-10.7-18.2-23.5-24-38.2c-5.8-14.8-8.6-30.9-8.6-48.6c0-23.9,5.3-45.7,16-65.5
					c10.5-19.9,25.1-35.3,43.7-46.1c18.9-11,39.3-16.5,61.3-16.5c17.3,0,34.2,4.2,50.8,12.6c4.9,2.6,8.4,3.9,10.5,3.9
					c3.8,0,7-1.6,9.6-4.7c2.5-3.1,4.3-7.1,5.4-11.8H3515z"/>
				<path d="M3685.2,1614.5l-91.9-200.1v159c0,8.2,0.6,14.6,1.7,19.3c1.1,4.6,2.8,8.1,5,10.3c2.2,2.3,4.8,3.7,8,4.2
					s6.7,0.8,10.7,0.8h8.4v6.5h-82.8v-6.5h8.4c4.2,0,7.9-0.3,11-0.9c3.1-0.6,5.8-2.1,7.9-4.5c2.1-2.4,3.7-5.8,4.7-10.5
					c1-4.6,1.6-10.9,1.6-18.7v-155.6c0-5.6-0.3-10.5-0.8-14.8c-0.5-4.3-1.9-7.9-4.1-10.9c-2.2-3-5.5-5.2-10-6.8
					c-4.5-1.6-10.7-2.4-18.7-2.4v-6.5h67.3l86.4,186.2l84.9-186.2h67.3v6.5h-8.1c-4.4,0-8.1,0.4-11.3,1c-3.1,0.7-5.8,2.2-7.9,4.6
					c-2.1,2.4-3.7,5.9-4.7,10.5c-1,4.6-1.6,10.9-1.6,18.7v155.6c0,8.2,0.6,14.6,1.7,19.3c1.1,4.6,2.8,8.1,5,10.3
					c2.2,2.3,4.8,3.7,8,4.2c3.1,0.5,6.7,0.8,10.7,0.8h8.1v6.5h-101.1v-6.5h8.4c4.2,0,7.9-0.3,11-1c3.1-0.7,5.8-2.2,8-4.6
					c2.2-2.4,3.8-5.8,4.8-10.3c1-4.5,1.6-10.7,1.6-18.6v-159l-91.7,200.1H3685.2z"/>
				<path d="M4153.8,1548.8l5.8,1l-20.4,64.7h-184.4v-6.5h9.2c9.8,0,16.9-3.2,21.5-9.7c2.4-3.8,3.7-12.5,3.7-25.9v-153.7
					c0-14.7-1.7-23.9-5-27.8c-4.5-5.2-11.3-7.9-20.2-7.9h-9.2v-6.5h107.9v6.5c-6.5,0-11.8,0.3-16.1,0.9c-4.3,0.6-7.8,1.5-10.6,2.6
					c-2.8,1.1-5,2.5-6.5,4.1c-1.6,1.6-2.9,3.3-3.9,5.2c-1.7,3.5-2.6,12.5-2.6,27v149.6c0,8.2,0.6,14.1,1.8,17.8
					c1.2,3.7,3.7,6.2,7.3,7.6c3.1,1,12.3,1.6,27.5,1.6h17.3c18.3,0,31.2-1.3,38.5-3.9c3.7-1.2,7.2-3,10.5-5.2
					c3.3-2.3,6.5-5.2,9.7-8.9s6.2-8.1,9.2-13.4C4147.6,1562.6,4150.7,1556.3,4153.8,1548.8z"/>
				<path d="M4298.6,1371.2c15.2,0,29.7,3.1,43.5,9.4c13.8,6.3,25.9,14.9,36.4,25.9c10.5,11,18.8,24,25,38.9
					c6.2,14.9,9.3,31.1,9.3,48.6c0,18-3.1,34.7-9.3,50c-6.2,15.4-14.6,28.7-25.1,39.9c-10.6,11.3-23,20.1-37.2,26.5
					c-14.2,6.4-29.4,9.6-45.4,9.6c-16.2,0-31.4-3.1-45.6-9.2c-14.1-6.1-26.4-14.7-36.8-25.8c-10.4-11.1-18.6-24.3-24.6-39.7
					c-6-15.4-9-32.3-9-50.8c0-17.1,3-33.2,9-48.2c6-15,14.3-28.1,24.9-39.2c10.6-11.1,23.1-19.9,37.6-26.3
					C4265.7,1374.4,4281.5,1371.2,4298.6,1371.2z M4295.2,1384c-12,0-22.7,2.6-32.1,7.7c-9.3,5.2-17.2,12.5-23.6,22
					c-6.4,9.5-11.2,21-14.5,34.6c-3.3,13.5-5,28.8-5,45.7c0,16.8,1.6,32.1,4.8,46c3.2,13.9,8,25.8,14.4,35.9
					c6.4,10,14.3,17.8,23.7,23.3c9.4,5.5,20.3,8.2,32.5,8.2c11,0,21.2-2.1,30.5-6.3c9.3-4.2,17.5-10.7,24.5-19.5
					c7-8.8,12.4-20.1,16.4-33.8c3.9-13.7,5.9-30.1,5.9-49.1c0-18-1.6-34.1-4.8-48.3c-3.2-14.2-8.1-26.3-14.7-36.1
					c-6.5-9.9-14.7-17.4-24.4-22.5C4319.2,1386.6,4308,1384,4295.2,1384z"/>
				<path d="M4422,1376.4h64.4l145.6,178.6v-137.2c0-8-0.6-14.4-1.7-19.1c-1.1-4.7-2.8-8.2-5-10.5c-2.2-2.3-4.8-3.7-8-4.3
					c-3.1-0.6-6.7-0.9-10.7-0.9h-8.4v-6.5h83v6.5h-8.6c-4.2,0-7.9,0.4-11,1c-3.1,0.7-5.8,2.3-7.9,4.7c-2.1,2.4-3.7,5.9-4.7,10.5
					c-1,4.5-1.6,10.7-1.6,18.6v200.6h-6.3l-156.9-191.7v146.7c0,8.2,0.6,14.6,1.7,19.3c1.1,4.6,2.8,8.1,4.8,10.3
					c2.1,2.3,4.7,3.7,7.9,4.2c3.1,0.5,6.7,0.8,10.7,0.8h8.4v6.5h-82.8v-6.5h8.4c4.2,0,7.9-0.3,11-1c3.1-0.7,5.8-2.2,8-4.6
					c2.2-2.4,3.8-5.8,4.8-10.3c1-4.5,1.6-10.7,1.6-18.6v-165.5c-3.5-4.2-6.4-7.5-8.8-10c-2.4-2.4-4.6-4.5-6.7-6
					c-2.1-1.6-4.4-2.9-6.8-3.9c-2.4-1-5.5-2.2-9.2-3.4c-3.5-1-8.6-1.6-15.5-1.6V1376.4z"/>
				<path d="M4906.8,1371.2l6.3,74.9h-6.3c-7.2-22-17.3-37.9-30.5-47.8c-13.2-9.9-29.2-14.8-48.1-14.8c-14,0-26.5,2.7-37.5,8.2
					c-11,5.5-20.3,13.1-28,22.8c-7.7,9.7-13.5,21.1-17.5,34.3c-4,13.2-6,27.5-6,42.8c0,22.5,4.5,43.2,13.4,62.1
					c4.4,9.4,9.5,17.5,15.3,24.4c5.8,6.8,12.2,12.4,19,16.9c6.8,4.4,13.9,7.7,21.3,9.8c7.4,2.1,14.9,3.1,22.4,3.1
					c17.5,0,33.9-4.4,49.2-13.1V1526c0-5.9-0.2-10.8-0.7-14.5c-0.4-3.8-1.1-6.7-2.1-8.9c-1-2.2-2.1-3.8-3.5-5
					c-1.4-1.1-3.1-2.2-5-3.3c-3.8-1.9-10.5-2.9-19.9-2.9v-6.8h92.2v6.8h-4.5c-4,0-7.4,0.4-10.2,1.3c-2.8,0.9-5.1,2.5-6.9,5
					c-1.8,2.4-3.1,5.9-3.9,10.5c-0.8,4.5-1.2,10.5-1.2,17.8v72.8c-6.8,3.7-13.5,6.9-20,9.6c-6.5,2.7-13.1,4.8-19.8,6.4
					c-13.6,3.5-28.2,5.2-43.7,5.2c-19.9,0-37.9-3.1-54.1-9.2c-16.2-6.1-30-14.6-41.5-25.4c-11.5-10.8-20.4-23.6-26.7-38.2
					c-6.3-14.7-9.4-30.6-9.4-47.9c0-20.8,5.1-40.9,15.2-60.2c11.7-22.7,28-40.2,49-52.6c17.5-10.1,38.1-15.2,61.8-15.2
					c4.7,0,8.9,0.1,12.6,0.4c3.7,0.3,7.5,0.8,11.4,1.6c3.9,0.8,8.2,1.9,12.8,3.4c4.6,1.5,10.3,3.4,16.9,5.9
					c6.6,2.6,11.1,3.8,13.4,3.7c2.1,0,3.9-1,5.5-3c1.6-2,2.5-6,2.9-11.9H4906.8z"/>
			</g>
			<g>
				<path d="M3428.5,1904.7l-16.8,45.8h-140.4v-6.5c40.7-38.6,69.8-69.3,87.2-92.2c16.9-23.7,25.4-45.6,25.4-65.5
					c0-7.5-1.3-14.4-3.8-20.8c-2.5-6.4-5.9-11.8-10.2-16.4c-4.3-4.5-9.3-8.1-14.9-10.7c-5.7-2.6-11.7-3.9-18.2-3.9
					c-11.7,0-22.2,3.4-31.4,10.2c-9.3,6.8-16.2,16.9-20.7,30.1h-6.3c3-21.8,10.4-38.5,22.4-49.9c12-11.4,27.1-17.2,45.4-17.2
					c9.6,0,18.6,1.7,26.8,5.1c8.3,3.4,15.5,8,21.5,13.8c6,5.8,10.8,12.4,14.3,19.9c3.5,7.5,5.2,15.4,5.2,23.6
					c0,12-2.1,23.1-6.4,33.3c-4.3,10.1-8.6,18.4-13.1,24.8c-4.4,6.4-10.9,14.9-19.2,25.5c-15.9,17.8-28.6,31.8-38.1,41.9
					c-9.5,10.1-19,19.6-28.4,28.5h62.1c7.9,0,14.5-0.2,19.9-0.5c5.4-0.3,10-1.2,13.8-2.5c3.8-1.3,6.9-3.3,9.6-5.9
					c2.6-2.6,5.2-6.1,7.9-10.5H3428.5z"/>
				<path d="M3456.5,1832.9c0-27.4,4-50.7,12-69.9c7.3-17.3,16.8-30.8,28.4-40.6c11.6-9.8,24-14.7,37.1-14.7
					c10.5,0,20.3,3.1,29.5,9.2c9.2,6.1,17.2,14.6,24.2,25.5c7,10.9,12.5,23.8,16.5,38.6c4,14.8,6,30.9,6,48.2
					c0,27.6-3.9,51.1-11.8,70.5c-4,9.4-8.6,17.6-13.9,24.6c-5.2,7-10.7,12.7-16.5,17.2c-5.8,4.5-11.7,7.8-17.9,10
					c-6.2,2.2-12.2,3.3-17.9,3.3c-10.3,0-20-3.1-29.2-9.2c-9.2-6.1-17.2-14.6-24.1-25.5c-6.9-10.9-12.4-23.8-16.4-38.6
					C3458.5,1866.5,3456.5,1850.4,3456.5,1832.9z M3490.8,1837.4c0,14.5,0.8,28.2,2.5,41.1c1.7,12.9,4.2,24.2,7.6,33.9
					c3.4,9.7,7.7,17.3,13,22.9c5.2,5.6,11.5,8.4,18.9,8.4c6.8,0,12.9-2.3,18.2-6.9c5.3-4.6,9.8-11.9,13.5-21.7
					c3.7-9.9,6.5-22.5,8.5-38c2-15.5,3-33.9,3-55.4c0-15.4-0.9-29.4-2.6-42c-1.7-12.7-4.4-23.4-8-32.3c-3.6-8.9-8-15.8-13.2-20.7
					c-5.2-4.9-11.4-7.3-18.3-7.3c-7.9,0-14.5,3.1-19.9,9.4c-5.4,6.3-9.8,14.8-13.2,25.7c-3.4,10.8-5.9,23.4-7.5,37.7
					C3491.6,1806.4,3490.8,1821.5,3490.8,1837.4z"/>
				<path d="M3708.2,1712.5h64.4l145.6,178.6v-137.2c0-8-0.6-14.4-1.7-19.1c-1.1-4.7-2.8-8.2-5-10.5c-2.2-2.3-4.8-3.7-8-4.3
					c-3.1-0.6-6.7-0.9-10.7-0.9h-8.4v-6.5h83v6.5h-8.6c-4.2,0-7.9,0.4-11,1c-3.1,0.7-5.8,2.3-7.9,4.7c-2.1,2.4-3.7,5.9-4.7,10.5
					c-1,4.5-1.6,10.7-1.6,18.6v200.6h-6.3l-156.9-191.7v146.7c0,8.2,0.6,14.6,1.7,19.3c1.1,4.6,2.8,8.1,4.8,10.3
					c2.1,2.3,4.7,3.7,7.9,4.2c3.1,0.5,6.7,0.8,10.7,0.8h8.4v6.5h-82.8v-6.5h8.4c4.2,0,7.9-0.3,11-1c3.1-0.7,5.8-2.2,8-4.6
					c2.2-2.4,3.8-5.8,4.8-10.3c1-4.5,1.6-10.7,1.6-18.6v-165.5c-3.5-4.2-6.4-7.5-8.8-10c-2.4-2.4-4.6-4.5-6.7-6
					c-2.1-1.6-4.4-2.9-6.8-3.9c-2.4-1-5.5-2.2-9.2-3.4c-3.5-1-8.6-1.6-15.5-1.6V1712.5z"/>
				<path d="M4137,1870.9h-92.2l-16.2,37.5c-3.8,9.3-5.8,16.2-5.8,20.7c0,1.9,0.3,3.7,0.9,5.2c0.6,1.6,1.9,3,3.9,4.3
					c2,1.3,4.8,2.4,8.4,3.4c3.6,1,8.3,1.6,14.3,2v6.5h-74.9v-6.5c5.9-0.9,10.7-2.2,14.4-3.9c3.7-1.7,6.8-4.1,9.4-7.2
					c2.6-3.1,5-7,7.2-11.9c2.2-4.9,4.8-10.9,8-18.1l83.8-195.7h6L4187,1905c3.3,8.2,6.4,14.8,9.3,19.8c2.9,5,5.8,8.9,8.9,11.7
					c3.1,2.8,6.4,4.7,10,5.8c3.6,1,7.9,1.7,13,1.8v6.5h-94v-6.5c9.4-0.3,15.8-1.9,19.3-4.6c3.4-2.7,5.1-6,5.1-9.8
					c-0.2-5.1-2.5-13.3-7.1-24.6L4137,1870.9z M4132,1857.8l-40.3-96.1l-41.4,96.1H4132z"/>
				<path d="M4342.8,1944v6.5H4241v-6.5h8.4c4.2,0,7.9-0.3,11.1-0.9c3.2-0.6,5.9-2.1,8-4.5c2.1-2.4,3.7-5.9,4.8-10.7
					c1.1-4.8,1.7-11.3,1.7-19.5v-153.7c0-5.4-0.1-9.9-0.4-13.5c-0.3-3.6-0.7-6.5-1.3-8.8c-0.6-2.3-1.5-4.1-2.8-5.4
					c-1.2-1.3-2.9-2.6-5-3.8c-5.2-2.8-10.7-4.2-16.2-4.2h-8.4v-6.5h101.9v6.5h-8.4c-4.2,0-7.9,0.4-11.1,1c-3.2,0.7-5.9,2.2-8,4.6
					c-2.1,2.4-3.7,5.9-4.8,10.7c-1.1,4.8-1.7,11.2-1.7,19.3v153.7c0,5.6,0.1,10.1,0.3,13.6c0.2,3.5,0.6,6.4,1.3,8.6
					c0.7,2.3,1.7,4.1,3,5.4c1.3,1.3,3,2.6,5.1,3.8c4.9,2.8,10.2,4.2,16,4.2H4342.8z"/>
				<path d="M4557.9,1884.8l5.8,1l-20.4,64.7h-184.4v-6.5h9.2c9.8,0,16.9-3.2,21.5-9.7c2.4-3.8,3.7-12.5,3.7-25.9v-153.7
					c0-14.7-1.7-23.9-5-27.8c-4.5-5.2-11.3-7.9-20.2-7.9h-9.2v-6.5h107.9v6.5c-6.5,0-11.8,0.3-16.1,0.9c-4.3,0.6-7.8,1.5-10.6,2.6
					c-2.8,1.1-5,2.5-6.5,4.1c-1.6,1.6-2.9,3.3-3.9,5.2c-1.7,3.5-2.6,12.5-2.6,27v149.6c0,8.2,0.6,14.1,1.8,17.8
					c1.2,3.7,3.7,6.2,7.3,7.6c3.1,1,12.3,1.6,27.5,1.6h17.3c18.3,0,31.2-1.3,38.5-3.9c3.7-1.2,7.2-3,10.5-5.2
					c3.3-2.3,6.5-5.2,9.7-8.9s6.2-8.1,9.2-13.4C4551.7,1898.7,4554.7,1892.3,4557.9,1884.8z"/>
				<path d="M4736,1707.2v82.2h-6.5c-3-22.2-10.2-39.1-21.7-50.8c-11.5-11.7-26.2-17.5-44-17.5c-6.1,0-11.7,1-16.8,3.1
					c-5.1,2.1-9.5,4.8-13.4,8.2c-3.8,3.4-6.8,7.3-8.9,11.7c-2.1,4.4-3.1,8.9-3.1,13.6c0,4.4,0.9,8.5,2.6,12.4
					c1.7,3.9,7.2,10.1,16.2,18.5c15.2,9.6,28.7,17.5,40.6,23.8c11.2,6.1,26.3,15.4,45.3,27.8c8.2,6.3,14.5,13.8,18.9,22.4
					c4.4,8.6,6.5,17.7,6.5,27.1c0,8.9-1.8,17.4-5.5,25.4c-3.7,8-8.8,15.1-15.3,21.1c-6.5,6-14.5,10.8-23.7,14.4
					c-9.3,3.6-19.4,5.4-30.4,5.4c-7,0-13.4-0.5-19.4-1.6c-1-0.2-3.8-0.9-8.2-2.2c-4.5-1.3-9.2-2.7-14.3-4.1
					c-5.1-1.4-9.8-2.7-14.1-3.9c-4.4-1.2-6.9-1.8-7.6-1.8c-3,0-5.3,0.9-6.9,2.6c-1.7,1.7-2.9,5.4-3.8,11h-6.5v-81.7h6.5
					c3.1,16.8,7.2,29.6,12.3,38.5c2.4,4.2,5.7,8.1,9.8,11.7c4.1,3.6,8.7,6.7,13.9,9.4c5.1,2.7,10.7,4.8,16.6,6.3
					c5.9,1.5,12,2.2,18.1,2.2c7.3,0,13.9-1,19.8-3.1c5.8-2.1,10.8-4.9,14.9-8.5c4.1-3.6,7.2-7.7,9.4-12.4c2.2-4.7,3.3-9.7,3.3-14.9
					c0-5.9-1.6-11.9-4.8-17.8c-3.2-5.9-8.7-11.8-16.4-17.5c-7.5-4.5-16.4-9.9-26.7-16c-19.7-11.3-37.3-22.3-52.6-32.7
					c-8.6-6.8-15.1-14.3-19.5-22.4c-4.5-8.1-6.7-17.2-6.7-27.1c0-8.4,1.7-16.4,5.2-24c3.5-7.6,8.3-14.3,14.5-20
					c6.2-5.8,13.6-10.3,22.1-13.6c8.6-3.3,17.8-5,27.8-5c12.6,0,25.9,3.1,40.1,9.2c3.3,1.4,6.1,2.5,8.4,3.4c2.3,0.9,4.1,1.2,5.5,1
					c3.1,0,5.7-0.9,7.6-2.6c1.9-1.7,3.4-5.4,4.5-11H4736z"/>
			</g>
			<g>
				<path d="M3419.1,2057.6v56h-3.9c-1.9-15-6.3-25.6-13.2-31.8c-6.9-6.2-17.1-9.3-30.5-9.3h-33.5v182c0,8,0.6,14.4,1.7,19
					c1.1,4.6,2.7,8.1,4.8,10.3c2.1,2.3,4.7,3.7,7.9,4.3c3.1,0.6,6.8,0.9,11,0.9h8.1v6.5h-100.8v-6.5h8.4c4.2,0,7.9-0.3,11-1
					c3.1-0.7,5.8-2.2,7.9-4.6c2.1-2.4,3.7-5.8,4.8-10.3c1.1-4.5,1.7-10.7,1.7-18.6v-182h-28.5c-7.2,0-13.5,0.6-19,1.7
					c-5.5,1.1-10.3,3.2-14.3,6.3c-4,3.1-7.2,7.2-9.6,12.6c-2.4,5.3-3.8,12.2-4.3,20.6h-6.5v-56H3419.1z"/>
				<path d="M3555.5,2052.4c15.2,0,29.7,3.1,43.5,9.4c13.8,6.3,25.9,14.9,36.4,25.9c10.5,11,18.8,24,25,38.9s9.3,31.1,9.3,48.6
					c0,18-3.1,34.7-9.3,50c-6.2,15.4-14.6,28.7-25.1,39.9c-10.6,11.3-23,20.1-37.2,26.5c-14.2,6.4-29.4,9.6-45.4,9.6
					c-16.2,0-31.4-3.1-45.6-9.2c-14.1-6.1-26.4-14.7-36.8-25.8c-10.4-11.1-18.6-24.3-24.6-39.7c-6-15.4-9-32.3-9-50.8
					c0-17.1,3-33.2,9-48.2c6-15,14.3-28.1,24.9-39.2c10.6-11.1,23.1-19.9,37.6-26.3C3522.6,2055.6,3538.4,2052.4,3555.5,2052.4z
					 M3552.1,2065.2c-12,0-22.7,2.6-32.1,7.7c-9.3,5.2-17.2,12.5-23.6,22c-6.4,9.5-11.2,21-14.5,34.6c-3.3,13.5-5,28.8-5,45.7
					c0,16.8,1.6,32.1,4.8,46c3.2,13.9,8,25.8,14.4,35.9c6.4,10,14.3,17.8,23.7,23.3c9.4,5.5,20.3,8.2,32.5,8.2
					c11,0,21.2-2.1,30.5-6.3c9.3-4.2,17.5-10.7,24.5-19.5c7-8.8,12.4-20.1,16.4-33.8c3.9-13.7,5.9-30.1,5.9-49.1
					c0-18-1.6-34.1-4.8-48.3c-3.2-14.2-8.1-26.3-14.7-36.1c-6.5-9.9-14.7-17.4-24.4-22.5C3576.1,2067.8,3564.9,2065.2,3552.1,2065.2
					z"/>
				<path d="M3891.5,2057.6v56h-3.9c-1.9-15-6.3-25.6-13.2-31.8c-6.9-6.2-17.1-9.3-30.5-9.3h-33.5v182c0,8,0.6,14.4,1.7,19
					c1.1,4.6,2.8,8.1,4.8,10.3c2.1,2.3,4.7,3.7,7.9,4.3c3.1,0.6,6.8,0.9,11,0.9h8.1v6.5H3743v-6.5h8.4c4.2,0,7.9-0.3,11-1
					c3.1-0.7,5.8-2.2,7.9-4.6c2.1-2.4,3.7-5.8,4.8-10.3c1.1-4.5,1.7-10.7,1.7-18.6v-182h-28.5c-7.2,0-13.5,0.6-19,1.7
					c-5.5,1.1-10.3,3.2-14.3,6.3c-4,3.1-7.2,7.2-9.6,12.6c-2.4,5.3-3.8,12.2-4.3,20.6h-6.5v-56H3891.5z"/>
				<path d="M4038.7,2216.1h-92.2l-16.2,37.5c-3.8,9.3-5.8,16.2-5.8,20.7c0,1.9,0.3,3.7,0.9,5.2c0.6,1.6,1.9,3,3.9,4.3
					c2,1.3,4.8,2.4,8.4,3.4c3.6,1,8.3,1.6,14.3,2v6.5h-74.9v-6.5c5.9-0.9,10.7-2.2,14.4-3.9c3.7-1.7,6.8-4.1,9.4-7.2
					c2.6-3.1,5-7,7.2-11.9c2.2-4.9,4.8-10.9,8-18.1l83.8-195.7h6l82.8,197.7c3.3,8.2,6.4,14.8,9.3,19.8c2.9,5,5.8,8.9,8.9,11.7
					c3.1,2.8,6.4,4.7,10,5.8c3.6,1,7.9,1.7,13,1.8v6.5h-94v-6.5c9.4-0.3,15.8-1.9,19.3-4.6c3.4-2.7,5.1-6,5.1-9.8
					c-0.2-5.1-2.5-13.3-7.1-24.6L4038.7,2216.1z M4033.8,2203l-40.3-96.1L3952,2203H4033.8z"/>
				<path d="M4339.9,2230l5.8,1l-20.4,64.7h-184.4v-6.5h9.2c9.8,0,16.9-3.2,21.5-9.7c2.4-3.8,3.7-12.5,3.7-25.9v-153.7
					c0-14.7-1.7-23.9-5-27.8c-4.5-5.2-11.3-7.9-20.2-7.9h-9.2v-6.5h107.9v6.5c-6.5,0-11.8,0.3-16.1,0.9c-4.3,0.6-7.8,1.5-10.6,2.6
					c-2.8,1.1-5,2.5-6.5,4.1c-1.6,1.6-2.9,3.3-3.9,5.2c-1.7,3.5-2.6,12.5-2.6,27v149.6c0,8.2,0.6,14.1,1.8,17.8
					c1.2,3.7,3.7,6.2,7.3,7.6c3.1,1,12.3,1.6,27.5,1.6h17.3c18.3,0,31.2-1.3,38.5-3.9c3.7-1.2,7.2-3,10.5-5.2
					c3.3-2.3,6.5-5.2,9.7-8.9c3.1-3.7,6.2-8.1,9.2-13.4C4333.7,2243.9,4336.8,2237.5,4339.9,2230z"/>
				<path d="M4559.4,2230l5.8,1l-20.4,64.7h-184.4v-6.5h9.2c9.8,0,16.9-3.2,21.5-9.7c2.4-3.8,3.7-12.5,3.7-25.9v-153.7
					c0-14.7-1.7-23.9-5-27.8c-4.5-5.2-11.3-7.9-20.2-7.9h-9.2v-6.5h107.9v6.5c-6.5,0-11.8,0.3-16.1,0.9c-4.3,0.6-7.8,1.5-10.6,2.6
					c-2.8,1.1-5,2.5-6.5,4.1c-1.6,1.6-2.9,3.3-3.9,5.2c-1.7,3.5-2.6,12.5-2.6,27v149.6c0,8.2,0.6,14.1,1.8,17.8
					c1.2,3.7,3.7,6.2,7.3,7.6c3.1,1,12.3,1.6,27.5,1.6h17.3c18.3,0,31.2-1.3,38.5-3.9c3.7-1.2,7.2-3,10.5-5.2
					c3.3-2.3,6.5-5.2,9.7-8.9c3.1-3.7,6.2-8.1,9.2-13.4C4553.2,2243.9,4556.3,2237.5,4559.4,2230z"/>
				<path d="M4708.2,2057.6h83v6.5h-4.7c-6.6,0-13.8,3-21.5,9c-7.7,6-16.2,16.5-25.4,31.3l-57.4,90.4v59.7c0,8,0.6,14.4,1.7,19
					c1.1,4.6,2.8,8.1,5,10.3c2.2,2.3,4.9,3.7,8.1,4.3c3.2,0.6,6.9,0.9,11.1,0.9h7.6v6.5h-101.1v-6.5h8.6c4.2,0,7.9-0.3,11-1
					c3.1-0.7,5.8-2.2,7.9-4.6c2.1-2.4,3.7-5.8,4.7-10.3c1-4.5,1.6-10.7,1.6-18.6V2198l-65.2-99.5c-4-5.9-7.3-10.7-9.8-14.3
					c-2.5-3.6-4.5-6.2-5.9-7.7c-0.7-0.7-1.9-1.7-3.5-3.1c-1.7-1.4-3.7-2.7-6.2-4.1c-2.4-1.3-5.2-2.5-8.1-3.5c-3-1-6.1-1.6-9.4-1.6
					v-6.5h101.6v6.5h-5.2c-2.6,0-5.2,0.3-7.9,0.9c-2.6,0.6-5,1.5-7.1,2.8c-2.1,1.2-3.8,2.8-5.1,4.8c-1.3,2-2,4.3-2,6.9
					c-0.2,2.1,0.7,5,2.6,8.8c1.9,3.8,4.6,8.4,8.1,14l49.5,76.7l46.9-73.3c6.6-10.6,10.1-18.9,10.5-24.6c-0.4-2.4-0.9-4.7-1.7-6.8
					c-0.8-2.1-2.1-3.9-3.9-5.4c-1.8-1.5-4.2-2.7-7.2-3.5c-3-0.9-6.7-1.3-11.3-1.3V2057.6z"/>
			</g>
		</g>
	</g>
</g>
</svg>
