<?xml version="1.0" encoding="utf-8"?>
<!-- Generator: Adobe Illustrator 26.5.0, SVG Export Plug-In . SVG Version: 6.00 Build 0)  -->
<svg version="1.1" id="CLOSET" xmlns="http://www.w3.org/2000/svg" xmlns:xlink="http://www.w3.org/1999/xlink" x="0px" y="0px"
	 viewBox="0 0 5922.9 2248.1" style="enable-background:new 0 0 5922.9 2248.1;" xml:space="preserve">
<style type="text/css">
	.st0{fill:#F7F7F7;stroke:#000000;stroke-width:13.6329;stroke-miterlimit:10;}
	.st1{fill:#EAEAEA;stroke:#000000;stroke-width:13.3509;stroke-miterlimit:10;}
	.st2{fill:#EAEAEA;stroke:#000000;stroke-width:13.9944;stroke-miterlimit:10;}
	.st3{fill:#F7F7F7;stroke:#000000;stroke-width:13.0626;stroke-miterlimit:10;}
	.st4{fill:#F7F7F7;stroke:#000000;stroke-width:12.7436;stroke-miterlimit:10;}
	.st5{fill:#F7F7F7;stroke:#000000;stroke-width:12.8609;stroke-miterlimit:10;}
	.st6{fill:#F7F7F7;stroke:#000000;stroke-width:12.7044;stroke-miterlimit:10;}
	.st7{fill:#EAEAEA;stroke:#000000;stroke-width:13.6629;stroke-miterlimit:10;}
	.st8{fill:#BAB9B9;stroke:#000000;stroke-width:9.2534;stroke-miterlimit:10;}
	.st9{fill:#C6C4C4;stroke:#000000;stroke-width:14.8072;stroke-miterlimit:10;}
	.st10{fill:none;stroke:#000000;stroke-width:3.4932;stroke-miterlimit:10;}
	.st11{stroke:#000000;stroke-width:3.4932;stroke-miterlimit:10;}
	.st12{fill:#C6C4C4;stroke:#000000;stroke-width:14.9313;stroke-miterlimit:10;}
	.st13{fill:#C6C4C4;stroke:#000000;stroke-width:15.4701;stroke-miterlimit:10;}
	.st14{fill:#F7F7F7;stroke:#000000;stroke-width:12.4251;stroke-miterlimit:10;}
	.st15{fill:#F7F7F7;stroke:#000000;stroke-width:12.691;stroke-miterlimit:10;}
	.st16{fill:none;stroke:#000000;stroke-width:22.2252;stroke-miterlimit:10;}
	.st17{fill:none;stroke:#000000;stroke-width:11.5142;stroke-miterlimit:10;}
	.st18{fill:none;stroke:#000000;stroke-width:1.5211;stroke-miterlimit:10;}
	.st19{fill:#FFFFFF;}
	.st20{fill:none;stroke:#000000;stroke-width:2.5211;stroke-miterlimit:10;}
	.st21{fill:none;stroke:#000000;stroke-width:1.5;stroke-miterlimit:10;}
	.st22{stroke:#000000;stroke-width:1.5;stroke-miterlimit:10;}
	.st23{fill:none;stroke:#1CA5A1;stroke-width:20;stroke-miterlimit:10;}
	.st24{fill:#DDDDDD;stroke:#000000;stroke-width:9.2534;stroke-miterlimit:10;}
</style>
<g id="LATERAL-DERECHA">
	<polygon class="st0" points="5726.4,2014.2 5193.7,1897.9 5195.7,282.2 5726.4,293.4 	"/>
	<rect x="5727" y="290.2" class="st1" width="103.6" height="1722"/>
</g>
<g id="BASE">
	<polyline class="st2" points="5182.4,1891 673.5,1897.2 5181.8,1891 5726.9,2011.7 590.8,2012 590.8,1902.9 672.4,1898.2 	"/>
	<rect x="595.1" y="2012.2" class="st2" width="5234.8" height="86.5"/>
	<polyline class="st2" points="584.4,2012 120.4,1897 120.4,1976 584.4,2097 585,2011.7 	"/>
</g>
<g id="DIVISIONES-VERTICALES">
	<g id="DIVISION-VERTICAL-DERECHA">
		<polygon class="st3" points="4457.1,2011.9 3991,1896.9 3992.1,169.4 4457.1,290.9 		"/>
		<rect x="4456" y="280.7" class="st4" width="90" height="1730.2"/>
	</g>
	<g id="DIVISION-CENTRAL">
		<polygon class="st3" points="3171.2,2011.9 2705.2,1896.9 2706.2,169.4 3171.2,290.9 		"/>
		<rect x="3170.1" y="248.7" class="st5" width="90" height="1762.2"/>
	</g>
	<g id="DIVISION-VERTICAL-IZQUIERDA_00000085229740836627909760000005526871516412138418_">
		<polygon class="st3" points="1849.1,2012.3 1383.1,1897.3 1384.1,169.8 1849.1,291.3 		"/>
		<rect x="1848" y="291.7" class="st6" width="90" height="1719.6"/>
	</g>
</g>
<g id="LATERAL-IZQUIERDA">
	<polygon class="st2" points="586.1,2012.7 120,1897.7 121.1,170.2 586.1,291.7 	"/>
	<rect x="585" y="291.2" class="st7" width="90" height="1720.5"/>
</g>
<g id="TECHO">
	<polygon class="st2" points="585,291.7 121.1,170.7 121.1,91.7 585,206.7 	"/>
	<rect x="591.9" y="206.7" class="st2" width="5239.2" height="85"/>
	<polyline class="st2" points="114.7,89.7 585.6,207.2 5831.7,206.4 5282.5,85.7 114.7,89.7 5283.1,85.7 	"/>
	<path class="st2" d="M3163.1,248.8"/>
</g>
<g id="DIVISION-HORIZONTAL">
	<g id="DIVISION-HORIZONTAL-INTERNA-IZQUIERDA">
		<polygon class="st2" points="1938.5,1162 2946.3,1162.5 2670,1071.7 1937.6,1071.5 		"/>
		<rect x="1938.1" y="1159.2" class="st2" width="1008.7" height="84.7"/>
	</g>
</g>
<g id="TABLITA-PUERTA">
	<g>
		<rect x="3085.3" y="290.7" class="st8" width="85.4" height="1709.5"/>
		<polygon class="st8" points="3086,1997.7 2947,1973.7 2946.7,291.2 3086,291.7 		"/>
	</g>
	<path d="M3008.3,1928.7c6.9,7.5,17.2,6.8,22.9-1.5s4.8-21.1-2.1-28.5c-6.9-7.5-17.2-6.8-22.9,1.5
		C3000.4,1908.5,3001.4,1921.2,3008.3,1928.7z M3013.3,1903.9c0.4-0.3,0.6,0.1,0.6,0.1s1.5,1.9,3,3.7c1.8,1.5,2.9,0.2,2.9,0.2
		s2.7-3.5,2.9-3.8c0.2-0.3,0.5,0.1,0.5,0.1l0.8,1c0,0,1.8,2.2,2.1,2.5c0.2,0.4,0.1,0.7,0.1,0.7s-1.7,2.1-2.8,3.8
		c-1.1,1.8,0.1,3.6,0.1,3.6l1.6,1.9c0,0,1.3,1.5,1.6,1.9c0.2,0.5,0,0.7,0,0.7s-2.3,3-2.5,3.3s-0.7,0-0.7,0s-1.8-2.3-3.1-3.8
		c-1.5-1.3-2.9,0-2.9,0s-2.5,3.3-2.8,3.7c-0.4,0.2-0.5-0.1-0.5-0.1s-2.3-2.8-2.7-3.3c-0.4-0.5-0.1-1-0.1-1l2.2-2.9
		c1.6-2.1,0.5-4.1,0.5-4.1l-3.1-3.8c0,0-0.3-0.4-0.2-0.8C3010.7,1907.3,3012.9,1904.3,3013.3,1903.9z"/>
	<path d="M3010.6,1226.2c6.9,7.5,17.2,6.8,22.9-1.5s4.8-21.1-2.1-28.5s-17.2-6.8-22.9,1.5C3002.7,1206,3003.7,1218.7,3010.6,1226.2z
		 M3015.6,1201.4c0.4-0.3,0.6,0.1,0.6,0.1s1.5,1.9,3,3.7c1.8,1.5,2.9,0.2,2.9,0.2s2.7-3.5,2.9-3.8c0.2-0.3,0.5,0.1,0.5,0.1l0.8,1
		c0,0,1.8,2.2,2.1,2.5c0.2,0.4,0.1,0.7,0.1,0.7s-1.7,2.1-2.8,3.8c-1.1,1.8,0.1,3.6,0.1,3.6l1.6,1.9c0,0,1.3,1.5,1.6,1.9
		c0.2,0.5,0,0.7,0,0.7s-2.3,3-2.5,3.3c-0.3,0.4-0.7,0-0.7,0s-1.8-2.3-3.1-3.8c-1.5-1.3-2.9,0-2.9,0s-2.5,3.3-2.8,3.7
		c-0.4,0.2-0.5-0.1-0.5-0.1s-2.3-2.8-2.7-3.3c-0.4-0.5-0.1-1-0.1-1l2.2-2.9c1.6-2.1,0.5-4.1,0.5-4.1l-3.1-3.8c0,0-0.3-0.4-0.2-0.8
		C3013,1204.8,3015.2,1201.8,3015.6,1201.4z"/>
	<path d="M3008.6,403.6c6.9,7.5,17.2,6.8,22.9-1.5c5.7-8.3,4.8-21.1-2.1-28.5c-6.9-7.5-17.2-6.8-22.9,1.5
		C3000.7,383.4,3001.7,396.1,3008.6,403.6z M3013.6,378.8c0.4-0.3,0.6,0.1,0.6,0.1s1.5,1.9,3,3.7c1.8,1.5,2.9,0.2,2.9,0.2
		s2.7-3.5,2.9-3.8c0.2-0.3,0.5,0.1,0.5,0.1l0.8,1c0,0,1.8,2.2,2.1,2.5c0.2,0.4,0.1,0.7,0.1,0.7s-1.7,2.1-2.8,3.8
		c-1.1,1.8,0.1,3.6,0.1,3.6l1.6,1.9c0,0,1.3,1.5,1.6,1.9c0.2,0.5,0,0.7,0,0.7s-2.3,3-2.5,3.3c-0.3,0.4-0.7,0-0.7,0s-1.8-2.3-3.1-3.8
		c-1.5-1.3-2.9,0-2.9,0s-2.5,3.3-2.8,3.7c-0.4,0.2-0.5-0.1-0.5-0.1s-2.3-2.8-2.7-3.3c-0.4-0.5-0.1-1-0.1-1l2.2-2.9
		c1.6-2.1,0.5-4.1,0.5-4.1l-3.1-3.8c0,0-0.3-0.4-0.2-0.8C3011,382.2,3013.2,379.2,3013.6,378.8z"/>
</g>
<g id="PUERTAS">
	<g id="PUERTA-IZQUIERDA-EXTREMA">
		<rect x="682.7" y="281.5" class="st9" width="1210" height="1773.7"/>
		<polygon class="st9" points="682.7,2055.2 640.7,2038 643.7,251.2 682.7,274.4 		"/>
		<polygon class="st9" points="1892.7,281.5 684.7,275.4 643.7,249.2 1818.7,249.2 		"/>
	</g>
	<g id="PUERTA-DERECHA-EXTREMA">
		<rect x="4511.3" y="282.2" class="st9" width="1280.4" height="1773.7"/>
		<polygon class="st9" points="5791.7,282.2 4513.4,276.1 4455.7,250.2 5713.4,249.9 		"/>
	</g>
	<g id="PUERTA-DERECHA-INTERNA">
		<g>
			<rect x="3218.7" y="280.8" class="st9" width="1280.4" height="1773.7"/>
			<polygon class="st9" points="4499.1,280.8 3220.8,274.7 3163.1,248.8 4420.8,248.5 			"/>
		</g>
		<polygon class="st9" points="3158.8,248.5 3158.8,296.1 3164.7,290.2 3225.2,281.7 3215.2,274.7 		"/>
	</g>
	<g id="PUERTA-IZQUIERDA-INTERNA">
		<polygon class="st9" points="3508.2,2186.7 3140.7,2056.2 3140.7,290.2 3508.2,396.7 		"/>
		
			<ellipse transform="matrix(0.9986 -5.269308e-02 5.269308e-02 0.9986 -59.3237 183.8135)" class="st10" cx="3456.3" cy="1217" rx="15.9" ry="25.2"/>
		<path class="st11" d="M3459.6,1229.9l-0.5-6.6c0,0,0.1-3.1,2.5-3.3l3.2-0.4c0,0,0.5-0.1,0.4-1s-0.4-5.8-0.4-5.8s0-0.4-0.4-0.6
			c-0.4,0.1-4,0.6-4,0.6s-1.8-0.2-2.3-2.9c-0.2-2.6-0.5-6.6-0.5-6.6s-0.2-0.8-0.6-0.7s-3.7,0.5-3.7,0.5s-0.3,0-0.4,0.6
			c0,0.6,0.3,3.3,0.3,3.3l0.3,3.4c0,0,0,2.9-1.8,3.4c-1.7,0.4-4.1,0.6-4.1,0.6s-0.3,0.1-0.3,0.7c0,0.6,0.3,4.4,0.3,4.4l0.1,1.7
			c0,0,0.1,0.6,0.4,0.6c0.3,0,4.2-0.5,4.2-0.5s1.5-0.2,2.2,3.1c0.3,3.1,0.5,6.4,0.5,6.4s0,0.6,0.4,0.7c0.5,0,3.7-0.5,3.8-0.5
			C3459.7,1230.6,3459.6,1229.9,3459.6,1229.9z"/>
		
			<ellipse transform="matrix(0.9986 -5.269308e-02 5.269308e-02 0.9986 -79.3477 184.5456)" class="st10" cx="3460.2" cy="1597.1" rx="15.9" ry="25.2"/>
		<path class="st11" d="M3463.5,1610l-0.5-6.6c0,0,0.1-3.1,2.5-3.3l3.2-0.4c0,0,0.5-0.1,0.4-1s-0.4-5.8-0.4-5.8s0-0.4-0.4-0.6
			c-0.4,0.1-4,0.6-4,0.6s-1.8-0.2-2.3-2.9c-0.2-2.6-0.5-6.6-0.5-6.6s-0.2-0.8-0.6-0.7s-3.7,0.5-3.7,0.5s-0.3,0-0.4,0.6
			c0,0.6,0.3,3.3,0.3,3.3l0.3,3.4c0,0,0,2.9-1.8,3.4c-1.7,0.4-4.1,0.6-4.1,0.6s-0.3,0.1-0.3,0.7c0,0.6,0.3,4.4,0.3,4.4l0.1,1.7
			c0,0,0.1,0.6,0.4,0.6c0.3,0,4.2-0.5,4.2-0.5s1.5-0.2,2.2,3.1c0.3,3.1,0.5,6.4,0.5,6.4s0,0.6,0.4,0.7c0.5,0,3.7-0.5,3.8-0.5
			C3463.5,1610.7,3463.5,1610,3463.5,1610z"/>
		<polygon class="st12" points="3509.2,403.7 3141.2,290.7 3225.2,281.7 3586.2,388.7 		"/>
		<polygon class="st13" points="3578.6,2174.7 3508.7,2186.7 3508.7,402.7 3586.2,388.7 		"/>
	</g>
</g>
<g id="MANIJAS">
	<polygon id="MANIJA-IZQUIERDA-INTERNA" class="st14" points="3589.6,1175.8 3613.2,1175.8 3613.4,989.2 3663.7,989.2 
		3663.7,1803.7 3604.7,1803.7 3606.8,1626.2 3580.9,1626.5 3581.4,1559 3610.1,1559.2 3610.1,1246.2 3583.6,1247.5 3580.9,1175.6 	
		"/>
	<rect id="MANIJA-IZQUIERDA-EXTREMA" x="1721.7" y="807.2" class="st15" width="80" height="710"/>
	<rect id="MANIJA-DERECHA-INTERNA" x="4354.2" y="798.7" class="st15" width="80" height="710"/>
	<rect id="MANIJA-DERECHA-EXTREMA" x="4578.2" y="798.7" class="st15" width="80" height="710"/>
</g>
<g id="BISAGRAS">
	<g>
		<path class="st16" d="M6159.4,1312.9"/>
		<path class="st16" d="M6160,1780.7"/>
		<path class="st17" d="M6158.4,1312.9"/>
		<path class="st17" d="M6158.8,1590.9"/>
		<g>
			<path class="st18" d="M3113.6,1848.5"/>
			<path class="st18" d="M3113,1848.1"/>
			<path class="st18" d="M3113,1811"/>
			<g>
				<g>
					<path class="st19" d="M3249.2,1799.9l-0.5-29.6c0,0-0.8-7.7-7.6-9.3c-6.8-1.7-32.2-3.6-32.2-3.6s-8.2,0.4-8.5,9.8
						c0.3,10.8,0.4,19.6,0.4,19.6s-24-3.2-35.7,16.5c-0.2,2.9-0.3,9.1-0.3,9.1s-6.6-0.7-11.5-1.2h-37c-2.7-0.3-4.8-0.5-5.1-0.5
						c-0.5,0-0.7-0.1-0.7-0.1l0-0.1c0,0,0.4-0.5-0.5-2.3c-0.7-1.6-9.6-2.3-11.8-2.4l0.5-2.7c0.1,0,0.2-0.1,0.3-0.1
						c0.1-0.7,0.1-1.2,0.1-1.6c-0.2-1.1-1.2-1.1-2.1-1.1c-1.2,0.1-2-0.5-2-0.5s-0.2-1-2.3-1.3c-5.1,0.6-11.7-0.5-11.7-0.5
						s-3.6-0.8-7.9,0.1c-5.4,0.1-9.1-0.4-9.1-0.4s-1.2-0.2-3.2-0.4c3,0.4,3.9-1.3,4.1-2l0,0c0,0,6.1,0,7.1-3.1
						c0.1-3.1-0.1-24.7,0-31.8c-1-6.8-6.7-10.1-6.7-10.1l-9.8-1.2c0,0-17-1.3-19.1-1.5c-2.1-0.1-1.3-0.9-1.3-0.9l-5.9-0.7
						c-1.5-1.3-5.7,0.9-6.9,1.7c-3.3,2-6,4.8-9.3,6.8c-2,1.2-4.2,2.2-6.1,3.5c-1.7,1.2-3.3,2.7-4.9,3.9c-2.1,1.6-4.5,2.5-6.7,3.9
						c-2.1,1.3-3.9,2.7-5.7,4.4c-2.7,2.6-3.1,5.3-3.7,8.9c-0.2,1.5-0.2,3.5-0.6,5c-0.6,2.2-4,0.9-5.6,0.8c-1.9-0.1-3.8-0.3-5.6-0.5
						c0,0-14.4,5.2-16.2,5.8c-0.9,0.3-1.3,0.6-1.5,0.8c-0.1,0.2-0.1,0.3-0.1,0.3l0.6,33.7c0,0-0.2,3.4,4.6,3.2
						c1.6-0.1,12.3,1.6,25.9,3.9c1.7,4.6,13.8,14.5,13.8,14.5l17.5,15.9c0,0,1.2,5.6,7.4,6.5c7.8,2.9,21,4.2,28,4.7c0,0,0.1,0,0.2,0
						c2.7,0.2,4.5,0.3,4.5,0.3s6.8,0.8,11.2-3.1s2.7-10.3,2.7-10.3s-1-7.6-2.4-10.1c-1.4-2.5,0.2-5,0.2-5c9,1,18.4,2,19.5,2
						c0,0,2.6,1.4,6.3,2.3c0,0,0.2,2,2.1,2c1.9,0,5,0,5,0s1.7,0.3,2.4-1.7c1.8-0.4,3.5-1.1,5.1-2.3l5.4-0.2h37l11.3-0.4l0,0.1
						c0,0,0,1.5,0.8,2.4c0,1.2-0.4,7.4-0.4,7.4s13.5,23.5,35.3,25.5l1.2,1.4c0.1,9.7,0,21.8,0,21.8s1.1,7.7,7.4,8.1
						c4.7,1.4,28.9,4.8,28.9,4.8s6.8,1.5,10.3-5C3250.5,1910.2,3249.2,1799.9,3249.2,1799.9z"/>
					<path class="st19" d="M2991.9,1767.7c-9.3,5.8-7.1,17.4-7.1,17.4l32.1-33.4C3017,1751.6,3001.2,1761.9,2991.9,1767.7z"/>
					<path class="st19" d="M3013,1760.7l-7.9,5c0,0-3.3,0.8-2.9,7.8c-0.9,9.3,5.1,10.8,5.1,10.8l1.4-3.3c2.1,0.3,9,0.6,9,0.6
						l-0.9-18.8c0,0-0.2,0.1-0.5,0.3l0.3-0.6C3015.6,1759.4,3013,1760.7,3013,1760.7z"/>
				</g>
				<path class="st20" d="M3188.1,1814.2l-23-1.6c0,0-6.6-0.7-11.5-1.2h-37c-2.7-0.3-4.8-0.5-5.1-0.5c-0.9,0-0.7-0.2-0.7-0.2
					s0.4-0.5-0.5-2.3c-0.8-1.8-12.3-2.5-12.3-2.5s-1.3-1.7,1.3-2.9c0.5-2.7-0.8-2.7-2-2.6s-2-0.5-2-0.5s-0.2-1-2.3-1.3
					c-5.1,0.6-11.7-0.5-11.7-0.5s-3.6-0.8-7.9,0.1c-5.4,0.1-9.1-0.4-9.1-0.4s-42.5-5.5-44-6.3s-3.5-1.1-9.2-1.3
					c-5.7-0.2-8.1-2.1-8.1-2.1l-17.9-2.7l-10.7-0.7c0,0-14.4,5.2-16.2,5.8c-1.9,0.7-1.5,1.1-1.5,1.1l0.6,33.7c0,0-0.2,3.4,4.6,3.2
					s92.2,15.6,92.2,15.6s34.3,3.8,36.4,3.8c0,0,12.5,6.6,20.9,0.4l5.4-0.2h37l13.4-0.5c0,0,9-1.7,20.9-1.4c0.2,0.7,0.4,1.1,0.4,1.1
					s5.8,0.3,10.3-0.5c1.8-1.1,2.2-2.3,2.2-2.3s-0.2-2-0.6-1.8c-0.4,0.1-1.4,0.8-2.9,1.2c-1.5,0.5-8.8,0.2-8.8,0.2l0.3-27.4l9.3-0.1
					c0,0,3.2-0.7,2.3-3.3c-2.2,0.7-7.4,0.7-8.2,0.6c-0.8-0.1-0.4-0.7-3.6-0.1c-1.1,1.6-0.1,2.5-0.1,2.5l-48.2,0.9
					c0,0-1.5-0.5-1.2,5.7c0,6.6,0.1,20.6,0.1,20.6s1.4,3.2,4.9,2.9c3.5-0.3,12.6-0.2,12.6-0.2l31.4-1c0,0-0.2,0.8,0,1.8"/>
				<path class="st20" d="M3164.8,1847.7c0,0,0,1.5,0.8,2.4c0,1.2-0.4,7.4-0.4,7.4s13.9,24.4,36.5,25.6c0.1,9.9,0,23.1,0,23.1
					s1.1,7.7,7.4,8.1c4.7,1.4,28.9,4.8,28.9,4.8s6.8,1.5,10.3-5c2.5-3.5,1.2-113.8,1.2-113.8l-0.5-29.6c0,0-0.8-7.7-7.6-9.3
					c-6.8-1.7-32.2-3.6-32.2-3.6s-8.2,0.4-8.5,9.8c0.3,10.8,0.4,19.6,0.4,19.6s-24-3.2-35.7,16.5c-0.2,2.9-0.3,9.1-0.3,9.1"/>
				<path class="st21" d="M3175.9,1813.4c0,0,5.5-9.3,10.2-9.2c4.8,0.1,15.1,1,15.1,1s1.8,2.8,1.5,4s2.5-0.4,2.5-0.4
					s-3.4-1.4-2.7-5.5c0.2-9.6-1.4-16.3-1.4-16.3"/>
				<path class="st21" d="M3184.9,1814c0,0,4.4-9.4,16.5-3.9c1.5,0.5,3.9-1.3,3.9-1.3l18.7,2.8c0,0,8.1,0.2,9.9,5.3
					c4.2,8.7,5.3,18.2,5.3,18.2s0.4,20.5-1.8,21.1c-3.4,11.2-6.5,11.6-6.5,11.6l-25.4-2.9l-0.3-1.4l-2.2-2.5c0,0-11.4,1.8-16.2-8.8
					c-0.4-2.7-12.4-2-12.4-2s-6.7,1.1-8.6-2.7"/>
				<path class="st21" d="M3171.7,1850.3c0,0,0.9,2,5.2,2.1c3.7,6.5,8.8,10.1,8.8,10.1s1,1,7.1,1.2c5.3,1.5,10.2,2,11,3.3
					c-2.2,1.5-0.3,7.2-2,17.3"/>
				<path class="st21" d="M3205.3,1864.1c0,0,0.1,1.3-0.6,2.4c-0.7,1.1,19.8,2,24.3,3.4c2.6-1.2,3.1-2.4,4.3-4.4"/>
				<path class="st21" d="M3200.5,1844.7c0,0,14,2.8,18.5,2.4c5.8,2.6,7.3,6.6,7.3,6.6"/>
				<path class="st21" d="M3218.9,1847.1c0,0,5.9,5.8,6.2,7.7c2.9,2.8,12,2,12,2"/>
				
					<ellipse transform="matrix(0.9907 -0.1363 0.1363 0.9907 -212.1431 454.4892)" class="st21" cx="3213.1" cy="1776.5" rx="7.8" ry="9.4"/>
				<path class="st22" d="M3214.7,1781.4l-0.2-2.5c0,0,0.1-1.2,1.2-1.2l1.6-0.2c0,0,0.2,0,0.2-0.4c0-0.3-0.2-2.2-0.2-2.2
					s0-0.1-0.2-0.2c-0.2,0-2,0.2-2,0.2s-0.9-0.1-1.1-1.1c-0.1-1-0.2-2.5-0.2-2.5s-0.1-0.3-0.3-0.3s-1.8,0.2-1.8,0.2s-0.1,0-0.2,0.2
					c0,0.2,0.1,1.2,0.1,1.2l0.1,1.3c0,0,0,1.1-0.9,1.3c-0.9,0.1-2,0.2-2,0.2s-0.1,0.1-0.1,0.3c0,0.2,0.2,1.6,0.2,1.6l0.1,0.6
					c0,0,0,0.2,0.2,0.2c0.2,0,2.1-0.2,2.1-0.2s0.8-0.1,1.1,1.1c0.1,1.2,0.2,2.4,0.2,2.4s0,0.2,0.2,0.2c0.2,0,1.8-0.2,1.9-0.2
					C3214.7,1781.6,3214.7,1781.4,3214.7,1781.4z"/>
				
					<ellipse transform="matrix(0.89 -0.4559 0.4559 0.89 -512.7656 1673.9788)" class="st21" cx="3213.3" cy="1899.8" rx="7.9" ry="8.8"/>
				<path class="st22" d="M3216.2,1903.6l-0.9-2.1c0,0-0.3-1.1,0.8-1.5l1.5-0.6c0,0,0.2-0.1,0.1-0.4c-0.1-0.3-0.8-1.9-0.8-1.9
					s-0.1-0.1-0.2-0.1c-0.2,0.1-1.8,0.8-1.8,0.8s-0.9,0.2-1.4-0.6c-0.4-0.8-0.9-2.1-0.9-2.1s-0.2-0.2-0.3-0.1
					c-0.2,0.1-1.7,0.7-1.7,0.7s-0.1,0-0.1,0.3c0.1,0.2,0.5,1.1,0.5,1.1l0.5,1.1c0,0,0.3,1-0.5,1.4c-0.8,0.4-1.9,0.8-1.9,0.8
					s-0.1,0.1-0.1,0.3c0.1,0.2,0.6,1.4,0.6,1.4l0.2,0.5c0,0,0.1,0.2,0.2,0.1c0.1,0,1.9-0.8,1.9-0.8s0.7-0.3,1.3,0.7
					c0.4,1,0.9,2.1,0.9,2.1s0.1,0.2,0.3,0.2c0.2-0.1,1.7-0.7,1.8-0.7C3216.3,1903.9,3216.2,1903.6,3216.2,1903.6z"/>
				<line class="st21" x1="3191.9" y1="1816.4" x2="3191.9" y2="1844"/>
				<line class="st21" x1="3196.1" y1="1816.4" x2="3196.1" y2="1843.9"/>
				<path class="st21" d="M3110.7,1810.7c0,0-2.2,2.2-4.2,2.5c-2,0.2-10.2,0.6-14.1-1.5c-1.3-0.9-2.3,0.6-2.3,0.6v33.1
					c0,0-0.3,1.9,2.3,1.3c2.3-0.1,4.9,2.7,14.4,1.7"/>
				<path class="st21" d="M3096.6,1850.1c0,0,0.2,2,2.1,2c1.9,0,5,0,5,0s1.7,0.3,2.4-1.7"/>
				<path class="st21" d="M3092.5,1809.7c0,0,5,1.5,10.5,1.7c5.5,0.2,7.2-3,7.2-3"/>
				<path class="st21" d="M3094.2,1812.4v2.9c0,0,0.2,1.5,3.9,1.5s4.6,0,4.6,0"/>
				<path class="st20" d="M3070.8,1845.8c0,0-1.6,2.6-0.2,5s2.4,10.1,2.4,10.1s1.8,6.3-2.7,10.3c-4.4,3.9-11.2,3.1-11.2,3.1
					s-21.7-0.9-32.7-5c-6.2-1-7.4-6.5-7.4-6.5l-17.5-15.9c0,0-12.2-10-13.8-14.5"/>
				<polygon class="st21" points="2962.7,1822.1 2962.7,1798.3 2962.1,1797.5 2960.5,1797.5 2959.9,1798.2 2959.9,1822.1 
					2960.4,1822.6 2962.2,1822.6 				"/>
				<polygon class="st21" points="2967.2,1822.6 2967.2,1798.8 2966.6,1798 2965,1798 2964.4,1798.7 2964.4,1822.6 2964.8,1823.1 
					2966.7,1823.1 				"/>
				<path class="st21" d="M2956.6,1791.2l17.9,3.6c0,0,10.9-2.8,16.7,2.5c11.1,2,61.4,10.8,61.4,10.8s29.5-2.7,37.5,4.2"/>
				<path class="st21" d="M3007.4,1835.7v5.6l11.2,8.9c0,0,2.6,0.5,2.2-3.2c-0.1-2,0.2-8.8,0.2-8.8"/>
				<path class="st21" d="M3018.9,1862.8c0,0-0.6-9.2-0.3-12.6"/>
				<path class="st21" d="M3004.4,1835.7c0,0-0.4,4.8,0.4,5.7c1,2.9,7.2,10.6,13.8,11.5"/>
				<path class="st21" d="M3023.4,1765.9c1.2-6.7,11.1-11.2,16.4-0.4c5.5,21.1-2.5,24.3-2.5,24.3s-10.9,4.6-13.1-6.9
					C3022.9,1775,3023.4,1772.8,3023.4,1765.9z"/>
				<path class="st21" d="M3035.5,1760.4c0,0-8.9-2.4-10.3,4.7c-1.4,7.1,0.5,18.2,1.1,19.5c0.7,1.3,2.4,6.8,10.9,5.2"/>
				<path class="st21" d="M3025.6,1781.3c0,0,1.4-1.6,3,1.9c1.6,3.4,10.6,4.1,12.6,0.4"/>
				<path class="st21" d="M3025,1766.1h2.3c0,0,5.1-6.5,12.5,0"/>
				<path class="st21" d="M3041.3,1773.4c0.7,4.4-0.7,8-4.3,8.5c-3.6,0.6-7.1-2.5-7.7-6.9c-0.7-4.4,1.4-8.5,5.1-8.6
					C3037.2,1766.4,3040.7,1769,3041.3,1773.4z"/>
				<path class="st22" d="M3037.2,1778l-0.4-2.1c0,0,0-1,0.9-1.1l1.3-0.2c0,0,0.2-0.1,0.1-0.3s-0.3-1.8-0.3-1.8s0-0.1-0.2-0.2
					c-0.1,0-1.6,0.3-1.6,0.3s-0.7,0-1-0.8c-0.2-0.8-0.4-2.1-0.4-2.1s-0.1-0.2-0.2-0.2c-0.2,0-1.4,0.3-1.4,0.3s-0.1,0-0.1,0.2
					c0,0.2,0.2,1,0.2,1l0.2,1.1c0,0,0.1,0.9-0.6,1.1c-0.7,0.2-1.6,0.3-1.6,0.3s-0.1,0.1-0.1,0.2c0,0.2,0.2,1.4,0.2,1.4l0.1,0.5
					c0,0,0,0.2,0.2,0.2c0.1,0,1.6-0.3,1.6-0.3s0.6-0.1,0.9,0.9c0.2,1,0.4,2,0.4,2s0,0.2,0.2,0.2c0.2,0,1.5-0.3,1.5-0.3
					C3037.2,1778.2,3037.2,1778,3037.2,1778z"/>
				<path class="st20" d="M2985,1785.3c0,0-2.2-11.6,7.1-17.4c9.3-5.8,25-16.1,25-16.1"/>
				<path class="st21" d="M3008,1789.9c0,0-0.2-3.8,1.2-3.7c1.4,0.1,5,0.4,5.5,1c0.5,0.7,0,3.2,0,3.2"/>
				<path class="st21" d="M3007.6,1784.6c0,0-6-1.5-5.1-10.8c-0.4-7,2.9-7.8,2.9-7.8l7.9-5c0,0,2.6-1.3,3.6,1.8"/>
				<path class="st21" d="M3015,1788.9c0,0,2.3,0.5,2.9-2.9c0-3.3,0.2-7.4,0.2-7.4s1.6-0.7,1.8-2c0.2-1.3,0-6.7,0-6.7
					s-1-2.9-2.1-2.5c-0.6-0.4-0.6-4.7-0.6-4.7s-0.9-5.6,0.3-8.2c1.2-2.6,2.2-4.6,5.4-5c3.2-0.4,12.4,0.8,12.4,0.8l14.8,2.4
					c0,0,13.4-0.5,14.2,11.2s0.5,31.3,0.8,31.3s-0.3,2.8-4.1,2.3"/>
				<path class="st20" d="M3017.2,1754.9c0,0-1.6-4.7,4.7-7.1c6.3-2.4,7.4-1.5,7.4-1.5l5.9,0.7c0,0-0.8,0.8,1.3,0.9
					c2.1,0.1,19.1,1.5,19.1,1.5l9.8,1.2c0,0,5.8,3.3,6.7,10.1c-0.1,7,0.1,28.7,0,31.8c-1,3.1-7.1,3.1-7.1,3.1"/>
				<path class="st21" d="M3007.3,1786.1c0,0,0-1.7,2.3-1.8c2.3-0.1,4.9,0.3,5.6,1.8c0.7,1.6,0.3,2.2,0.3,2.2"/>
				<path class="st21" d="M3017.9,1782c0,0-8.8-0.4-9.5-0.7c-0.7-0.4-2.1-0.5-1.9-3.1c0.2-2.6-0.2-7.4-0.2-7.4s0.2-1.4,2-2.1
					c1.9-0.7,8.7-5.5,8.7-5.5"/>
				<path class="st21" d="M3025.2,1838.9l0.4,13.6c0,0,4.1,10.3,12.5,8.4c6.3-3.3,3.6-19.1,3.6-19.1"/>
				<path class="st21" d="M3024,1838.6l0.5,14.7c0,0,4.4,11.9,12.3,7.8"/>
				<path class="st21" d="M3027.8,1839.3c0,0-3.8,23.5,13.8,16.3"/>
				<path class="st21" d="M3026.3,1853.9c0,0-0.3-2.6,2.6-1.5"/>
				<path class="st21" d="M3042.1,1845.3c-0.2-1.5-0.8-2.8-1.5-3.9c-0.6-0.1-1.2-0.1-1.8-0.3c-0.8-0.1-1.5-0.3-2.3-0.4
					c-1.5-0.2-3.1-0.5-4.6-0.8c0,0,0,0,0,0c0,0-0.1,0-0.1,0c0,0,0,0,0,0c-1.4,1.6-2.1,4.2-1.7,7c0.7,4.4,4.1,7.4,7.7,6.9
					C3041.4,1853.3,3042.8,1849.7,3042.1,1845.3z"/>
				<path class="st22" d="M3036.2,1850.3l0.5-2c0,0,0.4-0.9,1.3-0.7l1.2,0.3c0,0,0.2,0,0.3-0.3c0.1-0.3,0.4-1.8,0.4-1.8
					s0-0.1-0.1-0.2c-0.1,0-1.5-0.4-1.5-0.4s-0.7-0.3-0.5-1.2c0.2-0.8,0.5-2,0.5-2s0-0.2-0.1-0.3s-1.4-0.4-1.4-0.4s-0.1,0-0.2,0.1
					c-0.1,0.2-0.2,1-0.2,1l-0.3,1c0,0-0.3,0.8-1,0.8c-0.7-0.1-1.6-0.4-1.6-0.4s-0.1,0-0.2,0.2c0,0.2-0.3,1.4-0.3,1.4l-0.1,0.5
					c0,0,0,0.2,0.1,0.2c0.1,0,1.6,0.4,1.6,0.4s0.6,0.2,0.5,1.2c-0.2,1-0.5,2-0.5,2s-0.1,0.2,0.1,0.3c0.2,0.1,1.4,0.4,1.5,0.4
					C3036.2,1850.5,3036.2,1850.3,3036.2,1850.3z"/>
				<path class="st21" d="M3054.4,1874c0,0,12.2,1.1,12.6-7.5c0.4-8.6,0-21.1,0-21.1"/>
				<path class="st21" d="M2973.3,1805.8v-3.2c0,0,3.2-6.3,8.4-5.1c2.9,0.1,6.3,1,6.3,1s4.6,1.9,4.6,6.5c-0.7,2.3-0.6,4.1-0.6,4.1
					l0.3,14.6c0,0,1.4,4-2.6,4.5c-3.9,0.1-10.6-0.6-10.6-0.6l-4.4-1c0,0-2-0.1-1.9-3.8c0-0.5,0-1.3,0-1.3"/>
				<path class="st21" d="M2977.3,1803c0,0,4.8-3.1,8.8-0.9c4,2.3,5.9,5.4,5.9,5.4l0.1,8.9l0.1,6.6c0,0-2,2.5-5.7,2.9"/>
				<ellipse class="st21" cx="2980.9" cy="1814.9" rx="9" ry="11.2"/>
				<ellipse class="st21" cx="2981.4" cy="1814.8" rx="10.5" ry="12.7"/>
				<path class="st21" d="M2998.8,1811.8v-4.6c0,0,0.4-1.2,1.9-0.8c1.5,0.4,5.5,0.8,5.5,0.8s0.3,2.2,1.3,2.4s4.3,0.4,5.3,1.4
					c4.8,1.4,7.6,16.7-2.6,16.7c-1.4,0-2.7,0-2.7,0l-0.6,1.6l-6-1.2c0,0-2.2-0.2-1.5-4.3c0.7-4.1-0.5-3.8-0.5-3.8s-2-2.5-0.5-6
					C2999,1812.5,2998.8,1811.8,2998.8,1811.8z"/>
				<path class="st21" d="M3011.4,1810.1c-1.4-0.4-3.5-0.5-4-0.7c-0.9-0.3-0.7-1.3-1.5-2.3c-1.4-0.6-4.3,3.4-4.3,7.1
					c0,4.2,2.6,7.6,5.8,7.6s5.8-3.4,5.8-7.6C3013,1812.6,3011.8,1810.3,3011.4,1810.1z"/>
				
					<ellipse transform="matrix(0.9788 -0.205 0.205 0.9788 -309.2536 659.2946)" class="st21" cx="3027.2" cy="1822.1" rx="10" ry="13.4"/>
				
					<ellipse transform="matrix(0.9727 -0.2323 0.2323 0.9727 -340.8131 752.2948)" class="st21" cx="3024.4" cy="1823.5" rx="6.9" ry="8.6"/>
				<path class="st22" d="M3027.3,1826.9l-1-2c0,0-0.3-1,0.5-1.6l1.2-0.8c0,0,0.2-0.1,0-0.4s-0.9-1.8-0.9-1.8s-0.1-0.1-0.2-0.1
					c-0.1,0.1-1.5,1-1.5,1s-0.7,0.3-1.2-0.5c-0.4-0.8-1-2-1-2s-0.2-0.2-0.3-0.1c-0.1,0.1-1.3,0.9-1.3,0.9s-0.1,0.1-0.1,0.3
					c0.1,0.2,0.5,1,0.5,1l0.5,1c0,0,0.3,0.9-0.3,1.5c-0.6,0.5-1.5,1-1.5,1s-0.1,0.1,0,0.3c0.1,0.2,0.7,1.3,0.7,1.3l0.3,0.5
					c0,0,0.1,0.2,0.2,0.1c0.1-0.1,1.5-1,1.5-1s0.6-0.4,1.2,0.5c0.5,0.9,1,1.9,1,1.9s0.1,0.2,0.3,0.1c0.2-0.1,1.4-0.9,1.4-1
					C3027.4,1827.1,3027.3,1826.9,3027.3,1826.9z"/>
				<path class="st21" d="M3022.6,1815.1c0,0,2.9-1.7,5.6-0.9c10.1,6.4,4.8,15.7,0.5,16.5c0.4-0.3,1.1-1.2,1.1-1.2"/>
				<path class="st22" d="M2986.5,1814.4l-1.6-1.5c0,0-0.7-0.8-0.1-1.7l0.8-1.2c0,0,0.1-0.2-0.1-0.4c-0.2-0.2-1.4-1.3-1.4-1.3
					s-0.1-0.1-0.2,0c-0.1,0.1-1,1.5-1,1.5s-0.5,0.6-1.3,0c-0.7-0.6-1.6-1.5-1.6-1.5s-0.2-0.1-0.3,0c-0.1,0.2-0.9,1.4-0.9,1.4
					s-0.1,0.1,0,0.3c0.2,0.1,0.8,0.8,0.8,0.8l0.8,0.8c0,0,0.6,0.7,0.3,1.5c-0.4,0.7-1,1.5-1,1.5s0,0.1,0.1,0.3c0.1,0.1,1.1,1,1.1,1
					l0.4,0.4c0,0,0.2,0.1,0.2,0s1.1-1.5,1.1-1.5s0.4-0.6,1.3,0c0.8,0.7,1.6,1.4,1.6,1.4s0.1,0.1,0.3,0c0.1-0.2,0.9-1.4,1-1.4
					C2986.6,1814.5,2986.5,1814.4,2986.5,1814.4z"/>
				
					<ellipse transform="matrix(0.986 -0.1667 0.1667 0.986 -253.698 533.6315)" class="st21" cx="3052.4" cy="1778.3" rx="8.3" ry="9.8"/>
				<path class="st22" d="M3054.3,1783.3l-0.3-2.5c0,0,0-1.2,1.2-1.3l1.7-0.2c0,0,0.2-0.1,0.2-0.4c0-0.4-0.3-2.3-0.3-2.3
					s0-0.1-0.2-0.2c-0.2,0-2.1,0.3-2.1,0.3s-0.9,0-1.2-1.1c-0.2-1-0.3-2.5-0.3-2.5s-0.1-0.3-0.3-0.3s-1.9,0.3-1.9,0.3
					s-0.1,0-0.2,0.2c0,0.3,0.2,1.3,0.2,1.3l0.2,1.3c0,0,0,1.1-0.9,1.4c-0.9,0.2-2.1,0.3-2.1,0.3s-0.1,0.1-0.1,0.3
					c0,0.2,0.2,1.7,0.2,1.7l0.1,0.7c0,0,0,0.2,0.2,0.2c0.2,0,2.2-0.3,2.2-0.3s0.8-0.1,1.2,1.1c0.2,1.2,0.3,2.5,0.3,2.5
					s0,0.2,0.2,0.3c0.3,0,1.9-0.3,2-0.3C3054.4,1783.5,3054.3,1783.3,3054.3,1783.3z"/>
				<path class="st21" d="M3051.6,1768.6c0,0,2.4-0.7,5.1-0.7c11.5,4.3,9,18.2-0.6,20.5c-1.2,0.3-3.1-0.3-3.1-0.3"/>
				<ellipse class="st21" cx="3062.2" cy="1802.2" rx="3.8" ry="1.1"/>
				<path class="st21" d="M3058.4,1802.2c0,0-0.1,1.8,0,2.3c0.1,0.4,5.6,1,7.4,0.2c0.4-0.6,0.2-2.5,0.2-2.5"/>
				<ellipse class="st21" cx="3090.9" cy="1800" rx="3.8" ry="1.1"/>
				<path class="st21" d="M3087.1,1800c0,0-0.1,1.8,0,2.3c0.1,0.4,5.6,1,7.4,0.2c0.4-0.6,0.2-2.5,0.2-2.5"/>
				<ellipse class="st21" cx="3101.4" cy="1808" rx="3.8" ry="1.1"/>
				<path class="st21" d="M3097.6,1808c0,0-0.1,1.8,0,2.3c0.1,0.4,5.6,1,7.4,0.2c0.4-0.6,0.2-2.5,0.2-2.5"/>
				<path class="st21" d="M3099.2,1801.5l-4.8,3c0,0-1,0.7,0.3,1.2c1.4,0.4,3.6,0.3,3.6,0.3"/>
			</g>
		</g>
		<path class="st17" d="M6163.4,1594"/>
		<path class="st17" d="M6158.7,1590.9"/>
		<path class="st17" d="M6158.3,1312.9"/>
		<path class="st23" d="M3249.7,1799.7l-0.5-29.6c0,0-0.8-7.7-7.6-9.3c-6.8-1.7-32.2-3.6-32.2-3.6s-8.2,0.4-8.5,9.8
			c0.3,10.8,0.4,19.6,0.4,19.6s-24-3.2-35.7,16.5c-0.2,2.9-0.3,9.1-0.3,9.1s-6.6-0.7-11.5-1.2h-37c-2.7-0.3-4.8-0.5-5.1-0.5
			c-0.5,0-0.7-0.1-0.7-0.1l0-0.1c0,0,0.4-0.5-0.5-2.3c-0.7-1.6-9.6-2.3-11.8-2.4l0.5-2.7c0.1,0,0.2-0.1,0.3-0.1
			c0.1-0.7,0.1-1.2,0.1-1.6c-0.2-1.1-1.2-1.1-2.1-1.1c-1.2,0.1-2-0.5-2-0.5s-0.2-1-2.3-1.3c-5.1,0.6-11.7-0.5-11.7-0.5
			s-3.6-0.8-7.9,0.1c-5.4,0.1-9.1-0.4-9.1-0.4s-1.2-0.2-3.2-0.4c3,0.4,3.9-1.3,4.1-2l0,0c0,0,6.1,0,7.1-3.1c0.1-3.1-0.1-24.7,0-31.8
			c-1-6.8-6.7-10.1-6.7-10.1l-9.8-1.2c0,0-17-1.3-19.1-1.5c-2.1-0.1-1.3-0.9-1.3-0.9l-5.9-0.7c-1.5-1.3-5.7,0.9-6.9,1.7
			c-3.3,2-6,4.8-9.3,6.8c-2,1.2-4.2,2.2-6.1,3.5c-1.7,1.2-3.3,2.7-4.9,3.9c-2.1,1.6-4.5,2.5-6.7,3.9c-2.1,1.3-3.9,2.7-5.7,4.4
			c-2.7,2.6-3.1,5.3-3.7,8.9c-0.2,1.5-0.2,3.5-0.6,5c-0.6,2.2-4,0.9-5.6,0.8c-1.9-0.1-3.8-0.3-5.6-0.5c0,0-14.4,5.2-16.2,5.8
			c-0.9,0.3-1.3,0.6-1.5,0.8c-0.1,0.2-0.1,0.3-0.1,0.3l0.6,33.7c0,0-0.2,3.4,4.6,3.2c1.6-0.1,12.3,1.6,25.9,3.9
			c1.7,4.6,13.8,14.5,13.8,14.5l17.5,15.9c0,0,1.2,5.6,7.4,6.5c7.8,2.9,21,4.2,28,4.7c0,0,0.1,0,0.2,0c2.7,0.2,4.5,0.3,4.5,0.3
			s6.8,0.8,11.2-3.1c4.4-3.9,2.7-10.3,2.7-10.3s-1-7.6-2.4-10.1c-1.4-2.5,0.2-5,0.2-5c9,1,18.4,2,19.5,2c0,0,2.6,1.4,6.3,2.3
			c0,0,0.2,2,2.1,2c1.9,0,5,0,5,0s1.7,0.3,2.4-1.7c1.8-0.4,3.5-1.1,5.1-2.3l5.4-0.2h37l11.3-0.4l0,0.1c0,0,0,1.5,0.8,2.4
			c0,1.2-0.4,7.4-0.4,7.4s13.5,23.5,35.3,25.5l1.2,1.4c0.1,9.7,0,21.8,0,21.8s1.1,7.7,7.4,8.1c4.7,1.4,28.9,4.8,28.9,4.8
			s6.8,1.5,10.3-5C3251,1909.9,3249.7,1799.7,3249.7,1799.7z"/>
	</g>
	<g>
		<path class="st16" d="M4686.4,1396.9"/>
		<path class="st16" d="M4687,1864.6"/>
		<path class="st17" d="M4685.4,1396.9"/>
		<path class="st17" d="M4685.7,1674.9"/>
		<g>
			<path class="st18" d="M3113.6,628.5"/>
			<path class="st18" d="M3113,628.1"/>
			<path class="st18" d="M3112.9,591"/>
			<g>
				<g>
					<path class="st19" d="M3249.2,579.9l-0.5-29.6c0,0-0.8-7.7-7.6-9.3c-6.8-1.7-32.2-3.6-32.2-3.6s-8.2,0.4-8.5,9.8
						c0.3,10.8,0.4,19.6,0.4,19.6s-24-3.2-35.7,16.5c-0.2,2.9-0.3,9.1-0.3,9.1s-6.6-0.7-11.5-1.2h-37c-2.7-0.3-4.8-0.5-5.1-0.5
						c-0.5,0-0.7-0.1-0.7-0.1l0-0.1c0,0,0,0,0,0c0,0,0,0,0,0s0.4-0.5-0.5-2.3c-0.7-1.6-9.6-2.3-11.8-2.4l0.5-2.7
						c0.1,0,0.2-0.1,0.3-0.1c0.1-0.7,0.1-1.2,0.1-1.6l0,0h0c-0.2-1.1-1.2-1.1-2.1-1.1c-1.2,0.1-2-0.5-2-0.5s-0.2-1-2.3-1.3
						c-5.1,0.6-11.7-0.5-11.7-0.5s-3.6-0.8-7.9,0.1c-5.4,0.1-9.1-0.4-9.1-0.4s-1.2-0.2-3.2-0.4c3,0.4,3.9-1.3,4.1-2l0,0
						c0,0,6.1,0,7.1-3.1c0.1-3.1-0.1-24.7,0-31.8c-1-6.8-6.7-10.1-6.7-10.1l-9.8-1.2c0,0-17-1.3-19.1-1.5c-2.1-0.1-1.3-0.9-1.3-0.9
						l-5.9-0.7c0,0-1.1-1-7.4,1.5c-6.3,2.4-4.7,7.1-4.7,7.1l0,0c-0.9,2.7-0.1,7.7-0.1,7.7s0,4.3,0.6,4.7c1.1-0.4,2.1,2.5,2.1,2.5
						s0.2,5.4,0,6.7s-1.8,2-1.8,2s-0.2,4.2-0.2,7.4c-0.6,3.4-2.9,2.9-2.9,2.9l46,8.5c-9.9-1.3-39.6-5.2-40.8-5.9
						c-1.5-0.8-3.5-1.1-9.2-1.3c-1.1,0-2.1-0.2-2.9-0.3l6.7,0.5c0,0,0.3-1.3,0.2-2.3l0.6,0.2c0,0,0.4-0.7-0.3-2.2
						c-0.7-1.6-3.4-2-5.6-1.8c-2.3,0.1-2.3,1.8-2.3,1.8l1.3,0.4c-0.8,0.8-0.7,3.5-0.7,3.5c-3.6-0.6-5.1-1.8-5.1-1.8l-17.9-2.7
						l-10.7-0.7c0,0-14.4,5.2-16.2,5.8c-0.9,0.3-1.3,0.6-1.5,0.8l0,0l0,0c-0.1,0.2-0.1,0.3-0.1,0.3l0.6,33.7c0,0-0.2,3.4,4.6,3.2
						c1.6-0.1,12.3,1.6,25.9,3.9c1.7,4.6,13.8,14.5,13.8,14.5l17.5,15.9c0,0,1.2,5.6,7.4,6.5c7.8,2.9,21,4.2,28,4.7l0,0
						c0,0,0.1,0,0.2,0c2.7,0.2,4.5,0.3,4.5,0.3s6.8,0.8,11.2-3.1s2.7-10.3,2.7-10.3s-1-7.6-2.4-10.1c-1.4-2.5,0.2-5,0.2-5l0,0
						c9,1,18.4,2,19.5,2c0,0,2.6,1.4,6.3,2.3l0,0c0,0,0.2,2,2.1,2c1.9,0,5,0,5,0s1.7,0.3,2.4-1.7l0,0c1.8-0.4,3.5-1.1,5.1-2.3
						l5.4-0.2h37l11.3-0.4l0,0.1c0,0,0,1.5,0.8,2.4c0,1.2-0.4,7.4-0.4,7.4s13.5,23.5,35.3,25.5l1.2,1.4c0.1,9.7,0,21.8,0,21.8
						s1.1,7.7,7.4,8.1c4.7,1.4,28.9,4.8,28.9,4.8s6.8,1.5,10.3-5C3250.5,690.2,3249.2,579.9,3249.2,579.9z"/>
					<path class="st19" d="M2991.9,547.6c-9.3,5.8-7.1,17.4-7.1,17.4l32.1-33.4C3016.9,531.6,3001.2,541.8,2991.9,547.6z"/>
					<path class="st19" d="M3013,540.7l-7.9,5c0,0-3.3,0.8-2.9,7.8c-0.9,9.3,5.1,10.8,5.1,10.8l1.4-3.3c2.1,0.3,9,0.6,9,0.6
						l-0.9-18.8c0,0-0.2,0.1-0.5,0.3l0.3-0.6C3015.6,539.4,3013,540.7,3013,540.7z"/>
				</g>
				<path class="st20" d="M3188,594.2l-23-1.6c0,0-6.6-0.7-11.5-1.2h-37c-2.7-0.3-4.8-0.5-5.1-0.5c-0.9,0-0.7-0.2-0.7-0.2
					s0.4-0.5-0.5-2.3c-0.8-1.8-12.3-2.5-12.3-2.5s-1.3-1.7,1.3-2.9c0.5-2.7-0.8-2.7-2-2.6c-1.2,0.1-2-0.5-2-0.5s-0.2-1-2.3-1.3
					c-5.1,0.6-11.7-0.5-11.7-0.5s-3.6-0.8-7.9,0.1c-5.4,0.1-9.1-0.4-9.1-0.4s-42.5-5.5-44-6.3c-1.5-0.8-3.5-1.1-9.2-1.3
					s-8.1-2.1-8.1-2.1l-17.9-2.7l-10.7-0.7c0,0-14.4,5.2-16.2,5.8c-1.9,0.7-1.5,1.1-1.5,1.1l0.6,33.7c0,0-0.2,3.4,4.6,3.2
					s92.2,15.6,92.2,15.6s34.3,3.8,36.4,3.8c0,0,12.5,6.6,20.9,0.4l5.4-0.2h37l13.4-0.5c0,0,9-1.7,20.9-1.4c0.2,0.7,0.4,1.1,0.4,1.1
					s5.8,0.3,10.3-0.5c1.8-1.1,2.2-2.3,2.2-2.3s-0.2-2-0.6-1.8s-1.4,0.8-2.9,1.2c-1.5,0.5-8.8,0.2-8.8,0.2l0.3-27.4l9.3-0.1
					c0,0,3.2-0.7,2.3-3.3c-2.2,0.7-7.4,0.7-8.2,0.6c-0.8-0.1-0.4-0.7-3.6-0.1c-1.1,1.6-0.1,2.5-0.1,2.5l-48.2,0.9
					c0,0-1.5-0.5-1.2,5.7c0,6.6,0.1,20.6,0.1,20.6s1.4,3.2,4.9,2.9s12.6-0.2,12.6-0.2l31.4-1c0,0-0.2,0.8,0,1.8"/>
				<path class="st20" d="M3164.7,627.6c0,0,0,1.5,0.8,2.4c0,1.2-0.4,7.4-0.4,7.4s13.9,24.4,36.5,25.6c0.1,9.9,0,23.1,0,23.1
					s1.1,7.7,7.4,8.1c4.7,1.4,28.9,4.8,28.9,4.8s6.8,1.5,10.3-5c2.5-3.5,1.2-113.8,1.2-113.8l-0.5-29.6c0,0-0.8-7.7-7.6-9.3
					s-32.2-3.6-32.2-3.6s-8.2,0.4-8.5,9.8c0.3,10.8,0.4,19.6,0.4,19.6s-24-3.2-35.7,16.5c-0.2,2.9-0.3,9.1-0.3,9.1"/>
				<path class="st21" d="M3175.9,593.4c0,0,5.5-9.3,10.2-9.2s15.1,1,15.1,1s1.8,2.8,1.5,4c-0.4,1.2,2.5-0.4,2.5-0.4
					s-3.4-1.4-2.7-5.5c0.2-9.6-1.4-16.3-1.4-16.3"/>
				<path class="st21" d="M3184.8,594c0,0,4.4-9.4,16.5-3.9c1.5,0.5,3.9-1.3,3.9-1.3l18.7,2.8c0,0,8.1,0.2,9.9,5.3
					c4.2,8.7,5.3,18.2,5.3,18.2s0.4,20.5-1.8,21.1c-3.4,11.2-6.5,11.6-6.5,11.6l-25.4-2.9l-0.3-1.4l-2.2-2.5c0,0-11.4,1.8-16.2-8.8
					c-0.4-2.7-12.4-2-12.4-2s-6.7,1.1-8.6-2.7"/>
				<path class="st21" d="M3171.6,630.3c0,0,0.9,2,5.2,2.1c3.7,6.5,8.8,10.1,8.8,10.1s1,1,7.1,1.2c5.3,1.5,10.2,2,11,3.3
					c-2.2,1.5-0.3,7.2-2,17.3"/>
				<path class="st21" d="M3205.2,644.1c0,0,0.1,1.3-0.6,2.4c-0.7,1.1,19.8,2,24.3,3.4c2.6-1.2,3.1-2.4,4.3-4.4"/>
				<path class="st21" d="M3200.4,624.7c0,0,14,2.8,18.5,2.4c5.8,2.6,7.3,6.6,7.3,6.6"/>
				<path class="st21" d="M3218.9,627.1c0,0,5.9,5.8,6.2,7.7c2.9,2.8,12,2,12,2"/>
				
					<ellipse transform="matrix(0.9907 -0.1363 0.1363 0.9907 -45.8642 443.1003)" class="st21" cx="3213" cy="556.5" rx="7.8" ry="9.4"/>
				<path class="st22" d="M3214.7,561.3l-0.2-2.5c0,0,0.1-1.2,1.2-1.2l1.6-0.2c0,0,0.2,0,0.2-0.4c0-0.3-0.2-2.2-0.2-2.2
					s0-0.1-0.2-0.2c-0.2,0-2,0.2-2,0.2s-0.9-0.1-1.1-1.1c-0.1-1-0.2-2.5-0.2-2.5s-0.1-0.3-0.3-0.3c-0.2,0-1.8,0.2-1.8,0.2
					s-0.1,0-0.2,0.2c0,0.2,0.1,1.2,0.1,1.2l0.1,1.3c0,0,0,1.1-0.9,1.3c-0.9,0.1-2,0.2-2,0.2s-0.1,0.1-0.1,0.3c0,0.2,0.2,1.6,0.2,1.6
					l0.1,0.6c0,0,0,0.2,0.2,0.2s2.1-0.2,2.1-0.2s0.8-0.1,1.1,1.1c0.1,1.2,0.2,2.4,0.2,2.4s0,0.2,0.2,0.2c0.2,0,1.8-0.2,1.9-0.2
					C3214.7,561.6,3214.7,561.3,3214.7,561.3z"/>
				
					<ellipse transform="matrix(0.89 -0.4559 0.4559 0.89 43.4665 1539.7852)" class="st21" cx="3213.3" cy="679.8" rx="7.9" ry="8.8"/>
				<path class="st22" d="M3216.2,683.6l-0.9-2.1c0,0-0.3-1.1,0.8-1.5l1.5-0.6c0,0,0.2-0.1,0.1-0.4c-0.1-0.3-0.8-1.9-0.8-1.9
					s-0.1-0.1-0.2-0.1c-0.2,0.1-1.8,0.8-1.8,0.8s-0.9,0.2-1.4-0.6c-0.4-0.8-0.9-2.1-0.9-2.1s-0.2-0.2-0.3-0.1s-1.7,0.7-1.7,0.7
					s-0.1,0-0.1,0.3c0.1,0.2,0.5,1.1,0.5,1.1l0.5,1.1c0,0,0.3,1-0.5,1.4c-0.8,0.4-1.9,0.8-1.9,0.8s-0.1,0.1-0.1,0.3
					c0.1,0.2,0.6,1.4,0.6,1.4l0.2,0.5c0,0,0.1,0.2,0.2,0.1c0.1,0,1.9-0.8,1.9-0.8s0.7-0.3,1.3,0.7c0.4,1,0.9,2.1,0.9,2.1
					s0.1,0.2,0.3,0.2c0.2-0.1,1.7-0.7,1.8-0.7C3216.3,683.9,3216.2,683.6,3216.2,683.6z"/>
				<line class="st21" x1="3191.8" y1="596.4" x2="3191.8" y2="623.9"/>
				<line class="st21" x1="3196" y1="596.4" x2="3196" y2="623.8"/>
				<path class="st21" d="M3110.7,590.7c0,0-2.2,2.2-4.2,2.5c-2,0.2-10.2,0.6-14.1-1.5c-1.3-0.9-2.3,0.6-2.3,0.6v33.1
					c0,0-0.3,1.9,2.3,1.3c2.3-0.1,4.9,2.7,14.4,1.7"/>
				<path class="st21" d="M3096.6,630.1c0,0,0.2,2,2.1,2c1.9,0,5,0,5,0s1.7,0.3,2.4-1.7"/>
				<path class="st21" d="M3092.5,589.6c0,0,5,1.5,10.5,1.7c5.5,0.2,7.2-3,7.2-3"/>
				<path class="st21" d="M3094.2,592.3v2.9c0,0,0.2,1.5,3.9,1.5s4.6,0,4.6,0"/>
				<path class="st20" d="M3070.8,625.8c0,0-1.6,2.6-0.2,5c1.4,2.5,2.4,10.1,2.4,10.1s1.8,6.3-2.7,10.3c-4.4,3.9-11.2,3.1-11.2,3.1
					s-21.7-0.9-32.7-5c-6.2-1-7.4-6.5-7.4-6.5l-17.5-15.9c0,0-12.2-10-13.8-14.5"/>
				<polygon class="st21" points="2962.6,602.1 2962.6,578.2 2962.1,577.5 2960.5,577.5 2959.9,578.2 2959.9,602.1 2960.3,602.6 
					2962.2,602.6 				"/>
				<polygon class="st21" points="2967.1,602.6 2967.1,578.7 2966.6,578 2965,578 2964.4,578.7 2964.4,602.6 2964.8,603.1 
					2966.7,603.1 				"/>
				<path class="st21" d="M2956.6,571.2l17.9,3.6c0,0,10.9-2.8,16.7,2.5c11.1,2,61.4,10.8,61.4,10.8s29.5-2.7,37.5,4.2"/>
				<path class="st21" d="M3007.4,615.7v5.6l11.2,8.9c0,0,2.6,0.5,2.2-3.2c-0.1-2,0.2-8.8,0.2-8.8"/>
				<path class="st21" d="M3018.9,642.8c0,0-0.6-9.2-0.3-12.6"/>
				<path class="st21" d="M3004.3,615.7c0,0-0.4,4.8,0.4,5.7c1,2.9,7.2,10.6,13.8,11.5"/>
				<path class="st21" d="M3023.3,545.9c1.2-6.7,11.1-11.2,16.4-0.4c5.5,21.1-2.5,24.3-2.5,24.3s-10.9,4.6-13.1-6.9
					C3022.8,554.9,3023.3,552.8,3023.3,545.9z"/>
				<path class="st21" d="M3035.5,540.4c0,0-8.9-2.4-10.3,4.7c-1.4,7.1,0.5,18.2,1.1,19.5c0.7,1.3,2.4,6.8,10.9,5.2"/>
				<path class="st21" d="M3025.5,561.2c0,0,1.4-1.6,3,1.9c1.6,3.4,10.6,4.1,12.6,0.4"/>
				<path class="st21" d="M3025,546h2.3c0,0,5.1-6.5,12.5,0"/>
				<path class="st21" d="M3041.3,553.4c0.7,4.4-0.7,8-4.3,8.5c-3.6,0.6-7.1-2.5-7.7-6.9s1.4-8.5,5.1-8.6
					C3037.2,546.4,3040.6,549,3041.3,553.4z"/>
				<path class="st22" d="M3037.1,558l-0.4-2.1c0,0,0-1,0.9-1.1l1.3-0.2c0,0,0.2-0.1,0.1-0.3c-0.1-0.3-0.3-1.8-0.3-1.8
					s0-0.1-0.2-0.2c-0.1,0-1.6,0.3-1.6,0.3s-0.7,0-1-0.8c-0.2-0.8-0.4-2.1-0.4-2.1s-0.1-0.2-0.2-0.2s-1.4,0.3-1.4,0.3
					s-0.1,0-0.1,0.2c0,0.2,0.2,1,0.2,1l0.2,1.1c0,0,0.1,0.9-0.6,1.1c-0.7,0.2-1.6,0.3-1.6,0.3s-0.1,0.1-0.1,0.2
					c0,0.2,0.2,1.4,0.2,1.4l0.1,0.5c0,0,0,0.2,0.2,0.2c0.1,0,1.6-0.3,1.6-0.3s0.6-0.1,0.9,0.9c0.2,1,0.4,2,0.4,2s0,0.2,0.2,0.2
					c0.2,0,1.5-0.3,1.5-0.3C3037.2,558.2,3037.1,558,3037.1,558z"/>
				<path class="st20" d="M2985,565.3c0,0-2.2-11.6,7.1-17.4s25-16.1,25-16.1"/>
				<path class="st21" d="M3008,569.9c0,0-0.2-3.8,1.2-3.7c1.4,0.1,5,0.4,5.5,1s0,3.2,0,3.2"/>
				<path class="st21" d="M3007.5,564.6c0,0-6-1.5-5.1-10.8c-0.4-7,2.9-7.8,2.9-7.8l7.9-5c0,0,2.6-1.3,3.6,1.8"/>
				<path class="st21" d="M3014.9,568.9c0,0,2.3,0.5,2.9-2.9c0-3.3,0.2-7.4,0.2-7.4s1.6-0.7,1.8-2s0-6.7,0-6.7s-1-2.9-2.1-2.5
					c-0.6-0.4-0.6-4.7-0.6-4.7s-0.9-5.6,0.3-8.2c1.2-2.6,2.2-4.6,5.4-5s12.4,0.8,12.4,0.8l14.8,2.4c0,0,13.4-0.5,14.2,11.2
					c0.8,11.7,0.5,31.3,0.8,31.3c0.3,0-0.3,2.8-4.1,2.3"/>
				<path class="st20" d="M3017.2,534.9c0,0-1.6-4.7,4.7-7.1c6.3-2.4,7.4-1.5,7.4-1.5l5.9,0.7c0,0-0.8,0.8,1.3,0.9
					s19.1,1.5,19.1,1.5l9.8,1.2c0,0,5.8,3.3,6.7,10.1c-0.1,7,0.1,28.7,0,31.8c-1,3.1-7.1,3.1-7.1,3.1"/>
				<path class="st21" d="M3007.3,566c0,0,0-1.7,2.3-1.8c2.3-0.1,4.9,0.3,5.6,1.8c0.7,1.6,0.3,2.2,0.3,2.2"/>
				<path class="st21" d="M3017.9,562c0,0-8.8-0.4-9.5-0.7c-0.7-0.4-2.1-0.5-1.9-3.1c0.2-2.6-0.2-7.4-0.2-7.4s0.2-1.4,2-2.1
					c1.9-0.7,8.7-5.5,8.7-5.5"/>
				<path class="st21" d="M3025.2,618.8l0.4,13.6c0,0,4.1,10.3,12.5,8.4c6.3-3.3,3.6-19.1,3.6-19.1"/>
				<path class="st21" d="M3024,618.6l0.5,14.7c0,0,4.4,11.9,12.3,7.8"/>
				<path class="st21" d="M3027.8,619.3c0,0-3.8,23.5,13.8,16.3"/>
				<path class="st21" d="M3026.3,633.9c0,0-0.3-2.6,2.6-1.5"/>
				<path class="st21" d="M3042.1,625.3c-0.2-1.5-0.8-2.8-1.5-3.9c-0.6-0.1-1.2-0.1-1.8-0.3c-0.8-0.1-1.5-0.3-2.3-0.4
					c-1.5-0.2-3.1-0.5-4.6-0.8c0,0,0,0,0,0c0,0-0.1,0-0.1,0c0,0,0,0,0,0c-1.4,1.6-2.1,4.2-1.7,7c0.7,4.4,4.1,7.4,7.7,6.9
					S3042.8,629.7,3042.1,625.3z"/>
				<path class="st22" d="M3036.2,630.3l0.5-2c0,0,0.4-0.9,1.3-0.7l1.2,0.3c0,0,0.2,0,0.3-0.3s0.4-1.8,0.4-1.8s0-0.1-0.1-0.2
					c-0.1,0-1.6-0.4-1.6-0.4s-0.7-0.3-0.5-1.2c0.2-0.8,0.5-2,0.5-2s0-0.2-0.1-0.3c-0.2,0-1.4-0.4-1.4-0.4s-0.1,0-0.2,0.1
					c-0.1,0.2-0.2,1-0.2,1l-0.3,1c0,0-0.3,0.8-1,0.8c-0.7-0.1-1.6-0.4-1.6-0.4s-0.1,0-0.2,0.2c0,0.2-0.3,1.4-0.3,1.4l-0.1,0.5
					c0,0,0,0.2,0.1,0.2c0.1,0,1.6,0.4,1.6,0.4s0.6,0.2,0.5,1.2c-0.2,1-0.5,2-0.5,2s-0.1,0.2,0.1,0.3c0.2,0.1,1.4,0.4,1.5,0.4
					C3036.2,630.5,3036.2,630.3,3036.2,630.3z"/>
				<path class="st21" d="M3054.3,654c0,0,12.2,1.1,12.6-7.5s0-21.1,0-21.1"/>
				<path class="st21" d="M2973.3,585.8v-3.2c0,0,3.2-6.3,8.4-5.1c2.9,0.1,6.3,1,6.3,1s4.6,1.9,4.6,6.5c-0.7,2.3-0.6,4.1-0.6,4.1
					l0.3,14.6c0,0,1.4,4-2.6,4.5c-3.9,0.1-10.6-0.6-10.6-0.6l-4.4-1c0,0-2-0.1-1.9-3.8c0-0.5,0-1.3,0-1.3"/>
				<path class="st21" d="M2977.2,583c0,0,4.8-3.1,8.8-0.9c4,2.3,5.9,5.4,5.9,5.4l0.1,8.9l0.1,6.6c0,0-2,2.5-5.7,2.9"/>
				<ellipse class="st21" cx="2980.9" cy="594.9" rx="9" ry="11.2"/>
				<ellipse class="st21" cx="2981.4" cy="594.8" rx="10.5" ry="12.7"/>
				<path class="st21" d="M2998.8,591.8v-4.6c0,0,0.4-1.2,1.9-0.8c1.5,0.4,5.5,0.8,5.5,0.8s0.3,2.2,1.3,2.4c0.9,0.2,4.3,0.4,5.3,1.4
					c4.8,1.4,7.6,16.7-2.6,16.7c-1.4,0-2.7,0-2.7,0l-0.6,1.6l-6-1.2c0,0-2.2-0.2-1.5-4.3c0.7-4.1-0.5-3.8-0.5-3.8s-2-2.5-0.5-6
					C2999,592.5,2998.8,591.8,2998.8,591.8z"/>
				<path class="st21" d="M3011.4,590.1c-1.4-0.4-3.5-0.5-4-0.7c-0.9-0.3-0.7-1.3-1.5-2.3c-1.4-0.6-4.3,3.4-4.3,7.1
					c0,4.2,2.6,7.6,5.8,7.6c3.2,0,5.8-3.4,5.8-7.6C3013,592.5,3011.8,590.2,3011.4,590.1z"/>
				
					<ellipse transform="matrix(0.9788 -0.205 0.205 0.9788 -59.1389 633.3747)" class="st21" cx="3027.1" cy="602.1" rx="10" ry="13.4"/>
				
					<ellipse transform="matrix(0.9727 -0.2323 0.2323 0.9727 -57.4596 718.926)" class="st21" cx="3024.4" cy="603.5" rx="6.9" ry="8.6"/>
				<path class="st22" d="M3027.2,606.9l-1-2c0,0-0.3-1,0.5-1.6l1.2-0.8c0,0,0.2-0.1,0-0.4s-0.9-1.8-0.9-1.8s-0.1-0.1-0.2-0.1
					c-0.1,0.1-1.5,1-1.5,1s-0.7,0.3-1.2-0.5c-0.4-0.8-1-2-1-2s-0.2-0.2-0.3-0.1c-0.1,0.1-1.3,0.9-1.3,0.9s-0.1,0.1-0.1,0.3
					c0.1,0.2,0.5,1,0.5,1l0.5,1c0,0,0.3,0.9-0.3,1.5c-0.6,0.5-1.5,1-1.5,1s-0.1,0.1,0,0.3c0.1,0.2,0.7,1.3,0.7,1.3l0.3,0.5
					c0,0,0.1,0.2,0.2,0.1s1.5-1,1.5-1s0.6-0.4,1.2,0.5c0.5,0.9,1,1.9,1,1.9s0.1,0.2,0.3,0.1c0.2-0.1,1.4-0.9,1.4-1
					C3027.3,607.1,3027.2,606.9,3027.2,606.9z"/>
				<path class="st21" d="M3022.6,595.1c0,0,2.9-1.7,5.6-0.9c10.1,6.4,4.8,15.7,0.5,16.5c0.4-0.3,1.1-1.2,1.1-1.2"/>
				<path class="st22" d="M2986.4,594.3l-1.6-1.5c0,0-0.7-0.8-0.1-1.7l0.8-1.2c0,0,0.1-0.2-0.1-0.4c-0.2-0.2-1.4-1.3-1.4-1.3
					s-0.1-0.1-0.2,0c-0.1,0.1-1,1.5-1,1.5s-0.5,0.6-1.3,0c-0.7-0.6-1.6-1.5-1.6-1.5s-0.2-0.1-0.3,0c-0.1,0.2-0.9,1.4-0.9,1.4
					s-0.1,0.1,0,0.3c0.2,0.1,0.8,0.8,0.8,0.8l0.8,0.8c0,0,0.6,0.7,0.3,1.5c-0.4,0.7-1,1.5-1,1.5s0,0.1,0.1,0.3c0.1,0.1,1.1,1,1.1,1
					l0.4,0.4c0,0,0.2,0.1,0.2,0s1.1-1.5,1.1-1.5s0.4-0.6,1.3,0c0.8,0.7,1.6,1.4,1.6,1.4s0.1,0.1,0.3,0c0.1-0.2,0.9-1.4,1-1.4
					C2986.6,594.5,2986.4,594.3,2986.4,594.3z"/>
				
					<ellipse transform="matrix(0.986 -0.1667 0.1667 0.986 -50.3547 516.5607)" class="st21" cx="3052.4" cy="558.3" rx="8.3" ry="9.8"/>
				<path class="st22" d="M3054.3,563.2l-0.3-2.5c0,0,0-1.2,1.2-1.3l1.7-0.2c0,0,0.2-0.1,0.2-0.4c0-0.4-0.3-2.3-0.3-2.3
					s0-0.1-0.2-0.2c-0.2,0-2.1,0.3-2.1,0.3s-0.9,0-1.2-1.1c-0.2-1-0.3-2.5-0.3-2.5s-0.1-0.3-0.3-0.3s-1.9,0.3-1.9,0.3
					s-0.1,0-0.2,0.2c0,0.3,0.2,1.3,0.2,1.3l0.2,1.3c0,0,0,1.1-0.9,1.4c-0.9,0.2-2.1,0.3-2.1,0.3s-0.1,0.1-0.1,0.3
					c0,0.2,0.2,1.7,0.2,1.7l0.1,0.7c0,0,0,0.2,0.2,0.2s2.2-0.3,2.2-0.3s0.8-0.1,1.2,1.1c0.2,1.2,0.3,2.5,0.3,2.5s0,0.2,0.2,0.3
					c0.3,0,1.9-0.3,2-0.3C3054.3,563.5,3054.3,563.2,3054.3,563.2z"/>
				<path class="st21" d="M3051.5,548.5c0,0,2.4-0.7,5.1-0.7c11.5,4.3,9,18.2-0.6,20.5c-1.2,0.3-3.1-0.3-3.1-0.3"/>
				<ellipse class="st21" cx="3062.2" cy="582.2" rx="3.8" ry="1.1"/>
				<path class="st21" d="M3058.4,582.2c0,0-0.1,1.8,0,2.3s5.6,1,7.4,0.2c0.4-0.6,0.2-2.5,0.2-2.5"/>
				<ellipse class="st21" cx="3090.9" cy="580" rx="3.8" ry="1.1"/>
				<path class="st21" d="M3087.1,580c0,0-0.1,1.8,0,2.3c0.1,0.4,5.6,1,7.4,0.2c0.4-0.6,0.2-2.5,0.2-2.5"/>
				<ellipse class="st21" cx="3101.3" cy="588" rx="3.8" ry="1.1"/>
				<path class="st21" d="M3097.5,588c0,0-0.1,1.8,0,2.3c0.1,0.4,5.6,1,7.4,0.2c0.4-0.6,0.2-2.5,0.2-2.5"/>
				<path class="st21" d="M3099.2,581.5l-4.8,3c0,0-1,0.7,0.3,1.2c1.4,0.4,3.6,0.3,3.6,0.3"/>
			</g>
		</g>
		<path class="st17" d="M4690.4,1678"/>
		<path class="st17" d="M4685.6,1674.9"/>
		<path class="st17" d="M4685.2,1396.9"/>
		<path class="st23" d="M3248.5,580.3l-0.5-29.6c0,0-0.8-7.7-7.6-9.3c-6.8-1.7-32.2-3.6-32.2-3.6s-8.2,0.4-8.5,9.8
			c0.3,10.8,0.4,19.6,0.4,19.6s-24-3.2-35.7,16.5c-0.2,2.9-0.3,9.1-0.3,9.1s-6.6-0.7-11.5-1.2h-37c-2.7-0.3-4.8-0.5-5.1-0.5
			c-0.5,0-0.7-0.1-0.7-0.1l0-0.1c0,0,0.4-0.5-0.5-2.3c-0.7-1.6-9.6-2.3-11.8-2.4l0.5-2.7c0.1,0,0.2-0.1,0.3-0.1
			c0.1-0.7,0.1-1.2,0.1-1.6c-0.2-1.1-1.2-1.1-2.1-1.1c-1.2,0.1-2-0.5-2-0.5s-0.2-1-2.3-1.3c-5.1,0.6-11.7-0.5-11.7-0.5
			s-3.6-0.8-7.9,0.1c-5.4,0.1-9.1-0.4-9.1-0.4s-1.2-0.2-3.2-0.4c3,0.4,3.9-1.3,4.1-2l0,0c0,0,6.1,0,7.1-3.1c0.1-3.1-0.1-24.7,0-31.8
			c-1-6.8-6.7-10.1-6.7-10.1l-9.8-1.2c0,0-17-1.3-19.1-1.5c-2.1-0.1-1.3-0.9-1.3-0.9l-5.9-0.7c-1.5-1.3-5.7,0.9-6.9,1.7
			c-3.3,2-6,4.8-9.3,6.8c-2,1.2-4.2,2.2-6.1,3.5c-1.7,1.2-3.3,2.7-4.9,3.9c-2.1,1.6-4.5,2.5-6.7,3.9c-2.1,1.3-3.9,2.7-5.7,4.4
			c-2.7,2.6-3.1,5.3-3.7,8.9c-0.2,1.5-0.2,3.5-0.6,5c-0.6,2.2-4,0.9-5.6,0.8c-1.9-0.1-3.8-0.3-5.6-0.5c0,0-14.4,5.2-16.2,5.8
			c-0.9,0.3-1.3,0.6-1.5,0.8c-0.1,0.2-0.1,0.3-0.1,0.3l0.6,33.7c0,0-0.2,3.4,4.6,3.2c1.6-0.1,12.3,1.6,25.9,3.9
			c1.7,4.6,13.8,14.5,13.8,14.5l17.5,15.9c0,0,1.2,5.6,7.4,6.5c7.8,2.9,21,4.2,28,4.7c0,0,0.1,0,0.2,0c2.7,0.2,4.5,0.3,4.5,0.3
			s6.8,0.8,11.2-3.1s2.7-10.3,2.7-10.3s-1-7.6-2.4-10.1c-1.4-2.5,0.2-5,0.2-5c9,1,18.4,2,19.5,2c0,0,2.6,1.4,6.3,2.3
			c0,0,0.2,2,2.1,2c1.9,0,5,0,5,0s1.7,0.3,2.4-1.7c1.8-0.4,3.5-1.1,5.1-2.3l5.4-0.2h37l11.3-0.4l0,0.1c0,0,0,1.5,0.8,2.4
			c0,1.2-0.4,7.4-0.4,7.4s13.5,23.5,35.3,25.5l1.2,1.4c0.1,9.7,0,21.8,0,21.8s1.1,7.7,7.4,8.1c4.7,1.4,28.9,4.8,28.9,4.8
			s6.8,1.5,10.3-5C3249.8,690.6,3248.5,580.3,3248.5,580.3z"/>
	</g>
</g>
<g id="SOPORTES">
	<polygon class="st24" points="2740.9,1294.7 2740.9,1321.4 2789.9,1321.4 2789.9,1292.8 2789.9,1241.8 2721.9,1241.8 
		2721.9,1269.1 2740.9,1269.4 	"/>
	<polygon class="st24" points="2863.1,1302.5 2863.1,1333.4 2921.9,1333.4 2921.9,1300.3 2921.9,1241.2 2840.1,1241.2 
		2840.1,1272.9 2863.1,1273.2 	"/>
	<polygon class="st24" points="2012,1275.2 1991.3,1275.4 1991.3,1304.8 1991.3,1335.7 1938.1,1335.7 1938.1,1302.6 1938.1,1243.5 
		2012,1243.5 	"/>
</g>
</svg>
