<?xml version="1.0" encoding="utf-8"?>
<!-- Generator: Adobe Illustrator 26.5.0, SVG Export Plug-In . SVG Version: 6.00 Build 0)  -->
<svg version="1.1" id="CLOSET" xmlns="http://www.w3.org/2000/svg" xmlns:xlink="http://www.w3.org/1999/xlink" x="0px" y="0px"
	 viewBox="0 0 5922.9 2203.1" style="enable-background:new 0 0 5922.9 2203.1;" xml:space="preserve">
<style type="text/css">
	.st0{fill:#EAEAEA;stroke:#B2C411;stroke-width:30;stroke-miterlimit:10;}
	.st1{fill:#CCCCCC;stroke:#000000;stroke-width:9.2534;stroke-miterlimit:10;}
	.st2{fill:#CCCCCC;stroke:#000000;stroke-width:9.0246;stroke-miterlimit:10;}
	.st3{fill:#EAEAEA;stroke:#000000;stroke-width:13.9944;stroke-miterlimit:10;}
	.st4{fill:#DBDBDB;stroke:#000000;stroke-width:9.2534;stroke-miterlimit:10;}
	.st5{fill:#E8E8E8;stroke:#000000;stroke-width:9.2534;stroke-miterlimit:10;}
</style>
<g id="LATERAL-DERECHA">
	<polygon class="st0" points="5726.4,2005.2 5187.7,1890.4 5189.8,305.2 5726.4,306.4 	"/>
	<rect x="5727" y="299.2" class="st0" width="103.6" height="1706"/>
</g>
<g id="TABLITA-TRASERA-ESCONDIDA">
	<polygon class="st1" points="295.1,1926.5 236.1,1926.5 236.2,200.7 295.2,216.7 	"/>
	<polygon class="st1" points="236.6,1924 140.6,1900 140.2,175.7 236.2,200.7 	"/>
</g>
<g id="TABLITA-TRASERA">
	<rect x="5289.5" y="290.2" class="st2" width="59" height="1626"/>
	<polygon class="st2" points="5290,1913.8 5194,1891 5193.8,290.7 5290,291.1 	"/>
	<path d="M5225.5,472.9c10.6,10.9,26.4,9.9,35.3-2.2c8.8-12.2,7.4-30.9-3.2-41.8s-26.4-9.9-35.3,2.2
		C5213.4,443.3,5214.9,462,5225.5,472.9z M5233.2,436.6c0.6-0.5,0.9,0.1,0.9,0.1s2.4,2.8,4.7,5.3c2.8,2.3,4.4,0.2,4.4,0.2
		s4.2-5.2,4.5-5.6c0.4-0.4,0.8,0.1,0.8,0.1l1.2,1.4c0,0,2.8,3.2,3.2,3.7c0.3,0.6,0.1,1,0.1,1s-2.6,3.1-4.3,5.5
		c-1.6,2.6,0.2,5.3,0.2,5.3l2.5,2.8c0,0,2,2.2,2.4,2.8c0.3,0.7,0,1,0,1s-3.5,4.3-3.9,4.9c-0.4,0.6-1.1,0-1.1,0s-2.8-3.3-4.8-5.5
		c-2.2-2-4.4,0-4.4,0s-3.9,4.9-4.3,5.4c-0.6,0.2-0.8-0.1-0.8-0.1s-3.6-4.1-4.2-4.9c-0.7-0.8-0.2-1.4-0.2-1.4l3.4-4.3
		c2.5-3,0.7-6.1,0.7-6.1l-4.8-5.5c0,0-0.5-0.6-0.3-1.2C5229.3,441.6,5232.6,437.2,5233.2,436.6z"/>
	<path d="M5225.5,1842.6c10.6,10.9,26.4,9.9,35.3-2.2c8.8-12.2,7.4-30.9-3.2-41.8s-26.4-9.9-35.3,2.2
		C5213.4,1813,5214.9,1831.7,5225.5,1842.6z M5233.2,1806.2c0.6-0.5,0.9,0.1,0.9,0.1s2.4,2.8,4.7,5.3c2.8,2.3,4.4,0.2,4.4,0.2
		s4.2-5.2,4.5-5.6c0.4-0.4,0.8,0.1,0.8,0.1l1.2,1.4c0,0,2.8,3.2,3.2,3.7c0.3,0.6,0.1,1,0.1,1s-2.6,3.1-4.3,5.5
		c-1.6,2.6,0.2,5.3,0.2,5.3l2.5,2.8c0,0,2,2.2,2.4,2.8c0.3,0.7,0,1,0,1s-3.5,4.3-3.9,4.9c-0.4,0.6-1.1,0-1.1,0s-2.8-3.3-4.8-5.5
		c-2.2-2-4.4,0-4.4,0s-3.9,4.9-4.3,5.4c-0.6,0.2-0.8-0.1-0.8-0.1s-3.6-4.1-4.2-4.9c-0.7-0.8-0.2-1.4-0.2-1.4l3.4-4.3
		c2.5-3,0.7-6.1,0.7-6.1l-4.8-5.5c0,0-0.5-0.6-0.3-1.2C5229.3,1811.2,5232.6,1806.8,5233.2,1806.2z"/>
	<path d="M5225.5,1047.2c10.6,10.9,26.4,9.9,35.3-2.2c8.8-12.2,7.4-30.9-3.2-41.8s-26.4-9.9-35.3,2.2
		C5213.4,1017.6,5214.9,1036.3,5225.5,1047.2z M5233.2,1010.9c0.6-0.5,0.9,0.1,0.9,0.1s2.4,2.8,4.7,5.3c2.8,2.3,4.4,0.2,4.4,0.2
		s4.2-5.2,4.5-5.6c0.4-0.4,0.8,0.1,0.8,0.1l1.2,1.4c0,0,2.8,3.2,3.2,3.7c0.3,0.6,0.1,1,0.1,1s-2.6,3.1-4.3,5.5
		c-1.6,2.6,0.2,5.3,0.2,5.3l2.5,2.8c0,0,2,2.2,2.4,2.8c0.3,0.7,0,1,0,1s-3.5,4.3-3.9,4.9c-0.4,0.6-1.1,0-1.1,0s-2.8-3.3-4.8-5.5
		c-2.2-2-4.4,0-4.4,0s-3.9,4.9-4.3,5.4c-0.6,0.2-0.8-0.1-0.8-0.1s-3.6-4.1-4.2-4.9c-0.7-0.8-0.2-1.4-0.2-1.4l3.4-4.3
		c2.5-3,0.7-6.1,0.7-6.1l-4.8-5.5c0,0-0.5-0.6-0.3-1.2C5229.2,1015.9,5232.6,1011.5,5233.2,1010.9z"/>
</g>
<g id="BASE">
	<polyline class="st3" points="5182.4,1891 673.5,1897.2 5181.8,1891 5726.9,2011.7 590.8,2012 590.8,1902.9 672.4,1898.2 	"/>
	<rect x="595.1" y="2012.2" class="st3" width="5234.8" height="86.5"/>
	<polyline class="st3" points="584.4,2012 120.4,1897 120.4,1976 584.4,2097 585,2011.7 	"/>
</g>
<g id="DIVISIONES-VERTICALES">
	<g id="DIVISION-VERTICAL-DERECHA">
		<polygon class="st3" points="4457.1,2011.9 3991,1896.9 3992.2,290.7 4457.1,290.9 		"/>
		<rect x="4457" y="290.7" class="st3" width="90" height="1722"/>
	</g>
	<g id="DIVISION-CENTRAL">
		<polygon class="st3" points="3171.2,2011.9 2705.2,1896.9 2706.2,290.7 3171.2,290.9 		"/>
		<rect x="3170.5" y="290.7" class="st3" width="90" height="1722"/>
	</g>
	<g id="DIVISION-VERTICAL-IZQUIERDA_00000085229740836627909760000005526871516412138418_">
		<polygon class="st3" points="1849.1,2012.3 1383.1,1897.3 1384.2,291.7 1849.1,291.3 		"/>
		<rect x="1848" y="291.7" class="st3" width="90" height="1719.6"/>
	</g>
</g>
<g id="DIVISIONES-HORIZONTALES">
	<g id="DIVISION-HORIZONTAL-EXTREMA-IZQUIERDA">
		<polygon class="st3" points="676.2,1131.7 1733.3,1132.2 1383.2,1041.7 675.2,1041.2 		"/>
		<rect x="675.7" y="1128.9" class="st3" width="1058" height="84.7"/>
	</g>
	<g id="DIVISION-HORIZONTAL-INTERNA-IZQUIERDA">
		<polygon class="st3" points="1938.9,1136 3015.2,1136.5 2720.2,1045.7 1938,1045.5 		"/>
		<rect x="1938.5" y="1133.2" class="st3" width="1077.3" height="84.7"/>
	</g>
	<g id="DIVISION-HORIZONTAL-INTERNA-DERECHA">
		<polygon class="st3" points="3261.5,1140.7 4318.6,1141.2 3968.6,1050.7 3260.6,1050.2 		"/>
		<rect x="3261" y="1137.9" class="st3" width="1058" height="84.7"/>
	</g>
	<g id="DIVISION-HORIZONTAL-EXTREMA-DERECHA">
		<polygon class="st3" points="4546.8,1145.7 5722.5,1146.2 5346.2,1055.7 4545.7,1055.2 		"/>
		<rect x="4546.2" y="1142.9" class="st3" width="1176.8" height="84.7"/>
	</g>
</g>
<g id="LATERAL-IZQUIERDA">
	<polygon class="st0" points="586.1,1997.2 120,1883.8 121.1,180.2 586.1,300 	"/>
	<rect x="585" y="299.2" class="st0" width="90" height="1698"/>
</g>
<g id="TECHO">
	<polygon class="st3" points="585,291.7 121.1,170.7 121.1,91.7 585,206.7 	"/>
	<rect x="591.9" y="206.7" class="st3" width="5239.2" height="85"/>
	<polyline class="st3" points="114.7,89.7 585.6,207.2 5831.7,206.4 5282.5,85.7 114.7,89.7 5283.1,85.7 	"/>
</g>
<g id="TABLITA-PUERTA">
	<g>
		<rect x="3111.7" y="290.7" class="st1" width="59" height="1709.5"/>
		<polygon class="st1" points="3112.2,1997.7 3016.2,1973.7 3016,291.2 3112.2,291.7 		"/>
	</g>
	<path d="M3048.2,396c10.6,11.5,26.4,10.4,35.3-2.3c8.8-12.8,7.4-32.4-3.2-43.9c-10.6-11.5-26.4-10.4-35.3,2.3
		C3036.1,364.9,3037.5,384.5,3048.2,396z M3055.9,357.8c0.6-0.5,0.9,0.1,0.9,0.1s2.4,2.9,4.7,5.6c2.8,2.4,4.4,0.2,4.4,0.2
		s4.2-5.4,4.5-5.8c0.4-0.4,0.8,0.1,0.8,0.1l1.2,1.5c0,0,2.8,3.4,3.2,3.9c0.3,0.6,0.1,1.1,0.1,1.1s-2.6,3.2-4.3,5.8
		c-1.6,2.7,0.2,5.6,0.2,5.6l2.5,3c0,0,2,2.3,2.4,2.9c0.3,0.7,0,1.1,0,1.1s-3.5,4.6-3.9,5.2c-0.4,0.6-1.1,0.1-1.1,0.1
		s-2.8-3.5-4.8-5.8c-2.2-2.1-4.4,0.1-4.4,0.1s-3.9,5.1-4.3,5.6c-0.6,0.2-0.8-0.1-0.8-0.1s-3.6-4.3-4.2-5.1c-0.7-0.8-0.2-1.5-0.2-1.5
		l3.4-4.5c2.5-3.2,0.7-6.4,0.7-6.4l-4.8-5.8c0,0-0.5-0.6-0.3-1.3C3051.9,363,3055.3,358.4,3055.9,357.8z"/>
	<path d="M3048.4,1214.7c10.6,11.5,26.4,10.4,35.3-2.3c8.8-12.8,7.4-32.4-3.2-43.9s-26.4-10.4-35.3,2.3
		C3036.4,1183.5,3037.8,1203.2,3048.4,1214.7z M3056.1,1176.4c0.6-0.5,0.9,0.1,0.9,0.1s2.4,2.9,4.7,5.6c2.8,2.4,4.4,0.2,4.4,0.2
		s4.2-5.4,4.5-5.8c0.4-0.4,0.8,0.1,0.8,0.1l1.2,1.5c0,0,2.8,3.4,3.2,3.9c0.3,0.6,0.1,1.1,0.1,1.1s-2.6,3.2-4.3,5.8
		c-1.6,2.7,0.2,5.6,0.2,5.6l2.5,3c0,0,2,2.3,2.4,2.9c0.3,0.7,0,1.1,0,1.1s-3.5,4.6-3.9,5.2c-0.4,0.6-1.1,0.1-1.1,0.1
		s-2.8-3.5-4.8-5.8c-2.2-2.1-4.4,0.1-4.4,0.1s-3.9,5.1-4.3,5.6c-0.6,0.2-0.8-0.1-0.8-0.1s-3.6-4.3-4.2-5.1c-0.7-0.8-0.2-1.5-0.2-1.5
		l3.4-4.5c2.5-3.2,0.7-6.4,0.7-6.4l-4.8-5.8c0,0-0.5-0.6-0.3-1.3C3052.2,1181.7,3055.6,1177.1,3056.1,1176.4z"/>
	<path d="M3048.4,1943.7c10.6,11.5,26.4,10.4,35.3-2.3c8.8-12.8,7.4-32.4-3.2-43.9s-26.4-10.4-35.3,2.3
		C3036.4,1912.5,3037.8,1932.2,3048.4,1943.7z M3056.1,1905.4c0.6-0.5,0.9,0.1,0.9,0.1s2.4,2.9,4.7,5.6c2.8,2.4,4.4,0.2,4.4,0.2
		s4.2-5.4,4.5-5.8c0.4-0.4,0.8,0.1,0.8,0.1l1.2,1.5c0,0,2.8,3.4,3.2,3.9c0.3,0.6,0.1,1.1,0.1,1.1s-2.6,3.2-4.3,5.8
		c-1.6,2.7,0.2,5.6,0.2,5.6l2.5,3c0,0,2,2.3,2.4,2.9c0.3,0.7,0,1.1,0,1.1s-3.5,4.6-3.9,5.2c-0.4,0.6-1.1,0.1-1.1,0.1
		s-2.8-3.5-4.8-5.8c-2.2-2.1-4.4,0.1-4.4,0.1s-3.9,5.1-4.3,5.6c-0.6,0.2-0.8-0.1-0.8-0.1s-3.6-4.3-4.2-5.1c-0.7-0.8-0.2-1.5-0.2-1.5
		l3.4-4.5c2.5-3.2,0.7-6.4,0.7-6.4l-4.8-5.8c0,0-0.5-0.6-0.3-1.3C3052.2,1910.7,3055.6,1906.1,3056.1,1905.4z"/>
</g>
<g id="SOPORTES-COOK">
	<polygon class="st4" points="4222.2,1284.8 4222.2,1315.6 4281,1315.6 4281,1282.6 4281,1223.5 4199.3,1223.5 4199.3,1255.2 
		4222.2,1255.4 	"/>
	<polygon class="st4" points="5396.9,1280.7 5396.9,1307.4 5445.8,1307.4 5445.8,1278.8 5445.8,1227.8 5377.8,1227.8 5377.8,1255.2 
		5396.9,1255.4 	"/>
	<polygon class="st4" points="5585,1289.5 5585,1320.4 5643.8,1320.4 5643.8,1287.3 5643.8,1228.3 5562.1,1228.3 5562.1,1259.9 
		5585,1260.2 	"/>
	<polygon class="st5" points="1429.8,1266.5 1429.8,1293.2 1478.7,1293.2 1478.7,1264.6 1478.7,1213.6 1410.7,1213.6 1410.7,1241 
		1429.8,1241.2 	"/>
	<polygon class="st5" points="1618,1275.3 1618,1306.2 1676.7,1306.2 1676.7,1273.1 1676.7,1214 1595,1214 1595,1245.7 1618,1246 	
		"/>
	<polygon class="st4" points="2741.3,1268.7 2741.3,1295.4 2790.2,1295.4 2790.2,1266.8 2790.2,1215.8 2722.2,1215.8 2722.2,1243.2 
		2741.3,1243.4 	"/>
	<polygon class="st4" points="2929.5,1277.5 2929.5,1308.4 2988.2,1308.4 2988.2,1275.3 2988.2,1216.3 2906.5,1216.3 2906.5,1247.9 
		2929.5,1248.2 	"/>
	<polygon class="st4" points="4034.1,1276 4034.1,1302.6 4083,1302.6 4083,1274.1 4083,1223.1 4015,1223.1 4015,1250.4 
		4034.1,1250.6 	"/>
	<polygon class="st5" points="749.2,1245.4 728.4,1245.7 728.4,1275 728.4,1305.9 675.2,1305.9 675.2,1272.8 675.2,1213.7 
		749.2,1213.7 	"/>
	<polygon class="st5" points="2012.3,1248.4 1991.5,1248.7 1991.5,1278 1991.5,1308.9 1938.3,1308.9 1938.3,1275.8 1938.3,1216.8 
		2012.3,1216.8 	"/>
	<polygon class="st4" points="3333.7,1254.4 3312.9,1254.7 3312.9,1284 3312.9,1314.9 3259.7,1314.9 3259.7,1281.8 3259.7,1222.8 
		3333.7,1222.8 	"/>
	<polygon class="st4" points="4620.3,1259.9 4599.5,1260.2 4599.5,1289.5 4599.5,1320.4 4546.3,1320.4 4546.3,1287.3 4546.3,1228.3 
		4620.3,1228.3 	"/>
</g>
</svg>
