<?xml version="1.0" encoding="utf-8"?>
<!-- Generator: Adobe Illustrator 26.5.0, SVG Export Plug-In . SVG Version: 6.00 Build 0)  -->
<svg version="1.1" id="CLOSET" xmlns="http://www.w3.org/2000/svg" xmlns:xlink="http://www.w3.org/1999/xlink" x="0px" y="0px"
	 viewBox="0 0 5922.9 2203.1" style="enable-background:new 0 0 5922.9 2203.1;" xml:space="preserve">
<style type="text/css">
	.st0{fill:#EAEAEA;stroke:#000000;stroke-width:14.0847;stroke-miterlimit:10;}
	.st1{fill:#EAEAEA;stroke:#000000;stroke-width:14.0599;stroke-miterlimit:10;}
	.st2{fill:#CCCCCC;stroke:#B2C411;stroke-width:30;stroke-miterlimit:10;}
	.st3{fill:#EAEAEA;stroke:#000000;stroke-width:13.9944;stroke-miterlimit:10;}
	.st4{fill:#EAEAEA;stroke:#000000;stroke-width:14.027;stroke-miterlimit:10;}
	.st5{fill:#EAEAEA;stroke:#000000;stroke-width:14.0209;stroke-miterlimit:10;}
	.st6{fill:#EAEAEA;stroke:#000000;stroke-width:14.7808;stroke-miterlimit:10;}
	.st7{fill:#EAEAEA;stroke:#000000;stroke-width:14.0229;stroke-miterlimit:10;}
	.st8{fill:#EAEAEA;stroke:#000000;stroke-width:14.098;stroke-miterlimit:10;}
	.st9{fill:#EAEAEA;stroke:#000000;stroke-width:14.2105;stroke-miterlimit:10;}
	.st10{fill:#EAEAEA;stroke:#000000;stroke-width:14.1992;stroke-miterlimit:10;}
	.st11{fill:#EAEAEA;stroke:#000000;stroke-width:14.3118;stroke-miterlimit:10;}
	.st12{fill:#EAEAEA;stroke:#000000;stroke-width:14.0889;stroke-miterlimit:10;}
	.st13{fill:#DBDBDB;stroke:#000000;stroke-width:9.2534;stroke-miterlimit:10;}
	.st14{fill:#E8E8E8;stroke:#000000;stroke-width:9.2534;stroke-miterlimit:10;}
</style>
<g id="LATERAL-DERECHA">
	<polygon class="st0" points="5726.4,2012.2 5187.7,1895.9 5189.8,290.2 5726.4,291.4 	"/>
	<rect x="5727" y="291.2" class="st1" width="103.6" height="1722"/>
</g>
<g id="TABLITA-TRASERA">
	<rect x="5289.5" y="299.2" class="st2" width="59" height="1603"/>
	<polygon class="st2" points="5290,1899.8 5194,1877.3 5193.8,299.6 5290,300.1 	"/>
	<path d="M5225.5,479.4c10.6,10.8,26.4,9.8,35.3-2.2c8.8-12,7.4-30.4-3.2-41.2s-26.4-9.8-35.3,2.2
		C5213.4,450.1,5214.9,468.6,5225.5,479.4z M5233.2,443.5c0.6-0.5,0.9,0.1,0.9,0.1s2.4,2.8,4.7,5.3c2.8,2.2,4.4,0.2,4.4,0.2
		s4.2-5.1,4.5-5.5c0.4-0.4,0.8,0.1,0.8,0.1l1.2,1.4c0,0,2.8,3.2,3.2,3.6c0.3,0.6,0.1,1,0.1,1s-2.6,3-4.3,5.4
		c-1.6,2.6,0.2,5.2,0.2,5.2l2.5,2.8c0,0,2,2.2,2.4,2.7c0.3,0.7,0,1,0,1s-3.5,4.3-3.9,4.8c-0.4,0.6-1.1,0-1.1,0s-2.8-3.3-4.8-5.4
		c-2.2-1.9-4.4,0-4.4,0s-3.9,4.8-4.3,5.3c-0.6,0.2-0.8-0.1-0.8-0.1s-3.6-4-4.2-4.8c-0.7-0.8-0.2-1.4-0.2-1.4l3.4-4.2
		c2.5-3,0.7-6,0.7-6l-4.8-5.4c0,0-0.5-0.6-0.3-1.2C5229.3,448.4,5232.6,444.1,5233.2,443.5z"/>
	<path d="M5225.5,1829.6c10.6,10.8,26.4,9.8,35.3-2.2c8.8-12,7.4-30.4-3.2-41.2c-10.6-10.8-26.4-9.8-35.3,2.2
		S5214.9,1818.9,5225.5,1829.6z M5233.2,1793.8c0.6-0.5,0.9,0.1,0.9,0.1s2.4,2.8,4.7,5.3c2.8,2.2,4.4,0.2,4.4,0.2s4.2-5.1,4.5-5.5
		c0.4-0.4,0.8,0.1,0.8,0.1l1.2,1.4c0,0,2.8,3.2,3.2,3.6c0.3,0.6,0.1,1,0.1,1s-2.6,3-4.3,5.4c-1.6,2.6,0.2,5.2,0.2,5.2l2.5,2.8
		c0,0,2,2.2,2.4,2.7c0.3,0.7,0,1,0,1s-3.5,4.3-3.9,4.8c-0.4,0.6-1.1,0-1.1,0s-2.8-3.3-4.8-5.4c-2.2-1.9-4.4,0-4.4,0
		s-3.9,4.8-4.3,5.3c-0.6,0.2-0.8-0.1-0.8-0.1s-3.6-4-4.2-4.8c-0.7-0.8-0.2-1.4-0.2-1.4l3.4-4.2c2.5-3,0.7-6,0.7-6l-4.8-5.4
		c0,0-0.5-0.6-0.3-1.2C5229.3,1798.7,5232.6,1794.4,5233.2,1793.8z"/>
	<path d="M5225.5,1045.5c10.6,10.8,26.4,9.8,35.3-2.2c8.8-12,7.4-30.4-3.2-41.2s-26.4-9.8-35.3,2.2
		C5213.4,1016.3,5214.9,1034.8,5225.5,1045.5z M5233.2,1009.7c0.6-0.5,0.9,0.1,0.9,0.1s2.4,2.8,4.7,5.3c2.8,2.2,4.4,0.2,4.4,0.2
		s4.2-5.1,4.5-5.5c0.4-0.4,0.8,0.1,0.8,0.1l1.2,1.4c0,0,2.8,3.2,3.2,3.6c0.3,0.6,0.1,1,0.1,1s-2.6,3-4.3,5.4
		c-1.6,2.6,0.2,5.2,0.2,5.2l2.5,2.8c0,0,2,2.2,2.4,2.7c0.3,0.7,0,1,0,1s-3.5,4.3-3.9,4.8c-0.4,0.6-1.1,0-1.1,0s-2.8-3.3-4.8-5.4
		c-2.2-1.9-4.4,0-4.4,0s-3.9,4.8-4.3,5.3c-0.6,0.2-0.8-0.1-0.8-0.1s-3.6-4-4.2-4.8c-0.7-0.8-0.2-1.4-0.2-1.4l3.4-4.2
		c2.5-3,0.7-6,0.7-6l-4.8-5.4c0,0-0.5-0.6-0.3-1.2C5229.2,1014.6,5232.6,1010.3,5233.2,1009.7z"/>
</g>
<g id="BASE">
	<polyline class="st3" points="5182.4,1891 673.5,1897.2 5181.8,1891 5726.9,2011.7 590.8,2012 590.8,1902.9 672.4,1898.2 	"/>
	<rect x="595.1" y="2012.2" class="st3" width="5234.8" height="86.5"/>
	<polyline class="st3" points="584.4,2012 120.4,1897 120.4,1976 584.4,2097 585,2011.7 	"/>
</g>
<g id="DIVISIONES-VERTICALES">
	<g id="DIVISION-VERTICAL-DERECHA">
		<polygon class="st4" points="4457.1,2011.9 3991,1896.9 3992.2,290.2 4457.1,290.4 		"/>
		<rect x="4457" y="290.2" class="st4" width="90" height="1722.5"/>
	</g>
	<g id="DIVISION-CENTRAL">
		<polygon class="st5" points="3171.2,2011.9 2705.2,1897 2706.2,291.7 3171.2,291.9 		"/>
		<rect x="3170.7" y="291.2" class="st6" width="89.8" height="1721.5"/>
	</g>
	<g id="DIVISION-VERTICAL-IZQUIERDA_00000085229740836627909760000005526871516412138418_">
		<polygon class="st7" points="1849.1,2012.3 1383.1,1897.3 1384.2,291.6 1849.1,291.2 		"/>
		<rect x="1848" y="291.6" class="st7" width="90" height="1719.7"/>
	</g>
</g>
<g id="DIVISIONES-HORIZONTALES">
	<g id="DIVISION-HORIZONTAL-EXTREMA-IZQUIERDA">
		<polygon class="st8" points="676.2,1131.7 1733.3,1132.2 1383.2,1041.7 675.2,1041.2 		"/>
		<rect x="675.7" y="1128.9" class="st8" width="1058" height="84.7"/>
	</g>
	<g id="DIVISION-HORIZONTAL-INTERNA-IZQUIERDA">
		<polygon class="st9" points="1938.7,1136 3015.2,1136.5 2720.1,1045.7 1937.7,1045.5 		"/>
		<rect x="1938.2" y="1133.2" class="st9" width="1077.5" height="84.7"/>
	</g>
	<g id="DIVISION-HORIZONTAL-INTERNA-DERECHA">
		<polygon class="st10" points="3263.7,1140.7 4318.6,1141.2 3969.3,1050.7 3262.7,1050.2 		"/>
		<rect x="3263.2" y="1137.9" class="st10" width="1055.9" height="84.7"/>
	</g>
	<g id="DIVISION-HORIZONTAL-EXTREMA-DERECHA">
		<polygon class="st11" points="4547.8,1145.7 5726.2,1146.2 5349.1,1055.7 4546.7,1055.2 		"/>
		<rect x="4547.2" y="1142.9" class="st11" width="1179.5" height="84.7"/>
	</g>
</g>
<g id="LATERAL-IZQUIERDA">
	<polygon class="st8" points="586.1,2012.2 120,1897.1 121.1,168.2 586.1,289.8 	"/>
	<rect x="585" y="291.2" class="st12" width="90" height="1721"/>
</g>
<g id="TABLITA-TRASERA-ESCONDIDA">
	<polygon class="st2" points="313.1,1920.2 254.1,1920.2 254.2,221.8 313.7,215.2 	"/>
	<polygon class="st2" points="254.6,1917.7 158.6,1894.1 158.2,197.2 254.2,221.8 	"/>
</g>
<g id="TECHO">
	<polygon class="st3" points="585,291.7 121.1,170.7 121.1,91.7 585,206.7 	"/>
	<rect x="591.9" y="206.7" class="st3" width="5239.2" height="85"/>
	<polyline class="st3" points="114.7,89.7 585.6,207.2 5831.7,206.4 5282.5,85.7 114.7,89.7 5283.1,85.7 	"/>
</g>
<g id="TABLITA-PUERTA">
	<g>
		<rect x="3111.7" y="309.2" class="st2" width="59" height="1686"/>
		<polygon class="st2" points="3112.2,1995.2 3016.2,1971.5 3016,309.7 3112.2,310.2 		"/>
	</g>
	<path d="M3048.2,396c10.6,11.5,26.4,10.4,35.3-2.3c8.8-12.8,7.4-32.4-3.2-43.9c-10.6-11.5-26.4-10.4-35.3,2.3
		C3036.1,364.9,3037.5,384.5,3048.2,396z M3055.9,357.8c0.6-0.5,0.9,0.1,0.9,0.1s2.4,2.9,4.7,5.6c2.8,2.4,4.4,0.2,4.4,0.2
		s4.2-5.4,4.5-5.8c0.4-0.4,0.8,0.1,0.8,0.1l1.2,1.5c0,0,2.8,3.4,3.2,3.9c0.3,0.6,0.1,1.1,0.1,1.1s-2.6,3.2-4.3,5.8
		c-1.6,2.7,0.2,5.6,0.2,5.6l2.5,3c0,0,2,2.3,2.4,2.9c0.3,0.7,0,1.1,0,1.1s-3.5,4.6-3.9,5.2s-1.1,0.1-1.1,0.1s-2.8-3.5-4.8-5.8
		c-2.2-2.1-4.4,0.1-4.4,0.1s-3.9,5.1-4.3,5.6c-0.6,0.2-0.8-0.1-0.8-0.1s-3.6-4.3-4.2-5.1c-0.7-0.8-0.2-1.5-0.2-1.5l3.4-4.5
		c2.5-3.2,0.7-6.4,0.7-6.4l-4.8-5.8c0,0-0.5-0.6-0.3-1.3C3051.9,363,3055.3,358.4,3055.9,357.8z"/>
	<path d="M3048.4,1214.7c10.6,11.5,26.4,10.4,35.3-2.3c8.8-12.8,7.4-32.4-3.2-43.9s-26.4-10.4-35.3,2.3
		C3036.4,1183.5,3037.8,1203.2,3048.4,1214.7z M3056.1,1176.4c0.6-0.5,0.9,0.1,0.9,0.1s2.4,2.9,4.7,5.6c2.8,2.4,4.4,0.2,4.4,0.2
		s4.2-5.4,4.5-5.8c0.4-0.4,0.8,0.1,0.8,0.1l1.2,1.5c0,0,2.8,3.4,3.2,3.9c0.3,0.6,0.1,1.1,0.1,1.1s-2.6,3.2-4.3,5.8
		c-1.6,2.7,0.2,5.6,0.2,5.6l2.5,3c0,0,2,2.3,2.4,2.9c0.3,0.7,0,1.1,0,1.1s-3.5,4.6-3.9,5.2s-1.1,0.1-1.1,0.1s-2.8-3.5-4.8-5.8
		c-2.2-2.1-4.4,0.1-4.4,0.1s-3.9,5.1-4.3,5.6c-0.6,0.2-0.8-0.1-0.8-0.1s-3.6-4.3-4.2-5.1c-0.7-0.8-0.2-1.5-0.2-1.5l3.4-4.5
		c2.5-3.2,0.7-6.4,0.7-6.4l-4.8-5.8c0,0-0.5-0.6-0.3-1.3C3052.2,1181.7,3055.6,1177.1,3056.1,1176.4z"/>
	<path d="M3048.4,1943.7c10.6,11.5,26.4,10.4,35.3-2.3c8.8-12.8,7.4-32.4-3.2-43.9s-26.4-10.4-35.3,2.3
		C3036.4,1912.5,3037.8,1932.2,3048.4,1943.7z M3056.1,1905.4c0.6-0.5,0.9,0.1,0.9,0.1s2.4,2.9,4.7,5.6c2.8,2.4,4.4,0.2,4.4,0.2
		s4.2-5.4,4.5-5.8c0.4-0.4,0.8,0.1,0.8,0.1l1.2,1.5c0,0,2.8,3.4,3.2,3.9c0.3,0.6,0.1,1.1,0.1,1.1s-2.6,3.2-4.3,5.8
		c-1.6,2.7,0.2,5.6,0.2,5.6l2.5,3c0,0,2,2.3,2.4,2.9c0.3,0.7,0,1.1,0,1.1s-3.5,4.6-3.9,5.2s-1.1,0.1-1.1,0.1s-2.8-3.5-4.8-5.8
		c-2.2-2.1-4.4,0.1-4.4,0.1s-3.9,5.1-4.3,5.6c-0.6,0.2-0.8-0.1-0.8-0.1s-3.6-4.3-4.2-5.1c-0.7-0.8-0.2-1.5-0.2-1.5l3.4-4.5
		c2.5-3.2,0.7-6.4,0.7-6.4l-4.8-5.8c0,0-0.5-0.6-0.3-1.3C3052.2,1910.7,3055.6,1906.1,3056.1,1905.4z"/>
</g>
<g id="SOPORTES-COOK">
	<polygon class="st13" points="4213.2,1288.8 4213.2,1319.6 4272,1319.6 4272,1286.6 4272,1227.5 4190.3,1227.5 4190.3,1259.2 
		4213.2,1259.4 	"/>
	<polygon class="st13" points="5396.9,1280.7 5396.9,1307.4 5445.8,1307.4 5445.8,1278.8 5445.8,1227.8 5377.8,1227.8 
		5377.8,1255.2 5396.9,1255.4 	"/>
	<polygon class="st13" points="5585,1289.5 5585,1320.4 5643.8,1320.4 5643.8,1287.3 5643.8,1228.3 5562.1,1228.3 5562.1,1259.9 
		5585,1260.2 	"/>
	<polygon class="st14" points="1435.8,1270.5 1435.8,1297.2 1484.7,1297.2 1484.7,1268.6 1484.7,1217.6 1416.7,1217.6 1416.7,1245 
		1435.8,1245.2 	"/>
	<polygon class="st14" points="1624,1279.3 1624,1310.2 1682.7,1310.2 1682.7,1277.1 1682.7,1218 1601,1218 1601,1249.7 1624,1250 	
		"/>
	<polygon class="st13" points="2729.3,1273.7 2729.3,1300.4 2778.2,1300.4 2778.2,1271.8 2778.2,1220.8 2710.2,1220.8 
		2710.2,1248.2 2729.3,1248.4 	"/>
	<polygon class="st13" points="2917.5,1282.5 2917.5,1313.4 2976.2,1313.4 2976.2,1280.3 2976.2,1221.3 2894.5,1221.3 
		2894.5,1252.9 2917.5,1253.2 	"/>
	<polygon class="st13" points="4025.1,1280 4025.1,1306.6 4074,1306.6 4074,1278.1 4074,1227.1 4006,1227.1 4006,1254.4 
		4025.1,1254.6 	"/>
	<polygon class="st14" points="748.2,1243.4 727.4,1243.7 727.4,1273 727.4,1303.9 674.2,1303.9 674.2,1270.8 674.2,1211.7 
		748.2,1211.7 	"/>
	<polygon class="st14" points="2012.3,1249.4 1991.5,1249.7 1991.5,1279 1991.5,1309.9 1938.3,1309.9 1938.3,1276.8 1938.3,1217.8 
		2012.3,1217.8 	"/>
	<polygon class="st13" points="3334.7,1254.4 3313.9,1254.7 3313.9,1284 3313.9,1314.9 3260.7,1314.9 3260.7,1281.8 3260.7,1222.8 
		3334.7,1222.8 	"/>
	<polygon class="st13" points="4621.3,1258.9 4600.5,1259.2 4600.5,1288.5 4600.5,1319.4 4547.3,1319.4 4547.3,1286.3 
		4547.3,1227.3 4621.3,1227.3 	"/>
</g>
</svg>
