<?xml version="1.0" encoding="utf-8"?>
<!-- Generator: Adobe Illustrator 26.5.0, SVG Export Plug-In . SVG Version: 6.00 Build 0)  -->
<svg version="1.1" id="CLOSET" xmlns="http://www.w3.org/2000/svg" xmlns:xlink="http://www.w3.org/1999/xlink" x="0px" y="0px"
	 viewBox="0 0 5922.9 2203.1" style="enable-background:new 0 0 5922.9 2203.1;" xml:space="preserve">
<style type="text/css">
	.st0{fill:#EAEAEA;stroke:#000000;stroke-width:14.0847;stroke-miterlimit:10;}
	.st1{fill:#EAEAEA;stroke:#000000;stroke-width:14.0599;stroke-miterlimit:10;}
	.st2{fill:#CCCCCC;stroke:#DAD528;stroke-width:19.5779;stroke-miterlimit:10;}
	.st3{fill:#EAEAEA;stroke:#000000;stroke-width:14.1229;stroke-miterlimit:10;}
	.st4{fill:#EAEAEA;stroke:#000000;stroke-width:13.9944;stroke-miterlimit:10;}
	.st5{fill:#EAEAEA;stroke:#000000;stroke-width:14.027;stroke-miterlimit:10;}
	.st6{fill:#EAEAEA;stroke:#000000;stroke-width:14.0209;stroke-miterlimit:10;}
	.st7{fill:#EAEAEA;stroke:#000000;stroke-width:14.7808;stroke-miterlimit:10;}
	.st8{fill:#EAEAEA;stroke:#000000;stroke-width:14.0229;stroke-miterlimit:10;}
	.st9{fill:#EAEAEA;stroke:#000000;stroke-width:14.098;stroke-miterlimit:10;}
	.st10{fill:#EAEAEA;stroke:#000000;stroke-width:14.2105;stroke-miterlimit:10;}
	.st11{fill:#EAEAEA;stroke:#000000;stroke-width:14.1992;stroke-miterlimit:10;}
	.st12{fill:#EAEAEA;stroke:#000000;stroke-width:14.3118;stroke-miterlimit:10;}
	.st13{fill:#EAEAEA;stroke:#000000;stroke-width:14.0889;stroke-miterlimit:10;}
	.st14{fill:#EAEAEA;stroke:#000000;stroke-width:14.1772;stroke-miterlimit:10;}
	.st15{fill:#EAEAEA;stroke:#000000;stroke-width:14.171;stroke-miterlimit:10;}
	.st16{fill:#DBDBDB;stroke:#A8A820;stroke-width:25;stroke-miterlimit:10;}
	.st17{fill:#E8E8E8;stroke:#A8A820;stroke-width:25;stroke-miterlimit:10;}
</style>
<g id="LATERAL-DERECHA">
	<polygon class="st0" points="5726.4,2012.2 5187.7,1895.9 5189.8,290.2 5726.4,291.4 	"/>
	<rect x="5727" y="291.2" class="st1" width="103.6" height="1722"/>
</g>
<g id="TABLITA-TRASERA-ESCONDIDA">
	<polygon class="st2" points="313.1,1920.2 254.1,1920.2 254.2,221.8 313.7,215.2 	"/>
	<polygon class="st2" points="254.6,1917.7 158.6,1894.1 158.2,197.2 254.2,221.8 	"/>
</g>
<g id="TABLITA-TRASERA">
	<rect x="5283.5" y="291.2" class="st3" width="59" height="1625"/>
	<polygon class="st3" points="5284,1913.8 5188,1891 5187.8,291.7 5284,292.1 	"/>
	<path d="M5219.5,479.4c10.6,10.8,26.4,9.8,35.3-2.2c8.8-12,7.4-30.4-3.2-41.2s-26.4-9.8-35.3,2.2
		C5207.4,450.1,5208.9,468.6,5219.5,479.4z M5227.2,443.5c0.6-0.5,0.9,0.1,0.9,0.1s2.4,2.8,4.7,5.3c2.8,2.2,4.4,0.2,4.4,0.2
		s4.2-5.1,4.5-5.5c0.4-0.4,0.8,0.1,0.8,0.1l1.2,1.4c0,0,2.8,3.2,3.2,3.6c0.3,0.6,0.1,1,0.1,1s-2.6,3-4.3,5.4
		c-1.6,2.6,0.2,5.2,0.2,5.2l2.5,2.8c0,0,2,2.2,2.4,2.7c0.3,0.7,0,1,0,1s-3.5,4.3-3.9,4.8c-0.4,0.6-1.1,0-1.1,0s-2.8-3.3-4.8-5.4
		c-2.2-1.9-4.4,0-4.4,0s-3.9,4.8-4.3,5.3c-0.6,0.2-0.8-0.1-0.8-0.1s-3.6-4-4.2-4.8c-0.7-0.8-0.2-1.4-0.2-1.4l3.4-4.2
		c2.5-3,0.7-6,0.7-6l-4.8-5.4c0,0-0.5-0.6-0.3-1.2C5223.3,448.4,5226.6,444.1,5227.2,443.5z"/>
	<path d="M5219.5,1829.6c10.6,10.8,26.4,9.8,35.3-2.2c8.8-12,7.4-30.4-3.2-41.2c-10.6-10.8-26.4-9.8-35.3,2.2
		C5207.4,1800.4,5208.9,1818.9,5219.5,1829.6z M5227.2,1793.8c0.6-0.5,0.9,0.1,0.9,0.1s2.4,2.8,4.7,5.3c2.8,2.2,4.4,0.2,4.4,0.2
		s4.2-5.1,4.5-5.5c0.4-0.4,0.8,0.1,0.8,0.1l1.2,1.4c0,0,2.8,3.2,3.2,3.6c0.3,0.6,0.1,1,0.1,1s-2.6,3-4.3,5.4
		c-1.6,2.6,0.2,5.2,0.2,5.2l2.5,2.8c0,0,2,2.2,2.4,2.7c0.3,0.7,0,1,0,1s-3.5,4.3-3.9,4.8c-0.4,0.6-1.1,0-1.1,0s-2.8-3.3-4.8-5.4
		c-2.2-1.9-4.4,0-4.4,0s-3.9,4.8-4.3,5.3c-0.6,0.2-0.8-0.1-0.8-0.1s-3.6-4-4.2-4.8c-0.7-0.8-0.2-1.4-0.2-1.4l3.4-4.2
		c2.5-3,0.7-6,0.7-6l-4.8-5.4c0,0-0.5-0.6-0.3-1.2C5223.3,1798.7,5226.6,1794.4,5227.2,1793.8z"/>
	<path d="M5219.5,1045.5c10.6,10.8,26.4,9.8,35.3-2.2c8.8-12,7.4-30.4-3.2-41.2s-26.4-9.8-35.3,2.2
		C5207.4,1016.3,5208.9,1034.8,5219.5,1045.5z M5227.2,1009.7c0.6-0.5,0.9,0.1,0.9,0.1s2.4,2.8,4.7,5.3c2.8,2.2,4.4,0.2,4.4,0.2
		s4.2-5.1,4.5-5.5c0.4-0.4,0.8,0.1,0.8,0.1l1.2,1.4c0,0,2.8,3.2,3.2,3.6c0.3,0.6,0.1,1,0.1,1s-2.6,3-4.3,5.4
		c-1.6,2.6,0.2,5.2,0.2,5.2l2.5,2.8c0,0,2,2.2,2.4,2.7c0.3,0.7,0,1,0,1s-3.5,4.3-3.9,4.8c-0.4,0.6-1.1,0-1.1,0s-2.8-3.3-4.8-5.4
		c-2.2-1.9-4.4,0-4.4,0s-3.9,4.8-4.3,5.3c-0.6,0.2-0.8-0.1-0.8-0.1s-3.6-4-4.2-4.8c-0.7-0.8-0.2-1.4-0.2-1.4l3.4-4.2
		c2.5-3,0.7-6,0.7-6l-4.8-5.4c0,0-0.5-0.6-0.3-1.2C5223.2,1014.6,5226.6,1010.3,5227.2,1009.7z"/>
</g>
<g id="BASE">
	<polyline class="st4" points="5182.4,1891 673.5,1897.2 5181.8,1891 5726.9,2011.7 590.8,2012 590.8,1902.9 672.4,1898.2 	"/>
	<rect x="595.1" y="2012.2" class="st4" width="5234.8" height="86.5"/>
	<polyline class="st4" points="584.4,2012 120.4,1897 120.4,1976 584.4,2097 585,2011.7 	"/>
</g>
<g id="DIVISIONES-VERTICALES">
	<g id="DIVISION-VERTICAL-DERECHA">
		<polygon class="st5" points="4457.1,2011.9 3991,1896.9 3992.2,290.2 4457.1,290.4 		"/>
		<rect x="4457" y="290.2" class="st5" width="90" height="1722.5"/>
	</g>
	<g id="DIVISION-CENTRAL">
		<polygon class="st6" points="3171.2,2011.9 2705.2,1897 2706.2,291.7 3171.2,291.9 		"/>
		<rect x="3170.7" y="291.2" class="st7" width="89.8" height="1721.5"/>
	</g>
	<g id="DIVISION-VERTICAL-IZQUIERDA_00000085229740836627909760000005526871516412138418_">
		<polygon class="st8" points="1849.1,2012.3 1383.1,1897.3 1384.2,291.6 1849.1,291.2 		"/>
		<rect x="1848" y="291.6" class="st8" width="90" height="1719.7"/>
	</g>
</g>
<g id="DIVISIONES-HORIZONTALES">
	<g id="DIVISION-HORIZONTAL-EXTREMA-IZQUIERDA">
		<polygon class="st9" points="676.2,1131.7 1733.3,1132.2 1383.2,1041.7 675.2,1041.2 		"/>
		<rect x="675.7" y="1128.9" class="st9" width="1058" height="84.7"/>
	</g>
	<g id="DIVISION-HORIZONTAL-INTERNA-IZQUIERDA">
		<polygon class="st10" points="1938.7,1136 3015.2,1136.5 2720.1,1045.7 1937.7,1045.5 		"/>
		<rect x="1938.2" y="1133.2" class="st10" width="1077.5" height="84.7"/>
	</g>
	<g id="DIVISION-HORIZONTAL-INTERNA-DERECHA">
		<polygon class="st11" points="3263.7,1140.7 4318.6,1141.2 3969.3,1050.7 3262.7,1050.2 		"/>
		<rect x="3263.2" y="1137.9" class="st11" width="1055.9" height="84.7"/>
	</g>
	<g id="DIVISION-HORIZONTAL-EXTREMA-DERECHA">
		<polygon class="st12" points="4547.8,1145.7 5726.2,1146.2 5349.1,1055.7 4546.7,1055.2 		"/>
		<rect x="4547.2" y="1142.9" class="st12" width="1179.5" height="84.7"/>
	</g>
</g>
<g id="LATERAL-IZQUIERDA">
	<polygon class="st9" points="586.1,2012.2 120,1897.1 121.1,168.2 586.1,289.8 	"/>
	<rect x="585" y="291.2" class="st13" width="90" height="1721"/>
</g>
<g id="TECHO">
	<polygon class="st4" points="585,291.7 121.1,170.7 121.1,91.7 585,206.7 	"/>
	<rect x="591.9" y="206.7" class="st4" width="5239.2" height="85"/>
	<polyline class="st4" points="114.7,89.7 585.6,207.2 5831.7,206.4 5282.5,85.7 114.7,89.7 5283.1,85.7 	"/>
</g>
<g id="TABLITA-PUERTA">
	<g>
		<rect x="3111.7" y="292.2" class="st14" width="59" height="1705"/>
		<polygon class="st15" points="3112.2,1995.2 3016.2,1971.2 3016,292.2 3112.2,292.7 		"/>
	</g>
	<path d="M3048.2,396c10.6,11.5,26.4,10.4,35.3-2.3c8.8-12.8,7.4-32.4-3.2-43.9c-10.6-11.5-26.4-10.4-35.3,2.3
		C3036.1,364.9,3037.5,384.5,3048.2,396z M3055.9,357.8c0.6-0.5,0.9,0.1,0.9,0.1s2.4,2.9,4.7,5.6c2.8,2.4,4.4,0.2,4.4,0.2
		s4.2-5.4,4.5-5.8c0.4-0.4,0.8,0.1,0.8,0.1l1.2,1.5c0,0,2.8,3.4,3.2,3.9c0.3,0.6,0.1,1.1,0.1,1.1s-2.6,3.2-4.3,5.8
		c-1.6,2.7,0.2,5.6,0.2,5.6l2.5,3c0,0,2,2.3,2.4,2.9c0.3,0.7,0,1.1,0,1.1s-3.5,4.6-3.9,5.2c-0.4,0.6-1.1,0.1-1.1,0.1
		s-2.8-3.5-4.8-5.8c-2.2-2.1-4.4,0.1-4.4,0.1s-3.9,5.1-4.3,5.6c-0.6,0.2-0.8-0.1-0.8-0.1s-3.6-4.3-4.2-5.1c-0.7-0.8-0.2-1.5-0.2-1.5
		l3.4-4.5c2.5-3.2,0.7-6.4,0.7-6.4l-4.8-5.8c0,0-0.5-0.6-0.3-1.3C3051.9,363,3055.3,358.4,3055.9,357.8z"/>
	<path d="M3048.4,1214.7c10.6,11.5,26.4,10.4,35.3-2.3c8.8-12.8,7.4-32.4-3.2-43.9s-26.4-10.4-35.3,2.3
		C3036.4,1183.5,3037.8,1203.2,3048.4,1214.7z M3056.1,1176.4c0.6-0.5,0.9,0.1,0.9,0.1s2.4,2.9,4.7,5.6c2.8,2.4,4.4,0.2,4.4,0.2
		s4.2-5.4,4.5-5.8c0.4-0.4,0.8,0.1,0.8,0.1l1.2,1.5c0,0,2.8,3.4,3.2,3.9c0.3,0.6,0.1,1.1,0.1,1.1s-2.6,3.2-4.3,5.8
		c-1.6,2.7,0.2,5.6,0.2,5.6l2.5,3c0,0,2,2.3,2.4,2.9c0.3,0.7,0,1.1,0,1.1s-3.5,4.6-3.9,5.2c-0.4,0.6-1.1,0.1-1.1,0.1
		s-2.8-3.5-4.8-5.8c-2.2-2.1-4.4,0.1-4.4,0.1s-3.9,5.1-4.3,5.6c-0.6,0.2-0.8-0.1-0.8-0.1s-3.6-4.3-4.2-5.1c-0.7-0.8-0.2-1.5-0.2-1.5
		l3.4-4.5c2.5-3.2,0.7-6.4,0.7-6.4l-4.8-5.8c0,0-0.5-0.6-0.3-1.3C3052.2,1181.7,3055.6,1177.1,3056.1,1176.4z"/>
	<path d="M3048.4,1943.7c10.6,11.5,26.4,10.4,35.3-2.3c8.8-12.8,7.4-32.4-3.2-43.9s-26.4-10.4-35.3,2.3
		C3036.4,1912.5,3037.8,1932.2,3048.4,1943.7z M3056.1,1905.4c0.6-0.5,0.9,0.1,0.9,0.1s2.4,2.9,4.7,5.6c2.8,2.4,4.4,0.2,4.4,0.2
		s4.2-5.4,4.5-5.8c0.4-0.4,0.8,0.1,0.8,0.1l1.2,1.5c0,0,2.8,3.4,3.2,3.9c0.3,0.6,0.1,1.1,0.1,1.1s-2.6,3.2-4.3,5.8
		c-1.6,2.7,0.2,5.6,0.2,5.6l2.5,3c0,0,2,2.3,2.4,2.9c0.3,0.7,0,1.1,0,1.1s-3.5,4.6-3.9,5.2c-0.4,0.6-1.1,0.1-1.1,0.1
		s-2.8-3.5-4.8-5.8c-2.2-2.1-4.4,0.1-4.4,0.1s-3.9,5.1-4.3,5.6c-0.6,0.2-0.8-0.1-0.8-0.1s-3.6-4.3-4.2-5.1c-0.7-0.8-0.2-1.5-0.2-1.5
		l3.4-4.5c2.5-3.2,0.7-6.4,0.7-6.4l-4.8-5.8c0,0-0.5-0.6-0.3-1.3C3052.2,1910.7,3055.6,1906.1,3056.1,1905.4z"/>
</g>
<g id="SOPORTES-COOK">
	<polygon class="st16" points="4221.2,1304.8 4221.2,1335.6 4280,1335.6 4280,1302.6 4280,1243.5 4198.3,1243.5 4198.3,1275.2 
		4221.2,1275.4 	"/>
	<polygon class="st16" points="5416.9,1300.7 5416.9,1327.4 5465.8,1327.4 5465.8,1298.8 5465.8,1247.8 5397.8,1247.8 
		5397.8,1275.2 5416.9,1275.4 	"/>
	<polygon class="st16" points="5605,1309.5 5605,1340.4 5663.8,1340.4 5663.8,1307.3 5663.8,1248.3 5582.1,1248.3 5582.1,1279.9 
		5605,1280.2 	"/>
	<polygon class="st17" points="1435.8,1286.5 1435.8,1313.2 1484.7,1313.2 1484.7,1284.6 1484.7,1233.6 1416.7,1233.6 1416.7,1261 
		1435.8,1261.2 	"/>
	<polygon class="st17" points="1624,1295.3 1624,1326.2 1682.7,1326.2 1682.7,1293.1 1682.7,1234 1601,1234 1601,1265.7 1624,1266 	
		"/>
	<polygon class="st16" points="2744.3,1290.7 2744.3,1317.4 2793.2,1317.4 2793.2,1288.8 2793.2,1237.8 2725.2,1237.8 
		2725.2,1265.2 2744.3,1265.4 	"/>
	<polygon class="st16" points="2917.5,1299.5 2917.5,1330.4 2976.2,1330.4 2976.2,1297.3 2976.2,1238.3 2894.5,1238.3 
		2894.5,1269.9 2917.5,1270.2 	"/>
	<polygon class="st16" points="4033.1,1296 4033.1,1322.6 4082,1322.6 4082,1294.1 4082,1243.1 4014,1243.1 4014,1270.4 
		4033.1,1270.6 	"/>
	<polygon class="st17" points="769.2,1265.4 748.4,1265.7 748.4,1295 748.4,1325.9 695.2,1325.9 695.2,1292.8 695.2,1233.7 
		769.2,1233.7 	"/>
	<polygon class="st17" points="2031.3,1269.4 2010.5,1269.7 2010.5,1299 2010.5,1329.9 1957.3,1329.9 1957.3,1296.8 1957.3,1237.8 
		2031.3,1237.8 	"/>
	<polygon class="st16" points="3354.7,1273.4 3333.9,1273.7 3333.9,1303 3333.9,1333.9 3280.7,1333.9 3280.7,1300.8 3280.7,1241.8 
		3354.7,1241.8 	"/>
	<polygon class="st16" points="4641.3,1278.9 4620.5,1279.2 4620.5,1308.5 4620.5,1339.4 4567.3,1339.4 4567.3,1306.3 
		4567.3,1247.3 4641.3,1247.3 	"/>
</g>
</svg>
