<?xml version="1.0" encoding="utf-8"?>
<!-- Generator: Adobe Illustrator 26.5.0, SVG Export Plug-In . SVG Version: 6.00 Build 0)  -->
<svg version="1.1" id="CLOSET" xmlns="http://www.w3.org/2000/svg" xmlns:xlink="http://www.w3.org/1999/xlink" x="0px" y="0px"
	 viewBox="0 0 5922.9 2203.1" style="enable-background:new 0 0 5922.9 2203.1;" xml:space="preserve">
<style type="text/css">
	.st0{fill:#EAEAEA;stroke:#000000;stroke-width:14.0847;stroke-miterlimit:10;}
	.st1{fill:#EAEAEA;stroke:#000000;stroke-width:14.0599;stroke-miterlimit:10;}
	.st2{fill:#CCCCCC;stroke:#000000;stroke-width:9.2534;stroke-miterlimit:10;}
	.st3{fill:#CCCCCC;stroke:#000000;stroke-width:9.0246;stroke-miterlimit:10;}
	.st4{fill:#EAEAEA;stroke:#000000;stroke-width:13.9944;stroke-miterlimit:10;}
	.st5{fill:#EAEAEA;stroke:#000000;stroke-width:14.027;stroke-miterlimit:10;}
	.st6{fill:#EAEAEA;stroke:#000000;stroke-width:14.0209;stroke-miterlimit:10;}
	.st7{fill:#EAEAEA;stroke:#000000;stroke-width:14.7808;stroke-miterlimit:10;}
	.st8{fill:#EAEAEA;stroke:#000000;stroke-width:14.0229;stroke-miterlimit:10;}
	.st9{fill:#EAEAEA;stroke:#B2C411;stroke-width:30;stroke-miterlimit:10;}
	.st10{fill:#EAEAEA;stroke:#000000;stroke-width:14.098;stroke-miterlimit:10;}
	.st11{fill:#EAEAEA;stroke:#000000;stroke-width:14.0889;stroke-miterlimit:10;}
	.st12{fill:#DBDBDB;stroke:#000000;stroke-width:9.2534;stroke-miterlimit:10;}
	.st13{fill:#E8E8E8;stroke:#000000;stroke-width:9.2534;stroke-miterlimit:10;}
</style>
<g id="LATERAL-DERECHA">
	<polygon class="st0" points="5726.4,2012.2 5187.7,1895.9 5189.8,290.2 5726.4,291.4 	"/>
	<rect x="5727" y="291.2" class="st1" width="103.6" height="1722"/>
</g>
<g id="TABLITA-TRASERA-ESCONDIDA">
	<polygon class="st2" points="295.1,1926.5 236.1,1926.5 236.2,200.7 295.2,216.7 	"/>
	<polygon class="st2" points="236.6,1924 140.6,1900 140.2,175.7 236.2,200.7 	"/>
</g>
<g id="TABLITA-TRASERA">
	<rect x="5289.5" y="290.2" class="st3" width="59" height="1626"/>
	<polygon class="st3" points="5290,1913.8 5194,1891 5193.8,290.7 5290,291.1 	"/>
	<path d="M5225.5,472.9c10.6,10.9,26.4,9.9,35.3-2.2c8.8-12.2,7.4-30.9-3.2-41.8s-26.4-9.9-35.3,2.2
		C5213.4,443.3,5214.9,462,5225.5,472.9z M5233.2,436.6c0.6-0.5,0.9,0.1,0.9,0.1s2.4,2.8,4.7,5.3c2.8,2.3,4.4,0.2,4.4,0.2
		s4.2-5.2,4.5-5.6c0.4-0.4,0.8,0.1,0.8,0.1l1.2,1.4c0,0,2.8,3.2,3.2,3.7c0.3,0.6,0.1,1,0.1,1s-2.6,3.1-4.3,5.5
		c-1.6,2.6,0.2,5.3,0.2,5.3l2.5,2.8c0,0,2,2.2,2.4,2.8c0.3,0.7,0,1,0,1s-3.5,4.3-3.9,4.9c-0.4,0.6-1.1,0-1.1,0s-2.8-3.3-4.8-5.5
		c-2.2-2-4.4,0-4.4,0s-3.9,4.9-4.3,5.4c-0.6,0.2-0.8-0.1-0.8-0.1s-3.6-4.1-4.2-4.9c-0.7-0.8-0.2-1.4-0.2-1.4l3.4-4.3
		c2.5-3,0.7-6.1,0.7-6.1l-4.8-5.5c0,0-0.5-0.6-0.3-1.2C5229.3,441.6,5232.6,437.2,5233.2,436.6z"/>
	<path d="M5225.5,1842.6c10.6,10.9,26.4,9.9,35.3-2.2c8.8-12.2,7.4-30.9-3.2-41.8s-26.4-9.9-35.3,2.2
		C5213.4,1813,5214.9,1831.7,5225.5,1842.6z M5233.2,1806.2c0.6-0.5,0.9,0.1,0.9,0.1s2.4,2.8,4.7,5.3c2.8,2.3,4.4,0.2,4.4,0.2
		s4.2-5.2,4.5-5.6c0.4-0.4,0.8,0.1,0.8,0.1l1.2,1.4c0,0,2.8,3.2,3.2,3.7c0.3,0.6,0.1,1,0.1,1s-2.6,3.1-4.3,5.5
		c-1.6,2.6,0.2,5.3,0.2,5.3l2.5,2.8c0,0,2,2.2,2.4,2.8c0.3,0.7,0,1,0,1s-3.5,4.3-3.9,4.9c-0.4,0.6-1.1,0-1.1,0s-2.8-3.3-4.8-5.5
		c-2.2-2-4.4,0-4.4,0s-3.9,4.9-4.3,5.4c-0.6,0.2-0.8-0.1-0.8-0.1s-3.6-4.1-4.2-4.9c-0.7-0.8-0.2-1.4-0.2-1.4l3.4-4.3
		c2.5-3,0.7-6.1,0.7-6.1l-4.8-5.5c0,0-0.5-0.6-0.3-1.2C5229.3,1811.2,5232.6,1806.8,5233.2,1806.2z"/>
	<path d="M5225.5,1047.2c10.6,10.9,26.4,9.9,35.3-2.2c8.8-12.2,7.4-30.9-3.2-41.8s-26.4-9.9-35.3,2.2
		C5213.4,1017.6,5214.9,1036.3,5225.5,1047.2z M5233.2,1010.9c0.6-0.5,0.9,0.1,0.9,0.1s2.4,2.8,4.7,5.3c2.8,2.3,4.4,0.2,4.4,0.2
		s4.2-5.2,4.5-5.6c0.4-0.4,0.8,0.1,0.8,0.1l1.2,1.4c0,0,2.8,3.2,3.2,3.7c0.3,0.6,0.1,1,0.1,1s-2.6,3.1-4.3,5.5
		c-1.6,2.6,0.2,5.3,0.2,5.3l2.5,2.8c0,0,2,2.2,2.4,2.8c0.3,0.7,0,1,0,1s-3.5,4.3-3.9,4.9c-0.4,0.6-1.1,0-1.1,0s-2.8-3.3-4.8-5.5
		c-2.2-2-4.4,0-4.4,0s-3.9,4.9-4.3,5.4c-0.6,0.2-0.8-0.1-0.8-0.1s-3.6-4.1-4.2-4.9c-0.7-0.8-0.2-1.4-0.2-1.4l3.4-4.3
		c2.5-3,0.7-6.1,0.7-6.1l-4.8-5.5c0,0-0.5-0.6-0.3-1.2C5229.2,1015.9,5232.6,1011.5,5233.2,1010.9z"/>
</g>
<g id="BASE">
	<polyline class="st4" points="5182.4,1891 673.5,1897.2 5181.8,1891 5726.9,2011.7 590.8,2012 590.8,1902.9 672.4,1898.2 	"/>
	<rect x="595.1" y="2012.2" class="st4" width="5234.8" height="86.5"/>
	<polyline class="st4" points="584.4,2012 120.4,1897 120.4,1976 584.4,2097 585,2011.7 	"/>
</g>
<g id="DIVISIONES-VERTICALES">
	<g id="DIVISION-VERTICAL-DERECHA">
		<polygon class="st5" points="4457.1,2011.9 3991,1896.9 3992.2,290.2 4457.1,290.4 		"/>
		<rect x="4457" y="290.2" class="st5" width="90" height="1722.5"/>
	</g>
	<g id="DIVISION-CENTRAL">
		<polygon class="st6" points="3171.2,2011.9 2705.2,1897 2706.2,291.7 3171.2,291.9 		"/>
		<rect x="3170.7" y="291.2" class="st7" width="89.8" height="1721.5"/>
	</g>
	<g id="DIVISION-VERTICAL-IZQUIERDA_00000085229740836627909760000005526871516412138418_">
		<polygon class="st8" points="1849.1,2012.3 1383.1,1897.3 1384.2,291.6 1849.1,291.2 		"/>
		<rect x="1848" y="291.6" class="st8" width="90" height="1719.7"/>
	</g>
</g>
<g id="DIVISIONES-HORIZONTALES">
	<g id="DIVISION-HORIZONTAL-EXTREMA-IZQUIERDA">
		<polygon class="st9" points="676.2,1131.7 1733.3,1132.2 1383.2,1041.7 675.2,1041.2 		"/>
		<rect x="675.7" y="1128.9" class="st9" width="1058" height="84.7"/>
	</g>
	<g id="DIVISION-HORIZONTAL-INTERNA-IZQUIERDA">
		<polygon class="st9" points="1955.7,1136 3015.3,1136.5 2724.8,1045.7 1954.7,1045.5 		"/>
		<rect x="1955.2" y="1133.2" class="st9" width="1060.5" height="84.7"/>
	</g>
	<g id="DIVISION-HORIZONTAL-INTERNA-DERECHA">
		<polygon class="st9" points="3278.6,1140.7 4318.6,1141.2 3974.3,1050.7 3277.7,1050.2 		"/>
		<rect x="3278.2" y="1137.9" class="st9" width="1040.9" height="84.7"/>
	</g>
	<g id="DIVISION-HORIZONTAL-EXTREMA-DERECHA">
		<polygon class="st9" points="4564.7,1145.7 5708.2,1146.2 5342.3,1055.7 4563.7,1055.2 		"/>
		<rect x="4564.2" y="1142.9" class="st9" width="1144.5" height="84.7"/>
	</g>
</g>
<g id="LATERAL-IZQUIERDA">
	<polygon class="st10" points="586.1,2012.2 120,1897.1 121.1,168.2 586.1,289.8 	"/>
	<rect x="585" y="291.2" class="st11" width="90" height="1721"/>
</g>
<g id="TECHO">
	<polygon class="st4" points="585,291.7 121.1,170.7 121.1,91.7 585,206.7 	"/>
	<rect x="591.9" y="206.7" class="st4" width="5239.2" height="85"/>
	<polyline class="st4" points="114.7,89.7 585.6,207.2 5831.7,206.4 5282.5,85.7 114.7,89.7 5283.1,85.7 	"/>
</g>
<g id="TABLITA-PUERTA">
	<g>
		<rect x="3111.7" y="290.7" class="st2" width="59" height="1709.5"/>
		<polygon class="st2" points="3112.2,1997.7 3016.2,1973.7 3016,291.2 3112.2,291.7 		"/>
	</g>
	<path d="M3048.2,396c10.6,11.5,26.4,10.4,35.3-2.3c8.8-12.8,7.4-32.4-3.2-43.9c-10.6-11.5-26.4-10.4-35.3,2.3
		C3036.1,364.9,3037.5,384.5,3048.2,396z M3055.9,357.8c0.6-0.5,0.9,0.1,0.9,0.1s2.4,2.9,4.7,5.6c2.8,2.4,4.4,0.2,4.4,0.2
		s4.2-5.4,4.5-5.8c0.4-0.4,0.8,0.1,0.8,0.1l1.2,1.5c0,0,2.8,3.4,3.2,3.9c0.3,0.6,0.1,1.1,0.1,1.1s-2.6,3.2-4.3,5.8
		c-1.6,2.7,0.2,5.6,0.2,5.6l2.5,3c0,0,2,2.3,2.4,2.9c0.3,0.7,0,1.1,0,1.1s-3.5,4.6-3.9,5.2c-0.4,0.6-1.1,0.1-1.1,0.1
		s-2.8-3.5-4.8-5.8c-2.2-2.1-4.4,0.1-4.4,0.1s-3.9,5.1-4.3,5.6c-0.6,0.2-0.8-0.1-0.8-0.1s-3.6-4.3-4.2-5.1c-0.7-0.8-0.2-1.5-0.2-1.5
		l3.4-4.5c2.5-3.2,0.7-6.4,0.7-6.4l-4.8-5.8c0,0-0.5-0.6-0.3-1.3C3051.9,363,3055.3,358.4,3055.9,357.8z"/>
	<path d="M3048.4,1214.7c10.6,11.5,26.4,10.4,35.3-2.3c8.8-12.8,7.4-32.4-3.2-43.9s-26.4-10.4-35.3,2.3
		C3036.4,1183.5,3037.8,1203.2,3048.4,1214.7z M3056.1,1176.4c0.6-0.5,0.9,0.1,0.9,0.1s2.4,2.9,4.7,5.6c2.8,2.4,4.4,0.2,4.4,0.2
		s4.2-5.4,4.5-5.8c0.4-0.4,0.8,0.1,0.8,0.1l1.2,1.5c0,0,2.8,3.4,3.2,3.9c0.3,0.6,0.1,1.1,0.1,1.1s-2.6,3.2-4.3,5.8
		c-1.6,2.7,0.2,5.6,0.2,5.6l2.5,3c0,0,2,2.3,2.4,2.9c0.3,0.7,0,1.1,0,1.1s-3.5,4.6-3.9,5.2c-0.4,0.6-1.1,0.1-1.1,0.1
		s-2.8-3.5-4.8-5.8c-2.2-2.1-4.4,0.1-4.4,0.1s-3.9,5.1-4.3,5.6c-0.6,0.2-0.8-0.1-0.8-0.1s-3.6-4.3-4.2-5.1c-0.7-0.8-0.2-1.5-0.2-1.5
		l3.4-4.5c2.5-3.2,0.7-6.4,0.7-6.4l-4.8-5.8c0,0-0.5-0.6-0.3-1.3C3052.2,1181.7,3055.6,1177.1,3056.1,1176.4z"/>
	<path d="M3048.4,1943.7c10.6,11.5,26.4,10.4,35.3-2.3c8.8-12.8,7.4-32.4-3.2-43.9s-26.4-10.4-35.3,2.3
		C3036.4,1912.5,3037.8,1932.2,3048.4,1943.7z M3056.1,1905.4c0.6-0.5,0.9,0.1,0.9,0.1s2.4,2.9,4.7,5.6c2.8,2.4,4.4,0.2,4.4,0.2
		s4.2-5.4,4.5-5.8c0.4-0.4,0.8,0.1,0.8,0.1l1.2,1.5c0,0,2.8,3.4,3.2,3.9c0.3,0.6,0.1,1.1,0.1,1.1s-2.6,3.2-4.3,5.8
		c-1.6,2.7,0.2,5.6,0.2,5.6l2.5,3c0,0,2,2.3,2.4,2.9c0.3,0.7,0,1.1,0,1.1s-3.5,4.6-3.9,5.2c-0.4,0.6-1.1,0.1-1.1,0.1
		s-2.8-3.5-4.8-5.8c-2.2-2.1-4.4,0.1-4.4,0.1s-3.9,5.1-4.3,5.6c-0.6,0.2-0.8-0.1-0.8-0.1s-3.6-4.3-4.2-5.1c-0.7-0.8-0.2-1.5-0.2-1.5
		l3.4-4.5c2.5-3.2,0.7-6.4,0.7-6.4l-4.8-5.8c0,0-0.5-0.6-0.3-1.3C3052.2,1910.7,3055.6,1906.1,3056.1,1905.4z"/>
</g>
<g id="SOPORTES-COOK">
	<polygon class="st12" points="4210.2,1298.8 4210.2,1329.6 4269,1329.6 4269,1296.6 4269,1237.5 4187.3,1237.5 4187.3,1269.2 
		4210.2,1269.4 	"/>
	<polygon class="st12" points="5396.9,1280.7 5396.9,1307.4 5445.8,1307.4 5445.8,1278.8 5445.8,1227.8 5377.8,1227.8 
		5377.8,1255.2 5396.9,1255.4 	"/>
	<polygon class="st12" points="5585,1289.5 5585,1320.4 5643.8,1320.4 5643.8,1287.3 5643.8,1228.3 5562.1,1228.3 5562.1,1259.9 
		5585,1260.2 	"/>
	<polygon class="st13" points="1435.8,1281.5 1435.8,1308.2 1484.7,1308.2 1484.7,1279.6 1484.7,1228.6 1416.7,1228.6 1416.7,1256 
		1435.8,1256.2 	"/>
	<polygon class="st13" points="1624,1290.3 1624,1321.2 1682.7,1321.2 1682.7,1288.1 1682.7,1229 1601,1229 1601,1260.7 1624,1261 	
		"/>
	<polygon class="st12" points="2741.3,1285.7 2741.3,1312.4 2790.2,1312.4 2790.2,1283.8 2790.2,1232.8 2722.2,1232.8 
		2722.2,1260.2 2741.3,1260.4 	"/>
	<polygon class="st12" points="2929.5,1294.5 2929.5,1325.4 2988.2,1325.4 2988.2,1292.3 2988.2,1233.3 2906.5,1233.3 
		2906.5,1264.9 2929.5,1265.2 	"/>
	<polygon class="st12" points="4022.1,1290 4022.1,1316.6 4071,1316.6 4071,1288.1 4071,1237.1 4003,1237.1 4003,1264.4 
		4022.1,1264.6 	"/>
	<polygon class="st13" points="755.2,1260.4 734.4,1260.7 734.4,1290 734.4,1320.9 681.2,1320.9 681.2,1287.8 681.2,1228.7 
		755.2,1228.7 	"/>
	<polygon class="st13" points="2024.3,1261.4 2003.5,1261.7 2003.5,1291 2003.5,1321.9 1950.3,1321.9 1950.3,1288.8 1950.3,1229.8 
		2024.3,1229.8 	"/>
	<polygon class="st12" points="3336.7,1268.4 3315.9,1268.7 3315.9,1298 3315.9,1328.9 3262.7,1328.9 3262.7,1295.8 3262.7,1236.8 
		3336.7,1236.8 	"/>
	<polygon class="st12" points="4632.3,1272.9 4611.5,1273.2 4611.5,1302.5 4611.5,1333.4 4558.3,1333.4 4558.3,1300.3 
		4558.3,1241.3 4632.3,1241.3 	"/>
</g>
</svg>
