<?xml version="1.0" encoding="utf-8"?>
<!-- Generator: Adobe Illustrator 26.5.0, SVG Export Plug-In . SVG Version: 6.00 Build 0)  -->
<svg version="1.1" xmlns="http://www.w3.org/2000/svg" xmlns:xlink="http://www.w3.org/1999/xlink" x="0px" y="0px"
	 viewBox="0 0 6537 2413" style="enable-background:new 0 0 6537 2413;" xml:space="preserve">
<style type="text/css">
	.st0{fill:#E6E6E6;stroke:#000000;stroke-width:18.754;stroke-miterlimit:10;}
	.st1{fill:#FFFFFF;}
	.st2{fill:none;stroke:#000000;stroke-width:23.5656;stroke-miterlimit:10;}
	.st3{fill:none;stroke:#000000;stroke-width:16.8326;stroke-miterlimit:10;}
	.st4{fill:none;stroke:#000000;stroke-width:20.1991;stroke-miterlimit:10;}
	.st5{fill:none;stroke:#000000;stroke-width:18.754;stroke-miterlimit:10;}
	.st6{fill:#F7F7F7;stroke:#000000;stroke-width:12.0851;stroke-miterlimit:10;}
	.st7{stroke:#000000;stroke-width:8.3211;stroke-miterlimit:10;}
	.st8{stroke:#000000;stroke-width:7.439;stroke-miterlimit:10;}
	.st9{fill:#F7F7F7;stroke:#000000;stroke-width:7.5399;stroke-miterlimit:10;}
	.st10{fill:#E6E6E6;stroke:#000000;stroke-width:8.785;stroke-miterlimit:10;}
	.st11{fill:#E6E6E6;stroke:#000000;stroke-width:10.6495;stroke-miterlimit:10;}
	.st12{fill:#F7F7F7;stroke:#000000;stroke-width:15.5912;stroke-miterlimit:10;}
	.st13{fill:#E6E6E6;stroke:#000000;stroke-width:10.211;stroke-miterlimit:10;}
</style>
<g id="CIRCULOS-SELECCION4">
</g>
<g id="CLOSET">
	<g id="LATERAL-DERECHA">
	</g>
	<g id="BASE">
	</g>
	<g id="DIVISIONES-VERTICALES">
		<g id="DIVISION-VERTICAL-DERECHA">
		</g>
		<g id="DIVISION-CENTRAL">
		</g>
		<g id="DIVISION-VERTICAL-IZQUIERDA_00000085229740836627909760000005526871516412138418_">
		</g>
	</g>
	<g id="DIVISIONES-HORIZONTALES">
	</g>
	<g id="LATERAL-IZQUIERDA">
	</g>
	<g id="TECHO">
	</g>
	<g id="SOPORTES-COOK">
	</g>
</g>
<g id="TABLITAS-TRASERAS">
</g>
<g id="TRIPLEX_00000062169277959621118470000012963048032068378272_">
</g>
<g id="PUNTILLAS">
</g>
<g id="SOPORTE-MUEBLE">
	<g id="SELECTOR-ELEMENTOS-MADERA-SUB">
		<circle class="st0" cx="4142.5" cy="1688.7" r="598"/>
		<ellipse class="st1" cx="4139.8" cy="1687.6" rx="604.2" ry="599.6"/>
		<line class="st2" x1="3615.2" y1="1427.4" x2="4675.3" y2="1427.4"/>
		<line class="st2" x1="4599.5" y1="2079.5" x2="3691.7" y2="2079.4"/>
		<line class="st3" x1="3938.6" y1="1468.5" x2="3938.6" y2="2038.3"/>
		<line class="st4" x1="4022.7" y1="1468.5" x2="3854.4" y2="1468.5"/>
		<line class="st4" x1="4022.7" y1="2038.1" x2="3854.4" y2="2038.1"/>
		<g>
			<path d="M4020.4,1711.2l36.3-17.8h3.6v126.1c0,4.4,0.1,7.8,0.2,10.3c0.1,2.5,0.4,4.4,0.8,5.7c0.4,1.3,1,2.2,1.6,2.8
				c0.7,0.5,1.6,1.1,2.8,1.6c2.2,1.2,6.7,1.8,13.5,1.8v4.1h-56.2v-4.1c3.6,0,6.5-0.2,8.7-0.5c2.2-0.3,3.9-0.7,5.1-1.2
				c1.2-0.5,2.1-1.1,2.7-1.9c0.6-0.8,1.1-1.6,1.4-2.5c0.8-1.6,1.2-7,1.2-16.1v-80.8c0-6.4-0.1-11.4-0.4-15c-0.3-3.7-0.7-6.4-1.4-8.1
				c-0.7-1.8-1.5-2.9-2.6-3.4c-1.1-0.5-2.5-0.7-4.3-0.7c-3.1,0-6.9,1-11.3,3L4020.4,1711.2z"/>
			<path d="M4135.1,1824.5c3.3,0,6.1,1.2,8.6,3.5c2.4,2.4,3.6,5.2,3.6,8.6c0,3.4-1.2,6.3-3.6,8.7c-2.4,2.4-5.3,3.6-8.6,3.6
				c-3.4,0-6.3-1.2-8.7-3.6c-2.4-2.4-3.6-5.3-3.6-8.7c0-3.5,1.2-6.4,3.6-8.7C4128.8,1825.7,4131.7,1824.5,4135.1,1824.5z"/>
			<path d="M4261.2,1696.4l-8.7,18.8h-44.9l-9.9,20.1c8.9,1.3,17.1,3.6,24.6,7c7.5,3.3,14,7.5,19.3,12.4c5.4,4.9,9.6,10.6,12.6,17
				c3,6.4,4.5,13.3,4.5,20.6c0,9.1-1.9,17.1-5.8,24.1c-3.8,7-8.7,12.8-14.6,17.6c-5.9,4.8-12.3,8.4-19.2,10.9
				c-6.9,2.5-13.4,3.7-19.6,3.7c-4.6,0-8.5-0.4-11.8-1.2c-3.2-0.8-5.9-1.9-7.9-3.4c-2-1.4-3.5-3-4.5-4.7c-1-1.7-1.5-3.5-1.5-5.3
				c0-2.1,0.8-3.9,2.5-5.5c1.6-1.6,3.8-2.4,6.4-2.4c1,0,1.9,0.1,2.6,0.2c0.8,0.1,1.6,0.4,2.4,0.7c0.8,0.4,1.8,0.9,3,1.6
				c1.2,0.7,2.6,1.7,4.4,2.9c2.7,2,5.5,3.4,8.3,4.4c2.8,0.9,5.6,1.4,8.5,1.4c4.3,0,8.4-0.9,12.3-2.6c3.9-1.8,7.3-4.1,10.3-7.2
				c3-3,5.3-6.6,7.2-10.6c1.8-4.1,2.7-8.4,2.7-13.2c0-4.5-0.8-8.9-2.3-13.2c-1.5-4.3-3.7-8.3-6.6-12.1c-2.9-3.8-6.3-7.2-10.3-10.3
				c-4-3.1-8.5-5.7-13.6-7.9c-4.1-1.8-8.8-3-14.2-3.9c-5.4-0.8-11.6-1.4-18.5-1.7l28.6-58.2H4261.2z"/>
			<path d="M4468.3,1693.1l3.5,50.8h-3.5c-4.6-15.2-11.1-26.2-19.5-32.9c-8.4-6.7-18.5-10-30.3-10c-7.7,0-14.7,1.5-21.2,4.4
				c-6.5,2.9-12,7.4-16.7,13.4c-4.7,6-8.3,13.6-10.9,22.7c-2.6,9.1-3.9,19.8-3.9,32.2c0,10,1.2,19,3.7,27.1
				c2.5,8.1,6.1,15,10.9,20.8c4.8,5.8,10.6,10.2,17.5,13.3c6.9,3.1,14.9,4.7,23.8,4.7c9.4,0,18-2.1,25.7-6.2
				c7.3-3.8,15.5-12.1,24.5-24.7l3.5,2.1c-7.6,13.3-16.3,23-26.2,29.2c-9.9,6.2-21.8,9.3-35.6,9.3c-10.6,0-20.4-1.9-29.3-5.6
				c-8.9-3.7-16.5-9-22.9-15.7c-6.4-6.7-11.4-14.7-15-24c-3.6-9.3-5.4-19.4-5.4-30.5c0-15,3.3-28.7,10-41.1
				c6.6-12.5,15.7-22.1,27.5-28.9c11.8-6.9,24.7-10.4,38.5-10.4c10.9,0,21.5,2.6,31.9,7.9c3.1,1.6,5.3,2.5,6.6,2.5c2.4,0,4.4-1,6-3
				c1.6-2,2.7-4.4,3.4-7.4H4468.3z"/>
			<path d="M4575.2,1845.9l-57.7-125.7v99.8c0,5.2,0.4,9.2,1.1,12.1c0.7,2.9,1.8,5.1,3.1,6.5c1.4,1.4,3,2.3,5,2.6
				c2,0.3,4.2,0.5,6.7,0.5h5.3v4.1h-52v-4.1h5.3c2.6,0,4.9-0.2,6.9-0.6c2-0.4,3.6-1.3,4.9-2.8c1.3-1.5,2.3-3.7,3-6.6
				c0.7-2.9,1-6.8,1-11.8v-97.7c0-3.5-0.2-6.6-0.5-9.3c-0.3-2.7-1.2-5-2.5-6.8c-1.4-1.9-3.5-3.3-6.3-4.3c-2.8-1-6.7-1.5-11.8-1.5
				v-4.1h42.3l54.3,116.9l53.3-116.9h42.3v4.1h-5.1c-2.7,0-5.1,0.2-7.1,0.7c-2,0.4-3.6,1.4-4.9,2.9c-1.3,1.5-2.3,3.7-3,6.6
				c-0.7,2.9-1,6.8-1,11.8v97.7c0,5.2,0.4,9.2,1.1,12.1c0.7,2.9,1.8,5.1,3.1,6.5c1.4,1.4,3,2.3,5,2.6c2,0.3,4.2,0.5,6.7,0.5h5.1v4.1
				h-63.5v-4.1h5.3c2.6,0,4.9-0.2,6.9-0.7c2-0.4,3.6-1.4,5-2.9c1.4-1.5,2.4-3.6,3-6.5c0.7-2.9,1-6.7,1-11.7v-99.8l-57.6,125.7
				H4575.2z"/>
		</g>
		<circle class="st5" cx="4140.8" cy="1686.4" r="598"/>
	</g>
	<g>
		<g>
			<path d="M4993.4,1193.6v25.9h-1.8c-0.9-6.9-2.9-11.8-6.1-14.7c-3.2-2.9-7.9-4.3-14.1-4.3h-15.5v84.1c0,3.7,0.3,6.6,0.8,8.8
				c0.5,2.1,1.3,3.7,2.2,4.8c1,1,2.2,1.7,3.6,2c1.5,0.3,3.1,0.4,5.1,0.4h3.8v3h-46.6v-3h3.9c1.9,0,3.6-0.2,5.1-0.5
				c1.5-0.3,2.7-1,3.6-2.1c1-1.1,1.7-2.7,2.2-4.8c0.5-2.1,0.8-5,0.8-8.6v-84.1h-13.2c-3.3,0-6.2,0.3-8.8,0.8
				c-2.5,0.5-4.7,1.5-6.6,2.9c-1.9,1.4-3.3,3.3-4.4,5.8c-1.1,2.5-1.8,5.6-2,9.5h-3v-25.9H4993.4z"/>
			<path d="M5032.8,1244.6h51.1v-31.5c0-2.6,0-4.7-0.1-6.4c-0.1-1.7-0.3-3-0.6-4.1c-0.3-1-0.8-1.9-1.4-2.5c-0.6-0.6-1.4-1.2-2.4-1.8
				c-2.3-1.3-4.7-1.9-7.4-1.9h-3.9v-3h47.1v3h-3.9c-1,0-2.2,0.1-3.3,0.4c-1.2,0.2-2.3,0.6-3.3,1.1c-1,0.5-1.9,1.1-2.7,1.8
				c-0.8,0.7-1.4,1.6-1.7,2.5c-0.6,1.7-0.8,5.3-0.8,10.8v70.9c0,2.6,0.1,4.7,0.2,6.3c0.1,1.6,0.3,2.9,0.6,4c0.3,1,0.7,1.9,1.3,2.5
				c0.6,0.6,1.3,1.2,2.3,1.8c2.3,1.3,4.8,1.9,7.5,1.9h3.9v3h-47.1v-3h3.9c1.9,0,3.5-0.1,5-0.4c1.5-0.3,2.7-1,3.8-2.1
				c1-1.1,1.8-2.7,2.4-5c0.5-2.2,0.8-5.2,0.8-9v-33.5h-51.1v33.5c0,2.6,0,4.7,0.1,6.3c0.1,1.6,0.3,2.9,0.6,4c0.3,1,0.8,1.9,1.4,2.5
				s1.4,1.2,2.4,1.8c2.3,1.3,4.7,1.9,7.4,1.9h4v3h-47.2v-3h4c4.4,0,7.7-1.3,9.8-4c1.3-1.6,1.9-5.8,1.9-12.5v-70.9
				c0-2.7,0-4.8-0.1-6.5c-0.1-1.7-0.3-3-0.6-4c-0.3-1-0.8-1.8-1.3-2.4c-0.6-0.6-1.3-1.2-2.3-1.8c-2.3-1.3-4.7-1.9-7.4-1.9h-4v-3
				h47.2v3h-4c-1,0-2,0.1-3.2,0.4c-1.2,0.2-2.3,0.6-3.3,1.1c-1,0.5-1.9,1.1-2.7,1.8c-0.8,0.7-1.4,1.6-1.7,2.5c-0.6,1.9-1,5.5-1,10.8
				V1244.6z"/>
			<path d="M5169.8,1300.5v3h-47.1v-3h3.9c1.9,0,3.6-0.1,5.1-0.4c1.5-0.3,2.7-1,3.7-2.1s1.7-2.7,2.2-5c0.5-2.2,0.8-5.2,0.8-9v-71
				c0-2.5-0.1-4.6-0.2-6.2c-0.1-1.7-0.3-3-0.6-4.1c-0.3-1-0.7-1.9-1.3-2.5c-0.6-0.6-1.3-1.2-2.3-1.8c-2.4-1.3-4.9-1.9-7.5-1.9h-3.9
				v-3h47.1v3h-3.9c-1.9,0-3.7,0.2-5.1,0.5c-1.5,0.3-2.7,1-3.7,2.1c-1,1.1-1.7,2.7-2.2,5c-0.5,2.2-0.8,5.2-0.8,8.9v71
				c0,2.6,0,4.7,0.1,6.3c0.1,1.6,0.3,2.9,0.6,4c0.3,1,0.8,1.9,1.4,2.5s1.4,1.2,2.4,1.8c2.3,1.3,4.7,1.9,7.4,1.9H5169.8z"/>
			<path d="M5273.8,1191.1l2.5,37.4h-2.5c-3.4-11.2-8.2-19.3-14.3-24.2c-6.2-4.9-13.6-7.4-22.3-7.4c-5.6,0-10.8,1.1-15.6,3.2
				c-4.8,2.1-8.9,5.4-12.3,9.9c-3.4,4.4-6.1,10-8,16.7c-1.9,6.7-2.9,14.6-2.9,23.7c0,7.3,0.9,14,2.7,20c1.8,6,4.5,11.1,8,15.3
				c3.5,4.2,7.8,7.5,12.9,9.8c5.1,2.3,10.9,3.4,17.5,3.4c6.9,0,13.2-1.5,18.9-4.6c5.4-2.8,11.4-8.9,18-18.1l2.5,1.6
				c-5.6,9.8-12,16.9-19.3,21.5c-7.3,4.6-16,6.8-26.2,6.8c-7.8,0-15-1.4-21.5-4.1c-6.5-2.7-12.2-6.6-16.9-11.6
				c-4.7-5-8.4-10.8-11.1-17.7c-2.7-6.8-4-14.3-4-22.4c0-11,2.5-21.1,7.4-30.2c4.8-9.2,11.6-16.3,20.2-21.3
				c8.7-5.1,18.1-7.6,28.3-7.6c8,0,15.8,1.9,23.5,5.8c2.3,1.2,3.9,1.8,4.8,1.8c1.8,0,3.2-0.7,4.4-2.2c1.2-1.5,2-3.3,2.5-5.4H5273.8z
				"/>
			<path d="M5334.2,1242.6l40.5,40.3c3.4,3.4,6.5,6.2,9.2,8.4c2.7,2.2,5.3,4,7.7,5.3c2.4,1.3,4.8,2.3,7.1,2.9c2.3,0.6,4.7,0.9,7.1,1
				v3h-52.3v-3c3.5,0,5.8-0.6,7-1.8c1.2-1.2,1.8-2.5,1.8-3.9c0-0.6,0-1.1-0.1-1.5c-0.1-0.4-0.3-0.9-0.7-1.5
				c-0.4-0.6-0.9-1.3-1.8-2.2c-0.8-0.9-1.9-2-3.3-3.4l-38-37.6v35.4c0,2.6,0.1,4.7,0.2,6.3c0.1,1.6,0.3,2.9,0.6,4
				c0.3,1,0.7,1.9,1.3,2.5s1.4,1.2,2.4,1.8c2.3,1.3,4.8,1.9,7.4,1.9h3.8v3h-46.8v-3h3.9c4.5,0,7.8-1.3,9.9-4
				c1.3-1.8,1.9-5.9,1.9-12.5v-71c0-2.4,0-4.5-0.1-6.1c-0.1-1.7-0.3-3-0.6-4.1c-0.3-1-0.8-1.9-1.3-2.6c-0.6-0.7-1.3-1.3-2.3-1.8
				c-2.6-1.3-5.1-1.9-7.5-1.9h-3.9v-3h46.8v3h-3.8c-2,0-4.1,0.4-6.4,1.3c-2.2,0.9-3.7,2.4-4.5,4.5c-0.6,1.8-1,5.3-1,10.6v33.6
				c0.1-0.1,0.6-0.6,1.6-1.5c1-0.9,2.1-2,3.4-3.1c1.2-1.1,2.5-2.3,3.6-3.4c1.2-1.1,2-1.9,2.5-2.3c5.9-5.4,10.8-10,14.9-13.9
				c4-3.9,7.3-7.2,9.7-9.9c2.4-2.7,4.2-5,5.2-6.8c1-1.8,1.6-3.3,1.6-4.5c0-1.3-0.6-2.4-1.7-3.3c-1.1-0.9-3.1-1.4-5.8-1.4h-2.5v-3
				h40.4v3c-1.5,0.1-2.9,0.2-4.4,0.4c-1.5,0.2-3.1,0.7-5,1.5c-1.8,0.8-3.9,2.1-6.2,3.8c-2.3,1.7-5.1,4-8.3,7c-0.6,0.6-2.3,2.2-5,5
				s-6.5,6.6-11.5,11.6L5334.2,1242.6z"/>
			<path d="M5402.3,1193.6h29.8l67.3,82.5v-63.4c0-3.7-0.3-6.7-0.8-8.8c-0.5-2.2-1.3-3.8-2.3-4.8c-1-1-2.2-1.7-3.7-2
				c-1.5-0.3-3.1-0.4-5-0.4h-3.9v-3h38.4v3h-4c-1.9,0-3.6,0.2-5.1,0.5c-1.5,0.3-2.7,1-3.6,2.2c-1,1.1-1.7,2.7-2.2,4.8
				c-0.5,2.1-0.7,5-0.7,8.6v92.7h-2.9l-72.5-88.6v67.8c0,3.8,0.3,6.8,0.8,8.9c0.5,2.1,1.3,3.7,2.2,4.8c1,1,2.2,1.7,3.6,1.9
				c1.5,0.2,3.1,0.4,5,0.4h3.9v3h-38.2v-3h3.9c1.9,0,3.6-0.2,5.1-0.5c1.5-0.3,2.7-1,3.7-2.1c1-1.1,1.8-2.7,2.2-4.8
				c0.5-2.1,0.7-5,0.7-8.6v-76.5c-1.6-1.9-3-3.5-4.1-4.6c-1.1-1.1-2.1-2.1-3.1-2.8c-1-0.7-2-1.3-3.1-1.8c-1.1-0.5-2.5-1-4.2-1.6
				c-1.6-0.5-4-0.7-7.1-0.7V1193.6z"/>
			<path d="M5559.1,1199.6v43.4h24.1c3.5,0,6.4-0.3,8.6-1c2.2-0.6,3.9-1.6,5.1-2.9c1.2-1.3,2.1-2.9,2.6-5c0.5-2,0.8-4.4,1-7.1h3
				v38.2h-3c-0.4-3.1-0.9-5.8-1.4-7.9c-0.5-2.1-1.4-3.8-2.5-5c-1.2-1.2-2.8-2.1-4.9-2.7c-2.1-0.5-4.9-0.8-8.5-0.8h-24.1v36.3
				c0,2.7,0,4.9,0.1,6.5c0.1,1.6,0.4,2.8,1,3.7c0.6,0.8,1.5,1.4,2.7,1.6c1.2,0.2,3,0.4,5.3,0.4h18.6c3.1,0,5.8-0.1,8-0.2
				c2.2-0.2,4.1-0.5,5.6-1c1.6-0.5,3-1.1,4.2-2c1.2-0.8,2.5-1.9,3.9-3.2c3.2-3.1,6.7-8.2,10.3-15.1h3.3l-9.6,27.6h-84.7v-3h3.9
				c1,0,2.1-0.1,3.3-0.4c1.1-0.2,2.2-0.6,3.2-1c1-0.4,1.9-1,2.7-1.8c0.8-0.7,1.4-1.6,1.7-2.5c0.6-1.8,1-5.3,1-10.6v-71.4
				c0-7-0.7-11.3-2.1-12.9c-1.9-2.2-5.2-3.3-9.8-3.3h-3.9v-3h84.7v24.1h-1.9c-0.8-4-1.7-7.1-2.6-9.5c-0.9-2.4-2.2-4.2-3.7-5.5
				c-1.5-1.3-3.5-2.1-5.9-2.5c-2.4-0.4-5.4-0.5-9.1-0.5H5559.1z"/>
			<path d="M5701.9,1191.1v38h-3c-1.4-10.2-4.7-18.1-10-23.5c-5.3-5.4-12.1-8.1-20.3-8.1c-2.8,0-5.4,0.5-7.7,1.5
				c-2.3,1-4.4,2.2-6.2,3.8c-1.8,1.6-3.1,3.4-4.1,5.4c-1,2-1.5,4.1-1.5,6.3c0,2,0.4,3.9,1.2,5.7c0.8,1.8,3.3,4.7,7.5,8.5
				c7,4.4,13.3,8.1,18.8,11c5.2,2.8,12.1,7.1,20.9,12.8c3.8,2.9,6.7,6.4,8.7,10.3c2,4,3,8.2,3,12.5c0,4.1-0.8,8-2.5,11.7
				c-1.7,3.7-4.1,7-7.1,9.7c-3,2.8-6.7,5-10.9,6.7c-4.3,1.7-9,2.5-14,2.5c-3.2,0-6.2-0.2-9-0.7c-0.5-0.1-1.8-0.4-3.8-1
				c-2.1-0.6-4.3-1.2-6.6-1.9c-2.3-0.6-4.5-1.2-6.5-1.8c-2-0.6-3.2-0.8-3.5-0.8c-1.4,0-2.4,0.4-3.2,1.2c-0.8,0.8-1.4,2.5-1.8,5.1h-3
				v-37.7h3c1.5,7.7,3.3,13.7,5.7,17.8c1.1,1.9,2.6,3.7,4.5,5.4c1.9,1.7,4,3.1,6.4,4.4c2.4,1.3,4.9,2.2,7.7,2.9c2.7,0.7,5.5,1,8.3,1
				c3.4,0,6.4-0.5,9.1-1.5c2.7-1,5-2.3,6.9-3.9c1.9-1.7,3.3-3.6,4.4-5.7c1-2.2,1.5-4.5,1.5-6.9c0-2.7-0.7-5.5-2.2-8.2
				c-1.5-2.7-4-5.4-7.6-8.1c-3.5-2.1-7.6-4.6-12.3-7.4c-9.1-5.2-17.2-10.3-24.3-15.1c-4-3.1-7-6.6-9-10.3c-2.1-3.8-3.1-7.9-3.1-12.5
				c0-3.9,0.8-7.6,2.4-11.1c1.6-3.5,3.9-6.6,6.7-9.3c2.9-2.7,6.3-4.8,10.2-6.3c4-1.5,8.2-2.3,12.8-2.3c5.8,0,12,1.4,18.5,4.2
				c1.5,0.6,2.8,1.2,3.9,1.6c1,0.4,1.9,0.6,2.5,0.5c1.5,0,2.6-0.4,3.5-1.2c0.9-0.8,1.6-2.5,2.1-5.1H5701.9z"/>
			<path d="M5794.2,1191.1v38h-3c-1.4-10.2-4.7-18.1-10-23.5c-5.3-5.4-12.1-8.1-20.3-8.1c-2.8,0-5.4,0.5-7.7,1.5
				c-2.3,1-4.4,2.2-6.2,3.8c-1.8,1.6-3.1,3.4-4.1,5.4c-1,2-1.5,4.1-1.5,6.3c0,2,0.4,3.9,1.2,5.7c0.8,1.8,3.3,4.7,7.5,8.5
				c7,4.4,13.3,8.1,18.8,11c5.2,2.8,12.1,7.1,20.9,12.8c3.8,2.9,6.7,6.4,8.7,10.3c2,4,3,8.2,3,12.5c0,4.1-0.8,8-2.5,11.7
				c-1.7,3.7-4.1,7-7.1,9.7c-3,2.8-6.7,5-10.9,6.7c-4.3,1.7-9,2.5-14,2.5c-3.2,0-6.2-0.2-9-0.7c-0.5-0.1-1.8-0.4-3.8-1
				c-2.1-0.6-4.3-1.2-6.6-1.9c-2.3-0.6-4.5-1.2-6.5-1.8c-2-0.6-3.2-0.8-3.5-0.8c-1.4,0-2.4,0.4-3.2,1.2c-0.8,0.8-1.4,2.5-1.8,5.1h-3
				v-37.7h3c1.5,7.7,3.3,13.7,5.7,17.8c1.1,1.9,2.6,3.7,4.5,5.4c1.9,1.7,4,3.1,6.4,4.4c2.4,1.3,4.9,2.2,7.7,2.9c2.7,0.7,5.5,1,8.3,1
				c3.4,0,6.4-0.5,9.1-1.5c2.7-1,5-2.3,6.9-3.9c1.9-1.7,3.3-3.6,4.4-5.7c1-2.2,1.5-4.5,1.5-6.9c0-2.7-0.7-5.5-2.2-8.2
				c-1.5-2.7-4-5.4-7.6-8.1c-3.5-2.1-7.6-4.6-12.3-7.4c-9.1-5.2-17.2-10.3-24.3-15.1c-4-3.1-7-6.6-9-10.3s-3.1-7.9-3.1-12.5
				c0-3.9,0.8-7.6,2.4-11.1c1.6-3.5,3.9-6.6,6.7-9.3c2.9-2.7,6.3-4.8,10.2-6.3c4-1.5,8.2-2.3,12.8-2.3c5.8,0,12,1.4,18.5,4.2
				c1.5,0.6,2.8,1.2,3.9,1.6c1,0.4,1.9,0.6,2.5,0.5c1.5,0,2.6-0.4,3.5-1.2c0.9-0.8,1.6-2.5,2.1-5.1H5794.2z"/>
		</g>
		<g>
			<path d="M4958,1360.4c7,0,13.7,1.5,20.1,4.4c6.4,2.9,12,6.9,16.8,12s8.7,11.1,11.6,18c2.9,6.9,4.3,14.4,4.3,22.4
				c0,8.3-1.4,16-4.3,23.1c-2.9,7.1-6.7,13.2-11.6,18.5c-4.9,5.2-10.6,9.3-17.2,12.2c-6.6,2.9-13.6,4.4-21,4.4
				c-7.5,0-14.5-1.4-21.1-4.2c-6.5-2.8-12.2-6.8-17-11.9c-4.8-5.1-8.6-11.2-11.4-18.3c-2.8-7.1-4.2-14.9-4.2-23.5
				c0-7.9,1.4-15.3,4.2-22.3c2.8-6.9,6.6-13,11.5-18.1c4.9-5.1,10.7-9.2,17.4-12.2C4942.8,1361.9,4950.1,1360.4,4958,1360.4z
				 M4956.4,1366.4c-5.6,0-10.5,1.2-14.8,3.6c-4.3,2.4-7.9,5.8-10.9,10.2c-2.9,4.4-5.2,9.7-6.7,16c-1.5,6.3-2.3,13.3-2.3,21.1
				c0,7.7,0.7,14.8,2.2,21.2c1.5,6.4,3.7,11.9,6.7,16.6c2.9,4.6,6.6,8.2,10.9,10.8c4.4,2.5,9.4,3.8,15,3.8c5.1,0,9.8-1,14.1-2.9
				c4.3-1.9,8.1-4.9,11.3-9c3.2-4.1,5.7-9.3,7.6-15.6c1.8-6.3,2.7-13.9,2.7-22.7c0-8.3-0.7-15.7-2.2-22.3
				c-1.5-6.6-3.8-12.1-6.8-16.7c-3-4.6-6.8-8-11.3-10.4C4967.5,1367.6,4962.3,1366.4,4956.4,1366.4z"/>
			<path d="M5051.2,1368.9v43.2h20c2.3,0,4.3-0.2,6-0.7c1.7-0.4,3-1.2,4.2-2.4c1.1-1.1,2-2.7,2.7-4.6c0.6-1.9,1.2-4.4,1.6-7.4h3
				v37.1h-3c-0.1-2.7-0.4-5.1-0.8-7c-0.5-1.9-1.3-3.5-2.4-4.8c-1.1-1.2-2.5-2.2-4.4-2.7c-1.8-0.6-4.1-0.8-6.8-0.8h-20v34.5
				c0,2.6,0,4.7,0.1,6.3c0.1,1.6,0.3,2.9,0.6,4c0.3,1,0.8,1.9,1.4,2.5c0.6,0.6,1.4,1.2,2.4,1.8c2.3,1.3,4.7,1.9,7.4,1.9h4v3h-47.2
				v-3h3.9c1.9,0,3.6-0.1,5.1-0.4c1.5-0.3,2.7-1,3.7-2.1s1.7-2.7,2.2-5c0.5-2.2,0.8-5.2,0.8-9v-71c0-2.5-0.1-4.6-0.2-6.2
				c-0.1-1.7-0.3-3-0.6-4.1c-0.3-1-0.7-1.9-1.3-2.5c-0.6-0.6-1.3-1.2-2.3-1.7c-1.2-0.6-2.4-1.1-3.6-1.5c-1.2-0.3-2.5-0.5-3.9-0.5
				h-3.9v-3h81.8v24.2h-1.8c-1-4-2.2-7.1-3.6-9.5c-1.3-2.4-2.9-4.2-4.8-5.5c-1.9-1.3-4.1-2.1-6.7-2.5c-2.6-0.4-5.7-0.6-9.3-0.6
				H5051.2z"/>
			<path d="M5170.5,1373.7l26.7-13.1h2.7v92.8c0,3.2,0,5.7,0.1,7.6c0.1,1.8,0.3,3.2,0.6,4.2c0.3,1,0.7,1.7,1.2,2.1
				c0.5,0.4,1.2,0.8,2.1,1.2c1.6,0.9,4.9,1.3,9.9,1.3v3h-41.4v-3c2.7,0,4.8-0.1,6.4-0.4c1.6-0.2,2.9-0.5,3.8-0.9
				c0.9-0.4,1.6-0.8,2-1.4c0.4-0.6,0.8-1.2,1-1.8c0.6-1.2,0.8-5.2,0.8-11.9v-59.4c0-4.7-0.1-8.4-0.3-11.1c-0.2-2.7-0.5-4.7-1-6
				c-0.5-1.3-1.1-2.1-1.9-2.5c-0.8-0.4-1.9-0.5-3.1-0.5c-2.3,0-5,0.7-8.3,2.2L5170.5,1373.7z"/>
			<path d="M5254.8,1457.1c2.4,0,4.5,0.9,6.3,2.6c1.8,1.7,2.7,3.9,2.7,6.4c0,2.5-0.9,4.6-2.7,6.4c-1.8,1.8-3.9,2.7-6.3,2.7
				c-2.5,0-4.6-0.9-6.4-2.7c-1.8-1.8-2.7-3.9-2.7-6.4c0-2.6,0.9-4.7,2.7-6.4C5250.2,1458,5252.3,1457.1,5254.8,1457.1z"/>
			<path d="M5347.6,1362.9l-6.4,13.8h-33l-7.3,14.8c6.5,1,12.6,2.7,18.1,5.1c5.5,2.5,10.3,5.5,14.2,9.1c4,3.6,7,7.8,9.3,12.5
				c2.2,4.7,3.3,9.8,3.3,15.2c0,6.7-1.4,12.6-4.2,17.7c-2.8,5.1-6.4,9.4-10.7,12.9c-4.3,3.5-9,6.2-14.1,8c-5.1,1.8-9.9,2.7-14.4,2.7
				c-3.4,0-6.3-0.3-8.7-0.9c-2.4-0.6-4.3-1.4-5.8-2.5c-1.5-1-2.6-2.2-3.3-3.4c-0.7-1.2-1.1-2.6-1.1-3.9c0-1.5,0.6-2.9,1.8-4.1
				c1.2-1.2,2.8-1.8,4.7-1.8c0.7,0,1.4,0,1.9,0.1c0.6,0.1,1.1,0.3,1.8,0.5c0.6,0.3,1.3,0.7,2.2,1.2c0.8,0.5,1.9,1.2,3.2,2.1
				c2,1.5,4.1,2.5,6.1,3.2c2.1,0.7,4.1,1,6.2,1c3.1,0,6.1-0.6,9-1.9c2.9-1.3,5.4-3,7.6-5.3c2.2-2.2,3.9-4.8,5.3-7.8
				c1.3-3,2-6.2,2-9.7c0-3.3-0.6-6.5-1.7-9.7c-1.1-3.1-2.7-6.1-4.8-8.9c-2.1-2.8-4.6-5.3-7.6-7.6c-2.9-2.3-6.3-4.2-10-5.8
				c-3-1.3-6.5-2.2-10.5-2.8c-4-0.6-8.5-1-13.6-1.3l21.1-42.8H5347.6z"/>
			<path d="M5499.9,1360.4l2.5,37.4h-2.5c-3.4-11.2-8.2-19.3-14.3-24.2c-6.2-4.9-13.6-7.4-22.3-7.4c-5.6,0-10.8,1.1-15.6,3.2
				c-4.8,2.1-8.9,5.4-12.3,9.9c-3.4,4.4-6.1,10-8,16.7c-1.9,6.7-2.9,14.6-2.9,23.7c0,7.3,0.9,14,2.7,20c1.8,6,4.5,11.1,8,15.3
				c3.5,4.2,7.8,7.5,12.9,9.8c5.1,2.3,10.9,3.4,17.5,3.4c6.9,0,13.2-1.5,18.9-4.6c5.4-2.8,11.4-8.9,18-18.1l2.5,1.6
				c-5.6,9.8-12,16.9-19.3,21.5c-7.3,4.6-16,6.8-26.2,6.8c-7.8,0-15-1.4-21.5-4.1c-6.5-2.7-12.2-6.6-16.9-11.6
				c-4.7-5-8.4-10.8-11.1-17.7c-2.7-6.8-4-14.3-4-22.4c0-11.1,2.5-21.1,7.4-30.2c4.8-9.2,11.6-16.3,20.2-21.3
				c8.7-5.1,18.1-7.6,28.3-7.6c8,0,15.8,1.9,23.5,5.8c2.3,1.2,3.9,1.8,4.8,1.8c1.8,0,3.2-0.7,4.4-2.2c1.2-1.5,2-3.3,2.5-5.4H5499.9z
				"/>
			<path d="M5578.6,1472.8l-42.5-92.4v73.4c0,3.8,0.3,6.8,0.8,8.9c0.5,2.1,1.3,3.7,2.3,4.8c1,1,2.2,1.7,3.7,1.9
				c1.5,0.2,3.1,0.4,5,0.4h3.9v3h-38.2v-3h3.9c1.9,0,3.6-0.1,5.1-0.4c1.5-0.3,2.7-1,3.6-2.1s1.7-2.7,2.2-4.8c0.5-2.1,0.7-5,0.7-8.7
				V1382c0-2.6-0.1-4.9-0.4-6.8c-0.2-2-0.9-3.6-1.9-5c-1-1.4-2.5-2.4-4.6-3.1c-2.1-0.7-4.9-1.1-8.7-1.1v-3h31.1l39.9,86l39.2-86
				h31.1v3h-3.8c-2,0-3.8,0.2-5.2,0.5c-1.5,0.3-2.7,1-3.6,2.1c-1,1.1-1.7,2.7-2.2,4.8c-0.5,2.1-0.7,5-0.7,8.7v71.9
				c0,3.8,0.3,6.8,0.8,8.9c0.5,2.1,1.3,3.7,2.3,4.8c1,1,2.2,1.7,3.7,1.9c1.5,0.2,3.1,0.4,5,0.4h3.8v3h-46.7v-3h3.9
				c1.9,0,3.6-0.2,5.1-0.5c1.5-0.3,2.7-1,3.7-2.1c1-1.1,1.8-2.7,2.2-4.8c0.5-2.1,0.7-5,0.7-8.6v-73.4l-42.3,92.4H5578.6z"/>
		</g>
		<g>
			<path d="M5058.3,1539.9v3c-2.2,0-4,0.2-5.4,0.6c-1.4,0.4-2.7,1.3-3.9,2.7c-1.2,1.4-2.4,3.5-3.6,6.3c-1.2,2.8-2.6,6.5-4.2,11.2
				l-30.6,88.7h-3.3l-25-70.3l-24.8,70.3h-3l-32.7-91.3c-1.2-3.4-2.2-6.1-2.9-8c-0.7-2-1.3-3.3-1.7-3.9c-1.1-2.1-2.6-3.6-4.4-4.7
				c-1.8-1-4.3-1.5-7.6-1.5v-3h40.7v3h-1.9c-2.8,0-5,0.6-6.5,1.9c-1.5,1.3-2.3,2.9-2.3,4.7c0,1.9,1.2,6.3,3.6,13.1l21.7,61.7
				l18.1-52.5l-5.8-16.6c-0.9-2-1.8-3.8-2.7-5.3c-0.9-1.5-1.9-2.8-3-3.9c-1.1-1-2.5-1.8-4-2.4c-1.5-0.5-3.4-0.8-5.6-0.8v-3h42.7v3
				h-2.9c-3.1,0-5.3,0.6-6.7,1.9c-1.4,1.3-2.1,3.1-2.1,5.3c0,2.7,1.2,7.5,3.6,14.4l21.1,59.8l20.9-60.6c1.1-3.4,2-6.2,2.7-8.5
				c0.6-2.3,1-4.1,1-5.4c0-2.6-1.1-4.4-3.4-5.4c-2.3-1-5.2-1.5-8.8-1.5v-3H5058.3z"/>
			<path d="M5110.8,1646.8v3h-47.1v-3h3.9c1.9,0,3.6-0.1,5.1-0.4c1.5-0.3,2.7-1,3.7-2.1s1.7-2.7,2.2-5c0.5-2.2,0.8-5.2,0.8-9v-71
				c0-2.5-0.1-4.6-0.2-6.2c-0.1-1.7-0.3-3-0.6-4.1c-0.3-1-0.7-1.9-1.3-2.5c-0.6-0.6-1.3-1.2-2.3-1.8c-2.4-1.3-4.9-1.9-7.5-1.9h-3.9
				v-3h47.1v3h-3.9c-1.9,0-3.7,0.2-5.1,0.5c-1.5,0.3-2.7,1-3.7,2.1s-1.7,2.7-2.2,5c-0.5,2.2-0.8,5.2-0.8,8.9v71c0,2.6,0,4.7,0.1,6.3
				c0.1,1.6,0.3,2.9,0.6,4c0.3,1,0.8,1.9,1.4,2.5s1.4,1.2,2.4,1.8c2.3,1.3,4.7,1.9,7.4,1.9H5110.8z"/>
			<path d="M5210.9,1539.9v25.9h-1.8c-0.9-6.9-2.9-11.8-6.1-14.7c-3.2-2.9-7.9-4.3-14.1-4.3h-15.5v84.1c0,3.7,0.3,6.6,0.8,8.8
				c0.5,2.1,1.3,3.7,2.2,4.8c1,1,2.2,1.7,3.6,2c1.5,0.3,3.1,0.4,5.1,0.4h3.8v3h-46.6v-3h3.9c1.9,0,3.6-0.2,5.1-0.5
				c1.5-0.3,2.7-1,3.6-2.1c1-1.1,1.7-2.7,2.2-4.8c0.5-2.1,0.8-5,0.8-8.6v-84.1h-13.2c-3.3,0-6.2,0.3-8.8,0.8
				c-2.5,0.5-4.7,1.5-6.6,2.9c-1.9,1.4-3.3,3.3-4.4,5.8c-1.1,2.5-1.8,5.6-2,9.5h-3v-25.9H5210.9z"/>
			<path d="M5250.4,1590.9h51.1v-31.5c0-2.6,0-4.7-0.1-6.4c-0.1-1.7-0.3-3-0.6-4.1c-0.3-1-0.8-1.9-1.4-2.5s-1.4-1.2-2.4-1.8
				c-2.3-1.3-4.7-1.9-7.4-1.9h-3.9v-3h47.1v3h-3.9c-1,0-2.2,0.1-3.3,0.4c-1.2,0.2-2.3,0.6-3.3,1.1c-1,0.5-1.9,1.1-2.7,1.8
				c-0.8,0.7-1.4,1.6-1.7,2.5c-0.6,1.7-0.8,5.3-0.8,10.8v70.9c0,2.6,0.1,4.7,0.2,6.3c0.1,1.6,0.3,2.9,0.6,4c0.3,1,0.7,1.9,1.3,2.5
				c0.6,0.6,1.3,1.2,2.3,1.8c2.3,1.3,4.8,1.9,7.5,1.9h3.9v3h-47.1v-3h3.9c1.9,0,3.5-0.1,5-0.4c1.5-0.3,2.7-1,3.8-2.1
				c1-1.1,1.8-2.7,2.4-5c0.5-2.2,0.8-5.2,0.8-9v-33.5h-51.1v33.5c0,2.6,0,4.7,0.1,6.3c0.1,1.6,0.3,2.9,0.6,4c0.3,1,0.8,1.9,1.4,2.5
				s1.4,1.2,2.4,1.8c2.3,1.3,4.7,1.9,7.4,1.9h4v3h-47.2v-3h4c4.4,0,7.7-1.3,9.8-4c1.3-1.6,1.9-5.8,1.9-12.5v-70.9
				c0-2.7,0-4.8-0.1-6.5c-0.1-1.7-0.3-3-0.6-4c-0.3-1-0.8-1.8-1.3-2.4c-0.6-0.6-1.3-1.2-2.3-1.8c-2.3-1.3-4.7-1.9-7.4-1.9h-4v-3
				h47.2v3h-4c-1,0-2,0.1-3.2,0.4c-1.2,0.2-2.3,0.6-3.3,1.1c-1,0.5-1.9,1.1-2.7,1.8c-0.8,0.7-1.4,1.6-1.7,2.5c-0.6,1.9-1,5.5-1,10.8
				V1590.9z"/>
		</g>
		<g>
			<path d="M4965.6,1822.6l-42.5-92.4v73.4c0,3.8,0.3,6.8,0.8,8.9c0.5,2.1,1.3,3.7,2.3,4.8c1,1,2.2,1.7,3.7,1.9
				c1.5,0.2,3.1,0.4,5,0.4h3.9v3h-38.2v-3h3.9c1.9,0,3.6-0.1,5.1-0.4c1.5-0.3,2.7-1,3.6-2.1c1-1.1,1.7-2.7,2.2-4.8
				c0.5-2.1,0.7-5,0.7-8.7v-71.9c0-2.6-0.1-4.9-0.4-6.8c-0.2-2-0.9-3.6-1.9-5c-1-1.4-2.5-2.4-4.6-3.1c-2.1-0.7-4.9-1.1-8.7-1.1v-3
				h31.1l39.9,86l39.2-86h31.1v3h-3.8c-2,0-3.8,0.2-5.2,0.5c-1.5,0.3-2.7,1-3.6,2.1c-1,1.1-1.7,2.7-2.2,4.8c-0.5,2.1-0.7,5-0.7,8.7
				v71.9c0,3.8,0.3,6.8,0.8,8.9c0.5,2.1,1.3,3.7,2.3,4.8c1,1,2.2,1.7,3.7,1.9c1.5,0.2,3.1,0.4,5,0.4h3.8v3h-46.7v-3h3.9
				c1.9,0,3.6-0.2,5.1-0.5c1.5-0.3,2.7-1,3.7-2.1c1-1.1,1.8-2.7,2.2-4.8c0.5-2.1,0.7-5,0.7-8.6v-73.4l-42.3,92.4H4965.6z"/>
			<path d="M5121.4,1785.8h-42.6l-7.5,17.3c-1.8,4.3-2.7,7.5-2.7,9.6c0,0.9,0.1,1.7,0.4,2.4c0.3,0.7,0.9,1.4,1.8,2
				c0.9,0.6,2.2,1.1,3.9,1.6c1.7,0.4,3.9,0.7,6.6,0.9v3h-34.6v-3c2.7-0.4,5-1,6.7-1.8c1.7-0.8,3.1-1.9,4.4-3.3
				c1.2-1.4,2.3-3.2,3.3-5.5c1-2.3,2.2-5,3.7-8.3l38.7-90.4h2.8l38.2,91.3c1.5,3.8,3,6.8,4.3,9.1c1.3,2.3,2.7,4.1,4.1,5.4
				c1.4,1.3,2.9,2.2,4.6,2.7c1.7,0.5,3.6,0.8,6,0.8v3H5120v-3c4.4-0.2,7.3-0.9,8.9-2.1c1.6-1.2,2.4-2.8,2.4-4.5
				c-0.1-2.3-1.2-6.1-3.3-11.4L5121.4,1785.8z M5119.1,1779.8l-18.6-44.4l-19.1,44.4H5119.1z"/>
			<path d="M5243,1712.6v25.9h-1.8c-0.9-6.9-2.9-11.8-6.1-14.7c-3.2-2.9-7.9-4.3-14.1-4.3h-15.5v84.1c0,3.7,0.3,6.6,0.8,8.8
				c0.5,2.1,1.3,3.7,2.2,4.8c1,1,2.2,1.7,3.6,2c1.5,0.3,3.1,0.4,5.1,0.4h3.8v3h-46.6v-3h3.9c1.9,0,3.6-0.2,5.1-0.5
				c1.5-0.3,2.7-1,3.6-2.1c1-1.1,1.7-2.7,2.2-4.8c0.5-2.1,0.8-5,0.8-8.6v-84.1h-13.2c-3.3,0-6.2,0.3-8.8,0.8
				c-2.5,0.5-4.7,1.5-6.6,2.9c-1.9,1.4-3.3,3.3-4.4,5.8c-1.1,2.5-1.8,5.6-2,9.5h-3v-25.9H5243z"/>
			<path d="M5283,1718.7v43.4h24.1c3.5,0,6.4-0.3,8.6-1c2.2-0.6,3.9-1.6,5.1-2.9c1.2-1.3,2.1-2.9,2.6-5c0.5-2,0.8-4.4,1-7.1h3v38.2
				h-3c-0.4-3.1-0.9-5.8-1.4-7.9c-0.5-2.1-1.4-3.8-2.5-5c-1.2-1.2-2.8-2.1-4.9-2.7c-2.1-0.5-4.9-0.8-8.5-0.8H5283v36.3
				c0,2.7,0,4.9,0.1,6.5c0.1,1.6,0.4,2.8,1,3.7c0.6,0.8,1.5,1.4,2.7,1.6c1.2,0.2,3,0.4,5.3,0.4h18.6c3.1,0,5.8-0.1,8-0.2
				c2.2-0.2,4.1-0.5,5.6-1c1.6-0.5,3-1.1,4.2-2c1.2-0.8,2.5-1.9,3.9-3.2c3.2-3.1,6.7-8.2,10.3-15.1h3.3l-9.6,27.6h-84.7v-3h3.9
				c1,0,2.1-0.1,3.3-0.4c1.1-0.2,2.2-0.6,3.2-1c1-0.4,1.9-1,2.7-1.8c0.8-0.7,1.4-1.6,1.7-2.5c0.6-1.8,1-5.3,1-10.6v-71.4
				c0-7-0.7-11.3-2.1-12.9c-1.9-2.2-5.2-3.3-9.8-3.3h-3.9v-3h84.7v24.1h-1.9c-0.8-4-1.7-7.1-2.6-9.5c-0.9-2.4-2.2-4.2-3.7-5.5
				c-1.5-1.3-3.5-2.1-5.9-2.5c-2.4-0.4-5.4-0.5-9.1-0.5H5283z"/>
			<path d="M5461.8,1822.6h-29.3l-37.3-51.4c-1.4,0.1-2.6,0.1-3.7,0.2c-1.1,0-2.1,0.1-3,0.1c-0.7,0-1.5,0-2.3-0.1
				c-0.8,0-1.7-0.1-2.5-0.2v31.9c0,3.9,0.3,6.9,0.8,9.1c0.5,2.2,1.3,3.9,2.3,5c1,1.1,2.2,1.8,3.6,2c1.4,0.2,3,0.4,4.8,0.4h4.4v3
				h-47.2v-3h4.2c4.5,0,7.8-1.5,9.9-4.5c1.1-1.8,1.7-5.8,1.7-12v-71c0-6.8-0.8-11-2.3-12.8c-2.1-2.4-5.2-3.6-9.3-3.6h-4.2v-3h40
				c5.9,0,11,0.2,15.2,0.7c4.3,0.4,7.8,1.1,10.5,2c2.7,0.9,5.3,2.1,7.7,3.7c2.4,1.6,4.5,3.5,6.4,5.7c1.8,2.2,3.2,4.7,4.3,7.4
				c1,2.7,1.6,5.7,1.6,8.8c0,6.9-2.2,12.7-6.5,17.7c-4.4,4.9-11.2,8.4-20.4,10.5l22.6,31.5c2.7,3.6,5,6.6,7.1,9
				c2.1,2.3,4.1,4.2,6.2,5.6c2.1,1.4,4.2,2.4,6.5,3c2.3,0.6,5,1.1,8.2,1.5V1822.6z M5383.8,1766.1c1,0,2,0,2.7,0.1
				c0.8,0,1.4,0.1,1.9,0.1c5.2,0,9.8-0.6,13.8-1.8c4-1.2,7.3-2.9,9.9-5.1c2.7-2.2,4.7-4.7,6-7.7c1.3-2.9,2-6.1,2-9.6
				c0-3.4-0.6-6.5-1.7-9.4c-1.1-2.9-2.7-5.3-4.8-7.4c-2.1-2.1-4.6-3.6-7.5-4.8c-2.9-1.1-6.1-1.7-9.6-1.7c-3.3,0-7.5,0.5-12.7,1.6
				V1766.1z"/>
			<path d="M5511.6,1819.6v3h-47.1v-3h3.9c1.9,0,3.6-0.1,5.1-0.4c1.5-0.3,2.7-1,3.7-2.1s1.7-2.7,2.2-5c0.5-2.2,0.8-5.2,0.8-9v-71
				c0-2.5-0.1-4.6-0.2-6.2c-0.1-1.7-0.3-3-0.6-4.1c-0.3-1-0.7-1.9-1.3-2.5c-0.6-0.6-1.3-1.2-2.3-1.8c-2.4-1.3-4.9-1.9-7.5-1.9h-3.9
				v-3h47.1v3h-3.9c-1.9,0-3.7,0.2-5.1,0.5c-1.5,0.3-2.7,1-3.7,2.1s-1.7,2.7-2.2,5c-0.5,2.2-0.8,5.2-0.8,8.9v71c0,2.6,0,4.7,0.1,6.3
				c0.1,1.6,0.3,2.9,0.6,4c0.3,1,0.8,1.9,1.4,2.5s1.4,1.2,2.4,1.8c2.3,1.3,4.7,1.9,7.4,1.9H5511.6z"/>
			<path d="M5591.6,1785.8h-42.6l-7.5,17.3c-1.8,4.3-2.7,7.5-2.7,9.6c0,0.9,0.1,1.7,0.4,2.4c0.3,0.7,0.9,1.4,1.8,2
				c0.9,0.6,2.2,1.1,3.9,1.6c1.7,0.4,3.9,0.7,6.6,0.9v3H5517v-3c2.7-0.4,5-1,6.7-1.8c1.7-0.8,3.1-1.9,4.4-3.3
				c1.2-1.4,2.3-3.2,3.3-5.5c1-2.3,2.2-5,3.7-8.3l38.7-90.4h2.8l38.2,91.3c1.5,3.8,3,6.8,4.3,9.1c1.3,2.3,2.7,4.1,4.1,5.4
				c1.4,1.3,2.9,2.2,4.6,2.7c1.7,0.5,3.6,0.8,6,0.8v3h-43.4v-3c4.4-0.2,7.3-0.9,8.9-2.1c1.6-1.2,2.4-2.8,2.4-4.5
				c-0.1-2.3-1.2-6.1-3.3-11.4L5591.6,1785.8z M5589.3,1779.8l-18.6-44.4l-19.1,44.4H5589.3z"/>
			<path d="M5730.8,1792.2l2.7,0.5l-9.4,29.9h-85.2v-3h4.2c4.5,0,7.8-1.5,9.9-4.5c1.1-1.8,1.7-5.8,1.7-12v-71c0-6.8-0.8-11-2.3-12.8
				c-2.1-2.4-5.2-3.6-9.3-3.6h-4.2v-3h49.8v3c-3,0-5.5,0.1-7.4,0.4c-2,0.3-3.6,0.7-4.9,1.2c-1.3,0.5-2.3,1.1-3,1.9
				c-0.7,0.7-1.3,1.5-1.8,2.4c-0.8,1.6-1.2,5.8-1.2,12.5v69.1c0,3.8,0.3,6.5,0.8,8.2c0.6,1.7,1.7,2.9,3.4,3.5
				c1.5,0.5,5.7,0.7,12.7,0.7h8c8.5,0,14.4-0.6,17.8-1.8c1.7-0.6,3.3-1.4,4.8-2.4c1.5-1,3-2.4,4.5-4.1c1.5-1.7,2.9-3.8,4.2-6.2
				C5727.9,1798.7,5729.3,1795.7,5730.8,1792.2z"/>
		</g>
		<g>
			<path d="M4965,2010.8l-42.5-92.4v73.4c0,3.8,0.3,6.8,0.8,8.9c0.5,2.1,1.3,3.7,2.3,4.8c1,1,2.2,1.7,3.7,1.9c1.5,0.2,3.1,0.4,5,0.4
				h3.9v3h-38.2v-3h3.9c1.9,0,3.6-0.1,5.1-0.4c1.5-0.3,2.7-1,3.6-2.1s1.7-2.7,2.2-4.8c0.5-2.1,0.7-5,0.7-8.7v-71.9
				c0-2.6-0.1-4.9-0.4-6.8c-0.2-2-0.9-3.6-1.9-5c-1-1.4-2.5-2.4-4.6-3.1s-4.9-1.1-8.7-1.1v-3h31.1l39.9,86l39.2-86h31.1v3h-3.8
				c-2,0-3.8,0.2-5.2,0.5c-1.5,0.3-2.7,1-3.6,2.1c-1,1.1-1.7,2.7-2.2,4.8c-0.5,2.1-0.7,5-0.7,8.7v71.9c0,3.8,0.3,6.8,0.8,8.9
				c0.5,2.1,1.3,3.7,2.3,4.8c1,1,2.2,1.7,3.7,1.9c1.5,0.2,3.1,0.4,5,0.4h3.8v3h-46.7v-3h3.9c1.9,0,3.6-0.2,5.1-0.5
				c1.5-0.3,2.7-1,3.7-2.1c1-1.1,1.8-2.7,2.2-4.8c0.5-2.1,0.7-5,0.7-8.6v-73.4l-42.3,92.4H4965z"/>
			<path d="M5079.4,1906.9v43.4h24.1c3.5,0,6.4-0.3,8.6-1c2.2-0.6,3.9-1.6,5.1-2.9c1.2-1.3,2.1-2.9,2.6-5c0.5-2,0.8-4.4,1-7.1h3
				v38.2h-3c-0.4-3.1-0.9-5.8-1.4-7.9c-0.5-2.1-1.4-3.8-2.5-5c-1.2-1.2-2.8-2.1-4.9-2.7c-2.1-0.5-4.9-0.8-8.5-0.8h-24.1v36.3
				c0,2.7,0,4.9,0.1,6.5c0.1,1.6,0.4,2.8,1,3.7c0.6,0.8,1.5,1.4,2.7,1.6c1.2,0.2,3,0.4,5.3,0.4h18.6c3.1,0,5.8-0.1,8-0.2
				c2.2-0.2,4.1-0.5,5.6-1c1.6-0.5,3-1.1,4.2-2c1.2-0.8,2.5-1.9,3.9-3.2c3.2-3.1,6.7-8.2,10.3-15.1h3.3l-9.6,27.6h-84.7v-3h3.9
				c1,0,2.1-0.1,3.3-0.4c1.1-0.2,2.2-0.6,3.2-1c1-0.4,1.9-1,2.7-1.8c0.8-0.7,1.4-1.6,1.7-2.5c0.6-1.8,1-5.3,1-10.6v-71.4
				c0-7-0.7-11.3-2.1-12.9c-1.9-2.2-5.2-3.3-9.8-3.3h-3.9v-3h84.7v24.1h-1.9c-0.8-4-1.7-7.1-2.6-9.5c-0.9-2.4-2.2-4.2-3.7-5.5
				c-1.5-1.3-3.5-2.1-5.9-2.5c-2.4-0.4-5.4-0.5-9.1-0.5H5079.4z"/>
			<path d="M5241.3,1980.4l2.7,0.5l-9.4,29.9h-85.2v-3h4.2c4.5,0,7.8-1.5,9.9-4.5c1.1-1.8,1.7-5.8,1.7-12v-71c0-6.8-0.8-11-2.3-12.8
				c-2.1-2.4-5.2-3.6-9.3-3.6h-4.2v-3h49.8v3c-3,0-5.5,0.1-7.4,0.4c-2,0.3-3.6,0.7-4.9,1.2c-1.3,0.5-2.3,1.1-3,1.9
				c-0.7,0.7-1.3,1.5-1.8,2.4c-0.8,1.6-1.2,5.8-1.2,12.5v69.1c0,3.8,0.3,6.5,0.8,8.2c0.6,1.7,1.7,2.9,3.4,3.5
				c1.5,0.5,5.7,0.7,12.7,0.7h8c8.5,0,14.4-0.6,17.8-1.8c1.7-0.6,3.3-1.4,4.8-2.4c1.5-1,3-2.4,4.5-4.1c1.5-1.7,2.9-3.8,4.2-6.2
				C5238.5,1986.8,5239.9,1983.9,5241.3,1980.4z"/>
			<path d="M5323.5,1974h-42.6l-7.5,17.3c-1.8,4.3-2.7,7.5-2.7,9.6c0,0.9,0.1,1.7,0.4,2.4c0.3,0.7,0.9,1.4,1.8,2
				c0.9,0.6,2.2,1.1,3.9,1.6c1.7,0.4,3.9,0.7,6.6,0.9v3h-34.6v-3c2.7-0.4,5-1,6.7-1.8c1.7-0.8,3.1-1.9,4.4-3.3
				c1.2-1.4,2.3-3.2,3.3-5.5c1-2.3,2.2-5,3.7-8.3l38.7-90.4h2.8l38.2,91.3c1.5,3.8,3,6.8,4.3,9.1c1.3,2.3,2.7,4.1,4.1,5.4
				c1.4,1.3,2.9,2.2,4.6,2.7c1.7,0.5,3.6,0.8,6,0.8v3h-43.4v-3c4.4-0.2,7.3-0.9,8.9-2.1c1.6-1.2,2.4-2.8,2.4-4.5
				c-0.1-2.3-1.2-6.1-3.3-11.4L5323.5,1974z M5321.2,1968l-18.6-44.4l-19.1,44.4H5321.2z"/>
			<path d="M5435.3,2010.8l-42.5-92.4v73.4c0,3.8,0.3,6.8,0.8,8.9c0.5,2.1,1.3,3.7,2.3,4.8c1,1,2.2,1.7,3.7,1.9
				c1.5,0.2,3.1,0.4,5,0.4h3.9v3h-38.2v-3h3.9c1.9,0,3.6-0.1,5.1-0.4c1.5-0.3,2.7-1,3.6-2.1c1-1.1,1.7-2.7,2.2-4.8
				c0.5-2.1,0.7-5,0.7-8.7v-71.9c0-2.6-0.1-4.9-0.4-6.8c-0.2-2-0.9-3.6-1.9-5c-1-1.4-2.5-2.4-4.6-3.1c-2.1-0.7-4.9-1.1-8.7-1.1v-3
				h31.1l39.9,86l39.2-86h31.1v3h-3.8c-2,0-3.8,0.2-5.2,0.5c-1.5,0.3-2.7,1-3.6,2.1c-1,1.1-1.7,2.7-2.2,4.8c-0.5,2.1-0.7,5-0.7,8.7
				v71.9c0,3.8,0.3,6.8,0.8,8.9c0.5,2.1,1.3,3.7,2.3,4.8c1,1,2.2,1.7,3.7,1.9c1.5,0.2,3.1,0.4,5,0.4h3.8v3h-46.7v-3h3.9
				c1.9,0,3.6-0.2,5.1-0.5c1.5-0.3,2.7-1,3.7-2.1c1-1.1,1.8-2.7,2.2-4.8c0.5-2.1,0.7-5,0.7-8.6v-73.4l-42.3,92.4H5435.3z"/>
			<path d="M5566.2,2007.8v3h-47.1v-3h3.9c1.9,0,3.6-0.1,5.1-0.4c1.5-0.3,2.7-1,3.7-2.1c1-1.1,1.7-2.7,2.2-5c0.5-2.2,0.8-5.2,0.8-9
				v-71c0-2.5-0.1-4.6-0.2-6.2c-0.1-1.7-0.3-3-0.6-4.1c-0.3-1-0.7-1.9-1.3-2.5c-0.6-0.6-1.3-1.2-2.3-1.8c-2.4-1.3-4.9-1.9-7.5-1.9
				h-3.9v-3h47.1v3h-3.9c-1.9,0-3.7,0.2-5.1,0.5c-1.5,0.3-2.7,1-3.7,2.1c-1,1.1-1.7,2.7-2.2,5c-0.5,2.2-0.8,5.2-0.8,8.9v71
				c0,2.6,0,4.7,0.1,6.3c0.1,1.6,0.3,2.9,0.6,4c0.3,1,0.8,1.9,1.4,2.5s1.4,1.2,2.4,1.8c2.3,1.3,4.7,1.9,7.4,1.9H5566.2z"/>
			<path d="M5568.1,1900.8h29.8l67.3,82.5v-63.4c0-3.7-0.3-6.7-0.8-8.8c-0.5-2.2-1.3-3.8-2.3-4.8c-1-1-2.2-1.7-3.7-2
				c-1.5-0.3-3.1-0.4-5-0.4h-3.9v-3h38.4v3h-4c-1.9,0-3.6,0.2-5.1,0.5c-1.5,0.3-2.7,1-3.6,2.2c-1,1.1-1.7,2.7-2.2,4.8
				c-0.5,2.1-0.7,5-0.7,8.6v92.7h-2.9l-72.5-88.6v67.8c0,3.8,0.3,6.8,0.8,8.9c0.5,2.1,1.3,3.7,2.2,4.8c1,1,2.2,1.7,3.6,1.9
				c1.5,0.2,3.1,0.4,5,0.4h3.9v3h-38.2v-3h3.9c1.9,0,3.6-0.2,5.1-0.5c1.5-0.3,2.7-1,3.7-2.1c1-1.1,1.8-2.7,2.2-4.8
				c0.5-2.1,0.7-5,0.7-8.6v-76.5c-1.6-1.9-3-3.5-4.1-4.6c-1.1-1.1-2.1-2.1-3.1-2.8c-1-0.7-2-1.3-3.1-1.8c-1.1-0.5-2.5-1-4.2-1.6
				c-1.6-0.5-4-0.7-7.1-0.7V1900.8z"/>
			<path d="M5724.9,1906.9v43.4h24.1c3.5,0,6.4-0.3,8.6-1c2.2-0.6,3.9-1.6,5.1-2.9c1.2-1.3,2.1-2.9,2.6-5c0.5-2,0.8-4.4,1-7.1h3
				v38.2h-3c-0.4-3.1-0.9-5.8-1.4-7.9c-0.5-2.1-1.4-3.8-2.5-5c-1.2-1.2-2.8-2.1-4.9-2.7c-2.1-0.5-4.9-0.8-8.5-0.8h-24.1v36.3
				c0,2.7,0,4.9,0.1,6.5c0.1,1.6,0.4,2.8,1,3.7c0.6,0.8,1.5,1.4,2.7,1.6c1.2,0.2,3,0.4,5.3,0.4h18.6c3.1,0,5.8-0.1,8-0.2
				c2.2-0.2,4.1-0.5,5.6-1c1.6-0.5,3-1.1,4.2-2c1.2-0.8,2.5-1.9,3.9-3.2c3.2-3.1,6.7-8.2,10.3-15.1h3.3l-9.6,27.6h-84.7v-3h3.9
				c1,0,2.1-0.1,3.3-0.4c1.1-0.2,2.2-0.6,3.2-1c1-0.4,1.9-1,2.7-1.8c0.8-0.7,1.4-1.6,1.7-2.5c0.6-1.8,1-5.3,1-10.6v-71.4
				c0-7-0.7-11.3-2.1-12.9c-1.9-2.2-5.2-3.3-9.8-3.3h-3.9v-3h84.7v24.1h-1.9c-0.8-4-1.7-7.1-2.6-9.5c-0.9-2.4-2.2-4.2-3.7-5.5
				c-1.5-1.3-3.5-2.1-5.9-2.5c-2.4-0.4-5.4-0.5-9.1-0.5H5724.9z"/>
		</g>
		<g>
			<path d="M5052.3,2092.7v3c-2.2,0-4,0.2-5.4,0.6c-1.4,0.4-2.7,1.3-3.9,2.7c-1.2,1.4-2.4,3.5-3.6,6.3c-1.2,2.8-2.6,6.5-4.2,11.2
				l-30.6,88.7h-3.3l-25-70.3l-24.8,70.3h-3l-32.7-91.3c-1.2-3.4-2.2-6.1-2.9-8c-0.7-2-1.3-3.3-1.7-3.9c-1.1-2.1-2.6-3.6-4.4-4.7
				c-1.8-1-4.3-1.5-7.6-1.5v-3h40.7v3h-1.9c-2.8,0-5,0.6-6.5,1.9c-1.5,1.3-2.3,2.9-2.3,4.7c0,1.9,1.2,6.3,3.6,13.1l21.7,61.7
				l18.1-52.5l-5.8-16.6c-0.9-2-1.8-3.8-2.7-5.3c-0.9-1.5-1.9-2.8-3-3.9c-1.1-1-2.5-1.8-4-2.4c-1.5-0.5-3.4-0.8-5.6-0.8v-3h42.7v3
				h-2.9c-3.1,0-5.3,0.6-6.7,1.9c-1.4,1.3-2.1,3.1-2.1,5.3c0,2.7,1.2,7.5,3.6,14.4l21.1,59.8l20.9-60.6c1.1-3.4,2-6.2,2.7-8.5
				c0.6-2.3,1-4.1,1-5.4c0-2.6-1.1-4.4-3.4-5.4c-2.3-1-5.2-1.5-8.8-1.5v-3H5052.3z"/>
			<path d="M5087.8,2143.7h51.1v-31.5c0-2.6,0-4.7-0.1-6.4c-0.1-1.7-0.3-3-0.6-4.1c-0.3-1-0.8-1.9-1.4-2.5s-1.4-1.2-2.4-1.8
				c-2.3-1.3-4.7-1.9-7.4-1.9h-3.9v-3h47.1v3h-3.9c-1,0-2.2,0.1-3.3,0.4c-1.2,0.2-2.3,0.6-3.3,1.1c-1,0.5-1.9,1.1-2.7,1.8
				c-0.8,0.7-1.4,1.6-1.7,2.5c-0.6,1.7-0.8,5.3-0.8,10.8v70.9c0,2.6,0.1,4.7,0.2,6.3c0.1,1.6,0.3,2.9,0.6,4c0.3,1,0.7,1.9,1.3,2.5
				c0.6,0.6,1.3,1.2,2.3,1.8c2.3,1.3,4.8,1.9,7.5,1.9h3.9v3h-47.1v-3h3.9c1.9,0,3.5-0.1,5-0.4c1.5-0.3,2.7-1,3.8-2.1
				c1-1.1,1.8-2.7,2.4-5c0.5-2.2,0.8-5.2,0.8-9v-33.5h-51.1v33.5c0,2.6,0,4.7,0.1,6.3c0.1,1.6,0.3,2.9,0.6,4c0.3,1,0.8,1.9,1.4,2.5
				s1.4,1.2,2.4,1.8c2.3,1.3,4.7,1.9,7.4,1.9h4v3h-47.2v-3h4c4.4,0,7.7-1.3,9.8-4c1.3-1.6,1.9-5.8,1.9-12.5v-70.9
				c0-2.7,0-4.8-0.1-6.5c-0.1-1.7-0.3-3-0.6-4c-0.3-1-0.8-1.8-1.3-2.4c-0.6-0.6-1.3-1.2-2.3-1.8c-2.3-1.3-4.7-1.9-7.4-1.9h-4v-3
				h47.2v3h-4c-1,0-2,0.1-3.2,0.4c-1.2,0.2-2.3,0.6-3.3,1.1c-1,0.5-1.9,1.1-2.7,1.8c-0.8,0.7-1.4,1.6-1.7,2.5c-0.6,1.9-1,5.5-1,10.8
				V2143.7z"/>
			<path d="M5224.7,2199.6v3h-47.1v-3h3.9c1.9,0,3.6-0.1,5.1-0.4c1.5-0.3,2.7-1,3.7-2.1c1-1.1,1.7-2.7,2.2-5c0.5-2.2,0.8-5.2,0.8-9
				v-71c0-2.5-0.1-4.6-0.2-6.2c-0.1-1.7-0.3-3-0.6-4.1c-0.3-1-0.7-1.9-1.3-2.5c-0.6-0.6-1.3-1.2-2.3-1.8c-2.4-1.3-4.9-1.9-7.5-1.9
				h-3.9v-3h47.1v3h-3.9c-1.9,0-3.7,0.2-5.1,0.5c-1.5,0.3-2.7,1-3.7,2.1c-1,1.1-1.7,2.7-2.2,5c-0.5,2.2-0.8,5.2-0.8,8.9v71
				c0,2.6,0,4.7,0.1,6.3c0.1,1.6,0.3,2.9,0.6,4c0.3,1,0.8,1.9,1.4,2.5s1.4,1.2,2.4,1.8c2.3,1.3,4.7,1.9,7.4,1.9H5224.7z"/>
			<path d="M5324.9,2092.7v25.9h-1.8c-0.9-6.9-2.9-11.8-6.1-14.7c-3.2-2.9-7.9-4.3-14.1-4.3h-15.5v84.1c0,3.7,0.3,6.6,0.8,8.8
				c0.5,2.1,1.3,3.7,2.2,4.8c1,1,2.2,1.7,3.6,2c1.5,0.3,3.1,0.4,5.1,0.4h3.8v3h-46.6v-3h3.9c1.9,0,3.6-0.2,5.1-0.5
				c1.5-0.3,2.7-1,3.6-2.1c1-1.1,1.7-2.7,2.2-4.8c0.5-2.1,0.8-5,0.8-8.6v-84.1h-13.2c-3.3,0-6.2,0.3-8.8,0.8
				c-2.5,0.5-4.7,1.5-6.6,2.9c-1.9,1.4-3.3,3.3-4.4,5.8c-1.1,2.5-1.8,5.6-2,9.5h-3v-25.9H5324.9z"/>
			<path d="M5365,2098.7v43.4h24.1c3.5,0,6.4-0.3,8.6-1c2.2-0.6,3.9-1.6,5.1-2.9c1.2-1.3,2.1-2.9,2.6-5c0.5-2,0.8-4.4,1-7.1h3v38.2
				h-3c-0.4-3.1-0.9-5.8-1.4-7.9c-0.5-2.1-1.4-3.8-2.5-5c-1.2-1.2-2.8-2.1-4.9-2.7c-2.1-0.5-4.9-0.8-8.5-0.8H5365v36.3
				c0,2.7,0,4.9,0.1,6.5c0.1,1.6,0.4,2.8,1,3.7c0.6,0.8,1.5,1.4,2.7,1.6s3,0.4,5.3,0.4h18.6c3.1,0,5.8-0.1,8-0.2
				c2.2-0.2,4.1-0.5,5.6-1c1.6-0.5,3-1.1,4.2-2c1.2-0.8,2.5-1.9,3.9-3.2c3.2-3.1,6.7-8.2,10.3-15.1h3.3l-9.6,27.6h-84.7v-3h3.9
				c1,0,2.1-0.1,3.3-0.4c1.1-0.2,2.2-0.6,3.2-1c1-0.4,1.9-1,2.7-1.8c0.8-0.7,1.4-1.6,1.7-2.5c0.6-1.8,1-5.3,1-10.6v-71.4
				c0-7-0.7-11.3-2.1-12.9c-1.9-2.2-5.2-3.3-9.8-3.3h-3.9v-3h84.7v24.1h-1.9c-0.8-4-1.7-7.1-2.6-9.5c-0.9-2.4-2.2-4.2-3.7-5.5
				c-1.5-1.3-3.5-2.1-5.9-2.5c-2.4-0.4-5.4-0.5-9.1-0.5H5365z"/>
			<path d="M5625.4,2092.7v3c-2.2,0-4,0.2-5.4,0.6c-1.4,0.4-2.7,1.3-3.9,2.7c-1.2,1.4-2.4,3.5-3.6,6.3c-1.2,2.8-2.6,6.5-4.2,11.2
				l-30.6,88.7h-3.3l-25-70.3l-24.8,70.3h-3l-32.7-91.3c-1.2-3.4-2.2-6.1-2.9-8c-0.7-2-1.3-3.3-1.7-3.9c-1.1-2.1-2.6-3.6-4.4-4.7
				c-1.8-1-4.3-1.5-7.6-1.5v-3h40.7v3h-1.9c-2.8,0-5,0.6-6.5,1.9c-1.5,1.3-2.3,2.9-2.3,4.7c0,1.9,1.2,6.3,3.6,13.1l21.7,61.7
				l18.1-52.5l-5.8-16.6c-0.9-2-1.8-3.8-2.7-5.3c-0.9-1.5-1.9-2.8-3-3.9c-1.1-1-2.5-1.8-4-2.4c-1.5-0.5-3.4-0.8-5.6-0.8v-3h42.7v3
				h-2.9c-3.1,0-5.3,0.6-6.7,1.9c-1.4,1.3-2.1,3.1-2.1,5.3c0,2.7,1.2,7.5,3.6,14.4l21.1,59.8l20.9-60.6c1.1-3.4,2-6.2,2.7-8.5
				c0.6-2.3,1-4.1,1-5.4c0-2.6-1.1-4.4-3.4-5.4c-2.3-1-5.2-1.5-8.8-1.5v-3H5625.4z"/>
			<path d="M5687.5,2090.2c7,0,13.7,1.5,20.1,4.4c6.4,2.9,12,6.9,16.8,12s8.7,11.1,11.6,18c2.9,6.9,4.3,14.4,4.3,22.4
				c0,8.3-1.4,16-4.3,23.1c-2.9,7.1-6.7,13.2-11.6,18.5c-4.9,5.2-10.6,9.3-17.2,12.2c-6.6,2.9-13.6,4.4-21,4.4
				c-7.5,0-14.5-1.4-21.1-4.2c-6.5-2.8-12.2-6.8-17-11.9c-4.8-5.1-8.6-11.2-11.4-18.3c-2.8-7.1-4.2-14.9-4.2-23.5
				c0-7.9,1.4-15.3,4.2-22.3c2.8-6.9,6.6-13,11.5-18.1c4.9-5.1,10.7-9.2,17.4-12.2C5672.3,2091.7,5679.6,2090.2,5687.5,2090.2z
				 M5685.9,2096.2c-5.6,0-10.5,1.2-14.8,3.6c-4.3,2.4-7.9,5.8-10.9,10.2c-2.9,4.4-5.2,9.7-6.7,16c-1.5,6.3-2.3,13.3-2.3,21.1
				c0,7.7,0.7,14.8,2.2,21.2c1.5,6.4,3.7,11.9,6.7,16.6c2.9,4.6,6.6,8.2,10.9,10.8c4.4,2.5,9.4,3.8,15,3.8c5.1,0,9.8-1,14.1-2.9
				c4.3-1.9,8.1-4.9,11.3-9c3.2-4.1,5.7-9.3,7.6-15.6c1.8-6.3,2.7-13.9,2.7-22.7c0-8.3-0.7-15.7-2.2-22.3
				c-1.5-6.6-3.8-12.1-6.8-16.7c-3-4.6-6.8-8-11.3-10.4C5697,2097.4,5691.8,2096.2,5685.9,2096.2z"/>
			<path d="M5807.4,2090.2c7,0,13.7,1.5,20.1,4.4c6.4,2.9,12,6.9,16.8,12s8.7,11.1,11.6,18c2.9,6.9,4.3,14.4,4.3,22.4
				c0,8.3-1.4,16-4.3,23.1c-2.9,7.1-6.7,13.2-11.6,18.5c-4.9,5.2-10.6,9.3-17.2,12.2c-6.6,2.9-13.6,4.4-21,4.4
				c-7.5,0-14.5-1.4-21.1-4.2c-6.5-2.8-12.2-6.8-17-11.9c-4.8-5.1-8.6-11.2-11.4-18.3c-2.8-7.1-4.2-14.9-4.2-23.5
				c0-7.9,1.4-15.3,4.2-22.3c2.8-6.9,6.6-13,11.5-18.1c4.9-5.1,10.7-9.2,17.4-12.2C5792.2,2091.7,5799.5,2090.2,5807.4,2090.2z
				 M5805.8,2096.2c-5.6,0-10.5,1.2-14.8,3.6c-4.3,2.4-7.9,5.8-10.9,10.2c-2.9,4.4-5.2,9.7-6.7,16c-1.5,6.3-2.3,13.3-2.3,21.1
				c0,7.7,0.7,14.8,2.2,21.2c1.5,6.4,3.7,11.9,6.7,16.6c2.9,4.6,6.6,8.2,10.9,10.8c4.4,2.5,9.4,3.8,15,3.8c5.1,0,9.8-1,14.1-2.9
				c4.3-1.9,8.1-4.9,11.3-9c3.2-4.1,5.7-9.3,7.6-15.6c1.8-6.3,2.7-13.9,2.7-22.7c0-8.3-0.7-15.7-2.2-22.3
				c-1.5-6.6-3.8-12.1-6.8-16.7c-3-4.6-6.8-8-11.3-10.4C5816.9,2097.4,5811.7,2096.2,5805.8,2096.2z"/>
			<path d="M5869.4,2202.6v-3h4.2c1.9,0,3.5-0.2,5-0.5c1.5-0.3,2.7-1,3.6-2.2c1-1.1,1.7-2.8,2.2-5c0.5-2.2,0.8-5.1,0.8-8.8v-71
				c0-6.8-0.8-11.1-2.3-12.8c-2.1-2.4-5.2-3.6-9.3-3.6h-4.2v-3h44.8c16.3,0,28.8,1.9,37.5,5.7c8.6,3.8,15.5,10,20.7,18.6
				c5.2,8.8,7.9,18.8,7.9,30.1c0,8.1-1.3,15.6-3.9,22.4c-2.6,6.8-6.5,12.6-11.7,17.5c-5.2,4.9-11.6,8.8-19.3,11.5
				c-7.7,2.7-16.6,4.1-26.7,4.1H5869.4z M5900.8,2194.7c6.7,1.5,12.4,2.3,17.2,2.3c6.2,0,12-1.1,17.3-3.4c5.3-2.3,9.9-5.6,13.9-9.8
				c3.9-4.2,7-9.4,9.2-15.4c2.2-6,3.3-12.8,3.3-20.3c0-7.6-1.1-14.4-3.3-20.5c-2.2-6.1-5.2-11.3-9.2-15.5c-4-4.2-8.6-7.5-14-9.7
				c-5.4-2.3-11.3-3.4-17.8-3.4c-4.8,0-10.3,0.8-16.6,2.4V2194.7z"/>
		</g>
	</g>
	<g>
		<g>
			<line class="st6" x1="644.9" y1="769.3" x2="6408" y2="783.6"/>
			<polygon class="st7" points="6379,807.1 6436.7,783.2 6380.4,760 			"/>
			<polygon class="st7" points="661.3,746.2 603.8,770.7 660.3,793.3 			"/>
			<g>
				<path d="M3272.2,871l21.9-11.5h1.5v81.7c0,2.8,0,5.1,0.1,6.7c0.1,1.6,0.2,2.8,0.5,3.7c0.3,0.9,0.6,1.5,1,1.8
					c0.4,0.4,1,0.7,1.7,1.1c1.3,0.8,4.1,1.2,8.2,1.2v2.7h-33.3v-2.7c2.2,0,3.9-0.1,5.2-0.3c1.3-0.2,2.3-0.5,3.1-0.8
					c0.7-0.3,1.3-0.7,1.6-1.2c0.4-0.5,0.6-1,0.8-1.6c0.5-1.1,0.7-4.5,0.7-10.4v-52.3c0-4.1-0.1-7.4-0.2-9.7
					c-0.2-2.4-0.4-4.1-0.8-5.3c-0.4-1.1-0.9-1.9-1.6-2.2c-0.7-0.3-1.5-0.5-2.6-0.5c-1.8,0-4.1,0.6-6.8,1.9L3272.2,871z"/>
				<path d="M3382.6,861.8l-5.2,12.6h-27l-5.9,12.4c5.3,0.9,10.3,2.4,14.8,4.5c4.5,2.2,8.4,4.8,11.6,8c3.2,3.2,5.7,6.9,7.6,11
					c1.8,4.1,2.7,8.6,2.7,13.3c0,5.9-1.2,11.1-3.5,15.6c-2.3,4.5-5.2,8.3-8.7,11.4c-3.5,3.1-7.4,5.4-11.5,7
					c-4.1,1.6-8.1,2.4-11.8,2.4c-2.8,0-5.1-0.3-7.1-0.8c-1.9-0.5-3.5-1.3-4.7-2.2c-1.2-0.9-2.1-1.9-2.7-3c-0.6-1.1-0.9-2.2-0.9-3.5
					c0-1.3,0.5-2.5,1.5-3.6c1-1,2.3-1.5,3.9-1.5c0.6,0,1.1,0,1.6,0.1c0.5,0.1,0.9,0.2,1.4,0.5c0.5,0.2,1.1,0.6,1.8,1.1
					c0.7,0.5,1.6,1.1,2.6,1.9c1.6,1.3,3.3,2.2,5,2.8c1.7,0.6,3.4,0.9,5.1,0.9c2.6,0,5-0.6,7.4-1.7c2.3-1.1,4.4-2.7,6.2-4.6
					c1.8-1.9,3.2-4.2,4.3-6.9c1.1-2.6,1.6-5.5,1.6-8.5c0-2.9-0.5-5.7-1.4-8.5c-0.9-2.8-2.2-5.4-3.9-7.8c-1.7-2.4-3.8-4.7-6.2-6.6
					c-2.4-2-5.1-3.7-8.1-5.1c-2.4-1.1-5.3-2-8.5-2.5c-3.3-0.5-7-0.9-11.1-1.1l17.2-37.6H3382.6z"/>
				<path d="M3405.7,861.8h47.3v2.5l-30,96.2h-7.4l27-87.3h-24c-3,0-5.5,0.3-7.5,0.8c-2,0.6-3.8,1.3-5.2,2.3c-1.5,1-2.7,2.2-3.7,3.7
					c-1,1.5-2,3.1-2.9,4.9l-1.8-0.7L3405.7,861.8z"/>
				<path d="M3575.1,859.5l2.1,33.3h-2.1c-2.8-10-6.8-17.2-11.9-21.6c-5.1-4.4-11.3-6.6-18.5-6.6c-4.7,0-9,1-12.9,2.9
					c-3.9,1.9-7.3,4.8-10.2,8.8c-2.8,4-5.1,8.9-6.7,14.9c-1.6,6-2.4,13-2.4,21.1c0,6.5,0.8,12.5,2.3,17.8c1.5,5.3,3.7,9.9,6.6,13.6
					c2.9,3.8,6.5,6.7,10.7,8.7c4.2,2,9,3.1,14.5,3.1c5.7,0,11-1.4,15.6-4.1c4.5-2.5,9.4-7.9,14.9-16.2l2.1,1.4
					c-4.6,8.7-9.9,15.1-16,19.1c-6,4.1-13.3,6.1-21.7,6.1c-6.5,0-12.4-1.2-17.8-3.7c-5.4-2.4-10.1-5.9-14-10.3
					c-3.9-4.4-7-9.7-9.2-15.7c-2.2-6.1-3.3-12.7-3.3-20c0-9.8,2-18.8,6.1-26.9c4-8.2,9.6-14.5,16.7-19c7.2-4.5,15-6.8,23.4-6.8
					c6.6,0,13.1,1.7,19.4,5.2c1.9,1.1,3.2,1.6,4,1.6c1.5,0,2.7-0.6,3.7-1.9c1-1.3,1.7-2.9,2.1-4.8H3575.1z"/>
				<path d="M3605.7,905.5c2.2-2.4,4-4.3,5.3-5.6c1.3-1.3,2.1-2.2,2.5-2.6c2-1.8,4.1-3.3,6.4-4.2c2.3-1,4.6-1.5,6.8-1.5
					c3.8,0,7.1,1.2,9.8,3.6c2.7,2.4,4.6,5.8,5.5,10.4c2.2-2.8,4.3-5.2,6.2-7c1.9-1.8,3.7-3.3,5.3-4.3c1.7-1,3.3-1.7,4.8-2.1
					c1.5-0.4,3.1-0.6,4.8-0.6c2.2,0,4.3,0.4,6.3,1.2c1.9,0.8,3.6,2.2,5.1,4c1.4,1.9,2.6,4.4,3.4,7.5c0.8,3.1,1.2,7,1.2,11.6v27.5
					c0,2.1,0.1,4,0.1,5.6c0.1,1.6,0.4,2.9,1,3.9c0.6,1,1.5,1.7,2.7,2.2c1.2,0.5,3,0.7,5.2,0.7v2.4h-29.9v-2.3h0.7
					c1.6,0,2.9-0.1,4-0.4c1.1-0.3,2-0.8,2.6-1.7c0.6-0.8,1.1-2.1,1.4-3.7c0.3-1.6,0.4-3.7,0.4-6.4v-28.1c0-3.1-0.2-5.7-0.7-7.7
					c-0.5-2-1.1-3.6-1.9-4.8c-0.8-1.2-1.9-2-3.1-2.5c-1.2-0.5-2.6-0.7-4.2-0.7c-1.2,0-2.3,0.1-3.4,0.4c-1.1,0.2-2.3,0.7-3.5,1.4
					c-1.2,0.7-2.5,1.6-3.9,2.7c-1.4,1.1-2.9,2.9-4.6,5.2v33.9c0,2.3,0,4.2,0.1,5.5c0.1,1.3,0.2,2.3,0.5,3c0.3,0.7,0.6,1.2,1,1.5
					c0.4,0.4,1,0.7,1.8,1.2c1.3,0.7,3.6,1.1,6.9,1.1v2.6h-31v-2.6c2.5,0,4.4-0.2,5.8-0.5c1.4-0.4,2.4-1,3.1-1.9
					c0.7-0.9,1-2.2,1.2-3.8c0.1-1.6,0.2-3.6,0.2-6v-27.8c0-3.1-0.3-5.7-0.8-7.8c-0.5-2.1-1.2-3.7-2.2-5c-0.9-1.3-2.1-2.2-3.3-2.7
					c-1.3-0.5-2.7-0.8-4.2-0.8c-1.5,0-3.1,0.3-4.6,0.9c-1.5,0.6-3,1.3-4.4,2.2c-1.4,0.9-2.7,1.9-3.9,3s-2.2,2.1-2.9,3.1v34.9
					c0,2.2,0.1,4,0.2,5.3c0.1,1.3,0.3,2.4,0.6,3.2c0.3,0.8,0.6,1.4,1.1,1.8c0.4,0.4,0.9,0.7,1.5,1c1.1,0.6,3.4,1,6.9,1v2.6h-31v-2.5
					c2,0,3.6-0.2,4.8-0.5c1.2-0.3,2.1-0.9,2.8-1.8c0.7-0.9,1.1-2.1,1.3-3.7c0.2-1.5,0.3-3.6,0.3-6.1v-24.7c0-4.2-0.1-7.5-0.2-9.9
					c-0.1-2.4-0.4-4.2-0.7-5.4c-0.4-1.2-0.8-1.9-1.5-2.2c-0.6-0.3-1.4-0.4-2.4-0.4c-0.6,0-1.2,0.1-2,0.3c-0.7,0.2-1.5,0.4-2.4,0.8
					l-1-2.5l18.1-7.9h3.6V905.5z"/>
			</g>
		</g>
		<g>
			<polygon class="st8" points="544.7,246.9 517.8,203.2 495.6,246.9 			"/>
			<polygon class="st8" points="495.7,624.6 520.8,668.8 544.7,625.5 			"/>
			<line class="st9" x1="520" y1="225.5" x2="520" y2="657.8"/>
			<g>
				<path d="M60.7,399.9l25.1-12h2v85.3c0,3,0,5.3,0.1,7c0.1,1.7,0.3,2.9,0.6,3.8c0.3,0.9,0.7,1.5,1.1,1.9c0.5,0.4,1.1,0.7,1.9,1.1
					c1.5,0.8,4.6,1.2,9.4,1.2v2.8H62.6v-2.8c2.5,0,4.5-0.1,6-0.3c1.5-0.2,2.7-0.5,3.5-0.8c0.8-0.3,1.5-0.8,1.9-1.3
					c0.4-0.5,0.7-1.1,1-1.7c0.5-1.1,0.8-4.7,0.8-10.9v-54.6c0-4.3-0.1-7.7-0.3-10.2c-0.2-2.5-0.5-4.3-1-5.5
					c-0.5-1.2-1.1-1.9-1.8-2.3c-0.8-0.3-1.7-0.5-2.9-0.5c-2.1,0-4.7,0.7-7.8,2L60.7,399.9z"/>
				<path d="M184.9,390.1l-5.9,13.2h-30.2l-6.6,13.2c6,0.9,11.5,2.5,16.5,4.7c5.1,2.3,9.4,5,13,8.4c3.6,3.3,6.4,7.1,8.5,11.5
					c2,4.3,3,9,3,13.9c0,6.1-1.3,11.5-3.9,16.2c-2.6,4.7-5.8,8.6-9.8,11.9c-3.9,3.2-8.2,5.7-12.9,7.3c-4.6,1.7-9,2.5-13.2,2.5
					c-3.1,0-5.7-0.3-7.9-0.8c-2.2-0.6-3.9-1.3-5.3-2.3c-1.4-1-2.4-2-3-3.2c-0.7-1.1-1-2.3-1-3.6c0-1.4,0.6-2.6,1.7-3.7
					c1.1-1.1,2.5-1.6,4.3-1.6c0.7,0,1.3,0,1.8,0.1c0.5,0.1,1.1,0.2,1.6,0.5c0.6,0.3,1.2,0.6,2,1.1c0.8,0.5,1.8,1.1,2.9,1.9
					c1.8,1.3,3.7,2.3,5.6,2.9c1.9,0.6,3.8,0.9,5.7,0.9c2.9,0,5.6-0.6,8.2-1.8c2.6-1.2,4.9-2.8,6.9-4.8c2-2,3.6-4.4,4.8-7.1
					c1.2-2.7,1.8-5.7,1.8-8.9c0-3-0.5-6-1.5-8.9c-1-2.9-2.5-5.6-4.4-8.1c-1.9-2.5-4.2-4.9-6.9-6.9c-2.7-2.1-5.7-3.8-9.1-5.3
					c-2.7-1.2-5.9-2-9.6-2.6c-3.7-0.6-7.8-0.9-12.4-1.2l19.3-39.4H184.9z"/>
				<path d="M324,387.9l2.3,34H324c-3.1-10.2-7.4-17.5-13-22c-5.6-4.5-12.4-6.7-20.3-6.7c-5.1,0-9.9,1-14.2,2.9
					c-4.3,1.9-8,4.9-11.2,9c-3.1,4-5.6,9.1-7.3,15.2c-1.8,6.1-2.6,13.3-2.6,21.6c0,6.7,0.8,12.7,2.5,18.2c1.6,5.4,4.1,10.1,7.3,13.9
					c3.2,3.9,7.1,6.8,11.7,8.9c4.6,2.1,9.9,3.1,15.9,3.1c6.3,0,12-1.4,17.1-4.2c4.9-2.6,10.4-8.1,16.4-16.5l2.3,1.4
					c-5.1,8.9-10.9,15.4-17.5,19.5c-6.6,4.1-14.6,6.2-23.8,6.2c-7.1,0-13.6-1.2-19.6-3.7c-5.9-2.5-11-6-15.3-10.5
					c-4.3-4.5-7.6-9.9-10.1-16.1c-2.4-6.2-3.6-13-3.6-20.4c0-10.1,2.2-19.2,6.7-27.5c4.4-8.4,10.5-14.8,18.4-19.4
					c7.9-4.6,16.5-6.9,25.7-6.9c7.3,0,14.4,1.8,21.3,5.3c2.1,1.1,3.5,1.7,4.4,1.7c1.6,0,2.9-0.7,4-2c1.1-1.3,1.8-3,2.3-5H324z"/>
				<path d="M359.5,435.3c2.5-2.5,4.5-4.5,5.9-5.9c1.4-1.4,2.4-2.3,2.8-2.7c2.2-1.9,4.6-3.4,7.2-4.4c2.6-1,5.1-1.6,7.6-1.6
					c4.3,0,7.9,1.2,11,3.7c3.1,2.5,5.1,6.1,6.1,10.8c2.5-3,4.8-5.4,6.9-7.3c2.1-1.9,4.1-3.4,6-4.4c1.9-1,3.7-1.8,5.4-2.2
					c1.7-0.4,3.5-0.6,5.4-0.6c2.5,0,4.8,0.4,7,1.3c2.2,0.9,4.1,2.3,5.7,4.2c1.6,2,2.9,4.6,3.8,7.8c0.9,3.3,1.4,7.3,1.4,12.1v29.6
					c0,2.1,0.1,4,0.2,5.6c0.1,1.6,0.5,2.9,1.1,3.9c0.6,1,1.6,1.7,2.9,2.2c1.3,0.5,3.2,0.7,5.6,0.7v2.9h-34v-2.2h1.4
					c1.8,0,3.2-0.1,4.5-0.4c1.2-0.3,2.2-0.9,3-1.8c0.7-0.9,1.3-2.2,1.6-3.8s0.5-3.9,0.5-6.7v-29.3c0-3.3-0.3-5.9-0.8-8
					c-0.5-2.1-1.2-3.8-2.2-5c-1-1.3-2.1-2.1-3.5-2.6c-1.4-0.5-3-0.7-4.7-0.7c-1.3,0-2.6,0.1-3.8,0.4c-1.2,0.3-2.5,0.7-3.9,1.4
					c-1.4,0.7-2.8,1.6-4.4,2.8c-1.6,1.2-3.3,3-5.2,5.4v35.1c0,2.4,0,4.3,0.1,5.7c0.1,1.4,0.3,2.4,0.6,3.1c0.3,0.7,0.7,1.2,1.1,1.6
					c0.4,0.4,1.1,0.8,1.9,1.2c1.4,0.7,3.8,1.1,7.3,1.1v2.7h-34v-2.7c2.6,0,4.7-0.2,6.2-0.6c1.5-0.4,2.6-1,3.3-2
					c0.7-1,1.1-2.3,1.3-3.9c0.1-1.7,0.2-3.7,0.2-6.3v-29.4c0-3.1-0.3-5.7-0.8-7.8c-0.5-2.1-1.3-3.7-2.3-5c-1-1.3-2.2-2.2-3.6-2.7
					c-1.4-0.5-2.9-0.8-4.6-0.8c-1.7,0-3.3,0.3-5,0.9c-1.7,0.6-3.3,1.3-4.8,2.2c-1.5,0.9-2.9,1.9-4.2,3c-1.3,1.1-2.4,2.1-3.2,3.2
					v36.5c0,2.3,0.1,4.1,0.2,5.5c0.1,1.4,0.4,2.5,0.7,3.3c0.3,0.8,0.7,1.4,1.2,1.8c0.5,0.4,1,0.8,1.6,1.1c1.2,0.7,3.6,1,7.3,1v2.7
					h-34v-2.7c2.2,0,3.9-0.2,5.2-0.5c1.3-0.3,2.3-1,3-1.9c0.7-1,1.2-2.3,1.4-3.9c0.2-1.6,0.3-3.8,0.3-6.4v-26
					c0-4.4-0.1-7.9-0.2-10.4c-0.1-2.5-0.4-4.4-0.8-5.7c-0.4-1.3-0.9-2-1.6-2.3c-0.7-0.3-1.5-0.4-2.6-0.4c-0.6,0-1.3,0.1-2.1,0.3
					c-0.8,0.2-1.6,0.5-2.6,0.8l-1-2.7l19.4-8.3h4.6V435.3z"/>
			</g>
		</g>
	</g>
	<g>
		<polygon class="st10" points="3356.1,1588.4 3340.2,2127.7 3201.6,2151.9 3227.7,1282.8 		"/>
		<polygon class="st11" points="894.2,1818.7 894.2,998.7 3227.7,1282.8 3201.6,2151.9 		"/>
	</g>
	<circle cx="3297" cy="1676.3" r="21.5"/>
	<line class="st12" x1="3538.6" y1="1675.4" x2="3293.7" y2="1676.2"/>
	<g id="SOPORTE-PARED_00000009563436956945839580000005754390188341395596_">
		<g>
			<polygon class="st13" points="6416.2,682.6 622,664.5 616.2,196.5 6412.4,208.4 			"/>
			<polygon class="st13" points="6469.7,672 6416,684.5 6412.4,207.7 6464.9,321.4 			"/>
		</g>
		<g>
			<g>
				<path d="M3088.6,481.1v28.4h-2.3c-1-7.7-3.5-13.5-7.5-17.5c-4-4-9-6.1-15.2-6.1c-2.1,0-4,0.4-5.8,1.1c-1.7,0.7-3.3,1.7-4.6,2.8
					c-1.3,1.2-2.3,2.5-3.1,4c-0.7,1.5-1.1,3.1-1.1,4.7c0,1.5,0.3,2.9,0.9,4.3c0.6,1.4,2.5,3.5,5.6,6.4c5.2,3.3,9.9,6.1,14,8.2
					c3.9,2.1,9.1,5.3,15.6,9.6c2.8,2.2,5,4.7,6.5,7.7c1.5,3,2.3,6.1,2.3,9.4c0,3.1-0.6,6-1.9,8.8c-1.3,2.8-3,5.2-5.3,7.3
					c-2.3,2.1-5,3.7-8.2,5c-3.2,1.2-6.7,1.9-10.5,1.9c-2.4,0-4.6-0.2-6.7-0.5c-0.4-0.1-1.3-0.3-2.8-0.8c-1.5-0.5-3.2-0.9-4.9-1.4
					c-1.7-0.5-3.4-0.9-4.9-1.4c-1.5-0.4-2.4-0.6-2.6-0.6c-1,0-1.8,0.3-2.4,0.9c-0.6,0.6-1,1.9-1.3,3.8h-2.3v-28.2h2.3
					c1.1,5.8,2.5,10.2,4.2,13.3c0.8,1.4,2,2.8,3.4,4c1.4,1.2,3,2.3,4.8,3.3c1.8,0.9,3.7,1.7,5.7,2.2c2,0.5,4.1,0.8,6.2,0.8
					c2.5,0,4.8-0.4,6.8-1.1c2-0.7,3.7-1.7,5.2-2.9c1.4-1.2,2.5-2.7,3.3-4.3c0.8-1.6,1.1-3.3,1.1-5.2c0-2-0.6-4.1-1.7-6.1
					c-1.1-2-3-4.1-5.6-6.1c-2.6-1.6-5.7-3.4-9.2-5.5c-6.8-3.9-12.9-7.7-18.2-11.3c-3-2.4-5.2-4.9-6.7-7.7c-1.5-2.8-2.3-5.9-2.3-9.4
					c0-2.9,0.6-5.6,1.8-8.3c1.2-2.6,2.9-4.9,5-6.9c2.1-2,4.7-3.6,7.6-4.7c3-1.1,6.1-1.7,9.6-1.7c4.3,0,8.9,1.1,13.8,3.2
					c1.1,0.5,2.1,0.9,2.9,1.2c0.8,0.3,1.4,0.4,1.9,0.4c1.1,0,2-0.3,2.6-0.9c0.7-0.6,1.2-1.9,1.5-3.8H3088.6z"/>
				<path d="M3159.9,485.2V483h29v2.3h-3.1c-3.1,0-5.6,1.4-7.4,4.1c-0.8,1.2-1.3,4.1-1.3,8.8v33.3c0,8.1-0.8,14.5-2.5,19.3
					c-0.8,2.3-2,4.4-3.6,6.4c-1.6,2-3.6,3.7-6,5.2c-2.4,1.5-5.2,2.7-8.5,3.5c-3.2,0.9-6.9,1.3-11.1,1.3c-4.5,0-8.5-0.4-11.8-1.2
					c-3.4-0.8-6.3-1.9-8.7-3.4c-2.4-1.5-4.4-3.3-6-5.4c-1.6-2.1-2.8-4.5-3.8-7.1c-1.3-3.7-2-10.4-2-20.2v-32.1
					c0-2.5-0.2-4.6-0.5-6.2c-0.3-1.6-0.9-2.8-1.6-3.8c-0.7-0.9-1.6-1.5-2.8-1.9c-1.1-0.3-2.4-0.5-3.9-0.5h-3.2V483h35.5v2.3h-3.2
					c-1.4,0-2.7,0.2-3.8,0.5c-1.1,0.3-2,0.9-2.7,1.8c-0.7,0.9-1.3,2.1-1.7,3.7c-0.4,1.6-0.6,3.7-0.6,6.4v35.8
					c0,3.6,0.2,7.1,0.7,10.6c0.5,3.4,1.5,6.5,3,9.2c1.5,2.7,3.7,4.8,6.5,6.4c2.8,1.6,6.5,2.4,11.2,2.4c2.7,0,5.2-0.3,7.7-0.9
					c2.5-0.6,4.7-1.5,6.7-2.6c2-1.1,3.8-2.4,5.3-3.9c1.5-1.5,2.6-3.2,3.3-5c1.6-3.6,2.4-9.8,2.4-18.6v-33.3c0-5.1-0.6-8.3-1.7-9.6
					c-1.6-1.8-3.9-2.7-7-2.7H3159.9z"/>
				<path d="M3215.6,526.7v23.9c0,5.2,0.6,8.5,1.7,9.7c1.6,1.7,3.9,2.6,7,2.6h3.2v2.3h-35.2v-2.3h3.1c3.4,0,5.9-1.1,7.4-3.3
					c0.8-1.3,1.3-4.3,1.3-8.9v-53.1c0-5.1-0.5-8.3-1.6-9.6c-1.6-1.8-4-2.7-7.1-2.7h-3.1V483h30.1c7.2,0,13,0.8,17.4,2.4
					c2.1,0.7,4.1,1.7,5.9,3c1.8,1.3,3.4,2.8,4.8,4.6c1.4,1.8,2.4,3.7,3.2,5.9c0.8,2.1,1.2,4.4,1.2,6.9c0,3.3-0.6,6.4-1.7,9.1
					c-1.1,2.8-2.8,5.2-5,7.1c-2.2,2-4.8,3.5-8,4.7c-3.1,1.1-6.7,1.7-10.8,1.7C3225.6,528.3,3220.9,527.8,3215.6,526.7z
					 M3215.6,523.2c2.2,0.4,4.1,0.7,5.7,0.9c1.6,0.2,3,0.3,4.2,0.3c2.1,0,4.1-0.4,6-1.3c1.9-0.9,3.5-2.1,4.9-3.6
					c1.4-1.5,2.5-3.4,3.3-5.6c0.8-2.2,1.2-4.5,1.2-7c0-3-0.5-5.7-1.4-8c-0.9-2.3-2.1-4.3-3.7-6c-1.6-1.6-3.4-2.9-5.5-3.7
					c-2.1-0.8-4.4-1.3-6.9-1.3c-2,0-4.7,0.4-8,1.1V523.2z"/>
				<path d="M3284.6,526.7v23.9c0,5.2,0.6,8.5,1.7,9.7c1.6,1.7,3.9,2.6,7,2.6h3.2v2.3h-35.2v-2.3h3.1c3.4,0,5.9-1.1,7.4-3.3
					c0.8-1.3,1.3-4.3,1.3-8.9v-53.1c0-5.1-0.5-8.3-1.6-9.6c-1.6-1.8-4-2.7-7.1-2.7h-3.1V483h30.1c7.2,0,13,0.8,17.4,2.4
					c2.1,0.7,4.1,1.7,5.9,3c1.8,1.3,3.4,2.8,4.8,4.6c1.4,1.8,2.4,3.7,3.2,5.9c0.8,2.1,1.2,4.4,1.2,6.9c0,3.3-0.6,6.4-1.7,9.1
					c-1.1,2.8-2.8,5.2-5,7.1c-2.2,2-4.8,3.5-8,4.7c-3.1,1.1-6.7,1.7-10.8,1.7C3294.5,528.3,3289.9,527.8,3284.6,526.7z
					 M3284.6,523.2c2.2,0.4,4.1,0.7,5.7,0.9c1.6,0.2,3,0.3,4.2,0.3c2.1,0,4.1-0.4,6-1.3c1.9-0.9,3.5-2.1,4.9-3.6
					c1.4-1.5,2.5-3.4,3.3-5.6c0.8-2.2,1.2-4.5,1.2-7c0-3-0.5-5.7-1.4-8c-0.9-2.3-2.1-4.3-3.7-6c-1.6-1.6-3.4-2.9-5.5-3.7
					c-2.1-0.8-4.4-1.3-6.9-1.3c-2,0-4.7,0.4-8,1.1V523.2z"/>
				<path d="M3373.5,481.1c5.2,0,10.2,1.1,15,3.3c4.8,2.2,8.9,5.2,12.6,8.9c3.6,3.8,6.5,8.3,8.6,13.4c2.1,5.2,3.2,10.7,3.2,16.8
					c0,6.2-1.1,12-3.2,17.3c-2.1,5.3-5,9.9-8.7,13.8c-3.6,3.9-7.9,6.9-12.8,9.1c-4.9,2.2-10.1,3.3-15.7,3.3
					c-5.6,0-10.8-1.1-15.7-3.2s-9.1-5.1-12.7-8.9c-3.6-3.8-6.4-8.4-8.5-13.7c-2.1-5.3-3.1-11.1-3.1-17.5c0-5.9,1-11.4,3.1-16.6
					c2.1-5.2,4.9-9.7,8.6-13.5c3.6-3.8,8-6.9,13-9.1C3362.2,482.3,3367.6,481.1,3373.5,481.1z M3372.4,485.6
					c-4.2,0-7.8,0.9-11.1,2.7c-3.2,1.8-5.9,4.3-8.1,7.6c-2.2,3.3-3.9,7.3-5,11.9c-1.1,4.7-1.7,9.9-1.7,15.8c0,5.8,0.6,11.1,1.7,15.9
					c1.1,4.8,2.8,8.9,5,12.4c2.2,3.5,4.9,6.1,8.2,8c3.3,1.9,7,2.8,11.2,2.8c3.8,0,7.3-0.7,10.5-2.2c3.2-1.4,6-3.7,8.5-6.7
					c2.4-3,4.3-6.9,5.6-11.7c1.4-4.7,2-10.4,2-16.9c0-6.2-0.6-11.8-1.7-16.7c-1.1-4.9-2.8-9.1-5.1-12.5c-2.3-3.4-5.1-6-8.4-7.8
					C3380.6,486.5,3376.8,485.6,3372.4,485.6z"/>
				<path d="M3501.5,565.1h-21.9l-27.8-38.4c-1,0.1-1.9,0.1-2.8,0.1c-0.8,0-1.6,0-2.2,0c-0.5,0-1.1,0-1.7,0c-0.6,0-1.2-0.1-1.9-0.1
					v23.9c0,2.9,0.2,5.2,0.6,6.8c0.4,1.7,1,2.9,1.7,3.7c0.8,0.8,1.7,1.3,2.7,1.5c1.1,0.2,2.2,0.3,3.6,0.3h3.3v2.3h-35.2v-2.3h3.2
					c3.4,0,5.8-1.1,7.4-3.3c0.8-1.3,1.3-4.3,1.3-8.9v-53.1c0-5.1-0.6-8.3-1.7-9.6c-1.6-1.8-3.9-2.7-7-2.7h-3.2V483h29.9
					c4.4,0,8.2,0.2,11.4,0.5c3.2,0.3,5.8,0.8,7.9,1.5c2,0.7,4,1.6,5.8,2.8c1.8,1.2,3.4,2.6,4.7,4.2c1.4,1.7,2.4,3.5,3.2,5.6
					c0.8,2,1.2,4.2,1.2,6.6c0,5.1-1.6,9.5-4.9,13.2c-3.3,3.7-8.3,6.3-15.3,7.9l16.9,23.5c2,2.7,3.8,4.9,5.3,6.7
					c1.5,1.7,3.1,3.1,4.6,4.2c1.5,1,3.2,1.8,4.9,2.3c1.7,0.5,3.8,0.8,6.1,1.1V565.1z M3443.2,522.9c0.8,0,1.5,0,2,0c0.6,0,1,0,1.4,0
					c3.9,0,7.4-0.5,10.3-1.4c3-0.9,5.4-2.2,7.4-3.8c2-1.6,3.5-3.5,4.5-5.7c1-2.2,1.5-4.6,1.5-7.2c0-2.5-0.4-4.9-1.3-7
					c-0.8-2.1-2-4-3.6-5.5c-1.6-1.5-3.4-2.7-5.6-3.6c-2.2-0.8-4.6-1.3-7.1-1.3c-2.5,0-5.6,0.4-9.5,1.2V522.9z"/>
				<path d="M3564.8,483v19.3h-1.4c-0.7-5.2-2.2-8.8-4.6-11c-2.4-2.1-5.9-3.2-10.5-3.2h-11.6v62.8c0,2.8,0.2,5,0.6,6.6
					c0.4,1.6,0.9,2.8,1.7,3.6c0.7,0.8,1.6,1.3,2.7,1.5c1.1,0.2,2.3,0.3,3.8,0.3h2.8v2.3h-34.8v-2.3h2.9c1.4,0,2.7-0.1,3.8-0.4
					c1.1-0.2,2-0.8,2.7-1.6c0.7-0.8,1.3-2,1.7-3.6c0.4-1.6,0.6-3.7,0.6-6.4v-62.8h-9.9c-2.5,0-4.7,0.2-6.6,0.6
					c-1.9,0.4-3.5,1.1-4.9,2.2c-1.4,1.1-2.5,2.5-3.3,4.3c-0.8,1.8-1.3,4.2-1.5,7.1h-2.3V483H3564.8z"/>
				<path d="M3711.3,483v2.3c-1.6,0-3,0.2-4,0.5c-1.1,0.3-2,1-2.9,2c-0.9,1.1-1.8,2.6-2.7,4.7c-0.9,2.1-2,4.9-3.2,8.4l-22.9,66.2
					h-2.4l-18.7-52.5l-18.5,52.5h-2.3l-24.4-68.2c-0.9-2.5-1.6-4.5-2.2-6c-0.5-1.5-1-2.5-1.3-2.9c-0.8-1.6-1.9-2.7-3.3-3.5
					c-1.4-0.8-3.2-1.1-5.6-1.1V483h30.4v2.3h-1.4c-2.1,0-3.7,0.5-4.9,1.4c-1.1,1-1.7,2.1-1.7,3.5c0,1.4,0.9,4.7,2.7,9.8l16.2,46.1
					l13.6-39.2l-4.3-12.4c-0.7-1.5-1.3-2.8-2-4c-0.7-1.1-1.4-2.1-2.3-2.9c-0.8-0.8-1.8-1.4-3-1.8c-1.1-0.4-2.5-0.6-4.2-0.6V483h31.9
					v2.3h-2.2c-2.3,0-3.9,0.5-5,1.4c-1,1-1.5,2.3-1.5,4c0,2,0.9,5.6,2.7,10.8l15.7,44.6l15.6-45.3c0.8-2.5,1.5-4.6,2-6.3
					c0.5-1.7,0.7-3,0.7-4.1c0-1.9-0.8-3.3-2.5-4c-1.7-0.8-3.9-1.1-6.6-1.1V483H3711.3z"/>
				<path d="M3755.3,537.6h-31.8l-5.6,12.9c-1.3,3.2-2,5.6-2,7.1c0,0.7,0.1,1.3,0.3,1.8c0.2,0.5,0.7,1,1.4,1.5
					c0.7,0.5,1.7,0.8,2.9,1.2c1.2,0.3,2.9,0.6,4.9,0.7v2.3h-25.8v-2.3c2-0.3,3.7-0.8,5-1.4c1.3-0.6,2.4-1.4,3.3-2.5
					c0.9-1.1,1.7-2.4,2.5-4.1c0.8-1.7,1.7-3.8,2.8-6.2l28.9-67.5h2.1l28.6,68.2c1.1,2.8,2.2,5.1,3.2,6.8c1,1.7,2,3.1,3.1,4
					c1.1,1,2.2,1.6,3.4,2c1.2,0.4,2.7,0.6,4.5,0.6v2.3h-32.4v-2.3c3.3-0.1,5.5-0.6,6.6-1.6c1.2-0.9,1.8-2.1,1.8-3.4
					c-0.1-1.7-0.9-4.6-2.4-8.5L3755.3,537.6z M3753.6,533.1l-13.9-33.2l-14.3,33.2H3753.6z"/>
				<path d="M3859.2,542.4l2,0.4l-7.1,22.3h-63.6v-2.3h3.2c3.4,0,5.8-1.1,7.4-3.3c0.8-1.3,1.3-4.3,1.3-8.9v-53.1
					c0-5.1-0.6-8.3-1.7-9.6c-1.6-1.8-3.9-2.7-7-2.7h-3.2V483h37.2v2.3c-2.2,0-4.1,0.1-5.6,0.3c-1.5,0.2-2.7,0.5-3.7,0.9
					c-1,0.4-1.7,0.9-2.3,1.4c-0.5,0.5-1,1.1-1.4,1.8c-0.6,1.2-0.9,4.3-0.9,9.3v51.6c0,2.8,0.2,4.9,0.6,6.1c0.4,1.3,1.3,2.1,2.5,2.6
					c1.1,0.4,4.2,0.5,9.5,0.5h6c6.3,0,10.8-0.5,13.3-1.4c1.3-0.4,2.5-1,3.6-1.8c1.1-0.8,2.3-1.8,3.3-3.1c1.1-1.3,2.1-2.8,3.2-4.6
					C3857.1,547.2,3858.2,545,3859.2,542.4z"/>
				<path d="M3935,542.4l2,0.4l-7.1,22.3h-63.6v-2.3h3.2c3.4,0,5.8-1.1,7.4-3.3c0.8-1.3,1.3-4.3,1.3-8.9v-53.1
					c0-5.1-0.6-8.3-1.7-9.6c-1.6-1.8-3.9-2.7-7-2.7h-3.2V483h37.2v2.3c-2.2,0-4.1,0.1-5.6,0.3c-1.5,0.2-2.7,0.5-3.7,0.9
					c-1,0.4-1.7,0.9-2.3,1.4c-0.5,0.5-1,1.1-1.4,1.8c-0.6,1.2-0.9,4.3-0.9,9.3v51.6c0,2.8,0.2,4.9,0.6,6.1c0.4,1.3,1.3,2.1,2.5,2.6
					c1.1,0.4,4.2,0.5,9.5,0.5h6c6.3,0,10.8-0.5,13.3-1.4c1.3-0.4,2.5-1,3.6-1.8c1.1-0.8,2.3-1.8,3.3-3.1c1.1-1.3,2.1-2.8,3.2-4.6
					C3932.8,547.2,3933.9,545,3935,542.4z"/>
			</g>
			<g>
				<path d="M3333.7,270.8c9.4,0,18.4,2,27,5.9c8.6,3.9,16.1,9.3,22.6,16.1s11.7,14.9,15.5,24.1c3.8,9.3,5.8,19.3,5.8,30.1
					c0,11.2-1.9,21.5-5.8,31c-3.8,9.5-9,17.8-15.6,24.8c-6.6,7-14.2,12.5-23.1,16.4c-8.8,4-18.2,5.9-28.2,5.9
					c-10.1,0-19.5-1.9-28.3-5.7c-8.8-3.8-16.4-9.1-22.8-16c-6.4-6.9-11.5-15.1-15.3-24.6c-3.7-9.5-5.6-20-5.6-31.5
					c0-10.6,1.9-20.6,5.6-29.9c3.7-9.3,8.9-17.4,15.4-24.3c6.6-6.9,14.3-12.3,23.3-16.3C3313.3,272.8,3323.1,270.8,3333.7,270.8z
					 M3331.6,278.8c-7.5,0-14.1,1.6-19.9,4.8c-5.8,3.2-10.7,7.7-14.6,13.6c-4,5.9-7,13.1-9,21.4c-2.1,8.4-3.1,17.8-3.1,28.4
					c0,10.4,1,19.9,3,28.5c2,8.6,5,16,8.9,22.3c4,6.2,8.9,11,14.7,14.5c5.8,3.4,12.6,5.1,20.1,5.1c6.8,0,13.1-1.3,18.9-3.9
					c5.8-2.6,10.9-6.6,15.2-12.1c4.3-5.5,7.7-12.5,10.2-21c2.4-8.5,3.7-18.7,3.7-30.5c0-11.2-1-21.1-3-30c-2-8.8-5-16.3-9.1-22.4
					c-4.1-6.1-9.1-10.8-15.1-14C3346.5,280.4,3339.5,278.8,3331.6,278.8z"/>
				<path d="M3410.2,274.1h40l90.3,110.8v-85.1c0-5-0.4-8.9-1.1-11.9c-0.7-2.9-1.7-5.1-3.1-6.5c-1.4-1.4-3-2.3-5-2.7
					c-2-0.4-4.2-0.6-6.7-0.6h-5.2v-4.1h51.5v4.1h-5.4c-2.6,0-4.9,0.2-6.8,0.6c-1.9,0.4-3.6,1.4-4.9,2.9c-1.3,1.5-2.3,3.7-2.9,6.5
					c-0.7,2.8-1,6.7-1,11.5v124.5h-3.9l-97.3-118.9v91c0,5.1,0.4,9.1,1.1,11.9c0.7,2.9,1.7,5,3,6.4c1.3,1.4,2.9,2.3,4.9,2.6
					c1.9,0.3,4.2,0.5,6.7,0.5h5.2v4.1h-51.3v-4.1h5.2c2.6,0,4.9-0.2,6.8-0.7c1.9-0.4,3.6-1.4,5-2.8c1.4-1.5,2.4-3.6,3-6.4
					c0.7-2.8,1-6.7,1-11.5V293.6c-2.2-2.6-4-4.7-5.4-6.2c-1.5-1.5-2.8-2.8-4.1-3.7c-1.3-1-2.7-1.8-4.2-2.4c-1.5-0.7-3.4-1.4-5.7-2.1
					c-2.2-0.6-5.4-1-9.6-1V274.1z"/>
				<path d="M3620.8,282.2v58.3h32.3c4.8,0,8.6-0.4,11.5-1.3c2.9-0.9,5.2-2.2,6.9-3.9c1.7-1.7,2.8-4,3.5-6.7
					c0.6-2.7,1.1-5.9,1.3-9.6h4.1v51.3h-4.1c-0.5-4.2-1.2-7.7-1.9-10.6c-0.7-2.8-1.8-5.1-3.4-6.7c-1.6-1.7-3.8-2.9-6.6-3.6
					c-2.8-0.7-6.6-1.1-11.4-1.1h-32.3v48.7c0,3.7,0.1,6.6,0.2,8.8c0.1,2.2,0.5,3.8,1.3,5c0.8,1.1,2,1.9,3.6,2.2
					c1.6,0.3,4,0.5,7.1,0.5h25c4.2,0,7.8-0.1,10.7-0.3c2.9-0.2,5.4-0.6,7.6-1.3c2.1-0.7,4-1.5,5.6-2.7c1.6-1.1,3.4-2.6,5.2-4.3
					c4.3-4.2,8.9-11,13.8-20.3h4.4l-12.8,37h-113.7v-4.1h5.2c1.4,0,2.9-0.2,4.4-0.5c1.5-0.3,2.9-0.8,4.3-1.4
					c1.4-0.6,2.6-1.4,3.7-2.4c1.1-1,1.8-2.1,2.3-3.4c0.9-2.4,1.3-7.1,1.3-14.3v-95.9c0-9.4-0.9-15.2-2.8-17.4
					c-2.6-2.9-7-4.4-13.2-4.4h-5.2v-4.1h113.7v32.3h-2.6c-1.1-5.3-2.3-9.6-3.5-12.8c-1.2-3.2-2.9-5.7-5-7.4
					c-2.1-1.7-4.7-2.8-7.9-3.3c-3.2-0.5-7.3-0.7-12.3-0.7H3620.8z"/>
			</g>
		</g>
	</g>
</g>
<g id="SOPORTE-PARED">
</g>
<g id="MEDIDAS">
</g>
<g id="PROCESOS">
</g>
</svg>
