<?xml version="1.0" encoding="utf-8"?>
<!-- Generator: Adobe Illustrator 26.5.0, SVG Export Plug-In . SVG Version: 6.00 Build 0)  -->
<svg version="1.1" xmlns="http://www.w3.org/2000/svg" xmlns:xlink="http://www.w3.org/1999/xlink" x="0px" y="0px"
	 viewBox="0 0 6248 2947" style="enable-background:new 0 0 6248 2947;" xml:space="preserve">
<style type="text/css">
	.st0{stroke:#000000;stroke-width:11.0747;stroke-miterlimit:10;}
	.st1{fill:#F7F7F7;stroke:#000000;stroke-width:22.9962;stroke-miterlimit:10;}
	.st2{stroke:#000000;stroke-width:13.3934;stroke-miterlimit:10;}
	.st3{fill:#E6E6E6;}
	.st4{fill:none;stroke:#000000;stroke-width:12.9683;stroke-miterlimit:10;}
	.st5{fill:#F2F2F2;stroke:#000000;stroke-width:12.9683;stroke-miterlimit:10;}
	.st6{fill:none;stroke:#000000;stroke-width:66.4853;stroke-miterlimit:10;}
</style>
<g id="CIRCULOS-SELECCION4">
</g>
<g id="CLOSET">
	<g id="LATERAL-DERECHA">
	</g>
	<g id="BASE">
	</g>
	<g id="DIVISIONES-VERTICALES">
		<g id="DIVISION-VERTICAL-DERECHA">
		</g>
		<g id="DIVISION-CENTRAL">
		</g>
		<g id="DIVISION-VERTICAL-IZQUIERDA_00000085229740836627909760000005526871516412138418_">
		</g>
	</g>
	<g id="DIVISIONES-HORIZONTALES">
	</g>
	<g id="LATERAL-IZQUIERDA">
	</g>
	<g id="TECHO">
	</g>
	<g id="SOPORTES-COOK">
	</g>
</g>
<g id="TABLITAS-TRASERAS">
</g>
<g id="TRIPLEX_00000062169277959621118470000012963048032068378272_">
</g>
<g id="PUNTILLAS">
</g>
<g id="SOPORTE-MUEBLE">
	<g>
		<g>
			<polygon class="st0" points="2133.6,2174.2 2213.3,2143.6 2135.6,2113.7 			"/>
			<polygon class="st0" points="1258.5,2104.3 1179.5,2136.4 1257.8,2164.7 			"/>
			<line class="st1" x1="1243" y1="2136" x2="2167.7" y2="2145.2"/>
			<g>
				<path d="M1519.2,2358.1l-12.6,31h-105.7v-4.2c30.2-25.8,51.9-46.4,64.8-61.7c12.6-15.9,18.9-30.5,18.9-43.8
					c0-5-0.9-9.7-2.8-13.9c-1.9-4.3-4.4-7.9-7.6-11c-3.2-3-6.9-5.4-11.1-7.2c-4.2-1.8-8.7-2.6-13.5-2.6c-8.7,0-16.5,2.3-23.4,6.8
					c-6.9,4.6-12,11.3-15.4,20.2h-4.7c2.2-14.6,7.8-25.7,16.6-33.4c8.9-7.7,20.2-11.5,33.8-11.5c7.1,0,13.8,1.1,20,3.4
					c6.2,2.3,11.5,5.3,16,9.2c4.5,3.9,8,8.3,10.6,13.3c2.6,5,3.9,10.3,3.9,15.8c0,8.1-1.6,15.5-4.8,22.3c-3.2,6.8-6.4,12.3-9.7,16.6
					c-3.3,4.3-8.1,10-14.3,17.1c-11.8,11.9-21.3,21.3-28.3,28c-7.1,6.8-14.1,13.1-21.1,19.1h44.4c6.1,0,11.2-0.1,15.4-0.4
					c4.2-0.2,7.7-0.8,10.6-1.7c2.9-0.9,5.4-2.3,7.4-4.1c2-1.8,4.1-4.3,6.1-7.3H1519.2z"/>
				<path d="M1754.3,2227.2l4.1,54h-4.1c-5.4-16.2-13.1-27.8-23-35c-9.9-7.1-21.8-10.7-35.8-10.7c-9.1,0-17.4,1.5-25,4.6
					c-7.6,3.1-14.2,7.8-19.7,14.2c-5.5,6.4-9.8,14.4-12.9,24.1c-3.1,9.7-4.7,21.1-4.7,34.3c0,10.6,1.5,20.2,4.4,28.8
					c2.9,8.6,7.2,16,12.8,22.1c5.6,6.1,12.5,10.8,20.7,14.2c8.2,3.3,17.5,5,28.2,5c11.1,0,21.2-2.2,30.3-6.6
					c8.7-4.1,18.3-12.8,28.9-26.2l4.1,2.3c-8.9,14.1-19.3,24.4-31,31c-11.7,6.6-25.7,9.9-42,9.9c-12.6,0-24.1-2-34.6-5.9
					c-10.5-4-19.5-9.5-27.1-16.7s-13.5-15.7-17.8-25.5c-4.3-9.8-6.4-20.6-6.4-32.4c0-16,3.9-30.5,11.8-43.7
					c7.8-13.3,18.6-23.5,32.4-30.8c14-7.3,29.1-11,45.4-11c12.8,0,25.4,2.8,37.7,8.4c3.6,1.7,6.2,2.6,7.8,2.6c2.8,0,5.2-1,7.1-3.1
					c1.9-2.1,3.2-4.7,4-7.9H1754.3z"/>
				<path d="M1815.3,2301.3c4.4-4,7.9-7,10.4-9.2c2.5-2.2,4.2-3.6,5-4.2c3.9-3,8.1-5.3,12.6-7c4.5-1.6,9-2.4,13.4-2.4
					c7.5,0,13.9,1.9,19.3,5.8c5.4,3.9,9,9.6,10.8,17c4.4-4.6,8.4-8.5,12.1-11.5c3.7-3,7.2-5.3,10.5-7c3.3-1.6,6.5-2.8,9.5-3.4
					c3-0.6,6.2-1,9.4-1c4.4,0,8.5,0.7,12.3,2c3.8,1.3,7.1,3.5,10,6.6c2.8,3.1,5.1,7.2,6.7,12.3c1.6,5.1,2.4,11.5,2.4,19v47.3
					c0,3.2,0.1,5.9,0.3,8.2c0.2,2.3,0.8,4.2,1.8,5.7c1.1,1.5,2.7,2.6,4.8,3.2c2.2,0.7,5.3,1,9.2,1v5.3h-58v-4.1h2.2
					c3.1,0,5.7-0.2,7.9-0.7c2.2-0.5,3.9-1.4,5.2-2.8c1.3-1.4,2.2-3.4,2.8-6c0.6-2.6,0.9-6.1,0.9-10.6v-46c0-5.1-0.5-9.3-1.3-12.6
					c-0.9-3.3-2.2-6-3.8-7.9c-1.7-2-3.7-3.3-6.1-4.1c-2.4-0.8-5.2-1.1-8.3-1.1c-2.3,0-4.5,0.2-6.7,0.6c-2.2,0.4-4.5,1.2-6.8,2.3
					c-2.4,1.1-4.9,2.6-7.7,4.4c-2.8,1.9-5.8,4.7-9.1,8.5v55.8c0,3.8,0.1,6.8,0.2,9c0.1,2.2,0.4,3.8,1,4.9c0.5,1.1,1.1,1.9,1.9,2.5
					c0.8,0.6,1.8,1.2,3.2,1.9c2.4,1.2,6.6,1.7,12.6,1.7v4.2h-59.4v-4.2c4.9,0,8.7-0.3,11.4-0.9c2.8-0.6,4.8-1.6,6.1-3.1
					c1.3-1.5,2.1-3.6,2.3-6.2c0.3-2.6,0.4-5.9,0.4-9.9v-46.1c0-5-0.5-9.3-1.5-12.6c-1-3.3-2.4-6.1-4.2-8.1c-1.8-2.1-4-3.5-6.5-4.4
					c-2.5-0.9-5.2-1.3-8.2-1.3c-3,0-6,0.5-9,1.4c-3,0.9-5.9,2.1-8.6,3.6c-2.7,1.5-5.3,3.1-7.6,4.8c-2.4,1.8-4.2,3.5-5.7,5.1v57.5
					c0,3.6,0.1,6.5,0.4,8.7c0.3,2.2,0.6,4,1.1,5.2c0.5,1.3,1.2,2.2,2,2.9c0.8,0.6,1.7,1.2,2.7,1.7c2,1,6.2,1.6,12.7,1.6v4.2h-58
					v-4.2c3.9,0,6.9-0.3,9.2-0.8c2.3-0.5,4.1-1.5,5.3-3.1c1.2-1.5,2.1-3.6,2.4-6.1c0.4-2.6,0.6-6,0.6-10.2v-41
					c0-7-0.1-12.5-0.4-16.5c-0.3-4-0.7-6.9-1.4-8.9c-0.7-2-1.6-3.2-2.8-3.7c-1.2-0.5-2.7-0.7-4.6-0.7c-1.1,0-2.4,0.1-3.7,0.4
					c-1.4,0.3-2.9,0.7-4.7,1.3l-1.9-4.2l34.5-13.1h6.5V2301.3z"/>
			</g>
		</g>
		<g>
			<g>
				<path d="M541.2,1309.2l-11,27h-91.9v-2.8c27.4-23.4,47-42,58.7-55.9c11.4-14.4,17.1-27.6,17.1-39.7c0-4.5-0.9-8.8-2.6-12.6
					c-1.7-3.9-4-7.2-6.9-9.9c-2.9-2.8-6.2-4.9-10-6.5c-3.8-1.6-7.9-2.4-12.3-2.4c-7.9,0-14.9,2.1-21.2,6.2
					c-6.2,4.1-10.9,10.2-13.9,18.2h-4.2c2-13.2,7-23.3,15.1-30.2c8-6.9,18.2-10.4,30.6-10.4c6.5,0,12.5,1,18.1,3.1
					c5.6,2.1,10.4,4.8,14.5,8.3c4.1,3.5,7.3,7.5,9.6,12.1c2.4,4.5,3.5,9.3,3.5,14.3c0,7.3-1.4,14-4.3,20.2c-2.9,6.1-5.8,11.1-8.8,15
					c-3,3.9-7.3,9-13,15.5c-10.7,10.8-19.2,19.3-25.7,25.4c-6.4,6.1-12.8,11.9-19.1,17.3h39.9c5.5,0,10.1-0.1,13.9-0.3
					c3.8-0.2,7-0.7,9.6-1.6c2.6-0.8,4.8-2.1,6.7-3.7c1.8-1.6,3.6-3.8,5.5-6.6H541.2z"/>
				<path d="M757.1,1190.4l3.7,48.6h-3.7c-4.9-14.6-11.8-25.1-20.7-31.5c-8.9-6.4-19.7-9.6-32.2-9.6c-8.2,0-15.7,1.4-22.5,4.2
					c-6.9,2.8-12.8,7.1-17.7,12.8c-5,5.8-8.8,13-11.6,21.7c-2.8,8.7-4.2,19-4.2,30.8c0,9.5,1.3,18.2,3.9,26
					c2.6,7.8,6.5,14.4,11.5,19.9c5.1,5.5,11.3,9.8,18.6,12.7c7.3,3,15.8,4.5,25.3,4.5c10,0,19.1-2,27.3-6c7.8-3.7,16.5-11.5,26-23.6
					l3.7,2c-8,12.7-17.3,22-27.9,27.9c-10.5,5.9-23.2,8.9-37.8,8.9c-11.3,0-21.7-1.8-31.1-5.3c-9.4-3.6-17.6-8.6-24.4-15
					c-6.8-6.4-12.1-14.1-16-23c-3.8-8.9-5.8-18.6-5.8-29.2c0-14.4,3.6-27.5,10.7-39.3c7-12,16.7-21.2,29.2-27.7
					c12.6-6.6,26.2-9.9,40.9-9.9c11.5,0,22.8,2.5,33.9,7.5c3.3,1.6,5.6,2.4,7,2.4c2.6,0,4.7-0.9,6.4-2.8c1.7-1.9,2.9-4.2,3.6-7.1
					H757.1z"/>
				<path d="M812.3,1256.9c3.9-3.6,7.1-6.4,9.3-8.3c2.3-2,3.7-3.3,4.4-3.8c3.5-2.7,7.3-4.8,11.3-6.3c4.1-1.5,8.1-2.2,12-2.2
					c6.7,0,12.5,1.8,17.3,5.3c4.8,3.5,8,8.6,9.7,15.4c3.9-4.2,7.6-7.7,10.9-10.4c3.3-2.7,6.4-4.8,9.4-6.3c3-1.5,5.8-2.5,8.5-3.1
					c2.7-0.6,5.5-0.9,8.4-0.9c3.9,0,7.6,0.6,11.1,1.8c3.4,1.2,6.4,3.2,9,6c2.6,2.8,4.6,6.5,6,11.1c1.5,4.6,2.2,10.3,2.2,17.2v42.1
					c0,3.2,0.1,5.9,0.3,8.2c0.2,2.3,0.8,4.2,1.8,5.7c1.1,1.5,2.7,2.6,4.8,3.2c2.2,0.7,5.3,1,9.2,1v3.5h-52.6v-4h2.2
					c2.8,0,5.2-0.2,7.2-0.6c2-0.4,3.6-1.3,4.8-2.5c1.2-1.3,2-3.1,2.6-5.4c0.5-2.4,0.8-5.5,0.8-9.5v-41.6c0-4.6-0.4-8.4-1.2-11.4
					c-0.8-3-2-5.4-3.5-7.2c-1.5-1.8-3.4-3-5.6-3.7c-2.2-0.7-4.8-1-7.6-1c-2.1,0-4.2,0.2-6.2,0.6c-2,0.4-4.1,1.1-6.3,2
					c-2.2,1-4.5,2.3-7.1,4c-2.5,1.7-5.3,4.3-8.4,7.7v50.8c0,3.5,0.1,6.2,0.2,8.1c0.1,1.9,0.4,3.4,0.9,4.4c0.5,1,1.1,1.8,1.8,2.3
					c0.7,0.5,1.7,1.1,3,1.7c2.2,1.1,6.1,1.6,11.7,1.6v3.8h-54v-3.8c4.2,0,7.5-0.3,9.9-0.8c2.4-0.5,4.2-1.5,5.3-2.8
					c1.1-1.4,1.8-3.2,2-5.6c0.2-2.4,0.4-5.3,0.4-8.9v-41.4c0-4.5-0.4-8.3-1.3-11.3c-0.9-3-2.1-5.4-3.8-7.3c-1.6-1.8-3.6-3.2-5.8-3.9
					c-2.2-0.8-4.7-1.2-7.4-1.2c-2.7,0-5.4,0.4-8.1,1.3c-2.7,0.8-5.3,1.9-7.7,3.2c-2.5,1.3-4.7,2.8-6.8,4.3c-2.1,1.6-3.8,3.1-5.1,4.6
					v51.6c0,3.3,0.1,5.9,0.4,7.9c0.2,2,0.6,3.6,1.1,4.7c0.5,1.2,1.1,2,1.8,2.6c0.8,0.6,1.6,1.1,2.5,1.5c1.9,0.9,5.8,1.4,11.8,1.4
					v3.8h-52.6v-3.8c3.6,0,6.4-0.2,8.5-0.7c2.1-0.5,3.8-1.4,4.9-2.8c1.1-1.4,1.9-3.2,2.2-5.5c0.3-2.3,0.5-5.4,0.5-9.2v-37
					c0-6.3-0.1-11.3-0.3-14.9c-0.2-3.6-0.7-6.3-1.3-8.1c-0.6-1.8-1.5-2.9-2.6-3.3c-1.1-0.4-2.5-0.6-4.2-0.6c-1,0-2.2,0.1-3.4,0.4
					c-1.3,0.3-2.7,0.7-4.3,1.2l-1.7-3.8l31.9-11.9h4.9V1256.9z"/>
			</g>
			<polygon class="st2" points="981.8,1782.6 1018.3,1880.3 1053.9,1785 			"/>
			<polygon class="st2" points="1055.2,709.4 1016.8,612.4 983.1,708.5 			"/>
			<line class="st1" x1="1018.2" y1="689.6" x2="1018.2" y2="1825.2"/>
		</g>
	</g>
	<g id="SOPORTES">
		<g>
			<path class="st3" d="M1114.3,983l12.3,658.2c0,0,12.5,212.6,146.5,262.6s612.8,141.1,612.8,141.1s373.4,46.4,493.1-119.7
				c41.1-137.6,0-184,0-184s-32.2-55.4-117.9-64.3l-518.1-121.5c0,0-62.5-1.8-55.4-103.6c-3.6-105.4,3.6-471.6,3.6-471.6V753.3
				c0,0-41.1-216.6-200.1-225.1c-265.3-33-374.3,435.9-374.3,435.9L1114.3,983z"/>
		</g>
		<g>
			<path class="st4" d="M1114.3,982.7l12.3,658.2c0,0,12.5,212.6,146.5,262.6s612.8,141.1,612.8,141.1s373.4,46.4,493.1-119.7
				c41.1-137.6,0-184,0-184s-32.2-55.4-117.9-64.3l-518.1-121.5c0,0-62.5-1.8-55.4-103.6c-3.6-105.4,3.6-471.6,3.6-471.6V753
				c0,0-41.1-216.6-200.1-225.1c-265.3-33-374.3,435.9-374.3,435.9L1114.3,982.7z"/>
			<path class="st4" d="M1506.6,529.5c0,0-201.3-40.2-312.1,448.1c4.4,545.5,10.7,765.2,10.7,765.2s-4.5,46.4,36.6,64.3
				s210.8,61.6,210.8,61.6l438.6,94.7c0,0,399.9,26.9,505.9-141.1"/>
			
				<ellipse transform="matrix(0.2685 -0.9633 0.9633 0.2685 21.8764 2171.4983)" class="st4" cx="1440.7" cy="1071.3" rx="240.4" ry="112.2"/>
			
				<ellipse transform="matrix(0.226 -0.9741 0.9741 0.226 47.3775 2179.7954)" class="st5" cx="1395.3" cy="1060.1" rx="160.2" ry="64.5"/>
			<ellipse class="st4" cx="1928.7" cy="1796.3" rx="205.4" ry="67.3"/>
			<ellipse class="st5" cx="1934" cy="1835.6" rx="138.2" ry="28"/>
		</g>
		<line class="st4" x1="1213.4" y1="1781.2" x2="1701" y2="1527.5"/>
	</g>
	
		<image style="display:none;overflow:visible;" width="500" height="428" xlink:href="F63BF6EB.jpg"  transform="matrix(-2.8056 3.1786 -3.1786 -2.8056 6512.9644 1191.9578)">
	</image>
	<g id="TORNILLOSMET3">
		<circle class="st6" cx="1489.7" cy="1473.2" r="1343"/>
	</g>
	<g>
		<path d="M3325.4,1549.9h-61.6l-78.4-108.1c-2.9,0.2-5.5,0.3-7.8,0.4c-2.3,0.1-4.4,0.1-6.2,0.1c-1.5,0-3.1,0-4.8-0.1
			c-1.7-0.1-3.5-0.2-5.3-0.4v67.2c0,8.1,0.5,14.5,1.7,19.2c1.1,4.7,2.7,8.1,4.8,10.4c2.1,2.3,4.7,3.7,7.6,4.2c3,0.5,6.3,0.8,10,0.8
			h9.2v6.4h-99.2v-6.4h8.9c9.5,0,16.5-3.1,20.9-9.4c2.4-3.7,3.6-12.1,3.6-25.2v-149.3c0-14.2-1.6-23.2-4.8-27
			c-4.4-5.1-10.9-7.6-19.6-7.6h-8.9v-6.4h84.2c12.4,0,23.1,0.5,32.1,1.4c9,0.9,16.4,2.3,22.1,4.2c5.8,1.9,11.2,4.5,16.3,7.8
			c5.1,3.3,9.5,7.3,13.4,12c3.8,4.7,6.8,9.9,9,15.6c2.2,5.8,3.3,12,3.3,18.6c0,14.4-4.6,26.8-13.7,37.1c-9.2,10.3-23.5,17.7-43,22.1
			l47.6,66.1c5.6,7.6,10.6,13.9,14.9,18.8c4.3,4.9,8.7,8.8,13,11.7c4.3,2.9,8.9,5,13.7,6.4c4.8,1.4,10.6,2.4,17.2,3.1V1549.9z
			 M3161.3,1431.1c2.2,0,4.1,0,5.7,0.1c1.6,0.1,2.9,0.1,3.9,0.1c11,0,20.7-1.3,29-3.8c8.3-2.5,15.3-6.1,20.9-10.7
			c5.6-4.6,9.8-10,12.6-16.2c2.8-6.2,4.2-12.9,4.2-20.2c0-7.1-1.2-13.7-3.6-19.7c-2.4-6-5.8-11.2-10.2-15.5
			c-4.4-4.3-9.7-7.7-15.8-10c-6.1-2.4-12.8-3.6-20.1-3.6c-7,0-15.9,1.1-26.7,3.3V1431.1z"/>
		<path d="M3395.3,1331.4v91.3h50.6c7.5,0,13.5-0.7,18.1-2c4.6-1.4,8.2-3.4,10.8-6.1c2.6-2.7,4.5-6.2,5.5-10.4c1-4.2,1.7-9.2,2-15
			h6.4v80.4h-6.4c-0.9-6.6-1.8-12.1-2.9-16.5c-1.1-4.4-2.9-7.9-5.3-10.6c-2.5-2.6-5.9-4.5-10.3-5.6c-4.4-1.1-10.3-1.7-17.8-1.7
			h-50.6v76.3c0,5.8,0.1,10.3,0.3,13.7c0.2,3.4,0.8,6,2,7.8c1.2,1.8,3.1,2.9,5.6,3.4c2.5,0.5,6.3,0.8,11.2,0.8h39.2
			c6.6,0,12.2-0.2,16.8-0.5c4.6-0.3,8.5-1,11.8-2c3.3-1,6.2-2.4,8.8-4.2c2.5-1.8,5.3-4,8.1-6.7c6.8-6.6,14-17.2,21.6-31.8h6.9
			l-20.1,58h-178.1v-6.4h8.1c2.2,0,4.5-0.3,6.9-0.8c2.4-0.5,4.6-1.2,6.7-2.2c2.1-0.9,4-2.2,5.7-3.7c1.7-1.5,2.9-3.3,3.6-5.3
			c1.4-3.7,2-11.2,2-22.4v-150.1c0-14.8-1.4-23.8-4.3-27.2c-4.1-4.6-10.9-6.9-20.6-6.9h-8.1v-6.4h178.1v50.6h-4.1
			c-1.7-8.3-3.5-15-5.5-20c-2-5-4.5-8.9-7.8-11.6c-3.2-2.7-7.3-4.5-12.3-5.2c-5-0.8-11.4-1.1-19.2-1.1H3395.3z"/>
		<path d="M3643.1,1543.6v6.4h-99v-6.4h8.1c4.1,0,7.7-0.3,10.8-0.9c3.1-0.6,5.7-2,7.8-4.3c2-2.3,3.6-5.8,4.7-10.4
			c1.1-4.7,1.7-11,1.7-19v-149.3c0-5.3-0.1-9.6-0.4-13.1c-0.3-3.5-0.7-6.3-1.3-8.5c-0.6-2.2-1.5-3.9-2.7-5.2
			c-1.2-1.3-2.8-2.5-4.8-3.7c-5.1-2.7-10.3-4.1-15.8-4.1h-8.1v-6.4h99v6.4h-8.1c-4.1,0-7.7,0.3-10.8,1c-3.1,0.7-5.7,2.2-7.8,4.5
			c-2,2.3-3.6,5.8-4.7,10.4c-1.1,4.7-1.7,10.9-1.7,18.7V1509c0,5.4,0.1,9.8,0.3,13.2c0.2,3.4,0.6,6.2,1.3,8.4
			c0.7,2.2,1.7,3.9,2.9,5.2c1.3,1.3,2.9,2.5,5,3.7c4.7,2.7,9.9,4.1,15.5,4.1H3643.1z"/>
		<path d="M3647.2,1318.7h62.6l141.5,173.5v-133.3c0-7.8-0.6-14-1.7-18.6c-1.1-4.6-2.7-8-4.8-10.2c-2.1-2.2-4.7-3.6-7.8-4.2
			c-3.1-0.6-6.5-0.9-10.4-0.9h-8.1v-6.4h80.6v6.4h-8.4c-4.1,0-7.6,0.3-10.7,1c-3.1,0.7-5.6,2.2-7.6,4.6c-2,2.4-3.6,5.8-4.6,10.2
			c-1,4.4-1.5,10.4-1.5,18.1v194.9h-6.1l-152.4-186.2V1510c0,8,0.5,14.2,1.7,18.7c1.1,4.5,2.7,7.8,4.7,10c2,2.2,4.6,3.6,7.6,4.1
			c3.1,0.5,6.5,0.8,10.4,0.8h8.1v6.4h-80.4v-6.4h8.1c4.1,0,7.6-0.3,10.7-1c3.1-0.7,5.6-2.2,7.8-4.5c2.1-2.3,3.7-5.6,4.7-10
			c1-4.4,1.5-10.4,1.5-18.1v-160.8c-3.4-4.1-6.2-7.3-8.5-9.7c-2.3-2.4-4.5-4.3-6.5-5.9s-4.2-2.8-6.6-3.8c-2.4-1-5.3-2.1-8.9-3.3
			c-3.4-1-8.4-1.5-15-1.5V1318.7z"/>
		<path d="M3975.4,1331.4v90.8h42c4.9,0,9.1-0.5,12.6-1.4c3.5-0.9,6.4-2.6,8.8-5c2.4-2.4,4.2-5.6,5.6-9.7c1.4-4.1,2.5-9.2,3.3-15.5
			h6.4v78.1h-6.4c-0.2-5.8-0.8-10.7-1.8-14.8c-1-4.1-2.7-7.4-5-10c-2.3-2.6-5.3-4.5-9.2-5.7c-3.8-1.2-8.6-1.8-14.4-1.8h-42v72.5
			c0,5.4,0.1,9.8,0.3,13.2c0.2,3.4,0.6,6.2,1.3,8.4c0.7,2.2,1.7,3.9,2.9,5.2c1.3,1.3,2.9,2.5,5,3.7c4.7,2.7,9.9,4.1,15.5,4.1h8.4
			v6.4h-99.2v-6.4h8.1c4.1,0,7.7-0.3,10.8-0.9c3.1-0.6,5.7-2,7.8-4.3c2-2.3,3.6-5.8,4.7-10.4c1.1-4.7,1.7-11,1.7-19v-149.3
			c0-5.3-0.1-9.6-0.4-13.1c-0.3-3.5-0.7-6.3-1.3-8.5c-0.6-2.2-1.5-4-2.7-5.3c-1.2-1.4-2.8-2.5-4.8-3.6c-2.5-1.4-5.1-2.4-7.6-3.1
			c-2.5-0.7-5.3-1-8.1-1h-8.1v-6.4h172v50.9h-3.8c-2.2-8.3-4.7-15-7.5-20c-2.8-5-6.2-8.9-10.2-11.6c-4-2.7-8.7-4.5-14.1-5.3
			c-5.4-0.8-12-1.3-19.6-1.3H3975.4z"/>
		<path d="M4225.7,1313.6c14.8,0,28.8,3.1,42.2,9.2c13.4,6.1,25.2,14.5,35.4,25.2c10.2,10.7,18.3,23.3,24.3,37.8
			c6,14.5,9,30.2,9,47.2c0,17.5-3,33.7-9,48.6c-6,14.9-14.2,27.9-24.4,38.8c-10.3,10.9-22.3,19.5-36.1,25.7
			c-13.8,6.2-28.5,9.3-44.1,9.3c-15.8,0-30.5-3-44.3-8.9c-13.7-5.9-25.7-14.3-35.7-25.1c-10.1-10.8-18.1-23.6-23.9-38.5
			c-5.9-14.9-8.8-31.4-8.8-49.4c0-16.6,2.9-32.2,8.8-46.8c5.9-14.6,13.9-27.3,24.2-38c10.3-10.8,22.4-19.3,36.5-25.6
			C4193.8,1316.7,4209.1,1313.6,4225.7,1313.6z M4222.4,1326c-11.7,0-22.1,2.5-31.2,7.5c-9.1,5-16.7,12.1-22.9,21.4
			c-6.2,9.2-10.9,20.4-14.1,33.6c-3.2,13.1-4.8,27.9-4.8,44.4c0,16.3,1.6,31.2,4.7,44.7c3.1,13.5,7.8,25.1,14,34.9
			c6.2,9.8,13.9,17.3,23,22.6c9.2,5.3,19.7,8,31.5,8c10.7,0,20.6-2,29.6-6.1c9.1-4.1,17-10.4,23.8-19c6.8-8.6,12.1-19.5,15.9-32.8
			c3.8-13.3,5.7-29.2,5.7-47.7c0-17.5-1.6-33.1-4.7-46.9c-3.1-13.8-7.9-25.5-14.2-35.1c-6.4-9.6-14.2-16.9-23.7-21.9
			C4245.7,1328.5,4234.8,1326,4222.4,1326z"/>
		<path d="M4586,1549.9h-61.6l-78.4-108.1c-2.9,0.2-5.5,0.3-7.8,0.4c-2.3,0.1-4.4,0.1-6.2,0.1c-1.5,0-3.1,0-4.8-0.1
			c-1.7-0.1-3.5-0.2-5.3-0.4v67.2c0,8.1,0.5,14.5,1.7,19.2c1.1,4.7,2.7,8.1,4.8,10.4c2.1,2.3,4.7,3.7,7.6,4.2c3,0.5,6.3,0.8,10,0.8
			h9.2v6.4H4356v-6.4h8.9c9.5,0,16.5-3.1,20.9-9.4c2.4-3.7,3.6-12.1,3.6-25.2v-149.3c0-14.2-1.6-23.2-4.8-27
			c-4.4-5.1-10.9-7.6-19.6-7.6h-8.9v-6.4h84.2c12.4,0,23.1,0.5,32.1,1.4c9,0.9,16.4,2.3,22.1,4.2c5.8,1.9,11.2,4.5,16.3,7.8
			c5.1,3.3,9.5,7.3,13.4,12c3.8,4.7,6.8,9.9,9,15.6c2.2,5.8,3.3,12,3.3,18.6c0,14.4-4.6,26.8-13.7,37.1c-9.2,10.3-23.5,17.7-43,22.1
			l47.6,66.1c5.6,7.6,10.6,13.9,14.9,18.8c4.3,4.9,8.7,8.8,13,11.7c4.3,2.9,8.9,5,13.7,6.4c4.8,1.4,10.6,2.4,17.2,3.1V1549.9z
			 M4421.9,1431.1c2.2,0,4.1,0,5.7,0.1c1.6,0.1,2.9,0.1,3.9,0.1c11,0,20.7-1.3,29-3.8c8.3-2.5,15.3-6.1,20.9-10.7
			c5.6-4.6,9.8-10,12.6-16.2c2.8-6.2,4.2-12.9,4.2-20.2c0-7.1-1.2-13.7-3.6-19.7c-2.4-6-5.8-11.2-10.2-15.5
			c-4.4-4.3-9.7-7.7-15.8-10c-6.1-2.4-12.8-3.6-20.1-3.6c-7,0-15.9,1.1-26.7,3.3V1431.1z"/>
		<path d="M4793.1,1313.6l5.3,78.6h-5.3c-7.1-23.6-17.2-40.5-30.1-50.9c-13-10.3-28.6-15.5-46.9-15.5c-11.9,0-22.8,2.2-32.8,6.7
			c-10,4.5-18.6,11.4-25.8,20.7c-7.2,9.3-12.8,21-16.9,35.1c-4.1,14.1-6.1,30.7-6.1,49.9c0,15.4,1.9,29.4,5.7,42
			c3.8,12.6,9.4,23.3,16.8,32.2s16.4,15.8,27.1,20.6s23,7.3,36.9,7.3c14.6,0,27.8-3.2,39.7-9.7c11.4-5.9,24-18.7,37.9-38.2l5.3,3.3
			c-11.7,20.5-25.2,35.6-40.6,45.2c-15.4,9.6-33.7,14.4-55.1,14.4c-16.5,0-31.5-2.9-45.3-8.7c-13.7-5.8-25.6-13.9-35.5-24.3
			c-9.9-10.4-17.7-22.8-23.3-37.1c-5.6-14.3-8.4-30.1-8.4-47.2c0-23.2,5.2-44.4,15.5-63.6c10.2-19.3,24.3-34.3,42.5-44.8
			c18.3-10.7,38.2-16,59.5-16c16.8,0,33.2,4.1,49.4,12.2c4.7,2.5,8.1,3.8,10.2,3.8c3.7,0,6.8-1.5,9.3-4.6c2.5-3.1,4.2-6.9,5.2-11.4
			H4793.1z"/>
		<path d="M4888.7,1331.4v91.3h50.6c7.5,0,13.5-0.7,18.1-2c4.6-1.4,8.2-3.4,10.8-6.1c2.6-2.7,4.5-6.2,5.5-10.4c1-4.2,1.7-9.2,2-15
			h6.4v80.4h-6.4c-0.9-6.6-1.8-12.1-2.9-16.5c-1.1-4.4-2.9-7.9-5.3-10.6c-2.5-2.6-5.9-4.5-10.3-5.6c-4.4-1.1-10.3-1.7-17.8-1.7
			h-50.6v76.3c0,5.8,0.1,10.3,0.3,13.7c0.2,3.4,0.8,6,2,7.8c1.2,1.8,3.1,2.9,5.6,3.4c2.5,0.5,6.3,0.8,11.2,0.8h39.2
			c6.6,0,12.2-0.2,16.8-0.5c4.6-0.3,8.5-1,11.8-2c3.3-1,6.2-2.4,8.8-4.2c2.5-1.8,5.3-4,8.1-6.7c6.8-6.6,14-17.2,21.6-31.8h6.9
			l-20.1,58h-178.1v-6.4h8.1c2.2,0,4.5-0.3,6.9-0.8c2.4-0.5,4.6-1.2,6.7-2.2c2.1-0.9,4-2.2,5.7-3.7c1.7-1.5,2.9-3.3,3.6-5.3
			c1.4-3.7,2-11.2,2-22.4v-150.1c0-14.8-1.4-23.8-4.3-27.2c-4.1-4.6-10.9-6.9-20.6-6.9h-8.1v-6.4h178.1v50.6h-4.1
			c-1.7-8.3-3.5-15-5.5-20c-2-5-4.5-8.9-7.8-11.6c-3.2-2.7-7.3-4.5-12.3-5.2c-5-0.8-11.4-1.1-19.2-1.1H4888.7z"/>
		<path d="M5171.7,1549.9l-89.3-194.4V1510c0,8,0.5,14.2,1.7,18.7c1.1,4.5,2.7,7.8,4.8,10c2.1,2.2,4.7,3.6,7.8,4.1
			c3.1,0.5,6.5,0.8,10.4,0.8h8.1v6.4h-80.4v-6.4h8.1c4.1,0,7.6-0.3,10.7-0.9c3.1-0.6,5.6-2,7.6-4.3c2-2.3,3.6-5.7,4.6-10.2
			c1-4.5,1.5-10.6,1.5-18.2v-151.1c0-5.4-0.3-10.2-0.8-14.4c-0.5-4.2-1.8-7.7-3.9-10.6c-2.1-2.9-5.3-5.1-9.7-6.6s-10.4-2.3-18.2-2.3
			v-6.4h65.4l84,180.9l82.4-180.9h65.4v6.4h-7.9c-4.2,0-7.9,0.3-10.9,1c-3.1,0.7-5.6,2.2-7.6,4.5c-2,2.3-3.6,5.7-4.6,10.2
			c-1,4.5-1.5,10.6-1.5,18.2V1510c0,8,0.5,14.2,1.7,18.7c1.1,4.5,2.7,7.8,4.8,10c2.1,2.2,4.7,3.6,7.8,4.1s6.5,0.8,10.4,0.8h7.9v6.4
			h-98.2v-6.4h8.1c4.1,0,7.6-0.3,10.7-1c3.1-0.7,5.6-2.2,7.8-4.5c2.1-2.3,3.7-5.6,4.7-10c1-4.4,1.5-10.4,1.5-18.1v-154.4l-89,194.4
			H5171.7z"/>
		<path d="M5412.3,1331.4v91.3h50.6c7.5,0,13.5-0.7,18.1-2c4.6-1.4,8.2-3.4,10.8-6.1c2.6-2.7,4.5-6.2,5.5-10.4c1-4.2,1.7-9.2,2-15
			h6.4v80.4h-6.4c-0.9-6.6-1.8-12.1-2.9-16.5c-1.1-4.4-2.9-7.9-5.3-10.6c-2.5-2.6-5.9-4.5-10.3-5.6c-4.4-1.1-10.3-1.7-17.8-1.7
			h-50.6v76.3c0,5.8,0.1,10.3,0.3,13.7c0.2,3.4,0.8,6,2,7.8c1.2,1.8,3.1,2.9,5.6,3.4c2.5,0.5,6.3,0.8,11.2,0.8h39.2
			c6.6,0,12.2-0.2,16.8-0.5c4.6-0.3,8.5-1,11.8-2c3.3-1,6.2-2.4,8.8-4.2c2.5-1.8,5.3-4,8.1-6.7c6.8-6.6,14-17.2,21.6-31.8h6.9
			l-20.1,58h-178.1v-6.4h8.1c2.2,0,4.5-0.3,6.9-0.8c2.4-0.5,4.6-1.2,6.7-2.2c2.1-0.9,4-2.2,5.7-3.7c1.7-1.5,2.9-3.3,3.6-5.3
			c1.4-3.7,2-11.2,2-22.4v-150.1c0-14.8-1.4-23.8-4.3-27.2c-4.1-4.6-10.9-6.9-20.6-6.9h-8.1v-6.4h178.1v50.6h-4.1
			c-1.7-8.3-3.5-15-5.5-20c-2-5-4.5-8.9-7.8-11.6c-3.2-2.7-7.3-4.5-12.3-5.2c-5-0.8-11.4-1.1-19.2-1.1H5412.3z"/>
		<path d="M5547.9,1318.7h62.6l141.5,173.5v-133.3c0-7.8-0.6-14-1.7-18.6c-1.1-4.6-2.7-8-4.8-10.2c-2.1-2.2-4.7-3.6-7.8-4.2
			c-3.1-0.6-6.5-0.9-10.4-0.9h-8.1v-6.4h80.6v6.4h-8.4c-4.1,0-7.6,0.3-10.7,1c-3.1,0.7-5.6,2.2-7.6,4.6c-2,2.4-3.6,5.8-4.6,10.2
			c-1,4.4-1.5,10.4-1.5,18.1v194.9h-6.1l-152.4-186.2V1510c0,8,0.5,14.2,1.7,18.7c1.1,4.5,2.7,7.8,4.7,10c2,2.2,4.6,3.6,7.6,4.1
			c3.1,0.5,6.5,0.8,10.4,0.8h8.1v6.4h-80.4v-6.4h8.1c4.1,0,7.6-0.3,10.7-1c3.1-0.7,5.6-2.2,7.8-4.5c2.1-2.3,3.7-5.6,4.7-10
			c1-4.4,1.5-10.4,1.5-18.1v-160.8c-3.4-4.1-6.2-7.3-8.5-9.7c-2.3-2.4-4.5-4.3-6.5-5.9s-4.2-2.8-6.6-3.8c-2.4-1-5.3-2.1-8.9-3.3
			c-3.4-1-8.4-1.5-15-1.5V1318.7z"/>
		<path d="M6006.6,1318.7v54.4h-3.8c-1.9-14.6-6.2-24.9-12.8-30.9c-6.7-6-16.6-9-29.6-9h-32.6V1510c0,7.8,0.5,14,1.7,18.4
			c1.1,4.5,2.7,7.8,4.7,10c2,2.2,4.6,3.6,7.6,4.2c3.1,0.6,6.6,0.9,10.7,0.9h7.9v6.4h-98v-6.4h8.1c4.1,0,7.6-0.3,10.7-1
			c3.1-0.7,5.6-2.2,7.6-4.5c2-2.3,3.6-5.6,4.7-10c1.1-4.4,1.7-10.4,1.7-18.1v-176.8h-27.7c-7,0-13.1,0.6-18.4,1.7
			c-5.3,1.1-10,3.1-13.9,6.1c-3.9,3-7,7-9.3,12.2c-2.3,5.2-3.7,11.8-4.2,20h-6.4v-54.4H6006.6z"/>
	</g>
	<g>
		<path d="M4025.4,956.1v79.9h-6.4c-2.9-21.5-9.9-38-21.1-49.4c-11.2-11.4-25.4-17-42.7-17c-5.9,0-11.4,1-16.3,3.1
			c-4.9,2-9.2,4.7-13,8c-3.7,3.3-6.6,7.1-8.7,11.3c-2,4.2-3.1,8.6-3.1,13.2c0,4.2,0.8,8.3,2.5,12.1c1.7,3.8,7,9.8,15.8,17.9
			c14.8,9.3,27.9,17,39.4,23.2c10.9,5.9,25.5,14.9,44,27c8,6.1,14.1,13.4,18.3,21.8c4.2,8.4,6.4,17.2,6.4,26.3
			c0,8.7-1.8,16.9-5.3,24.7c-3.6,7.8-8.5,14.6-14.9,20.5c-6.4,5.9-14,10.5-23,14c-9,3.5-18.8,5.2-29.5,5.2c-6.8,0-13.1-0.5-18.8-1.5
			c-1-0.2-3.7-0.9-8-2.2c-4.3-1.3-8.9-2.6-13.9-3.9c-4.9-1.4-9.5-2.6-13.7-3.8c-4.2-1.2-6.7-1.8-7.4-1.8c-2.9,0-5.1,0.9-6.7,2.5
			c-1.6,1.7-2.8,5.3-3.7,10.7h-6.4v-79.4h6.4c3.1,16.3,7,28.7,12,37.4c2.4,4.1,5.6,7.8,9.5,11.3c4,3.5,8.5,6.5,13.5,9.2
			c5,2.6,10.4,4.7,16.2,6.1c5.8,1.4,11.6,2.2,17.6,2.2c7.1,0,13.5-1,19.2-3.1c5.7-2,10.5-4.8,14.5-8.3c4-3.5,7-7.5,9.2-12.1
			c2.1-4.6,3.2-9.4,3.2-14.5c0-5.8-1.6-11.5-4.7-17.3c-3.1-5.8-8.4-11.4-15.9-17c-7.3-4.4-15.9-9.6-26-15.5
			c-19.2-11-36.2-21.6-51.1-31.8c-8.3-6.6-14.6-13.9-19-21.8c-4.3-7.9-6.5-16.7-6.5-26.3c0-8.1,1.7-15.9,5.1-23.3
			c3.4-7.4,8.1-13.9,14.1-19.5c6-5.6,13.2-10,21.5-13.2c8.3-3.2,17.3-4.8,27-4.8c12.2,0,25.2,3,38.9,8.9c3.2,1.4,5.9,2.5,8.1,3.3
			c2.2,0.9,4,1.2,5.3,1c3.1,0,5.5-0.8,7.4-2.5c1.9-1.7,3.3-5.3,4.3-10.7H4025.4z"/>
		<path d="M4167.1,1186.1v6.4h-99v-6.4h8.1c4.1,0,7.7-0.3,10.8-0.9c3.1-0.6,5.7-2,7.8-4.3c2-2.3,3.6-5.8,4.7-10.4
			c1.1-4.7,1.7-11,1.7-19v-149.3c0-5.3-0.1-9.6-0.4-13.1c-0.3-3.5-0.7-6.3-1.3-8.5c-0.6-2.2-1.5-3.9-2.7-5.2
			c-1.2-1.3-2.8-2.5-4.8-3.7c-5.1-2.7-10.3-4.1-15.8-4.1h-8.1v-6.4h99v6.4h-8.1c-4.1,0-7.7,0.3-10.8,1c-3.1,0.7-5.7,2.2-7.8,4.5
			c-2,2.3-3.6,5.8-4.7,10.4c-1.1,4.7-1.7,10.9-1.7,18.7v149.3c0,5.4,0.1,9.8,0.3,13.2c0.2,3.4,0.6,6.2,1.3,8.4
			c0.7,2.2,1.7,3.9,2.9,5.2c1.3,1.3,2.9,2.5,5,3.7c4.7,2.7,9.9,4.1,15.5,4.1H4167.1z"/>
		<path d="M4318.2,1064.4l49.6,74c7.1,10.5,13,18.9,17.7,25.1c4.7,6.2,9,10.9,13,14.1c4,3.2,7.9,5.4,11.7,6.5
			c3.8,1.1,8.4,1.7,13.6,1.9v6.4h-99.2v-6.4c9.3-0.2,15.5-1.6,18.4-4.3c3-2.7,4.5-6.5,4.5-11.4c0-0.8-0.1-1.7-0.3-2.4
			c-0.2-0.8-0.6-1.9-1.4-3.3c-0.8-1.4-1.9-3.3-3.4-5.5c-1.5-2.2-3.5-5.2-5.9-8.9l-39.2-59.3l-48.6,62.1c-2.7,3.4-4.8,6.1-6.2,8.1
			c-1.4,2-2.5,3.7-3.2,5.1c-0.7,1.4-1.1,2.5-1.1,3.6c-0.1,1-0.1,2.1-0.1,3.3c0,3.6,1.5,6.5,4.6,8.9c3.1,2.4,8.9,3.7,17.6,4.1v6.4
			h-81.9v-6.4c5.6-0.3,10.9-1.4,15.8-3.3c4.9-1.9,9.6-4.4,14.1-7.5c4.5-3.1,8.9-7,13.4-11.7c4.4-4.7,9-10,13.7-15.9l54.4-68.9
			l-45.5-66.7c-6.3-9.2-11.9-16.6-16.9-22.3c-5-5.7-9.8-10.1-14.5-13.2c-4.7-3.1-9.4-5.3-14.1-6.6c-4.8-1.3-10-2.1-15.8-2.4v-6.4
			h106.9v6.4c-9,0.3-15.2,1.8-18.6,4.5c-3.4,2.6-5.1,5.6-5.1,8.8c0,4.2,2.7,10.3,8.1,18.3l35.6,53.2l41-52.2
			c2.5-3.2,4.5-5.8,5.9-7.8c1.4-1.9,2.4-3.6,3.1-4.8c0.7-1.3,1.1-2.4,1.3-3.4c0.2-1,0.3-2.2,0.3-3.6c0-4.9-1.8-8.2-5.5-9.9
			c-3.6-1.7-10-2.7-19.2-3.1v-6.4h81.9v6.4c-7.8,0.5-14.1,2-19,4.3c-4.8,2.4-9.5,5.5-13.9,9.4c-4.8,4.1-12,12.2-21.6,24.4
			L4318.2,1064.4z"/>
		<path d="M4629.9,961.1v54.4h-3.8c-1.9-14.6-6.2-24.9-12.8-30.9c-6.7-6-16.6-9-29.6-9H4551v176.8c0,7.8,0.5,14,1.7,18.4
			c1.1,4.5,2.7,7.8,4.7,10c2,2.2,4.6,3.6,7.6,4.2c3.1,0.6,6.6,0.9,10.7,0.9h7.9v6.4h-98v-6.4h8.1c4.1,0,7.6-0.3,10.7-1
			c3.1-0.7,5.6-2.2,7.6-4.5c2-2.3,3.6-5.6,4.7-10c1.1-4.4,1.7-10.4,1.7-18.1V975.7h-27.7c-7,0-13.1,0.6-18.4,1.7
			c-5.3,1.1-10,3.1-13.9,6.1c-3.9,3-7,7-9.3,12.2c-2.3,5.2-3.7,11.8-4.2,20h-6.4v-54.4H4629.9z"/>
		<path d="M4714.1,973.9v91.3h50.6c7.5,0,13.5-0.7,18.1-2c4.6-1.4,8.2-3.4,10.8-6.1c2.6-2.7,4.5-6.2,5.5-10.4c1-4.2,1.7-9.2,2-15
			h6.4v80.4h-6.4c-0.9-6.6-1.8-12.1-2.9-16.5c-1.1-4.4-2.9-7.9-5.3-10.6c-2.5-2.6-5.9-4.5-10.3-5.6c-4.4-1.1-10.3-1.7-17.8-1.7
			h-50.6v76.3c0,5.8,0.1,10.3,0.3,13.7c0.2,3.4,0.8,6,2,7.8c1.2,1.8,3.1,2.9,5.6,3.4c2.5,0.5,6.3,0.8,11.2,0.8h39.2
			c6.6,0,12.2-0.2,16.8-0.5c4.6-0.3,8.5-1,11.8-2c3.3-1,6.2-2.4,8.8-4.2c2.5-1.8,5.3-4,8.1-6.7c6.8-6.6,14-17.2,21.6-31.8h6.9
			l-20.1,58h-178.1v-6.4h8.1c2.2,0,4.5-0.3,6.9-0.8c2.4-0.5,4.6-1.2,6.7-2.2c2.1-0.9,4-2.2,5.7-3.7c1.7-1.5,2.9-3.3,3.6-5.3
			c1.4-3.7,2-11.2,2-22.4v-150.1c0-14.8-1.4-23.8-4.3-27.2c-4.1-4.6-10.9-6.9-20.6-6.9h-8.1v-6.4h178.1v50.6h-4.1
			c-1.7-8.3-3.5-15-5.5-20c-2-5-4.5-8.9-7.8-11.6c-3.2-2.7-7.3-4.5-12.3-5.2c-5-0.8-11.4-1.1-19.2-1.1H4714.1z"/>
		<path d="M4927.3,973.9v91.3h50.6c7.5,0,13.5-0.7,18.1-2c4.6-1.4,8.2-3.4,10.8-6.1c2.6-2.7,4.5-6.2,5.5-10.4c1-4.2,1.7-9.2,2-15
			h6.4v80.4h-6.4c-0.9-6.6-1.8-12.1-2.9-16.5c-1.1-4.4-2.9-7.9-5.3-10.6c-2.5-2.6-5.9-4.5-10.3-5.6c-4.4-1.1-10.3-1.7-17.8-1.7
			h-50.6v76.3c0,5.8,0.1,10.3,0.3,13.7c0.2,3.4,0.8,6,2,7.8c1.2,1.8,3.1,2.9,5.6,3.4c2.5,0.5,6.3,0.8,11.2,0.8h39.2
			c6.6,0,12.2-0.2,16.8-0.5c4.6-0.3,8.5-1,11.8-2c3.3-1,6.2-2.4,8.8-4.2c2.5-1.8,5.3-4,8.1-6.7c6.8-6.6,14-17.2,21.6-31.8h6.9
			l-20.1,58h-178.1v-6.4h8.1c2.2,0,4.5-0.3,6.9-0.8c2.4-0.5,4.6-1.2,6.7-2.2c2.1-0.9,4-2.2,5.7-3.7c1.7-1.5,2.9-3.3,3.6-5.3
			c1.4-3.7,2-11.2,2-22.4v-150.1c0-14.8-1.4-23.8-4.3-27.2c-4.1-4.6-10.9-6.9-20.6-6.9h-8.1v-6.4h178.1v50.6h-4.1
			c-1.7-8.3-3.5-15-5.5-20c-2-5-4.5-8.9-7.8-11.6c-3.2-2.7-7.3-4.5-12.3-5.2c-5-0.8-11.4-1.1-19.2-1.1H4927.3z"/>
		<path d="M5062.9,961.1h62.6l141.5,173.5v-133.3c0-7.8-0.6-14-1.7-18.6c-1.1-4.6-2.7-8-4.8-10.2c-2.1-2.2-4.7-3.6-7.8-4.2
			c-3.1-0.6-6.5-0.9-10.4-0.9h-8.1v-6.4h80.6v6.4h-8.4c-4.1,0-7.6,0.3-10.7,1c-3.1,0.7-5.6,2.2-7.6,4.6c-2,2.4-3.6,5.8-4.6,10.2
			c-1,4.4-1.5,10.4-1.5,18.1v194.9h-6.1L5123.4,1010v142.5c0,8,0.5,14.2,1.7,18.7c1.1,4.5,2.7,7.8,4.7,10c2,2.2,4.6,3.6,7.6,4.1
			c3.1,0.5,6.5,0.8,10.4,0.8h8.1v6.4h-80.4v-6.4h8.1c4.1,0,7.6-0.3,10.7-1c3.1-0.7,5.6-2.2,7.8-4.5c2.1-2.3,3.7-5.6,4.7-10
			c1-4.4,1.5-10.4,1.5-18.1V991.7c-3.4-4.1-6.2-7.3-8.5-9.7c-2.3-2.4-4.5-4.3-6.5-5.9s-4.2-2.8-6.6-3.8c-2.4-1-5.3-2.1-8.9-3.3
			c-3.4-1-8.4-1.5-15-1.5V961.1z"/>
	</g>
	<g>
		<path d="M3979.5,1666.8v79.9h-6.4c-2.9-21.5-9.9-38-21.1-49.4c-11.2-11.4-25.4-17-42.7-17c-5.9,0-11.4,1-16.3,3.1
			c-4.9,2-9.2,4.7-13,8c-3.7,3.3-6.6,7.1-8.7,11.3c-2,4.2-3.1,8.6-3.1,13.2c0,4.2,0.8,8.3,2.5,12.1c1.7,3.8,7,9.8,15.8,17.9
			c14.8,9.3,27.9,17,39.4,23.2c10.9,5.9,25.5,14.9,44,27c8,6.1,14.1,13.4,18.3,21.8c4.2,8.4,6.4,17.2,6.4,26.3
			c0,8.7-1.8,16.9-5.3,24.7c-3.6,7.8-8.5,14.6-14.9,20.5c-6.4,5.9-14,10.5-23,14c-9,3.5-18.8,5.2-29.5,5.2c-6.8,0-13.1-0.5-18.8-1.5
			c-1-0.2-3.7-0.9-8-2.2c-4.3-1.3-8.9-2.6-13.9-3.9c-4.9-1.4-9.5-2.6-13.7-3.8c-4.2-1.2-6.7-1.8-7.4-1.8c-2.9,0-5.1,0.9-6.7,2.5
			c-1.6,1.7-2.8,5.3-3.7,10.7h-6.4v-79.4h6.4c3.1,16.3,7,28.7,12,37.4c2.4,4.1,5.6,7.8,9.5,11.3c4,3.5,8.5,6.5,13.5,9.2
			c5,2.6,10.4,4.7,16.2,6.1c5.8,1.4,11.6,2.2,17.6,2.2c7.1,0,13.5-1,19.2-3.1c5.7-2,10.5-4.8,14.5-8.3c4-3.5,7-7.5,9.2-12.1
			c2.1-4.6,3.2-9.4,3.2-14.5c0-5.8-1.6-11.5-4.7-17.3c-3.1-5.8-8.4-11.4-15.9-17c-7.3-4.4-15.9-9.6-26-15.5
			c-19.2-11-36.2-21.6-51.1-31.8c-8.3-6.6-14.6-13.9-19-21.8c-4.3-7.9-6.5-16.7-6.5-26.3c0-8.1,1.7-15.9,5.1-23.3
			c3.4-7.4,8.1-13.9,14.1-19.5c6-5.6,13.2-10,21.5-13.2c8.3-3.2,17.3-4.8,27-4.8c12.2,0,25.2,3,38.9,8.9c3.2,1.4,5.9,2.5,8.1,3.3
			c2.2,0.9,4,1.2,5.3,1c3.1,0,5.5-0.8,7.4-2.5c1.9-1.7,3.3-5.3,4.3-10.7H3979.5z"/>
		<path d="M4167.3,1905.7c5.9,10,12,18.7,18.2,26.1c6.2,7.4,12.7,13.4,19.5,18.2c6.8,4.6,14,8.2,21.6,10.9
			c7.6,2.7,15.8,4.4,24.4,5.1v5.6c-15.4-0.5-32.2-3.7-50.4-9.7c-18.2-5.8-35.1-13.7-50.9-23.9c-15.9-10-29.7-20.8-41.2-32.3
			c-8.1-3.4-15.4-6.8-21.9-10.3c-6.4-3.5-12.1-7-17-10.6c-14.1-10.9-24.9-24.4-32.4-40.6c-7.5-16.2-11.3-35.2-11.3-57.1
			c0-17.1,3-33,9-47.7c6-14.7,14.2-27.4,24.7-38.2c10.4-10.8,22.6-19.2,36.5-25.3c13.9-6.1,28.8-9.2,44.8-9.2
			c14.9,0,29.1,3.1,42.6,9.3c13.5,6.2,25.4,14.7,35.6,25.4c10.3,10.8,18.4,23.5,24.4,38.3c6,14.8,9,30.7,9,47.8
			c0,28.3-7.9,53.2-23.7,74.5C4213.1,1883.5,4192.6,1898,4167.3,1905.7z M4138.8,1679.7c-11.7,0-22.1,2.4-31.3,7.2
			c-9.2,4.8-16.9,11.8-23.2,21c-6.3,9.2-11.1,20.4-14.4,33.7c-3.3,13.3-5,28.5-5,45.4c0,16.1,1.6,30.9,4.7,44.3
			c3.1,13.4,7.8,24.9,14.1,34.6c6.3,9.7,14,17.2,23.2,22.6c9.2,5.4,19.8,8.1,31.8,8.1c11.7,0,22.1-2.4,31.3-7.1
			c9.2-4.7,17-11.6,23.4-20.6c6.4-9,11.4-20,14.8-32.9c3.4-13,5.1-27.7,5.1-44.1c0-18.3-1.8-34.5-5.3-48.5s-8.6-25.7-15.1-35.1
			c-6.5-9.4-14.4-16.5-23.5-21.4C4160.2,1682.2,4150,1679.7,4138.8,1679.7z"/>
		<path d="M4432.4,1678.2v-6.4h81.7v6.4h-8.6c-8.8,0-15.8,3.8-20.9,11.4c-2.4,3.4-3.6,11.6-3.6,24.7v93.6c0,22.7-2.4,40.8-7.1,54.2
			c-2.4,6.4-5.8,12.5-10.2,18.1c-4.4,5.6-10,10.5-16.8,14.6c-6.8,4.2-14.7,7.5-23.8,9.9c-9.1,2.5-19.5,3.7-31.2,3.7
			c-12.7,0-23.8-1.1-33.3-3.3c-9.5-2.2-17.6-5.4-24.4-9.7c-6.8-4.2-12.4-9.3-16.8-15.3c-4.4-5.9-8-12.6-10.7-20.1
			c-3.7-10.3-5.6-29.3-5.6-57v-90.3c0-7.1-0.5-12.9-1.4-17.4c-0.9-4.5-2.4-8-4.5-10.6c-2-2.5-4.6-4.3-7.8-5.2
			c-3.1-0.9-6.8-1.4-11.1-1.4h-8.9v-6.4h100v6.4h-8.9c-4.1,0-7.6,0.4-10.7,1.3c-3.1,0.9-5.6,2.5-7.6,5c-2,2.5-3.6,5.9-4.7,10.4
			c-1.1,4.5-1.7,10.5-1.7,17.9v100.7c0,10.2,0.7,20.1,2,29.8c1.4,9.7,4.2,18.3,8.4,25.8c4.2,7.5,10.3,13.6,18.2,18.1
			c7.9,4.5,18.4,6.7,31.4,6.7c7.5,0,14.7-0.9,21.6-2.7c7-1.8,13.3-4.2,19-7.3c5.7-3.1,10.6-6.7,14.9-11.1c4.2-4.3,7.4-9,9.4-14.1
			c4.4-10,6.6-27.5,6.6-52.4v-93.6c0-14.2-1.6-23.2-4.8-27c-4.4-5.1-10.9-7.6-19.6-7.6H4432.4z"/>
		<path d="M4677.6,1825.8h-89.6l-15.8,36.4c-3.7,9-5.6,15.7-5.6,20.1c0,1.9,0.3,3.6,0.9,5.1c0.6,1.5,1.9,2.9,3.8,4.2
			c1.9,1.3,4.7,2.4,8.1,3.3c3.5,0.9,8.1,1.6,13.9,1.9v6.4h-72.8v-6.4c5.8-0.8,10.4-2.1,14-3.8c3.6-1.7,6.6-4,9.2-7
			c2.5-3,4.9-6.8,7-11.6c2.1-4.7,4.7-10.6,7.8-17.6l81.4-190h5.9l80.4,192.1c3.2,8,6.2,14.4,9,19.2s5.7,8.6,8.7,11.3
			c3,2.7,6.2,4.6,9.7,5.6c3.5,1,7.7,1.6,12.6,1.8v6.4h-91.3v-6.4c9.2-0.3,15.4-1.8,18.7-4.5c3.3-2.6,5-5.8,5-9.5
			c-0.2-4.9-2.5-12.9-6.9-23.9L4677.6,1825.8z M4672.8,1813.1l-39.2-93.4l-40.2,93.4H4672.8z"/>
		<path d="M4775.8,1903.1v-6.4h8.9c3.9,0,7.4-0.3,10.4-1c3.1-0.7,5.6-2.2,7.6-4.6c2-2.4,3.6-5.9,4.7-10.4c1.1-4.6,1.7-10.8,1.7-18.6
			v-149.3c0-14.2-1.6-23.2-4.8-27c-4.4-5.1-10.9-7.6-19.6-7.6h-8.9v-6.4h94.1c34.3,0,60.6,4,78.9,12c18.1,8,32.6,21,43.5,39.2
			c11,18.5,16.5,39.6,16.5,63.3c0,17.1-2.8,32.8-8.3,47.1c-5.5,14.2-13.7,26.5-24.7,36.9c-10.9,10.3-24.5,18.4-40.6,24.2
			c-16.1,5.8-34.9,8.7-56.2,8.7H4775.8z M4842,1886.3c14.1,3.2,26.1,4.8,36.1,4.8c13.1,0,25.2-2.4,36.4-7.3s20.9-11.7,29.1-20.6
			c8.2-8.9,14.7-19.7,19.3-32.4c4.7-12.7,7-27,7-42.7c0-15.9-2.3-30.3-6.9-43.1c-4.6-12.8-11-23.7-19.3-32.6
			c-8.3-8.9-18.2-15.7-29.5-20.5c-11.4-4.7-23.8-7.1-37.4-7.1c-10,0-21.6,1.7-34.9,5.1V1886.3z"/>
		<path d="M5182.1,1666.8v79.9h-6.4c-2.9-21.5-9.9-38-21.1-49.4c-11.2-11.4-25.4-17-42.7-17c-5.9,0-11.4,1-16.3,3.1
			c-4.9,2-9.2,4.7-13,8c-3.7,3.3-6.6,7.1-8.7,11.3c-2,4.2-3.1,8.6-3.1,13.2c0,4.2,0.8,8.3,2.5,12.1c1.7,3.8,7,9.8,15.8,17.9
			c14.8,9.3,27.9,17,39.4,23.2c10.9,5.9,25.5,14.9,44,27c8,6.1,14.1,13.4,18.3,21.8c4.2,8.4,6.4,17.2,6.4,26.3
			c0,8.7-1.8,16.9-5.3,24.7c-3.6,7.8-8.5,14.6-14.9,20.5c-6.4,5.9-14,10.5-23,14c-9,3.5-18.8,5.2-29.5,5.2c-6.8,0-13.1-0.5-18.8-1.5
			c-1-0.2-3.7-0.9-8-2.2c-4.3-1.3-8.9-2.6-13.9-3.9c-4.9-1.4-9.5-2.6-13.7-3.8c-4.2-1.2-6.7-1.8-7.4-1.8c-2.9,0-5.1,0.9-6.7,2.5
			c-1.6,1.7-2.8,5.3-3.7,10.7h-6.4v-79.4h6.4c3.1,16.3,7,28.7,12,37.4c2.4,4.1,5.6,7.8,9.5,11.3c4,3.5,8.5,6.5,13.5,9.2
			c5,2.6,10.4,4.7,16.2,6.1c5.8,1.4,11.6,2.2,17.6,2.2c7.1,0,13.5-1,19.2-3.1c5.7-2,10.5-4.8,14.5-8.3c4-3.5,7-7.5,9.2-12.1
			c2.1-4.6,3.2-9.4,3.2-14.5c0-5.8-1.6-11.5-4.7-17.3c-3.1-5.8-8.4-11.4-15.9-17c-7.3-4.4-15.9-9.6-26-15.5
			c-19.2-11-36.2-21.6-51.1-31.8c-8.3-6.6-14.6-13.9-19-21.8c-4.3-7.9-6.5-16.7-6.5-26.3c0-8.1,1.7-15.9,5.1-23.3
			c3.4-7.4,8.1-13.9,14.1-19.5c6-5.6,13.2-10,21.5-13.2c8.3-3.2,17.3-4.8,27-4.8c12.2,0,25.2,3,38.9,8.9c3.2,1.4,5.9,2.5,8.1,3.3
			c2.2,0.9,4,1.2,5.3,1c3.1,0,5.5-0.8,7.4-2.5c1.9-1.7,3.3-5.3,4.3-10.7H5182.1z"/>
	</g>
</g>
<g id="SOPORTE-PARED">
</g>
<g id="MEDIDAS">
</g>
<g id="PROCESOS">
</g>
</svg>
