<?xml version="1.0" encoding="utf-8"?>
<!-- Generator: Adobe Illustrator 26.5.0, SVG Export Plug-In . SVG Version: 6.00 Build 0)  -->
<svg version="1.1" xmlns="http://www.w3.org/2000/svg" xmlns:xlink="http://www.w3.org/1999/xlink" x="0px" y="0px"
	 viewBox="0 0 6086 1476" style="enable-background:new 0 0 6086 1476;" xml:space="preserve">
<style type="text/css">
	.st0{fill:#E6E6E6;stroke:#000000;stroke-width:8.5472;stroke-miterlimit:10;}
	.st1{fill:#E6E6E6;stroke:#000000;stroke-width:10.3612;stroke-miterlimit:10;}
	.st2{fill:#F7F7F7;stroke:#000000;stroke-width:15.5912;stroke-miterlimit:10;}
	.st3{clip-path:url(#SVGID_00000041977774149213358620000007655469389474320826_);}
	.st4{fill:#E6E6E6;stroke:#000000;stroke-width:18.5486;stroke-miterlimit:10;}
	.st5{fill:#FFFFFF;}
	.st6{fill:none;stroke:#000000;stroke-width:18.5486;stroke-miterlimit:10;}
	.st7{fill:#E6E6E6;stroke:#000000;stroke-width:12.3527;stroke-miterlimit:10;}
	.st8{fill:#E6E6E6;stroke:#000000;stroke-width:14.9744;stroke-miterlimit:10;}
</style>
<g id="CIRCULOS-SELECCION4">
</g>
<g id="CLOSET">
	<g id="LATERAL-DERECHA">
	</g>
	<g id="BASE">
	</g>
	<g id="DIVISIONES-VERTICALES">
		<g id="DIVISION-VERTICAL-DERECHA">
		</g>
		<g id="DIVISION-CENTRAL">
		</g>
		<g id="DIVISION-VERTICAL-IZQUIERDA_00000085229740836627909760000005526871516412138418_">
		</g>
	</g>
	<g id="DIVISIONES-HORIZONTALES">
	</g>
	<g id="LATERAL-IZQUIERDA">
	</g>
	<g id="TECHO">
	</g>
	<g id="SOPORTES-COOK">
	</g>
</g>
<g id="TABLITAS-TRASERAS">
</g>
<g id="TRIPLEX_00000062169277959621118470000012963048032068378272_">
</g>
<g id="PUNTILLAS">
</g>
<g id="SOPORTE-MUEBLE">
	<g>
		<polygon class="st0" points="2505.2,1123.7 2505.2,554.7 2367.7,586.2 2367.7,1409.2 		"/>
		<polygon class="st1" points="2504.7,554.2 255.7,63.2 81.7,88.2 2367.7,586.2 		"/>
		<polygon class="st1" points="81.7,88.2 81.7,824.2 2367.7,1409.2 2367.7,586.2 		"/>
	</g>
	<circle cx="2439" cy="1165.3" r="21.5"/>
	<line class="st2" x1="2770.7" y1="1164.2" x2="2435.7" y2="1165.2"/>
	<g>
		<g>
			<path d="M4326.8,510.3h-41.9l-7.4,17c-1.7,4.2-2.6,7.3-2.6,9.4c0,0.9,0.1,1.7,0.4,2.4c0.3,0.7,0.9,1.4,1.8,2
				c0.9,0.6,2.2,1.1,3.8,1.5c1.6,0.4,3.8,0.7,6.5,0.9v3h-34.1v-3c2.7-0.4,4.9-1,6.6-1.8c1.7-0.8,3.1-1.9,4.3-3.3
				c1.2-1.4,2.3-3.2,3.3-5.4c1-2.2,2.2-5,3.6-8.2l38.1-89h2.7l37.7,90c1.5,3.7,2.9,6.7,4.2,9c1.3,2.3,2.7,4,4.1,5.3
				c1.4,1.3,2.9,2.1,4.5,2.6c1.6,0.5,3.6,0.8,5.9,0.8v3h-42.8v-3c4.3-0.2,7.2-0.9,8.8-2.1c1.5-1.2,2.3-2.7,2.3-4.5
				c-0.1-2.3-1.2-6-3.2-11.2L4326.8,510.3z M4324.6,504.3l-18.4-43.7l-18.8,43.7H4324.6z"/>
			<path d="M4478,506.6v11.3h-14.5v28.6h-13.2v-28.6h-45.9v-10.2l50.3-71.6h8.8v70.5H4478z M4450.3,506.6v-53.7l-38,53.7H4450.3z"/>
			<path d="M4554.7,438.2l-6.3,13.6h-32.5l-7.1,14.5c6.4,1,12.4,2.6,17.8,5.1c5.4,2.4,10.1,5.4,14,9c3.9,3.6,6.9,7.7,9.1,12.3
				c2.2,4.6,3.3,9.6,3.3,15c0,6.6-1.4,12.4-4.2,17.5c-2.8,5-6.3,9.3-10.5,12.8c-4.2,3.5-8.9,6.1-13.9,7.9c-5,1.8-9.7,2.7-14.2,2.7
				c-3.3,0-6.2-0.3-8.5-0.9c-2.3-0.6-4.3-1.4-5.7-2.4c-1.5-1-2.6-2.2-3.3-3.4c-0.7-1.2-1.1-2.5-1.1-3.9c0-1.5,0.6-2.8,1.8-4
				c1.2-1.2,2.7-1.7,4.6-1.7c0.7,0,1.3,0,1.9,0.1c0.6,0.1,1.1,0.3,1.7,0.5c0.6,0.3,1.3,0.7,2.1,1.2c0.8,0.5,1.9,1.2,3.2,2.1
				c2,1.4,4,2.5,6,3.2c2,0.7,4.1,1,6.1,1c3.1,0,6.1-0.6,8.9-1.9c2.8-1.3,5.3-3,7.4-5.2c2.1-2.2,3.9-4.7,5.2-7.7c1.3-2.9,2-6.1,2-9.5
				c0-3.3-0.6-6.4-1.7-9.5c-1.1-3.1-2.7-6-4.8-8.8c-2.1-2.7-4.5-5.2-7.4-7.4c-2.9-2.2-6.2-4.1-9.8-5.7c-2.9-1.3-6.4-2.2-10.3-2.8
				c-3.9-0.6-8.4-1-13.4-1.3l20.7-42.2H4554.7z"/>
			<path d="M4597.7,435.8c3.4,0,6.6,0.7,9.7,2c3,1.3,5.6,3.1,7.9,5.3c2.2,2.2,4,4.8,5.2,7.9c1.3,3,1.9,6.2,1.9,9.5
				c0,3.3-0.7,6.5-2,9.5c-1.3,3-3.1,5.6-5.3,7.8c-2.2,2.2-4.8,4-7.8,5.2c-3,1.3-6.2,1.9-9.6,1.9c-3.3,0-6.5-0.7-9.5-2
				c-3-1.3-5.6-3.1-7.7-5.2c-2.2-2.2-3.9-4.8-5.2-7.7c-1.3-3-2-6.1-2-9.5c0-3.4,0.6-6.6,1.9-9.6c1.3-3,3-5.6,5.2-7.8
				c2.2-2.2,4.8-4,7.8-5.3C4591.2,436.4,4594.3,435.8,4597.7,435.8z M4597.7,442.6c-2.5,0-4.8,0.5-6.9,1.4s-4,2.2-5.7,3.8
				c-1.6,1.6-2.9,3.5-3.8,5.6c-0.9,2.1-1.4,4.4-1.4,6.9c0,2.4,0.5,4.7,1.4,6.9c0.9,2.2,2.2,4.1,3.8,5.7c1.6,1.6,3.5,2.9,5.7,3.8
				s4.4,1.4,6.9,1.4c2.5,0,4.8-0.5,7-1.4c2.2-1,4.1-2.2,5.7-3.9c1.6-1.6,2.9-3.5,3.8-5.7c1-2.1,1.4-4.4,1.4-6.8
				c0-2.5-0.5-4.8-1.4-6.9c-1-2.1-2.2-4-3.8-5.6c-1.6-1.6-3.5-2.9-5.7-3.8C4602.5,443.1,4600.1,442.6,4597.7,442.6z"/>
			<path d="M4674.4,546.5v-3h4.2c1.8,0,3.5-0.2,4.9-0.5c1.4-0.3,2.6-1,3.6-2.1c1-1.1,1.7-2.7,2.2-4.9c0.5-2.1,0.8-5,0.8-8.7v-69.9
				c0-6.7-0.8-10.9-2.3-12.6c-2.1-2.4-5.1-3.6-9.2-3.6h-4.2v-3h44.1c16,0,28.4,1.9,36.9,5.6c8.5,3.7,15.3,9.9,20.4,18.4
				c5.2,8.7,7.7,18.5,7.7,29.7c0,8-1.3,15.4-3.9,22c-2.6,6.7-6.4,12.4-11.6,17.3c-5.1,4.8-11.5,8.6-19,11.3
				c-7.5,2.7-16.3,4.1-26.3,4.1H4674.4z M4705.4,538.6c6.6,1.5,12.2,2.3,16.9,2.3c6.1,0,11.8-1.1,17-3.4c5.2-2.3,9.8-5.5,13.6-9.7
				c3.9-4.2,6.9-9.2,9.1-15.2c2.2-6,3.3-12.6,3.3-20c0-7.5-1.1-14.2-3.2-20.2c-2.1-6-5.2-11.1-9.1-15.3c-3.9-4.2-8.5-7.4-13.8-9.6
				c-5.3-2.2-11.2-3.3-17.5-3.3c-4.7,0-10.1,0.8-16.3,2.4V538.6z"/>
			<path d="M4824,444.1v42.8h23.7c3.5,0,6.3-0.3,8.5-1c2.1-0.6,3.8-1.6,5.1-2.9c1.2-1.3,2.1-2.9,2.6-4.9c0.5-2,0.8-4.3,1-7h3v37.7
				h-3c-0.4-3.1-0.9-5.7-1.4-7.7c-0.5-2.1-1.4-3.7-2.5-4.9c-1.2-1.2-2.8-2.1-4.8-2.6c-2.1-0.5-4.8-0.8-8.3-0.8H4824v35.7
				c0,2.7,0,4.8,0.1,6.4c0.1,1.6,0.4,2.8,1,3.6c0.6,0.8,1.4,1.4,2.6,1.6s2.9,0.4,5.2,0.4h18.3c3.1,0,5.7-0.1,7.9-0.2
				c2.1-0.2,4-0.5,5.5-1c1.5-0.5,2.9-1.1,4.1-2c1.2-0.8,2.5-1.9,3.8-3.2c3.2-3.1,6.6-8.1,10.1-14.9h3.2l-9.4,27.2h-83.4v-3h3.8
				c1,0,2.1-0.1,3.2-0.4c1.1-0.2,2.2-0.6,3.2-1c1-0.4,1.9-1,2.7-1.7c0.8-0.7,1.3-1.5,1.7-2.5c0.6-1.7,1-5.2,1-10.5v-70.3
				c0-6.9-0.7-11.2-2-12.8c-1.9-2.1-5.1-3.2-9.7-3.2h-3.8v-3h83.4v23.7h-1.9c-0.8-3.9-1.6-7-2.6-9.4c-0.9-2.3-2.1-4.1-3.6-5.4
				c-1.5-1.3-3.4-2.1-5.8-2.4c-2.3-0.4-5.3-0.5-9-0.5H4824z"/>
			<path d="M4989.9,435.8l2.9,34.1h-2.9c-3.3-10-7.9-17.3-13.9-21.7c-6-4.5-13.3-6.7-21.9-6.7c-6.4,0-12,1.3-17,3.8
				c-5,2.5-9.3,6-12.8,10.4c-3.5,4.4-6.2,9.6-8,15.6c-1.8,6-2.7,12.5-2.7,19.5c0,10.2,2,19.7,6.1,28.2c2,4.3,4.3,8,7,11.1
				c2.7,3.1,5.5,5.7,8.6,7.7c3.1,2,6.3,3.5,9.7,4.5c3.4,1,6.8,1.4,10.2,1.4c7.9,0,15.4-2,22.4-6v-31.3c0-2.7-0.1-4.9-0.3-6.6
				c-0.2-1.7-0.5-3.1-1-4.1c-0.4-1-1-1.7-1.6-2.3c-0.6-0.5-1.4-1-2.3-1.5c-1.7-0.9-4.8-1.3-9.1-1.3v-3.1h41.9v3.1h-2
				c-1.8,0-3.4,0.2-4.6,0.6c-1.3,0.4-2.3,1.2-3.2,2.3c-0.8,1.1-1.4,2.7-1.8,4.8c-0.4,2.1-0.5,4.8-0.5,8.1v33.1
				c-3.1,1.7-6.1,3.1-9.1,4.3c-3,1.2-6,2.2-9,2.9c-6.2,1.6-12.8,2.4-19.9,2.4c-9.1,0-17.3-1.4-24.6-4.2c-7.3-2.8-13.6-6.6-18.9-11.6
				c-5.2-4.9-9.3-10.7-12.2-17.4c-2.9-6.7-4.3-13.9-4.3-21.8c0-9.5,2.3-18.6,6.9-27.4c5.3-10.3,12.8-18.3,22.3-24
				c7.9-4.6,17.3-6.9,28.1-6.9c2.1,0,4.1,0.1,5.7,0.2c1.7,0.1,3.4,0.4,5.2,0.7c1.8,0.4,3.7,0.9,5.8,1.5c2.1,0.7,4.7,1.6,7.7,2.7
				c3,1.2,5,1.7,6.1,1.7c1,0,1.8-0.5,2.5-1.4c0.7-0.9,1.2-2.7,1.3-5.4H4989.9z"/>
			<path d="M5118.2,546.5h-28.8l-36.7-50.6c-1.4,0.1-2.6,0.1-3.6,0.2c-1.1,0-2,0.1-2.9,0.1c-0.7,0-1.5,0-2.3-0.1
				c-0.8,0-1.6-0.1-2.5-0.2v31.5c0,3.8,0.3,6.8,0.8,9c0.5,2.2,1.3,3.8,2.3,4.9c1,1.1,2.2,1.7,3.6,2c1.4,0.2,3,0.4,4.7,0.4h4.3v3
				h-46.5v-3h4.2c4.4,0,7.7-1.5,9.8-4.4c1.1-1.7,1.7-5.7,1.7-11.8v-69.9c0-6.7-0.8-10.9-2.3-12.6c-2.1-2.4-5.1-3.6-9.2-3.6h-4.2v-3
				h39.4c5.8,0,10.8,0.2,15,0.7c4.2,0.4,7.7,1.1,10.4,2c2.7,0.9,5.2,2.1,7.6,3.6c2.4,1.5,4.5,3.4,6.3,5.6c1.8,2.2,3.2,4.6,4.2,7.3
				c1,2.7,1.5,5.6,1.5,8.7c0,6.8-2.1,12.6-6.4,17.4c-4.3,4.8-11,8.3-20.1,10.4l22.3,31c2.6,3.6,4.9,6.5,7,8.8c2,2.3,4.1,4.1,6.1,5.5
				c2,1.4,4.2,2.3,6.4,3c2.3,0.6,4.9,1.1,8,1.4V546.5z M5041.3,490.8c1,0,1.9,0,2.7,0.1c0.8,0,1.4,0.1,1.8,0.1
				c5.2,0,9.7-0.6,13.6-1.8c3.9-1.2,7.1-2.9,9.8-5c2.6-2.1,4.6-4.7,5.9-7.6c1.3-2.9,2-6.1,2-9.5c0-3.3-0.6-6.4-1.7-9.2
				c-1.1-2.8-2.7-5.2-4.8-7.3c-2.1-2-4.5-3.6-7.4-4.7c-2.9-1.1-6-1.7-9.4-1.7c-3.3,0-7.4,0.5-12.5,1.5V490.8z"/>
			<path d="M5150.9,444.1v42.8h23.7c3.5,0,6.3-0.3,8.5-1c2.1-0.6,3.8-1.6,5.1-2.9c1.2-1.3,2.1-2.9,2.6-4.9c0.5-2,0.8-4.3,1-7h3v37.7
				h-3c-0.4-3.1-0.9-5.7-1.4-7.7c-0.5-2.1-1.4-3.7-2.5-4.9c-1.2-1.2-2.8-2.1-4.8-2.6c-2.1-0.5-4.8-0.8-8.3-0.8h-23.7v35.7
				c0,2.7,0,4.8,0.1,6.4c0.1,1.6,0.4,2.8,1,3.6c0.6,0.8,1.4,1.4,2.6,1.6s2.9,0.4,5.2,0.4h18.3c3.1,0,5.7-0.1,7.9-0.2
				c2.1-0.2,4-0.5,5.5-1c1.5-0.5,2.9-1.1,4.1-2c1.2-0.8,2.5-1.9,3.8-3.2c3.2-3.1,6.6-8.1,10.1-14.9h3.2l-9.4,27.2h-83.4v-3h3.8
				c1,0,2.1-0.1,3.2-0.4c1.1-0.2,2.2-0.6,3.2-1c1-0.4,1.9-1,2.7-1.7c0.8-0.7,1.3-1.5,1.7-2.5c0.6-1.7,1-5.2,1-10.5v-70.3
				c0-6.9-0.7-11.2-2-12.8c-1.9-2.1-5.1-3.2-9.7-3.2h-3.8v-3h83.4v23.7h-1.9c-0.8-3.9-1.6-7-2.6-9.4c-0.9-2.3-2.1-4.1-3.6-5.4
				c-1.5-1.3-3.4-2.1-5.8-2.4c-2.3-0.4-5.3-0.5-9-0.5H5150.9z"/>
			<path d="M5250.8,444.1v42.8h23.7c3.5,0,6.3-0.3,8.5-1c2.1-0.6,3.8-1.6,5.1-2.9c1.2-1.3,2.1-2.9,2.6-4.9c0.5-2,0.8-4.3,1-7h3v37.7
				h-3c-0.4-3.1-0.9-5.7-1.4-7.7c-0.5-2.1-1.4-3.7-2.5-4.9c-1.2-1.2-2.8-2.1-4.8-2.6c-2.1-0.5-4.8-0.8-8.3-0.8h-23.7v35.7
				c0,2.7,0,4.8,0.1,6.4c0.1,1.6,0.4,2.8,1,3.6c0.6,0.8,1.4,1.4,2.6,1.6s2.9,0.4,5.2,0.4h18.3c3.1,0,5.7-0.1,7.9-0.2
				c2.1-0.2,4-0.5,5.5-1c1.5-0.5,2.9-1.1,4.1-2c1.2-0.8,2.5-1.9,3.8-3.2c3.2-3.1,6.6-8.1,10.1-14.9h3.2l-9.4,27.2h-83.4v-3h3.8
				c1,0,2.1-0.1,3.2-0.4c1.1-0.2,2.2-0.6,3.2-1c1-0.4,1.9-1,2.7-1.7c0.8-0.7,1.3-1.5,1.7-2.5c0.6-1.7,1-5.2,1-10.5v-70.3
				c0-6.9-0.7-11.2-2-12.8c-1.9-2.1-5.1-3.2-9.7-3.2h-3.8v-3h83.4v23.7h-1.9c-0.8-3.9-1.6-7-2.6-9.4c-0.9-2.3-2.1-4.1-3.6-5.4
				c-1.5-1.3-3.4-2.1-5.8-2.4c-2.3-0.4-5.3-0.5-9-0.5H5250.8z"/>
			<path d="M5455.7,435.8l2.5,36.8h-2.5c-3.3-11-8-19-14.1-23.8c-6.1-4.8-13.4-7.3-22-7.3c-5.6,0-10.7,1.1-15.4,3.2
				c-4.7,2.1-8.7,5.3-12.1,9.7c-3.4,4.4-6,9.9-7.9,16.4c-1.9,6.6-2.9,14.4-2.9,23.4c0,7.2,0.9,13.8,2.7,19.7
				c1.8,5.9,4.4,10.9,7.9,15.1c3.5,4.2,7.7,7.4,12.7,9.7c5,2.3,10.8,3.4,17.3,3.4c6.8,0,13-1.5,18.6-4.5c5.3-2.8,11.2-8.7,17.8-17.9
				l2.5,1.5c-5.5,9.6-11.8,16.7-19,21.2c-7.2,4.5-15.8,6.7-25.8,6.7c-7.7,0-14.8-1.4-21.2-4.1c-6.4-2.7-12-6.5-16.6-11.4
				s-8.3-10.7-10.9-17.4c-2.6-6.7-3.9-14.1-3.9-22.1c0-10.9,2.4-20.8,7.3-29.8c4.8-9.1,11.4-16,19.9-21c8.6-5,17.9-7.5,27.9-7.5
				c7.9,0,15.6,1.9,23.1,5.7c2.2,1.2,3.8,1.8,4.8,1.8c1.7,0,3.2-0.7,4.3-2.1c1.2-1.4,2-3.2,2.4-5.4H5455.7z"/>
			<path d="M5544.4,441.1v-3h38.2v3h-4.1c-4.1,0-7.4,1.8-9.8,5.4c-1.1,1.6-1.7,5.4-1.7,11.6v43.9c0,10.6-1.1,19.1-3.3,25.4
				c-1.1,3-2.7,5.8-4.8,8.5c-2.1,2.6-4.7,4.9-7.9,6.9c-3.2,1.9-6.9,3.5-11.1,4.6c-4.2,1.2-9.1,1.7-14.6,1.7c-6,0-11.2-0.5-15.6-1.5
				c-4.5-1-8.3-2.5-11.4-4.5c-3.2-2-5.8-4.4-7.9-7.1c-2.1-2.8-3.7-5.9-5-9.4c-1.7-4.8-2.6-13.7-2.6-26.7v-42.3
				c0-3.3-0.2-6.1-0.7-8.2c-0.4-2.1-1.1-3.8-2.1-4.9s-2.2-2-3.6-2.4c-1.5-0.4-3.2-0.7-5.2-0.7h-4.2v-3h46.8v3h-4.2
				c-1.9,0-3.6,0.2-5,0.6c-1.4,0.4-2.6,1.2-3.6,2.3c-1,1.2-1.7,2.8-2.2,4.9c-0.5,2.1-0.8,4.9-0.8,8.4v47.2c0,4.8,0.3,9.4,1,13.9
				c0.6,4.5,1.9,8.6,3.9,12.1c2,3.5,4.8,6.4,8.5,8.5c3.7,2.1,8.6,3.2,14.7,3.2c3.5,0,6.9-0.4,10.1-1.3c3.3-0.8,6.2-2,8.9-3.4
				c2.7-1.4,5-3.2,7-5.2c2-2,3.5-4.2,4.4-6.6c2.1-4.7,3.1-12.9,3.1-24.5v-43.9c0-6.7-0.8-10.9-2.3-12.6c-2.1-2.4-5.1-3.6-9.2-3.6
				H5544.4z"/>
			<path d="M5679,438.2v25.5h-1.8c-0.9-6.8-2.9-11.7-6-14.5c-3.1-2.8-7.8-4.2-13.9-4.2h-15.3v82.8c0,3.7,0.3,6.5,0.8,8.6
				c0.5,2.1,1.3,3.7,2.2,4.7c1,1,2.1,1.7,3.6,2c1.4,0.3,3.1,0.4,5,0.4h3.7v3h-45.9v-3h3.8c1.9,0,3.6-0.2,5-0.5
				c1.4-0.3,2.6-1,3.6-2.1s1.7-2.6,2.2-4.7c0.5-2.1,0.8-4.9,0.8-8.5V445h-13c-3.3,0-6.1,0.3-8.6,0.8c-2.5,0.5-4.7,1.5-6.5,2.9
				c-1.8,1.4-3.3,3.3-4.3,5.7c-1.1,2.4-1.7,5.5-2,9.4h-3v-25.5H5679z"/>
		</g>
	</g>
	<g>
		<g>
			<path d="M4273.2,710v3h-46.4v-3h3.8c1.9,0,3.6-0.1,5.1-0.4c1.5-0.3,2.7-1,3.6-2c1-1.1,1.7-2.7,2.2-4.9c0.5-2.2,0.8-5.1,0.8-8.9
				v-69.9c0-2.5-0.1-4.5-0.2-6.1c-0.1-1.6-0.3-3-0.6-4c-0.3-1-0.7-1.8-1.3-2.4c-0.6-0.6-1.3-1.2-2.3-1.7c-2.4-1.3-4.8-1.9-7.4-1.9
				h-3.8v-3h46.4v3h-3.8c-1.9,0-3.6,0.2-5.1,0.5c-1.5,0.3-2.7,1-3.6,2.1s-1.7,2.7-2.2,4.9c-0.5,2.2-0.8,5.1-0.8,8.8v69.9
				c0,2.5,0,4.6,0.1,6.2c0.1,1.6,0.3,2.9,0.6,3.9c0.3,1,0.8,1.8,1.4,2.4s1.4,1.2,2.3,1.7c2.2,1.3,4.6,1.9,7.3,1.9H4273.2z"/>
			<path d="M4352.2,602.3v37.4h-3c-1.4-10.1-4.6-17.8-9.9-23.1c-5.2-5.3-11.9-8-20-8c-2.8,0-5.3,0.5-7.6,1.4c-2.3,1-4.3,2.2-6.1,3.8
				c-1.7,1.5-3.1,3.3-4.1,5.3c-1,2-1.4,4.1-1.4,6.2c0,2,0.4,3.9,1.2,5.7c0.8,1.8,3.3,4.6,7.4,8.4c6.9,4.4,13.1,8,18.5,10.8
				c5.1,2.8,12,7,20.6,12.6c3.7,2.9,6.6,6.3,8.6,10.2c2,3.9,3,8,3,12.3c0,4.1-0.8,7.9-2.5,11.6c-1.7,3.7-4,6.9-7,9.6
				c-3,2.7-6.6,4.9-10.8,6.6c-4.2,1.6-8.8,2.4-13.8,2.4c-3.2,0-6.1-0.2-8.8-0.7c-0.5-0.1-1.7-0.4-3.8-1c-2-0.6-4.2-1.2-6.5-1.8
				c-2.3-0.6-4.4-1.2-6.4-1.8c-2-0.6-3.1-0.8-3.5-0.8c-1.4,0-2.4,0.4-3.2,1.2c-0.8,0.8-1.3,2.5-1.7,5h-3v-37.2h3
				c1.4,7.6,3.3,13.5,5.6,17.5c1.1,1.9,2.6,3.7,4.5,5.3c1.9,1.6,4,3.1,6.3,4.3c2.3,1.2,4.9,2.2,7.6,2.9c2.7,0.7,5.4,1,8.2,1
				c3.3,0,6.3-0.5,9-1.4c2.7-1,4.9-2.2,6.8-3.9c1.9-1.6,3.3-3.5,4.3-5.7c1-2.1,1.5-4.4,1.5-6.8c0-2.7-0.7-5.4-2.2-8.1
				c-1.5-2.7-4-5.4-7.4-8c-3.4-2.1-7.5-4.5-12.2-7.3c-9-5.2-17-10.1-24-14.9c-3.9-3.1-6.9-6.5-8.9-10.2c-2-3.7-3-7.8-3-12.3
				c0-3.8,0.8-7.4,2.4-10.9c1.6-3.5,3.8-6.5,6.6-9.1c2.8-2.6,6.2-4.7,10.1-6.2c3.9-1.5,8.1-2.3,12.6-2.3c5.7,0,11.8,1.4,18.2,4.2
				c1.5,0.6,2.8,1.2,3.8,1.5c1,0.4,1.9,0.6,2.5,0.5c1.4,0,2.6-0.4,3.5-1.2c0.9-0.8,1.5-2.5,2-5H4352.2z"/>
			<path d="M4475.9,713l-41.8-91v72.3c0,3.7,0.3,6.7,0.8,8.8c0.5,2.1,1.3,3.7,2.3,4.7c1,1,2.2,1.7,3.6,1.9c1.4,0.2,3.1,0.4,4.9,0.4
				h3.8v3h-37.7v-3h3.8c1.9,0,3.6-0.1,5-0.4c1.4-0.3,2.6-1,3.6-2s1.7-2.7,2.1-4.8c0.5-2.1,0.7-4.9,0.7-8.5v-70.8
				c0-2.5-0.1-4.8-0.4-6.7c-0.2-1.9-0.9-3.6-1.8-4.9c-1-1.3-2.5-2.4-4.5-3.1c-2-0.7-4.9-1.1-8.5-1.1v-3h30.6l39.3,84.7l38.6-84.7
				h30.6v3h-3.7c-2,0-3.7,0.2-5.1,0.5c-1.4,0.3-2.6,1-3.6,2.1s-1.7,2.7-2.1,4.8c-0.5,2.1-0.7,4.9-0.7,8.5v70.8
				c0,3.7,0.3,6.7,0.8,8.8c0.5,2.1,1.3,3.7,2.3,4.7c1,1,2.2,1.7,3.6,1.9c1.4,0.2,3.1,0.4,4.9,0.4h3.7v3h-46v-3h3.8
				c1.9,0,3.6-0.2,5-0.5c1.4-0.3,2.6-1,3.6-2.1c1-1.1,1.7-2.6,2.2-4.7c0.5-2.1,0.7-4.9,0.7-8.5v-72.3l-41.7,91H4475.9z"/>
			<path d="M4629.3,676.7h-41.9l-7.4,17c-1.7,4.2-2.6,7.3-2.6,9.4c0,0.9,0.1,1.7,0.4,2.4c0.3,0.7,0.9,1.4,1.8,2
				c0.9,0.6,2.2,1.1,3.8,1.5c1.6,0.4,3.8,0.7,6.5,0.9v3h-34.1v-3c2.7-0.4,4.9-1,6.6-1.8c1.7-0.8,3.1-1.9,4.3-3.3
				c1.2-1.4,2.3-3.2,3.3-5.4c1-2.2,2.2-5,3.6-8.2l38.1-89h2.7l37.7,90c1.5,3.7,2.9,6.7,4.2,9c1.3,2.3,2.7,4,4.1,5.3
				c1.4,1.3,2.9,2.1,4.5,2.6c1.6,0.5,3.6,0.8,5.9,0.8v3H4628v-3c4.3-0.2,7.2-0.9,8.8-2.1c1.5-1.2,2.3-2.7,2.3-4.5
				c-0.1-2.3-1.2-6-3.2-11.2L4629.3,676.7z M4627,670.8l-18.4-43.7l-18.8,43.7H4627z"/>
			<path d="M4675.3,713v-3h4.2c1.8,0,3.5-0.2,4.9-0.5c1.4-0.3,2.6-1,3.6-2.1c1-1.1,1.7-2.7,2.2-4.9c0.5-2.1,0.8-5,0.8-8.7v-69.9
				c0-6.7-0.8-10.9-2.3-12.6c-2.1-2.4-5.1-3.6-9.2-3.6h-4.2v-3h44.1c16,0,28.4,1.9,36.9,5.6c8.5,3.7,15.3,9.9,20.4,18.4
				c5.2,8.7,7.7,18.5,7.7,29.7c0,8-1.3,15.4-3.9,22c-2.6,6.7-6.4,12.4-11.6,17.3c-5.1,4.8-11.5,8.6-19,11.3
				c-7.5,2.7-16.3,4.1-26.3,4.1H4675.3z M4706.3,705.1c6.6,1.5,12.2,2.3,16.9,2.3c6.1,0,11.8-1.1,17-3.4c5.2-2.3,9.8-5.5,13.6-9.7
				c3.9-4.2,6.9-9.2,9.1-15.2c2.2-6,3.3-12.6,3.3-20c0-7.5-1.1-14.2-3.2-20.2c-2.1-6-5.2-11.1-9.1-15.3c-3.9-4.2-8.5-7.4-13.8-9.6
				c-5.3-2.2-11.2-3.3-17.5-3.3c-4.7,0-10.1,0.8-16.3,2.4V705.1z"/>
			<path d="M4824.8,610.6v42.8h23.7c3.5,0,6.3-0.3,8.5-1c2.1-0.6,3.8-1.6,5.1-2.9c1.2-1.3,2.1-2.9,2.6-4.9c0.5-2,0.8-4.3,1-7h3v37.7
				h-3c-0.4-3.1-0.9-5.7-1.4-7.7c-0.5-2.1-1.4-3.7-2.5-4.9c-1.2-1.2-2.8-2.1-4.8-2.6c-2.1-0.5-4.8-0.8-8.3-0.8h-23.7V695
				c0,2.7,0,4.8,0.1,6.4c0.1,1.6,0.4,2.8,1,3.6c0.6,0.8,1.4,1.4,2.6,1.6s2.9,0.4,5.2,0.4h18.3c3.1,0,5.7-0.1,7.9-0.2
				c2.1-0.2,4-0.5,5.5-1c1.5-0.5,2.9-1.1,4.1-2c1.2-0.8,2.5-1.9,3.8-3.2c3.2-3.1,6.6-8.1,10.1-14.9h3.2l-9.4,27.2H4794v-3h3.8
				c1,0,2.1-0.1,3.2-0.4c1.1-0.2,2.2-0.6,3.2-1c1-0.4,1.9-1,2.7-1.7c0.8-0.7,1.3-1.5,1.7-2.5c0.6-1.7,1-5.2,1-10.5v-70.3
				c0-6.9-0.7-11.2-2-12.8c-1.9-2.1-5.1-3.2-9.7-3.2h-3.8v-3h83.4v23.7h-1.9c-0.8-3.9-1.6-7-2.6-9.4c-0.9-2.3-2.1-4.1-3.6-5.4
				c-1.5-1.3-3.4-2.1-5.8-2.4c-2.3-0.4-5.3-0.5-9-0.5H4824.8z"/>
			<path d="M4981.8,710v3h-46.4v-3h3.8c1.9,0,3.6-0.1,5.1-0.4c1.5-0.3,2.7-1,3.6-2c1-1.1,1.7-2.7,2.2-4.9c0.5-2.2,0.8-5.1,0.8-8.9
				v-69.9c0-2.5-0.1-4.5-0.2-6.1c-0.1-1.6-0.3-3-0.6-4c-0.3-1-0.7-1.8-1.3-2.4c-0.6-0.6-1.3-1.2-2.3-1.7c-2.4-1.3-4.8-1.9-7.4-1.9
				h-3.8v-3h46.4v3h-3.8c-1.9,0-3.6,0.2-5.1,0.5c-1.5,0.3-2.7,1-3.6,2.1s-1.7,2.7-2.2,4.9c-0.5,2.2-0.8,5.1-0.8,8.8v69.9
				c0,2.5,0,4.6,0.1,6.2c0.1,1.6,0.3,2.9,0.6,3.9c0.3,1,0.8,1.8,1.4,2.4s1.4,1.2,2.3,1.7c2.2,1.3,4.6,1.9,7.3,1.9H4981.8z"/>
			<path d="M4983.7,604.6h29.3l66.3,81.3v-62.4c0-3.7-0.3-6.6-0.8-8.7c-0.5-2.1-1.3-3.7-2.3-4.8c-1-1-2.2-1.7-3.6-2
				c-1.4-0.3-3.1-0.4-4.9-0.4h-3.8v-3h37.8v3h-3.9c-1.9,0-3.6,0.2-5,0.5c-1.4,0.3-2.6,1-3.6,2.1c-1,1.1-1.7,2.7-2.1,4.8
				c-0.5,2.1-0.7,4.9-0.7,8.5v91.3h-2.9l-71.4-87.2v66.7c0,3.7,0.3,6.7,0.8,8.8c0.5,2.1,1.3,3.7,2.2,4.7c1,1,2.1,1.7,3.6,1.9
				c1.4,0.2,3.1,0.4,4.9,0.4h3.8v3h-37.7v-3h3.8c1.9,0,3.6-0.2,5-0.5c1.4-0.3,2.6-1,3.6-2.1c1-1.1,1.7-2.6,2.2-4.7
				c0.5-2.1,0.7-4.9,0.7-8.5v-75.3c-1.6-1.9-2.9-3.4-4-4.5c-1.1-1.1-2.1-2-3-2.7s-2-1.3-3.1-1.8c-1.1-0.5-2.5-1-4.2-1.5
				c-1.6-0.5-3.9-0.7-7-0.7V604.6z"/>
			<path d="M5204.6,602.3c6.9,0,13.5,1.4,19.8,4.3c6.3,2.9,11.8,6.8,16.6,11.8c4.8,5,8.6,10.9,11.4,17.7c2.8,6.8,4.2,14.2,4.2,22.1
				c0,8.2-1.4,15.8-4.2,22.8c-2.8,7-6.6,13-11.4,18.2c-4.8,5.1-10.4,9.1-16.9,12c-6.5,2.9-13.4,4.3-20.7,4.3
				c-7.4,0-14.3-1.4-20.7-4.2c-6.4-2.8-12-6.7-16.7-11.7c-4.7-5-8.5-11.1-11.2-18.1c-2.7-7-4.1-14.7-4.1-23.1
				c0-7.8,1.4-15.1,4.1-21.9c2.7-6.8,6.5-12.8,11.3-17.8c4.8-5,10.5-9,17.1-12C5189.6,603.7,5196.8,602.3,5204.6,602.3z M5203,608.1
				c-5.5,0-10.3,1.2-14.6,3.5c-4.3,2.3-7.8,5.7-10.7,10c-2.9,4.3-5.1,9.6-6.6,15.7c-1.5,6.2-2.3,13.1-2.3,20.8
				c0,7.6,0.7,14.6,2.2,20.9c1.5,6.3,3.7,11.8,6.6,16.3c2.9,4.6,6.5,8.1,10.8,10.6c4.3,2.5,9.2,3.8,14.8,3.8c5,0,9.6-1,13.9-2.9
				c4.2-1.9,8-4.9,11.1-8.9c3.2-4,5.7-9.1,7.4-15.4c1.8-6.2,2.7-13.7,2.7-22.3c0-8.2-0.7-15.5-2.2-22c-1.5-6.5-3.7-12-6.7-16.4
				c-3-4.5-6.7-7.9-11.1-10.2C5213.9,609.3,5208.8,608.1,5203,608.1z"/>
			<path d="M5373.3,713h-28.8l-36.7-50.6c-1.4,0.1-2.6,0.1-3.6,0.2c-1.1,0-2,0.1-2.9,0.1c-0.7,0-1.5,0-2.3-0.1
				c-0.8,0-1.6-0.1-2.5-0.2v31.5c0,3.8,0.3,6.8,0.8,9c0.5,2.2,1.3,3.8,2.3,4.9c1,1.1,2.2,1.7,3.6,2c1.4,0.2,3,0.4,4.7,0.4h4.3v3
				h-46.5v-3h4.2c4.4,0,7.7-1.5,9.8-4.4c1.1-1.7,1.7-5.7,1.7-11.8v-69.9c0-6.7-0.8-10.9-2.3-12.6c-2.1-2.4-5.1-3.6-9.2-3.6h-4.2v-3
				h39.4c5.8,0,10.8,0.2,15,0.7c4.2,0.4,7.7,1.1,10.4,2c2.7,0.9,5.2,2.1,7.6,3.6c2.4,1.5,4.5,3.4,6.3,5.6c1.8,2.2,3.2,4.6,4.2,7.3
				c1,2.7,1.5,5.6,1.5,8.7c0,6.8-2.1,12.6-6.4,17.4c-4.3,4.8-11,8.3-20.1,10.4l22.3,31c2.6,3.6,4.9,6.5,7,8.8c2,2.3,4.1,4.1,6.1,5.5
				c2,1.4,4.2,2.3,6.4,3c2.3,0.6,4.9,1.1,8,1.4V713z M5296.5,657.3c1,0,1.9,0,2.7,0.1c0.8,0,1.4,0.1,1.8,0.1c5.2,0,9.7-0.6,13.6-1.8
				c3.9-1.2,7.1-2.9,9.8-5c2.6-2.1,4.6-4.7,5.9-7.6c1.3-2.9,2-6.1,2-9.5c0-3.3-0.6-6.4-1.7-9.2c-1.1-2.8-2.7-5.2-4.8-7.3
				c-2.1-2-4.5-3.6-7.4-4.7c-2.9-1.1-6-1.7-9.4-1.7c-3.3,0-7.4,0.5-12.5,1.5V657.3z"/>
			<path d="M5374.6,713v-3h4.2c1.8,0,3.5-0.2,4.9-0.5c1.4-0.3,2.6-1,3.6-2.1c1-1.1,1.7-2.7,2.2-4.9c0.5-2.1,0.8-5,0.8-8.7v-69.9
				c0-6.7-0.8-10.9-2.3-12.6c-2.1-2.4-5.1-3.6-9.2-3.6h-4.2v-3h44.1c16,0,28.4,1.9,36.9,5.6c8.5,3.7,15.3,9.9,20.4,18.4
				c5.2,8.7,7.7,18.5,7.7,29.7c0,8-1.3,15.4-3.9,22c-2.6,6.7-6.4,12.4-11.6,17.3c-5.1,4.8-11.5,8.6-19,11.3
				c-7.5,2.7-16.3,4.1-26.3,4.1H5374.6z M5405.6,705.1c6.6,1.5,12.2,2.3,16.9,2.3c6.1,0,11.8-1.1,17-3.4c5.2-2.3,9.8-5.5,13.6-9.7
				c3.9-4.2,6.9-9.2,9.1-15.2c2.2-6,3.3-12.6,3.3-20c0-7.5-1.1-14.2-3.2-20.2c-2.1-6-5.2-11.1-9.1-15.3c-3.9-4.2-8.5-7.4-13.8-9.6
				c-5.3-2.2-11.2-3.3-17.5-3.3c-4.7,0-10.1,0.8-16.3,2.4V705.1z"/>
			<path d="M5524.2,610.6v42.8h23.7c3.5,0,6.3-0.3,8.5-1c2.1-0.6,3.8-1.6,5.1-2.9c1.2-1.3,2.1-2.9,2.6-4.9c0.5-2,0.8-4.3,1-7h3v37.7
				h-3c-0.4-3.1-0.9-5.7-1.4-7.7c-0.5-2.1-1.4-3.7-2.5-4.9c-1.2-1.2-2.8-2.1-4.8-2.6c-2.1-0.5-4.8-0.8-8.3-0.8h-23.7V695
				c0,2.7,0,4.8,0.1,6.4c0.1,1.6,0.4,2.8,1,3.6c0.6,0.8,1.4,1.4,2.6,1.6s2.9,0.4,5.2,0.4h18.3c3.1,0,5.7-0.1,7.9-0.2
				c2.1-0.2,4-0.5,5.5-1c1.5-0.5,2.9-1.1,4.1-2c1.2-0.8,2.5-1.9,3.8-3.2c3.2-3.1,6.6-8.1,10.1-14.9h3.2l-9.4,27.2h-83.4v-3h3.8
				c1,0,2.1-0.1,3.2-0.4c1.1-0.2,2.2-0.6,3.2-1c1-0.4,1.9-1,2.7-1.7c0.8-0.7,1.3-1.5,1.7-2.5c0.6-1.7,1-5.2,1-10.5v-70.3
				c0-6.9-0.7-11.2-2-12.8c-1.9-2.1-5.1-3.2-9.7-3.2h-3.8v-3h83.4v23.7h-1.9c-0.8-3.9-1.6-7-2.6-9.4c-0.9-2.3-2.1-4.1-3.6-5.4
				c-1.5-1.3-3.4-2.1-5.8-2.4c-2.3-0.4-5.3-0.5-9-0.5H5524.2z"/>
			<path d="M5700.3,713h-28.8l-36.7-50.6c-1.4,0.1-2.6,0.1-3.6,0.2c-1.1,0-2,0.1-2.9,0.1c-0.7,0-1.5,0-2.3-0.1
				c-0.8,0-1.6-0.1-2.5-0.2v31.5c0,3.8,0.3,6.8,0.8,9c0.5,2.2,1.3,3.8,2.3,4.9c1,1.1,2.2,1.7,3.6,2c1.4,0.2,3,0.4,4.7,0.4h4.3v3
				h-46.5v-3h4.2c4.4,0,7.7-1.5,9.8-4.4c1.1-1.7,1.7-5.7,1.7-11.8v-69.9c0-6.7-0.8-10.9-2.3-12.6c-2.1-2.4-5.1-3.6-9.2-3.6h-4.2v-3
				h39.4c5.8,0,10.8,0.2,15,0.7c4.2,0.4,7.7,1.1,10.4,2c2.7,0.9,5.2,2.1,7.6,3.6c2.4,1.5,4.5,3.4,6.3,5.6c1.8,2.2,3.2,4.6,4.2,7.3
				c1,2.7,1.5,5.6,1.5,8.7c0,6.8-2.1,12.6-6.4,17.4c-4.3,4.8-11,8.3-20.1,10.4l22.3,31c2.6,3.6,4.9,6.5,7,8.8c2,2.3,4.1,4.1,6.1,5.5
				c2,1.4,4.2,2.3,6.4,3c2.3,0.6,4.9,1.1,8,1.4V713z M5623.4,657.3c1,0,1.9,0,2.7,0.1c0.8,0,1.4,0.1,1.8,0.1c5.2,0,9.7-0.6,13.6-1.8
				c3.9-1.2,7.1-2.9,9.8-5c2.6-2.1,4.6-4.7,5.9-7.6c1.3-2.9,2-6.1,2-9.5c0-3.3-0.6-6.4-1.7-9.2c-1.1-2.8-2.7-5.2-4.8-7.3
				c-2.1-2-4.5-3.6-7.4-4.7c-2.9-1.1-6-1.7-9.4-1.7c-3.3,0-7.4,0.5-12.5,1.5V657.3z"/>
		</g>
	</g>
	<g>
		<g>
			<path d="M4087,756.6v25.5h-1.8c-0.9-6.8-2.9-11.7-6-14.5c-3.1-2.8-7.8-4.2-13.9-4.2h-15.3v82.8c0,3.7,0.3,6.5,0.8,8.6
				c0.5,2.1,1.3,3.7,2.2,4.7c1,1,2.1,1.7,3.6,2c1.4,0.3,3.1,0.4,5,0.4h3.7v3h-45.9v-3h3.8c1.9,0,3.6-0.2,5-0.5
				c1.4-0.3,2.6-1,3.6-2.1s1.7-2.6,2.2-4.7c0.5-2.1,0.8-4.9,0.8-8.5v-82.8h-13c-3.3,0-6.1,0.3-8.6,0.8c-2.5,0.5-4.7,1.5-6.5,2.9
				c-1.8,1.4-3.3,3.3-4.3,5.7c-1.1,2.4-1.7,5.5-2,9.4h-3v-25.5H4087z"/>
			<path d="M4149.1,754.3c6.9,0,13.5,1.4,19.8,4.3c6.3,2.9,11.8,6.8,16.6,11.8c4.8,5,8.6,10.9,11.4,17.7c2.8,6.8,4.2,14.2,4.2,22.1
				c0,8.2-1.4,15.8-4.2,22.8c-2.8,7-6.6,13-11.4,18.2c-4.8,5.1-10.4,9.1-16.9,12c-6.5,2.9-13.4,4.3-20.7,4.3
				c-7.4,0-14.3-1.4-20.7-4.2c-6.4-2.8-12-6.7-16.7-11.7c-4.7-5-8.5-11.1-11.2-18.1c-2.7-7-4.1-14.7-4.1-23.1
				c0-7.8,1.4-15.1,4.1-21.9c2.7-6.8,6.5-12.8,11.3-17.8c4.8-5,10.5-9,17.1-12C4134.1,755.7,4141.3,754.3,4149.1,754.3z
				 M4147.6,760.1c-5.5,0-10.3,1.2-14.6,3.5c-4.3,2.3-7.8,5.7-10.7,10c-2.9,4.3-5.1,9.6-6.6,15.7c-1.5,6.2-2.3,13.1-2.3,20.8
				c0,7.6,0.7,14.6,2.2,20.9c1.5,6.3,3.7,11.8,6.6,16.3c2.9,4.6,6.5,8.1,10.8,10.6c4.3,2.5,9.2,3.8,14.8,3.8c5,0,9.6-1,13.9-2.9
				c4.2-1.9,8-4.9,11.1-8.9c3.2-4,5.7-9.1,7.4-15.4c1.8-6.2,2.7-13.7,2.7-22.3c0-8.2-0.7-15.5-2.2-22c-1.5-6.5-3.7-12-6.7-16.4
				c-3-4.5-6.7-7.9-11.1-10.2C4158.5,761.3,4153.4,760.1,4147.6,760.1z"/>
			<path d="M4281.7,814.3v31.5c0,6.9,0.8,11.2,2.3,12.8c2.1,2.3,5.1,3.5,9.2,3.5h4.2v3H4251v-3h4.1c4.5,0,7.8-1.5,9.8-4.4
				c1.1-1.7,1.7-5.7,1.7-11.8v-69.9c0-6.8-0.7-11-2.1-12.6c-2.1-2.4-5.2-3.6-9.3-3.6h-4.1v-3h39.7c9.5,0,17.2,1,22.9,3.1
				c2.8,1,5.4,2.3,7.8,4c2.4,1.7,4.5,3.7,6.3,6.1c1.8,2.3,3.2,4.9,4.2,7.7c1,2.8,1.5,5.9,1.5,9.1c0,4.4-0.8,8.4-2.3,12
				c-1.5,3.7-3.7,6.8-6.6,9.4c-2.9,2.6-6.4,4.7-10.5,6.1c-4.1,1.5-8.9,2.2-14.2,2.2C4294.8,816.5,4288.7,815.7,4281.7,814.3z
				 M4281.7,809.7c2.9,0.6,5.4,1,7.5,1.3c2.1,0.3,4,0.4,5.6,0.4c2.8,0,5.4-0.6,7.9-1.7c2.5-1.2,4.6-2.7,6.5-4.8
				c1.9-2,3.3-4.5,4.4-7.3c1.1-2.9,1.6-6,1.6-9.3c0-4-0.6-7.5-1.8-10.6c-1.2-3.1-2.8-5.7-4.9-7.9c-2.1-2.1-4.5-3.8-7.3-4.9
				c-2.8-1.1-5.8-1.7-9.1-1.7c-2.7,0-6.2,0.5-10.5,1.4V809.7z"/>
			<path d="M4399,754.3c6.9,0,13.5,1.4,19.8,4.3c6.3,2.9,11.8,6.8,16.6,11.8c4.8,5,8.6,10.9,11.4,17.7c2.8,6.8,4.2,14.2,4.2,22.1
				c0,8.2-1.4,15.8-4.2,22.8c-2.8,7-6.6,13-11.4,18.2c-4.8,5.1-10.4,9.1-16.9,12c-6.5,2.9-13.4,4.3-20.7,4.3
				c-7.4,0-14.3-1.4-20.7-4.2c-6.4-2.8-12-6.7-16.7-11.7c-4.7-5-8.5-11.1-11.2-18.1c-2.7-7-4.1-14.7-4.1-23.1
				c0-7.8,1.4-15.1,4.1-21.9c2.7-6.8,6.5-12.8,11.3-17.8c4.8-5,10.5-9,17.1-12C4384,755.7,4391.2,754.3,4399,754.3z M4397.4,760.1
				c-5.5,0-10.3,1.2-14.6,3.5c-4.3,2.3-7.8,5.7-10.7,10c-2.9,4.3-5.1,9.6-6.6,15.7c-1.5,6.2-2.3,13.1-2.3,20.8
				c0,7.6,0.7,14.6,2.2,20.9c1.5,6.3,3.7,11.8,6.6,16.3c2.9,4.6,6.5,8.1,10.8,10.6c4.3,2.5,9.2,3.8,14.8,3.8c5,0,9.6-1,13.9-2.9
				c4.2-1.9,8-4.9,11.1-8.9c3.2-4,5.7-9.1,7.4-15.4c1.8-6.2,2.7-13.7,2.7-22.3c0-8.2-0.7-15.5-2.2-22c-1.5-6.5-3.7-12-6.7-16.4
				c-3-4.5-6.7-7.9-11.1-10.2C4408.3,761.3,4403.2,760.1,4397.4,760.1z"/>
			<path d="M4532.2,754.3v37.4h-3c-1.4-10.1-4.6-17.8-9.9-23.1c-5.2-5.3-11.9-8-20-8c-2.8,0-5.3,0.5-7.6,1.4c-2.3,1-4.3,2.2-6.1,3.8
				c-1.7,1.5-3.1,3.3-4.1,5.3c-1,2-1.4,4.1-1.4,6.2c0,2,0.4,3.9,1.2,5.7c0.8,1.8,3.3,4.6,7.4,8.4c6.9,4.4,13.1,8,18.5,10.8
				c5.1,2.8,12,7,20.6,12.6c3.7,2.9,6.6,6.3,8.6,10.2c2,3.9,3,8,3,12.3c0,4.1-0.8,7.9-2.5,11.6c-1.7,3.7-4,6.9-7,9.6
				c-3,2.7-6.6,4.9-10.8,6.6c-4.2,1.6-8.8,2.4-13.8,2.4c-3.2,0-6.1-0.2-8.8-0.7c-0.5-0.1-1.7-0.4-3.8-1c-2-0.6-4.2-1.2-6.5-1.8
				c-2.3-0.6-4.4-1.2-6.4-1.8c-2-0.6-3.1-0.8-3.5-0.8c-1.4,0-2.4,0.4-3.2,1.2c-0.8,0.8-1.3,2.5-1.7,5h-3v-37.2h3
				c1.4,7.6,3.3,13.5,5.6,17.5c1.1,1.9,2.6,3.7,4.5,5.3c1.9,1.6,4,3.1,6.3,4.3c2.3,1.2,4.9,2.2,7.6,2.9c2.7,0.7,5.4,1,8.2,1
				c3.3,0,6.3-0.5,9-1.4c2.7-1,4.9-2.2,6.8-3.9c1.9-1.6,3.3-3.5,4.3-5.7c1-2.1,1.5-4.4,1.5-6.8c0-2.7-0.7-5.4-2.2-8.1
				c-1.5-2.7-4-5.4-7.4-8c-3.4-2.1-7.5-4.5-12.2-7.3c-9-5.2-17-10.1-24-14.9c-3.9-3.1-6.9-6.5-8.9-10.2c-2-3.7-3-7.8-3-12.3
				c0-3.8,0.8-7.4,2.4-10.9c1.6-3.5,3.8-6.5,6.6-9.1c2.8-2.6,6.2-4.7,10.1-6.2c3.9-1.5,8.1-2.3,12.6-2.3c5.7,0,11.8,1.4,18.2,4.2
				c1.5,0.6,2.8,1.2,3.8,1.5c1,0.4,1.9,0.6,2.5,0.5c1.4,0,2.6-0.4,3.5-1.2c0.9-0.8,1.5-2.5,2-5H4532.2z"/>
			<path d="M4598.6,862v3h-46.4v-3h3.8c1.9,0,3.6-0.1,5.1-0.4c1.5-0.3,2.7-1,3.6-2c1-1.1,1.7-2.7,2.2-4.9c0.5-2.2,0.8-5.1,0.8-8.9
				v-69.9c0-2.5-0.1-4.5-0.2-6.1c-0.1-1.6-0.3-3-0.6-4c-0.3-1-0.7-1.8-1.3-2.4c-0.6-0.6-1.3-1.2-2.3-1.7c-2.4-1.3-4.8-1.9-7.4-1.9
				h-3.8v-3h46.4v3h-3.8c-1.9,0-3.6,0.2-5.1,0.5c-1.5,0.3-2.7,1-3.6,2.1s-1.7,2.7-2.2,4.9c-0.5,2.2-0.8,5.1-0.8,8.8v69.9
				c0,2.5,0,4.6,0.1,6.2c0.1,1.6,0.3,2.9,0.6,3.9c0.3,1,0.8,1.8,1.4,2.4s1.4,1.2,2.3,1.7c2.2,1.3,4.6,1.9,7.3,1.9H4598.6z"/>
			<path d="M4697.2,756.6v25.5h-1.8c-0.9-6.8-2.9-11.7-6-14.5c-3.1-2.8-7.8-4.2-13.9-4.2h-15.3v82.8c0,3.7,0.3,6.5,0.8,8.6
				c0.5,2.1,1.3,3.7,2.2,4.7c1,1,2.1,1.7,3.6,2c1.4,0.3,3.1,0.4,5,0.4h3.7v3h-45.9v-3h3.8c1.9,0,3.6-0.2,5-0.5
				c1.4-0.3,2.6-1,3.6-2.1s1.7-2.6,2.2-4.7c0.5-2.1,0.8-4.9,0.8-8.5v-82.8h-13c-3.3,0-6.1,0.3-8.6,0.8c-2.5,0.5-4.7,1.5-6.5,2.9
				c-1.8,1.4-3.3,3.3-4.3,5.7c-1.1,2.4-1.7,5.5-2,9.4h-3v-25.5H4697.2z"/>
			<path d="M4752.9,862v3h-46.4v-3h3.8c1.9,0,3.6-0.1,5.1-0.4c1.5-0.3,2.7-1,3.6-2c1-1.1,1.7-2.7,2.2-4.9c0.5-2.2,0.8-5.1,0.8-8.9
				v-69.9c0-2.5-0.1-4.5-0.2-6.1c-0.1-1.6-0.3-3-0.6-4c-0.3-1-0.7-1.8-1.3-2.4c-0.6-0.6-1.3-1.2-2.3-1.7c-2.4-1.3-4.8-1.9-7.4-1.9
				h-3.8v-3h46.4v3h-3.8c-1.9,0-3.6,0.2-5.1,0.5c-1.5,0.3-2.7,1-3.6,2.1s-1.7,2.7-2.2,4.9c-0.5,2.2-0.8,5.1-0.8,8.8v69.9
				c0,2.5,0,4.6,0.1,6.2c0.1,1.6,0.3,2.9,0.6,3.9c0.3,1,0.8,1.8,1.4,2.4s1.4,1.2,2.3,1.7c2.2,1.3,4.6,1.9,7.3,1.9H4752.9z"/>
			<path d="M4816.7,754.3c6.9,0,13.5,1.4,19.8,4.3c6.3,2.9,11.8,6.8,16.6,11.8c4.8,5,8.6,10.9,11.4,17.7c2.8,6.8,4.2,14.2,4.2,22.1
				c0,8.2-1.4,15.8-4.2,22.8c-2.8,7-6.6,13-11.4,18.2c-4.8,5.1-10.4,9.1-16.9,12c-6.5,2.9-13.4,4.3-20.7,4.3
				c-7.4,0-14.3-1.4-20.7-4.2c-6.4-2.8-12-6.7-16.7-11.7c-4.7-5-8.5-11.1-11.2-18.1c-2.7-7-4.1-14.7-4.1-23.1
				c0-7.8,1.4-15.1,4.1-21.9c2.7-6.8,6.5-12.8,11.3-17.8c4.8-5,10.5-9,17.1-12C4801.8,755.7,4809,754.3,4816.7,754.3z M4815.2,760.1
				c-5.5,0-10.3,1.2-14.6,3.5c-4.3,2.3-7.8,5.7-10.7,10c-2.9,4.3-5.1,9.6-6.6,15.7c-1.5,6.2-2.3,13.1-2.3,20.8
				c0,7.6,0.7,14.6,2.2,20.9c1.5,6.3,3.7,11.8,6.6,16.3c2.9,4.6,6.5,8.1,10.8,10.6c4.3,2.5,9.2,3.8,14.8,3.8c5,0,9.6-1,13.9-2.9
				c4.2-1.9,8-4.9,11.1-8.9c3.2-4,5.7-9.1,7.4-15.4c1.8-6.2,2.7-13.7,2.7-22.3c0-8.2-0.7-15.5-2.2-22c-1.5-6.5-3.7-12-6.7-16.4
				c-3-4.5-6.7-7.9-11.1-10.2C4826.1,761.3,4821,760.1,4815.2,760.1z"/>
			<path d="M4872.9,756.6h29.3l66.3,81.3v-62.4c0-3.7-0.3-6.6-0.8-8.7c-0.5-2.1-1.3-3.7-2.3-4.8c-1-1-2.2-1.7-3.6-2
				c-1.4-0.3-3.1-0.4-4.9-0.4h-3.8v-3h37.8v3h-3.9c-1.9,0-3.6,0.2-5,0.5c-1.4,0.3-2.6,1-3.6,2.1c-1,1.1-1.7,2.7-2.1,4.8
				c-0.5,2.1-0.7,4.9-0.7,8.5v91.3h-2.9l-71.4-87.2v66.7c0,3.7,0.3,6.7,0.8,8.8c0.5,2.1,1.3,3.7,2.2,4.7c1,1,2.1,1.7,3.6,1.9
				c1.4,0.2,3.1,0.4,4.9,0.4h3.8v3h-37.7v-3h3.8c1.9,0,3.6-0.2,5-0.5c1.4-0.3,2.6-1,3.6-2.1c1-1.1,1.7-2.6,2.2-4.7
				c0.5-2.1,0.7-4.9,0.7-8.5v-75.3c-1.6-1.9-2.9-3.4-4-4.5c-1.1-1.1-2.1-2-3-2.7s-2-1.3-3.1-1.8c-1.1-0.5-2.5-1-4.2-1.5
				c-1.6-0.5-3.9-0.7-7-0.7V756.6z"/>
			<path d="M5125.6,756.6v25.5h-1.8c-0.9-6.8-2.9-11.7-6-14.5c-3.1-2.8-7.8-4.2-13.9-4.2h-15.3v82.8c0,3.7,0.3,6.5,0.8,8.6
				c0.5,2.1,1.3,3.7,2.2,4.7c1,1,2.1,1.7,3.6,2c1.4,0.3,3.1,0.4,5,0.4h3.7v3H5058v-3h3.8c1.9,0,3.6-0.2,5-0.5c1.4-0.3,2.6-1,3.6-2.1
				s1.7-2.6,2.2-4.7c0.5-2.1,0.8-4.9,0.8-8.5v-82.8h-13c-3.3,0-6.1,0.3-8.6,0.8c-2.5,0.5-4.7,1.5-6.5,2.9c-1.8,1.4-3.3,3.3-4.3,5.7
				c-1.1,2.4-1.7,5.5-2,9.4h-3v-25.5H5125.6z"/>
			<path d="M5164.5,806.9h50.3v-31c0-2.5,0-4.6-0.1-6.3c-0.1-1.6-0.3-3-0.6-4c-0.3-1-0.8-1.8-1.4-2.4s-1.4-1.2-2.3-1.7
				c-2.2-1.3-4.6-1.9-7.3-1.9h-3.8v-3h46.4v3h-3.8c-1,0-2.1,0.1-3.3,0.4c-1.2,0.2-2.2,0.6-3.2,1.1c-1,0.5-1.9,1.1-2.7,1.8
				c-0.8,0.7-1.4,1.5-1.7,2.5c-0.6,1.7-0.8,5.2-0.8,10.6v69.8c0,2.5,0.1,4.6,0.2,6.2c0.1,1.6,0.3,2.9,0.6,3.9c0.3,1,0.7,1.8,1.3,2.4
				c0.6,0.6,1.3,1.2,2.3,1.7c2.2,1.3,4.7,1.9,7.4,1.9h3.8v3h-46.4v-3h3.8c1.8,0,3.5-0.1,4.9-0.4c1.4-0.3,2.7-1,3.7-2
				c1-1.1,1.8-2.7,2.3-4.9c0.5-2.2,0.8-5.1,0.8-8.9v-33h-50.3v33c0,2.5,0,4.6,0.1,6.2c0.1,1.6,0.3,2.9,0.6,3.9
				c0.3,1,0.8,1.8,1.4,2.4c0.6,0.6,1.4,1.2,2.3,1.7c2.2,1.3,4.6,1.9,7.3,1.9h3.9v3h-46.5v-3h3.9c4.4,0,7.6-1.3,9.7-3.9
				c1.3-1.6,1.9-5.7,1.9-12.3v-69.8c0-2.6,0-4.7-0.1-6.4c-0.1-1.6-0.3-2.9-0.6-3.9c-0.3-1-0.8-1.8-1.3-2.4c-0.6-0.6-1.3-1.2-2.3-1.7
				c-2.2-1.3-4.6-1.9-7.3-1.9h-3.9v-3h46.5v3h-3.9c-1,0-2,0.1-3.2,0.4c-1.2,0.2-2.2,0.6-3.2,1.1c-1,0.5-1.9,1.1-2.7,1.8
				c-0.8,0.7-1.4,1.5-1.7,2.5c-0.6,1.9-1,5.4-1,10.6V806.9z"/>
			<path d="M5283.1,762.6v42.8h23.7c3.5,0,6.3-0.3,8.5-1c2.1-0.6,3.8-1.6,5.1-2.9c1.2-1.3,2.1-2.9,2.6-4.9c0.5-2,0.8-4.3,1-7h3v37.7
				h-3c-0.4-3.1-0.9-5.7-1.4-7.7c-0.5-2.1-1.4-3.7-2.5-4.9c-1.2-1.2-2.8-2.1-4.8-2.6c-2.1-0.5-4.8-0.8-8.3-0.8h-23.7V847
				c0,2.7,0,4.8,0.1,6.4c0.1,1.6,0.4,2.8,1,3.6c0.6,0.8,1.4,1.4,2.6,1.6s2.9,0.4,5.2,0.4h18.3c3.1,0,5.7-0.1,7.9-0.2
				c2.1-0.2,4-0.5,5.5-1c1.5-0.5,2.9-1.1,4.1-2c1.2-0.8,2.5-1.9,3.8-3.2c3.2-3.1,6.6-8.1,10.1-14.9h3.2l-9.4,27.2h-83.4v-3h3.8
				c1,0,2.1-0.1,3.2-0.4c1.1-0.2,2.2-0.6,3.2-1c1-0.4,1.9-1,2.7-1.7c0.8-0.7,1.3-1.5,1.7-2.5c0.6-1.7,1-5.2,1-10.5v-70.3
				c0-6.9-0.7-11.2-2-12.8c-1.9-2.1-5.1-3.2-9.7-3.2h-3.8v-3h83.4v23.7h-1.9c-0.8-3.9-1.6-7-2.6-9.4c-0.9-2.3-2.1-4.1-3.6-5.4
				c-1.5-1.3-3.4-2.1-5.8-2.4c-2.3-0.4-5.3-0.5-9-0.5H5283.1z"/>
			<path d="M5455.4,828.7h-41.9l-7.4,17c-1.7,4.2-2.6,7.3-2.6,9.4c0,0.9,0.1,1.7,0.4,2.4c0.3,0.7,0.9,1.4,1.8,2
				c0.9,0.6,2.2,1.1,3.8,1.5c1.6,0.4,3.8,0.7,6.5,0.9v3h-34.1v-3c2.7-0.4,4.9-1,6.6-1.8c1.7-0.8,3.1-1.9,4.3-3.3
				c1.2-1.4,2.3-3.2,3.3-5.4c1-2.2,2.2-5,3.6-8.2l38.1-89h2.7l37.7,90c1.5,3.7,2.9,6.7,4.2,9c1.3,2.3,2.7,4,4.1,5.3
				c1.4,1.3,2.9,2.1,4.5,2.6c1.6,0.5,3.6,0.8,5.9,0.8v3h-42.8v-3c4.3-0.2,7.2-0.9,8.8-2.1c1.5-1.2,2.3-2.7,2.3-4.5
				c-0.1-2.3-1.2-6-3.2-11.2L5455.4,828.7z M5453.2,822.8l-18.4-43.7l-18.8,43.7H5453.2z"/>
			<path d="M5496.5,756.6h29.3l66.3,81.3v-62.4c0-3.7-0.3-6.6-0.8-8.7c-0.5-2.1-1.3-3.7-2.3-4.8c-1-1-2.2-1.7-3.6-2
				c-1.4-0.3-3.1-0.4-4.9-0.4h-3.8v-3h37.8v3h-3.9c-1.9,0-3.6,0.2-5,0.5c-1.4,0.3-2.6,1-3.6,2.1c-1,1.1-1.7,2.7-2.1,4.8
				c-0.5,2.1-0.7,4.9-0.7,8.5v91.3h-2.9l-71.4-87.2v66.7c0,3.7,0.3,6.7,0.8,8.8c0.5,2.1,1.3,3.7,2.2,4.7c1,1,2.1,1.7,3.6,1.9
				c1.4,0.2,3.1,0.4,4.9,0.4h3.8v3h-37.7v-3h3.8c1.9,0,3.6-0.2,5-0.5c1.4-0.3,2.6-1,3.6-2.1c1-1.1,1.7-2.6,2.2-4.7
				c0.5-2.1,0.7-4.9,0.7-8.5v-75.3c-1.6-1.9-2.9-3.4-4-4.5c-1.1-1.1-2.1-2-3-2.7s-2-1.3-3.1-1.8c-1.1-0.5-2.5-1-4.2-1.5
				c-1.6-0.5-3.9-0.7-7-0.7V756.6z"/>
			<path d="M5717.1,754.3l2.9,34.1h-2.9c-3.3-10-7.9-17.3-13.9-21.7c-6-4.5-13.3-6.7-21.9-6.7c-6.4,0-12,1.3-17,3.8
				c-5,2.5-9.3,6-12.8,10.4c-3.5,4.4-6.2,9.6-8,15.6c-1.8,6-2.7,12.5-2.7,19.5c0,10.2,2,19.7,6.1,28.2c2,4.3,4.3,8,7,11.1
				c2.7,3.1,5.5,5.7,8.6,7.7c3.1,2,6.3,3.5,9.7,4.5c3.4,1,6.8,1.4,10.2,1.4c7.9,0,15.4-2,22.4-6v-31.3c0-2.7-0.1-4.9-0.3-6.6
				c-0.2-1.7-0.5-3.1-1-4.1c-0.4-1-1-1.7-1.6-2.3c-0.6-0.5-1.4-1-2.3-1.5c-1.7-0.9-4.8-1.3-9.1-1.3v-3.1h41.9v3.1h-2
				c-1.8,0-3.4,0.2-4.6,0.6c-1.3,0.4-2.3,1.2-3.2,2.3c-0.8,1.1-1.4,2.7-1.8,4.8c-0.4,2.1-0.5,4.8-0.5,8.1v33.1
				c-3.1,1.7-6.1,3.1-9.1,4.3c-3,1.2-6,2.2-9,2.9c-6.2,1.6-12.8,2.4-19.9,2.4c-9.1,0-17.3-1.4-24.6-4.2c-7.3-2.8-13.6-6.6-18.9-11.6
				c-5.2-4.9-9.3-10.7-12.2-17.4c-2.9-6.7-4.3-13.9-4.3-21.8c0-9.5,2.3-18.6,6.9-27.4c5.3-10.3,12.8-18.3,22.3-24
				c7.9-4.6,17.3-6.9,28.1-6.9c2.1,0,4.1,0.1,5.7,0.2c1.7,0.1,3.4,0.4,5.2,0.7c1.8,0.4,3.7,0.9,5.8,1.5c2.1,0.7,4.7,1.6,7.7,2.7
				c3,1.2,5,1.7,6.1,1.7c1,0,1.8-0.5,2.5-1.4c0.7-0.9,1.2-2.7,1.3-5.4H5717.1z"/>
			<path d="M5828.6,835l2.6,0.5L5822,865h-83.9v-3h4.2c4.4,0,7.7-1.5,9.8-4.4c1.1-1.7,1.7-5.7,1.7-11.8v-69.9
				c0-6.7-0.8-10.9-2.3-12.6c-2.1-2.4-5.1-3.6-9.2-3.6h-4.2v-3h49.1v3c-2.9,0-5.4,0.1-7.3,0.4c-1.9,0.3-3.6,0.7-4.8,1.2
				c-1.3,0.5-2.3,1.1-3,1.8s-1.3,1.5-1.8,2.4c-0.8,1.6-1.2,5.7-1.2,12.3v68c0,3.7,0.3,6.4,0.8,8.1c0.6,1.7,1.7,2.8,3.3,3.5
				c1.4,0.5,5.6,0.7,12.5,0.7h7.9c8.3,0,14.2-0.6,17.5-1.8c1.7-0.6,3.3-1.4,4.8-2.4c1.5-1,3-2.4,4.4-4.1c1.4-1.7,2.8-3.7,4.2-6.1
				C5825.8,841.4,5827.2,838.5,5828.6,835z"/>
			<path d="M5868.9,762.6v42.8h23.7c3.5,0,6.3-0.3,8.5-1c2.1-0.6,3.8-1.6,5.1-2.9c1.2-1.3,2.1-2.9,2.6-4.9c0.5-2,0.8-4.3,1-7h3v37.7
				h-3c-0.4-3.1-0.9-5.7-1.4-7.7c-0.5-2.1-1.4-3.7-2.5-4.9c-1.2-1.2-2.8-2.1-4.8-2.6c-2.1-0.5-4.8-0.8-8.3-0.8h-23.7V847
				c0,2.7,0,4.8,0.1,6.4c0.1,1.6,0.4,2.8,1,3.6c0.6,0.8,1.4,1.4,2.6,1.6s2.9,0.4,5.2,0.4h18.3c3.1,0,5.7-0.1,7.9-0.2
				c2.1-0.2,4-0.5,5.5-1c1.5-0.5,2.9-1.1,4.1-2c1.2-0.8,2.5-1.9,3.8-3.2c3.2-3.1,6.6-8.1,10.1-14.9h3.2l-9.4,27.2h-83.4v-3h3.8
				c1,0,2.1-0.1,3.2-0.4c1.1-0.2,2.2-0.6,3.2-1c1-0.4,1.9-1,2.7-1.7c0.8-0.7,1.3-1.5,1.7-2.5c0.6-1.7,1-5.2,1-10.5v-70.3
				c0-6.9-0.7-11.2-2-12.8c-1.9-2.1-5.1-3.2-9.7-3.2h-3.8v-3h83.4v23.7h-1.9c-0.8-3.9-1.6-7-2.6-9.4c-0.9-2.3-2.1-4.1-3.6-5.4
				c-1.5-1.3-3.4-2.1-5.8-2.4c-2.3-0.4-5.3-0.5-9-0.5H5868.9z"/>
		</g>
	</g>
	<g>
		<g>
			<path d="M4516.1,905.1c6.9,0,13.5,1.4,19.8,4.3c6.3,2.9,11.8,6.8,16.6,11.8c4.8,5,8.6,10.9,11.4,17.7c2.8,6.8,4.2,14.2,4.2,22.1
				c0,8.2-1.4,15.8-4.2,22.8c-2.8,7-6.6,13-11.4,18.2c-4.8,5.1-10.4,9.1-16.9,12c-6.5,2.9-13.4,4.3-20.7,4.3
				c-7.4,0-14.3-1.4-20.7-4.2c-6.4-2.8-12-6.7-16.7-11.7c-4.7-5-8.5-11.1-11.2-18.1c-2.7-7-4.1-14.7-4.1-23.1
				c0-7.8,1.4-15.1,4.1-21.9c2.7-6.8,6.5-12.8,11.3-17.8c4.8-5,10.5-9,17.1-12C4501.1,906.6,4508.3,905.1,4516.1,905.1z M4514.6,911
				c-5.5,0-10.3,1.2-14.6,3.5c-4.3,2.3-7.8,5.7-10.7,10c-2.9,4.3-5.1,9.6-6.6,15.7c-1.5,6.2-2.3,13.1-2.3,20.8
				c0,7.6,0.7,14.6,2.2,20.9c1.5,6.3,3.7,11.8,6.6,16.3c2.9,4.6,6.5,8.1,10.8,10.6c4.3,2.5,9.2,3.8,14.8,3.8c5,0,9.6-1,13.9-2.9
				c4.2-1.9,8-4.9,11.1-8.9c3.2-4,5.7-9.1,7.4-15.4c1.8-6.2,2.7-13.7,2.7-22.3c0-8.2-0.7-15.5-2.2-22c-1.5-6.5-3.7-12-6.7-16.4
				c-3-4.5-6.7-7.9-11.1-10.2C4525.5,912.1,4520.4,911,4514.6,911z"/>
			<path d="M4607.9,913.5V956h19.7c2.3,0,4.3-0.2,5.9-0.7c1.6-0.4,3-1.2,4.1-2.3c1.1-1.1,2-2.6,2.6-4.5c0.6-1.9,1.2-4.3,1.5-7.3h3
				v36.6h-3c-0.1-2.7-0.4-5-0.8-6.9s-1.3-3.5-2.3-4.7c-1.1-1.2-2.5-2.1-4.3-2.7c-1.8-0.6-4-0.8-6.7-0.8h-19.7v34
				c0,2.5,0,4.6,0.1,6.2c0.1,1.6,0.3,2.9,0.6,3.9c0.3,1,0.8,1.8,1.4,2.4c0.6,0.6,1.4,1.2,2.3,1.7c2.2,1.3,4.6,1.9,7.3,1.9h3.9v3
				H4577v-3h3.8c1.9,0,3.6-0.1,5.1-0.4c1.5-0.3,2.7-1,3.6-2s1.7-2.7,2.2-4.9c0.5-2.2,0.8-5.1,0.8-8.9v-69.9c0-2.5-0.1-4.5-0.2-6.1
				c-0.1-1.6-0.3-3-0.6-4c-0.3-1-0.7-1.9-1.3-2.5c-0.6-0.6-1.3-1.2-2.3-1.7c-1.2-0.6-2.4-1.1-3.6-1.4c-1.2-0.3-2.5-0.5-3.8-0.5h-3.8
				v-3h80.6v23.8h-1.8c-1-3.9-2.2-7-3.5-9.4c-1.3-2.3-2.9-4.2-4.8-5.4c-1.9-1.3-4.1-2.1-6.6-2.5c-2.5-0.4-5.6-0.6-9.2-0.6H4607.9z"
				/>
			<path d="M4797.8,907.5V933h-1.8c-0.9-6.8-2.9-11.7-6-14.5c-3.1-2.8-7.8-4.2-13.9-4.2h-15.3v82.8c0,3.7,0.3,6.5,0.8,8.6
				c0.5,2.1,1.3,3.7,2.2,4.7c1,1,2.1,1.7,3.6,2c1.4,0.3,3.1,0.4,5,0.4h3.7v3h-45.9v-3h3.8c1.9,0,3.6-0.2,5-0.5
				c1.4-0.3,2.6-1,3.6-2.1s1.7-2.6,2.2-4.7c0.5-2.1,0.8-4.9,0.8-8.5v-82.8h-13c-3.3,0-6.1,0.3-8.6,0.8c-2.5,0.5-4.7,1.5-6.5,2.9
				c-1.8,1.4-3.3,3.3-4.3,5.7c-1.1,2.4-1.7,5.5-2,9.4h-3v-25.5H4797.8z"/>
			<path d="M4836.6,957.8h50.3v-31c0-2.5,0-4.6-0.1-6.3c-0.1-1.6-0.3-3-0.6-4c-0.3-1-0.8-1.8-1.4-2.4s-1.4-1.2-2.3-1.7
				c-2.2-1.3-4.6-1.9-7.3-1.9h-3.8v-3h46.4v3h-3.8c-1,0-2.1,0.1-3.3,0.4c-1.2,0.2-2.2,0.6-3.2,1.1c-1,0.5-1.9,1.1-2.7,1.8
				c-0.8,0.7-1.4,1.5-1.7,2.5c-0.6,1.7-0.8,5.2-0.8,10.6v69.8c0,2.5,0.1,4.6,0.2,6.2c0.1,1.6,0.3,2.9,0.6,3.9c0.3,1,0.7,1.8,1.3,2.4
				c0.6,0.6,1.3,1.2,2.3,1.7c2.2,1.3,4.7,1.9,7.4,1.9h3.8v3h-46.4v-3h3.8c1.8,0,3.5-0.1,4.9-0.4c1.4-0.3,2.7-1,3.7-2
				c1-1.1,1.8-2.7,2.3-4.9c0.5-2.2,0.8-5.1,0.8-8.9v-33h-50.3v33c0,2.5,0,4.6,0.1,6.2c0.1,1.6,0.3,2.9,0.6,3.9
				c0.3,1,0.8,1.8,1.4,2.4c0.6,0.6,1.4,1.2,2.3,1.7c2.2,1.3,4.6,1.9,7.3,1.9h3.9v3h-46.5v-3h3.9c4.4,0,7.6-1.3,9.7-3.9
				c1.3-1.6,1.9-5.7,1.9-12.3v-69.8c0-2.6,0-4.7-0.1-6.4c-0.1-1.6-0.3-2.9-0.6-3.9c-0.3-1-0.8-1.8-1.3-2.4c-0.6-0.6-1.3-1.2-2.3-1.7
				c-2.2-1.3-4.6-1.9-7.3-1.9h-3.9v-3h46.5v3h-3.9c-1,0-2,0.1-3.2,0.4c-1.2,0.2-2.2,0.6-3.2,1.1c-1,0.5-1.9,1.1-2.7,1.8
				c-0.8,0.7-1.4,1.5-1.7,2.5c-0.6,1.9-1,5.4-1,10.6V957.8z"/>
			<path d="M4955.3,913.5v42.8h23.7c3.5,0,6.3-0.3,8.5-1c2.1-0.6,3.8-1.6,5.1-2.9c1.2-1.3,2.1-2.9,2.6-4.9c0.5-2,0.8-4.3,1-7h3v37.7
				h-3c-0.4-3.1-0.9-5.7-1.4-7.7c-0.5-2.1-1.4-3.7-2.5-4.9c-1.2-1.2-2.8-2.1-4.8-2.6c-2.1-0.5-4.8-0.8-8.3-0.8h-23.7v35.7
				c0,2.7,0,4.8,0.1,6.4c0.1,1.6,0.4,2.8,1,3.6c0.6,0.8,1.4,1.4,2.6,1.6s2.9,0.4,5.2,0.4h18.3c3.1,0,5.7-0.1,7.9-0.2
				c2.1-0.2,4-0.5,5.5-1c1.5-0.5,2.9-1.1,4.1-2c1.2-0.8,2.5-1.9,3.8-3.2c3.2-3.1,6.6-8.1,10.1-14.9h3.2l-9.4,27.2h-83.4v-3h3.8
				c1,0,2.1-0.1,3.2-0.4c1.1-0.2,2.2-0.6,3.2-1c1-0.4,1.9-1,2.7-1.7c0.8-0.7,1.3-1.5,1.7-2.5c0.6-1.7,1-5.2,1-10.5v-70.3
				c0-6.9-0.7-11.2-2-12.8c-1.9-2.1-5.1-3.2-9.7-3.2h-3.8v-3h83.4v23.7h-1.9c-0.8-3.9-1.6-7-2.6-9.4c-0.9-2.3-2.1-4.1-3.6-5.4
				c-1.5-1.3-3.4-2.1-5.8-2.4c-2.3-0.4-5.3-0.5-9-0.5H4955.3z"/>
			<path d="M5211.9,907.5v3c-2.1,0-3.9,0.2-5.3,0.6c-1.4,0.4-2.7,1.3-3.9,2.7c-1.2,1.4-2.4,3.5-3.6,6.2c-1.2,2.7-2.6,6.4-4.2,11
				l-30.1,87.3h-3.2l-24.7-69.2l-24.4,69.2h-3l-32.2-90c-1.2-3.3-2.1-6-2.9-7.9c-0.7-1.9-1.3-3.2-1.7-3.9c-1.1-2.1-2.6-3.6-4.3-4.6
				c-1.8-1-4.3-1.5-7.4-1.5v-3h40v3h-1.9c-2.8,0-4.9,0.6-6.4,1.9c-1.5,1.3-2.3,2.8-2.3,4.6c0,1.9,1.2,6.2,3.6,12.9l21.3,60.8
				l17.9-51.7l-5.7-16.3c-0.9-2-1.7-3.7-2.6-5.2c-0.9-1.5-1.9-2.8-3-3.8c-1.1-1-2.4-1.8-3.9-2.3c-1.5-0.5-3.3-0.8-5.5-0.8v-3h42.1v3
				h-2.9c-3,0-5.2,0.6-6.6,1.9c-1.4,1.3-2,3-2,5.2c0,2.7,1.2,7.4,3.6,14.2l20.7,58.9L5188,931c1.1-3.3,2-6.1,2.6-8.3
				c0.6-2.2,1-4,1-5.4c0-2.5-1.1-4.3-3.3-5.3c-2.2-1-5.1-1.5-8.7-1.5v-3H5211.9z"/>
			<path d="M5269.9,979.6H5228l-7.4,17c-1.7,4.2-2.6,7.3-2.6,9.4c0,0.9,0.1,1.7,0.4,2.4c0.3,0.7,0.9,1.4,1.8,2
				c0.9,0.6,2.2,1.1,3.8,1.5c1.6,0.4,3.8,0.7,6.5,0.9v3h-34.1v-3c2.7-0.4,4.9-1,6.6-1.8c1.7-0.8,3.1-1.9,4.3-3.3
				c1.2-1.4,2.3-3.2,3.3-5.4c1-2.2,2.2-5,3.6-8.2l38.1-89h2.7l37.7,90c1.5,3.7,2.9,6.7,4.2,9c1.3,2.3,2.7,4,4.1,5.3
				c1.4,1.3,2.9,2.1,4.5,2.6c1.6,0.5,3.6,0.8,5.9,0.8v3h-42.8v-3c4.3-0.2,7.2-0.9,8.8-2.1c1.5-1.2,2.3-2.7,2.3-4.5
				c-0.1-2.3-1.2-6-3.2-11.2L5269.9,979.6z M5267.6,973.6l-18.4-43.7l-18.8,43.7H5267.6z"/>
			<path d="M5406.9,985.9l2.6,0.5l-9.3,29.4h-83.9v-3h4.2c4.4,0,7.7-1.5,9.8-4.4c1.1-1.7,1.7-5.7,1.7-11.8v-69.9
				c0-6.7-0.8-10.9-2.3-12.6c-2.1-2.4-5.1-3.6-9.2-3.6h-4.2v-3h49.1v3c-2.9,0-5.4,0.1-7.3,0.4c-1.9,0.3-3.6,0.7-4.8,1.2
				c-1.3,0.5-2.3,1.1-3,1.8s-1.3,1.5-1.8,2.4c-0.8,1.6-1.2,5.7-1.2,12.3v68c0,3.7,0.3,6.4,0.8,8.1c0.6,1.7,1.7,2.8,3.3,3.5
				c1.4,0.5,5.6,0.7,12.5,0.7h7.9c8.3,0,14.2-0.6,17.5-1.8c1.7-0.6,3.3-1.4,4.8-2.4c1.5-1,3-2.4,4.4-4.1c1.4-1.7,2.8-3.7,4.2-6.1
				C5404.1,992.2,5405.5,989.3,5406.9,985.9z"/>
			<path d="M5506.8,985.9l2.6,0.5l-9.3,29.4h-83.9v-3h4.2c4.4,0,7.7-1.5,9.8-4.4c1.1-1.7,1.7-5.7,1.7-11.8v-69.9
				c0-6.7-0.8-10.9-2.3-12.6c-2.1-2.4-5.1-3.6-9.2-3.6h-4.2v-3h49.1v3c-2.9,0-5.4,0.1-7.3,0.4c-1.9,0.3-3.6,0.7-4.8,1.2
				c-1.3,0.5-2.3,1.1-3,1.8s-1.3,1.5-1.8,2.4c-0.8,1.6-1.2,5.7-1.2,12.3v68c0,3.7,0.3,6.4,0.8,8.1c0.6,1.7,1.7,2.8,3.3,3.5
				c1.4,0.5,5.6,0.7,12.5,0.7h7.9c8.3,0,14.2-0.6,17.5-1.8c1.7-0.6,3.3-1.4,4.8-2.4c1.5-1,3-2.4,4.4-4.1c1.4-1.7,2.8-3.7,4.2-6.1
				C5504,992.2,5505.4,989.3,5506.8,985.9z"/>
		</g>
	</g>
	<g>
		<g>
			<path d="M4435.1,1054.5v3c-2.1,0-3.9,0.2-5.3,0.6c-1.4,0.4-2.7,1.3-3.9,2.7c-1.2,1.4-2.4,3.5-3.6,6.2c-1.2,2.7-2.6,6.4-4.2,11
				l-30.1,87.3h-3.2l-24.7-69.2l-24.4,69.2h-3l-32.2-90c-1.2-3.3-2.1-6-2.9-7.9c-0.7-1.9-1.3-3.2-1.7-3.9c-1.1-2.1-2.6-3.6-4.3-4.6
				c-1.8-1-4.3-1.5-7.4-1.5v-3h40v3h-1.9c-2.8,0-4.9,0.6-6.4,1.9c-1.5,1.3-2.3,2.8-2.3,4.6c0,1.9,1.2,6.2,3.6,12.9l21.3,60.8
				l17.9-51.7l-5.7-16.3c-0.9-2-1.7-3.7-2.6-5.2c-0.9-1.5-1.9-2.8-3-3.8c-1.1-1-2.4-1.8-3.9-2.3c-1.5-0.5-3.3-0.8-5.5-0.8v-3h42.1v3
				h-2.9c-3,0-5.2,0.6-6.6,1.9c-1.4,1.3-2,3-2,5.2c0,2.7,1.2,7.4,3.6,14.2l20.7,58.9l20.6-59.7c1.1-3.3,2-6.1,2.6-8.3
				c0.6-2.2,1-4,1-5.4c0-2.5-1.1-4.3-3.3-5.3c-2.2-1-5.1-1.5-8.7-1.5v-3H4435.1z"/>
			<path d="M4486.8,1159.8v3h-46.4v-3h3.8c1.9,0,3.6-0.1,5.1-0.4c1.5-0.3,2.7-1,3.6-2c1-1.1,1.7-2.7,2.2-4.9
				c0.5-2.2,0.8-5.1,0.8-8.9v-69.9c0-2.5-0.1-4.5-0.2-6.1c-0.1-1.6-0.3-3-0.6-4c-0.3-1-0.7-1.8-1.3-2.4c-0.6-0.6-1.3-1.2-2.3-1.7
				c-2.4-1.3-4.8-1.9-7.4-1.9h-3.8v-3h46.4v3h-3.8c-1.9,0-3.6,0.2-5.1,0.5c-1.5,0.3-2.7,1-3.6,2.1s-1.7,2.7-2.2,4.9
				c-0.5,2.2-0.8,5.1-0.8,8.8v69.9c0,2.5,0,4.6,0.1,6.2c0.1,1.6,0.3,2.9,0.6,3.9c0.3,1,0.8,1.8,1.4,2.4s1.4,1.2,2.3,1.7
				c2.2,1.3,4.6,1.9,7.3,1.9H4486.8z"/>
			<path d="M4585.5,1054.5v25.5h-1.8c-0.9-6.8-2.9-11.7-6-14.5c-3.1-2.8-7.8-4.2-13.9-4.2h-15.3v82.8c0,3.7,0.3,6.5,0.8,8.6
				c0.5,2.1,1.3,3.7,2.2,4.7c1,1,2.1,1.7,3.6,2c1.4,0.3,3.1,0.4,5,0.4h3.7v3h-45.9v-3h3.8c1.9,0,3.6-0.2,5-0.5
				c1.4-0.3,2.6-1,3.6-2.1s1.7-2.6,2.2-4.7c0.5-2.1,0.8-4.9,0.8-8.5v-82.8h-13c-3.3,0-6.1,0.3-8.6,0.8c-2.5,0.5-4.7,1.5-6.5,2.9
				c-1.8,1.4-3.3,3.3-4.3,5.7c-1.1,2.4-1.7,5.5-2,9.4h-3v-25.5H4585.5z"/>
			<path d="M4624.3,1104.8h50.3v-31c0-2.5,0-4.6-0.1-6.3c-0.1-1.6-0.3-3-0.6-4c-0.3-1-0.8-1.8-1.4-2.4s-1.4-1.2-2.3-1.7
				c-2.2-1.3-4.6-1.9-7.3-1.9h-3.8v-3h46.4v3h-3.8c-1,0-2.1,0.1-3.3,0.4c-1.2,0.2-2.2,0.6-3.2,1.1c-1,0.5-1.9,1.1-2.7,1.8
				c-0.8,0.7-1.4,1.5-1.7,2.5c-0.6,1.7-0.8,5.2-0.8,10.6v69.8c0,2.5,0.1,4.6,0.2,6.2c0.1,1.6,0.3,2.9,0.6,3.9c0.3,1,0.7,1.8,1.3,2.4
				c0.6,0.6,1.3,1.2,2.3,1.7c2.2,1.3,4.7,1.9,7.4,1.9h3.8v3h-46.4v-3h3.8c1.8,0,3.5-0.1,4.9-0.4c1.4-0.3,2.7-1,3.7-2
				c1-1.1,1.8-2.7,2.3-4.9c0.5-2.2,0.8-5.1,0.8-8.9v-33h-50.3v33c0,2.5,0,4.6,0.1,6.2c0.1,1.6,0.3,2.9,0.6,3.9
				c0.3,1,0.8,1.8,1.4,2.4c0.6,0.6,1.4,1.2,2.3,1.7c2.2,1.3,4.6,1.9,7.3,1.9h3.9v3h-46.5v-3h3.9c4.4,0,7.6-1.3,9.7-3.9
				c1.3-1.6,1.9-5.7,1.9-12.3v-69.8c0-2.6,0-4.7-0.1-6.4c-0.1-1.6-0.3-2.9-0.6-3.9c-0.3-1-0.8-1.8-1.3-2.4c-0.6-0.6-1.3-1.2-2.3-1.7
				c-2.2-1.3-4.6-1.9-7.3-1.9h-3.9v-3h46.5v3h-3.9c-1,0-2,0.1-3.2,0.4c-1.2,0.2-2.2,0.6-3.2,1.1c-1,0.5-1.9,1.1-2.7,1.8
				c-0.8,0.7-1.4,1.5-1.7,2.5c-0.6,1.9-1,5.4-1,10.6V1104.8z"/>
			<path d="M4841.3,1054.5v25.5h-1.8c-0.9-6.8-2.9-11.7-6-14.5c-3.1-2.8-7.8-4.2-13.9-4.2h-15.3v82.8c0,3.7,0.3,6.5,0.8,8.6
				c0.5,2.1,1.3,3.7,2.2,4.7c1,1,2.1,1.7,3.6,2c1.4,0.3,3.1,0.4,5,0.4h3.7v3h-45.9v-3h3.8c1.9,0,3.6-0.2,5-0.5
				c1.4-0.3,2.6-1,3.6-2.1s1.7-2.6,2.2-4.7c0.5-2.1,0.8-4.9,0.8-8.5v-82.8h-13c-3.3,0-6.1,0.3-8.6,0.8c-2.5,0.5-4.7,1.5-6.5,2.9
				c-1.8,1.4-3.3,3.3-4.3,5.7c-1.1,2.4-1.7,5.5-2,9.4h-3v-25.5H4841.3z"/>
			<path d="M4880.1,1104.8h50.3v-31c0-2.5,0-4.6-0.1-6.3c-0.1-1.6-0.3-3-0.6-4c-0.3-1-0.8-1.8-1.4-2.4s-1.4-1.2-2.3-1.7
				c-2.2-1.3-4.6-1.9-7.3-1.9h-3.8v-3h46.4v3h-3.8c-1,0-2.1,0.1-3.3,0.4c-1.2,0.2-2.2,0.6-3.2,1.1c-1,0.5-1.9,1.1-2.7,1.8
				c-0.8,0.7-1.4,1.5-1.7,2.5c-0.6,1.7-0.8,5.2-0.8,10.6v69.8c0,2.5,0.1,4.6,0.2,6.2c0.1,1.6,0.3,2.9,0.6,3.9c0.3,1,0.7,1.8,1.3,2.4
				c0.6,0.6,1.3,1.2,2.3,1.7c2.2,1.3,4.7,1.9,7.4,1.9h3.8v3h-46.4v-3h3.8c1.8,0,3.5-0.1,4.9-0.4c1.4-0.3,2.7-1,3.7-2
				c1-1.1,1.8-2.7,2.3-4.9c0.5-2.2,0.8-5.1,0.8-8.9v-33h-50.3v33c0,2.5,0,4.6,0.1,6.2c0.1,1.6,0.3,2.9,0.6,3.9
				c0.3,1,0.8,1.8,1.4,2.4c0.6,0.6,1.4,1.2,2.3,1.7c2.2,1.3,4.6,1.9,7.3,1.9h3.9v3h-46.5v-3h3.9c4.4,0,7.6-1.3,9.7-3.9
				c1.3-1.6,1.9-5.7,1.9-12.3v-69.8c0-2.6,0-4.7-0.1-6.4c-0.1-1.6-0.3-2.9-0.6-3.9c-0.3-1-0.8-1.8-1.3-2.4c-0.6-0.6-1.3-1.2-2.3-1.7
				c-2.2-1.3-4.6-1.9-7.3-1.9h-3.9v-3h46.5v3h-3.9c-1,0-2,0.1-3.2,0.4c-1.2,0.2-2.2,0.6-3.2,1.1c-1,0.5-1.9,1.1-2.7,1.8
				c-0.8,0.7-1.4,1.5-1.7,2.5c-0.6,1.9-1,5.4-1,10.6V1104.8z"/>
			<path d="M4998.8,1060.5v42.8h23.7c3.5,0,6.3-0.3,8.5-1c2.1-0.6,3.8-1.6,5.1-2.9c1.2-1.3,2.1-2.9,2.6-4.9c0.5-2,0.8-4.3,1-7h3
				v37.7h-3c-0.4-3.1-0.9-5.7-1.4-7.7c-0.5-2.1-1.4-3.7-2.5-4.9c-1.2-1.2-2.8-2.1-4.8-2.6c-2.1-0.5-4.8-0.8-8.3-0.8h-23.7v35.7
				c0,2.7,0,4.8,0.1,6.4c0.1,1.6,0.4,2.8,1,3.6c0.6,0.8,1.4,1.4,2.6,1.6s2.9,0.4,5.2,0.4h18.3c3.1,0,5.7-0.1,7.9-0.2
				c2.1-0.2,4-0.5,5.5-1c1.5-0.5,2.9-1.1,4.1-2c1.2-0.8,2.5-1.9,3.8-3.2c3.2-3.1,6.6-8.1,10.1-14.9h3.2l-9.4,27.2H4968v-3h3.8
				c1,0,2.1-0.1,3.2-0.4c1.1-0.2,2.2-0.6,3.2-1c1-0.4,1.9-1,2.7-1.7c0.8-0.7,1.3-1.5,1.7-2.5c0.6-1.7,1-5.2,1-10.5v-70.3
				c0-6.9-0.7-11.2-2-12.8c-1.9-2.1-5.1-3.2-9.7-3.2h-3.8v-3h83.4v23.7h-1.9c-0.8-3.9-1.6-7-2.6-9.4c-0.9-2.3-2.1-4.1-3.6-5.4
				c-1.5-1.3-3.4-2.1-5.8-2.4c-2.3-0.4-5.3-0.5-9-0.5H4998.8z"/>
			<path d="M5171.1,1126.6h-41.9l-7.4,17c-1.7,4.2-2.6,7.3-2.6,9.4c0,0.9,0.1,1.7,0.4,2.4c0.3,0.7,0.9,1.4,1.8,2
				c0.9,0.6,2.2,1.1,3.8,1.5c1.6,0.4,3.8,0.7,6.5,0.9v3h-34.1v-3c2.7-0.4,4.9-1,6.6-1.8c1.7-0.8,3.1-1.9,4.3-3.3
				c1.2-1.4,2.3-3.2,3.3-5.4c1-2.2,2.2-5,3.6-8.2l38.1-89h2.7l37.7,90c1.5,3.7,2.9,6.7,4.2,9c1.3,2.3,2.7,4,4.1,5.3
				c1.4,1.3,2.9,2.1,4.5,2.6c1.6,0.5,3.6,0.8,5.9,0.8v3h-42.8v-3c4.3-0.2,7.2-0.9,8.8-2.1c1.5-1.2,2.3-2.7,2.3-4.5
				c-0.1-2.3-1.2-6-3.2-11.2L5171.1,1126.6z M5168.9,1120.6l-18.4-43.7l-18.8,43.7H5168.9z"/>
			<path d="M5212.2,1054.5h29.3l66.3,81.3v-62.4c0-3.7-0.3-6.6-0.8-8.7c-0.5-2.1-1.3-3.7-2.3-4.8c-1-1-2.2-1.7-3.6-2
				c-1.4-0.3-3.1-0.4-4.9-0.4h-3.8v-3h37.8v3h-3.9c-1.9,0-3.6,0.2-5,0.5c-1.4,0.3-2.6,1-3.6,2.1c-1,1.1-1.7,2.7-2.1,4.8
				c-0.5,2.1-0.7,4.9-0.7,8.5v91.3h-2.9l-71.4-87.2v66.7c0,3.7,0.3,6.7,0.8,8.8c0.5,2.1,1.3,3.7,2.2,4.7c1,1,2.1,1.7,3.6,1.9
				c1.4,0.2,3.1,0.4,4.9,0.4h3.8v3h-37.7v-3h3.8c1.9,0,3.6-0.2,5-0.5c1.4-0.3,2.6-1,3.6-2.1c1-1.1,1.7-2.6,2.2-4.7
				c0.5-2.1,0.7-4.9,0.7-8.5v-75.3c-1.6-1.9-2.9-3.4-4-4.5c-1.1-1.1-2.1-2-3-2.7s-2-1.3-3.1-1.8c-1.1-0.5-2.5-1-4.2-1.5
				c-1.6-0.5-3.9-0.7-7-0.7V1054.5z"/>
			<path d="M5432.8,1052.1l2.9,34.1h-2.9c-3.3-10-7.9-17.3-13.9-21.7c-6-4.5-13.3-6.7-21.9-6.7c-6.4,0-12,1.3-17,3.8
				c-5,2.5-9.3,6-12.8,10.4c-3.5,4.4-6.2,9.6-8,15.6c-1.8,6-2.7,12.5-2.7,19.5c0,10.2,2,19.7,6.1,28.2c2,4.3,4.3,8,7,11.1
				c2.7,3.1,5.5,5.7,8.6,7.7c3.1,2,6.3,3.5,9.7,4.5c3.4,1,6.8,1.4,10.2,1.4c7.9,0,15.4-2,22.4-6v-31.3c0-2.7-0.1-4.9-0.3-6.6
				c-0.2-1.7-0.5-3.1-1-4.1c-0.4-1-1-1.7-1.6-2.3c-0.6-0.5-1.4-1-2.3-1.5c-1.7-0.9-4.8-1.3-9.1-1.3v-3.1h41.9v3.1h-2
				c-1.8,0-3.4,0.2-4.6,0.6c-1.3,0.4-2.3,1.2-3.2,2.3c-0.8,1.1-1.4,2.7-1.8,4.8c-0.4,2.1-0.5,4.8-0.5,8.1v33.1
				c-3.1,1.7-6.1,3.1-9.1,4.3c-3,1.2-6,2.2-9,2.9c-6.2,1.6-12.8,2.4-19.9,2.4c-9.1,0-17.3-1.4-24.6-4.2c-7.3-2.8-13.6-6.6-18.9-11.6
				c-5.2-4.9-9.3-10.7-12.2-17.4c-2.9-6.7-4.3-13.9-4.3-21.8c0-9.5,2.3-18.6,6.9-27.4c5.3-10.3,12.8-18.3,22.3-24
				c7.9-4.6,17.3-6.9,28.1-6.9c2.1,0,4.1,0.1,5.7,0.2c1.7,0.1,3.4,0.4,5.2,0.7c1.8,0.4,3.7,0.9,5.8,1.5c2.1,0.7,4.7,1.6,7.7,2.7
				c3,1.2,5,1.7,6.1,1.7c1,0,1.8-0.5,2.5-1.4c0.7-0.9,1.2-2.7,1.3-5.4H5432.8z"/>
			<path d="M5544.3,1132.9l2.6,0.5l-9.3,29.4h-83.9v-3h4.2c4.4,0,7.7-1.5,9.8-4.4c1.1-1.7,1.7-5.7,1.7-11.8v-69.9
				c0-6.7-0.8-10.9-2.3-12.6c-2.1-2.4-5.1-3.6-9.2-3.6h-4.2v-3h49.1v3c-2.9,0-5.4,0.1-7.3,0.4c-1.9,0.3-3.6,0.7-4.8,1.2
				c-1.3,0.5-2.3,1.1-3,1.8s-1.3,1.5-1.8,2.4c-0.8,1.6-1.2,5.7-1.2,12.3v68c0,3.7,0.3,6.4,0.8,8.1c0.6,1.7,1.7,2.8,3.3,3.5
				c1.4,0.5,5.6,0.7,12.5,0.7h7.9c8.3,0,14.2-0.6,17.5-1.8c1.7-0.6,3.3-1.4,4.8-2.4c1.5-1,3-2.4,4.4-4.1c1.4-1.7,2.8-3.7,4.2-6.1
				C5541.5,1139.2,5542.9,1136.3,5544.3,1132.9z"/>
			<path d="M5584.6,1060.5v42.8h23.7c3.5,0,6.3-0.3,8.5-1c2.1-0.6,3.8-1.6,5.1-2.9c1.2-1.3,2.1-2.9,2.6-4.9c0.5-2,0.8-4.3,1-7h3
				v37.7h-3c-0.4-3.1-0.9-5.7-1.4-7.7c-0.5-2.1-1.4-3.7-2.5-4.9c-1.2-1.2-2.8-2.1-4.8-2.6c-2.1-0.5-4.8-0.8-8.3-0.8h-23.7v35.7
				c0,2.7,0,4.8,0.1,6.4c0.1,1.6,0.4,2.8,1,3.6c0.6,0.8,1.4,1.4,2.6,1.6s2.9,0.4,5.2,0.4h18.3c3.1,0,5.7-0.1,7.9-0.2
				c2.1-0.2,4-0.5,5.5-1c1.5-0.5,2.9-1.1,4.1-2c1.2-0.8,2.5-1.9,3.8-3.2c3.2-3.1,6.6-8.1,10.1-14.9h3.2l-9.4,27.2h-83.4v-3h3.8
				c1,0,2.1-0.1,3.2-0.4c1.1-0.2,2.2-0.6,3.2-1c1-0.4,1.9-1,2.7-1.7c0.8-0.7,1.3-1.5,1.7-2.5c0.6-1.7,1-5.2,1-10.5v-70.3
				c0-6.9-0.7-11.2-2-12.8c-1.9-2.1-5.1-3.2-9.7-3.2h-3.8v-3h83.4v23.7h-1.9c-0.8-3.9-1.6-7-2.6-9.4c-0.9-2.3-2.1-4.1-3.6-5.4
				c-1.5-1.3-3.4-2.1-5.8-2.4c-2.3-0.4-5.3-0.5-9-0.5H5584.6z"/>
		</g>
	</g>
	<g>
		<path d="M4256.3,1202.1c6.9,0,13.5,1.4,19.8,4.3c6.3,2.9,11.8,6.8,16.6,11.8s8.6,10.9,11.4,17.7c2.8,6.8,4.2,14.2,4.2,22.1
			c0,8.2-1.4,15.8-4.2,22.8c-2.8,7-6.6,13-11.4,18.2c-4.8,5.1-10.4,9.1-16.9,12c-6.5,2.9-13.4,4.3-20.7,4.3
			c-7.4,0-14.3-1.4-20.7-4.2s-12-6.7-16.7-11.7c-4.7-5-8.5-11.1-11.2-18.1c-2.7-7-4.1-14.7-4.1-23.1c0-7.8,1.4-15.1,4.1-21.9
			c2.7-6.8,6.5-12.8,11.3-17.8c4.8-5,10.5-9,17.1-12C4241.3,1203.6,4248.5,1202.1,4256.3,1202.1z M4254.7,1208
			c-5.5,0-10.3,1.2-14.6,3.5c-4.3,2.3-7.8,5.7-10.7,10c-2.9,4.3-5.1,9.6-6.6,15.7c-1.5,6.2-2.3,13.1-2.3,20.8
			c0,7.6,0.7,14.6,2.2,20.9c1.5,6.3,3.7,11.8,6.6,16.3c2.9,4.6,6.5,8.1,10.8,10.6c4.3,2.5,9.2,3.8,14.8,3.8c5,0,9.6-1,13.9-2.9
			c4.2-1.9,8-4.9,11.1-8.9c3.2-4,5.7-9.1,7.4-15.4c1.8-6.2,2.7-13.7,2.7-22.3c0-8.2-0.7-15.5-2.2-22c-1.5-6.5-3.7-12-6.7-16.4
			c-3-4.5-6.7-7.9-11.1-10.2C4265.6,1209.1,4260.5,1208,4254.7,1208z"/>
		<path d="M4348,1210.5v42.5h19.7c2.3,0,4.3-0.2,5.9-0.7c1.6-0.4,3-1.2,4.1-2.3c1.1-1.1,2-2.6,2.6-4.5c0.6-1.9,1.2-4.3,1.5-7.3h3
			v36.6h-3c-0.1-2.7-0.4-5-0.8-6.9s-1.3-3.5-2.3-4.7c-1.1-1.2-2.5-2.1-4.3-2.7c-1.8-0.6-4-0.8-6.7-0.8H4348v34c0,2.5,0,4.6,0.1,6.2
			c0.1,1.6,0.3,2.9,0.6,3.9c0.3,1,0.8,1.8,1.4,2.4c0.6,0.6,1.4,1.2,2.3,1.7c2.2,1.3,4.6,1.9,7.3,1.9h3.9v3h-46.5v-3h3.8
			c1.9,0,3.6-0.1,5.1-0.4c1.5-0.3,2.7-1,3.6-2s1.7-2.7,2.2-4.9c0.5-2.2,0.8-5.1,0.8-8.9v-69.9c0-2.5-0.1-4.5-0.2-6.1
			c-0.1-1.6-0.3-3-0.6-4c-0.3-1-0.7-1.9-1.3-2.5c-0.6-0.6-1.3-1.2-2.3-1.7c-1.2-0.6-2.4-1.1-3.6-1.4c-1.2-0.3-2.5-0.5-3.8-0.5h-3.8
			v-3h80.6v23.8h-1.8c-1-3.9-2.2-7-3.5-9.4s-2.9-4.2-4.8-5.4c-1.9-1.3-4.1-2.1-6.6-2.5c-2.5-0.4-5.6-0.6-9.2-0.6H4348z"/>
		<path d="M4538,1204.5v25.5h-1.8c-0.9-6.8-2.9-11.7-6-14.5c-3.1-2.8-7.8-4.2-13.9-4.2H4501v82.8c0,3.7,0.3,6.5,0.8,8.6
			c0.5,2.1,1.3,3.7,2.2,4.7c1,1,2.1,1.7,3.6,2c1.4,0.3,3.1,0.4,5,0.4h3.7v3h-45.9v-3h3.8c1.9,0,3.6-0.2,5-0.5c1.4-0.3,2.6-1,3.6-2.1
			s1.7-2.6,2.2-4.7c0.5-2.1,0.8-4.9,0.8-8.5v-82.8h-13c-3.3,0-6.1,0.3-8.6,0.8c-2.5,0.5-4.7,1.5-6.5,2.9c-1.8,1.4-3.3,3.3-4.3,5.7
			c-1.1,2.4-1.7,5.5-2,9.4h-3v-25.5H4538z"/>
		<path d="M4576.8,1254.8h50.3v-31c0-2.5,0-4.6-0.1-6.3c-0.1-1.6-0.3-3-0.6-4c-0.3-1-0.8-1.8-1.4-2.4s-1.4-1.2-2.3-1.7
			c-2.2-1.3-4.6-1.9-7.3-1.9h-3.8v-3h46.4v3h-3.8c-1,0-2.1,0.1-3.3,0.4c-1.2,0.2-2.2,0.6-3.2,1.1c-1,0.5-1.9,1.1-2.7,1.8
			c-0.8,0.7-1.4,1.5-1.7,2.5c-0.6,1.7-0.8,5.2-0.8,10.6v69.8c0,2.5,0.1,4.6,0.2,6.2c0.1,1.6,0.3,2.9,0.6,3.9c0.3,1,0.7,1.8,1.3,2.4
			c0.6,0.6,1.3,1.2,2.3,1.7c2.2,1.3,4.7,1.9,7.4,1.9h3.8v3h-46.4v-3h3.8c1.8,0,3.5-0.1,4.9-0.4c1.4-0.3,2.7-1,3.7-2
			c1-1.1,1.8-2.7,2.3-4.9c0.5-2.2,0.8-5.1,0.8-8.9v-33h-50.3v33c0,2.5,0,4.6,0.1,6.2c0.1,1.6,0.3,2.9,0.6,3.9c0.3,1,0.8,1.8,1.4,2.4
			c0.6,0.6,1.4,1.2,2.3,1.7c2.2,1.3,4.6,1.9,7.3,1.9h3.9v3h-46.5v-3h3.9c4.4,0,7.6-1.3,9.7-3.9c1.3-1.6,1.9-5.7,1.9-12.3v-69.8
			c0-2.6,0-4.7-0.1-6.4c-0.1-1.6-0.3-2.9-0.6-3.9c-0.3-1-0.8-1.8-1.3-2.4c-0.6-0.6-1.3-1.2-2.3-1.7c-2.2-1.3-4.6-1.9-7.3-1.9h-3.9
			v-3h46.5v3h-3.9c-1,0-2,0.1-3.2,0.4c-1.2,0.2-2.2,0.6-3.2,1.1c-1,0.5-1.9,1.1-2.7,1.8c-0.8,0.7-1.4,1.5-1.7,2.5
			c-0.6,1.9-1,5.4-1,10.6V1254.8z"/>
		<path d="M4695.5,1210.5v42.8h23.7c3.5,0,6.3-0.3,8.5-1c2.1-0.6,3.8-1.6,5.1-2.9c1.2-1.3,2.1-2.9,2.6-4.9c0.5-2,0.8-4.3,1-7h3v37.7
			h-3c-0.4-3.1-0.9-5.7-1.4-7.7c-0.5-2.1-1.4-3.7-2.5-4.9c-1.2-1.2-2.8-2.1-4.8-2.6c-2.1-0.5-4.8-0.8-8.3-0.8h-23.7v35.7
			c0,2.7,0,4.8,0.1,6.4c0.1,1.6,0.4,2.8,1,3.6c0.6,0.8,1.4,1.4,2.6,1.6s2.9,0.4,5.2,0.4h18.3c3.1,0,5.7-0.1,7.9-0.2
			c2.1-0.2,4-0.5,5.5-1c1.5-0.5,2.9-1.1,4.1-2s2.5-1.9,3.8-3.2c3.2-3.1,6.6-8.1,10.1-14.9h3.2l-9.4,27.2h-83.4v-3h3.8
			c1,0,2.1-0.1,3.2-0.4c1.1-0.2,2.2-0.6,3.2-1c1-0.4,1.9-1,2.7-1.7c0.8-0.7,1.3-1.5,1.7-2.5c0.6-1.7,1-5.2,1-10.5v-70.3
			c0-6.9-0.7-11.2-2-12.8c-1.9-2.1-5.1-3.2-9.7-3.2h-3.8v-3h83.4v23.7h-1.9c-0.8-3.9-1.6-7-2.6-9.4c-0.9-2.3-2.1-4.1-3.6-5.4
			c-1.5-1.3-3.4-2.1-5.8-2.4c-2.3-0.4-5.3-0.5-9-0.5H4695.5z"/>
		<path d="M4835.5,1210.5v42.5h19.7c2.3,0,4.3-0.2,5.9-0.7c1.6-0.4,3-1.2,4.1-2.3c1.1-1.1,2-2.6,2.6-4.5c0.6-1.9,1.2-4.3,1.5-7.3h3
			v36.6h-3c-0.1-2.7-0.4-5-0.8-6.9s-1.3-3.5-2.3-4.7c-1.1-1.2-2.5-2.1-4.3-2.7c-1.8-0.6-4-0.8-6.7-0.8h-19.7v34c0,2.5,0,4.6,0.1,6.2
			c0.1,1.6,0.3,2.9,0.6,3.9c0.3,1,0.8,1.8,1.4,2.4c0.6,0.6,1.4,1.2,2.3,1.7c2.2,1.3,4.6,1.9,7.3,1.9h3.9v3h-46.5v-3h3.8
			c1.9,0,3.6-0.1,5.1-0.4c1.5-0.3,2.7-1,3.6-2s1.7-2.7,2.2-4.9c0.5-2.2,0.8-5.1,0.8-8.9v-69.9c0-2.5-0.1-4.5-0.2-6.1
			c-0.1-1.6-0.3-3-0.6-4c-0.3-1-0.7-1.9-1.3-2.5c-0.6-0.6-1.3-1.2-2.3-1.7c-1.2-0.6-2.4-1.1-3.6-1.4c-1.2-0.3-2.5-0.5-3.8-0.5h-3.8
			v-3h80.6v23.8h-1.8c-1-3.9-2.2-7-3.5-9.4s-2.9-4.2-4.8-5.4c-1.9-1.3-4.1-2.1-6.6-2.5c-2.5-0.4-5.6-0.6-9.2-0.6H4835.5z"/>
		<path d="M4971,1207.5v-3h38.2v3h-4.1c-4.1,0-7.4,1.8-9.8,5.4c-1.1,1.6-1.7,5.4-1.7,11.6v43.9c0,10.6-1.1,19.1-3.3,25.4
			c-1.1,3-2.7,5.8-4.8,8.5c-2.1,2.6-4.7,4.9-7.9,6.9c-3.2,1.9-6.9,3.5-11.1,4.6c-4.2,1.2-9.1,1.7-14.6,1.7c-6,0-11.2-0.5-15.6-1.5
			c-4.5-1-8.3-2.5-11.4-4.5c-3.2-2-5.8-4.4-7.9-7.2c-2.1-2.8-3.7-5.9-5-9.4c-1.7-4.8-2.6-13.7-2.6-26.7v-42.3c0-3.3-0.2-6.1-0.7-8.2
			c-0.4-2.1-1.1-3.8-2.1-4.9s-2.2-2-3.6-2.4c-1.5-0.4-3.2-0.7-5.2-0.7h-4.2v-3h46.8v3h-4.2c-1.9,0-3.6,0.2-5,0.6
			c-1.4,0.4-2.6,1.2-3.6,2.3c-1,1.2-1.7,2.8-2.2,4.9c-0.5,2.1-0.8,4.9-0.8,8.4v47.2c0,4.8,0.3,9.4,1,13.9c0.6,4.5,1.9,8.6,3.9,12.1
			c2,3.5,4.8,6.4,8.5,8.5c3.7,2.1,8.6,3.2,14.7,3.2c3.5,0,6.9-0.4,10.1-1.3c3.3-0.8,6.2-2,8.9-3.4c2.7-1.4,5-3.2,7-5.2
			c2-2,3.5-4.2,4.4-6.6c2.1-4.7,3.1-12.9,3.1-24.5v-43.9c0-6.7-0.8-10.9-2.3-12.6c-2.1-2.4-5.1-3.6-9.2-3.6H4971z"/>
		<path d="M5121.5,1312.8h-28.8l-36.7-50.6c-1.4,0.1-2.6,0.1-3.6,0.2c-1.1,0-2,0.1-2.9,0.1c-0.7,0-1.5,0-2.3-0.1
			c-0.8,0-1.6-0.1-2.5-0.2v31.5c0,3.8,0.3,6.8,0.8,9c0.5,2.2,1.3,3.8,2.3,4.9c1,1.1,2.2,1.7,3.6,2c1.4,0.2,3,0.4,4.7,0.4h4.3v3
			h-46.5v-3h4.2c4.4,0,7.7-1.5,9.8-4.4c1.1-1.7,1.7-5.7,1.7-11.8v-69.9c0-6.7-0.8-10.9-2.3-12.6c-2.1-2.4-5.1-3.6-9.2-3.6h-4.2v-3
			h39.4c5.8,0,10.8,0.2,15,0.7c4.2,0.4,7.7,1.1,10.4,2c2.7,0.9,5.2,2.1,7.6,3.6c2.4,1.5,4.5,3.4,6.3,5.6c1.8,2.2,3.2,4.6,4.2,7.3
			c1,2.7,1.5,5.6,1.5,8.7c0,6.8-2.1,12.6-6.4,17.4c-4.3,4.8-11,8.3-20.1,10.4l22.3,31c2.6,3.6,4.9,6.5,7,8.8c2,2.3,4.1,4.1,6.1,5.5
			c2,1.4,4.2,2.3,6.4,3c2.3,0.6,4.9,1.1,8,1.4V1312.8z M5044.6,1257.2c1,0,1.9,0,2.7,0.1c0.8,0,1.4,0.1,1.8,0.1
			c5.2,0,9.7-0.6,13.6-1.8c3.9-1.2,7.1-2.9,9.8-5c2.6-2.1,4.6-4.7,5.9-7.6c1.3-2.9,2-6.1,2-9.5c0-3.3-0.6-6.4-1.7-9.2
			c-1.1-2.8-2.7-5.2-4.8-7.3c-2.1-2-4.5-3.6-7.4-4.7c-2.9-1.1-6-1.7-9.4-1.7c-3.3,0-7.4,0.5-12.5,1.5V1257.2z"/>
		<path d="M5117.9,1204.5h29.3l66.3,81.3v-62.4c0-3.7-0.3-6.6-0.8-8.7c-0.5-2.1-1.3-3.7-2.3-4.8c-1-1-2.2-1.7-3.6-2
			c-1.4-0.3-3.1-0.4-4.9-0.4h-3.8v-3h37.8v3h-3.9c-1.9,0-3.6,0.2-5,0.5c-1.4,0.3-2.6,1-3.6,2.1c-1,1.1-1.7,2.7-2.1,4.8
			c-0.5,2.1-0.7,4.9-0.7,8.5v91.3h-2.9l-71.4-87.2v66.7c0,3.7,0.3,6.7,0.8,8.8c0.5,2.1,1.3,3.7,2.2,4.7c1,1,2.1,1.7,3.6,1.9
			s3.1,0.4,4.9,0.4h3.8v3h-37.7v-3h3.8c1.9,0,3.6-0.2,5-0.5c1.4-0.3,2.6-1,3.6-2.1c1-1.1,1.7-2.6,2.2-4.7c0.5-2.1,0.7-4.9,0.7-8.5
			v-75.3c-1.6-1.9-2.9-3.4-4-4.5c-1.1-1.1-2.1-2-3-2.7s-2-1.3-3.1-1.8c-1.1-0.5-2.5-1-4.2-1.5c-1.6-0.5-3.9-0.7-7-0.7V1204.5z"/>
		<path d="M5288.5,1309.8v3h-46.4v-3h3.8c1.9,0,3.6-0.1,5.1-0.4c1.5-0.3,2.7-1,3.6-2c1-1.1,1.7-2.7,2.2-4.9c0.5-2.2,0.8-5.1,0.8-8.9
			v-69.9c0-2.5-0.1-4.5-0.2-6.1c-0.1-1.6-0.3-3-0.6-4c-0.3-1-0.7-1.8-1.3-2.4c-0.6-0.6-1.3-1.2-2.3-1.7c-2.4-1.3-4.8-1.9-7.4-1.9
			h-3.8v-3h46.4v3h-3.8c-1.9,0-3.6,0.2-5.1,0.5c-1.5,0.3-2.7,1-3.6,2.1s-1.7,2.7-2.2,4.9c-0.5,2.2-0.8,5.1-0.8,8.8v69.9
			c0,2.5,0,4.6,0.1,6.2c0.1,1.6,0.3,2.9,0.6,3.9c0.3,1,0.8,1.8,1.4,2.4s1.4,1.2,2.3,1.7c2.2,1.3,4.6,1.9,7.3,1.9H5288.5z"/>
		<path d="M5387.2,1204.5v25.5h-1.8c-0.9-6.8-2.9-11.7-6-14.5c-3.1-2.8-7.8-4.2-13.9-4.2h-15.3v82.8c0,3.7,0.3,6.5,0.8,8.6
			c0.5,2.1,1.3,3.7,2.2,4.7c1,1,2.1,1.7,3.6,2c1.4,0.3,3.1,0.4,5,0.4h3.7v3h-45.9v-3h3.8c1.9,0,3.6-0.2,5-0.5c1.4-0.3,2.6-1,3.6-2.1
			s1.7-2.6,2.2-4.7c0.5-2.1,0.8-4.9,0.8-8.5v-82.8h-13c-3.3,0-6.1,0.3-8.6,0.8c-2.5,0.5-4.7,1.5-6.5,2.9c-1.8,1.4-3.3,3.3-4.3,5.7
			c-1.1,2.4-1.7,5.5-2,9.4h-3v-25.5H5387.2z"/>
		<path d="M5470.5,1207.5v-3h38.2v3h-4.1c-4.1,0-7.4,1.8-9.8,5.4c-1.1,1.6-1.7,5.4-1.7,11.6v43.9c0,10.6-1.1,19.1-3.3,25.4
			c-1.1,3-2.7,5.8-4.8,8.5c-2.1,2.6-4.7,4.9-7.9,6.9c-3.2,1.9-6.9,3.5-11.1,4.6c-4.2,1.2-9.1,1.7-14.6,1.7c-6,0-11.2-0.5-15.6-1.5
			c-4.5-1-8.3-2.5-11.4-4.5c-3.2-2-5.8-4.4-7.9-7.2c-2.1-2.8-3.7-5.9-5-9.4c-1.7-4.8-2.6-13.7-2.6-26.7v-42.3c0-3.3-0.2-6.1-0.7-8.2
			c-0.4-2.1-1.1-3.8-2.1-4.9s-2.2-2-3.6-2.4c-1.5-0.4-3.2-0.7-5.2-0.7h-4.2v-3h46.8v3h-4.2c-1.9,0-3.6,0.2-5,0.6
			c-1.4,0.4-2.6,1.2-3.6,2.3c-1,1.2-1.7,2.8-2.2,4.9c-0.5,2.1-0.8,4.9-0.8,8.4v47.2c0,4.8,0.3,9.4,1,13.9c0.6,4.5,1.9,8.6,3.9,12.1
			c2,3.5,4.8,6.4,8.5,8.5c3.7,2.1,8.6,3.2,14.7,3.2c3.5,0,6.9-0.4,10.1-1.3c3.3-0.8,6.2-2,8.9-3.4c2.7-1.4,5-3.2,7-5.2
			c2-2,3.5-4.2,4.4-6.6c2.1-4.7,3.1-12.9,3.1-24.5v-43.9c0-6.7-0.8-10.9-2.3-12.6c-2.1-2.4-5.1-3.6-9.2-3.6H5470.5z"/>
		<path d="M5621,1312.8h-28.8l-36.7-50.6c-1.4,0.1-2.6,0.1-3.6,0.2c-1.1,0-2,0.1-2.9,0.1c-0.7,0-1.5,0-2.3-0.1
			c-0.8,0-1.6-0.1-2.5-0.2v31.5c0,3.8,0.3,6.8,0.8,9c0.5,2.2,1.3,3.8,2.3,4.9c1,1.1,2.2,1.7,3.6,2c1.4,0.2,3,0.4,4.7,0.4h4.3v3
			h-46.5v-3h4.2c4.4,0,7.7-1.5,9.8-4.4c1.1-1.7,1.7-5.7,1.7-11.8v-69.9c0-6.7-0.8-10.9-2.3-12.6c-2.1-2.4-5.1-3.6-9.2-3.6h-4.2v-3
			h39.4c5.8,0,10.8,0.2,15,0.7c4.2,0.4,7.7,1.1,10.4,2c2.7,0.9,5.2,2.1,7.6,3.6c2.4,1.5,4.5,3.4,6.3,5.6c1.8,2.2,3.2,4.6,4.2,7.3
			c1,2.7,1.5,5.6,1.5,8.7c0,6.8-2.1,12.6-6.4,17.4c-4.3,4.8-11,8.3-20.1,10.4l22.3,31c2.6,3.6,4.9,6.5,7,8.8c2,2.3,4.1,4.1,6.1,5.5
			c2,1.4,4.2,2.3,6.4,3c2.3,0.6,4.9,1.1,8,1.4V1312.8z M5544.1,1257.2c1,0,1.9,0,2.7,0.1c0.8,0,1.4,0.1,1.8,0.1
			c5.2,0,9.7-0.6,13.6-1.8c3.9-1.2,7.1-2.9,9.8-5c2.6-2.1,4.6-4.7,5.9-7.6c1.3-2.9,2-6.1,2-9.5c0-3.3-0.6-6.4-1.7-9.2
			c-1.1-2.8-2.7-5.2-4.8-7.3c-2.1-2-4.5-3.6-7.4-4.7c-2.9-1.1-6-1.7-9.4-1.7c-3.3,0-7.4,0.5-12.5,1.5V1257.2z"/>
		<path d="M5653.8,1210.5v42.8h23.7c3.5,0,6.3-0.3,8.5-1c2.1-0.6,3.8-1.6,5.1-2.9c1.2-1.3,2.1-2.9,2.6-4.9c0.5-2,0.8-4.3,1-7h3v37.7
			h-3c-0.4-3.1-0.9-5.7-1.4-7.7c-0.5-2.1-1.4-3.7-2.5-4.9c-1.2-1.2-2.8-2.1-4.8-2.6c-2.1-0.5-4.8-0.8-8.3-0.8h-23.7v35.7
			c0,2.7,0,4.8,0.1,6.4c0.1,1.6,0.4,2.8,1,3.6c0.6,0.8,1.4,1.4,2.6,1.6s2.9,0.4,5.2,0.4h18.3c3.1,0,5.7-0.1,7.9-0.2
			c2.1-0.2,4-0.5,5.5-1c1.5-0.5,2.9-1.1,4.1-2s2.5-1.9,3.8-3.2c3.2-3.1,6.6-8.1,10.1-14.9h3.2l-9.4,27.2h-83.4v-3h3.8
			c1,0,2.1-0.1,3.2-0.4c1.1-0.2,2.2-0.6,3.2-1c1-0.4,1.9-1,2.7-1.7c0.8-0.7,1.3-1.5,1.7-2.5c0.6-1.7,1-5.2,1-10.5v-70.3
			c0-6.9-0.7-11.2-2-12.8c-1.9-2.1-5.1-3.2-9.7-3.2h-3.8v-3h83.4v23.7h-1.9c-0.8-3.9-1.6-7-2.6-9.4c-0.9-2.3-2.1-4.1-3.6-5.4
			c-1.5-1.3-3.4-2.1-5.8-2.4c-2.3-0.4-5.3-0.5-9-0.5H5653.8z"/>
	</g>
</g>
<g id="SOPORTE-PARED">
</g>
<g id="MEDIDAS">
</g>
<g id="PROCESOS">
	<g>
		<g>
			<defs>
				
					<ellipse id="SVGID_1_" transform="matrix(2.711356e-02 -0.9996 0.9996 2.711356e-02 2345.5222 4058.6995)" cx="3257.9" cy="824.3" rx="598" ry="585"/>
			</defs>
			<clipPath id="SVGID_00000023980260513115864060000003379989210280593795_">
				<use xlink:href="#SVGID_1_"  style="overflow:visible;"/>
			</clipPath>
			<g id="SELECTOR-ELEMENTOS-MADERA-SUB" style="clip-path:url(#SVGID_00000023980260513115864060000003379989210280593795_);">
				
					<ellipse transform="matrix(2.711356e-02 -0.9996 0.9996 2.711356e-02 2346.7847 4056.0994)" class="st4" cx="3257.2" cy="822.4" rx="598" ry="585"/>
				
					<ellipse transform="matrix(1 -3.426122e-03 3.426122e-03 1 -2.8013 11.1551)" class="st5" cx="3254.5" cy="823.2" rx="591" ry="599.6"/>
				
					<ellipse transform="matrix(2.711356e-02 -0.9996 0.9996 2.711356e-02 2342.8455 4056.3113)" class="st6" cx="3255.3" cy="824.5" rx="598" ry="585"/>
				<g>
					<polygon class="st7" points="3566.2,820.9 3607.5,55.1 3418.2,4.4 3352.5,1238.7 					"/>
					<polygon class="st8" points="181.7,203.7 85.5,1365.5 3352.5,1238.7 3418.2,4.4 					"/>
				</g>
			</g>
		</g>
		
			<ellipse transform="matrix(0.3725 -0.928 0.928 0.3725 1279.4882 3541.8032)" class="st6" cx="3258.8" cy="824.8" rx="598" ry="585"/>
	</g>
</g>
</svg>
