<?xml version="1.0" encoding="utf-8"?>
<!-- Generator: Adobe Illustrator 26.5.0, SVG Export Plug-In . SVG Version: 6.00 Build 0)  -->
<svg version="1.1" xmlns="http://www.w3.org/2000/svg" xmlns:xlink="http://www.w3.org/1999/xlink" x="0px" y="0px"
	 viewBox="0 0 6677 2533" style="enable-background:new 0 0 6677 2533;" xml:space="preserve">
<style type="text/css">
	.st0{fill:#E6E6E6;stroke:#000000;stroke-width:10.3612;stroke-miterlimit:10;}
	.st1{fill:#E6E6E6;stroke:#000000;stroke-width:18.754;stroke-miterlimit:10;}
	.st2{fill:#FFFFFF;}
	.st3{fill:none;stroke:#000000;stroke-width:23.5656;stroke-miterlimit:10;}
	.st4{fill:none;stroke:#000000;stroke-width:16.8326;stroke-miterlimit:10;}
	.st5{fill:none;stroke:#000000;stroke-width:20.1991;stroke-miterlimit:10;}
	.st6{fill:none;stroke:#000000;stroke-width:18.754;stroke-miterlimit:10;}
	.st7{fill:#F7F7F7;stroke:#000000;stroke-width:12.0851;stroke-miterlimit:10;}
	.st8{stroke:#000000;stroke-width:8.3211;stroke-miterlimit:10;}
	.st9{stroke:#000000;stroke-width:7.439;stroke-miterlimit:10;}
	.st10{fill:#F7F7F7;stroke:#000000;stroke-width:7.5399;stroke-miterlimit:10;}
	.st11{fill:#E6E6E6;stroke:#000000;stroke-width:8.5472;stroke-miterlimit:10;}
	.st12{fill:#F7F7F7;stroke:#000000;stroke-width:15.5912;stroke-miterlimit:10;}
</style>
<g id="CIRCULOS-SELECCION4">
</g>
<g id="CLOSET">
	<g id="LATERAL-DERECHA">
	</g>
	<g id="BASE">
	</g>
	<g id="DIVISIONES-VERTICALES">
		<g id="DIVISION-VERTICAL-DERECHA">
		</g>
		<g id="DIVISION-CENTRAL">
		</g>
		<g id="DIVISION-VERTICAL-IZQUIERDA_00000085229740836627909760000005526871516412138418_">
		</g>
	</g>
	<g id="DIVISIONES-HORIZONTALES">
	</g>
	<g id="LATERAL-IZQUIERDA">
	</g>
	<g id="TECHO">
	</g>
	<g id="SOPORTES-COOK">
	</g>
</g>
<g id="TABLITAS-TRASERAS">
</g>
<g id="TRIPLEX_00000062169277959621118470000012963048032068378272_">
</g>
<g id="PUNTILLAS">
</g>
<g id="SOPORTE-MUEBLE">
	<g id="SOPORTE-MUEBLE_00000034058904051145523800000014492156964169087920_">
		<g>
			<polygon class="st0" points="6565.7,537.8 6514,687.8 6509.9,214.1 6560.9,184.3 			"/>
			<polyline class="st0" points="642.6,202.8 730.5,160.1 6560.9,184.3 6509.9,214.1 			"/>
			<polygon class="st0" points="6513.8,696 648.4,677.6 642.6,202.8 6509.9,214.8 			"/>
		</g>
		<g>
			<g>
				<path d="M2641.1,369.9v54.8h-4.4c-2-14.8-6.8-26.1-14.5-33.9c-7.7-7.8-17.5-11.7-29.3-11.7c-4.1,0-7.8,0.7-11.2,2.1
					c-3.4,1.4-6.3,3.2-8.9,5.5c-2.6,2.3-4.5,4.9-5.9,7.8c-1.4,2.9-2.1,5.9-2.1,9.1c0,2.9,0.6,5.7,1.7,8.3c1.2,2.6,4.8,6.7,10.8,12.3
					c10.1,6.4,19.1,11.7,27.1,15.9c7.4,4.1,17.5,10.2,30.2,18.5c5.5,4.2,9.7,9.2,12.6,14.9c2.9,5.8,4.4,11.8,4.4,18.1
					c0,5.9-1.2,11.6-3.7,16.9c-2.4,5.4-5.8,10-10.2,14.1c-4.4,4-9.6,7.2-15.8,9.6c-6.2,2.4-12.9,3.6-20.3,3.6c-4.7,0-9-0.3-12.9-1
					c-0.7-0.1-2.5-0.6-5.5-1.5c-3-0.9-6.1-1.8-9.5-2.7c-3.4-0.9-6.5-1.8-9.4-2.6c-2.9-0.8-4.6-1.2-5.1-1.2c-2,0-3.5,0.6-4.6,1.7
					c-1.1,1.2-2,3.6-2.5,7.3h-4.4v-54.5h4.4c2.1,11.2,4.8,19.7,8.2,25.7c1.6,2.8,3.8,5.4,6.5,7.8c2.7,2.4,5.8,4.5,9.3,6.3
					c3.4,1.8,7.1,3.2,11.1,4.2c4,1,8,1.5,12,1.5c4.9,0,9.3-0.7,13.2-2.1c3.9-1.4,7.2-3.3,10-5.7c2.7-2.4,4.8-5.1,6.3-8.3
					c1.5-3.1,2.2-6.5,2.2-10c0-4-1.1-7.9-3.2-11.9c-2.2-4-5.8-7.9-10.9-11.7c-5-3-10.9-6.6-17.8-10.6c-13.2-7.6-24.8-14.8-35.1-21.8
					c-5.7-4.5-10-9.5-13-14.9c-3-5.4-4.5-11.4-4.5-18.1c0-5.6,1.2-10.9,3.5-16c2.3-5.1,5.6-9.5,9.7-13.4c4.1-3.8,9-6.9,14.8-9.1
					c5.7-2.2,11.9-3.3,18.5-3.3c8.4,0,17.3,2,26.7,6.1c2.2,0.9,4.1,1.7,5.6,2.3c1.5,0.6,2.7,0.8,3.7,0.7c2.1,0,3.8-0.6,5.1-1.7
					c1.3-1.2,2.3-3.6,3-7.3H2641.1z"/>
				<path d="M2778.8,377.7v-4.4h56v4.4h-5.9c-6.1,0-10.8,2.6-14.3,7.9c-1.6,2.3-2.4,8-2.4,16.9v64.2c0,15.6-1.6,28-4.9,37.2
					c-1.6,4.4-4,8.6-7,12.4c-3,3.8-6.9,7.2-11.5,10c-4.7,2.9-10.1,5.1-16.3,6.8c-6.2,1.7-13.4,2.5-21.4,2.5
					c-8.7,0-16.4-0.8-22.9-2.3c-6.5-1.5-12.1-3.7-16.8-6.6c-4.7-2.9-8.5-6.4-11.5-10.5c-3-4.1-5.5-8.7-7.3-13.8
					c-2.6-7.1-3.8-20.1-3.8-39.1v-62c0-4.9-0.3-8.9-1-12c-0.6-3.1-1.7-5.5-3.1-7.2c-1.4-1.7-3.2-2.9-5.3-3.6c-2.2-0.6-4.7-1-7.6-1
					h-6.1v-4.4h68.6v4.4h-6.1c-2.8,0-5.2,0.3-7.3,0.9c-2.1,0.6-3.8,1.7-5.2,3.4c-1.4,1.7-2.5,4.1-3.2,7.2c-0.8,3.1-1.1,7.2-1.1,12.3
					v69.1c0,7,0.5,13.8,1.4,20.4c0.9,6.6,2.9,12.5,5.8,17.7c2.9,5.2,7.1,9.3,12.5,12.4c5.4,3.1,12.6,4.6,21.6,4.6
					c5.1,0,10.1-0.6,14.8-1.8c4.8-1.2,9.1-2.9,13-5c3.9-2.1,7.3-4.6,10.2-7.6c2.9-3,5.1-6.2,6.5-9.7c3-6.9,4.5-18.9,4.5-36v-64.2
					c0-9.8-1.1-15.9-3.3-18.5c-3-3.5-7.5-5.2-13.4-5.2H2778.8z"/>
				<path d="M2886.5,457.8v46.1c0,10.1,1.1,16.4,3.3,18.7c3,3.4,7.5,5.1,13.4,5.1h6.1v4.4h-67.9v-4.4h5.9c6.6,0,11.4-2.2,14.3-6.5
					c1.6-2.6,2.4-8.3,2.4-17.3V401.4c0-9.9-1-16.1-3.1-18.5c-3.1-3.5-7.7-5.2-13.6-5.2h-5.9v-4.4h58.1c14,0,25.1,1.5,33.5,4.5
					c4.1,1.4,7.9,3.3,11.4,5.8c3.5,2.5,6.6,5.5,9.3,8.9c2.6,3.4,4.7,7.2,6.2,11.3c1.5,4.1,2.3,8.6,2.3,13.4c0,6.4-1.1,12.3-3.3,17.6
					c-2.2,5.4-5.4,9.9-9.6,13.8c-4.2,3.8-9.3,6.8-15.4,9c-6.1,2.2-13,3.2-20.8,3.2C2905.7,461,2896.8,459.9,2886.5,457.8z
					 M2886.5,451c4.2,0.8,7.9,1.4,11,1.8c3.1,0.4,5.9,0.6,8.2,0.6c4.1,0,7.9-0.8,11.5-2.5c3.6-1.7,6.8-4,9.5-7
					c2.7-3,4.9-6.5,6.5-10.7c1.6-4.2,2.4-8.7,2.4-13.6c0-5.8-0.9-11-2.6-15.5c-1.7-4.5-4.1-8.4-7.2-11.5c-3-3.1-6.6-5.5-10.6-7.2
					c-4.1-1.6-8.5-2.4-13.3-2.4c-4,0-9.1,0.7-15.4,2.1V451z"/>
				<path d="M3019.7,457.8v46.1c0,10.1,1.1,16.4,3.3,18.7c3,3.4,7.5,5.1,13.4,5.1h6.1v4.4h-67.9v-4.4h5.9c6.6,0,11.4-2.2,14.3-6.5
					c1.6-2.6,2.4-8.3,2.4-17.3V401.4c0-9.9-1-16.1-3.1-18.5c-3.1-3.5-7.7-5.2-13.6-5.2h-5.9v-4.4h58.1c14,0,25.1,1.5,33.5,4.5
					c4.1,1.4,7.9,3.3,11.4,5.8c3.5,2.5,6.6,5.5,9.3,8.9c2.6,3.4,4.7,7.2,6.2,11.3c1.5,4.1,2.3,8.6,2.3,13.4c0,6.4-1.1,12.3-3.3,17.6
					c-2.2,5.4-5.4,9.9-9.6,13.8c-4.2,3.8-9.3,6.8-15.4,9c-6.1,2.2-13,3.2-20.8,3.2C3038.9,461,3030,459.9,3019.7,457.8z M3019.7,451
					c4.2,0.8,7.9,1.4,11,1.8c3.1,0.4,5.9,0.6,8.2,0.6c4.1,0,7.9-0.8,11.5-2.5c3.6-1.7,6.8-4,9.5-7c2.7-3,4.9-6.5,6.5-10.7
					c1.6-4.2,2.4-8.7,2.4-13.6c0-5.8-0.9-11-2.6-15.5c-1.7-4.5-4.1-8.4-7.2-11.5c-3-3.1-6.6-5.5-10.6-7.2c-4.1-1.6-8.5-2.4-13.3-2.4
					c-4,0-9.1,0.7-15.4,2.1V451z"/>
				<path d="M3191.5,369.9c10.1,0,19.8,2.1,29,6.3c9.2,4.2,17.3,10,24.3,17.3s12.5,16,16.7,25.9c4.1,10,6.2,20.7,6.2,32.4
					c0,12-2.1,23.1-6.2,33.3c-4.1,10.2-9.7,19.1-16.8,26.6c-7,7.5-15.3,13.4-24.8,17.6c-9.5,4.2-19.6,6.4-30.3,6.4
					c-10.8,0-20.9-2-30.4-6.1s-17.6-9.8-24.5-17.2c-6.9-7.4-12.4-16.2-16.4-26.4c-4-10.2-6-21.5-6-33.9c0-11.4,2-22.1,6-32.1
					c4-10,9.5-18.7,16.6-26.1c7-7.4,15.4-13.2,25.1-17.5C3169.6,372,3180.1,369.9,3191.5,369.9z M3189.2,378.4
					c-8,0-15.2,1.7-21.4,5.2c-6.2,3.4-11.5,8.3-15.7,14.7c-4.2,6.3-7.5,14-9.7,23c-2.2,9-3.3,19.2-3.3,30.5
					c0,11.2,1.1,21.4,3.2,30.6c2.2,9.3,5.4,17.2,9.6,23.9c4.2,6.7,9.5,11.9,15.8,15.5s13.5,5.5,21.6,5.5c7.3,0,14.1-1.4,20.3-4.2
					c6.2-2.8,11.7-7.1,16.3-13c4.7-5.9,8.3-13.4,10.9-22.5c2.6-9.1,3.9-20,3.9-32.7c0-12-1.1-22.7-3.2-32.2
					c-2.2-9.5-5.4-17.5-9.8-24.1c-4.4-6.6-9.8-11.6-16.2-15C3205.2,380.1,3197.7,378.4,3189.2,378.4z"/>
				<path d="M3438.7,532h-42.2l-53.8-74.2c-2,0.1-3.8,0.2-5.3,0.3c-1.6,0.1-3,0.1-4.3,0.1c-1,0-2.2,0-3.3-0.1
					c-1.2-0.1-2.4-0.1-3.7-0.3v46.1c0,5.6,0.4,10,1.1,13.2c0.8,3.2,1.9,5.6,3.3,7.2c1.5,1.6,3.2,2.5,5.2,2.9c2,0.3,4.3,0.5,6.9,0.5
					h6.3v4.4h-68.1v-4.4h6.1c6.5,0,11.3-2.2,14.3-6.5c1.6-2.6,2.4-8.3,2.4-17.3V401.4c0-9.8-1.1-15.9-3.3-18.5
					c-3-3.5-7.5-5.2-13.4-5.2h-6.1v-4.4h57.8c8.5,0,15.8,0.3,22,1c6.2,0.6,11.2,1.6,15.2,2.9c4,1.3,7.7,3.1,11.2,5.3
					c3.5,2.3,6.5,5,9.2,8.2c2.6,3.2,4.7,6.8,6.2,10.7c1.5,4,2.3,8.2,2.3,12.7c0,9.9-3.1,18.4-9.4,25.5c-6.3,7.1-16.1,12.2-29.5,15.2
					l32.6,45.4c3.8,5.2,7.2,9.5,10.2,12.9c3,3.4,5.9,6.1,8.9,8c3,2,6.1,3.4,9.4,4.4c3.3,0.9,7.2,1.6,11.8,2.1V532z M3326.1,450.5
					c1.5,0,2.8,0,3.9,0.1c1.1,0.1,2,0.1,2.7,0.1c7.6,0,14.2-0.9,19.9-2.6c5.7-1.7,10.5-4.2,14.3-7.3c3.8-3.1,6.7-6.8,8.6-11.1
					c1.9-4.2,2.9-8.9,2.9-13.9c0-4.9-0.8-9.4-2.4-13.5c-1.6-4.1-4-7.7-7-10.6c-3-3-6.6-5.3-10.8-6.9c-4.2-1.6-8.8-2.4-13.8-2.4
					c-4.8,0-10.9,0.8-18.3,2.3V450.5z"/>
				<path d="M3560.9,373.3v37.4h-2.6c-1.3-10-4.2-17.1-8.8-21.2c-4.6-4.1-11.4-6.2-20.3-6.2h-22.3v121.3c0,5.4,0.4,9.6,1.1,12.7
					c0.8,3.1,1.8,5.4,3.2,6.9c1.4,1.5,3.1,2.5,5.2,2.9c2.1,0.4,4.5,0.6,7.3,0.6h5.4v4.4h-67.2v-4.4h5.6c2.8,0,5.2-0.2,7.3-0.7
					c2.1-0.5,3.8-1.5,5.2-3.1c1.4-1.6,2.5-3.9,3.2-6.9c0.8-3,1.1-7.2,1.1-12.4V383.3h-19c-4.8,0-9,0.4-12.7,1.1
					c-3.7,0.8-6.8,2.2-9.5,4.2c-2.7,2-4.8,4.8-6.4,8.4c-1.6,3.6-2.5,8.1-2.9,13.7h-4.4v-37.4H3560.9z"/>
				<path d="M3673.2,382.1v62.3h28.8c3.4,0,6.3-0.3,8.6-1c2.4-0.6,4.4-1.8,6-3.4c1.6-1.6,2.9-3.8,3.8-6.6c0.9-2.8,1.7-6.3,2.3-10.6
					h4.4v53.6h-4.4c-0.1-4-0.5-7.3-1.2-10.1c-0.7-2.8-1.8-5.1-3.4-6.9c-1.6-1.8-3.7-3.1-6.3-3.9c-2.6-0.8-5.9-1.2-9.9-1.2h-28.8
					v49.8c0,3.7,0.1,6.7,0.2,9.1c0.1,2.3,0.4,4.2,0.9,5.8c0.5,1.5,1.1,2.7,2,3.6c0.9,0.9,2,1.7,3.4,2.5c3.3,1.9,6.8,2.8,10.6,2.8
					h5.8v4.4h-68.1v-4.4h5.6c2.8,0,5.3-0.2,7.4-0.6c2.2-0.4,3.9-1.4,5.3-3c1.4-1.6,2.5-4,3.2-7.2c0.8-3.2,1.1-7.5,1.1-13V401.4
					c0-3.6-0.1-6.6-0.3-9c-0.2-2.4-0.5-4.3-0.9-5.8c-0.4-1.5-1-2.7-1.8-3.7c-0.8-0.9-1.9-1.7-3.3-2.4c-1.7-0.9-3.5-1.6-5.2-2.1
					c-1.7-0.5-3.6-0.7-5.6-0.7h-5.6v-4.4h118v34.9h-2.6c-1.5-5.7-3.2-10.3-5.2-13.7c-1.9-3.4-4.3-6.1-7-7.9c-2.7-1.9-6-3.1-9.7-3.7
					c-3.7-0.6-8.2-0.9-13.4-0.9H3673.2z"/>
				<path d="M3871.7,377.7v-4.4h56v4.4h-5.9c-6.1,0-10.8,2.6-14.3,7.9c-1.6,2.3-2.4,8-2.4,16.9v64.2c0,15.6-1.6,28-4.9,37.2
					c-1.6,4.4-4,8.6-7,12.4c-3,3.8-6.9,7.2-11.5,10c-4.7,2.9-10.1,5.1-16.3,6.8c-6.2,1.7-13.4,2.5-21.4,2.5
					c-8.7,0-16.4-0.8-22.9-2.3c-6.5-1.5-12.1-3.7-16.8-6.6c-4.7-2.9-8.5-6.4-11.5-10.5c-3-4.1-5.5-8.7-7.3-13.8
					c-2.6-7.1-3.8-20.1-3.8-39.1v-62c0-4.9-0.3-8.9-1-12c-0.6-3.1-1.7-5.5-3.1-7.2c-1.4-1.7-3.2-2.9-5.3-3.6c-2.2-0.6-4.7-1-7.6-1
					h-6.1v-4.4h68.6v4.4h-6.1c-2.8,0-5.2,0.3-7.3,0.9c-2.1,0.6-3.8,1.7-5.2,3.4c-1.4,1.7-2.5,4.1-3.2,7.2c-0.8,3.1-1.1,7.2-1.1,12.3
					v69.1c0,7,0.5,13.8,1.4,20.4c0.9,6.6,2.9,12.5,5.8,17.7c2.9,5.2,7.1,9.3,12.5,12.4c5.4,3.1,12.6,4.6,21.6,4.6
					c5.1,0,10.1-0.6,14.8-1.8c4.8-1.2,9.1-2.9,13-5c3.9-2.1,7.3-4.6,10.2-7.6c2.9-3,5.1-6.2,6.5-9.7c3-6.9,4.5-18.9,4.5-36v-64.2
					c0-9.8-1.1-15.9-3.3-18.5c-3-3.5-7.5-5.2-13.4-5.2H3871.7z"/>
				<path d="M4092.1,532h-42.2l-53.8-74.2c-2,0.1-3.8,0.2-5.3,0.3c-1.6,0.1-3,0.1-4.3,0.1c-1,0-2.2,0-3.3-0.1
					c-1.2-0.1-2.4-0.1-3.7-0.3v46.1c0,5.6,0.4,10,1.1,13.2c0.8,3.2,1.9,5.6,3.3,7.2c1.5,1.6,3.2,2.5,5.2,2.9c2,0.3,4.3,0.5,6.9,0.5
					h6.3v4.4h-68.1v-4.4h6.1c6.5,0,11.3-2.2,14.3-6.5c1.6-2.6,2.4-8.3,2.4-17.3V401.4c0-9.8-1.1-15.9-3.3-18.5
					c-3-3.5-7.5-5.2-13.4-5.2h-6.1v-4.4h57.8c8.5,0,15.8,0.3,22,1c6.2,0.6,11.2,1.6,15.2,2.9c4,1.3,7.7,3.1,11.2,5.3
					c3.5,2.3,6.5,5,9.2,8.2c2.6,3.2,4.7,6.8,6.2,10.7c1.5,4,2.3,8.2,2.3,12.7c0,9.9-3.1,18.4-9.4,25.5c-6.3,7.1-16.1,12.2-29.5,15.2
					l32.6,45.4c3.8,5.2,7.2,9.5,10.2,12.9c3,3.4,5.9,6.1,8.9,8c3,2,6.1,3.4,9.4,4.4c3.3,0.9,7.2,1.6,11.8,2.1V532z M3979.5,450.5
					c1.5,0,2.8,0,3.9,0.1c1.1,0.1,2,0.1,2.7,0.1c7.6,0,14.2-0.9,19.9-2.6c5.7-1.7,10.5-4.2,14.3-7.3c3.8-3.1,6.7-6.8,8.6-11.1
					c1.9-4.2,2.9-8.9,2.9-13.9c0-4.9-0.8-9.4-2.4-13.5c-1.6-4.1-4-7.7-7-10.6c-3-3-6.6-5.3-10.8-6.9c-4.2-1.6-8.8-2.4-13.8-2.4
					c-4.8,0-10.9,0.8-18.3,2.3V450.5z"/>
				<path d="M4086.9,373.3h42.9l97.1,119.1v-91.5c0-5.4-0.4-9.6-1.1-12.7c-0.8-3.1-1.9-5.5-3.3-7c-1.5-1.5-3.2-2.5-5.3-2.9
					c-2.1-0.4-4.5-0.6-7.2-0.6h-5.6v-4.4h55.3v4.4h-5.8c-2.8,0-5.2,0.2-7.3,0.7c-2.1,0.5-3.8,1.5-5.2,3.1c-1.4,1.6-2.4,4-3.1,7
					c-0.7,3-1,7.2-1,12.4v133.7h-4.2l-104.6-127.8v97.8c0,5.5,0.4,9.7,1.1,12.8c0.8,3.1,1.8,5.4,3.2,6.9c1.4,1.5,3.1,2.4,5.2,2.8
					c2.1,0.3,4.5,0.5,7.2,0.5h5.6v4.4h-55.2v-4.4h5.6c2.8,0,5.2-0.2,7.3-0.7c2.1-0.5,3.9-1.5,5.3-3.1c1.5-1.6,2.5-3.9,3.2-6.9
					c0.7-3,1-7.2,1-12.4V394.3c-2.3-2.8-4.3-5-5.8-6.6c-1.6-1.6-3.1-3-4.5-4c-1.4-1-2.9-1.9-4.5-2.6c-1.6-0.7-3.7-1.5-6.1-2.3
					c-2.3-0.7-5.8-1-10.3-1V373.3z"/>
				<path d="M4336.9,527.7v4.4H4269v-4.4h5.6c2.8,0,5.3-0.2,7.4-0.6c2.2-0.4,3.9-1.4,5.3-3c1.4-1.6,2.5-4,3.2-7.2
					c0.8-3.2,1.1-7.5,1.1-13V401.4c0-3.6-0.1-6.6-0.3-9c-0.2-2.4-0.5-4.3-0.9-5.8c-0.4-1.5-1-2.7-1.8-3.6c-0.8-0.9-1.9-1.7-3.3-2.5
					c-3.5-1.9-7.1-2.8-10.8-2.8h-5.6v-4.4h67.9v4.4h-5.6c-2.8,0-5.3,0.2-7.4,0.7c-2.2,0.5-3.9,1.5-5.3,3.1s-2.5,4-3.2,7.2
					c-0.8,3.2-1.1,7.5-1.1,12.8v102.5c0,3.7,0.1,6.7,0.2,9.1c0.1,2.3,0.4,4.2,0.9,5.8c0.5,1.5,1.1,2.7,2,3.6s2,1.7,3.4,2.5
					c3.3,1.9,6.8,2.8,10.6,2.8H4336.9z"/>
				<path d="M4481.4,373.3v37.4h-2.6c-1.3-10-4.2-17.1-8.8-21.2c-4.6-4.1-11.4-6.2-20.3-6.2h-22.3v121.3c0,5.4,0.4,9.6,1.1,12.7
					c0.8,3.1,1.8,5.4,3.2,6.9c1.4,1.5,3.1,2.5,5.2,2.9c2.1,0.4,4.5,0.6,7.3,0.6h5.4v4.4h-67.2v-4.4h5.6c2.8,0,5.2-0.2,7.3-0.7
					c2.1-0.5,3.8-1.5,5.2-3.1c1.4-1.6,2.5-3.9,3.2-6.9c0.8-3,1.1-7.2,1.1-12.4V383.3h-19c-4.8,0-9,0.4-12.7,1.1
					c-3.7,0.8-6.8,2.2-9.5,4.2c-2.7,2-4.8,4.8-6.4,8.4c-1.6,3.6-2.5,8.1-2.9,13.7h-4.4v-37.4H4481.4z"/>
				<path d="M4603.5,377.7v-4.4h56v4.4h-5.9c-6.1,0-10.8,2.6-14.3,7.9c-1.6,2.3-2.4,8-2.4,16.9v64.2c0,15.6-1.6,28-4.9,37.2
					c-1.6,4.4-4,8.6-7,12.4c-3,3.8-6.9,7.2-11.5,10c-4.7,2.9-10.1,5.1-16.3,6.8c-6.2,1.7-13.4,2.5-21.4,2.5
					c-8.7,0-16.4-0.8-22.9-2.3c-6.5-1.5-12.1-3.7-16.8-6.6c-4.7-2.9-8.5-6.4-11.5-10.5c-3-4.1-5.5-8.7-7.3-13.8
					c-2.6-7.1-3.8-20.1-3.8-39.1v-62c0-4.9-0.3-8.9-1-12c-0.6-3.1-1.7-5.5-3.1-7.2c-1.4-1.7-3.2-2.9-5.3-3.6c-2.2-0.6-4.7-1-7.6-1
					h-6.1v-4.4h68.6v4.4h-6.1c-2.8,0-5.2,0.3-7.3,0.9c-2.1,0.6-3.8,1.7-5.2,3.4c-1.4,1.7-2.5,4.1-3.2,7.2c-0.8,3.1-1.1,7.2-1.1,12.3
					v69.1c0,7,0.5,13.8,1.4,20.4c0.9,6.6,2.9,12.5,5.8,17.7c2.9,5.2,7.1,9.3,12.5,12.4c5.4,3.1,12.6,4.6,21.6,4.6
					c5.1,0,10.1-0.6,14.8-1.8c4.8-1.2,9.1-2.9,13-5c3.9-2.1,7.3-4.6,10.2-7.6c2.9-3,5.1-6.2,6.5-9.7c3-6.9,4.5-18.9,4.5-36v-64.2
					c0-9.8-1.1-15.9-3.3-18.5c-3-3.5-7.5-5.2-13.4-5.2H4603.5z"/>
				<path d="M4824,532h-42.2l-53.8-74.2c-2,0.1-3.8,0.2-5.3,0.3c-1.6,0.1-3,0.1-4.3,0.1c-1,0-2.2,0-3.3-0.1
					c-1.2-0.1-2.4-0.1-3.7-0.3v46.1c0,5.6,0.4,10,1.1,13.2c0.8,3.2,1.9,5.6,3.3,7.2c1.5,1.6,3.2,2.5,5.2,2.9c2,0.3,4.3,0.5,6.9,0.5
					h6.3v4.4h-68.1v-4.4h6.1c6.5,0,11.3-2.2,14.3-6.5c1.6-2.6,2.4-8.3,2.4-17.3V401.4c0-9.8-1.1-15.9-3.3-18.5
					c-3-3.5-7.5-5.2-13.4-5.2h-6.1v-4.4h57.8c8.5,0,15.8,0.3,22,1c6.2,0.6,11.2,1.6,15.2,2.9c4,1.3,7.7,3.1,11.2,5.3
					c3.5,2.3,6.5,5,9.2,8.2c2.6,3.2,4.7,6.8,6.2,10.7c1.5,4,2.3,8.2,2.3,12.7c0,9.9-3.1,18.4-9.4,25.5c-6.3,7.1-16.1,12.2-29.5,15.2
					l32.6,45.4c3.8,5.2,7.2,9.5,10.2,12.9c3,3.4,5.9,6.1,8.9,8c3,2,6.1,3.4,9.4,4.4c3.3,0.9,7.2,1.6,11.8,2.1V532z M4711.4,450.5
					c1.5,0,2.8,0,3.9,0.1c1.1,0.1,2,0.1,2.7,0.1c7.6,0,14.2-0.9,19.9-2.6c5.7-1.7,10.5-4.2,14.3-7.3c3.8-3.1,6.7-6.8,8.6-11.1
					c1.9-4.2,2.9-8.9,2.9-13.9c0-4.9-0.8-9.4-2.4-13.5c-1.6-4.1-4-7.7-7-10.6c-3-3-6.6-5.3-10.8-6.9c-4.2-1.6-8.8-2.4-13.8-2.4
					c-4.8,0-10.9,0.8-18.3,2.3V450.5z"/>
				<path d="M4872,382.1v62.7h34.7c5.1,0,9.3-0.5,12.4-1.4c3.1-0.9,5.6-2.3,7.4-4.2c1.8-1.9,3.1-4.2,3.8-7.2
					c0.7-2.9,1.2-6.3,1.4-10.3h4.4v55.2h-4.4c-0.6-4.5-1.3-8.3-2-11.3c-0.8-3-2-5.4-3.7-7.2c-1.7-1.8-4-3.1-7.1-3.8
					c-3-0.8-7.1-1.1-12.2-1.1H4872v52.4c0,4,0.1,7.1,0.2,9.4c0.1,2.3,0.6,4.1,1.4,5.3c0.8,1.2,2.1,2,3.8,2.4
					c1.7,0.3,4.3,0.5,7.7,0.5h26.9c4.5,0,8.4-0.1,11.5-0.3c3.1-0.2,5.8-0.7,8.1-1.4c2.3-0.7,4.3-1.7,6-2.9c1.7-1.2,3.6-2.8,5.6-4.6
					c4.7-4.5,9.6-11.8,14.8-21.8h4.7l-13.8,39.8h-122.2v-4.4h5.6c1.5,0,3.1-0.2,4.7-0.5c1.6-0.3,3.2-0.8,4.6-1.5
					c1.5-0.6,2.8-1.5,3.9-2.5c1.2-1,2-2.3,2.4-3.7c0.9-2.6,1.4-7.7,1.4-15.4v-103c0-10.1-1-16.4-3-18.7c-2.8-3.1-7.5-4.7-14.1-4.7
					h-5.6v-4.4h122.2v34.7h-2.8c-1.2-5.7-2.4-10.3-3.8-13.7c-1.3-3.4-3.1-6.1-5.3-7.9c-2.2-1.9-5-3.1-8.5-3.6
					c-3.4-0.5-7.8-0.8-13.2-0.8H4872z"/>
			</g>
		</g>
	</g>
	<g id="SELECTOR-ELEMENTOS-MADERA-SUB">
		<circle class="st1" cx="4198.5" cy="1688.7" r="598"/>
		<ellipse class="st2" cx="4195.8" cy="1687.6" rx="604.2" ry="599.6"/>
		<line class="st3" x1="3671.2" y1="1427.4" x2="4731.3" y2="1427.4"/>
		<line class="st3" x1="4655.5" y1="2079.5" x2="3747.7" y2="2079.4"/>
		<line class="st4" x1="3994.6" y1="1468.5" x2="3994.6" y2="2038.3"/>
		<line class="st5" x1="4078.7" y1="1468.5" x2="3910.4" y2="1468.5"/>
		<line class="st5" x1="4078.7" y1="2038.1" x2="3910.4" y2="2038.1"/>
		<g>
			<path d="M4076.4,1711.2l36.3-17.8h3.6v126.1c0,4.4,0.1,7.8,0.2,10.3c0.1,2.5,0.4,4.4,0.8,5.7c0.4,1.3,1,2.2,1.6,2.8
				c0.7,0.5,1.6,1.1,2.8,1.6c2.2,1.2,6.7,1.8,13.5,1.8v4.1h-56.2v-4.1c3.6,0,6.5-0.2,8.7-0.5c2.2-0.3,3.9-0.7,5.1-1.2
				c1.2-0.5,2.1-1.1,2.7-1.9c0.6-0.8,1.1-1.6,1.4-2.5c0.8-1.6,1.2-7,1.2-16.1v-80.8c0-6.4-0.1-11.4-0.4-15c-0.3-3.7-0.7-6.4-1.4-8.1
				c-0.7-1.8-1.5-2.9-2.6-3.4c-1.1-0.5-2.5-0.7-4.3-0.7c-3.1,0-6.9,1-11.3,3L4076.4,1711.2z"/>
			<path d="M4191.1,1824.5c3.3,0,6.1,1.2,8.6,3.5c2.4,2.4,3.6,5.2,3.6,8.6c0,3.4-1.2,6.3-3.6,8.7c-2.4,2.4-5.3,3.6-8.6,3.6
				c-3.4,0-6.3-1.2-8.7-3.6c-2.4-2.4-3.6-5.3-3.6-8.7c0-3.5,1.2-6.4,3.6-8.7C4184.8,1825.7,4187.7,1824.5,4191.1,1824.5z"/>
			<path d="M4317.2,1696.4l-8.7,18.8h-44.9l-9.9,20.1c8.9,1.3,17.1,3.6,24.6,7c7.5,3.3,14,7.5,19.3,12.4c5.4,4.9,9.6,10.6,12.6,17
				c3,6.4,4.5,13.3,4.5,20.6c0,9.1-1.9,17.1-5.8,24.1c-3.8,7-8.7,12.8-14.6,17.6c-5.9,4.8-12.3,8.4-19.2,10.9
				c-6.9,2.5-13.4,3.7-19.6,3.7c-4.6,0-8.5-0.4-11.8-1.2c-3.2-0.8-5.9-1.9-7.9-3.4c-2-1.4-3.5-3-4.5-4.7c-1-1.7-1.5-3.5-1.5-5.3
				c0-2.1,0.8-3.9,2.5-5.5c1.6-1.6,3.8-2.4,6.4-2.4c1,0,1.9,0.1,2.6,0.2c0.8,0.1,1.6,0.4,2.4,0.7c0.8,0.4,1.8,0.9,3,1.6
				c1.2,0.7,2.6,1.7,4.4,2.9c2.7,2,5.5,3.4,8.3,4.4c2.8,0.9,5.6,1.4,8.5,1.4c4.3,0,8.4-0.9,12.3-2.6c3.9-1.8,7.3-4.1,10.3-7.2
				c3-3,5.3-6.6,7.2-10.6c1.8-4.1,2.7-8.4,2.7-13.2c0-4.5-0.8-8.9-2.3-13.2c-1.5-4.3-3.7-8.3-6.6-12.1c-2.9-3.8-6.3-7.2-10.3-10.3
				c-4-3.1-8.5-5.7-13.6-7.9c-4.1-1.8-8.8-3-14.2-3.9c-5.4-0.8-11.6-1.4-18.5-1.7l28.6-58.2H4317.2z"/>
			<path d="M4524.3,1693.1l3.5,50.8h-3.5c-4.6-15.2-11.1-26.2-19.5-32.9c-8.4-6.7-18.5-10-30.3-10c-7.7,0-14.7,1.5-21.2,4.4
				c-6.5,2.9-12,7.4-16.7,13.4c-4.7,6-8.3,13.6-10.9,22.7c-2.6,9.1-3.9,19.8-3.9,32.2c0,10,1.2,19,3.7,27.1
				c2.5,8.1,6.1,15,10.9,20.8c4.8,5.8,10.6,10.2,17.5,13.3c6.9,3.1,14.9,4.7,23.8,4.7c9.4,0,18-2.1,25.7-6.2
				c7.3-3.8,15.5-12.1,24.5-24.7l3.5,2.1c-7.6,13.3-16.3,23-26.2,29.2c-9.9,6.2-21.8,9.3-35.6,9.3c-10.6,0-20.4-1.9-29.3-5.6
				c-8.9-3.7-16.5-9-22.9-15.7c-6.4-6.7-11.4-14.7-15-24c-3.6-9.3-5.4-19.4-5.4-30.5c0-15,3.3-28.7,10-41.1
				c6.6-12.5,15.7-22.1,27.5-28.9c11.8-6.9,24.7-10.4,38.5-10.4c10.9,0,21.5,2.6,31.9,7.9c3.1,1.6,5.3,2.5,6.6,2.5c2.4,0,4.4-1,6-3
				c1.6-2,2.7-4.4,3.4-7.4H4524.3z"/>
			<path d="M4631.2,1845.9l-57.7-125.7v99.8c0,5.2,0.4,9.2,1.1,12.1c0.7,2.9,1.8,5.1,3.1,6.5c1.4,1.4,3,2.3,5,2.6
				c2,0.3,4.2,0.5,6.7,0.5h5.3v4.1h-52v-4.1h5.3c2.6,0,4.9-0.2,6.9-0.6c2-0.4,3.6-1.3,4.9-2.8c1.3-1.5,2.3-3.7,3-6.6
				c0.7-2.9,1-6.8,1-11.8v-97.7c0-3.5-0.2-6.6-0.5-9.3c-0.3-2.7-1.2-5-2.5-6.8c-1.4-1.9-3.5-3.3-6.3-4.3c-2.8-1-6.7-1.5-11.8-1.5
				v-4.1h42.3l54.3,116.9l53.3-116.9h42.3v4.1h-5.1c-2.7,0-5.1,0.2-7.1,0.7c-2,0.4-3.6,1.4-4.9,2.9c-1.3,1.5-2.3,3.7-3,6.6
				c-0.7,2.9-1,6.8-1,11.8v97.7c0,5.2,0.4,9.2,1.1,12.1c0.7,2.9,1.8,5.1,3.1,6.5c1.4,1.4,3,2.3,5,2.6c2,0.3,4.2,0.5,6.7,0.5h5.1v4.1
				h-63.5v-4.1h5.3c2.6,0,4.9-0.2,6.9-0.7c2-0.4,3.6-1.4,5-2.9c1.4-1.5,2.4-3.6,3-6.5c0.7-2.9,1-6.7,1-11.7v-99.8l-57.6,125.7
				H4631.2z"/>
		</g>
		<circle class="st6" cx="4196.8" cy="1686.4" r="598"/>
	</g>
	<g>
		<g>
			<path d="M5049.4,1193.6v25.9h-1.8c-0.9-6.9-2.9-11.8-6.1-14.7c-3.2-2.9-7.9-4.3-14.1-4.3h-15.5v84.1c0,3.7,0.3,6.6,0.8,8.8
				c0.5,2.1,1.3,3.7,2.2,4.8c1,1,2.2,1.7,3.6,2c1.5,0.3,3.1,0.4,5.1,0.4h3.8v3h-46.6v-3h3.9c1.9,0,3.6-0.2,5.1-0.5
				c1.5-0.3,2.7-1,3.6-2.1c1-1.1,1.7-2.7,2.2-4.8c0.5-2.1,0.8-5,0.8-8.6v-84.1h-13.2c-3.3,0-6.2,0.3-8.8,0.8
				c-2.5,0.5-4.7,1.5-6.6,2.9c-1.9,1.4-3.3,3.3-4.4,5.8c-1.1,2.5-1.8,5.6-2,9.5h-3v-25.9H5049.4z"/>
			<path d="M5088.8,1244.6h51.1v-31.5c0-2.6,0-4.7-0.1-6.4c-0.1-1.7-0.3-3-0.6-4.1c-0.3-1-0.8-1.9-1.4-2.5c-0.6-0.6-1.4-1.2-2.4-1.8
				c-2.3-1.3-4.7-1.9-7.4-1.9h-3.9v-3h47.1v3h-3.9c-1,0-2.2,0.1-3.3,0.4c-1.2,0.2-2.3,0.6-3.3,1.1c-1,0.5-1.9,1.1-2.7,1.8
				c-0.8,0.7-1.4,1.6-1.7,2.5c-0.6,1.7-0.8,5.3-0.8,10.8v70.9c0,2.6,0.1,4.7,0.2,6.3c0.1,1.6,0.3,2.9,0.6,4c0.3,1,0.7,1.9,1.3,2.5
				c0.6,0.6,1.3,1.2,2.3,1.8c2.3,1.3,4.8,1.9,7.5,1.9h3.9v3h-47.1v-3h3.9c1.9,0,3.5-0.1,5-0.4c1.5-0.3,2.7-1,3.8-2.1
				c1-1.1,1.8-2.7,2.4-5c0.5-2.2,0.8-5.2,0.8-9v-33.5h-51.1v33.5c0,2.6,0,4.7,0.1,6.3c0.1,1.6,0.3,2.9,0.6,4c0.3,1,0.8,1.9,1.4,2.5
				s1.4,1.2,2.4,1.8c2.3,1.3,4.7,1.9,7.4,1.9h4v3h-47.2v-3h4c4.4,0,7.7-1.3,9.8-4c1.3-1.6,1.9-5.8,1.9-12.5v-70.9
				c0-2.7,0-4.8-0.1-6.5c-0.1-1.7-0.3-3-0.6-4c-0.3-1-0.8-1.8-1.3-2.4c-0.6-0.6-1.3-1.2-2.3-1.8c-2.3-1.3-4.7-1.9-7.4-1.9h-4v-3
				h47.2v3h-4c-1,0-2,0.1-3.2,0.4c-1.2,0.2-2.3,0.6-3.3,1.1c-1,0.5-1.9,1.1-2.7,1.8c-0.8,0.7-1.4,1.6-1.7,2.5c-0.6,1.9-1,5.5-1,10.8
				V1244.6z"/>
			<path d="M5225.8,1300.5v3h-47.1v-3h3.9c1.9,0,3.6-0.1,5.1-0.4c1.5-0.3,2.7-1,3.7-2.1s1.7-2.7,2.2-5c0.5-2.2,0.8-5.2,0.8-9v-71
				c0-2.5-0.1-4.6-0.2-6.2c-0.1-1.7-0.3-3-0.6-4.1c-0.3-1-0.7-1.9-1.3-2.5c-0.6-0.6-1.3-1.2-2.3-1.8c-2.4-1.3-4.9-1.9-7.5-1.9h-3.9
				v-3h47.1v3h-3.9c-1.9,0-3.7,0.2-5.1,0.5c-1.5,0.3-2.7,1-3.7,2.1c-1,1.1-1.7,2.7-2.2,5c-0.5,2.2-0.8,5.2-0.8,8.9v71
				c0,2.6,0,4.7,0.1,6.3c0.1,1.6,0.3,2.9,0.6,4c0.3,1,0.8,1.9,1.4,2.5s1.4,1.2,2.4,1.8c2.3,1.3,4.7,1.9,7.4,1.9H5225.8z"/>
			<path d="M5329.8,1191.1l2.5,37.4h-2.5c-3.4-11.2-8.2-19.3-14.3-24.2c-6.2-4.9-13.6-7.4-22.3-7.4c-5.6,0-10.8,1.1-15.6,3.2
				c-4.8,2.1-8.9,5.4-12.3,9.9c-3.4,4.4-6.1,10-8,16.7c-1.9,6.7-2.9,14.6-2.9,23.7c0,7.3,0.9,14,2.7,20c1.8,6,4.5,11.1,8,15.3
				c3.5,4.2,7.8,7.5,12.9,9.8c5.1,2.3,10.9,3.4,17.5,3.4c6.9,0,13.2-1.5,18.9-4.6c5.4-2.8,11.4-8.9,18-18.1l2.5,1.6
				c-5.6,9.8-12,16.9-19.3,21.5c-7.3,4.6-16,6.8-26.2,6.8c-7.8,0-15-1.4-21.5-4.1c-6.5-2.7-12.2-6.6-16.9-11.6
				c-4.7-5-8.4-10.8-11.1-17.7c-2.7-6.8-4-14.3-4-22.4c0-11,2.5-21.1,7.4-30.2c4.8-9.2,11.6-16.3,20.2-21.3
				c8.7-5.1,18.1-7.6,28.3-7.6c8,0,15.8,1.9,23.5,5.8c2.3,1.2,3.9,1.8,4.8,1.8c1.8,0,3.2-0.7,4.4-2.2c1.2-1.5,2-3.3,2.5-5.4H5329.8z
				"/>
			<path d="M5390.2,1242.6l40.5,40.3c3.4,3.4,6.5,6.2,9.2,8.4c2.7,2.2,5.3,4,7.7,5.3c2.4,1.3,4.8,2.3,7.1,2.9c2.3,0.6,4.7,0.9,7.1,1
				v3h-52.3v-3c3.5,0,5.8-0.6,7-1.8c1.2-1.2,1.8-2.5,1.8-3.9c0-0.6,0-1.1-0.1-1.5c-0.1-0.4-0.3-0.9-0.7-1.5
				c-0.4-0.6-0.9-1.3-1.8-2.2c-0.8-0.9-1.9-2-3.3-3.4l-38-37.6v35.4c0,2.6,0.1,4.7,0.2,6.3c0.1,1.6,0.3,2.9,0.6,4
				c0.3,1,0.7,1.9,1.3,2.5s1.4,1.2,2.4,1.8c2.3,1.3,4.8,1.9,7.4,1.9h3.8v3h-46.8v-3h3.9c4.5,0,7.8-1.3,9.9-4
				c1.3-1.8,1.9-5.9,1.9-12.5v-71c0-2.4,0-4.5-0.1-6.1c-0.1-1.7-0.3-3-0.6-4.1c-0.3-1-0.8-1.9-1.3-2.6c-0.6-0.7-1.3-1.3-2.3-1.8
				c-2.6-1.3-5.1-1.9-7.5-1.9h-3.9v-3h46.8v3h-3.8c-2,0-4.1,0.4-6.4,1.3c-2.2,0.9-3.7,2.4-4.5,4.5c-0.6,1.8-1,5.3-1,10.6v33.6
				c0.1-0.1,0.6-0.6,1.6-1.5c1-0.9,2.1-2,3.4-3.1c1.2-1.1,2.5-2.3,3.6-3.4c1.2-1.1,2-1.9,2.5-2.3c5.9-5.4,10.8-10,14.9-13.9
				c4-3.9,7.3-7.2,9.7-9.9c2.4-2.7,4.2-5,5.2-6.8c1-1.8,1.6-3.3,1.6-4.5c0-1.3-0.6-2.4-1.7-3.3c-1.1-0.9-3.1-1.4-5.8-1.4h-2.5v-3
				h40.4v3c-1.5,0.1-2.9,0.2-4.4,0.4c-1.5,0.2-3.1,0.7-5,1.5c-1.8,0.8-3.9,2.1-6.2,3.8c-2.3,1.7-5.1,4-8.3,7c-0.6,0.6-2.3,2.2-5,5
				s-6.5,6.6-11.5,11.6L5390.2,1242.6z"/>
			<path d="M5458.3,1193.6h29.8l67.3,82.5v-63.4c0-3.7-0.3-6.7-0.8-8.8c-0.5-2.2-1.3-3.8-2.3-4.8c-1-1-2.2-1.7-3.7-2
				c-1.5-0.3-3.1-0.4-5-0.4h-3.9v-3h38.4v3h-4c-1.9,0-3.6,0.2-5.1,0.5c-1.5,0.3-2.7,1-3.6,2.2c-1,1.1-1.7,2.7-2.2,4.8
				c-0.5,2.1-0.7,5-0.7,8.6v92.7h-2.9l-72.5-88.6v67.8c0,3.8,0.3,6.8,0.8,8.9c0.5,2.1,1.3,3.7,2.2,4.8c1,1,2.2,1.7,3.6,1.9
				c1.5,0.2,3.1,0.4,5,0.4h3.9v3h-38.2v-3h3.9c1.9,0,3.6-0.2,5.1-0.5c1.5-0.3,2.7-1,3.7-2.1c1-1.1,1.8-2.7,2.2-4.8
				c0.5-2.1,0.7-5,0.7-8.6v-76.5c-1.6-1.9-3-3.5-4.1-4.6c-1.1-1.1-2.1-2.1-3.1-2.8c-1-0.7-2-1.3-3.1-1.8c-1.1-0.5-2.5-1-4.2-1.6
				c-1.6-0.5-4-0.7-7.1-0.7V1193.6z"/>
			<path d="M5615.1,1199.6v43.4h24.1c3.5,0,6.4-0.3,8.6-1c2.2-0.6,3.9-1.6,5.1-2.9c1.2-1.3,2.1-2.9,2.6-5c0.5-2,0.8-4.4,1-7.1h3
				v38.2h-3c-0.4-3.1-0.9-5.8-1.4-7.9c-0.5-2.1-1.4-3.8-2.5-5c-1.2-1.2-2.8-2.1-4.9-2.7c-2.1-0.5-4.9-0.8-8.5-0.8h-24.1v36.3
				c0,2.7,0,4.9,0.1,6.5c0.1,1.6,0.4,2.8,1,3.7c0.6,0.8,1.5,1.4,2.7,1.6c1.2,0.2,3,0.4,5.3,0.4h18.6c3.1,0,5.8-0.1,8-0.2
				c2.2-0.2,4.1-0.5,5.6-1c1.6-0.5,3-1.1,4.2-2c1.2-0.8,2.5-1.9,3.9-3.2c3.2-3.1,6.7-8.2,10.3-15.1h3.3l-9.6,27.6h-84.7v-3h3.9
				c1,0,2.1-0.1,3.3-0.4c1.1-0.2,2.2-0.6,3.2-1c1-0.4,1.9-1,2.7-1.8c0.8-0.7,1.4-1.6,1.7-2.5c0.6-1.8,1-5.3,1-10.6v-71.4
				c0-7-0.7-11.3-2.1-12.9c-1.9-2.2-5.2-3.3-9.8-3.3h-3.9v-3h84.7v24.1h-1.9c-0.8-4-1.7-7.1-2.6-9.5c-0.9-2.4-2.2-4.2-3.7-5.5
				c-1.5-1.3-3.5-2.1-5.9-2.5c-2.4-0.4-5.4-0.5-9.1-0.5H5615.1z"/>
			<path d="M5757.9,1191.1v38h-3c-1.4-10.2-4.7-18.1-10-23.5c-5.3-5.4-12.1-8.1-20.3-8.1c-2.8,0-5.4,0.5-7.7,1.5
				c-2.3,1-4.4,2.2-6.2,3.8c-1.8,1.6-3.1,3.4-4.1,5.4c-1,2-1.5,4.1-1.5,6.3c0,2,0.4,3.9,1.2,5.7c0.8,1.8,3.3,4.7,7.5,8.5
				c7,4.4,13.3,8.1,18.8,11c5.2,2.8,12.1,7.1,20.9,12.8c3.8,2.9,6.7,6.4,8.7,10.3c2,4,3,8.2,3,12.5c0,4.1-0.8,8-2.5,11.7
				c-1.7,3.7-4.1,7-7.1,9.7c-3,2.8-6.7,5-10.9,6.7c-4.3,1.7-9,2.5-14,2.5c-3.2,0-6.2-0.2-9-0.7c-0.5-0.1-1.8-0.4-3.8-1
				c-2.1-0.6-4.3-1.2-6.6-1.9c-2.3-0.6-4.5-1.2-6.5-1.8c-2-0.6-3.2-0.8-3.5-0.8c-1.4,0-2.4,0.4-3.2,1.2c-0.8,0.8-1.4,2.5-1.8,5.1h-3
				v-37.7h3c1.5,7.7,3.3,13.7,5.7,17.8c1.1,1.9,2.6,3.7,4.5,5.4c1.9,1.7,4,3.1,6.4,4.4c2.4,1.3,4.9,2.2,7.7,2.9c2.7,0.7,5.5,1,8.3,1
				c3.4,0,6.4-0.5,9.1-1.5c2.7-1,5-2.3,6.9-3.9c1.9-1.7,3.3-3.6,4.4-5.7c1-2.2,1.5-4.5,1.5-6.9c0-2.7-0.7-5.5-2.2-8.2
				c-1.5-2.7-4-5.4-7.6-8.1c-3.5-2.1-7.6-4.6-12.3-7.4c-9.1-5.2-17.2-10.3-24.3-15.1c-4-3.1-7-6.6-9-10.3c-2.1-3.8-3.1-7.9-3.1-12.5
				c0-3.9,0.8-7.6,2.4-11.1c1.6-3.5,3.9-6.6,6.7-9.3c2.9-2.7,6.3-4.8,10.2-6.3c4-1.5,8.2-2.3,12.8-2.3c5.8,0,12,1.4,18.5,4.2
				c1.5,0.6,2.8,1.2,3.9,1.6c1,0.4,1.9,0.6,2.5,0.5c1.5,0,2.6-0.4,3.5-1.2c0.9-0.8,1.6-2.5,2.1-5.1H5757.9z"/>
			<path d="M5850.2,1191.1v38h-3c-1.4-10.2-4.7-18.1-10-23.5c-5.3-5.4-12.1-8.1-20.3-8.1c-2.8,0-5.4,0.5-7.7,1.5
				c-2.3,1-4.4,2.2-6.2,3.8c-1.8,1.6-3.1,3.4-4.1,5.4c-1,2-1.5,4.1-1.5,6.3c0,2,0.4,3.9,1.2,5.7c0.8,1.8,3.3,4.7,7.5,8.5
				c7,4.4,13.3,8.1,18.8,11c5.2,2.8,12.1,7.1,20.9,12.8c3.8,2.9,6.7,6.4,8.7,10.3c2,4,3,8.2,3,12.5c0,4.1-0.8,8-2.5,11.7
				c-1.7,3.7-4.1,7-7.1,9.7c-3,2.8-6.7,5-10.9,6.7c-4.3,1.7-9,2.5-14,2.5c-3.2,0-6.2-0.2-9-0.7c-0.5-0.1-1.8-0.4-3.8-1
				c-2.1-0.6-4.3-1.2-6.6-1.9c-2.3-0.6-4.5-1.2-6.5-1.8c-2-0.6-3.2-0.8-3.5-0.8c-1.4,0-2.4,0.4-3.2,1.2c-0.8,0.8-1.4,2.5-1.8,5.1h-3
				v-37.7h3c1.5,7.7,3.3,13.7,5.7,17.8c1.1,1.9,2.6,3.7,4.5,5.4c1.9,1.7,4,3.1,6.4,4.4c2.4,1.3,4.9,2.2,7.7,2.9c2.7,0.7,5.5,1,8.3,1
				c3.4,0,6.4-0.5,9.1-1.5c2.7-1,5-2.3,6.9-3.9c1.9-1.7,3.3-3.6,4.4-5.7c1-2.2,1.5-4.5,1.5-6.9c0-2.7-0.7-5.5-2.2-8.2
				c-1.5-2.7-4-5.4-7.6-8.1c-3.5-2.1-7.6-4.6-12.3-7.4c-9.1-5.2-17.2-10.3-24.3-15.1c-4-3.1-7-6.6-9-10.3s-3.1-7.9-3.1-12.5
				c0-3.9,0.8-7.6,2.4-11.1c1.6-3.5,3.9-6.6,6.7-9.3c2.9-2.7,6.3-4.8,10.2-6.3c4-1.5,8.2-2.3,12.8-2.3c5.8,0,12,1.4,18.5,4.2
				c1.5,0.6,2.8,1.2,3.9,1.6c1,0.4,1.9,0.6,2.5,0.5c1.5,0,2.6-0.4,3.5-1.2c0.9-0.8,1.6-2.5,2.1-5.1H5850.2z"/>
		</g>
		<g>
			<path d="M5014,1360.4c7,0,13.7,1.5,20.1,4.4c6.4,2.9,12,6.9,16.8,12s8.7,11.1,11.6,18c2.9,6.9,4.3,14.4,4.3,22.4
				c0,8.3-1.4,16-4.3,23.1c-2.9,7.1-6.7,13.2-11.6,18.5c-4.9,5.2-10.6,9.3-17.2,12.2c-6.6,2.9-13.6,4.4-21,4.4
				c-7.5,0-14.5-1.4-21.1-4.2c-6.5-2.8-12.2-6.8-17-11.9c-4.8-5.1-8.6-11.2-11.4-18.3c-2.8-7.1-4.2-14.9-4.2-23.5
				c0-7.9,1.4-15.3,4.2-22.3c2.8-6.9,6.6-13,11.5-18.1c4.9-5.1,10.7-9.2,17.4-12.2C4998.8,1361.9,5006.1,1360.4,5014,1360.4z
				 M5012.4,1366.4c-5.6,0-10.5,1.2-14.8,3.6c-4.3,2.4-7.9,5.8-10.9,10.2c-2.9,4.4-5.2,9.7-6.7,16c-1.5,6.3-2.3,13.3-2.3,21.1
				c0,7.7,0.7,14.8,2.2,21.2c1.5,6.4,3.7,11.9,6.7,16.6c2.9,4.6,6.6,8.2,10.9,10.8c4.4,2.5,9.4,3.8,15,3.8c5.1,0,9.8-1,14.1-2.9
				c4.3-1.9,8.1-4.9,11.3-9c3.2-4.1,5.7-9.3,7.6-15.6c1.8-6.3,2.7-13.9,2.7-22.7c0-8.3-0.7-15.7-2.2-22.3
				c-1.5-6.6-3.8-12.1-6.8-16.7c-3-4.6-6.8-8-11.3-10.4C5023.5,1367.6,5018.3,1366.4,5012.4,1366.4z"/>
			<path d="M5107.2,1368.9v43.2h20c2.3,0,4.3-0.2,6-0.7c1.7-0.4,3-1.2,4.2-2.4c1.1-1.1,2-2.7,2.7-4.6c0.6-1.9,1.2-4.4,1.6-7.4h3
				v37.1h-3c-0.1-2.7-0.4-5.1-0.8-7c-0.5-1.9-1.3-3.5-2.4-4.8c-1.1-1.2-2.5-2.2-4.4-2.7c-1.8-0.6-4.1-0.8-6.8-0.8h-20v34.5
				c0,2.6,0,4.7,0.1,6.3c0.1,1.6,0.3,2.9,0.6,4c0.3,1,0.8,1.9,1.4,2.5c0.6,0.6,1.4,1.2,2.4,1.8c2.3,1.3,4.7,1.9,7.4,1.9h4v3h-47.2
				v-3h3.9c1.9,0,3.6-0.1,5.1-0.4c1.5-0.3,2.7-1,3.7-2.1s1.7-2.7,2.2-5c0.5-2.2,0.8-5.2,0.8-9v-71c0-2.5-0.1-4.6-0.2-6.2
				c-0.1-1.7-0.3-3-0.6-4.1c-0.3-1-0.7-1.9-1.3-2.5c-0.6-0.6-1.3-1.2-2.3-1.7c-1.2-0.6-2.4-1.1-3.6-1.5c-1.2-0.3-2.5-0.5-3.9-0.5
				h-3.9v-3h81.8v24.2h-1.8c-1-4-2.2-7.1-3.6-9.5c-1.3-2.4-2.9-4.2-4.8-5.5c-1.9-1.3-4.1-2.1-6.7-2.5c-2.6-0.4-5.7-0.6-9.3-0.6
				H5107.2z"/>
			<path d="M5226.5,1373.7l26.7-13.1h2.7v92.8c0,3.2,0,5.7,0.1,7.6c0.1,1.8,0.3,3.2,0.6,4.2c0.3,1,0.7,1.7,1.2,2.1
				c0.5,0.4,1.2,0.8,2.1,1.2c1.6,0.9,4.9,1.3,9.9,1.3v3h-41.4v-3c2.7,0,4.8-0.1,6.4-0.4c1.6-0.2,2.9-0.5,3.8-0.9
				c0.9-0.4,1.6-0.8,2-1.4c0.4-0.6,0.8-1.2,1-1.8c0.6-1.2,0.8-5.2,0.8-11.9v-59.4c0-4.7-0.1-8.4-0.3-11.1c-0.2-2.7-0.5-4.7-1-6
				c-0.5-1.3-1.1-2.1-1.9-2.5c-0.8-0.4-1.9-0.5-3.1-0.5c-2.3,0-5,0.7-8.3,2.2L5226.5,1373.7z"/>
			<path d="M5310.8,1457.1c2.4,0,4.5,0.9,6.3,2.6c1.8,1.7,2.7,3.9,2.7,6.4c0,2.5-0.9,4.6-2.7,6.4c-1.8,1.8-3.9,2.7-6.3,2.7
				c-2.5,0-4.6-0.9-6.4-2.7c-1.8-1.8-2.7-3.9-2.7-6.4c0-2.6,0.9-4.7,2.7-6.4C5306.2,1458,5308.3,1457.1,5310.8,1457.1z"/>
			<path d="M5403.6,1362.9l-6.4,13.8h-33l-7.3,14.8c6.5,1,12.6,2.7,18.1,5.1c5.5,2.5,10.3,5.5,14.2,9.1c4,3.6,7,7.8,9.3,12.5
				c2.2,4.7,3.3,9.8,3.3,15.2c0,6.7-1.4,12.6-4.2,17.7c-2.8,5.1-6.4,9.4-10.7,12.9c-4.3,3.5-9,6.2-14.1,8c-5.1,1.8-9.9,2.7-14.4,2.7
				c-3.4,0-6.3-0.3-8.7-0.9c-2.4-0.6-4.3-1.4-5.8-2.5c-1.5-1-2.6-2.2-3.3-3.4c-0.7-1.2-1.1-2.6-1.1-3.9c0-1.5,0.6-2.9,1.8-4.1
				c1.2-1.2,2.8-1.8,4.7-1.8c0.7,0,1.4,0,1.9,0.1c0.6,0.1,1.1,0.3,1.8,0.5c0.6,0.3,1.3,0.7,2.2,1.2c0.8,0.5,1.9,1.2,3.2,2.1
				c2,1.5,4.1,2.5,6.1,3.2c2.1,0.7,4.1,1,6.2,1c3.1,0,6.1-0.6,9-1.9c2.9-1.3,5.4-3,7.6-5.3c2.2-2.2,3.9-4.8,5.3-7.8
				c1.3-3,2-6.2,2-9.7c0-3.3-0.6-6.5-1.7-9.7c-1.1-3.1-2.7-6.1-4.8-8.9c-2.1-2.8-4.6-5.3-7.6-7.6c-2.9-2.3-6.3-4.2-10-5.8
				c-3-1.3-6.5-2.2-10.5-2.8c-4-0.6-8.5-1-13.6-1.3l21.1-42.8H5403.6z"/>
			<path d="M5555.9,1360.4l2.5,37.4h-2.5c-3.4-11.2-8.2-19.3-14.3-24.2c-6.2-4.9-13.6-7.4-22.3-7.4c-5.6,0-10.8,1.1-15.6,3.2
				c-4.8,2.1-8.9,5.4-12.3,9.9c-3.4,4.4-6.1,10-8,16.7c-1.9,6.7-2.9,14.6-2.9,23.7c0,7.3,0.9,14,2.7,20c1.8,6,4.5,11.1,8,15.3
				c3.5,4.2,7.8,7.5,12.9,9.8c5.1,2.3,10.9,3.4,17.5,3.4c6.9,0,13.2-1.5,18.9-4.6c5.4-2.8,11.4-8.9,18-18.1l2.5,1.6
				c-5.6,9.8-12,16.9-19.3,21.5c-7.3,4.6-16,6.8-26.2,6.8c-7.8,0-15-1.4-21.5-4.1c-6.5-2.7-12.2-6.6-16.9-11.6
				c-4.7-5-8.4-10.8-11.1-17.7c-2.7-6.8-4-14.3-4-22.4c0-11.1,2.5-21.1,7.4-30.2c4.8-9.2,11.6-16.3,20.2-21.3
				c8.7-5.1,18.1-7.6,28.3-7.6c8,0,15.8,1.9,23.5,5.8c2.3,1.2,3.9,1.8,4.8,1.8c1.8,0,3.2-0.7,4.4-2.2c1.2-1.5,2-3.3,2.5-5.4H5555.9z
				"/>
			<path d="M5634.6,1472.8l-42.5-92.4v73.4c0,3.8,0.3,6.8,0.8,8.9c0.5,2.1,1.3,3.7,2.3,4.8c1,1,2.2,1.7,3.7,1.9
				c1.5,0.2,3.1,0.4,5,0.4h3.9v3h-38.2v-3h3.9c1.9,0,3.6-0.1,5.1-0.4c1.5-0.3,2.7-1,3.6-2.1s1.7-2.7,2.2-4.8c0.5-2.1,0.7-5,0.7-8.7
				V1382c0-2.6-0.1-4.9-0.4-6.8c-0.2-2-0.9-3.6-1.9-5c-1-1.4-2.5-2.4-4.6-3.1c-2.1-0.7-4.9-1.1-8.7-1.1v-3h31.1l39.9,86l39.2-86
				h31.1v3h-3.8c-2,0-3.8,0.2-5.2,0.5c-1.5,0.3-2.7,1-3.6,2.1c-1,1.1-1.7,2.7-2.2,4.8c-0.5,2.1-0.7,5-0.7,8.7v71.9
				c0,3.8,0.3,6.8,0.8,8.9c0.5,2.1,1.3,3.7,2.3,4.8c1,1,2.2,1.7,3.7,1.9c1.5,0.2,3.1,0.4,5,0.4h3.8v3h-46.7v-3h3.9
				c1.9,0,3.6-0.2,5.1-0.5c1.5-0.3,2.7-1,3.7-2.1c1-1.1,1.8-2.7,2.2-4.8c0.5-2.1,0.7-5,0.7-8.6v-73.4l-42.3,92.4H5634.6z"/>
		</g>
		<g>
			<path d="M5114.3,1539.9v3c-2.2,0-4,0.2-5.4,0.6c-1.4,0.4-2.7,1.3-3.9,2.7c-1.2,1.4-2.4,3.5-3.6,6.3c-1.2,2.8-2.6,6.5-4.2,11.2
				l-30.6,88.7h-3.3l-25-70.3l-24.8,70.3h-3l-32.7-91.3c-1.2-3.4-2.2-6.1-2.9-8c-0.7-2-1.3-3.3-1.7-3.9c-1.1-2.1-2.6-3.6-4.4-4.7
				c-1.8-1-4.3-1.5-7.6-1.5v-3h40.7v3h-1.9c-2.8,0-5,0.6-6.5,1.9c-1.5,1.3-2.3,2.9-2.3,4.7c0,1.9,1.2,6.3,3.6,13.1l21.7,61.7
				l18.1-52.5l-5.8-16.6c-0.9-2-1.8-3.8-2.7-5.3c-0.9-1.5-1.9-2.8-3-3.9c-1.1-1-2.5-1.8-4-2.4c-1.5-0.5-3.4-0.8-5.6-0.8v-3h42.7v3
				h-2.9c-3.1,0-5.3,0.6-6.7,1.9c-1.4,1.3-2.1,3.1-2.1,5.3c0,2.7,1.2,7.5,3.6,14.4l21.1,59.8l20.9-60.6c1.1-3.4,2-6.2,2.7-8.5
				c0.6-2.3,1-4.1,1-5.4c0-2.6-1.1-4.4-3.4-5.4c-2.3-1-5.2-1.5-8.8-1.5v-3H5114.3z"/>
			<path d="M5166.8,1646.8v3h-47.1v-3h3.9c1.9,0,3.6-0.1,5.1-0.4c1.5-0.3,2.7-1,3.7-2.1s1.7-2.7,2.2-5c0.5-2.2,0.8-5.2,0.8-9v-71
				c0-2.5-0.1-4.6-0.2-6.2c-0.1-1.7-0.3-3-0.6-4.1c-0.3-1-0.7-1.9-1.3-2.5c-0.6-0.6-1.3-1.2-2.3-1.8c-2.4-1.3-4.9-1.9-7.5-1.9h-3.9
				v-3h47.1v3h-3.9c-1.9,0-3.7,0.2-5.1,0.5c-1.5,0.3-2.7,1-3.7,2.1s-1.7,2.7-2.2,5c-0.5,2.2-0.8,5.2-0.8,8.9v71c0,2.6,0,4.7,0.1,6.3
				c0.1,1.6,0.3,2.9,0.6,4c0.3,1,0.8,1.9,1.4,2.5s1.4,1.2,2.4,1.8c2.3,1.3,4.7,1.9,7.4,1.9H5166.8z"/>
			<path d="M5266.9,1539.9v25.9h-1.8c-0.9-6.9-2.9-11.8-6.1-14.7c-3.2-2.9-7.9-4.3-14.1-4.3h-15.5v84.1c0,3.7,0.3,6.6,0.8,8.8
				c0.5,2.1,1.3,3.7,2.2,4.8c1,1,2.2,1.7,3.6,2c1.5,0.3,3.1,0.4,5.1,0.4h3.8v3h-46.6v-3h3.9c1.9,0,3.6-0.2,5.1-0.5
				c1.5-0.3,2.7-1,3.6-2.1c1-1.1,1.7-2.7,2.2-4.8c0.5-2.1,0.8-5,0.8-8.6v-84.1h-13.2c-3.3,0-6.2,0.3-8.8,0.8
				c-2.5,0.5-4.7,1.5-6.6,2.9c-1.9,1.4-3.3,3.3-4.4,5.8c-1.1,2.5-1.8,5.6-2,9.5h-3v-25.9H5266.9z"/>
			<path d="M5306.4,1590.9h51.1v-31.5c0-2.6,0-4.7-0.1-6.4c-0.1-1.7-0.3-3-0.6-4.1c-0.3-1-0.8-1.9-1.4-2.5s-1.4-1.2-2.4-1.8
				c-2.3-1.3-4.7-1.9-7.4-1.9h-3.9v-3h47.1v3h-3.9c-1,0-2.2,0.1-3.3,0.4c-1.2,0.2-2.3,0.6-3.3,1.1c-1,0.5-1.9,1.1-2.7,1.8
				c-0.8,0.7-1.4,1.6-1.7,2.5c-0.6,1.7-0.8,5.3-0.8,10.8v70.9c0,2.6,0.1,4.7,0.2,6.3c0.1,1.6,0.3,2.9,0.6,4c0.3,1,0.7,1.9,1.3,2.5
				c0.6,0.6,1.3,1.2,2.3,1.8c2.3,1.3,4.8,1.9,7.5,1.9h3.9v3h-47.1v-3h3.9c1.9,0,3.5-0.1,5-0.4c1.5-0.3,2.7-1,3.8-2.1
				c1-1.1,1.8-2.7,2.4-5c0.5-2.2,0.8-5.2,0.8-9v-33.5h-51.1v33.5c0,2.6,0,4.7,0.1,6.3c0.1,1.6,0.3,2.9,0.6,4c0.3,1,0.8,1.9,1.4,2.5
				s1.4,1.2,2.4,1.8c2.3,1.3,4.7,1.9,7.4,1.9h4v3h-47.2v-3h4c4.4,0,7.7-1.3,9.8-4c1.3-1.6,1.9-5.8,1.9-12.5v-70.9
				c0-2.7,0-4.8-0.1-6.5c-0.1-1.7-0.3-3-0.6-4c-0.3-1-0.8-1.8-1.3-2.4c-0.6-0.6-1.3-1.2-2.3-1.8c-2.3-1.3-4.7-1.9-7.4-1.9h-4v-3
				h47.2v3h-4c-1,0-2,0.1-3.2,0.4c-1.2,0.2-2.3,0.6-3.3,1.1c-1,0.5-1.9,1.1-2.7,1.8c-0.8,0.7-1.4,1.6-1.7,2.5c-0.6,1.9-1,5.5-1,10.8
				V1590.9z"/>
		</g>
		<g>
			<path d="M5021.6,1822.6l-42.5-92.4v73.4c0,3.8,0.3,6.8,0.8,8.9c0.5,2.1,1.3,3.7,2.3,4.8c1,1,2.2,1.7,3.7,1.9
				c1.5,0.2,3.1,0.4,5,0.4h3.9v3h-38.2v-3h3.9c1.9,0,3.6-0.1,5.1-0.4c1.5-0.3,2.7-1,3.6-2.1c1-1.1,1.7-2.7,2.2-4.8
				c0.5-2.1,0.7-5,0.7-8.7v-71.9c0-2.6-0.1-4.9-0.4-6.8c-0.2-2-0.9-3.6-1.9-5c-1-1.4-2.5-2.4-4.6-3.1c-2.1-0.7-4.9-1.1-8.7-1.1v-3
				h31.1l39.9,86l39.2-86h31.1v3h-3.8c-2,0-3.8,0.2-5.2,0.5c-1.5,0.3-2.7,1-3.6,2.1c-1,1.1-1.7,2.7-2.2,4.8c-0.5,2.1-0.7,5-0.7,8.7
				v71.9c0,3.8,0.3,6.8,0.8,8.9c0.5,2.1,1.3,3.7,2.3,4.8c1,1,2.2,1.7,3.7,1.9c1.5,0.2,3.1,0.4,5,0.4h3.8v3h-46.7v-3h3.9
				c1.9,0,3.6-0.2,5.1-0.5c1.5-0.3,2.7-1,3.7-2.1c1-1.1,1.8-2.7,2.2-4.8c0.5-2.1,0.7-5,0.7-8.6v-73.4l-42.3,92.4H5021.6z"/>
			<path d="M5177.4,1785.8h-42.6l-7.5,17.3c-1.8,4.3-2.7,7.5-2.7,9.6c0,0.9,0.1,1.7,0.4,2.4c0.3,0.7,0.9,1.4,1.8,2
				c0.9,0.6,2.2,1.1,3.9,1.6c1.7,0.4,3.9,0.7,6.6,0.9v3h-34.6v-3c2.7-0.4,5-1,6.7-1.8c1.7-0.8,3.1-1.9,4.4-3.3
				c1.2-1.4,2.3-3.2,3.3-5.5c1-2.3,2.2-5,3.7-8.3l38.7-90.4h2.8l38.2,91.3c1.5,3.8,3,6.8,4.3,9.1c1.3,2.3,2.7,4.1,4.1,5.4
				c1.4,1.3,2.9,2.2,4.6,2.7c1.7,0.5,3.6,0.8,6,0.8v3H5176v-3c4.4-0.2,7.3-0.9,8.9-2.1c1.6-1.2,2.4-2.8,2.4-4.5
				c-0.1-2.3-1.2-6.1-3.3-11.4L5177.4,1785.8z M5175.1,1779.8l-18.6-44.4l-19.1,44.4H5175.1z"/>
			<path d="M5299,1712.6v25.9h-1.8c-0.9-6.9-2.9-11.8-6.1-14.7c-3.2-2.9-7.9-4.3-14.1-4.3h-15.5v84.1c0,3.7,0.3,6.6,0.8,8.8
				c0.5,2.1,1.3,3.7,2.2,4.8c1,1,2.2,1.7,3.6,2c1.5,0.3,3.1,0.4,5.1,0.4h3.8v3h-46.6v-3h3.9c1.9,0,3.6-0.2,5.1-0.5
				c1.5-0.3,2.7-1,3.6-2.1c1-1.1,1.7-2.7,2.2-4.8c0.5-2.1,0.8-5,0.8-8.6v-84.1h-13.2c-3.3,0-6.2,0.3-8.8,0.8
				c-2.5,0.5-4.7,1.5-6.6,2.9c-1.9,1.4-3.3,3.3-4.4,5.8c-1.1,2.5-1.8,5.6-2,9.5h-3v-25.9H5299z"/>
			<path d="M5339,1718.7v43.4h24.1c3.5,0,6.4-0.3,8.6-1c2.2-0.6,3.9-1.6,5.1-2.9c1.2-1.3,2.1-2.9,2.6-5c0.5-2,0.8-4.4,1-7.1h3v38.2
				h-3c-0.4-3.1-0.9-5.8-1.4-7.9c-0.5-2.1-1.4-3.8-2.5-5c-1.2-1.2-2.8-2.1-4.9-2.7c-2.1-0.5-4.9-0.8-8.5-0.8H5339v36.3
				c0,2.7,0,4.9,0.1,6.5c0.1,1.6,0.4,2.8,1,3.7c0.6,0.8,1.5,1.4,2.7,1.6c1.2,0.2,3,0.4,5.3,0.4h18.6c3.1,0,5.8-0.1,8-0.2
				c2.2-0.2,4.1-0.5,5.6-1c1.6-0.5,3-1.1,4.2-2c1.2-0.8,2.5-1.9,3.9-3.2c3.2-3.1,6.7-8.2,10.3-15.1h3.3l-9.6,27.6h-84.7v-3h3.9
				c1,0,2.1-0.1,3.3-0.4c1.1-0.2,2.2-0.6,3.2-1c1-0.4,1.9-1,2.7-1.8c0.8-0.7,1.4-1.6,1.7-2.5c0.6-1.8,1-5.3,1-10.6v-71.4
				c0-7-0.7-11.3-2.1-12.9c-1.9-2.2-5.2-3.3-9.8-3.3h-3.9v-3h84.7v24.1h-1.9c-0.8-4-1.7-7.1-2.6-9.5c-0.9-2.4-2.2-4.2-3.7-5.5
				c-1.5-1.3-3.5-2.1-5.9-2.5c-2.4-0.4-5.4-0.5-9.1-0.5H5339z"/>
			<path d="M5517.8,1822.6h-29.3l-37.3-51.4c-1.4,0.1-2.6,0.1-3.7,0.2c-1.1,0-2.1,0.1-3,0.1c-0.7,0-1.5,0-2.3-0.1
				c-0.8,0-1.7-0.1-2.5-0.2v31.9c0,3.9,0.3,6.9,0.8,9.1c0.5,2.2,1.3,3.9,2.3,5c1,1.1,2.2,1.8,3.6,2c1.4,0.2,3,0.4,4.8,0.4h4.4v3
				h-47.2v-3h4.2c4.5,0,7.8-1.5,9.9-4.5c1.1-1.8,1.7-5.8,1.7-12v-71c0-6.8-0.8-11-2.3-12.8c-2.1-2.4-5.2-3.6-9.3-3.6h-4.2v-3h40
				c5.9,0,11,0.2,15.2,0.7c4.3,0.4,7.8,1.1,10.5,2c2.7,0.9,5.3,2.1,7.7,3.7c2.4,1.6,4.5,3.5,6.4,5.7c1.8,2.2,3.2,4.7,4.3,7.4
				c1,2.7,1.6,5.7,1.6,8.8c0,6.9-2.2,12.7-6.5,17.7c-4.4,4.9-11.2,8.4-20.4,10.5l22.6,31.5c2.7,3.6,5,6.6,7.1,9
				c2.1,2.3,4.1,4.2,6.2,5.6c2.1,1.4,4.2,2.4,6.5,3c2.3,0.6,5,1.1,8.2,1.5V1822.6z M5439.8,1766.1c1,0,2,0,2.7,0.1
				c0.8,0,1.4,0.1,1.9,0.1c5.2,0,9.8-0.6,13.8-1.8c4-1.2,7.3-2.9,9.9-5.1c2.7-2.2,4.7-4.7,6-7.7c1.3-2.9,2-6.1,2-9.6
				c0-3.4-0.6-6.5-1.7-9.4c-1.1-2.9-2.7-5.3-4.8-7.4c-2.1-2.1-4.6-3.6-7.5-4.8c-2.9-1.1-6.1-1.7-9.6-1.7c-3.3,0-7.5,0.5-12.7,1.6
				V1766.1z"/>
			<path d="M5567.6,1819.6v3h-47.1v-3h3.9c1.9,0,3.6-0.1,5.1-0.4c1.5-0.3,2.7-1,3.7-2.1s1.7-2.7,2.2-5c0.5-2.2,0.8-5.2,0.8-9v-71
				c0-2.5-0.1-4.6-0.2-6.2c-0.1-1.7-0.3-3-0.6-4.1c-0.3-1-0.7-1.9-1.3-2.5c-0.6-0.6-1.3-1.2-2.3-1.8c-2.4-1.3-4.9-1.9-7.5-1.9h-3.9
				v-3h47.1v3h-3.9c-1.9,0-3.7,0.2-5.1,0.5c-1.5,0.3-2.7,1-3.7,2.1s-1.7,2.7-2.2,5c-0.5,2.2-0.8,5.2-0.8,8.9v71c0,2.6,0,4.7,0.1,6.3
				c0.1,1.6,0.3,2.9,0.6,4c0.3,1,0.8,1.9,1.4,2.5s1.4,1.2,2.4,1.8c2.3,1.3,4.7,1.9,7.4,1.9H5567.6z"/>
			<path d="M5647.6,1785.8h-42.6l-7.5,17.3c-1.8,4.3-2.7,7.5-2.7,9.6c0,0.9,0.1,1.7,0.4,2.4c0.3,0.7,0.9,1.4,1.8,2
				c0.9,0.6,2.2,1.1,3.9,1.6c1.7,0.4,3.9,0.7,6.6,0.9v3H5573v-3c2.7-0.4,5-1,6.7-1.8c1.7-0.8,3.1-1.9,4.4-3.3
				c1.2-1.4,2.3-3.2,3.3-5.5c1-2.3,2.2-5,3.7-8.3l38.7-90.4h2.8l38.2,91.3c1.5,3.8,3,6.8,4.3,9.1c1.3,2.3,2.7,4.1,4.1,5.4
				c1.4,1.3,2.9,2.2,4.6,2.7c1.7,0.5,3.6,0.8,6,0.8v3h-43.4v-3c4.4-0.2,7.3-0.9,8.9-2.1c1.6-1.2,2.4-2.8,2.4-4.5
				c-0.1-2.3-1.2-6.1-3.3-11.4L5647.6,1785.8z M5645.3,1779.8l-18.6-44.4l-19.1,44.4H5645.3z"/>
			<path d="M5786.8,1792.2l2.7,0.5l-9.4,29.9h-85.2v-3h4.2c4.5,0,7.8-1.5,9.9-4.5c1.1-1.8,1.7-5.8,1.7-12v-71c0-6.8-0.8-11-2.3-12.8
				c-2.1-2.4-5.2-3.6-9.3-3.6h-4.2v-3h49.8v3c-3,0-5.5,0.1-7.4,0.4c-2,0.3-3.6,0.7-4.9,1.2c-1.3,0.5-2.3,1.1-3,1.9
				c-0.7,0.7-1.3,1.5-1.8,2.4c-0.8,1.6-1.2,5.8-1.2,12.5v69.1c0,3.8,0.3,6.5,0.8,8.2c0.6,1.7,1.7,2.9,3.4,3.5
				c1.5,0.5,5.7,0.7,12.7,0.7h8c8.5,0,14.4-0.6,17.8-1.8c1.7-0.6,3.3-1.4,4.8-2.4c1.5-1,3-2.4,4.5-4.1c1.5-1.7,2.9-3.8,4.2-6.2
				C5783.9,1798.7,5785.3,1795.7,5786.8,1792.2z"/>
		</g>
		<g>
			<path d="M5021,2010.8l-42.5-92.4v73.4c0,3.8,0.3,6.8,0.8,8.9c0.5,2.1,1.3,3.7,2.3,4.8c1,1,2.2,1.7,3.7,1.9c1.5,0.2,3.1,0.4,5,0.4
				h3.9v3h-38.2v-3h3.9c1.9,0,3.6-0.1,5.1-0.4c1.5-0.3,2.7-1,3.6-2.1s1.7-2.7,2.2-4.8c0.5-2.1,0.7-5,0.7-8.7v-71.9
				c0-2.6-0.1-4.9-0.4-6.8c-0.2-2-0.9-3.6-1.9-5c-1-1.4-2.5-2.4-4.6-3.1s-4.9-1.1-8.7-1.1v-3h31.1l39.9,86l39.2-86h31.1v3h-3.8
				c-2,0-3.8,0.2-5.2,0.5c-1.5,0.3-2.7,1-3.6,2.1c-1,1.1-1.7,2.7-2.2,4.8c-0.5,2.1-0.7,5-0.7,8.7v71.9c0,3.8,0.3,6.8,0.8,8.9
				c0.5,2.1,1.3,3.7,2.3,4.8c1,1,2.2,1.7,3.7,1.9c1.5,0.2,3.1,0.4,5,0.4h3.8v3h-46.7v-3h3.9c1.9,0,3.6-0.2,5.1-0.5
				c1.5-0.3,2.7-1,3.7-2.1c1-1.1,1.8-2.7,2.2-4.8c0.5-2.1,0.7-5,0.7-8.6v-73.4l-42.3,92.4H5021z"/>
			<path d="M5135.4,1906.9v43.4h24.1c3.5,0,6.4-0.3,8.6-1c2.2-0.6,3.9-1.6,5.1-2.9c1.2-1.3,2.1-2.9,2.6-5c0.5-2,0.8-4.4,1-7.1h3
				v38.2h-3c-0.4-3.1-0.9-5.8-1.4-7.9c-0.5-2.1-1.4-3.8-2.5-5c-1.2-1.2-2.8-2.1-4.9-2.7c-2.1-0.5-4.9-0.8-8.5-0.8h-24.1v36.3
				c0,2.7,0,4.9,0.1,6.5c0.1,1.6,0.4,2.8,1,3.7c0.6,0.8,1.5,1.4,2.7,1.6c1.2,0.2,3,0.4,5.3,0.4h18.6c3.1,0,5.8-0.1,8-0.2
				c2.2-0.2,4.1-0.5,5.6-1c1.6-0.5,3-1.1,4.2-2c1.2-0.8,2.5-1.9,3.9-3.2c3.2-3.1,6.7-8.2,10.3-15.1h3.3l-9.6,27.6h-84.7v-3h3.9
				c1,0,2.1-0.1,3.3-0.4c1.1-0.2,2.2-0.6,3.2-1c1-0.4,1.9-1,2.7-1.8c0.8-0.7,1.4-1.6,1.7-2.5c0.6-1.8,1-5.3,1-10.6v-71.4
				c0-7-0.7-11.3-2.1-12.9c-1.9-2.2-5.2-3.3-9.8-3.3h-3.9v-3h84.7v24.1h-1.9c-0.8-4-1.7-7.1-2.6-9.5c-0.9-2.4-2.2-4.2-3.7-5.5
				c-1.5-1.3-3.5-2.1-5.9-2.5c-2.4-0.4-5.4-0.5-9.1-0.5H5135.4z"/>
			<path d="M5297.3,1980.4l2.7,0.5l-9.4,29.9h-85.2v-3h4.2c4.5,0,7.8-1.5,9.9-4.5c1.1-1.8,1.7-5.8,1.7-12v-71c0-6.8-0.8-11-2.3-12.8
				c-2.1-2.4-5.2-3.6-9.3-3.6h-4.2v-3h49.8v3c-3,0-5.5,0.1-7.4,0.4c-2,0.3-3.6,0.7-4.9,1.2c-1.3,0.5-2.3,1.1-3,1.9
				c-0.7,0.7-1.3,1.5-1.8,2.4c-0.8,1.6-1.2,5.8-1.2,12.5v69.1c0,3.8,0.3,6.5,0.8,8.2c0.6,1.7,1.7,2.9,3.4,3.5
				c1.5,0.5,5.7,0.7,12.7,0.7h8c8.5,0,14.4-0.6,17.8-1.8c1.7-0.6,3.3-1.4,4.8-2.4c1.5-1,3-2.4,4.5-4.1c1.5-1.7,2.9-3.8,4.2-6.2
				C5294.5,1986.8,5295.9,1983.9,5297.3,1980.4z"/>
			<path d="M5379.5,1974h-42.6l-7.5,17.3c-1.8,4.3-2.7,7.5-2.7,9.6c0,0.9,0.1,1.7,0.4,2.4c0.3,0.7,0.9,1.4,1.8,2
				c0.9,0.6,2.2,1.1,3.9,1.6c1.7,0.4,3.9,0.7,6.6,0.9v3h-34.6v-3c2.7-0.4,5-1,6.7-1.8c1.7-0.8,3.1-1.9,4.4-3.3
				c1.2-1.4,2.3-3.2,3.3-5.5c1-2.3,2.2-5,3.7-8.3l38.7-90.4h2.8l38.2,91.3c1.5,3.8,3,6.8,4.3,9.1c1.3,2.3,2.7,4.1,4.1,5.4
				c1.4,1.3,2.9,2.2,4.6,2.7c1.7,0.5,3.6,0.8,6,0.8v3h-43.4v-3c4.4-0.2,7.3-0.9,8.9-2.1c1.6-1.2,2.4-2.8,2.4-4.5
				c-0.1-2.3-1.2-6.1-3.3-11.4L5379.5,1974z M5377.2,1968l-18.6-44.4l-19.1,44.4H5377.2z"/>
			<path d="M5491.3,2010.8l-42.5-92.4v73.4c0,3.8,0.3,6.8,0.8,8.9c0.5,2.1,1.3,3.7,2.3,4.8c1,1,2.2,1.7,3.7,1.9
				c1.5,0.2,3.1,0.4,5,0.4h3.9v3h-38.2v-3h3.9c1.9,0,3.6-0.1,5.1-0.4c1.5-0.3,2.7-1,3.6-2.1c1-1.1,1.7-2.7,2.2-4.8
				c0.5-2.1,0.7-5,0.7-8.7v-71.9c0-2.6-0.1-4.9-0.4-6.8c-0.2-2-0.9-3.6-1.9-5c-1-1.4-2.5-2.4-4.6-3.1c-2.1-0.7-4.9-1.1-8.7-1.1v-3
				h31.1l39.9,86l39.2-86h31.1v3h-3.8c-2,0-3.8,0.2-5.2,0.5c-1.5,0.3-2.7,1-3.6,2.1c-1,1.1-1.7,2.7-2.2,4.8c-0.5,2.1-0.7,5-0.7,8.7
				v71.9c0,3.8,0.3,6.8,0.8,8.9c0.5,2.1,1.3,3.7,2.3,4.8c1,1,2.2,1.7,3.7,1.9c1.5,0.2,3.1,0.4,5,0.4h3.8v3h-46.7v-3h3.9
				c1.9,0,3.6-0.2,5.1-0.5c1.5-0.3,2.7-1,3.7-2.1c1-1.1,1.8-2.7,2.2-4.8c0.5-2.1,0.7-5,0.7-8.6v-73.4l-42.3,92.4H5491.3z"/>
			<path d="M5622.2,2007.8v3h-47.1v-3h3.9c1.9,0,3.6-0.1,5.1-0.4c1.5-0.3,2.7-1,3.7-2.1c1-1.1,1.7-2.7,2.2-5c0.5-2.2,0.8-5.2,0.8-9
				v-71c0-2.5-0.1-4.6-0.2-6.2c-0.1-1.7-0.3-3-0.6-4.1c-0.3-1-0.7-1.9-1.3-2.5c-0.6-0.6-1.3-1.2-2.3-1.8c-2.4-1.3-4.9-1.9-7.5-1.9
				h-3.9v-3h47.1v3h-3.9c-1.9,0-3.7,0.2-5.1,0.5c-1.5,0.3-2.7,1-3.7,2.1c-1,1.1-1.7,2.7-2.2,5c-0.5,2.2-0.8,5.2-0.8,8.9v71
				c0,2.6,0,4.7,0.1,6.3c0.1,1.6,0.3,2.9,0.6,4c0.3,1,0.8,1.9,1.4,2.5s1.4,1.2,2.4,1.8c2.3,1.3,4.7,1.9,7.4,1.9H5622.2z"/>
			<path d="M5624.1,1900.8h29.8l67.3,82.5v-63.4c0-3.7-0.3-6.7-0.8-8.8c-0.5-2.2-1.3-3.8-2.3-4.8c-1-1-2.2-1.7-3.7-2
				c-1.5-0.3-3.1-0.4-5-0.4h-3.9v-3h38.4v3h-4c-1.9,0-3.6,0.2-5.1,0.5c-1.5,0.3-2.7,1-3.6,2.2c-1,1.1-1.7,2.7-2.2,4.8
				c-0.5,2.1-0.7,5-0.7,8.6v92.7h-2.9l-72.5-88.6v67.8c0,3.8,0.3,6.8,0.8,8.9c0.5,2.1,1.3,3.7,2.2,4.8c1,1,2.2,1.7,3.6,1.9
				c1.5,0.2,3.1,0.4,5,0.4h3.9v3h-38.2v-3h3.9c1.9,0,3.6-0.2,5.1-0.5c1.5-0.3,2.7-1,3.7-2.1c1-1.1,1.8-2.7,2.2-4.8
				c0.5-2.1,0.7-5,0.7-8.6v-76.5c-1.6-1.9-3-3.5-4.1-4.6c-1.1-1.1-2.1-2.1-3.1-2.8c-1-0.7-2-1.3-3.1-1.8c-1.1-0.5-2.5-1-4.2-1.6
				c-1.6-0.5-4-0.7-7.1-0.7V1900.8z"/>
			<path d="M5780.9,1906.9v43.4h24.1c3.5,0,6.4-0.3,8.6-1c2.2-0.6,3.9-1.6,5.1-2.9c1.2-1.3,2.1-2.9,2.6-5c0.5-2,0.8-4.4,1-7.1h3
				v38.2h-3c-0.4-3.1-0.9-5.8-1.4-7.9c-0.5-2.1-1.4-3.8-2.5-5c-1.2-1.2-2.8-2.1-4.9-2.7c-2.1-0.5-4.9-0.8-8.5-0.8h-24.1v36.3
				c0,2.7,0,4.9,0.1,6.5c0.1,1.6,0.4,2.8,1,3.7c0.6,0.8,1.5,1.4,2.7,1.6c1.2,0.2,3,0.4,5.3,0.4h18.6c3.1,0,5.8-0.1,8-0.2
				c2.2-0.2,4.1-0.5,5.6-1c1.6-0.5,3-1.1,4.2-2c1.2-0.8,2.5-1.9,3.9-3.2c3.2-3.1,6.7-8.2,10.3-15.1h3.3l-9.6,27.6h-84.7v-3h3.9
				c1,0,2.1-0.1,3.3-0.4c1.1-0.2,2.2-0.6,3.2-1c1-0.4,1.9-1,2.7-1.8c0.8-0.7,1.4-1.6,1.7-2.5c0.6-1.8,1-5.3,1-10.6v-71.4
				c0-7-0.7-11.3-2.1-12.9c-1.9-2.2-5.2-3.3-9.8-3.3h-3.9v-3h84.7v24.1h-1.9c-0.8-4-1.7-7.1-2.6-9.5c-0.9-2.4-2.2-4.2-3.7-5.5
				c-1.5-1.3-3.5-2.1-5.9-2.5c-2.4-0.4-5.4-0.5-9.1-0.5H5780.9z"/>
		</g>
		<g>
			<path d="M5108.3,2092.7v3c-2.2,0-4,0.2-5.4,0.6c-1.4,0.4-2.7,1.3-3.9,2.7c-1.2,1.4-2.4,3.5-3.6,6.3c-1.2,2.8-2.6,6.5-4.2,11.2
				l-30.6,88.7h-3.3l-25-70.3l-24.8,70.3h-3l-32.7-91.3c-1.2-3.4-2.2-6.1-2.9-8c-0.7-2-1.3-3.3-1.7-3.9c-1.1-2.1-2.6-3.6-4.4-4.7
				c-1.8-1-4.3-1.5-7.6-1.5v-3h40.7v3h-1.9c-2.8,0-5,0.6-6.5,1.9c-1.5,1.3-2.3,2.9-2.3,4.7c0,1.9,1.2,6.3,3.6,13.1l21.7,61.7
				l18.1-52.5l-5.8-16.6c-0.9-2-1.8-3.8-2.7-5.3c-0.9-1.5-1.9-2.8-3-3.9c-1.1-1-2.5-1.8-4-2.4c-1.5-0.5-3.4-0.8-5.6-0.8v-3h42.7v3
				h-2.9c-3.1,0-5.3,0.6-6.7,1.9c-1.4,1.3-2.1,3.1-2.1,5.3c0,2.7,1.2,7.5,3.6,14.4l21.1,59.8l20.9-60.6c1.1-3.4,2-6.2,2.7-8.5
				c0.6-2.3,1-4.1,1-5.4c0-2.6-1.1-4.4-3.4-5.4c-2.3-1-5.2-1.5-8.8-1.5v-3H5108.3z"/>
			<path d="M5143.8,2143.7h51.1v-31.5c0-2.6,0-4.7-0.1-6.4c-0.1-1.7-0.3-3-0.6-4.1c-0.3-1-0.8-1.9-1.4-2.5s-1.4-1.2-2.4-1.8
				c-2.3-1.3-4.7-1.9-7.4-1.9h-3.9v-3h47.1v3h-3.9c-1,0-2.2,0.1-3.3,0.4c-1.2,0.2-2.3,0.6-3.3,1.1c-1,0.5-1.9,1.1-2.7,1.8
				c-0.8,0.7-1.4,1.6-1.7,2.5c-0.6,1.7-0.8,5.3-0.8,10.8v70.9c0,2.6,0.1,4.7,0.2,6.3c0.1,1.6,0.3,2.9,0.6,4c0.3,1,0.7,1.9,1.3,2.5
				c0.6,0.6,1.3,1.2,2.3,1.8c2.3,1.3,4.8,1.9,7.5,1.9h3.9v3h-47.1v-3h3.9c1.9,0,3.5-0.1,5-0.4c1.5-0.3,2.7-1,3.8-2.1
				c1-1.1,1.8-2.7,2.4-5c0.5-2.2,0.8-5.2,0.8-9v-33.5h-51.1v33.5c0,2.6,0,4.7,0.1,6.3c0.1,1.6,0.3,2.9,0.6,4c0.3,1,0.8,1.9,1.4,2.5
				s1.4,1.2,2.4,1.8c2.3,1.3,4.7,1.9,7.4,1.9h4v3h-47.2v-3h4c4.4,0,7.7-1.3,9.8-4c1.3-1.6,1.9-5.8,1.9-12.5v-70.9
				c0-2.7,0-4.8-0.1-6.5c-0.1-1.7-0.3-3-0.6-4c-0.3-1-0.8-1.8-1.3-2.4c-0.6-0.6-1.3-1.2-2.3-1.8c-2.3-1.3-4.7-1.9-7.4-1.9h-4v-3
				h47.2v3h-4c-1,0-2,0.1-3.2,0.4c-1.2,0.2-2.3,0.6-3.3,1.1c-1,0.5-1.9,1.1-2.7,1.8c-0.8,0.7-1.4,1.6-1.7,2.5c-0.6,1.9-1,5.5-1,10.8
				V2143.7z"/>
			<path d="M5280.7,2199.6v3h-47.1v-3h3.9c1.9,0,3.6-0.1,5.1-0.4c1.5-0.3,2.7-1,3.7-2.1c1-1.1,1.7-2.7,2.2-5c0.5-2.2,0.8-5.2,0.8-9
				v-71c0-2.5-0.1-4.6-0.2-6.2c-0.1-1.7-0.3-3-0.6-4.1c-0.3-1-0.7-1.9-1.3-2.5c-0.6-0.6-1.3-1.2-2.3-1.8c-2.4-1.3-4.9-1.9-7.5-1.9
				h-3.9v-3h47.1v3h-3.9c-1.9,0-3.7,0.2-5.1,0.5c-1.5,0.3-2.7,1-3.7,2.1c-1,1.1-1.7,2.7-2.2,5c-0.5,2.2-0.8,5.2-0.8,8.9v71
				c0,2.6,0,4.7,0.1,6.3c0.1,1.6,0.3,2.9,0.6,4c0.3,1,0.8,1.9,1.4,2.5s1.4,1.2,2.4,1.8c2.3,1.3,4.7,1.9,7.4,1.9H5280.7z"/>
			<path d="M5380.9,2092.7v25.9h-1.8c-0.9-6.9-2.9-11.8-6.1-14.7c-3.2-2.9-7.9-4.3-14.1-4.3h-15.5v84.1c0,3.7,0.3,6.6,0.8,8.8
				c0.5,2.1,1.3,3.7,2.2,4.8c1,1,2.2,1.7,3.6,2c1.5,0.3,3.1,0.4,5.1,0.4h3.8v3h-46.6v-3h3.9c1.9,0,3.6-0.2,5.1-0.5
				c1.5-0.3,2.7-1,3.6-2.1c1-1.1,1.7-2.7,2.2-4.8c0.5-2.1,0.8-5,0.8-8.6v-84.1h-13.2c-3.3,0-6.2,0.3-8.8,0.8
				c-2.5,0.5-4.7,1.5-6.6,2.9c-1.9,1.4-3.3,3.3-4.4,5.8c-1.1,2.5-1.8,5.6-2,9.5h-3v-25.9H5380.9z"/>
			<path d="M5421,2098.7v43.4h24.1c3.5,0,6.4-0.3,8.6-1c2.2-0.6,3.9-1.6,5.1-2.9c1.2-1.3,2.1-2.9,2.6-5c0.5-2,0.8-4.4,1-7.1h3v38.2
				h-3c-0.4-3.1-0.9-5.8-1.4-7.9c-0.5-2.1-1.4-3.8-2.5-5c-1.2-1.2-2.8-2.1-4.9-2.7c-2.1-0.5-4.9-0.8-8.5-0.8H5421v36.3
				c0,2.7,0,4.9,0.1,6.5c0.1,1.6,0.4,2.8,1,3.7c0.6,0.8,1.5,1.4,2.7,1.6s3,0.4,5.3,0.4h18.6c3.1,0,5.8-0.1,8-0.2
				c2.2-0.2,4.1-0.5,5.6-1c1.6-0.5,3-1.1,4.2-2c1.2-0.8,2.5-1.9,3.9-3.2c3.2-3.1,6.7-8.2,10.3-15.1h3.3l-9.6,27.6h-84.7v-3h3.9
				c1,0,2.1-0.1,3.3-0.4c1.1-0.2,2.2-0.6,3.2-1c1-0.4,1.9-1,2.7-1.8c0.8-0.7,1.4-1.6,1.7-2.5c0.6-1.8,1-5.3,1-10.6v-71.4
				c0-7-0.7-11.3-2.1-12.9c-1.9-2.2-5.2-3.3-9.8-3.3h-3.9v-3h84.7v24.1h-1.9c-0.8-4-1.7-7.1-2.6-9.5c-0.9-2.4-2.2-4.2-3.7-5.5
				c-1.5-1.3-3.5-2.1-5.9-2.5c-2.4-0.4-5.4-0.5-9.1-0.5H5421z"/>
			<path d="M5681.4,2092.7v3c-2.2,0-4,0.2-5.4,0.6c-1.4,0.4-2.7,1.3-3.9,2.7c-1.2,1.4-2.4,3.5-3.6,6.3c-1.2,2.8-2.6,6.5-4.2,11.2
				l-30.6,88.7h-3.3l-25-70.3l-24.8,70.3h-3l-32.7-91.3c-1.2-3.4-2.2-6.1-2.9-8c-0.7-2-1.3-3.3-1.7-3.9c-1.1-2.1-2.6-3.6-4.4-4.7
				c-1.8-1-4.3-1.5-7.6-1.5v-3h40.7v3h-1.9c-2.8,0-5,0.6-6.5,1.9c-1.5,1.3-2.3,2.9-2.3,4.7c0,1.9,1.2,6.3,3.6,13.1l21.7,61.7
				l18.1-52.5l-5.8-16.6c-0.9-2-1.8-3.8-2.7-5.3c-0.9-1.5-1.9-2.8-3-3.9c-1.1-1-2.5-1.8-4-2.4c-1.5-0.5-3.4-0.8-5.6-0.8v-3h42.7v3
				h-2.9c-3.1,0-5.3,0.6-6.7,1.9c-1.4,1.3-2.1,3.1-2.1,5.3c0,2.7,1.2,7.5,3.6,14.4l21.1,59.8l20.9-60.6c1.1-3.4,2-6.2,2.7-8.5
				c0.6-2.3,1-4.1,1-5.4c0-2.6-1.1-4.4-3.4-5.4c-2.3-1-5.2-1.5-8.8-1.5v-3H5681.4z"/>
			<path d="M5743.5,2090.2c7,0,13.7,1.5,20.1,4.4c6.4,2.9,12,6.9,16.8,12s8.7,11.1,11.6,18c2.9,6.9,4.3,14.4,4.3,22.4
				c0,8.3-1.4,16-4.3,23.1c-2.9,7.1-6.7,13.2-11.6,18.5c-4.9,5.2-10.6,9.3-17.2,12.2c-6.6,2.9-13.6,4.4-21,4.4
				c-7.5,0-14.5-1.4-21.1-4.2c-6.5-2.8-12.2-6.8-17-11.9c-4.8-5.1-8.6-11.2-11.4-18.3c-2.8-7.1-4.2-14.9-4.2-23.5
				c0-7.9,1.4-15.3,4.2-22.3c2.8-6.9,6.6-13,11.5-18.1c4.9-5.1,10.7-9.2,17.4-12.2C5728.3,2091.7,5735.6,2090.2,5743.5,2090.2z
				 M5741.9,2096.2c-5.6,0-10.5,1.2-14.8,3.6c-4.3,2.4-7.9,5.8-10.9,10.2c-2.9,4.4-5.2,9.7-6.7,16c-1.5,6.3-2.3,13.3-2.3,21.1
				c0,7.7,0.7,14.8,2.2,21.2c1.5,6.4,3.7,11.9,6.7,16.6c2.9,4.6,6.6,8.2,10.9,10.8c4.4,2.5,9.4,3.8,15,3.8c5.1,0,9.8-1,14.1-2.9
				c4.3-1.9,8.1-4.9,11.3-9c3.2-4.1,5.7-9.3,7.6-15.6c1.8-6.3,2.7-13.9,2.7-22.7c0-8.3-0.7-15.7-2.2-22.3
				c-1.5-6.6-3.8-12.1-6.8-16.7c-3-4.6-6.8-8-11.3-10.4C5753,2097.4,5747.8,2096.2,5741.9,2096.2z"/>
			<path d="M5863.4,2090.2c7,0,13.7,1.5,20.1,4.4c6.4,2.9,12,6.9,16.8,12s8.7,11.1,11.6,18c2.9,6.9,4.3,14.4,4.3,22.4
				c0,8.3-1.4,16-4.3,23.1c-2.9,7.1-6.7,13.2-11.6,18.5c-4.9,5.2-10.6,9.3-17.2,12.2c-6.6,2.9-13.6,4.4-21,4.4
				c-7.5,0-14.5-1.4-21.1-4.2c-6.5-2.8-12.2-6.8-17-11.9c-4.8-5.1-8.6-11.2-11.4-18.3c-2.8-7.1-4.2-14.9-4.2-23.5
				c0-7.9,1.4-15.3,4.2-22.3c2.8-6.9,6.6-13,11.5-18.1c4.9-5.1,10.7-9.2,17.4-12.2C5848.2,2091.7,5855.5,2090.2,5863.4,2090.2z
				 M5861.8,2096.2c-5.6,0-10.5,1.2-14.8,3.6c-4.3,2.4-7.9,5.8-10.9,10.2c-2.9,4.4-5.2,9.7-6.7,16c-1.5,6.3-2.3,13.3-2.3,21.1
				c0,7.7,0.7,14.8,2.2,21.2c1.5,6.4,3.7,11.9,6.7,16.6c2.9,4.6,6.6,8.2,10.9,10.8c4.4,2.5,9.4,3.8,15,3.8c5.1,0,9.8-1,14.1-2.9
				c4.3-1.9,8.1-4.9,11.3-9c3.2-4.1,5.7-9.3,7.6-15.6c1.8-6.3,2.7-13.9,2.7-22.7c0-8.3-0.7-15.7-2.2-22.3
				c-1.5-6.6-3.8-12.1-6.8-16.7c-3-4.6-6.8-8-11.3-10.4C5872.9,2097.4,5867.7,2096.2,5861.8,2096.2z"/>
			<path d="M5925.4,2202.6v-3h4.2c1.9,0,3.5-0.2,5-0.5c1.5-0.3,2.7-1,3.6-2.2c1-1.1,1.7-2.8,2.2-5c0.5-2.2,0.8-5.1,0.8-8.8v-71
				c0-6.8-0.8-11.1-2.3-12.8c-2.1-2.4-5.2-3.6-9.3-3.6h-4.2v-3h44.8c16.3,0,28.8,1.9,37.5,5.7c8.6,3.8,15.5,10,20.7,18.6
				c5.2,8.8,7.9,18.8,7.9,30.1c0,8.1-1.3,15.6-3.9,22.4c-2.6,6.8-6.5,12.6-11.7,17.5c-5.2,4.9-11.6,8.8-19.3,11.5
				c-7.7,2.7-16.6,4.1-26.7,4.1H5925.4z M5956.8,2194.7c6.7,1.5,12.4,2.3,17.2,2.3c6.2,0,12-1.1,17.3-3.4c5.3-2.3,9.9-5.6,13.9-9.8
				c3.9-4.2,7-9.4,9.2-15.4c2.2-6,3.3-12.8,3.3-20.3c0-7.6-1.1-14.4-3.3-20.5c-2.2-6.1-5.2-11.3-9.2-15.5c-4-4.2-8.6-7.5-14-9.7
				c-5.4-2.3-11.3-3.4-17.8-3.4c-4.8,0-10.3,0.8-16.6,2.4V2194.7z"/>
		</g>
	</g>
	<g>
		<g>
			<line class="st7" x1="700.9" y1="769.3" x2="6464" y2="783.6"/>
			<polygon class="st8" points="6435,807.1 6492.7,783.2 6436.4,760 			"/>
			<polygon class="st8" points="717.3,746.2 659.8,770.7 716.3,793.3 			"/>
			<g>
				<path d="M3328.2,871l21.9-11.5h1.5v81.7c0,2.8,0,5.1,0.1,6.7c0.1,1.6,0.2,2.8,0.5,3.7c0.3,0.9,0.6,1.5,1,1.8
					c0.4,0.4,1,0.7,1.7,1.1c1.3,0.8,4.1,1.2,8.2,1.2v2.7h-33.3v-2.7c2.2,0,3.9-0.1,5.2-0.3c1.3-0.2,2.3-0.5,3.1-0.8
					c0.7-0.3,1.3-0.7,1.6-1.2c0.4-0.5,0.6-1,0.8-1.6c0.5-1.1,0.7-4.5,0.7-10.4v-52.3c0-4.1-0.1-7.4-0.2-9.7
					c-0.2-2.4-0.4-4.1-0.8-5.3c-0.4-1.1-0.9-1.9-1.6-2.2c-0.7-0.3-1.5-0.5-2.6-0.5c-1.8,0-4.1,0.6-6.8,1.9L3328.2,871z"/>
				<path d="M3438.6,861.8l-5.2,12.6h-27l-5.9,12.4c5.3,0.9,10.3,2.4,14.8,4.5c4.5,2.2,8.4,4.8,11.6,8c3.2,3.2,5.7,6.9,7.6,11
					c1.8,4.1,2.7,8.6,2.7,13.3c0,5.9-1.2,11.1-3.5,15.6c-2.3,4.5-5.2,8.3-8.7,11.4c-3.5,3.1-7.4,5.4-11.5,7
					c-4.1,1.6-8.1,2.4-11.8,2.4c-2.8,0-5.1-0.3-7.1-0.8c-1.9-0.5-3.5-1.3-4.7-2.2c-1.2-0.9-2.1-1.9-2.7-3c-0.6-1.1-0.9-2.2-0.9-3.5
					c0-1.3,0.5-2.5,1.5-3.6c1-1,2.3-1.5,3.9-1.5c0.6,0,1.1,0,1.6,0.1c0.5,0.1,0.9,0.2,1.4,0.5c0.5,0.2,1.1,0.6,1.8,1.1
					c0.7,0.5,1.6,1.1,2.6,1.9c1.6,1.3,3.3,2.2,5,2.8c1.7,0.6,3.4,0.9,5.1,0.9c2.6,0,5-0.6,7.4-1.7c2.3-1.1,4.4-2.7,6.2-4.6
					c1.8-1.9,3.2-4.2,4.3-6.9c1.1-2.6,1.6-5.5,1.6-8.5c0-2.9-0.5-5.7-1.4-8.5c-0.9-2.8-2.2-5.4-3.9-7.8c-1.7-2.4-3.8-4.7-6.2-6.6
					c-2.4-2-5.1-3.7-8.1-5.1c-2.4-1.1-5.3-2-8.5-2.5c-3.3-0.5-7-0.9-11.1-1.1l17.2-37.6H3438.6z"/>
				<path d="M3461.7,861.8h47.3v2.5l-30,96.2h-7.4l27-87.3h-24c-3,0-5.5,0.3-7.5,0.8c-2,0.6-3.8,1.3-5.2,2.3c-1.5,1-2.7,2.2-3.7,3.7
					c-1,1.5-2,3.1-2.9,4.9l-1.8-0.7L3461.7,861.8z"/>
				<path d="M3631.1,859.5l2.1,33.3h-2.1c-2.8-10-6.8-17.2-11.9-21.6c-5.1-4.4-11.3-6.6-18.5-6.6c-4.7,0-9,1-12.9,2.9
					c-3.9,1.9-7.3,4.8-10.2,8.8c-2.8,4-5.1,8.9-6.7,14.9c-1.6,6-2.4,13-2.4,21.1c0,6.5,0.8,12.5,2.3,17.8c1.5,5.3,3.7,9.9,6.6,13.6
					c2.9,3.8,6.5,6.7,10.7,8.7c4.2,2,9,3.1,14.5,3.1c5.7,0,11-1.4,15.6-4.1c4.5-2.5,9.4-7.9,14.9-16.2l2.1,1.4
					c-4.6,8.7-9.9,15.1-16,19.1c-6,4.1-13.3,6.1-21.7,6.1c-6.5,0-12.4-1.2-17.8-3.7c-5.4-2.4-10.1-5.9-14-10.3
					c-3.9-4.4-7-9.7-9.2-15.7c-2.2-6.1-3.3-12.7-3.3-20c0-9.8,2-18.8,6.1-26.9c4-8.2,9.6-14.5,16.7-19c7.2-4.5,15-6.8,23.4-6.8
					c6.6,0,13.1,1.7,19.4,5.2c1.9,1.1,3.2,1.6,4,1.6c1.5,0,2.7-0.6,3.7-1.9c1-1.3,1.7-2.9,2.1-4.8H3631.1z"/>
				<path d="M3661.7,905.5c2.2-2.4,4-4.3,5.3-5.6c1.3-1.3,2.1-2.2,2.5-2.6c2-1.8,4.1-3.3,6.4-4.2c2.3-1,4.6-1.5,6.8-1.5
					c3.8,0,7.1,1.2,9.8,3.6c2.7,2.4,4.6,5.8,5.5,10.4c2.2-2.8,4.3-5.2,6.2-7c1.9-1.8,3.7-3.3,5.3-4.3c1.7-1,3.3-1.7,4.8-2.1
					c1.5-0.4,3.1-0.6,4.8-0.6c2.2,0,4.3,0.4,6.3,1.2c1.9,0.8,3.6,2.2,5.1,4c1.4,1.9,2.6,4.4,3.4,7.5c0.8,3.1,1.2,7,1.2,11.6v27.5
					c0,2.1,0.1,4,0.1,5.6c0.1,1.6,0.4,2.9,1,3.9c0.6,1,1.5,1.7,2.7,2.2c1.2,0.5,3,0.7,5.2,0.7v2.4h-29.9v-2.3h0.7
					c1.6,0,2.9-0.1,4-0.4c1.1-0.3,2-0.8,2.6-1.7c0.6-0.8,1.1-2.1,1.4-3.7c0.3-1.6,0.4-3.7,0.4-6.4v-28.1c0-3.1-0.2-5.7-0.7-7.7
					c-0.5-2-1.1-3.6-1.9-4.8c-0.8-1.2-1.9-2-3.1-2.5c-1.2-0.5-2.6-0.7-4.2-0.7c-1.2,0-2.3,0.1-3.4,0.4c-1.1,0.2-2.3,0.7-3.5,1.4
					c-1.2,0.7-2.5,1.6-3.9,2.7c-1.4,1.1-2.9,2.9-4.6,5.2v33.9c0,2.3,0,4.2,0.1,5.5c0.1,1.3,0.2,2.3,0.5,3c0.3,0.7,0.6,1.2,1,1.5
					c0.4,0.4,1,0.7,1.8,1.2c1.3,0.7,3.6,1.1,6.9,1.1v2.6h-31v-2.6c2.5,0,4.4-0.2,5.8-0.5c1.4-0.4,2.4-1,3.1-1.9
					c0.7-0.9,1-2.2,1.2-3.8c0.1-1.6,0.2-3.6,0.2-6v-27.8c0-3.1-0.3-5.7-0.8-7.8c-0.5-2.1-1.2-3.7-2.2-5c-0.9-1.3-2.1-2.2-3.3-2.7
					c-1.3-0.5-2.7-0.8-4.2-0.8c-1.5,0-3.1,0.3-4.6,0.9c-1.5,0.6-3,1.3-4.4,2.2c-1.4,0.9-2.7,1.9-3.9,3s-2.2,2.1-2.9,3.1v34.9
					c0,2.2,0.1,4,0.2,5.3c0.1,1.3,0.3,2.4,0.6,3.2c0.3,0.8,0.6,1.4,1.1,1.8c0.4,0.4,0.9,0.7,1.5,1c1.1,0.6,3.4,1,6.9,1v2.6h-31v-2.5
					c2,0,3.6-0.2,4.8-0.5c1.2-0.3,2.1-0.9,2.8-1.8c0.7-0.9,1.1-2.1,1.3-3.7c0.2-1.5,0.3-3.6,0.3-6.1v-24.7c0-4.2-0.1-7.5-0.2-9.9
					c-0.1-2.4-0.4-4.2-0.7-5.4c-0.4-1.2-0.8-1.9-1.5-2.2c-0.6-0.3-1.4-0.4-2.4-0.4c-0.6,0-1.2,0.1-2,0.3c-0.7,0.2-1.5,0.4-2.4,0.8
					l-1-2.5l18.1-7.9h3.6V905.5z"/>
			</g>
		</g>
		<g>
			<polygon class="st9" points="600.7,246.9 573.8,203.2 551.6,246.9 			"/>
			<polygon class="st9" points="551.7,624.6 576.8,668.8 600.7,625.5 			"/>
			<line class="st10" x1="576" y1="225.5" x2="576" y2="657.8"/>
			<g>
				<path d="M116.7,399.9l25.1-12h2v85.3c0,3,0,5.3,0.1,7c0.1,1.7,0.3,2.9,0.6,3.8c0.3,0.9,0.7,1.5,1.1,1.9c0.5,0.4,1.1,0.7,1.9,1.1
					c1.5,0.8,4.6,1.2,9.4,1.2v2.8h-38.4v-2.8c2.5,0,4.5-0.1,6-0.3c1.5-0.2,2.7-0.5,3.5-0.8c0.8-0.3,1.5-0.8,1.9-1.3
					c0.4-0.5,0.7-1.1,1-1.7c0.5-1.1,0.8-4.7,0.8-10.9v-54.6c0-4.3-0.1-7.7-0.3-10.2c-0.2-2.5-0.5-4.3-1-5.5
					c-0.5-1.2-1.1-1.9-1.8-2.3c-0.8-0.3-1.7-0.5-2.9-0.5c-2.1,0-4.7,0.7-7.8,2L116.7,399.9z"/>
				<path d="M240.9,390.1l-5.9,13.2h-30.2l-6.6,13.2c6,0.9,11.5,2.5,16.5,4.7c5.1,2.3,9.4,5,13,8.4c3.6,3.3,6.4,7.1,8.5,11.5
					c2,4.3,3,9,3,13.9c0,6.1-1.3,11.5-3.9,16.2c-2.6,4.7-5.8,8.6-9.8,11.9c-3.9,3.2-8.2,5.7-12.9,7.3c-4.6,1.7-9,2.5-13.2,2.5
					c-3.1,0-5.7-0.3-7.9-0.8c-2.2-0.6-3.9-1.3-5.3-2.3c-1.4-1-2.4-2-3-3.2c-0.7-1.1-1-2.3-1-3.6c0-1.4,0.6-2.6,1.7-3.7
					c1.1-1.1,2.5-1.6,4.3-1.6c0.7,0,1.3,0,1.8,0.1c0.5,0.1,1.1,0.2,1.6,0.5c0.6,0.3,1.2,0.6,2,1.1c0.8,0.5,1.8,1.1,2.9,1.9
					c1.8,1.3,3.7,2.3,5.6,2.9c1.9,0.6,3.8,0.9,5.7,0.9c2.9,0,5.6-0.6,8.2-1.8c2.6-1.2,4.9-2.8,6.9-4.8c2-2,3.6-4.4,4.8-7.1
					c1.2-2.7,1.8-5.7,1.8-8.9c0-3-0.5-6-1.5-8.9c-1-2.9-2.5-5.6-4.4-8.1c-1.9-2.5-4.2-4.9-6.9-6.9c-2.7-2.1-5.7-3.8-9.1-5.3
					c-2.7-1.2-5.9-2-9.6-2.6c-3.7-0.6-7.8-0.9-12.4-1.2l19.3-39.4H240.9z"/>
				<path d="M380,387.9l2.3,34H380c-3.1-10.2-7.4-17.5-13-22c-5.6-4.5-12.4-6.7-20.3-6.7c-5.1,0-9.9,1-14.2,2.9
					c-4.3,1.9-8,4.9-11.2,9c-3.1,4-5.6,9.1-7.3,15.2c-1.8,6.1-2.6,13.3-2.6,21.6c0,6.7,0.8,12.7,2.5,18.2c1.6,5.4,4.1,10.1,7.3,13.9
					c3.2,3.9,7.1,6.8,11.7,8.9c4.6,2.1,9.9,3.1,15.9,3.1c6.3,0,12-1.4,17.1-4.2c4.9-2.6,10.4-8.1,16.4-16.5l2.3,1.4
					c-5.1,8.9-10.9,15.4-17.5,19.5c-6.6,4.1-14.6,6.2-23.8,6.2c-7.1,0-13.6-1.2-19.6-3.7c-5.9-2.5-11-6-15.3-10.5
					c-4.3-4.5-7.6-9.9-10.1-16.1c-2.4-6.2-3.6-13-3.6-20.4c0-10.1,2.2-19.2,6.7-27.5c4.4-8.4,10.5-14.8,18.4-19.4
					c7.9-4.6,16.5-6.9,25.7-6.9c7.3,0,14.4,1.8,21.3,5.3c2.1,1.1,3.5,1.7,4.4,1.7c1.6,0,2.9-0.7,4-2c1.1-1.3,1.8-3,2.3-5H380z"/>
				<path d="M415.5,435.3c2.5-2.5,4.5-4.5,5.9-5.9c1.4-1.4,2.4-2.3,2.8-2.7c2.2-1.9,4.6-3.4,7.2-4.4c2.6-1,5.1-1.6,7.6-1.6
					c4.3,0,7.9,1.2,11,3.7c3.1,2.5,5.1,6.1,6.1,10.8c2.5-3,4.8-5.4,6.9-7.3c2.1-1.9,4.1-3.4,6-4.4c1.9-1,3.7-1.8,5.4-2.2
					c1.7-0.4,3.5-0.6,5.4-0.6c2.5,0,4.8,0.4,7,1.3c2.2,0.9,4.1,2.3,5.7,4.2c1.6,2,2.9,4.6,3.8,7.8c0.9,3.3,1.4,7.3,1.4,12.1v29.6
					c0,2.1,0.1,4,0.2,5.6c0.1,1.6,0.5,2.9,1.1,3.9c0.6,1,1.6,1.7,2.9,2.2c1.3,0.5,3.2,0.7,5.6,0.7v2.9h-34v-2.2h1.4
					c1.8,0,3.2-0.1,4.5-0.4c1.2-0.3,2.2-0.9,3-1.8c0.7-0.9,1.3-2.2,1.6-3.8s0.5-3.9,0.5-6.7v-29.3c0-3.3-0.3-5.9-0.8-8
					c-0.5-2.1-1.2-3.8-2.2-5c-1-1.3-2.1-2.1-3.5-2.6c-1.4-0.5-3-0.7-4.7-0.7c-1.3,0-2.6,0.1-3.8,0.4c-1.2,0.3-2.5,0.7-3.9,1.4
					c-1.4,0.7-2.8,1.6-4.4,2.8c-1.6,1.2-3.3,3-5.2,5.4v35.1c0,2.4,0,4.3,0.1,5.7c0.1,1.4,0.3,2.4,0.6,3.1c0.3,0.7,0.7,1.2,1.1,1.6
					c0.4,0.4,1.1,0.8,1.9,1.2c1.4,0.7,3.8,1.1,7.3,1.1v2.7h-34v-2.7c2.6,0,4.7-0.2,6.2-0.6c1.5-0.4,2.6-1,3.3-2
					c0.7-1,1.1-2.3,1.3-3.9c0.1-1.7,0.2-3.7,0.2-6.3v-29.4c0-3.1-0.3-5.7-0.8-7.8c-0.5-2.1-1.3-3.7-2.3-5c-1-1.3-2.2-2.2-3.6-2.7
					c-1.4-0.5-2.9-0.8-4.6-0.8c-1.7,0-3.3,0.3-5,0.9c-1.7,0.6-3.3,1.3-4.8,2.2c-1.5,0.9-2.9,1.9-4.2,3c-1.3,1.1-2.4,2.1-3.2,3.2
					v36.5c0,2.3,0.1,4.1,0.2,5.5c0.1,1.4,0.4,2.5,0.7,3.3c0.3,0.8,0.7,1.4,1.2,1.8c0.5,0.4,1,0.8,1.6,1.1c1.2,0.7,3.6,1,7.3,1v2.7
					h-34v-2.7c2.2,0,3.9-0.2,5.2-0.5c1.3-0.3,2.3-1,3-1.9c0.7-1,1.2-2.3,1.4-3.9c0.2-1.6,0.3-3.8,0.3-6.4v-26
					c0-4.4-0.1-7.9-0.2-10.4c-0.1-2.5-0.4-4.4-0.8-5.7c-0.4-1.3-0.9-2-1.6-2.3c-0.7-0.3-1.5-0.4-2.6-0.4c-0.6,0-1.3,0.1-2.1,0.3
					c-0.8,0.2-1.6,0.5-2.6,0.8l-1-2.7l19.4-8.3h4.6V435.3z"/>
			</g>
		</g>
	</g>
	<g>
		<polygon class="st11" points="3394.2,2121.7 3394.2,1552.7 3256.7,1584.2 3256.7,2407.2 		"/>
		<polygon class="st0" points="3393.7,1552.2 1138.7,865.2 970.7,892.2 3256.7,1584.2 		"/>
		<polygon class="st0" points="970.7,892.2 970.7,1524.2 3256.7,2407.2 3256.7,1584.2 		"/>
	</g>
	<circle cx="3353" cy="1676.3" r="21.5"/>
	<line class="st12" x1="3594.6" y1="1675.4" x2="3349.7" y2="1676.2"/>
</g>
<g id="SOPORTE-PARED">
</g>
<g id="MEDIDAS">
</g>
<g id="PROCESOS">
</g>
</svg>
