<?xml version="1.0" encoding="utf-8"?>
<!-- Generator: Adobe Illustrator 26.5.0, SVG Export Plug-In . SVG Version: 6.00 Build 0)  -->
<svg version="1.1" xmlns="http://www.w3.org/2000/svg" xmlns:xlink="http://www.w3.org/1999/xlink" x="0px" y="0px"
	 viewBox="0 0 5992 1387" style="enable-background:new 0 0 5992 1387;" xml:space="preserve">
<style type="text/css">
	.st0{fill:#E6E6E6;stroke:#000000;stroke-width:8.785;stroke-miterlimit:10;}
	.st1{fill:#E6E6E6;stroke:#000000;stroke-width:10.6495;stroke-miterlimit:10;}
	.st2{fill:#F7F7F7;stroke:#000000;stroke-width:15.5912;stroke-miterlimit:10;}
	.st3{clip-path:url(#SVGID_00000034080962812572564750000009546640355291637691_);}
	.st4{fill:#E6E6E6;stroke:#000000;stroke-width:18.754;stroke-miterlimit:10;}
	.st5{fill:#FFFFFF;}
	.st6{fill:none;stroke:#000000;stroke-width:18.754;stroke-miterlimit:10;}
	.st7{fill:#E6E6E6;stroke:#000000;stroke-width:12.4894;stroke-miterlimit:10;}
	.st8{fill:#E6E6E6;stroke:#000000;stroke-width:15.1401;stroke-miterlimit:10;}
</style>
<g id="CIRCULOS-SELECCION4">
</g>
<g id="CLOSET">
	<g id="LATERAL-DERECHA">
	</g>
	<g id="BASE">
	</g>
	<g id="DIVISIONES-VERTICALES">
		<g id="DIVISION-VERTICAL-DERECHA">
		</g>
		<g id="DIVISION-CENTRAL">
		</g>
		<g id="DIVISION-VERTICAL-IZQUIERDA_00000085229740836627909760000005526871516412138418_">
		</g>
	</g>
	<g id="DIVISIONES-HORIZONTALES">
	</g>
	<g id="LATERAL-IZQUIERDA">
	</g>
	<g id="TECHO">
	</g>
	<g id="SOPORTES-COOK">
	</g>
</g>
<g id="TABLITAS-TRASERAS">
</g>
<g id="TRIPLEX_00000062169277959621118470000012963048032068378272_">
</g>
<g id="PUNTILLAS">
</g>
<g id="SOPORTE-MUEBLE">
	<g>
		<polygon class="st0" points="2562.1,642.4 2546.2,1181.7 2407.6,1205.9 2433.7,336.8 		"/>
		<polygon class="st1" points="100.2,872.7 100.2,52.7 2433.7,336.8 2407.6,1205.9 		"/>
	</g>
	<circle cx="2482" cy="546.3" r="21.5"/>
	<line class="st2" x1="2783.7" y1="545.2" x2="2478.7" y2="546.2"/>
	<g>
		<defs>
			<circle id="SVGID_1_" cx="3349.4" cy="740.8" r="598"/>
		</defs>
		<clipPath id="SVGID_00000164494627198219184140000014588337238402864058_">
			<use xlink:href="#SVGID_1_"  style="overflow:visible;"/>
		</clipPath>
		<g id="SELECTOR-ELEMENTOS-MADERA-SUB" style="clip-path:url(#SVGID_00000164494627198219184140000014588337238402864058_);">
			<circle class="st4" cx="3348.5" cy="742.7" r="598"/>
			<ellipse class="st5" cx="3345.8" cy="741.6" rx="604.2" ry="599.6"/>
			<circle class="st6" cx="3346.8" cy="740.4" r="598"/>
			<g>
				<polygon class="st7" points="3663.2,770.4 3640.7,1537 3443.6,1571.4 3480.7,335.9 				"/>
				<polygon class="st8" points="163.2,1097.7 163.2,-68 3480.7,335.9 3443.6,1571.4 				"/>
			</g>
		</g>
	</g>
	<circle class="st6" cx="3350.4" cy="740.8" r="598"/>
</g>
<g id="SOPORTE-PARED">
</g>
<g id="MEDIDAS">
</g>
<g id="PROCESOS">
	<g>
		<g>
			<path d="M4343.8,376.3h-41.9l-7.4,17c-1.7,4.2-2.6,7.3-2.6,9.4c0,0.9,0.1,1.7,0.4,2.4c0.3,0.7,0.9,1.4,1.8,2
				c0.9,0.6,2.2,1.1,3.8,1.5c1.6,0.4,3.8,0.7,6.5,0.9v3h-34.1v-3c2.7-0.4,4.9-1,6.6-1.8c1.7-0.8,3.1-1.9,4.3-3.3
				c1.2-1.4,2.3-3.2,3.3-5.4c1-2.2,2.2-5,3.6-8.2l38.1-89h2.7l37.7,90c1.5,3.7,2.9,6.7,4.2,9c1.3,2.3,2.7,4,4.1,5.3
				c1.4,1.3,2.9,2.1,4.5,2.6c1.6,0.5,3.6,0.8,5.9,0.8v3h-42.8v-3c4.3-0.2,7.2-0.9,8.8-2.1c1.5-1.2,2.3-2.7,2.3-4.5
				c-0.1-2.3-1.2-6-3.2-11.2L4343.8,376.3z M4341.5,370.4l-18.4-43.7l-18.8,43.7H4341.5z"/>
			<path d="M4495,372.6V384h-14.5v28.6h-13.2V384h-45.9v-10.2l50.3-71.6h8.8v70.5H4495z M4467.2,372.6v-53.7l-38,53.7H4467.2z"/>
			<path d="M4571.6,304.2l-6.3,13.6h-32.5l-7.1,14.5c6.4,1,12.4,2.6,17.8,5.1c5.4,2.4,10.1,5.4,14,9c3.9,3.6,6.9,7.7,9.1,12.3
				c2.2,4.6,3.3,9.6,3.3,15c0,6.6-1.4,12.4-4.2,17.5c-2.8,5-6.3,9.3-10.5,12.8c-4.2,3.5-8.9,6.1-13.9,7.9c-5,1.8-9.7,2.7-14.2,2.7
				c-3.3,0-6.2-0.3-8.5-0.9c-2.3-0.6-4.3-1.4-5.7-2.4c-1.5-1-2.6-2.2-3.3-3.4c-0.7-1.2-1.1-2.5-1.1-3.9c0-1.5,0.6-2.8,1.8-4
				c1.2-1.2,2.7-1.7,4.6-1.7c0.7,0,1.3,0,1.9,0.1c0.6,0.1,1.1,0.3,1.7,0.5c0.6,0.3,1.3,0.7,2.1,1.2c0.8,0.5,1.9,1.2,3.2,2.1
				c2,1.4,4,2.5,6,3.2c2,0.7,4.1,1,6.1,1c3.1,0,6.1-0.6,8.9-1.9c2.8-1.3,5.3-3,7.4-5.2c2.1-2.2,3.9-4.7,5.2-7.7c1.3-2.9,2-6.1,2-9.5
				c0-3.3-0.6-6.4-1.7-9.5c-1.1-3.1-2.7-6-4.8-8.8c-2.1-2.7-4.5-5.2-7.4-7.4c-2.9-2.2-6.2-4.1-9.8-5.7c-2.9-1.3-6.4-2.2-10.3-2.8
				c-3.9-0.6-8.4-1-13.4-1.3l20.7-42.2H4571.6z"/>
			<path d="M4614.6,301.9c3.4,0,6.6,0.7,9.7,2c3,1.3,5.6,3.1,7.9,5.3c2.2,2.2,4,4.8,5.2,7.9c1.3,3,1.9,6.2,1.9,9.5
				c0,3.3-0.7,6.5-2,9.5c-1.3,3-3.1,5.6-5.3,7.8c-2.2,2.2-4.8,4-7.8,5.2c-3,1.3-6.2,1.9-9.6,1.9c-3.3,0-6.5-0.7-9.5-2
				c-3-1.3-5.6-3.1-7.7-5.2c-2.2-2.2-3.9-4.8-5.2-7.7c-1.3-3-2-6.1-2-9.5c0-3.4,0.6-6.6,1.9-9.6c1.3-3,3-5.6,5.2-7.8
				c2.2-2.2,4.8-4,7.8-5.3C4608.1,302.5,4611.3,301.9,4614.6,301.9z M4614.6,308.6c-2.5,0-4.8,0.5-6.9,1.4s-4,2.2-5.7,3.8
				c-1.6,1.6-2.9,3.5-3.8,5.6c-0.9,2.1-1.4,4.4-1.4,6.9c0,2.4,0.5,4.7,1.4,6.9c0.9,2.2,2.2,4.1,3.8,5.7c1.6,1.6,3.5,2.9,5.7,3.8
				s4.4,1.4,6.9,1.4c2.5,0,4.8-0.5,7-1.4c2.2-1,4.1-2.2,5.7-3.9c1.6-1.6,2.9-3.5,3.8-5.7c1-2.1,1.4-4.4,1.4-6.8
				c0-2.5-0.5-4.8-1.4-6.9c-1-2.1-2.2-4-3.8-5.6c-1.6-1.6-3.5-2.9-5.7-3.8C4619.4,309.1,4617.1,308.6,4614.6,308.6z"/>
			<path d="M4691.4,412.6v-3h4.2c1.8,0,3.5-0.2,4.9-0.5c1.4-0.3,2.6-1,3.6-2.1c1-1.1,1.7-2.7,2.2-4.9c0.5-2.1,0.8-5,0.8-8.7v-69.9
				c0-6.7-0.8-10.9-2.3-12.6c-2.1-2.4-5.1-3.6-9.2-3.6h-4.2v-3h44.1c16,0,28.4,1.9,36.9,5.6c8.5,3.7,15.3,9.9,20.4,18.4
				c5.2,8.7,7.7,18.5,7.7,29.7c0,8-1.3,15.4-3.9,22c-2.6,6.7-6.4,12.4-11.6,17.3c-5.1,4.8-11.5,8.6-19,11.3
				c-7.5,2.7-16.3,4.1-26.3,4.1H4691.4z M4722.4,404.7c6.6,1.5,12.2,2.3,16.9,2.3c6.1,0,11.8-1.1,17-3.4c5.2-2.3,9.8-5.5,13.6-9.7
				c3.9-4.2,6.9-9.2,9.1-15.2c2.2-6,3.3-12.6,3.3-20c0-7.5-1.1-14.2-3.2-20.2c-2.1-6-5.2-11.1-9.1-15.3c-3.9-4.2-8.5-7.4-13.8-9.6
				c-5.3-2.2-11.2-3.3-17.5-3.3c-4.7,0-10.1,0.8-16.3,2.4V404.7z"/>
			<path d="M4840.9,310.2V353h23.7c3.5,0,6.3-0.3,8.5-1c2.1-0.6,3.8-1.6,5.1-2.9c1.2-1.3,2.1-2.9,2.6-4.9c0.5-2,0.8-4.3,1-7h3v37.7
				h-3c-0.4-3.1-0.9-5.7-1.4-7.7c-0.5-2.1-1.4-3.7-2.5-4.9c-1.2-1.2-2.8-2.1-4.8-2.6c-2.1-0.5-4.8-0.8-8.3-0.8h-23.7v35.7
				c0,2.7,0,4.8,0.1,6.4c0.1,1.6,0.4,2.8,1,3.6c0.6,0.8,1.4,1.4,2.6,1.6s2.9,0.4,5.2,0.4h18.3c3.1,0,5.7-0.1,7.9-0.2
				c2.1-0.2,4-0.5,5.5-1c1.5-0.5,2.9-1.1,4.1-2c1.2-0.8,2.5-1.9,3.8-3.2c3.2-3.1,6.6-8.1,10.1-14.9h3.2l-9.4,27.2h-83.4v-3h3.8
				c1,0,2.1-0.1,3.2-0.4c1.1-0.2,2.2-0.6,3.2-1c1-0.4,1.9-1,2.7-1.7c0.8-0.7,1.3-1.5,1.7-2.5c0.6-1.7,1-5.2,1-10.5v-70.3
				c0-6.9-0.7-11.2-2-12.8c-1.9-2.1-5.1-3.2-9.7-3.2h-3.8v-3h83.4V328h-1.9c-0.8-3.9-1.6-7-2.6-9.4c-0.9-2.3-2.1-4.1-3.6-5.4
				c-1.5-1.3-3.4-2.1-5.8-2.4c-2.3-0.4-5.3-0.5-9-0.5H4840.9z"/>
			<path d="M5006.9,301.9l2.9,34.1h-2.9c-3.3-10-7.9-17.3-13.9-21.7c-6-4.5-13.3-6.7-21.9-6.7c-6.4,0-12,1.3-17,3.8
				c-5,2.5-9.3,6-12.8,10.4c-3.5,4.4-6.2,9.6-8,15.6c-1.8,6-2.7,12.5-2.7,19.5c0,10.2,2,19.7,6.1,28.2c2,4.3,4.3,8,7,11.1
				c2.7,3.1,5.5,5.7,8.6,7.7c3.1,2,6.3,3.5,9.7,4.5c3.4,1,6.8,1.4,10.2,1.4c7.9,0,15.4-2,22.4-6v-31.3c0-2.7-0.1-4.9-0.3-6.6
				c-0.2-1.7-0.5-3.1-1-4.1c-0.4-1-1-1.7-1.6-2.3c-0.6-0.5-1.4-1-2.3-1.5c-1.7-0.9-4.8-1.3-9.1-1.3v-3.1h41.9v3.1h-2
				c-1.8,0-3.4,0.2-4.6,0.6c-1.3,0.4-2.3,1.2-3.2,2.3c-0.8,1.1-1.4,2.7-1.8,4.8c-0.4,2.1-0.5,4.8-0.5,8.1v33.1
				c-3.1,1.7-6.1,3.1-9.1,4.3c-3,1.2-6,2.2-9,2.9c-6.2,1.6-12.8,2.4-19.9,2.4c-9.1,0-17.3-1.4-24.6-4.2c-7.3-2.8-13.6-6.6-18.9-11.6
				c-5.2-4.9-9.3-10.7-12.2-17.4c-2.9-6.7-4.3-13.9-4.3-21.8c0-9.5,2.3-18.6,6.9-27.4c5.3-10.3,12.8-18.3,22.3-24
				c7.9-4.6,17.3-6.9,28.1-6.9c2.1,0,4.1,0.1,5.7,0.2c1.7,0.1,3.4,0.4,5.2,0.7c1.8,0.4,3.7,0.9,5.8,1.5c2.1,0.7,4.7,1.6,7.7,2.7
				c3,1.2,5,1.7,6.1,1.7c1,0,1.8-0.5,2.5-1.4c0.7-0.9,1.2-2.7,1.3-5.4H5006.9z"/>
			<path d="M5135.1,412.6h-28.8l-36.7-50.6c-1.4,0.1-2.6,0.1-3.6,0.2c-1.1,0-2,0.1-2.9,0.1c-0.7,0-1.5,0-2.3-0.1
				c-0.8,0-1.6-0.1-2.5-0.2v31.5c0,3.8,0.3,6.8,0.8,9c0.5,2.2,1.3,3.8,2.3,4.9c1,1.1,2.2,1.7,3.6,2c1.4,0.2,3,0.4,4.7,0.4h4.3v3
				h-46.5v-3h4.2c4.4,0,7.7-1.5,9.8-4.4c1.1-1.7,1.7-5.7,1.7-11.8v-69.9c0-6.7-0.8-10.9-2.3-12.6c-2.1-2.4-5.1-3.6-9.2-3.6h-4.2v-3
				h39.4c5.8,0,10.8,0.2,15,0.7c4.2,0.4,7.7,1.1,10.4,2c2.7,0.9,5.2,2.1,7.6,3.6c2.4,1.5,4.5,3.4,6.3,5.6c1.8,2.2,3.2,4.6,4.2,7.3
				c1,2.7,1.5,5.6,1.5,8.7c0,6.8-2.1,12.6-6.4,17.4c-4.3,4.8-11,8.3-20.1,10.4l22.3,31c2.6,3.6,4.9,6.5,7,8.8c2,2.3,4.1,4.1,6.1,5.5
				c2,1.4,4.2,2.3,6.4,3c2.3,0.6,4.9,1.1,8,1.4V412.6z M5058.3,356.9c1,0,1.9,0,2.7,0.1c0.8,0,1.4,0.1,1.8,0.1
				c5.2,0,9.7-0.6,13.6-1.8c3.9-1.2,7.1-2.9,9.8-5c2.6-2.1,4.6-4.7,5.9-7.6c1.3-2.9,2-6.1,2-9.5c0-3.3-0.6-6.4-1.7-9.2
				c-1.1-2.8-2.7-5.2-4.8-7.3c-2.1-2-4.5-3.6-7.4-4.7c-2.9-1.1-6-1.7-9.4-1.7c-3.3,0-7.4,0.5-12.5,1.5V356.9z"/>
			<path d="M5167.9,310.2V353h23.7c3.5,0,6.3-0.3,8.5-1c2.1-0.6,3.8-1.6,5.1-2.9c1.2-1.3,2.1-2.9,2.6-4.9c0.5-2,0.8-4.3,1-7h3v37.7
				h-3c-0.4-3.1-0.9-5.7-1.4-7.7c-0.5-2.1-1.4-3.7-2.5-4.9c-1.2-1.2-2.8-2.1-4.8-2.6c-2.1-0.5-4.8-0.8-8.3-0.8h-23.7v35.7
				c0,2.7,0,4.8,0.1,6.4c0.1,1.6,0.4,2.8,1,3.6c0.6,0.8,1.4,1.4,2.6,1.6s2.9,0.4,5.2,0.4h18.3c3.1,0,5.7-0.1,7.9-0.2
				c2.1-0.2,4-0.5,5.5-1c1.5-0.5,2.9-1.1,4.1-2c1.2-0.8,2.5-1.9,3.8-3.2c3.2-3.1,6.6-8.1,10.1-14.9h3.2l-9.4,27.2H5137v-3h3.8
				c1,0,2.1-0.1,3.2-0.4c1.1-0.2,2.2-0.6,3.2-1c1-0.4,1.9-1,2.7-1.7c0.8-0.7,1.3-1.5,1.7-2.5c0.6-1.7,1-5.2,1-10.5v-70.3
				c0-6.9-0.7-11.2-2-12.8c-1.9-2.1-5.1-3.2-9.7-3.2h-3.8v-3h83.4V328h-1.9c-0.8-3.9-1.6-7-2.6-9.4c-0.9-2.3-2.1-4.1-3.6-5.4
				c-1.5-1.3-3.4-2.1-5.8-2.4c-2.3-0.4-5.3-0.5-9-0.5H5167.9z"/>
			<path d="M5267.7,310.2V353h23.7c3.5,0,6.3-0.3,8.5-1c2.1-0.6,3.8-1.6,5.1-2.9c1.2-1.3,2.1-2.9,2.6-4.9c0.5-2,0.8-4.3,1-7h3v37.7
				h-3c-0.4-3.1-0.9-5.7-1.4-7.7c-0.5-2.1-1.4-3.7-2.5-4.9c-1.2-1.2-2.8-2.1-4.8-2.6c-2.1-0.5-4.8-0.8-8.3-0.8h-23.7v35.7
				c0,2.7,0,4.8,0.1,6.4c0.1,1.6,0.4,2.8,1,3.6c0.6,0.8,1.4,1.4,2.6,1.6s2.9,0.4,5.2,0.4h18.3c3.1,0,5.7-0.1,7.9-0.2
				c2.1-0.2,4-0.5,5.5-1c1.5-0.5,2.9-1.1,4.1-2c1.2-0.8,2.5-1.9,3.8-3.2c3.2-3.1,6.6-8.1,10.1-14.9h3.2l-9.4,27.2h-83.4v-3h3.8
				c1,0,2.1-0.1,3.2-0.4c1.1-0.2,2.2-0.6,3.2-1c1-0.4,1.9-1,2.7-1.7c0.8-0.7,1.3-1.5,1.7-2.5c0.6-1.7,1-5.2,1-10.5v-70.3
				c0-6.9-0.7-11.2-2-12.8c-1.9-2.1-5.1-3.2-9.7-3.2h-3.8v-3h83.4V328h-1.9c-0.8-3.9-1.6-7-2.6-9.4c-0.9-2.3-2.1-4.1-3.6-5.4
				c-1.5-1.3-3.4-2.1-5.8-2.4c-2.3-0.4-5.3-0.5-9-0.5H5267.7z"/>
			<path d="M5472.7,301.9l2.5,36.8h-2.5c-3.3-11-8-19-14.1-23.8c-6.1-4.8-13.4-7.3-22-7.3c-5.6,0-10.7,1.1-15.4,3.2
				c-4.7,2.1-8.7,5.3-12.1,9.7c-3.4,4.4-6,9.9-7.9,16.4c-1.9,6.6-2.9,14.4-2.9,23.4c0,7.2,0.9,13.8,2.7,19.7
				c1.8,5.9,4.4,10.9,7.9,15.1c3.5,4.2,7.7,7.4,12.7,9.7c5,2.3,10.8,3.4,17.3,3.4c6.8,0,13-1.5,18.6-4.5c5.3-2.8,11.2-8.7,17.8-17.9
				l2.5,1.5c-5.5,9.6-11.8,16.7-19,21.2c-7.2,4.5-15.8,6.7-25.8,6.7c-7.7,0-14.8-1.4-21.2-4.1c-6.4-2.7-12-6.5-16.6-11.4
				s-8.3-10.7-10.9-17.4c-2.6-6.7-3.9-14.1-3.9-22.1c0-10.9,2.4-20.8,7.3-29.8c4.8-9.1,11.4-16,19.9-21c8.6-5,17.9-7.5,27.9-7.5
				c7.9,0,15.6,1.9,23.1,5.7c2.2,1.2,3.8,1.8,4.8,1.8c1.7,0,3.2-0.7,4.3-2.1c1.2-1.4,2-3.2,2.4-5.4H5472.7z"/>
			<path d="M5561.4,307.2v-3h38.2v3h-4.1c-4.1,0-7.4,1.8-9.8,5.4c-1.1,1.6-1.7,5.4-1.7,11.6V368c0,10.6-1.1,19.1-3.3,25.4
				c-1.1,3-2.7,5.8-4.8,8.5c-2.1,2.6-4.7,4.9-7.9,6.9c-3.2,1.9-6.9,3.5-11.1,4.6c-4.2,1.2-9.1,1.7-14.6,1.7c-6,0-11.2-0.5-15.6-1.5
				c-4.5-1-8.3-2.5-11.4-4.5c-3.2-2-5.8-4.4-7.9-7.1c-2.1-2.8-3.7-5.9-5-9.4c-1.7-4.8-2.6-13.7-2.6-26.7v-42.3
				c0-3.3-0.2-6.1-0.7-8.2c-0.4-2.1-1.1-3.8-2.1-4.9s-2.2-2-3.6-2.4c-1.5-0.4-3.2-0.7-5.2-0.7h-4.2v-3h46.8v3h-4.2
				c-1.9,0-3.6,0.2-5,0.6c-1.4,0.4-2.6,1.2-3.6,2.3c-1,1.2-1.7,2.8-2.2,4.9c-0.5,2.1-0.8,4.9-0.8,8.4v47.2c0,4.8,0.3,9.4,1,13.9
				c0.6,4.5,1.9,8.6,3.9,12.1c2,3.5,4.8,6.4,8.5,8.5c3.7,2.1,8.6,3.2,14.7,3.2c3.5,0,6.9-0.4,10.1-1.3c3.3-0.8,6.2-2,8.9-3.4
				c2.7-1.4,5-3.2,7-5.2c2-2,3.5-4.2,4.4-6.6c2.1-4.7,3.1-12.9,3.1-24.5v-43.9c0-6.7-0.8-10.9-2.3-12.6c-2.1-2.4-5.1-3.6-9.2-3.6
				H5561.4z"/>
			<path d="M5696,304.2v25.5h-1.8c-0.9-6.8-2.9-11.7-6-14.5c-3.1-2.8-7.8-4.2-13.9-4.2h-15.3v82.8c0,3.7,0.3,6.5,0.8,8.6
				c0.5,2.1,1.3,3.7,2.2,4.7c1,1,2.1,1.7,3.6,2c1.4,0.3,3.1,0.4,5,0.4h3.7v3h-45.9v-3h3.8c1.9,0,3.6-0.2,5-0.5
				c1.4-0.3,2.6-1,3.6-2.1s1.7-2.6,2.2-4.7c0.5-2.1,0.8-4.9,0.8-8.5V311h-13c-3.3,0-6.1,0.3-8.6,0.8c-2.5,0.5-4.7,1.5-6.5,2.9
				c-1.8,1.4-3.3,3.3-4.3,5.7c-1.1,2.4-1.7,5.5-2,9.4h-3v-25.5H5696z"/>
		</g>
	</g>
	<g>
		<g>
			<path d="M4290.2,576.1v3h-46.4v-3h3.8c1.9,0,3.6-0.1,5.1-0.4c1.5-0.3,2.7-1,3.6-2c1-1.1,1.7-2.7,2.2-4.9c0.5-2.2,0.8-5.1,0.8-8.9
				v-69.9c0-2.5-0.1-4.5-0.2-6.1c-0.1-1.6-0.3-3-0.6-4c-0.3-1-0.7-1.8-1.3-2.4c-0.6-0.6-1.3-1.2-2.3-1.7c-2.4-1.3-4.8-1.9-7.4-1.9
				h-3.8v-3h46.4v3h-3.8c-1.9,0-3.6,0.2-5.1,0.5c-1.5,0.3-2.7,1-3.6,2.1s-1.7,2.7-2.2,4.9c-0.5,2.2-0.8,5.1-0.8,8.8v69.9
				c0,2.5,0,4.6,0.1,6.2c0.1,1.6,0.3,2.9,0.6,3.9c0.3,1,0.8,1.8,1.4,2.4s1.4,1.2,2.3,1.7c2.2,1.3,4.6,1.9,7.3,1.9H4290.2z"/>
			<path d="M4369.2,468.3v37.4h-3c-1.4-10.1-4.6-17.8-9.9-23.1c-5.2-5.3-11.9-8-20-8c-2.8,0-5.3,0.5-7.6,1.4c-2.3,1-4.3,2.2-6.1,3.8
				c-1.7,1.5-3.1,3.3-4.1,5.3c-1,2-1.4,4.1-1.4,6.2c0,2,0.4,3.9,1.2,5.7c0.8,1.8,3.3,4.6,7.4,8.4c6.9,4.4,13.1,8,18.5,10.8
				c5.1,2.8,12,7,20.6,12.6c3.7,2.9,6.6,6.3,8.6,10.2c2,3.9,3,8,3,12.3c0,4.1-0.8,7.9-2.5,11.6c-1.7,3.7-4,6.9-7,9.6
				c-3,2.7-6.6,4.9-10.8,6.6c-4.2,1.6-8.8,2.4-13.8,2.4c-3.2,0-6.1-0.2-8.8-0.7c-0.5-0.1-1.7-0.4-3.8-1c-2-0.6-4.2-1.2-6.5-1.8
				c-2.3-0.6-4.4-1.2-6.4-1.8c-2-0.6-3.1-0.8-3.5-0.8c-1.4,0-2.4,0.4-3.2,1.2c-0.8,0.8-1.3,2.5-1.7,5h-3v-37.2h3
				c1.4,7.6,3.3,13.5,5.6,17.5c1.1,1.9,2.6,3.7,4.5,5.3c1.9,1.6,4,3.1,6.3,4.3c2.3,1.2,4.9,2.2,7.6,2.9c2.7,0.7,5.4,1,8.2,1
				c3.3,0,6.3-0.5,9-1.4c2.7-1,4.9-2.2,6.8-3.9c1.9-1.6,3.3-3.5,4.3-5.7c1-2.1,1.5-4.4,1.5-6.8c0-2.7-0.7-5.4-2.2-8.1
				c-1.5-2.7-4-5.4-7.4-8c-3.4-2.1-7.5-4.5-12.2-7.3c-9-5.2-17-10.1-24-14.9c-3.9-3.1-6.9-6.5-8.9-10.2c-2-3.7-3-7.8-3-12.3
				c0-3.8,0.8-7.4,2.4-10.9c1.6-3.5,3.8-6.5,6.6-9.1c2.8-2.6,6.2-4.7,10.1-6.2c3.9-1.5,8.1-2.3,12.6-2.3c5.7,0,11.8,1.4,18.2,4.2
				c1.5,0.6,2.8,1.2,3.8,1.5c1,0.4,1.9,0.6,2.5,0.5c1.4,0,2.6-0.4,3.5-1.2c0.9-0.8,1.5-2.5,2-5H4369.2z"/>
			<path d="M4492.9,579l-41.8-91v72.3c0,3.7,0.3,6.7,0.8,8.8c0.5,2.1,1.3,3.7,2.3,4.7c1,1,2.2,1.7,3.6,1.9c1.4,0.2,3.1,0.4,4.9,0.4
				h3.8v3h-37.7v-3h3.8c1.9,0,3.6-0.1,5-0.4c1.4-0.3,2.6-1,3.6-2s1.7-2.7,2.1-4.8c0.5-2.1,0.7-4.9,0.7-8.5v-70.8
				c0-2.5-0.1-4.8-0.4-6.7c-0.2-1.9-0.9-3.6-1.8-4.9c-1-1.3-2.5-2.4-4.5-3.1c-2-0.7-4.9-1.1-8.5-1.1v-3h30.6l39.3,84.7l38.6-84.7
				h30.6v3h-3.7c-2,0-3.7,0.2-5.1,0.5c-1.4,0.3-2.6,1-3.6,2.1s-1.7,2.7-2.1,4.8c-0.5,2.1-0.7,4.9-0.7,8.5v70.8
				c0,3.7,0.3,6.7,0.8,8.8c0.5,2.1,1.3,3.7,2.3,4.7c1,1,2.2,1.7,3.6,1.9c1.4,0.2,3.1,0.4,4.9,0.4h3.7v3h-46v-3h3.8
				c1.9,0,3.6-0.2,5-0.5c1.4-0.3,2.6-1,3.6-2.1c1-1.1,1.7-2.6,2.2-4.7c0.5-2.1,0.7-4.9,0.7-8.5V488l-41.7,91H4492.9z"/>
			<path d="M4646.2,542.8h-41.9l-7.4,17c-1.7,4.2-2.6,7.3-2.6,9.4c0,0.9,0.1,1.7,0.4,2.4c0.3,0.7,0.9,1.4,1.8,2
				c0.9,0.6,2.2,1.1,3.8,1.5c1.6,0.4,3.8,0.7,6.5,0.9v3h-34.1v-3c2.7-0.4,4.9-1,6.6-1.8c1.7-0.8,3.1-1.9,4.3-3.3
				c1.2-1.4,2.3-3.2,3.3-5.4c1-2.2,2.2-5,3.6-8.2l38.1-89h2.7l37.7,90c1.5,3.7,2.9,6.7,4.2,9c1.3,2.3,2.7,4,4.1,5.3
				c1.4,1.3,2.9,2.1,4.5,2.6c1.6,0.5,3.6,0.8,5.9,0.8v3h-42.8v-3c4.3-0.2,7.2-0.9,8.8-2.1c1.5-1.2,2.3-2.7,2.3-4.5
				c-0.1-2.3-1.2-6-3.2-11.2L4646.2,542.8z M4644,536.8l-18.4-43.7l-18.8,43.7H4644z"/>
			<path d="M4692.2,579v-3h4.2c1.8,0,3.5-0.2,4.9-0.5c1.4-0.3,2.6-1,3.6-2.1c1-1.1,1.7-2.7,2.2-4.9c0.5-2.1,0.8-5,0.8-8.7v-69.9
				c0-6.7-0.8-10.9-2.3-12.6c-2.1-2.4-5.1-3.6-9.2-3.6h-4.2v-3h44.1c16,0,28.4,1.9,36.9,5.6c8.5,3.7,15.3,9.9,20.4,18.4
				c5.2,8.7,7.7,18.5,7.7,29.7c0,8-1.3,15.4-3.9,22c-2.6,6.7-6.4,12.4-11.6,17.3c-5.1,4.8-11.5,8.6-19,11.3
				c-7.5,2.7-16.3,4.1-26.3,4.1H4692.2z M4723.2,571.2c6.6,1.5,12.2,2.3,16.9,2.3c6.1,0,11.8-1.1,17-3.4c5.2-2.3,9.8-5.5,13.6-9.7
				c3.9-4.2,6.9-9.2,9.1-15.2c2.2-6,3.3-12.6,3.3-20c0-7.5-1.1-14.2-3.2-20.2c-2.1-6-5.2-11.1-9.1-15.3c-3.9-4.2-8.5-7.4-13.8-9.6
				c-5.3-2.2-11.2-3.3-17.5-3.3c-4.7,0-10.1,0.8-16.3,2.4V571.2z"/>
			<path d="M4841.8,476.7v42.8h23.7c3.5,0,6.3-0.3,8.5-1c2.1-0.6,3.8-1.6,5.1-2.9c1.2-1.3,2.1-2.9,2.6-4.9c0.5-2,0.8-4.3,1-7h3v37.7
				h-3c-0.4-3.1-0.9-5.7-1.4-7.7c-0.5-2.1-1.4-3.7-2.5-4.9c-1.2-1.2-2.8-2.1-4.8-2.6c-2.1-0.5-4.8-0.8-8.3-0.8h-23.7V561
				c0,2.7,0,4.8,0.1,6.4c0.1,1.6,0.4,2.8,1,3.6c0.6,0.8,1.4,1.4,2.6,1.6s2.9,0.4,5.2,0.4h18.3c3.1,0,5.7-0.1,7.9-0.2
				c2.1-0.2,4-0.5,5.5-1c1.5-0.5,2.9-1.1,4.1-2c1.2-0.8,2.5-1.9,3.8-3.2c3.2-3.1,6.6-8.1,10.1-14.9h3.2l-9.4,27.2h-83.4v-3h3.8
				c1,0,2.1-0.1,3.2-0.4c1.1-0.2,2.2-0.6,3.2-1c1-0.4,1.9-1,2.7-1.7c0.8-0.7,1.3-1.5,1.7-2.5c0.6-1.7,1-5.2,1-10.5v-70.3
				c0-6.9-0.7-11.2-2-12.8c-1.9-2.1-5.1-3.2-9.7-3.2h-3.8v-3h83.4v23.7h-1.9c-0.8-3.9-1.6-7-2.6-9.4c-0.9-2.3-2.1-4.1-3.6-5.4
				c-1.5-1.3-3.4-2.1-5.8-2.4c-2.3-0.4-5.3-0.5-9-0.5H4841.8z"/>
			<path d="M4998.7,576.1v3h-46.4v-3h3.8c1.9,0,3.6-0.1,5.1-0.4c1.5-0.3,2.7-1,3.6-2c1-1.1,1.7-2.7,2.2-4.9c0.5-2.2,0.8-5.1,0.8-8.9
				v-69.9c0-2.5-0.1-4.5-0.2-6.1c-0.1-1.6-0.3-3-0.6-4c-0.3-1-0.7-1.8-1.3-2.4c-0.6-0.6-1.3-1.2-2.3-1.7c-2.4-1.3-4.8-1.9-7.4-1.9
				h-3.8v-3h46.4v3h-3.8c-1.9,0-3.6,0.2-5.1,0.5c-1.5,0.3-2.7,1-3.6,2.1s-1.7,2.7-2.2,4.9c-0.5,2.2-0.8,5.1-0.8,8.8v69.9
				c0,2.5,0,4.6,0.1,6.2c0.1,1.6,0.3,2.9,0.6,3.9c0.3,1,0.8,1.8,1.4,2.4s1.4,1.2,2.3,1.7c2.2,1.3,4.6,1.9,7.3,1.9H4998.7z"/>
			<path d="M5000.6,470.7h29.3l66.3,81.3v-62.4c0-3.7-0.3-6.6-0.8-8.7c-0.5-2.1-1.3-3.7-2.3-4.8c-1-1-2.2-1.7-3.6-2
				c-1.4-0.3-3.1-0.4-4.9-0.4h-3.8v-3h37.8v3h-3.9c-1.9,0-3.6,0.2-5,0.5c-1.4,0.3-2.6,1-3.6,2.1c-1,1.1-1.7,2.7-2.1,4.8
				c-0.5,2.1-0.7,4.9-0.7,8.5v91.3h-2.9l-71.4-87.2v66.7c0,3.7,0.3,6.7,0.8,8.8c0.5,2.1,1.3,3.7,2.2,4.7c1,1,2.1,1.7,3.6,1.9
				c1.4,0.2,3.1,0.4,4.9,0.4h3.8v3h-37.7v-3h3.8c1.9,0,3.6-0.2,5-0.5c1.4-0.3,2.6-1,3.6-2.1c1-1.1,1.7-2.6,2.2-4.7
				c0.5-2.1,0.7-4.9,0.7-8.5V485c-1.6-1.9-2.9-3.4-4-4.5c-1.1-1.1-2.1-2-3-2.7s-2-1.3-3.1-1.8c-1.1-0.5-2.5-1-4.2-1.5
				c-1.6-0.5-3.9-0.7-7-0.7V470.7z"/>
			<path d="M5221.5,468.3c6.9,0,13.5,1.4,19.8,4.3c6.3,2.9,11.8,6.8,16.6,11.8c4.8,5,8.6,10.9,11.4,17.7c2.8,6.8,4.2,14.2,4.2,22.1
				c0,8.2-1.4,15.8-4.2,22.8c-2.8,7-6.6,13-11.4,18.2c-4.8,5.1-10.4,9.1-16.9,12c-6.5,2.9-13.4,4.3-20.7,4.3
				c-7.4,0-14.3-1.4-20.7-4.2c-6.4-2.8-12-6.7-16.7-11.7c-4.7-5-8.5-11.1-11.2-18.1c-2.7-7-4.1-14.7-4.1-23.1
				c0-7.8,1.4-15.1,4.1-21.9c2.7-6.8,6.5-12.8,11.3-17.8c4.8-5,10.5-9,17.1-12C5206.6,469.8,5213.8,468.3,5221.5,468.3z M5220,474.2
				c-5.5,0-10.3,1.2-14.6,3.5c-4.3,2.3-7.8,5.7-10.7,10c-2.9,4.3-5.1,9.6-6.6,15.7c-1.5,6.2-2.3,13.1-2.3,20.8
				c0,7.6,0.7,14.6,2.2,20.9c1.5,6.3,3.7,11.8,6.6,16.3c2.9,4.6,6.5,8.1,10.8,10.6c4.3,2.5,9.2,3.8,14.8,3.8c5,0,9.6-1,13.9-2.9
				c4.2-1.9,8-4.9,11.1-8.9c3.2-4,5.7-9.1,7.4-15.4c1.8-6.2,2.7-13.7,2.7-22.3c0-8.2-0.7-15.5-2.2-22c-1.5-6.5-3.7-12-6.7-16.4
				c-3-4.5-6.7-7.9-11.1-10.2C5230.9,475.3,5225.8,474.2,5220,474.2z"/>
			<path d="M5390.3,579h-28.8l-36.7-50.6c-1.4,0.1-2.6,0.1-3.6,0.2c-1.1,0-2,0.1-2.9,0.1c-0.7,0-1.5,0-2.3-0.1
				c-0.8,0-1.6-0.1-2.5-0.2v31.5c0,3.8,0.3,6.8,0.8,9c0.5,2.2,1.3,3.8,2.3,4.9c1,1.1,2.2,1.7,3.6,2c1.4,0.2,3,0.4,4.7,0.4h4.3v3
				h-46.5v-3h4.2c4.4,0,7.7-1.5,9.8-4.4c1.1-1.7,1.7-5.7,1.7-11.8v-69.9c0-6.7-0.8-10.9-2.3-12.6c-2.1-2.4-5.1-3.6-9.2-3.6h-4.2v-3
				h39.4c5.8,0,10.8,0.2,15,0.7c4.2,0.4,7.7,1.1,10.4,2c2.7,0.9,5.2,2.1,7.6,3.6c2.4,1.5,4.5,3.4,6.3,5.6c1.8,2.2,3.2,4.6,4.2,7.3
				c1,2.7,1.5,5.6,1.5,8.7c0,6.8-2.1,12.6-6.4,17.4c-4.3,4.8-11,8.3-20.1,10.4l22.3,31c2.6,3.6,4.9,6.5,7,8.8c2,2.3,4.1,4.1,6.1,5.5
				c2,1.4,4.2,2.3,6.4,3c2.3,0.6,4.9,1.1,8,1.4V579z M5313.4,523.4c1,0,1.9,0,2.7,0.1c0.8,0,1.4,0.1,1.8,0.1c5.2,0,9.7-0.6,13.6-1.8
				c3.9-1.2,7.1-2.9,9.8-5c2.6-2.1,4.6-4.7,5.9-7.6c1.3-2.9,2-6.1,2-9.5c0-3.3-0.6-6.4-1.7-9.2c-1.1-2.8-2.7-5.2-4.8-7.3
				c-2.1-2-4.5-3.6-7.4-4.7c-2.9-1.1-6-1.7-9.4-1.7c-3.3,0-7.4,0.5-12.5,1.5V523.4z"/>
			<path d="M5391.6,579v-3h4.2c1.8,0,3.5-0.2,4.9-0.5c1.4-0.3,2.6-1,3.6-2.1c1-1.1,1.7-2.7,2.2-4.9c0.5-2.1,0.8-5,0.8-8.7v-69.9
				c0-6.7-0.8-10.9-2.3-12.6c-2.1-2.4-5.1-3.6-9.2-3.6h-4.2v-3h44.1c16,0,28.4,1.9,36.9,5.6c8.5,3.7,15.3,9.9,20.4,18.4
				c5.2,8.7,7.7,18.5,7.7,29.7c0,8-1.3,15.4-3.9,22c-2.6,6.7-6.4,12.4-11.6,17.3c-5.1,4.8-11.5,8.6-19,11.3
				c-7.5,2.7-16.3,4.1-26.3,4.1H5391.6z M5422.6,571.2c6.6,1.5,12.2,2.3,16.9,2.3c6.1,0,11.8-1.1,17-3.4c5.2-2.3,9.8-5.5,13.6-9.7
				c3.9-4.2,6.9-9.2,9.1-15.2c2.2-6,3.3-12.6,3.3-20c0-7.5-1.1-14.2-3.2-20.2c-2.1-6-5.2-11.1-9.1-15.3c-3.9-4.2-8.5-7.4-13.8-9.6
				c-5.3-2.2-11.2-3.3-17.5-3.3c-4.7,0-10.1,0.8-16.3,2.4V571.2z"/>
			<path d="M5541.1,476.7v42.8h23.7c3.5,0,6.3-0.3,8.5-1c2.1-0.6,3.8-1.6,5.1-2.9c1.2-1.3,2.1-2.9,2.6-4.9c0.5-2,0.8-4.3,1-7h3v37.7
				h-3c-0.4-3.1-0.9-5.7-1.4-7.7c-0.5-2.1-1.4-3.7-2.5-4.9c-1.2-1.2-2.8-2.1-4.8-2.6c-2.1-0.5-4.8-0.8-8.3-0.8h-23.7V561
				c0,2.7,0,4.8,0.1,6.4c0.1,1.6,0.4,2.8,1,3.6c0.6,0.8,1.4,1.4,2.6,1.6s2.9,0.4,5.2,0.4h18.3c3.1,0,5.7-0.1,7.9-0.2
				c2.1-0.2,4-0.5,5.5-1c1.5-0.5,2.9-1.1,4.1-2c1.2-0.8,2.5-1.9,3.8-3.2c3.2-3.1,6.6-8.1,10.1-14.9h3.2l-9.4,27.2h-83.4v-3h3.8
				c1,0,2.1-0.1,3.2-0.4c1.1-0.2,2.2-0.6,3.2-1c1-0.4,1.9-1,2.7-1.7c0.8-0.7,1.3-1.5,1.7-2.5c0.6-1.7,1-5.2,1-10.5v-70.3
				c0-6.9-0.7-11.2-2-12.8c-1.9-2.1-5.1-3.2-9.7-3.2h-3.8v-3h83.4v23.7h-1.9c-0.8-3.9-1.6-7-2.6-9.4c-0.9-2.3-2.1-4.1-3.6-5.4
				c-1.5-1.3-3.4-2.1-5.8-2.4c-2.3-0.4-5.3-0.5-9-0.5H5541.1z"/>
			<path d="M5717.2,579h-28.8l-36.7-50.6c-1.4,0.1-2.6,0.1-3.6,0.2c-1.1,0-2,0.1-2.9,0.1c-0.7,0-1.5,0-2.3-0.1
				c-0.8,0-1.6-0.1-2.5-0.2v31.5c0,3.8,0.3,6.8,0.8,9c0.5,2.2,1.3,3.8,2.3,4.9c1,1.1,2.2,1.7,3.6,2c1.4,0.2,3,0.4,4.7,0.4h4.3v3
				h-46.5v-3h4.2c4.4,0,7.7-1.5,9.8-4.4c1.1-1.7,1.7-5.7,1.7-11.8v-69.9c0-6.7-0.8-10.9-2.3-12.6c-2.1-2.4-5.1-3.6-9.2-3.6h-4.2v-3
				h39.4c5.8,0,10.8,0.2,15,0.7c4.2,0.4,7.7,1.1,10.4,2c2.7,0.9,5.2,2.1,7.6,3.6c2.4,1.5,4.5,3.4,6.3,5.6c1.8,2.2,3.2,4.6,4.2,7.3
				c1,2.7,1.5,5.6,1.5,8.7c0,6.8-2.1,12.6-6.4,17.4c-4.3,4.8-11,8.3-20.1,10.4l22.3,31c2.6,3.6,4.9,6.5,7,8.8c2,2.3,4.1,4.1,6.1,5.5
				c2,1.4,4.2,2.3,6.4,3c2.3,0.6,4.9,1.1,8,1.4V579z M5640.4,523.4c1,0,1.9,0,2.7,0.1c0.8,0,1.4,0.1,1.8,0.1c5.2,0,9.7-0.6,13.6-1.8
				c3.9-1.2,7.1-2.9,9.8-5c2.6-2.1,4.6-4.7,5.9-7.6c1.3-2.9,2-6.1,2-9.5c0-3.3-0.6-6.4-1.7-9.2c-1.1-2.8-2.7-5.2-4.8-7.3
				c-2.1-2-4.5-3.6-7.4-4.7c-2.9-1.1-6-1.7-9.4-1.7c-3.3,0-7.4,0.5-12.5,1.5V523.4z"/>
		</g>
	</g>
	<g>
		<g>
			<path d="M4104,622.7v25.5h-1.8c-0.9-6.8-2.9-11.7-6-14.5c-3.1-2.8-7.8-4.2-13.9-4.2H4067v82.8c0,3.7,0.3,6.5,0.8,8.6
				c0.5,2.1,1.3,3.7,2.2,4.7c1,1,2.1,1.7,3.6,2c1.4,0.3,3.1,0.4,5,0.4h3.7v3h-45.9v-3h3.8c1.9,0,3.6-0.2,5-0.5
				c1.4-0.3,2.6-1,3.6-2.1s1.7-2.6,2.2-4.7c0.5-2.1,0.8-4.9,0.8-8.5v-82.8h-13c-3.3,0-6.1,0.3-8.6,0.8c-2.5,0.5-4.7,1.5-6.5,2.9
				c-1.8,1.4-3.3,3.3-4.3,5.7c-1.1,2.4-1.7,5.5-2,9.4h-3v-25.5H4104z"/>
			<path d="M4166.1,620.3c6.9,0,13.5,1.4,19.8,4.3c6.3,2.9,11.8,6.8,16.6,11.8c4.8,5,8.6,10.9,11.4,17.7c2.8,6.8,4.2,14.2,4.2,22.1
				c0,8.2-1.4,15.8-4.2,22.8c-2.8,7-6.6,13-11.4,18.2c-4.8,5.1-10.4,9.1-16.9,12c-6.5,2.9-13.4,4.3-20.7,4.3
				c-7.4,0-14.3-1.4-20.7-4.2c-6.4-2.8-12-6.7-16.7-11.7c-4.7-5-8.5-11.1-11.2-18.1c-2.7-7-4.1-14.7-4.1-23.1
				c0-7.8,1.4-15.1,4.1-21.9c2.7-6.8,6.5-12.8,11.3-17.8c4.8-5,10.5-9,17.1-12C4151.1,621.8,4158.3,620.3,4166.1,620.3z
				 M4164.5,626.2c-5.5,0-10.3,1.2-14.6,3.5c-4.3,2.3-7.8,5.7-10.7,10c-2.9,4.3-5.1,9.6-6.6,15.7c-1.5,6.2-2.3,13.1-2.3,20.8
				c0,7.6,0.7,14.6,2.2,20.9c1.5,6.3,3.7,11.8,6.6,16.3c2.9,4.6,6.5,8.1,10.8,10.6c4.3,2.5,9.2,3.8,14.8,3.8c5,0,9.6-1,13.9-2.9
				c4.2-1.9,8-4.9,11.1-8.9c3.2-4,5.7-9.1,7.4-15.4c1.8-6.2,2.7-13.7,2.7-22.3c0-8.2-0.7-15.5-2.2-22c-1.5-6.5-3.7-12-6.7-16.4
				c-3-4.5-6.7-7.9-11.1-10.2C4175.4,627.3,4170.3,626.2,4164.5,626.2z"/>
			<path d="M4298.7,680.4v31.5c0,6.9,0.8,11.2,2.3,12.8c2.1,2.3,5.1,3.5,9.2,3.5h4.2v3h-46.4v-3h4.1c4.5,0,7.8-1.5,9.8-4.4
				c1.1-1.7,1.7-5.7,1.7-11.8v-69.9c0-6.8-0.7-11-2.1-12.6c-2.1-2.4-5.2-3.6-9.3-3.6h-4.1v-3h39.7c9.5,0,17.2,1,22.9,3.1
				c2.8,1,5.4,2.3,7.8,4c2.4,1.7,4.5,3.7,6.3,6.1c1.8,2.3,3.2,4.9,4.2,7.7c1,2.8,1.5,5.9,1.5,9.1c0,4.4-0.8,8.4-2.3,12
				c-1.5,3.7-3.7,6.8-6.6,9.4c-2.9,2.6-6.4,4.7-10.5,6.1c-4.1,1.5-8.9,2.2-14.2,2.2C4311.7,682.5,4305.7,681.8,4298.7,680.4z
				 M4298.7,675.7c2.9,0.6,5.4,1,7.5,1.3c2.1,0.3,4,0.4,5.6,0.4c2.8,0,5.4-0.6,7.9-1.7c2.5-1.2,4.6-2.7,6.5-4.8
				c1.9-2,3.3-4.5,4.4-7.3c1.1-2.9,1.6-6,1.6-9.3c0-4-0.6-7.5-1.8-10.6c-1.2-3.1-2.8-5.7-4.9-7.9c-2.1-2.1-4.5-3.8-7.3-4.9
				c-2.8-1.1-5.8-1.7-9.1-1.7c-2.7,0-6.2,0.5-10.5,1.4V675.7z"/>
			<path d="M4415.9,620.3c6.9,0,13.5,1.4,19.8,4.3c6.3,2.9,11.8,6.8,16.6,11.8c4.8,5,8.6,10.9,11.4,17.7c2.8,6.8,4.2,14.2,4.2,22.1
				c0,8.2-1.4,15.8-4.2,22.8c-2.8,7-6.6,13-11.4,18.2c-4.8,5.1-10.4,9.1-16.9,12c-6.5,2.9-13.4,4.3-20.7,4.3
				c-7.4,0-14.3-1.4-20.7-4.2c-6.4-2.8-12-6.7-16.7-11.7c-4.7-5-8.5-11.1-11.2-18.1c-2.7-7-4.1-14.7-4.1-23.1
				c0-7.8,1.4-15.1,4.1-21.9c2.7-6.8,6.5-12.8,11.3-17.8c4.8-5,10.5-9,17.1-12C4401,621.8,4408.1,620.3,4415.9,620.3z M4414.4,626.2
				c-5.5,0-10.3,1.2-14.6,3.5c-4.3,2.3-7.8,5.7-10.7,10c-2.9,4.3-5.1,9.6-6.6,15.7c-1.5,6.2-2.3,13.1-2.3,20.8
				c0,7.6,0.7,14.6,2.2,20.9c1.5,6.3,3.7,11.8,6.6,16.3c2.9,4.6,6.5,8.1,10.8,10.6c4.3,2.5,9.2,3.8,14.8,3.8c5,0,9.6-1,13.9-2.9
				c4.2-1.9,8-4.9,11.1-8.9c3.2-4,5.7-9.1,7.4-15.4c1.8-6.2,2.7-13.7,2.7-22.3c0-8.2-0.7-15.5-2.2-22c-1.5-6.5-3.7-12-6.7-16.4
				c-3-4.5-6.7-7.9-11.1-10.2C4425.3,627.3,4420.2,626.2,4414.4,626.2z"/>
			<path d="M4549.2,620.3v37.4h-3c-1.4-10.1-4.6-17.8-9.9-23.1c-5.2-5.3-11.9-8-20-8c-2.8,0-5.3,0.5-7.6,1.4c-2.3,1-4.3,2.2-6.1,3.8
				c-1.7,1.5-3.1,3.3-4.1,5.3c-1,2-1.4,4.1-1.4,6.2c0,2,0.4,3.9,1.2,5.7c0.8,1.8,3.3,4.6,7.4,8.4c6.9,4.4,13.1,8,18.5,10.8
				c5.1,2.8,12,7,20.6,12.6c3.7,2.9,6.6,6.3,8.6,10.2c2,3.9,3,8,3,12.3c0,4.1-0.8,7.9-2.5,11.6c-1.7,3.7-4,6.9-7,9.6
				c-3,2.7-6.6,4.9-10.8,6.6c-4.2,1.6-8.8,2.4-13.8,2.4c-3.2,0-6.1-0.2-8.8-0.7c-0.5-0.1-1.7-0.4-3.8-1c-2-0.6-4.2-1.2-6.5-1.8
				c-2.3-0.6-4.4-1.2-6.4-1.8c-2-0.6-3.1-0.8-3.5-0.8c-1.4,0-2.4,0.4-3.2,1.2c-0.8,0.8-1.3,2.5-1.7,5h-3v-37.2h3
				c1.4,7.6,3.3,13.5,5.6,17.5c1.1,1.9,2.6,3.7,4.5,5.3c1.9,1.6,4,3.1,6.3,4.3c2.3,1.2,4.9,2.2,7.6,2.9c2.7,0.7,5.4,1,8.2,1
				c3.3,0,6.3-0.5,9-1.4c2.7-1,4.9-2.2,6.8-3.9c1.9-1.6,3.3-3.5,4.3-5.7c1-2.1,1.5-4.4,1.5-6.8c0-2.7-0.7-5.4-2.2-8.1
				c-1.5-2.7-4-5.4-7.4-8c-3.4-2.1-7.5-4.5-12.2-7.3c-9-5.2-17-10.1-24-14.9c-3.9-3.1-6.9-6.5-8.9-10.2c-2-3.7-3-7.8-3-12.3
				c0-3.8,0.8-7.4,2.4-10.9c1.6-3.5,3.8-6.5,6.6-9.1c2.8-2.6,6.2-4.7,10.1-6.2c3.9-1.5,8.1-2.3,12.6-2.3c5.7,0,11.8,1.4,18.2,4.2
				c1.5,0.6,2.8,1.2,3.8,1.5c1,0.4,1.9,0.6,2.5,0.5c1.4,0,2.6-0.4,3.5-1.2c0.9-0.8,1.5-2.5,2-5H4549.2z"/>
			<path d="M4615.5,728.1v3h-46.4v-3h3.8c1.9,0,3.6-0.1,5.1-0.4c1.5-0.3,2.7-1,3.6-2c1-1.1,1.7-2.7,2.2-4.9c0.5-2.2,0.8-5.1,0.8-8.9
				v-69.9c0-2.5-0.1-4.5-0.2-6.1c-0.1-1.6-0.3-3-0.6-4c-0.3-1-0.7-1.8-1.3-2.4c-0.6-0.6-1.3-1.2-2.3-1.7c-2.4-1.3-4.8-1.9-7.4-1.9
				h-3.8v-3h46.4v3h-3.8c-1.9,0-3.6,0.2-5.1,0.5c-1.5,0.3-2.7,1-3.6,2.1s-1.7,2.7-2.2,4.9c-0.5,2.2-0.8,5.1-0.8,8.8v69.9
				c0,2.5,0,4.6,0.1,6.2c0.1,1.6,0.3,2.9,0.6,3.9c0.3,1,0.8,1.8,1.4,2.4s1.4,1.2,2.3,1.7c2.2,1.3,4.6,1.9,7.3,1.9H4615.5z"/>
			<path d="M4714.2,622.7v25.5h-1.8c-0.9-6.8-2.9-11.7-6-14.5c-3.1-2.8-7.8-4.2-13.9-4.2h-15.3v82.8c0,3.7,0.3,6.5,0.8,8.6
				c0.5,2.1,1.3,3.7,2.2,4.7c1,1,2.1,1.7,3.6,2c1.4,0.3,3.1,0.4,5,0.4h3.7v3h-45.9v-3h3.8c1.9,0,3.6-0.2,5-0.5
				c1.4-0.3,2.6-1,3.6-2.1s1.7-2.6,2.2-4.7c0.5-2.1,0.8-4.9,0.8-8.5v-82.8h-13c-3.3,0-6.1,0.3-8.6,0.8c-2.5,0.5-4.7,1.5-6.5,2.9
				c-1.8,1.4-3.3,3.3-4.3,5.7c-1.1,2.4-1.7,5.5-2,9.4h-3v-25.5H4714.2z"/>
			<path d="M4769.8,728.1v3h-46.4v-3h3.8c1.9,0,3.6-0.1,5.1-0.4c1.5-0.3,2.7-1,3.6-2c1-1.1,1.7-2.7,2.2-4.9c0.5-2.2,0.8-5.1,0.8-8.9
				v-69.9c0-2.5-0.1-4.5-0.2-6.1c-0.1-1.6-0.3-3-0.6-4c-0.3-1-0.7-1.8-1.3-2.4c-0.6-0.6-1.3-1.2-2.3-1.7c-2.4-1.3-4.8-1.9-7.4-1.9
				h-3.8v-3h46.4v3h-3.8c-1.9,0-3.6,0.2-5.1,0.5c-1.5,0.3-2.7,1-3.6,2.1s-1.7,2.7-2.2,4.9c-0.5,2.2-0.8,5.1-0.8,8.8v69.9
				c0,2.5,0,4.6,0.1,6.2c0.1,1.6,0.3,2.9,0.6,3.9c0.3,1,0.8,1.8,1.4,2.4s1.4,1.2,2.3,1.7c2.2,1.3,4.6,1.9,7.3,1.9H4769.8z"/>
			<path d="M4833.7,620.3c6.9,0,13.5,1.4,19.8,4.3c6.3,2.9,11.8,6.8,16.6,11.8c4.8,5,8.6,10.9,11.4,17.7c2.8,6.8,4.2,14.2,4.2,22.1
				c0,8.2-1.4,15.8-4.2,22.8c-2.8,7-6.6,13-11.4,18.2c-4.8,5.1-10.4,9.1-16.9,12c-6.5,2.9-13.4,4.3-20.7,4.3
				c-7.4,0-14.3-1.4-20.7-4.2c-6.4-2.8-12-6.7-16.7-11.7c-4.7-5-8.5-11.1-11.2-18.1c-2.7-7-4.1-14.7-4.1-23.1
				c0-7.8,1.4-15.1,4.1-21.9c2.7-6.8,6.5-12.8,11.3-17.8c4.8-5,10.5-9,17.1-12C4818.7,621.8,4825.9,620.3,4833.7,620.3z
				 M4832.2,626.2c-5.5,0-10.3,1.2-14.6,3.5c-4.3,2.3-7.8,5.7-10.7,10c-2.9,4.3-5.1,9.6-6.6,15.7c-1.5,6.2-2.3,13.1-2.3,20.8
				c0,7.6,0.7,14.6,2.2,20.9c1.5,6.3,3.7,11.8,6.6,16.3c2.9,4.6,6.5,8.1,10.8,10.6c4.3,2.5,9.2,3.8,14.8,3.8c5,0,9.6-1,13.9-2.9
				c4.2-1.9,8-4.9,11.1-8.9c3.2-4,5.7-9.1,7.4-15.4c1.8-6.2,2.7-13.7,2.7-22.3c0-8.2-0.7-15.5-2.2-22c-1.5-6.5-3.7-12-6.7-16.4
				c-3-4.5-6.7-7.9-11.1-10.2C4843.1,627.3,4838,626.2,4832.2,626.2z"/>
			<path d="M4889.8,622.7h29.3l66.3,81.3v-62.4c0-3.7-0.3-6.6-0.8-8.7c-0.5-2.1-1.3-3.7-2.3-4.8c-1-1-2.2-1.7-3.6-2
				c-1.4-0.3-3.1-0.4-4.9-0.4h-3.8v-3h37.8v3h-3.9c-1.9,0-3.6,0.2-5,0.5c-1.4,0.3-2.6,1-3.6,2.1c-1,1.1-1.7,2.7-2.1,4.8
				c-0.5,2.1-0.7,4.9-0.7,8.5v91.3h-2.9l-71.4-87.2v66.7c0,3.7,0.3,6.7,0.8,8.8c0.5,2.1,1.3,3.7,2.2,4.7c1,1,2.1,1.7,3.6,1.9
				c1.4,0.2,3.1,0.4,4.9,0.4h3.8v3h-37.7v-3h3.8c1.9,0,3.6-0.2,5-0.5c1.4-0.3,2.6-1,3.6-2.1c1-1.1,1.7-2.6,2.2-4.7
				c0.5-2.1,0.7-4.9,0.7-8.5V637c-1.6-1.9-2.9-3.4-4-4.5c-1.1-1.1-2.1-2-3-2.7s-2-1.3-3.1-1.8c-1.1-0.5-2.5-1-4.2-1.5
				c-1.6-0.5-3.9-0.7-7-0.7V622.7z"/>
			<path d="M5142.6,622.7v25.5h-1.8c-0.9-6.8-2.9-11.7-6-14.5c-3.1-2.8-7.8-4.2-13.9-4.2h-15.3v82.8c0,3.7,0.3,6.5,0.8,8.6
				c0.5,2.1,1.3,3.7,2.2,4.7c1,1,2.1,1.7,3.6,2c1.4,0.3,3.1,0.4,5,0.4h3.7v3H5075v-3h3.8c1.9,0,3.6-0.2,5-0.5c1.4-0.3,2.6-1,3.6-2.1
				s1.7-2.6,2.2-4.7c0.5-2.1,0.8-4.9,0.8-8.5v-82.8h-13c-3.3,0-6.1,0.3-8.6,0.8c-2.5,0.5-4.7,1.5-6.5,2.9c-1.8,1.4-3.3,3.3-4.3,5.7
				c-1.1,2.4-1.7,5.5-2,9.4h-3v-25.5H5142.6z"/>
			<path d="M5181.4,673h50.3v-31c0-2.5,0-4.6-0.1-6.3c-0.1-1.6-0.3-3-0.6-4c-0.3-1-0.8-1.8-1.4-2.4s-1.4-1.2-2.3-1.7
				c-2.2-1.3-4.6-1.9-7.3-1.9h-3.8v-3h46.4v3h-3.8c-1,0-2.1,0.1-3.3,0.4c-1.2,0.2-2.2,0.6-3.2,1.1c-1,0.5-1.9,1.1-2.7,1.8
				c-0.8,0.7-1.4,1.5-1.7,2.5c-0.6,1.7-0.8,5.2-0.8,10.6v69.8c0,2.5,0.1,4.6,0.2,6.2c0.1,1.6,0.3,2.9,0.6,3.9c0.3,1,0.7,1.8,1.3,2.4
				c0.6,0.6,1.3,1.2,2.3,1.7c2.2,1.3,4.7,1.9,7.4,1.9h3.8v3h-46.4v-3h3.8c1.8,0,3.5-0.1,4.9-0.4c1.4-0.3,2.7-1,3.7-2
				c1-1.1,1.8-2.7,2.3-4.9c0.5-2.2,0.8-5.1,0.8-8.9v-33h-50.3v33c0,2.5,0,4.6,0.1,6.2c0.1,1.6,0.3,2.9,0.6,3.9
				c0.3,1,0.8,1.8,1.4,2.4c0.6,0.6,1.4,1.2,2.3,1.7c2.2,1.3,4.6,1.9,7.3,1.9h3.9v3h-46.5v-3h3.9c4.4,0,7.6-1.3,9.7-3.9
				c1.3-1.6,1.9-5.7,1.9-12.3V642c0-2.6,0-4.7-0.1-6.4c-0.1-1.6-0.3-2.9-0.6-3.9c-0.3-1-0.8-1.8-1.3-2.4c-0.6-0.6-1.3-1.2-2.3-1.7
				c-2.2-1.3-4.6-1.9-7.3-1.9h-3.9v-3h46.5v3h-3.9c-1,0-2,0.1-3.2,0.4c-1.2,0.2-2.2,0.6-3.2,1.1c-1,0.5-1.9,1.1-2.7,1.8
				c-0.8,0.7-1.4,1.5-1.7,2.5c-0.6,1.9-1,5.4-1,10.6V673z"/>
			<path d="M5300.1,628.7v42.8h23.7c3.5,0,6.3-0.3,8.5-1c2.1-0.6,3.8-1.6,5.1-2.9c1.2-1.3,2.1-2.9,2.6-4.9c0.5-2,0.8-4.3,1-7h3v37.7
				h-3c-0.4-3.1-0.9-5.7-1.4-7.7c-0.5-2.1-1.4-3.7-2.5-4.9c-1.2-1.2-2.8-2.1-4.8-2.6c-2.1-0.5-4.8-0.8-8.3-0.8h-23.7V713
				c0,2.7,0,4.8,0.1,6.4c0.1,1.6,0.4,2.8,1,3.6c0.6,0.8,1.4,1.4,2.6,1.6s2.9,0.4,5.2,0.4h18.3c3.1,0,5.7-0.1,7.9-0.2
				c2.1-0.2,4-0.5,5.5-1c1.5-0.5,2.9-1.1,4.1-2c1.2-0.8,2.5-1.9,3.8-3.2c3.2-3.1,6.6-8.1,10.1-14.9h3.2l-9.4,27.2h-83.4v-3h3.8
				c1,0,2.1-0.1,3.2-0.4c1.1-0.2,2.2-0.6,3.2-1c1-0.4,1.9-1,2.7-1.7c0.8-0.7,1.3-1.5,1.7-2.5c0.6-1.7,1-5.2,1-10.5v-70.3
				c0-6.9-0.7-11.2-2-12.8c-1.9-2.1-5.1-3.2-9.7-3.2h-3.8v-3h83.4v23.7h-1.9c-0.8-3.9-1.6-7-2.6-9.4c-0.9-2.3-2.1-4.1-3.6-5.4
				c-1.5-1.3-3.4-2.1-5.8-2.4c-2.3-0.4-5.3-0.5-9-0.5H5300.1z"/>
			<path d="M5472.4,694.8h-41.9l-7.4,17c-1.7,4.2-2.6,7.3-2.6,9.4c0,0.9,0.1,1.7,0.4,2.4c0.3,0.7,0.9,1.4,1.8,2
				c0.9,0.6,2.2,1.1,3.8,1.5c1.6,0.4,3.8,0.7,6.5,0.9v3h-34.1v-3c2.7-0.4,4.9-1,6.6-1.8c1.7-0.8,3.1-1.9,4.3-3.3
				c1.2-1.4,2.3-3.2,3.3-5.4c1-2.2,2.2-5,3.6-8.2l38.1-89h2.7l37.7,90c1.5,3.7,2.9,6.7,4.2,9c1.3,2.3,2.7,4,4.1,5.3
				c1.4,1.3,2.9,2.1,4.5,2.6c1.6,0.5,3.6,0.8,5.9,0.8v3h-42.8v-3c4.3-0.2,7.2-0.9,8.8-2.1c1.5-1.2,2.3-2.7,2.3-4.5
				c-0.1-2.3-1.2-6-3.2-11.2L5472.4,694.8z M5470.1,688.8l-18.4-43.7l-18.8,43.7H5470.1z"/>
			<path d="M5513.5,622.7h29.3l66.3,81.3v-62.4c0-3.7-0.3-6.6-0.8-8.7c-0.5-2.1-1.3-3.7-2.3-4.8c-1-1-2.2-1.7-3.6-2
				c-1.4-0.3-3.1-0.4-4.9-0.4h-3.8v-3h37.8v3h-3.9c-1.9,0-3.6,0.2-5,0.5c-1.4,0.3-2.6,1-3.6,2.1c-1,1.1-1.7,2.7-2.1,4.8
				c-0.5,2.1-0.7,4.9-0.7,8.5v91.3h-2.9l-71.4-87.2v66.7c0,3.7,0.3,6.7,0.8,8.8c0.5,2.1,1.3,3.7,2.2,4.7c1,1,2.1,1.7,3.6,1.9
				c1.4,0.2,3.1,0.4,4.9,0.4h3.8v3h-37.7v-3h3.8c1.9,0,3.6-0.2,5-0.5c1.4-0.3,2.6-1,3.6-2.1c1-1.1,1.7-2.6,2.2-4.7
				c0.5-2.1,0.7-4.9,0.7-8.5V637c-1.6-1.9-2.9-3.4-4-4.5c-1.1-1.1-2.1-2-3-2.7s-2-1.3-3.1-1.8c-1.1-0.5-2.5-1-4.2-1.5
				c-1.6-0.5-3.9-0.7-7-0.7V622.7z"/>
			<path d="M5734.1,620.3l2.9,34.1h-2.9c-3.3-10-7.9-17.3-13.9-21.7c-6-4.5-13.3-6.7-21.9-6.7c-6.4,0-12,1.3-17,3.8
				c-5,2.5-9.3,6-12.8,10.4c-3.5,4.4-6.2,9.6-8,15.6c-1.8,6-2.7,12.5-2.7,19.5c0,10.2,2,19.7,6.1,28.2c2,4.3,4.3,8,7,11.1
				c2.7,3.1,5.5,5.7,8.6,7.7c3.1,2,6.3,3.5,9.7,4.5c3.4,1,6.8,1.4,10.2,1.4c7.9,0,15.4-2,22.4-6v-31.3c0-2.7-0.1-4.9-0.3-6.6
				c-0.2-1.7-0.5-3.1-1-4.1c-0.4-1-1-1.7-1.6-2.3c-0.6-0.5-1.4-1-2.3-1.5c-1.7-0.9-4.8-1.3-9.1-1.3v-3.1h41.9v3.1h-2
				c-1.8,0-3.4,0.2-4.6,0.6c-1.3,0.4-2.3,1.2-3.2,2.3c-0.8,1.1-1.4,2.7-1.8,4.8c-0.4,2.1-0.5,4.8-0.5,8.1v33.1
				c-3.1,1.7-6.1,3.1-9.1,4.3c-3,1.2-6,2.2-9,2.9c-6.2,1.6-12.8,2.4-19.9,2.4c-9.1,0-17.3-1.4-24.6-4.2c-7.3-2.8-13.6-6.6-18.9-11.6
				c-5.2-4.9-9.3-10.7-12.2-17.4c-2.9-6.7-4.3-13.9-4.3-21.8c0-9.5,2.3-18.6,6.9-27.4c5.3-10.3,12.8-18.3,22.3-24
				c7.9-4.6,17.3-6.9,28.1-6.9c2.1,0,4.1,0.1,5.7,0.2c1.7,0.1,3.4,0.4,5.2,0.7c1.8,0.4,3.7,0.9,5.8,1.5c2.1,0.7,4.7,1.6,7.7,2.7
				c3,1.2,5,1.7,6.1,1.7c1,0,1.8-0.5,2.5-1.4c0.7-0.9,1.2-2.7,1.3-5.4H5734.1z"/>
			<path d="M5845.6,701.1l2.6,0.5l-9.3,29.4H5755v-3h4.2c4.4,0,7.7-1.5,9.8-4.4c1.1-1.7,1.7-5.7,1.7-11.8v-69.9
				c0-6.7-0.8-10.9-2.3-12.6c-2.1-2.4-5.1-3.6-9.2-3.6h-4.2v-3h49.1v3c-2.9,0-5.4,0.1-7.3,0.4c-1.9,0.3-3.6,0.7-4.8,1.2
				c-1.3,0.5-2.3,1.1-3,1.8s-1.3,1.5-1.8,2.4c-0.8,1.6-1.2,5.7-1.2,12.3v68c0,3.7,0.3,6.4,0.8,8.1c0.6,1.7,1.7,2.8,3.3,3.5
				c1.4,0.5,5.6,0.7,12.5,0.7h7.9c8.3,0,14.2-0.6,17.5-1.8c1.7-0.6,3.3-1.4,4.8-2.4c1.5-1,3-2.4,4.4-4.1c1.4-1.7,2.8-3.7,4.2-6.1
				C5842.8,707.4,5844.2,704.5,5845.6,701.1z"/>
			<path d="M5885.9,628.7v42.8h23.7c3.5,0,6.3-0.3,8.5-1c2.1-0.6,3.8-1.6,5.1-2.9c1.2-1.3,2.1-2.9,2.6-4.9c0.5-2,0.8-4.3,1-7h3v37.7
				h-3c-0.4-3.1-0.9-5.7-1.4-7.7c-0.5-2.1-1.4-3.7-2.5-4.9c-1.2-1.2-2.8-2.1-4.8-2.6c-2.1-0.5-4.8-0.8-8.3-0.8h-23.7V713
				c0,2.7,0,4.8,0.1,6.4c0.1,1.6,0.4,2.8,1,3.6c0.6,0.8,1.4,1.4,2.6,1.6s2.9,0.4,5.2,0.4h18.3c3.1,0,5.7-0.1,7.9-0.2
				c2.1-0.2,4-0.5,5.5-1c1.5-0.5,2.9-1.1,4.1-2c1.2-0.8,2.5-1.9,3.8-3.2c3.2-3.1,6.6-8.1,10.1-14.9h3.2l-9.4,27.2H5855v-3h3.8
				c1,0,2.1-0.1,3.2-0.4c1.1-0.2,2.2-0.6,3.2-1c1-0.4,1.9-1,2.7-1.7c0.8-0.7,1.3-1.5,1.7-2.5c0.6-1.7,1-5.2,1-10.5v-70.3
				c0-6.9-0.7-11.2-2-12.8c-1.9-2.1-5.1-3.2-9.7-3.2h-3.8v-3h83.4v23.7h-1.9c-0.8-3.9-1.6-7-2.6-9.4c-0.9-2.3-2.1-4.1-3.6-5.4
				c-1.5-1.3-3.4-2.1-5.8-2.4c-2.3-0.4-5.3-0.5-9-0.5H5885.9z"/>
		</g>
	</g>
	<g>
		<g>
			<path d="M4533.1,771.2c6.9,0,13.5,1.4,19.8,4.3c6.3,2.9,11.8,6.8,16.6,11.8c4.8,5,8.6,10.9,11.4,17.7c2.8,6.8,4.2,14.2,4.2,22.1
				c0,8.2-1.4,15.8-4.2,22.8c-2.8,7-6.6,13-11.4,18.2c-4.8,5.1-10.4,9.1-16.9,12c-6.5,2.9-13.4,4.3-20.7,4.3
				c-7.4,0-14.3-1.4-20.7-4.2c-6.4-2.8-12-6.7-16.7-11.7c-4.7-5-8.5-11.1-11.2-18.1c-2.7-7-4.1-14.7-4.1-23.1
				c0-7.8,1.4-15.1,4.1-21.9c2.7-6.8,6.5-12.8,11.3-17.8c4.8-5,10.5-9,17.1-12C4518.1,772.7,4525.3,771.2,4533.1,771.2z M4531.5,777
				c-5.5,0-10.3,1.2-14.6,3.5c-4.3,2.3-7.8,5.7-10.7,10c-2.9,4.3-5.1,9.6-6.6,15.7c-1.5,6.2-2.3,13.1-2.3,20.8
				c0,7.6,0.7,14.6,2.2,20.9c1.5,6.3,3.7,11.8,6.6,16.3c2.9,4.6,6.5,8.1,10.8,10.6c4.3,2.5,9.2,3.8,14.8,3.8c5,0,9.6-1,13.9-2.9
				c4.2-1.9,8-4.9,11.1-8.9c3.2-4,5.7-9.1,7.4-15.4c1.8-6.2,2.7-13.7,2.7-22.3c0-8.2-0.7-15.5-2.2-22c-1.5-6.5-3.7-12-6.7-16.4
				c-3-4.5-6.7-7.9-11.1-10.2C4542.4,778.2,4537.3,777,4531.5,777z"/>
			<path d="M4624.8,779.5v42.5h19.7c2.3,0,4.3-0.2,5.9-0.7c1.6-0.4,3-1.2,4.1-2.3c1.1-1.1,2-2.6,2.6-4.5c0.6-1.9,1.2-4.3,1.5-7.3h3
				v36.6h-3c-0.1-2.7-0.4-5-0.8-6.9s-1.3-3.5-2.3-4.7c-1.1-1.2-2.5-2.1-4.3-2.7c-1.8-0.6-4-0.8-6.7-0.8h-19.7v34
				c0,2.5,0,4.6,0.1,6.2c0.1,1.6,0.3,2.9,0.6,3.9c0.3,1,0.8,1.8,1.4,2.4c0.6,0.6,1.4,1.2,2.3,1.7c2.2,1.3,4.6,1.9,7.3,1.9h3.9v3
				h-46.5v-3h3.8c1.9,0,3.6-0.1,5.1-0.4c1.5-0.3,2.7-1,3.6-2s1.7-2.7,2.2-4.9c0.5-2.2,0.8-5.1,0.8-8.9v-69.9c0-2.5-0.1-4.5-0.2-6.1
				c-0.1-1.6-0.3-3-0.6-4c-0.3-1-0.7-1.9-1.3-2.5c-0.6-0.6-1.3-1.2-2.3-1.7c-1.2-0.6-2.4-1.1-3.6-1.4c-1.2-0.3-2.5-0.5-3.8-0.5h-3.8
				v-3h80.6v23.8h-1.8c-1-3.9-2.2-7-3.5-9.4c-1.3-2.3-2.9-4.2-4.8-5.4c-1.9-1.3-4.1-2.1-6.6-2.5c-2.5-0.4-5.6-0.6-9.2-0.6H4624.8z"
				/>
			<path d="M4814.8,773.6v25.5h-1.8c-0.9-6.8-2.9-11.7-6-14.5c-3.1-2.8-7.8-4.2-13.9-4.2h-15.3v82.8c0,3.7,0.3,6.5,0.8,8.6
				c0.5,2.1,1.3,3.7,2.2,4.7c1,1,2.1,1.7,3.6,2c1.4,0.3,3.1,0.4,5,0.4h3.7v3h-45.9v-3h3.8c1.9,0,3.6-0.2,5-0.5
				c1.4-0.3,2.6-1,3.6-2.1s1.7-2.6,2.2-4.7c0.5-2.1,0.8-4.9,0.8-8.5v-82.8h-13c-3.3,0-6.1,0.3-8.6,0.8c-2.5,0.5-4.7,1.5-6.5,2.9
				c-1.8,1.4-3.3,3.3-4.3,5.7c-1.1,2.4-1.7,5.5-2,9.4h-3v-25.5H4814.8z"/>
			<path d="M4853.6,823.9h50.3v-31c0-2.5,0-4.6-0.1-6.3c-0.1-1.6-0.3-3-0.6-4c-0.3-1-0.8-1.8-1.4-2.4s-1.4-1.2-2.3-1.7
				c-2.2-1.3-4.6-1.9-7.3-1.9h-3.8v-3h46.4v3h-3.8c-1,0-2.1,0.1-3.3,0.4c-1.2,0.2-2.2,0.6-3.2,1.1c-1,0.5-1.9,1.1-2.7,1.8
				c-0.8,0.7-1.4,1.5-1.7,2.5c-0.6,1.7-0.8,5.2-0.8,10.6v69.8c0,2.5,0.1,4.6,0.2,6.2c0.1,1.6,0.3,2.9,0.6,3.9c0.3,1,0.7,1.8,1.3,2.4
				c0.6,0.6,1.3,1.2,2.3,1.7c2.2,1.3,4.7,1.9,7.4,1.9h3.8v3h-46.4v-3h3.8c1.8,0,3.5-0.1,4.9-0.4c1.4-0.3,2.7-1,3.7-2
				c1-1.1,1.8-2.7,2.3-4.9c0.5-2.2,0.8-5.1,0.8-8.9v-33h-50.3v33c0,2.5,0,4.6,0.1,6.2c0.1,1.6,0.3,2.9,0.6,3.9
				c0.3,1,0.8,1.8,1.4,2.4c0.6,0.6,1.4,1.2,2.3,1.7c2.2,1.3,4.6,1.9,7.3,1.9h3.9v3h-46.5v-3h3.9c4.4,0,7.6-1.3,9.7-3.9
				c1.3-1.6,1.9-5.7,1.9-12.3v-69.8c0-2.6,0-4.7-0.1-6.4c-0.1-1.6-0.3-2.9-0.6-3.9c-0.3-1-0.8-1.8-1.3-2.4c-0.6-0.6-1.3-1.2-2.3-1.7
				c-2.2-1.3-4.6-1.9-7.3-1.9h-3.9v-3h46.5v3h-3.9c-1,0-2,0.1-3.2,0.4c-1.2,0.2-2.2,0.6-3.2,1.1c-1,0.5-1.9,1.1-2.7,1.8
				c-0.8,0.7-1.4,1.5-1.7,2.5c-0.6,1.9-1,5.4-1,10.6V823.9z"/>
			<path d="M4972.3,779.5v42.8h23.7c3.5,0,6.3-0.3,8.5-1c2.1-0.6,3.8-1.6,5.1-2.9c1.2-1.3,2.1-2.9,2.6-4.9c0.5-2,0.8-4.3,1-7h3v37.7
				h-3c-0.4-3.1-0.9-5.7-1.4-7.7c-0.5-2.1-1.4-3.7-2.5-4.9c-1.2-1.2-2.8-2.1-4.8-2.6c-2.1-0.5-4.8-0.8-8.3-0.8h-23.7v35.7
				c0,2.7,0,4.8,0.1,6.4c0.1,1.6,0.4,2.8,1,3.6c0.6,0.8,1.4,1.4,2.6,1.6s2.9,0.4,5.2,0.4h18.3c3.1,0,5.7-0.1,7.9-0.2
				c2.1-0.2,4-0.5,5.5-1c1.5-0.5,2.9-1.1,4.1-2c1.2-0.8,2.5-1.9,3.8-3.2c3.2-3.1,6.6-8.1,10.1-14.9h3.2l-9.4,27.2h-83.4v-3h3.8
				c1,0,2.1-0.1,3.2-0.4c1.1-0.2,2.2-0.6,3.2-1c1-0.4,1.9-1,2.7-1.7c0.8-0.7,1.3-1.5,1.7-2.5c0.6-1.7,1-5.2,1-10.5v-70.3
				c0-6.9-0.7-11.2-2-12.8c-1.9-2.1-5.1-3.2-9.7-3.2h-3.8v-3h83.4v23.7h-1.9c-0.8-3.9-1.6-7-2.6-9.4c-0.9-2.3-2.1-4.1-3.6-5.4
				c-1.5-1.3-3.4-2.1-5.8-2.4c-2.3-0.4-5.3-0.5-9-0.5H4972.3z"/>
			<path d="M5228.8,773.6v3c-2.1,0-3.9,0.2-5.3,0.6c-1.4,0.4-2.7,1.3-3.9,2.7c-1.2,1.4-2.4,3.5-3.6,6.2c-1.2,2.7-2.6,6.4-4.2,11
				l-30.1,87.3h-3.2l-24.7-69.2l-24.4,69.2h-3l-32.2-90c-1.2-3.3-2.1-6-2.9-7.9c-0.7-1.9-1.3-3.2-1.7-3.9c-1.1-2.1-2.6-3.6-4.3-4.6
				c-1.8-1-4.3-1.5-7.4-1.5v-3h40v3h-1.9c-2.8,0-4.9,0.6-6.4,1.9c-1.5,1.3-2.3,2.8-2.3,4.6c0,1.9,1.2,6.2,3.6,12.9l21.3,60.8
				l17.9-51.7l-5.7-16.3c-0.9-2-1.7-3.7-2.6-5.2c-0.9-1.5-1.9-2.8-3-3.8c-1.1-1-2.4-1.8-3.9-2.3c-1.5-0.5-3.3-0.8-5.5-0.8v-3h42.1v3
				h-2.9c-3,0-5.2,0.6-6.6,1.9c-1.4,1.3-2,3-2,5.2c0,2.7,1.2,7.4,3.6,14.2l20.7,58.9L5205,797c1.1-3.3,2-6.1,2.6-8.3
				c0.6-2.2,1-4,1-5.4c0-2.5-1.1-4.3-3.3-5.3c-2.2-1-5.1-1.5-8.7-1.5v-3H5228.8z"/>
			<path d="M5286.9,845.7h-41.9l-7.4,17c-1.7,4.2-2.6,7.3-2.6,9.4c0,0.9,0.1,1.7,0.4,2.4c0.3,0.7,0.9,1.4,1.8,2
				c0.9,0.6,2.2,1.1,3.8,1.5c1.6,0.4,3.8,0.7,6.5,0.9v3h-34.1v-3c2.7-0.4,4.9-1,6.6-1.8c1.7-0.8,3.1-1.9,4.3-3.3
				c1.2-1.4,2.3-3.2,3.3-5.4c1-2.2,2.2-5,3.6-8.2l38.1-89h2.7l37.7,90c1.5,3.7,2.9,6.7,4.2,9c1.3,2.3,2.7,4,4.1,5.3
				c1.4,1.3,2.9,2.1,4.5,2.6c1.6,0.5,3.6,0.8,5.9,0.8v3h-42.8v-3c4.3-0.2,7.2-0.9,8.8-2.1c1.5-1.2,2.3-2.7,2.3-4.5
				c-0.1-2.3-1.2-6-3.2-11.2L5286.9,845.7z M5284.6,839.7l-18.4-43.7l-18.8,43.7H5284.6z"/>
			<path d="M5423.9,852l2.6,0.5l-9.3,29.4h-83.9v-3h4.2c4.4,0,7.7-1.5,9.8-4.4c1.1-1.7,1.7-5.7,1.7-11.8v-69.9
				c0-6.7-0.8-10.9-2.3-12.6c-2.1-2.4-5.1-3.6-9.2-3.6h-4.2v-3h49.1v3c-2.9,0-5.4,0.1-7.3,0.4c-1.9,0.3-3.6,0.7-4.8,1.2
				c-1.3,0.5-2.3,1.1-3,1.8s-1.3,1.5-1.8,2.4c-0.8,1.6-1.2,5.7-1.2,12.3v68c0,3.7,0.3,6.4,0.8,8.1c0.6,1.7,1.7,2.8,3.3,3.5
				c1.4,0.5,5.6,0.7,12.5,0.7h7.9c8.3,0,14.2-0.6,17.5-1.8c1.7-0.6,3.3-1.4,4.8-2.4c1.5-1,3-2.4,4.4-4.1c1.4-1.7,2.8-3.7,4.2-6.1
				C5421.1,858.3,5422.5,855.4,5423.9,852z"/>
			<path d="M5523.7,852l2.6,0.5l-9.3,29.4h-83.9v-3h4.2c4.4,0,7.7-1.5,9.8-4.4c1.1-1.7,1.7-5.7,1.7-11.8v-69.9
				c0-6.7-0.8-10.9-2.3-12.6c-2.1-2.4-5.1-3.6-9.2-3.6h-4.2v-3h49.1v3c-2.9,0-5.4,0.1-7.3,0.4c-1.9,0.3-3.6,0.7-4.8,1.2
				c-1.3,0.5-2.3,1.1-3,1.8s-1.3,1.5-1.8,2.4c-0.8,1.6-1.2,5.7-1.2,12.3v68c0,3.7,0.3,6.4,0.8,8.1c0.6,1.7,1.7,2.8,3.3,3.5
				c1.4,0.5,5.6,0.7,12.5,0.7h7.9c8.3,0,14.2-0.6,17.5-1.8c1.7-0.6,3.3-1.4,4.8-2.4c1.5-1,3-2.4,4.4-4.1c1.4-1.7,2.8-3.7,4.2-6.1
				C5520.9,858.3,5522.3,855.4,5523.7,852z"/>
		</g>
	</g>
	<g>
		<g>
			<path d="M4452,920.6v3c-2.1,0-3.9,0.2-5.3,0.6c-1.4,0.4-2.7,1.3-3.9,2.7c-1.2,1.4-2.4,3.5-3.6,6.2c-1.2,2.7-2.6,6.4-4.2,11
				l-30.1,87.3h-3.2l-24.7-69.2l-24.4,69.2h-3l-32.2-90c-1.2-3.3-2.1-6-2.9-7.9c-0.7-1.9-1.3-3.2-1.7-3.9c-1.1-2.1-2.6-3.6-4.3-4.6
				c-1.8-1-4.3-1.5-7.4-1.5v-3h40v3h-1.9c-2.8,0-4.9,0.6-6.4,1.9c-1.5,1.3-2.3,2.8-2.3,4.6c0,1.9,1.2,6.2,3.6,12.9l21.3,60.8
				l17.9-51.7l-5.7-16.3c-0.9-2-1.7-3.7-2.6-5.2c-0.9-1.5-1.9-2.8-3-3.8c-1.1-1-2.4-1.8-3.9-2.3c-1.5-0.5-3.3-0.8-5.5-0.8v-3h42.1v3
				h-2.9c-3,0-5.2,0.6-6.6,1.9c-1.4,1.3-2,3-2,5.2c0,2.7,1.2,7.4,3.6,14.2l20.7,58.9l20.6-59.7c1.1-3.3,2-6.1,2.6-8.3
				c0.6-2.2,1-4,1-5.4c0-2.5-1.1-4.3-3.3-5.3c-2.2-1-5.1-1.5-8.7-1.5v-3H4452z"/>
			<path d="M4503.8,1025.9v3h-46.4v-3h3.8c1.9,0,3.6-0.1,5.1-0.4c1.5-0.3,2.7-1,3.6-2c1-1.1,1.7-2.7,2.2-4.9
				c0.5-2.2,0.8-5.1,0.8-8.9v-69.9c0-2.5-0.1-4.5-0.2-6.1c-0.1-1.6-0.3-3-0.6-4c-0.3-1-0.7-1.8-1.3-2.4c-0.6-0.6-1.3-1.2-2.3-1.7
				c-2.4-1.3-4.8-1.9-7.4-1.9h-3.8v-3h46.4v3h-3.8c-1.9,0-3.6,0.2-5.1,0.5c-1.5,0.3-2.7,1-3.6,2.1s-1.7,2.7-2.2,4.9
				c-0.5,2.2-0.8,5.1-0.8,8.8v69.9c0,2.5,0,4.6,0.1,6.2c0.1,1.6,0.3,2.9,0.6,3.9c0.3,1,0.8,1.8,1.4,2.4s1.4,1.2,2.3,1.7
				c2.2,1.3,4.6,1.9,7.3,1.9H4503.8z"/>
			<path d="M4602.4,920.6v25.5h-1.8c-0.9-6.8-2.9-11.7-6-14.5c-3.1-2.8-7.8-4.2-13.9-4.2h-15.3v82.8c0,3.7,0.3,6.5,0.8,8.6
				c0.5,2.1,1.3,3.7,2.2,4.7c1,1,2.1,1.7,3.6,2c1.4,0.3,3.1,0.4,5,0.4h3.7v3h-45.9v-3h3.8c1.9,0,3.6-0.2,5-0.5
				c1.4-0.3,2.6-1,3.6-2.1s1.7-2.6,2.2-4.7c0.5-2.1,0.8-4.9,0.8-8.5v-82.8h-13c-3.3,0-6.1,0.3-8.6,0.8c-2.5,0.5-4.7,1.5-6.5,2.9
				c-1.8,1.4-3.3,3.3-4.3,5.7c-1.1,2.4-1.7,5.5-2,9.4h-3v-25.5H4602.4z"/>
			<path d="M4641.3,970.9h50.3v-31c0-2.5,0-4.6-0.1-6.3c-0.1-1.6-0.3-3-0.6-4c-0.3-1-0.8-1.8-1.4-2.4s-1.4-1.2-2.3-1.7
				c-2.2-1.3-4.6-1.9-7.3-1.9h-3.8v-3h46.4v3h-3.8c-1,0-2.1,0.1-3.3,0.4c-1.2,0.2-2.2,0.6-3.2,1.1c-1,0.5-1.9,1.1-2.7,1.8
				c-0.8,0.7-1.4,1.5-1.7,2.5c-0.6,1.7-0.8,5.2-0.8,10.6v69.8c0,2.5,0.1,4.6,0.2,6.2c0.1,1.6,0.3,2.9,0.6,3.9c0.3,1,0.7,1.8,1.3,2.4
				c0.6,0.6,1.3,1.2,2.3,1.7c2.2,1.3,4.7,1.9,7.4,1.9h3.8v3h-46.4v-3h3.8c1.8,0,3.5-0.1,4.9-0.4c1.4-0.3,2.7-1,3.7-2
				c1-1.1,1.8-2.7,2.3-4.9c0.5-2.2,0.8-5.1,0.8-8.9v-33h-50.3v33c0,2.5,0,4.6,0.1,6.2c0.1,1.6,0.3,2.9,0.6,3.9
				c0.3,1,0.8,1.8,1.4,2.4c0.6,0.6,1.4,1.2,2.3,1.7c2.2,1.3,4.6,1.9,7.3,1.9h3.9v3h-46.5v-3h3.9c4.4,0,7.6-1.3,9.7-3.9
				c1.3-1.6,1.9-5.7,1.9-12.3v-69.8c0-2.6,0-4.7-0.1-6.4c-0.1-1.6-0.3-2.9-0.6-3.9c-0.3-1-0.8-1.8-1.3-2.4c-0.6-0.6-1.3-1.2-2.3-1.7
				c-2.2-1.3-4.6-1.9-7.3-1.9h-3.9v-3h46.5v3h-3.9c-1,0-2,0.1-3.2,0.4c-1.2,0.2-2.2,0.6-3.2,1.1c-1,0.5-1.9,1.1-2.7,1.8
				c-0.8,0.7-1.4,1.5-1.7,2.5c-0.6,1.9-1,5.4-1,10.6V970.9z"/>
			<path d="M4858.3,920.6v25.5h-1.8c-0.9-6.8-2.9-11.7-6-14.5c-3.1-2.8-7.8-4.2-13.9-4.2h-15.3v82.8c0,3.7,0.3,6.5,0.8,8.6
				c0.5,2.1,1.3,3.7,2.2,4.7c1,1,2.1,1.7,3.6,2c1.4,0.3,3.1,0.4,5,0.4h3.7v3h-45.9v-3h3.8c1.9,0,3.6-0.2,5-0.5
				c1.4-0.3,2.6-1,3.6-2.1s1.7-2.6,2.2-4.7c0.5-2.1,0.8-4.9,0.8-8.5v-82.8h-13c-3.3,0-6.1,0.3-8.6,0.8c-2.5,0.5-4.7,1.5-6.5,2.9
				c-1.8,1.4-3.3,3.3-4.3,5.7c-1.1,2.4-1.7,5.5-2,9.4h-3v-25.5H4858.3z"/>
			<path d="M4897.1,970.9h50.3v-31c0-2.5,0-4.6-0.1-6.3c-0.1-1.6-0.3-3-0.6-4c-0.3-1-0.8-1.8-1.4-2.4s-1.4-1.2-2.3-1.7
				c-2.2-1.3-4.6-1.9-7.3-1.9h-3.8v-3h46.4v3h-3.8c-1,0-2.1,0.1-3.3,0.4c-1.2,0.2-2.2,0.6-3.2,1.1c-1,0.5-1.9,1.1-2.7,1.8
				c-0.8,0.7-1.4,1.5-1.7,2.5c-0.6,1.7-0.8,5.2-0.8,10.6v69.8c0,2.5,0.1,4.6,0.2,6.2c0.1,1.6,0.3,2.9,0.6,3.9c0.3,1,0.7,1.8,1.3,2.4
				c0.6,0.6,1.3,1.2,2.3,1.7c2.2,1.3,4.7,1.9,7.4,1.9h3.8v3h-46.4v-3h3.8c1.8,0,3.5-0.1,4.9-0.4c1.4-0.3,2.7-1,3.7-2
				c1-1.1,1.8-2.7,2.3-4.9c0.5-2.2,0.8-5.1,0.8-8.9v-33h-50.3v33c0,2.5,0,4.6,0.1,6.2c0.1,1.6,0.3,2.9,0.6,3.9
				c0.3,1,0.8,1.8,1.4,2.4c0.6,0.6,1.4,1.2,2.3,1.7c2.2,1.3,4.6,1.9,7.3,1.9h3.9v3h-46.5v-3h3.9c4.4,0,7.6-1.3,9.7-3.9
				c1.3-1.6,1.9-5.7,1.9-12.3v-69.8c0-2.6,0-4.7-0.1-6.4c-0.1-1.6-0.3-2.9-0.6-3.9c-0.3-1-0.8-1.8-1.3-2.4c-0.6-0.6-1.3-1.2-2.3-1.7
				c-2.2-1.3-4.6-1.9-7.3-1.9h-3.9v-3h46.5v3h-3.9c-1,0-2,0.1-3.2,0.4c-1.2,0.2-2.2,0.6-3.2,1.1c-1,0.5-1.9,1.1-2.7,1.8
				c-0.8,0.7-1.4,1.5-1.7,2.5c-0.6,1.9-1,5.4-1,10.6V970.9z"/>
			<path d="M5015.8,926.5v42.8h23.7c3.5,0,6.3-0.3,8.5-1c2.1-0.6,3.8-1.6,5.1-2.9c1.2-1.3,2.1-2.9,2.6-4.9c0.5-2,0.8-4.3,1-7h3v37.7
				h-3c-0.4-3.1-0.9-5.7-1.4-7.7c-0.5-2.1-1.4-3.7-2.5-4.9c-1.2-1.2-2.8-2.1-4.8-2.6c-2.1-0.5-4.8-0.8-8.3-0.8h-23.7v35.7
				c0,2.7,0,4.8,0.1,6.4c0.1,1.6,0.4,2.8,1,3.6c0.6,0.8,1.4,1.4,2.6,1.6s2.9,0.4,5.2,0.4h18.3c3.1,0,5.7-0.1,7.9-0.2
				c2.1-0.2,4-0.5,5.5-1c1.5-0.5,2.9-1.1,4.1-2c1.2-0.8,2.5-1.9,3.8-3.2c3.2-3.1,6.6-8.1,10.1-14.9h3.2l-9.4,27.2h-83.4v-3h3.8
				c1,0,2.1-0.1,3.2-0.4c1.1-0.2,2.2-0.6,3.2-1c1-0.4,1.9-1,2.7-1.7c0.8-0.7,1.3-1.5,1.7-2.5c0.6-1.7,1-5.2,1-10.5v-70.3
				c0-6.9-0.7-11.2-2-12.8c-1.9-2.1-5.1-3.2-9.7-3.2h-3.8v-3h83.4v23.7h-1.9c-0.8-3.9-1.6-7-2.6-9.4c-0.9-2.3-2.1-4.1-3.6-5.4
				c-1.5-1.3-3.4-2.1-5.8-2.4c-2.3-0.4-5.3-0.5-9-0.5H5015.8z"/>
			<path d="M5188.1,992.7h-41.9l-7.4,17c-1.7,4.2-2.6,7.3-2.6,9.4c0,0.9,0.1,1.7,0.4,2.4c0.3,0.7,0.9,1.4,1.8,2
				c0.9,0.6,2.2,1.1,3.8,1.5c1.6,0.4,3.8,0.7,6.5,0.9v3h-34.1v-3c2.7-0.4,4.9-1,6.6-1.8c1.7-0.8,3.1-1.9,4.3-3.3
				c1.2-1.4,2.3-3.2,3.3-5.4c1-2.2,2.2-5,3.6-8.2l38.1-89h2.7l37.7,90c1.5,3.7,2.9,6.7,4.2,9c1.3,2.3,2.7,4,4.1,5.3
				c1.4,1.3,2.9,2.1,4.5,2.6c1.6,0.5,3.6,0.8,5.9,0.8v3h-42.8v-3c4.3-0.2,7.2-0.9,8.8-2.1c1.5-1.2,2.3-2.7,2.3-4.5
				c-0.1-2.3-1.2-6-3.2-11.2L5188.1,992.7z M5185.8,986.7l-18.4-43.7l-18.8,43.7H5185.8z"/>
			<path d="M5229.2,920.6h29.3l66.3,81.3v-62.4c0-3.7-0.3-6.6-0.8-8.7c-0.5-2.1-1.3-3.7-2.3-4.8c-1-1-2.2-1.7-3.6-2
				c-1.4-0.3-3.1-0.4-4.9-0.4h-3.8v-3h37.8v3h-3.9c-1.9,0-3.6,0.2-5,0.5c-1.4,0.3-2.6,1-3.6,2.1c-1,1.1-1.7,2.7-2.1,4.8
				c-0.5,2.1-0.7,4.9-0.7,8.5v91.3h-2.9l-71.4-87.2v66.7c0,3.7,0.3,6.7,0.8,8.8c0.5,2.1,1.3,3.7,2.2,4.7c1,1,2.1,1.7,3.6,1.9
				c1.4,0.2,3.1,0.4,4.9,0.4h3.8v3h-37.7v-3h3.8c1.9,0,3.6-0.2,5-0.5c1.4-0.3,2.6-1,3.6-2.1c1-1.1,1.7-2.6,2.2-4.7
				c0.5-2.1,0.7-4.9,0.7-8.5v-75.3c-1.6-1.9-2.9-3.4-4-4.5c-1.1-1.1-2.1-2-3-2.7s-2-1.3-3.1-1.8c-1.1-0.5-2.5-1-4.2-1.5
				c-1.6-0.5-3.9-0.7-7-0.7V920.6z"/>
			<path d="M5449.8,918.2l2.9,34.1h-2.9c-3.3-10-7.9-17.3-13.9-21.7c-6-4.5-13.3-6.7-21.9-6.7c-6.4,0-12,1.3-17,3.8
				c-5,2.5-9.3,6-12.8,10.4c-3.5,4.4-6.2,9.6-8,15.6c-1.8,6-2.7,12.5-2.7,19.5c0,10.2,2,19.7,6.1,28.2c2,4.3,4.3,8,7,11.1
				c2.7,3.1,5.5,5.7,8.6,7.7c3.1,2,6.3,3.5,9.7,4.5c3.4,1,6.8,1.4,10.2,1.4c7.9,0,15.4-2,22.4-6v-31.3c0-2.7-0.1-4.9-0.3-6.6
				c-0.2-1.7-0.5-3.1-1-4.1c-0.4-1-1-1.7-1.6-2.3c-0.6-0.5-1.4-1-2.3-1.5c-1.7-0.9-4.8-1.3-9.1-1.3v-3.1h41.9v3.1h-2
				c-1.8,0-3.4,0.2-4.6,0.6c-1.3,0.4-2.3,1.2-3.2,2.3c-0.8,1.1-1.4,2.7-1.8,4.8c-0.4,2.1-0.5,4.8-0.5,8.1v33.1
				c-3.1,1.7-6.1,3.1-9.1,4.3c-3,1.2-6,2.2-9,2.9c-6.2,1.6-12.8,2.4-19.9,2.4c-9.1,0-17.3-1.4-24.6-4.2c-7.3-2.8-13.6-6.6-18.9-11.6
				c-5.2-4.9-9.3-10.7-12.2-17.4c-2.9-6.7-4.3-13.9-4.3-21.8c0-9.5,2.3-18.6,6.9-27.4c5.3-10.3,12.8-18.3,22.3-24
				c7.9-4.6,17.3-6.9,28.1-6.9c2.1,0,4.1,0.1,5.7,0.2c1.7,0.1,3.4,0.4,5.2,0.7c1.8,0.4,3.7,0.9,5.8,1.5c2.1,0.7,4.7,1.6,7.7,2.7
				c3,1.2,5,1.7,6.1,1.7c1,0,1.8-0.5,2.5-1.4c0.7-0.9,1.2-2.7,1.3-5.4H5449.8z"/>
			<path d="M5561.3,999l2.6,0.5l-9.3,29.4h-83.9v-3h4.2c4.4,0,7.7-1.5,9.8-4.4c1.1-1.7,1.7-5.7,1.7-11.8v-69.9
				c0-6.7-0.8-10.9-2.3-12.6c-2.1-2.4-5.1-3.6-9.2-3.6h-4.2v-3h49.1v3c-2.9,0-5.4,0.1-7.3,0.4c-1.9,0.3-3.6,0.7-4.8,1.2
				c-1.3,0.5-2.3,1.1-3,1.8s-1.3,1.5-1.8,2.4c-0.8,1.6-1.2,5.7-1.2,12.3v68c0,3.7,0.3,6.4,0.8,8.1c0.6,1.7,1.7,2.8,3.3,3.5
				c1.4,0.5,5.6,0.7,12.5,0.7h7.9c8.3,0,14.2-0.6,17.5-1.8c1.7-0.6,3.3-1.4,4.8-2.4c1.5-1,3-2.4,4.4-4.1c1.4-1.7,2.8-3.7,4.2-6.1
				C5558.5,1005.3,5559.9,1002.4,5561.3,999z"/>
			<path d="M5601.6,926.5v42.8h23.7c3.5,0,6.3-0.3,8.5-1c2.1-0.6,3.8-1.6,5.1-2.9c1.2-1.3,2.1-2.9,2.6-4.9c0.5-2,0.8-4.3,1-7h3v37.7
				h-3c-0.4-3.1-0.9-5.7-1.4-7.7c-0.5-2.1-1.4-3.7-2.5-4.9c-1.2-1.2-2.8-2.1-4.8-2.6c-2.1-0.5-4.8-0.8-8.3-0.8h-23.7v35.7
				c0,2.7,0,4.8,0.1,6.4c0.1,1.6,0.4,2.8,1,3.6c0.6,0.8,1.4,1.4,2.6,1.6s2.9,0.4,5.2,0.4h18.3c3.1,0,5.7-0.1,7.9-0.2
				c2.1-0.2,4-0.5,5.5-1c1.5-0.5,2.9-1.1,4.1-2c1.2-0.8,2.5-1.9,3.8-3.2c3.2-3.1,6.6-8.1,10.1-14.9h3.2l-9.4,27.2h-83.4v-3h3.8
				c1,0,2.1-0.1,3.2-0.4c1.1-0.2,2.2-0.6,3.2-1c1-0.4,1.9-1,2.7-1.7c0.8-0.7,1.3-1.5,1.7-2.5c0.6-1.7,1-5.2,1-10.5v-70.3
				c0-6.9-0.7-11.2-2-12.8c-1.9-2.1-5.1-3.2-9.7-3.2h-3.8v-3h83.4v23.7h-1.9c-0.8-3.9-1.6-7-2.6-9.4c-0.9-2.3-2.1-4.1-3.6-5.4
				c-1.5-1.3-3.4-2.1-5.8-2.4c-2.3-0.4-5.3-0.5-9-0.5H5601.6z"/>
		</g>
	</g>
	<g>
		<path d="M4273.2,1068.2c6.9,0,13.5,1.4,19.8,4.3c6.3,2.9,11.8,6.8,16.6,11.8s8.6,10.9,11.4,17.7c2.8,6.8,4.2,14.2,4.2,22.1
			c0,8.2-1.4,15.8-4.2,22.8c-2.8,7-6.6,13-11.4,18.2c-4.8,5.1-10.4,9.1-16.9,12c-6.5,2.9-13.4,4.3-20.7,4.3
			c-7.4,0-14.3-1.4-20.7-4.2s-12-6.7-16.7-11.7c-4.7-5-8.5-11.1-11.2-18.1c-2.7-7-4.1-14.7-4.1-23.1c0-7.8,1.4-15.1,4.1-21.9
			c2.7-6.8,6.5-12.8,11.3-17.8c4.8-5,10.5-9,17.1-12C4258.3,1069.7,4265.4,1068.2,4273.2,1068.2z M4271.7,1074
			c-5.5,0-10.3,1.2-14.6,3.5c-4.3,2.3-7.8,5.7-10.7,10c-2.9,4.3-5.1,9.6-6.6,15.7c-1.5,6.2-2.3,13.1-2.3,20.8
			c0,7.6,0.7,14.6,2.2,20.9c1.5,6.3,3.7,11.8,6.6,16.3c2.9,4.6,6.5,8.1,10.8,10.6c4.3,2.5,9.2,3.8,14.8,3.8c5,0,9.6-1,13.9-2.9
			c4.2-1.9,8-4.9,11.1-8.9c3.2-4,5.7-9.1,7.4-15.4c1.8-6.2,2.7-13.7,2.7-22.3c0-8.2-0.7-15.5-2.2-22c-1.5-6.5-3.7-12-6.7-16.4
			c-3-4.5-6.7-7.9-11.1-10.2C4282.6,1075.2,4277.5,1074,4271.7,1074z"/>
		<path d="M4365,1076.5v42.5h19.7c2.3,0,4.3-0.2,5.9-0.7c1.6-0.4,3-1.2,4.1-2.3c1.1-1.1,2-2.6,2.6-4.5c0.6-1.9,1.2-4.3,1.5-7.3h3
			v36.6h-3c-0.1-2.7-0.4-5-0.8-6.9s-1.3-3.5-2.3-4.7c-1.1-1.2-2.5-2.1-4.3-2.7c-1.8-0.6-4-0.8-6.7-0.8H4365v34c0,2.5,0,4.6,0.1,6.2
			c0.1,1.6,0.3,2.9,0.6,3.9c0.3,1,0.8,1.8,1.4,2.4c0.6,0.6,1.4,1.2,2.3,1.7c2.2,1.3,4.6,1.9,7.3,1.9h3.9v3h-46.5v-3h3.8
			c1.9,0,3.6-0.1,5.1-0.4c1.5-0.3,2.7-1,3.6-2s1.7-2.7,2.2-4.9c0.5-2.2,0.8-5.1,0.8-8.9v-69.9c0-2.5-0.1-4.5-0.2-6.1
			c-0.1-1.6-0.3-3-0.6-4c-0.3-1-0.7-1.9-1.3-2.5c-0.6-0.6-1.3-1.2-2.3-1.7c-1.2-0.6-2.4-1.1-3.6-1.4c-1.2-0.3-2.5-0.5-3.8-0.5h-3.8
			v-3h80.6v23.8h-1.8c-1-3.9-2.2-7-3.5-9.4s-2.9-4.2-4.8-5.4c-1.9-1.3-4.1-2.1-6.6-2.5c-2.5-0.4-5.6-0.6-9.2-0.6H4365z"/>
		<path d="M4554.9,1070.6v25.5h-1.8c-0.9-6.8-2.9-11.7-6-14.5c-3.1-2.8-7.8-4.2-13.9-4.2H4518v82.8c0,3.7,0.3,6.5,0.8,8.6
			c0.5,2.1,1.3,3.7,2.2,4.7c1,1,2.1,1.7,3.6,2c1.4,0.3,3.1,0.4,5,0.4h3.7v3h-45.9v-3h3.8c1.9,0,3.6-0.2,5-0.5c1.4-0.3,2.6-1,3.6-2.1
			s1.7-2.6,2.2-4.7c0.5-2.1,0.8-4.9,0.8-8.5v-82.8h-13c-3.3,0-6.1,0.3-8.6,0.8c-2.5,0.5-4.7,1.5-6.5,2.9c-1.8,1.4-3.3,3.3-4.3,5.7
			c-1.1,2.4-1.7,5.5-2,9.4h-3v-25.5H4554.9z"/>
		<path d="M4593.8,1120.9h50.3v-31c0-2.5,0-4.6-0.1-6.3c-0.1-1.6-0.3-3-0.6-4c-0.3-1-0.8-1.8-1.4-2.4s-1.4-1.2-2.3-1.7
			c-2.2-1.3-4.6-1.9-7.3-1.9h-3.8v-3h46.4v3h-3.8c-1,0-2.1,0.1-3.3,0.4c-1.2,0.2-2.2,0.6-3.2,1.1c-1,0.5-1.9,1.1-2.7,1.8
			c-0.8,0.7-1.4,1.5-1.7,2.5c-0.6,1.7-0.8,5.2-0.8,10.6v69.8c0,2.5,0.1,4.6,0.2,6.2c0.1,1.6,0.3,2.9,0.6,3.9c0.3,1,0.7,1.8,1.3,2.4
			c0.6,0.6,1.3,1.2,2.3,1.7c2.2,1.3,4.7,1.9,7.4,1.9h3.8v3h-46.4v-3h3.8c1.8,0,3.5-0.1,4.9-0.4c1.4-0.3,2.7-1,3.7-2
			c1-1.1,1.8-2.7,2.3-4.9c0.5-2.2,0.8-5.1,0.8-8.9v-33h-50.3v33c0,2.5,0,4.6,0.1,6.2c0.1,1.6,0.3,2.9,0.6,3.9c0.3,1,0.8,1.8,1.4,2.4
			c0.6,0.6,1.4,1.2,2.3,1.7c2.2,1.3,4.6,1.9,7.3,1.9h3.9v3h-46.5v-3h3.9c4.4,0,7.6-1.3,9.7-3.9c1.3-1.6,1.9-5.7,1.9-12.3v-69.8
			c0-2.6,0-4.7-0.1-6.4c-0.1-1.6-0.3-2.9-0.6-3.9c-0.3-1-0.8-1.8-1.3-2.4c-0.6-0.6-1.3-1.2-2.3-1.7c-2.2-1.3-4.6-1.9-7.3-1.9h-3.9
			v-3h46.5v3h-3.9c-1,0-2,0.1-3.2,0.4c-1.2,0.2-2.2,0.6-3.2,1.1c-1,0.5-1.9,1.1-2.7,1.8c-0.8,0.7-1.4,1.5-1.7,2.5
			c-0.6,1.9-1,5.4-1,10.6V1120.9z"/>
		<path d="M4712.5,1076.5v42.8h23.7c3.5,0,6.3-0.3,8.5-1c2.1-0.6,3.8-1.6,5.1-2.9c1.2-1.3,2.1-2.9,2.6-4.9c0.5-2,0.8-4.3,1-7h3v37.7
			h-3c-0.4-3.1-0.9-5.7-1.4-7.7c-0.5-2.1-1.4-3.7-2.5-4.9c-1.2-1.2-2.8-2.1-4.8-2.6c-2.1-0.5-4.8-0.8-8.3-0.8h-23.7v35.7
			c0,2.7,0,4.8,0.1,6.4c0.1,1.6,0.4,2.8,1,3.6c0.6,0.8,1.4,1.4,2.6,1.6s2.9,0.4,5.2,0.4h18.3c3.1,0,5.7-0.1,7.9-0.2
			c2.1-0.2,4-0.5,5.5-1c1.5-0.5,2.9-1.1,4.1-2s2.5-1.9,3.8-3.2c3.2-3.1,6.6-8.1,10.1-14.9h3.2l-9.4,27.2h-83.4v-3h3.8
			c1,0,2.1-0.1,3.2-0.4c1.1-0.2,2.2-0.6,3.2-1c1-0.4,1.9-1,2.7-1.7c0.8-0.7,1.3-1.5,1.7-2.5c0.6-1.7,1-5.2,1-10.5v-70.3
			c0-6.9-0.7-11.2-2-12.8c-1.9-2.1-5.1-3.2-9.7-3.2h-3.8v-3h83.4v23.7h-1.9c-0.8-3.9-1.6-7-2.6-9.4c-0.9-2.3-2.1-4.1-3.6-5.4
			c-1.5-1.3-3.4-2.1-5.8-2.4c-2.3-0.4-5.3-0.5-9-0.5H4712.5z"/>
		<path d="M4852.5,1076.5v42.5h19.7c2.3,0,4.3-0.2,5.9-0.7c1.6-0.4,3-1.2,4.1-2.3c1.1-1.1,2-2.6,2.6-4.5c0.6-1.9,1.2-4.3,1.5-7.3h3
			v36.6h-3c-0.1-2.7-0.4-5-0.8-6.9s-1.3-3.5-2.3-4.7c-1.1-1.2-2.5-2.1-4.3-2.7c-1.8-0.6-4-0.8-6.7-0.8h-19.7v34c0,2.5,0,4.6,0.1,6.2
			c0.1,1.6,0.3,2.9,0.6,3.9c0.3,1,0.8,1.8,1.4,2.4c0.6,0.6,1.4,1.2,2.3,1.7c2.2,1.3,4.6,1.9,7.3,1.9h3.9v3h-46.5v-3h3.8
			c1.9,0,3.6-0.1,5.1-0.4c1.5-0.3,2.7-1,3.6-2s1.7-2.7,2.2-4.9c0.5-2.2,0.8-5.1,0.8-8.9v-69.9c0-2.5-0.1-4.5-0.2-6.1
			c-0.1-1.6-0.3-3-0.6-4c-0.3-1-0.7-1.9-1.3-2.5c-0.6-0.6-1.3-1.2-2.3-1.7c-1.2-0.6-2.4-1.1-3.6-1.4c-1.2-0.3-2.5-0.5-3.8-0.5h-3.8
			v-3h80.6v23.8h-1.8c-1-3.9-2.2-7-3.5-9.4s-2.9-4.2-4.8-5.4c-1.9-1.3-4.1-2.1-6.6-2.5c-2.5-0.4-5.6-0.6-9.2-0.6H4852.5z"/>
		<path d="M4987.9,1073.5v-3h38.2v3h-4.1c-4.1,0-7.4,1.8-9.8,5.4c-1.1,1.6-1.7,5.4-1.7,11.6v43.9c0,10.6-1.1,19.1-3.3,25.4
			c-1.1,3-2.7,5.8-4.8,8.5c-2.1,2.6-4.7,4.9-7.9,6.9c-3.2,1.9-6.9,3.5-11.1,4.6c-4.2,1.2-9.1,1.7-14.6,1.7c-6,0-11.2-0.5-15.6-1.5
			c-4.5-1-8.3-2.5-11.4-4.5c-3.2-2-5.8-4.4-7.9-7.2c-2.1-2.8-3.7-5.9-5-9.4c-1.7-4.8-2.6-13.7-2.6-26.7v-42.3c0-3.3-0.2-6.1-0.7-8.2
			c-0.4-2.1-1.1-3.8-2.1-4.9s-2.2-2-3.6-2.4c-1.5-0.4-3.2-0.7-5.2-0.7h-4.2v-3h46.8v3h-4.2c-1.9,0-3.6,0.2-5,0.6
			c-1.4,0.4-2.6,1.2-3.6,2.3c-1,1.2-1.7,2.8-2.2,4.9c-0.5,2.1-0.8,4.9-0.8,8.4v47.2c0,4.8,0.3,9.4,1,13.9c0.6,4.5,1.9,8.6,3.9,12.1
			c2,3.5,4.8,6.4,8.5,8.5c3.7,2.1,8.6,3.2,14.7,3.2c3.5,0,6.9-0.4,10.1-1.3c3.3-0.8,6.2-2,8.9-3.4c2.7-1.4,5-3.2,7-5.2
			c2-2,3.5-4.2,4.4-6.6c2.1-4.7,3.1-12.9,3.1-24.5v-43.9c0-6.7-0.8-10.9-2.3-12.6c-2.1-2.4-5.1-3.6-9.2-3.6H4987.9z"/>
		<path d="M5138.4,1178.9h-28.8l-36.7-50.6c-1.4,0.1-2.6,0.1-3.6,0.2c-1.1,0-2,0.1-2.9,0.1c-0.7,0-1.5,0-2.3-0.1
			c-0.8,0-1.6-0.1-2.5-0.2v31.5c0,3.8,0.3,6.8,0.8,9c0.5,2.2,1.3,3.8,2.3,4.9c1,1.1,2.2,1.7,3.6,2c1.4,0.2,3,0.4,4.7,0.4h4.3v3
			h-46.5v-3h4.2c4.4,0,7.7-1.5,9.8-4.4c1.1-1.7,1.7-5.7,1.7-11.8v-69.9c0-6.7-0.8-10.9-2.3-12.6c-2.1-2.4-5.1-3.6-9.2-3.6h-4.2v-3
			h39.4c5.8,0,10.8,0.2,15,0.7c4.2,0.4,7.7,1.1,10.4,2c2.7,0.9,5.2,2.1,7.6,3.6c2.4,1.5,4.5,3.4,6.3,5.6c1.8,2.2,3.2,4.6,4.2,7.3
			c1,2.7,1.5,5.6,1.5,8.7c0,6.8-2.1,12.6-6.4,17.4c-4.3,4.8-11,8.3-20.1,10.4l22.3,31c2.6,3.6,4.9,6.5,7,8.8c2,2.3,4.1,4.1,6.1,5.5
			c2,1.4,4.2,2.3,6.4,3c2.3,0.6,4.9,1.1,8,1.4V1178.9z M5061.6,1123.2c1,0,1.9,0,2.7,0.1c0.8,0,1.4,0.1,1.8,0.1
			c5.2,0,9.7-0.6,13.6-1.8c3.9-1.2,7.1-2.9,9.8-5c2.6-2.1,4.6-4.7,5.9-7.6c1.3-2.9,2-6.1,2-9.5c0-3.3-0.6-6.4-1.7-9.2
			c-1.1-2.8-2.7-5.2-4.8-7.3c-2.1-2-4.5-3.6-7.4-4.7c-2.9-1.1-6-1.7-9.4-1.7c-3.3,0-7.4,0.5-12.5,1.5V1123.2z"/>
		<path d="M5134.9,1070.6h29.3l66.3,81.3v-62.4c0-3.7-0.3-6.6-0.8-8.7c-0.5-2.1-1.3-3.7-2.3-4.8c-1-1-2.2-1.7-3.6-2
			c-1.4-0.3-3.1-0.4-4.9-0.4h-3.8v-3h37.8v3h-3.9c-1.9,0-3.6,0.2-5,0.5c-1.4,0.3-2.6,1-3.6,2.1c-1,1.1-1.7,2.7-2.1,4.8
			c-0.5,2.1-0.7,4.9-0.7,8.5v91.3h-2.9l-71.4-87.2v66.7c0,3.7,0.3,6.7,0.8,8.8c0.5,2.1,1.3,3.7,2.2,4.7c1,1,2.1,1.7,3.6,1.9
			s3.1,0.4,4.9,0.4h3.8v3h-37.7v-3h3.8c1.9,0,3.6-0.2,5-0.5c1.4-0.3,2.6-1,3.6-2.1c1-1.1,1.7-2.6,2.2-4.7c0.5-2.1,0.7-4.9,0.7-8.5
			v-75.3c-1.6-1.9-2.9-3.4-4-4.5c-1.1-1.1-2.1-2-3-2.7s-2-1.3-3.1-1.8c-1.1-0.5-2.5-1-4.2-1.5c-1.6-0.5-3.9-0.7-7-0.7V1070.6z"/>
		<path d="M5305.5,1175.9v3h-46.4v-3h3.8c1.9,0,3.6-0.1,5.1-0.4c1.5-0.3,2.7-1,3.6-2c1-1.1,1.7-2.7,2.2-4.9c0.5-2.2,0.8-5.1,0.8-8.9
			v-69.9c0-2.5-0.1-4.5-0.2-6.1c-0.1-1.6-0.3-3-0.6-4c-0.3-1-0.7-1.8-1.3-2.4c-0.6-0.6-1.3-1.2-2.3-1.7c-2.4-1.3-4.8-1.9-7.4-1.9
			h-3.8v-3h46.4v3h-3.8c-1.9,0-3.6,0.2-5.1,0.5c-1.5,0.3-2.7,1-3.6,2.1s-1.7,2.7-2.2,4.9c-0.5,2.2-0.8,5.1-0.8,8.8v69.9
			c0,2.5,0,4.6,0.1,6.2c0.1,1.6,0.3,2.9,0.6,3.9c0.3,1,0.8,1.8,1.4,2.4s1.4,1.2,2.3,1.7c2.2,1.3,4.6,1.9,7.3,1.9H5305.5z"/>
		<path d="M5404.2,1070.6v25.5h-1.8c-0.9-6.8-2.9-11.7-6-14.5c-3.1-2.8-7.8-4.2-13.9-4.2h-15.3v82.8c0,3.7,0.3,6.5,0.8,8.6
			c0.5,2.1,1.3,3.7,2.2,4.7c1,1,2.1,1.7,3.6,2c1.4,0.3,3.1,0.4,5,0.4h3.7v3h-45.9v-3h3.8c1.9,0,3.6-0.2,5-0.5c1.4-0.3,2.6-1,3.6-2.1
			s1.7-2.6,2.2-4.7c0.5-2.1,0.8-4.9,0.8-8.5v-82.8h-13c-3.3,0-6.1,0.3-8.6,0.8c-2.5,0.5-4.7,1.5-6.5,2.9c-1.8,1.4-3.3,3.3-4.3,5.7
			c-1.1,2.4-1.7,5.5-2,9.4h-3v-25.5H5404.2z"/>
		<path d="M5487.5,1073.5v-3h38.2v3h-4.1c-4.1,0-7.4,1.8-9.8,5.4c-1.1,1.6-1.7,5.4-1.7,11.6v43.9c0,10.6-1.1,19.1-3.3,25.4
			c-1.1,3-2.7,5.8-4.8,8.5c-2.1,2.6-4.7,4.9-7.9,6.9c-3.2,1.9-6.9,3.5-11.1,4.6c-4.2,1.2-9.1,1.7-14.6,1.7c-6,0-11.2-0.5-15.6-1.5
			c-4.5-1-8.3-2.5-11.4-4.5c-3.2-2-5.8-4.4-7.9-7.2c-2.1-2.8-3.7-5.9-5-9.4c-1.7-4.8-2.6-13.7-2.6-26.7v-42.3c0-3.3-0.2-6.1-0.7-8.2
			c-0.4-2.1-1.1-3.8-2.1-4.9s-2.2-2-3.6-2.4c-1.5-0.4-3.2-0.7-5.2-0.7h-4.2v-3h46.8v3h-4.2c-1.9,0-3.6,0.2-5,0.6
			c-1.4,0.4-2.6,1.2-3.6,2.3c-1,1.2-1.7,2.8-2.2,4.9c-0.5,2.1-0.8,4.9-0.8,8.4v47.2c0,4.8,0.3,9.4,1,13.9c0.6,4.5,1.9,8.6,3.9,12.1
			c2,3.5,4.8,6.4,8.5,8.5c3.7,2.1,8.6,3.2,14.7,3.2c3.5,0,6.9-0.4,10.1-1.3c3.3-0.8,6.2-2,8.9-3.4c2.7-1.4,5-3.2,7-5.2
			c2-2,3.5-4.2,4.4-6.6c2.1-4.7,3.1-12.9,3.1-24.5v-43.9c0-6.7-0.8-10.9-2.3-12.6c-2.1-2.4-5.1-3.6-9.2-3.6H5487.5z"/>
		<path d="M5638,1178.9h-28.8l-36.7-50.6c-1.4,0.1-2.6,0.1-3.6,0.2c-1.1,0-2,0.1-2.9,0.1c-0.7,0-1.5,0-2.3-0.1
			c-0.8,0-1.6-0.1-2.5-0.2v31.5c0,3.8,0.3,6.8,0.8,9c0.5,2.2,1.3,3.8,2.3,4.9c1,1.1,2.2,1.7,3.6,2c1.4,0.2,3,0.4,4.7,0.4h4.3v3
			h-46.5v-3h4.2c4.4,0,7.7-1.5,9.8-4.4c1.1-1.7,1.7-5.7,1.7-11.8v-69.9c0-6.7-0.8-10.9-2.3-12.6c-2.1-2.4-5.1-3.6-9.2-3.6h-4.2v-3
			h39.4c5.8,0,10.8,0.2,15,0.7c4.2,0.4,7.7,1.1,10.4,2c2.7,0.9,5.2,2.1,7.6,3.6c2.4,1.5,4.5,3.4,6.3,5.6c1.8,2.2,3.2,4.6,4.2,7.3
			c1,2.7,1.5,5.6,1.5,8.7c0,6.8-2.1,12.6-6.4,17.4c-4.3,4.8-11,8.3-20.1,10.4l22.3,31c2.6,3.6,4.9,6.5,7,8.8c2,2.3,4.1,4.1,6.1,5.5
			c2,1.4,4.2,2.3,6.4,3c2.3,0.6,4.9,1.1,8,1.4V1178.9z M5561.1,1123.2c1,0,1.9,0,2.7,0.1c0.8,0,1.4,0.1,1.8,0.1
			c5.2,0,9.7-0.6,13.6-1.8c3.9-1.2,7.1-2.9,9.8-5c2.6-2.1,4.6-4.7,5.9-7.6c1.3-2.9,2-6.1,2-9.5c0-3.3-0.6-6.4-1.7-9.2
			c-1.1-2.8-2.7-5.2-4.8-7.3c-2.1-2-4.5-3.6-7.4-4.7c-2.9-1.1-6-1.7-9.4-1.7c-3.3,0-7.4,0.5-12.5,1.5V1123.2z"/>
		<path d="M5670.7,1076.5v42.8h23.7c3.5,0,6.3-0.3,8.5-1c2.1-0.6,3.8-1.6,5.1-2.9c1.2-1.3,2.1-2.9,2.6-4.9c0.5-2,0.8-4.3,1-7h3v37.7
			h-3c-0.4-3.1-0.9-5.7-1.4-7.7c-0.5-2.1-1.4-3.7-2.5-4.9c-1.2-1.2-2.8-2.1-4.8-2.6c-2.1-0.5-4.8-0.8-8.3-0.8h-23.7v35.7
			c0,2.7,0,4.8,0.1,6.4c0.1,1.6,0.4,2.8,1,3.6c0.6,0.8,1.4,1.4,2.6,1.6s2.9,0.4,5.2,0.4h18.3c3.1,0,5.7-0.1,7.9-0.2
			c2.1-0.2,4-0.5,5.5-1c1.5-0.5,2.9-1.1,4.1-2s2.5-1.9,3.8-3.2c3.2-3.1,6.6-8.1,10.1-14.9h3.2l-9.4,27.2h-83.4v-3h3.8
			c1,0,2.1-0.1,3.2-0.4c1.1-0.2,2.2-0.6,3.2-1c1-0.4,1.9-1,2.7-1.7c0.8-0.7,1.3-1.5,1.7-2.5c0.6-1.7,1-5.2,1-10.5v-70.3
			c0-6.9-0.7-11.2-2-12.8c-1.9-2.1-5.1-3.2-9.7-3.2h-3.8v-3h83.4v23.7h-1.9c-0.8-3.9-1.6-7-2.6-9.4c-0.9-2.3-2.1-4.1-3.6-5.4
			c-1.5-1.3-3.4-2.1-5.8-2.4c-2.3-0.4-5.3-0.5-9-0.5H5670.7z"/>
	</g>
</g>
</svg>
