<?xml version="1.0" encoding="utf-8"?>
<!-- Generator: Adobe Illustrator 26.5.0, SVG Export Plug-In . SVG Version: 6.00 Build 0)  -->
<svg version="1.1" xmlns="http://www.w3.org/2000/svg" xmlns:xlink="http://www.w3.org/1999/xlink" x="0px" y="0px"
	 viewBox="0 0 4518 2071" style="enable-background:new 0 0 4518 2071;" xml:space="preserve">
<style type="text/css">
	.st0{stroke:#000000;stroke-width:11.0747;stroke-miterlimit:10;}
	.st1{fill:#F7F7F7;stroke:#000000;stroke-width:22.9962;stroke-miterlimit:10;}
	.st2{stroke:#000000;stroke-width:13.3934;stroke-miterlimit:10;}
	.st3{fill:#E6E6E6;}
	.st4{fill:none;stroke:#000000;stroke-width:12.9683;stroke-miterlimit:10;}
	.st5{fill:#F2F2F2;stroke:#000000;stroke-width:12.9683;stroke-miterlimit:10;}
	.st6{fill:none;stroke:#000000;stroke-width:23.7106;stroke-miterlimit:10;}
</style>
<g id="CIRCULOS-SELECCION4">
</g>
<g id="CLOSET">
	<g id="LATERAL-DERECHA">
	</g>
	<g id="BASE">
	</g>
	<g id="DIVISIONES-VERTICALES">
		<g id="DIVISION-VERTICAL-DERECHA">
		</g>
		<g id="DIVISION-CENTRAL">
		</g>
		<g id="DIVISION-VERTICAL-IZQUIERDA_00000085229740836627909760000005526871516412138418_">
		</g>
	</g>
	<g id="DIVISIONES-HORIZONTALES">
	</g>
	<g id="LATERAL-IZQUIERDA">
	</g>
	<g id="TECHO">
	</g>
	<g id="SOPORTES-COOK">
	</g>
</g>
<g id="TABLITAS-TRASERAS">
</g>
<g id="TRIPLEX_00000062169277959621118470000012963048032068378272_">
</g>
<g id="PUNTILLAS">
</g>
<g id="SOPORTE-MUEBLE">
	<g>
		<g>
			<polygon class="st0" points="1830.6,1769.2 1910.3,1738.6 1832.6,1708.7 			"/>
			<polygon class="st0" points="955.5,1699.3 876.5,1731.4 954.8,1759.7 			"/>
			<line class="st1" x1="940" y1="1731" x2="1864.7" y2="1740.2"/>
			<g>
				<path d="M1216.2,1953.1l-12.6,31h-105.7v-4.2c30.2-25.8,51.9-46.4,64.8-61.7c12.6-15.9,18.9-30.5,18.9-43.8
					c0-5-0.9-9.7-2.8-13.9c-1.9-4.3-4.4-7.9-7.6-11c-3.2-3-6.9-5.4-11.1-7.2c-4.2-1.8-8.7-2.6-13.5-2.6c-8.7,0-16.5,2.3-23.4,6.8
					c-6.9,4.6-12,11.3-15.4,20.2h-4.7c2.2-14.6,7.8-25.7,16.6-33.4c8.9-7.7,20.2-11.5,33.8-11.5c7.1,0,13.8,1.1,20,3.4
					c6.2,2.3,11.5,5.3,16,9.2c4.5,3.9,8,8.3,10.6,13.3c2.6,5,3.9,10.3,3.9,15.8c0,8.1-1.6,15.5-4.8,22.3c-3.2,6.8-6.4,12.3-9.7,16.6
					c-3.3,4.3-8.1,10-14.3,17.1c-11.8,11.9-21.3,21.3-28.3,28c-7.1,6.8-14.1,13.1-21.1,19.1h44.4c6.1,0,11.2-0.1,15.4-0.4
					c4.2-0.2,7.7-0.8,10.6-1.7c2.9-0.9,5.4-2.3,7.4-4.1c2-1.8,4.1-4.3,6.1-7.3H1216.2z"/>
				<path d="M1451.3,1822.2l4.1,54h-4.1c-5.4-16.2-13.1-27.8-23-35c-9.9-7.1-21.8-10.7-35.8-10.7c-9.1,0-17.4,1.5-25,4.6
					c-7.6,3.1-14.2,7.8-19.7,14.2c-5.5,6.4-9.8,14.4-12.9,24.1c-3.1,9.7-4.7,21.1-4.7,34.3c0,10.6,1.5,20.2,4.4,28.8
					c2.9,8.6,7.2,16,12.8,22.1c5.6,6.1,12.5,10.8,20.7,14.2c8.2,3.3,17.5,5,28.2,5c11.1,0,21.2-2.2,30.3-6.6
					c8.7-4.1,18.3-12.8,28.9-26.2l4.1,2.3c-8.9,14.1-19.3,24.4-31,31c-11.7,6.6-25.7,9.9-42,9.9c-12.6,0-24.1-2-34.6-5.9
					c-10.5-4-19.5-9.5-27.1-16.7s-13.5-15.7-17.8-25.5c-4.3-9.8-6.4-20.6-6.4-32.4c0-16,3.9-30.5,11.8-43.7
					c7.8-13.3,18.6-23.5,32.4-30.8c14-7.3,29.1-11,45.4-11c12.8,0,25.4,2.8,37.7,8.4c3.6,1.7,6.2,2.6,7.8,2.6c2.8,0,5.2-1,7.1-3.1
					c1.9-2.1,3.2-4.7,4-7.9H1451.3z"/>
				<path d="M1512.3,1896.3c4.4-4,7.9-7,10.4-9.2c2.5-2.2,4.2-3.6,5-4.2c3.9-3,8.1-5.3,12.6-7c4.5-1.6,9-2.4,13.4-2.4
					c7.5,0,13.9,1.9,19.3,5.8c5.4,3.9,9,9.6,10.8,17c4.4-4.6,8.4-8.5,12.1-11.5c3.7-3,7.2-5.3,10.5-7c3.3-1.6,6.5-2.8,9.5-3.4
					c3-0.6,6.2-1,9.4-1c4.4,0,8.5,0.7,12.3,2c3.8,1.3,7.1,3.5,10,6.6c2.8,3.1,5.1,7.2,6.7,12.3c1.6,5.1,2.4,11.5,2.4,19v47.3
					c0,3.2,0.1,5.9,0.3,8.2c0.2,2.3,0.8,4.2,1.8,5.7c1.1,1.5,2.7,2.6,4.8,3.2c2.2,0.7,5.3,1,9.2,1v5.3h-58v-4h2.2
					c3.1,0,5.7-0.2,7.9-0.7c2.2-0.5,3.9-1.4,5.2-2.8c1.3-1.4,2.2-3.4,2.8-6c0.6-2.6,0.9-6.1,0.9-10.6v-46c0-5.1-0.5-9.3-1.3-12.6
					c-0.9-3.3-2.2-6-3.8-7.9c-1.7-2-3.7-3.3-6.1-4.1c-2.4-0.8-5.2-1.1-8.3-1.1c-2.3,0-4.5,0.2-6.7,0.6c-2.2,0.4-4.5,1.2-6.8,2.3
					c-2.4,1.1-4.9,2.6-7.7,4.4c-2.8,1.9-5.8,4.7-9.1,8.5v55.8c0,3.8,0.1,6.8,0.2,9c0.1,2.2,0.4,3.8,1,4.9c0.5,1.1,1.1,1.9,1.9,2.5
					c0.8,0.6,1.8,1.2,3.2,1.9c2.4,1.2,6.6,1.7,12.6,1.7v4.2h-59.4v-4.2c4.9,0,8.7-0.3,11.4-0.9c2.8-0.6,4.8-1.6,6.1-3.1
					c1.3-1.5,2.1-3.6,2.3-6.2c0.3-2.6,0.4-5.9,0.4-9.9v-46.1c0-5-0.5-9.3-1.5-12.6c-1-3.3-2.4-6.1-4.2-8.1c-1.8-2.1-4-3.5-6.5-4.4
					c-2.5-0.9-5.2-1.3-8.2-1.3c-3,0-6,0.5-9,1.4c-3,0.9-5.9,2.1-8.6,3.6c-2.7,1.5-5.3,3.1-7.6,4.8c-2.4,1.8-4.2,3.5-5.7,5.1v57.5
					c0,3.6,0.1,6.5,0.4,8.7c0.3,2.2,0.6,4,1.1,5.2c0.5,1.3,1.2,2.2,2,2.9c0.8,0.6,1.7,1.2,2.7,1.7c2,1,6.2,1.6,12.7,1.6v4.2h-58
					v-4.2c3.9,0,6.9-0.3,9.2-0.8c2.3-0.5,4.1-1.5,5.3-3.1c1.2-1.5,2.1-3.6,2.4-6.1c0.4-2.6,0.6-6,0.6-10.2v-41
					c0-7-0.1-12.5-0.4-16.5c-0.3-4-0.7-6.9-1.4-8.9c-0.7-2-1.6-3.2-2.8-3.7c-1.2-0.5-2.7-0.7-4.6-0.7c-1.1,0-2.4,0.1-3.7,0.4
					c-1.4,0.3-2.9,0.7-4.7,1.3l-1.9-4.2l34.5-13.1h6.5V1896.3z"/>
			</g>
		</g>
		<g>
			<g>
				<path d="M238.2,904.2l-11,27h-91.9v-2.8c27.4-23.4,47-42,58.7-55.9c11.4-14.4,17.1-27.6,17.1-39.7c0-4.5-0.9-8.8-2.6-12.6
					c-1.7-3.9-4-7.2-6.9-9.9c-2.9-2.7-6.2-4.9-10-6.5c-3.8-1.6-7.9-2.4-12.3-2.4c-7.9,0-14.9,2.1-21.2,6.2
					c-6.2,4.1-10.9,10.2-13.9,18.2h-4.2c2-13.2,7-23.3,15.1-30.2c8-6.9,18.2-10.4,30.6-10.4c6.5,0,12.5,1,18.1,3.1
					c5.6,2.1,10.4,4.8,14.5,8.3c4.1,3.5,7.3,7.5,9.6,12.1c2.4,4.5,3.5,9.3,3.5,14.3c0,7.3-1.4,14-4.3,20.2c-2.9,6.1-5.8,11.1-8.8,15
					c-3,3.9-7.3,9-13,15.5c-10.7,10.8-19.2,19.3-25.7,25.4c-6.4,6.1-12.8,11.9-19.1,17.3h39.9c5.5,0,10.1-0.1,13.9-0.3
					c3.8-0.2,7-0.7,9.6-1.6c2.6-0.8,4.8-2.1,6.7-3.7c1.8-1.6,3.6-3.8,5.5-6.6H238.2z"/>
				<path d="M454.1,785.4l3.7,48.6h-3.7c-4.9-14.6-11.8-25.1-20.7-31.5c-8.9-6.4-19.7-9.6-32.2-9.6c-8.2,0-15.7,1.4-22.5,4.2
					c-6.9,2.8-12.8,7.1-17.7,12.8c-5,5.8-8.8,13-11.6,21.7c-2.8,8.7-4.2,19-4.2,30.8c0,9.5,1.3,18.2,3.9,26
					c2.6,7.8,6.5,14.4,11.5,19.9c5.1,5.5,11.3,9.8,18.6,12.7c7.3,3,15.8,4.5,25.3,4.5c10,0,19.1-2,27.3-6c7.8-3.7,16.5-11.5,26-23.6
					l3.7,2c-8,12.7-17.3,22-27.9,27.9c-10.5,5.9-23.2,8.9-37.8,8.9c-11.3,0-21.7-1.8-31.1-5.3c-9.4-3.6-17.6-8.6-24.4-15
					c-6.8-6.4-12.1-14.1-16-23c-3.8-8.9-5.8-18.6-5.8-29.2c0-14.4,3.6-27.5,10.7-39.3c7-12,16.7-21.2,29.2-27.7
					c12.6-6.6,26.2-9.9,40.9-9.9c11.5,0,22.8,2.5,33.9,7.5c3.3,1.6,5.6,2.4,7,2.4c2.6,0,4.7-0.9,6.4-2.8c1.7-1.9,2.9-4.2,3.6-7.1
					H454.1z"/>
				<path d="M509.3,851.9c3.9-3.6,7.1-6.4,9.3-8.3c2.3-2,3.7-3.3,4.4-3.8c3.5-2.7,7.3-4.8,11.3-6.3c4.1-1.5,8.1-2.2,12-2.2
					c6.7,0,12.5,1.8,17.3,5.3c4.8,3.5,8,8.6,9.7,15.4c3.9-4.2,7.6-7.7,10.9-10.4c3.3-2.7,6.4-4.8,9.4-6.3c3-1.5,5.8-2.5,8.5-3.1
					c2.7-0.6,5.5-0.9,8.4-0.9c3.9,0,7.6,0.6,11.1,1.8c3.4,1.2,6.4,3.2,9,6c2.6,2.8,4.6,6.5,6,11.1c1.5,4.6,2.2,10.3,2.2,17.2v42.1
					c0,3.2,0.1,5.9,0.3,8.2c0.2,2.3,0.8,4.2,1.8,5.7c1.1,1.5,2.7,2.6,4.8,3.2c2.2,0.7,5.3,1,9.2,1v3.5h-52.6v-4h2.2
					c2.8,0,5.2-0.2,7.2-0.6c2-0.4,3.6-1.3,4.8-2.5c1.2-1.3,2-3.1,2.6-5.4c0.5-2.4,0.8-5.5,0.8-9.5v-41.6c0-4.6-0.4-8.4-1.2-11.4
					c-0.8-3-2-5.4-3.5-7.2c-1.5-1.8-3.4-3-5.6-3.7c-2.2-0.7-4.8-1-7.6-1c-2.1,0-4.2,0.2-6.2,0.6c-2,0.4-4.1,1.1-6.3,2
					c-2.2,1-4.5,2.3-7.1,4c-2.5,1.7-5.3,4.3-8.4,7.7v50.8c0,3.5,0.1,6.2,0.2,8.1c0.1,1.9,0.4,3.4,0.9,4.4c0.5,1,1.1,1.8,1.8,2.3
					c0.7,0.5,1.7,1.1,3,1.7c2.2,1.1,6.1,1.6,11.7,1.6v3.8h-54v-3.8c4.2,0,7.5-0.3,9.9-0.8c2.4-0.5,4.2-1.5,5.3-2.8
					c1.1-1.4,1.8-3.2,2-5.6c0.2-2.4,0.4-5.3,0.4-8.9v-41.4c0-4.5-0.4-8.3-1.3-11.3c-0.9-3-2.1-5.4-3.8-7.3c-1.6-1.8-3.6-3.2-5.8-3.9
					c-2.2-0.8-4.7-1.2-7.4-1.2c-2.7,0-5.4,0.4-8.1,1.3c-2.7,0.8-5.3,1.9-7.7,3.2c-2.5,1.3-4.7,2.8-6.8,4.3c-2.1,1.6-3.8,3.1-5.1,4.6
					v51.6c0,3.3,0.1,5.9,0.4,7.9c0.2,2,0.6,3.6,1.1,4.7c0.5,1.2,1.1,2,1.8,2.6c0.8,0.6,1.6,1.1,2.5,1.5c1.9,0.9,5.8,1.4,11.8,1.4
					v3.8h-52.6v-3.8c3.6,0,6.4-0.2,8.5-0.7c2.1-0.5,3.8-1.4,4.9-2.8c1.1-1.4,1.9-3.2,2.2-5.5c0.3-2.3,0.5-5.4,0.5-9.2v-37
					c0-6.3-0.1-11.3-0.3-14.9c-0.2-3.6-0.7-6.3-1.3-8.1c-0.6-1.8-1.5-2.9-2.6-3.3c-1.1-0.4-2.5-0.6-4.2-0.6c-1,0-2.2,0.1-3.4,0.4
					c-1.3,0.3-2.7,0.7-4.3,1.2l-1.7-3.8l31.9-11.9h4.9V851.9z"/>
			</g>
			<polygon class="st2" points="678.8,1377.6 715.3,1475.3 750.9,1380 			"/>
			<polygon class="st2" points="752.2,304.4 713.8,207.4 680.1,303.5 			"/>
			<line class="st1" x1="715.2" y1="284.6" x2="715.2" y2="1420.2"/>
		</g>
	</g>
	<g id="SOPORTES">
		<g>
			<path class="st3" d="M811.3,578l12.3,658.2c0,0,12.5,212.6,146.5,262.6s612.8,141.1,612.8,141.1s373.4,46.4,493.1-119.7
				c41.1-137.6,0-184,0-184s-32.2-55.4-117.9-64.3l-518.1-121.5c0,0-62.5-1.8-55.4-103.6c-3.6-105.4,3.6-471.6,3.6-471.6V348.3
				c0,0-41.1-216.6-200.1-225.1c-265.3-33-374.3,435.9-374.3,435.9L811.3,578z"/>
		</g>
		<g>
			<path class="st4" d="M811.3,577.7l12.3,658.2c0,0,12.5,212.6,146.5,262.6s612.8,141.1,612.8,141.1s373.4,46.4,493.1-119.7
				c41.1-137.6,0-184,0-184s-32.2-55.4-117.9-64.3l-518.1-121.5c0,0-62.5-1.8-55.4-103.6c-3.6-105.4,3.6-471.6,3.6-471.6V348
				c0,0-41.1-216.6-200.1-225.1c-265.3-33-374.3,435.9-374.3,435.9L811.3,577.7z"/>
			<path class="st4" d="M1203.6,124.5c0,0-201.3-40.2-312.1,448.1c4.4,545.5,10.7,765.2,10.7,765.2s-4.5,46.4,36.6,64.3
				c41.1,17.9,210.8,61.6,210.8,61.6l438.6,94.7c0,0,399.9,26.9,505.9-141.1"/>
			
				<ellipse transform="matrix(0.2685 -0.9633 0.9633 0.2685 190.3573 1583.3597)" class="st4" cx="1137.7" cy="666.3" rx="240.4" ry="112.2"/>
			
				<ellipse transform="matrix(0.226 -0.9741 0.9741 0.226 207.3671 1571.1423)" class="st5" cx="1092.3" cy="655.1" rx="160.2" ry="64.5"/>
			<ellipse class="st4" cx="1625.7" cy="1391.3" rx="205.4" ry="67.3"/>
			<ellipse class="st5" cx="1631" cy="1430.6" rx="138.2" ry="28"/>
		</g>
		<line class="st4" x1="910.4" y1="1376.2" x2="1398" y2="1122.5"/>
	</g>
	
		<image style="display:none;overflow:visible;" width="500" height="428" xlink:href="F63BF6EB.jpg"  transform="matrix(-2.8056 3.1786 -3.1786 -2.8056 6209.9644 786.9578)">
	</image>
	<g id="TORNILLOSMET3">
		<path d="M3304.8,694.8c-37.1-29.7-83.4-43.8-103-87.9c50.2-19.4,92.2,15.3,142.4,25.4c-37.9-29.4-83.5-43.4-102.2-87.8
			c51.1-19.8,93.1,16.3,142.6,25.4c-36.4-28.8-82.5-42.1-102.7-88.6c18.9-2.1,37.1-9.2,56.9-2c26.9,9.9,54.1,19,82,27.3
			c-33-29.1-79.9-41.9-98.7-86.7c50.9-20,92.4,16,142.1,25.2c-36.5-30-83.6-43.1-102.4-87.6c50.1-19.7,91.5,15.1,139,22
			c-11.4-7.3-22.7-14.5-34.1-21.8c-11.4-7.4-23.2-14.4-34-22.5c-3.8-2.9-5.6-8.5-8.3-12.9c1.7-1.2,3.3-2.4,5-3.6
			c35.7,22.9,72.4,44.5,106.7,69.4c11.5,8.3,16.8,25,26.4,40.1c-12.4,1.7-23.9,2.4-35,5.2c-5.9,1.4-11.7,5.4-16.1,9.7
			c-10.7,10.4-10.9,21,0.7,31.5c4.1,3.7,6.8,8.9,11.6,15.5c-13,1.8-24.7,2.8-36.1,5.4c-5.5,1.2-11.4,4.3-15.1,8.4
			c-9.5,10.4-14.3,21.5-0.4,33c4.2,3.5,6.7,9,11.5,15.6c-13,1.8-24.6,2.7-35.8,5.2c-5.5,1.2-11.2,4.4-15.2,8.3
			c-11.2,11.2-12.3,22.9,0.5,34.4c3.6,3.3,5.8,8.2,10.1,14.5c-13.1,1.9-24.7,2.8-35.8,5.4c-5.4,1.3-11.2,4.6-15.1,8.6
			c-10.3,10.6-12.8,21.8,0.2,33.1c4,3.5,6.5,8.9,11,15.4c-13.5,1.9-25.2,2.8-36.4,5.4c-5.4,1.2-10.9,4.8-14.9,8.8
			c-10.9,10.8-11.7,22,0.5,33.1c3.9,3.6,6.7,8.5,11.1,14.3c-6.7,1.2-11.5,2.8-16.3,2.9c-20.5,0.4-37.5,6-45.5,27.3
			c-1.1,2.8-4.3,5.3-7.1,6.8c-39.6,21.8-79.3,43.4-121.6,66.6c2.5-37.1,3.7-71.7,7.5-106c2.8-25.4,2.1-48.5-21.4-66
			C3212.8,649.2,3254.8,685.1,3304.8,694.8z"/>
		<path d="M3355.2,252.4c14.9-38,42.5-56,82.7-55.4c34.6,0.5,66.7,9.3,98.6,27.2c-13,20.3-25.4,39.6-38.3,59.8
			c16,10.2,30.4,19.5,46.2,29.6c12.7-19.9,25.2-39.2,38.7-60.4c37.8,30.5,67.4,64,75.4,112.1c4.3,25.8-8.3,45.9-23.9,66
			C3541.7,371.9,3448.9,312.5,3355.2,252.4z"/>
		<circle class="st6" cx="3368" cy="556.2" r="479"/>
	</g>
	<g>
		<path d="M2527.5,1764.6v28.8c0,6.3,0.7,10.2,2.1,11.7c1.9,2.1,4.7,3.2,8.4,3.2h3.8v2.7h-42.4v-2.7h3.7c4.1,0,7.1-1.3,8.9-4
			c1-1.6,1.5-5.2,1.5-10.8v-64c0-6.2-0.7-10-2-11.6c-2-2.2-4.8-3.3-8.5-3.3h-3.7v-2.7h36.3c8.7,0,15.7,0.9,20.9,2.8
			c2.5,0.9,4.9,2.1,7.1,3.7c2.2,1.6,4.1,3.4,5.8,5.6c1.6,2.1,2.9,4.5,3.9,7.1c0.9,2.6,1.4,5.4,1.4,8.3c0,4-0.7,7.7-2.1,11
			c-1.4,3.3-3.4,6.2-6,8.6c-2.6,2.4-5.8,4.3-9.6,5.6c-3.8,1.3-8.1,2-13,2C2539.5,1766.5,2533.9,1765.9,2527.5,1764.6z
			 M2527.5,1760.3c2.6,0.5,4.9,0.9,6.9,1.1c2,0.3,3.7,0.4,5.1,0.4c2.5,0,4.9-0.5,7.2-1.6c2.3-1.1,4.2-2.5,5.9-4.4
			c1.7-1.9,3.1-4.1,4-6.7s1.5-5.5,1.5-8.5c0-3.6-0.5-6.9-1.6-9.7c-1.1-2.8-2.6-5.2-4.5-7.2c-1.9-2-4.1-3.5-6.7-4.5
			c-2.5-1-5.3-1.5-8.3-1.5c-2.5,0-5.7,0.4-9.6,1.3V1760.3z"/>
		<path d="M2626.2,1808.2v2.7h-42.4v-2.7h3.5c1.7,0,3.3-0.1,4.6-0.4c1.3-0.3,2.5-0.9,3.3-1.9c0.9-1,1.5-2.5,2-4.5
			c0.5-2,0.7-4.7,0.7-8.1v-64c0-2.3-0.1-4.1-0.2-5.6c-0.1-1.5-0.3-2.7-0.5-3.7c-0.3-0.9-0.6-1.7-1.1-2.2c-0.5-0.5-1.2-1.1-2.1-1.6
			c-2.2-1.2-4.4-1.7-6.8-1.7h-3.5v-2.7h42.4v2.7h-3.5c-1.7,0-3.3,0.1-4.6,0.4c-1.3,0.3-2.5,0.9-3.3,1.9s-1.5,2.5-2,4.5
			c-0.5,2-0.7,4.7-0.7,8v64c0,2.3,0,4.2,0.1,5.7c0.1,1.5,0.3,2.7,0.5,3.6c0.3,0.9,0.7,1.7,1.3,2.2c0.5,0.5,1.3,1.1,2.1,1.6
			c2,1.2,4.3,1.7,6.7,1.7H2626.2z"/>
		<path d="M2661.2,1717.2v39.1h21.7c3.2,0,5.8-0.3,7.7-0.9c2-0.6,3.5-1.5,4.6-2.6c1.1-1.2,1.9-2.7,2.3-4.5c0.4-1.8,0.7-4,0.9-6.4
			h2.7v34.5h-2.7c-0.4-2.8-0.8-5.2-1.3-7.1c-0.5-1.9-1.2-3.4-2.3-4.5c-1.1-1.1-2.5-1.9-4.4-2.4c-1.9-0.5-4.4-0.7-7.6-0.7h-21.7v32.7
			c0,2.5,0,4.4,0.1,5.9c0.1,1.5,0.4,2.6,0.9,3.3c0.5,0.8,1.3,1.3,2.4,1.5c1.1,0.2,2.7,0.3,4.8,0.3h16.8c2.8,0,5.2-0.1,7.2-0.2
			c2-0.1,3.7-0.4,5.1-0.9c1.4-0.4,2.7-1,3.8-1.8c1.1-0.8,2.3-1.7,3.5-2.9c2.9-2.8,6-7.4,9.3-13.6h2.9l-8.6,24.9H2633v-2.7h3.5
			c0.9,0,1.9-0.1,2.9-0.3c1-0.2,2-0.5,2.9-0.9c0.9-0.4,1.7-0.9,2.5-1.6c0.7-0.7,1.2-1.4,1.5-2.3c0.6-1.6,0.9-4.8,0.9-9.6v-64.3
			c0-6.3-0.6-10.2-1.9-11.7c-1.7-2-4.7-2.9-8.8-2.9h-3.5v-2.7h76.3v21.7h-1.7c-0.7-3.6-1.5-6.4-2.3-8.6c-0.8-2.1-1.9-3.8-3.3-5
			c-1.4-1.2-3.1-1.9-5.3-2.2c-2.1-0.3-4.9-0.5-8.2-0.5H2661.2z"/>
		<path d="M2811.4,1709.6l2.3,33.7h-2.3c-3.1-10.1-7.4-17.4-12.9-21.8c-5.6-4.4-12.3-6.7-20.1-6.7c-5.1,0-9.8,1-14.1,2.9
			c-4.3,1.9-8,4.9-11.1,8.9c-3.1,4-5.5,9-7.3,15c-1.7,6-2.6,13.2-2.6,21.4c0,6.6,0.8,12.6,2.5,18c1.6,5.4,4,10,7.2,13.8
			c3.2,3.8,7,6.8,11.6,8.8c4.6,2.1,9.9,3.1,15.8,3.1c6.3,0,11.9-1.4,17-4.1c4.9-2.5,10.3-8,16.2-16.4l2.3,1.4
			c-5,8.8-10.8,15.2-17.4,19.4c-6.6,4.1-14.4,6.2-23.6,6.2c-7.1,0-13.5-1.2-19.4-3.7s-11-5.9-15.2-10.4c-4.3-4.5-7.6-9.8-10-15.9
			c-2.4-6.1-3.6-12.9-3.6-20.2c0-10,2.2-19,6.7-27.3c4.4-8.3,10.4-14.7,18.2-19.2c7.9-4.6,16.4-6.9,25.5-6.9
			c7.2,0,14.2,1.7,21.2,5.2c2,1.1,3.5,1.6,4.4,1.6c1.6,0,2.9-0.7,4-2c1.1-1.3,1.8-2.9,2.2-4.9H2811.4z"/>
		<path d="M2852.4,1717.2v39.1h21.7c3.2,0,5.8-0.3,7.7-0.9c2-0.6,3.5-1.5,4.6-2.6c1.1-1.2,1.9-2.7,2.3-4.5c0.4-1.8,0.7-4,0.9-6.4
			h2.7v34.5h-2.7c-0.4-2.8-0.8-5.2-1.3-7.1c-0.5-1.9-1.2-3.4-2.3-4.5c-1.1-1.1-2.5-1.9-4.4-2.4c-1.9-0.5-4.4-0.7-7.6-0.7h-21.7v32.7
			c0,2.5,0,4.4,0.1,5.9c0.1,1.5,0.4,2.6,0.9,3.3c0.5,0.8,1.3,1.3,2.4,1.5c1.1,0.2,2.7,0.3,4.8,0.3h16.8c2.8,0,5.2-0.1,7.2-0.2
			c2-0.1,3.7-0.4,5.1-0.9c1.4-0.4,2.7-1,3.8-1.8c1.1-0.8,2.3-1.7,3.5-2.9c2.9-2.8,6-7.4,9.3-13.6h2.9l-8.6,24.9h-76.3v-2.7h3.5
			c0.9,0,1.9-0.1,2.9-0.3c1-0.2,2-0.5,2.9-0.9c0.9-0.4,1.7-0.9,2.5-1.6c0.7-0.7,1.2-1.4,1.5-2.3c0.6-1.6,0.9-4.8,0.9-9.6v-64.3
			c0-6.3-0.6-10.2-1.9-11.7c-1.7-2-4.7-2.9-8.8-2.9h-3.5v-2.7h76.3v21.7h-1.7c-0.7-3.6-1.5-6.4-2.3-8.6c-0.8-2.1-1.9-3.8-3.3-5
			c-1.4-1.2-3.1-1.9-5.3-2.2c-2.1-0.3-4.9-0.5-8.2-0.5H2852.4z"/>
		<path d="M3018.5,1709.6v34.2h-2.7c-1.2-9.2-4.3-16.3-9.1-21.2c-4.8-4.9-10.9-7.3-18.3-7.3c-2.5,0-4.9,0.4-7,1.3
			c-2.1,0.9-4,2-5.6,3.4c-1.6,1.4-2.8,3-3.7,4.9c-0.9,1.8-1.3,3.7-1.3,5.7c0,1.8,0.4,3.5,1.1,5.2c0.7,1.6,3,4.2,6.8,7.7
			c6.3,4,12,7.3,16.9,9.9c4.7,2.5,10.9,6.4,18.9,11.6c3.4,2.6,6,5.7,7.9,9.3c1.8,3.6,2.7,7.4,2.7,11.3c0,3.7-0.8,7.2-2.3,10.6
			c-1.5,3.3-3.7,6.3-6.4,8.8c-2.7,2.5-6,4.5-9.9,6c-3.9,1.5-8.1,2.2-12.7,2.2c-2.9,0-5.6-0.2-8.1-0.7c-0.4-0.1-1.6-0.4-3.4-0.9
			c-1.9-0.5-3.8-1.1-5.9-1.7c-2.1-0.6-4.1-1.1-5.9-1.6c-1.8-0.5-2.9-0.8-3.2-0.8c-1.2,0-2.2,0.4-2.9,1.1c-0.7,0.7-1.2,2.3-1.6,4.6
			h-2.7v-34h2.7c1.3,7,3,12.3,5.1,16c1,1.7,2.4,3.4,4.1,4.9c1.7,1.5,3.6,2.8,5.8,3.9c2.1,1.1,4.5,2,6.9,2.6c2.5,0.6,5,0.9,7.5,0.9
			c3.1,0,5.8-0.4,8.2-1.3c2.4-0.9,4.5-2.1,6.2-3.5c1.7-1.5,3-3.2,3.9-5.2c0.9-2,1.4-4,1.4-6.2c0-2.5-0.7-4.9-2-7.4
			c-1.3-2.5-3.6-4.9-6.8-7.3c-3.1-1.9-6.8-4.1-11.1-6.7c-8.2-4.7-15.5-9.3-21.9-13.6c-3.6-2.8-6.3-5.9-8.1-9.3
			c-1.9-3.4-2.8-7.1-2.8-11.3c0-3.5,0.7-6.8,2.2-10c1.5-3.2,3.5-5.9,6.1-8.3c2.6-2.4,5.7-4.3,9.2-5.7c3.6-1.4,7.4-2.1,11.6-2.1
			c5.2,0,10.8,1.3,16.7,3.8c1.4,0.6,2.5,1.1,3.5,1.4c0.9,0.4,1.7,0.5,2.3,0.4c1.3,0,2.4-0.4,3.2-1.1c0.8-0.7,1.4-2.3,1.9-4.6H3018.5
			z"/>
		<path d="M3104.5,1714.5v-2.7h35v2.7h-3.7c-3.8,0-6.8,1.6-8.9,4.9c-1,1.5-1.5,5-1.5,10.6v40.1c0,9.7-1,17.5-3.1,23.2
			c-1,2.8-2.5,5.3-4.4,7.7c-1.9,2.4-4.3,4.5-7.2,6.3c-2.9,1.8-6.3,3.2-10.2,4.3c-3.9,1.1-8.3,1.6-13.4,1.6c-5.5,0-10.2-0.5-14.3-1.4
			c-4.1-0.9-7.6-2.3-10.5-4.1c-2.9-1.8-5.3-4-7.2-6.5c-1.9-2.5-3.4-5.4-4.6-8.6c-1.6-4.4-2.4-12.6-2.4-24.4v-38.7
			c0-3.1-0.2-5.5-0.6-7.5c-0.4-1.9-1-3.4-1.9-4.5c-0.9-1.1-2-1.8-3.3-2.2c-1.3-0.4-2.9-0.6-4.7-0.6h-3.8v-2.7h42.9v2.7h-3.8
			c-1.7,0-3.3,0.2-4.6,0.5c-1.3,0.4-2.4,1.1-3.3,2.1c-0.9,1.1-1.5,2.5-2,4.5c-0.5,1.9-0.7,4.5-0.7,7.7v43.2c0,4.4,0.3,8.6,0.9,12.8
			c0.6,4.1,1.8,7.8,3.6,11.1c1.8,3.2,4.4,5.8,7.8,7.7c3.4,1.9,7.9,2.9,13.5,2.9c3.2,0,6.3-0.4,9.3-1.1c3-0.8,5.7-1.8,8.1-3.1
			c2.4-1.3,4.6-2.9,6.4-4.7c1.8-1.9,3.2-3.9,4-6.1c1.9-4.3,2.8-11.8,2.8-22.5v-40.1c0-6.1-0.7-10-2.1-11.6c-1.9-2.2-4.7-3.3-8.4-3.3
			H3104.5z"/>
		<path d="M3171.8,1764.6v28.8c0,6.3,0.7,10.2,2.1,11.7c1.9,2.1,4.7,3.2,8.4,3.2h3.8v2.7h-42.4v-2.7h3.7c4.1,0,7.1-1.3,8.9-4
			c1-1.6,1.5-5.2,1.5-10.8v-64c0-6.2-0.7-10-2-11.6c-2-2.2-4.8-3.3-8.5-3.3h-3.7v-2.7h36.3c8.7,0,15.7,0.9,20.9,2.8
			c2.5,0.9,4.9,2.1,7.1,3.7c2.2,1.6,4.1,3.4,5.8,5.6c1.6,2.1,2.9,4.5,3.9,7.1c0.9,2.6,1.4,5.4,1.4,8.3c0,4-0.7,7.7-2.1,11
			c-1.4,3.3-3.4,6.2-6,8.6c-2.6,2.4-5.8,4.3-9.6,5.6c-3.8,1.3-8.1,2-13,2C3183.8,1766.5,3178.2,1765.9,3171.8,1764.6z
			 M3171.8,1760.3c2.6,0.5,4.9,0.9,6.9,1.1c2,0.3,3.7,0.4,5.1,0.4c2.5,0,4.9-0.5,7.2-1.6c2.3-1.1,4.2-2.5,5.9-4.4
			c1.7-1.9,3.1-4.1,4-6.7s1.5-5.5,1.5-8.5c0-3.6-0.5-6.9-1.6-9.7c-1.1-2.8-2.6-5.2-4.5-7.2c-1.9-2-4.1-3.5-6.7-4.5
			c-2.5-1-5.3-1.5-8.3-1.5c-2.5,0-5.7,0.4-9.6,1.3V1760.3z"/>
		<path d="M3255,1764.6v28.8c0,6.3,0.7,10.2,2.1,11.7c1.9,2.1,4.7,3.2,8.4,3.2h3.8v2.7h-42.4v-2.7h3.7c4.1,0,7.1-1.3,8.9-4
			c1-1.6,1.5-5.2,1.5-10.8v-64c0-6.2-0.7-10-2-11.6c-2-2.2-4.8-3.3-8.5-3.3h-3.7v-2.7h36.3c8.7,0,15.7,0.9,20.9,2.8
			c2.5,0.9,4.9,2.1,7.1,3.7c2.2,1.6,4.1,3.4,5.8,5.6c1.6,2.1,2.9,4.5,3.9,7.1c0.9,2.6,1.4,5.4,1.4,8.3c0,4-0.7,7.7-2.1,11
			c-1.4,3.3-3.4,6.2-6,8.6c-2.6,2.4-5.8,4.3-9.6,5.6c-3.8,1.3-8.1,2-13,2C3267,1766.5,3261.4,1765.9,3255,1764.6z M3255,1760.3
			c2.6,0.5,4.9,0.9,6.9,1.1c2,0.3,3.7,0.4,5.1,0.4c2.5,0,4.9-0.5,7.2-1.6c2.3-1.1,4.2-2.5,5.9-4.4c1.7-1.9,3.1-4.1,4-6.7
			s1.5-5.5,1.5-8.5c0-3.6-0.5-6.9-1.6-9.7c-1.1-2.8-2.6-5.2-4.5-7.2c-1.9-2-4.1-3.5-6.7-4.5c-2.5-1-5.3-1.5-8.3-1.5
			c-2.5,0-5.7,0.4-9.6,1.3V1760.3z"/>
		<path d="M3362.3,1709.6c6.3,0,12.4,1.3,18.1,3.9c5.7,2.6,10.8,6.2,15.2,10.8c4.4,4.6,7.8,10,10.4,16.2c2.6,6.2,3.9,13,3.9,20.2
			c0,7.5-1.3,14.4-3.9,20.8c-2.6,6.4-6.1,11.9-10.5,16.6c-4.4,4.7-9.6,8.4-15.5,11c-5.9,2.7-12.2,4-18.9,4c-6.8,0-13.1-1.3-19-3.8
			s-11-6.1-15.3-10.7c-4.3-4.6-7.7-10.1-10.3-16.5c-2.5-6.4-3.8-13.4-3.8-21.2c0-7.1,1.3-13.8,3.8-20.1c2.5-6.3,6-11.7,10.4-16.3
			c4.4-4.6,9.6-8.3,15.6-11C3348.6,1710.9,3355.2,1709.6,3362.3,1709.6z M3360.9,1714.9c-5,0-9.5,1.1-13.4,3.2
			c-3.9,2.1-7.2,5.2-9.8,9.2c-2.7,4-4.7,8.8-6.1,14.4c-1.4,5.6-2.1,12-2.1,19c0,7,0.7,13.4,2,19.1c1.3,5.8,3.3,10.8,6,14.9
			c2.7,4.2,5.9,7.4,9.9,9.7s8.4,3.4,13.5,3.4c4.6,0,8.8-0.9,12.7-2.6c3.9-1.7,7.3-4.5,10.2-8.1c2.9-3.7,5.2-8.4,6.8-14.1
			c1.6-5.7,2.5-12.5,2.5-20.4c0-7.5-0.7-14.2-2-20.1c-1.3-5.9-3.4-10.9-6.1-15c-2.7-4.1-6.1-7.2-10.1-9.4
			C3370.9,1716,3366.2,1714.9,3360.9,1714.9z"/>
		<path d="M3516.7,1810.9h-26.4l-33.6-46.3c-1.2,0.1-2.3,0.1-3.3,0.2c-1,0-1.9,0.1-2.7,0.1c-0.7,0-1.3,0-2.1-0.1
			c-0.7,0-1.5-0.1-2.3-0.2v28.8c0,3.5,0.2,6.2,0.7,8.2c0.5,2,1.2,3.5,2.1,4.5c0.9,1,2,1.6,3.3,1.8c1.3,0.2,2.7,0.3,4.3,0.3h3.9v2.7
			h-42.5v-2.7h3.8c4.1,0,7.1-1.3,8.9-4c1-1.6,1.5-5.2,1.5-10.8v-64c0-6.1-0.7-10-2.1-11.6c-1.9-2.2-4.7-3.3-8.4-3.3h-3.8v-2.7h36.1
			c5.3,0,9.9,0.2,13.7,0.6c3.9,0.4,7,1,9.5,1.8c2.5,0.8,4.8,1.9,7,3.3c2.2,1.4,4.1,3.1,5.7,5.1c1.6,2,2.9,4.2,3.9,6.7
			c0.9,2.5,1.4,5.1,1.4,8c0,6.2-2,11.5-5.9,15.9c-3.9,4.4-10.1,7.6-18.4,9.5l20.4,28.4c2.4,3.3,4.5,6,6.4,8.1c1.9,2.1,3.7,3.8,5.6,5
			c1.9,1.2,3.8,2.1,5.9,2.7c2.1,0.6,4.5,1,7.4,1.3V1810.9z M3446.4,1760c0.9,0,1.8,0,2.5,0.1c0.7,0,1.3,0.1,1.7,0.1
			c4.7,0,8.9-0.5,12.4-1.6c3.6-1.1,6.5-2.6,8.9-4.6c2.4-2,4.2-4.3,5.4-6.9c1.2-2.7,1.8-5.5,1.8-8.7c0-3.1-0.5-5.9-1.5-8.5
			c-1-2.6-2.5-4.8-4.4-6.7c-1.9-1.9-4.1-3.3-6.8-4.3c-2.6-1-5.5-1.5-8.6-1.5c-3,0-6.8,0.5-11.5,1.4V1760z"/>
		<path d="M3593.1,1711.8v23.3h-1.6c-0.8-6.3-2.6-10.7-5.5-13.2c-2.9-2.6-7.1-3.9-12.7-3.9h-14v75.8c0,3.3,0.2,6,0.7,7.9
			c0.5,1.9,1.1,3.4,2,4.3c0.9,0.9,2,1.5,3.3,1.8c1.3,0.3,2.8,0.4,4.6,0.4h3.4v2.7h-42v-2.7h3.5c1.7,0,3.3-0.1,4.6-0.4
			c1.3-0.3,2.4-0.9,3.3-1.9c0.9-1,1.5-2.4,2-4.3c0.5-1.9,0.7-4.5,0.7-7.7V1718h-11.9c-3,0-5.6,0.2-7.9,0.7c-2.3,0.5-4.3,1.3-5.9,2.6
			c-1.7,1.3-3,3-4,5.2c-1,2.2-1.6,5.1-1.8,8.6h-2.7v-23.3H3593.1z"/>
		<path d="M3666.5,1709.6v34.2h-2.7c-1.2-9.2-4.3-16.3-9.1-21.2c-4.8-4.9-10.9-7.3-18.3-7.3c-2.5,0-4.9,0.4-7,1.3
			c-2.1,0.9-4,2-5.6,3.4c-1.6,1.4-2.8,3-3.7,4.9c-0.9,1.8-1.3,3.7-1.3,5.7c0,1.8,0.4,3.5,1.1,5.2c0.7,1.6,3,4.2,6.8,7.7
			c6.3,4,12,7.3,16.9,9.9c4.7,2.5,10.9,6.4,18.9,11.6c3.4,2.6,6,5.7,7.9,9.3c1.8,3.6,2.7,7.4,2.7,11.3c0,3.7-0.8,7.2-2.3,10.6
			c-1.5,3.3-3.7,6.3-6.4,8.8c-2.7,2.5-6,4.5-9.9,6c-3.9,1.5-8.1,2.2-12.7,2.2c-2.9,0-5.6-0.2-8.1-0.7c-0.4-0.1-1.6-0.4-3.4-0.9
			c-1.9-0.5-3.8-1.1-5.9-1.7c-2.1-0.6-4.1-1.1-5.9-1.6c-1.8-0.5-2.9-0.8-3.2-0.8c-1.2,0-2.2,0.4-2.9,1.1c-0.7,0.7-1.2,2.3-1.6,4.6
			h-2.7v-34h2.7c1.3,7,3,12.3,5.1,16c1,1.7,2.4,3.4,4.1,4.9c1.7,1.5,3.6,2.8,5.8,3.9c2.1,1.1,4.5,2,6.9,2.6c2.5,0.6,5,0.9,7.5,0.9
			c3.1,0,5.8-0.4,8.2-1.3c2.4-0.9,4.5-2.1,6.2-3.5c1.7-1.5,3-3.2,3.9-5.2c0.9-2,1.4-4,1.4-6.2c0-2.5-0.7-4.9-2-7.4
			c-1.3-2.5-3.6-4.9-6.8-7.3c-3.1-1.9-6.8-4.1-11.1-6.7c-8.2-4.7-15.5-9.3-21.9-13.6c-3.6-2.8-6.3-5.9-8.1-9.3
			c-1.9-3.4-2.8-7.1-2.8-11.3c0-3.5,0.7-6.8,2.2-10c1.5-3.2,3.5-5.9,6.1-8.3c2.6-2.4,5.7-4.3,9.2-5.7c3.6-1.4,7.4-2.1,11.6-2.1
			c5.2,0,10.8,1.3,16.7,3.8c1.4,0.6,2.5,1.1,3.5,1.4c0.9,0.4,1.7,0.5,2.3,0.4c1.3,0,2.4-0.4,3.2-1.1c0.8-0.7,1.4-2.3,1.9-4.6H3666.5
			z"/>
		<path d="M3778.7,1777.8h-38.4l-6.8,15.6c-1.6,3.9-2.4,6.7-2.4,8.6c0,0.8,0.1,1.5,0.4,2.2c0.3,0.7,0.8,1.3,1.6,1.8
			c0.8,0.5,2,1,3.5,1.4c1.5,0.4,3.5,0.7,5.9,0.8v2.7h-31.2v-2.7c2.5-0.4,4.5-0.9,6-1.6c1.5-0.7,2.8-1.7,3.9-3c1.1-1.3,2.1-2.9,3-5
			c0.9-2,2-4.5,3.3-7.5l34.9-81.5h2.5l34.5,82.3c1.4,3.4,2.7,6.2,3.9,8.2c1.2,2.1,2.4,3.7,3.7,4.9c1.3,1.2,2.7,2,4.1,2.4
			c1.5,0.4,3.3,0.7,5.4,0.8v2.7h-39.1v-2.7c3.9-0.1,6.6-0.8,8-1.9c1.4-1.1,2.1-2.5,2.1-4.1c-0.1-2.1-1.1-5.5-2.9-10.3L3778.7,1777.8
			z M3776.6,1772.3l-16.8-40l-17.2,40H3776.6z"/>
		<path d="M3816.3,1711.8h26.8l60.6,74.4V1729c0-3.3-0.2-6-0.7-8c-0.5-2-1.2-3.4-2.1-4.4c-0.9-0.9-2-1.5-3.3-1.8
			c-1.3-0.3-2.8-0.4-4.5-0.4h-3.5v-2.7h34.6v2.7h-3.6c-1.7,0-3.3,0.1-4.6,0.4c-1.3,0.3-2.4,0.9-3.3,2c-0.9,1-1.5,2.5-2,4.4
			c-0.4,1.9-0.7,4.5-0.7,7.7v83.5h-2.6l-65.3-79.8v61.1c0,3.4,0.2,6.1,0.7,8c0.5,1.9,1.1,3.4,2,4.3c0.9,0.9,2,1.5,3.3,1.7
			c1.3,0.2,2.8,0.3,4.5,0.3h3.5v2.7h-34.5v-2.7h3.5c1.7,0,3.3-0.1,4.6-0.4c1.3-0.3,2.4-0.9,3.3-1.9c0.9-1,1.6-2.4,2-4.3
			c0.4-1.9,0.7-4.5,0.7-7.7v-68.9c-1.5-1.7-2.7-3.1-3.7-4.1c-1-1-1.9-1.9-2.8-2.5s-1.8-1.2-2.8-1.6c-1-0.4-2.3-0.9-3.8-1.4
			c-1.5-0.4-3.6-0.7-6.4-0.7V1711.8z"/>
		<path d="M4018.1,1709.6l2.6,31.2h-2.6c-3-9.2-7.2-15.8-12.7-19.9c-5.5-4.1-12.2-6.2-20-6.2c-5.8,0-11,1.1-15.6,3.4
			s-8.5,5.5-11.7,9.5c-3.2,4-5.6,8.8-7.3,14.3c-1.7,5.5-2.5,11.4-2.5,17.8c0,9.4,1.9,18,5.6,25.8c1.8,3.9,3.9,7.3,6.4,10.1
			c2.4,2.8,5.1,5.2,7.9,7c2.8,1.9,5.8,3.2,8.9,4.1c3.1,0.9,6.2,1.3,9.3,1.3c7.3,0,14.1-1.8,20.5-5.5V1774c0-2.5-0.1-4.5-0.3-6.1
			c-0.2-1.6-0.5-2.8-0.9-3.7c-0.4-0.9-0.9-1.6-1.5-2.1c-0.6-0.5-1.3-0.9-2.1-1.4c-1.6-0.8-4.4-1.2-8.3-1.2v-2.8h38.4v2.8h-1.9
			c-1.7,0-3.1,0.2-4.3,0.5c-1.2,0.4-2.1,1.1-2.9,2.1c-0.8,1-1.3,2.5-1.6,4.4c-0.3,1.9-0.5,4.4-0.5,7.4v30.3c-2.8,1.5-5.6,2.9-8.3,4
			c-2.7,1.1-5.5,2-8.2,2.7c-5.7,1.5-11.7,2.2-18.2,2.2c-8.3,0-15.8-1.3-22.5-3.8c-6.7-2.5-12.5-6.1-17.3-10.6
			c-4.8-4.5-8.5-9.8-11.1-15.9c-2.6-6.1-3.9-12.8-3.9-20c0-8.7,2.1-17,6.3-25.1c4.9-9.5,11.7-16.8,20.4-21.9
			c7.3-4.2,15.8-6.3,25.7-6.3c2,0,3.7,0.1,5.2,0.2c1.5,0.1,3.1,0.3,4.7,0.7s3.4,0.8,5.3,1.4c1.9,0.6,4.3,1.4,7,2.5
			c2.8,1.1,4.6,1.6,5.6,1.5c0.9,0,1.6-0.4,2.3-1.3c0.7-0.8,1.1-2.5,1.2-5H4018.1z"/>
		<path d="M4120.2,1783.5l2.4,0.4l-8.5,26.9h-76.8v-2.7h3.8c4.1,0,7.1-1.3,8.9-4c1-1.6,1.5-5.2,1.5-10.8v-64c0-6.1-0.7-10-2.1-11.6
			c-1.9-2.2-4.7-3.3-8.4-3.3h-3.8v-2.7h44.9v2.7c-2.7,0-4.9,0.1-6.7,0.4c-1.8,0.3-3.3,0.6-4.4,1.1c-1.2,0.5-2.1,1-2.7,1.7
			s-1.2,1.4-1.6,2.2c-0.7,1.5-1.1,5.2-1.1,11.2v62.3c0,3.4,0.3,5.9,0.8,7.4c0.5,1.5,1.5,2.6,3.1,3.2c1.3,0.4,5.1,0.7,11.5,0.7h7.2
			c7.6,0,13-0.5,16-1.6c1.5-0.5,3-1.2,4.4-2.2c1.4-0.9,2.7-2.2,4-3.7c1.3-1.5,2.6-3.4,3.8-5.6
			C4117.6,1789.3,4118.9,1786.7,4120.2,1783.5z"/>
		<path d="M4157.1,1717.2v39.1h21.7c3.2,0,5.8-0.3,7.7-0.9c2-0.6,3.5-1.5,4.6-2.6c1.1-1.2,1.9-2.7,2.3-4.5c0.4-1.8,0.7-4,0.9-6.4
			h2.7v34.5h-2.7c-0.4-2.8-0.8-5.2-1.3-7.1c-0.5-1.9-1.2-3.4-2.3-4.5c-1.1-1.1-2.5-1.9-4.4-2.4c-1.9-0.5-4.4-0.7-7.6-0.7h-21.7v32.7
			c0,2.5,0,4.4,0.1,5.9c0.1,1.5,0.4,2.6,0.9,3.3c0.5,0.8,1.3,1.3,2.4,1.5c1.1,0.2,2.7,0.3,4.8,0.3h16.8c2.8,0,5.2-0.1,7.2-0.2
			c2-0.1,3.7-0.4,5.1-0.9c1.4-0.4,2.7-1,3.8-1.8c1.1-0.8,2.3-1.7,3.5-2.9c2.9-2.8,6-7.4,9.3-13.6h2.9l-8.6,24.9h-76.3v-2.7h3.5
			c0.9,0,1.9-0.1,2.9-0.3c1-0.2,2-0.5,2.9-0.9c0.9-0.4,1.7-0.9,2.5-1.6c0.7-0.7,1.2-1.4,1.5-2.3c0.6-1.6,0.9-4.8,0.9-9.6v-64.3
			c0-6.3-0.6-10.2-1.9-11.7c-1.7-2-4.7-2.9-8.8-2.9h-3.5v-2.7h76.3v21.7h-1.7c-0.7-3.6-1.5-6.4-2.3-8.6c-0.8-2.1-1.9-3.8-3.3-5
			c-1.4-1.2-3.1-1.9-5.3-2.2c-2.1-0.3-4.9-0.5-8.2-0.5H4157.1z"/>
	</g>
	<g>
		<path d="M2748.2,1277.3l-7.1,19.4h-59.4v-2.8c17.2-16.3,29.5-29.3,36.9-39c7.2-10,10.7-19.3,10.7-27.7c0-3.2-0.5-6.1-1.6-8.8
			c-1.1-2.7-2.5-5-4.3-6.9c-1.8-1.9-3.9-3.4-6.3-4.5c-2.4-1.1-5-1.7-7.7-1.7c-4.9,0-9.4,1.4-13.3,4.3c-3.9,2.9-6.8,7.1-8.8,12.7
			h-2.7c1.3-9.2,4.4-16.3,9.5-21.1c5.1-4.8,11.5-7.3,19.2-7.3c4.1,0,7.8,0.7,11.4,2.2c3.5,1.4,6.5,3.4,9.1,5.8s4.6,5.2,6,8.4
			c1.5,3.2,2.2,6.5,2.2,10c0,5.1-0.9,9.8-2.7,14.1c-1.8,4.3-3.7,7.8-5.5,10.5c-1.9,2.7-4.6,6.3-8.1,10.8
			c-6.7,7.5-12.1,13.4-16.1,17.7c-4,4.3-8,8.3-12,12.1h26.2c3.3,0,6.1-0.1,8.4-0.2c2.3-0.1,4.2-0.5,5.8-1.1c1.6-0.6,2.9-1.4,4-2.5
			c1.1-1.1,2.2-2.6,3.3-4.4H2748.2z"/>
		<path d="M2862.2,1193.8v34.8h-2.8c-1.3-9.4-4.3-16.5-9.2-21.5c-4.9-4.9-11.1-7.4-18.6-7.4c-2.6,0-4.9,0.4-7.1,1.3
			c-2.1,0.9-4,2-5.6,3.5c-1.6,1.4-2.9,3.1-3.8,4.9c-0.9,1.8-1.3,3.8-1.3,5.8c0,1.8,0.4,3.6,1.1,5.3c0.7,1.7,3,4.3,6.9,7.8
			c6.4,4.1,12.1,7.4,17.2,10.1c4.7,2.6,11.1,6.5,19.2,11.7c3.5,2.7,6.1,5.8,8,9.5c1.8,3.7,2.8,7.5,2.8,11.5c0,3.8-0.8,7.3-2.3,10.7
			c-1.6,3.4-3.7,6.4-6.5,8.9c-2.8,2.5-6.1,4.6-10,6.1c-3.9,1.5-8.2,2.3-12.8,2.3c-3,0-5.7-0.2-8.2-0.7c-0.4-0.1-1.6-0.4-3.5-0.9
			s-3.9-1.1-6-1.7c-2.1-0.6-4.1-1.1-6-1.7c-1.8-0.5-2.9-0.8-3.2-0.8c-1.3,0-2.2,0.4-2.9,1.1c-0.7,0.7-1.2,2.3-1.6,4.7h-2.8v-34.6
			h2.8c1.3,7.1,3.1,12.5,5.2,16.3c1,1.8,2.4,3.4,4.2,4.9c1.7,1.5,3.7,2.8,5.9,4c2.2,1.1,4.5,2,7,2.7c2.5,0.6,5.1,0.9,7.6,0.9
			c3.1,0,5.9-0.4,8.4-1.3c2.5-0.9,4.6-2.1,6.3-3.6c1.7-1.5,3.1-3.3,4-5.3c0.9-2,1.4-4.1,1.4-6.3c0-2.5-0.7-5-2-7.5
			c-1.4-2.5-3.7-5-6.9-7.4c-3.2-1.9-6.9-4.2-11.3-6.8c-8.3-4.8-15.8-9.4-22.3-13.8c-3.6-2.9-6.4-6-8.3-9.5s-2.8-7.3-2.8-11.5
			c0-3.5,0.7-6.9,2.2-10.1c1.5-3.2,3.5-6,6.1-8.5c2.6-2.4,5.7-4.4,9.4-5.8c3.6-1.4,7.5-2.1,11.7-2.1c5.3,0,11,1.3,16.9,3.9
			c1.4,0.6,2.6,1.1,3.5,1.4c1,0.4,1.7,0.5,2.3,0.4c1.3,0,2.4-0.4,3.2-1.1c0.8-0.7,1.4-2.3,1.9-4.7H2862.2z"/>
		<path d="M2968.5,1193.8l2.3,34.2h-2.3c-3.1-10.3-7.5-17.6-13.1-22.2c-5.6-4.5-12.5-6.8-20.4-6.8c-5.2,0-9.9,1-14.3,2.9
			c-4.4,2-8.1,5-11.2,9c-3.1,4.1-5.6,9.2-7.4,15.3c-1.8,6.1-2.7,13.4-2.7,21.7c0,6.7,0.8,12.8,2.5,18.3c1.7,5.5,4.1,10.1,7.3,14
			c3.2,3.9,7.1,6.9,11.8,9c4.7,2.1,10,3.2,16.1,3.2c6.3,0,12.1-1.4,17.3-4.2c4.9-2.6,10.4-8.1,16.5-16.6l2.3,1.4
			c-5.1,8.9-11,15.5-17.7,19.7c-6.7,4.2-14.7,6.3-24,6.3c-7.2,0-13.7-1.3-19.7-3.8c-6-2.5-11.1-6-15.5-10.6s-7.7-9.9-10.1-16.2
			c-2.4-6.2-3.7-13.1-3.7-20.5c0-10.1,2.3-19.3,6.8-27.7c4.4-8.4,10.6-14.9,18.5-19.5c8-4.7,16.6-7,25.9-7c7.3,0,14.5,1.8,21.5,5.3
			c2.1,1.1,3.5,1.7,4.4,1.7c1.6,0,3-0.7,4-2c1.1-1.3,1.8-3,2.3-5H2968.5z"/>
		<path d="M3081,1296.7h-26.8l-34.1-47.1c-1.3,0.1-2.4,0.1-3.4,0.2c-1,0-1.9,0.1-2.7,0.1c-0.7,0-1.4,0-2.1-0.1
			c-0.7,0-1.5-0.1-2.3-0.2v29.2c0,3.5,0.2,6.3,0.7,8.4c0.5,2,1.2,3.5,2.1,4.5c0.9,1,2,1.6,3.3,1.8c1.3,0.2,2.8,0.3,4.4,0.3h4v2.8
			h-43.2v-2.8h3.9c4.1,0,7.2-1.4,9.1-4.1c1-1.6,1.6-5.3,1.6-11v-65c0-6.2-0.7-10.1-2.1-11.7c-1.9-2.2-4.8-3.3-8.5-3.3h-3.9v-2.8
			h36.7c5.4,0,10,0.2,14,0.6c3.9,0.4,7.1,1,9.6,1.8c2.5,0.8,4.9,1.9,7.1,3.4c2.2,1.4,4.2,3.2,5.8,5.2c1.7,2,3,4.3,3.9,6.8
			c1,2.5,1.4,5.2,1.4,8.1c0,6.3-2,11.7-6,16.2c-4,4.5-10.2,7.7-18.7,9.6l20.7,28.8c2.4,3.3,4.6,6.1,6.5,8.2c1.9,2.1,3.8,3.8,5.6,5.1
			c1.9,1.3,3.9,2.2,6,2.8c2.1,0.6,4.6,1,7.5,1.3V1296.7z M3009.6,1244.9c1,0,1.8,0,2.5,0.1c0.7,0,1.3,0.1,1.7,0.1
			c4.8,0,9-0.6,12.6-1.7c3.6-1.1,6.6-2.7,9.1-4.7c2.4-2,4.3-4.3,5.5-7c1.2-2.7,1.8-5.6,1.8-8.8c0-3.1-0.5-6-1.6-8.6
			c-1-2.6-2.5-4.9-4.4-6.8c-1.9-1.9-4.2-3.3-6.9-4.4c-2.7-1-5.6-1.5-8.8-1.5c-3,0-6.9,0.5-11.6,1.4V1244.9z"/>
		<path d="M3111.5,1201.5v39.8h22c3.2,0,5.9-0.3,7.9-0.9c2-0.6,3.6-1.5,4.7-2.7c1.1-1.2,1.9-2.7,2.4-4.5c0.4-1.8,0.7-4,0.9-6.5h2.8
			v35h-2.8c-0.4-2.9-0.8-5.3-1.3-7.2c-0.5-1.9-1.3-3.5-2.3-4.6c-1.1-1.1-2.6-2-4.5-2.4c-1.9-0.5-4.5-0.7-7.8-0.7h-22v33.2
			c0,2.5,0,4.5,0.1,6c0.1,1.5,0.4,2.6,0.9,3.4c0.5,0.8,1.3,1.3,2.4,1.5s2.7,0.3,4.9,0.3h17.1c2.9,0,5.3-0.1,7.3-0.2
			c2-0.1,3.7-0.4,5.2-0.9c1.4-0.4,2.7-1.1,3.8-1.8c1.1-0.8,2.3-1.8,3.5-2.9c3-2.9,6.1-7.5,9.4-13.8h3l-8.8,25.3h-77.5v-2.8h3.5
			c1,0,2-0.1,3-0.3c1-0.2,2-0.5,2.9-0.9c0.9-0.4,1.8-0.9,2.5-1.6c0.7-0.7,1.3-1.4,1.5-2.3c0.6-1.6,0.9-4.9,0.9-9.7v-65.3
			c0-6.4-0.6-10.4-1.9-11.9c-1.8-2-4.8-3-9-3h-3.5v-2.8h77.5v22h-1.8c-0.7-3.6-1.5-6.5-2.4-8.7c-0.8-2.2-2-3.9-3.4-5
			c-1.4-1.2-3.2-1.9-5.4-2.3c-2.2-0.3-5-0.5-8.4-0.5H3111.5z"/>
		<path d="M3314.7,1196v2.8c-2,0-3.6,0.2-4.9,0.6c-1.3,0.4-2.5,1.2-3.6,2.5c-1.1,1.3-2.2,3.2-3.3,5.8c-1.1,2.5-2.4,6-3.9,10.2
			l-28,81.2h-3l-22.9-64.4l-22.7,64.4h-2.8l-29.9-83.6c-1.1-3.1-2-5.6-2.7-7.4c-0.7-1.8-1.2-3-1.5-3.6c-1-1.9-2.4-3.3-4-4.3
			c-1.7-0.9-4-1.4-6.9-1.4v-2.8h37.2v2.8h-1.8c-2.6,0-4.6,0.6-6,1.8c-1.4,1.2-2.1,2.6-2.1,4.3c0,1.8,1.1,5.8,3.3,12l19.8,56.5
			l16.6-48.1l-5.3-15.2c-0.8-1.8-1.6-3.5-2.4-4.9c-0.8-1.4-1.7-2.6-2.8-3.5c-1-1-2.3-1.7-3.7-2.2c-1.4-0.5-3.1-0.7-5.1-0.7v-2.8
			h39.1v2.8h-2.7c-2.8,0-4.8,0.6-6.1,1.8c-1.3,1.2-1.9,2.8-1.9,4.9c0,2.5,1.1,6.9,3.3,13.2l19.3,54.7l19.2-55.5
			c1-3.1,1.8-5.7,2.4-7.8c0.6-2.1,0.9-3.7,0.9-5c0-2.4-1-4-3.1-4.9c-2.1-0.9-4.8-1.4-8.1-1.4v-2.8H3314.7z"/>
		<path d="M3385.6,1193.8v34.8h-2.8c-1.3-9.4-4.3-16.5-9.2-21.5c-4.9-4.9-11.1-7.4-18.6-7.4c-2.6,0-4.9,0.4-7.1,1.3
			c-2.1,0.9-4,2-5.6,3.5c-1.6,1.4-2.9,3.1-3.8,4.9c-0.9,1.8-1.3,3.8-1.3,5.8c0,1.8,0.4,3.6,1.1,5.3c0.7,1.7,3,4.3,6.9,7.8
			c6.4,4.1,12.1,7.4,17.2,10.1c4.7,2.6,11.1,6.5,19.2,11.7c3.5,2.7,6.1,5.8,8,9.5c1.8,3.7,2.8,7.5,2.8,11.5c0,3.8-0.8,7.3-2.3,10.7
			c-1.6,3.4-3.7,6.4-6.5,8.9c-2.8,2.5-6.1,4.6-10,6.1c-3.9,1.5-8.2,2.3-12.8,2.3c-3,0-5.7-0.2-8.2-0.7c-0.4-0.1-1.6-0.4-3.5-0.9
			s-3.9-1.1-6-1.7c-2.1-0.6-4.1-1.1-6-1.7c-1.8-0.5-2.9-0.8-3.2-0.8c-1.3,0-2.2,0.4-2.9,1.1c-0.7,0.7-1.2,2.3-1.6,4.7h-2.8v-34.6
			h2.8c1.3,7.1,3.1,12.5,5.2,16.3c1,1.8,2.4,3.4,4.2,4.9c1.7,1.5,3.7,2.8,5.9,4c2.2,1.1,4.5,2,7,2.7c2.5,0.6,5.1,0.9,7.6,0.9
			c3.1,0,5.9-0.4,8.4-1.3c2.5-0.9,4.6-2.1,6.3-3.6c1.7-1.5,3.1-3.3,4-5.3c0.9-2,1.4-4.1,1.4-6.3c0-2.5-0.7-5-2-7.5
			c-1.4-2.5-3.7-5-6.9-7.4c-3.2-1.9-6.9-4.2-11.3-6.8c-8.3-4.8-15.8-9.4-22.3-13.8c-3.6-2.9-6.4-6-8.3-9.5s-2.8-7.3-2.8-11.5
			c0-3.5,0.7-6.9,2.2-10.1c1.5-3.2,3.5-6,6.1-8.5c2.6-2.4,5.7-4.4,9.4-5.8c3.6-1.4,7.5-2.1,11.7-2.1c5.3,0,11,1.3,16.9,3.9
			c1.4,0.6,2.6,1.1,3.5,1.4c1,0.4,1.7,0.5,2.3,0.4c1.3,0,2.4-0.4,3.2-1.1c0.8-0.7,1.4-2.3,1.9-4.7H3385.6z"/>
		<path d="M3508.7,1245.3c4.1,0.9,7.5,2.1,10.5,3.7c2.9,1.6,5.3,3.4,7.1,5.4c1.8,2.1,3.1,4.4,4,6.9c0.8,2.5,1.3,5.1,1.3,7.9
			c0,2.5-0.4,5-1.2,7.4c-0.8,2.4-2,4.7-3.5,6.9c-1.5,2.2-3.4,4.1-5.6,5.9c-2.2,1.7-4.7,3.2-7.5,4.3c-5.3,2.1-13.7,3.1-25.1,3.1H3441
			v-2.8h3.8c1.7,0,3.2-0.1,4.5-0.4c1.3-0.3,2.5-1,3.4-2c0.9-1,1.6-2.5,2.1-4.5c0.5-2,0.7-4.7,0.7-8.1v-65c0-3.5-0.3-6.3-0.8-8.3
			c-0.5-2-1.3-3.5-2.2-4.5c-1-1-2.1-1.6-3.4-1.9c-1.3-0.3-2.8-0.4-4.3-0.4h-3.8v-2.8h43.4c14,0,24.5,2.4,31.7,7.1
			c7.2,4.7,10.8,11.3,10.8,19.8c0,5.1-1.6,9.6-4.7,13.6C3519.2,1240.4,3514.7,1243.4,3508.7,1245.3z M3469.8,1241.3
			c1.8,0.4,3.9,0.6,6.3,0.8c2.3,0.2,4.9,0.3,7.7,0.3c9.8,0,16.9-1.8,21.2-5.3c4.3-3.5,6.4-8.5,6.4-14.7c0-2.9-0.6-5.6-1.8-8.3
			c-1.2-2.6-3-4.9-5.4-6.8c-2.4-1.9-5.3-3.5-8.8-4.6c-3.5-1.1-7.6-1.7-12.2-1.7c-5,0-9.5,0.6-13.3,1.7V1241.3z M3469.8,1289.4
			c5.6,1.3,11.3,2,16.9,2c4.5,0,8.5-0.6,12-1.7c3.5-1.1,6.3-2.6,8.6-4.5c2.3-1.9,4-4.1,5.2-6.6c1.2-2.5,1.8-5.3,1.8-8.1
			c0-3.2-0.6-6.2-1.9-9c-1.3-2.8-3.2-5.2-5.8-7.3c-2.6-2.1-5.9-3.7-9.9-4.9c-4-1.2-8.6-1.8-13.9-1.8c-3.1,0-5.7,0-7.9,0.1
			c-2.1,0.1-3.9,0.3-5.2,0.6V1289.4z"/>
		<path d="M3627,1268.9l2.4,0.4l-8.6,27.4h-78v-2.8h3.9c4.1,0,7.2-1.4,9.1-4.1c1-1.6,1.6-5.3,1.6-11v-65c0-6.2-0.7-10.1-2.1-11.7
			c-1.9-2.2-4.8-3.3-8.5-3.3h-3.9v-2.8h45.6v2.8c-2.7,0-5,0.1-6.8,0.4c-1.8,0.3-3.3,0.6-4.5,1.1c-1.2,0.5-2.1,1.1-2.8,1.7
			c-0.7,0.7-1.2,1.4-1.7,2.2c-0.7,1.5-1.1,5.3-1.1,11.4v63.2c0,3.5,0.3,6,0.8,7.5c0.5,1.6,1.6,2.6,3.1,3.2c1.3,0.4,5.2,0.7,11.6,0.7
			h7.3c7.8,0,13.2-0.6,16.3-1.7c1.6-0.5,3-1.3,4.4-2.2c1.4-1,2.8-2.2,4.1-3.8s2.6-3.4,3.9-5.6
			C3624.3,1274.7,3625.6,1272,3627,1268.9z"/>
		<path d="M3702.2,1263h-39l-6.9,15.8c-1.6,3.9-2.4,6.8-2.4,8.8c0,0.8,0.1,1.6,0.4,2.2c0.3,0.7,0.8,1.3,1.7,1.8c0.8,0.6,2,1,3.5,1.4
			c1.5,0.4,3.5,0.7,6,0.8v2.8h-31.7v-2.8c2.5-0.4,4.5-0.9,6.1-1.7c1.6-0.7,2.9-1.8,4-3c1.1-1.3,2.1-3,3-5c0.9-2.1,2-4.6,3.4-7.6
			l35.4-82.7h2.5l35,83.6c1.4,3.5,2.7,6.3,3.9,8.4c1.2,2.1,2.5,3.7,3.8,4.9c1.3,1.2,2.7,2,4.2,2.4c1.5,0.4,3.3,0.7,5.5,0.8v2.8H3701
			v-2.8c4-0.1,6.7-0.8,8.1-1.9c1.4-1.1,2.2-2.5,2.2-4.2c-0.1-2.1-1.1-5.6-3-10.4L3702.2,1263z M3700.1,1257.5l-17.1-40.6l-17.5,40.6
			H3700.1z"/>
		<path d="M3833.9,1193.8l2.3,34.2h-2.3c-3.1-10.3-7.5-17.6-13.1-22.2c-5.6-4.5-12.5-6.8-20.4-6.8c-5.2,0-9.9,1-14.3,2.9
			c-4.4,2-8.1,5-11.2,9c-3.1,4.1-5.6,9.2-7.4,15.3c-1.8,6.1-2.7,13.4-2.7,21.7c0,6.7,0.8,12.8,2.5,18.3c1.7,5.5,4.1,10.1,7.3,14
			c3.2,3.9,7.1,6.9,11.8,9c4.7,2.1,10,3.2,16.1,3.2c6.3,0,12.1-1.4,17.3-4.2c4.9-2.6,10.4-8.1,16.5-16.6l2.3,1.4
			c-5.1,8.9-11,15.5-17.7,19.7c-6.7,4.2-14.7,6.3-24,6.3c-7.2,0-13.7-1.3-19.7-3.8c-6-2.5-11.1-6-15.5-10.6s-7.7-9.9-10.1-16.2
			c-2.4-6.2-3.7-13.1-3.7-20.5c0-10.1,2.3-19.3,6.8-27.7c4.4-8.4,10.6-14.9,18.5-19.5c8-4.7,16.6-7,25.9-7c7.3,0,14.5,1.8,21.5,5.3
			c2.1,1.1,3.5,1.7,4.4,1.7c1.6,0,3-0.7,4-2c1.1-1.3,1.8-3,2.3-5H3833.9z"/>
		<path d="M3889.1,1240.8l37.1,36.9c3.1,3.1,5.9,5.7,8.4,7.7c2.5,2,4.9,3.7,7.1,4.9c2.2,1.2,4.4,2.1,6.5,2.7
			c2.1,0.6,4.3,0.9,6.5,0.9v2.8h-47.8v-2.8c3.2,0,5.3-0.6,6.4-1.7c1.1-1.1,1.7-2.3,1.7-3.5c0-0.5,0-1-0.1-1.4
			c-0.1-0.4-0.3-0.9-0.6-1.4c-0.3-0.5-0.9-1.2-1.6-2c-0.7-0.8-1.7-1.8-3-3.1l-34.8-34.4v32.5c0,2.4,0.1,4.3,0.2,5.8
			c0.1,1.5,0.3,2.7,0.6,3.7c0.3,1,0.7,1.7,1.2,2.3c0.6,0.6,1.3,1.1,2.2,1.6c2.1,1.2,4.4,1.8,6.8,1.8h3.4v2.8h-42.9v-2.8h3.5
			c4.1,0,7.2-1.2,9.1-3.7c1.2-1.6,1.8-5.4,1.8-11.4v-65c0-2.2,0-4.1-0.1-5.6c-0.1-1.5-0.3-2.8-0.6-3.7c-0.3-1-0.7-1.8-1.2-2.4
			c-0.5-0.6-1.2-1.2-2.1-1.6c-2.4-1.2-4.7-1.8-6.9-1.8h-3.5v-2.8h42.9v2.8h-3.4c-1.8,0-3.8,0.4-5.8,1.2c-2,0.8-3.4,2.2-4.2,4.1
			c-0.6,1.6-0.9,4.9-0.9,9.7v30.8c0.1-0.1,0.6-0.5,1.5-1.4c0.9-0.8,2-1.8,3.1-2.8c1.1-1,2.3-2.1,3.3-3.1c1.1-1,1.8-1.7,2.3-2.1
			c5.4-4.9,9.9-9.2,13.6-12.7c3.7-3.5,6.6-6.6,8.9-9c2.2-2.5,3.8-4.5,4.8-6.2c1-1.7,1.4-3,1.4-4.2c0-1.2-0.5-2.2-1.6-3
			c-1-0.8-2.8-1.3-5.3-1.3h-2.3v-2.8h37v2.8c-1.3,0.1-2.7,0.2-4,0.4c-1.4,0.2-2.9,0.6-4.5,1.4c-1.7,0.7-3.6,1.9-5.7,3.4
			c-2.1,1.6-4.7,3.7-7.6,6.4c-0.6,0.5-2.1,2-4.5,4.6c-2.4,2.5-5.9,6.1-10.5,10.6L3889.1,1240.8z"/>
	</g>
	<g>
		<path d="M2409,1459.7v2.7h-42.2v-2.7h3.5c1.7,0,3.3-0.1,4.6-0.4c1.3-0.3,2.4-0.9,3.3-1.8c0.9-1,1.5-2.5,2-4.5
			c0.5-2,0.7-4.7,0.7-8.1v-63.7c0-2.2-0.1-4.1-0.2-5.6c-0.1-1.5-0.3-2.7-0.5-3.6c-0.3-0.9-0.6-1.7-1.1-2.2c-0.5-0.5-1.2-1.1-2.1-1.6
			c-2.2-1.2-4.4-1.7-6.7-1.7h-3.5v-2.7h42.2v2.7h-3.5c-1.7,0-3.3,0.1-4.6,0.4c-1.3,0.3-2.4,0.9-3.3,1.9c-0.9,1-1.5,2.5-2,4.5
			c-0.5,2-0.7,4.7-0.7,8v63.7c0,2.3,0,4.2,0.1,5.6c0.1,1.4,0.3,2.6,0.5,3.6c0.3,0.9,0.7,1.7,1.2,2.2c0.5,0.5,1.2,1.1,2.1,1.6
			c2,1.2,4.2,1.7,6.6,1.7H2409z"/>
		<path d="M2410.7,1363.7h26.7l60.4,74v-56.9c0-3.3-0.2-6-0.7-7.9c-0.5-2-1.2-3.4-2.1-4.3c-0.9-0.9-2-1.5-3.3-1.8
			c-1.3-0.3-2.8-0.4-4.5-0.4h-3.5v-2.7h34.4v2.7h-3.6c-1.7,0-3.3,0.1-4.6,0.4c-1.3,0.3-2.4,0.9-3.3,2c-0.9,1-1.5,2.5-2,4.3
			c-0.4,1.9-0.7,4.5-0.7,7.7v83.2h-2.6l-65-79.5v60.8c0,3.4,0.2,6.1,0.7,8c0.5,1.9,1.1,3.3,2,4.3c0.9,0.9,2,1.5,3.3,1.7
			s2.8,0.3,4.5,0.3h3.5v2.7h-34.3v-2.7h3.5c1.7,0,3.3-0.1,4.6-0.4c1.3-0.3,2.4-0.9,3.3-1.9c0.9-1,1.6-2.4,2-4.3
			c0.4-1.9,0.7-4.5,0.7-7.7v-68.6c-1.4-1.7-2.7-3.1-3.6-4.1c-1-1-1.9-1.8-2.8-2.5c-0.9-0.7-1.8-1.2-2.8-1.6s-2.3-0.9-3.8-1.4
			c-1.4-0.4-3.6-0.7-6.4-0.7V1363.7z"/>
		<path d="M2641,1363.7v23.2h-1.6c-0.8-6.2-2.6-10.6-5.5-13.2c-2.9-2.6-7.1-3.9-12.6-3.9h-13.9v75.5c0,3.3,0.2,6,0.7,7.9
			c0.5,1.9,1.1,3.3,2,4.3c0.9,0.9,2,1.5,3.3,1.8c1.3,0.3,2.8,0.4,4.6,0.4h3.4v2.7h-41.8v-2.7h3.5c1.7,0,3.3-0.1,4.6-0.4
			c1.3-0.3,2.4-0.9,3.3-1.9c0.9-1,1.5-2.4,2-4.3c0.5-1.9,0.7-4.5,0.7-7.7v-75.5h-11.8c-3,0-5.6,0.2-7.9,0.7
			c-2.3,0.5-4.3,1.3-5.9,2.6c-1.7,1.3-3,3-4,5.2c-1,2.2-1.6,5-1.8,8.5h-2.7v-23.2H2641z"/>
		<path d="M2697.5,1361.5c6.3,0,12.3,1.3,18,3.9c5.7,2.6,10.7,6.2,15.1,10.7c4.3,4.6,7.8,9.9,10.4,16.1c2.6,6.2,3.9,12.9,3.9,20.1
			c0,7.5-1.3,14.4-3.9,20.7c-2.6,6.4-6,11.9-10.4,16.6c-4.4,4.7-9.5,8.3-15.4,11c-5.9,2.6-12.2,4-18.8,4c-6.7,0-13-1.3-18.9-3.8
			c-5.9-2.5-10.9-6.1-15.3-10.7c-4.3-4.6-7.7-10.1-10.2-16.4c-2.5-6.4-3.7-13.4-3.7-21.1c0-7.1,1.2-13.8,3.7-20
			c2.5-6.2,5.9-11.6,10.3-16.2c4.4-4.6,9.6-8.2,15.6-10.9C2683.9,1362.9,2690.5,1361.5,2697.5,1361.5z M2696.1,1366.9
			c-5,0-9.4,1.1-13.3,3.2c-3.9,2.1-7.1,5.2-9.8,9.1c-2.6,3.9-4.7,8.7-6,14.3c-1.4,5.6-2.1,11.9-2.1,18.9c0,6.9,0.7,13.3,2,19.1
			c1.3,5.8,3.3,10.7,6,14.9c2.6,4.2,5.9,7.4,9.8,9.7c3.9,2.3,8.4,3.4,13.5,3.4c4.6,0,8.8-0.9,12.6-2.6c3.9-1.7,7.3-4.4,10.2-8.1
			c2.9-3.7,5.2-8.3,6.8-14c1.6-5.7,2.4-12.5,2.4-20.4c0-7.5-0.7-14.1-2-20c-1.3-5.9-3.4-10.9-6.1-15c-2.7-4.1-6.1-7.2-10.1-9.3
			C2706.1,1367.9,2701.4,1366.9,2696.1,1366.9z"/>
		<path d="M2836.8,1363.7v23.2h-1.6c-0.8-6.2-2.6-10.6-5.5-13.2c-2.9-2.6-7.1-3.9-12.6-3.9h-13.9v75.5c0,3.3,0.2,6,0.7,7.9
			c0.5,1.9,1.1,3.3,2,4.3c0.9,0.9,2,1.5,3.3,1.8c1.3,0.3,2.8,0.4,4.6,0.4h3.4v2.7h-41.8v-2.7h3.5c1.7,0,3.3-0.1,4.6-0.4
			c1.3-0.3,2.4-0.9,3.3-1.9c0.9-1,1.5-2.4,2-4.3c0.5-1.9,0.7-4.5,0.7-7.7v-75.5h-11.8c-3,0-5.6,0.2-7.9,0.7
			c-2.3,0.5-4.3,1.3-5.9,2.6c-1.7,1.3-3,3-4,5.2c-1,2.2-1.6,5-1.8,8.5h-2.7v-23.2H2836.8z"/>
		<path d="M2897.9,1429.4h-38.2l-6.7,15.5c-1.6,3.8-2.4,6.7-2.4,8.6c0,0.8,0.1,1.5,0.4,2.2c0.3,0.7,0.8,1.2,1.6,1.8
			c0.8,0.5,2,1,3.5,1.4c1.5,0.4,3.5,0.7,5.9,0.8v2.7h-31.1v-2.7c2.5-0.4,4.5-0.9,6-1.6c1.5-0.7,2.8-1.7,3.9-3c1.1-1.3,2.1-2.9,3-4.9
			c0.9-2,2-4.5,3.3-7.5l34.7-81.1h2.5l34.3,82c1.4,3.4,2.7,6.1,3.9,8.2s2.4,3.7,3.7,4.8c1.3,1.2,2.6,2,4.1,2.4
			c1.5,0.4,3.3,0.7,5.4,0.8v2.7h-39v-2.7c3.9-0.1,6.6-0.8,8-1.9c1.4-1.1,2.1-2.5,2.1-4.1c-0.1-2.1-1.1-5.5-2.9-10.2L2897.9,1429.4z
			 M2895.8,1424l-16.7-39.8l-17.2,39.8H2895.8z"/>
		<path d="M3022.7,1435.2l2.4,0.4l-8.5,26.8h-76.4v-2.7h3.8c4.1,0,7-1.3,8.9-4c1-1.6,1.5-5.2,1.5-10.7v-63.7c0-6.1-0.7-9.9-2.1-11.5
			c-1.9-2.2-4.7-3.3-8.4-3.3h-3.8v-2.7h44.7v2.7c-2.7,0-4.9,0.1-6.7,0.4c-1.8,0.3-3.2,0.6-4.4,1.1c-1.2,0.5-2.1,1-2.7,1.7
			s-1.2,1.4-1.6,2.2c-0.7,1.4-1.1,5.2-1.1,11.2v62c0,3.4,0.3,5.9,0.8,7.4c0.5,1.5,1.5,2.6,3,3.1c1.3,0.4,5.1,0.7,11.4,0.7h7.2
			c7.6,0,12.9-0.5,16-1.6c1.5-0.5,3-1.2,4.3-2.2c1.4-0.9,2.7-2.2,4-3.7c1.3-1.5,2.6-3.4,3.8-5.5
			C3020.1,1440.9,3021.4,1438.3,3022.7,1435.2z"/>
		<path d="M3113.7,1435.2l2.4,0.4l-8.5,26.8h-76.4v-2.7h3.8c4.1,0,7-1.3,8.9-4c1-1.6,1.5-5.2,1.5-10.7v-63.7c0-6.1-0.7-9.9-2.1-11.5
			c-1.9-2.2-4.7-3.3-8.4-3.3h-3.8v-2.7h44.7v2.7c-2.7,0-4.9,0.1-6.7,0.4c-1.8,0.3-3.2,0.6-4.4,1.1c-1.2,0.5-2.1,1-2.7,1.7
			s-1.2,1.4-1.6,2.2c-0.7,1.4-1.1,5.2-1.1,11.2v62c0,3.4,0.3,5.9,0.8,7.4c0.5,1.5,1.5,2.6,3,3.1c1.3,0.4,5.1,0.7,11.4,0.7h7.2
			c7.6,0,12.9-0.5,16-1.6c1.5-0.5,3-1.2,4.3-2.2c1.4-0.9,2.7-2.2,4-3.7c1.3-1.5,2.6-3.4,3.8-5.5
			C3111.1,1440.9,3112.4,1438.3,3113.7,1435.2z"/>
		<path d="M3175.4,1363.7h34.4v2.7h-2c-2.8,0-5.7,1.2-8.9,3.7c-3.2,2.5-6.7,6.8-10.5,13l-23.8,37.5v24.8c0,3.3,0.2,6,0.7,7.9
			c0.5,1.9,1.2,3.3,2.1,4.3c0.9,0.9,2,1.5,3.4,1.8c1.3,0.3,2.9,0.4,4.6,0.4h3.1v2.7h-41.9v-2.7h3.6c1.7,0,3.3-0.1,4.6-0.4
			c1.3-0.3,2.4-0.9,3.3-1.9c0.9-1,1.5-2.4,2-4.3c0.4-1.9,0.7-4.5,0.7-7.7v-23.5l-27-41.3c-1.7-2.5-3-4.4-4.1-5.9
			c-1-1.5-1.9-2.6-2.4-3.2c-0.3-0.3-0.8-0.7-1.5-1.3c-0.7-0.6-1.5-1.1-2.6-1.7c-1-0.5-2.1-1-3.4-1.5c-1.2-0.4-2.5-0.7-3.9-0.7v-2.7
			h42.1v2.7h-2.2c-1.1,0-2.2,0.1-3.3,0.4c-1.1,0.3-2.1,0.6-2.9,1.1c-0.9,0.5-1.6,1.2-2.1,2c-0.5,0.8-0.8,1.8-0.8,2.9
			c-0.1,0.9,0.3,2.1,1.1,3.6c0.8,1.6,1.9,3.5,3.4,5.8l20.5,31.8l19.4-30.4c2.8-4.4,4.2-7.8,4.3-10.2c-0.1-1-0.4-2-0.7-2.8
			c-0.3-0.9-0.9-1.6-1.6-2.2c-0.8-0.6-1.8-1.1-3-1.5c-1.2-0.4-2.8-0.5-4.7-0.5V1363.7z"/>
		<path d="M3327.1,1363.7v23.2h-1.6c-0.8-6.2-2.6-10.6-5.5-13.2c-2.9-2.6-7.1-3.9-12.6-3.9h-13.9v75.5c0,3.3,0.2,6,0.7,7.9
			c0.5,1.9,1.1,3.3,2,4.3c0.9,0.9,2,1.5,3.3,1.8c1.3,0.3,2.8,0.4,4.6,0.4h3.4v2.7h-41.8v-2.7h3.5c1.7,0,3.3-0.1,4.6-0.4
			c1.3-0.3,2.4-0.9,3.3-1.9c0.9-1,1.5-2.4,2-4.3c0.5-1.9,0.7-4.5,0.7-7.7v-75.5h-11.8c-3,0-5.6,0.2-7.9,0.7
			c-2.3,0.5-4.3,1.3-5.9,2.6c-1.7,1.3-3,3-4,5.2c-1,2.2-1.6,5-1.8,8.5h-2.7v-23.2H3327.1z"/>
		<path d="M3362.5,1409.5h45.8v-28.2c0-2.3,0-4.2-0.1-5.7c-0.1-1.5-0.3-2.7-0.5-3.6c-0.3-0.9-0.7-1.7-1.2-2.2
			c-0.5-0.5-1.2-1.1-2.1-1.6c-2-1.2-4.2-1.7-6.6-1.7h-3.5v-2.7h42.2v2.7h-3.5c-0.9,0-1.9,0.1-3,0.3c-1,0.2-2,0.5-2.9,1
			c-0.9,0.4-1.7,1-2.4,1.6c-0.7,0.7-1.2,1.4-1.5,2.3c-0.5,1.5-0.8,4.7-0.8,9.7v63.6c0,2.3,0.1,4.2,0.2,5.6c0.1,1.4,0.3,2.6,0.5,3.6
			c0.3,0.9,0.6,1.7,1.1,2.2c0.5,0.5,1.2,1.1,2.1,1.6c2,1.2,4.3,1.7,6.7,1.7h3.5v2.7h-42.2v-2.7h3.5c1.7,0,3.1-0.1,4.5-0.4
			c1.3-0.3,2.4-0.9,3.4-1.8c0.9-1,1.6-2.5,2.1-4.5c0.5-2,0.7-4.7,0.7-8.1v-30.1h-45.8v30.1c0,2.3,0,4.2,0.1,5.6
			c0.1,1.4,0.3,2.6,0.5,3.6c0.3,0.9,0.7,1.7,1.2,2.2c0.5,0.5,1.2,1.1,2.1,1.6c2,1.2,4.2,1.7,6.6,1.7h3.6v2.7h-42.3v-2.7h3.6
			c4,0,6.9-1.2,8.8-3.6c1.2-1.4,1.7-5.2,1.7-11.2v-63.6c0-2.4,0-4.3-0.1-5.8c-0.1-1.5-0.3-2.7-0.5-3.6c-0.3-0.9-0.7-1.6-1.2-2.2
			c-0.5-0.5-1.2-1.1-2.1-1.6c-2-1.2-4.2-1.7-6.6-1.7h-3.6v-2.7h42.3v2.7h-3.6c-0.9,0-1.8,0.1-2.9,0.3c-1,0.2-2,0.5-2.9,1
			c-0.9,0.4-1.7,1-2.4,1.6c-0.7,0.7-1.2,1.4-1.5,2.3c-0.6,1.7-0.9,5-0.9,9.7V1409.5z"/>
		<path d="M3470.7,1369.1v39h21.6c3.2,0,5.8-0.3,7.7-0.9c2-0.6,3.5-1.4,4.6-2.6c1.1-1.2,1.9-2.6,2.3-4.5c0.4-1.8,0.7-3.9,0.9-6.4
			h2.7v34.3h-2.7c-0.4-2.8-0.8-5.2-1.2-7.1c-0.5-1.9-1.2-3.4-2.3-4.5c-1-1.1-2.5-1.9-4.4-2.4c-1.9-0.5-4.4-0.7-7.6-0.7h-21.6v32.6
			c0,2.5,0,4.4,0.1,5.9c0.1,1.4,0.4,2.6,0.9,3.3c0.5,0.8,1.3,1.2,2.4,1.5c1.1,0.2,2.7,0.3,4.8,0.3h16.7c2.8,0,5.2-0.1,7.2-0.2
			c2-0.1,3.6-0.4,5-0.9c1.4-0.4,2.7-1,3.7-1.8c1.1-0.8,2.2-1.7,3.5-2.9c2.9-2.8,6-7.3,9.2-13.6h2.9l-8.6,24.8h-76v-2.7h3.5
			c0.9,0,1.9-0.1,2.9-0.3c1-0.2,2-0.5,2.9-0.9c0.9-0.4,1.7-0.9,2.4-1.6c0.7-0.7,1.2-1.4,1.5-2.3c0.6-1.6,0.9-4.8,0.9-9.6V1381
			c0-6.3-0.6-10.2-1.8-11.6c-1.7-2-4.7-2.9-8.8-2.9h-3.5v-2.7h76v21.6h-1.7c-0.7-3.5-1.5-6.4-2.3-8.5c-0.8-2.1-1.9-3.8-3.3-4.9
			c-1.4-1.2-3.1-1.9-5.3-2.2c-2.1-0.3-4.9-0.5-8.2-0.5H3470.7z"/>
		<path d="M3628.7,1462.4l-38.1-82.9v65.9c0,3.4,0.2,6.1,0.7,8c0.5,1.9,1.2,3.3,2.1,4.3c0.9,0.9,2,1.5,3.3,1.7s2.8,0.3,4.5,0.3h3.5
			v2.7h-34.3v-2.7h3.5c1.7,0,3.3-0.1,4.6-0.4c1.3-0.3,2.4-0.9,3.3-1.8c0.9-1,1.5-2.4,2-4.3c0.4-1.9,0.7-4.5,0.7-7.8v-64.5
			c0-2.3-0.1-4.4-0.3-6.1c-0.2-1.8-0.8-3.3-1.7-4.5c-0.9-1.2-2.3-2.2-4.1-2.8s-4.4-1-7.8-1v-2.7h27.9l35.8,77.2l35.2-77.2h27.9v2.7
			h-3.4c-1.8,0-3.4,0.1-4.7,0.4c-1.3,0.3-2.4,0.9-3.3,1.9c-0.9,1-1.5,2.4-2,4.3c-0.4,1.9-0.7,4.5-0.7,7.8v64.5c0,3.4,0.2,6.1,0.7,8
			c0.5,1.9,1.2,3.3,2.1,4.3c0.9,0.9,2,1.5,3.3,1.7s2.8,0.3,4.5,0.3h3.4v2.7h-41.9v-2.7h3.5c1.7,0,3.3-0.1,4.6-0.4
			c1.3-0.3,2.4-0.9,3.3-1.9c0.9-1,1.6-2.4,2-4.3c0.4-1.9,0.7-4.5,0.7-7.7v-65.9l-38,82.9H3628.7z"/>
		<path d="M3731.4,1369.1v39h21.6c3.2,0,5.8-0.3,7.7-0.9c2-0.6,3.5-1.4,4.6-2.6c1.1-1.2,1.9-2.6,2.3-4.5c0.4-1.8,0.7-3.9,0.9-6.4
			h2.7v34.3h-2.7c-0.4-2.8-0.8-5.2-1.2-7.1c-0.5-1.9-1.2-3.4-2.3-4.5c-1-1.1-2.5-1.9-4.4-2.4c-1.9-0.5-4.4-0.7-7.6-0.7h-21.6v32.6
			c0,2.5,0,4.4,0.1,5.9c0.1,1.4,0.4,2.6,0.9,3.3c0.5,0.8,1.3,1.2,2.4,1.5c1.1,0.2,2.7,0.3,4.8,0.3h16.7c2.8,0,5.2-0.1,7.2-0.2
			c2-0.1,3.6-0.4,5-0.9c1.4-0.4,2.7-1,3.7-1.8c1.1-0.8,2.2-1.7,3.5-2.9c2.9-2.8,6-7.3,9.2-13.6h2.9l-8.6,24.8h-76v-2.7h3.5
			c0.9,0,1.9-0.1,2.9-0.3c1-0.2,2-0.5,2.9-0.9c0.9-0.4,1.7-0.9,2.4-1.6c0.7-0.7,1.2-1.4,1.5-2.3c0.6-1.6,0.9-4.8,0.9-9.6V1381
			c0-6.3-0.6-10.2-1.8-11.6c-1.7-2-4.7-2.9-8.8-2.9h-3.5v-2.7h76v21.6h-1.7c-0.7-3.5-1.5-6.4-2.3-8.5c-0.8-2.1-1.9-3.8-3.3-4.9
			c-1.4-1.2-3.1-1.9-5.3-2.2c-2.1-0.3-4.9-0.5-8.2-0.5H3731.4z"/>
		<path d="M3859.4,1429.4h-38.2l-6.7,15.5c-1.6,3.8-2.4,6.7-2.4,8.6c0,0.8,0.1,1.5,0.4,2.2c0.3,0.7,0.8,1.2,1.6,1.8
			c0.8,0.5,2,1,3.5,1.4c1.5,0.4,3.5,0.7,5.9,0.8v2.7h-31.1v-2.7c2.5-0.4,4.5-0.9,6-1.6c1.5-0.7,2.8-1.7,3.9-3c1.1-1.3,2.1-2.9,3-4.9
			c0.9-2,2-4.5,3.3-7.5l34.7-81.1h2.5l34.3,82c1.4,3.4,2.7,6.1,3.9,8.2s2.4,3.7,3.7,4.8c1.3,1.2,2.6,2,4.1,2.4
			c1.5,0.4,3.3,0.7,5.4,0.8v2.7h-39v-2.7c3.9-0.1,6.6-0.8,8-1.9c1.4-1.1,2.1-2.5,2.1-4.1c-0.1-2.1-1.1-5.5-2.9-10.2L3859.4,1429.4z
			 M3857.3,1424l-16.7-39.8l-17.2,39.8H3857.3z"/>
		<path d="M3967.1,1361.5v34.1h-2.7c-1.2-9.2-4.2-16.2-9-21.1c-4.8-4.8-10.9-7.3-18.2-7.3c-2.5,0-4.8,0.4-6.9,1.3
			c-2.1,0.9-3.9,2-5.5,3.4c-1.6,1.4-2.8,3-3.7,4.8c-0.9,1.8-1.3,3.7-1.3,5.6c0,1.8,0.4,3.5,1.1,5.2c0.7,1.6,3,4.2,6.7,7.7
			c6.3,4,11.9,7.3,16.8,9.9c4.6,2.5,10.9,6.4,18.8,11.5c3.4,2.6,6,5.7,7.8,9.3c1.8,3.6,2.7,7.3,2.7,11.2c0,3.7-0.8,7.2-2.3,10.5
			c-1.5,3.3-3.6,6.2-6.4,8.7c-2.7,2.5-6,4.5-9.8,6c-3.8,1.5-8,2.2-12.6,2.2c-2.9,0-5.6-0.2-8-0.7c-0.4-0.1-1.6-0.4-3.4-0.9
			s-3.8-1.1-5.9-1.7c-2.1-0.6-4.1-1.1-5.9-1.6c-1.8-0.5-2.9-0.8-3.1-0.8c-1.2,0-2.2,0.4-2.9,1.1c-0.7,0.7-1.2,2.2-1.6,4.6h-2.7
			v-33.9h2.7c1.3,6.9,3,12.3,5.1,16c1,1.7,2.4,3.3,4.1,4.8c1.7,1.5,3.6,2.8,5.8,3.9c2.1,1.1,4.4,2,6.9,2.6c2.5,0.6,5,0.9,7.5,0.9
			c3,0,5.8-0.4,8.2-1.3c2.4-0.9,4.5-2,6.2-3.5c1.7-1.5,3-3.2,3.9-5.2c0.9-2,1.4-4,1.4-6.2c0-2.5-0.7-4.9-2-7.4
			c-1.3-2.5-3.6-4.9-6.8-7.3c-3.1-1.9-6.8-4.1-11.1-6.6c-8.2-4.7-15.5-9.2-21.8-13.6c-3.5-2.8-6.2-5.9-8.1-9.3
			c-1.8-3.4-2.8-7.1-2.8-11.2c0-3.5,0.7-6.8,2.2-9.9c1.4-3.1,3.5-5.9,6-8.3c2.6-2.4,5.6-4.3,9.2-5.6c3.5-1.4,7.4-2.1,11.5-2.1
			c5.2,0,10.7,1.3,16.6,3.8c1.4,0.6,2.5,1,3.5,1.4c0.9,0.4,1.7,0.5,2.3,0.4c1.3,0,2.4-0.4,3.1-1.1c0.8-0.7,1.4-2.2,1.8-4.6H3967.1z"
			/>
		<path d="M4052.7,1366.4v-2.7h34.9v2.7h-3.7c-3.8,0-6.7,1.6-8.9,4.9c-1,1.4-1.5,5-1.5,10.5v40c0,9.7-1,17.4-3,23.1
			c-1,2.8-2.5,5.3-4.3,7.7c-1.9,2.4-4.3,4.5-7.2,6.2c-2.9,1.8-6.3,3.2-10.2,4.2c-3.9,1-8.3,1.6-13.3,1.6c-5.4,0-10.2-0.5-14.2-1.4
			c-4.1-0.9-7.5-2.3-10.4-4.1c-2.9-1.8-5.3-4-7.2-6.5c-1.9-2.5-3.4-5.4-4.6-8.6c-1.6-4.4-2.4-12.5-2.4-24.3v-38.5
			c0-3-0.2-5.5-0.6-7.4c-0.4-1.9-1-3.4-1.9-4.5c-0.9-1.1-2-1.8-3.3-2.2c-1.3-0.4-2.9-0.6-4.7-0.6h-3.8v-2.7h42.7v2.7h-3.8
			c-1.7,0-3.3,0.2-4.6,0.5c-1.3,0.4-2.4,1.1-3.3,2.1c-0.9,1.1-1.5,2.5-2,4.5c-0.5,1.9-0.7,4.5-0.7,7.7v43c0,4.3,0.3,8.6,0.9,12.7
			c0.6,4.1,1.8,7.8,3.6,11c1.8,3.2,4.4,5.8,7.8,7.7c3.4,1.9,7.8,2.9,13.4,2.9c3.2,0,6.3-0.4,9.2-1.1c3-0.8,5.7-1.8,8.1-3.1
			c2.4-1.3,4.5-2.9,6.4-4.7c1.8-1.8,3.1-3.9,4-6c1.9-4.3,2.8-11.7,2.8-22.4v-40c0-6.1-0.7-9.9-2.1-11.5c-1.9-2.2-4.7-3.3-8.4-3.3
			H4052.7z"/>
		<path d="M4189.9,1462.4h-26.3l-33.4-46.1c-1.2,0.1-2.3,0.1-3.3,0.2c-1,0-1.9,0.1-2.7,0.1c-0.7,0-1.3,0-2.1-0.1
			c-0.7,0-1.5-0.1-2.3-0.2v28.7c0,3.5,0.2,6.2,0.7,8.2c0.5,2,1.2,3.5,2.1,4.5c0.9,1,2,1.6,3.3,1.8c1.3,0.2,2.7,0.3,4.3,0.3h3.9v2.7
			h-42.3v-2.7h3.8c4.1,0,7-1.3,8.9-4c1-1.6,1.5-5.2,1.5-10.7v-63.7c0-6.1-0.7-9.9-2.1-11.5c-1.9-2.2-4.7-3.3-8.4-3.3h-3.8v-2.7h35.9
			c5.3,0,9.8,0.2,13.7,0.6c3.8,0.4,7,1,9.4,1.8c2.5,0.8,4.8,1.9,6.9,3.3c2.2,1.4,4.1,3.1,5.7,5.1c1.6,2,2.9,4.2,3.9,6.7
			c0.9,2.5,1.4,5.1,1.4,7.9c0,6.2-2,11.4-5.9,15.9c-3.9,4.4-10,7.6-18.3,9.4l20.3,28.2c2.4,3.3,4.5,5.9,6.4,8c1.8,2.1,3.7,3.8,5.5,5
			c1.8,1.2,3.8,2.1,5.9,2.7c2.1,0.6,4.5,1,7.3,1.3V1462.4z M4119.8,1411.7c0.9,0,1.8,0,2.4,0.1c0.7,0,1.2,0.1,1.7,0.1
			c4.7,0,8.8-0.5,12.4-1.6c3.5-1.1,6.5-2.6,8.9-4.6c2.4-2,4.2-4.3,5.4-6.9c1.2-2.6,1.8-5.5,1.8-8.6c0-3-0.5-5.8-1.5-8.4
			c-1-2.6-2.5-4.8-4.3-6.6c-1.9-1.8-4.1-3.3-6.7-4.3c-2.6-1-5.5-1.5-8.6-1.5c-3,0-6.8,0.5-11.4,1.4V1411.7z"/>
		<path d="M4219.7,1369.1v39h21.6c3.2,0,5.8-0.3,7.7-0.9c2-0.6,3.5-1.4,4.6-2.6c1.1-1.2,1.9-2.6,2.3-4.5c0.4-1.8,0.7-3.9,0.9-6.4
			h2.7v34.3h-2.7c-0.4-2.8-0.8-5.2-1.2-7.1c-0.5-1.9-1.2-3.4-2.3-4.5c-1-1.1-2.5-1.9-4.4-2.4c-1.9-0.5-4.4-0.7-7.6-0.7h-21.6v32.6
			c0,2.5,0,4.4,0.1,5.9c0.1,1.4,0.4,2.6,0.9,3.3c0.5,0.8,1.3,1.2,2.4,1.5c1.1,0.2,2.7,0.3,4.8,0.3h16.7c2.8,0,5.2-0.1,7.2-0.2
			c2-0.1,3.6-0.4,5-0.9c1.4-0.4,2.7-1,3.7-1.8c1.1-0.8,2.2-1.7,3.5-2.9c2.9-2.8,6-7.3,9.2-13.6h2.9l-8.6,24.8h-76v-2.7h3.5
			c0.9,0,1.9-0.1,2.9-0.3c1-0.2,2-0.5,2.9-0.9c0.9-0.4,1.7-0.9,2.4-1.6c0.7-0.7,1.2-1.4,1.5-2.3c0.6-1.6,0.9-4.8,0.9-9.6V1381
			c0-6.3-0.6-10.2-1.8-11.6c-1.7-2-4.7-2.9-8.8-2.9h-3.5v-2.7h76v21.6h-1.7c-0.7-3.5-1.5-6.4-2.3-8.5c-0.8-2.1-1.9-3.8-3.3-4.9
			c-1.4-1.2-3.1-1.9-5.3-2.2c-2.1-0.3-4.9-0.5-8.2-0.5H4219.7z"/>
		<path d="M4347.8,1361.5v34.1h-2.7c-1.2-9.2-4.2-16.2-9-21.1c-4.8-4.8-10.9-7.3-18.2-7.3c-2.5,0-4.8,0.4-6.9,1.3
			c-2.1,0.9-3.9,2-5.5,3.4c-1.6,1.4-2.8,3-3.7,4.8c-0.9,1.8-1.3,3.7-1.3,5.6c0,1.8,0.4,3.5,1.1,5.2c0.7,1.6,3,4.2,6.7,7.7
			c6.3,4,11.9,7.3,16.8,9.9c4.6,2.5,10.9,6.4,18.8,11.5c3.4,2.6,6,5.7,7.8,9.3c1.8,3.6,2.7,7.3,2.7,11.2c0,3.7-0.8,7.2-2.3,10.5
			c-1.5,3.3-3.6,6.2-6.4,8.7c-2.7,2.5-6,4.5-9.8,6c-3.8,1.5-8,2.2-12.6,2.2c-2.9,0-5.6-0.2-8-0.7c-0.4-0.1-1.6-0.4-3.4-0.9
			s-3.8-1.1-5.9-1.7c-2.1-0.6-4.1-1.1-5.9-1.6c-1.8-0.5-2.9-0.8-3.1-0.8c-1.2,0-2.2,0.4-2.9,1.1c-0.7,0.7-1.2,2.2-1.6,4.6h-2.7
			v-33.9h2.7c1.3,6.9,3,12.3,5.1,16c1,1.7,2.4,3.3,4.1,4.8c1.7,1.5,3.6,2.8,5.8,3.9c2.1,1.1,4.4,2,6.9,2.6c2.5,0.6,5,0.9,7.5,0.9
			c3,0,5.8-0.4,8.2-1.3c2.4-0.9,4.5-2,6.2-3.5c1.7-1.5,3-3.2,3.9-5.2c0.9-2,1.4-4,1.4-6.2c0-2.5-0.7-4.9-2-7.4
			c-1.3-2.5-3.6-4.9-6.8-7.3c-3.1-1.9-6.8-4.1-11.1-6.6c-8.2-4.7-15.5-9.2-21.8-13.6c-3.5-2.8-6.2-5.9-8.1-9.3
			c-1.8-3.4-2.8-7.1-2.8-11.2c0-3.5,0.7-6.8,2.2-9.9c1.4-3.1,3.5-5.9,6-8.3c2.6-2.4,5.6-4.3,9.2-5.6c3.5-1.4,7.4-2.1,11.5-2.1
			c5.2,0,10.7,1.3,16.6,3.8c1.4,0.6,2.5,1,3.5,1.4c0.9,0.4,1.7,0.5,2.3,0.4c1.3,0,2.4-0.4,3.1-1.1c0.8-0.7,1.4-2.2,1.8-4.6H4347.8z"
			/>
	</g>
	<g>
		<path d="M2565.9,1547.9l26.1-12.7h2.6v90.5c0,3.1,0,5.6,0.1,7.4c0.1,1.8,0.3,3.1,0.6,4.1c0.3,0.9,0.7,1.6,1.2,2
			c0.5,0.4,1.1,0.8,2,1.2c1.6,0.9,4.8,1.3,9.7,1.3v2.9h-40.3v-2.9c2.6,0,4.7-0.1,6.3-0.4c1.6-0.2,2.8-0.5,3.7-0.9
			c0.9-0.4,1.5-0.8,1.9-1.4c0.4-0.5,0.8-1.1,1-1.8c0.5-1.2,0.8-5,0.8-11.6v-57.9c0-4.6-0.1-8.2-0.3-10.8c-0.2-2.6-0.5-4.6-1-5.8
			c-0.5-1.3-1.1-2.1-1.9-2.4c-0.8-0.4-1.8-0.5-3.1-0.5c-2.2,0-4.9,0.7-8.1,2.1L2565.9,1547.9z"/>
		<path d="M2673.2,1532.1l-38.8,114.6h-6.4l38.8-114.6H2673.2z"/>
		<path d="M2748.1,1605v11.2h-14.4v28.3h-13.1v-28.3h-45.4v-10.1l49.8-70.9h8.7v69.8H2748.1z M2720.6,1605v-53.2L2683,1605H2720.6z"
			/>
		<path d="M2827.2,1594.4v31.1c0,6.8,0.7,11,2.2,12.6c2,2.3,5.1,3.4,9.1,3.4h4.1v2.9h-45.9v-2.9h4c4.5,0,7.7-1.5,9.7-4.4
			c1.1-1.7,1.7-5.6,1.7-11.7v-69.2c0-6.7-0.7-10.9-2.1-12.5c-2.1-2.4-5.2-3.5-9.2-3.5h-4v-2.9h39.3c9.4,0,17,1,22.6,3.1
			c2.8,0.9,5.3,2.3,7.7,4c2.4,1.7,4.5,3.7,6.2,6c1.8,2.3,3.2,4.9,4.2,7.7c1,2.8,1.5,5.8,1.5,9c0,4.3-0.7,8.3-2.2,11.9
			c-1.5,3.6-3.7,6.7-6.5,9.3c-2.8,2.6-6.3,4.6-10.4,6.1c-4.1,1.5-8.8,2.2-14,2.2C2840.2,1596.5,2834.1,1595.8,2827.2,1594.4z
			 M2827.2,1589.8c2.8,0.6,5.3,1,7.4,1.2c2.1,0.3,4,0.4,5.5,0.4c2.8,0,5.3-0.6,7.8-1.7c2.4-1.1,4.6-2.7,6.4-4.7
			c1.8-2,3.3-4.4,4.4-7.3c1.1-2.8,1.6-5.9,1.6-9.2c0-3.9-0.6-7.4-1.8-10.5c-1.2-3.1-2.8-5.7-4.8-7.8c-2-2.1-4.4-3.7-7.2-4.8
			c-2.8-1.1-5.7-1.7-9-1.7c-2.7,0-6.1,0.5-10.4,1.4V1589.8z"/>
		<path d="M2917.3,1587.1h49.8v-30.7c0-2.5,0-4.6-0.1-6.2c-0.1-1.6-0.3-2.9-0.6-4c-0.3-1-0.8-1.8-1.4-2.4s-1.4-1.2-2.3-1.7
			c-2.2-1.3-4.6-1.9-7.2-1.9h-3.8v-2.9h45.9v2.9h-3.8c-1,0-2.1,0.1-3.2,0.4c-1.1,0.2-2.2,0.6-3.2,1.1c-1,0.5-1.9,1.1-2.7,1.8
			c-0.8,0.7-1.3,1.5-1.7,2.5c-0.6,1.7-0.8,5.2-0.8,10.5v69.1c0,2.5,0.1,4.6,0.2,6.1c0.1,1.6,0.3,2.9,0.6,3.9c0.3,1,0.7,1.8,1.2,2.4
			c0.5,0.6,1.3,1.2,2.2,1.7c2.2,1.3,4.6,1.9,7.3,1.9h3.8v2.9h-45.9v-2.9h3.8c1.8,0,3.4-0.1,4.8-0.4c1.4-0.3,2.6-0.9,3.7-2
			c1-1.1,1.8-2.7,2.3-4.8c0.5-2.2,0.8-5.1,0.8-8.8v-32.7h-49.8v32.7c0,2.5,0,4.6,0.1,6.1c0.1,1.6,0.3,2.9,0.6,3.9
			c0.3,1,0.8,1.8,1.4,2.4s1.4,1.2,2.3,1.7c2.2,1.3,4.6,1.9,7.2,1.9h3.9v2.9h-46v-2.9h3.9c4.3,0,7.5-1.3,9.6-3.9
			c1.3-1.6,1.9-5.6,1.9-12.1v-69.1c0-2.6,0-4.7-0.1-6.3c-0.1-1.6-0.3-2.9-0.6-3.9c-0.3-1-0.7-1.8-1.3-2.4c-0.6-0.6-1.3-1.2-2.2-1.7
			c-2.2-1.3-4.6-1.9-7.2-1.9h-3.9v-2.9h46v2.9h-3.9c-0.9,0-2,0.1-3.1,0.4c-1.1,0.2-2.2,0.6-3.2,1.1c-1,0.5-1.9,1.1-2.7,1.8
			c-0.8,0.7-1.3,1.5-1.7,2.5c-0.6,1.9-0.9,5.4-0.9,10.5V1587.1z"/>
		<path d="M3050.8,1641.6v2.9H3005v-2.9h3.8c1.9,0,3.6-0.1,5-0.4c1.5-0.3,2.7-0.9,3.6-2s1.7-2.7,2.2-4.8c0.5-2.2,0.8-5.1,0.8-8.8
			v-69.2c0-2.4-0.1-4.5-0.2-6.1c-0.1-1.6-0.3-2.9-0.6-4c-0.3-1-0.7-1.8-1.2-2.4c-0.6-0.6-1.3-1.2-2.2-1.7c-2.4-1.3-4.8-1.9-7.3-1.9
			h-3.8v-2.9h45.9v2.9h-3.8c-1.9,0-3.6,0.2-5,0.5c-1.5,0.3-2.7,1-3.6,2.1c-0.9,1.1-1.7,2.7-2.2,4.8c-0.5,2.2-0.8,5.1-0.8,8.7v69.2
			c0,2.5,0,4.6,0.1,6.1c0.1,1.6,0.3,2.9,0.6,3.9c0.3,1,0.8,1.8,1.4,2.4s1.4,1.2,2.3,1.7c2.2,1.3,4.6,1.9,7.2,1.9H3050.8z"/>
		<path d="M3147.7,1614.9l2.6,0.5l-9.2,29.1h-83v-2.9h4.1c4.4,0,7.6-1.5,9.7-4.4c1.1-1.7,1.7-5.6,1.7-11.7v-69.2
			c0-6.6-0.7-10.8-2.2-12.5c-2-2.4-5.1-3.5-9.1-3.5h-4.1v-2.9h48.6v2.9c-2.9,0-5.3,0.1-7.3,0.4c-1.9,0.3-3.5,0.7-4.8,1.2
			c-1.3,0.5-2.2,1.1-2.9,1.8c-0.7,0.7-1.3,1.5-1.8,2.4c-0.8,1.6-1.2,5.6-1.2,12.1v67.3c0,3.7,0.3,6.4,0.8,8c0.5,1.7,1.7,2.8,3.3,3.4
			c1.4,0.5,5.5,0.7,12.4,0.7h7.8c8.3,0,14-0.6,17.3-1.8c1.7-0.5,3.2-1.3,4.7-2.4c1.5-1,2.9-2.4,4.4-4c1.4-1.7,2.8-3.7,4.1-6
			C3144.9,1621.2,3146.2,1618.3,3147.7,1614.9z"/>
		<path d="M3203.6,1641.6v2.9h-45.9v-2.9h3.8c1.9,0,3.6-0.1,5-0.4c1.5-0.3,2.7-0.9,3.6-2s1.7-2.7,2.2-4.8c0.5-2.2,0.8-5.1,0.8-8.8
			v-69.2c0-2.4-0.1-4.5-0.2-6.1c-0.1-1.6-0.3-2.9-0.6-4c-0.3-1-0.7-1.8-1.2-2.4c-0.6-0.6-1.3-1.2-2.2-1.7c-2.4-1.3-4.8-1.9-7.3-1.9
			h-3.8v-2.9h45.9v2.9h-3.8c-1.9,0-3.6,0.2-5,0.5c-1.5,0.3-2.7,1-3.6,2.1c-0.9,1.1-1.7,2.7-2.2,4.8c-0.5,2.2-0.8,5.1-0.8,8.7v69.2
			c0,2.5,0,4.6,0.1,6.1c0.1,1.6,0.3,2.9,0.6,3.9c0.3,1,0.8,1.8,1.4,2.4s1.4,1.2,2.3,1.7c2.2,1.3,4.6,1.9,7.2,1.9H3203.6z"/>
		<path d="M3240.7,1594.4v31.1c0,6.8,0.7,11,2.2,12.6c2,2.3,5.1,3.4,9.1,3.4h4.1v2.9h-45.9v-2.9h4c4.5,0,7.7-1.5,9.7-4.4
			c1.1-1.7,1.7-5.6,1.7-11.7v-69.2c0-6.7-0.7-10.9-2.1-12.5c-2.1-2.4-5.2-3.5-9.2-3.5h-4v-2.9h39.3c9.4,0,17,1,22.6,3.1
			c2.8,0.9,5.3,2.3,7.7,4c2.4,1.7,4.5,3.7,6.2,6c1.8,2.3,3.2,4.9,4.2,7.7c1,2.8,1.5,5.8,1.5,9c0,4.3-0.7,8.3-2.2,11.9
			c-1.5,3.6-3.7,6.7-6.5,9.3c-2.8,2.6-6.3,4.6-10.4,6.1c-4.1,1.5-8.8,2.2-14,2.2C3253.7,1596.5,3247.6,1595.8,3240.7,1594.4z
			 M3240.7,1589.8c2.8,0.6,5.3,1,7.4,1.2c2.1,0.3,4,0.4,5.5,0.4c2.8,0,5.3-0.6,7.8-1.7c2.4-1.1,4.6-2.7,6.4-4.7
			c1.8-2,3.3-4.4,4.4-7.3c1.1-2.8,1.6-5.9,1.6-9.2c0-3.9-0.6-7.4-1.8-10.5c-1.2-3.1-2.8-5.7-4.8-7.8c-2-2.1-4.4-3.7-7.2-4.8
			c-2.8-1.1-5.7-1.7-9-1.7c-2.7,0-6.1,0.5-10.4,1.4V1589.8z"/>
		<path d="M3371.7,1534.9v37h-2.9c-1.3-10-4.6-17.6-9.8-22.9c-5.2-5.3-11.8-7.9-19.8-7.9c-2.8,0-5.3,0.5-7.5,1.4
			c-2.3,0.9-4.3,2.2-6,3.7c-1.7,1.5-3.1,3.3-4,5.2c-0.9,2-1.4,4-1.4,6.1c0,2,0.4,3.8,1.2,5.6c0.8,1.8,3.2,4.5,7.3,8.3
			c6.8,4.3,12.9,7.9,18.3,10.7c5,2.8,11.8,6.9,20.4,12.5c3.7,2.8,6.5,6.2,8.5,10.1c2,3.9,2.9,8,2.9,12.2c0,4-0.8,7.8-2.5,11.4
			c-1.7,3.6-4,6.8-6.9,9.5c-2.9,2.7-6.5,4.9-10.7,6.5c-4.2,1.6-8.7,2.4-13.7,2.4c-3.1,0-6.1-0.2-8.7-0.7c-0.5-0.1-1.7-0.4-3.7-1
			s-4.1-1.2-6.4-1.8c-2.3-0.6-4.4-1.2-6.4-1.8c-2-0.5-3.1-0.8-3.4-0.8c-1.3,0-2.4,0.4-3.1,1.2c-0.7,0.8-1.3,2.4-1.7,5h-2.9v-36.8
			h2.9c1.4,7.5,3.3,13.3,5.5,17.3c1.1,1.9,2.6,3.6,4.4,5.2c1.8,1.6,3.9,3,6.3,4.2c2.3,1.2,4.8,2.2,7.5,2.8c2.7,0.7,5.4,1,8.1,1
			c3.3,0,6.3-0.5,8.9-1.4c2.6-0.9,4.9-2.2,6.7-3.8c1.8-1.6,3.3-3.5,4.2-5.6c1-2.1,1.5-4.4,1.5-6.7c0-2.7-0.7-5.3-2.2-8
			c-1.5-2.7-3.9-5.3-7.4-7.9c-3.4-2-7.4-4.4-12-7.2c-8.9-5.1-16.8-10-23.7-14.7c-3.9-3.1-6.8-6.4-8.8-10.1s-3-7.7-3-12.2
			c0-3.8,0.8-7.4,2.4-10.8c1.6-3.4,3.8-6.4,6.5-9c2.8-2.6,6.1-4.6,10-6.1c3.9-1.5,8-2.2,12.5-2.2c5.7,0,11.7,1.4,18,4.1
			c1.5,0.6,2.8,1.1,3.8,1.5c1,0.4,1.8,0.6,2.5,0.5c1.4,0,2.6-0.4,3.4-1.2c0.9-0.8,1.5-2.4,2-5H3371.7z"/>
		<path d="M3461.3,1587.1h49.8v-30.7c0-2.5,0-4.6-0.1-6.2c-0.1-1.6-0.3-2.9-0.6-4c-0.3-1-0.8-1.8-1.4-2.4s-1.4-1.2-2.3-1.7
			c-2.2-1.3-4.6-1.9-7.2-1.9h-3.8v-2.9h45.9v2.9h-3.8c-1,0-2.1,0.1-3.2,0.4c-1.1,0.2-2.2,0.6-3.2,1.1c-1,0.5-1.9,1.1-2.7,1.8
			c-0.8,0.7-1.3,1.5-1.7,2.5c-0.6,1.7-0.8,5.2-0.8,10.5v69.1c0,2.5,0.1,4.6,0.2,6.1c0.1,1.6,0.3,2.9,0.6,3.9c0.3,1,0.7,1.8,1.2,2.4
			c0.5,0.6,1.3,1.2,2.2,1.7c2.2,1.3,4.6,1.9,7.3,1.9h3.8v2.9h-45.9v-2.9h3.8c1.8,0,3.4-0.1,4.8-0.4c1.4-0.3,2.6-0.9,3.7-2
			c1-1.1,1.8-2.7,2.3-4.8c0.5-2.2,0.8-5.1,0.8-8.8v-32.7h-49.8v32.7c0,2.5,0,4.6,0.1,6.1c0.1,1.6,0.3,2.9,0.6,3.9
			c0.3,1,0.8,1.8,1.4,2.4s1.4,1.2,2.3,1.7c2.2,1.3,4.6,1.9,7.2,1.9h3.9v2.9h-46v-2.9h3.9c4.3,0,7.5-1.3,9.6-3.9
			c1.3-1.6,1.9-5.6,1.9-12.1v-69.1c0-2.6,0-4.7-0.1-6.3c-0.1-1.6-0.3-2.9-0.6-3.9c-0.3-1-0.7-1.8-1.3-2.4c-0.6-0.6-1.3-1.2-2.2-1.7
			c-2.2-1.3-4.6-1.9-7.2-1.9h-3.9v-2.9h46v2.9h-3.9c-0.9,0-2,0.1-3.1,0.4c-1.1,0.2-2.2,0.6-3.2,1.1c-1,0.5-1.9,1.1-2.7,1.8
			c-0.8,0.7-1.3,1.5-1.7,2.5c-0.6,1.9-0.9,5.4-0.9,10.5V1587.1z"/>
		<path d="M3578.7,1543.2v42.3h23.5c3.5,0,6.2-0.3,8.4-0.9c2.1-0.6,3.8-1.6,5-2.8c1.2-1.3,2.1-2.9,2.5-4.8c0.5-2,0.8-4.3,0.9-7h2.9
			v37.3h-2.9c-0.4-3.1-0.8-5.6-1.4-7.7c-0.5-2-1.3-3.7-2.5-4.9c-1.1-1.2-2.7-2.1-4.8-2.6c-2-0.5-4.8-0.8-8.3-0.8h-23.5v35.4
			c0,2.7,0,4.8,0.1,6.4c0.1,1.6,0.4,2.8,0.9,3.6c0.5,0.8,1.4,1.4,2.6,1.6c1.2,0.2,2.9,0.4,5.2,0.4h18.2c3.1,0,5.7-0.1,7.8-0.2
			c2.1-0.2,4-0.5,5.5-0.9s2.9-1.1,4.1-1.9c1.2-0.8,2.4-1.9,3.8-3.1c3.1-3.1,6.5-8,10-14.7h3.2l-9.3,26.9h-82.6v-2.9h3.8
			c1,0,2.1-0.1,3.2-0.4c1.1-0.2,2.1-0.6,3.1-1c1-0.4,1.9-1,2.7-1.7c0.8-0.7,1.3-1.5,1.7-2.5c0.6-1.7,0.9-5.2,0.9-10.4v-69.6
			c0-6.8-0.7-11-2-12.6c-1.9-2.1-5.1-3.2-9.6-3.2h-3.8v-2.9h82.6v23.5h-1.9c-0.8-3.9-1.6-6.9-2.5-9.3c-0.9-2.3-2.1-4.1-3.6-5.4
			c-1.5-1.3-3.4-2.1-5.7-2.4c-2.3-0.4-5.3-0.5-8.9-0.5H3578.7z"/>
		<path d="M3717.8,1608.7h-41.5l-7.3,16.9c-1.7,4.2-2.6,7.3-2.6,9.3c0,0.9,0.1,1.7,0.4,2.4c0.3,0.7,0.9,1.4,1.8,1.9
			c0.9,0.6,2.2,1.1,3.8,1.5c1.6,0.4,3.8,0.7,6.4,0.9v2.9H3645v-2.9c2.7-0.4,4.8-1,6.5-1.8c1.7-0.8,3.1-1.9,4.2-3.2
			c1.2-1.4,2.3-3.2,3.2-5.4c1-2.2,2.2-4.9,3.6-8.1l37.7-88.1h2.7l37.3,89c1.5,3.7,2.9,6.7,4.2,8.9c1.3,2.2,2.6,4,4,5.2
			c1.4,1.3,2.9,2.1,4.5,2.6c1.6,0.5,3.6,0.7,5.8,0.8v2.9h-42.3v-2.9c4.2-0.2,7.1-0.8,8.7-2.1c1.5-1.2,2.3-2.7,2.3-4.4
			c-0.1-2.3-1.1-6-3.2-11.1L3717.8,1608.7z M3715.5,1602.8l-18.2-43.3l-18.6,43.3H3715.5z"/>
		<path d="M3763.3,1644.5v-2.9h4.1c1.8,0,3.4-0.2,4.8-0.5c1.4-0.3,2.6-1,3.5-2.1c0.9-1.1,1.7-2.7,2.2-4.8c0.5-2.1,0.8-5,0.8-8.6
			v-69.2c0-6.6-0.7-10.8-2.2-12.5c-2-2.4-5.1-3.5-9.1-3.5h-4.1v-2.9h43.6c15.9,0,28.1,1.8,36.6,5.5c8.4,3.7,15.1,9.8,20.2,18.2
			c5.1,8.6,7.7,18.4,7.7,29.4c0,7.9-1.3,15.2-3.8,21.8c-2.6,6.6-6.4,12.3-11.4,17.1c-5.1,4.8-11.3,8.5-18.8,11.2
			c-7.5,2.7-16.2,4-26.1,4H3763.3z M3794,1636.7c6.5,1.5,12.1,2.2,16.7,2.2c6.1,0,11.7-1.1,16.9-3.4s9.7-5.4,13.5-9.6
			c3.8-4.1,6.8-9.1,9-15c2.2-5.9,3.2-12.5,3.2-19.8c0-7.4-1.1-14.1-3.2-20c-2.1-5.9-5.1-11-9-15.1c-3.9-4.1-8.4-7.3-13.7-9.5
			c-5.3-2.2-11-3.3-17.3-3.3c-4.6,0-10,0.8-16.2,2.4V1636.7z"/>
		<path d="M3951.1,1543.2v42.1h19.5c2.3,0,4.2-0.2,5.8-0.6c1.6-0.4,3-1.2,4.1-2.3c1.1-1.1,2-2.6,2.6-4.5c0.6-1.9,1.1-4.3,1.5-7.2
			h2.9v36.2h-2.9c-0.1-2.7-0.4-5-0.8-6.8s-1.2-3.4-2.3-4.7c-1.1-1.2-2.5-2.1-4.2-2.7c-1.8-0.5-4-0.8-6.7-0.8h-19.5v33.6
			c0,2.5,0,4.6,0.1,6.1c0.1,1.6,0.3,2.9,0.6,3.9c0.3,1,0.8,1.8,1.4,2.4c0.6,0.6,1.4,1.2,2.3,1.7c2.2,1.3,4.6,1.9,7.2,1.9h3.9v2.9
			h-46v-2.9h3.8c1.9,0,3.6-0.1,5-0.4c1.5-0.3,2.7-0.9,3.6-2c0.9-1.1,1.7-2.7,2.2-4.8c0.5-2.2,0.8-5.1,0.8-8.8v-69.2
			c0-2.4-0.1-4.5-0.2-6.1c-0.1-1.6-0.3-2.9-0.6-4c-0.3-1-0.7-1.8-1.2-2.5c-0.6-0.6-1.3-1.2-2.2-1.7c-1.2-0.6-2.4-1.1-3.5-1.4
			c-1.2-0.3-2.4-0.5-3.8-0.5h-3.8v-2.9h79.7v23.6h-1.8c-1-3.9-2.2-6.9-3.5-9.3c-1.3-2.3-2.9-4.1-4.7-5.4c-1.8-1.3-4-2.1-6.5-2.5
			c-2.5-0.4-5.5-0.6-9.1-0.6H3951.1z"/>
		<path d="M4067.1,1534.9c6.8,0,13.4,1.4,19.6,4.2c6.2,2.8,11.7,6.7,16.4,11.7c4.7,5,8.5,10.8,11.3,17.5c2.8,6.7,4.2,14,4.2,21.9
			c0,8.1-1.4,15.6-4.2,22.5c-2.8,6.9-6.6,12.9-11.3,18c-4.8,5.1-10.3,9-16.7,11.9c-6.4,2.9-13.2,4.3-20.5,4.3
			c-7.3,0-14.2-1.4-20.5-4.1c-6.4-2.8-11.9-6.6-16.6-11.6c-4.7-5-8.4-10.9-11.1-17.9c-2.7-6.9-4.1-14.5-4.1-22.9
			c0-7.7,1.4-14.9,4.1-21.7c2.7-6.8,6.4-12.6,11.2-17.6c4.8-5,10.4-8.9,16.9-11.9C4052.3,1536.4,4059.4,1534.9,4067.1,1534.9z
			 M4065.6,1540.7c-5.4,0-10.2,1.2-14.4,3.5c-4.2,2.3-7.7,5.6-10.6,9.9c-2.9,4.3-5.1,9.5-6.5,15.6c-1.5,6.1-2.2,13-2.2,20.6
			c0,7.5,0.7,14.4,2.2,20.7c1.5,6.3,3.6,11.6,6.5,16.2c2.9,4.5,6.4,8,10.7,10.5c4.2,2.5,9.1,3.7,14.6,3.7c5,0,9.5-0.9,13.7-2.8
			c4.2-1.9,7.9-4.8,11-8.8c3.1-4,5.6-9,7.4-15.2c1.8-6.2,2.7-13.5,2.7-22.1c0-8.1-0.7-15.4-2.2-21.8c-1.5-6.4-3.7-11.8-6.6-16.3
			c-2.9-4.4-6.6-7.8-11-10.1C4076.4,1541.9,4071.3,1540.7,4065.6,1540.7z"/>
		<path d="M4234.1,1644.5h-28.5l-36.3-50.1c-1.3,0.1-2.5,0.1-3.6,0.2c-1.1,0-2,0.1-2.9,0.1c-0.7,0-1.5,0-2.2-0.1
			c-0.8,0-1.6-0.1-2.5-0.2v31.1c0,3.8,0.3,6.7,0.8,8.9c0.5,2.2,1.3,3.8,2.2,4.8c1,1.1,2.2,1.7,3.5,1.9c1.4,0.2,2.9,0.4,4.7,0.4h4.2
			v2.9h-46v-2.9h4.1c4.4,0,7.6-1.5,9.7-4.4c1.1-1.7,1.7-5.6,1.7-11.7v-69.2c0-6.6-0.7-10.8-2.2-12.5c-2-2.4-5.1-3.5-9.1-3.5h-4.1
			v-2.9h39c5.7,0,10.7,0.2,14.9,0.6c4.2,0.4,7.6,1.1,10.3,1.9c2.7,0.9,5.2,2.1,7.5,3.6c2.4,1.5,4.4,3.4,6.2,5.5
			c1.8,2.2,3.2,4.6,4.2,7.3c1,2.7,1.5,5.5,1.5,8.6c0,6.7-2.1,12.4-6.4,17.2c-4.2,4.8-10.9,8.2-19.9,10.3l22.1,30.7
			c2.6,3.5,4.9,6.4,6.9,8.7c2,2.3,4,4.1,6,5.4c2,1.3,4.1,2.3,6.4,2.9c2.2,0.6,4.9,1.1,8,1.4V1644.5z M4158,1589.4c1,0,1.9,0,2.7,0.1
			c0.7,0,1.4,0.1,1.8,0.1c5.1,0,9.6-0.6,13.4-1.8c3.9-1.2,7.1-2.8,9.7-5s4.5-4.6,5.8-7.5c1.3-2.9,1.9-6,1.9-9.4
			c0-3.3-0.6-6.3-1.7-9.1c-1.1-2.8-2.7-5.2-4.7-7.2c-2-2-4.5-3.6-7.3-4.7c-2.8-1.1-5.9-1.7-9.3-1.7c-3.2,0-7.4,0.5-12.4,1.5V1589.4z
			"/>
	</g>
</g>
<g id="SOPORTE-PARED">
</g>
<g id="MEDIDAS">
</g>
<g id="PROCESOS">
</g>
</svg>
