<?xml version="1.0" encoding="utf-8"?>
<!-- Generator: Adobe Illustrator 26.5.0, SVG Export Plug-In . SVG Version: 6.00 Build 0)  -->
<svg version="1.1" id="TORNILLOSMAD" xmlns="http://www.w3.org/2000/svg" xmlns:xlink="http://www.w3.org/1999/xlink" x="0px"
	 y="0px" viewBox="0 0 5314 2701" style="enable-background:new 0 0 5314 2701;" xml:space="preserve">
<style type="text/css">
	.st0{fill:#F7F7F7;stroke:#000000;stroke-width:20.8718;stroke-miterlimit:10;}
</style>
<g id="PUNTILLAS">
	<g id="TORNILLERIA-SOPORTE-4_00000073697413006203562230000008240210573162313872_">
		<circle id="_x31_0_00000165195292160582914830000008888818712141629096_" class="st0" cx="1363" cy="1334.9" r="1289.8"/>
		<g>
			<g>
				<g>
					<path d="M3141.4,688.9V753h-5.1c-2.3-17.3-8-30.5-16.9-39.6c-9-9.1-20.4-13.7-34.3-13.7c-4.8,0-9.1,0.8-13.1,2.4
						c-3.9,1.6-7.4,3.8-10.4,6.4c-3,2.7-5.3,5.7-6.9,9.1c-1.6,3.4-2.4,6.9-2.4,10.6c0,3.4,0.7,6.6,2,9.7c1.4,3.1,5.6,7.9,12.6,14.4
						c11.8,7.5,22.4,13.7,31.6,18.6c8.7,4.8,20.5,12,35.3,21.6c6.4,4.9,11.3,10.7,14.7,17.4c3.4,6.7,5.1,13.8,5.1,21.1
						c0,6.9-1.4,13.5-4.3,19.8c-2.9,6.3-6.8,11.7-11.9,16.4c-5.1,4.7-11.3,8.4-18.5,11.2c-7.2,2.8-15.1,4.2-23.7,4.2
						c-5.4,0-10.5-0.4-15.1-1.2c-0.8-0.1-3-0.7-6.4-1.7c-3.5-1-7.2-2.1-11.1-3.2c-3.9-1.1-7.6-2.1-11-3.1c-3.4-0.9-5.4-1.4-5.9-1.4
						c-2.3,0-4.1,0.7-5.4,2c-1.3,1.4-2.3,4.2-3,8.6h-5.1v-63.7h5.1c2.4,13.1,5.6,23.1,9.6,30c1.9,3.3,4.5,6.3,7.7,9.1
						c3.2,2.8,6.8,5.2,10.8,7.3c4,2.1,8.3,3.7,13,4.9c4.6,1.2,9.3,1.7,14.1,1.7c5.7,0,10.8-0.8,15.4-2.4c4.6-1.6,8.4-3.8,11.6-6.6
						c3.2-2.8,5.6-6,7.3-9.7c1.7-3.7,2.6-7.5,2.6-11.6c0-4.6-1.3-9.2-3.8-13.9c-2.5-4.6-6.8-9.2-12.7-13.7
						c-5.9-3.5-12.8-7.7-20.8-12.4c-15.4-8.8-29-17.3-41-25.5c-6.7-5.3-11.7-11.1-15.2-17.4c-3.5-6.3-5.2-13.4-5.2-21.1
						c0-6.5,1.4-12.8,4.1-18.7c2.7-5.9,6.5-11.1,11.3-15.6c4.8-4.5,10.6-8,17.2-10.6c6.7-2.6,13.9-3.9,21.6-3.9
						c9.8,0,20.2,2.4,31.2,7.1c2.6,1.1,4.8,2,6.5,2.7c1.8,0.7,3.2,1,4.3,0.8c2.4,0,4.4-0.7,5.9-2c1.5-1.4,2.7-4.2,3.5-8.6H3141.4z"
						/>
					<path d="M3337.2,688.9l4.3,63h-4.3c-5.7-18.9-13.8-32.5-24.2-40.8c-10.4-8.3-23-12.4-37.6-12.4c-9.5,0-18.3,1.8-26.3,5.4
						c-8,3.6-14.9,9.2-20.7,16.6c-5.8,7.5-10.3,16.9-13.6,28.2s-4.9,24.6-4.9,40c0,12.4,1.5,23.6,4.6,33.7
						c3.1,10.1,7.6,18.7,13.5,25.8c5.9,7.1,13.2,12.6,21.7,16.5c8.6,3.9,18.4,5.8,29.6,5.8c11.7,0,22.3-2.6,31.8-7.8
						c9.1-4.8,19.2-15,30.4-30.6l4.3,2.7c-9.4,16.5-20.2,28.5-32.5,36.2c-12.3,7.7-27,11.5-44.2,11.5c-13.2,0-25.3-2.3-36.3-6.9
						c-11-4.6-20.5-11.1-28.5-19.5c-8-8.4-14.2-18.3-18.7-29.8c-4.5-11.5-6.7-24.1-6.7-37.8c0-18.6,4.1-35.6,12.4-51
						c8.2-15.5,19.5-27.5,34.1-35.9c14.7-8.6,30.6-12.9,47.7-12.9c13.5,0,26.7,3.3,39.6,9.8c3.8,2,6.5,3.1,8.2,3.1
						c3,0,5.5-1.2,7.4-3.7c2-2.4,3.4-5.5,4.2-9.2H3337.2z"/>
					<path d="M3544.5,878.4h-49.4l-62.8-86.7c-2.3,0.1-4.4,0.2-6.2,0.3c-1.8,0.1-3.5,0.1-5,0.1c-1.2,0-2.5,0-3.9-0.1
						c-1.4-0.1-2.8-0.2-4.3-0.3v53.9c0,6.5,0.4,11.7,1.3,15.4c0.9,3.7,2.2,6.5,3.9,8.4c1.7,1.8,3.7,3,6.1,3.4
						c2.4,0.4,5.1,0.6,8.1,0.6h7.3v5.1h-79.6v-5.1h7.1c7.6,0,13.2-2.5,16.7-7.5c1.9-3,2.9-9.7,2.9-20.2V725.8
						c0-11.4-1.3-18.6-3.9-21.6c-3.5-4.1-8.8-6.1-15.7-6.1h-7.1V693h67.5c9.9,0,18.5,0.4,25.7,1.1c7.2,0.7,13.1,1.9,17.8,3.4
						c4.6,1.5,9,3.6,13.1,6.2c4.1,2.7,7.7,5.9,10.7,9.6c3.1,3.7,5.5,7.9,7.2,12.5c1.8,4.6,2.7,9.6,2.7,14.9c0,11.6-3.7,21.5-11,29.8
						c-7.3,8.3-18.8,14.2-34.5,17.8l38.2,53c4.5,6.1,8.5,11.2,11.9,15.1c3.5,3.9,6.9,7.1,10.4,9.4c3.5,2.3,7.1,4,11,5.1
						c3.9,1.1,8.5,1.9,13.8,2.4V878.4z M3412.9,783.1c1.8,0,3.3,0,4.6,0.1c1.3,0.1,2.3,0.1,3.2,0.1c8.8,0,16.6-1,23.3-3.1
						c6.7-2,12.2-4.9,16.7-8.6c4.5-3.7,7.9-8,10.1-13c2.2-5,3.4-10.4,3.4-16.2c0-5.7-1-11-2.9-15.8c-1.9-4.8-4.6-9-8.2-12.4
						c-3.5-3.5-7.8-6.2-12.6-8.1c-4.9-1.9-10.3-2.9-16.1-2.9c-5.6,0-12.7,0.9-21.4,2.7V783.1z"/>
					<path d="M3600.6,703.2v73.2h40.6c6,0,10.8-0.5,14.5-1.6c3.7-1.1,6.6-2.7,8.7-4.9c2.1-2.2,3.6-5,4.4-8.4c0.8-3.4,1.4-7.4,1.6-12
						h5.1V814h-5.1c-0.7-5.3-1.5-9.7-2.3-13.3c-0.9-3.5-2.3-6.4-4.3-8.5c-2-2.1-4.7-3.6-8.3-4.5c-3.5-0.9-8.3-1.3-14.3-1.3h-40.6
						v61.2c0,4.6,0.1,8.3,0.2,11c0.1,2.7,0.7,4.8,1.6,6.2c0.9,1.4,2.4,2.3,4.5,2.8c2,0.4,5,0.6,9,0.6h31.4c5.3,0,9.8-0.1,13.5-0.4
						c3.7-0.3,6.8-0.8,9.5-1.6c2.7-0.8,5-1.9,7-3.4c2-1.4,4.2-3.2,6.5-5.4c5.4-5.3,11.2-13.8,17.3-25.5h5.5l-16.1,46.5h-142.8v-5.1
						h6.5c1.8,0,3.6-0.2,5.5-0.6c1.9-0.4,3.7-1,5.4-1.7c1.7-0.7,3.2-1.7,4.6-3c1.4-1.2,2.3-2.7,2.9-4.3c1.1-3,1.6-9,1.6-18V725.4
						c0-11.8-1.2-19.1-3.5-21.8c-3.3-3.7-8.8-5.5-16.5-5.5h-6.5V693h142.8v40.6h-3.3c-1.4-6.7-2.8-12-4.4-16c-1.6-4-3.6-7.1-6.2-9.3
						c-2.6-2.2-5.9-3.6-9.9-4.2c-4-0.6-9.1-0.9-15.4-0.9H3600.6z"/>
					<path d="M3975,693v5.1c-3.7,0-6.7,0.3-9.1,1c-2.4,0.7-4.6,2.2-6.6,4.6c-2,2.4-4.1,5.9-6.1,10.6c-2,4.7-4.4,11-7.1,18.9
						l-51.6,149.5h-5.5l-42.2-118.5l-41.8,118.5h-5.1l-55.1-154c-2-5.7-3.7-10.2-4.9-13.6c-1.2-3.3-2.2-5.5-2.9-6.6
						c-1.9-3.5-4.4-6.2-7.4-7.9c-3.1-1.7-7.3-2.6-12.8-2.6V693h68.6v5.1h-3.3c-4.8,0-8.4,1.1-11,3.3c-2.6,2.2-3.9,4.8-3.9,8
						c0,3.3,2,10.6,6.1,22l36.5,104l30.6-88.5l-9.8-28c-1.5-3.4-3-6.4-4.5-9c-1.5-2.6-3.2-4.8-5.1-6.5c-1.9-1.8-4.2-3.1-6.7-4
						c-2.6-0.9-5.7-1.3-9.4-1.3V693h72v5.1h-4.9c-5.2,0-8.9,1.1-11.2,3.3c-2.3,2.2-3.5,5.2-3.5,9c0,4.6,2,12.7,6.1,24.3l35.5,100.8
						l35.3-102.2c1.9-5.7,3.4-10.5,4.5-14.3c1.1-3.8,1.6-6.9,1.6-9.2c0-4.4-1.9-7.4-5.7-9.1c-3.8-1.7-8.8-2.6-14.9-2.6V693H3975z"/>
					<path d="M4171.5,783.8c7.5,1.6,13.9,3.9,19.3,6.7c5.4,2.9,9.7,6.2,13.1,10c3.3,3.8,5.8,8,7.3,12.6c1.6,4.6,2.3,9.5,2.3,14.5
						c0,4.6-0.7,9.2-2.2,13.7c-1.5,4.5-3.6,8.7-6.4,12.8c-2.8,4-6.2,7.6-10.3,10.8c-4.1,3.2-8.7,5.8-13.9,7.9
						c-9.8,3.8-25.2,5.7-46.3,5.7h-87.5v-5.1h6.9c3.1,0,5.9-0.3,8.4-0.8c2.4-0.5,4.5-1.8,6.2-3.7c1.7-1.9,3-4.7,3.9-8.4
						c0.9-3.7,1.3-8.6,1.3-14.9V725.8c0-6.5-0.5-11.6-1.4-15.3c-1-3.7-2.3-6.4-4.1-8.3c-1.8-1.8-3.9-3-6.3-3.5
						c-2.4-0.5-5.1-0.7-8-0.7h-6.9V693h80c25.7,0,45.2,4.4,58.5,13.1c13.3,8.7,19.9,20.9,19.9,36.5c0,9.4-2.9,17.7-8.6,25
						C4190.8,774.8,4182.5,780.2,4171.5,783.8z M4099.8,776.4c3.4,0.7,7.2,1.2,11.5,1.5c4.3,0.3,9,0.5,14.2,0.5
						c18.1,0,31.1-3.3,39-9.8c7.9-6.5,11.8-15.6,11.8-27.1c0-5.3-1.1-10.4-3.4-15.2c-2.2-4.8-5.5-9-9.9-12.5
						c-4.4-3.5-9.8-6.4-16.2-8.5c-6.5-2.1-14-3.2-22.5-3.2c-9.3,0-17.4,1-24.5,3.1V776.4z M4099.8,865c10.3,2.4,20.7,3.7,31.2,3.7
						c8.3,0,15.6-1,22-3.1c6.4-2,11.7-4.8,15.9-8.3c4.2-3.5,7.4-7.6,9.6-12.2c2.2-4.7,3.3-9.7,3.3-15c0-5.8-1.2-11.4-3.5-16.5
						c-2.3-5.2-5.9-9.7-10.7-13.5c-4.8-3.8-10.9-6.8-18.2-9c-7.3-2.2-15.8-3.3-25.6-3.3c-5.7,0-10.5,0.1-14.5,0.2
						c-3.9,0.1-7.1,0.5-9.6,1V865z"/>
					<path d="M4389.3,827.2l4.5,0.8l-15.9,50.4h-143.6v-5.1h7.1c7.6,0,13.2-2.5,16.7-7.5c1.9-3,2.9-9.7,2.9-20.2V725.8
						c0-11.4-1.3-18.6-3.9-21.6c-3.5-4.1-8.8-6.1-15.7-6.1h-7.1V693h84.1v5.1c-5,0-9.2,0.2-12.5,0.7c-3.3,0.5-6.1,1.2-8.3,2
						c-2.2,0.9-3.9,1.9-5.1,3.2c-1.2,1.2-2.2,2.6-3.1,4.1c-1.4,2.7-2,9.7-2,21v116.5c0,6.4,0.5,11,1.4,13.9c1,2.9,2.9,4.8,5.7,5.9
						c2.4,0.8,9.6,1.2,21.4,1.2h13.5c14.3,0,24.3-1,30-3.1c2.9-0.9,5.6-2.3,8.2-4.1c2.6-1.8,5.1-4.1,7.5-6.9
						c2.4-2.9,4.8-6.3,7.1-10.4C4384.5,838,4386.9,833.1,4389.3,827.2z"/>
					<path d="M4527.9,816.4h-71.8l-12.6,29.2c-3,7.2-4.5,12.6-4.5,16.1c0,1.5,0.2,2.9,0.7,4.1c0.5,1.2,1.5,2.3,3.1,3.4
						c1.6,1,3.7,1.9,6.5,2.7c2.8,0.7,6.5,1.3,11.1,1.5v5.1H4402v-5.1c4.6-0.7,8.4-1.7,11.2-3.1c2.9-1.4,5.3-3.2,7.3-5.6
						c2-2.4,3.9-5.5,5.6-9.3c1.7-3.8,3.8-8.5,6.2-14.1l65.3-152.4h4.7l64.5,154c2.6,6.4,5,11.5,7.2,15.4c2.2,3.9,4.6,6.9,6.9,9.1
						c2.4,2.2,5,3.7,7.8,4.5c2.8,0.8,6.2,1.3,10.1,1.4v5.1h-73.2v-5.1c7.3-0.3,12.3-1.5,15-3.6c2.7-2.1,4-4.7,4-7.7
						c-0.1-3.9-2-10.3-5.5-19.2L4527.9,816.4z M4524,806.2l-31.4-74.9l-32.2,74.9H4524z"/>
					<path d="M4770.4,688.9l4.3,63h-4.3c-5.7-18.9-13.8-32.5-24.2-40.8c-10.4-8.3-23-12.4-37.6-12.4c-9.5,0-18.3,1.8-26.3,5.4
						c-8,3.6-14.9,9.2-20.7,16.6c-5.8,7.5-10.3,16.9-13.6,28.2c-3.3,11.3-4.9,24.6-4.9,40c0,12.4,1.5,23.6,4.6,33.7
						c3.1,10.1,7.6,18.7,13.5,25.8c5.9,7.1,13.2,12.6,21.7,16.5s18.4,5.8,29.6,5.8c11.7,0,22.3-2.6,31.8-7.8
						c9.1-4.8,19.2-15,30.4-30.6l4.3,2.7c-9.4,16.5-20.2,28.5-32.5,36.2c-12.3,7.7-27,11.5-44.2,11.5c-13.2,0-25.3-2.3-36.3-6.9
						c-11-4.6-20.5-11.1-28.5-19.5c-8-8.4-14.2-18.3-18.7-29.8c-4.5-11.5-6.7-24.1-6.7-37.8c0-18.6,4.1-35.6,12.4-51
						c8.2-15.5,19.5-27.5,34.1-35.9c14.7-8.6,30.6-12.9,47.7-12.9c13.5,0,26.7,3.3,39.6,9.8c3.8,2,6.5,3.1,8.2,3.1
						c3,0,5.5-1.2,7.4-3.7c2-2.4,3.4-5.5,4.2-9.2H4770.4z"/>
					<path d="M4872.3,775.6l68.3,67.9c5.7,5.7,10.9,10.4,15.5,14.2c4.6,3.7,9,6.7,13.1,9c4.1,2.2,8.1,3.9,11.9,4.9
						c3.9,1,7.9,1.6,11.9,1.7v5.1h-88.1v-5.1c5.8,0,9.8-1,11.8-3.1s3.1-4.2,3.1-6.5c0-0.9-0.1-1.8-0.2-2.6c-0.1-0.7-0.5-1.6-1.1-2.5
						c-0.6-0.9-1.6-2.2-3-3.7c-1.4-1.5-3.2-3.4-5.5-5.7l-64.1-63.4v59.8c0,4.4,0.1,7.9,0.3,10.6c0.2,2.7,0.5,5,1,6.7
						c0.5,1.8,1.2,3.2,2.2,4.2c1,1,2.3,2,4,3c3.9,2.2,8.1,3.3,12.4,3.3h6.3v5.1h-79v-5.1h6.5c7.6,0,13.2-2.2,16.7-6.7
						c2.2-3,3.3-10,3.3-21V725.8c0-4.1-0.1-7.5-0.2-10.3c-0.1-2.8-0.5-5.1-1-6.8c-0.5-1.8-1.3-3.2-2.2-4.4c-1-1.2-2.2-2.1-3.9-3
						c-4.4-2.2-8.6-3.3-12.6-3.3h-6.5V693h79v5.1h-6.3c-3.4,0-7,0.7-10.7,2.2c-3.7,1.5-6.3,4-7.7,7.6c-1.1,3-1.6,9-1.6,18v56.7
						c0.1-0.1,1.1-1,2.8-2.5c1.7-1.6,3.6-3.3,5.7-5.2c2.1-1.9,4.1-3.8,6.1-5.7c2-1.9,3.4-3.2,4.2-3.9c9.9-9.1,18.3-16.9,25.1-23.5
						c6.8-6.5,12.2-12.1,16.3-16.6c4.1-4.6,7-8.4,8.8-11.4c1.8-3.1,2.7-5.6,2.7-7.7c0-2.2-1-4-2.9-5.6c-1.9-1.6-5.2-2.3-9.8-2.3
						h-4.3V693h68.1v5.1c-2.4,0.1-4.9,0.4-7.4,0.7c-2.5,0.3-5.3,1.2-8.4,2.5c-3.1,1.4-6.6,3.5-10.5,6.3c-3.9,2.9-8.6,6.8-14.1,11.8
						c-1.1,1-3.9,3.8-8.4,8.5c-4.5,4.7-10.9,11.2-19.4,19.5L4872.3,775.6z"/>
				</g>
				<g>
					<path d="M3553.2,986.3c11.8,0,23,2.4,33.7,7.3c10.7,4.9,20.1,11.6,28.2,20.1c8.1,8.5,14.6,18.6,19.4,30.1
						c4.8,11.6,7.2,24.1,7.2,37.7c0,13.9-2.4,26.9-7.2,38.8c-4.8,11.9-11.3,22.2-19.5,31c-8.2,8.7-17.8,15.6-28.8,20.5
						c-11,4.9-22.8,7.4-35.2,7.4c-12.6,0-24.4-2.4-35.3-7.1c-11-4.7-20.5-11.4-28.5-20c-8.1-8.6-14.4-18.8-19.1-30.8
						c-4.7-11.9-7-25-7-39.4c0-13.3,2.3-25.7,7-37.3c4.7-11.6,11.1-21.8,19.3-30.3c8.2-8.6,17.9-15.4,29.1-20.4
						C3527.7,988.8,3539.9,986.3,3553.2,986.3z M3550.6,996.2c-9.3,0-17.6,2-24.9,6c-7.2,4-13.3,9.7-18.3,17.1
						c-4.9,7.4-8.7,16.3-11.3,26.8c-2.6,10.5-3.9,22.3-3.9,35.4c0,13,1.3,24.9,3.8,35.6c2.5,10.8,6.2,20,11.2,27.8
						c4.9,7.8,11.1,13.8,18.4,18.1c7.3,4.3,15.7,6.4,25.2,6.4c8.5,0,16.4-1.6,23.6-4.9c7.2-3.2,13.6-8.3,19-15.1
						c5.4-6.8,9.6-15.6,12.7-26.2c3-10.6,4.6-23.3,4.6-38.1c0-13.9-1.3-26.4-3.8-37.5c-2.5-11-6.3-20.4-11.4-28
						c-5.1-7.6-11.4-13.5-18.9-17.5C3569.1,998.2,3560.4,996.2,3550.6,996.2z"/>
					<path d="M3709.5,1000.5v72.5h33.5c3.9,0,7.3-0.4,10-1.1c2.8-0.7,5.1-2.1,7-4c1.9-1.9,3.4-4.5,4.5-7.7c1.1-3.2,2-7.4,2.6-12.4
						h5.1v62.3h-5.1c-0.1-4.6-0.6-8.5-1.4-11.8c-0.8-3.2-2.1-5.9-4-8c-1.8-2.1-4.3-3.6-7.3-4.6c-3-0.9-6.9-1.4-11.5-1.4h-33.5v57.9
						c0,4.3,0.1,7.8,0.2,10.6c0.1,2.7,0.5,4.9,1,6.7c0.5,1.8,1.3,3.1,2.3,4.2c1,1,2.3,2,4,2.9c3.8,2.2,7.9,3.2,12.4,3.2h6.7v5.1
						h-79.2v-5.1h6.5c3.2,0,6.1-0.2,8.6-0.7c2.5-0.5,4.6-1.6,6.2-3.5c1.6-1.8,2.9-4.6,3.8-8.3c0.9-3.7,1.3-8.8,1.3-15.1V1023
						c0-4.2-0.1-7.7-0.3-10.5c-0.2-2.8-0.5-5-1-6.8c-0.5-1.8-1.2-3.2-2.1-4.3c-0.9-1.1-2.2-2-3.9-2.8c-2-1.1-4.1-1.9-6.1-2.4
						c-2-0.5-4.2-0.8-6.5-0.8h-6.5v-5.1h137.2v40.6h-3c-1.8-6.6-3.8-11.9-6-15.9c-2.2-4-4.9-7.1-8.1-9.2c-3.2-2.2-6.9-3.6-11.3-4.3
						c-4.3-0.7-9.5-1-15.6-1H3709.5z"/>
					<path d="M3930.4,1081.9c-7.3-6.1-13.2-11.4-17.8-16c-4.5-4.6-8.1-8.8-10.6-12.7c-2.5-3.9-4.2-7.6-5-11.2
						c-0.8-3.6-1.2-7.4-1.2-11.5c0-5.8,1.2-11.4,3.7-16.7c2.4-5.3,5.9-10,10.4-14c4.5-4,9.8-7.2,16-9.5c6.2-2.4,13.1-3.6,20.7-3.6
						c7.3,0,14,1.1,20.1,3.4c6.1,2.2,11.3,5.2,15.7,8.8c4.4,3.7,7.8,7.9,10.1,12.7c2.4,4.8,3.6,9.7,3.6,14.7c0,3.7-0.5,7.2-1.5,10.7
						c-1,3.5-2.9,7-5.8,10.7c-2.8,3.7-6.7,7.5-11.7,11.7c-4.9,4.1-11.3,8.6-19,13.5c8,6.2,14.6,11.7,19.9,16.5
						c5.3,4.8,9.2,9,11.8,12.5c6.9,9.3,10.4,19.1,10.4,29.2c0,6.4-1.3,12.4-3.9,18.2c-2.6,5.8-6.2,10.8-11,15
						c-4.7,4.3-10.4,7.6-17.1,10.1c-6.6,2.5-13.9,3.8-21.9,3.8c-7.7,0-14.8-1.2-21.2-3.7c-6.4-2.4-12-5.8-16.6-9.9
						c-4.7-4.2-8.3-9-10.9-14.4c-2.6-5.4-3.9-11.2-3.9-17.3c0-8.3,2.8-16.4,8.3-24.5C3907.7,1100.3,3917.1,1091.5,3930.4,1081.9z
						 M3936.9,1087.2c-7.7,6.4-13.3,13.3-16.8,20.7c-3.5,7.4-5.3,15.6-5.3,24.4c0,5.8,0.8,11.1,2.5,15.8c1.7,4.7,4,8.8,7,12.2
						c3,3.4,6.5,6,10.7,7.8c4.1,1.8,8.7,2.7,13.7,2.7c4.9,0,9.3-0.7,13.3-2.2c4-1.5,7.4-3.5,10.3-6.1c2.8-2.6,5-5.6,6.6-9
						c1.6-3.5,2.3-7.1,2.3-11.1c0-4.2-0.8-8.3-2.5-12.2c-1.7-3.9-4.3-8-7.8-12.3c-3.5-4.3-8.1-8.9-13.7-13.9
						C3951.4,1099,3944.7,1093.4,3936.9,1087.2z M3951.7,1067.5c5.7-5.1,10.2-9.5,13.5-13.2c3.3-3.7,5.9-7,7.6-10.2
						c1.8-3.1,2.9-6.2,3.3-9.1c0.5-3,0.7-6.3,0.7-9.9c0-9.6-2.7-17.1-8-22.4c-5.3-5.3-12.7-8-22-8c-4.6,0-8.8,0.7-12.6,2.1
						c-3.8,1.4-7.1,3.3-9.8,5.8c-2.8,2.4-4.9,5.3-6.5,8.5c-1.6,3.2-2.3,6.7-2.3,10.4c0,4.7,1.2,9.4,3.7,14.1
						c2.4,4.7,5.9,9.2,10.4,13.5L3951.7,1067.5z"/>
					<path d="M4199.7,1174.9l-71.3-155.1V1143c0,6.4,0.4,11.3,1.3,14.9c0.9,3.6,2.2,6.3,3.9,8c1.7,1.8,3.8,2.8,6.2,3.2
						c2.4,0.4,5.2,0.6,8.3,0.6h6.5v5.1h-64.1v-5.1h6.5c3.2,0,6.1-0.2,8.5-0.7c2.4-0.5,4.5-1.6,6.1-3.5c1.6-1.8,2.8-4.5,3.7-8.1
						c0.8-3.6,1.2-8.4,1.2-14.5v-120.6c0-4.3-0.2-8.2-0.6-11.5c-0.4-3.3-1.5-6.1-3.1-8.4c-1.7-2.3-4.3-4.1-7.7-5.3
						c-3.5-1.2-8.3-1.8-14.5-1.8v-5.1h52.2l67,144.3l65.8-144.3h52.2v5.1h-6.3c-3.4,0-6.3,0.3-8.7,0.8c-2.4,0.5-4.5,1.7-6.1,3.6
						c-1.6,1.8-2.8,4.5-3.7,8.1c-0.8,3.6-1.2,8.4-1.2,14.5V1143c0,6.4,0.4,11.3,1.3,14.9c0.9,3.6,2.2,6.3,3.9,8
						c1.7,1.8,3.8,2.8,6.2,3.2c2.4,0.4,5.2,0.6,8.3,0.6h6.3v5.1h-78.4v-5.1h6.5c3.2,0,6.1-0.3,8.5-0.8c2.4-0.5,4.5-1.7,6.2-3.6
						c1.7-1.8,2.9-4.5,3.8-8c0.8-3.5,1.2-8.3,1.2-14.4v-123.2l-71,155.1H4199.7z"/>
					<path d="M4447.4,1174.9l-71.3-155.1V1143c0,6.4,0.4,11.3,1.3,14.9c0.9,3.6,2.2,6.3,3.9,8c1.7,1.8,3.8,2.8,6.2,3.2
						c2.4,0.4,5.2,0.6,8.3,0.6h6.5v5.1h-64.1v-5.1h6.5c3.2,0,6.1-0.2,8.5-0.7c2.4-0.5,4.5-1.6,6.1-3.5c1.6-1.8,2.8-4.5,3.7-8.1
						c0.8-3.6,1.2-8.4,1.2-14.5v-120.6c0-4.3-0.2-8.2-0.6-11.5c-0.4-3.3-1.5-6.1-3.1-8.4c-1.7-2.3-4.3-4.1-7.7-5.3
						c-3.5-1.2-8.3-1.8-14.5-1.8v-5.1h52.2l67,144.3l65.8-144.3h52.2v5.1h-6.3c-3.4,0-6.3,0.3-8.7,0.8c-2.4,0.5-4.5,1.7-6.1,3.6
						c-1.6,1.8-2.8,4.5-3.7,8.1c-0.8,3.6-1.2,8.4-1.2,14.5V1143c0,6.4,0.4,11.3,1.3,14.9c0.9,3.6,2.2,6.3,3.9,8
						c1.7,1.8,3.8,2.8,6.2,3.2c2.4,0.4,5.2,0.6,8.3,0.6h6.3v5.1h-78.4v-5.1h6.5c3.2,0,6.1-0.3,8.5-0.8c2.4-0.5,4.5-1.7,6.2-3.6
						c1.7-1.8,2.9-4.5,3.8-8c0.8-3.5,1.2-8.3,1.2-14.4v-123.2l-71,155.1H4447.4z"/>
				</g>
				<g>
					<path d="M3075.5,1357.4v52.6c0,11.6,1.3,18.7,3.8,21.3c3.5,3.9,8.6,5.8,15.3,5.8h7v5h-77.5v-5h6.8c7.6,0,13-2.5,16.3-7.4
						c1.9-2.9,2.8-9.5,2.8-19.7v-116.9c0-11.3-1.2-18.3-3.6-21.1c-3.6-4-8.8-6-15.5-6h-6.8v-5h66.3c15.9,0,28.7,1.7,38.2,5.2
						c4.6,1.6,9,3.8,13,6.7c4,2.9,7.6,6.2,10.6,10.2c3,3.9,5.3,8.2,7.1,12.9c1.7,4.7,2.6,9.8,2.6,15.2c0,7.3-1.3,14-3.8,20.1
						c-2.5,6.1-6.2,11.4-11,15.7c-4.8,4.4-10.6,7.8-17.5,10.3c-6.9,2.5-14.8,3.7-23.7,3.7C3097.4,1361,3087.2,1359.8,3075.5,1357.4z
						 M3075.5,1349.7c4.8,0.9,9,1.6,12.5,2.1c3.6,0.5,6.7,0.7,9.4,0.7c4.6,0,9-1,13.1-2.9c4.1-1.9,7.7-4.6,10.9-8
						c3.1-3.4,5.6-7.5,7.4-12.2c1.8-4.8,2.7-10,2.7-15.5c0-6.6-1-12.5-3-17.7c-2-5.2-4.7-9.6-8.2-13.1c-3.5-3.6-7.5-6.3-12.1-8.2
						c-4.6-1.9-9.7-2.8-15.1-2.8c-4.5,0-10.4,0.8-17.5,2.4V1349.7z"/>
					<path d="M3227.7,1345.1h84v-51.8c0-4.2-0.1-7.7-0.2-10.5c-0.1-2.7-0.5-4.9-1-6.7c-0.5-1.7-1.3-3.1-2.3-4.1c-1-1-2.3-2-3.9-2.9
						c-3.7-2.1-7.8-3.2-12.1-3.2h-6.4v-5h77.5v5h-6.4c-1.7,0-3.6,0.2-5.5,0.6c-1.9,0.4-3.7,1-5.4,1.8c-1.7,0.8-3.2,1.8-4.5,3
						c-1.3,1.2-2.3,2.6-2.8,4.2c-0.9,2.8-1.4,8.7-1.4,17.7V1410c0,4.2,0.1,7.7,0.3,10.4c0.2,2.7,0.5,4.8,1,6.6
						c0.5,1.7,1.2,3.1,2.1,4.1c0.9,1,2.2,2,3.8,2.9c3.7,2.1,7.8,3.2,12.3,3.2h6.4v5h-77.5v-5h6.4c3.1,0,5.8-0.2,8.2-0.7
						c2.4-0.5,4.4-1.6,6.2-3.4c1.7-1.8,3-4.5,3.9-8.2c0.9-3.7,1.3-8.6,1.3-14.8v-55.2h-84v55.2c0,4.2,0.1,7.7,0.2,10.4
						c0.1,2.7,0.5,4.8,1,6.6c0.5,1.7,1.3,3.1,2.3,4.1c1,1,2.3,2,3.9,2.9c3.7,2.1,7.8,3.2,12.1,3.2h6.6v5h-77.7v-5h6.6
						c7.3,0,12.7-2.2,16.1-6.6c2.1-2.7,3.2-9.5,3.2-20.5v-116.7c0-4.4-0.1-7.9-0.2-10.7c-0.1-2.7-0.5-4.9-1-6.6
						c-0.5-1.7-1.3-3-2.2-4c-0.9-1-2.2-2-3.8-2.9c-3.7-2.1-7.8-3.2-12.2-3.2h-6.6v-5h77.7v5h-6.6c-1.6,0-3.4,0.2-5.3,0.6
						c-1.9,0.4-3.7,1-5.4,1.8c-1.7,0.8-3.2,1.8-4.5,3c-1.3,1.2-2.3,2.6-2.8,4.2c-1.1,3.2-1.6,9.1-1.6,17.7V1345.1z"/>
					<path d="M3453.2,1437.1v5h-77.5v-5h6.4c3.2,0,6-0.2,8.5-0.7c2.5-0.5,4.5-1.6,6.1-3.4c1.6-1.8,2.8-4.5,3.7-8.2
						c0.9-3.7,1.3-8.6,1.3-14.8v-116.9c0-4.1-0.1-7.5-0.3-10.3c-0.2-2.7-0.5-4.9-1-6.7c-0.5-1.7-1.2-3.1-2.1-4.1
						c-0.9-1-2.2-2-3.8-2.9c-4-2.1-8.1-3.2-12.3-3.2h-6.4v-5h77.5v5h-6.4c-3.2,0-6,0.3-8.5,0.8c-2.5,0.5-4.5,1.7-6.1,3.5
						c-1.6,1.8-2.8,4.5-3.7,8.2c-0.9,3.7-1.3,8.5-1.3,14.6V1410c0,4.2,0.1,7.7,0.2,10.4c0.1,2.7,0.5,4.8,1,6.6
						c0.5,1.7,1.3,3.1,2.3,4.1c1,1,2.3,2,3.9,2.9c3.7,2.1,7.8,3.2,12.1,3.2H3453.2z"/>
					<path d="M3616.7,1392.1l4.4,0.8l-15.5,49.2h-140.2v-5h7c7.4,0,12.9-2.5,16.3-7.4c1.9-2.9,2.8-9.5,2.8-19.7v-116.9
						c0-11.2-1.3-18.2-3.8-21.1c-3.5-4-8.6-6-15.3-6h-7v-5h82.1v5c-4.9,0-9,0.2-12.2,0.7c-3.3,0.5-5.9,1.1-8.1,2
						c-2.1,0.9-3.8,1.9-5,3.1c-1.2,1.2-2.2,2.5-3,4c-1.3,2.7-2,9.5-2,20.5V1410c0,6.2,0.5,10.8,1.4,13.5c0.9,2.8,2.8,4.7,5.6,5.8
						c2.4,0.8,9.4,1.2,20.9,1.2h13.1c13.9,0,23.7-1,29.3-3c2.8-0.9,5.4-2.3,8-4c2.5-1.7,5-4,7.4-6.8c2.4-2.8,4.7-6.2,7-10.2
						C3612,1402.6,3614.3,1397.8,3616.7,1392.1z"/>
					<path d="M3783.6,1392.1l4.4,0.8l-15.5,49.2h-140.2v-5h7c7.4,0,12.9-2.5,16.3-7.4c1.9-2.9,2.8-9.5,2.8-19.7v-116.9
						c0-11.2-1.3-18.2-3.8-21.1c-3.5-4-8.6-6-15.3-6h-7v-5h82.1v5c-4.9,0-9,0.2-12.2,0.7c-3.3,0.5-5.9,1.1-8.1,2
						c-2.1,0.9-3.8,1.9-5,3.1c-1.2,1.2-2.2,2.5-3,4c-1.3,2.7-2,9.5-2,20.5V1410c0,6.2,0.5,10.8,1.4,13.5c0.9,2.8,2.8,4.7,5.6,5.8
						c2.4,0.8,9.4,1.2,20.9,1.2h13.1c13.9,0,23.7-1,29.3-3c2.8-0.9,5.4-2.3,8-4c2.5-1.7,5-4,7.4-6.8c2.4-2.8,4.7-6.2,7-10.2
						C3778.9,1402.6,3781.2,1397.8,3783.6,1392.1z"/>
					<path d="M3878,1437.1v5h-77.5v-5h6.4c3.2,0,6-0.2,8.5-0.7c2.5-0.5,4.5-1.6,6.1-3.4c1.6-1.8,2.8-4.5,3.7-8.2
						c0.9-3.7,1.3-8.6,1.3-14.8v-116.9c0-4.1-0.1-7.5-0.3-10.3c-0.2-2.7-0.5-4.9-1-6.7c-0.5-1.7-1.2-3.1-2.1-4.1
						c-0.9-1-2.2-2-3.8-2.9c-4-2.1-8.1-3.2-12.3-3.2h-6.4v-5h77.5v5h-6.4c-3.2,0-6,0.3-8.5,0.8c-2.5,0.5-4.5,1.7-6.1,3.5
						c-1.6,1.8-2.8,4.5-3.7,8.2c-0.9,3.7-1.3,8.5-1.3,14.6V1410c0,4.2,0.1,7.7,0.2,10.4c0.1,2.7,0.5,4.8,1,6.6
						c0.5,1.7,1.3,3.1,2.3,4.1c1,1,2.3,2,3.9,2.9c3.7,2.1,7.8,3.2,12.1,3.2H3878z"/>
					<path d="M3940.7,1357.4v52.6c0,11.6,1.3,18.7,3.8,21.3c3.5,3.9,8.6,5.8,15.3,5.8h7v5h-77.5v-5h6.8c7.6,0,13-2.5,16.3-7.4
						c1.9-2.9,2.8-9.5,2.8-19.7v-116.9c0-11.3-1.2-18.3-3.6-21.1c-3.6-4-8.8-6-15.5-6h-6.8v-5h66.3c15.9,0,28.7,1.7,38.2,5.2
						c4.6,1.6,9,3.8,13,6.7c4,2.9,7.6,6.2,10.6,10.2c3,3.9,5.3,8.2,7.1,12.9c1.7,4.7,2.6,9.8,2.6,15.2c0,7.3-1.3,14-3.8,20.1
						c-2.5,6.1-6.2,11.4-11,15.7c-4.8,4.4-10.6,7.8-17.5,10.3c-6.9,2.5-14.8,3.7-23.7,3.7C3962.6,1361,3952.4,1359.8,3940.7,1357.4z
						 M3940.7,1349.7c4.8,0.9,9,1.6,12.5,2.1c3.6,0.5,6.7,0.7,9.4,0.7c4.6,0,9-1,13.1-2.9c4.1-1.9,7.7-4.6,10.9-8
						c3.1-3.4,5.6-7.5,7.4-12.2c1.8-4.8,2.7-10,2.7-15.5c0-6.6-1-12.5-3-17.7c-2-5.2-4.7-9.6-8.2-13.1c-3.5-3.6-7.5-6.3-12.1-8.2
						c-4.6-1.9-9.7-2.8-15.1-2.8c-4.5,0-10.4,0.8-17.5,2.4V1349.7z"/>
					<path d="M4162,1257.1v62.5h-5c-2.3-16.9-7.8-29.7-16.5-38.6s-19.9-13.3-33.5-13.3c-4.6,0-8.9,0.8-12.7,2.4
						c-3.9,1.6-7.2,3.7-10.2,6.3c-2.9,2.6-5.2,5.5-6.8,8.9c-1.6,3.3-2.4,6.8-2.4,10.4c0,3.3,0.7,6.5,2,9.5c1.3,3,5.4,7.7,12.3,14
						c11.6,7.3,21.8,13.3,30.9,18.1c8.5,4.6,20,11.7,34.5,21.1c6.2,4.8,11,10.5,14.3,17c3.3,6.6,5,13.4,5,20.6
						c0,6.8-1.4,13.2-4.2,19.3c-2.8,6.1-6.7,11.5-11.7,16c-5,4.6-11,8.2-18,11c-7,2.7-14.7,4.1-23.1,4.1c-5.3,0-10.2-0.4-14.7-1.2
						c-0.8-0.1-2.9-0.7-6.3-1.7s-7-2-10.9-3.1c-3.9-1.1-7.4-2.1-10.8-3c-3.3-0.9-5.2-1.4-5.8-1.4c-2.3,0-4,0.7-5.3,2
						c-1.3,1.3-2.2,4.1-2.9,8.4h-5v-62.1h5c2.4,12.7,5.5,22.5,9.4,29.3c1.9,3.2,4.3,6.1,7.5,8.9c3.1,2.7,6.6,5.1,10.6,7.2
						c3.9,2.1,8.1,3.7,12.6,4.8c4.5,1.1,9.1,1.7,13.7,1.7c5.6,0,10.6-0.8,15-2.4c4.4-1.6,8.2-3.8,11.4-6.5c3.1-2.7,5.5-5.9,7.2-9.5
						c1.7-3.6,2.5-7.4,2.5-11.4c0-4.5-1.2-9-3.7-13.5c-2.5-4.5-6.6-9-12.4-13.3c-5.7-3.5-12.5-7.5-20.3-12.1
						c-15-8.6-28.3-16.9-40-24.9c-6.5-5.2-11.5-10.9-14.8-17c-3.4-6.2-5.1-13-5.1-20.6c0-6.4,1.3-12.4,4-18.2
						c2.7-5.8,6.3-10.9,11.1-15.2c4.7-4.4,10.3-7.8,16.8-10.4c6.5-2.5,13.5-3.8,21.1-3.8c9.6,0,19.7,2.3,30.5,7
						c2.5,1.1,4.6,1.9,6.4,2.6c1.7,0.7,3.1,0.9,4.2,0.8c2.4,0,4.3-0.7,5.8-2c1.5-1.3,2.6-4.1,3.4-8.4H4162z"/>
				</g>
				<g>
					<path d="M4324.8,1348.9h84v-51.8c0-4.2-0.1-7.7-0.2-10.5c-0.1-2.7-0.5-4.9-1-6.7c-0.5-1.7-1.3-3.1-2.3-4.1c-1-1-2.3-2-3.9-2.9
						c-3.7-2.1-7.8-3.2-12.1-3.2h-6.4v-5h77.5v5h-6.4c-1.7,0-3.6,0.2-5.5,0.6c-1.9,0.4-3.7,1-5.4,1.8c-1.7,0.8-3.2,1.8-4.5,3
						c-1.3,1.2-2.3,2.6-2.8,4.2c-0.9,2.8-1.4,8.7-1.4,17.7v116.7c0,4.2,0.1,7.7,0.3,10.4c0.2,2.7,0.5,4.8,1,6.6
						c0.5,1.7,1.2,3.1,2.1,4.1c0.9,1,2.2,2,3.8,2.9c3.7,2.1,7.8,3.2,12.3,3.2h6.4v5h-77.5v-5h6.4c3.1,0,5.8-0.2,8.2-0.7
						c2.4-0.5,4.4-1.6,6.2-3.4c1.7-1.8,3-4.5,3.9-8.2c0.9-3.7,1.3-8.6,1.3-14.8v-55.2h-84v55.2c0,4.2,0.1,7.7,0.2,10.4
						c0.1,2.7,0.5,4.8,1,6.6c0.5,1.7,1.3,3.1,2.3,4.1c1,1,2.3,2,3.9,2.9c3.7,2.1,7.8,3.2,12.1,3.2h6.6v5h-77.7v-5h6.6
						c7.3,0,12.7-2.2,16.1-6.6c2.1-2.7,3.2-9.5,3.2-20.5v-116.7c0-4.4-0.1-7.9-0.2-10.7c-0.1-2.7-0.5-4.9-1-6.6
						c-0.5-1.7-1.3-3-2.2-4c-0.9-1-2.2-2-3.8-2.9c-3.7-2.1-7.8-3.2-12.2-3.2h-6.6v-5h77.7v5h-6.6c-1.6,0-3.4,0.2-5.3,0.6
						c-1.9,0.4-3.7,1-5.4,1.8c-1.7,0.8-3.2,1.8-4.5,3c-1.3,1.2-2.3,2.6-2.8,4.2c-1.1,3.2-1.6,9.1-1.6,17.7V1348.9z"/>
					<path d="M4523.2,1274.8v71.5h39.6c5.8,0,10.6-0.5,14.1-1.6c3.6-1.1,6.4-2.7,8.5-4.8c2.1-2.1,3.5-4.8,4.3-8.2
						c0.8-3.3,1.3-7.2,1.6-11.8h5v62.9h-5c-0.7-5.2-1.4-9.5-2.3-12.9c-0.9-3.5-2.3-6.2-4.2-8.3c-1.9-2.1-4.6-3.5-8.1-4.4
						c-3.5-0.9-8.1-1.3-13.9-1.3h-39.6v59.7c0,4.5,0.1,8.1,0.2,10.8c0.1,2.7,0.7,4.7,1.6,6.1c0.9,1.4,2.4,2.3,4.4,2.7
						c2,0.4,4.9,0.6,8.8,0.6h30.7c5.2,0,9.6-0.1,13.1-0.4c3.6-0.3,6.7-0.8,9.3-1.6c2.6-0.8,4.9-1.9,6.9-3.3c2-1.4,4.1-3.2,6.4-5.3
						c5.3-5.2,11-13.5,16.9-24.9h5.4l-15.7,45.4h-139.4v-5h6.4c1.7,0,3.5-0.2,5.4-0.6c1.9-0.4,3.6-1,5.3-1.7
						c1.7-0.7,3.2-1.7,4.5-2.9c1.3-1.2,2.3-2.6,2.8-4.2c1.1-2.9,1.6-8.8,1.6-17.5v-117.5c0-11.6-1.1-18.7-3.4-21.3
						c-3.2-3.6-8.6-5.4-16.1-5.4h-6.4v-5H4611v39.6h-3.2c-1.3-6.5-2.8-11.7-4.3-15.6c-1.5-3.9-3.6-6.9-6.1-9.1
						c-2.5-2.1-5.7-3.5-9.7-4.1c-3.9-0.6-8.9-0.9-15-0.9H4523.2z"/>
					<path d="M4758,1385.3h-70.1l-12.3,28.5c-2.9,7-4.4,12.3-4.4,15.7c0,1.5,0.2,2.8,0.7,4c0.5,1.2,1.5,2.3,3,3.3
						c1.5,1,3.7,1.9,6.4,2.6c2.7,0.7,6.3,1.2,10.9,1.5v5h-57v-5c4.5-0.7,8.2-1.7,11-3c2.8-1.3,5.2-3.2,7.2-5.5
						c2-2.3,3.8-5.3,5.5-9.1c1.7-3.7,3.7-8.3,6.1-13.7l63.7-148.8h4.6l62.9,150.4c2.5,6.2,4.9,11.3,7.1,15c2.2,3.8,4.4,6.7,6.8,8.9
						c2.3,2.1,4.8,3.6,7.6,4.4c2.7,0.8,6,1.3,9.9,1.4v5h-71.5v-5c7.2-0.3,12.1-1.4,14.6-3.5c2.6-2.1,3.9-4.5,3.9-7.5
						c-0.1-3.9-1.9-10.1-5.4-18.7L4758,1385.3z M4754.2,1375.4l-30.7-73.1l-31.5,73.1H4754.2z"/>
					<path d="M4834.9,1445.9v-5h7c3.1,0,5.8-0.3,8.2-0.8c2.4-0.5,4.4-1.7,6-3.6c1.6-1.9,2.8-4.6,3.7-8.2c0.9-3.6,1.3-8.4,1.3-14.5
						v-116.9c0-11.2-1.3-18.2-3.8-21.1c-3.5-4-8.6-6-15.3-6h-7v-5h73.7c26.8,0,47.4,3.1,61.7,9.4c14.2,6.2,25.6,16.5,34.1,30.7
						c8.6,14.5,12.9,31,12.9,49.6c0,13.4-2.2,25.7-6.5,36.8c-4.3,11.2-10.8,20.8-19.3,28.9c-8.6,8.1-19.2,14.4-31.8,18.9
						c-12.6,4.5-27.3,6.8-44,6.8H4834.9z M4886.6,1432.7c11,2.5,20.4,3.8,28.3,3.8c10.2,0,19.7-1.9,28.5-5.7
						c8.8-3.8,16.4-9.2,22.8-16.1c6.4-7,11.5-15.4,15.1-25.4c3.6-10,5.5-21.1,5.5-33.5c0-12.5-1.8-23.7-5.4-33.8
						c-3.6-10-8.6-18.5-15.1-25.5c-6.5-7-14.2-12.3-23.1-16c-8.9-3.7-18.7-5.6-29.3-5.6c-7.8,0-16.9,1.3-27.3,4V1432.7z"/>
				</g>
				<g>
					<path d="M3867,1542.1v5c-3.6,0-6.5,0.3-8.9,1c-2.3,0.7-4.5,2.2-6.5,4.5c-2,2.3-4,5.8-6,10.4c-2,4.6-4.3,10.7-7,18.4l-50.4,146
						h-5.4l-41.2-115.7l-40.8,115.7h-5l-53.8-150.4c-2-5.6-3.6-10-4.8-13.2c-1.2-3.3-2.1-5.4-2.8-6.5c-1.9-3.5-4.3-6-7.3-7.7
						c-3-1.7-7.1-2.5-12.4-2.5v-5h66.9v5h-3.2c-4.6,0-8.2,1.1-10.8,3.2c-2.5,2.1-3.8,4.7-3.8,7.8c0,3.2,2,10.4,6,21.5l35.7,101.6
						l29.9-86.4l-9.6-27.3c-1.5-3.3-2.9-6.2-4.4-8.8c-1.5-2.5-3.1-4.6-5-6.4c-1.9-1.7-4.1-3-6.6-3.9c-2.5-0.9-5.6-1.3-9.2-1.3v-5
						h70.3v5h-4.8c-5,0-8.7,1.1-11,3.2c-2.3,2.1-3.4,5-3.4,8.8c0,4.5,2,12.4,6,23.7l34.7,98.4l34.5-99.8c1.9-5.6,3.3-10.2,4.4-13.9
						c1.1-3.7,1.6-6.7,1.6-9c0-4.2-1.9-7.2-5.6-8.9c-3.7-1.7-8.6-2.5-14.5-2.5v-5H3867z"/>
					<path d="M3969.1,1538.1c11.6,0,22.6,2.4,33.1,7.2c10.5,4.8,19.7,11.4,27.7,19.7c8,8.4,14.3,18.2,19,29.6
						c4.7,11.4,7.1,23.7,7.1,36.9c0,13.7-2.4,26.4-7.1,38c-4.7,11.7-11.1,21.8-19.1,30.4c-8,8.6-17.5,15.3-28.3,20.1
						c-10.8,4.8-22.3,7.3-34.6,7.3c-12.3,0-23.9-2.3-34.7-7c-10.8-4.6-20.1-11.2-28-19.6c-7.9-8.4-14.1-18.5-18.7-30.2
						c-4.6-11.7-6.9-24.6-6.9-38.6c0-13,2.3-25.2,6.9-36.6c4.6-11.4,10.9-21.3,18.9-29.8c8-8.4,17.6-15.1,28.6-20
						C3944.1,1540.5,3956.1,1538.1,3969.1,1538.1z M3966.5,1547.8c-9.2,0-17.3,2-24.4,5.9c-7.1,3.9-13.1,9.5-17.9,16.7
						c-4.8,7.2-8.5,16-11.1,26.3c-2.5,10.3-3.8,21.9-3.8,34.8c0,12.7,1.2,24.4,3.7,35c2.5,10.6,6.1,19.7,11,27.3
						c4.8,7.6,10.9,13.5,18,17.7c7.2,4.2,15.4,6.3,24.7,6.3c8.4,0,16.1-1.6,23.2-4.8c7.1-3.2,13.3-8.1,18.6-14.8
						c5.3-6.7,9.5-15.3,12.4-25.7c3-10.4,4.5-22.9,4.5-37.3c0-13.7-1.2-25.9-3.7-36.7c-2.5-10.8-6.2-20-11.2-27.5
						c-5-7.5-11.2-13.2-18.5-17.1C3984.8,1549.8,3976.2,1547.8,3966.5,1547.8z"/>
					<path d="M4166.5,1538.1c11.6,0,22.6,2.4,33.1,7.2c10.5,4.8,19.7,11.4,27.7,19.7c8,8.4,14.3,18.2,19,29.6
						c4.7,11.4,7.1,23.7,7.1,36.9c0,13.7-2.4,26.4-7.1,38c-4.7,11.7-11.1,21.8-19.1,30.4c-8,8.6-17.5,15.3-28.3,20.1
						c-10.8,4.8-22.3,7.3-34.6,7.3c-12.3,0-23.9-2.3-34.7-7c-10.8-4.6-20.1-11.2-28-19.6c-7.9-8.4-14.1-18.5-18.7-30.2
						c-4.6-11.7-6.9-24.6-6.9-38.6c0-13,2.3-25.2,6.9-36.6c4.6-11.4,10.9-21.3,18.9-29.8c8-8.4,17.6-15.1,28.6-20
						C4141.5,1540.5,4153.5,1538.1,4166.5,1538.1z M4163.9,1547.8c-9.2,0-17.3,2-24.4,5.9c-7.1,3.9-13.1,9.5-17.9,16.7
						c-4.8,7.2-8.5,16-11.1,26.3c-2.5,10.3-3.8,21.9-3.8,34.8c0,12.7,1.2,24.4,3.7,35c2.5,10.6,6.1,19.7,11,27.3
						c4.8,7.6,10.9,13.5,18,17.7c7.2,4.2,15.4,6.3,24.7,6.3c8.4,0,16.1-1.6,23.2-4.8c7.1-3.2,13.3-8.1,18.6-14.8
						c5.3-6.7,9.5-15.3,12.4-25.7c3-10.4,4.5-22.9,4.5-37.3c0-13.7-1.2-25.9-3.7-36.7c-2.5-10.8-6.2-20-11.2-27.5
						c-5-7.5-11.2-13.2-18.5-17.1C4182.1,1549.8,4173.6,1547.8,4163.9,1547.8z"/>
					<path d="M4268.5,1723.1v-5h7c3.1,0,5.8-0.3,8.2-0.8c2.4-0.5,4.4-1.7,6-3.6c1.6-1.9,2.8-4.6,3.7-8.2c0.9-3.6,1.3-8.4,1.3-14.5
						v-116.9c0-11.2-1.3-18.2-3.8-21.1c-3.5-4-8.6-6-15.3-6h-7v-5h73.7c26.8,0,47.4,3.1,61.7,9.4c14.2,6.2,25.6,16.5,34.1,30.7
						c8.6,14.5,12.9,31,12.9,49.6c0,13.4-2.2,25.7-6.5,36.8c-4.3,11.2-10.8,20.8-19.3,28.9c-8.6,8.1-19.2,14.4-31.8,18.9
						c-12.6,4.5-27.3,6.8-44,6.8H4268.5z M4320.3,1710c11,2.5,20.4,3.8,28.3,3.8c10.2,0,19.7-1.9,28.5-5.7
						c8.8-3.8,16.4-9.2,22.8-16.1c6.4-7,11.5-15.4,15.1-25.4c3.6-10,5.5-21.1,5.5-33.5c0-12.5-1.8-23.7-5.4-33.8
						c-3.6-10-8.6-18.5-15.1-25.5c-6.5-7-14.2-12.3-23.1-16c-8.9-3.7-18.7-5.6-29.3-5.6c-7.8,0-16.9,1.3-27.3,4V1710z"/>
				</g>
				<g>
					<path d="M3369.3,1826.9l-10.6,22.7h-54.4l-12,24.3c10.8,1.6,20.7,4.4,29.8,8.5c9.1,4.1,16.9,9.1,23.4,15
						c6.5,6,11.6,12.8,15.2,20.6c3.7,7.8,5.5,16.1,5.5,25c0,11-2.3,20.7-7,29.2c-4.6,8.4-10.5,15.5-17.6,21.3
						c-7.1,5.8-14.8,10.2-23.2,13.1c-8.4,3-16.3,4.5-23.7,4.5c-5.6,0-10.3-0.5-14.2-1.5c-3.9-1-7.1-2.4-9.6-4.1
						c-2.5-1.7-4.3-3.6-5.5-5.7c-1.2-2.1-1.8-4.2-1.8-6.5c0-2.5,1-4.7,3-6.7c2-1.9,4.6-2.9,7.8-2.9c1.2,0,2.3,0.1,3.2,0.2
						c0.9,0.1,1.9,0.4,2.9,0.9c1,0.5,2.2,1.1,3.6,2c1.4,0.9,3.2,2,5.3,3.5c3.3,2.4,6.7,4.2,10.1,5.3c3.4,1.1,6.8,1.7,10.3,1.7
						c5.2,0,10.1-1.1,14.8-3.2c4.7-2.1,8.9-5,12.4-8.7c3.6-3.6,6.5-7.9,8.7-12.8c2.2-4.9,3.3-10.2,3.3-15.9c0-5.4-0.9-10.8-2.8-15.9
						c-1.9-5.2-4.5-10.1-8-14.6c-3.5-4.6-7.6-8.7-12.4-12.4c-4.8-3.7-10.3-6.9-16.4-9.6c-4.9-2.1-10.7-3.7-17.2-4.7
						c-6.6-1-14-1.7-22.4-2.1l34.7-70.5H3369.3z"/>
					<path d="M3620,1823l4.2,61.5h-4.2c-5.6-18.5-13.4-31.7-23.6-39.8c-10.2-8.1-22.4-12.2-36.7-12.2c-9.3,0-17.9,1.8-25.7,5.3
						c-7.8,3.5-14.6,8.9-20.2,16.2c-5.6,7.3-10.1,16.5-13.2,27.5c-3.2,11-4.8,24-4.8,39c0,12.1,1.5,23,4.5,32.9
						c3,9.8,7.4,18.2,13.1,25.2c5.8,7,12.8,12.3,21.2,16.1c8.4,3.8,18,5.7,28.9,5.7c11.4,0,21.8-2.5,31.1-7.6
						c8.9-4.6,18.8-14.6,29.7-29.9l4.2,2.6c-9.2,16.1-19.8,27.9-31.8,35.4c-12,7.5-26.4,11.3-43.1,11.3c-12.9,0-24.7-2.3-35.4-6.8
						c-10.8-4.5-20-10.9-27.8-19c-7.8-8.2-13.8-17.9-18.2-29.1c-4.4-11.2-6.6-23.5-6.6-36.9c0-18.2,4-34.8,12.1-49.8
						c8-15.1,19.1-26.8,33.3-35.1c14.3-8.4,29.9-12.5,46.6-12.5c13.1,0,26,3.2,38.6,9.6c3.7,2,6.4,3,8,3c2.9,0,5.3-1.2,7.3-3.6
						c1.9-2.4,3.3-5.4,4.1-9H3620z"/>
					<path d="M3749.5,2008l-69.9-152.2v120.9c0,6.2,0.4,11.1,1.3,14.6c0.9,3.5,2.1,6.1,3.8,7.9c1.7,1.7,3.7,2.8,6.1,3.2
						c2.4,0.4,5.1,0.6,8.2,0.6h6.4v5h-62.9v-5h6.4c3.2,0,6-0.2,8.4-0.7c2.4-0.5,4.4-1.6,6-3.4s2.8-4.4,3.6-8
						c0.8-3.5,1.2-8.3,1.2-14.2v-118.3c0-4.2-0.2-8-0.6-11.3c-0.4-3.3-1.4-6-3.1-8.3c-1.7-2.3-4.2-4-7.6-5.2
						c-3.4-1.2-8.1-1.8-14.2-1.8v-5h51.2l65.7,141.6l64.5-141.6h51.2v5h-6.2c-3.3,0-6.2,0.3-8.6,0.8c-2.4,0.5-4.4,1.7-6,3.5
						c-1.6,1.8-2.8,4.4-3.6,8c-0.8,3.5-1.2,8.3-1.2,14.2v118.3c0,6.2,0.4,11.1,1.3,14.6c0.9,3.5,2.1,6.1,3.8,7.9
						c1.7,1.7,3.7,2.8,6.1,3.2c2.4,0.4,5.1,0.6,8.2,0.6h6.2v5h-76.9v-5h6.4c3.2,0,6-0.3,8.4-0.8c2.4-0.5,4.4-1.7,6.1-3.5
						c1.7-1.8,2.9-4.4,3.7-7.9c0.8-3.5,1.2-8.2,1.2-14.1v-120.9l-69.7,152.2H3749.5z"/>
					<path d="M4105.8,1958l4.4,0.8l-15.5,49.2h-140.2v-5h7c7.4,0,12.9-2.5,16.3-7.4c1.9-2.9,2.8-9.5,2.8-19.7V1859
						c0-11.2-1.3-18.2-3.8-21.1c-3.5-4-8.6-6-15.3-6h-7v-5h82.1v5c-4.9,0-9,0.2-12.2,0.7c-3.3,0.5-5.9,1.1-8.1,2
						c-2.1,0.9-3.8,1.9-5,3.1c-1.2,1.2-2.2,2.5-3,4c-1.3,2.7-2,9.5-2,20.5v113.7c0,6.2,0.5,10.8,1.4,13.5c0.9,2.8,2.8,4.7,5.6,5.8
						c2.4,0.8,9.4,1.2,20.9,1.2h13.1c13.9,0,23.7-1,29.3-3c2.8-0.9,5.4-2.3,8-4c2.5-1.7,5-4,7.4-6.8c2.4-2.8,4.7-6.2,7-10.2
						C4101.1,1968.5,4103.4,1963.7,4105.8,1958z"/>
					<path d="M4215.9,1823c11.6,0,22.6,2.4,33.1,7.2c10.5,4.8,19.7,11.4,27.7,19.7c8,8.4,14.3,18.2,19,29.6
						c4.7,11.4,7.1,23.7,7.1,36.9c0,13.7-2.4,26.4-7.1,38c-4.7,11.7-11.1,21.8-19.1,30.4c-8,8.6-17.5,15.3-28.3,20.1
						s-22.3,7.3-34.6,7.3c-12.3,0-23.9-2.3-34.7-7c-10.8-4.6-20.1-11.2-28-19.6c-7.9-8.4-14.1-18.5-18.7-30.2
						c-4.6-11.7-6.9-24.6-6.9-38.6c0-13,2.3-25.2,6.9-36.6c4.6-11.4,10.9-21.3,18.9-29.8c8-8.4,17.6-15.1,28.6-20
						C4190.9,1825.4,4202.9,1823,4215.9,1823z M4213.3,1832.7c-9.2,0-17.3,2-24.4,5.9c-7.1,3.9-13.1,9.5-17.9,16.7
						c-4.9,7.2-8.5,16-11.1,26.3c-2.5,10.3-3.8,21.9-3.8,34.8c0,12.7,1.2,24.4,3.7,35c2.5,10.6,6.1,19.7,11,27.3
						c4.8,7.6,10.9,13.5,18,17.7c7.2,4.2,15.4,6.3,24.7,6.3c8.4,0,16.1-1.6,23.2-4.8c7.1-3.2,13.3-8.1,18.6-14.8
						c5.3-6.7,9.5-15.3,12.4-25.7c3-10.4,4.5-22.9,4.5-37.3c0-13.7-1.2-25.9-3.7-36.7c-2.5-10.8-6.2-20-11.2-27.5
						c-5-7.5-11.2-13.2-18.5-17.1C4231.6,1834.7,4223,1832.7,4213.3,1832.7z"/>
					<path d="M4309.7,1826.9h49l110.7,135.8v-104.4c0-6.1-0.4-11-1.3-14.5c-0.9-3.6-2.1-6.2-3.8-8c-1.7-1.7-3.7-2.8-6.1-3.3
						c-2.4-0.5-5.1-0.7-8.2-0.7h-6.4v-5h63.1v5h-6.6c-3.2,0-6,0.3-8.4,0.8c-2.4,0.5-4.4,1.7-6,3.6c-1.6,1.9-2.8,4.5-3.6,8
						c-0.8,3.5-1.2,8.2-1.2,14.1V2011h-4.8l-119.3-145.8v111.5c0,6.2,0.4,11.1,1.3,14.6c0.9,3.5,2.1,6.1,3.7,7.9
						c1.6,1.7,3.6,2.8,6,3.2c2.4,0.4,5.1,0.6,8.2,0.6h6.4v5h-62.9v-5h6.4c3.2,0,6-0.3,8.4-0.8c2.4-0.5,4.4-1.7,6.1-3.5
						c1.7-1.8,2.9-4.4,3.7-7.9c0.8-3.5,1.2-8.2,1.2-14.1v-125.9c-2.7-3.2-4.9-5.7-6.7-7.6c-1.8-1.9-3.5-3.4-5.1-4.6
						c-1.6-1.2-3.3-2.2-5.2-3c-1.9-0.8-4.2-1.7-7-2.6c-2.7-0.8-6.6-1.2-11.8-1.2V1826.9z"/>
					<path d="M4678.4,1823l4.8,57h-4.8c-5.4-16.7-13.2-28.8-23.2-36.3c-10-7.5-22.2-11.3-36.5-11.3c-10.6,0-20.1,2.1-28.5,6.3
						c-8.4,4.2-15.5,10-21.3,17.3c-5.8,7.4-10.3,16.1-13.3,26.1c-3.1,10-4.6,20.9-4.6,32.6c0,17.1,3.4,32.9,10.2,47.2
						c3.3,7.2,7.2,13.3,11.7,18.5c4.4,5.2,9.3,9.5,14.4,12.8c5.2,3.4,10.6,5.9,16.2,7.5s11.3,2.4,17,2.4c13.3,0,25.8-3.3,37.4-10
						v-52.4c0-4.5-0.2-8.2-0.5-11.1c-0.3-2.9-0.9-5.1-1.6-6.8c-0.7-1.7-1.6-2.9-2.7-3.8c-1.1-0.9-2.3-1.7-3.8-2.5
						c-2.9-1.5-8-2.2-15.1-2.2v-5.2h70.1v5.2h-3.4c-3.1,0-5.6,0.3-7.8,1c-2.1,0.7-3.9,1.9-5.3,3.8c-1.4,1.9-2.4,4.5-3,8
						c-0.6,3.5-0.9,8-0.9,13.5v55.4c-5.2,2.8-10.3,5.2-15.2,7.3c-5,2.1-10,3.7-15,4.9c-10.4,2.7-21.4,4-33.3,4
						c-15.1,0-28.8-2.3-41.1-7c-12.3-4.6-22.8-11.1-31.6-19.3s-15.5-17.9-20.3-29.1c-4.8-11.2-7.2-23.3-7.2-36.4
						c0-15.8,3.8-31.1,11.6-45.8c8.9-17.3,21.3-30.6,37.2-40c13.3-7.7,28.9-11.6,47-11.6c3.6,0,6.8,0.1,9.6,0.3
						c2.8,0.2,5.7,0.6,8.7,1.2c3,0.6,6.2,1.5,9.8,2.6c3.5,1.1,7.8,2.6,12.8,4.5c5,2,8.4,2.9,10.2,2.8c1.6,0,3-0.8,4.2-2.3
						c1.2-1.5,1.9-4.5,2.2-9.1H4678.4z"/>
				</g>
			</g>
			<g>
				<path d="M3198.8,1971.8l-12.8,35.1h-107.4v-5c31.1-29.5,53.4-53,66.7-70.5c13-18.2,19.4-34.9,19.4-50.1c0-5.7-1-11.1-2.9-15.9
					c-1.9-4.9-4.5-9-7.8-12.5c-3.3-3.5-7.1-6.2-11.4-8.2c-4.3-2-9-3-13.9-3c-8.9,0-17,2.6-24,7.8c-7.1,5.2-12.4,12.9-15.8,23h-4.8
					c2.3-16.7,8-29.4,17.1-38.2c9.1-8.7,20.7-13.1,34.8-13.1c7.3,0,14.2,1.3,20.5,3.9c6.3,2.6,11.8,6.1,16.4,10.5
					c4.6,4.4,8.2,9.5,10.9,15.2c2.7,5.7,4,11.8,4,18c0,9.2-1.6,17.7-4.9,25.4c-3.3,7.7-6.6,14.1-10,18.9
					c-3.4,4.9-8.3,11.4-14.7,19.5c-12.2,13.6-21.9,24.3-29.2,32.1c-7.3,7.7-14.5,15-21.7,21.8h47.5c6,0,11.1-0.1,15.2-0.4
					c4.1-0.3,7.6-0.9,10.5-1.9c2.9-1,5.3-2.5,7.3-4.5c2-2,4-4.7,6-8H3198.8z"/>
			</g>
			<g>
				<path d="M3234.2,1981.9c4,0,7.5,1.4,10.4,4.3c2.9,2.9,4.4,6.4,4.4,10.5c0,4.1-1.5,7.7-4.4,10.6c-2.9,2.9-6.4,4.4-10.4,4.4
					c-4.1,0-7.7-1.5-10.6-4.4c-2.9-2.9-4.4-6.5-4.4-10.6c0-4.3,1.5-7.8,4.4-10.6C3226.5,1983.3,3230.1,1981.9,3234.2,1981.9z"/>
			</g>
		</g>
	</g>
</g>
<path id="TORN_00000072250542941562971250000003082889310484187032_" d="M1323.5,1642c18.7,13.3,30.1,29.6,31.3,52
	c2,36.8-25.7,67.2-61.9,68.3c-1.1,0-2.3,0.4-3.4,0.1c-22.6-6.5-33.6,5.2-42,25.3c-7.9,19-19,36.7-29,55.4c3.5,2.9,6.4,5.2,9.2,7.6
	c19.8,17.3,27.1,44.7,18.5,69.8c-8.3,24.1-31.1,41.4-56.7,42.9c-1.5,0.1-3.1,0.5-4.5,0.1c-23-6.5-34.3,5-42.9,25.7
	c-8.9,21.5-21.3,41.6-32.1,62.4c-11.1,21.4-26.3,39.4-45,54.4c-61.3,49-122.5,98.1-183.7,147.3c-9.5,7.6-19.3,12.5-31.1,6.5
	c-12.4-6.2-14.2-17.5-13.3-30.2c5.8-79.9,11.3-159.9,17.6-239.8c1.3-16.3,5.9-32.3,9-48.5c-6.6-7.7-15.2-15.4-20.9-24.9
	c-12.4-20.6-11.8-42.3,0-63.3c12.1-21.6,31.5-34.8,55-31.8c24.4,3.1,35.9-6.1,44.6-27.6c7.6-18.7,18.6-36,28.3-54.3
	c-17.9-12.3-29.1-28-31.1-49.2c-3.7-39.2,27.2-74,66-70.2c22.3,2.2,32.3-5.7,40.5-24.8c8.4-19.6,19.7-37.9,28-53.5
	c-9.6-14-19.9-24.2-24.8-36.8c-16.7-42.5,14.9-89.6,59.7-86.1c24.1,1.9,34.9-6.4,43.6-27.2c7.7-18.6,18.8-35.9,27.3-51.7
	c-9-11.7-18.4-20.5-23.7-31.4c-20.2-41.6,9.6-90.2,55.4-91.7c1.5,0,3.1-0.3,4.5,0.1c21.8,6.5,32.3-4.8,40.3-24.1
	c7.7-18.4,18.1-35.5,27.3-53.2c0.5-1,0.8-2.1,1.5-4.1c-2.3-2-4.7-4.2-7.2-6.2c-20.9-17.5-28.3-44.4-19.4-70.4
	c8.6-25,31.3-42.1,57.5-43.3c1.5-0.1,3.1-0.4,4.5,0c21.8,6,31.6-5.2,41.4-24.4c64.6-125.9,130.5-251.2,196.4-376.5
	c22.3-42.3,34-86.8,34.4-134.6c0.6-59.4,1.8-118.8,3-178.2c0.8-42.1,35.8-63.7,72.2-44.3c118.9,63.4,237.8,126.9,356.6,190.5
	c37,19.8,39,60.9,4.4,85.8c-52.5,37.8-105.3,75.2-157.5,113.3c-29,21.2-52.1,48.4-69,80.3c-54.1,102.4-107.6,205.1-161.4,307.8
	c-0.3,0.7-0.4,1.5-0.9,3.2c2.1,1.8,4.6,4,7.1,6.1c20.7,17.1,28.4,44.4,19.8,70.4c-8.3,24.9-31.1,42.2-57.3,43.5
	c-2.3,0.1-4.6,0.5-6.7-0.1c-20-5.5-30.5,3.5-38.3,22.2c-8.4,20.1-20,38.8-29.7,57.2c8,9.5,16.9,17.2,22.2,26.8
	c22.8,41.6-5.2,92-52.1,95.1c-1.9,0.1-3.9,0.5-5.6,0c-22-6.1-33.1,4.5-41.3,24.6c-7.9,19.4-19.3,37.3-27.4,52.5
	c9.9,14.9,20.8,26.3,25.8,39.9c14.9,41-16.7,86.2-60.4,83.3c-25.2-1.7-36.1,7.5-44.9,28.9C1343.9,1607.4,1333,1624.3,1323.5,1642z
	 M1606.3,605.6c-72.5,138-144.7,275.5-217.1,413.4c4.6,0.3,9.5,0.8,14.3,1c62.4,3.3,124.7,6.3,187,10.1c10.5,0.6,15.9-2.2,20.9-11.9
	c47.8-92.3,96.2-184.2,144.2-276.3c7.7-14.8,14.5-30.1,21.7-45.1C1720,666.3,1662,635.4,1606.3,605.6z M1615.5,567.3
	c62.8,33.7,124,66.6,183.4,98.5c21.8-18.9,42.6-38.4,64.9-56.1c22.1-17.5,45.7-33.1,67.7-48.9c-101.2-54.1-201.5-107.8-302-161.6
	C1626.3,455.1,1632.7,512.6,1615.5,567.3z M1117.9,1961.7c-2.5-0.9-3.5-1.5-4.5-1.5c-68.7-3.7-137.4-7.5-206.1-10.7
	c-3.3-0.2-9.1,4.2-10,7.4c-3.7,13.2-7.3,26.7-8.4,40.3c-5.4,67.6-9.9,135.3-14.8,202.9c-0.3,3.9-0.2,7.9-0.4,13.6
	c4.4-3.3,7.1-5.2,9.7-7.3c48.4-38.8,95.4-79.7,145.7-115.8C1074.9,2057.9,1091.3,2007.1,1117.9,1961.7z M1637.4,284.1
	c-2.6,6.3-6,11.1-6.3,16c-1,16-1.3,32.2-0.8,48.2c0.1,4.2,3.6,10,7.1,12c107,57.6,214.2,114.9,321.6,171.8
	c3.5,1.9,10.3,1.2,13.8-1.1c12.8-8.1,25-17.3,37.3-26.3c12.3-9,11.7-17.6-1.8-25.1c-14.9-8.1-29.9-16-44.8-24
	c-103.6-55.3-207.1-110.7-310.7-165.9C1648.8,287.6,1644.1,286.5,1637.4,284.1z M1319.3,1691c-3.3-13-13.4-20.3-29.8-21.2
	c-58.5-3.1-117.1-6.2-175.6-9.2c-35.7-1.9-71.3-3.9-107-5.6c-18.3-0.9-31.1,9.5-32.7,26c-1.6,16.9,10,29.6,28.9,30.7
	c58.9,3.3,117.8,6.3,176.7,9.5c36,1.9,72,4,108.1,5.6C1309.6,1727.7,1324.2,1710.6,1319.3,1691z M891.4,1856.5
	c-15.2,4.8-23.4,17.4-22.2,30.9c1.4,15.2,12,24.8,29.2,25.7c94.2,5,188.4,10,282.6,14.9c19.7,1,33-9.7,33.9-27
	c0.9-16.8-10.9-28.8-30-29.8c-93.8-5-187.6-9.9-281.5-14.8C898.7,1856.1,893.8,1856.5,891.4,1856.5z M1529.6,1288.1
	c-3.6-12.5-13.1-19.7-27.9-20.5c-93.1-5-186.1-9.8-279.2-14.8c-22.6-1.2-36.7,8.5-37.8,26.4c-1.1,18.1,11.3,29.3,34.1,30.5
	c1.1,0.1,2.2,0.1,3.4,0.2c49.1,2.6,98.3,5.1,147.4,7.7c43.2,2.3,86.3,4.7,129.5,6.7C1520.3,1325.3,1535.1,1307.4,1529.6,1288.1z
	 M1614.8,1122.6c12.3-4.7,19.1-12.3,20.8-24.1c2.6-17.8-9.4-31.1-29.4-32.2c-94.2-5.1-188.4-10.1-282.6-15
	c-18.9-1-32.2,9.6-33.6,26.3c-1.4,17,10.8,29.6,30.3,30.7c94.2,5,188.4,9.9,282.6,14.7C1607.3,1123.3,1611.8,1122.7,1614.8,1122.6z
	 M1101.5,1454.2c-15,5.1-22.9,17-22.1,30.2c0.9,15.1,12.4,25.3,30.1,26.3c66.1,3.6,132.3,7,198.4,10.5c29.3,1.5,58.6,3.4,87.9,4.4
	c16.4,0.5,28.9-11.6,29.5-27.1c0.6-15.8-10.4-28-26.8-29.6c-2.2-0.2-4.5-0.3-6.8-0.4c-92.4-4.9-184.9-9.8-277.3-14.6
	C1109.3,1453.6,1104.1,1454.1,1101.5,1454.2z M1282.1,1218.4c1.6,1.3,1.9,1.7,2.2,1.7c69.8,3.8,139.5,7.7,209.3,11.3
	c2.7,0.1,6.8-2,8.1-4.3c12.8-23,25-46.3,38.5-71.4c-10.7-0.7-18.9-1.3-27-1.7c-60.4-3.2-120.8-6.5-181.2-9.4
	c-4.4-0.2-11.3,1.6-13.1,4.7C1306,1171.9,1294.3,1195.1,1282.1,1218.4z M1329.4,1558.4c-5.7-0.6-8.9-1-12.2-1.2
	c-56.7-3-113.4-6-170.1-8.9c-12-0.6-26.3-5.1-35.3,0c-9,5.1-12.7,20.1-18.4,30.8c-7.5,14.1-14.7,28.2-22.7,43.7
	c72.2,3.8,142.4,7.5,212.6,10.9c2.5,0.1,6.3-1.4,7.4-3.4C1303.6,1606.9,1316.1,1583.4,1329.4,1558.4z M965.5,1824
	c72.4,3.8,142.2,7.6,212.1,10.8c3.2,0.2,8-3.7,9.8-6.9c8.7-15.3,16.6-31.1,24.7-46.8c3.6-6.9,6.8-13.9,10.9-22.2
	c-71.9-3.8-141.7-7.5-211.6-10.9c-2.7-0.1-6.9,1.8-8.1,4C990.8,1775.2,978.8,1798.6,965.5,1824z M1435.3,1356.6
	c-73.4-3.9-143.1-7.6-212.9-11.1c-2.8-0.1-7.2,1.5-8.5,3.7c-12.9,23.3-25.4,46.8-38.1,70.5c2.7,1.2,3.3,1.7,4,1.8
	c69.4,3.7,138.9,7.5,208.3,11c2.7,0.1,7-1.8,8.2-4C1409.2,1405.4,1421.6,1382.1,1435.3,1356.6z"/>
</svg>
