<?xml version="1.0" encoding="utf-8"?>
<!-- Generator: Adobe Illustrator 26.5.0, SVG Export Plug-In . SVG Version: 6.00 Build 0)  -->
<svg version="1.1" xmlns="http://www.w3.org/2000/svg" xmlns:xlink="http://www.w3.org/1999/xlink" x="0px" y="0px"
	 viewBox="0 0 6081.9 2256.1" style="enable-background:new 0 0 6081.9 2256.1;" xml:space="preserve">
<style type="text/css">
	.st0{fill:#EAEAEA;stroke:#000000;stroke-width:13.9944;stroke-miterlimit:10;}
	.st1{fill:#EAEAEA;stroke:#000000;stroke-width:13.8795;stroke-miterlimit:10;}
	.st2{fill:#F7F7F7;stroke:#000000;stroke-width:12.5772;stroke-miterlimit:10;}
	.st3{fill:#F7F7F7;stroke:#000000;stroke-width:12.4034;stroke-miterlimit:10;}
	.st4{fill:#F7F7F7;stroke:#000000;stroke-width:12.1572;stroke-miterlimit:10;}
	.st5{fill:#F7F7F7;stroke:#000000;stroke-width:12.3275;stroke-miterlimit:10;}
	.st6{fill:#DDDDDD;stroke:#000000;stroke-width:9.2534;stroke-miterlimit:10;}
	.st7{fill:#E8E8E8;stroke:#000000;stroke-width:9.7259;stroke-miterlimit:10;}
	.st8{fill:#CCCCCC;stroke:#000000;stroke-width:9.2534;stroke-miterlimit:10;}
	.st9{fill:#F7F7F7;stroke:#3B7C67;stroke-width:25;stroke-miterlimit:10;}
	.st10{fill:none;stroke:#000000;stroke-width:7.9919;stroke-miterlimit:10;}
	.st11{fill:none;stroke:#000000;stroke-width:8.7846;stroke-miterlimit:10;}
</style>
<g id="CIRCULOS-SELECCION2">
</g>
<g id="CLOSET">
	<g id="LATERAL-DERECHA">
		<polygon class="st0" points="5807.4,2042.2 5274.7,1925.9 5276.6,218.2 5807.4,321.4 		"/>
		<rect x="5808" y="320.2" class="st0" width="103.6" height="1720"/>
	</g>
	<g id="BASE">
		<polyline class="st1" points="5272.3,1919 837.1,1925.2 5271.8,1919 5807.9,2039.7 755.8,2040 755.7,1925.2 837.4,1925.2 		"/>
		<rect x="676.1" y="2040.2" class="st0" width="5234.8" height="86.5"/>
		<polyline class="st0" points="665.4,2040 201.4,1925 201.4,2004 665.4,2125 666,2039.7 		"/>
	</g>
	<g id="DIVISIONES-VERTICALES">
		<g id="DIVISION-VERTICAL-DERECHA">
			<polygon class="st0" points="4538.1,2039.9 4072,1924.9 4073.2,319.7 4538.1,318.9 			"/>
			<rect x="4537" y="319.7" class="st0" width="90" height="1719.2"/>
		</g>
		<g id="DIVISION-CENTRAL">
			<polygon class="st0" points="3252.2,2039.9 2786.2,1924.9 2787.2,197.4 3252.2,318.9 			"/>
			<rect x="3251.1" y="318.7" class="st0" width="90" height="1720.2"/>
		</g>
		<g id="DIVISION-VERTICAL-IZQUIERDA_00000085229740836627909760000005526871516412138418_">
			<polygon class="st0" points="1930.1,2040.3 1464.1,1925.3 1465.2,319.7 1930.1,319.3 			"/>
			<rect x="1929" y="319.7" class="st0" width="90" height="1719.6"/>
		</g>
	</g>
	<g id="DIVISIONES-HORIZONTALES">
		<g id="DIVISION-HORIZONTAL-EXTREMA-IZQUIERDA">
			<polygon class="st2" points="757.2,1159.7 1814.3,1160.2 1464.2,1069.7 756.2,1069.2 			"/>
			<rect x="756.7" y="1156.9" class="st3" width="1058" height="84.7"/>
		</g>
		<g id="DIVISION-HORIZONTAL-INTERNA-DERECHA">
			<polygon class="st4" points="3342.5,1168.7 4399.6,1169.2 4049.6,1078.7 3341.6,1078.2 			"/>
			<rect x="3342" y="1165.9" class="st4" width="1058" height="84.7"/>
		</g>
		<g id="DIVISION-HORIZONTAL-EXTREMA-DERECHA">
			<polygon class="st4" points="4627.8,1173.7 5803.5,1174.2 5427.2,1083.7 4626.7,1083.2 			"/>
			<rect x="4627.2" y="1170.9" class="st4" width="1176.8" height="84.7"/>
		</g>
		<g id="DIVISION-HORIZONTAL-INTERNA-IZQUIERDA_00000054254641889117512190000003647137643466809518_">
			<polygon class="st5" points="2019.6,1190.4 3035.2,1190.9 2756.8,1100.1 2018.7,1099.9 			"/>
			<rect x="2019.2" y="1187.6" class="st4" width="1016.5" height="84.7"/>
		</g>
	</g>
	<g id="TECHO">
		<polygon class="st0" points="666,319.7 202.1,198.7 202.1,119.7 666,234.7 		"/>
		<rect x="672.9" y="234.7" class="st0" width="5239.2" height="85"/>
		<polyline class="st0" points="195.7,117.7 666.6,235.2 5912.7,234.4 5363.5,113.7 195.7,117.7 5364.1,113.7 		"/>
	</g>
</g>
<g id="MEDIDAS">
	<g id="TORNILLERIA-SOPORTES">
		<g id="SOPORTES">
			<polygon class="st6" points="1505.7,1271 1524.8,1271.2 1524.8,1296.5 1524.8,1323.2 1573.7,1323.2 1573.7,1294.6 1573.7,1243.6 
				1505.7,1243.6 			"/>
			<polygon class="st6" points="1690,1275.7 1713,1276 1713,1305.3 1713,1336.2 1771.7,1336.2 1771.7,1303.1 1771.7,1244 1690,1244 
							"/>
			<polygon class="st6" points="830.7,1275.5 809.9,1275.8 809.9,1305.2 809.9,1336 756.7,1336 756.7,1303 756.7,1243.9 
				830.7,1243.9 			"/>
			<polygon class="st6" points="508.7,1240.7 493.2,1240.9 493.2,1266.3 493.2,1292.9 453.3,1292.9 453.3,1264.4 453.3,1213.4 
				508.7,1213.4 			"/>
			<polygon class="st6" points="2801.7,1299.6 2820.8,1299.8 2820.8,1325.2 2820.8,1351.8 2869.7,1351.8 2869.7,1323.3 
				2869.7,1272.3 2801.7,1272.3 			"/>
			<polygon class="st6" points="2936,1306.3 2959,1306.6 2959,1336 2959,1366.8 3017.7,1366.8 3017.7,1333.7 3017.7,1274.7 
				2936,1274.7 			"/>
			<polygon class="st6" points="2092.8,1303.7 2072,1304 2072,1333.4 2072,1364.2 2018.8,1364.2 2018.8,1331.1 2018.8,1272.1 
				2092.8,1272.1 			"/>
			<polygon class="st6" points="4294.3,1285.2 4317.2,1285.4 4317.2,1314.8 4317.2,1345.6 4376,1345.6 4376,1312.6 4376,1253.5 
				4294.3,1253.5 			"/>
			<polygon class="st7" points="3415.6,1284.3 3394.8,1284.6 3394.8,1314 3394.8,1344.8 3341.6,1344.8 3341.6,1311.7 3341.6,1252.7 
				3415.6,1252.7 			"/>
			<polygon class="st6" points="4110,1280.4 4129.1,1280.6 4129.1,1306 4129.1,1332.6 4178,1332.6 4178,1304.1 4178,1253.1 
				4110,1253.1 			"/>
			<polygon class="st6" points="5472.8,1285.2 5491.9,1285.4 5491.9,1310.7 5491.9,1337.4 5540.8,1337.4 5540.8,1308.8 
				5540.8,1257.8 5472.8,1257.8 			"/>
			<polygon class="st7" points="4700.3,1285.4 4679.5,1285.7 4679.5,1315 4679.5,1345.9 4626.3,1345.9 4626.3,1312.8 4626.3,1253.8 
				4700.3,1253.8 			"/>
			<polygon class="st6" points="5657.1,1258.3 5657.1,1289.9 5680,1290.2 5680,1319.5 5680,1350.4 5738.8,1350.4 5738.8,1317.3 
				5738.8,1258.3 			"/>
		</g>
	</g>
	<g id="TABLITA-DELANTERA_00000134928484676515735100000014033209265469078427_">
		<g id="TABLITA-DELANTERA">
			<rect x="3169.3" y="319.1" class="st8" width="82.4" height="1709.5"/>
			<polygon class="st8" points="3170,2026.1 3035.9,2002.1 3035.6,319.6 3170,320.1 			"/>
		</g>
		<g id="TORNILLERIA-TABLITA-DELANTERA">
			<circle id="_x32__00000131337425082727541700000018037565825094076306_" class="st9" cx="2232.6" cy="514.8" r="163.5"/>
			<g>
				<g>
					<path d="M2190.8,577.7c-3.7,0-7.2-0.5-10.5-1.4c-3.3-0.9-6.2-2.1-8.5-3.7c-2.4-1.5-4.1-3.2-5.1-4.9l3.6-21.3l5.4,0.9l0.8,16.5
						c1.2,2.2,3.3,4.1,6.3,5.7c2.9,1.7,6.1,2.5,9.5,2.5c4.1,0,7.7-0.8,10.9-2.6c3.1-1.7,5.6-4.1,7.3-7.2c1.7-3.1,2.6-6.8,2.6-10.9
						c0-4-1.2-7.7-3.5-10.9c-2.3-3.2-5.6-5.7-9.8-7.5c-4.2-1.8-8.8-2.8-13.9-2.9l-0.5-4c6.2-2.8,11.7-6.2,16.6-10.3
						c4.9-4.1,7.3-9.4,7.3-16c0-2.8-0.6-5.5-1.7-8.1c-1.1-2.6-2.8-4.7-5-6.3c-2.2-1.6-4.9-2.4-8.1-2.4c-5.3,0-9.9,2.2-13.7,6.5
						l-3.5,18.1l-5.2-0.9l-0.6-20.1c2.5-2.4,6.1-4.6,11-6.6c4.8-2,10.2-3,16.1-3c4.5,0,8.6,0.8,12.3,2.5c3.7,1.7,6.6,4,8.7,7.1
						c2.1,3.1,3.2,6.7,3.2,10.8c0,4.1-1.1,7.9-3.2,11.3c-2.2,3.4-4.9,6.3-8.2,8.7c-3.3,2.4-6.8,4.2-10.4,5.6v0.8
						c4.9,0.7,9.2,2.1,13.1,4.1c3.9,2.1,6.9,4.7,9.1,8c2.2,3.3,3.3,7,3.3,11.2c0,5.7-1.7,10.9-5,15.6c-3.3,4.7-7.7,8.3-13.2,11
						C2202.9,576.3,2197,577.7,2190.8,577.7z"/>
				</g>
				<path id="TORN_00000072250542941562971250000003082889310484187032_" d="M2285.8,563.7c2.7,0.3,4.7,1.3,6.1,3.5
					c2.2,3.6,1.1,8.1-2.6,10.2c-0.1,0.1-0.2,0.2-0.3,0.2c-2.7,0.6-3.2,2.3-2.9,4.8c0.2,2.3,0.1,4.7,0.1,7.1c0.5,0.1,0.9,0.2,1.4,0.3
					c3,0.7,5.2,3,5.8,6c0.5,2.9-0.9,5.8-3.4,7.4c-0.1,0.1-0.3,0.2-0.5,0.3c-2.7,0.6-3.2,2.4-3,4.9c0.3,2.6,0.1,5.3,0.2,8
					c0,2.8-0.5,5.4-1.6,7.9c-3.6,8.3-7.1,16.5-10.6,24.8c-0.5,1.3-1.3,2.3-2.8,2.3c-1.6,0-2.4-1-3-2.3c-3.8-8.3-7.7-16.7-11.5-25
					c-0.8-1.7-1.2-3.6-1.8-5.4c-1.1-0.4-2.4-0.7-3.5-1.4c-2.4-1.4-3.5-3.6-3.5-6.4c0-2.8,1.3-5.2,3.9-6.2c2.7-1,3.3-2.6,3-5.2
					c-0.3-2.3-0.1-4.6-0.1-7c-2.5-0.3-4.5-1.2-5.9-3.3c-2.5-3.7-1.3-8.9,2.9-10.6c2.4-1,3-2.3,2.8-4.7c-0.2-2.4-0.1-4.9-0.1-6.9
					c-1.8-0.9-3.4-1.4-4.6-2.3c-4.1-3.4-3.4-9.8,1.3-11.9c2.6-1.1,3.2-2.5,3-5.1c-0.2-2.3-0.1-4.6-0.1-6.7c-1.6-0.7-3-1.1-4.2-1.9
					c-4.4-3.1-4-9.6,0.6-12.2c0.2-0.1,0.3-0.2,0.5-0.2c2.6-0.5,3-2.2,2.8-4.6c-0.2-2.3-0.1-4.6-0.2-6.8c0-0.1,0-0.3-0.1-0.5
					c-0.3-0.1-0.7-0.2-1.1-0.2c-3.1-0.6-5.4-2.9-5.9-6c-0.5-3,0.9-5.9,3.5-7.5c0.2-0.1,0.3-0.2,0.5-0.2c2.6-0.6,2.9-2.2,2.9-4.7
					c-0.4-16.2-0.6-32.3-0.7-48.5c-0.1-5.5-1.3-10.6-3.9-15.4c-3.2-6-6.4-12-9.6-18.1c-2.3-4.3,0.1-8.3,4.9-8.4
					c15.7-0.1,31.4-0.2,47-0.2c4.9,0,7.4,4,5.2,8.4c-3.3,6.7-6.6,13.3-9.8,19.9c-1.8,3.7-2.7,7.7-2.6,11.8
					c0.1,13.2,0.3,26.5,0.5,39.7c0,0.1,0,0.2,0.1,0.4c0.3,0.1,0.7,0.2,1.1,0.2c3.1,0.6,5.4,2.9,5.9,6c0.5,3-0.8,5.9-3.5,7.5
					c-0.2,0.1-0.4,0.3-0.7,0.4c-2.4,0.5-2.9,2-2.7,4.3c0.3,2.5,0.1,5,0.1,7.4c1.3,0.5,2.7,0.8,3.8,1.5c4.6,2.9,4.6,9.5-0.1,12.4
					c-0.2,0.1-0.4,0.3-0.6,0.3c-2.6,0.6-3.1,2.3-2.9,4.7c0.3,2.4,0.1,4.8,0.1,6.8c1.8,1,3.6,1.5,4.8,2.6c3.8,3.3,3.1,9.6-1.6,11.7
					c-2.7,1.2-3.3,2.7-3,5.3C2286,559.1,2285.8,561.4,2285.8,563.7z M2257.4,444.2c0.2,17.8,0.4,35.5,0.7,53.3
					c0.5-0.2,1-0.4,1.5-0.7c6.6-3.1,13.1-6.1,19.7-9.1c1.1-0.5,1.5-1.1,1.5-2.3c-0.2-11.9-0.4-23.7-0.5-35.6c0-1.9-0.2-3.8-0.3-5.7
					C2272.4,444.1,2264.7,444.2,2257.4,444.2z M2256.2,439.9c8.3,0,16.4,0,24.2-0.1c1.2-3.1,2.2-6.2,3.5-9.2c1.3-3,2.8-5.8,4.2-8.6
					c-13.4,0.1-26.6,0.1-39.9,0.2C2251.1,428,2254.9,433.4,2256.2,439.9z M2282.5,607c-0.3,0-0.4,0-0.5,0.1
					c-7.2,3.4-14.5,6.7-21.7,10.1c-0.3,0.2-0.7,0.9-0.6,1.3c0.4,1.5,0.7,3.1,1.4,4.5c3.2,7.1,6.5,14.1,9.7,21.2
					c0.2,0.4,0.4,0.8,0.7,1.4c0.3-0.6,0.4-0.9,0.6-1.3c2.8-6.5,5.4-13.2,8.5-19.5C2283.4,619,2282.2,613,2282.5,607z M2242.7,410.2
					c0.1,0.8,0,1.4,0.2,1.9c0.8,1.7,1.6,3.3,2.6,4.9c0.2,0.4,0.9,0.8,1.4,0.8c14.1,0,28.3-0.1,42.4-0.2c0.5,0,1.1-0.4,1.4-0.9
					c0.9-1.5,1.6-3.1,2.4-4.7c0.8-1.6,0.2-2.4-1.6-2.4c-2,0-3.9,0-5.9,0c-13.7,0.1-27.3,0.1-41,0.2
					C2244.1,409.9,2243.6,410.1,2242.7,410.2z M2288.1,568.8c-1.1-1.1-2.5-1.3-4.2-0.5c-6.2,2.9-12.3,5.7-18.5,8.6
					c-3.8,1.7-7.5,3.5-11.3,5.3c-1.9,0.9-2.7,2.6-1.9,4.4c0.8,1.8,2.7,2.4,4.7,1.5c6.2-2.9,12.4-5.8,18.6-8.7
					c3.8-1.8,7.6-3.5,11.4-5.3C2289.1,573,2289.7,570.5,2288.1,568.8z M2253.4,608.7c-1.3,1.3-1.4,3-0.6,4.3c1,1.5,2.6,1.8,4.4,1
					c9.9-4.6,19.8-9.2,29.7-13.9c2.1-1,2.8-2.8,2-4.6c-0.8-1.7-2.7-2.3-4.7-1.4c-9.9,4.6-19.8,9.2-29.6,13.8
					C2254.2,608.3,2253.7,608.6,2253.4,608.7z M2287.3,516.9c-1.1-1.1-2.4-1.3-4-0.5c-9.8,4.6-19.6,9.1-29.4,13.7
					c-2.4,1.1-3.3,2.8-2.4,4.7c0.9,1.9,2.8,2.3,5.2,1.2c0.1-0.1,0.2-0.1,0.4-0.2c5.2-2.4,10.3-4.8,15.5-7.2
					c4.5-2.1,9.1-4.2,13.6-6.4C2288.4,521.2,2288.9,518.6,2287.3,516.9z M2286.8,495.7c1-1.1,1.3-2.3,0.8-3.5
					c-0.7-1.9-2.7-2.6-4.8-1.6c-9.9,4.6-19.8,9.2-29.7,13.9c-2,0.9-2.8,2.7-2,4.5c0.8,1.8,2.7,2.4,4.8,1.4
					c9.9-4.6,19.8-9.2,29.7-13.9C2286.1,496.1,2286.5,495.8,2286.8,495.7z M2252.7,556.9c-1.2,1.3-1.4,2.9-0.6,4.2
					c0.9,1.5,2.7,1.9,4.5,1c7-3.2,13.9-6.5,20.9-9.7c3.1-1.4,6.2-2.8,9.2-4.3c1.7-0.8,2.3-2.7,1.5-4.3c-0.8-1.6-2.6-2.2-4.4-1.5
					c-0.2,0.1-0.5,0.2-0.7,0.3c-9.7,4.5-19.5,9.1-29.2,13.6C2253.4,556.4,2252.9,556.7,2252.7,556.9z M2258.1,523.4
					c0.2,0,0.3,0.1,0.3,0.1c7.4-3.4,14.7-6.8,22-10.2c0.3-0.1,0.6-0.6,0.6-0.9c0-3,0-6,0-9.3c-1.1,0.5-2,0.9-2.9,1.3
					c-6.4,3-12.7,5.9-19.1,8.9c-0.5,0.2-1.1,0.8-1.1,1.2C2258,517.4,2258.1,520.4,2258.1,523.4z M2281.8,555c-0.6,0.3-1,0.4-1.3,0.5
					c-6,2.8-11.9,5.6-17.9,8.3c-1.3,0.6-3,0.9-3.6,1.9c-0.6,1-0.2,2.7-0.2,4.1c0,1.8,0.1,3.6,0.1,5.6c7.6-3.5,15-7,22.4-10.5
					c0.3-0.1,0.6-0.5,0.6-0.7C2281.8,561.2,2281.8,558.2,2281.8,555z M2259.2,601.4c7.6-3.6,15-7,22.3-10.4c0.3-0.2,0.6-0.8,0.6-1.2
					c0-2,0-4-0.1-6c0-0.9-0.1-1.8-0.1-2.8c-7.6,3.5-14.9,7-22.3,10.4c-0.3,0.1-0.6,0.6-0.6,0.8
					C2259.1,595.1,2259.2,598.1,2259.2,601.4z M2281.4,528.9c-7.7,3.6-15.1,7-22.4,10.5c-0.3,0.1-0.7,0.5-0.7,0.8c0,3,0,6.1,0,9.1
					c0.3,0,0.4,0,0.5,0c7.3-3.4,14.6-6.8,21.9-10.2c0.3-0.1,0.6-0.6,0.6-0.9C2281.5,535.2,2281.4,532.2,2281.4,528.9z"/>
			</g>
			<path d="M3087.2,1941.6c10.6,11.5,26.4,10.4,35.3-2.3c8.8-12.8,7.4-32.4-3.2-43.9s-26.4-10.4-35.3,2.3
				C3075.1,1910.4,3076.5,1930.1,3087.2,1941.6z M3094.8,1903.4c0.6-0.5,0.9,0.1,0.9,0.1s2.4,2.9,4.7,5.6c2.8,2.4,4.4,0.2,4.4,0.2
				s4.2-5.4,4.5-5.8c0.4-0.4,0.8,0.1,0.8,0.1l1.2,1.5c0,0,2.8,3.4,3.2,3.9c0.3,0.6,0.1,1.1,0.1,1.1s-2.6,3.2-4.3,5.8
				c-1.6,2.7,0.2,5.6,0.2,5.6l2.5,3c0,0,2,2.3,2.4,2.9c0.3,0.7,0,1.1,0,1.1s-3.5,4.6-3.9,5.2c-0.4,0.6-1.1,0.1-1.1,0.1
				s-2.8-3.5-4.8-5.8c-2.2-2.1-4.4,0.1-4.4,0.1s-3.9,5.1-4.3,5.6c-0.6,0.2-0.8-0.1-0.8-0.1s-3.6-4.3-4.2-5.1
				c-0.7-0.8-0.2-1.5-0.2-1.5l3.4-4.5c2.5-3.2,0.7-6.4,0.7-6.4l-4.8-5.8c0,0-0.5-0.6-0.3-1.3
				C3090.9,1908.6,3094.3,1904,3094.8,1903.4z"/>
			<path d="M3087,1253.2c10.6,11.5,26.4,10.4,35.3-2.3c8.8-12.8,7.4-32.4-3.2-43.9s-26.4-10.4-35.3,2.3
				C3074.9,1222,3076.4,1241.7,3087,1253.2z M3094.7,1214.9c0.6-0.5,0.9,0.1,0.9,0.1s2.4,2.9,4.7,5.6c2.8,2.4,4.4,0.2,4.4,0.2
				s4.2-5.4,4.5-5.8c0.4-0.4,0.8,0.1,0.8,0.1l1.2,1.5c0,0,2.8,3.4,3.2,3.9c0.3,0.6,0.1,1.1,0.1,1.1s-2.6,3.2-4.3,5.8
				c-1.6,2.7,0.2,5.6,0.2,5.6l2.5,3c0,0,2,2.3,2.4,2.9c0.3,0.7,0,1.1,0,1.1s-3.5,4.6-3.9,5.2c-0.4,0.6-1.1,0.1-1.1,0.1
				s-2.8-3.5-4.8-5.8c-2.2-2.1-4.4,0.1-4.4,0.1s-3.9,5.1-4.3,5.6c-0.6,0.2-0.8-0.1-0.8-0.1s-3.6-4.3-4.2-5.1
				c-0.7-0.8-0.2-1.5-0.2-1.5l3.4-4.5c2.5-3.2,0.7-6.4,0.7-6.4l-4.8-5.8c0,0-0.5-0.6-0.3-1.3
				C3090.8,1220.2,3094.1,1215.6,3094.7,1214.9z"/>
			<path d="M3086.3,443c10.6,11.5,26.4,10.4,35.3-2.3c8.8-12.8,7.4-32.4-3.2-43.9c-10.6-11.5-26.4-10.4-35.3,2.3
				C3074.2,411.9,3075.7,431.6,3086.3,443z M3094,404.8c0.6-0.5,0.9,0.1,0.9,0.1s2.4,2.9,4.7,5.6c2.8,2.4,4.4,0.2,4.4,0.2
				s4.2-5.4,4.5-5.8c0.4-0.4,0.8,0.1,0.8,0.1l1.2,1.5c0,0,2.8,3.4,3.2,3.9c0.3,0.6,0.1,1.1,0.1,1.1s-2.6,3.2-4.3,5.8
				c-1.6,2.7,0.2,5.6,0.2,5.6l2.5,3c0,0,2,2.3,2.4,2.9c0.3,0.7,0,1.1,0,1.1s-3.5,4.6-3.9,5.2c-0.4,0.6-1.1,0.1-1.1,0.1
				s-2.8-3.5-4.8-5.8c-2.2-2.1-4.4,0.1-4.4,0.1s-3.9,5.1-4.3,5.6c-0.6,0.2-0.8-0.1-0.8-0.1s-3.6-4.3-4.2-5.1
				c-0.7-0.8-0.2-1.5-0.2-1.5l3.4-4.5c2.5-3.2,0.7-6.4,0.7-6.4l-4.8-5.8c0,0-0.5-0.6-0.3-1.3C3090.1,410.1,3093.5,405.4,3094,404.8z
				"/>
		</g>
	</g>
	<g id="TABLITA-TRASERAS">
		<g id="TABLITA-TRASERA">
			<polyline class="st8" points="5371,1255.7 5371,1941.8 5275,1919 5274.2,1255.7 5429.2,1256.2 5429.5,1944.2 5370.5,1944.2 
				5370.5,1257.4 			"/>
			<line class="st8" x1="5371" y1="1083.6" x2="5371" y2="1087.7"/>
			<polyline class="st8" points="5371,1083.6 5371,321.1 5274.8,320.7 5274.9,1083.6 5429.2,1083.7 5429.5,320.2 5370.5,320.2 
				5370.5,1087.7 			"/>
		</g>
		<g id="TORNILLERIA-TABLITAS-TRASERAS">
			<g>
				
					<ellipse id="_x32__00000137854382405875013000000002398089349503677340_" class="st9" cx="4876.1" cy="517.9" rx="164.9" ry="163.5"/>
				<g>
					<g>
						<path d="M4834,580.8c-3.7,0-7.2-0.5-10.6-1.4c-3.3-0.9-6.2-2.1-8.6-3.7c-2.4-1.5-4.1-3.2-5.1-4.9l3.7-21.3l5.5,0.9l0.8,16.5
							c1.3,2.2,3.4,4.1,6.3,5.7c3,1.7,6.2,2.5,9.6,2.5c4.1,0,7.8-0.9,10.9-2.6c3.2-1.7,5.6-4.1,7.4-7.2c1.7-3.1,2.6-6.8,2.6-10.9
							c0-4-1.2-7.7-3.6-10.9c-2.4-3.2-5.6-5.7-9.8-7.5c-4.2-1.8-8.9-2.8-14-2.9l-0.5-4c6.3-2.8,11.8-6.2,16.7-10.3
							c4.9-4.1,7.4-9.4,7.4-16c0-2.8-0.6-5.5-1.7-8.1c-1.1-2.6-2.8-4.7-5-6.3c-2.2-1.6-5-2.4-8.2-2.4c-5.4,0-10,2.2-13.8,6.5
							l-3.5,18.1l-5.2-0.9l-0.6-20.1c2.5-2.4,6.2-4.6,11.1-6.6c4.9-2,10.3-3,16.2-3c4.6,0,8.7,0.8,12.4,2.5c3.7,1.7,6.6,4,8.7,7.1
							c2.1,3.1,3.2,6.7,3.2,10.8c0,4.1-1.1,7.9-3.3,11.3c-2.2,3.4-4.9,6.3-8.2,8.7c-3.3,2.4-6.8,4.2-10.5,5.6v0.8
							c4.9,0.7,9.3,2.1,13.2,4.1c3.9,2.1,7,4.7,9.2,8c2.2,3.3,3.3,7,3.3,11.2c0,5.7-1.7,10.9-5,15.6c-3.3,4.7-7.8,8.3-13.3,11
							C4846.1,579.5,4840.2,580.8,4834,580.8z"/>
					</g>
					<path id="TORN_00000123427928301474834620000014603074832612968320_" d="M4929.7,566.8c2.7,0.3,4.8,1.3,6.1,3.5
						c2.3,3.6,1.1,8.1-2.6,10.2c-0.1,0.1-0.2,0.2-0.3,0.2c-2.7,0.6-3.2,2.3-2.9,4.8c0.2,2.3,0.1,4.7,0.1,7.1c0.5,0.1,1,0.2,1.4,0.3
						c3,0.7,5.3,3,5.8,6c0.5,2.9-0.9,5.8-3.5,7.4c-0.1,0.1-0.3,0.2-0.5,0.3c-2.7,0.6-3.3,2.4-3,4.9c0.3,2.6,0.1,5.3,0.2,8
						c0,2.8-0.5,5.4-1.6,7.9c-3.6,8.3-7.2,16.5-10.7,24.8c-0.6,1.3-1.3,2.3-2.8,2.3c-1.6,0-2.4-1-3.1-2.3c-3.9-8.3-7.8-16.7-11.6-25
						c-0.8-1.7-1.2-3.6-1.8-5.4c-1.1-0.4-2.4-0.7-3.5-1.4c-2.4-1.4-3.6-3.6-3.5-6.4c0-2.8,1.3-5.2,3.9-6.2c2.7-1,3.4-2.6,3.1-5.2
						c-0.3-2.3-0.1-4.6-0.1-7c-2.5-0.3-4.6-1.2-6-3.3c-2.6-3.7-1.3-8.9,2.9-10.6c2.4-1,3-2.3,2.8-4.7c-0.2-2.4-0.1-4.9-0.1-6.9
						c-1.8-0.9-3.4-1.4-4.6-2.3c-4.1-3.4-3.5-9.8,1.4-11.9c2.6-1.1,3.2-2.5,3-5.1c-0.2-2.3-0.1-4.6-0.1-6.7c-1.6-0.7-3-1.1-4.2-1.9
						c-4.4-3.1-4-9.6,0.6-12.2c0.2-0.1,0.3-0.2,0.5-0.2c2.6-0.5,3.1-2.2,2.8-4.6c-0.2-2.3-0.1-4.6-0.2-6.8c0-0.1,0-0.3-0.1-0.5
						c-0.3-0.1-0.7-0.2-1.1-0.2c-3.1-0.6-5.4-2.9-5.9-6c-0.5-3,0.9-5.9,3.5-7.5c0.2-0.1,0.3-0.2,0.5-0.2c2.6-0.6,3-2.2,2.9-4.7
						c-0.4-16.2-0.6-32.3-0.8-48.5c-0.1-5.5-1.3-10.6-4-15.4c-3.3-6-6.4-12-9.6-18.1c-2.3-4.3,0.1-8.3,5-8.4
						c15.8-0.1,31.6-0.2,47.4-0.2c4.9,0,7.4,4,5.2,8.4c-3.3,6.7-6.7,13.3-9.9,19.9c-1.8,3.7-2.7,7.7-2.6,11.8
						c0.1,13.2,0.3,26.5,0.5,39.7c0,0.1,0,0.2,0.1,0.4c0.3,0.1,0.7,0.2,1.1,0.2c3.1,0.6,5.4,2.9,6,6c0.5,3-0.9,5.9-3.5,7.5
						c-0.2,0.1-0.5,0.3-0.7,0.4c-2.4,0.5-3,2-2.7,4.3c0.3,2.5,0.1,5,0.1,7.4c1.4,0.5,2.7,0.8,3.8,1.5c4.7,2.9,4.6,9.5-0.1,12.4
						c-0.2,0.1-0.4,0.3-0.6,0.3c-2.6,0.6-3.2,2.3-2.9,4.7c0.3,2.4,0.1,4.8,0.1,6.8c1.9,1,3.6,1.5,4.9,2.6c3.8,3.3,3.1,9.6-1.6,11.7
						c-2.7,1.2-3.3,2.7-3,5.3C4929.9,562.2,4929.7,564.5,4929.7,566.8z M4901.1,447.3c0.2,17.8,0.5,35.5,0.7,53.3
						c0.5-0.2,1-0.4,1.5-0.7c6.6-3.1,13.2-6.1,19.9-9.1c1.1-0.5,1.5-1.1,1.5-2.3c-0.2-11.9-0.4-23.7-0.5-35.6c0-1.9-0.2-3.8-0.3-5.7
						C4916.2,447.3,4908.5,447.3,4901.1,447.3z M4899.9,443c8.4,0,16.5,0,24.4-0.1c1.2-3.1,2.3-6.2,3.6-9.2c1.3-3,2.9-5.8,4.3-8.6
						c-13.5,0.1-26.8,0.1-40.2,0.2C4894.7,431.1,4898.6,436.6,4899.9,443z M4926.4,610.1c-0.3,0-0.4,0-0.6,0.1
						c-7.3,3.4-14.6,6.7-21.9,10.1c-0.4,0.2-0.7,0.9-0.6,1.3c0.4,1.5,0.7,3.1,1.4,4.5c3.2,7.1,6.5,14.1,9.8,21.2
						c0.2,0.4,0.4,0.8,0.7,1.4c0.3-0.6,0.4-0.9,0.6-1.3c2.8-6.5,5.4-13.2,8.6-19.5C4927.3,622.1,4926.2,616.1,4926.4,610.1z
						 M4886.3,413.4c0.1,0.8,0,1.4,0.2,1.9c0.8,1.7,1.7,3.3,2.6,4.9c0.2,0.4,0.9,0.8,1.4,0.8c14.3,0,28.5-0.1,42.8-0.2
						c0.5,0,1.1-0.4,1.4-0.9c0.9-1.5,1.6-3.1,2.4-4.7c0.8-1.6,0.2-2.4-1.6-2.4c-2,0-4,0-6,0c-13.8,0.1-27.5,0.1-41.3,0.2
						C4887.7,413.1,4887.2,413.2,4886.3,413.4z M4932.1,572c-1.1-1.1-2.5-1.3-4.3-0.5c-6.2,2.9-12.4,5.7-18.6,8.6
						c-3.8,1.7-7.6,3.5-11.3,5.3c-1.9,0.9-2.7,2.6-1.9,4.4c0.8,1.8,2.7,2.4,4.7,1.5c6.3-2.9,12.5-5.8,18.8-8.7
						c3.8-1.8,7.7-3.5,11.5-5.3C4933.1,576.2,4933.6,573.7,4932.1,572z M4897.1,611.9c-1.3,1.3-1.4,3-0.6,4.3c1,1.5,2.6,1.8,4.5,1
						c10-4.6,20-9.2,30-13.9c2.1-1,2.9-2.8,2-4.6c-0.8-1.7-2.7-2.3-4.8-1.4c-10,4.6-19.9,9.2-29.9,13.8
						C4897.9,611.4,4897.4,611.7,4897.1,611.9z M4931.2,520.1c-1.1-1.1-2.4-1.3-4-0.5c-9.9,4.6-19.8,9.1-29.6,13.7
						c-2.4,1.1-3.3,2.8-2.4,4.7c0.9,1.9,2.8,2.3,5.2,1.2c0.1-0.1,0.2-0.1,0.4-0.2c5.2-2.4,10.4-4.8,15.6-7.2
						c4.6-2.1,9.2-4.2,13.7-6.4C4932.4,524.3,4932.9,521.7,4931.2,520.1z M4930.8,498.8c1-1.1,1.3-2.3,0.8-3.5
						c-0.7-1.9-2.7-2.6-4.8-1.6c-10,4.6-20,9.2-30,13.9c-2,0.9-2.8,2.7-2,4.5c0.8,1.8,2.8,2.4,4.8,1.4c10-4.6,20-9.2,30-13.9
						C4930.1,499.3,4930.5,499,4930.8,498.8z M4896.4,560c-1.3,1.3-1.4,2.9-0.6,4.2c0.9,1.5,2.7,1.9,4.6,1c7-3.2,14-6.5,21.1-9.7
						c3.1-1.4,6.2-2.8,9.3-4.3c1.7-0.8,2.3-2.7,1.5-4.3c-0.8-1.6-2.6-2.2-4.4-1.5c-0.2,0.1-0.5,0.2-0.7,0.3
						c-9.8,4.5-19.6,9.1-29.4,13.6C4897.1,559.5,4896.6,559.9,4896.4,560z M4901.8,526.5c0.2,0,0.3,0.1,0.3,0.1
						c7.4-3.4,14.8-6.8,22.2-10.2c0.3-0.1,0.6-0.6,0.6-0.9c0-3,0-6,0-9.3c-1.1,0.5-2,0.9-2.9,1.3c-6.4,3-12.8,5.9-19.2,8.9
						c-0.5,0.2-1.1,0.8-1.1,1.2C4901.7,520.5,4901.8,523.5,4901.8,526.5z M4925.7,558.1c-0.6,0.3-1,0.4-1.3,0.5
						c-6,2.8-12,5.6-18.1,8.3c-1.3,0.6-3,0.9-3.6,1.9c-0.6,1-0.2,2.7-0.2,4.1c0,1.8,0.1,3.6,0.1,5.6c7.7-3.5,15.1-7,22.5-10.5
						c0.3-0.1,0.6-0.5,0.6-0.7C4925.7,564.4,4925.7,561.3,4925.7,558.1z M4903,604.6c7.7-3.6,15.1-7,22.5-10.4
						c0.3-0.2,0.6-0.8,0.6-1.2c0-2,0-4-0.1-6c0-0.9-0.1-1.8-0.1-2.8c-7.6,3.5-15,7-22.4,10.4c-0.3,0.1-0.6,0.6-0.6,0.8
						C4902.9,598.3,4902.9,601.3,4903,604.6z M4925.3,532.1c-7.8,3.6-15.2,7-22.6,10.5c-0.3,0.1-0.7,0.5-0.7,0.8c0,3,0,6.1,0,9.1
						c0.3,0,0.4,0,0.5,0c7.4-3.4,14.7-6.8,22.1-10.2c0.3-0.1,0.6-0.6,0.6-0.9C4925.4,538.4,4925.4,535.4,4925.3,532.1z"/>
				</g>
				<path d="M5307,427.9c10.6,11.5,26.4,10.4,35.3-2.3c8.8-12.8,7.4-32.4-3.2-43.9c-10.6-11.5-26.4-10.4-35.3,2.3
					C5294.9,396.7,5296.4,416.4,5307,427.9z M5314.7,389.6c0.6-0.5,0.9,0.1,0.9,0.1s2.4,2.9,4.7,5.6c2.8,2.4,4.4,0.2,4.4,0.2
					s4.2-5.4,4.5-5.8c0.4-0.4,0.8,0.1,0.8,0.1l1.2,1.5c0,0,2.8,3.4,3.2,3.9c0.3,0.6,0.1,1.1,0.1,1.1s-2.6,3.2-4.3,5.8
					c-1.6,2.7,0.2,5.6,0.2,5.6l2.5,3c0,0,2,2.3,2.4,2.9c0.3,0.7,0,1.1,0,1.1s-3.5,4.6-3.9,5.2c-0.4,0.6-1.1,0.1-1.1,0.1
					s-2.8-3.5-4.8-5.8c-2.2-2.1-4.4,0.1-4.4,0.1s-3.9,5.1-4.3,5.6c-0.6,0.2-0.8-0.1-0.8-0.1s-3.6-4.3-4.2-5.1
					c-0.7-0.8-0.2-1.5-0.2-1.5l3.4-4.5c2.5-3.2,0.7-6.4,0.7-6.4l-4.8-5.8c0,0-0.5-0.6-0.3-1.3
					C5310.8,394.9,5314.1,390.3,5314.7,389.6z"/>
				<path d="M5306.9,1070.5c10.6,11.5,26.4,10.4,35.3-2.3c8.8-12.8,7.4-32.4-3.2-43.9s-26.4-10.4-35.3,2.3
					C5294.8,1039.3,5296.2,1059,5306.9,1070.5z M5314.6,1032.2c0.6-0.5,0.9,0.1,0.9,0.1s2.4,2.9,4.7,5.6c2.8,2.4,4.4,0.2,4.4,0.2
					s4.2-5.4,4.5-5.8c0.4-0.4,0.8,0.1,0.8,0.1l1.2,1.5c0,0,2.8,3.4,3.2,3.9c0.3,0.6,0.1,1.1,0.1,1.1s-2.6,3.2-4.3,5.8
					c-1.6,2.7,0.2,5.6,0.2,5.6l2.5,3c0,0,2,2.3,2.4,2.9c0.3,0.7,0,1.1,0,1.1s-3.5,4.6-3.9,5.2c-0.4,0.6-1.1,0.1-1.1,0.1
					s-2.8-3.5-4.8-5.8c-2.2-2.1-4.4,0.1-4.4,0.1s-3.9,5.1-4.3,5.6c-0.6,0.2-0.8-0.1-0.8-0.1s-3.6-4.3-4.2-5.1
					c-0.7-0.8-0.2-1.5-0.2-1.5l3.4-4.5c2.5-3.2,0.7-6.4,0.7-6.4l-4.8-5.8c0,0-0.5-0.6-0.3-1.3
					C5310.6,1037.5,5314,1032.9,5314.6,1032.2z"/>
				<path d="M5307.3,1890.7c10.6,11.5,26.4,10.4,35.3-2.3c8.8-12.8,7.4-32.4-3.2-43.9s-26.4-10.4-35.3,2.3
					C5295.2,1859.6,5296.7,1879.2,5307.3,1890.7z M5315,1852.5c0.6-0.5,0.9,0.1,0.9,0.1s2.4,2.9,4.7,5.6c2.8,2.4,4.4,0.2,4.4,0.2
					s4.2-5.4,4.5-5.8c0.4-0.4,0.8,0.1,0.8,0.1l1.2,1.5c0,0,2.8,3.4,3.2,3.9c0.3,0.6,0.1,1.1,0.1,1.1s-2.6,3.2-4.3,5.8
					c-1.6,2.7,0.2,5.6,0.2,5.6l2.5,3c0,0,2,2.3,2.4,2.9c0.3,0.7,0,1.1,0,1.1s-3.5,4.6-3.9,5.2s-1.1,0.1-1.1,0.1s-2.8-3.5-4.8-5.8
					c-2.2-2.1-4.4,0.1-4.4,0.1s-3.9,5.1-4.3,5.6c-0.6,0.2-0.8-0.1-0.8-0.1s-3.6-4.3-4.2-5.1c-0.7-0.8-0.2-1.5-0.2-1.5l3.4-4.5
					c2.5-3.2,0.7-6.4,0.7-6.4l-4.8-5.8c0,0-0.5-0.6-0.3-1.3C5311,1857.7,5314.4,1853.1,5315,1852.5z"/>
			</g>
			<g id="TORNILLERIA-TABLITA-DELANTERA_00000141422633092608105890000004158291899623213476_">
				<circle id="_x32__00000036969159195574747430000016283897089197205677_" class="st9" cx="1151.3" cy="510.1" r="163.5"/>
				<g>
					<g>
						<path d="M1109.5,573c-3.7,0-7.2-0.5-10.5-1.4c-3.3-0.9-6.2-2.1-8.5-3.7c-2.4-1.5-4.1-3.2-5.1-4.9l3.6-21.3l5.4,0.9l0.8,16.5
							c1.2,2.2,3.3,4.1,6.3,5.7c2.9,1.7,6.1,2.5,9.5,2.5c4.1,0,7.7-0.8,10.9-2.6c3.1-1.7,5.6-4.1,7.3-7.2c1.7-3.1,2.6-6.8,2.6-10.9
							c0-4-1.2-7.7-3.5-10.9c-2.3-3.2-5.6-5.7-9.8-7.5c-4.2-1.8-8.8-2.8-13.9-2.9l-0.5-4c6.2-2.8,11.7-6.2,16.6-10.3
							c4.9-4.1,7.3-9.4,7.3-16c0-2.8-0.6-5.5-1.7-8.1c-1.1-2.6-2.8-4.7-5-6.3c-2.2-1.6-4.9-2.4-8.1-2.4c-5.3,0-9.9,2.2-13.7,6.5
							l-3.5,18.1l-5.2-0.9l-0.6-20.1c2.5-2.4,6.1-4.6,11-6.6c4.8-2,10.2-3,16.1-3c4.5,0,8.6,0.8,12.3,2.5c3.7,1.7,6.6,4,8.7,7.1
							c2.1,3.1,3.2,6.7,3.2,10.8c0,4.1-1.1,7.9-3.2,11.3c-2.2,3.4-4.9,6.3-8.2,8.7c-3.3,2.4-6.8,4.2-10.4,5.6v0.8
							c4.9,0.7,9.2,2.1,13.1,4.1c3.9,2.1,6.9,4.7,9.1,8c2.2,3.3,3.3,7,3.3,11.2c0,5.7-1.7,10.9-5,15.6c-3.3,4.7-7.7,8.3-13.2,11
							C1121.5,571.7,1115.7,573,1109.5,573z"/>
					</g>
					<path id="TORN_00000180347863807212881250000014677059989529039764_" d="M1204.5,559c2.7,0.3,4.7,1.3,6.1,3.5
						c2.2,3.6,1.1,8.1-2.6,10.2c-0.1,0.1-0.2,0.2-0.3,0.2c-2.7,0.6-3.2,2.3-2.9,4.8c0.2,2.3,0.1,4.7,0.1,7.1
						c0.5,0.1,0.9,0.2,1.4,0.3c3,0.7,5.2,3,5.8,6c0.5,2.9-0.9,5.8-3.4,7.4c-0.1,0.1-0.3,0.2-0.5,0.3c-2.7,0.6-3.2,2.4-3,4.9
						c0.3,2.6,0.1,5.3,0.2,8c0,2.8-0.5,5.4-1.6,7.9c-3.6,8.3-7.1,16.5-10.6,24.8c-0.5,1.3-1.3,2.3-2.8,2.3c-1.6,0-2.4-1-3-2.3
						c-3.8-8.3-7.7-16.7-11.5-25c-0.8-1.7-1.2-3.6-1.8-5.4c-1.1-0.4-2.4-0.7-3.5-1.4c-2.4-1.4-3.5-3.6-3.5-6.4
						c0-2.8,1.3-5.2,3.9-6.2c2.7-1,3.3-2.6,3-5.2c-0.3-2.3-0.1-4.6-0.1-7c-2.5-0.3-4.5-1.2-5.9-3.3c-2.5-3.7-1.3-8.9,2.9-10.6
						c2.4-1,3-2.3,2.8-4.7c-0.2-2.4-0.1-4.9-0.1-6.9c-1.8-0.9-3.4-1.4-4.6-2.3c-4.1-3.4-3.4-9.8,1.3-11.9c2.6-1.1,3.2-2.5,3-5.1
						c-0.2-2.3-0.1-4.6-0.1-6.7c-1.6-0.7-3-1.1-4.2-1.9c-4.4-3.1-4-9.6,0.6-12.2c0.2-0.1,0.3-0.2,0.5-0.2c2.6-0.5,3-2.2,2.8-4.6
						c-0.2-2.3-0.1-4.6-0.2-6.8c0-0.1,0-0.3-0.1-0.5c-0.3-0.1-0.7-0.2-1.1-0.2c-3.1-0.6-5.4-2.9-5.9-6c-0.5-3,0.9-5.9,3.5-7.5
						c0.2-0.1,0.3-0.2,0.5-0.2c2.6-0.6,2.9-2.2,2.9-4.7c-0.4-16.2-0.6-32.3-0.7-48.5c-0.1-5.5-1.3-10.6-3.9-15.4
						c-3.2-6-6.4-12-9.6-18.1c-2.3-4.3,0.1-8.3,4.9-8.4c15.7-0.1,31.4-0.2,47-0.2c4.9,0,7.4,4,5.2,8.4c-3.3,6.7-6.6,13.3-9.8,19.9
						c-1.8,3.7-2.7,7.7-2.6,11.8c0.1,13.2,0.3,26.5,0.5,39.7c0,0.1,0,0.2,0.1,0.4c0.3,0.1,0.7,0.2,1.1,0.2c3.1,0.6,5.4,2.9,5.9,6
						c0.5,3-0.8,5.9-3.5,7.5c-0.2,0.1-0.4,0.3-0.7,0.4c-2.3,0.5-2.9,2-2.7,4.3c0.3,2.5,0.1,5,0.1,7.4c1.3,0.5,2.7,0.8,3.8,1.5
						c4.6,2.9,4.6,9.5-0.1,12.4c-0.2,0.1-0.4,0.3-0.6,0.3c-2.6,0.6-3.1,2.3-2.9,4.7c0.3,2.4,0.1,4.8,0.1,6.8c1.8,1,3.6,1.5,4.8,2.6
						c3.8,3.3,3.1,9.6-1.6,11.7c-2.7,1.2-3.3,2.7-3,5.3C1204.6,554.5,1204.5,556.7,1204.5,559z M1176,439.6
						c0.2,17.8,0.4,35.5,0.7,53.3c0.5-0.2,1-0.4,1.5-0.7c6.6-3.1,13.1-6.1,19.7-9.1c1.1-0.5,1.5-1.1,1.5-2.3
						c-0.2-11.9-0.4-23.7-0.5-35.6c0-1.9-0.2-3.8-0.3-5.7C1191,439.5,1183.4,439.5,1176,439.6z M1174.9,435.2c8.3,0,16.4,0,24.2-0.1
						c1.2-3.1,2.2-6.2,3.5-9.2c1.3-3,2.8-5.8,4.2-8.6c-13.4,0.1-26.6,0.1-39.9,0.2C1169.8,423.4,1173.6,428.8,1174.9,435.2z
						 M1201.1,602.3c-0.3,0-0.4,0-0.5,0.1c-7.2,3.4-14.5,6.7-21.7,10.1c-0.3,0.2-0.7,0.9-0.6,1.3c0.4,1.5,0.7,3.1,1.4,4.5
						c3.2,7.1,6.5,14.1,9.7,21.2c0.2,0.4,0.4,0.8,0.7,1.4c0.3-0.6,0.4-0.9,0.6-1.3c2.8-6.5,5.4-13.2,8.5-19.5
						C1202.1,614.3,1200.9,608.3,1201.1,602.3z M1161.4,405.6c0.1,0.8,0,1.4,0.2,1.9c0.8,1.7,1.6,3.3,2.6,4.9
						c0.2,0.4,0.9,0.8,1.4,0.8c14.1,0,28.3-0.1,42.4-0.2c0.5,0,1.1-0.4,1.4-0.9c0.9-1.5,1.6-3.1,2.4-4.7c0.8-1.6,0.2-2.4-1.6-2.4
						c-2,0-3.9,0-5.9,0c-13.7,0.1-27.3,0.1-41,0.2C1162.8,405.3,1162.2,405.5,1161.4,405.6z M1206.8,564.2c-1.1-1.1-2.5-1.3-4.2-0.5
						c-6.2,2.9-12.3,5.7-18.5,8.6c-3.8,1.7-7.5,3.5-11.3,5.3c-1.9,0.9-2.7,2.6-1.9,4.4c0.8,1.8,2.7,2.4,4.7,1.5
						c6.2-2.9,12.4-5.8,18.6-8.7c3.8-1.8,7.6-3.5,11.4-5.3C1207.8,568.4,1208.3,565.9,1206.8,564.2z M1172.1,604.1
						c-1.3,1.3-1.4,3-0.6,4.3c1,1.5,2.6,1.8,4.4,1c9.9-4.6,19.8-9.2,29.7-13.9c2.1-1,2.8-2.8,2-4.6c-0.8-1.7-2.7-2.3-4.7-1.4
						c-9.9,4.6-19.7,9.2-29.6,13.8C1172.9,603.6,1172.4,603.9,1172.1,604.1z M1206,512.3c-1.1-1.1-2.4-1.3-4-0.5
						c-9.8,4.6-19.6,9.1-29.4,13.7c-2.4,1.1-3.3,2.8-2.4,4.7c0.9,1.9,2.8,2.3,5.2,1.2c0.1-0.1,0.2-0.1,0.4-0.2
						c5.2-2.4,10.3-4.8,15.5-7.2c4.5-2.1,9.1-4.2,13.6-6.4C1207.1,516.5,1207.6,513.9,1206,512.3z M1205.5,491
						c1-1.1,1.3-2.3,0.8-3.5c-0.7-1.9-2.7-2.6-4.8-1.6c-9.9,4.6-19.8,9.2-29.7,13.9c-2,0.9-2.8,2.7-2,4.5c0.8,1.8,2.7,2.4,4.8,1.4
						c9.9-4.6,19.8-9.2,29.7-13.9C1204.8,491.5,1205.2,491.2,1205.5,491z M1171.4,552.2c-1.2,1.3-1.4,2.9-0.6,4.2
						c0.9,1.5,2.7,1.9,4.5,1c7-3.2,13.9-6.5,20.9-9.7c3.1-1.4,6.2-2.8,9.2-4.3c1.7-0.8,2.3-2.7,1.5-4.3c-0.8-1.6-2.6-2.2-4.4-1.5
						c-0.2,0.1-0.5,0.2-0.7,0.3c-9.7,4.5-19.5,9.1-29.2,13.6C1172.1,551.8,1171.6,552.1,1171.4,552.2z M1176.8,518.7
						c0.2,0,0.3,0.1,0.3,0.1c7.4-3.4,14.7-6.8,22-10.2c0.3-0.1,0.6-0.6,0.6-0.9c0-3,0-6,0-9.3c-1.1,0.5-2,0.9-2.9,1.3
						c-6.4,3-12.7,5.9-19.1,8.9c-0.5,0.2-1.1,0.8-1.1,1.2C1176.7,512.8,1176.7,515.7,1176.8,518.7z M1200.4,550.3
						c-0.6,0.3-1,0.4-1.3,0.5c-6,2.8-11.9,5.6-17.9,8.3c-1.3,0.6-3,0.9-3.6,1.9c-0.6,1-0.2,2.7-0.2,4.1c0,1.8,0.1,3.6,0.1,5.6
						c7.6-3.5,15-7,22.4-10.5c0.3-0.1,0.6-0.5,0.6-0.7C1200.5,556.6,1200.5,553.6,1200.4,550.3z M1177.9,596.8
						c7.6-3.6,15-7,22.3-10.4c0.3-0.2,0.6-0.8,0.6-1.2c0-2,0-4-0.1-6c0-0.9-0.1-1.8-0.1-2.8c-7.6,3.5-14.9,7-22.3,10.4
						c-0.3,0.1-0.6,0.6-0.6,0.8C1177.8,590.5,1177.9,593.5,1177.9,596.8z M1200.1,524.3c-7.7,3.6-15.1,7-22.4,10.5
						c-0.3,0.1-0.7,0.5-0.7,0.8c0,3,0,6.1,0,9.1c0.3,0,0.4,0,0.5,0c7.3-3.4,14.6-6.8,21.9-10.2c0.3-0.1,0.6-0.6,0.6-0.9
						C1200.1,530.6,1200.1,527.6,1200.1,524.3z"/>
				</g>
			</g>
		</g>
		<g id="TABLITA-TRASERA-ESCONDIDA">
			<polygon class="st8" points="385,1961 326,1961 326.2,235.2 385.2,251.2 			"/>
			<polygon class="st8" points="326.5,1958.5 230.5,1934.5 230.2,210.2 326.2,235.2 			"/>
		</g>
	</g>
	<g id="LATERAL-IZQUIERDA">
		<rect x="666" y="319.7" class="st0" width="90" height="1720"/>
		<polygon class="st0" points="667.1,2040.7 201,1925.7 202.1,198.2 667.1,319.7 		"/>
	</g>
	<line class="st10" x1="759" y1="419.8" x2="1019.3" y2="419.8"/>
	<polyline class="st10" points="1154.7,674.1 1154.7,1034 947.2,1034 767.3,1034 767.3,1034.3 	"/>
	<line class="st11" x1="4986.9" y1="396.1" x2="5298.3" y2="395.9"/>
	<polyline class="st11" points="4831.6,672.4 4831.6,1053.7 5297.6,1053.7 	"/>
	<line class="st11" x1="2380.1" y1="435.5" x2="3085.1" y2="431.3"/>
	<polyline class="st11" points="2232.8,678.7 2232.8,1060 2698.8,1060 3102.7,1060 3102.7,1203.3 	"/>
</g>
</svg>
