<?xml version="1.0" encoding="utf-8"?>
<!-- Generator: Adobe Illustrator 26.5.0, SVG Export Plug-In . SVG Version: 6.00 Build 0)  -->
<svg version="1.1" xmlns="http://www.w3.org/2000/svg" xmlns:xlink="http://www.w3.org/1999/xlink" x="0px" y="0px"
	 viewBox="0 0 6248 2947" style="enable-background:new 0 0 6248 2947;" xml:space="preserve">
<style type="text/css">
	.st0{fill:none;stroke:#000000;stroke-width:63.5619;stroke-miterlimit:10;}
</style>
<g id="CIRCULOS-SELECCION4">
</g>
<g id="CLOSET">
	<g id="LATERAL-DERECHA">
	</g>
	<g id="BASE">
	</g>
	<g id="DIVISIONES-VERTICALES">
		<g id="DIVISION-VERTICAL-DERECHA">
		</g>
		<g id="DIVISION-CENTRAL">
		</g>
		<g id="DIVISION-VERTICAL-IZQUIERDA_00000085229740836627909760000005526871516412138418_">
		</g>
	</g>
	<g id="DIVISIONES-HORIZONTALES">
	</g>
	<g id="LATERAL-IZQUIERDA">
	</g>
	<g id="TECHO">
	</g>
	<g id="SOPORTES-COOK">
	</g>
</g>
<g id="TABLITAS-TRASERAS">
</g>
<g id="TRIPLEX_00000062169277959621118470000012963048032068378272_">
</g>
<g id="PUNTILLAS">
</g>
<g id="SOPORTE-MUEBLE">
	
		<image style="display:none;overflow:visible;" width="500" height="428" xlink:href="F63BF6EB.jpg"  transform="matrix(-2.8056 3.1786 -3.1786 -2.8056 6512.9644 1191.9578)">
	</image>
	<g>
		<path d="M3110.2,711.6c14.8,0,28.8,3.1,42.2,9.2c13.4,6.1,25.2,14.5,35.4,25.2c10.2,10.7,18.3,23.3,24.3,37.8
			c6,14.5,9,30.2,9,47.2c0,17.5-3,33.7-9,48.6c-6,14.9-14.2,27.9-24.4,38.8c-10.3,10.9-22.3,19.5-36.1,25.7
			c-13.8,6.2-28.5,9.3-44.1,9.3c-15.8,0-30.5-3-44.3-8.9c-13.7-5.9-25.7-14.3-35.7-25.1c-10.1-10.8-18.1-23.6-23.9-38.5
			c-5.9-14.9-8.8-31.4-8.8-49.4c0-16.6,2.9-32.2,8.8-46.8c5.9-14.6,13.9-27.3,24.2-38c10.3-10.8,22.4-19.3,36.5-25.6
			C3078.3,714.7,3093.6,711.6,3110.2,711.6z M3106.9,724c-11.7,0-22.1,2.5-31.2,7.5c-9.1,5-16.7,12.1-22.9,21.4
			c-6.2,9.2-10.9,20.4-14.1,33.6c-3.2,13.1-4.8,27.9-4.8,44.4c0,16.3,1.6,31.2,4.7,44.7c3.1,13.5,7.8,25.1,14,34.9
			c6.2,9.8,13.9,17.3,23,22.6c9.2,5.3,19.7,8,31.5,8c10.7,0,20.6-2,29.6-6.1c9.1-4.1,17-10.4,23.8-19c6.8-8.6,12.1-19.5,15.9-32.8
			c3.8-13.3,5.7-29.2,5.7-47.7c0-17.5-1.6-33.1-4.7-46.9c-3.1-13.8-7.9-25.5-14.2-35.1c-6.4-9.6-14.2-16.9-23.7-21.9
			C3130.2,726.5,3119.3,724,3106.9,724z"/>
		<path d="M3306.1,729.4v90.8h42c4.9,0,9.1-0.5,12.6-1.4c3.5-0.9,6.4-2.6,8.8-5c2.4-2.4,4.2-5.6,5.6-9.7c1.4-4.1,2.5-9.2,3.3-15.5
			h6.4v78.1h-6.4c-0.2-5.8-0.8-10.7-1.8-14.8c-1-4.1-2.7-7.4-5-10c-2.3-2.6-5.3-4.5-9.2-5.7c-3.8-1.2-8.6-1.8-14.4-1.8h-42V907
			c0,5.4,0.1,9.8,0.3,13.2c0.2,3.4,0.6,6.2,1.3,8.4c0.7,2.2,1.7,3.9,2.9,5.2c1.3,1.3,2.9,2.5,5,3.7c4.7,2.7,9.9,4.1,15.5,4.1h8.4
			v6.4h-99.2v-6.4h8.1c4.1,0,7.7-0.3,10.8-0.9c3.1-0.6,5.7-2,7.8-4.3c2-2.3,3.6-5.8,4.7-10.4c1.1-4.7,1.7-11,1.7-19V757.6
			c0-5.3-0.1-9.6-0.4-13.1c-0.3-3.5-0.7-6.3-1.3-8.5c-0.6-2.2-1.5-4-2.7-5.3c-1.2-1.4-2.8-2.5-4.8-3.6c-2.5-1.4-5.1-2.4-7.6-3.1
			c-2.5-0.7-5.3-1-8.1-1h-8.1v-6.4h172v50.9h-3.8c-2.2-8.3-4.7-15-7.5-20c-2.8-5-6.2-8.9-10.2-11.6c-4-2.7-8.7-4.5-14.1-5.3
			c-5.4-0.8-12-1.3-19.6-1.3H3306.1z"/>
		<path d="M3672.5,712.1v6.4c-7.6,0.9-14.4,1.9-20.2,3.2c-5.9,1.3-11.3,3.1-16.3,5.3c-5,2.3-9.8,5.1-14.2,8.5
			c-4.5,3.4-9.2,7.5-14.1,12.2c-9.5,9.3-17.2,19.6-23.2,30.9c-5.9,11.3-10.9,24.7-15,40.3c16.5-11.4,32.8-17,49.1-17
			c7.8,0,15.3,1.7,22.4,5.1c7.1,3.4,13.4,8.1,18.7,14.1c5.3,6,9.6,13.2,12.7,21.6c3.1,8.4,4.7,17.5,4.7,27.3
			c0,10.9-1.9,21.2-5.6,31.2c-3.7,9.9-8.9,18.6-15.5,26.1c-6.6,7.5-14.4,13.4-23.4,17.9c-9,4.5-18.7,6.7-29,6.7
			c-11.5,0-21.8-2.8-30.8-8.5c-9-5.7-16.6-13-22.8-22c-6.2-9-10.9-19.1-14.1-30.4c-3.2-11.3-4.8-22.5-4.8-33.7
			c0-20.9,4.1-40.6,12.3-59.2c8.2-18.6,20.1-35.1,35.5-49.5c7.8-7.3,15.4-13.3,22.9-18.1c7.5-4.7,14.7-8.5,21.8-11.2
			c7-2.7,13.8-4.6,20.4-5.7c6.5-1.1,12.8-1.7,18.7-1.7H3672.5z M3566.4,831.4c-2,15.3-3.1,27.6-3.1,37.1c0,7.1,0.9,15,2.8,23.7
			c1.9,8.7,4.7,16.7,8.4,24.2c3.7,7.5,8.4,13.7,14.1,18.7c5.7,5,12.3,7.5,20,7.5c4.9,0,9.7-1.2,14.2-3.6c4.6-2.4,8.6-5.9,12.2-10.4
			c3.6-4.6,6.4-10.2,8.5-16.9c2.1-6.7,3.2-14.4,3.2-23c0-9.5-1-18.6-2.9-27.2c-2-8.7-4.8-16.3-8.5-22.9c-3.7-6.6-8.4-11.9-14-15.8
			c-5.6-3.9-12-5.9-19.1-5.9c-2.4,0-4.6,0.2-6.7,0.5c-2.1,0.3-4.5,1-7.1,2c-2.6,1-5.7,2.5-9.2,4.5
			C3575.8,825.9,3571.5,828.4,3566.4,831.4z"/>
		<path d="M3920.5,947.9l-89.3-194.4V908c0,8,0.5,14.2,1.7,18.7c1.1,4.5,2.7,7.8,4.8,10c2.1,2.2,4.7,3.6,7.8,4.1
			c3.1,0.5,6.5,0.8,10.4,0.8h8.1v6.4h-80.4v-6.4h8.1c4.1,0,7.6-0.3,10.7-0.9c3.1-0.6,5.6-2,7.6-4.3c2-2.3,3.6-5.7,4.6-10.2
			c1-4.5,1.5-10.6,1.5-18.2V756.9c0-5.4-0.3-10.2-0.8-14.4c-0.5-4.2-1.8-7.7-3.9-10.6c-2.1-2.9-5.3-5.1-9.7-6.6s-10.4-2.3-18.2-2.3
			v-6.4h65.4l84,180.9l82.4-180.9h65.4v6.4h-7.9c-4.2,0-7.9,0.3-10.9,1c-3.1,0.7-5.6,2.2-7.6,4.5c-2,2.3-3.6,5.7-4.6,10.2
			c-1,4.5-1.5,10.6-1.5,18.2V908c0,8,0.5,14.2,1.7,18.7c1.1,4.5,2.7,7.8,4.8,10c2.1,2.2,4.7,3.6,7.8,4.1s6.5,0.8,10.4,0.8h7.9v6.4
			h-98.2v-6.4h8.1c4.1,0,7.6-0.3,10.7-1c3.1-0.7,5.6-2.2,7.8-4.5c2.1-2.3,3.7-5.6,4.7-10c1-4.4,1.5-10.4,1.5-18.1V753.6l-89,194.4
			H3920.5z"/>
		<path d="M4230.9,947.9l-89.3-194.4V908c0,8,0.5,14.2,1.7,18.7c1.1,4.5,2.7,7.8,4.8,10c2.1,2.2,4.7,3.6,7.8,4.1
			c3.1,0.5,6.5,0.8,10.4,0.8h8.1v6.4h-80.4v-6.4h8.1c4.1,0,7.6-0.3,10.7-0.9c3.1-0.6,5.6-2,7.6-4.3c2-2.3,3.6-5.7,4.6-10.2
			c1-4.5,1.5-10.6,1.5-18.2V756.9c0-5.4-0.3-10.2-0.8-14.4c-0.5-4.2-1.8-7.7-3.9-10.6c-2.1-2.9-5.3-5.1-9.7-6.6s-10.4-2.3-18.2-2.3
			v-6.4h65.4l84,180.9l82.4-180.9h65.4v6.4h-7.9c-4.2,0-7.9,0.3-10.9,1c-3.1,0.7-5.6,2.2-7.6,4.5c-2,2.3-3.6,5.7-4.6,10.2
			c-1,4.5-1.5,10.6-1.5,18.2V908c0,8,0.5,14.2,1.7,18.7c1.1,4.5,2.7,7.8,4.8,10c2.1,2.2,4.7,3.6,7.8,4.1s6.5,0.8,10.4,0.8h7.9v6.4
			H4293v-6.4h8.1c4.1,0,7.6-0.3,10.7-1c3.1-0.7,5.6-2.2,7.8-4.5c2.1-2.3,3.7-5.6,4.7-10c1-4.4,1.5-10.4,1.5-18.1V753.6l-89,194.4
			H4230.9z"/>
		<path d="M4557.3,839.8V907c0,14.8,1.6,23.8,4.8,27.2c4.4,4.9,10.9,7.4,19.6,7.4h8.9v6.4h-99v-6.4h8.7c9.7,0,16.6-3.1,20.9-9.4
			c2.4-3.7,3.6-12.1,3.6-25.2V757.6c0-14.4-1.5-23.4-4.6-27c-4.6-5.1-11.2-7.6-19.8-7.6h-8.7v-6.4h84.7c20.4,0,36.6,2.2,48.8,6.6
			c5.9,2,11.5,4.9,16.7,8.5c5.2,3.6,9.7,8,13.5,13c3.8,5,6.8,10.5,9,16.5c2.2,6,3.3,12.5,3.3,19.5c0,9.3-1.6,17.9-4.8,25.7
			c-3.2,7.8-7.9,14.5-14,20.1c-6.1,5.6-13.6,10-22.4,13.1c-8.8,3.1-18.9,4.7-30.3,4.7C4585.2,844.4,4572.3,842.9,4557.3,839.8z
			 M4557.3,829.9c6.1,1.2,11.4,2.1,16,2.7c4.6,0.6,8.6,0.9,12,0.9c5.9,0,11.5-1.2,16.8-3.7c5.3-2.5,9.9-5.9,13.9-10.2
			c4-4.3,7.1-9.5,9.4-15.6c2.3-6.1,3.4-12.7,3.4-19.8c0-8.5-1.3-16-3.8-22.6c-2.5-6.6-6-12.2-10.4-16.8c-4.4-4.6-9.6-8.1-15.5-10.4
			c-5.9-2.4-12.4-3.6-19.3-3.6c-5.8,0-13.2,1-22.4,3.1V829.9z"/>
		<path d="M4751.7,824h107.4v-66.1c0-5.4-0.1-9.9-0.3-13.4c-0.2-3.5-0.6-6.3-1.3-8.5c-0.7-2.2-1.7-3.9-2.9-5.2
			c-1.3-1.3-2.9-2.5-5-3.7c-4.8-2.7-9.9-4.1-15.5-4.1h-8.1v-6.4h99v6.4h-8.1c-2.2,0-4.5,0.3-7,0.8c-2.5,0.5-4.8,1.3-6.9,2.3
			c-2.1,1-4,2.3-5.7,3.8c-1.7,1.5-2.9,3.3-3.6,5.3c-1.2,3.6-1.8,11.1-1.8,22.6V907c0,5.4,0.1,9.8,0.4,13.2c0.3,3.4,0.7,6.2,1.3,8.4
			c0.6,2.2,1.5,3.9,2.7,5.2c1.2,1.3,2.8,2.5,4.8,3.7c4.7,2.7,10,4.1,15.8,4.1h8.1v6.4h-99v-6.4h8.1c3.9,0,7.4-0.3,10.4-0.9
			c3.1-0.6,5.7-2,7.9-4.3c2.2-2.3,3.9-5.8,5-10.4c1.1-4.7,1.7-11,1.7-19v-70.5h-107.4V907c0,5.4,0.1,9.8,0.3,13.2
			c0.2,3.4,0.6,6.2,1.3,8.4c0.7,2.2,1.7,3.9,2.9,5.2s2.9,2.5,5,3.7c4.7,2.7,9.9,4.1,15.5,4.1h8.4v6.4h-99.2v-6.4h8.4
			c9.3,0,16.2-2.8,20.6-8.4c2.7-3.4,4.1-12.1,4.1-26.2V757.9c0-5.6-0.1-10.1-0.3-13.6c-0.2-3.5-0.6-6.3-1.3-8.4
			c-0.7-2.1-1.6-3.8-2.8-5.1c-1.2-1.3-2.8-2.5-4.8-3.7c-4.8-2.7-9.9-4.1-15.5-4.1h-8.4v-6.4h99.2v6.4h-8.4c-2,0-4.3,0.3-6.7,0.8
			c-2.5,0.5-4.8,1.3-6.9,2.3c-2.1,1-4,2.3-5.7,3.8c-1.7,1.5-2.9,3.3-3.6,5.3c-1.4,4.1-2,11.6-2,22.6V824z"/>
		<path d="M5039.7,941.6v6.4h-99v-6.4h8.1c4.1,0,7.7-0.3,10.8-0.9c3.1-0.6,5.7-2,7.8-4.3c2-2.3,3.6-5.8,4.7-10.4
			c1.1-4.7,1.7-11,1.7-19V757.6c0-5.3-0.1-9.6-0.4-13.1c-0.3-3.5-0.7-6.3-1.3-8.5c-0.6-2.2-1.5-3.9-2.7-5.2
			c-1.2-1.3-2.8-2.5-4.8-3.7c-5.1-2.7-10.3-4.1-15.8-4.1h-8.1v-6.4h99v6.4h-8.1c-4.1,0-7.7,0.3-10.8,1c-3.1,0.7-5.7,2.2-7.8,4.5
			c-2,2.3-3.6,5.8-4.7,10.4c-1.1,4.7-1.7,10.9-1.7,18.7V907c0,5.4,0.1,9.8,0.3,13.2c0.2,3.4,0.6,6.2,1.3,8.4
			c0.7,2.2,1.7,3.9,2.9,5.2c1.3,1.3,2.9,2.5,5,3.7c4.7,2.7,9.9,4.1,15.5,4.1H5039.7z"/>
		<path d="M5248.6,884.1l5.6,1l-19.8,62.8h-179.1v-6.4h8.9c9.5,0,16.5-3.1,20.9-9.4c2.4-3.7,3.6-12.1,3.6-25.2V757.6
			c0-14.2-1.6-23.2-4.8-27c-4.4-5.1-10.9-7.6-19.6-7.6h-8.9v-6.4h104.8v6.4c-6.3,0-11.5,0.3-15.6,0.9c-4.2,0.6-7.6,1.4-10.3,2.5
			c-2.7,1.1-4.8,2.4-6.4,3.9c-1.5,1.5-2.8,3.2-3.8,5.1c-1.7,3.4-2.5,12.1-2.5,26.2V907c0,8,0.6,13.7,1.8,17.3c1.2,3.6,3.6,6,7.1,7.4
			c3.1,1,12,1.5,26.7,1.5h16.8c17.8,0,30.3-1.3,37.4-3.8c3.6-1.2,7-2.9,10.2-5.1c3.2-2.2,6.4-5.1,9.4-8.7c3.1-3.6,6-7.9,8.9-13
			C5242.6,897.6,5245.5,891.4,5248.6,884.1z"/>
		<path d="M5461.8,884.1l5.6,1l-19.8,62.8h-179.1v-6.4h8.9c9.5,0,16.5-3.1,20.9-9.4c2.4-3.7,3.6-12.1,3.6-25.2V757.6
			c0-14.2-1.6-23.2-4.8-27c-4.4-5.1-10.9-7.6-19.6-7.6h-8.9v-6.4h104.8v6.4c-6.3,0-11.5,0.3-15.6,0.9c-4.2,0.6-7.6,1.4-10.3,2.5
			c-2.7,1.1-4.8,2.4-6.4,3.9c-1.5,1.5-2.8,3.2-3.8,5.1c-1.7,3.4-2.5,12.1-2.5,26.2V907c0,8,0.6,13.7,1.8,17.3c1.2,3.6,3.6,6,7.1,7.4
			c3.1,1,12,1.5,26.7,1.5h16.8c17.8,0,30.3-1.3,37.4-3.8c3.6-1.2,7-2.9,10.2-5.1c3.2-2.2,6.4-5.1,9.4-8.7c3.1-3.6,6-7.9,8.9-13
			C5455.8,897.6,5458.7,891.4,5461.8,884.1z"/>
		<path d="M5582.4,941.6v6.4h-99v-6.4h8.1c4.1,0,7.7-0.3,10.8-0.9c3.1-0.6,5.7-2,7.8-4.3c2-2.3,3.6-5.8,4.7-10.4
			c1.1-4.7,1.7-11,1.7-19V757.6c0-5.3-0.1-9.6-0.4-13.1c-0.3-3.5-0.7-6.3-1.3-8.5c-0.6-2.2-1.5-3.9-2.7-5.2
			c-1.2-1.3-2.8-2.5-4.8-3.7c-5.1-2.7-10.3-4.1-15.8-4.1h-8.1v-6.4h99v6.4h-8.1c-4.1,0-7.7,0.3-10.8,1c-3.1,0.7-5.7,2.2-7.8,4.5
			c-2,2.3-3.6,5.8-4.7,10.4c-1.1,4.7-1.7,10.9-1.7,18.7V907c0,5.4,0.1,9.8,0.3,13.2c0.2,3.4,0.6,6.2,1.3,8.4
			c0.7,2.2,1.7,3.9,2.9,5.2c1.3,1.3,2.9,2.5,5,3.7c4.7,2.7,9.9,4.1,15.5,4.1H5582.4z"/>
		<path d="M5662.5,839.8V907c0,14.8,1.6,23.8,4.8,27.2c4.4,4.9,10.9,7.4,19.6,7.4h8.9v6.4h-99v-6.4h8.7c9.7,0,16.6-3.1,20.9-9.4
			c2.4-3.7,3.6-12.1,3.6-25.2V757.6c0-14.4-1.5-23.4-4.6-27c-4.6-5.1-11.2-7.6-19.8-7.6h-8.7v-6.4h84.7c20.4,0,36.6,2.2,48.8,6.6
			c5.9,2,11.5,4.9,16.7,8.5c5.2,3.6,9.7,8,13.5,13c3.8,5,6.8,10.5,9,16.5c2.2,6,3.3,12.5,3.3,19.5c0,9.3-1.6,17.9-4.8,25.7
			c-3.2,7.8-7.9,14.5-14,20.1c-6.1,5.6-13.6,10-22.4,13.1c-8.8,3.1-18.9,4.7-30.3,4.7C5690.4,844.4,5677.4,842.9,5662.5,839.8z
			 M5662.5,829.9c6.1,1.2,11.4,2.1,16,2.7c4.6,0.6,8.6,0.9,12,0.9c5.9,0,11.5-1.2,16.8-3.7c5.3-2.5,9.9-5.9,13.9-10.2
			c4-4.3,7.1-9.5,9.4-15.6c2.3-6.1,3.4-12.7,3.4-19.8c0-8.5-1.3-16-3.8-22.6c-2.5-6.6-6-12.2-10.4-16.8c-4.4-4.6-9.6-8.1-15.5-10.4
			c-5.9-2.4-12.4-3.6-19.3-3.6c-5.8,0-13.2,1-22.4,3.1V829.9z"/>
		<path d="M5945.2,711.6v79.9h-6.4c-2.9-21.5-9.9-38-21.1-49.4c-11.2-11.4-25.4-17-42.7-17c-5.9,0-11.4,1-16.3,3.1
			c-4.9,2-9.2,4.7-13,8c-3.7,3.3-6.6,7.1-8.7,11.3c-2,4.2-3.1,8.6-3.1,13.2c0,4.2,0.8,8.3,2.5,12.1c1.7,3.8,7,9.8,15.8,17.9
			c14.8,9.3,27.9,17,39.4,23.2c10.9,5.9,25.5,14.9,44,27c8,6.1,14.1,13.4,18.3,21.8c4.2,8.4,6.4,17.2,6.4,26.3
			c0,8.7-1.8,16.9-5.3,24.7c-3.6,7.8-8.5,14.6-14.9,20.5c-6.4,5.9-14,10.5-23,14c-9,3.5-18.8,5.2-29.5,5.2c-6.8,0-13.1-0.5-18.8-1.5
			c-1-0.2-3.7-0.9-8-2.2c-4.3-1.3-8.9-2.6-13.9-3.9c-4.9-1.4-9.5-2.6-13.7-3.8c-4.2-1.2-6.7-1.8-7.4-1.8c-2.9,0-5.1,0.9-6.7,2.5
			c-1.6,1.7-2.8,5.3-3.7,10.7h-6.4v-79.4h6.4c3.1,16.3,7,28.7,12,37.4c2.4,4.1,5.6,7.8,9.5,11.3c4,3.5,8.5,6.5,13.5,9.2
			c5,2.6,10.4,4.7,16.2,6.1c5.8,1.4,11.6,2.2,17.6,2.2c7.1,0,13.5-1,19.2-3.1c5.7-2,10.5-4.8,14.5-8.3c4-3.5,7-7.5,9.2-12.1
			c2.1-4.6,3.2-9.4,3.2-14.5c0-5.8-1.6-11.5-4.7-17.3c-3.1-5.8-8.4-11.4-15.9-17c-7.3-4.4-15.9-9.6-26-15.5
			c-19.2-11-36.2-21.6-51.1-31.8c-8.3-6.6-14.6-13.9-19-21.8c-4.3-7.9-6.5-16.7-6.5-26.3c0-8.1,1.7-15.9,5.1-23.3
			c3.4-7.4,8.1-13.9,14.1-19.5c6-5.6,13.2-10,21.5-13.2c8.3-3.2,17.3-4.8,27-4.8c12.2,0,25.2,3,38.9,8.9c3.2,1.4,5.9,2.5,8.1,3.3
			c2.2,0.9,4,1.2,5.3,1c3.1,0,5.5-0.8,7.4-2.5c1.9-1.7,3.3-5.3,4.3-10.7H5945.2z"/>
	</g>
	<g>
		<path d="M3446.4,355.1v79.9h-6.4c-2.9-21.5-9.9-38-21.1-49.4c-11.2-11.4-25.4-17-42.7-17c-5.9,0-11.4,1-16.3,3.1
			c-4.9,2-9.2,4.7-13,8c-3.7,3.3-6.6,7.1-8.7,11.3c-2,4.2-3.1,8.6-3.1,13.2c0,4.2,0.8,8.3,2.5,12.1c1.7,3.8,7,9.8,15.8,17.9
			c14.8,9.3,27.9,17,39.4,23.2c10.9,5.9,25.5,14.9,44,27c8,6.1,14.1,13.4,18.3,21.8c4.2,8.4,6.4,17.2,6.4,26.3
			c0,8.7-1.8,16.9-5.3,24.7c-3.6,7.8-8.5,14.6-14.9,20.5c-6.4,5.9-14,10.5-23,14c-9,3.5-18.8,5.2-29.5,5.2c-6.8,0-13.1-0.5-18.8-1.5
			c-1-0.2-3.7-0.9-8-2.2c-4.3-1.3-8.9-2.6-13.9-3.9c-4.9-1.4-9.5-2.6-13.7-3.8c-4.2-1.2-6.7-1.8-7.4-1.8c-2.9,0-5.1,0.9-6.7,2.5
			c-1.6,1.7-2.8,5.3-3.7,10.7h-6.4v-79.4h6.4c3.1,16.3,7,28.7,12,37.4c2.4,4.1,5.6,7.8,9.5,11.3c4,3.5,8.5,6.5,13.5,9.2
			c5,2.6,10.4,4.7,16.2,6.1c5.8,1.4,11.6,2.2,17.6,2.2c7.1,0,13.5-1,19.2-3.1c5.7-2,10.5-4.8,14.5-8.3c4-3.5,7-7.5,9.2-12.1
			c2.1-4.6,3.2-9.4,3.2-14.5c0-5.8-1.6-11.5-4.7-17.3c-3.1-5.8-8.4-11.4-15.9-17c-7.3-4.4-15.9-9.6-26-15.5
			c-19.2-11-36.2-21.6-51.1-31.8c-8.3-6.6-14.6-13.9-19-21.8c-4.3-7.9-6.5-16.7-6.5-26.3c0-8.1,1.7-15.9,5.1-23.3
			c3.4-7.4,8.1-13.9,14.1-19.5c6-5.6,13.2-10,21.5-13.2c8.3-3.2,17.3-4.8,27-4.8c12.2,0,25.2,3,38.9,8.9c3.2,1.4,5.9,2.5,8.1,3.3
			c2.2,0.9,4,1.2,5.3,1c3.1,0,5.5-0.8,7.4-2.5c1.9-1.7,3.3-5.3,4.3-10.7H3446.4z"/>
		<path d="M3690.6,355.1l5.3,78.6h-5.3c-7.1-23.6-17.2-40.5-30.1-50.9c-13-10.3-28.6-15.5-46.9-15.5c-11.9,0-22.8,2.2-32.8,6.7
			c-10,4.5-18.6,11.4-25.8,20.7c-7.2,9.3-12.8,21-16.9,35.1c-4.1,14.1-6.1,30.7-6.1,49.9c0,15.4,1.9,29.4,5.7,42
			c3.8,12.6,9.4,23.3,16.8,32.2s16.4,15.8,27.1,20.6s23,7.3,36.9,7.3c14.6,0,27.8-3.2,39.7-9.7c11.4-5.9,24-18.7,37.9-38.2l5.3,3.3
			c-11.7,20.5-25.2,35.6-40.6,45.2c-15.4,9.6-33.7,14.4-55.1,14.4c-16.5,0-31.5-2.9-45.3-8.7c-13.7-5.8-25.6-13.9-35.5-24.3
			c-9.9-10.4-17.7-22.8-23.3-37.1c-5.6-14.3-8.4-30.1-8.4-47.2c0-23.2,5.2-44.4,15.5-63.6c10.2-19.3,24.3-34.3,42.5-44.8
			c18.3-10.7,38.2-16,59.5-16c16.8,0,33.2,4.1,49.4,12.2c4.7,2.5,8.1,3.8,10.2,3.8c3.7,0,6.8-1.5,9.3-4.6c2.5-3.1,4.2-6.9,5.2-11.4
			H3690.6z"/>
		<path d="M3949.1,591.4h-61.6l-78.4-108.1c-2.9,0.2-5.5,0.3-7.8,0.4c-2.3,0.1-4.4,0.1-6.2,0.1c-1.5,0-3.1,0-4.8-0.1
			c-1.7-0.1-3.5-0.2-5.3-0.4v67.2c0,8.1,0.5,14.5,1.7,19.2c1.1,4.7,2.7,8.1,4.8,10.4c2.1,2.3,4.7,3.7,7.6,4.2c3,0.5,6.3,0.8,10,0.8
			h9.2v6.4h-99.2v-6.4h8.9c9.5,0,16.5-3.1,20.9-9.4c2.4-3.7,3.6-12.1,3.6-25.2V401.1c0-14.2-1.6-23.2-4.8-27
			c-4.4-5.1-10.9-7.6-19.6-7.6h-8.9v-6.4h84.2c12.4,0,23.1,0.5,32.1,1.4c9,0.9,16.4,2.3,22.1,4.2c5.8,1.9,11.2,4.5,16.3,7.8
			c5.1,3.3,9.5,7.3,13.4,12c3.8,4.7,6.8,9.9,9,15.6c2.2,5.8,3.3,12,3.3,18.6c0,14.4-4.6,26.8-13.7,37.1c-9.2,10.3-23.5,17.7-43,22.1
			l47.6,66.1c5.6,7.6,10.6,13.9,14.9,18.8c4.3,4.9,8.7,8.8,13,11.7c4.3,2.9,8.9,5,13.7,6.4c4.8,1.4,10.6,2.4,17.2,3.1V591.4z
			 M3785,472.6c2.2,0,4.1,0,5.7,0.1c1.6,0.1,2.9,0.1,3.9,0.1c11,0,20.7-1.3,29-3.8c8.3-2.5,15.3-6.1,20.9-10.7
			c5.6-4.6,9.8-10,12.6-16.2c2.8-6.2,4.2-12.9,4.2-20.2c0-7.1-1.2-13.7-3.6-19.7c-2.4-6-5.8-11.2-10.2-15.5
			c-4.4-4.3-9.7-7.7-15.8-10c-6.1-2.4-12.8-3.6-20.1-3.6c-7,0-15.9,1.1-26.7,3.3V472.6z"/>
		<path d="M4019.1,372.9v91.3h50.6c7.5,0,13.5-0.7,18.1-2c4.6-1.4,8.2-3.4,10.8-6.1c2.6-2.7,4.5-6.2,5.5-10.4c1-4.2,1.7-9.2,2-15
			h6.4V511h-6.4c-0.9-6.6-1.8-12.1-2.9-16.5c-1.1-4.4-2.9-7.9-5.3-10.6c-2.5-2.6-5.9-4.5-10.3-5.6c-4.4-1.1-10.3-1.7-17.8-1.7h-50.6
			V553c0,5.8,0.1,10.3,0.3,13.7c0.2,3.4,0.8,6,2,7.8c1.2,1.8,3.1,2.9,5.6,3.4c2.5,0.5,6.3,0.8,11.2,0.8h39.2
			c6.6,0,12.2-0.2,16.8-0.5c4.6-0.3,8.5-1,11.8-2c3.3-1,6.2-2.4,8.8-4.2c2.5-1.8,5.3-4,8.1-6.7c6.8-6.6,14-17.2,21.6-31.8h6.9
			l-20.1,58h-178.1v-6.4h8.1c2.2,0,4.5-0.3,6.9-0.8c2.4-0.5,4.6-1.2,6.7-2.2c2.1-0.9,4-2.2,5.7-3.7c1.7-1.5,2.9-3.3,3.6-5.3
			c1.4-3.7,2-11.2,2-22.4V400.6c0-14.8-1.4-23.8-4.3-27.2c-4.1-4.6-10.9-6.9-20.6-6.9h-8.1v-6.4h178.1v50.6h-4.1
			c-1.7-8.3-3.5-15-5.5-20c-2-5-4.5-8.9-7.8-11.6c-3.2-2.7-7.3-4.5-12.3-5.2c-5-0.8-11.4-1.1-19.2-1.1H4019.1z"/>
		<path d="M4485.9,360.1v6.4c-4.6,0-8.4,0.4-11.3,1.3c-3,0.9-5.7,2.8-8.3,5.7c-2.5,3-5.1,7.4-7.6,13.2s-5.5,13.7-8.9,23.5
			l-64.4,186.5h-6.9l-52.7-147.8l-52.2,147.8h-6.4l-68.7-192.1c-2.5-7.1-4.6-12.8-6.1-16.9c-1.5-4.2-2.7-6.9-3.6-8.3
			c-2.4-4.4-5.5-7.7-9.3-9.8c-3.8-2.1-9.1-3.2-15.9-3.2v-6.4h85.5v6.4h-4.1c-5.9,0-10.5,1.4-13.7,4.1c-3.2,2.7-4.8,6-4.8,9.9
			c0,4.1,2.5,13.2,7.6,27.5l45.5,129.8l38.2-110.4l-12.2-34.9c-1.9-4.2-3.7-8-5.6-11.2c-1.9-3.2-4-5.9-6.4-8.1
			c-2.4-2.2-5.2-3.9-8.4-5c-3.2-1.1-7.1-1.7-11.7-1.7v-6.4h89.8v6.4h-6.1c-6.4,0-11.1,1.4-14,4.1c-2.9,2.7-4.3,6.4-4.3,11.2
			c0,5.8,2.5,15.9,7.6,30.3l44.3,125.7l44-127.5c2.4-7.1,4.2-13.1,5.6-17.8c1.4-4.7,2-8.6,2-11.4c0-5.4-2.4-9.2-7.1-11.3
			c-4.8-2.1-10.9-3.2-18.6-3.2v-6.4H4485.9z"/>
		<path d="M4730.9,473.4c9.3,2,17.3,4.8,24,8.4c6.7,3.6,12.1,7.7,16.3,12.5c4.2,4.8,7.2,10,9.2,15.8c1.9,5.8,2.9,11.8,2.9,18.1
			c0,5.8-0.9,11.4-2.8,17c-1.9,5.6-4.5,10.9-8,15.9c-3.5,5-7.8,9.5-12.8,13.5c-5.1,4-10.9,7.3-17.3,9.8c-12.2,4.8-31.5,7.1-57.8,7.1
			h-109.1v-6.4h8.7c3.9,0,7.4-0.3,10.4-1c3.1-0.7,5.6-2.2,7.8-4.6c2.1-2.4,3.7-5.9,4.8-10.4c1.1-4.6,1.7-10.8,1.7-18.6V401.1
			c0-8.1-0.6-14.5-1.8-19.1c-1.2-4.6-2.9-8-5.1-10.3c-2.2-2.3-4.8-3.7-7.9-4.3c-3.1-0.6-6.4-0.9-9.9-0.9h-8.7v-6.4h99.7
			c32.1,0,56.4,5.4,72.9,16.3c16.5,10.9,24.8,26,24.8,45.5c0,11.7-3.6,22.1-10.7,31.2C4755.1,462.2,4744.7,469,4730.9,473.4z
			 M4641.6,464.2c4.2,0.9,9,1.5,14.4,1.9c5.3,0.4,11.2,0.6,17.7,0.6c22.6,0,38.8-4.1,48.6-12.2c9.8-8.1,14.8-19.4,14.8-33.8
			c0-6.6-1.4-12.9-4.2-19c-2.8-6-6.9-11.2-12.3-15.6c-5.4-4.4-12.2-7.9-20.2-10.6c-8.1-2.6-17.4-3.9-28.1-3.9
			c-11.5,0-21.7,1.3-30.5,3.8V464.2z M4641.6,574.6c12.9,3.1,25.9,4.6,38.9,4.6c10.3,0,19.5-1.3,27.5-3.8c8-2.5,14.6-6,19.8-10.3
			c5.3-4.3,9.2-9.4,12-15.3c2.7-5.9,4.1-12.1,4.1-18.7c0-7.3-1.4-14.2-4.3-20.6c-2.9-6.4-7.3-12-13.4-16.8
			c-6-4.7-13.6-8.5-22.6-11.2c-9.1-2.7-19.7-4.1-31.9-4.1c-7.1,0-13.1,0.1-18.1,0.3c-4.9,0.2-8.9,0.6-12,1.3V574.6z"/>
		<path d="M5002.7,527.6l5.6,1l-19.8,62.8h-179.1v-6.4h8.9c9.5,0,16.5-3.1,20.9-9.4c2.4-3.7,3.6-12.1,3.6-25.2V401.1
			c0-14.2-1.6-23.2-4.8-27c-4.4-5.1-10.9-7.6-19.6-7.6h-8.9v-6.4h104.8v6.4c-6.3,0-11.5,0.3-15.6,0.9c-4.2,0.6-7.6,1.4-10.3,2.5
			c-2.7,1.1-4.8,2.4-6.4,3.9c-1.5,1.5-2.8,3.2-3.8,5.1c-1.7,3.4-2.5,12.1-2.5,26.2v145.3c0,8,0.6,13.7,1.8,17.3
			c1.2,3.6,3.6,6,7.1,7.4c3.1,1,12,1.5,26.7,1.5h16.8c17.8,0,30.3-1.3,37.4-3.8c3.6-1.2,7-2.9,10.2-5.1c3.2-2.2,6.4-5.1,9.4-8.7
			c3.1-3.6,6-7.9,8.9-13C4996.6,541,4999.6,534.8,5002.7,527.6z"/>
		<path d="M5175.4,514.1h-89.6l-15.8,36.4c-3.7,9-5.6,15.7-5.6,20.1c0,1.9,0.3,3.6,0.9,5.1c0.6,1.5,1.9,2.9,3.8,4.2
			c1.9,1.3,4.7,2.4,8.1,3.3c3.5,0.9,8.1,1.6,13.9,1.9v6.4h-72.8v-6.4c5.8-0.8,10.4-2.1,14-3.8c3.6-1.7,6.6-4,9.2-7
			c2.5-3,4.9-6.8,7-11.6c2.1-4.7,4.7-10.6,7.8-17.6l81.4-190h5.9l80.4,192.1c3.2,8,6.2,14.4,9,19.2s5.7,8.6,8.7,11.3
			c3,2.7,6.2,4.6,9.7,5.6c3.5,1,7.7,1.6,12.6,1.8v6.4h-91.3v-6.4c9.2-0.3,15.4-1.8,18.7-4.5c3.3-2.6,5-5.8,5-9.5
			c-0.2-4.9-2.5-12.9-6.9-23.9L5175.4,514.1z M5170.6,501.3l-39.2-93.4l-40.2,93.4H5170.6z"/>
		<path d="M5477.9,355.1l5.3,78.6h-5.3c-7.1-23.6-17.2-40.5-30.1-50.9c-13-10.3-28.6-15.5-46.9-15.5c-11.9,0-22.8,2.2-32.8,6.7
			c-10,4.5-18.6,11.4-25.8,20.7c-7.2,9.3-12.8,21-16.9,35.1c-4.1,14.1-6.1,30.7-6.1,49.9c0,15.4,1.9,29.4,5.7,42
			c3.8,12.6,9.4,23.3,16.8,32.2s16.4,15.8,27.1,20.6s23,7.3,36.9,7.3c14.6,0,27.8-3.2,39.7-9.7c11.4-5.9,24-18.7,37.9-38.2l5.3,3.3
			c-11.7,20.5-25.2,35.6-40.6,45.2c-15.4,9.6-33.7,14.4-55.1,14.4c-16.5,0-31.5-2.9-45.3-8.7c-13.7-5.8-25.6-13.9-35.5-24.3
			c-9.9-10.4-17.7-22.8-23.3-37.1c-5.6-14.3-8.4-30.1-8.4-47.2c0-23.2,5.2-44.4,15.5-63.6c10.2-19.3,24.3-34.3,42.5-44.8
			c18.3-10.7,38.2-16,59.5-16c16.8,0,33.2,4.1,49.4,12.2c4.7,2.5,8.1,3.8,10.2,3.8c3.7,0,6.8-1.5,9.3-4.6c2.5-3.1,4.2-6.9,5.2-11.4
			H5477.9z"/>
		<path d="M5604.9,463.2l85.2,84.7c7.1,7.1,13.6,13,19.3,17.7c5.8,4.7,11.2,8.4,16.3,11.2s10,4.8,14.9,6.1c4.8,1.3,9.8,2,14.9,2.2
			v6.4h-109.9v-6.4c7.3,0,12.2-1.3,14.8-3.8s3.8-5.3,3.8-8.1c0-1.2-0.1-2.2-0.3-3.2c-0.2-0.9-0.6-2-1.4-3.2c-0.8-1.2-2-2.7-3.7-4.6
			c-1.7-1.9-4-4.2-6.9-7.1l-79.9-79.1v74.5c0,5.4,0.1,9.8,0.4,13.2c0.3,3.4,0.7,6.2,1.3,8.4c0.6,2.2,1.5,3.9,2.8,5.2
			c1.3,1.3,2.9,2.5,5,3.7c4.9,2.7,10.1,4.1,15.5,4.1h7.9v6.4h-98.5v-6.4h8.1c9.5,0,16.4-2.8,20.9-8.4c2.7-3.7,4.1-12.5,4.1-26.2
			V401.1c0-5.1-0.1-9.4-0.3-12.8c-0.2-3.5-0.6-6.3-1.3-8.5c-0.7-2.2-1.6-4-2.8-5.5c-1.2-1.4-2.8-2.7-4.8-3.7
			c-5.4-2.7-10.7-4.1-15.8-4.1h-8.1v-6.4h98.5v6.4h-7.9c-4.2,0-8.7,0.9-13.4,2.8c-4.7,1.9-7.8,5-9.5,9.4c-1.4,3.7-2,11.2-2,22.4
			v70.7c0.2-0.2,1.3-1.2,3.4-3.2c2.1-1.9,4.5-4.1,7.1-6.5c2.6-2.4,5.2-4.7,7.6-7.1c2.5-2.4,4.2-4,5.2-4.8
			c12.4-11.4,22.8-21.1,31.3-29.3c8.5-8.1,15.3-15,20.4-20.7c5.1-5.7,8.7-10.4,10.9-14.2c2.2-3.8,3.3-7,3.3-9.5c0-2.7-1.2-5-3.6-7
			c-2.4-1.9-6.4-2.9-12.2-2.9h-5.3v-6.4h85v6.4c-3.1,0.2-6.1,0.5-9.3,0.9c-3.1,0.4-6.6,1.5-10.4,3.2c-3.8,1.7-8.2,4.3-13.1,7.9
			c-4.9,3.6-10.8,8.5-17.6,14.8c-1.4,1.2-4.8,4.7-10.4,10.6c-5.6,5.9-13.7,14-24.2,24.3L5604.9,463.2z"/>
	</g>
	<g id="TORNILLOSMET3_00000159472043482245953420000005011607345253339570_">
		<path d="M1316.5,1875.2c-98.7-80.1-221.9-118.1-274.1-237.3c133.6-52.3,245.5,41.2,379,68.7c-100.8-79.4-222.3-117-272-236.9
			c136.1-53.5,247.9,44.1,379.6,68.7c-96.9-77.8-219.6-113.6-273.5-239.1c50.3-5.8,98.8-24.9,151.5-5.4
			c71.7,26.6,144.1,51.4,218.3,73.6c-87.7-78.5-212.6-113.2-262.7-233.9c135.4-54,245.9,43.1,378.2,68.1
			c-97.1-81-222.5-116.2-272.5-236.5c133.4-53.1,243.6,40.7,370,59.4c-30.2-19.7-60.5-39.2-90.7-59c-30.4-19.9-61.6-38.8-90.6-60.7
			c-10.2-7.7-14.9-23-22.1-34.9c4.5-3.2,8.9-6.5,13.4-9.7c95.1,61.8,192.7,120.2,283.9,187.4c30.5,22.5,44.8,67.5,70.3,108.2
			c-32.9,4.6-63.7,6.6-93.3,13.9c-15.6,3.8-31.1,14.7-42.9,26.2c-28.5,28-29.1,56.7,2,85.1c10.9,9.9,18,24.1,30.9,41.7
			c-34.7,5-65.8,7.7-96,14.5c-14.5,3.3-30.4,11.7-40.3,22.7c-25.2,28-38.2,58.1-1.1,89.1c11.2,9.3,17.9,24.2,30.6,42.2
			c-34.6,4.8-65.4,7.3-95.2,14c-14.5,3.3-29.9,11.8-40.4,22.5c-29.7,30.3-32.8,61.7,1.4,92.8c9.7,8.8,15.4,22.1,26.8,39.1
			c-34.9,5.1-65.6,7.7-95.4,14.6c-14.5,3.4-29.8,12.3-40.1,23.2c-27.5,28.7-34.2,58.9,0.5,89.2c10.8,9.4,17.2,23.9,29.3,41.5
			c-36.1,5.1-67,7.6-97,14.6c-14.4,3.3-29,13-39.7,23.7c-29.1,29.3-31.1,59.5,1.4,89.4c10.5,9.7,17.7,23,29.5,38.7
			c-17.7,3.3-30.6,7.5-43.5,7.8c-54.5,1.1-99.9,16.1-121.2,73.8c-2.8,7.6-11.4,14.3-18.9,18.5c-105.4,58.9-211,117.3-323.8,179.7
			c6.6-100.1,9.9-193.6,20-286.3c7.5-68.6,5.5-130.8-57.1-178.1C1071.7,1752.1,1183.5,1849.2,1316.5,1875.2z"/>
		<path d="M1450.6,680.9c39.7-102.5,113.2-151.2,220.2-149.5c92,1.4,177.6,25.2,262.4,73.3c-34.6,54.7-67.5,106.9-102,161.5
			c42.6,27.7,81,52.7,123.1,80c33.9-53.7,67-105.9,103-162.9c100.6,82.4,179.5,172.7,200.7,302.7c11.3,69.7-22,123.8-63.6,178.3
			C1947.1,1003.6,1700.3,843.2,1450.6,680.9z"/>
		<ellipse class="st0" cx="1484.8" cy="1501.2" rx="1275" ry="1293"/>
	</g>
	<g>
		<path d="M3349.3,1423.7l56.2-27.5h5.6v195.1c0,6.8,0.1,12.1,0.3,15.9c0.2,3.8,0.6,6.7,1.3,8.8c0.7,2,1.5,3.5,2.5,4.3
			c1,0.9,2.5,1.7,4.3,2.5c3.4,1.9,10.3,2.8,20.9,2.8v6.4h-87v-6.4c5.6,0,10.1-0.3,13.5-0.8c3.4-0.5,6-1.1,7.9-1.9
			c1.9-0.8,3.3-1.7,4.2-2.9c0.9-1.2,1.7-2.5,2.2-3.8c1.2-2.5,1.8-10.9,1.8-24.9v-124.9c0-9.8-0.2-17.6-0.6-23.3
			c-0.4-5.7-1.1-9.9-2.2-12.6c-1-2.7-2.4-4.5-4.1-5.2c-1.7-0.8-3.9-1.1-6.6-1.1c-4.8,0-10.6,1.5-17.6,4.6L3349.3,1423.7z"/>
		<path d="M3780.3,1395.7l5.3,78.6h-5.3c-7.1-23.6-17.2-40.5-30.1-50.9c-13-10.3-28.6-15.5-46.9-15.5c-11.9,0-22.8,2.2-32.8,6.7
			c-10,4.5-18.6,11.4-25.8,20.7c-7.2,9.3-12.8,21-16.9,35.1c-4.1,14.1-6.1,30.7-6.1,49.9c0,15.4,1.9,29.4,5.7,42
			c3.8,12.6,9.4,23.3,16.8,32.2c7.4,8.9,16.4,15.8,27.1,20.6s23,7.2,36.9,7.2c14.6,0,27.8-3.2,39.7-9.7c11.4-5.9,24-18.7,37.9-38.2
			l5.3,3.3c-11.7,20.5-25.2,35.6-40.6,45.2c-15.4,9.6-33.7,14.4-55.1,14.4c-16.5,0-31.5-2.9-45.3-8.7s-25.6-13.9-35.5-24.3
			s-17.7-22.8-23.3-37.1c-5.6-14.3-8.4-30.1-8.4-47.2c0-23.2,5.2-44.4,15.5-63.6c10.2-19.3,24.3-34.3,42.5-44.8
			c18.3-10.7,38.2-16,59.5-16c16.8,0,33.2,4.1,49.4,12.2c4.7,2.5,8.1,3.8,10.2,3.8c3.7,0,6.8-1.5,9.3-4.6c2.5-3.1,4.2-6.9,5.2-11.4
			H3780.3z"/>
		<path d="M3945.6,1632l-89.3-194.4v154.4c0,8,0.5,14.2,1.7,18.7c1.1,4.5,2.7,7.8,4.8,10c2.1,2.2,4.7,3.6,7.8,4.1
			c3.1,0.5,6.5,0.8,10.4,0.8h8.1v6.4h-80.4v-6.4h8.1c4.1,0,7.6-0.3,10.7-0.9c3.1-0.6,5.6-2,7.6-4.3c2-2.3,3.6-5.7,4.6-10.2
			c1-4.5,1.5-10.6,1.5-18.2V1441c0-5.4-0.3-10.2-0.8-14.4c-0.5-4.2-1.8-7.7-3.9-10.6c-2.1-2.9-5.3-5.1-9.7-6.6
			c-4.3-1.5-10.4-2.3-18.2-2.3v-6.4h65.4l84,180.9l82.4-180.9h65.4v6.4h-7.9c-4.2,0-7.9,0.3-10.9,1c-3.1,0.7-5.6,2.2-7.6,4.5
			c-2,2.3-3.6,5.7-4.6,10.2c-1,4.5-1.5,10.6-1.5,18.2v151.1c0,8,0.5,14.2,1.7,18.7c1.1,4.5,2.7,7.8,4.8,10c2.1,2.2,4.7,3.6,7.8,4.1
			c3.1,0.5,6.5,0.8,10.4,0.8h7.9v6.4h-98.2v-6.4h8.1c4.1,0,7.6-0.3,10.7-1c3.1-0.7,5.6-2.2,7.8-4.5c2.1-2.3,3.7-5.6,4.7-10
			c1-4.4,1.5-10.4,1.5-18.1v-154.4l-89,194.4H3945.6z"/>
		<path d="M4400.8,1568.2l5.6,1l-19.8,62.8h-179.1v-6.4h8.9c9.5,0,16.4-3.1,20.9-9.4c2.4-3.7,3.6-12.1,3.6-25.2v-149.3
			c0-14.2-1.6-23.2-4.8-27c-4.4-5.1-10.9-7.6-19.6-7.6h-8.9v-6.4h104.8v6.4c-6.3,0-11.5,0.3-15.6,0.9c-4.2,0.6-7.6,1.4-10.3,2.5
			c-2.7,1.1-4.8,2.4-6.4,3.9c-1.5,1.5-2.8,3.2-3.8,5.1c-1.7,3.4-2.5,12.1-2.5,26.2v145.3c0,8,0.6,13.7,1.8,17.3
			c1.2,3.6,3.6,6,7.1,7.4c3.1,1,12,1.5,26.7,1.5h16.8c17.8,0,30.3-1.3,37.4-3.8c3.6-1.2,7-2.9,10.2-5.1c3.2-2.2,6.4-5.1,9.4-8.7
			c3.1-3.6,6-7.9,8.9-13C4394.7,1581.7,4397.7,1575.5,4400.8,1568.2z"/>
		<path d="M4541.5,1395.7c14.8,0,28.8,3.1,42.2,9.2c13.4,6.1,25.2,14.5,35.4,25.2c10.2,10.7,18.3,23.3,24.3,37.8
			c6,14.5,9,30.2,9,47.2c0,17.5-3,33.7-9,48.6c-6,14.9-14.2,27.9-24.4,38.8c-10.3,10.9-22.3,19.5-36.1,25.7
			c-13.8,6.2-28.5,9.3-44.1,9.3c-15.8,0-30.5-3-44.3-8.9c-13.7-5.9-25.7-14.3-35.7-25.1c-10.1-10.8-18.1-23.6-23.9-38.5
			c-5.9-14.9-8.8-31.4-8.8-49.4c0-16.6,2.9-32.2,8.8-46.8c5.9-14.6,13.9-27.3,24.2-38c10.3-10.8,22.4-19.3,36.5-25.6
			C4509.5,1398.8,4524.8,1395.7,4541.5,1395.7z M4538.2,1408.2c-11.7,0-22.1,2.5-31.2,7.5c-9.1,5-16.7,12.1-22.9,21.4
			c-6.2,9.2-10.9,20.4-14.1,33.6c-3.2,13.1-4.8,27.9-4.8,44.4c0,16.3,1.6,31.2,4.7,44.7c3.1,13.5,7.8,25.1,14,34.9
			c6.2,9.8,13.9,17.3,23,22.6s19.7,8,31.5,8c10.7,0,20.6-2,29.6-6.1c9.1-4.1,17-10.4,23.8-19c6.8-8.6,12.1-19.5,15.9-32.8
			c3.8-13.3,5.7-29.2,5.7-47.7c0-17.5-1.6-33.1-4.7-46.9c-3.1-13.8-7.9-25.5-14.2-35.1c-6.4-9.6-14.2-16.9-23.7-21.9
			C4561.4,1410.7,4550.5,1408.2,4538.2,1408.2z"/>
		<path d="M4661.3,1400.8h62.6l141.5,173.5V1441c0-7.8-0.6-14-1.7-18.6c-1.1-4.6-2.7-8-4.8-10.2c-2.1-2.2-4.7-3.6-7.8-4.2
			c-3.1-0.6-6.5-0.9-10.4-0.9h-8.1v-6.4h80.6v6.4h-8.4c-4.1,0-7.6,0.3-10.7,1c-3.1,0.7-5.6,2.2-7.6,4.6c-2,2.4-3.6,5.8-4.6,10.2
			c-1,4.4-1.5,10.4-1.5,18.1v194.9h-6.1l-152.4-186.2v142.5c0,8,0.5,14.2,1.7,18.7c1.1,4.5,2.7,7.8,4.7,10c2,2.2,4.6,3.6,7.6,4.1
			c3.1,0.5,6.5,0.8,10.4,0.8h8.1v6.4H4674v-6.4h8.1c4.1,0,7.6-0.3,10.7-1c3.1-0.7,5.6-2.2,7.8-4.5c2.1-2.3,3.7-5.6,4.7-10
			c1-4.4,1.5-10.4,1.5-18.1v-160.8c-3.4-4.1-6.2-7.3-8.5-9.7c-2.3-2.4-4.5-4.3-6.5-5.9c-2-1.5-4.2-2.8-6.6-3.8
			c-2.4-1-5.3-2.1-8.9-3.3c-3.4-1-8.4-1.5-15-1.5V1400.8z"/>
		<path d="M5132.2,1395.7l6.1,72.8h-6.1c-7-21.4-16.8-36.8-29.6-46.4c-12.8-9.6-28.4-14.4-46.7-14.4c-13.6,0-25.7,2.7-36.4,8
			c-10.7,5.3-19.8,12.7-27.2,22.1c-7.5,9.4-13.1,20.5-17,33.3c-3.9,12.8-5.9,26.7-5.9,41.6c0,21.9,4.3,42,13,60.3
			c4.2,9.2,9.2,17,14.9,23.7c5.7,6.6,11.8,12.1,18.4,16.4c6.6,4.3,13.5,7.5,20.7,9.5c7.2,2,14.5,3.1,21.8,3.1
			c17,0,32.9-4.2,47.8-12.7v-66.9c0-5.8-0.2-10.5-0.6-14.1c-0.4-3.6-1.1-6.5-2-8.7c-0.9-2.1-2.1-3.7-3.4-4.8c-1.4-1.1-3-2.2-4.8-3.2
			c-3.7-1.9-10.2-2.8-19.3-2.8v-6.6h89.6v6.6h-4.3c-3.9,0-7.2,0.4-9.9,1.3c-2.7,0.9-5,2.5-6.7,4.8c-1.8,2.4-3.1,5.8-3.8,10.2
			c-0.8,4.4-1.1,10.2-1.1,17.3v70.7c-6.6,3.6-13.1,6.7-19.5,9.3c-6.4,2.6-12.8,4.7-19.2,6.2c-13.2,3.4-27.4,5.1-42.5,5.1
			c-19.3,0-36.9-3-52.5-8.9c-15.7-5.9-29.1-14.2-40.3-24.7c-11.2-10.5-19.8-22.9-26-37.1c-6.1-14.2-9.2-29.8-9.2-46.6
			c0-20.2,4.9-39.7,14.8-58.5c11.4-22,27.2-39.1,47.6-51.1c17-9.8,37-14.8,60-14.8c4.6,0,8.7,0.1,12.2,0.4c3.6,0.3,7.2,0.8,11.1,1.5
			s8,1.9,12.5,3.3c4.5,1.4,10,3.3,16.4,5.7c6.4,2.5,10.8,3.7,13,3.6c2,0,3.8-1,5.3-2.9c1.5-1.9,2.5-5.8,2.8-11.6H5132.2z"/>
		<path d="M5275.2,1444.8c6.4-15.6,14.7-27.6,24.8-36c10.1-8.4,22.7-12.6,37.8-12.6c7.8,0,15,1.3,21.6,3.8c6.6,2.5,12.3,6,17,10.3
			c4.7,4.3,8.4,9.3,11.1,15c2.6,5.7,3.9,11.6,3.9,17.7c0,17-10.5,34.3-31.5,52.2c14.4,5.6,25.2,13.5,32.3,23.8
			c7.1,10.3,10.7,22.4,10.7,36.5c0,11.7-2.2,22.5-6.5,32.3c-4.3,9.8-10.5,18.4-18.4,25.6c-8,7.2-17.6,12.8-28.7,16.8
			c-11.2,4-23.7,6-37.4,6c-8,0-14.5-0.6-19.7-1.7c-5.2-1.1-9.3-2.5-12.3-4.3s-5.2-3.7-6.4-5.9c-1.2-2.1-1.8-4.3-1.8-6.5
			c0-4.1,1.6-7.2,4.7-9.3c3.1-2.1,6.9-3.2,11.3-3.2c1,0,1.9,0.1,2.8,0.3c0.8,0.2,1.9,0.5,3.2,1c1.3,0.5,2.9,1.3,5,2.3
			s4.8,2.5,8.4,4.3c4.1,2.2,7.4,3.9,9.9,5c2.5,1.1,4.7,1.9,6.6,2.4c1.9,0.5,3.6,0.8,5.1,0.8c1.7,0,3.7,0,6.1,0
			c5.8,0,11.2-1.2,16.4-3.7c5.2-2.5,9.8-5.8,13.7-9.9c4-4.2,7.1-9,9.4-14.5c2.3-5.5,3.4-11.2,3.4-17.2c0-3.7-0.4-7.6-1.3-11.6
			c-0.9-4-2-7.8-3.4-11.6c-1.4-3.7-3.1-7.1-5-10.2c-1.9-3.1-3.9-5.6-6.1-7.6c-2.4-2.2-5.3-4.4-8.9-6.5c-3.6-2.1-7.4-4-11.4-5.7
			c-4.1-1.7-8.3-3.1-12.7-4.1c-4.4-1-8.7-1.5-13-1.5h-5.6v-5.1c8.7-1.2,16.3-3.5,22.9-7c6.6-3.5,12.1-7.6,16.5-12.5
			c4.4-4.8,7.8-10.2,10.1-16.2c2.3-5.9,3.4-12,3.4-18.1c0-5.8-1-11.1-3.1-15.9s-4.8-9-8.1-12.5c-3.4-3.5-7.5-6.1-12.2-8
			c-4.8-1.9-9.8-2.8-15-2.8c-17.6,0-32.3,9.4-44,28.2L5275.2,1444.8z"/>
		<path d="M5591.9,1587.5l-16.3,44.5h-136.4v-6.4c39.5-37.5,67.8-67.3,84.7-89.6c16.4-23.1,24.7-44.3,24.7-63.6
			c0-7.3-1.2-14-3.7-20.2c-2.5-6.2-5.8-11.5-9.9-15.9c-4.2-4.4-9-7.9-14.5-10.4c-5.5-2.5-11.4-3.8-17.7-3.8
			c-11.4,0-21.5,3.3-30.5,9.9c-9,6.6-15.7,16.4-20.1,29.3h-6.1c2.9-21.2,10.1-37.4,21.8-48.5c11.6-11.1,26.3-16.7,44.1-16.7
			c9.3,0,18,1.7,26.1,5c8.1,3.3,15,7.8,20.9,13.4c5.9,5.6,10.5,12,13.9,19.3c3.4,7.3,5.1,14.9,5.1,22.9c0,11.7-2.1,22.5-6.2,32.3
			c-4.2,9.8-8.4,17.9-12.7,24c-4.3,6.2-10.6,14.5-18.7,24.8c-15.4,17.3-27.8,30.9-37,40.7c-9.2,9.8-18.4,19.1-27.6,27.7h60.3
			c7.6,0,14.1-0.2,19.3-0.5c5.3-0.3,9.7-1.1,13.4-2.4c3.6-1.3,6.7-3.2,9.3-5.7c2.5-2.5,5.1-5.9,7.6-10.2H5591.9z"/>
	</g>
	<g>
		<path d="M3498,1188.1h107.4V1122c0-5.4-0.1-9.9-0.3-13.4c-0.2-3.5-0.6-6.3-1.3-8.5c-0.7-2.2-1.7-3.9-2.9-5.2
			c-1.3-1.3-2.9-2.5-5-3.7c-4.8-2.7-9.9-4.1-15.5-4.1h-8.1v-6.4h99v6.4h-8.1c-2.2,0-4.5,0.3-7,0.8c-2.5,0.5-4.8,1.3-6.9,2.3
			c-2.1,1-4,2.3-5.7,3.8c-1.7,1.5-2.9,3.3-3.6,5.3c-1.2,3.6-1.8,11.1-1.8,22.6v149.1c0,5.4,0.1,9.8,0.4,13.2
			c0.3,3.4,0.7,6.2,1.3,8.4c0.6,2.2,1.5,3.9,2.7,5.2c1.2,1.3,2.8,2.5,4.8,3.7c4.7,2.7,10,4.1,15.8,4.1h8.1v6.4h-99v-6.4h8.1
			c3.9,0,7.4-0.3,10.4-0.9c3.1-0.6,5.7-2,7.9-4.3c2.2-2.3,3.9-5.8,5-10.4c1.1-4.7,1.7-11,1.7-19v-70.5H3498v70.5
			c0,5.4,0.1,9.8,0.3,13.2c0.2,3.4,0.6,6.2,1.3,8.4c0.7,2.2,1.7,3.9,2.9,5.2s2.9,2.5,5,3.7c4.7,2.7,9.9,4.1,15.5,4.1h8.4v6.4h-99.2
			v-6.4h8.4c9.3,0,16.2-2.8,20.6-8.4c2.7-3.4,4.1-12.1,4.1-26.2V1122c0-5.6-0.1-10.1-0.3-13.6c-0.2-3.5-0.6-6.3-1.3-8.4
			c-0.7-2.1-1.6-3.8-2.8-5.1c-1.2-1.3-2.8-2.5-4.8-3.7c-4.8-2.7-9.9-4.1-15.5-4.1h-8.4v-6.4h99.2v6.4h-8.4c-2,0-4.3,0.3-6.7,0.8
			c-2.5,0.5-4.8,1.3-6.9,2.3c-2.1,1-4,2.3-5.7,3.8c-1.7,1.5-2.9,3.3-3.6,5.3c-1.4,4.1-2,11.6-2,22.6V1188.1z"/>
		<path d="M3751.4,1093.5v91.3h50.6c7.5,0,13.5-0.7,18.1-2c4.6-1.4,8.2-3.4,10.8-6.1c2.6-2.7,4.5-6.2,5.5-10.4c1-4.2,1.7-9.2,2-15
			h6.4v80.4h-6.4c-0.9-6.6-1.8-12.1-2.9-16.5c-1.1-4.4-2.9-7.9-5.3-10.6c-2.5-2.6-5.9-4.5-10.3-5.6c-4.4-1.1-10.3-1.7-17.8-1.7
			h-50.6v76.3c0,5.8,0.1,10.3,0.3,13.7c0.2,3.4,0.8,6,2,7.8c1.2,1.8,3.1,2.9,5.6,3.4c2.5,0.5,6.3,0.8,11.2,0.8h39.2
			c6.6,0,12.2-0.2,16.8-0.5c4.6-0.3,8.5-1,11.8-2c3.3-1,6.2-2.4,8.8-4.2c2.5-1.8,5.3-4,8.1-6.7c6.8-6.6,14-17.2,21.6-31.8h6.9
			l-20.1,58h-178.1v-6.4h8.1c2.2,0,4.5-0.3,6.9-0.8c2.4-0.5,4.6-1.2,6.7-2.2c2.1-0.9,4-2.2,5.7-3.7c1.7-1.5,2.9-3.3,3.6-5.3
			c1.4-3.7,2-11.2,2-22.4v-150.1c0-14.8-1.4-23.8-4.3-27.2c-4.1-4.6-10.9-6.9-20.6-6.9h-8.1v-6.4h178.1v50.6h-4.1
			c-1.7-8.3-3.5-15-5.5-20c-2-5-4.5-8.9-7.8-11.6c-3.2-2.7-7.3-4.5-12.3-5.2c-5-0.8-11.4-1.1-19.2-1.1H3751.4z"/>
		<path d="M4051.3,1234.7h-89.6l-15.8,36.4c-3.7,9-5.6,15.7-5.6,20.1c0,1.9,0.3,3.6,0.9,5.1c0.6,1.5,1.9,2.9,3.8,4.2
			c1.9,1.3,4.7,2.4,8.1,3.3c3.5,0.9,8.1,1.6,13.9,1.9v6.4h-72.8v-6.4c5.8-0.8,10.4-2.1,14-3.8c3.6-1.7,6.6-4,9.2-7
			c2.5-3,4.9-6.8,7-11.6c2.1-4.7,4.7-10.6,7.8-17.6l81.4-190h5.9l80.4,192.1c3.2,8,6.2,14.4,9,19.2s5.7,8.6,8.7,11.3
			c3,2.7,6.2,4.6,9.7,5.6c3.5,1,7.7,1.6,12.6,1.8v6.4h-91.3v-6.4c9.2-0.3,15.4-1.8,18.7-4.5c3.3-2.6,5-5.8,5-9.5
			c-0.2-4.9-2.5-12.9-6.9-23.9L4051.3,1234.7z M4046.5,1222l-39.2-93.4l-40.2,93.4H4046.5z"/>
		<path d="M4149.5,1312v-6.4h8.9c3.9,0,7.4-0.3,10.4-1c3.1-0.7,5.6-2.2,7.6-4.6c2-2.4,3.6-5.9,4.7-10.4c1.1-4.6,1.7-10.8,1.7-18.6
			v-149.3c0-14.2-1.6-23.2-4.8-27c-4.4-5.1-10.9-7.6-19.6-7.6h-8.9v-6.4h94.1c34.3,0,60.6,4,78.9,12c18.1,8,32.6,21,43.5,39.2
			c11,18.5,16.5,39.6,16.5,63.3c0,17.1-2.8,32.8-8.3,47.1c-5.5,14.2-13.7,26.5-24.7,36.9c-10.9,10.3-24.5,18.4-40.6,24.2
			c-16.1,5.8-34.9,8.7-56.2,8.7H4149.5z M4215.7,1295.3c14.1,3.2,26.1,4.8,36.1,4.8c13.1,0,25.2-2.4,36.4-7.3s20.9-11.7,29.1-20.6
			c8.2-8.9,14.7-19.7,19.3-32.4c4.7-12.7,7-27,7-42.7c0-15.9-2.3-30.3-6.9-43.1c-4.6-12.8-11-23.7-19.3-32.6
			c-8.3-8.9-18.2-15.7-29.5-20.5c-11.4-4.7-23.8-7.1-37.4-7.1c-10,0-21.6,1.7-34.9,5.1V1295.3z"/>
		<path d="M4803.4,1080.8v6.4c-4.6,0-8.4,0.4-11.3,1.3c-3,0.9-5.7,2.8-8.3,5.7c-2.5,3-5.1,7.4-7.6,13.2s-5.5,13.7-8.9,23.5
			l-64.4,186.5h-6.9l-52.7-147.8l-52.2,147.8h-6.4l-68.7-192.1c-2.5-7.1-4.6-12.8-6.1-16.9c-1.5-4.2-2.7-6.9-3.6-8.3
			c-2.4-4.4-5.5-7.7-9.3-9.8c-3.8-2.1-9.1-3.2-15.9-3.2v-6.4h85.5v6.4h-4.1c-5.9,0-10.5,1.4-13.7,4.1c-3.2,2.7-4.8,6-4.8,9.9
			c0,4.1,2.5,13.2,7.6,27.5l45.5,129.8l38.2-110.4l-12.2-34.9c-1.9-4.2-3.7-8-5.6-11.2c-1.9-3.2-4-5.9-6.4-8.1
			c-2.4-2.2-5.2-3.9-8.4-5c-3.2-1.1-7.1-1.7-11.7-1.7v-6.4h89.8v6.4h-6.1c-6.4,0-11.1,1.4-14,4.1c-2.9,2.7-4.3,6.4-4.3,11.2
			c0,5.8,2.5,15.9,7.6,30.3l44.3,125.7l44-127.5c2.4-7.1,4.2-13.1,5.6-17.8c1.4-4.7,2-8.6,2-11.4c0-5.4-2.4-9.2-7.1-11.3
			c-4.8-2.1-10.9-3.2-18.6-3.2v-6.4H4803.4z"/>
		<path d="M4933.9,1075.7c14.8,0,28.8,3.1,42.2,9.2c13.4,6.1,25.2,14.5,35.4,25.2c10.2,10.7,18.3,23.3,24.3,37.8
			c6,14.5,9,30.2,9,47.2c0,17.5-3,33.7-9,48.6c-6,14.9-14.2,27.9-24.4,38.8c-10.3,10.9-22.3,19.5-36.1,25.7
			c-13.8,6.2-28.5,9.3-44.1,9.3c-15.8,0-30.5-3-44.3-8.9c-13.7-5.9-25.7-14.3-35.7-25.1c-10.1-10.8-18.1-23.6-23.9-38.5
			c-5.9-14.9-8.8-31.4-8.8-49.4c0-16.6,2.9-32.2,8.8-46.8c5.9-14.6,13.9-27.3,24.2-38c10.3-10.8,22.4-19.3,36.5-25.6
			C4901.9,1078.8,4917.3,1075.7,4933.9,1075.7z M4930.6,1088.2c-11.7,0-22.1,2.5-31.2,7.5c-9.1,5-16.7,12.1-22.9,21.4
			c-6.2,9.2-10.9,20.4-14.1,33.6c-3.2,13.1-4.8,27.9-4.8,44.4c0,16.3,1.6,31.2,4.7,44.7c3.1,13.5,7.8,25.1,14,34.9
			c6.2,9.8,13.9,17.3,23,22.6c9.2,5.3,19.7,8,31.5,8c10.7,0,20.6-2,29.6-6.1c9.1-4.1,17-10.4,23.8-19c6.8-8.6,12.1-19.5,15.9-32.8
			c3.8-13.3,5.7-29.2,5.7-47.7c0-17.5-1.6-33.1-4.7-46.9c-3.1-13.8-7.9-25.5-14.2-35.1c-6.4-9.6-14.2-16.9-23.7-21.9
			C4953.9,1090.7,4943,1088.2,4930.6,1088.2z"/>
		<path d="M5186,1075.7c14.8,0,28.8,3.1,42.2,9.2c13.4,6.1,25.2,14.5,35.4,25.2c10.2,10.7,18.3,23.3,24.3,37.8c6,14.5,9,30.2,9,47.2
			c0,17.5-3,33.7-9,48.6c-6,14.9-14.2,27.9-24.4,38.8c-10.3,10.9-22.3,19.5-36.1,25.7c-13.8,6.2-28.5,9.3-44.1,9.3
			c-15.8,0-30.5-3-44.3-8.9c-13.7-5.9-25.7-14.3-35.7-25.1c-10.1-10.8-18.1-23.6-23.9-38.5c-5.9-14.9-8.8-31.4-8.8-49.4
			c0-16.6,2.9-32.2,8.8-46.8c5.9-14.6,13.9-27.3,24.2-38c10.3-10.8,22.4-19.3,36.5-25.6C5154,1078.8,5169.4,1075.7,5186,1075.7z
			 M5182.7,1088.2c-11.7,0-22.1,2.5-31.2,7.5c-9.1,5-16.7,12.1-22.9,21.4c-6.2,9.2-10.9,20.4-14.1,33.6c-3.2,13.1-4.8,27.9-4.8,44.4
			c0,16.3,1.6,31.2,4.7,44.7c3.1,13.5,7.8,25.1,14,34.9c6.2,9.8,13.9,17.3,23,22.6c9.2,5.3,19.7,8,31.5,8c10.7,0,20.6-2,29.6-6.1
			c9.1-4.1,17-10.4,23.8-19c6.8-8.6,12.1-19.5,15.9-32.8c3.8-13.3,5.7-29.2,5.7-47.7c0-17.5-1.6-33.1-4.7-46.9
			c-3.1-13.8-7.9-25.5-14.2-35.1c-6.4-9.6-14.2-16.9-23.7-21.9C5206,1090.7,5195.1,1088.2,5182.7,1088.2z"/>
		<path d="M5316.3,1312v-6.4h8.9c3.9,0,7.4-0.3,10.4-1c3.1-0.7,5.6-2.2,7.6-4.6c2-2.4,3.6-5.9,4.7-10.4c1.1-4.6,1.7-10.8,1.7-18.6
			v-149.3c0-14.2-1.6-23.2-4.8-27c-4.4-5.1-10.9-7.6-19.6-7.6h-8.9v-6.4h94.1c34.3,0,60.6,4,78.9,12c18.1,8,32.6,21,43.5,39.2
			c11,18.5,16.5,39.6,16.5,63.3c0,17.1-2.8,32.8-8.3,47.1c-5.5,14.2-13.7,26.5-24.7,36.9c-10.9,10.3-24.5,18.4-40.6,24.2
			c-16.1,5.8-34.9,8.7-56.2,8.7H5316.3z M5382.4,1295.3c14.1,3.2,26.1,4.8,36.1,4.8c13.1,0,25.2-2.4,36.4-7.3s20.9-11.7,29.1-20.6
			c8.2-8.9,14.7-19.7,19.3-32.4c4.7-12.7,7-27,7-42.7c0-15.9-2.3-30.3-6.9-43.1c-4.6-12.8-11-23.7-19.3-32.6
			c-8.3-8.9-18.2-15.7-29.5-20.5c-11.4-4.7-23.8-7.1-37.4-7.1c-10,0-21.6,1.7-34.9,5.1V1295.3z"/>
	</g>
	<g>
		<path d="M3924.4,2078.3v54.4h-3.8c-1.9-14.6-6.2-24.9-12.8-30.9c-6.7-6-16.6-9-29.6-9h-32.6v176.8c0,7.8,0.5,14,1.7,18.4
			c1.1,4.5,2.7,7.8,4.7,10c2,2.2,4.6,3.6,7.6,4.2c3.1,0.6,6.6,0.9,10.7,0.9h7.9v6.4h-98v-6.4h8.1c4.1,0,7.6-0.3,10.7-1
			c3.1-0.7,5.6-2.2,7.6-4.5c2-2.3,3.6-5.6,4.7-10c1.1-4.4,1.7-10.4,1.7-18.1v-176.8h-27.7c-7,0-13.1,0.6-18.4,1.7
			c-5.3,1.1-10,3.1-13.9,6.1c-3.9,3-7,7-9.3,12.2c-2.3,5.2-3.7,11.8-4.2,20h-6.4v-54.4H3924.4z"/>
		<path d="M4056.9,2073.2c14.8,0,28.8,3.1,42.2,9.2c13.4,6.1,25.2,14.5,35.4,25.2c10.2,10.7,18.3,23.3,24.3,37.8
			c6,14.5,9,30.2,9,47.2c0,17.5-3,33.7-9,48.6c-6,14.9-14.2,27.9-24.4,38.8c-10.3,10.9-22.3,19.5-36.1,25.7
			c-13.8,6.2-28.5,9.3-44.1,9.3c-15.8,0-30.5-3-44.3-8.9c-13.7-5.9-25.7-14.3-35.7-25.1c-10.1-10.8-18.1-23.6-23.9-38.5
			c-5.9-14.9-8.8-31.4-8.8-49.4c0-16.6,2.9-32.2,8.8-46.8c5.9-14.6,13.9-27.3,24.2-38c10.3-10.8,22.4-19.3,36.5-25.6
			C4025,2076.3,4040.3,2073.2,4056.9,2073.2z M4053.6,2085.6c-11.7,0-22.1,2.5-31.2,7.5c-9.1,5-16.7,12.1-22.9,21.4
			c-6.2,9.2-10.9,20.4-14.1,33.6c-3.2,13.1-4.8,27.9-4.8,44.4c0,16.3,1.6,31.2,4.7,44.7c3.1,13.5,7.8,25.1,14,34.9
			c6.2,9.8,13.9,17.3,23,22.6c9.2,5.3,19.7,8,31.5,8c10.7,0,20.6-2,29.6-6.1c9.1-4.1,17-10.4,23.8-19c6.8-8.6,12.1-19.5,15.9-32.8
			c3.8-13.3,5.7-29.2,5.7-47.7c0-17.5-1.6-33.1-4.7-46.9c-3.1-13.8-7.9-25.5-14.2-35.1c-6.4-9.6-14.2-16.9-23.7-21.9
			C4076.9,2088.1,4066,2085.6,4053.6,2085.6z"/>
		<path d="M4383.3,2078.3v54.4h-3.8c-1.9-14.6-6.2-24.9-12.8-30.9c-6.7-6-16.6-9-29.6-9h-32.6v176.8c0,7.8,0.5,14,1.7,18.4
			c1.1,4.5,2.7,7.8,4.7,10c2,2.2,4.6,3.6,7.6,4.2c3.1,0.6,6.6,0.9,10.7,0.9h7.9v6.4h-98v-6.4h8.1c4.1,0,7.6-0.3,10.7-1
			c3.1-0.7,5.6-2.2,7.6-4.5c2-2.3,3.6-5.6,4.7-10c1.1-4.4,1.7-10.4,1.7-18.1v-176.8h-27.7c-7,0-13.1,0.6-18.4,1.7
			c-5.3,1.1-10,3.1-13.9,6.1c-3.9,3-7,7-9.3,12.2c-2.3,5.2-3.7,11.8-4.2,20h-6.4v-54.4H4383.3z"/>
		<path d="M4526.3,2232.2h-89.6l-15.8,36.4c-3.7,9-5.6,15.7-5.6,20.1c0,1.9,0.3,3.6,0.9,5.1c0.6,1.5,1.9,2.9,3.8,4.2
			c1.9,1.3,4.7,2.4,8.1,3.3c3.5,0.9,8.1,1.6,13.9,1.9v6.4h-72.8v-6.4c5.8-0.8,10.4-2.1,14-3.8c3.6-1.7,6.6-4,9.2-7
			c2.5-3,4.9-6.8,7-11.6c2.1-4.7,4.7-10.6,7.8-17.6l81.4-190h5.9l80.4,192.1c3.2,8,6.2,14.4,9,19.2s5.7,8.6,8.7,11.3
			c3,2.7,6.2,4.6,9.7,5.6c3.5,1,7.7,1.6,12.6,1.8v6.4h-91.3v-6.4c9.2-0.3,15.4-1.8,18.7-4.5c3.3-2.6,5-5.8,5-9.5
			c-0.2-4.9-2.5-12.9-6.9-23.9L4526.3,2232.2z M4521.5,2219.5l-39.2-93.4l-40.2,93.4H4521.5z"/>
		<path d="M4818.9,2245.7l5.6,1l-19.8,62.8h-179.1v-6.4h8.9c9.5,0,16.5-3.1,20.9-9.4c2.4-3.7,3.6-12.1,3.6-25.2v-149.3
			c0-14.2-1.6-23.2-4.8-27c-4.4-5.1-10.9-7.6-19.6-7.6h-8.9v-6.4h104.8v6.4c-6.3,0-11.5,0.3-15.6,0.9c-4.2,0.6-7.6,1.4-10.3,2.5
			c-2.7,1.1-4.8,2.4-6.4,3.9c-1.5,1.5-2.8,3.2-3.8,5.1c-1.7,3.4-2.5,12.1-2.5,26.2v145.3c0,8,0.6,13.7,1.8,17.3
			c1.2,3.6,3.6,6,7.1,7.4c3.1,1,12,1.5,26.7,1.5h16.8c17.8,0,30.3-1.3,37.4-3.8c3.6-1.2,7-2.9,10.2-5.1c3.2-2.2,6.4-5.1,9.4-8.7
			c3.1-3.6,6-7.9,8.9-13C4812.9,2259.2,4815.8,2253,4818.9,2245.7z"/>
		<path d="M5032.1,2245.7l5.6,1l-19.8,62.8h-179.1v-6.4h8.9c9.5,0,16.5-3.1,20.9-9.4c2.4-3.7,3.6-12.1,3.6-25.2v-149.3
			c0-14.2-1.6-23.2-4.8-27c-4.4-5.1-10.9-7.6-19.6-7.6h-8.9v-6.4h104.8v6.4c-6.3,0-11.5,0.3-15.6,0.9c-4.2,0.6-7.6,1.4-10.3,2.5
			c-2.7,1.1-4.8,2.4-6.4,3.9c-1.5,1.5-2.8,3.2-3.8,5.1c-1.7,3.4-2.5,12.1-2.5,26.2v145.3c0,8,0.6,13.7,1.8,17.3
			c1.2,3.6,3.6,6,7.1,7.4c3.1,1,12,1.5,26.7,1.5h16.8c17.8,0,30.3-1.3,37.4-3.8c3.6-1.2,7-2.9,10.2-5.1c3.2-2.2,6.4-5.1,9.4-8.7
			c3.1-3.6,6-7.9,8.9-13C5026.1,2259.2,5029,2253,5032.1,2245.7z"/>
		<path d="M5176.6,2078.3h80.6v6.4h-4.6c-6.4,0-13.4,2.9-20.9,8.8c-7.5,5.9-15.7,16-24.7,30.4l-55.7,87.8v58c0,7.8,0.5,14,1.7,18.4
			c1.1,4.5,2.7,7.8,4.8,10c2.1,2.2,4.7,3.6,7.9,4.2c3.1,0.6,6.7,0.9,10.8,0.9h7.4v6.4h-98.2v-6.4h8.4c4.1,0,7.6-0.3,10.7-1
			c3.1-0.7,5.6-2.2,7.6-4.5c2-2.3,3.6-5.6,4.6-10c1-4.4,1.5-10.4,1.5-18.1v-55l-63.3-96.7c-3.9-5.8-7.1-10.4-9.5-13.9
			c-2.5-3.5-4.4-6-5.7-7.5c-0.7-0.7-1.8-1.7-3.4-3.1c-1.6-1.4-3.6-2.7-6-3.9c-2.4-1.3-5-2.4-7.9-3.4c-2.9-1-5.9-1.5-9.2-1.5v-6.4
			h98.7v6.4h-5.1c-2.5,0-5.1,0.3-7.6,0.9c-2.5,0.6-4.8,1.5-6.9,2.7c-2,1.2-3.7,2.8-5,4.7c-1.3,2-1.9,4.2-1.9,6.7
			c-0.2,2,0.7,4.9,2.5,8.5c1.9,3.6,4.5,8.2,7.9,13.6l48.1,74.5l45.5-71.2c6.4-10.3,9.8-18.3,10.2-23.9c-0.3-2.4-0.9-4.6-1.7-6.6
			c-0.8-2-2-3.8-3.8-5.2c-1.8-1.4-4.1-2.6-7-3.4c-2.9-0.8-6.5-1.3-10.9-1.3V2078.3z"/>
	</g>
	<g>
		<path d="M3298.6,2647H3237l-78.4-108.1c-2.9,0.2-5.5,0.3-7.8,0.4c-2.3,0.1-4.4,0.1-6.2,0.1c-1.5,0-3.1,0-4.8-0.1
			c-1.7-0.1-3.5-0.2-5.3-0.4v67.2c0,8.1,0.5,14.5,1.7,19.2c1.1,4.7,2.7,8.1,4.8,10.4c2.1,2.3,4.7,3.7,7.6,4.2c3,0.5,6.3,0.8,10,0.8
			h9.2v6.4h-99.2v-6.4h8.9c9.5,0,16.5-3.1,20.9-9.4c2.4-3.7,3.6-12.1,3.6-25.2v-149.3c0-14.2-1.6-23.2-4.8-27
			c-4.4-5.1-10.9-7.6-19.6-7.6h-8.9v-6.4h84.2c12.4,0,23.1,0.5,32.1,1.4c9,0.9,16.4,2.3,22.1,4.2c5.8,1.9,11.2,4.5,16.3,7.8
			c5.1,3.3,9.5,7.3,13.4,12c3.8,4.7,6.8,9.9,9,15.6c2.2,5.8,3.3,12,3.3,18.6c0,14.4-4.6,26.8-13.7,37.1c-9.2,10.3-23.5,17.7-43,22.1
			l47.6,66.1c5.6,7.6,10.6,13.9,14.9,18.8c4.3,4.9,8.7,8.8,13,11.7c4.3,2.9,8.9,5,13.7,6.4c4.8,1.4,10.6,2.4,17.2,3.1V2647z
			 M3134.5,2528.2c2.2,0,4.1,0,5.7,0.1c1.6,0.1,2.9,0.1,3.9,0.1c11,0,20.7-1.3,29-3.8c8.3-2.5,15.3-6.1,20.9-10.7
			c5.6-4.6,9.8-10,12.6-16.2c2.8-6.2,4.2-12.9,4.2-20.2c0-7.1-1.2-13.7-3.6-19.7c-2.4-6-5.8-11.2-10.2-15.5
			c-4.4-4.3-9.7-7.7-15.8-10c-6.1-2.4-12.8-3.6-20.1-3.6c-7,0-15.9,1.1-26.7,3.3V2528.2z"/>
		<path d="M3368.6,2428.5v91.3h50.6c7.5,0,13.5-0.7,18.1-2c4.6-1.4,8.2-3.4,10.8-6.1c2.6-2.7,4.5-6.2,5.5-10.4c1-4.2,1.7-9.2,2-15
			h6.4v80.4h-6.4c-0.9-6.6-1.8-12.1-2.9-16.5c-1.1-4.4-2.9-7.9-5.3-10.6c-2.5-2.6-5.9-4.5-10.3-5.6c-4.4-1.1-10.3-1.7-17.8-1.7
			h-50.6v76.3c0,5.8,0.1,10.3,0.3,13.7c0.2,3.4,0.8,6,2,7.8c1.2,1.8,3.1,2.9,5.6,3.4c2.5,0.5,6.3,0.8,11.2,0.8h39.2
			c6.6,0,12.2-0.2,16.8-0.5c4.6-0.3,8.5-1,11.8-2c3.3-1,6.2-2.4,8.8-4.2c2.5-1.8,5.3-4,8.1-6.7c6.8-6.6,14-17.2,21.6-31.8h6.9
			l-20.1,58h-178.1v-6.4h8.1c2.2,0,4.5-0.3,6.9-0.8c2.4-0.5,4.6-1.2,6.7-2.2c2.1-0.9,4-2.2,5.7-3.7c1.7-1.5,2.9-3.3,3.6-5.3
			c1.4-3.7,2-11.2,2-22.4v-150.1c0-14.8-1.4-23.8-4.3-27.2c-4.1-4.6-10.9-6.9-20.6-6.9h-8.1v-6.4h178.1v50.6h-4.1
			c-1.7-8.3-3.5-15-5.5-20c-2-5-4.5-8.9-7.8-11.6c-3.2-2.7-7.3-4.5-12.3-5.2c-5-0.8-11.4-1.1-19.2-1.1H3368.6z"/>
		<path d="M3616.4,2640.7v6.4h-99v-6.4h8.1c4.1,0,7.7-0.3,10.8-0.9c3.1-0.6,5.7-2,7.8-4.3c2-2.3,3.6-5.8,4.7-10.4
			c1.1-4.7,1.7-11,1.7-19v-149.3c0-5.3-0.1-9.6-0.4-13.1c-0.3-3.5-0.7-6.3-1.3-8.5c-0.6-2.2-1.5-3.9-2.7-5.2
			c-1.2-1.3-2.8-2.5-4.8-3.7c-5.1-2.7-10.3-4.1-15.8-4.1h-8.1v-6.4h99v6.4h-8.1c-4.1,0-7.7,0.3-10.8,1c-3.1,0.7-5.7,2.2-7.8,4.5
			c-2,2.3-3.6,5.8-4.7,10.4c-1.1,4.7-1.7,10.9-1.7,18.7v149.3c0,5.4,0.1,9.8,0.3,13.2c0.2,3.4,0.6,6.2,1.3,8.4
			c0.7,2.2,1.7,3.9,2.9,5.2c1.3,1.3,2.9,2.5,5,3.7c4.7,2.7,9.9,4.1,15.5,4.1H3616.4z"/>
		<path d="M3620.4,2415.8h62.6l141.5,173.5V2456c0-7.8-0.6-14-1.7-18.6c-1.1-4.6-2.7-8-4.8-10.2c-2.1-2.2-4.7-3.6-7.8-4.2
			c-3.1-0.6-6.5-0.9-10.4-0.9h-8.1v-6.4h80.6v6.4h-8.4c-4.1,0-7.6,0.3-10.7,1c-3.1,0.7-5.6,2.2-7.6,4.6c-2,2.4-3.6,5.8-4.6,10.2
			c-1,4.4-1.5,10.4-1.5,18.1v194.9h-6.1L3681,2464.6v142.5c0,8,0.5,14.2,1.7,18.7c1.1,4.5,2.7,7.8,4.7,10c2,2.2,4.6,3.6,7.6,4.1
			c3.1,0.5,6.5,0.8,10.4,0.8h8.1v6.4h-80.4v-6.4h8.1c4.1,0,7.6-0.3,10.7-1c3.1-0.7,5.6-2.2,7.8-4.5c2.1-2.3,3.7-5.6,4.7-10
			c1-4.4,1.5-10.4,1.5-18.1v-160.8c-3.4-4.1-6.2-7.3-8.5-9.7c-2.3-2.4-4.5-4.3-6.5-5.9s-4.2-2.8-6.6-3.8c-2.4-1-5.3-2.1-8.9-3.3
			c-3.4-1-8.4-1.5-15-1.5V2415.8z"/>
		<path d="M3948.6,2428.5v90.8h42c4.9,0,9.1-0.5,12.6-1.4c3.5-0.9,6.4-2.6,8.8-5c2.4-2.4,4.2-5.6,5.6-9.7c1.4-4.1,2.5-9.2,3.3-15.5
			h6.4v78.1h-6.4c-0.2-5.8-0.8-10.7-1.8-14.8c-1-4.1-2.7-7.4-5-10c-2.3-2.6-5.3-4.5-9.2-5.7c-3.8-1.2-8.6-1.8-14.4-1.8h-42v72.5
			c0,5.4,0.1,9.8,0.3,13.2c0.2,3.4,0.6,6.2,1.3,8.4c0.7,2.2,1.7,3.9,2.9,5.2c1.3,1.3,2.9,2.5,5,3.7c4.7,2.7,9.9,4.1,15.5,4.1h8.4
			v6.4h-99.2v-6.4h8.1c4.1,0,7.7-0.3,10.8-0.9c3.1-0.6,5.7-2,7.8-4.3c2-2.3,3.6-5.8,4.7-10.4c1.1-4.7,1.7-11,1.7-19v-149.3
			c0-5.3-0.1-9.6-0.4-13.1c-0.3-3.5-0.7-6.3-1.3-8.5c-0.6-2.2-1.5-4-2.7-5.3c-1.2-1.4-2.8-2.5-4.8-3.6c-2.5-1.4-5.1-2.4-7.6-3.1
			c-2.5-0.7-5.3-1-8.1-1h-8.1v-6.4h172v50.9h-3.8c-2.2-8.3-4.7-15-7.5-20c-2.8-5-6.2-8.9-10.2-11.6c-4-2.7-8.7-4.5-14.1-5.3
			c-5.4-0.8-12-1.3-19.6-1.3H3948.6z"/>
		<path d="M4199,2410.7c14.8,0,28.8,3.1,42.2,9.2c13.4,6.1,25.2,14.5,35.4,25.2c10.2,10.7,18.3,23.3,24.3,37.8c6,14.5,9,30.2,9,47.2
			c0,17.5-3,33.7-9,48.6c-6,14.9-14.2,27.9-24.4,38.8c-10.3,10.9-22.3,19.5-36.1,25.7c-13.8,6.2-28.5,9.3-44.1,9.3
			c-15.8,0-30.5-3-44.3-8.9c-13.7-5.9-25.7-14.3-35.7-25.1c-10.1-10.8-18.1-23.6-23.9-38.5c-5.9-14.9-8.8-31.4-8.8-49.4
			c0-16.6,2.9-32.2,8.8-46.8c5.9-14.6,13.9-27.3,24.2-38c10.3-10.8,22.4-19.3,36.5-25.6C4167,2413.8,4182.4,2410.7,4199,2410.7z
			 M4195.7,2423.2c-11.7,0-22.1,2.5-31.2,7.5c-9.1,5-16.7,12.1-22.9,21.4c-6.2,9.2-10.9,20.4-14.1,33.6c-3.2,13.1-4.8,27.9-4.8,44.4
			c0,16.3,1.6,31.2,4.7,44.7c3.1,13.5,7.8,25.1,14,34.9c6.2,9.8,13.9,17.3,23,22.6c9.2,5.3,19.7,8,31.5,8c10.7,0,20.6-2,29.6-6.1
			c9.1-4.1,17-10.4,23.8-19c6.8-8.6,12.1-19.5,15.9-32.8c3.8-13.3,5.7-29.2,5.7-47.7c0-17.5-1.6-33.1-4.7-46.9
			c-3.1-13.8-7.9-25.5-14.2-35.1c-6.4-9.6-14.2-16.9-23.7-21.9C4219,2425.7,4208.1,2423.2,4195.7,2423.2z"/>
		<path d="M4559.2,2647h-61.6l-78.4-108.1c-2.9,0.2-5.5,0.3-7.8,0.4c-2.3,0.1-4.4,0.1-6.2,0.1c-1.5,0-3.1,0-4.8-0.1
			c-1.7-0.1-3.5-0.2-5.3-0.4v67.2c0,8.1,0.5,14.5,1.7,19.2c1.1,4.7,2.7,8.1,4.8,10.4c2.1,2.3,4.7,3.7,7.6,4.2c3,0.5,6.3,0.8,10,0.8
			h9.2v6.4h-99.2v-6.4h8.9c9.5,0,16.5-3.1,20.9-9.4c2.4-3.7,3.6-12.1,3.6-25.2v-149.3c0-14.2-1.6-23.2-4.8-27
			c-4.4-5.1-10.9-7.6-19.6-7.6h-8.9v-6.4h84.2c12.4,0,23.1,0.5,32.1,1.4c9,0.9,16.4,2.3,22.1,4.2c5.8,1.9,11.2,4.5,16.3,7.8
			c5.1,3.3,9.5,7.3,13.4,12c3.8,4.7,6.8,9.9,9,15.6c2.2,5.8,3.3,12,3.3,18.6c0,14.4-4.6,26.8-13.7,37.1c-9.2,10.3-23.5,17.7-43,22.1
			l47.6,66.1c5.6,7.6,10.6,13.9,14.9,18.8c4.3,4.9,8.7,8.8,13,11.7c4.3,2.9,8.9,5,13.7,6.4c4.8,1.4,10.6,2.4,17.2,3.1V2647z
			 M4395.1,2528.2c2.2,0,4.1,0,5.7,0.1c1.6,0.1,2.9,0.1,3.9,0.1c11,0,20.7-1.3,29-3.8c8.3-2.5,15.3-6.1,20.9-10.7
			c5.6-4.6,9.8-10,12.6-16.2c2.8-6.2,4.2-12.9,4.2-20.2c0-7.1-1.2-13.7-3.6-19.7c-2.4-6-5.8-11.2-10.2-15.5
			c-4.4-4.3-9.7-7.7-15.8-10c-6.1-2.4-12.8-3.6-20.1-3.6c-7,0-15.9,1.1-26.7,3.3V2528.2z"/>
		<path d="M4766.3,2410.7l5.3,78.6h-5.3c-7.1-23.6-17.2-40.5-30.1-50.9c-13-10.3-28.6-15.5-46.9-15.5c-11.9,0-22.8,2.2-32.8,6.7
			c-10,4.5-18.6,11.4-25.8,20.7c-7.2,9.3-12.8,21-16.9,35.1c-4.1,14.1-6.1,30.7-6.1,49.9c0,15.4,1.9,29.4,5.7,42
			c3.8,12.6,9.4,23.3,16.8,32.2s16.4,15.8,27.1,20.6s23,7.3,36.9,7.3c14.6,0,27.8-3.2,39.7-9.7c11.4-5.9,24-18.7,37.9-38.2l5.3,3.3
			c-11.7,20.5-25.2,35.6-40.6,45.2c-15.4,9.6-33.7,14.4-55.1,14.4c-16.5,0-31.5-2.9-45.3-8.7c-13.7-5.8-25.6-13.9-35.5-24.3
			c-9.9-10.4-17.7-22.8-23.3-37.1c-5.6-14.3-8.4-30.1-8.4-47.2c0-23.2,5.2-44.4,15.5-63.6c10.2-19.3,24.3-34.3,42.5-44.8
			c18.3-10.7,38.2-16,59.5-16c16.8,0,33.2,4.1,49.4,12.2c4.7,2.5,8.1,3.8,10.2,3.8c3.7,0,6.8-1.5,9.3-4.6c2.5-3.1,4.2-6.9,5.2-11.4
			H4766.3z"/>
		<path d="M4862,2428.5v91.3h50.6c7.5,0,13.5-0.7,18.1-2c4.6-1.4,8.2-3.4,10.8-6.1c2.6-2.7,4.5-6.2,5.5-10.4c1-4.2,1.7-9.2,2-15h6.4
			v80.4h-6.4c-0.9-6.6-1.8-12.1-2.9-16.5c-1.1-4.4-2.9-7.9-5.3-10.6c-2.5-2.6-5.9-4.5-10.3-5.6c-4.4-1.1-10.3-1.7-17.8-1.7H4862
			v76.3c0,5.8,0.1,10.3,0.3,13.7c0.2,3.4,0.8,6,2,7.8c1.2,1.8,3.1,2.9,5.6,3.4c2.5,0.5,6.3,0.8,11.2,0.8h39.2
			c6.6,0,12.2-0.2,16.8-0.5c4.6-0.3,8.5-1,11.8-2c3.3-1,6.2-2.4,8.8-4.2c2.5-1.8,5.3-4,8.1-6.7c6.8-6.6,14-17.2,21.6-31.8h6.9
			l-20.1,58h-178.1v-6.4h8.1c2.2,0,4.5-0.3,6.9-0.8c2.4-0.5,4.6-1.2,6.7-2.2c2.1-0.9,4-2.2,5.7-3.7c1.7-1.5,2.9-3.3,3.6-5.3
			c1.4-3.7,2-11.2,2-22.4v-150.1c0-14.8-1.4-23.8-4.3-27.2c-4.1-4.6-10.9-6.9-20.6-6.9h-8.1v-6.4h178.1v50.6h-4.1
			c-1.7-8.3-3.5-15-5.5-20c-2-5-4.5-8.9-7.8-11.6c-3.2-2.7-7.3-4.5-12.3-5.2c-5-0.8-11.4-1.1-19.2-1.1H4862z"/>
		<path d="M5144.9,2647l-89.3-194.4v154.4c0,8,0.5,14.2,1.7,18.7c1.1,4.5,2.7,7.8,4.8,10c2.1,2.2,4.7,3.6,7.8,4.1
			c3.1,0.5,6.5,0.8,10.4,0.8h8.1v6.4H5008v-6.4h8.1c4.1,0,7.6-0.3,10.7-0.9c3.1-0.6,5.6-2,7.6-4.3c2-2.3,3.6-5.7,4.6-10.2
			c1-4.5,1.5-10.6,1.5-18.2V2456c0-5.4-0.3-10.2-0.8-14.4c-0.5-4.2-1.8-7.7-3.9-10.6c-2.1-2.9-5.3-5.1-9.7-6.6s-10.4-2.3-18.2-2.3
			v-6.4h65.4l84,180.9l82.4-180.9h65.4v6.4h-7.9c-4.2,0-7.9,0.3-10.9,1c-3.1,0.7-5.6,2.2-7.6,4.5c-2,2.3-3.6,5.7-4.6,10.2
			c-1,4.5-1.5,10.6-1.5,18.2v151.1c0,8,0.5,14.2,1.7,18.7c1.1,4.5,2.7,7.8,4.8,10c2.1,2.2,4.7,3.6,7.8,4.1s6.5,0.8,10.4,0.8h7.9v6.4
			H5207v-6.4h8.1c4.1,0,7.6-0.3,10.7-1c3.1-0.7,5.6-2.2,7.8-4.5c2.1-2.3,3.7-5.6,4.7-10c1-4.4,1.5-10.4,1.5-18.1v-154.4l-89,194.4
			H5144.9z"/>
		<path d="M5385.6,2428.5v91.3h50.6c7.5,0,13.5-0.7,18.1-2c4.6-1.4,8.2-3.4,10.8-6.1c2.6-2.7,4.5-6.2,5.5-10.4c1-4.2,1.7-9.2,2-15
			h6.4v80.4h-6.4c-0.9-6.6-1.8-12.1-2.9-16.5c-1.1-4.4-2.9-7.9-5.3-10.6c-2.5-2.6-5.9-4.5-10.3-5.6c-4.4-1.1-10.3-1.7-17.8-1.7
			h-50.6v76.3c0,5.8,0.1,10.3,0.3,13.7c0.2,3.4,0.8,6,2,7.8c1.2,1.8,3.1,2.9,5.6,3.4c2.5,0.5,6.3,0.8,11.2,0.8h39.2
			c6.6,0,12.2-0.2,16.8-0.5c4.6-0.3,8.5-1,11.8-2c3.3-1,6.2-2.4,8.8-4.2c2.5-1.8,5.3-4,8.1-6.7c6.8-6.6,14-17.2,21.6-31.8h6.9
			l-20.1,58h-178.1v-6.4h8.1c2.2,0,4.5-0.3,6.9-0.8c2.4-0.5,4.6-1.2,6.7-2.2c2.1-0.9,4-2.2,5.7-3.7c1.7-1.5,2.9-3.3,3.6-5.3
			c1.4-3.7,2-11.2,2-22.4v-150.1c0-14.8-1.4-23.8-4.3-27.2c-4.1-4.6-10.9-6.9-20.6-6.9h-8.1v-6.4h178.1v50.6h-4.1
			c-1.7-8.3-3.5-15-5.5-20c-2-5-4.5-8.9-7.8-11.6c-3.2-2.7-7.3-4.5-12.3-5.2c-5-0.8-11.4-1.1-19.2-1.1H5385.6z"/>
		<path d="M5521.2,2415.8h62.6l141.5,173.5V2456c0-7.8-0.6-14-1.7-18.6c-1.1-4.6-2.7-8-4.8-10.2c-2.1-2.2-4.7-3.6-7.8-4.2
			c-3.1-0.6-6.5-0.9-10.4-0.9h-8.1v-6.4h80.6v6.4h-8.4c-4.1,0-7.6,0.3-10.7,1c-3.1,0.7-5.6,2.2-7.6,4.6c-2,2.4-3.6,5.8-4.6,10.2
			c-1,4.4-1.5,10.4-1.5,18.1v194.9h-6.1l-152.4-186.2v142.5c0,8,0.5,14.2,1.7,18.7c1.1,4.5,2.7,7.8,4.7,10c2,2.2,4.6,3.6,7.6,4.1
			c3.1,0.5,6.5,0.8,10.4,0.8h8.1v6.4h-80.4v-6.4h8.1c4.1,0,7.6-0.3,10.7-1c3.1-0.7,5.6-2.2,7.8-4.5c2.1-2.3,3.7-5.6,4.7-10
			c1-4.4,1.5-10.4,1.5-18.1v-160.8c-3.4-4.1-6.2-7.3-8.5-9.7c-2.3-2.4-4.5-4.3-6.5-5.9s-4.2-2.8-6.6-3.8c-2.4-1-5.3-2.1-8.9-3.3
			c-3.4-1-8.4-1.5-15-1.5V2415.8z"/>
		<path d="M5979.9,2415.8v54.4h-3.8c-1.9-14.6-6.2-24.9-12.8-30.9c-6.7-6-16.6-9-29.6-9H5901v176.8c0,7.8,0.5,14,1.7,18.4
			c1.1,4.5,2.7,7.8,4.7,10c2,2.2,4.6,3.6,7.6,4.2c3.1,0.6,6.6,0.9,10.7,0.9h7.9v6.4h-98v-6.4h8.1c4.1,0,7.6-0.3,10.7-1
			c3.1-0.7,5.6-2.2,7.6-4.5c2-2.3,3.6-5.6,4.7-10c1.1-4.4,1.7-10.4,1.7-18.1v-176.8h-27.7c-7,0-13.1,0.6-18.4,1.7
			c-5.3,1.1-10,3.1-13.9,6.1c-3.9,3-7,7-9.3,12.2c-2.3,5.2-3.7,11.8-4.2,20h-6.4v-54.4H5979.9z"/>
	</g>
	<g>
		<path d="M3276.3,1746.6v79.9h-6.4c-2.9-21.5-9.9-38-21.1-49.4c-11.2-11.4-25.4-17-42.7-17c-5.9,0-11.4,1-16.3,3.1
			c-4.9,2-9.2,4.7-13,8c-3.7,3.3-6.6,7.1-8.7,11.3c-2,4.2-3.1,8.6-3.1,13.2c0,4.2,0.8,8.3,2.5,12.1c1.7,3.8,7,9.8,15.8,17.9
			c14.8,9.3,27.9,17,39.4,23.2c10.9,5.9,25.5,14.9,44,27c8,6.1,14.1,13.4,18.3,21.8c4.2,8.4,6.4,17.2,6.4,26.3
			c0,8.7-1.8,16.9-5.3,24.7c-3.6,7.8-8.5,14.6-14.9,20.5c-6.4,5.9-14,10.5-23,14c-9,3.5-18.8,5.2-29.5,5.2c-6.8,0-13.1-0.5-18.8-1.5
			c-1-0.2-3.7-0.9-8-2.2c-4.3-1.3-8.9-2.6-13.9-3.9c-4.9-1.4-9.5-2.6-13.7-3.8c-4.2-1.2-6.7-1.8-7.4-1.8c-2.9,0-5.1,0.9-6.7,2.5
			c-1.6,1.7-2.8,5.3-3.7,10.7h-6.4v-79.4h6.4c3.1,16.3,7,28.7,12,37.4c2.4,4.1,5.6,7.8,9.5,11.3c4,3.5,8.5,6.5,13.5,9.2
			c5,2.6,10.4,4.7,16.2,6.1c5.8,1.4,11.6,2.2,17.6,2.2c7.1,0,13.5-1,19.2-3.1c5.7-2,10.5-4.8,14.5-8.3c4-3.5,7-7.5,9.2-12.1
			c2.1-4.6,3.2-9.4,3.2-14.5c0-5.8-1.6-11.5-4.7-17.3c-3.1-5.8-8.4-11.4-15.9-17c-7.3-4.4-15.9-9.6-26-15.5
			c-19.2-11-36.2-21.6-51.1-31.8c-8.3-6.6-14.6-13.9-19-21.8c-4.3-7.9-6.5-16.7-6.5-26.3c0-8.1,1.7-15.9,5.1-23.3
			c3.4-7.4,8.1-13.9,14.1-19.5c6-5.6,13.2-10,21.5-13.2c8.3-3.2,17.3-4.8,27-4.8c12.2,0,25.2,3,38.9,8.9c3.2,1.4,5.9,2.5,8.1,3.3
			c2.2,0.9,4,1.2,5.3,1c3.1,0,5.5-0.8,7.4-2.5c1.9-1.7,3.3-5.3,4.3-10.7H3276.3z"/>
		<path d="M3520.5,1746.6l5.3,78.6h-5.3c-7.1-23.6-17.2-40.5-30.1-50.9c-13-10.3-28.6-15.5-46.9-15.5c-11.9,0-22.8,2.2-32.8,6.7
			c-10,4.5-18.6,11.4-25.8,20.7c-7.2,9.3-12.8,21-16.9,35.1c-4.1,14.1-6.1,30.7-6.1,49.9c0,15.4,1.9,29.4,5.7,42
			c3.8,12.6,9.4,23.3,16.8,32.2s16.4,15.8,27.1,20.6s23,7.3,36.9,7.3c14.6,0,27.8-3.2,39.7-9.7c11.4-5.9,24-18.7,37.9-38.2l5.3,3.3
			c-11.7,20.5-25.2,35.6-40.6,45.2c-15.4,9.6-33.7,14.4-55.1,14.4c-16.5,0-31.5-2.9-45.3-8.7c-13.7-5.8-25.6-13.9-35.5-24.3
			c-9.9-10.4-17.7-22.8-23.3-37.1c-5.6-14.3-8.4-30.1-8.4-47.2c0-23.2,5.2-44.4,15.5-63.6c10.2-19.3,24.3-34.3,42.5-44.8
			c18.3-10.7,38.2-16,59.5-16c16.8,0,33.2,4.1,49.4,12.2c4.7,2.5,8.1,3.8,10.2,3.8c3.7,0,6.8-1.5,9.3-4.6c2.5-3.1,4.2-6.9,5.2-11.4
			H3520.5z"/>
		<path d="M3779,1982.9h-61.6l-78.4-108.1c-2.9,0.2-5.5,0.3-7.8,0.4c-2.3,0.1-4.4,0.1-6.2,0.1c-1.5,0-3.1,0-4.8-0.1
			c-1.7-0.1-3.5-0.2-5.3-0.4v67.2c0,8.1,0.5,14.5,1.7,19.2c1.1,4.7,2.7,8.1,4.8,10.4c2.1,2.3,4.7,3.7,7.6,4.2c3,0.5,6.3,0.8,10,0.8
			h9.2v6.4H3549v-6.4h8.9c9.5,0,16.5-3.1,20.9-9.4c2.4-3.7,3.6-12.1,3.6-25.2v-149.3c0-14.2-1.6-23.2-4.8-27
			c-4.4-5.1-10.9-7.6-19.6-7.6h-8.9v-6.4h84.2c12.4,0,23.1,0.5,32.1,1.4c9,0.9,16.4,2.3,22.1,4.2c5.8,1.9,11.2,4.5,16.3,7.8
			c5.1,3.3,9.5,7.3,13.4,12c3.8,4.7,6.8,9.9,9,15.6c2.2,5.8,3.3,12,3.3,18.6c0,14.4-4.6,26.8-13.7,37.1c-9.2,10.3-23.5,17.7-43,22.1
			l47.6,66.1c5.6,7.6,10.6,13.9,14.9,18.8c4.3,4.9,8.7,8.8,13,11.7c4.3,2.9,8.9,5,13.7,6.4c4.8,1.4,10.6,2.4,17.2,3.1V1982.9z
			 M3614.9,1864.1c2.2,0,4.1,0,5.7,0.1c1.6,0.1,2.9,0.1,3.9,0.1c11,0,20.7-1.3,29-3.8c8.3-2.5,15.3-6.1,20.9-10.7
			c5.6-4.6,9.8-10,12.6-16.2c2.8-6.2,4.2-12.9,4.2-20.2c0-7.1-1.2-13.7-3.6-19.7c-2.4-6-5.8-11.2-10.2-15.5
			c-4.4-4.3-9.7-7.7-15.8-10c-6.1-2.4-12.8-3.6-20.1-3.6c-7,0-15.9,1.1-26.7,3.3V1864.1z"/>
		<path d="M3849,1764.4v91.3h50.6c7.5,0,13.5-0.7,18.1-2c4.6-1.4,8.2-3.4,10.8-6.1c2.6-2.7,4.5-6.2,5.5-10.4c1-4.2,1.7-9.2,2-15h6.4
			v80.4h-6.4c-0.9-6.6-1.8-12.1-2.9-16.5c-1.1-4.4-2.9-7.9-5.3-10.6c-2.5-2.6-5.9-4.5-10.3-5.6c-4.4-1.1-10.3-1.7-17.8-1.7H3849
			v76.3c0,5.8,0.1,10.3,0.3,13.7c0.2,3.4,0.8,6,2,7.8c1.2,1.8,3.1,2.9,5.6,3.4c2.5,0.5,6.3,0.8,11.2,0.8h39.2
			c6.6,0,12.2-0.2,16.8-0.5c4.6-0.3,8.5-1,11.8-2c3.3-1,6.2-2.4,8.8-4.2c2.5-1.8,5.3-4,8.1-6.7c6.8-6.6,14-17.2,21.6-31.8h6.9
			l-20.1,58h-178.1v-6.4h8.1c2.2,0,4.5-0.3,6.9-0.8c2.4-0.5,4.6-1.2,6.7-2.2c2.1-0.9,4-2.2,5.7-3.7c1.7-1.5,2.9-3.3,3.6-5.3
			c1.4-3.7,2-11.2,2-22.4v-150.1c0-14.8-1.4-23.8-4.3-27.2c-4.1-4.6-10.9-6.9-20.6-6.9h-8.1v-6.4h178.1v50.6h-4.1
			c-1.7-8.3-3.5-15-5.5-20c-2-5-4.5-8.9-7.8-11.6c-3.2-2.7-7.3-4.5-12.3-5.2c-5-0.8-11.4-1.1-19.2-1.1H3849z"/>
		<path d="M4315.8,1751.7v6.4c-4.6,0-8.4,0.4-11.3,1.3c-3,0.9-5.7,2.8-8.3,5.7c-2.5,3-5.1,7.4-7.6,13.2s-5.5,13.7-8.9,23.5
			l-64.4,186.5h-6.9l-52.7-147.8l-52.2,147.8h-6.4l-68.7-192.1c-2.5-7.1-4.6-12.8-6.1-16.9c-1.5-4.2-2.7-6.9-3.6-8.3
			c-2.4-4.4-5.5-7.7-9.3-9.8c-3.8-2.1-9.1-3.2-15.9-3.2v-6.4h85.5v6.4h-4.1c-5.9,0-10.5,1.4-13.7,4.1c-3.2,2.7-4.8,6-4.8,9.9
			c0,4.1,2.5,13.2,7.6,27.5l45.5,129.8l38.2-110.4l-12.2-34.9c-1.9-4.2-3.7-8-5.6-11.2c-1.9-3.2-4-5.9-6.4-8.1
			c-2.4-2.2-5.2-3.9-8.4-5c-3.2-1.1-7.1-1.7-11.7-1.7v-6.4h89.8v6.4h-6.1c-6.4,0-11.1,1.4-14,4.1c-2.9,2.7-4.3,6.4-4.3,11.2
			c0,5.8,2.5,15.9,7.6,30.3l44.3,125.7l44-127.5c2.4-7.1,4.2-13.1,5.6-17.8c1.4-4.7,2-8.6,2-11.4c0-5.4-2.4-9.2-7.1-11.3
			c-4.8-2.1-10.9-3.2-18.6-3.2v-6.4H4315.8z"/>
		<path d="M4478.6,1746.6v79.9h-6.4c-2.9-21.5-9.9-38-21.1-49.4c-11.2-11.4-25.4-17-42.7-17c-5.9,0-11.4,1-16.3,3.1
			c-4.9,2-9.2,4.7-13,8c-3.7,3.3-6.6,7.1-8.7,11.3c-2,4.2-3.1,8.6-3.1,13.2c0,4.2,0.8,8.3,2.5,12.1c1.7,3.8,7,9.8,15.8,17.9
			c14.8,9.3,27.9,17,39.4,23.2c10.9,5.9,25.5,14.9,44,27c8,6.1,14.1,13.4,18.3,21.8c4.2,8.4,6.4,17.2,6.4,26.3
			c0,8.7-1.8,16.9-5.3,24.7c-3.6,7.8-8.5,14.6-14.9,20.5c-6.4,5.9-14,10.5-23,14c-9,3.5-18.8,5.2-29.5,5.2c-6.8,0-13.1-0.5-18.8-1.5
			c-1-0.2-3.7-0.9-8-2.2c-4.3-1.3-8.9-2.6-13.9-3.9c-4.9-1.4-9.5-2.6-13.7-3.8c-4.2-1.2-6.7-1.8-7.4-1.8c-2.9,0-5.1,0.9-6.7,2.5
			c-1.6,1.7-2.8,5.3-3.7,10.7h-6.4v-79.4h6.4c3.1,16.3,7,28.7,12,37.4c2.4,4.1,5.6,7.8,9.5,11.3c4,3.5,8.5,6.5,13.5,9.2
			c5,2.6,10.4,4.7,16.2,6.1c5.8,1.4,11.6,2.2,17.6,2.2c7.1,0,13.5-1,19.2-3.1c5.7-2,10.5-4.8,14.5-8.3c4-3.5,7-7.5,9.2-12.1
			c2.1-4.6,3.2-9.4,3.2-14.5c0-5.8-1.6-11.5-4.7-17.3c-3.1-5.8-8.4-11.4-15.9-17c-7.3-4.4-15.9-9.6-26-15.5
			c-19.2-11-36.2-21.6-51.1-31.8c-8.3-6.6-14.6-13.9-19-21.8c-4.3-7.9-6.5-16.7-6.5-26.3c0-8.1,1.7-15.9,5.1-23.3
			c3.4-7.4,8.1-13.9,14.1-19.5c6-5.6,13.2-10,21.5-13.2c8.3-3.2,17.3-4.8,27-4.8c12.2,0,25.2,3,38.9,8.9c3.2,1.4,5.9,2.5,8.1,3.3
			c2.2,0.9,4,1.2,5.3,1c3.1,0,5.5-0.8,7.4-2.5c1.9-1.7,3.3-5.3,4.3-10.7H4478.6z"/>
		<path d="M4761.3,1864.9c9.3,2,17.3,4.8,24,8.4c6.7,3.6,12.1,7.7,16.3,12.5c4.2,4.8,7.2,10,9.2,15.8c1.9,5.8,2.9,11.8,2.9,18.1
			c0,5.8-0.9,11.4-2.8,17c-1.9,5.6-4.5,10.9-8,15.9c-3.5,5-7.8,9.5-12.8,13.5c-5.1,4-10.9,7.3-17.3,9.8c-12.2,4.8-31.5,7.1-57.8,7.1
			h-109.1v-6.4h8.7c3.9,0,7.4-0.3,10.4-1c3.1-0.7,5.6-2.2,7.8-4.6c2.1-2.4,3.7-5.9,4.8-10.4c1.1-4.6,1.7-10.8,1.7-18.6v-149.3
			c0-8.1-0.6-14.5-1.8-19.1c-1.2-4.6-2.9-8-5.1-10.3c-2.2-2.3-4.8-3.7-7.9-4.3c-3.1-0.6-6.4-0.9-9.9-0.9h-8.7v-6.4h99.7
			c32.1,0,56.4,5.4,72.9,16.3c16.5,10.9,24.8,26,24.8,45.5c0,11.7-3.6,22.1-10.7,31.2C4785.5,1853.7,4775,1860.5,4761.3,1864.9z
			 M4672,1855.7c4.2,0.9,9,1.5,14.4,1.9c5.3,0.4,11.2,0.6,17.7,0.6c22.6,0,38.8-4.1,48.6-12.2c9.8-8.1,14.8-19.4,14.8-33.8
			c0-6.6-1.4-12.9-4.2-19c-2.8-6-6.9-11.2-12.3-15.6c-5.4-4.4-12.2-7.9-20.2-10.6c-8.1-2.6-17.4-3.9-28.1-3.9
			c-11.5,0-21.7,1.3-30.5,3.8V1855.7z M4672,1966.1c12.9,3.1,25.9,4.6,38.9,4.6c10.3,0,19.5-1.3,27.5-3.8c8-2.5,14.6-6,19.8-10.3
			c5.3-4.3,9.2-9.4,12-15.3c2.7-5.9,4.1-12.1,4.1-18.7c0-7.3-1.4-14.2-4.3-20.6c-2.9-6.4-7.3-12-13.4-16.8
			c-6-4.7-13.6-8.5-22.6-11.2c-9.1-2.7-19.7-4.1-31.9-4.1c-7.1,0-13.1,0.1-18.1,0.3c-4.9,0.2-8.9,0.6-12,1.3V1966.1z"/>
		<path d="M5033,1919.1l5.6,1l-19.8,62.8h-179.1v-6.4h8.9c9.5,0,16.5-3.1,20.9-9.4c2.4-3.7,3.6-12.1,3.6-25.2v-149.3
			c0-14.2-1.6-23.2-4.8-27c-4.4-5.1-10.9-7.6-19.6-7.6h-8.9v-6.4h104.8v6.4c-6.3,0-11.5,0.3-15.6,0.9c-4.2,0.6-7.6,1.4-10.3,2.5
			c-2.7,1.1-4.8,2.4-6.4,3.9c-1.5,1.5-2.8,3.2-3.8,5.1c-1.7,3.4-2.5,12.1-2.5,26.2V1942c0,8,0.6,13.7,1.8,17.3
			c1.2,3.6,3.6,6,7.1,7.4c3.1,1,12,1.5,26.7,1.5h16.8c17.8,0,30.3-1.3,37.4-3.8c3.6-1.2,7-2.9,10.2-5.1c3.2-2.2,6.4-5.1,9.4-8.7
			c3.1-3.6,6-7.9,8.9-13C5027,1932.5,5030,1926.4,5033,1919.1z"/>
		<path d="M5205.8,1905.6h-89.6l-15.8,36.4c-3.7,9-5.6,15.7-5.6,20.1c0,1.9,0.3,3.6,0.9,5.1c0.6,1.5,1.9,2.9,3.8,4.2
			c1.9,1.3,4.7,2.4,8.1,3.3c3.5,0.9,8.1,1.6,13.9,1.9v6.4h-72.8v-6.4c5.8-0.8,10.4-2.1,14-3.8c3.6-1.7,6.6-4,9.2-7
			c2.5-3,4.9-6.8,7-11.6c2.1-4.7,4.7-10.6,7.8-17.6l81.4-190h5.9l80.4,192.1c3.2,8,6.2,14.4,9,19.2s5.7,8.6,8.7,11.3
			c3,2.7,6.2,4.6,9.7,5.6c3.5,1,7.7,1.6,12.6,1.8v6.4H5203v-6.4c9.2-0.3,15.4-1.8,18.7-4.5c3.3-2.6,5-5.8,5-9.5
			c-0.2-4.9-2.5-12.9-6.9-23.9L5205.8,1905.6z M5200.9,1892.9l-39.2-93.4l-40.2,93.4H5200.9z"/>
		<path d="M5508.3,1746.6l5.3,78.6h-5.3c-7.1-23.6-17.2-40.5-30.1-50.9c-13-10.3-28.6-15.5-46.9-15.5c-11.9,0-22.8,2.2-32.8,6.7
			c-10,4.5-18.6,11.4-25.8,20.7c-7.2,9.3-12.8,21-16.9,35.1c-4.1,14.1-6.1,30.7-6.1,49.9c0,15.4,1.9,29.4,5.7,42
			c3.8,12.6,9.4,23.3,16.8,32.2s16.4,15.8,27.1,20.6s23,7.3,36.9,7.3c14.6,0,27.8-3.2,39.7-9.7c11.4-5.9,24-18.7,37.9-38.2l5.3,3.3
			c-11.7,20.5-25.2,35.6-40.6,45.2c-15.4,9.6-33.7,14.4-55.1,14.4c-16.5,0-31.5-2.9-45.3-8.7c-13.7-5.8-25.6-13.9-35.5-24.3
			c-9.9-10.4-17.7-22.8-23.3-37.1c-5.6-14.3-8.4-30.1-8.4-47.2c0-23.2,5.2-44.4,15.5-63.6c10.2-19.3,24.3-34.3,42.5-44.8
			c18.3-10.7,38.2-16,59.5-16c16.8,0,33.2,4.1,49.4,12.2c4.7,2.5,8.1,3.8,10.2,3.8c3.7,0,6.8-1.5,9.3-4.6c2.5-3.1,4.2-6.9,5.2-11.4
			H5508.3z"/>
		<path d="M5635.2,1854.7l85.2,84.7c7.1,7.1,13.6,13,19.3,17.7c5.8,4.7,11.2,8.4,16.3,11.2s10,4.8,14.9,6.1c4.8,1.3,9.8,2,14.9,2.2
			v6.4h-109.9v-6.4c7.3,0,12.2-1.3,14.8-3.8s3.8-5.3,3.8-8.1c0-1.2-0.1-2.2-0.3-3.2c-0.2-0.9-0.6-2-1.4-3.2c-0.8-1.2-2-2.7-3.7-4.6
			c-1.7-1.9-4-4.2-6.9-7.1l-79.9-79.1v74.5c0,5.4,0.1,9.8,0.4,13.2c0.3,3.4,0.7,6.2,1.3,8.4c0.6,2.2,1.5,3.9,2.8,5.2
			c1.3,1.3,2.9,2.5,5,3.7c4.9,2.7,10.1,4.1,15.5,4.1h7.9v6.4h-98.5v-6.4h8.1c9.5,0,16.4-2.8,20.9-8.4c2.7-3.7,4.1-12.5,4.1-26.2
			v-149.3c0-5.1-0.1-9.4-0.3-12.8c-0.2-3.5-0.6-6.3-1.3-8.5c-0.7-2.2-1.6-4-2.8-5.5c-1.2-1.4-2.8-2.7-4.8-3.7
			c-5.4-2.7-10.7-4.1-15.8-4.1h-8.1v-6.4h98.5v6.4h-7.9c-4.2,0-8.7,0.9-13.4,2.8c-4.7,1.9-7.8,5-9.5,9.4c-1.4,3.7-2,11.2-2,22.4
			v70.7c0.2-0.2,1.3-1.2,3.4-3.2c2.1-1.9,4.5-4.1,7.1-6.5c2.6-2.4,5.2-4.7,7.6-7.1c2.5-2.4,4.2-4,5.2-4.8
			c12.4-11.4,22.8-21.1,31.3-29.3c8.5-8.1,15.3-15,20.4-20.7c5.1-5.7,8.7-10.4,10.9-14.2c2.2-3.8,3.3-7,3.3-9.5c0-2.7-1.2-5-3.6-7
			c-2.4-1.9-6.4-2.9-12.2-2.9h-5.3v-6.4h85v6.4c-3.1,0.2-6.1,0.5-9.3,0.9c-3.1,0.4-6.6,1.5-10.4,3.2c-3.8,1.7-8.2,4.3-13.1,7.9
			c-4.9,3.6-10.8,8.5-17.6,14.8c-1.4,1.2-4.8,4.7-10.4,10.6c-5.6,5.9-13.7,14-24.2,24.3L5635.2,1854.7z"/>
	</g>
</g>
<g id="SOPORTE-PARED">
</g>
<g id="MEDIDAS">
</g>
<g id="PROCESOS">
</g>
</svg>
