<?xml version="1.0" encoding="utf-8"?>
<!-- Generator: Adobe Illustrator 26.5.0, SVG Export Plug-In . SVG Version: 6.00 Build 0)  -->
<svg version="1.1" xmlns="http://www.w3.org/2000/svg" xmlns:xlink="http://www.w3.org/1999/xlink" x="0px" y="0px"
	 viewBox="0 0 6081.9 5425.1" style="enable-background:new 0 0 6081.9 5425.1;" xml:space="preserve">
<style type="text/css">
	.st0{fill:#EAEAEA;stroke:#000000;stroke-width:13.9944;stroke-miterlimit:10;}
	.st1{fill:#EAEAEA;stroke:#000000;stroke-width:13.8795;stroke-miterlimit:10;}
	.st2{fill:#F7F7F7;stroke:#000000;stroke-width:12.5772;stroke-miterlimit:10;}
	.st3{fill:#F7F7F7;stroke:#000000;stroke-width:12.4034;stroke-miterlimit:10;}
	.st4{fill:#F7F7F7;stroke:#000000;stroke-width:12.1572;stroke-miterlimit:10;}
	.st5{fill:#F7F7F7;stroke:#000000;stroke-width:12.3275;stroke-miterlimit:10;}
	.st6{fill:#F7F7F7;stroke:#3B7C67;stroke-width:25;stroke-miterlimit:10;}
	.st7{fill:#DDDDDD;stroke:#000000;stroke-width:9.2534;stroke-miterlimit:10;}
	.st8{fill:#E8E8E8;stroke:#000000;stroke-width:9.7259;stroke-miterlimit:10;}
	.st9{fill:#CCCCCC;stroke:#000000;stroke-width:9.2534;stroke-miterlimit:10;}
	.st10{fill:none;stroke:#000000;stroke-width:6.6968;stroke-miterlimit:10;}
	.st11{fill:none;stroke:#000000;stroke-width:6.8396;stroke-miterlimit:10;}
	.st12{fill:none;stroke:#000000;stroke-width:5.9708;stroke-miterlimit:10;}
	.st13{fill:none;stroke:#000000;stroke-width:7;stroke-miterlimit:10;}
	.st14{fill:none;stroke:#000000;stroke-width:8.1432;stroke-miterlimit:10;}
	.st15{fill:none;stroke:#000000;stroke-width:8.7952;stroke-miterlimit:10;}
	.st16{fill:none;stroke:#000000;stroke-width:8.2652;stroke-miterlimit:10;}
	.st17{fill:none;stroke:#000000;stroke-width:8.5547;stroke-miterlimit:10;}
	.st18{fill:#F7F7F7;stroke:#000000;stroke-width:13.6329;stroke-miterlimit:10;}
	.st19{fill:#F7F7F7;stroke:#000000;stroke-width:14.2417;stroke-miterlimit:10;}
	.st20{fill:#F7F7F7;stroke:#000000;stroke-width:13.0328;stroke-miterlimit:10;}
	.st21{fill:#F7F7F7;stroke:#000000;stroke-width:13.0626;stroke-miterlimit:10;}
	.st22{fill:#F7F7F7;stroke:#000000;stroke-width:13.016;stroke-miterlimit:10;}
	.st23{fill:#F7F7F7;stroke:#000000;stroke-width:12.0337;stroke-miterlimit:10;}
	.st24{fill:#F7F7F7;stroke:#000000;stroke-width:11.8639;stroke-miterlimit:10;}
	.st25{fill:#F7F7F7;stroke:#000000;stroke-width:13.371;stroke-miterlimit:10;}
	.st26{fill:#F7F7F7;stroke:#000000;stroke-width:13.1862;stroke-miterlimit:10;}
	.st27{fill:#F7F7F7;stroke:#000000;stroke-width:12.0088;stroke-miterlimit:10;}
	.st28{fill:#F7F7F7;stroke:#000000;stroke-width:11.8429;stroke-miterlimit:10;}
	.st29{fill:#F7F7F7;stroke:#000000;stroke-width:13.5737;stroke-miterlimit:10;}
	.st30{fill:#F7F7F7;stroke:#000000;stroke-width:13.3862;stroke-miterlimit:10;}
	.st31{fill:#F7F7F7;stroke:#000000;stroke-width:12.7029;stroke-miterlimit:10;}
	.st32{fill:#DDDBDB;stroke:#000000;stroke-width:8.2435;stroke-miterlimit:10;}
	.st33{fill:#DDDBDB;stroke:#000000;stroke-width:8.9757;stroke-miterlimit:10;}
	.st34{fill:#DDDBDB;stroke:#000000;stroke-width:10.5889;stroke-miterlimit:10;}
	.st35{opacity:0.49;}
	.st36{fill:#BCBCBC;stroke:#000000;stroke-width:16.0009;stroke-miterlimit:10;}
	.st37{fill:#BCBCBC;stroke:#000000;stroke-width:13.0626;stroke-miterlimit:10;}
	.st38{fill:#BCBCBC;stroke:#000000;stroke-width:13.0792;stroke-miterlimit:10;}
	.st39{opacity:0.49;fill:#C9C7C7;}
	.st40{fill:#EAEAEA;stroke:#000000;stroke-width:10.5617;stroke-miterlimit:10;}
	.st41{fill:#F7F7F7;stroke:#3B7C67;stroke-width:18;stroke-miterlimit:10;}
	.st42{fill:#FFFFFF;stroke:#000000;stroke-width:5;stroke-miterlimit:10;}
</style>
<g id="CIRCULOS-SELECCION2">
</g>
<g id="CLOSET">
	<g id="LATERAL-DERECHA">
		<polygon class="st0" points="5807.4,2563.2 5274.7,2446.9 5276.6,739.2 5807.4,842.4 		"/>
		<rect x="5808" y="841.2" class="st0" width="103.6" height="1720"/>
	</g>
	<g id="BASE">
		<polyline class="st1" points="5272.3,2440 837.1,2446.2 5271.8,2440 5807.9,2560.7 755.8,2561 755.7,2446.2 837.4,2446.2 		"/>
		<rect x="676.1" y="2561.2" class="st0" width="5234.8" height="86.5"/>
		<polyline class="st0" points="665.4,2561 201.4,2446 201.4,2525 665.4,2646 666,2560.7 		"/>
	</g>
	<g id="DIVISIONES-VERTICALES">
		<g id="DIVISION-VERTICAL-DERECHA">
			<polygon class="st0" points="4538.1,2560.9 4072,2445.9 4073.2,840.7 4538.1,839.9 			"/>
			<rect x="4537" y="840.7" class="st0" width="90" height="1719.2"/>
		</g>
		<g id="DIVISION-CENTRAL">
			<polygon class="st0" points="3252.2,2560.9 2786.2,2445.9 2787.2,718.4 3252.2,839.9 			"/>
			<rect x="3251.1" y="839.7" class="st0" width="90" height="1720.2"/>
		</g>
		<g id="DIVISION-VERTICAL-IZQUIERDA_00000085229740836627909760000005526871516412138418_">
			<polygon class="st0" points="1930.1,2561.3 1464.1,2446.3 1465.2,840.7 1930.1,840.3 			"/>
			<rect x="1929" y="840.7" class="st0" width="90" height="1719.6"/>
		</g>
	</g>
	<g id="DIVISIONES-HORIZONTALES">
		<g id="DIVISION-HORIZONTAL-EXTREMA-IZQUIERDA">
			<polygon class="st2" points="757.2,1680.7 1814.3,1681.2 1464.2,1590.7 756.2,1590.2 			"/>
			<rect x="756.7" y="1677.9" class="st3" width="1058" height="84.7"/>
		</g>
		<g id="DIVISION-HORIZONTAL-INTERNA-DERECHA">
			<polygon class="st4" points="3342.5,1689.7 4399.6,1690.2 4049.6,1599.7 3341.6,1599.2 			"/>
			<rect x="3342" y="1686.9" class="st4" width="1058" height="84.7"/>
		</g>
		<g id="DIVISION-HORIZONTAL-EXTREMA-DERECHA">
			<polygon class="st4" points="4627.8,1694.7 5803.5,1695.2 5427.2,1604.7 4626.7,1604.2 			"/>
			<rect x="4627.2" y="1691.9" class="st4" width="1176.8" height="84.7"/>
		</g>
		<g id="DIVISION-HORIZONTAL-INTERNA-IZQUIERDA_00000054254641889117512190000003647137643466809518_">
			<polygon class="st5" points="2019.6,1711.4 3035.2,1711.9 2756.8,1621.1 2018.7,1620.9 			"/>
			<rect x="2019.2" y="1708.6" class="st4" width="1016.5" height="84.7"/>
		</g>
	</g>
	<g id="TECHO">
		<polygon class="st0" points="666,840.7 202.1,719.7 202.1,640.7 666,755.7 		"/>
		<rect x="672.9" y="755.7" class="st0" width="5239.2" height="85"/>
		<polyline class="st0" points="195.7,638.7 666.6,756.2 5912.7,755.4 5363.5,634.7 195.7,638.7 5364.1,634.7 		"/>
	</g>
</g>
<g id="MEDIDAS">
	<g id="TORNILLERIA-EXTERIOR">
		<g>
			<path d="M363.9,650c-13.7-1.2-25.4,1.4-26.1,5.8c-0.7,4.4,9.8,8.9,23.5,10.1c13.7,1.2,25.4-1.4,26.1-5.8
				C388.1,655.7,377.6,651.2,363.9,650z M376.2,660.3c-0.2,0.2-0.8,0.1-0.8,0.1s-3.3-0.4-6.3-0.7c-3.3-0.2-3.5,0.6-3.5,0.6
				s-0.6,1.9-0.7,2.1c-0.1,0.1-0.7,0.1-0.7,0.1l-1.7-0.2c0,0-3.8-0.4-4.3-0.5c-0.5-0.1-0.6-0.2-0.6-0.2s0.4-1.2,0.5-2
				c-0.1-0.9-2.8-1.3-2.8-1.3l-3.3-0.4c0,0-2.6-0.3-3.3-0.3c-0.6-0.1-0.5-0.3-0.5-0.3s0.5-1.6,0.5-1.8c0-0.2,0.8-0.2,0.8-0.2
				s3.9,0.4,6.4,0.7c2.7,0.2,3.4-0.7,3.4-0.7s0.5-1.8,0.6-2c0.3-0.1,0.7-0.1,0.7-0.1s4.8,0.5,5.7,0.6c0.9,0.1,0.9,0.3,0.9,0.3
				l-0.5,1.6c-0.4,1.1,2.5,1.6,2.5,1.6l6.5,0.7c0,0,0.7,0.1,0.9,0.3C376.8,658.5,376.4,660.1,376.2,660.3z"/>
			<path d="M525.1,687.6c-13.7-1.2-25.4,1.4-26.1,5.8s9.8,8.9,23.5,10.1c13.7,1.2,25.4-1.4,26.1-5.8
				C549.4,693.3,538.8,688.8,525.1,687.6z M537.5,698c-0.2,0.2-0.8,0.1-0.8,0.1s-3.3-0.4-6.3-0.7c-3.3-0.2-3.5,0.6-3.5,0.6
				s-0.6,1.9-0.7,2.1s-0.7,0.1-0.7,0.1l-1.7-0.2c0,0-3.8-0.4-4.3-0.5c-0.5-0.1-0.6-0.2-0.6-0.2s0.4-1.2,0.5-2
				c-0.1-0.9-2.8-1.3-2.8-1.3l-3.3-0.4c0,0-2.6-0.3-3.3-0.3c-0.6-0.1-0.5-0.3-0.5-0.3s0.5-1.6,0.5-1.8c0-0.2,0.8-0.2,0.8-0.2
				s3.9,0.4,6.4,0.7c2.7,0.2,3.4-0.7,3.4-0.7s0.5-1.8,0.6-2c0.3-0.1,0.7-0.1,0.7-0.1s4.8,0.5,5.7,0.6c0.9,0.1,0.9,0.3,0.9,0.3
				l-0.5,1.6c-0.4,1.1,2.5,1.6,2.5,1.6l6.5,0.7c0,0,0.7,0.1,0.9,0.3C538.1,696.1,537.7,697.7,537.5,698z"/>
			<path d="M681.4,724.9c-13.7-1.2-25.4,1.4-26.1,5.8c-0.7,4.4,9.8,8.9,23.5,10.1c13.7,1.2,25.4-1.4,26.1-5.8
				C705.7,730.6,695.1,726.1,681.4,724.9z M693.8,735.2c-0.2,0.2-0.8,0.1-0.8,0.1s-3.3-0.4-6.3-0.7c-3.3-0.2-3.5,0.6-3.5,0.6
				s-0.6,1.9-0.7,2.1s-0.7,0.1-0.7,0.1l-1.7-0.2c0,0-3.8-0.4-4.3-0.5c-0.5-0.1-0.6-0.2-0.6-0.2s0.4-1.2,0.5-2
				c-0.1-0.9-2.8-1.3-2.8-1.3l-3.3-0.4c0,0-2.6-0.3-3.3-0.3c-0.6-0.1-0.5-0.3-0.5-0.3s0.5-1.6,0.5-1.8c0-0.2,0.8-0.2,0.8-0.2
				s3.9,0.4,6.4,0.7c2.7,0.2,3.4-0.7,3.4-0.7s0.5-1.8,0.6-2c0.3-0.1,0.7-0.1,0.7-0.1s4.8,0.5,5.7,0.6c0.9,0.1,0.9,0.3,0.9,0.3
				l-0.5,1.6c-0.4,1.1,2.5,1.6,2.5,1.6l6.5,0.7c0,0,0.7,0.1,0.9,0.3C694.3,733.4,693.9,735,693.8,735.2z"/>
			<path d="M1518.9,655.5c-13.7-1.2-25.4,1.4-26.1,5.8c-0.7,4.4,9.8,8.9,23.5,10.1c13.7,1.2,25.4-1.4,26.1-5.8
				C1543.1,661.2,1532.6,656.7,1518.9,655.5z M1531.2,665.8c-0.2,0.2-0.8,0.1-0.8,0.1s-3.3-0.4-6.3-0.7c-3.3-0.2-3.5,0.6-3.5,0.6
				s-0.6,1.9-0.7,2.1c-0.1,0.1-0.7,0.1-0.7,0.1l-1.7-0.2c0,0-3.8-0.4-4.3-0.5c-0.5-0.1-0.6-0.2-0.6-0.2s0.4-1.2,0.5-2
				c-0.1-0.9-2.8-1.3-2.8-1.3l-3.3-0.4c0,0-2.6-0.3-3.3-0.3c-0.6-0.1-0.5-0.3-0.5-0.3s0.5-1.6,0.5-1.8c0-0.2,0.8-0.2,0.8-0.2
				s3.9,0.4,6.4,0.7c2.7,0.2,3.4-0.7,3.4-0.7s0.5-1.8,0.6-2c0.3-0.1,0.7-0.1,0.7-0.1s4.8,0.5,5.7,0.6c0.9,0.1,0.9,0.3,0.9,0.3
				l-0.5,1.6c-0.4,1.1,2.5,1.6,2.5,1.6l6.5,0.7c0,0,0.7,0.1,0.9,0.3C1531.8,664,1531.4,665.6,1531.2,665.8z"/>
			<path d="M1731,687.4c-13.7-1.2-25.4,1.4-26.1,5.8c-0.7,4.4,9.8,8.9,23.5,10.1c13.7,1.2,25.4-1.4,26.1-5.8
				C1755.3,693.1,1744.7,688.6,1731,687.4z M1743.4,697.8c-0.2,0.2-0.8,0.1-0.8,0.1s-3.3-0.4-6.3-0.7c-3.3-0.2-3.5,0.6-3.5,0.6
				s-0.6,1.9-0.7,2.1c-0.1,0.1-0.7,0.1-0.7,0.1l-1.7-0.2c0,0-3.8-0.4-4.3-0.5c-0.5-0.1-0.6-0.2-0.6-0.2s0.4-1.2,0.5-2
				c-0.1-0.9-2.8-1.3-2.8-1.3l-3.3-0.4c0,0-2.6-0.3-3.3-0.3c-0.6-0.1-0.5-0.3-0.5-0.3s0.5-1.6,0.5-1.8s0.8-0.2,0.8-0.2
				s3.9,0.4,6.4,0.7c2.7,0.2,3.4-0.7,3.4-0.7s0.5-1.8,0.6-2c0.3-0.1,0.7-0.1,0.7-0.1s4.8,0.5,5.7,0.6c0.9,0.1,0.9,0.3,0.9,0.3
				l-0.5,1.6c-0.4,1.1,2.5,1.6,2.5,1.6l6.5,0.7c0,0,0.7,0.1,0.9,0.3C1743.9,695.9,1743.6,697.5,1743.4,697.8z"/>
			<path d="M1963,725.7c-13.7-1.2-25.4,1.4-26.1,5.8c-0.7,4.4,9.8,8.9,23.5,10.1s25.4-1.4,26.1-5.8
				C1987.2,731.4,1976.7,726.9,1963,725.7z M1975.4,736.1c-0.2,0.2-0.8,0.1-0.8,0.1s-3.3-0.4-6.3-0.7c-3.3-0.2-3.5,0.6-3.5,0.6
				s-0.6,1.9-0.7,2.1c-0.1,0.1-0.7,0.1-0.7,0.1l-1.7-0.2c0,0-3.8-0.4-4.3-0.5c-0.5-0.1-0.6-0.2-0.6-0.2s0.4-1.2,0.5-2
				c-0.1-0.9-2.8-1.3-2.8-1.3l-3.3-0.4c0,0-2.6-0.3-3.3-0.3c-0.6-0.1-0.5-0.3-0.5-0.3s0.5-1.6,0.5-1.8c0-0.2,0.8-0.2,0.8-0.2
				s3.9,0.4,6.4,0.7c2.7,0.2,3.4-0.7,3.4-0.7s0.5-1.8,0.6-2c0.3-0.1,0.7-0.1,0.7-0.1s4.8,0.5,5.7,0.6c0.9,0.1,0.9,0.3,0.9,0.3
				l-0.5,1.6c-0.4,1.1,2.5,1.6,2.5,1.6l6.5,0.7c0,0,0.7,0.1,0.9,0.3C1975.9,734.2,1975.5,735.8,1975.4,736.1z"/>
			<path d="M2844.5,657.9c-13.7-1.2-25.4,1.4-26.1,5.8c-0.7,4.4,9.8,8.9,23.5,10.1c13.7,1.2,25.4-1.4,26.1-5.8
				C2868.7,663.6,2858.2,659.1,2844.5,657.9z M2856.9,668.3c-0.2,0.2-0.8,0.1-0.8,0.1s-3.3-0.4-6.3-0.7c-3.3-0.2-3.5,0.6-3.5,0.6
				s-0.6,1.9-0.7,2.1c-0.1,0.1-0.7,0.1-0.7,0.1l-1.7-0.2c0,0-3.8-0.4-4.3-0.5c-0.5-0.1-0.6-0.2-0.6-0.2s0.4-1.2,0.5-2
				c-0.1-0.9-2.8-1.3-2.8-1.3l-3.3-0.4c0,0-2.6-0.3-3.3-0.3c-0.6-0.1-0.5-0.3-0.5-0.3s0.5-1.6,0.5-1.8c0-0.2,0.8-0.2,0.8-0.2
				s3.9,0.4,6.4,0.7c2.7,0.2,3.4-0.7,3.4-0.7s0.5-1.8,0.6-2c0.3-0.1,0.7-0.1,0.7-0.1s4.8,0.5,5.7,0.6c0.9,0.1,0.9,0.3,0.9,0.3
				l-0.5,1.6c-0.4,1.1,2.5,1.6,2.5,1.6l6.5,0.7c0,0,0.7,0.1,0.9,0.3C2857.4,666.4,2857,668,2856.9,668.3z"/>
			<path d="M3056.7,689.9c-13.7-1.2-25.4,1.4-26.1,5.8c-0.7,4.4,9.8,8.9,23.5,10.1c13.7,1.2,25.4-1.4,26.1-5.8
				C3080.9,695.6,3070.4,691.1,3056.7,689.9z M3069.1,700.2c-0.2,0.2-0.8,0.1-0.8,0.1s-3.3-0.4-6.3-0.7c-3.3-0.2-3.5,0.6-3.5,0.6
				s-0.6,1.9-0.7,2.1c-0.1,0.1-0.7,0.1-0.7,0.1l-1.7-0.2c0,0-3.8-0.4-4.3-0.5c-0.5-0.1-0.6-0.2-0.6-0.2s0.4-1.2,0.5-2
				c-0.1-0.9-2.8-1.3-2.8-1.3l-3.3-0.4c0,0-2.6-0.3-3.3-0.3c-0.6-0.1-0.5-0.3-0.5-0.3s0.5-1.6,0.5-1.8c0-0.2,0.8-0.2,0.8-0.2
				s3.9,0.4,6.4,0.7c2.7,0.2,3.4-0.7,3.4-0.7s0.5-1.8,0.6-2c0.3-0.1,0.7-0.1,0.7-0.1s4.8,0.5,5.7,0.6c0.9,0.1,0.9,0.3,0.9,0.3
				l-0.5,1.6c-0.4,1.1,2.5,1.6,2.5,1.6l6.5,0.7c0,0,0.7,0.1,0.9,0.3C3069.6,698.4,3069.2,700,3069.1,700.2z"/>
			<path d="M3288.6,728.2c-13.7-1.2-25.4,1.4-26.1,5.8c-0.7,4.4,9.8,8.9,23.5,10.1c13.7,1.2,25.4-1.4,26.1-5.8
				C3312.9,733.9,3302.3,729.4,3288.6,728.2z M3301,738.5c-0.2,0.2-0.8,0.1-0.8,0.1s-3.3-0.4-6.3-0.7c-3.3-0.2-3.5,0.6-3.5,0.6
				s-0.6,1.9-0.7,2.1s-0.7,0.1-0.7,0.1l-1.7-0.2c0,0-3.8-0.4-4.3-0.5c-0.5-0.1-0.6-0.2-0.6-0.2s0.4-1.2,0.5-2
				c-0.1-0.9-2.8-1.3-2.8-1.3l-3.3-0.4c0,0-2.6-0.3-3.3-0.3c-0.6-0.1-0.5-0.3-0.5-0.3s0.5-1.6,0.5-1.8c0-0.2,0.8-0.2,0.8-0.2
				s3.9,0.4,6.4,0.7c2.7,0.2,3.4-0.7,3.4-0.7s0.5-1.8,0.6-2c0.3-0.1,0.7-0.1,0.7-0.1s4.8,0.5,5.7,0.6c0.9,0.1,0.9,0.3,0.9,0.3
				l-0.5,1.6c-0.4,1.1,2.5,1.6,2.5,1.6l6.5,0.7c0,0,0.7,0.1,0.9,0.3C3301.6,736.7,3301.2,738.3,3301,738.5z"/>
			<path d="M4123.7,652c-13.7-1.2-25.4,1.4-26.1,5.8c-0.7,4.4,9.8,8.9,23.5,10.1s25.4-1.4,26.1-5.8
				C4148,657.7,4137.4,653.2,4123.7,652z M4136.1,662.3c-0.2,0.2-0.8,0.1-0.8,0.1s-3.3-0.4-6.3-0.7c-3.3-0.2-3.5,0.6-3.5,0.6
				s-0.6,1.9-0.7,2.1c-0.1,0.1-0.7,0.1-0.7,0.1l-1.7-0.2c0,0-3.8-0.4-4.3-0.5c-0.5-0.1-0.6-0.2-0.6-0.2s0.4-1.2,0.5-2
				c-0.1-0.9-2.8-1.3-2.8-1.3l-3.3-0.4c0,0-2.6-0.3-3.3-0.3c-0.6-0.1-0.5-0.3-0.5-0.3s0.5-1.6,0.5-1.8c0-0.2,0.8-0.2,0.8-0.2
				s3.9,0.4,6.4,0.7c2.7,0.2,3.4-0.7,3.4-0.7s0.5-1.8,0.6-2c0.3-0.1,0.7-0.1,0.7-0.1s4.8,0.5,5.7,0.6c0.9,0.1,0.9,0.3,0.9,0.3
				l-0.5,1.6c-0.4,1.1,2.5,1.6,2.5,1.6l6.5,0.7c0,0,0.7,0.1,0.9,0.3C4136.6,660.5,4136.2,662.1,4136.1,662.3z"/>
			<path d="M4335.9,684c-13.7-1.2-25.4,1.4-26.1,5.8c-0.7,4.4,9.8,8.9,23.5,10.1c13.7,1.2,25.4-1.4,26.1-5.8
				C4360.1,689.6,4349.6,685.1,4335.9,684z M4348.3,694.3c-0.2,0.2-0.8,0.1-0.8,0.1s-3.3-0.4-6.3-0.7c-3.3-0.2-3.5,0.6-3.5,0.6
				s-0.6,1.9-0.7,2.1c-0.1,0.1-0.7,0.1-0.7,0.1l-1.7-0.2c0,0-3.8-0.4-4.3-0.5c-0.5-0.1-0.6-0.2-0.6-0.2s0.4-1.2,0.5-2
				c-0.1-0.9-2.8-1.3-2.8-1.3l-3.3-0.4c0,0-2.6-0.3-3.3-0.3c-0.6-0.1-0.5-0.3-0.5-0.3s0.5-1.6,0.5-1.8s0.8-0.2,0.8-0.2
				s3.9,0.4,6.4,0.7c2.7,0.2,3.4-0.7,3.4-0.7s0.5-1.8,0.6-2c0.3-0.1,0.7-0.1,0.7-0.1s4.8,0.5,5.7,0.6c0.9,0.1,0.9,0.3,0.9,0.3
				l-0.5,1.6c-0.4,1.1,2.5,1.6,2.5,1.6l6.5,0.7c0,0,0.7,0.1,0.9,0.3C4348.8,692.4,4348.4,694,4348.3,694.3z"/>
			<path d="M4567.9,722.3c-13.7-1.2-25.4,1.4-26.1,5.8c-0.7,4.4,9.8,8.9,23.5,10.1c13.7,1.2,25.4-1.4,26.1-5.8
				C4592.1,727.9,4581.6,723.4,4567.9,722.3z M4580.2,732.6c-0.2,0.2-0.8,0.1-0.8,0.1s-3.3-0.4-6.3-0.7c-3.3-0.2-3.5,0.6-3.5,0.6
				s-0.6,1.9-0.7,2.1c-0.1,0.1-0.7,0.1-0.7,0.1l-1.7-0.2c0,0-3.8-0.4-4.3-0.5c-0.5-0.1-0.6-0.2-0.6-0.2s0.4-1.2,0.5-2
				c-0.1-0.9-2.8-1.3-2.8-1.3l-3.3-0.4c0,0-2.6-0.3-3.3-0.3c-0.6-0.1-0.5-0.3-0.5-0.3s0.5-1.6,0.5-1.8c0-0.2,0.8-0.2,0.8-0.2
				s3.9,0.4,6.4,0.7c2.7,0.2,3.4-0.7,3.4-0.7s0.5-1.8,0.6-2c0.3-0.1,0.7-0.1,0.7-0.1s4.8,0.5,5.7,0.6c0.9,0.1,0.9,0.3,0.9,0.3
				l-0.5,1.6c-0.4,1.1,2.5,1.6,2.5,1.6l6.5,0.7c0,0,0.7,0.1,0.9,0.3C4580.8,730.7,4580.4,732.3,4580.2,732.6z"/>
			<path d="M5348.7,649c-13.7-1.2-25.4,1.4-26.1,5.8c-0.7,4.4,9.8,8.9,23.5,10.1s25.4-1.4,26.1-5.8
				C5373,654.7,5362.4,650.2,5348.7,649z M5361.1,659.3c-0.2,0.2-0.8,0.1-0.8,0.1s-3.3-0.4-6.3-0.7c-3.3-0.2-3.5,0.6-3.5,0.6
				s-0.6,1.9-0.7,2.1c-0.1,0.1-0.7,0.1-0.7,0.1l-1.7-0.2c0,0-3.8-0.4-4.3-0.5c-0.5-0.1-0.6-0.2-0.6-0.2s0.4-1.2,0.5-2
				c-0.1-0.9-2.8-1.3-2.8-1.3l-3.3-0.4c0,0-2.6-0.3-3.3-0.3c-0.6-0.1-0.5-0.3-0.5-0.3s0.5-1.6,0.5-1.8c0-0.2,0.8-0.2,0.8-0.2
				s3.9,0.4,6.4,0.7c2.7,0.2,3.4-0.7,3.4-0.7s0.5-1.8,0.6-2c0.3-0.1,0.7-0.1,0.7-0.1s4.8,0.5,5.7,0.6c0.9,0.1,0.9,0.3,0.9,0.3
				l-0.5,1.6c-0.4,1.1,2.5,1.6,2.5,1.6l6.5,0.7c0,0,0.7,0.1,0.9,0.3C5361.6,657.5,5361.2,659.1,5361.1,659.3z"/>
			<path d="M5528.9,688c-13.7-1.2-25.4,1.4-26.1,5.8c-0.7,4.4,9.8,8.9,23.5,10.1c13.7,1.2,25.4-1.4,26.1-5.8
				C5553.1,693.6,5542.6,689.1,5528.9,688z M5541.3,698.3c-0.2,0.2-0.8,0.1-0.8,0.1s-3.3-0.4-6.3-0.7c-3.3-0.2-3.5,0.6-3.5,0.6
				s-0.6,1.9-0.7,2.1c-0.1,0.1-0.7,0.1-0.7,0.1l-1.7-0.2c0,0-3.8-0.4-4.3-0.5c-0.5-0.1-0.6-0.2-0.6-0.2s0.4-1.2,0.5-2
				c-0.1-0.9-2.8-1.3-2.8-1.3l-3.3-0.4c0,0-2.6-0.3-3.3-0.3c-0.6-0.1-0.5-0.3-0.5-0.3s0.5-1.6,0.5-1.8s0.8-0.2,0.8-0.2
				s3.9,0.4,6.4,0.7c2.7,0.2,3.4-0.7,3.4-0.7s0.5-1.8,0.6-2c0.3-0.1,0.7-0.1,0.7-0.1s4.8,0.5,5.7,0.6c0.9,0.1,0.9,0.3,0.9,0.3
				l-0.5,1.6c-0.4,1.1,2.5,1.6,2.5,1.6l6.5,0.7c0,0,0.7,0.1,0.9,0.3C5541.8,696.4,5541.4,698,5541.3,698.3z"/>
			<path d="M5733.9,726.3c-13.7-1.2-25.4,1.4-26.1,5.8c-0.7,4.4,9.8,8.9,23.5,10.1c13.7,1.2,25.4-1.4,26.1-5.8
				C5758.1,731.9,5747.6,727.4,5733.9,726.3z M5746.2,736.6c-0.2,0.2-0.8,0.1-0.8,0.1s-3.3-0.4-6.3-0.7c-3.3-0.2-3.5,0.6-3.5,0.6
				s-0.6,1.9-0.7,2.1c-0.1,0.1-0.7,0.1-0.7,0.1l-1.7-0.2c0,0-3.8-0.4-4.3-0.5c-0.5-0.1-0.6-0.2-0.6-0.2s0.4-1.2,0.5-2
				c-0.1-0.9-2.8-1.3-2.8-1.3l-3.3-0.4c0,0-2.6-0.3-3.3-0.3c-0.6-0.1-0.5-0.3-0.5-0.3s0.5-1.6,0.5-1.8c0-0.2,0.8-0.2,0.8-0.2
				s3.9,0.4,6.4,0.7c2.7,0.2,3.4-0.7,3.4-0.7s0.5-1.8,0.6-2c0.3-0.1,0.7-0.1,0.7-0.1s4.8,0.5,5.7,0.6c0.9,0.1,0.9,0.3,0.9,0.3
				l-0.5,1.6c-0.4,1.1,2.5,1.6,2.5,1.6l6.5,0.7c0,0,0.7,0.1,0.9,0.3C5746.8,734.7,5746.4,736.3,5746.2,736.6z"/>
		</g>
		<g id="TORNILLERIA-EXTERNA-10">
			<circle id="_x32__00000013890018462538342500000011552501413212759740_" class="st6" cx="5860.2" cy="2909.5" r="163.5"/>
			<g>
				<g>
					<path d="M5818.4,2972.4c-3.7,0-7.2-0.5-10.5-1.4c-3.3-0.9-6.2-2.1-8.5-3.7c-2.4-1.5-4.1-3.2-5.1-4.9l3.6-21.3l5.4,0.9l0.8,16.5
						c1.2,2.2,3.3,4.1,6.3,5.7c2.9,1.7,6.1,2.5,9.5,2.5c4.1,0,7.7-0.9,10.9-2.6c3.1-1.7,5.6-4.1,7.3-7.2c1.7-3.1,2.6-6.8,2.6-10.9
						c0-4-1.2-7.7-3.5-10.9c-2.3-3.2-5.6-5.7-9.8-7.5c-4.2-1.8-8.8-2.8-13.9-2.9l-0.5-4c6.2-2.8,11.7-6.2,16.6-10.3
						c4.9-4.1,7.3-9.4,7.3-16c0-2.8-0.6-5.5-1.7-8.1c-1.1-2.6-2.8-4.7-5-6.3c-2.2-1.6-4.9-2.4-8.1-2.4c-5.3,0-9.9,2.2-13.7,6.5
						l-3.5,18.1l-5.2-0.9l-0.6-20.1c2.5-2.4,6.1-4.6,11-6.6c4.8-2,10.2-3,16.1-3c4.5,0,8.6,0.8,12.3,2.5c3.7,1.7,6.6,4,8.7,7.1
						c2.1,3.1,3.2,6.7,3.2,10.8c0,4.1-1.1,7.9-3.2,11.3c-2.2,3.4-4.9,6.3-8.2,8.7c-3.3,2.4-6.8,4.2-10.4,5.6v0.8
						c4.9,0.7,9.2,2.1,13.1,4.1c3.9,2.1,6.9,4.7,9.1,8c2.2,3.3,3.3,7,3.3,11.2c0,5.7-1.7,10.9-5,15.6c-3.3,4.7-7.7,8.3-13.2,11
						C5830.4,2971.1,5824.6,2972.4,5818.4,2972.4z"/>
				</g>
				<path id="TORN_00000135675171486178241020000000042925272071883684_" d="M5913.4,2958.4c2.7,0.3,4.7,1.3,6.1,3.5
					c2.2,3.6,1.1,8.1-2.6,10.2c-0.1,0.1-0.2,0.2-0.3,0.2c-2.7,0.6-3.2,2.3-2.9,4.8c0.2,2.3,0.1,4.7,0.1,7.1c0.5,0.1,0.9,0.2,1.4,0.3
					c3,0.7,5.2,3,5.8,6c0.5,2.9-0.9,5.8-3.4,7.4c-0.1,0.1-0.3,0.2-0.5,0.3c-2.7,0.6-3.2,2.4-3,4.9c0.3,2.6,0.1,5.3,0.2,8
					c0,2.8-0.5,5.4-1.6,7.9c-3.6,8.3-7.1,16.5-10.6,24.8c-0.5,1.3-1.3,2.3-2.8,2.3c-1.6,0-2.4-1-3-2.3c-3.8-8.3-7.7-16.7-11.5-25
					c-0.8-1.7-1.2-3.6-1.8-5.4c-1.1-0.4-2.4-0.7-3.5-1.4c-2.4-1.4-3.5-3.6-3.5-6.4c0-2.8,1.3-5.2,3.9-6.2c2.7-1,3.3-2.6,3-5.2
					c-0.3-2.3-0.1-4.6-0.1-7c-2.5-0.3-4.5-1.2-5.9-3.3c-2.5-3.7-1.3-8.9,2.9-10.6c2.4-1,3-2.3,2.8-4.7c-0.2-2.4-0.1-4.9-0.1-6.9
					c-1.8-0.9-3.4-1.4-4.6-2.3c-4.1-3.4-3.4-9.8,1.3-11.9c2.6-1.1,3.2-2.5,3-5.1c-0.2-2.3-0.1-4.6-0.1-6.7c-1.6-0.7-3-1.1-4.2-1.9
					c-4.4-3.1-4-9.6,0.6-12.2c0.2-0.1,0.3-0.2,0.5-0.2c2.6-0.5,3-2.2,2.8-4.6c-0.2-2.3-0.1-4.6-0.2-6.8c0-0.1,0-0.3-0.1-0.5
					c-0.3-0.1-0.7-0.2-1.1-0.2c-3.1-0.6-5.4-2.9-5.9-6c-0.5-3,0.9-5.9,3.5-7.5c0.2-0.1,0.3-0.2,0.5-0.2c2.6-0.6,2.9-2.2,2.9-4.7
					c-0.4-16.2-0.6-32.3-0.7-48.5c-0.1-5.5-1.3-10.6-3.9-15.4c-3.2-6-6.4-12-9.6-18.1c-2.3-4.3,0.1-8.3,4.9-8.4
					c15.7-0.1,31.4-0.2,47-0.2c4.9,0,7.4,4,5.2,8.4c-3.3,6.7-6.6,13.3-9.8,19.9c-1.8,3.7-2.7,7.7-2.6,11.8
					c0.1,13.2,0.3,26.5,0.5,39.7c0,0.1,0,0.2,0.1,0.4c0.3,0.1,0.7,0.2,1.1,0.2c3.1,0.6,5.4,2.9,5.9,6c0.5,3-0.8,5.9-3.5,7.5
					c-0.2,0.1-0.4,0.3-0.7,0.4c-2.4,0.5-2.9,2-2.7,4.3c0.3,2.5,0.1,5,0.1,7.4c1.3,0.5,2.7,0.8,3.8,1.5c4.6,2.9,4.6,9.5-0.1,12.4
					c-0.2,0.1-0.4,0.3-0.6,0.3c-2.6,0.6-3.1,2.3-2.9,4.7c0.3,2.4,0.1,4.8,0.1,6.8c1.8,1,3.6,1.5,4.8,2.6c3.8,3.3,3.1,9.6-1.6,11.7
					c-2.7,1.2-3.3,2.7-3,5.3C5913.5,2953.8,5913.4,2956.1,5913.4,2958.4z M5884.9,2838.9c0.2,17.8,0.4,35.5,0.7,53.3
					c0.5-0.2,1-0.4,1.5-0.7c6.6-3.1,13.1-6.1,19.7-9.1c1.1-0.5,1.5-1.1,1.5-2.3c-0.2-11.9-0.4-23.7-0.5-35.6c0-1.9-0.2-3.8-0.3-5.7
					C5899.9,2838.8,5892.3,2838.9,5884.9,2838.9z M5883.8,2834.6c8.3,0,16.4,0,24.2-0.1c1.2-3.1,2.2-6.2,3.5-9.2
					c1.3-3,2.8-5.8,4.2-8.6c-13.4,0.1-26.6,0.1-39.9,0.2C5878.6,2822.7,5882.5,2828.1,5883.8,2834.6z M5910,3001.7
					c-0.3,0-0.4,0-0.5,0.1c-7.2,3.4-14.5,6.7-21.7,10.1c-0.3,0.2-0.7,0.9-0.6,1.3c0.4,1.5,0.7,3.1,1.4,4.5
					c3.2,7.1,6.5,14.1,9.7,21.2c0.2,0.4,0.4,0.8,0.7,1.4c0.3-0.6,0.4-0.9,0.6-1.3c2.8-6.5,5.4-13.2,8.5-19.5
					C5911,3013.7,5909.8,3007.7,5910,3001.7z M5870.3,2804.9c0.1,0.8,0,1.4,0.2,1.9c0.8,1.7,1.6,3.3,2.6,4.9
					c0.2,0.4,0.9,0.8,1.4,0.8c14.1,0,28.3-0.1,42.4-0.2c0.5,0,1.1-0.4,1.4-0.9c0.9-1.5,1.6-3.1,2.4-4.7c0.8-1.6,0.2-2.4-1.6-2.4
					c-2,0-3.9,0-5.9,0c-13.7,0.1-27.3,0.1-41,0.2C5871.7,2804.7,5871.1,2804.8,5870.3,2804.9z M5915.7,2963.5
					c-1.1-1.1-2.5-1.3-4.2-0.5c-6.2,2.9-12.3,5.7-18.5,8.6c-3.8,1.7-7.5,3.5-11.3,5.3c-1.9,0.9-2.7,2.6-1.9,4.4
					c0.8,1.8,2.7,2.4,4.7,1.5c6.2-2.9,12.4-5.8,18.6-8.7c3.8-1.8,7.6-3.5,11.4-5.3C5916.7,2967.8,5917.2,2965.2,5915.7,2963.5z
					 M5881,3003.4c-1.3,1.3-1.4,3-0.6,4.3c1,1.5,2.6,1.8,4.4,1c9.9-4.6,19.8-9.2,29.7-13.9c2.1-1,2.8-2.8,2-4.6
					c-0.8-1.7-2.7-2.3-4.7-1.4c-9.9,4.6-19.8,9.2-29.6,13.8C5881.7,3003,5881.3,3003.3,5881,3003.4z M5914.9,2911.6
					c-1.1-1.1-2.4-1.3-4-0.5c-9.8,4.6-19.6,9.1-29.4,13.7c-2.4,1.1-3.3,2.8-2.4,4.7c0.9,1.9,2.8,2.3,5.2,1.2
					c0.1-0.1,0.2-0.1,0.4-0.2c5.2-2.4,10.3-4.8,15.5-7.2c4.5-2.1,9.1-4.2,13.6-6.4C5916,2915.9,5916.5,2913.3,5914.9,2911.6z
					 M5914.4,2890.4c1-1.1,1.3-2.3,0.8-3.5c-0.7-1.9-2.7-2.6-4.8-1.6c-9.9,4.6-19.8,9.2-29.7,13.9c-2,0.9-2.8,2.7-2,4.5
					c0.8,1.8,2.7,2.4,4.8,1.4c9.9-4.6,19.8-9.2,29.7-13.9C5913.7,2890.9,5914.1,2890.6,5914.4,2890.4z M5880.2,2951.6
					c-1.2,1.3-1.4,2.9-0.6,4.2c0.9,1.5,2.7,1.9,4.5,1c7-3.2,13.9-6.5,20.9-9.7c3.1-1.4,6.2-2.8,9.2-4.3c1.7-0.8,2.3-2.7,1.5-4.3
					c-0.8-1.6-2.6-2.2-4.4-1.5c-0.2,0.1-0.5,0.2-0.7,0.3c-9.7,4.5-19.5,9.1-29.2,13.6C5881,2951.1,5880.5,2951.4,5880.2,2951.6z
					 M5885.7,2918.1c0.2,0,0.3,0.1,0.3,0.1c7.4-3.4,14.7-6.8,22-10.2c0.3-0.1,0.6-0.6,0.6-0.9c0-3,0-6,0-9.3c-1.1,0.5-2,0.9-2.9,1.3
					c-6.4,3-12.7,5.9-19.1,8.9c-0.5,0.2-1.1,0.8-1.1,1.2C5885.6,2912.1,5885.6,2915.1,5885.7,2918.1z M5909.3,2949.7
					c-0.6,0.3-1,0.4-1.3,0.5c-6,2.8-11.9,5.6-17.9,8.3c-1.3,0.6-3,0.9-3.6,1.9c-0.6,1-0.2,2.7-0.2,4.1c0,1.8,0.1,3.6,0.1,5.6
					c7.6-3.5,15-7,22.4-10.5c0.3-0.1,0.6-0.5,0.6-0.7C5909.4,2955.9,5909.4,2952.9,5909.3,2949.7z M5886.8,2996.1
					c7.6-3.6,15-7,22.3-10.4c0.3-0.2,0.6-0.8,0.6-1.2c0-2,0-4-0.1-6c0-0.9-0.1-1.8-0.1-2.8c-7.6,3.5-14.9,7-22.3,10.4
					c-0.3,0.1-0.6,0.6-0.6,0.8C5886.7,2989.8,5886.8,2992.9,5886.8,2996.1z M5909,2923.7c-7.7,3.6-15.1,7-22.4,10.5
					c-0.3,0.1-0.7,0.5-0.7,0.8c0,3,0,6.1,0,9.1c0.3,0,0.4,0,0.5,0c7.3-3.4,14.6-6.8,21.9-10.2c0.3-0.1,0.6-0.6,0.6-0.9
					C5909,2930,5909,2927,5909,2923.7z"/>
			</g>
		</g>
		<g id="TORNILLERIA-EXTERNA-9">
			<circle id="_x32__00000018216568551194672450000003770928556566680980_" class="st6" cx="4593.2" cy="2847" r="163.5"/>
			<g>
				<g>
					<path d="M4551.4,2910c-3.7,0-7.2-0.5-10.5-1.4c-3.3-0.9-6.2-2.1-8.5-3.7c-2.4-1.5-4.1-3.2-5.1-4.9l3.6-21.3l5.4,0.9l0.8,16.5
						c1.2,2.2,3.3,4.1,6.3,5.7c2.9,1.7,6.1,2.5,9.5,2.5c4.1,0,7.7-0.9,10.9-2.6c3.1-1.7,5.6-4.1,7.3-7.2c1.7-3.1,2.6-6.8,2.6-10.9
						c0-4-1.2-7.7-3.5-10.9c-2.3-3.2-5.6-5.7-9.8-7.5c-4.2-1.8-8.8-2.8-13.9-2.9l-0.5-4c6.2-2.8,11.7-6.2,16.6-10.3
						c4.9-4.1,7.3-9.4,7.3-16c0-2.8-0.6-5.5-1.7-8.1c-1.1-2.6-2.8-4.7-5-6.3c-2.2-1.6-4.9-2.4-8.1-2.4c-5.3,0-9.9,2.2-13.7,6.5
						l-3.5,18.1l-5.2-0.9l-0.6-20.1c2.5-2.4,6.1-4.6,11-6.6c4.8-2,10.2-3,16.1-3c4.5,0,8.6,0.8,12.3,2.5c3.7,1.7,6.6,4,8.7,7.1
						c2.1,3.1,3.2,6.7,3.2,10.8c0,4.1-1.1,7.9-3.2,11.3c-2.2,3.4-4.9,6.3-8.2,8.7c-3.3,2.4-6.8,4.2-10.4,5.6v0.8
						c4.9,0.7,9.2,2.1,13.1,4.1c3.9,2.1,6.9,4.7,9.1,8c2.2,3.3,3.3,7,3.3,11.2c0,5.7-1.7,10.9-5,15.6c-3.3,4.7-7.7,8.3-13.2,11
						C4563.4,2908.6,4557.6,2910,4551.4,2910z"/>
				</g>
				<path id="TORN_00000017506002469730685710000012652913518591914650_" d="M4646.4,2896c2.7,0.3,4.7,1.3,6.1,3.5
					c2.2,3.6,1.1,8.1-2.6,10.2c-0.1,0.1-0.2,0.2-0.3,0.2c-2.7,0.6-3.2,2.3-2.9,4.8c0.2,2.3,0.1,4.7,0.1,7.1c0.5,0.1,0.9,0.2,1.4,0.3
					c3,0.7,5.2,3,5.8,6c0.5,2.9-0.9,5.8-3.4,7.4c-0.1,0.1-0.3,0.2-0.5,0.3c-2.7,0.6-3.2,2.4-3,4.9c0.3,2.6,0.1,5.3,0.2,8
					c0,2.8-0.5,5.4-1.6,7.9c-3.6,8.3-7.1,16.5-10.6,24.8c-0.5,1.3-1.3,2.3-2.8,2.3c-1.6,0-2.4-1-3-2.3c-3.8-8.3-7.7-16.7-11.5-25
					c-0.8-1.7-1.2-3.6-1.8-5.4c-1.1-0.4-2.4-0.7-3.5-1.4c-2.4-1.4-3.5-3.6-3.5-6.4c0-2.8,1.3-5.2,3.9-6.2c2.7-1,3.3-2.6,3-5.2
					c-0.3-2.3-0.1-4.6-0.1-7c-2.5-0.3-4.5-1.2-5.9-3.3c-2.5-3.7-1.3-8.9,2.9-10.6c2.4-1,3-2.3,2.8-4.7c-0.2-2.4-0.1-4.9-0.1-6.9
					c-1.8-0.9-3.4-1.4-4.6-2.3c-4.1-3.4-3.4-9.8,1.3-11.9c2.6-1.1,3.2-2.5,3-5.1c-0.2-2.3-0.1-4.6-0.1-6.7c-1.6-0.7-3-1.1-4.2-1.9
					c-4.4-3.1-4-9.6,0.6-12.2c0.2-0.1,0.3-0.2,0.5-0.2c2.6-0.5,3-2.2,2.8-4.6c-0.2-2.3-0.1-4.6-0.2-6.8c0-0.1,0-0.3-0.1-0.5
					c-0.3-0.1-0.7-0.2-1.1-0.2c-3.1-0.6-5.4-2.9-5.9-6c-0.5-3,0.9-5.9,3.5-7.5c0.2-0.1,0.3-0.2,0.5-0.2c2.6-0.6,2.9-2.2,2.9-4.7
					c-0.4-16.2-0.6-32.3-0.7-48.5c-0.1-5.5-1.3-10.6-3.9-15.4c-3.2-6-6.4-12-9.6-18.1c-2.3-4.3,0.1-8.3,4.9-8.4
					c15.7-0.1,31.4-0.2,47-0.2c4.9,0,7.4,4,5.2,8.4c-3.3,6.7-6.6,13.3-9.8,19.9c-1.8,3.7-2.7,7.7-2.6,11.8
					c0.1,13.2,0.3,26.5,0.5,39.7c0,0.1,0,0.2,0.1,0.4c0.3,0.1,0.7,0.2,1.1,0.2c3.1,0.6,5.4,2.9,5.9,6c0.5,3-0.8,5.9-3.5,7.5
					c-0.2,0.1-0.4,0.3-0.7,0.4c-2.4,0.5-2.9,2-2.7,4.3c0.3,2.5,0.1,5,0.1,7.4c1.3,0.5,2.7,0.8,3.8,1.5c4.6,2.9,4.6,9.5-0.1,12.4
					c-0.2,0.1-0.4,0.3-0.6,0.3c-2.6,0.6-3.1,2.3-2.9,4.7c0.3,2.4,0.1,4.8,0.1,6.8c1.8,1,3.6,1.5,4.8,2.6c3.8,3.3,3.1,9.6-1.6,11.7
					c-2.7,1.2-3.3,2.7-3,5.3C4646.5,2891.4,4646.4,2893.7,4646.4,2896z M4617.9,2776.5c0.2,17.8,0.4,35.5,0.7,53.3
					c0.5-0.2,1-0.4,1.5-0.7c6.6-3.1,13.1-6.1,19.7-9.1c1.1-0.5,1.5-1.1,1.5-2.3c-0.2-11.9-0.4-23.7-0.5-35.6c0-1.9-0.2-3.8-0.3-5.7
					C4632.9,2776.4,4625.3,2776.4,4617.9,2776.5z M4616.8,2772.1c8.3,0,16.4,0,24.2-0.1c1.2-3.1,2.2-6.2,3.5-9.2
					c1.3-3,2.8-5.8,4.2-8.6c-13.4,0.1-26.6,0.1-39.9,0.2C4611.6,2760.3,4615.5,2765.7,4616.8,2772.1z M4643,2939.2
					c-0.3,0-0.4,0-0.5,0.1c-7.2,3.4-14.5,6.7-21.7,10.1c-0.3,0.2-0.7,0.9-0.6,1.3c0.4,1.5,0.7,3.1,1.4,4.5
					c3.2,7.1,6.5,14.1,9.7,21.2c0.2,0.4,0.4,0.8,0.7,1.4c0.3-0.6,0.4-0.9,0.6-1.3c2.8-6.5,5.4-13.2,8.5-19.5
					C4644,2951.2,4642.8,2945.3,4643,2939.2z M4603.3,2742.5c0.1,0.8,0,1.4,0.2,1.9c0.8,1.7,1.6,3.3,2.6,4.9
					c0.2,0.4,0.9,0.8,1.4,0.8c14.1,0,28.3-0.1,42.4-0.2c0.5,0,1.1-0.4,1.4-0.9c0.9-1.5,1.6-3.1,2.4-4.7c0.8-1.6,0.2-2.4-1.6-2.4
					c-2,0-3.9,0-5.9,0c-13.7,0.1-27.3,0.1-41,0.2C4604.7,2742.2,4604.1,2742.4,4603.3,2742.5z M4648.7,2901.1
					c-1.1-1.1-2.5-1.3-4.2-0.5c-6.2,2.9-12.3,5.7-18.5,8.6c-3.8,1.7-7.5,3.5-11.3,5.3c-1.9,0.9-2.7,2.6-1.9,4.4
					c0.8,1.8,2.7,2.4,4.7,1.5c6.2-2.9,12.4-5.8,18.6-8.7c3.8-1.8,7.6-3.5,11.4-5.3C4649.7,2905.3,4650.2,2902.8,4648.7,2901.1z
					 M4614,2941c-1.3,1.3-1.4,3-0.6,4.3c1,1.5,2.6,1.8,4.4,1c9.9-4.6,19.8-9.2,29.7-13.9c2.1-1,2.8-2.8,2-4.6
					c-0.8-1.7-2.7-2.3-4.7-1.4c-9.9,4.6-19.8,9.2-29.6,13.8C4614.7,2940.6,4614.3,2940.9,4614,2941z M4647.9,2849.2
					c-1.1-1.1-2.4-1.3-4-0.5c-9.8,4.6-19.6,9.1-29.4,13.7c-2.4,1.1-3.3,2.8-2.4,4.7c0.9,1.9,2.8,2.3,5.2,1.2
					c0.1-0.1,0.2-0.1,0.4-0.2c5.2-2.4,10.3-4.8,15.5-7.2c4.5-2.1,9.1-4.2,13.6-6.4C4649,2853.5,4649.5,2850.9,4647.9,2849.2z
					 M4647.4,2828c1-1.1,1.3-2.3,0.8-3.5c-0.7-1.9-2.7-2.6-4.8-1.6c-9.9,4.6-19.8,9.2-29.7,13.9c-2,0.9-2.8,2.7-2,4.5
					c0.8,1.8,2.7,2.4,4.8,1.4c9.9-4.6,19.8-9.2,29.7-13.9C4646.7,2828.4,4647.1,2828.1,4647.4,2828z M4613.2,2889.2
					c-1.2,1.3-1.4,2.9-0.6,4.2c0.9,1.5,2.7,1.9,4.5,1c7-3.2,13.9-6.5,20.9-9.7c3.1-1.4,6.2-2.8,9.2-4.3c1.7-0.8,2.3-2.7,1.5-4.3
					c-0.8-1.6-2.6-2.2-4.4-1.5c-0.2,0.1-0.5,0.2-0.7,0.3c-9.7,4.5-19.5,9.1-29.2,13.6C4614,2888.7,4613.5,2889,4613.2,2889.2z
					 M4618.7,2855.7c0.2,0,0.3,0.1,0.3,0.1c7.4-3.4,14.7-6.8,22-10.2c0.3-0.1,0.6-0.6,0.6-0.9c0-3,0-6,0-9.3c-1.1,0.5-2,0.9-2.9,1.3
					c-6.4,3-12.7,5.9-19.1,8.9c-0.5,0.2-1.1,0.8-1.1,1.2C4618.6,2849.7,4618.6,2852.7,4618.7,2855.7z M4642.3,2887.2
					c-0.6,0.3-1,0.4-1.3,0.5c-6,2.8-11.9,5.6-17.9,8.3c-1.3,0.6-3,0.9-3.6,1.9s-0.2,2.7-0.2,4.1c0,1.8,0.1,3.6,0.1,5.6
					c7.6-3.5,15-7,22.4-10.5c0.3-0.1,0.6-0.5,0.6-0.7C4642.4,2893.5,4642.4,2890.5,4642.3,2887.2z M4619.8,2933.7
					c7.6-3.6,15-7,22.3-10.4c0.3-0.2,0.6-0.8,0.6-1.2c0-2,0-4-0.1-6c0-0.9-0.1-1.8-0.1-2.8c-7.6,3.5-14.9,7-22.3,10.4
					c-0.3,0.1-0.6,0.6-0.6,0.8C4619.7,2927.4,4619.8,2930.4,4619.8,2933.7z M4642,2861.2c-7.7,3.6-15.1,7-22.4,10.5
					c-0.3,0.1-0.7,0.5-0.7,0.8c0,3,0,6.1,0,9.1c0.3,0,0.4,0,0.5,0c7.3-3.4,14.6-6.8,21.9-10.2c0.3-0.1,0.6-0.6,0.6-0.9
					C4642,2867.5,4642,2864.5,4642,2861.2z"/>
			</g>
		</g>
		<g id="TORNILLERIA-EXTERNA-8">
			<circle id="_x32__00000167364859448667612740000008964457753090156462_" class="st6" cx="3289" cy="2851.4" r="163.5"/>
			<g>
				<g>
					<path d="M3247.2,2914.3c-3.7,0-7.2-0.5-10.5-1.4c-3.3-0.9-6.2-2.1-8.5-3.7c-2.4-1.5-4.1-3.2-5.1-4.9l3.6-21.3l5.4,0.9l0.8,16.5
						c1.2,2.2,3.3,4.1,6.3,5.7c2.9,1.7,6.1,2.5,9.5,2.5c4.1,0,7.7-0.9,10.9-2.6c3.1-1.7,5.6-4.1,7.3-7.2c1.7-3.1,2.6-6.8,2.6-10.9
						c0-4-1.2-7.7-3.5-10.9c-2.3-3.2-5.6-5.7-9.8-7.5c-4.2-1.8-8.8-2.8-13.9-2.9l-0.5-4c6.2-2.8,11.7-6.2,16.6-10.3
						c4.9-4.1,7.3-9.4,7.3-16c0-2.8-0.6-5.5-1.7-8.1c-1.1-2.6-2.8-4.7-5-6.3c-2.2-1.6-4.9-2.4-8.1-2.4c-5.3,0-9.9,2.2-13.7,6.5
						l-3.5,18.1l-5.2-0.9l-0.6-20.1c2.5-2.4,6.1-4.6,11-6.6c4.8-2,10.2-3,16.1-3c4.5,0,8.6,0.8,12.3,2.5c3.7,1.7,6.6,4,8.7,7.1
						c2.1,3.1,3.2,6.7,3.2,10.8c0,4.1-1.1,7.9-3.2,11.3c-2.2,3.4-4.9,6.3-8.2,8.7c-3.3,2.4-6.8,4.2-10.4,5.6v0.8
						c4.9,0.7,9.2,2.1,13.1,4.1c3.9,2.1,6.9,4.7,9.1,8c2.2,3.3,3.3,7,3.3,11.2c0,5.7-1.7,10.9-5,15.6c-3.3,4.7-7.7,8.3-13.2,11
						C3259.3,2913,3253.4,2914.3,3247.2,2914.3z"/>
				</g>
				<path id="TORN_00000036969441244488049030000006212821230357962394_" d="M3342.2,2900.3c2.7,0.3,4.7,1.3,6.1,3.5
					c2.2,3.6,1.1,8.1-2.6,10.2c-0.1,0.1-0.2,0.2-0.3,0.2c-2.7,0.6-3.2,2.3-2.9,4.8c0.2,2.3,0.1,4.7,0.1,7.1c0.5,0.1,0.9,0.2,1.4,0.3
					c3,0.7,5.2,3,5.8,6c0.5,2.9-0.9,5.8-3.4,7.4c-0.1,0.1-0.3,0.2-0.5,0.3c-2.7,0.6-3.2,2.4-3,4.9c0.3,2.6,0.1,5.3,0.2,8
					c0,2.8-0.5,5.4-1.6,7.9c-3.6,8.3-7.1,16.5-10.6,24.8c-0.5,1.3-1.3,2.3-2.8,2.3c-1.6,0-2.4-1-3-2.3c-3.8-8.3-7.7-16.7-11.5-25
					c-0.8-1.7-1.2-3.6-1.8-5.4c-1.1-0.4-2.4-0.7-3.5-1.4c-2.4-1.4-3.5-3.6-3.5-6.4c0-2.8,1.3-5.2,3.9-6.2c2.7-1,3.3-2.6,3-5.2
					c-0.3-2.3-0.1-4.6-0.1-7c-2.5-0.3-4.5-1.2-5.9-3.3c-2.5-3.7-1.3-8.9,2.9-10.6c2.4-1,3-2.3,2.8-4.7c-0.2-2.4-0.1-4.9-0.1-6.9
					c-1.8-0.9-3.4-1.4-4.6-2.3c-4.1-3.4-3.4-9.8,1.3-11.9c2.6-1.1,3.2-2.5,3-5.1c-0.2-2.3-0.1-4.6-0.1-6.7c-1.6-0.7-3-1.1-4.2-1.9
					c-4.4-3.1-4-9.6,0.6-12.2c0.2-0.1,0.3-0.2,0.5-0.2c2.6-0.5,3-2.2,2.8-4.6c-0.2-2.3-0.1-4.6-0.2-6.8c0-0.1,0-0.3-0.1-0.5
					c-0.3-0.1-0.7-0.2-1.1-0.2c-3.1-0.6-5.4-2.9-5.9-6c-0.5-3,0.9-5.9,3.5-7.5c0.2-0.1,0.3-0.2,0.5-0.2c2.6-0.6,2.9-2.2,2.9-4.7
					c-0.4-16.2-0.6-32.3-0.7-48.5c-0.1-5.5-1.3-10.6-3.9-15.4c-3.2-6-6.4-12-9.6-18.1c-2.3-4.3,0.1-8.3,4.9-8.4
					c15.7-0.1,31.4-0.2,47-0.2c4.9,0,7.4,4,5.2,8.4c-3.3,6.7-6.6,13.3-9.8,19.9c-1.8,3.7-2.7,7.7-2.6,11.8
					c0.1,13.2,0.3,26.5,0.5,39.7c0,0.1,0,0.2,0.1,0.4c0.3,0.1,0.7,0.2,1.1,0.2c3.1,0.6,5.4,2.9,5.9,6c0.5,3-0.8,5.9-3.5,7.5
					c-0.2,0.1-0.4,0.3-0.7,0.4c-2.3,0.5-2.9,2-2.7,4.3c0.3,2.5,0.1,5,0.1,7.4c1.3,0.5,2.7,0.8,3.8,1.5c4.6,2.9,4.6,9.5-0.1,12.4
					c-0.2,0.1-0.4,0.3-0.6,0.3c-2.6,0.6-3.1,2.3-2.9,4.7c0.3,2.4,0.1,4.8,0.1,6.8c1.8,1,3.6,1.5,4.8,2.6c3.8,3.3,3.1,9.6-1.6,11.7
					c-2.7,1.2-3.3,2.7-3,5.3C3342.4,2895.7,3342.2,2898,3342.2,2900.3z M3313.8,2780.8c0.2,17.8,0.4,35.5,0.7,53.3
					c0.5-0.2,1-0.4,1.5-0.7c6.6-3.1,13.1-6.1,19.7-9.1c1.1-0.5,1.5-1.1,1.5-2.3c-0.2-11.9-0.4-23.7-0.5-35.6c0-1.9-0.2-3.8-0.3-5.7
					C3328.8,2780.8,3321.1,2780.8,3313.8,2780.8z M3312.6,2776.5c8.3,0,16.4,0,24.2-0.1c1.2-3.1,2.2-6.2,3.5-9.2
					c1.3-3,2.8-5.8,4.2-8.6c-13.4,0.1-26.6,0.1-39.9,0.2C3307.5,2764.6,3311.3,2770.1,3312.6,2776.5z M3338.9,2943.6
					c-0.3,0-0.4,0-0.5,0.1c-7.2,3.4-14.5,6.7-21.7,10.1c-0.3,0.2-0.7,0.9-0.6,1.3c0.4,1.5,0.7,3.1,1.4,4.5
					c3.2,7.1,6.5,14.1,9.7,21.2c0.2,0.4,0.4,0.8,0.7,1.4c0.3-0.6,0.4-0.9,0.6-1.3c2.8-6.5,5.4-13.2,8.5-19.5
					C3339.8,2955.6,3338.7,2949.6,3338.9,2943.6z M3299.2,2746.9c0.1,0.8,0,1.4,0.2,1.9c0.8,1.7,1.6,3.3,2.6,4.9
					c0.2,0.4,0.9,0.8,1.4,0.8c14.1,0,28.3-0.1,42.4-0.2c0.5,0,1.1-0.4,1.4-0.9c0.9-1.5,1.6-3.1,2.4-4.7c0.8-1.6,0.2-2.4-1.6-2.4
					c-2,0-3.9,0-5.9,0c-13.7,0.1-27.3,0.1-41,0.2C3300.5,2746.6,3300,2746.7,3299.2,2746.9z M3344.5,2905.5
					c-1.1-1.1-2.5-1.3-4.2-0.5c-6.2,2.9-12.3,5.7-18.5,8.6c-3.8,1.7-7.5,3.5-11.3,5.3c-1.9,0.9-2.7,2.6-1.9,4.4
					c0.8,1.8,2.7,2.4,4.7,1.5c6.2-2.9,12.4-5.8,18.6-8.7c3.8-1.8,7.6-3.5,11.4-5.3C3345.5,2909.7,3346.1,2907.2,3344.5,2905.5z
					 M3309.9,2945.4c-1.3,1.3-1.4,3-0.6,4.3c1,1.5,2.6,1.8,4.4,1c9.9-4.6,19.8-9.2,29.7-13.9c2.1-1,2.8-2.8,2-4.6
					c-0.8-1.7-2.7-2.3-4.7-1.4c-9.9,4.6-19.8,9.2-29.6,13.8C3310.6,2944.9,3310.1,2945.2,3309.9,2945.4z M3343.7,2853.6
					c-1.1-1.1-2.4-1.3-4-0.5c-9.8,4.6-19.6,9.1-29.4,13.7c-2.4,1.1-3.3,2.8-2.4,4.7c0.9,1.9,2.8,2.3,5.2,1.2
					c0.1-0.1,0.2-0.1,0.4-0.2c5.2-2.4,10.3-4.8,15.5-7.2c4.5-2.1,9.1-4.2,13.6-6.4C3344.8,2857.8,3345.3,2855.2,3343.7,2853.6z
					 M3343.3,2832.3c1-1.1,1.3-2.3,0.8-3.5c-0.7-1.9-2.7-2.6-4.8-1.6c-9.9,4.6-19.8,9.2-29.7,13.9c-2,0.9-2.8,2.7-2,4.5
					c0.8,1.8,2.7,2.4,4.8,1.4c9.9-4.6,19.8-9.2,29.7-13.9C3342.5,2832.8,3343,2832.5,3343.3,2832.3z M3309.1,2893.5
					c-1.2,1.3-1.4,2.9-0.6,4.2c0.9,1.5,2.7,1.9,4.5,1c7-3.2,13.9-6.5,20.9-9.7c3.1-1.4,6.2-2.8,9.2-4.3c1.7-0.8,2.3-2.7,1.5-4.3
					c-0.8-1.6-2.6-2.2-4.4-1.5c-0.2,0.1-0.5,0.2-0.7,0.3c-9.7,4.5-19.5,9.1-29.2,13.6C3309.9,2893,3309.4,2893.4,3309.1,2893.5z
					 M3314.5,2860c0.2,0,0.3,0.1,0.3,0.1c7.4-3.4,14.7-6.8,22-10.2c0.3-0.1,0.6-0.6,0.6-0.9c0-3,0-6,0-9.3c-1.1,0.5-2,0.9-2.9,1.3
					c-6.4,3-12.7,5.9-19.1,8.9c-0.5,0.2-1.1,0.8-1.1,1.2C3314.4,2854,3314.5,2857,3314.5,2860z M3338.2,2891.6
					c-0.6,0.3-1,0.4-1.3,0.5c-6,2.8-11.9,5.6-17.9,8.3c-1.3,0.6-3,0.9-3.6,1.9c-0.6,1-0.2,2.7-0.2,4.1c0,1.8,0.1,3.6,0.1,5.6
					c7.6-3.5,15-7,22.4-10.5c0.3-0.1,0.6-0.5,0.6-0.7C3338.2,2897.9,3338.2,2894.8,3338.2,2891.6z M3315.7,2938.1
					c7.6-3.6,15-7,22.3-10.4c0.3-0.2,0.6-0.8,0.6-1.2c0-2,0-4-0.1-6c0-0.9-0.1-1.8-0.1-2.8c-7.6,3.5-14.9,7-22.3,10.4
					c-0.3,0.1-0.6,0.6-0.6,0.8C3315.6,2931.8,3315.6,2934.8,3315.7,2938.1z M3337.9,2865.6c-7.7,3.6-15.1,7-22.4,10.5
					c-0.3,0.1-0.7,0.5-0.7,0.8c0,3,0,6.1,0,9.1c0.3,0,0.4,0,0.5,0c7.3-3.4,14.6-6.8,21.9-10.2c0.3-0.1,0.6-0.6,0.6-0.9
					C3337.9,2871.9,3337.9,2868.9,3337.9,2865.6z"/>
			</g>
		</g>
		<g id="TORNILLERIA-EXTERNA-7">
			<circle id="_x32__00000139294329587282918270000007565372824262043023_" class="st6" cx="1974" cy="2897.6" r="163.5"/>
			<g>
				<g>
					<path d="M1932.2,2960.5c-3.7,0-7.2-0.5-10.5-1.4c-3.3-0.9-6.2-2.1-8.5-3.7c-2.4-1.5-4.1-3.2-5.1-4.9l3.6-21.3l5.4,0.9l0.8,16.5
						c1.2,2.2,3.3,4.1,6.3,5.7c2.9,1.7,6.1,2.5,9.5,2.5c4.1,0,7.7-0.9,10.9-2.6c3.1-1.7,5.6-4.1,7.3-7.2c1.7-3.1,2.6-6.8,2.6-10.9
						c0-4-1.2-7.7-3.5-10.9c-2.3-3.2-5.6-5.7-9.8-7.5c-4.2-1.8-8.8-2.8-13.9-2.9l-0.5-4c6.2-2.8,11.7-6.2,16.6-10.3
						c4.9-4.1,7.3-9.4,7.3-16c0-2.8-0.6-5.5-1.7-8.1c-1.1-2.6-2.8-4.7-5-6.3c-2.2-1.6-4.9-2.4-8.1-2.4c-5.3,0-9.9,2.2-13.7,6.5
						l-3.5,18.1l-5.2-0.9l-0.6-20.1c2.5-2.4,6.1-4.6,11-6.6c4.8-2,10.2-3,16.1-3c4.5,0,8.6,0.8,12.3,2.5c3.7,1.7,6.6,4,8.7,7.1
						c2.1,3.1,3.2,6.7,3.2,10.8c0,4.1-1.1,7.9-3.2,11.3c-2.2,3.4-4.9,6.3-8.2,8.7c-3.3,2.4-6.8,4.2-10.4,5.6v0.8
						c4.9,0.7,9.2,2.1,13.1,4.1c3.9,2.1,6.9,4.7,9.1,8c2.2,3.3,3.3,7,3.3,11.2c0,5.7-1.7,10.9-5,15.6c-3.3,4.7-7.7,8.3-13.2,11
						C1944.3,2959.2,1938.4,2960.5,1932.2,2960.5z"/>
				</g>
				<path id="TORN_00000167363722460464145590000014017435979829724561_" d="M2027.2,2946.5c2.7,0.3,4.7,1.3,6.1,3.5
					c2.2,3.6,1.1,8.1-2.6,10.2c-0.1,0.1-0.2,0.2-0.3,0.2c-2.7,0.6-3.2,2.3-2.9,4.8c0.2,2.3,0.1,4.7,0.1,7.1c0.5,0.1,0.9,0.2,1.4,0.3
					c3,0.7,5.2,3,5.8,6c0.5,2.9-0.9,5.8-3.4,7.4c-0.1,0.1-0.3,0.2-0.5,0.3c-2.7,0.6-3.2,2.4-3,4.9c0.3,2.6,0.1,5.3,0.2,8
					c0,2.8-0.5,5.4-1.6,7.9c-3.6,8.3-7.1,16.5-10.6,24.8c-0.5,1.3-1.3,2.3-2.8,2.3c-1.6,0-2.4-1-3-2.3c-3.8-8.3-7.7-16.7-11.5-25
					c-0.8-1.7-1.2-3.6-1.8-5.4c-1.1-0.4-2.4-0.7-3.5-1.4c-2.4-1.4-3.5-3.6-3.5-6.4c0-2.8,1.3-5.2,3.9-6.2c2.7-1,3.3-2.6,3-5.2
					c-0.3-2.3-0.1-4.6-0.1-7c-2.5-0.3-4.5-1.2-5.9-3.3c-2.5-3.7-1.3-8.9,2.9-10.6c2.4-1,3-2.3,2.8-4.7c-0.2-2.4-0.1-4.9-0.1-6.9
					c-1.8-0.9-3.4-1.4-4.6-2.3c-4.1-3.4-3.4-9.8,1.3-11.9c2.6-1.1,3.2-2.5,3-5.1c-0.2-2.3-0.1-4.6-0.1-6.7c-1.6-0.7-3-1.1-4.2-1.9
					c-4.4-3.1-4-9.6,0.6-12.2c0.2-0.1,0.3-0.2,0.5-0.2c2.6-0.5,3-2.2,2.8-4.6c-0.2-2.3-0.1-4.6-0.2-6.8c0-0.1,0-0.3-0.1-0.5
					c-0.3-0.1-0.7-0.2-1.1-0.2c-3.1-0.6-5.4-2.9-5.9-6c-0.5-3,0.9-5.9,3.5-7.5c0.2-0.1,0.3-0.2,0.5-0.2c2.6-0.6,2.9-2.2,2.9-4.7
					c-0.4-16.2-0.6-32.3-0.7-48.5c-0.1-5.5-1.3-10.6-3.9-15.4c-3.2-6-6.4-12-9.6-18.1c-2.3-4.3,0.1-8.3,4.9-8.4
					c15.7-0.1,31.4-0.2,47-0.2c4.9,0,7.4,4,5.2,8.4c-3.3,6.7-6.6,13.3-9.8,19.9c-1.8,3.7-2.7,7.7-2.6,11.8
					c0.1,13.2,0.3,26.5,0.5,39.7c0,0.1,0,0.2,0.1,0.4c0.3,0.1,0.7,0.2,1.1,0.2c3.1,0.6,5.4,2.9,5.9,6c0.5,3-0.8,5.9-3.5,7.5
					c-0.2,0.1-0.4,0.3-0.7,0.4c-2.3,0.5-2.9,2-2.7,4.3c0.3,2.5,0.1,5,0.1,7.4c1.3,0.5,2.7,0.8,3.8,1.5c4.6,2.9,4.6,9.5-0.1,12.4
					c-0.2,0.1-0.4,0.3-0.6,0.3c-2.6,0.6-3.1,2.3-2.9,4.7c0.3,2.4,0.1,4.8,0.1,6.8c1.8,1,3.6,1.5,4.8,2.6c3.8,3.3,3.1,9.6-1.6,11.7
					c-2.7,1.2-3.3,2.7-3,5.3C2027.4,2941.9,2027.2,2944.2,2027.2,2946.5z M1998.8,2827.1c0.2,17.8,0.4,35.5,0.7,53.3
					c0.5-0.2,1-0.4,1.5-0.7c6.6-3.1,13.1-6.1,19.7-9.1c1.1-0.5,1.5-1.1,1.5-2.3c-0.2-11.9-0.4-23.7-0.5-35.6c0-1.9-0.2-3.8-0.3-5.7
					C2013.8,2827,2006.1,2827,1998.8,2827.1z M1997.6,2822.7c8.3,0,16.4,0,24.2-0.1c1.2-3.1,2.2-6.2,3.5-9.2c1.3-3,2.8-5.8,4.2-8.6
					c-13.4,0.1-26.6,0.1-39.9,0.2C1992.5,2810.9,1996.3,2816.3,1997.6,2822.7z M2023.9,2989.8c-0.3,0-0.4,0-0.5,0.1
					c-7.2,3.4-14.5,6.7-21.7,10.1c-0.3,0.2-0.7,0.9-0.6,1.3c0.4,1.5,0.7,3.1,1.4,4.5c3.2,7.1,6.5,14.1,9.7,21.2
					c0.2,0.4,0.4,0.8,0.7,1.4c0.3-0.6,0.4-0.9,0.6-1.3c2.8-6.5,5.4-13.2,8.5-19.5C2024.8,3001.8,2023.7,2995.8,2023.9,2989.8z
					 M1984.2,2793.1c0.1,0.8,0,1.4,0.2,1.9c0.8,1.7,1.6,3.3,2.6,4.9c0.2,0.4,0.9,0.8,1.4,0.8c14.1,0,28.3-0.1,42.4-0.2
					c0.5,0,1.1-0.4,1.4-0.9c0.9-1.5,1.6-3.1,2.4-4.7c0.8-1.6,0.2-2.4-1.6-2.4c-2,0-3.9,0-5.9,0c-13.7,0.1-27.3,0.1-41,0.2
					C1985.5,2792.8,1985,2793,1984.2,2793.1z M2029.5,2951.7c-1.1-1.1-2.5-1.3-4.2-0.5c-6.2,2.9-12.3,5.7-18.5,8.6
					c-3.8,1.7-7.5,3.5-11.3,5.3c-1.9,0.9-2.7,2.6-1.9,4.4c0.8,1.8,2.7,2.4,4.7,1.5c6.2-2.9,12.4-5.8,18.6-8.7
					c3.8-1.8,7.6-3.5,11.4-5.3C2030.5,2955.9,2031.1,2953.4,2029.5,2951.7z M1994.9,2991.6c-1.3,1.3-1.4,3-0.6,4.3
					c1,1.5,2.6,1.8,4.4,1c9.9-4.6,19.8-9.2,29.7-13.9c2.1-1,2.8-2.8,2-4.6c-0.8-1.7-2.7-2.3-4.7-1.4c-9.9,4.6-19.7,9.2-29.6,13.8
					C1995.6,2991.1,1995.1,2991.4,1994.9,2991.6z M2028.7,2899.8c-1.1-1.1-2.4-1.3-4-0.5c-9.8,4.6-19.6,9.1-29.4,13.7
					c-2.4,1.1-3.3,2.8-2.4,4.7c0.9,1.9,2.8,2.3,5.2,1.2c0.1-0.1,0.2-0.1,0.4-0.2c5.2-2.4,10.3-4.8,15.5-7.2
					c4.5-2.1,9.1-4.2,13.6-6.4C2029.8,2904,2030.3,2901.4,2028.7,2899.8z M2028.3,2878.5c1-1.1,1.3-2.3,0.8-3.5
					c-0.7-1.9-2.7-2.6-4.8-1.6c-9.9,4.6-19.8,9.2-29.7,13.9c-2,0.9-2.8,2.7-2,4.5c0.8,1.8,2.7,2.4,4.8,1.4
					c9.9-4.6,19.8-9.2,29.7-13.9C2027.5,2879,2028,2878.7,2028.3,2878.5z M1994.1,2939.7c-1.2,1.3-1.4,2.9-0.6,4.2
					c0.9,1.5,2.7,1.9,4.5,1c7-3.2,13.9-6.5,20.9-9.7c3.1-1.4,6.2-2.8,9.2-4.3c1.7-0.8,2.3-2.7,1.5-4.3c-0.8-1.6-2.6-2.2-4.4-1.5
					c-0.2,0.1-0.5,0.2-0.7,0.3c-9.7,4.5-19.5,9.1-29.2,13.6C1994.9,2939.2,1994.4,2939.6,1994.1,2939.7z M1999.5,2906.2
					c0.2,0,0.3,0.1,0.3,0.1c7.4-3.4,14.7-6.8,22-10.2c0.3-0.1,0.6-0.6,0.6-0.9c0-3,0-6,0-9.3c-1.1,0.5-2,0.9-2.9,1.3
					c-6.4,3-12.7,5.9-19.1,8.9c-0.5,0.2-1.1,0.8-1.1,1.2C1999.4,2900.3,1999.5,2903.2,1999.5,2906.2z M2023.2,2937.8
					c-0.6,0.3-1,0.4-1.3,0.5c-6,2.8-11.9,5.6-17.9,8.3c-1.3,0.6-3,0.9-3.6,1.9c-0.6,1-0.2,2.7-0.2,4.1c0,1.8,0.1,3.6,0.1,5.6
					c7.6-3.5,15-7,22.4-10.5c0.3-0.1,0.6-0.5,0.6-0.7C2023.2,2944.1,2023.2,2941,2023.2,2937.8z M2000.7,2984.3
					c7.6-3.6,15-7,22.3-10.4c0.3-0.2,0.6-0.8,0.6-1.2c0-2,0-4-0.1-6c0-0.9-0.1-1.8-0.1-2.8c-7.6,3.5-14.9,7-22.3,10.4
					c-0.3,0.1-0.6,0.6-0.6,0.8C2000.6,2978,2000.6,2981,2000.7,2984.3z M2022.9,2911.8c-7.7,3.6-15.1,7-22.4,10.5
					c-0.3,0.1-0.7,0.5-0.7,0.8c0,3,0,6.1,0,9.1c0.3,0,0.4,0,0.5,0c7.3-3.4,14.6-6.8,21.9-10.2c0.3-0.1,0.6-0.6,0.6-0.9
					C2022.9,2918.1,2022.9,2915.1,2022.9,2911.8z"/>
			</g>
		</g>
		<g id="TORNILLERIA-EXTERNA-6">
			<circle id="_x32__00000083789288129396544570000003591356250442501032_" class="st6" cx="231.5" cy="2844.1" r="163.5"/>
			<g>
				<g>
					<path d="M189.7,2907c-3.7,0-7.2-0.5-10.5-1.4c-3.3-0.9-6.2-2.1-8.5-3.7c-2.4-1.5-4.1-3.2-5.1-4.9l3.6-21.3l5.4,0.9l0.8,16.5
						c1.2,2.2,3.3,4.1,6.3,5.7c2.9,1.7,6.1,2.5,9.5,2.5c4.1,0,7.7-0.9,10.9-2.6c3.1-1.7,5.6-4.1,7.3-7.2c1.7-3.1,2.6-6.8,2.6-10.9
						c0-4-1.2-7.7-3.5-10.9c-2.3-3.2-5.6-5.7-9.8-7.5c-4.2-1.8-8.8-2.8-13.9-2.9l-0.5-4c6.2-2.8,11.7-6.2,16.6-10.3
						c4.9-4.1,7.3-9.4,7.3-16c0-2.8-0.6-5.5-1.7-8.1c-1.1-2.6-2.8-4.7-5-6.3c-2.2-1.6-4.9-2.4-8.1-2.4c-5.3,0-9.9,2.2-13.7,6.5
						l-3.5,18.1l-5.2-0.9l-0.6-20.1c2.5-2.4,6.1-4.6,11-6.6c4.8-2,10.2-3,16.1-3c4.5,0,8.6,0.8,12.3,2.5c3.7,1.7,6.6,4,8.7,7.1
						c2.1,3.1,3.2,6.7,3.2,10.8c0,4.1-1.1,7.9-3.2,11.3c-2.2,3.4-4.9,6.3-8.2,8.7c-3.3,2.4-6.8,4.2-10.4,5.6v0.8
						c4.9,0.7,9.2,2.1,13.1,4.1c3.9,2.1,6.9,4.7,9.1,8c2.2,3.3,3.3,7,3.3,11.2c0,5.7-1.7,10.9-5,15.6c-3.3,4.7-7.7,8.3-13.2,11
						C201.7,2905.7,195.9,2907,189.7,2907z"/>
				</g>
				<path id="TORN_00000139998571065967535050000002990960187621828504_" d="M284.7,2893c2.7,0.3,4.7,1.3,6.1,3.5
					c2.2,3.6,1.1,8.1-2.6,10.2c-0.1,0.1-0.2,0.2-0.3,0.2c-2.7,0.6-3.2,2.3-2.9,4.8c0.2,2.3,0.1,4.7,0.1,7.1c0.5,0.1,0.9,0.2,1.4,0.3
					c3,0.7,5.2,3,5.8,6c0.5,2.9-0.9,5.8-3.4,7.4c-0.1,0.1-0.3,0.2-0.5,0.3c-2.7,0.6-3.2,2.4-3,4.9c0.3,2.6,0.1,5.3,0.2,8
					c0,2.8-0.5,5.4-1.6,7.9c-3.6,8.3-7.1,16.5-10.6,24.8c-0.5,1.3-1.3,2.3-2.8,2.3c-1.6,0-2.4-1-3-2.3c-3.8-8.3-7.7-16.7-11.5-25
					c-0.8-1.7-1.2-3.6-1.8-5.4c-1.1-0.4-2.4-0.7-3.5-1.4c-2.4-1.4-3.5-3.6-3.5-6.4c0-2.8,1.3-5.2,3.9-6.2c2.7-1,3.3-2.6,3-5.2
					c-0.3-2.3-0.1-4.6-0.1-7c-2.5-0.3-4.5-1.2-5.9-3.3c-2.5-3.7-1.3-8.9,2.9-10.6c2.4-1,3-2.3,2.8-4.7c-0.2-2.4-0.1-4.9-0.1-6.9
					c-1.8-0.9-3.4-1.4-4.6-2.3c-4.1-3.4-3.4-9.8,1.3-11.9c2.6-1.1,3.2-2.5,3-5.1c-0.2-2.3-0.1-4.6-0.1-6.7c-1.6-0.7-3-1.1-4.2-1.9
					c-4.4-3.1-4-9.6,0.6-12.2c0.2-0.1,0.3-0.2,0.5-0.2c2.6-0.5,3-2.2,2.8-4.6c-0.2-2.3-0.1-4.6-0.2-6.8c0-0.1,0-0.3-0.1-0.5
					c-0.3-0.1-0.7-0.2-1.1-0.2c-3.1-0.6-5.4-2.9-5.9-6c-0.5-3,0.9-5.9,3.5-7.5c0.2-0.1,0.3-0.2,0.5-0.2c2.6-0.6,2.9-2.2,2.9-4.7
					c-0.4-16.2-0.6-32.3-0.7-48.5c-0.1-5.5-1.3-10.6-3.9-15.4c-3.2-6-6.4-12-9.6-18.1c-2.3-4.3,0.1-8.3,4.9-8.4
					c15.7-0.1,31.4-0.2,47-0.2c4.9,0,7.4,4,5.2,8.4c-3.3,6.7-6.6,13.3-9.8,19.9c-1.8,3.7-2.7,7.7-2.6,11.8
					c0.1,13.2,0.3,26.5,0.5,39.7c0,0.1,0,0.2,0.1,0.4c0.3,0.1,0.7,0.2,1.1,0.2c3.1,0.6,5.4,2.9,5.9,6c0.5,3-0.8,5.9-3.5,7.5
					c-0.2,0.1-0.4,0.3-0.7,0.4c-2.3,0.5-2.9,2-2.7,4.3c0.3,2.5,0.1,5,0.1,7.4c1.3,0.5,2.7,0.8,3.8,1.5c4.6,2.9,4.6,9.5-0.1,12.4
					c-0.2,0.1-0.4,0.3-0.6,0.3c-2.6,0.6-3.1,2.3-2.9,4.7c0.3,2.4,0.1,4.8,0.1,6.8c1.8,1,3.6,1.5,4.8,2.6c3.8,3.3,3.1,9.6-1.6,11.7
					c-2.7,1.2-3.3,2.7-3,5.3C284.8,2888.4,284.6,2890.7,284.7,2893z M256.2,2773.6c0.2,17.8,0.4,35.5,0.7,53.3
					c0.5-0.2,1-0.4,1.5-0.7c6.6-3.1,13.1-6.1,19.7-9.1c1.1-0.5,1.5-1.1,1.5-2.3c-0.2-11.9-0.4-23.7-0.5-35.6c0-1.9-0.2-3.8-0.3-5.7
					C271.2,2773.5,263.6,2773.5,256.2,2773.6z M255,2769.2c8.3,0,16.4,0,24.2-0.1c1.2-3.1,2.2-6.2,3.5-9.2c1.3-3,2.8-5.8,4.2-8.6
					c-13.4,0.1-26.6,0.1-39.9,0.2C249.9,2757.4,253.8,2762.8,255,2769.2z M281.3,2936.3c-0.3,0-0.4,0-0.5,0.1
					c-7.2,3.4-14.5,6.7-21.7,10.1c-0.3,0.2-0.7,0.9-0.6,1.3c0.4,1.5,0.7,3.1,1.4,4.5c3.2,7.1,6.5,14.1,9.7,21.2
					c0.2,0.4,0.4,0.8,0.7,1.4c0.3-0.6,0.4-0.9,0.6-1.3c2.8-6.5,5.4-13.2,8.5-19.5C282.2,2948.3,281.1,2942.3,281.3,2936.3z
					 M241.6,2739.6c0.1,0.8,0,1.4,0.2,1.9c0.8,1.7,1.6,3.3,2.6,4.9c0.2,0.4,0.9,0.8,1.4,0.8c14.1,0,28.3-0.1,42.4-0.2
					c0.5,0,1.1-0.4,1.4-0.9c0.9-1.5,1.6-3.1,2.4-4.7c0.8-1.6,0.2-2.4-1.6-2.4c-2,0-3.9,0-5.9,0c-13.7,0.1-27.3,0.1-41,0.2
					C243,2739.3,242.4,2739.5,241.6,2739.6z M286.9,2898.2c-1.1-1.1-2.5-1.3-4.2-0.5c-6.2,2.9-12.3,5.7-18.5,8.6
					c-3.8,1.7-7.5,3.5-11.3,5.3c-1.9,0.9-2.7,2.6-1.9,4.4c0.8,1.8,2.7,2.4,4.7,1.5c6.2-2.9,12.4-5.8,18.6-8.7
					c3.8-1.8,7.6-3.5,11.4-5.3C288,2902.4,288.5,2899.9,286.9,2898.2z M252.3,2938.1c-1.3,1.3-1.4,3-0.6,4.3c1,1.5,2.6,1.8,4.4,1
					c9.9-4.6,19.8-9.2,29.7-13.9c2.1-1,2.8-2.8,2-4.6c-0.8-1.7-2.7-2.3-4.7-1.4c-9.9,4.6-19.7,9.2-29.6,13.8
					C253,2937.6,252.6,2937.9,252.3,2938.1z M286.1,2846.3c-1.1-1.1-2.4-1.3-4-0.5c-9.8,4.6-19.6,9.1-29.4,13.7
					c-2.4,1.1-3.3,2.8-2.4,4.7c0.9,1.9,2.8,2.3,5.2,1.2c0.1-0.1,0.2-0.1,0.4-0.2c5.2-2.4,10.3-4.8,15.5-7.2
					c4.5-2.1,9.1-4.2,13.6-6.4C287.3,2850.5,287.8,2847.9,286.1,2846.3z M285.7,2825c1-1.1,1.3-2.3,0.8-3.5
					c-0.7-1.9-2.7-2.6-4.8-1.6c-9.9,4.6-19.8,9.2-29.7,13.9c-2,0.9-2.8,2.7-2,4.5c0.8,1.8,2.7,2.4,4.8,1.4
					c9.9-4.6,19.8-9.2,29.7-13.9C285,2825.5,285.4,2825.2,285.7,2825z M251.5,2886.2c-1.2,1.3-1.4,2.9-0.6,4.2
					c0.9,1.5,2.7,1.9,4.5,1c7-3.2,13.9-6.5,20.9-9.7c3.1-1.4,6.2-2.8,9.2-4.3c1.7-0.8,2.3-2.7,1.5-4.3c-0.8-1.6-2.6-2.2-4.4-1.5
					c-0.2,0.1-0.5,0.2-0.7,0.3c-9.7,4.5-19.5,9.1-29.2,13.6C252.3,2885.7,251.8,2886.1,251.5,2886.2z M257,2852.7
					c0.2,0,0.3,0.1,0.3,0.1c7.4-3.4,14.7-6.8,22-10.2c0.3-0.1,0.6-0.6,0.6-0.9c0-3,0-6,0-9.3c-1.1,0.5-2,0.9-2.9,1.3
					c-6.4,3-12.7,5.9-19.1,8.9c-0.5,0.2-1.1,0.8-1.1,1.2C256.8,2846.8,256.9,2849.7,257,2852.7z M280.6,2884.3
					c-0.6,0.3-1,0.4-1.3,0.5c-6,2.8-11.9,5.6-17.9,8.3c-1.3,0.6-3,0.9-3.6,1.9c-0.6,1-0.2,2.7-0.2,4.1c0,1.8,0.1,3.6,0.1,5.6
					c7.6-3.5,15-7,22.4-10.5c0.3-0.1,0.6-0.5,0.6-0.7C280.7,2890.6,280.6,2887.5,280.6,2884.3z M258.1,2930.8
					c7.6-3.6,15-7,22.3-10.4c0.3-0.2,0.6-0.8,0.6-1.2c0-2,0-4-0.1-6c0-0.9-0.1-1.8-0.1-2.8c-7.6,3.5-14.9,7-22.3,10.4
					c-0.3,0.1-0.6,0.6-0.6,0.8C258,2924.5,258,2927.5,258.1,2930.8z M280.3,2858.3c-7.7,3.6-15.1,7-22.4,10.5
					c-0.3,0.1-0.7,0.5-0.7,0.8c0,3,0,6.1,0,9.1c0.3,0,0.4,0,0.5,0c7.3-3.4,14.6-6.8,21.9-10.2c0.3-0.1,0.6-0.6,0.6-0.9
					C280.3,2864.6,280.3,2861.6,280.3,2858.3z"/>
			</g>
		</g>
		<g id="TORNILLERIA-EXTERNA-5">
			<circle id="_x32__00000037662990886909928850000007714833318288243369_" class="st6" cx="5527.5" cy="239.5" r="163.5"/>
			<g>
				<g>
					<path d="M5485.7,302.4c-3.7,0-7.2-0.5-10.5-1.4c-3.3-0.9-6.2-2.1-8.5-3.7c-2.4-1.5-4.1-3.2-5.1-4.9l3.6-21.3l5.4,0.9l0.8,16.5
						c1.2,2.2,3.3,4.1,6.3,5.7c2.9,1.7,6.1,2.5,9.5,2.5c4.1,0,7.7-0.9,10.9-2.6c3.1-1.7,5.6-4.1,7.3-7.2c1.7-3.1,2.6-6.8,2.6-10.9
						c0-4-1.2-7.7-3.5-10.9c-2.3-3.2-5.6-5.7-9.8-7.5c-4.2-1.8-8.8-2.8-13.9-2.9l-0.5-4c6.2-2.8,11.7-6.2,16.6-10.3
						c4.9-4.1,7.3-9.4,7.3-16c0-2.8-0.6-5.5-1.7-8.1c-1.1-2.6-2.8-4.7-5-6.3c-2.2-1.6-4.9-2.4-8.1-2.4c-5.3,0-9.9,2.2-13.7,6.5
						l-3.5,18.1l-5.2-0.9l-0.6-20.1c2.5-2.4,6.1-4.6,11-6.6c4.8-2,10.2-3,16.1-3c4.5,0,8.6,0.8,12.3,2.5c3.7,1.7,6.6,4,8.7,7.1
						c2.1,3.1,3.2,6.7,3.2,10.8c0,4.1-1.1,7.9-3.2,11.3c-2.2,3.4-4.9,6.3-8.2,8.7c-3.3,2.4-6.8,4.2-10.4,5.6v0.8
						c4.9,0.7,9.2,2.1,13.1,4.1c3.9,2.1,6.9,4.7,9.1,8c2.2,3.3,3.3,7,3.3,11.2c0,5.7-1.7,10.9-5,15.6c-3.3,4.7-7.7,8.3-13.2,11
						C5497.7,301.1,5491.9,302.4,5485.7,302.4z"/>
				</g>
				<path id="TORN_00000088831482863415910480000016892648022159846317_" d="M5580.7,288.4c2.7,0.3,4.7,1.3,6.1,3.5
					c2.2,3.6,1.1,8.1-2.6,10.2c-0.1,0.1-0.2,0.2-0.3,0.2c-2.7,0.6-3.2,2.3-2.9,4.8c0.2,2.3,0.1,4.7,0.1,7.1c0.5,0.1,0.9,0.2,1.4,0.3
					c3,0.7,5.2,3,5.8,6c0.5,2.9-0.9,5.8-3.4,7.4c-0.1,0.1-0.3,0.2-0.5,0.3c-2.7,0.6-3.2,2.4-3,4.9c0.3,2.6,0.1,5.3,0.2,8
					c0,2.8-0.5,5.4-1.6,7.9c-3.6,8.3-7.1,16.5-10.6,24.8c-0.5,1.3-1.3,2.3-2.8,2.3c-1.6,0-2.4-1-3-2.3c-3.8-8.3-7.7-16.7-11.5-25
					c-0.8-1.7-1.2-3.6-1.8-5.4c-1.1-0.4-2.4-0.7-3.5-1.4c-2.4-1.4-3.5-3.6-3.5-6.4c0-2.8,1.3-5.2,3.9-6.2c2.7-1,3.3-2.6,3-5.2
					c-0.3-2.3-0.1-4.6-0.1-7c-2.5-0.3-4.5-1.2-5.9-3.3c-2.5-3.7-1.3-8.9,2.9-10.6c2.4-1,3-2.3,2.8-4.7c-0.2-2.4-0.1-4.9-0.1-6.9
					c-1.8-0.9-3.4-1.4-4.6-2.3c-4.1-3.4-3.4-9.8,1.3-11.9c2.6-1.1,3.2-2.5,3-5.1c-0.2-2.3-0.1-4.6-0.1-6.7c-1.6-0.7-3-1.1-4.2-1.9
					c-4.4-3.1-4-9.6,0.6-12.2c0.2-0.1,0.3-0.2,0.5-0.2c2.6-0.5,3-2.2,2.8-4.6c-0.2-2.3-0.1-4.6-0.2-6.8c0-0.1,0-0.3-0.1-0.5
					c-0.3-0.1-0.7-0.2-1.1-0.2c-3.1-0.6-5.4-2.9-5.9-6c-0.5-3,0.9-5.9,3.5-7.5c0.2-0.1,0.3-0.2,0.5-0.2c2.6-0.6,2.9-2.2,2.9-4.7
					c-0.4-16.2-0.6-32.3-0.7-48.5c-0.1-5.5-1.3-10.6-3.9-15.4c-3.2-6-6.4-12-9.6-18.1c-2.3-4.3,0.1-8.3,4.9-8.4
					c15.7-0.1,31.4-0.2,47-0.2c4.9,0,7.4,4,5.2,8.4c-3.3,6.7-6.6,13.3-9.8,19.9c-1.8,3.7-2.7,7.7-2.6,11.8
					c0.1,13.2,0.3,26.5,0.5,39.7c0,0.1,0,0.2,0.1,0.4c0.3,0.1,0.7,0.2,1.1,0.2c3.1,0.6,5.4,2.9,5.9,6c0.5,3-0.8,5.9-3.5,7.5
					c-0.2,0.1-0.4,0.3-0.7,0.4c-2.4,0.5-2.9,2-2.7,4.3c0.3,2.5,0.1,5,0.1,7.4c1.3,0.5,2.7,0.8,3.8,1.5c4.6,2.9,4.6,9.5-0.1,12.4
					c-0.2,0.1-0.4,0.3-0.6,0.3c-2.6,0.6-3.1,2.3-2.9,4.7c0.3,2.4,0.1,4.8,0.1,6.8c1.8,1,3.6,1.5,4.8,2.6c3.8,3.3,3.1,9.6-1.6,11.7
					c-2.7,1.2-3.3,2.7-3,5.3C5580.8,283.8,5580.6,286.1,5580.7,288.4z M5552.2,168.9c0.2,17.8,0.4,35.5,0.7,53.3
					c0.5-0.2,1-0.4,1.5-0.7c6.6-3.1,13.1-6.1,19.7-9.1c1.1-0.5,1.5-1.1,1.5-2.3c-0.2-11.9-0.4-23.7-0.5-35.6c0-1.9-0.2-3.8-0.3-5.7
					C5567.2,168.8,5559.6,168.9,5552.2,168.9z M5551,164.6c8.3,0,16.4,0,24.2-0.1c1.2-3.1,2.2-6.2,3.5-9.2c1.3-3,2.8-5.8,4.2-8.6
					c-13.4,0.1-26.6,0.1-39.9,0.2C5545.9,152.7,5549.8,158.1,5551,164.6z M5577.3,331.7c-0.3,0-0.4,0-0.5,0.1
					c-7.2,3.4-14.5,6.7-21.7,10.1c-0.3,0.2-0.7,0.9-0.6,1.3c0.4,1.5,0.7,3.1,1.4,4.5c3.2,7.1,6.5,14.1,9.7,21.2
					c0.2,0.4,0.4,0.8,0.7,1.4c0.3-0.6,0.4-0.9,0.6-1.3c2.8-6.5,5.4-13.2,8.5-19.5C5578.2,343.7,5577.1,337.7,5577.3,331.7z
					 M5537.6,134.9c0.1,0.8,0,1.4,0.2,1.9c0.8,1.7,1.6,3.3,2.6,4.9c0.2,0.4,0.9,0.8,1.4,0.8c14.1,0,28.3-0.1,42.4-0.2
					c0.5,0,1.1-0.4,1.4-0.9c0.9-1.5,1.6-3.1,2.4-4.7c0.8-1.6,0.2-2.4-1.6-2.4c-2,0-3.9,0-5.9,0c-13.7,0.1-27.3,0.1-41,0.2
					C5539,134.7,5538.4,134.8,5537.6,134.9z M5582.9,293.5c-1.1-1.1-2.5-1.3-4.2-0.5c-6.2,2.9-12.3,5.7-18.5,8.6
					c-3.8,1.7-7.5,3.5-11.3,5.3c-1.9,0.9-2.7,2.6-1.9,4.4c0.8,1.8,2.7,2.4,4.7,1.5c6.2-2.9,12.4-5.8,18.6-8.7
					c3.8-1.8,7.6-3.5,11.4-5.3C5584,297.8,5584.5,295.2,5582.9,293.5z M5548.3,333.4c-1.3,1.3-1.4,3-0.6,4.3c1,1.5,2.6,1.8,4.4,1
					c9.9-4.6,19.8-9.2,29.7-13.9c2.1-1,2.8-2.8,2-4.6c-0.8-1.7-2.7-2.3-4.7-1.4c-9.9,4.6-19.8,9.2-29.6,13.8
					C5549,333,5548.6,333.3,5548.3,333.4z M5582.1,241.6c-1.1-1.1-2.4-1.3-4-0.5c-9.8,4.6-19.6,9.1-29.4,13.7
					c-2.4,1.1-3.3,2.8-2.4,4.7c0.9,1.9,2.8,2.3,5.2,1.2c0.1-0.1,0.2-0.1,0.4-0.2c5.2-2.4,10.3-4.8,15.5-7.2
					c4.5-2.1,9.1-4.2,13.6-6.4C5583.3,245.9,5583.8,243.3,5582.1,241.6z M5581.7,220.4c1-1.1,1.3-2.3,0.8-3.5
					c-0.7-1.9-2.7-2.6-4.8-1.6c-9.9,4.6-19.8,9.2-29.7,13.9c-2,0.9-2.8,2.7-2,4.5c0.8,1.8,2.7,2.4,4.8,1.4
					c9.9-4.6,19.8-9.2,29.7-13.9C5581,220.9,5581.4,220.6,5581.7,220.4z M5547.5,281.6c-1.2,1.3-1.4,2.9-0.6,4.2
					c0.9,1.5,2.7,1.9,4.5,1c7-3.2,13.9-6.5,20.9-9.7c3.1-1.4,6.2-2.8,9.2-4.3c1.7-0.8,2.3-2.7,1.5-4.3c-0.8-1.6-2.6-2.2-4.4-1.5
					c-0.2,0.1-0.5,0.2-0.7,0.3c-9.7,4.5-19.5,9.1-29.2,13.6C5548.3,281.1,5547.8,281.4,5547.5,281.6z M5553,248.1
					c0.2,0,0.3,0.1,0.3,0.1c7.4-3.4,14.7-6.8,22-10.2c0.3-0.1,0.6-0.6,0.6-0.9c0-3,0-6,0-9.3c-1.1,0.5-2,0.9-2.9,1.3
					c-6.4,3-12.7,5.9-19.1,8.9c-0.5,0.2-1.1,0.8-1.1,1.2C5552.8,242.1,5552.9,245.1,5553,248.1z M5576.6,279.7
					c-0.6,0.3-1,0.4-1.3,0.5c-6,2.8-11.9,5.6-17.9,8.3c-1.3,0.6-3,0.9-3.6,1.9c-0.6,1-0.2,2.7-0.2,4.1c0,1.8,0.1,3.6,0.1,5.6
					c7.6-3.5,15-7,22.4-10.5c0.3-0.1,0.6-0.5,0.6-0.7C5576.7,285.9,5576.6,282.9,5576.6,279.7z M5554.1,326.1
					c7.6-3.6,15-7,22.3-10.4c0.3-0.2,0.6-0.8,0.6-1.2c0-2,0-4-0.1-6c0-0.9-0.1-1.8-0.1-2.8c-7.6,3.5-14.9,7-22.3,10.4
					c-0.3,0.1-0.6,0.6-0.6,0.8C5554,319.8,5554,322.9,5554.1,326.1z M5576.3,253.7c-7.7,3.6-15.1,7-22.4,10.5
					c-0.3,0.1-0.7,0.5-0.7,0.8c0,3,0,6.1,0,9.1c0.3,0,0.4,0,0.5,0c7.3-3.4,14.6-6.8,21.9-10.2c0.3-0.1,0.6-0.6,0.6-0.9
					C5576.3,260,5576.3,257,5576.3,253.7z"/>
			</g>
		</g>
		<g id="TORNILLERIA-EXTERNA-4">
			<circle id="_x32__00000163066142630415805460000010808810158451885723_" class="st6" cx="4582.5" cy="247.5" r="163.5"/>
			<g>
				<g>
					<path d="M4540.7,310.4c-3.7,0-7.2-0.5-10.5-1.4c-3.3-0.9-6.2-2.1-8.5-3.7c-2.4-1.5-4.1-3.2-5.1-4.9l3.6-21.3l5.4,0.9l0.8,16.5
						c1.2,2.2,3.3,4.1,6.3,5.7c2.9,1.7,6.1,2.5,9.5,2.5c4.1,0,7.7-0.9,10.9-2.6c3.1-1.7,5.6-4.1,7.3-7.2c1.7-3.1,2.6-6.8,2.6-10.9
						c0-4-1.2-7.7-3.5-10.9c-2.3-3.2-5.6-5.7-9.8-7.5c-4.2-1.8-8.8-2.8-13.9-2.9l-0.5-4c6.2-2.8,11.7-6.2,16.6-10.3
						c4.9-4.1,7.3-9.4,7.3-16c0-2.8-0.6-5.5-1.7-8.1c-1.1-2.6-2.8-4.7-5-6.3c-2.2-1.6-4.9-2.4-8.1-2.4c-5.3,0-9.9,2.2-13.7,6.5
						l-3.5,18.1l-5.2-0.9l-0.6-20.1c2.5-2.4,6.1-4.6,11-6.6c4.8-2,10.2-3,16.1-3c4.5,0,8.6,0.8,12.3,2.5c3.7,1.7,6.6,4,8.7,7.1
						c2.1,3.1,3.2,6.7,3.2,10.8c0,4.1-1.1,7.9-3.2,11.3c-2.2,3.4-4.9,6.3-8.2,8.7c-3.3,2.4-6.8,4.2-10.4,5.6v0.8
						c4.9,0.7,9.2,2.1,13.1,4.1c3.9,2.1,6.9,4.7,9.1,8c2.2,3.3,3.3,7,3.3,11.2c0,5.7-1.7,10.9-5,15.6c-3.3,4.7-7.7,8.3-13.2,11
						C4552.7,309.1,4546.9,310.4,4540.7,310.4z"/>
				</g>
				<path id="TORN_00000147212537074543612050000007944684923060041355_" d="M4635.7,296.4c2.7,0.3,4.7,1.3,6.1,3.5
					c2.2,3.6,1.1,8.1-2.6,10.2c-0.1,0.1-0.2,0.2-0.3,0.2c-2.7,0.6-3.2,2.3-2.9,4.8c0.2,2.3,0.1,4.7,0.1,7.1c0.5,0.1,0.9,0.2,1.4,0.3
					c3,0.7,5.2,3,5.8,6c0.5,2.9-0.9,5.8-3.4,7.4c-0.1,0.1-0.3,0.2-0.5,0.3c-2.7,0.6-3.2,2.4-3,4.9c0.3,2.6,0.1,5.3,0.2,8
					c0,2.8-0.5,5.4-1.6,7.9c-3.6,8.3-7.1,16.5-10.6,24.8c-0.5,1.3-1.3,2.3-2.8,2.3c-1.6,0-2.4-1-3-2.3c-3.8-8.3-7.7-16.7-11.5-25
					c-0.8-1.7-1.2-3.6-1.8-5.4c-1.1-0.4-2.4-0.7-3.5-1.4c-2.4-1.4-3.5-3.6-3.5-6.4c0-2.8,1.3-5.2,3.9-6.2c2.7-1,3.3-2.6,3-5.2
					c-0.3-2.3-0.1-4.6-0.1-7c-2.5-0.3-4.5-1.2-5.9-3.3c-2.5-3.7-1.3-8.9,2.9-10.6c2.4-1,3-2.3,2.8-4.7c-0.2-2.4-0.1-4.9-0.1-6.9
					c-1.8-0.9-3.4-1.4-4.6-2.3c-4.1-3.4-3.4-9.8,1.3-11.9c2.6-1.1,3.2-2.5,3-5.1c-0.2-2.3-0.1-4.6-0.1-6.7c-1.6-0.7-3-1.1-4.2-1.9
					c-4.4-3.1-4-9.6,0.6-12.2c0.2-0.1,0.3-0.2,0.5-0.2c2.6-0.5,3-2.2,2.8-4.6c-0.2-2.3-0.1-4.6-0.2-6.8c0-0.1,0-0.3-0.1-0.5
					c-0.3-0.1-0.7-0.2-1.1-0.2c-3.1-0.6-5.4-2.9-5.9-6c-0.5-3,0.9-5.9,3.5-7.5c0.2-0.1,0.3-0.2,0.5-0.2c2.6-0.6,2.9-2.2,2.9-4.7
					c-0.4-16.2-0.6-32.3-0.7-48.5c-0.1-5.5-1.3-10.6-3.9-15.4c-3.2-6-6.4-12-9.6-18.1c-2.3-4.3,0.1-8.3,4.9-8.4
					c15.7-0.1,31.4-0.2,47-0.2c4.9,0,7.4,4,5.2,8.4c-3.3,6.7-6.6,13.3-9.8,19.9c-1.8,3.7-2.7,7.7-2.6,11.8
					c0.1,13.2,0.3,26.5,0.5,39.7c0,0.1,0,0.2,0.1,0.4c0.3,0.1,0.7,0.2,1.1,0.2c3.1,0.6,5.4,2.9,5.9,6c0.5,3-0.8,5.9-3.5,7.5
					c-0.2,0.1-0.4,0.3-0.7,0.4c-2.4,0.5-2.9,2-2.7,4.3c0.3,2.5,0.1,5,0.1,7.4c1.3,0.5,2.7,0.8,3.8,1.5c4.6,2.9,4.6,9.5-0.1,12.4
					c-0.2,0.1-0.4,0.3-0.6,0.3c-2.6,0.6-3.1,2.3-2.9,4.7c0.3,2.4,0.1,4.8,0.1,6.8c1.8,1,3.6,1.5,4.8,2.6c3.8,3.3,3.1,9.6-1.6,11.7
					c-2.7,1.2-3.3,2.7-3,5.3C4635.8,291.8,4635.6,294.1,4635.7,296.4z M4607.2,176.9c0.2,17.8,0.4,35.5,0.7,53.3
					c0.5-0.2,1-0.4,1.5-0.7c6.6-3.1,13.1-6.1,19.7-9.1c1.1-0.5,1.5-1.1,1.5-2.3c-0.2-11.9-0.4-23.7-0.5-35.6c0-1.9-0.2-3.8-0.3-5.7
					C4622.2,176.8,4614.6,176.9,4607.2,176.9z M4606,172.6c8.3,0,16.4,0,24.2-0.1c1.2-3.1,2.2-6.2,3.5-9.2c1.3-3,2.8-5.8,4.2-8.6
					c-13.4,0.1-26.6,0.1-39.9,0.2C4600.9,160.7,4604.8,166.1,4606,172.6z M4632.3,339.7c-0.3,0-0.4,0-0.5,0.1
					c-7.2,3.4-14.5,6.7-21.7,10.1c-0.3,0.2-0.7,0.9-0.6,1.3c0.4,1.5,0.7,3.1,1.4,4.5c3.2,7.1,6.5,14.1,9.7,21.2
					c0.2,0.4,0.4,0.8,0.7,1.4c0.3-0.6,0.4-0.9,0.6-1.3c2.8-6.5,5.4-13.2,8.5-19.5C4633.2,351.7,4632.1,345.7,4632.3,339.7z
					 M4592.6,142.9c0.1,0.8,0,1.4,0.2,1.9c0.8,1.7,1.6,3.3,2.6,4.9c0.2,0.4,0.9,0.8,1.4,0.8c14.1,0,28.3-0.1,42.4-0.2
					c0.5,0,1.1-0.4,1.4-0.9c0.9-1.5,1.6-3.1,2.4-4.7c0.8-1.6,0.2-2.4-1.6-2.4c-2,0-3.9,0-5.9,0c-13.7,0.1-27.3,0.1-41,0.2
					C4594,142.7,4593.4,142.8,4592.6,142.9z M4637.9,301.5c-1.1-1.1-2.5-1.3-4.2-0.5c-6.2,2.9-12.3,5.7-18.5,8.6
					c-3.8,1.7-7.5,3.5-11.3,5.3c-1.9,0.9-2.7,2.6-1.9,4.4c0.8,1.8,2.7,2.4,4.7,1.5c6.2-2.9,12.4-5.8,18.6-8.7
					c3.8-1.8,7.6-3.5,11.4-5.3C4639,305.8,4639.5,303.2,4637.9,301.5z M4603.3,341.4c-1.3,1.3-1.4,3-0.6,4.3c1,1.5,2.6,1.8,4.4,1
					c9.9-4.6,19.8-9.2,29.7-13.9c2.1-1,2.8-2.8,2-4.6c-0.8-1.7-2.7-2.3-4.7-1.4c-9.9,4.6-19.8,9.2-29.6,13.8
					C4604,341,4603.6,341.3,4603.3,341.4z M4637.1,249.6c-1.1-1.1-2.4-1.3-4-0.5c-9.8,4.6-19.6,9.1-29.4,13.7
					c-2.4,1.1-3.3,2.8-2.4,4.7c0.9,1.9,2.8,2.3,5.2,1.2c0.1-0.1,0.2-0.1,0.4-0.2c5.2-2.4,10.3-4.8,15.5-7.2
					c4.5-2.1,9.1-4.2,13.6-6.4C4638.3,253.9,4638.8,251.3,4637.1,249.6z M4636.7,228.4c1-1.1,1.3-2.3,0.8-3.5
					c-0.7-1.9-2.7-2.6-4.8-1.6c-9.9,4.6-19.8,9.2-29.7,13.9c-2,0.9-2.8,2.7-2,4.5c0.8,1.8,2.7,2.4,4.8,1.4
					c9.9-4.6,19.8-9.2,29.7-13.9C4636,228.9,4636.4,228.6,4636.7,228.4z M4602.5,289.6c-1.2,1.3-1.4,2.9-0.6,4.2
					c0.9,1.5,2.7,1.9,4.5,1c7-3.2,13.9-6.5,20.9-9.7c3.1-1.4,6.2-2.8,9.2-4.3c1.7-0.8,2.3-2.7,1.5-4.3c-0.8-1.6-2.6-2.2-4.4-1.5
					c-0.2,0.1-0.5,0.2-0.7,0.3c-9.7,4.5-19.5,9.1-29.2,13.6C4603.3,289.1,4602.8,289.4,4602.5,289.6z M4608,256.1
					c0.2,0,0.3,0.1,0.3,0.1c7.4-3.4,14.7-6.8,22-10.2c0.3-0.1,0.6-0.6,0.6-0.9c0-3,0-6,0-9.3c-1.1,0.5-2,0.9-2.9,1.3
					c-6.4,3-12.7,5.9-19.1,8.9c-0.5,0.2-1.1,0.8-1.1,1.2C4607.8,250.1,4607.9,253.1,4608,256.1z M4631.6,287.7
					c-0.6,0.3-1,0.4-1.3,0.5c-6,2.8-11.9,5.6-17.9,8.3c-1.3,0.6-3,0.9-3.6,1.9c-0.6,1-0.2,2.7-0.2,4.1c0,1.8,0.1,3.6,0.1,5.6
					c7.6-3.5,15-7,22.4-10.5c0.3-0.1,0.6-0.5,0.6-0.7C4631.7,293.9,4631.6,290.9,4631.6,287.7z M4609.1,334.1
					c7.6-3.6,15-7,22.3-10.4c0.3-0.2,0.6-0.8,0.6-1.2c0-2,0-4-0.1-6c0-0.9-0.1-1.8-0.1-2.8c-7.6,3.5-14.9,7-22.3,10.4
					c-0.3,0.1-0.6,0.6-0.6,0.8C4609,327.8,4609,330.9,4609.1,334.1z M4631.3,261.7c-7.7,3.6-15.1,7-22.4,10.5
					c-0.3,0.1-0.7,0.5-0.7,0.8c0,3,0,6.1,0,9.1c0.3,0,0.4,0,0.5,0c7.3-3.4,14.6-6.8,21.9-10.2c0.3-0.1,0.6-0.6,0.6-0.9
					C4631.3,268,4631.3,265,4631.3,261.7z"/>
			</g>
		</g>
		<g id="TORNILLERIA-EXTERNA-3">
			<circle id="_x32__00000092450826405154522900000006715487458911061389_" class="st6" cx="3292.6" cy="258.8" r="163.5"/>
			<g>
				<g>
					<path d="M3250.8,321.7c-3.7,0-7.2-0.5-10.5-1.4c-3.3-0.9-6.2-2.1-8.5-3.7c-2.4-1.5-4.1-3.2-5.1-4.9l3.6-21.3l5.4,0.9l0.8,16.5
						c1.2,2.2,3.3,4.1,6.3,5.7c2.9,1.7,6.1,2.5,9.5,2.5c4.1,0,7.7-0.9,10.9-2.6c3.1-1.7,5.6-4.1,7.3-7.2c1.7-3.1,2.6-6.8,2.6-10.9
						c0-4-1.2-7.7-3.5-10.9c-2.3-3.2-5.6-5.7-9.8-7.5c-4.2-1.8-8.8-2.8-13.9-2.9l-0.5-4c6.2-2.8,11.7-6.2,16.6-10.3
						c4.9-4.1,7.3-9.4,7.3-16c0-2.8-0.6-5.5-1.7-8.1c-1.1-2.6-2.8-4.7-5-6.3c-2.2-1.6-4.9-2.4-8.1-2.4c-5.3,0-9.9,2.2-13.7,6.5
						l-3.5,18.1l-5.2-0.9l-0.6-20.1c2.5-2.4,6.1-4.6,11-6.6c4.8-2,10.2-3,16.1-3c4.5,0,8.6,0.8,12.3,2.5c3.7,1.7,6.6,4,8.7,7.1
						c2.1,3.1,3.2,6.7,3.2,10.8c0,4.1-1.1,7.9-3.2,11.3c-2.2,3.4-4.9,6.3-8.2,8.7c-3.3,2.4-6.8,4.2-10.4,5.6v0.8
						c4.9,0.7,9.2,2.1,13.1,4.1c3.9,2.1,6.9,4.7,9.1,8c2.2,3.3,3.3,7,3.3,11.2c0,5.7-1.7,10.9-5,15.6c-3.3,4.7-7.7,8.3-13.2,11
						C3262.9,320.3,3257,321.7,3250.8,321.7z"/>
				</g>
				<path id="TORN_00000145747018971371265050000004445835976066682003_" d="M3345.8,307.7c2.7,0.3,4.7,1.3,6.1,3.5
					c2.2,3.6,1.1,8.1-2.6,10.2c-0.1,0.1-0.2,0.2-0.3,0.2c-2.7,0.6-3.2,2.3-2.9,4.8c0.2,2.3,0.1,4.7,0.1,7.1c0.5,0.1,0.9,0.2,1.4,0.3
					c3,0.7,5.2,3,5.8,6c0.5,2.9-0.9,5.8-3.4,7.4c-0.1,0.1-0.3,0.2-0.5,0.3c-2.7,0.6-3.2,2.4-3,4.9c0.3,2.6,0.1,5.3,0.2,8
					c0,2.8-0.5,5.4-1.6,7.9c-3.6,8.3-7.1,16.5-10.6,24.8c-0.5,1.3-1.3,2.3-2.8,2.3c-1.6,0-2.4-1-3-2.3c-3.8-8.3-7.7-16.7-11.5-25
					c-0.8-1.7-1.2-3.6-1.8-5.4c-1.1-0.4-2.4-0.7-3.5-1.4c-2.4-1.4-3.5-3.6-3.5-6.4c0-2.8,1.3-5.2,3.9-6.2c2.7-1,3.3-2.6,3-5.2
					c-0.3-2.3-0.1-4.6-0.1-7c-2.5-0.3-4.5-1.2-5.9-3.3c-2.5-3.7-1.3-8.9,2.9-10.6c2.4-1,3-2.3,2.8-4.7c-0.2-2.4-0.1-4.9-0.1-6.9
					c-1.8-0.9-3.4-1.4-4.6-2.3c-4.1-3.4-3.4-9.8,1.3-11.9c2.6-1.1,3.2-2.5,3-5.1c-0.2-2.3-0.1-4.6-0.1-6.7c-1.6-0.7-3-1.1-4.2-1.9
					c-4.4-3.1-4-9.6,0.6-12.2c0.2-0.1,0.3-0.2,0.5-0.2c2.6-0.5,3-2.2,2.8-4.6c-0.2-2.3-0.1-4.6-0.2-6.8c0-0.1,0-0.3-0.1-0.5
					c-0.3-0.1-0.7-0.2-1.1-0.2c-3.1-0.6-5.4-2.9-5.9-6c-0.5-3,0.9-5.9,3.5-7.5c0.2-0.1,0.3-0.2,0.5-0.2c2.6-0.6,2.9-2.2,2.9-4.7
					c-0.4-16.2-0.6-32.3-0.7-48.5c-0.1-5.5-1.3-10.6-3.9-15.4c-3.2-6-6.4-12-9.6-18.1c-2.3-4.3,0.1-8.3,4.9-8.4
					c15.7-0.1,31.4-0.2,47-0.2c4.9,0,7.4,4,5.2,8.4c-3.3,6.7-6.6,13.3-9.8,19.9c-1.8,3.7-2.7,7.7-2.6,11.8
					c0.1,13.2,0.3,26.5,0.5,39.7c0,0.1,0,0.2,0.1,0.4c0.3,0.1,0.7,0.2,1.1,0.2c3.1,0.6,5.4,2.9,5.9,6c0.5,3-0.8,5.9-3.5,7.5
					c-0.2,0.1-0.4,0.3-0.7,0.4c-2.4,0.5-2.9,2-2.7,4.3c0.3,2.5,0.1,5,0.1,7.4c1.3,0.5,2.7,0.8,3.8,1.5c4.6,2.9,4.6,9.5-0.1,12.4
					c-0.2,0.1-0.4,0.3-0.6,0.3c-2.6,0.6-3.1,2.3-2.9,4.7c0.3,2.4,0.1,4.8,0.1,6.8c1.8,1,3.6,1.5,4.8,2.6c3.8,3.3,3.1,9.6-1.6,11.7
					c-2.7,1.2-3.3,2.7-3,5.3C3346,303.1,3345.8,305.4,3345.8,307.7z M3317.4,188.2c0.2,17.8,0.4,35.5,0.7,53.3
					c0.5-0.2,1-0.4,1.5-0.7c6.6-3.1,13.1-6.1,19.7-9.1c1.1-0.5,1.5-1.1,1.5-2.3c-0.2-11.9-0.4-23.7-0.5-35.6c0-1.9-0.2-3.8-0.3-5.7
					C3332.4,188.1,3324.7,188.2,3317.4,188.2z M3316.2,183.9c8.3,0,16.4,0,24.2-0.1c1.2-3.1,2.2-6.2,3.5-9.2c1.3-3,2.8-5.8,4.2-8.6
					c-13.4,0.1-26.6,0.1-39.9,0.2C3311.1,172,3314.9,177.4,3316.2,183.9z M3342.5,351c-0.3,0-0.4,0-0.5,0.1
					c-7.2,3.4-14.5,6.7-21.7,10.1c-0.3,0.2-0.7,0.9-0.6,1.3c0.4,1.5,0.7,3.1,1.4,4.5c3.2,7.1,6.5,14.1,9.7,21.2
					c0.2,0.4,0.4,0.8,0.7,1.4c0.3-0.6,0.4-0.9,0.6-1.3c2.8-6.5,5.4-13.2,8.5-19.5C3343.4,363,3342.2,357,3342.5,351z M3302.7,154.2
					c0.1,0.8,0,1.4,0.2,1.9c0.8,1.7,1.6,3.3,2.6,4.9c0.2,0.4,0.9,0.8,1.4,0.8c14.1,0,28.3-0.1,42.4-0.2c0.5,0,1.1-0.4,1.4-0.9
					c0.9-1.5,1.6-3.1,2.4-4.7c0.8-1.6,0.2-2.4-1.6-2.4c-2,0-3.9,0-5.9,0c-13.7,0.1-27.3,0.1-41,0.2
					C3304.1,153.9,3303.6,154.1,3302.7,154.2z M3348.1,312.8c-1.1-1.1-2.5-1.3-4.2-0.5c-6.2,2.9-12.3,5.7-18.5,8.6
					c-3.8,1.7-7.5,3.5-11.3,5.3c-1.9,0.9-2.7,2.6-1.9,4.4c0.8,1.8,2.7,2.4,4.7,1.5c6.2-2.9,12.4-5.8,18.6-8.7
					c3.8-1.8,7.6-3.5,11.4-5.3C3349.1,317,3349.7,314.5,3348.1,312.8z M3313.4,352.7c-1.3,1.3-1.4,3-0.6,4.3c1,1.5,2.6,1.8,4.4,1
					c9.9-4.6,19.8-9.2,29.7-13.9c2.1-1,2.8-2.8,2-4.6c-0.8-1.7-2.7-2.3-4.7-1.4c-9.9,4.6-19.8,9.2-29.6,13.8
					C3314.2,352.3,3313.7,352.6,3313.4,352.7z M3347.3,260.9c-1.1-1.1-2.4-1.3-4-0.5c-9.8,4.6-19.6,9.1-29.4,13.7
					c-2.4,1.1-3.3,2.8-2.4,4.7c0.9,1.9,2.8,2.3,5.2,1.2c0.1-0.1,0.2-0.1,0.4-0.2c5.2-2.4,10.3-4.8,15.5-7.2
					c4.5-2.1,9.1-4.2,13.6-6.4C3348.4,265.2,3348.9,262.6,3347.3,260.9z M3346.8,239.7c1-1.1,1.3-2.3,0.8-3.5
					c-0.7-1.9-2.7-2.6-4.8-1.6c-9.9,4.6-19.8,9.2-29.7,13.9c-2,0.9-2.8,2.7-2,4.5c0.8,1.8,2.7,2.4,4.8,1.4
					c9.9-4.6,19.8-9.2,29.7-13.9C3346.1,240.1,3346.5,239.8,3346.8,239.7z M3312.7,300.9c-1.2,1.3-1.4,2.9-0.6,4.2
					c0.9,1.5,2.7,1.9,4.5,1c7-3.2,13.9-6.5,20.9-9.7c3.1-1.4,6.2-2.8,9.2-4.3c1.7-0.8,2.3-2.7,1.5-4.3c-0.8-1.6-2.6-2.2-4.4-1.5
					c-0.2,0.1-0.5,0.2-0.7,0.3c-9.7,4.5-19.5,9.1-29.2,13.6C3313.4,300.4,3312.9,300.7,3312.7,300.9z M3318.1,267.4
					c0.2,0,0.3,0.1,0.3,0.1c7.4-3.4,14.7-6.8,22-10.2c0.3-0.1,0.6-0.6,0.6-0.9c0-3,0-6,0-9.3c-1.1,0.5-2,0.9-2.9,1.3
					c-6.4,3-12.7,5.9-19.1,8.9c-0.5,0.2-1.1,0.8-1.1,1.2C3318,261.4,3318.1,264.4,3318.1,267.4z M3341.8,299c-0.6,0.3-1,0.4-1.3,0.5
					c-6,2.8-11.9,5.6-17.9,8.3c-1.3,0.6-3,0.9-3.6,1.9c-0.6,1-0.2,2.7-0.2,4.1c0,1.8,0.1,3.6,0.1,5.6c7.6-3.5,15-7,22.4-10.5
					c0.3-0.1,0.6-0.5,0.6-0.7C3341.8,305.2,3341.8,302.2,3341.8,299z M3319.2,345.4c7.6-3.6,15-7,22.3-10.4c0.3-0.2,0.6-0.8,0.6-1.2
					c0-2,0-4-0.1-6c0-0.9-0.1-1.8-0.1-2.8c-7.6,3.5-14.9,7-22.3,10.4c-0.3,0.1-0.6,0.6-0.6,0.8
					C3319.1,339.1,3319.2,342.1,3319.2,345.4z M3341.4,272.9c-7.7,3.6-15.1,7-22.4,10.5c-0.3,0.1-0.7,0.5-0.7,0.8c0,3,0,6.1,0,9.1
					c0.3,0,0.4,0,0.5,0c7.3-3.4,14.6-6.8,21.9-10.2c0.3-0.1,0.6-0.6,0.6-0.9C3341.5,279.2,3341.4,276.2,3341.4,272.9z"/>
			</g>
		</g>
		<g id="TORNILLERIA-EXTERNA-2">
			<circle id="_x32__00000096052132599319730550000017049729380806454955_" class="st6" cx="1968" cy="283.5" r="163.5"/>
			<g>
				<g>
					<path d="M1926.2,346.4c-3.7,0-7.2-0.5-10.5-1.4c-3.3-0.9-6.2-2.1-8.5-3.7c-2.4-1.5-4.1-3.2-5.1-4.9l3.6-21.3l5.4,0.9l0.8,16.5
						c1.2,2.2,3.3,4.1,6.3,5.7c2.9,1.7,6.1,2.5,9.5,2.5c4.1,0,7.7-0.9,10.9-2.6c3.1-1.7,5.6-4.1,7.3-7.2c1.7-3.1,2.6-6.8,2.6-10.9
						c0-4-1.2-7.7-3.5-10.9c-2.3-3.2-5.6-5.7-9.8-7.5c-4.2-1.8-8.8-2.8-13.9-2.9l-0.5-4c6.2-2.8,11.7-6.2,16.6-10.3
						c4.9-4.1,7.3-9.4,7.3-16c0-2.8-0.6-5.5-1.7-8.1c-1.1-2.6-2.8-4.7-5-6.3c-2.2-1.6-4.9-2.4-8.1-2.4c-5.3,0-9.9,2.2-13.7,6.5
						l-3.5,18.1l-5.2-0.9l-0.6-20.1c2.5-2.4,6.1-4.6,11-6.6c4.8-2,10.2-3,16.1-3c4.5,0,8.6,0.8,12.3,2.5c3.7,1.7,6.6,4,8.7,7.1
						c2.1,3.1,3.2,6.7,3.2,10.8c0,4.1-1.1,7.9-3.2,11.3c-2.2,3.4-4.9,6.3-8.2,8.7c-3.3,2.4-6.8,4.2-10.4,5.6v0.8
						c4.9,0.7,9.2,2.1,13.1,4.1c3.9,2.1,6.9,4.7,9.1,8c2.2,3.3,3.3,7,3.3,11.2c0,5.7-1.7,10.9-5,15.6c-3.3,4.7-7.7,8.3-13.2,11
						C1938.3,345.1,1932.4,346.4,1926.2,346.4z"/>
				</g>
				<path id="TORN_00000079449376668825618900000008223343930637823143_" d="M2021.2,332.4c2.7,0.3,4.7,1.3,6.1,3.5
					c2.2,3.6,1.1,8.1-2.6,10.2c-0.1,0.1-0.2,0.2-0.3,0.2c-2.7,0.6-3.2,2.3-2.9,4.8c0.2,2.3,0.1,4.7,0.1,7.1c0.5,0.1,0.9,0.2,1.4,0.3
					c3,0.7,5.2,3,5.8,6c0.5,2.9-0.9,5.8-3.4,7.4c-0.1,0.1-0.3,0.2-0.5,0.3c-2.7,0.6-3.2,2.4-3,4.9c0.3,2.6,0.1,5.3,0.2,8
					c0,2.8-0.5,5.4-1.6,7.9c-3.6,8.3-7.1,16.5-10.6,24.8c-0.5,1.3-1.3,2.3-2.8,2.3c-1.6,0-2.4-1-3-2.3c-3.8-8.3-7.7-16.7-11.5-25
					c-0.8-1.7-1.2-3.6-1.8-5.4c-1.1-0.4-2.4-0.7-3.5-1.4c-2.4-1.4-3.5-3.6-3.5-6.4c0-2.8,1.3-5.2,3.9-6.2c2.7-1,3.3-2.6,3-5.2
					c-0.3-2.3-0.1-4.6-0.1-7c-2.5-0.3-4.5-1.2-5.9-3.3c-2.5-3.7-1.3-8.9,2.9-10.6c2.4-1,3-2.3,2.8-4.7c-0.2-2.4-0.1-4.9-0.1-6.9
					c-1.8-0.9-3.4-1.4-4.6-2.3c-4.1-3.4-3.4-9.8,1.3-11.9c2.6-1.1,3.2-2.5,3-5.1c-0.2-2.3-0.1-4.6-0.1-6.7c-1.6-0.7-3-1.1-4.2-1.9
					c-4.4-3.1-4-9.6,0.6-12.2c0.2-0.1,0.3-0.2,0.5-0.2c2.6-0.5,3-2.2,2.8-4.6c-0.2-2.3-0.1-4.6-0.2-6.8c0-0.1,0-0.3-0.1-0.5
					c-0.3-0.1-0.7-0.2-1.1-0.2c-3.1-0.6-5.4-2.9-5.9-6c-0.5-3,0.9-5.9,3.5-7.5c0.2-0.1,0.3-0.2,0.5-0.2c2.6-0.6,2.9-2.2,2.9-4.7
					c-0.4-16.2-0.6-32.3-0.7-48.5c-0.1-5.5-1.3-10.6-3.9-15.4c-3.2-6-6.4-12-9.6-18.1c-2.3-4.3,0.1-8.3,4.9-8.4
					c15.7-0.1,31.4-0.2,47-0.2c4.9,0,7.4,4,5.2,8.4c-3.3,6.7-6.6,13.3-9.8,19.9c-1.8,3.7-2.7,7.7-2.6,11.8
					c0.1,13.2,0.3,26.5,0.5,39.7c0,0.1,0,0.2,0.1,0.4c0.3,0.1,0.7,0.2,1.1,0.2c3.1,0.6,5.4,2.9,5.9,6c0.5,3-0.8,5.9-3.5,7.5
					c-0.2,0.1-0.4,0.3-0.7,0.4c-2.3,0.5-2.9,2-2.7,4.3c0.3,2.5,0.1,5,0.1,7.4c1.3,0.5,2.7,0.8,3.8,1.5c4.6,2.9,4.6,9.5-0.1,12.4
					c-0.2,0.1-0.4,0.3-0.6,0.3c-2.6,0.6-3.1,2.3-2.9,4.7c0.3,2.4,0.1,4.8,0.1,6.8c1.8,1,3.6,1.5,4.8,2.6c3.8,3.3,3.1,9.6-1.6,11.7
					c-2.7,1.2-3.3,2.7-3,5.3C2021.4,327.8,2021.2,330.1,2021.2,332.4z M1992.8,212.9c0.2,17.8,0.4,35.5,0.7,53.3
					c0.5-0.2,1-0.4,1.5-0.7c6.6-3.1,13.1-6.1,19.7-9.1c1.1-0.5,1.5-1.1,1.5-2.3c-0.2-11.9-0.4-23.7-0.5-35.6c0-1.9-0.2-3.8-0.3-5.7
					C2007.8,212.8,2000.1,212.9,1992.8,212.9z M1991.6,208.6c8.3,0,16.4,0,24.2-0.1c1.2-3.1,2.2-6.2,3.5-9.2c1.3-3,2.8-5.8,4.2-8.6
					c-13.4,0.1-26.6,0.1-39.9,0.2C1986.5,196.7,1990.3,202.1,1991.6,208.6z M2017.9,375.7c-0.3,0-0.4,0-0.5,0.1
					c-7.2,3.4-14.5,6.7-21.7,10.1c-0.3,0.2-0.7,0.9-0.6,1.3c0.4,1.5,0.7,3.1,1.4,4.5c3.2,7.1,6.5,14.1,9.7,21.2
					c0.2,0.4,0.4,0.8,0.7,1.4c0.3-0.6,0.4-0.9,0.6-1.3c2.8-6.5,5.4-13.2,8.5-19.5C2018.8,387.7,2017.7,381.7,2017.9,375.7z
					 M1978.2,178.9c0.1,0.8,0,1.4,0.2,1.9c0.8,1.7,1.6,3.3,2.6,4.9c0.2,0.4,0.9,0.8,1.4,0.8c14.1,0,28.3-0.1,42.4-0.2
					c0.5,0,1.1-0.4,1.4-0.9c0.9-1.5,1.6-3.1,2.4-4.7c0.8-1.6,0.2-2.4-1.6-2.4c-2,0-3.9,0-5.9,0c-13.7,0.1-27.3,0.1-41,0.2
					C1979.5,178.7,1979,178.8,1978.2,178.9z M2023.5,337.5c-1.1-1.1-2.5-1.3-4.2-0.5c-6.2,2.9-12.3,5.7-18.5,8.6
					c-3.8,1.7-7.5,3.5-11.3,5.3c-1.9,0.9-2.7,2.6-1.9,4.4c0.8,1.8,2.7,2.4,4.7,1.5c6.2-2.9,12.4-5.8,18.6-8.7
					c3.8-1.8,7.6-3.5,11.4-5.3C2024.5,341.8,2025.1,339.2,2023.5,337.5z M1988.9,377.4c-1.3,1.3-1.4,3-0.6,4.3c1,1.5,2.6,1.8,4.4,1
					c9.9-4.6,19.8-9.2,29.7-13.9c2.1-1,2.8-2.8,2-4.6c-0.8-1.7-2.7-2.3-4.7-1.4c-9.9,4.6-19.7,9.2-29.6,13.8
					C1989.6,377,1989.1,377.3,1988.9,377.4z M2022.7,285.6c-1.1-1.1-2.4-1.3-4-0.5c-9.8,4.6-19.6,9.1-29.4,13.7
					c-2.4,1.1-3.3,2.8-2.4,4.7c0.9,1.9,2.8,2.3,5.2,1.2c0.1-0.1,0.2-0.1,0.4-0.2c5.2-2.4,10.3-4.8,15.5-7.2
					c4.5-2.1,9.1-4.2,13.6-6.4C2023.8,289.9,2024.3,287.3,2022.7,285.6z M2022.3,264.4c1-1.1,1.3-2.3,0.8-3.5
					c-0.7-1.9-2.7-2.6-4.8-1.6c-9.9,4.6-19.8,9.2-29.7,13.9c-2,0.9-2.8,2.7-2,4.5c0.8,1.8,2.7,2.4,4.8,1.4
					c9.9-4.6,19.8-9.2,29.7-13.9C2021.5,264.9,2022,264.6,2022.3,264.4z M1988.1,325.6c-1.2,1.3-1.4,2.9-0.6,4.2
					c0.9,1.5,2.7,1.9,4.5,1c7-3.2,13.9-6.5,20.9-9.7c3.1-1.4,6.2-2.8,9.2-4.3c1.7-0.8,2.3-2.7,1.5-4.3c-0.8-1.6-2.6-2.2-4.4-1.5
					c-0.2,0.1-0.5,0.2-0.7,0.3c-9.7,4.5-19.5,9.1-29.2,13.6C1988.9,325.1,1988.4,325.4,1988.1,325.6z M1993.5,292.1
					c0.2,0,0.3,0.1,0.3,0.1c7.4-3.4,14.7-6.8,22-10.2c0.3-0.1,0.6-0.6,0.6-0.9c0-3,0-6,0-9.3c-1.1,0.5-2,0.9-2.9,1.3
					c-6.4,3-12.7,5.9-19.1,8.9c-0.5,0.2-1.1,0.8-1.1,1.2C1993.4,286.1,1993.5,289.1,1993.5,292.1z M2017.2,323.7
					c-0.6,0.3-1,0.4-1.3,0.5c-6,2.8-11.9,5.6-17.9,8.3c-1.3,0.6-3,0.9-3.6,1.9c-0.6,1-0.2,2.7-0.2,4.1c0,1.8,0.1,3.6,0.1,5.6
					c7.6-3.5,15-7,22.4-10.5c0.3-0.1,0.6-0.5,0.6-0.7C2017.2,329.9,2017.2,326.9,2017.2,323.7z M1994.7,370.1
					c7.6-3.6,15-7,22.3-10.4c0.3-0.2,0.6-0.8,0.6-1.2c0-2,0-4-0.1-6c0-0.9-0.1-1.8-0.1-2.8c-7.6,3.5-14.9,7-22.3,10.4
					c-0.3,0.1-0.6,0.6-0.6,0.8C1994.6,363.8,1994.6,366.9,1994.7,370.1z M2016.9,297.7c-7.7,3.6-15.1,7-22.4,10.5
					c-0.3,0.1-0.7,0.5-0.7,0.8c0,3,0,6.1,0,9.1c0.3,0,0.4,0,0.5,0c7.3-3.4,14.6-6.8,21.9-10.2c0.3-0.1,0.6-0.6,0.6-0.9
					C2016.9,304,2016.9,301,2016.9,297.7z"/>
			</g>
		</g>
		<g id="TORNILLERIA-EXTERNA-1">
			<circle id="_x32__00000181780728052772836820000017143264065581713548_" class="st6" cx="348.3" cy="280.5" r="163.5"/>
			<g>
				<g>
					<path d="M306.5,343.4c-3.7,0-7.2-0.5-10.5-1.4c-3.3-0.9-6.2-2.1-8.5-3.7c-2.4-1.5-4.1-3.2-5.1-4.9l3.6-21.3l5.4,0.9l0.8,16.5
						c1.2,2.2,3.3,4.1,6.3,5.7c2.9,1.7,6.1,2.5,9.5,2.5c4.1,0,7.7-0.9,10.9-2.6c3.1-1.7,5.6-4.1,7.3-7.2c1.7-3.1,2.6-6.8,2.6-10.9
						c0-4-1.2-7.7-3.5-10.9c-2.3-3.2-5.6-5.7-9.8-7.5c-4.2-1.8-8.8-2.8-13.9-2.9l-0.5-4c6.2-2.8,11.7-6.2,16.6-10.3
						c4.9-4.1,7.3-9.4,7.3-16c0-2.8-0.6-5.5-1.7-8.1c-1.1-2.6-2.8-4.7-5-6.3c-2.2-1.6-4.9-2.4-8.1-2.4c-5.3,0-9.9,2.2-13.7,6.5
						l-3.5,18.1l-5.2-0.9l-0.6-20.1c2.5-2.4,6.1-4.6,11-6.6c4.8-2,10.2-3,16.1-3c4.5,0,8.6,0.8,12.3,2.5c3.7,1.7,6.6,4,8.7,7.1
						c2.1,3.1,3.2,6.7,3.2,10.8c0,4.1-1.1,7.9-3.2,11.3c-2.2,3.4-4.9,6.3-8.2,8.7c-3.3,2.4-6.8,4.2-10.4,5.6v0.8
						c4.9,0.7,9.2,2.1,13.1,4.1c3.9,2.1,6.9,4.7,9.1,8c2.2,3.3,3.3,7,3.3,11.2c0,5.7-1.7,10.9-5,15.6c-3.3,4.7-7.7,8.3-13.2,11
						C318.6,342.1,312.7,343.4,306.5,343.4z"/>
				</g>
				<path id="TORN_00000009551107459439359910000004967496682374289851_" d="M401.5,329.4c2.7,0.3,4.7,1.3,6.1,3.5
					c2.2,3.6,1.1,8.1-2.6,10.2c-0.1,0.1-0.2,0.2-0.3,0.2c-2.7,0.6-3.2,2.3-2.9,4.8c0.2,2.3,0.1,4.7,0.1,7.1c0.5,0.1,0.9,0.2,1.4,0.3
					c3,0.7,5.2,3,5.8,6c0.5,2.9-0.9,5.8-3.4,7.4c-0.1,0.1-0.3,0.2-0.5,0.3c-2.7,0.6-3.2,2.4-3,4.9c0.3,2.6,0.1,5.3,0.2,8
					c0,2.8-0.5,5.4-1.6,7.9c-3.6,8.3-7.1,16.5-10.6,24.8c-0.5,1.3-1.3,2.3-2.8,2.3c-1.6,0-2.4-1-3-2.3c-3.8-8.3-7.7-16.7-11.5-25
					c-0.8-1.7-1.2-3.6-1.8-5.4c-1.1-0.4-2.4-0.7-3.5-1.4c-2.4-1.4-3.5-3.6-3.5-6.4c0-2.8,1.3-5.2,3.9-6.2c2.7-1,3.3-2.6,3-5.2
					c-0.3-2.3-0.1-4.6-0.1-7c-2.5-0.3-4.5-1.2-5.9-3.3c-2.5-3.7-1.3-8.9,2.9-10.6c2.4-1,3-2.3,2.8-4.7c-0.2-2.4-0.1-4.9-0.1-6.9
					c-1.8-0.9-3.4-1.4-4.6-2.3c-4.1-3.4-3.4-9.8,1.3-11.9c2.6-1.1,3.2-2.5,3-5.1c-0.2-2.3-0.1-4.6-0.1-6.7c-1.6-0.7-3-1.1-4.2-1.9
					c-4.4-3.1-4-9.6,0.6-12.2c0.2-0.1,0.3-0.2,0.5-0.2c2.6-0.5,3-2.2,2.8-4.6c-0.2-2.3-0.1-4.6-0.2-6.8c0-0.1,0-0.3-0.1-0.5
					c-0.3-0.1-0.7-0.2-1.1-0.2c-3.1-0.6-5.4-2.9-5.9-6c-0.5-3,0.9-5.9,3.5-7.5c0.2-0.1,0.3-0.2,0.5-0.2c2.6-0.6,2.9-2.2,2.9-4.7
					c-0.4-16.2-0.6-32.3-0.7-48.5c-0.1-5.5-1.3-10.6-3.9-15.4c-3.2-6-6.4-12-9.6-18.1c-2.3-4.3,0.1-8.3,4.9-8.4
					c15.7-0.1,31.4-0.2,47-0.2c4.9,0,7.4,4,5.2,8.4c-3.3,6.7-6.6,13.3-9.8,19.9c-1.8,3.7-2.7,7.7-2.6,11.8
					c0.1,13.2,0.3,26.5,0.5,39.7c0,0.1,0,0.2,0.1,0.4c0.3,0.1,0.7,0.2,1.1,0.2c3.1,0.6,5.4,2.9,5.9,6c0.5,3-0.8,5.9-3.5,7.5
					c-0.2,0.1-0.4,0.3-0.7,0.4c-2.3,0.5-2.9,2-2.7,4.3c0.3,2.5,0.1,5,0.1,7.4c1.3,0.5,2.7,0.8,3.8,1.5c4.6,2.9,4.6,9.5-0.1,12.4
					c-0.2,0.1-0.4,0.3-0.6,0.3c-2.6,0.6-3.1,2.3-2.9,4.7c0.3,2.4,0.1,4.8,0.1,6.8c1.8,1,3.6,1.5,4.8,2.6c3.8,3.3,3.1,9.6-1.6,11.7
					c-2.7,1.2-3.3,2.7-3,5.3C401.7,324.8,401.5,327.1,401.5,329.4z M373.1,209.9c0.2,17.8,0.4,35.5,0.7,53.3c0.5-0.2,1-0.4,1.5-0.7
					c6.6-3.1,13.1-6.1,19.7-9.1c1.1-0.5,1.5-1.1,1.5-2.3c-0.2-11.9-0.4-23.7-0.5-35.6c0-1.9-0.2-3.8-0.3-5.7
					C388.1,209.8,380.4,209.9,373.1,209.9z M371.9,205.6c8.3,0,16.4,0,24.2-0.1c1.2-3.1,2.2-6.2,3.5-9.2c1.3-3,2.8-5.8,4.2-8.6
					c-13.4,0.1-26.6,0.1-39.9,0.2C366.8,193.7,370.6,199.1,371.9,205.6z M398.2,372.7c-0.3,0-0.4,0-0.5,0.1
					c-7.2,3.4-14.5,6.7-21.7,10.1c-0.3,0.2-0.7,0.9-0.6,1.3c0.4,1.5,0.7,3.1,1.4,4.5c3.2,7.1,6.5,14.1,9.7,21.2
					c0.2,0.4,0.4,0.8,0.7,1.4c0.3-0.6,0.4-0.9,0.6-1.3c2.8-6.5,5.4-13.2,8.5-19.5C399.1,384.7,398,378.7,398.2,372.7z M358.5,175.9
					c0.1,0.8,0,1.4,0.2,1.9c0.8,1.7,1.6,3.3,2.6,4.9c0.2,0.4,0.9,0.8,1.4,0.8c14.1,0,28.3-0.1,42.4-0.2c0.5,0,1.1-0.4,1.4-0.9
					c0.9-1.5,1.6-3.1,2.4-4.7c0.8-1.6,0.2-2.4-1.6-2.4c-2,0-3.9,0-5.9,0c-13.7,0.1-27.3,0.1-41,0.2
					C359.8,175.7,359.3,175.8,358.5,175.9z M403.8,334.5c-1.1-1.1-2.5-1.3-4.2-0.5c-6.2,2.9-12.3,5.7-18.5,8.6
					c-3.8,1.7-7.5,3.5-11.3,5.3c-1.9,0.9-2.7,2.6-1.9,4.4c0.8,1.8,2.7,2.4,4.7,1.5c6.2-2.9,12.4-5.8,18.6-8.7
					c3.8-1.8,7.6-3.5,11.4-5.3C404.8,338.8,405.4,336.2,403.8,334.5z M369.2,374.4c-1.3,1.3-1.4,3-0.6,4.3c1,1.5,2.6,1.8,4.4,1
					c9.9-4.6,19.8-9.2,29.7-13.9c2.1-1,2.8-2.8,2-4.6c-0.8-1.7-2.7-2.3-4.7-1.4c-9.9,4.6-19.7,9.2-29.6,13.8
					C369.9,374,369.4,374.3,369.2,374.4z M403,282.6c-1.1-1.1-2.4-1.3-4-0.5c-9.8,4.6-19.6,9.1-29.4,13.7c-2.4,1.1-3.3,2.8-2.4,4.7
					c0.9,1.9,2.8,2.3,5.2,1.2c0.1-0.1,0.2-0.1,0.4-0.2c5.2-2.4,10.3-4.8,15.5-7.2c4.5-2.1,9.1-4.2,13.6-6.4
					C404.1,286.9,404.6,284.3,403,282.6z M402.6,261.4c1-1.1,1.3-2.3,0.8-3.5c-0.7-1.9-2.7-2.6-4.8-1.6c-9.9,4.6-19.8,9.2-29.7,13.9
					c-2,0.9-2.8,2.7-2,4.5c0.8,1.8,2.7,2.4,4.8,1.4c9.9-4.6,19.8-9.2,29.7-13.9C401.8,261.9,402.3,261.6,402.6,261.4z M368.4,322.6
					c-1.2,1.3-1.4,2.9-0.6,4.2c0.9,1.5,2.7,1.9,4.5,1c7-3.2,13.9-6.5,20.9-9.7c3.1-1.4,6.2-2.8,9.2-4.3c1.7-0.8,2.3-2.7,1.5-4.3
					c-0.8-1.6-2.6-2.2-4.4-1.5c-0.2,0.1-0.5,0.2-0.7,0.3c-9.7,4.5-19.5,9.1-29.2,13.6C369.2,322.1,368.7,322.4,368.4,322.6z
					 M373.8,289.1c0.2,0,0.3,0.1,0.3,0.1c7.4-3.4,14.7-6.8,22-10.2c0.3-0.1,0.6-0.6,0.6-0.9c0-3,0-6,0-9.3c-1.1,0.5-2,0.9-2.9,1.3
					c-6.4,3-12.7,5.9-19.1,8.9c-0.5,0.2-1.1,0.8-1.1,1.2C373.7,283.1,373.8,286.1,373.8,289.1z M397.5,320.7c-0.6,0.3-1,0.4-1.3,0.5
					c-6,2.8-11.9,5.6-17.9,8.3c-1.3,0.6-3,0.9-3.6,1.9c-0.6,1-0.2,2.7-0.2,4.1c0,1.8,0.1,3.6,0.1,5.6c7.6-3.5,15-7,22.4-10.5
					c0.3-0.1,0.6-0.5,0.6-0.7C397.5,326.9,397.5,323.9,397.5,320.7z M375,367.1c7.6-3.6,15-7,22.3-10.4c0.3-0.2,0.6-0.8,0.6-1.2
					c0-2,0-4-0.1-6c0-0.9-0.1-1.8-0.1-2.8c-7.6,3.5-14.9,7-22.3,10.4c-0.3,0.1-0.6,0.6-0.6,0.8C374.8,360.8,374.9,363.9,375,367.1z
					 M397.1,294.7c-7.7,3.6-15.1,7-22.4,10.5c-0.3,0.1-0.7,0.5-0.7,0.8c0,3,0,6.1,0,9.1c0.3,0,0.4,0,0.5,0
					c7.3-3.4,14.6-6.8,21.9-10.2c0.3-0.1,0.6-0.6,0.6-0.9C397.2,301,397.2,298,397.1,294.7z"/>
			</g>
		</g>
	</g>
	<g id="TORNILLERIA-SOPORTES">
		<g id="SOPORTES">
			<polygon class="st7" points="1505.7,1792 1524.8,1792.2 1524.8,1817.5 1524.8,1844.2 1573.7,1844.2 1573.7,1815.6 1573.7,1764.6 
				1505.7,1764.6 			"/>
			<polygon class="st7" points="1690,1796.7 1713,1797 1713,1826.3 1713,1857.2 1771.7,1857.2 1771.7,1824.1 1771.7,1765 1690,1765 
							"/>
			<polygon class="st7" points="830.7,1796.5 809.9,1796.8 809.9,1826.2 809.9,1857 756.7,1857 756.7,1824 756.7,1764.9 
				830.7,1764.9 			"/>
			<polygon class="st7" points="508.7,1761.7 493.2,1761.9 493.2,1787.3 493.2,1813.9 453.3,1813.9 453.3,1785.4 453.3,1734.4 
				508.7,1734.4 			"/>
			<polygon class="st7" points="2801.7,1820.6 2820.8,1820.8 2820.8,1846.2 2820.8,1872.8 2869.7,1872.8 2869.7,1844.3 
				2869.7,1793.3 2801.7,1793.3 			"/>
			<polygon class="st7" points="2936,1827.3 2959,1827.6 2959,1857 2959,1887.8 3017.7,1887.8 3017.7,1854.7 3017.7,1795.7 
				2936,1795.7 			"/>
			<polygon class="st7" points="2092.8,1824.7 2072,1825 2072,1854.4 2072,1885.2 2018.8,1885.2 2018.8,1852.1 2018.8,1793.1 
				2092.8,1793.1 			"/>
			<polygon class="st7" points="4294.3,1806.2 4317.2,1806.4 4317.2,1835.8 4317.2,1866.6 4376,1866.6 4376,1833.6 4376,1774.5 
				4294.3,1774.5 			"/>
			<polygon class="st8" points="3415.6,1805.3 3394.8,1805.6 3394.8,1835 3394.8,1865.8 3341.6,1865.8 3341.6,1832.7 3341.6,1773.7 
				3415.6,1773.7 			"/>
			<polygon class="st7" points="4110,1801.4 4129.1,1801.6 4129.1,1827 4129.1,1853.6 4178,1853.6 4178,1825.1 4178,1774.1 
				4110,1774.1 			"/>
			<polygon class="st7" points="5472.8,1806.2 5491.9,1806.4 5491.9,1831.7 5491.9,1858.4 5540.8,1858.4 5540.8,1829.8 
				5540.8,1778.8 5472.8,1778.8 			"/>
			<polygon class="st8" points="4700.3,1806.4 4679.5,1806.7 4679.5,1836 4679.5,1866.9 4626.3,1866.9 4626.3,1833.8 4626.3,1774.8 
				4700.3,1774.8 			"/>
			<polygon class="st7" points="5657.1,1779.3 5657.1,1810.9 5680,1811.2 5680,1840.5 5680,1871.4 5738.8,1871.4 5738.8,1838.3 
				5738.8,1779.3 			"/>
		</g>
	</g>
	<g id="TABLITA-DELANTERA_00000134928484676515735100000014033209265469078427_">
		<g id="TABLITA-DELANTERA">
			<rect x="3169.3" y="840.1" class="st9" width="82.4" height="1709.5"/>
			<polygon class="st9" points="3170,2547.1 3035.9,2523.1 3035.6,840.6 3170,841.1 			"/>
		</g>
		<g id="TORNILLERIA-TABLITA-DELANTERA">
			<path d="M3087.2,2462.6c10.6,11.5,26.4,10.4,35.3-2.3c8.8-12.8,7.4-32.4-3.2-43.9s-26.4-10.4-35.3,2.3
				C3075.1,2431.4,3076.5,2451.1,3087.2,2462.6z M3094.8,2424.4c0.6-0.5,0.9,0.1,0.9,0.1s2.4,2.9,4.7,5.6c2.8,2.4,4.4,0.2,4.4,0.2
				s4.2-5.4,4.5-5.8s0.8,0.1,0.8,0.1l1.2,1.5c0,0,2.8,3.4,3.2,3.9c0.3,0.6,0.1,1.1,0.1,1.1s-2.6,3.2-4.3,5.8
				c-1.6,2.7,0.2,5.6,0.2,5.6l2.5,3c0,0,2,2.3,2.4,2.9c0.3,0.7,0,1.1,0,1.1s-3.5,4.6-3.9,5.2s-1.1,0.1-1.1,0.1s-2.8-3.5-4.8-5.8
				c-2.2-2.1-4.4,0.1-4.4,0.1s-3.9,5.1-4.3,5.6c-0.6,0.2-0.8-0.1-0.8-0.1s-3.6-4.3-4.2-5.1c-0.7-0.8-0.2-1.5-0.2-1.5l3.4-4.5
				c2.5-3.2,0.7-6.4,0.7-6.4l-4.8-5.8c0,0-0.5-0.6-0.3-1.3C3090.9,2429.6,3094.3,2425,3094.8,2424.4z"/>
			<path d="M3087,1774.2c10.6,11.5,26.4,10.4,35.3-2.3c8.8-12.8,7.4-32.4-3.2-43.9s-26.4-10.4-35.3,2.3
				C3074.9,1743,3076.4,1762.7,3087,1774.2z M3094.7,1735.9c0.6-0.5,0.9,0.1,0.9,0.1s2.4,2.9,4.7,5.6c2.8,2.4,4.4,0.2,4.4,0.2
				s4.2-5.4,4.5-5.8c0.4-0.4,0.8,0.1,0.8,0.1l1.2,1.5c0,0,2.8,3.4,3.2,3.9c0.3,0.6,0.1,1.1,0.1,1.1s-2.6,3.2-4.3,5.8
				c-1.6,2.7,0.2,5.6,0.2,5.6l2.5,3c0,0,2,2.3,2.4,2.9c0.3,0.7,0,1.1,0,1.1s-3.5,4.6-3.9,5.2c-0.4,0.6-1.1,0.1-1.1,0.1
				s-2.8-3.5-4.8-5.8c-2.2-2.1-4.4,0.1-4.4,0.1s-3.9,5.1-4.3,5.6c-0.6,0.2-0.8-0.1-0.8-0.1s-3.6-4.3-4.2-5.1
				c-0.7-0.8-0.2-1.5-0.2-1.5l3.4-4.5c2.5-3.2,0.7-6.4,0.7-6.4l-4.8-5.8c0,0-0.5-0.6-0.3-1.3
				C3090.8,1741.2,3094.1,1736.6,3094.7,1735.9z"/>
			<path d="M3086.3,964c10.6,11.5,26.4,10.4,35.3-2.3c8.8-12.8,7.4-32.4-3.2-43.9s-26.4-10.4-35.3,2.3
				C3074.2,932.9,3075.7,952.6,3086.3,964z M3094,925.8c0.6-0.5,0.9,0.1,0.9,0.1s2.4,2.9,4.7,5.6c2.8,2.4,4.4,0.2,4.4,0.2
				s4.2-5.4,4.5-5.8c0.4-0.4,0.8,0.1,0.8,0.1l1.2,1.5c0,0,2.8,3.4,3.2,3.9c0.3,0.6,0.1,1.1,0.1,1.1s-2.6,3.2-4.3,5.8
				c-1.6,2.7,0.2,5.6,0.2,5.6l2.5,3c0,0,2,2.3,2.4,2.9c0.3,0.7,0,1.1,0,1.1s-3.5,4.6-3.9,5.2c-0.4,0.6-1.1,0.1-1.1,0.1
				s-2.8-3.5-4.8-5.8c-2.2-2.1-4.4,0.1-4.4,0.1s-3.9,5.1-4.3,5.6c-0.6,0.2-0.8-0.1-0.8-0.1s-3.6-4.3-4.2-5.1
				c-0.7-0.8-0.2-1.5-0.2-1.5l3.4-4.5c2.5-3.2,0.7-6.4,0.7-6.4l-4.8-5.8c0,0-0.5-0.6-0.3-1.3C3090.1,931.1,3093.5,926.4,3094,925.8z
				"/>
		</g>
	</g>
	<g id="TABLITA-TRASERAS">
		<g id="TABLITA-TRASERA">
			<polyline class="st9" points="5371,1776.7 5371,2462.8 5275,2440 5274.2,1776.7 5429.2,1777.2 5429.5,2465.2 5370.5,2465.2 
				5370.5,1778.4 			"/>
			<line class="st9" x1="5371" y1="1604.6" x2="5371" y2="1608.7"/>
			<polyline class="st9" points="5371,1604.6 5371,842.1 5274.8,841.7 5274.9,1604.6 5429.2,1604.7 5429.5,841.2 5370.5,841.2 
				5370.5,1608.7 			"/>
		</g>
		<g id="TORNILLERIA-TABLITAS-TRASERAS">
			<g>
				<path d="M5307,948.9c10.6,11.5,26.4,10.4,35.3-2.3c8.8-12.8,7.4-32.4-3.2-43.9c-10.6-11.5-26.4-10.4-35.3,2.3
					C5294.9,917.7,5296.4,937.4,5307,948.9z M5314.7,910.6c0.6-0.5,0.9,0.1,0.9,0.1s2.4,2.9,4.7,5.6c2.8,2.4,4.4,0.2,4.4,0.2
					s4.2-5.4,4.5-5.8c0.4-0.4,0.8,0.1,0.8,0.1l1.2,1.5c0,0,2.8,3.4,3.2,3.9c0.3,0.6,0.1,1.1,0.1,1.1s-2.6,3.2-4.3,5.8
					c-1.6,2.7,0.2,5.6,0.2,5.6l2.5,3c0,0,2,2.3,2.4,2.9c0.3,0.7,0,1.1,0,1.1s-3.5,4.6-3.9,5.2c-0.4,0.6-1.1,0.1-1.1,0.1
					s-2.8-3.5-4.8-5.8c-2.2-2.1-4.4,0.1-4.4,0.1s-3.9,5.1-4.3,5.6c-0.6,0.2-0.8-0.1-0.8-0.1s-3.6-4.3-4.2-5.1
					c-0.7-0.8-0.2-1.5-0.2-1.5l3.4-4.5c2.5-3.2,0.7-6.4,0.7-6.4l-4.8-5.8c0,0-0.5-0.6-0.3-1.3
					C5310.8,915.9,5314.1,911.3,5314.7,910.6z"/>
				<path d="M5306.9,1591.5c10.6,11.5,26.4,10.4,35.3-2.3c8.8-12.8,7.4-32.4-3.2-43.9s-26.4-10.4-35.3,2.3
					C5294.8,1560.3,5296.2,1580,5306.9,1591.5z M5314.6,1553.2c0.6-0.5,0.9,0.1,0.9,0.1s2.4,2.9,4.7,5.6c2.8,2.4,4.4,0.2,4.4,0.2
					s4.2-5.4,4.5-5.8c0.4-0.4,0.8,0.1,0.8,0.1l1.2,1.5c0,0,2.8,3.4,3.2,3.9c0.3,0.6,0.1,1.1,0.1,1.1s-2.6,3.2-4.3,5.8
					c-1.6,2.7,0.2,5.6,0.2,5.6l2.5,3c0,0,2,2.3,2.4,2.9c0.3,0.7,0,1.1,0,1.1s-3.5,4.6-3.9,5.2c-0.4,0.6-1.1,0.1-1.1,0.1
					s-2.8-3.5-4.8-5.8c-2.2-2.1-4.4,0.1-4.4,0.1s-3.9,5.1-4.3,5.6c-0.6,0.2-0.8-0.1-0.8-0.1s-3.6-4.3-4.2-5.1
					c-0.7-0.8-0.2-1.5-0.2-1.5l3.4-4.5c2.5-3.2,0.7-6.4,0.7-6.4l-4.8-5.8c0,0-0.5-0.6-0.3-1.3
					C5310.6,1558.5,5314,1553.9,5314.6,1553.2z"/>
				<path d="M5307.3,2411.7c10.6,11.5,26.4,10.4,35.3-2.3s7.4-32.4-3.2-43.9s-26.4-10.4-35.3,2.3
					C5295.2,2380.6,5296.7,2400.2,5307.3,2411.7z M5315,2373.5c0.6-0.5,0.9,0.1,0.9,0.1s2.4,2.9,4.7,5.6c2.8,2.4,4.4,0.2,4.4,0.2
					s4.2-5.4,4.5-5.8s0.8,0.1,0.8,0.1l1.2,1.5c0,0,2.8,3.4,3.2,3.9c0.3,0.6,0.1,1.1,0.1,1.1s-2.6,3.2-4.3,5.8
					c-1.6,2.7,0.2,5.6,0.2,5.6l2.5,3c0,0,2,2.3,2.4,2.9c0.3,0.7,0,1.1,0,1.1s-3.5,4.6-3.9,5.2s-1.1,0.1-1.1,0.1s-2.8-3.5-4.8-5.8
					c-2.2-2.1-4.4,0.1-4.4,0.1s-3.9,5.1-4.3,5.6c-0.6,0.2-0.8-0.1-0.8-0.1s-3.6-4.3-4.2-5.1c-0.7-0.8-0.2-1.5-0.2-1.5l3.4-4.5
					c2.5-3.2,0.7-6.4,0.7-6.4l-4.8-5.8c0,0-0.5-0.6-0.3-1.3C5311,2378.7,5314.4,2374.1,5315,2373.5z"/>
			</g>
		</g>
		<g id="TABLITA-TRASERA-ESCONDIDA">
			<polygon class="st9" points="385,2482 326,2482 326.2,756.2 385.2,772.2 			"/>
			<polygon class="st9" points="326.5,2479.5 230.5,2455.5 230.2,731.2 326.2,756.2 			"/>
		</g>
	</g>
	<g id="LATERAL-IZQUIERDA">
		<rect x="666" y="840.7" class="st0" width="90" height="1720"/>
		<polygon class="st0" points="667.1,2561.7 201,2446.7 202.1,719.2 667.1,840.7 		"/>
	</g>
	<g>
		<g>
			<g>
				<line class="st10" x1="3295.1" y1="2647" x2="3295.1" y2="2686.6"/>
				<line class="st10" x1="4598.8" y1="2648" x2="4598.8" y2="2685.8"/>
				<line class="st11" x1="5866.6" y1="2648.6" x2="5866.6" y2="2746.2"/>
			</g>
			<line class="st12" x1="1979.9" y1="2648" x2="1979.9" y2="2734.9"/>
			<line class="st12" x1="237.3" y1="2529.1" x2="237.3" y2="2678.9"/>
			<line class="st13" x1="355.8" y1="444.3" x2="355.8" y2="650.1"/>
			<line class="st14" x1="1962.2" y1="450.7" x2="1962.2" y2="729.2"/>
			<line class="st15" x1="4569.7" y1="410.7" x2="4569.7" y2="724.2"/>
			<line class="st16" x1="5533.7" y1="402.8" x2="5533.7" y2="689.8"/>
		</g>
		<line class="st17" x1="3292.3" y1="422.7" x2="3292.3" y2="730.1"/>
	</g>
	<path class="st18" d="M5698.6,5218.6"/>
	<polyline class="st18" points="5571.7,5188.2 5254.7,5119 5256.6,3411.2 5787.4,3514.5 5787.4,5235.2 	"/>
	<rect x="5789" y="3515.2" class="st0" width="103.6" height="1720"/>
	<polyline class="st19" points="5788.9,5235.8 652.8,5236 652.8,5127 734.4,5122.2 	"/>
	<polyline class="st19" points="826.9,5121.1 5243.8,5115 5567.7,5187.2 	"/>
	<line class="st19" x1="5244.4" y1="5115" x2="826.9" y2="5121.1"/>
	<rect x="657.1" y="5236.2" class="st0" width="5234.8" height="86.5"/>
	<polyline class="st20" points="646.3,5236 182.4,5121 182.4,5200 646.3,5321 647,5235.7 	"/>
	<polygon class="st21" points="4519,5236 4053,5121 4054.1,3393.5 4519,3515 	"/>
	<rect x="4518" y="3430" class="st22" width="90" height="1805"/>
	<polygon class="st21" points="3233.2,5236 2767.2,5121 2768.2,3393.5 3233.2,3515 	"/>
	<rect x="3232.1" y="3430" class="st22" width="90" height="1805"/>
	<polygon class="st21" points="1911.1,5236.3 1445.1,5121.3 1446.1,3393.8 1911.1,3515.3 	"/>
	<rect x="1910" y="3430.3" class="st22" width="90" height="1805"/>
	<g id="DIVISION-HORIZONTAL-EXTREMA-IZQUIERDA_00000028285372952711445710000003343675501844012440_">
		<polyline class="st23" points="827.6,4355.7 1795.3,4356.2 1474.9,4265.7 826.7,4265.2 		"/>
		<polyline class="st24" points="827.7,4353 1795.7,4353 1795.7,4437.7 827.7,4437.7 		"/>
	</g>
	<g id="DIVISION-HORIZONTAL-INTERNA-DERECHA_00000160875372354990063570000000672194800059295909_">
		<polygon class="st25" points="3322.8,4371.8 4517.5,4372.3 4121.9,4281.8 3321.7,4281.3 		"/>
		<rect x="3322.2" y="4369" class="st26" width="1195.8" height="84.7"/>
	</g>
	<g id="DIVISION-HORIZONTAL-EXTREMA-DERECHA_00000046330278767553244530000014508357717989469348_">
		<polygon class="st27" points="4608.6,4369.8 5572.3,4370.3 5263.9,4279.7 4607.7,4279.3 		"/>
		<rect x="4608.1" y="4367" class="st28" width="964.6" height="84.7"/>
	</g>
	<g id="DIVISION-HORIZONTAL-INTERNA-IZQUIERDA_00000086659292681069666250000003936491394250036902_">
		<polygon class="st29" points="2000.8,4384.5 3232.1,4385 2894.5,4294.2 1999.7,4294 		"/>
		<rect x="2000.3" y="4381.7" class="st30" width="1232.4" height="84.7"/>
	</g>
	<polygon class="st21" points="648.1,5236.7 182,5121.7 183.1,3394.2 648.1,3515.7 	"/>
	<rect x="646.7" y="3516.7" class="st31" width="90" height="1719.1"/>
	<polygon class="st0" points="647,3515.7 183.1,3394.7 183.1,3315.7 647,3430.7 	"/>
	<rect x="653.9" y="3430.7" class="st0" width="5239.2" height="85"/>
	<polyline class="st0" points="176.7,3313.7 647.5,3431.2 5893.7,3430.5 5344.4,3309.7 176.7,3313.7 5345.1,3309.7 	"/>
	<g>
		<polygon class="st32" points="4390.3,4481.2 4413.2,4481.5 4413.2,4510.9 4413.2,4541.7 4472,4541.7 4472,4508.6 4472,4449.6 
			4390.3,4449.6 		"/>
		<polygon class="st32" points="5287.8,4479.2 5306.9,4479.5 5306.9,4504.8 5306.9,4531.5 5355.8,4531.5 5355.8,4502.9 
			5355.8,4451.9 5287.8,4451.9 		"/>
		<polygon class="st32" points="5452.1,4452.3 5452.1,4484 5475,4484.2 5475,4513.6 5475,4544.5 5533.8,4544.5 5533.8,4511.4 
			5533.8,4452.3 		"/>
		<polygon class="st32" points="1472.7,4465 1491.8,4465.3 1491.8,4490.6 1491.8,4517.2 1540.7,4517.2 1540.7,4488.7 1540.7,4437.7 
			1472.7,4437.7 		"/>
		<polygon class="st32" points="1657,4469.8 1680,4470 1680,4499.4 1680,4530.2 1738.7,4530.2 1738.7,4497.2 1738.7,4438.1 
			1657,4438.1 		"/>
		<polygon class="st32" points="4206.1,4476.5 4225.1,4476.7 4225.1,4502.1 4225.1,4528.7 4274,4528.7 4274,4500.2 4274,4449.2 
			4206.1,4449.2 		"/>
		<polygon class="st33" points="2961.4,4517.2 2961.4,4543.9 3019.4,4543.9 3019.4,4515.3 3019.4,4464.3 2938.8,4464.3 
			2938.8,4491.7 2961.4,4491.9 		"/>
		<polygon class="st34" points="3125.2,4528 3125.2,4558.9 3194.8,4558.9 3194.8,4525.8 3194.8,4466.7 3098,4466.7 3098,4498.4 
			3125.2,4498.7 		"/>
	</g>
	<circle cx="1955.2" cy="3555.7" r="19.5"/>
	<circle cx="1955.2" cy="4049.7" r="19.5"/>
	<circle cx="1955.2" cy="4668.7" r="19.5"/>
	<circle cx="1955.2" cy="5184.7" r="19.5"/>
	<circle cx="3274.2" cy="3553.7" r="19.5"/>
	<circle cx="3274.2" cy="4047.7" r="19.5"/>
	<circle cx="3274.2" cy="4666.7" r="19.5"/>
	<circle cx="3274.2" cy="5182.7" r="19.5"/>
	<circle cx="4563.2" cy="3561.7" r="19.5"/>
	<circle cx="4563.2" cy="4055.7" r="19.5"/>
	<circle cx="4563.2" cy="4674.7" r="19.5"/>
	<circle cx="4563.2" cy="5190.7" r="19.5"/>
	<circle cx="5748.2" cy="3557.7" r="19.5"/>
	<circle cx="5748.2" cy="4051.7" r="19.5"/>
	<circle cx="5748.2" cy="4670.7" r="19.5"/>
	<circle cx="5748.2" cy="5186.7" r="19.5"/>
	<circle cx="778.7" cy="4669.2" r="19.5"/>
	<circle cx="778.7" cy="5185.2" r="19.5"/>
	<circle cx="778.7" cy="3556.2" r="19.5"/>
	<circle cx="778.7" cy="4050.2" r="19.5"/>
	<g id="TABLITA-TRASERA-IZQUIERDA" class="st35">
		<rect x="736.8" y="3517" class="st36" width="82.4" height="1719.4"/>
	</g>
	<g id="TABLITA-TRASERA-DERECHA" class="st35">
		<path class="st37" d="M5706.3,3518.3v1l0.7,0l-0.8,1702.4v2v-3c0,1.5,6.5,1,8,1h75c1.5,0-1-8.5-1-10l0.5-1690.7
			c0-1.5-1.2-2.7-2.7-2.7H5706.3z"/>
		<path class="st38" d="M5572.7,3521.5l0.5,1656.9c0,1.2-0.2,10,1,10.3l130,28.4c1.7,0.5,1.5,0.8,2-2.4l1.5-1692.8
			c0-1.5-1.2-2.7-2.7-2.7l-129.6-0.5C5573.9,3518.8,5572.7,3520,5572.7,3521.5z"/>
	</g>
	<rect id="TRIPLEX" x="743.5" y="3522.2" class="st39" width="5038.3" height="1706.1"/>
	<rect id="COLGADOR-1" x="736.5" y="3516.1" class="st40" width="5052.8" height="293"/>
	<ellipse class="st41" cx="1955.1" cy="3580.6" rx="38.3" ry="38"/>
	<path class="st42" d="M1972.2,3589.2l-6.7-5.6c0,0-2.7-3.1,0.3-6.4l4-4.6c0,0,0.5-0.7-0.4-1.5s-5.9-5-5.9-5s-0.4-0.3-1.1-0.1
		c-0.5,0.5-5,5.7-5,5.7s-2.6,2.2-5.7,0.2c-2.7-2.2-6.7-5.6-6.7-5.6s-0.9-0.5-1.4,0.1s-4.5,5.2-4.5,5.2s-0.4,0.4,0.1,1.1
		c0.6,0.6,3.4,2.8,3.4,2.8l3.5,2.9c0,0,2.6,2.8,0.7,5.5c-2,2.6-5,5.9-5,5.9s-0.2,0.5,0.2,1.1c0.6,0.5,4.5,3.8,4.5,3.8l1.7,1.5
		c0,0,0.7,0.5,1.1,0.1s5.2-5.9,5.2-5.9s1.9-2.2,5.7,0.1c3.2,2.6,6.5,5.5,6.5,5.5s0.5,0.6,1.2,0.1c0.7-0.6,4.6-5.3,4.7-5.5
		C1972.9,3589.8,1972.2,3589.2,1972.2,3589.2z"/>
	<ellipse class="st41" cx="3275.7" cy="3586.2" rx="38.3" ry="38"/>
	<path class="st42" d="M3292.8,3594.7l-6.7-5.6c0,0-2.7-3.1,0.3-6.4l4-4.6c0,0,0.5-0.7-0.4-1.5c-0.9-0.8-5.9-5-5.9-5
		s-0.4-0.3-1.1-0.1c-0.5,0.5-5,5.7-5,5.7s-2.6,2.2-5.7,0.2c-2.7-2.2-6.7-5.6-6.7-5.6s-0.9-0.5-1.4,0.1s-4.5,5.2-4.5,5.2
		s-0.4,0.4,0.1,1.1c0.6,0.6,3.4,2.8,3.4,2.8l3.5,2.9c0,0,2.6,2.8,0.7,5.5c-2,2.6-5,5.9-5,5.9s-0.2,0.5,0.2,1.1
		c0.6,0.5,4.5,3.8,4.5,3.8l1.7,1.5c0,0,0.7,0.5,1.1,0.1c0.4-0.4,5.2-5.9,5.2-5.9s1.9-2.2,5.7,0.1c3.2,2.6,6.5,5.5,6.5,5.5
		s0.5,0.6,1.2,0.1c0.7-0.6,4.6-5.3,4.7-5.5C3293.5,3595.3,3292.8,3594.7,3292.8,3594.7z"/>
	<ellipse class="st41" cx="5727.9" cy="3584.8" rx="38.3" ry="38"/>
	<path class="st42" d="M5745,3593.3l-6.7-5.6c0,0-2.7-3.1,0.3-6.4l4-4.6c0,0,0.5-0.7-0.4-1.5s-5.9-5-5.9-5s-0.4-0.3-1.1-0.1
		c-0.5,0.5-5,5.7-5,5.7s-2.6,2.2-5.7,0.2c-2.7-2.2-6.7-5.6-6.7-5.6s-0.9-0.5-1.4,0.1c-0.5,0.6-4.5,5.2-4.5,5.2s-0.4,0.4,0.1,1.1
		c0.6,0.6,3.4,2.8,3.4,2.8l3.5,2.9c0,0,2.6,2.8,0.7,5.5c-2,2.6-5,5.9-5,5.9s-0.2,0.5,0.2,1.1c0.6,0.5,4.5,3.8,4.5,3.8l1.7,1.5
		c0,0,0.7,0.5,1.1,0.1s5.2-5.9,5.2-5.9s1.9-2.2,5.7,0.1c3.2,2.6,6.5,5.5,6.5,5.5s0.5,0.6,1.2,0.1c0.7-0.6,4.6-5.3,4.7-5.5
		C5745.7,3593.9,5745,3593.3,5745,3593.3z"/>
	<ellipse class="st41" cx="4548.9" cy="3580.8" rx="38.3" ry="38"/>
	<path class="st42" d="M4566,3589.3l-6.7-5.6c0,0-2.7-3.1,0.3-6.4l4-4.6c0,0,0.5-0.7-0.4-1.5s-5.9-5-5.9-5s-0.4-0.3-1.1-0.1
		c-0.5,0.5-5,5.7-5,5.7s-2.6,2.2-5.7,0.2c-2.7-2.2-6.7-5.6-6.7-5.6s-0.9-0.5-1.4,0.1c-0.5,0.6-4.5,5.2-4.5,5.2s-0.4,0.4,0.1,1.1
		c0.6,0.6,3.4,2.8,3.4,2.8l3.5,2.9c0,0,2.6,2.8,0.7,5.5c-2,2.6-5,5.9-5,5.9s-0.2,0.5,0.2,1.1c0.6,0.5,4.5,3.8,4.5,3.8l1.7,1.5
		c0,0,0.7,0.5,1.1,0.1s5.2-5.9,5.2-5.9s1.9-2.2,5.7,0.1c3.2,2.6,6.5,5.5,6.5,5.5s0.5,0.6,1.2,0.1c0.7-0.6,4.6-5.3,4.7-5.5
		C4566.7,3589.9,4566,3589.3,4566,3589.3z"/>
	<ellipse class="st41" cx="798.5" cy="3575.7" rx="38.3" ry="38"/>
	<path class="st42" d="M815.7,3584.3l-6.7-5.6c0,0-2.7-3.1,0.3-6.4l4-4.6c0,0,0.5-0.7-0.4-1.5s-5.9-5-5.9-5s-0.4-0.3-1.1-0.1
		c-0.5,0.5-5,5.7-5,5.7s-2.6,2.2-5.7,0.2c-2.7-2.2-6.7-5.6-6.7-5.6s-0.9-0.5-1.4,0.1c-0.5,0.6-4.5,5.2-4.5,5.2s-0.4,0.4,0.1,1.1
		c0.6,0.6,3.4,2.8,3.4,2.8l3.5,2.9c0,0,2.6,2.8,0.7,5.5c-2,2.6-5,5.9-5,5.9s-0.2,0.5,0.2,1.1c0.6,0.5,4.5,3.8,4.5,3.8l1.7,1.5
		c0,0,0.7,0.5,1.1,0.1c0.4-0.4,5.2-5.9,5.2-5.9s1.9-2.2,5.7,0.1c3.2,2.6,6.5,5.5,6.5,5.5s0.5,0.6,1.2,0.1c0.7-0.6,4.6-5.3,4.7-5.5
		C816.4,3584.9,815.7,3584.3,815.7,3584.3z"/>
</g>
</svg>
