<?xml version="1.0" encoding="utf-8"?>
<!-- Generator: Adobe Illustrator 26.5.0, SVG Export Plug-In . SVG Version: 6.00 Build 0)  -->
<svg version="1.1" xmlns="http://www.w3.org/2000/svg" xmlns:xlink="http://www.w3.org/1999/xlink" x="0px" y="0px"
	 viewBox="0 0 16238.7 4972.3" style="enable-background:new 0 0 16238.7 4972.3;" xml:space="preserve">
<style type="text/css">
	.st0{fill:#E6E6E6;stroke:#000000;stroke-width:21.4611;stroke-miterlimit:10;}
	.st1{stroke:#000000;stroke-width:15.4863;stroke-miterlimit:10;}
	.st2{fill:#F7F7F7;stroke:#000000;stroke-width:27.1981;stroke-miterlimit:10;}
	.st3{fill:#E6E6E6;stroke:#000000;stroke-width:41.9358;stroke-miterlimit:10;}
	.st4{fill:#FFFFFF;}
	.st5{fill:none;stroke:#000000;stroke-width:52.695;stroke-miterlimit:10;}
	.st6{fill:none;stroke:#000000;stroke-width:37.6393;stroke-miterlimit:10;}
	.st7{fill:none;stroke:#000000;stroke-width:45.1672;stroke-miterlimit:10;}
	.st8{fill:none;stroke:#000000;stroke-width:41.9358;stroke-miterlimit:10;}
</style>
<g id="ELEMENTOS">
	<g id="PARTES-7">
		<g id="TRIPLEX">
			<g>
				<polyline class="st0" points="3673.8,918.3 3940.3,782.2 15210,836.6 15145.5,996.1 				"/>
				<polygon class="st0" points="15116.4,4239.7 3661,4188.8 3687.1,927.8 15156.7,983.5 				"/>
				<polygon class="st0" points="15181.8,4174.6 15114.1,4247.8 15145.5,990.5 15210,836.6 				"/>
			</g>
			<g>
				<g>
					<path d="M8971.8,2399.9v65.5h-4.6c-2.2-17.5-7.4-29.9-15.4-37.2c-8.1-7.2-19.9-10.9-35.6-10.9H8877v212.6
						c0,9.4,0.7,16.8,2,22.2c1.3,5.4,3.2,9.4,5.7,12.1c2.4,2.7,5.5,4.3,9.2,5c3.7,0.7,8,1.1,12.8,1.1h9.5v7.6h-117.8v-7.6h9.8
						c4.9,0,9.2-0.4,12.8-1.2c3.7-0.8,6.7-2.6,9.2-5.4c2.4-2.8,4.3-6.8,5.7-12.1c1.3-5.3,2-12.5,2-21.7v-212.6h-33.3
						c-8.4,0-15.8,0.7-22.2,2c-6.4,1.3-12,3.8-16.7,7.3c-4.7,3.6-8.4,8.5-11.2,14.7c-2.8,6.2-4.4,14.2-5,24h-7.6v-65.5H8971.8z"/>
					<path d="M9268.8,2677.9h-74l-94.2-130c-3.5,0.2-6.6,0.4-9.3,0.5c-2.8,0.1-5.3,0.2-7.5,0.2c-1.8,0-3.8,0-5.8-0.2
						c-2-0.1-4.2-0.3-6.4-0.5v80.8c0,9.8,0.7,17.5,2,23.1c1.3,5.6,3.3,9.8,5.8,12.5c2.5,2.8,5.6,4.4,9.2,5c3.6,0.6,7.6,0.9,12.1,0.9
						h11v7.6h-119.3v-7.6h10.7c11.4,0,19.8-3.8,25.1-11.3c2.9-4.5,4.3-14.6,4.3-30.3v-179.5c0-17.1-1.9-27.9-5.8-32.4
						c-5.3-6.1-13.2-9.2-23.6-9.2h-10.7v-7.6h101.2c14.9,0,27.7,0.6,38.5,1.7c10.8,1.1,19.7,2.8,26.6,5c6.9,2.2,13.5,5.4,19.6,9.3
						c6.1,4,11.5,8.8,16.1,14.4c4.6,5.6,8.2,11.9,10.9,18.8c2.6,6.9,4,14.4,4,22.3c0,17.3-5.5,32.2-16.5,44.7
						c-11,12.4-28.2,21.3-51.7,26.6l57.2,79.5c6.7,9.2,12.7,16.7,17.9,22.6c5.2,5.9,10.4,10.6,15.6,14.1c5.2,3.5,10.7,6,16.5,7.6
						c5.8,1.6,12.7,2.9,20.6,3.7V2677.9z M9071.5,2535.1c2.6,0,4.9,0.1,6.9,0.2c1.9,0.1,3.5,0.2,4.7,0.2c13.3,0,24.9-1.5,34.9-4.6
						c10-3.1,18.4-7.3,25.1-12.8c6.7-5.5,11.8-12,15.1-19.4c3.4-7.4,5-15.5,5-24.3c0-8.6-1.4-16.5-4.3-23.7
						c-2.9-7.2-6.9-13.5-12.2-18.7c-5.3-5.2-11.6-9.2-19-12.1c-7.3-2.9-15.4-4.3-24.2-4.3c-8.4,0-19.1,1.3-32.1,4V2535.1z"/>
					<path d="M9394.5,2670.3v7.6h-119v-7.6h9.8c4.9,0,9.2-0.4,13-1.1c3.8-0.7,6.9-2.4,9.3-5.2c2.4-2.8,4.3-6.9,5.7-12.5
						c1.3-5.6,2-13.2,2-22.8v-179.5c0-6.3-0.2-11.6-0.5-15.8c-0.3-4.2-0.8-7.6-1.5-10.2c-0.7-2.6-1.8-4.7-3.2-6.3
						c-1.4-1.5-3.4-3-5.8-4.4c-6.1-3.3-12.4-4.9-19-4.9h-9.8v-7.6h119v7.6h-9.8c-4.9,0-9.2,0.4-13,1.2c-3.8,0.8-6.9,2.6-9.3,5.4
						c-2.4,2.8-4.3,6.9-5.7,12.5c-1.3,5.6-2,13.1-2,22.5v179.5c0,6.5,0.1,11.8,0.3,15.9c0.2,4.1,0.7,7.4,1.5,10.1
						c0.8,2.7,2,4.7,3.5,6.3s3.5,3,6,4.4c5.7,3.3,11.9,4.9,18.7,4.9H9394.5z"/>
					<path d="M9490.9,2547.9v80.8c0,17.7,1.9,28.6,5.8,32.7c5.3,5.9,13.2,8.9,23.6,8.9h10.7v7.6h-119v-7.6h10.4
						c11.6,0,20-3.8,25.1-11.3c2.9-4.5,4.3-14.6,4.3-30.3v-179.5c0-17.3-1.8-28.1-5.5-32.4c-5.5-6.1-13.5-9.2-23.9-9.2h-10.4v-7.6
						h101.9c24.5,0,44,2.7,58.7,8c7.1,2.4,13.8,5.9,20,10.2c6.2,4.4,11.6,9.6,16.2,15.6c4.6,6,8.2,12.6,10.9,19.9
						c2.6,7.2,4,15,4,23.4c0,11.2-1.9,21.5-5.8,30.9c-3.9,9.4-9.5,17.4-16.8,24.2c-7.3,6.7-16.3,12-26.9,15.8
						c-10.6,3.8-22.7,5.7-36.4,5.7C9524.4,2553.4,9508.8,2551.6,9490.9,2547.9z M9490.9,2536c7.3,1.4,13.8,2.5,19.3,3.2
						c5.5,0.7,10.3,1.1,14.4,1.1c7.1,0,13.9-1.5,20.2-4.4c6.3-3,11.9-7,16.7-12.2c4.8-5.2,8.6-11.5,11.3-18.8
						c2.8-7.3,4.1-15.3,4.1-23.9c0-10.2-1.5-19.3-4.6-27.2s-7.2-14.7-12.5-20.2c-5.3-5.5-11.5-9.7-18.7-12.5
						c-7.1-2.9-14.9-4.3-23.2-4.3c-6.9,0-15.9,1.2-26.9,3.7V2536z"/>
					<path d="M9879,2601.1l6.7,1.2l-23.9,75.6h-215.3v-7.6h10.7c11.4,0,19.8-3.8,25.1-11.3c2.9-4.5,4.3-14.6,4.3-30.3v-179.5
						c0-17.1-1.9-27.9-5.8-32.4c-5.3-6.1-13.2-9.2-23.6-9.2h-10.7v-7.6h126v7.6c-7.5,0-13.8,0.4-18.8,1.1c-5,0.7-9.1,1.7-12.4,3.1
						c-3.3,1.3-5.8,2.9-7.6,4.7c-1.8,1.8-3.4,3.9-4.6,6.1c-2,4.1-3.1,14.6-3.1,31.5v174.7c0,9.6,0.7,16.5,2.1,20.8
						c1.4,4.3,4.3,7.2,8.6,8.9c3.7,1.2,14.4,1.8,32.1,1.8h20.2c21.4,0,36.4-1.5,45-4.6c4.3-1.4,8.4-3.5,12.2-6.1
						c3.9-2.6,7.6-6.1,11.3-10.4c3.7-4.3,7.2-9.5,10.7-15.6C9871.8,2617.4,9875.3,2609.9,9879,2601.1z"/>
					<path d="M9982.4,2415.2V2525h60.9c9,0,16.2-0.8,21.7-2.4c5.5-1.6,9.8-4.1,13-7.3c3.2-3.3,5.4-7.4,6.6-12.5
						c1.2-5.1,2-11.1,2.4-18h7.6v96.7h-7.6c-1-8-2.2-14.6-3.5-19.9c-1.3-5.3-3.5-9.5-6.4-12.7c-3-3.2-7.1-5.4-12.4-6.7
						c-5.3-1.3-12.4-2-21.4-2h-60.9v91.8c0,6.9,0.1,12.4,0.3,16.5c0.2,4.1,1,7.2,2.4,9.3c1.4,2.1,3.7,3.5,6.7,4.1
						c3.1,0.6,7.5,0.9,13.5,0.9h47.1c8,0,14.7-0.2,20.2-0.6c5.5-0.4,10.2-1.2,14.2-2.4c4-1.2,7.5-2.9,10.6-5
						c3.1-2.1,6.3-4.8,9.8-8.1c8.2-8,16.8-20.7,26-38.2h8.3l-24.2,69.7h-214.1v-7.6h9.8c2.6,0,5.4-0.3,8.3-0.9
						c2.9-0.6,5.6-1.5,8.1-2.6c2.5-1.1,4.8-2.6,6.9-4.4c2-1.8,3.5-4,4.3-6.4c1.6-4.5,2.4-13.5,2.4-26.9v-180.5
						c0-17.7-1.7-28.6-5.2-32.7c-4.9-5.5-13.2-8.3-24.8-8.3h-9.8v-7.6h214.1v60.9h-4.9c-2-10-4.2-18-6.6-24
						c-2.3-6-5.5-10.7-9.3-13.9c-3.9-3.3-8.8-5.4-14.8-6.3c-6-0.9-13.7-1.4-23.1-1.4H9982.4z"/>
					<path d="M10322.2,2524.1l59.6,89c8.6,12.6,15.6,22.7,21.3,30.1c5.6,7.4,10.8,13.1,15.6,17c4.8,3.9,9.5,6.5,14.1,7.8
						c4.6,1.3,10,2.1,16.4,2.3v7.6h-119.3v-7.6c11.2-0.2,18.6-1.9,22.2-5.2c3.6-3.3,5.4-7.8,5.4-13.8c0-1-0.1-2-0.3-2.9
						c-0.2-0.9-0.8-2.2-1.7-4c-0.9-1.7-2.3-3.9-4.1-6.6c-1.8-2.6-4.2-6.2-7-10.7l-47.1-71.3l-58.4,74.6c-3.3,4.1-5.8,7.3-7.5,9.8
						c-1.7,2.4-3,4.5-3.8,6.1c-0.8,1.6-1.3,3.1-1.4,4.3c-0.1,1.2-0.2,2.6-0.2,4c0,4.3,1.8,7.9,5.5,10.7c3.7,2.9,10.7,4.5,21.1,4.9
						v7.6h-98.5v-7.6c6.7-0.4,13-1.7,19-4c5.9-2.2,11.6-5.2,17-9c5.4-3.8,10.8-8.5,16.1-14.1c5.3-5.6,10.8-12,16.5-19.1l65.5-82.9
						l-54.8-80.1c-7.5-11-14.3-19.9-20.3-26.8c-6-6.8-11.8-12.1-17.4-15.9c-5.6-3.8-11.3-6.4-17-8c-5.7-1.5-12-2.5-19-2.9v-7.6
						h128.5v7.6c-10.8,0.4-18.3,2.2-22.3,5.4c-4.1,3.2-6.1,6.7-6.1,10.6c0,5.1,3.3,12.4,9.8,22l42.8,63.9l49.2-62.7
						c3.1-3.9,5.4-7,7-9.3c1.6-2.3,2.9-4.3,3.7-5.8c0.8-1.5,1.3-2.9,1.5-4.1c0.2-1.2,0.3-2.6,0.3-4.3c0-5.9-2.2-9.9-6.6-11.9
						c-4.4-2-12.1-3.3-23.1-3.7v-7.6h98.5v7.6c-9.4,0.6-17,2.3-22.8,5.2c-5.8,2.9-11.4,6.6-16.7,11.3c-5.7,4.9-14.4,14.7-26,29.4
						L10322.2,2524.1z"/>
				</g>
			</g>
		</g>
		<g>
			<g>
				<path d="M711.3,3131.1v53.5h-3.8c-1.8-14.3-6-24.5-12.6-30.4c-6.6-5.9-16.3-8.9-29.1-8.9h-32v173.8c0,7.7,0.5,13.7,1.6,18.1
					c1.1,4.4,2.6,7.7,4.6,9.9c2,2.2,4.5,3.5,7.5,4.1c3,0.6,6.5,0.9,10.5,0.9h7.8v6.3h-96.3v-6.3h8c4,0,7.5-0.3,10.5-1
					c3-0.7,5.5-2.1,7.5-4.4c2-2.3,3.5-5.5,4.6-9.9c1.1-4.3,1.6-10.3,1.6-17.8v-173.8h-27.3c-6.8,0-12.9,0.5-18.1,1.6
					c-5.3,1.1-9.8,3.1-13.6,6c-3.8,2.9-6.9,6.9-9.1,12c-2.2,5.1-3.6,11.6-4.1,19.6h-6.3v-53.5H711.3z"/>
				<path d="M792.8,3236.6h105.5v-65c0-5.3-0.1-9.7-0.2-13.1c-0.2-3.4-0.6-6.2-1.3-8.4c-0.7-2.2-1.6-3.9-2.9-5.1
					c-1.3-1.2-2.9-2.5-4.9-3.6c-4.7-2.7-9.8-4-15.3-4h-8v-6.3h97.3v6.3h-8c-2.2,0-4.5,0.3-6.9,0.7c-2.4,0.5-4.7,1.2-6.8,2.3
					c-2.1,1-4,2.3-5.6,3.8c-1.7,1.5-2.8,3.3-3.5,5.3c-1.2,3.5-1.8,10.9-1.8,22.3v146.5c0,5.3,0.1,9.7,0.4,13
					c0.3,3.3,0.7,6.1,1.3,8.3c0.6,2.2,1.5,3.9,2.6,5.1c1.2,1.3,2.8,2.5,4.7,3.6c4.7,2.7,9.8,4,15.5,4h8v6.3h-97.3v-6.3h8
					c3.8,0,7.3-0.3,10.3-0.9c3-0.6,5.6-2,7.8-4.3c2.2-2.3,3.8-5.7,4.9-10.3c1.1-4.6,1.6-10.8,1.6-18.6v-69.3H792.8v69.3
					c0,5.3,0.1,9.7,0.3,13c0.2,3.3,0.6,6.1,1.3,8.3c0.7,2.2,1.6,3.9,2.9,5.1c1.3,1.3,2.9,2.5,4.9,3.6c4.7,2.7,9.8,4,15.3,4h8.3v6.3
					h-97.5v-6.3h8.3c9.2,0,15.9-2.8,20.3-8.3c2.7-3.3,4-11.9,4-25.8v-146.5c0-5.5-0.1-10-0.3-13.4c-0.2-3.4-0.6-6.2-1.3-8.3
					c-0.7-2.1-1.6-3.8-2.8-5c-1.2-1.2-2.8-2.5-4.8-3.6c-4.7-2.7-9.8-4-15.3-4h-8.3v-6.3h97.5v6.3h-8.3c-2,0-4.2,0.3-6.6,0.7
					c-2.4,0.5-4.7,1.2-6.8,2.3c-2.1,1-4,2.3-5.6,3.8c-1.7,1.5-2.8,3.3-3.5,5.3c-1.3,4-2,11.4-2,22.3V3236.6z"/>
				<path d="M1075.9,3352.2v6.3h-97.3v-6.3h8c4,0,7.5-0.3,10.6-0.9c3.1-0.6,5.6-2,7.6-4.3c2-2.3,3.5-5.7,4.6-10.3
					c1.1-4.6,1.6-10.8,1.6-18.6v-146.8c0-5.2-0.1-9.5-0.4-12.9c-0.3-3.4-0.7-6.2-1.3-8.4c-0.6-2.2-1.5-3.9-2.6-5.1
					c-1.2-1.2-2.8-2.5-4.7-3.6c-5-2.7-10.2-4-15.5-4h-8v-6.3h97.3v6.3h-8c-4,0-7.5,0.3-10.6,1c-3.1,0.7-5.6,2.1-7.6,4.4
					c-2,2.2-3.5,5.7-4.6,10.3c-1.1,4.6-1.6,10.7-1.6,18.4v146.8c0,5.3,0.1,9.7,0.2,13c0.2,3.3,0.6,6.1,1.3,8.3
					c0.7,2.2,1.6,3.9,2.9,5.1c1.3,1.3,2.9,2.5,4.9,3.6c4.7,2.7,9.8,4,15.3,4H1075.9z"/>
				<path d="M1290.9,3126.1l5.3,77.3h-5.3c-7-23.2-16.9-39.8-29.6-50c-12.8-10.2-28.1-15.3-46.1-15.3c-11.7,0-22.4,2.2-32.3,6.6
					c-9.8,4.4-18.3,11.2-25.4,20.4c-7.1,9.2-12.6,20.7-16.6,34.5c-4,13.8-6,30.2-6,49c0,15.2,1.9,28.9,5.6,41.3
					c3.7,12.3,9.3,22.9,16.5,31.6c7.3,8.8,16.1,15.5,26.6,20.3c10.5,4.8,22.6,7.1,36.3,7.1c14.3,0,27.3-3.2,39-9.5
					c11.2-5.8,23.6-18.3,37.3-37.5l5.3,3.3c-11.5,20.2-24.8,35-39.9,44.4c-15.1,9.4-33.1,14.1-54.1,14.1c-16.2,0-31-2.8-44.5-8.5
					c-13.5-5.7-25.1-13.6-34.9-23.9c-9.8-10.3-17.4-22.4-22.9-36.5c-5.5-14.1-8.3-29.5-8.3-46.4c0-22.8,5.1-43.7,15.3-62.5
					c10-19,23.9-33.7,41.8-44c18-10.5,37.5-15.8,58.5-15.8c16.5,0,32.7,4,48.5,12c4.7,2.5,8,3.8,10,3.8c3.7,0,6.7-1.5,9.1-4.5
					c2.4-3,4.1-6.8,5.1-11.3H1290.9z"/>
				<path d="M1415.7,3232.4l83.8,83.3c7,7,13.3,12.8,19,17.4c5.7,4.6,11,8.3,16,11c5,2.8,9.9,4.8,14.6,6s9.6,2,14.6,2.1v6.3h-108
					v-6.3c7.2,0,12-1.2,14.5-3.8c2.5-2.5,3.8-5.2,3.8-8c0-1.2-0.1-2.2-0.3-3.1c-0.2-0.9-0.6-2-1.4-3.1c-0.7-1.2-2-2.7-3.6-4.5
					c-1.7-1.8-3.9-4.2-6.8-7l-78.5-77.8v73.3c0,5.3,0.1,9.7,0.4,13c0.3,3.3,0.7,6.1,1.3,8.3c0.6,2.2,1.5,3.9,2.8,5.1
					c1.3,1.3,2.9,2.5,4.9,3.6c4.8,2.7,9.9,4,15.3,4h7.8v6.3h-96.8v-6.3h8c9.3,0,16.2-2.8,20.5-8.3c2.7-3.7,4-12.3,4-25.8v-146.8
					c0-5-0.1-9.2-0.3-12.6c-0.2-3.4-0.6-6.2-1.3-8.4c-0.7-2.2-1.6-4-2.8-5.4c-1.2-1.4-2.8-2.6-4.8-3.6c-5.3-2.7-10.5-4-15.5-4h-8
					v-6.3h96.8v6.3h-7.8c-4.2,0-8.5,0.9-13.1,2.8c-4.6,1.8-7.7,4.9-9.4,9.3c-1.3,3.7-2,11-2,22v69.5c0.2-0.2,1.3-1.2,3.4-3.1
					c2.1-1.9,4.4-4,7-6.4c2.6-2.3,5.1-4.7,7.5-7c2.4-2.3,4.1-3.9,5.1-4.8c12.2-11.2,22.4-20.8,30.8-28.8c8.3-8,15-14.8,20-20.4
					c5-5.6,8.6-10.3,10.8-14c2.2-3.8,3.3-6.9,3.3-9.4c0-2.7-1.2-5-3.5-6.9c-2.3-1.9-6.3-2.9-12-2.9h-5.3v-6.3h83.5v6.3
					c-3,0.2-6,0.5-9.1,0.9c-3.1,0.4-6.5,1.5-10.3,3.1c-3.8,1.7-8,4.3-12.9,7.8c-4.8,3.5-10.6,8.3-17.3,14.5
					c-1.3,1.2-4.8,4.6-10.3,10.4c-5.5,5.8-13.4,13.7-23.8,23.9L1415.7,3232.4z"/>
				<path d="M1556.5,3131.1h61.5l139,170.5v-131c0-7.7-0.5-13.8-1.6-18.3c-1.1-4.5-2.7-7.8-4.8-10c-2.1-2.2-4.6-3.5-7.6-4.1
					c-3-0.6-6.4-0.9-10.3-0.9h-8v-6.3h79.3v6.3h-8.3c-4,0-7.5,0.3-10.5,1c-3,0.7-5.5,2.2-7.5,4.5c-2,2.3-3.5,5.7-4.5,10
					c-1,4.3-1.5,10.3-1.5,17.8v191.5h-6l-149.8-183v140c0,7.8,0.5,14,1.6,18.4c1.1,4.4,2.6,7.7,4.6,9.9c2,2.2,4.5,3.5,7.5,4
					c3,0.5,6.4,0.8,10.3,0.8h8v6.3h-79v-6.3h8c4,0,7.5-0.3,10.5-1c3-0.7,5.5-2.1,7.6-4.4c2.1-2.3,3.6-5.5,4.6-9.9
					c1-4.3,1.5-10.3,1.5-17.8v-158c-3.3-4-6.1-7.2-8.4-9.5c-2.3-2.3-4.4-4.3-6.4-5.8c-2-1.5-4.2-2.8-6.5-3.8c-2.3-1-5.3-2.1-8.8-3.3
					c-3.3-1-8.3-1.5-14.8-1.5V3131.1z"/>
				<path d="M1880.6,3143.6v89.8h49.8c7.3,0,13.3-0.7,17.8-2c4.5-1.3,8-3.3,10.6-6c2.6-2.7,4.4-6.1,5.4-10.3c1-4.2,1.7-9.1,2-14.8
					h6.3v79h-6.3c-0.8-6.5-1.8-11.9-2.9-16.3c-1.1-4.3-2.8-7.8-5.3-10.4c-2.4-2.6-5.8-4.4-10.1-5.5c-4.3-1.1-10.2-1.6-17.5-1.6
					h-49.8v75c0,5.7,0.1,10.2,0.3,13.5c0.2,3.3,0.8,5.9,2,7.6c1.2,1.8,3,2.9,5.5,3.4c2.5,0.5,6.2,0.8,11,0.8h38.5
					c6.5,0,12-0.2,16.5-0.5c4.5-0.3,8.4-1,11.6-2s6.1-2.4,8.6-4.1c2.5-1.8,5.2-4,8-6.6c6.7-6.5,13.8-16.9,21.3-31.3h6.8l-19.8,57
					h-175v-6.3h8c2.2,0,4.4-0.3,6.8-0.8c2.3-0.5,4.5-1.2,6.6-2.1c2.1-0.9,4-2.1,5.6-3.6c1.7-1.5,2.8-3.3,3.5-5.3c1.3-3.7,2-11,2-22
					v-147.5c0-14.5-1.4-23.4-4.2-26.8c-4-4.5-10.8-6.8-20.3-6.8h-8v-6.3h175v49.8h-4c-1.7-8.2-3.5-14.7-5.4-19.6
					c-1.9-4.9-4.5-8.7-7.6-11.4c-3.2-2.7-7.2-4.4-12.1-5.1c-4.9-0.7-11.2-1.1-18.9-1.1H1880.6z"/>
				<path d="M2175.6,3126.1v78.5h-6.3c-2.8-21.2-9.8-37.3-20.8-48.5c-11-11.2-25-16.8-42-16.8c-5.8,0-11.2,1-16,3
					c-4.8,2-9.1,4.6-12.8,7.9c-3.7,3.3-6.5,7-8.5,11.1c-2,4.2-3,8.5-3,13c0,4.2,0.8,8.1,2.5,11.9c1.7,3.8,6.8,9.6,15.5,17.6
					c14.5,9.2,27.4,16.8,38.8,22.8c10.7,5.8,25.1,14.7,43.3,26.5c7.8,6,13.8,13.1,18,21.4c4.2,8.3,6.3,16.9,6.3,25.9
					c0,8.5-1.8,16.6-5.3,24.3c-3.5,7.7-8.4,14.4-14.6,20.1c-6.3,5.8-13.8,10.3-22.6,13.8c-8.8,3.4-18.5,5.1-29,5.1
					c-6.7,0-12.8-0.5-18.5-1.5c-1-0.2-3.6-0.9-7.9-2.1c-4.3-1.2-8.8-2.5-13.6-3.9c-4.8-1.3-9.3-2.6-13.5-3.8
					c-4.2-1.2-6.6-1.8-7.3-1.8c-2.8,0-5,0.8-6.6,2.5c-1.6,1.7-2.8,5.2-3.6,10.5h-6.3v-78h6.3c3,16,6.9,28.3,11.8,36.8
					c2.3,4,5.5,7.7,9.4,11.1c3.9,3.4,8.3,6.4,13.3,9c4.9,2.6,10.2,4.6,15.9,6c5.7,1.4,11.4,2.1,17.3,2.1c7,0,13.3-1,18.9-3
					c5.6-2,10.3-4.7,14.3-8.1c3.9-3.4,6.9-7.4,9-11.9c2.1-4.5,3.1-9.3,3.1-14.3c0-5.7-1.5-11.3-4.6-17c-3.1-5.7-8.3-11.3-15.6-16.8
					c-7.2-4.3-15.7-9.4-25.5-15.3c-18.8-10.8-35.6-21.3-50.3-31.3c-8.2-6.5-14.4-13.6-18.6-21.4c-4.3-7.8-6.4-16.4-6.4-25.9
					c0-8,1.7-15.6,5-22.9c3.3-7.3,8-13.6,13.9-19.1c5.9-5.5,13-9.8,21.1-13c8.2-3.2,17-4.8,26.5-4.8c12,0,24.8,2.9,38.3,8.8
					c3.2,1.3,5.8,2.4,8,3.3c2.2,0.8,3.9,1.2,5.2,1c3,0,5.4-0.8,7.3-2.5c1.8-1.7,3.3-5.2,4.3-10.5H2175.6z"/>
				<path d="M2366.4,3126.1v78.5h-6.3c-2.8-21.2-9.8-37.3-20.8-48.5c-11-11.2-25-16.8-42-16.8c-5.8,0-11.2,1-16,3
					c-4.8,2-9.1,4.6-12.8,7.9c-3.7,3.3-6.5,7-8.5,11.1c-2,4.2-3,8.5-3,13c0,4.2,0.8,8.1,2.5,11.9c1.7,3.8,6.8,9.6,15.5,17.6
					c14.5,9.2,27.4,16.8,38.8,22.8c10.7,5.8,25.1,14.7,43.3,26.5c7.8,6,13.8,13.1,18,21.4c4.2,8.3,6.3,16.9,6.3,25.9
					c0,8.5-1.8,16.6-5.3,24.3c-3.5,7.7-8.4,14.4-14.6,20.1c-6.3,5.8-13.8,10.3-22.6,13.8c-8.8,3.4-18.5,5.1-29,5.1
					c-6.7,0-12.8-0.5-18.5-1.5c-1-0.2-3.6-0.9-7.9-2.1c-4.3-1.2-8.8-2.5-13.6-3.9c-4.8-1.3-9.3-2.6-13.5-3.8
					c-4.2-1.2-6.6-1.8-7.3-1.8c-2.8,0-5,0.8-6.6,2.5c-1.6,1.7-2.8,5.2-3.6,10.5h-6.3v-78h6.3c3,16,6.9,28.3,11.8,36.8
					c2.3,4,5.5,7.7,9.4,11.1c3.9,3.4,8.3,6.4,13.3,9c4.9,2.6,10.2,4.6,15.9,6c5.7,1.4,11.4,2.1,17.3,2.1c7,0,13.3-1,18.9-3
					c5.6-2,10.3-4.7,14.3-8.1c3.9-3.4,6.9-7.4,9-11.9c2.1-4.5,3.1-9.3,3.1-14.3c0-5.7-1.5-11.3-4.6-17c-3.1-5.7-8.3-11.3-15.6-16.8
					c-7.2-4.3-15.7-9.4-25.5-15.3c-18.8-10.8-35.6-21.3-50.3-31.3c-8.2-6.5-14.4-13.6-18.6-21.4c-4.3-7.8-6.4-16.4-6.4-25.9
					c0-8,1.7-15.6,5-22.9c3.3-7.3,8-13.6,13.9-19.1c5.9-5.5,13-9.8,21.1-13c8.2-3.2,17-4.8,26.5-4.8c12,0,24.8,2.9,38.3,8.8
					c3.2,1.3,5.8,2.4,8,3.3c2.2,0.8,3.9,1.2,5.2,1c3,0,5.4-0.8,7.3-2.5c1.8-1.7,3.3-5.2,4.3-10.5H2366.4z"/>
			</g>
			<g>
				<path d="M850.3,3478c14.5,0,28.3,3,41.5,9c13.2,6,24.8,14.3,34.8,24.8c10,10.5,18,22.9,23.9,37.1c5.9,14.3,8.9,29.7,8.9,46.4
					c0,17.2-3,33.1-8.9,47.8c-5.9,14.7-13.9,27.4-24,38.1c-10.1,10.8-21.9,19.2-35.5,25.3c-13.6,6.1-28,9.1-43.4,9.1
					c-15.5,0-30-2.9-43.5-8.8s-25.2-14-35.1-24.6c-9.9-10.6-17.8-23.2-23.5-37.9c-5.8-14.7-8.6-30.8-8.6-48.5
					c0-16.3,2.9-31.7,8.6-46c5.8-14.3,13.7-26.8,23.8-37.4c10.1-10.6,22-19,35.9-25.1C818.8,3481.1,833.9,3478,850.3,3478z
					 M847,3490.3c-11.5,0-21.7,2.5-30.6,7.4c-8.9,4.9-16.4,11.9-22.5,21c-6.1,9.1-10.7,20.1-13.9,33c-3.2,12.9-4.8,27.5-4.8,43.6
					c0,16,1.5,30.6,4.6,43.9c3.1,13.3,7.7,24.7,13.8,34.3c6.1,9.6,13.6,17,22.6,22.3c9,5.3,19.3,7.9,31,7.9c10.5,0,20.2-2,29.1-6
					c8.9-4,16.7-10.2,23.4-18.6c6.7-8.4,11.9-19.2,15.6-32.3c3.8-13.1,5.6-28.7,5.6-46.9c0-17.2-1.5-32.5-4.6-46.1
					c-3.1-13.6-7.8-25.1-14-34.5c-6.3-9.4-14-16.6-23.3-21.5C869.9,3492.8,859.2,3490.3,847,3490.3z"/>
				<path d="M1042.8,3495.5v89.3h41.3c4.8,0,9-0.5,12.4-1.4c3.4-0.9,6.3-2.5,8.6-4.9c2.3-2.3,4.2-5.5,5.5-9.5
					c1.3-4,2.4-9.1,3.3-15.3h6.3v76.8h-6.3c-0.2-5.7-0.8-10.5-1.8-14.5c-1-4-2.6-7.3-4.9-9.9c-2.3-2.6-5.3-4.5-9-5.6
					c-3.8-1.2-8.5-1.8-14.1-1.8h-41.3v71.3c0,5.3,0.1,9.7,0.3,13c0.2,3.3,0.6,6.1,1.3,8.3c0.7,2.2,1.6,3.9,2.9,5.1
					c1.3,1.2,2.9,2.5,4.9,3.6c4.7,2.7,9.8,4,15.3,4h8.3v6.3H978v-6.3h8c4,0,7.5-0.3,10.6-0.9c3.1-0.6,5.6-2,7.6-4.3
					c2-2.2,3.5-5.7,4.6-10.3c1.1-4.6,1.6-10.8,1.6-18.6v-146.8c0-5.2-0.1-9.5-0.4-12.9c-0.3-3.4-0.7-6.2-1.3-8.4
					c-0.6-2.2-1.5-3.9-2.6-5.3c-1.2-1.3-2.8-2.5-4.7-3.5c-2.5-1.3-5-2.3-7.5-3c-2.5-0.7-5.2-1-8-1h-8v-6.3h169v50h-3.8
					c-2.2-8.2-4.6-14.7-7.4-19.6c-2.8-4.9-6.1-8.7-10-11.4c-3.9-2.7-8.5-4.4-13.9-5.3c-5.3-0.8-11.8-1.2-19.3-1.2H1042.8z"/>
				<path d="M1283.6,3483h121.8v6.5l-75.8,225.6h-18.8l68-204.5h-62.5c-7.7,0-14.1,0.7-19.4,2c-5.3,1.3-9.8,3.2-13.5,5.6
					c-3.8,2.4-6.9,5.4-9.5,8.9c-2.6,3.5-5,7.4-7.4,11.8l-4.8-1.8L1283.6,3483z"/>
				<path d="M1646.7,3710.3l-87.8-191v151.8c0,7.8,0.5,14,1.6,18.4c1.1,4.4,2.7,7.7,4.8,9.9c2.1,2.2,4.6,3.5,7.6,4
					c3,0.5,6.4,0.7,10.3,0.7h8v6.3h-79v-6.3h8c4,0,7.5-0.3,10.5-0.9c3-0.6,5.5-2,7.5-4.3c2-2.2,3.5-5.6,4.5-10
					c1-4.4,1.5-10.4,1.5-17.9v-148.5c0-5.3-0.3-10-0.8-14.1c-0.5-4.1-1.8-7.5-3.9-10.4c-2.1-2.8-5.3-5-9.5-6.5s-10.2-2.3-17.9-2.3
					v-6.3h64.3l82.5,177.8l81-177.8h64.3v6.3h-7.8c-4.2,0-7.8,0.3-10.8,1c-3,0.7-5.5,2.1-7.5,4.4c-2,2.3-3.5,5.6-4.5,10
					c-1,4.4-1.5,10.4-1.5,17.9v148.5c0,7.8,0.5,14,1.6,18.4c1.1,4.4,2.7,7.7,4.7,9.9c2.1,2.2,4.6,3.5,7.6,4c3,0.5,6.4,0.7,10.3,0.7
					h7.8v6.3h-96.5v-6.3h8c4,0,7.5-0.3,10.5-1c3-0.7,5.5-2.1,7.6-4.4c2.1-2.3,3.6-5.5,4.6-9.9c1-4.3,1.5-10.3,1.5-17.8v-151.8
					l-87.5,191H1646.7z"/>
				<path d="M1951.7,3710.3l-87.8-191v151.8c0,7.8,0.5,14,1.6,18.4c1.1,4.4,2.7,7.7,4.8,9.9c2.1,2.2,4.6,3.5,7.6,4
					c3,0.5,6.4,0.7,10.3,0.7h8v6.3h-79v-6.3h8c4,0,7.5-0.3,10.5-0.9c3-0.6,5.5-2,7.5-4.3c2-2.2,3.5-5.6,4.5-10
					c1-4.4,1.5-10.4,1.5-17.9v-148.5c0-5.3-0.3-10-0.8-14.1c-0.5-4.1-1.8-7.5-3.9-10.4c-2.1-2.8-5.3-5-9.5-6.5
					c-4.3-1.5-10.2-2.3-17.9-2.3v-6.3h64.3l82.5,177.8l81-177.8h64.3v6.3h-7.8c-4.2,0-7.8,0.3-10.8,1c-3,0.7-5.5,2.1-7.5,4.4
					c-2,2.3-3.5,5.6-4.5,10c-1,4.4-1.5,10.4-1.5,17.9v148.5c0,7.8,0.5,14,1.6,18.4c1.1,4.4,2.7,7.7,4.7,9.9c2.1,2.2,4.6,3.5,7.6,4
					c3,0.5,6.4,0.7,10.3,0.7h7.8v6.3h-96.5v-6.3h8c4,0,7.5-0.3,10.5-1c3-0.7,5.5-2.1,7.6-4.4c2.1-2.3,3.6-5.5,4.6-9.9
					c1-4.3,1.5-10.3,1.5-17.8v-151.8l-87.5,191H1951.7z"/>
			</g>
			<g>
				<path d="M1269.5,3818.6v6.3c-4.5,0-8.2,0.4-11.1,1.2c-2.9,0.8-5.6,2.7-8.1,5.6c-2.5,2.9-5,7.3-7.5,13
					c-2.5,5.8-5.4,13.5-8.8,23.1l-63.3,183.3h-6.8l-51.8-145.3l-51.3,145.3h-6.3l-67.5-188.8c-2.5-7-4.5-12.5-6-16.6
					c-1.5-4.1-2.7-6.8-3.5-8.1c-2.3-4.3-5.4-7.5-9.1-9.6c-3.8-2.1-9-3.1-15.6-3.1v-6.3h84v6.3h-4c-5.8,0-10.3,1.3-13.5,4
					c-3.2,2.7-4.7,5.9-4.7,9.8c0,4,2.5,13,7.5,27l44.8,127.5l37.5-108.5l-12-34.3c-1.8-4.2-3.7-7.8-5.5-11c-1.8-3.2-3.9-5.8-6.3-8
					c-2.3-2.2-5.1-3.8-8.3-4.9c-3.2-1.1-7-1.6-11.5-1.6v-6.3h88.3v6.3h-6c-6.3,0-10.9,1.3-13.8,4c-2.8,2.7-4.3,6.3-4.3,11
					c0,5.7,2.5,15.6,7.5,29.8l43.5,123.5l43.3-125.3c2.3-7,4.2-12.8,5.5-17.5c1.3-4.7,2-8.4,2-11.3c0-5.3-2.3-9-7-11.1
					c-4.7-2.1-10.8-3.1-18.3-3.1v-6.3H1269.5z"/>
				<path d="M1378,4039.7v6.3h-97.3v-6.3h8c4,0,7.5-0.3,10.6-0.9c3.1-0.6,5.6-2,7.6-4.3c2-2.3,3.5-5.7,4.6-10.3
					c1.1-4.6,1.6-10.8,1.6-18.6v-146.8c0-5.2-0.1-9.5-0.4-12.9c-0.3-3.4-0.7-6.2-1.3-8.4c-0.6-2.2-1.5-3.9-2.6-5.1
					c-1.2-1.2-2.8-2.5-4.7-3.6c-5-2.7-10.2-4-15.5-4h-8v-6.3h97.3v6.3h-8c-4,0-7.5,0.3-10.6,1c-3.1,0.7-5.6,2.1-7.6,4.4
					c-2,2.2-3.5,5.7-4.6,10.3c-1.1,4.6-1.6,10.7-1.6,18.4v146.8c0,5.3,0.1,9.7,0.2,13c0.2,3.3,0.6,6.1,1.3,8.3
					c0.7,2.2,1.6,3.9,2.9,5.1c1.3,1.3,2.9,2.5,4.9,3.6c4.7,2.7,9.8,4,15.3,4H1378z"/>
				<path d="M1585.1,3818.6v53.5h-3.8c-1.8-14.3-6-24.5-12.6-30.4c-6.6-5.9-16.3-8.9-29.1-8.9h-32v173.8c0,7.7,0.5,13.7,1.6,18.1
					c1.1,4.4,2.6,7.7,4.6,9.9c2,2.2,4.5,3.5,7.5,4.1c3,0.6,6.5,0.9,10.5,0.9h7.8v6.3h-96.3v-6.3h8c4,0,7.5-0.3,10.5-1
					c3-0.7,5.5-2.1,7.5-4.4c2-2.3,3.5-5.5,4.6-9.9c1.1-4.3,1.6-10.3,1.6-17.8v-173.8h-27.3c-6.8,0-12.9,0.5-18.1,1.6
					c-5.3,1.1-9.8,3.1-13.6,6c-3.8,2.9-6.9,6.9-9.1,12c-2.2,5.1-3.6,11.6-4.1,19.6h-6.3v-53.5H1585.1z"/>
				<path d="M1666.6,3924.1h105.5v-65c0-5.3-0.1-9.7-0.2-13.1c-0.2-3.4-0.6-6.2-1.3-8.4c-0.7-2.2-1.6-3.9-2.9-5.1
					c-1.3-1.2-2.9-2.5-4.9-3.6c-4.7-2.7-9.8-4-15.3-4h-8v-6.3h97.3v6.3h-8c-2.2,0-4.5,0.2-6.9,0.7c-2.4,0.5-4.7,1.2-6.8,2.3
					c-2.1,1-4,2.3-5.6,3.8c-1.7,1.5-2.8,3.3-3.5,5.3c-1.2,3.5-1.8,10.9-1.8,22.3v146.5c0,5.3,0.1,9.7,0.4,13
					c0.3,3.3,0.7,6.1,1.3,8.3c0.6,2.2,1.5,3.9,2.6,5.1c1.2,1.3,2.8,2.5,4.7,3.6c4.7,2.7,9.8,4,15.5,4h8v6.3h-97.3v-6.3h8
					c3.8,0,7.3-0.3,10.3-0.9c3-0.6,5.6-2,7.8-4.3c2.2-2.3,3.8-5.7,4.9-10.3c1.1-4.6,1.6-10.8,1.6-18.6v-69.3h-105.5v69.3
					c0,5.3,0.1,9.7,0.3,13c0.2,3.3,0.6,6.1,1.3,8.3c0.7,2.2,1.6,3.9,2.9,5.1c1.3,1.3,2.9,2.5,4.9,3.6c4.7,2.7,9.8,4,15.3,4h8.3v6.3
					h-97.5v-6.3h8.3c9.2,0,15.9-2.8,20.3-8.3c2.7-3.3,4-11.9,4-25.8v-146.5c0-5.5-0.1-10-0.3-13.4c-0.2-3.4-0.6-6.2-1.3-8.3
					c-0.7-2.1-1.6-3.8-2.8-5c-1.2-1.2-2.8-2.5-4.8-3.6c-4.7-2.7-9.8-4-15.3-4h-8.3v-6.3h97.5v6.3h-8.3c-2,0-4.2,0.2-6.6,0.7
					c-2.4,0.5-4.7,1.2-6.8,2.3c-2.1,1-4,2.3-5.6,3.8c-1.7,1.5-2.8,3.3-3.5,5.3c-1.3,4-2,11.4-2,22.3V3924.1z"/>
			</g>
			<g>
				<path d="M732.7,4382.8l-87.8-191v151.8c0,7.8,0.5,14,1.6,18.4c1.1,4.4,2.7,7.7,4.8,9.9c2.1,2.2,4.6,3.5,7.6,4
					c3,0.5,6.4,0.8,10.3,0.8h8v6.3h-79v-6.3h8c4,0,7.5-0.3,10.5-0.9c3-0.6,5.5-2,7.5-4.3c2-2.3,3.5-5.6,4.5-10
					c1-4.4,1.5-10.4,1.5-17.9V4195c0-5.3-0.3-10-0.8-14.1c-0.5-4.1-1.8-7.5-3.9-10.4c-2.1-2.8-5.3-5-9.5-6.5
					c-4.3-1.5-10.2-2.2-17.9-2.2v-6.3h64.3l82.5,177.8l81-177.8h64.3v6.3h-7.8c-4.2,0-7.8,0.3-10.8,1c-3,0.7-5.5,2.1-7.5,4.4
					c-2,2.2-3.5,5.6-4.5,10c-1,4.4-1.5,10.4-1.5,17.9v148.5c0,7.8,0.5,14,1.6,18.4c1.1,4.4,2.7,7.7,4.7,9.9c2.1,2.2,4.6,3.5,7.6,4
					c3,0.5,6.4,0.8,10.3,0.8h7.8v6.3h-96.5v-6.3h8c4,0,7.5-0.3,10.5-1c3-0.7,5.5-2.1,7.6-4.4c2.1-2.3,3.6-5.5,4.6-9.9
					c1-4.3,1.5-10.3,1.5-17.8v-151.8l-87.5,191H732.7z"/>
				<path d="M1054.5,4306.7h-88l-15.5,35.8c-3.7,8.8-5.5,15.4-5.5,19.8c0,1.8,0.3,3.5,0.9,5c0.6,1.5,1.8,2.9,3.8,4.1
					c1.9,1.2,4.6,2.3,8,3.3c3.4,0.9,8,1.5,13.6,1.9v6.3h-71.5v-6.3c5.7-0.8,10.3-2.1,13.8-3.8c3.5-1.7,6.5-4,9-6.9
					c2.5-2.9,4.8-6.7,6.9-11.4c2.1-4.7,4.6-10.4,7.6-17.3l80-186.8h5.8l79,188.8c3.2,7.8,6.1,14.1,8.9,18.9
					c2.8,4.8,5.6,8.5,8.5,11.1c2.9,2.7,6.1,4.5,9.5,5.5c3.4,1,7.5,1.6,12.4,1.8v6.3h-89.8v-6.3c9-0.3,15.1-1.8,18.4-4.4
					c3.3-2.6,4.9-5.7,4.9-9.4c-0.2-4.8-2.4-12.7-6.8-23.5L1054.5,4306.7z M1049.8,4294.2l-38.5-91.8l-39.5,91.8H1049.8z"/>
				<path d="M1305.8,4155.5v53.5h-3.8c-1.8-14.3-6-24.5-12.6-30.4c-6.6-5.9-16.3-8.9-29.1-8.9h-32v173.8c0,7.7,0.5,13.7,1.6,18.1
					c1.1,4.4,2.6,7.7,4.6,9.9c2,2.2,4.5,3.5,7.5,4.1c3,0.6,6.5,0.9,10.5,0.9h7.8v6.3h-96.3v-6.3h8c4,0,7.5-0.3,10.5-1
					c3-0.7,5.5-2.1,7.5-4.4c2-2.3,3.5-5.5,4.6-9.9c1.1-4.3,1.6-10.3,1.6-17.8v-173.8h-27.3c-6.8,0-12.9,0.5-18.1,1.6
					c-5.3,1.1-9.8,3.1-13.6,6c-3.8,2.9-6.9,6.9-9.1,12c-2.2,5.1-3.6,11.6-4.1,19.6h-6.3v-53.5H1305.8z"/>
				<path d="M1388.6,4168v89.8h49.8c7.3,0,13.3-0.7,17.8-2c4.5-1.3,8-3.3,10.6-6c2.6-2.7,4.4-6.1,5.4-10.3c1-4.2,1.7-9.1,2-14.8h6.3
					v79h-6.3c-0.8-6.5-1.8-11.9-2.9-16.3c-1.1-4.3-2.8-7.8-5.3-10.4c-2.4-2.6-5.8-4.4-10.1-5.5c-4.3-1.1-10.2-1.6-17.5-1.6h-49.8v75
					c0,5.7,0.1,10.2,0.3,13.5c0.2,3.3,0.8,5.9,2,7.6c1.2,1.8,3,2.9,5.5,3.4c2.5,0.5,6.2,0.8,11,0.8h38.5c6.5,0,12-0.2,16.5-0.5
					c4.5-0.3,8.4-1,11.6-2c3.3-1,6.1-2.4,8.6-4.1c2.5-1.8,5.2-4,8-6.6c6.7-6.5,13.8-16.9,21.3-31.3h6.8l-19.8,57h-175v-6.3h8
					c2.2,0,4.4-0.2,6.8-0.8c2.3-0.5,4.5-1.2,6.6-2.1c2.1-0.9,4-2.1,5.6-3.6c1.7-1.5,2.8-3.3,3.5-5.3c1.3-3.7,2-11,2-22v-147.5
					c0-14.5-1.4-23.4-4.2-26.8c-4-4.5-10.8-6.8-20.3-6.8h-8v-6.3h175v49.8h-4c-1.7-8.2-3.5-14.7-5.4-19.6c-1.9-4.9-4.5-8.7-7.6-11.4
					c-3.2-2.7-7.2-4.4-12.1-5.1c-4.9-0.7-11.2-1.1-18.9-1.1H1388.6z"/>
				<path d="M1758.2,4382.8h-60.5l-77-106.3c-2.8,0.2-5.4,0.3-7.6,0.4c-2.3,0.1-4.3,0.1-6.1,0.1c-1.5,0-3.1,0-4.7-0.1
					c-1.7-0.1-3.4-0.2-5.3-0.4v66c0,8,0.5,14.3,1.6,18.9c1.1,4.6,2.7,8,4.7,10.3c2.1,2.2,4.6,3.6,7.5,4.1c2.9,0.5,6.2,0.8,9.9,0.8h9
					v6.3h-97.5v-6.3h8.8c9.3,0,16.2-3.1,20.5-9.3c2.3-3.7,3.5-11.9,3.5-24.8v-146.8c0-14-1.6-22.8-4.8-26.5
					c-4.3-5-10.8-7.5-19.3-7.5h-8.8v-6.3h82.8c12.2,0,22.7,0.5,31.5,1.4c8.8,0.9,16.1,2.3,21.8,4.1c5.7,1.8,11,4.4,16,7.6
					c5,3.3,9.4,7.2,13.1,11.8c3.8,4.6,6.7,9.7,8.9,15.4c2.2,5.7,3.3,11.8,3.3,18.3c0,14.2-4.5,26.3-13.5,36.5
					c-9,10.2-23.1,17.4-42.3,21.8l46.8,65c5.5,7.5,10.4,13.7,14.6,18.5c4.3,4.8,8.5,8.7,12.8,11.5c4.3,2.8,8.8,4.9,13.5,6.3
					c4.8,1.3,10.4,2.3,16.9,3V4382.8z M1596.9,4266c2.2,0,4,0,5.6,0.1c1.6,0.1,2.9,0.1,3.9,0.1c10.8,0,20.3-1.2,28.5-3.8
					c8.2-2.5,15-6,20.5-10.5c5.5-4.5,9.6-9.8,12.4-15.9c2.8-6.1,4.1-12.7,4.1-19.9c0-7-1.2-13.5-3.5-19.4c-2.3-5.9-5.7-11-10-15.3
					c-4.3-4.3-9.5-7.5-15.5-9.9c-6-2.3-12.6-3.5-19.8-3.5c-6.8,0-15.6,1.1-26.3,3.3V4266z"/>
				<path d="M1861,4376.5v6.3h-97.3v-6.3h8c4,0,7.5-0.3,10.6-0.9c3.1-0.6,5.6-2,7.6-4.3c2-2.3,3.5-5.7,4.6-10.3
					c1.1-4.6,1.6-10.8,1.6-18.6v-146.8c0-5.2-0.1-9.5-0.4-12.9c-0.3-3.4-0.7-6.2-1.3-8.4c-0.6-2.2-1.5-3.9-2.6-5.1
					c-1.2-1.2-2.8-2.5-4.7-3.6c-5-2.7-10.2-4-15.5-4h-8v-6.3h97.3v6.3h-8c-4,0-7.5,0.3-10.6,1c-3.1,0.7-5.6,2.1-7.6,4.4
					c-2,2.2-3.5,5.7-4.6,10.3c-1.1,4.6-1.6,10.7-1.6,18.4v146.8c0,5.3,0.1,9.7,0.2,13c0.2,3.3,0.6,6.1,1.3,8.3
					c0.7,2.2,1.6,3.9,2.9,5.1c1.3,1.3,2.9,2.5,4.9,3.6c4.7,2.7,9.8,4,15.3,4H1861z"/>
				<path d="M2026.5,4306.7h-88l-15.5,35.8c-3.7,8.8-5.5,15.4-5.5,19.8c0,1.8,0.3,3.5,0.9,5c0.6,1.5,1.8,2.9,3.8,4.1
					c1.9,1.2,4.6,2.3,8,3.3c3.4,0.9,8,1.5,13.6,1.9v6.3h-71.5v-6.3c5.7-0.8,10.3-2.1,13.8-3.8c3.5-1.7,6.5-4,9-6.9
					c2.5-2.9,4.8-6.7,6.9-11.4c2.1-4.7,4.6-10.4,7.6-17.3l80-186.8h5.8l79,188.8c3.2,7.8,6.1,14.1,8.9,18.9
					c2.8,4.8,5.6,8.5,8.5,11.1c2.9,2.7,6.1,4.5,9.5,5.5c3.4,1,7.5,1.6,12.4,1.8v6.3h-89.8v-6.3c9-0.3,15.1-1.8,18.4-4.4
					c3.3-2.6,4.9-5.7,4.9-9.4c-0.2-4.8-2.4-12.7-6.8-23.5L2026.5,4306.7z M2021.8,4294.2l-38.5-91.8l-39.5,91.8H2021.8z"/>
				<path d="M2314.1,4320l5.5,1l-19.5,61.8h-176v-6.3h8.8c9.3,0,16.2-3.1,20.5-9.3c2.3-3.7,3.5-11.9,3.5-24.8v-146.8
					c0-14-1.6-22.8-4.7-26.5c-4.3-5-10.8-7.5-19.3-7.5h-8.8v-6.3h103v6.3c-6.2,0-11.3,0.3-15.4,0.9c-4.1,0.6-7.5,1.4-10.1,2.5
					c-2.7,1.1-4.7,2.4-6.3,3.9c-1.5,1.5-2.8,3.2-3.8,5c-1.7,3.3-2.5,11.9-2.5,25.8v142.8c0,7.8,0.6,13.5,1.7,17
					c1.2,3.5,3.5,5.9,7,7.3c3,1,11.8,1.5,26.3,1.5h16.5c17.5,0,29.8-1.3,36.8-3.8c3.5-1.2,6.8-2.8,10-5c3.2-2.2,6.3-5,9.3-8.5
					c3-3.5,5.9-7.8,8.8-12.8C2308.2,4333.2,2311.1,4327.2,2314.1,4320z"/>
			</g>
			<g>
				<path d="M910.8,4489.9v53.5H907c-1.8-14.3-6-24.5-12.6-30.4c-6.6-5.9-16.3-8.9-29.1-8.9h-32v173.8c0,7.7,0.5,13.7,1.6,18.1
					c1.1,4.4,2.6,7.7,4.6,9.9c2,2.2,4.5,3.5,7.5,4.1c3,0.6,6.5,0.9,10.5,0.9h7.8v6.3H769v-6.3h8c4,0,7.5-0.3,10.5-1
					c3-0.7,5.5-2.1,7.5-4.4c2-2.3,3.5-5.5,4.6-9.9c1.1-4.3,1.6-10.3,1.6-17.8v-173.8H774c-6.8,0-12.9,0.5-18.1,1.6
					c-5.3,1.1-9.8,3.1-13.6,6c-3.8,2.9-6.9,6.9-9.1,12c-2.2,5.1-3.6,11.6-4.1,19.6h-6.3v-53.5H910.8z"/>
				<path d="M1153.6,4717.2h-60.5l-77-106.3c-2.8,0.2-5.4,0.3-7.6,0.4c-2.3,0.1-4.3,0.1-6.1,0.1c-1.5,0-3.1,0-4.7-0.1
					c-1.7-0.1-3.4-0.2-5.3-0.4v66c0,8,0.5,14.3,1.6,18.9c1.1,4.6,2.7,8,4.7,10.3c2.1,2.3,4.6,3.6,7.5,4.1c2.9,0.5,6.2,0.7,9.9,0.7h9
					v6.3h-97.5v-6.3h8.8c9.3,0,16.2-3.1,20.5-9.3c2.3-3.7,3.5-11.9,3.5-24.8v-146.8c0-14-1.6-22.8-4.8-26.5
					c-4.3-5-10.8-7.5-19.3-7.5h-8.8v-6.3h82.8c12.2,0,22.7,0.5,31.5,1.4c8.8,0.9,16.1,2.3,21.8,4.1c5.7,1.8,11,4.4,16,7.6
					c5,3.3,9.4,7.2,13.1,11.8c3.8,4.6,6.7,9.7,8.9,15.4c2.2,5.7,3.3,11.8,3.3,18.3c0,14.2-4.5,26.3-13.5,36.5
					c-9,10.2-23.1,17.4-42.3,21.8l46.8,65c5.5,7.5,10.4,13.7,14.6,18.5c4.3,4.8,8.5,8.7,12.8,11.5c4.3,2.8,8.8,4.9,13.5,6.3
					c4.8,1.3,10.4,2.3,16.9,3V4717.2z M992.3,4600.4c2.2,0,4,0,5.6,0.1c1.6,0.1,2.9,0.1,3.9,0.1c10.8,0,20.3-1.2,28.5-3.8
					c8.2-2.5,15-6,20.5-10.5c5.5-4.5,9.6-9.8,12.4-15.9c2.8-6.1,4.1-12.7,4.1-19.9c0-7-1.2-13.5-3.5-19.4c-2.3-5.9-5.7-11-10-15.3
					c-4.3-4.3-9.5-7.5-15.5-9.9c-6-2.3-12.6-3.5-19.8-3.5c-6.8,0-15.6,1.1-26.3,3.3V4600.4z"/>
				<path d="M1256.4,4710.9v6.3h-97.3v-6.3h8c4,0,7.5-0.3,10.6-0.9c3.1-0.6,5.6-2,7.6-4.3c2-2.2,3.5-5.7,4.6-10.3
					c1.1-4.6,1.6-10.8,1.6-18.6v-146.8c0-5.2-0.1-9.5-0.4-12.9c-0.3-3.4-0.7-6.2-1.3-8.4c-0.6-2.2-1.5-3.9-2.6-5.1
					c-1.2-1.3-2.8-2.5-4.7-3.6c-5-2.7-10.2-4-15.5-4h-8v-6.3h97.3v6.3h-8c-4,0-7.5,0.3-10.6,1c-3.1,0.7-5.6,2.1-7.6,4.4
					c-2,2.3-3.5,5.7-4.6,10.3c-1.1,4.6-1.6,10.7-1.6,18.4v146.8c0,5.3,0.1,9.7,0.2,13c0.2,3.3,0.6,6.1,1.3,8.3
					c0.7,2.2,1.6,3.9,2.9,5.1c1.3,1.2,2.9,2.5,4.9,3.6c4.7,2.7,9.8,4,15.3,4H1256.4z"/>
				<path d="M1335.1,4610.9v66c0,14.5,1.6,23.4,4.8,26.8c4.3,4.8,10.8,7.3,19.3,7.3h8.8v6.3h-97.3v-6.3h8.5c9.5,0,16.3-3.1,20.5-9.3
					c2.3-3.7,3.5-11.9,3.5-24.8v-146.8c0-14.2-1.5-23-4.5-26.5c-4.5-5-11-7.5-19.5-7.5h-8.5v-6.3h83.3c20,0,36,2.2,48,6.5
					c5.8,2,11.3,4.8,16.4,8.4c5.1,3.6,9.5,7.8,13.3,12.8c3.8,4.9,6.7,10.3,8.9,16.3c2.2,5.9,3.3,12.3,3.3,19.1
					c0,9.2-1.6,17.6-4.8,25.3c-3.2,7.7-7.8,14.3-13.8,19.8c-6,5.5-13.3,9.8-22,12.9c-8.7,3.1-18.6,4.6-29.8,4.6
					C1362.6,4615.4,1349.8,4613.9,1335.1,4610.9z M1335.1,4601.1c6,1.2,11.3,2,15.8,2.6c4.5,0.6,8.4,0.9,11.8,0.9
					c5.8,0,11.3-1.2,16.5-3.6c5.2-2.4,9.7-5.8,13.6-10c3.9-4.3,7-9.4,9.3-15.4c2.2-6,3.4-12.5,3.4-19.5c0-8.3-1.3-15.8-3.8-22.3
					c-2.5-6.5-5.9-12-10.3-16.5c-4.3-4.5-9.4-7.9-15.3-10.3c-5.8-2.3-12.2-3.5-19-3.5c-5.7,0-13,1-22,3V4601.1z"/>
				<path d="M1652.5,4654.4l5.5,1l-19.5,61.8h-176v-6.3h8.8c9.3,0,16.2-3.1,20.5-9.3c2.3-3.7,3.5-11.9,3.5-24.8v-146.8
					c0-14-1.6-22.8-4.7-26.5c-4.3-5-10.8-7.5-19.3-7.5h-8.8v-6.3h103v6.3c-6.2,0-11.3,0.3-15.4,0.9c-4.1,0.6-7.5,1.4-10.1,2.5
					c-2.7,1.1-4.7,2.4-6.3,3.9c-1.5,1.5-2.8,3.2-3.8,5c-1.7,3.3-2.5,11.9-2.5,25.8v142.8c0,7.8,0.6,13.5,1.7,17
					c1.2,3.5,3.5,5.9,7,7.3c3,1,11.8,1.5,26.3,1.5h16.5c17.5,0,29.8-1.2,36.8-3.8c3.5-1.2,6.8-2.8,10-5c3.2-2.2,6.3-5,9.3-8.5
					c3-3.5,5.9-7.8,8.8-12.8C1646.5,4667.7,1649.5,4661.6,1652.5,4654.4z"/>
				<path d="M1737,4502.4v89.8h49.8c7.3,0,13.3-0.7,17.8-2c4.5-1.3,8-3.3,10.6-6c2.6-2.7,4.4-6.1,5.4-10.3c1-4.2,1.7-9.1,2-14.8h6.3
					v79h-6.3c-0.8-6.5-1.8-11.9-2.9-16.3c-1.1-4.3-2.8-7.8-5.3-10.4c-2.4-2.6-5.8-4.4-10.1-5.5c-4.3-1.1-10.2-1.6-17.5-1.6H1737v75
					c0,5.7,0.1,10.2,0.3,13.5c0.2,3.3,0.8,5.9,2,7.6c1.2,1.8,3,2.9,5.5,3.4c2.5,0.5,6.2,0.7,11,0.7h38.5c6.5,0,12-0.2,16.5-0.5
					c4.5-0.3,8.4-1,11.6-2c3.3-1,6.1-2.4,8.6-4.1c2.5-1.8,5.2-4,8-6.6c6.7-6.5,13.8-16.9,21.3-31.3h6.8l-19.8,57h-175v-6.3h8
					c2.2,0,4.4-0.2,6.8-0.7c2.3-0.5,4.5-1.2,6.6-2.1c2.1-0.9,4-2.1,5.6-3.6c1.7-1.5,2.8-3.3,3.5-5.3c1.3-3.7,2-11,2-22v-147.5
					c0-14.5-1.4-23.4-4.2-26.8c-4-4.5-10.8-6.8-20.3-6.8h-8v-6.3h175v49.8h-4c-1.7-8.2-3.5-14.7-5.4-19.6c-1.9-4.9-4.5-8.7-7.6-11.4
					c-3.2-2.7-7.2-4.4-12.1-5.1c-4.9-0.8-11.2-1.1-18.9-1.1H1737z"/>
				<path d="M2014.8,4591.4l48.8,72.8c7,10.3,12.8,18.5,17.4,24.6c4.6,6.1,8.8,10.7,12.8,13.9c3.9,3.2,7.8,5.3,11.5,6.4
					c3.7,1.1,8.2,1.7,13.4,1.9v6.3H2021v-6.3c9.2-0.2,15.2-1.6,18.1-4.3c2.9-2.7,4.4-6.4,4.4-11.3c0-0.8-0.1-1.6-0.3-2.4
					c-0.2-0.8-0.6-1.8-1.4-3.3c-0.8-1.4-1.9-3.2-3.4-5.4c-1.5-2.2-3.4-5.1-5.8-8.8l-38.5-58.3l-47.8,61c-2.7,3.3-4.7,6-6.1,8
					c-1.4,2-2.5,3.7-3.1,5c-0.7,1.3-1,2.5-1.1,3.5c-0.1,1-0.1,2.1-0.1,3.3c0,3.5,1.5,6.4,4.5,8.8c3,2.3,8.8,3.7,17.3,4v6.3h-80.5
					v-6.3c5.5-0.3,10.7-1.4,15.5-3.3c4.8-1.8,9.5-4.3,13.9-7.4c4.4-3.1,8.8-6.9,13.1-11.5c4.3-4.6,8.8-9.8,13.5-15.6l53.5-67.8
					l-44.8-65.5c-6.2-9-11.7-16.3-16.6-21.9c-4.9-5.6-9.7-9.9-14.3-13c-4.6-3.1-9.2-5.3-13.9-6.5c-4.7-1.2-9.8-2-15.5-2.4v-6.3h105
					v6.3c-8.8,0.3-14.9,1.8-18.3,4.4c-3.3,2.6-5,5.5-5,8.6c0,4.2,2.7,10.2,8,18l35,52.3l40.3-51.3c2.5-3.2,4.4-5.7,5.8-7.6
					c1.3-1.9,2.3-3.5,3-4.8c0.7-1.3,1.1-2.4,1.3-3.4c0.2-1,0.3-2.2,0.3-3.5c0-4.8-1.8-8.1-5.4-9.8c-3.6-1.7-9.9-2.7-18.9-3v-6.3
					h80.5v6.3c-7.7,0.5-13.9,1.9-18.6,4.3c-4.8,2.3-9.3,5.4-13.6,9.3c-4.7,4-11.8,12-21.3,24L2014.8,4591.4z"/>
			</g>
			<g>
				<g>
					<polygon class="st1" points="3849.5,4350 3736.4,4388.2 3843.3,4434.3 					"/>
					<polygon class="st1" points="14887.8,4470.9 14999.2,4428.2 14890.5,4386.5 					"/>
					<line class="st2" x1="3823.3" y1="4390" x2="14947.9" y2="4427.6"/>
					<g>
						<path d="M9183,4603.7l41.5-20.5h5.1v145.6c0,5.1,0.1,9,0.2,11.9c0.1,2.8,0.4,5,0.9,6.6c0.5,1.5,1.1,2.6,1.9,3.2
							c0.8,0.6,1.8,1.3,3.2,1.9c2.5,1.4,7.7,2.1,15.5,2.1v4.7H9186v-4.7c4.1,0,7.4-0.2,9.9-0.6c2.5-0.4,4.4-0.9,5.8-1.4
							c1.4-0.6,2.4-1.3,3.1-2.2c0.7-0.9,1.2-1.8,1.6-2.8c0.9-1.9,1.3-8.1,1.3-18.6v-93.2c0-7.3-0.2-13.1-0.5-17.4
							c-0.3-4.2-0.8-7.4-1.6-9.4c-0.8-2-1.8-3.3-3-3.9c-1.3-0.6-2.9-0.9-4.9-0.9c-3.5,0-7.8,1.1-12.9,3.4L9183,4603.7z"/>
						<path d="M9396.2,4585.1l-10.1,21.8h-52.1l-11.5,23.3c10.3,1.5,19.8,4.2,28.6,8.1c8.7,3.9,16.2,8.7,22.4,14.4
							c6.2,5.7,11.1,12.3,14.6,19.8c3.5,7.4,5.3,15.4,5.3,24c0,10.6-2.2,19.9-6.7,28c-4.5,8.1-10.1,14.9-16.9,20.4
							c-6.8,5.5-14.2,9.7-22.2,12.6c-8,2.9-15.6,4.3-22.7,4.3c-5.3,0-9.9-0.5-13.7-1.4c-3.8-1-6.8-2.3-9.2-3.9
							c-2.4-1.7-4.1-3.5-5.3-5.4c-1.1-2-1.7-4-1.7-6.2c0-2.4,1-4.6,2.9-6.4c1.9-1.8,4.4-2.8,7.4-2.8c1.1,0,2.2,0.1,3.1,0.2
							c0.9,0.1,1.8,0.4,2.8,0.9c1,0.4,2.1,1.1,3.4,1.9c1.3,0.8,3,1.9,5.1,3.3c3.2,2.3,6.4,4,9.6,5.1c3.2,1.1,6.5,1.6,9.8,1.6
							c5,0,9.7-1,14.2-3.1c4.5-2,8.5-4.8,11.9-8.3c3.4-3.5,6.2-7.6,8.3-12.3c2.1-4.7,3.2-9.8,3.2-15.3c0-5.2-0.9-10.3-2.7-15.3
							c-1.8-5-4.3-9.6-7.6-14c-3.3-4.4-7.3-8.4-11.9-11.9c-4.6-3.6-9.9-6.6-15.8-9.2c-4.7-2-10.2-3.5-16.5-4.5
							c-6.3-1-13.5-1.6-21.5-2l33.2-67.6H9396.2z"/>
						<path d="M9436.2,4585.1h96.4v5.7l-57.8,172h-14.3l51.9-156h-50.2c-6.1,0-11.2,0.5-15.3,1.6c-4.2,1.1-7.7,2.5-10.7,4.5
							c-3,1.9-5.5,4.3-7.5,7c-2,2.8-4,5.9-5.8,9.3l-3.8-1.4L9436.2,4585.1z"/>
						<path d="M9765.9,4581.4l3.9,58.1h-3.9c-5.3-17.4-12.7-29.9-22.3-37.6c-9.6-7.6-21.1-11.5-34.7-11.5c-8.8,0-16.8,1.7-24.2,5
							c-7.4,3.3-13.7,8.4-19.1,15.3c-5.3,6.9-9.5,15.5-12.5,25.9c-3,10.4-4.5,22.7-4.5,36.8c0,11.4,1.4,21.7,4.2,31
							c2.8,9.3,7,17.2,12.4,23.8c5.4,6.6,12.1,11.6,20,15.2c7.9,3.6,17,5.4,27.2,5.4c10.8,0,20.5-2.4,29.3-7.1
							c8.4-4.4,17.7-13.8,28-28.2l3.9,2.4c-8.6,15.2-18.6,26.3-30,33.3c-11.3,7.1-24.9,10.6-40.7,10.6c-12.2,0-23.3-2.1-33.4-6.4
							s-18.9-10.2-26.2-17.9c-7.3-7.7-13.1-16.8-17.2-27.4c-4.1-10.6-6.2-22.2-6.2-34.9c0-17.2,3.8-32.8,11.5-47
							c7.5-14.3,18-25.3,31.4-33.1c13.5-7.9,28.2-11.8,44-11.8c12.4,0,24.5,3,36.4,9c3.5,1.9,6,2.8,7.5,2.8c2.8,0,5-1.1,6.9-3.4
							c1.8-2.3,3.1-5.1,3.9-8.5H9765.9z"/>
						<path d="M9826.4,4664.5c4.3-4.3,7.7-7.7,10.2-10.1c2.5-2.4,4.1-3.9,4.8-4.6c3.8-3.3,7.9-5.8,12.4-7.6
							c4.4-1.8,8.8-2.7,13.1-2.7c7.4,0,13.7,2.1,18.9,6.4c5.3,4.3,8.8,10.5,10.6,18.6c4.3-5.1,8.3-9.3,11.9-12.6
							c3.6-3.3,7-5.8,10.3-7.6c3.2-1.8,6.3-3,9.3-3.7c3-0.7,6.1-1.1,9.2-1.1c4.3,0,8.3,0.7,12.1,2.2c3.7,1.5,7,3.9,9.8,7.2
							c2.8,3.4,5,7.8,6.6,13.4c1.6,5.6,2.4,12.5,2.4,20.8v48.8c0,3.9,0.1,7.4,0.3,10.3c0.2,2.9,0.9,5.3,2.1,7.1c1.2,1.8,3,3.2,5.4,4
							c2.4,0.9,5.9,1.3,10.4,1.3v4.6H9928v-5.4h3.6c3,0,5.6-0.3,7.7-0.8c2.1-0.5,3.8-1.5,5.1-3.1c1.3-1.5,2.2-3.7,2.7-6.6
							c0.6-2.9,0.8-6.7,0.8-11.5v-50.3c0-5.6-0.4-10.2-1.3-13.8c-0.9-3.6-2.1-6.5-3.8-8.7c-1.6-2.2-3.6-3.7-6-4.5
							c-2.4-0.8-5.1-1.2-8.1-1.2c-2.3,0-4.5,0.2-6.6,0.7c-2.1,0.4-4.4,1.3-6.7,2.5c-2.3,1.2-4.8,2.8-7.5,4.9c-2.7,2-5.7,5.1-9,9.3
							v62.1c0,4.2,0.1,7.5,0.2,9.8c0.1,2.4,0.4,4.1,0.9,5.3c0.5,1.2,1.1,2.1,1.8,2.8c0.7,0.6,1.8,1.3,3.1,2.1
							c2.3,1.3,6.4,1.9,12.1,1.9v4.6h-59.9v-4.6c4.8,0,8.5-0.3,11.3-1c2.7-0.6,4.7-1.8,6-3.4c1.3-1.6,2-3.9,2.3-6.8
							c0.3-2.9,0.4-6.4,0.4-10.8v-50.5c0-5.6-0.5-10.2-1.5-13.9c-1-3.7-2.4-6.7-4.2-8.9c-1.8-2.3-3.9-3.9-6.4-4.8
							c-2.5-1-5.2-1.5-8.1-1.5c-3,0-5.9,0.5-8.9,1.6c-3,1-5.8,2.4-8.5,4c-2.7,1.6-5.2,3.4-7.6,5.3c-2.3,1.9-4.2,3.8-5.6,5.6v63.1
							c0,3.9,0.1,7.1,0.4,9.5c0.3,2.4,0.7,4.3,1.2,5.7c0.5,1.4,1.2,2.4,2.1,3.1c0.9,0.7,1.8,1.3,2.9,1.8c2.1,1.1,6.6,1.7,13.4,1.7
							v4.6h-58.1v-4.5c4,0,7.2-0.3,9.6-0.9c2.4-0.6,4.2-1.7,5.5-3.3c1.3-1.6,2.1-3.9,2.5-6.6c0.4-2.8,0.6-6.4,0.6-11v-44.3
							c0-7.6-0.1-13.5-0.4-17.8c-0.3-4.3-0.7-7.5-1.4-9.7c-0.7-2.1-1.7-3.5-2.9-4c-1.2-0.5-2.8-0.8-4.7-0.8c-1.2,0-2.4,0.2-3.9,0.5
							c-1.4,0.3-3,0.8-4.8,1.4l-1.9-4.5l35.7-14.2h4.3V4664.5z"/>
					</g>
				</g>
				<g>
					<polygon class="st1" points="15419.4,1077.6 15374.1,967.1 15334.9,1076.8 					"/>
					<polygon class="st1" points="15306.2,4167.2 15348.3,4278.9 15390.7,4170.4 					"/>
					<line class="st2" x1="15379.5" y1="989.2" x2="15349" y2="4258.2"/>
					<g>
						<path d="M15588,2673.9l-0.2,18.1l-23.6-0.2l-0.4,45.4l-21.8-0.2l0.4-45.4l-72.6-0.7l0.2-16.3l81.3-113.5l14.1,0.1l-1,112.5
							L15588,2673.9z M15542.6,2673.4l0.8-86l-61.6,85.4L15542.6,2673.4z"/>
						<path d="M15619.6,2565.3l96.4,0.9l-0.1,5.9l-58.7,169.5l-14.1-0.1l52.7-153.7l-50.5-0.5c-6.1-0.1-11.2,0.4-15.4,1.4
							c-4.2,1-7.7,2.5-10.7,4.4c-3,1.9-5.5,4.2-7.6,7c-2.1,2.8-4,5.8-5.9,9.2l-3.7-1.4L15619.6,2565.3z"/>
						<path d="M15950,2564.7l3.4,58.1l-3.9,0c-5.1-17.5-12.4-30.1-21.9-37.8s-21-11.7-34.6-11.8c-8.8-0.1-16.9,1.5-24.3,4.8
							c-7.4,3.3-13.8,8.3-19.2,15.1c-5.4,6.8-9.6,15.4-12.7,25.8c-3.1,10.4-4.7,22.6-4.9,36.8c-0.1,11.4,1.2,21.7,3.9,31
							c2.7,9.3,6.8,17.3,12.2,23.9c5.4,6.6,12,11.8,19.9,15.4c7.9,3.6,16.9,5.5,27.2,5.6c10.8,0.1,20.6-2.2,29.4-6.9
							c8.4-4.3,17.9-13.6,28.3-27.9l3.9,2.5c-8.8,15.1-18.9,26.1-30.3,33.1c-11.4,7-25,10.4-40.8,10.2c-12.2-0.1-23.3-2.3-33.4-6.7
							c-10.1-4.4-18.8-10.4-26-18.2c-7.3-7.8-12.9-17-16.9-27.6c-4-10.6-6-22.3-5.9-34.9c0.2-17.2,4.1-32.8,11.9-46.9
							c7.6-14.2,18.2-25.1,31.7-32.8c13.6-7.8,28.3-11.6,44.1-11.4c12.4,0.1,24.5,3.2,36.4,9.4c3.5,1.9,6,2.9,7.5,2.9
							c2.8,0,5.1-1.1,6.9-3.3c1.8-2.2,3.1-5,3.9-8.4L15950,2564.7z"/>
						<path d="M16010.9,2646.5c4.3-4.3,7.8-7.6,10.3-10c2.5-2.4,4.1-3.9,4.9-4.5c3.8-3.3,8-5.8,12.4-7.5c4.5-1.7,8.8-2.6,13.1-2.5
							c7.4,0.1,13.6,2.3,18.9,6.6c5.2,4.3,8.7,10.5,10.4,18.7c4.4-5,8.4-9.2,12-12.5s7.1-5.8,10.3-7.5c3.2-1.7,6.4-3,9.4-3.6
							c3-0.7,6.1-1,9.2-1c4.3,0,8.3,0.8,12.1,2.3c3.7,1.5,7,3.9,9.7,7.3c2.8,3.4,4.9,7.9,6.4,13.5c1.5,5.6,2.3,12.5,2.2,20.8
							l-0.5,49.9c0,3.9,0,7.4,0.2,10.3c0.2,2.9,0.8,5.3,2,7.1c1.2,1.9,3,3.2,5.4,4.1c2.4,0.9,5.9,1.3,10.3,1.4l0,5.3l-58.1-0.5
							l0.1-5.4l1.8,0c3,0,5.6-0.2,7.7-0.7c2.1-0.5,3.8-1.5,5.1-3c1.3-1.5,2.2-3.7,2.8-6.6c0.6-2.9,0.9-6.7,1-11.5l0.5-50.3
							c0.1-5.6-0.3-10.2-1.2-13.8c-0.8-3.6-2.1-6.5-3.7-8.7c-1.6-2.2-3.6-3.7-6-4.5c-2.4-0.8-5.1-1.3-8.1-1.3
							c-2.3,0-4.5,0.2-6.6,0.6c-2.1,0.4-4.4,1.2-6.7,2.4c-2.3,1.2-4.9,2.8-7.6,4.8c-2.7,2-5.7,5.1-9,9.3l-0.6,60.2
							c0,4.2,0,7.5,0.1,9.8c0.1,2.4,0.4,4.1,0.9,5.3c0.5,1.2,1.1,2.1,1.8,2.8c0.7,0.6,1.8,1.4,3.1,2.1c2.3,1.3,6.3,2,12.1,2l0,4.6
							l-59.9-0.6l0-4.6c4.8,0,8.6-0.2,11.3-0.8c2.7-0.6,4.7-1.7,6-3.4c1.3-1.6,2.1-3.9,2.4-6.7c0.3-2.9,0.5-6.4,0.5-10.8l0.5-49.3
							c0.1-5.6-0.4-10.2-1.3-13.9c-0.9-3.7-2.3-6.7-4.1-9c-1.8-2.3-3.9-3.9-6.4-4.9c-2.4-1-5.2-1.5-8.1-1.5c-3,0-6,0.5-8.9,1.5
							c-3,1-5.8,2.3-8.6,3.9c-2.7,1.6-5.3,3.3-7.6,5.3c-2.3,1.9-4.2,3.8-5.7,5.6l-0.6,61.9c0,3.9,0.1,7.1,0.3,9.5
							c0.2,2.4,0.6,4.3,1.1,5.7c0.5,1.4,1.2,2.5,2.1,3.2c0.9,0.7,1.8,1.3,2.9,1.8c2.1,1.2,6.6,1.8,13.4,1.8l0,4.6l-58.1-0.5l0-4.5
							c4,0,7.2-0.2,9.6-0.8c2.4-0.5,4.2-1.6,5.5-3.3c1.3-1.6,2.2-3.8,2.6-6.6c0.4-2.8,0.6-6.4,0.7-11l0.4-44.3
							c0.1-7.6,0-13.5-0.2-17.8c-0.2-4.3-0.7-7.5-1.4-9.7c-0.7-2.2-1.6-3.5-2.9-4c-1.2-0.5-2.8-0.8-4.7-0.8c-1.2,0-2.4,0.1-3.9,0.4
							c-1.4,0.3-3,0.8-4.8,1.4l-1.9-4.6l35.8-13.9l6.1,0.1L16010.9,2646.5z"/>
					</g>
				</g>
			</g>
		</g>
		<g id="SELECTOR-TRIPLEX-SUB">
			<circle class="st3" cx="1414.6" cy="1535.8" r="1337.2"/>
			<ellipse class="st4" cx="1420.8" cy="1535.1" rx="1351.1" ry="1340.7"/>
			<line class="st5" x1="235.6" y1="951.5" x2="2606" y2="951.5"/>
			<line class="st5" x1="2436.6" y1="2409.8" x2="406.6" y2="2409.5"/>
			<line class="st6" x1="958.6" y1="1043.6" x2="958.6" y2="2317.7"/>
			<line class="st7" x1="1146.8" y1="1043.6" x2="770.4" y2="1043.6"/>
			<line class="st7" x1="1146.8" y1="2317.2" x2="770.4" y2="2317.2"/>
			<g>
				<path d="M1253.9,1489.2h184.4v9.8l-114.7,341.5h-28.4l103-309.7h-94.6c-11.6,0-21.4,1-29.3,3c-8,2-14.8,4.9-20.4,8.5
					c-5.7,3.7-10.5,8.1-14.4,13.4c-3.9,5.3-7.6,11.2-11.2,17.8l-7.2-2.7L1253.9,1489.2z"/>
				<path d="M1803.6,1833.3l-132.9-289.2v229.8c0,11.9,0.8,21.1,2.5,27.8c1.6,6.7,4,11.7,7.2,15c3.2,3.3,7,5.3,11.5,6.1
					c4.5,0.8,9.7,1.1,15.5,1.1h12.1v9.5h-119.6v-9.5h12.1c6.1,0,11.4-0.4,15.9-1.3c4.5-0.9,8.3-3,11.4-6.4c3-3.4,5.3-8.5,6.8-15.1
					c1.5-6.7,2.3-15.7,2.3-27.1V1549c0-8.1-0.4-15.2-1.1-21.4c-0.8-6.2-2.7-11.4-5.9-15.7c-3.2-4.3-7.9-7.6-14.4-9.8
					c-6.4-2.3-15.5-3.4-27.1-3.4v-9.5h97.3l124.9,269.2l122.7-269.2h97.3v9.5h-11.7c-6.3,0-11.7,0.5-16.3,1.5
					c-4.5,1-8.3,3.2-11.4,6.6c-3,3.4-5.3,8.5-6.8,15.1c-1.5,6.7-2.3,15.7-2.3,27.1v224.9c0,11.9,0.8,21.1,2.5,27.8
					c1.6,6.7,4,11.7,7.2,15c3.2,3.3,7,5.3,11.5,6.1c4.5,0.8,9.7,1.1,15.5,1.1h11.7v9.5H1896v-9.5h12.1c6.1,0,11.4-0.5,15.9-1.5
					c4.5-1,8.4-3.2,11.5-6.6c3.2-3.4,5.5-8.4,7-15c1.5-6.6,2.3-15.5,2.3-26.9v-229.8l-132.5,289.2H1803.6z"/>
				<path d="M2265.5,1833.3l-132.9-289.2v229.8c0,11.9,0.8,21.1,2.5,27.8c1.6,6.7,4,11.7,7.2,15c3.2,3.3,7,5.3,11.5,6.1
					c4.5,0.8,9.7,1.1,15.5,1.1h12.1v9.5h-119.6v-9.5h12.1c6.1,0,11.4-0.4,15.9-1.3c4.5-0.9,8.3-3,11.4-6.4c3-3.4,5.3-8.5,6.8-15.1
					c1.5-6.7,2.3-15.7,2.3-27.1V1549c0-8.1-0.4-15.2-1.1-21.4c-0.8-6.2-2.7-11.4-5.9-15.7c-3.2-4.3-7.9-7.6-14.4-9.8
					c-6.4-2.3-15.5-3.4-27.1-3.4v-9.5h97.3l124.9,269.2l122.7-269.2h97.3v9.5h-11.7c-6.3,0-11.7,0.5-16.3,1.5
					c-4.5,1-8.3,3.2-11.4,6.6c-3,3.4-5.3,8.5-6.8,15.1c-1.5,6.7-2.3,15.7-2.3,27.1v224.9c0,11.9,0.8,21.1,2.5,27.8
					c1.6,6.7,4,11.7,7.2,15c3.2,3.3,7,5.3,11.5,6.1c4.5,0.8,9.7,1.1,15.5,1.1h11.7v9.5h-146.1v-9.5h12.1c6.1,0,11.4-0.5,15.9-1.5
					c4.5-1,8.4-3.2,11.5-6.6c3.2-3.4,5.5-8.4,7-15c1.5-6.6,2.3-15.5,2.3-26.9v-229.8l-132.5,289.2H2265.5z"/>
			</g>
			<circle class="st8" cx="1410.7" cy="1530.7" r="1337.2"/>
		</g>
		<circle cx="389" cy="3312.1" r="51.7"/>
		<line class="st2" x1="2565.1" y1="852" x2="4172.5" y2="852"/>
		<circle cx="4186.3" cy="852.7" r="47.4"/>
	</g>
	<g id="PARTES-1-8">
	</g>
	<g id="PARTES-1-5">
	</g>
</g>
<g id="MEDIDAS">
</g>
<g id="ELEMENTOS-ADC">
</g>
<g id="TEXTO">
</g>
<g id="SELECTOR-MADERAS">
	<g id="SELECTOR-ELEMENTOS-MADERA">
	</g>
	<g id="SELECTOR-PUERTAS">
	</g>
	<g id="SELECTOR-TRIPLEX">
	</g>
</g>
</svg>
