<?xml version="1.0" encoding="utf-8"?>
<!-- Generator: Adobe Illustrator 26.5.0, SVG Export Plug-In . SVG Version: 6.00 Build 0)  -->
<svg version="1.1" id="TORNILLOSMAD" xmlns="http://www.w3.org/2000/svg" xmlns:xlink="http://www.w3.org/1999/xlink" x="0px"
	 y="0px" viewBox="0 0 10752.6 14626.3" style="enable-background:new 0 0 10752.6 14626.3;" xml:space="preserve">
<style type="text/css">
	.st0{fill:none;stroke:#000000;stroke-width:70;stroke-miterlimit:10;}
	.st1{fill:none;stroke:#000000;stroke-width:20;stroke-miterlimit:10;}
	.st2{fill:none;stroke:#000000;stroke-width:21.0912;stroke-miterlimit:10;}
	.st3{fill:none;stroke:#000000;stroke-width:18.9296;stroke-miterlimit:10;}
	.st4{fill:none;stroke:#000000;stroke-width:20.1166;stroke-miterlimit:10;}
	.st5{fill:none;stroke:#000000;stroke-width:15.3859;stroke-miterlimit:10;}
	.st6{fill:none;stroke:#000000;stroke-width:17.6201;stroke-miterlimit:10;}
	.st7{fill:none;stroke:#000000;stroke-width:17.1357;stroke-miterlimit:10;}
	.st8{fill:none;stroke:#000000;stroke-width:13.2151;stroke-miterlimit:10;}
	.st9{fill:#FFFFFF;stroke:#000000;stroke-width:19.8226;stroke-miterlimit:10;}
	.st10{fill:none;stroke:#000000;stroke-width:69.2957;stroke-miterlimit:10;}
	.st11{fill:none;stroke:#000000;stroke-width:42.7544;stroke-miterlimit:10;}
	.st12{fill:none;stroke:#000000;stroke-width:20.7196;stroke-miterlimit:10;}
	.st13{fill:none;stroke:#000000;stroke-width:54.1256;stroke-miterlimit:10;}
	.st14{fill:none;stroke:#000000;stroke-width:60.2194;stroke-miterlimit:10;}
	.st15{fill:none;stroke:#000000;stroke-width:60;stroke-miterlimit:10;}
	.st16{fill:none;stroke:#000000;stroke-width:9;stroke-miterlimit:10;}
	.st17{fill:none;stroke:#000000;stroke-width:62.5715;stroke-miterlimit:10;}
	.st18{fill:none;stroke:#000000;stroke-width:9.3857;stroke-miterlimit:10;}
	.st19{stroke:#000000;stroke-width:3.8292;stroke-miterlimit:10;}
	.st20{fill:none;stroke:#000000;stroke-width:20.805;stroke-miterlimit:10;}
	.st21{fill:none;stroke:#000000;stroke-width:45.1256;stroke-miterlimit:10;}
</style>
<path class="st0" d="M989.8,4201.8c0,0-4.9-1824.5,0-1982.6c15.4-154.3,532.3-979.7,1095.4-486c204.3,189,189,308.6,189,308.6
	s0.5,883.3,0.3,968.1c22.9,185.1,235,513,312.2,813.9c17.6,96.4,92.6,543.9-146.6,833.1c-509.1,551.6-852.4,216-852.4,216
	s-277.7-189-447.4-304.7S989.8,4201.8,989.8,4201.8z"/>
<path class="st1" d="M2274.3,2093.3c-428.2-817.7-1037.6,288-1037.6,288l-12.9,990c0,0,303.4,725.1,313.7,864
	c10.3,138.9-72,504,154.3,627.4c226.3,123.4,1014.4-82.3,810-1208.6"/>
<path class="st1" d="M1587.7,4873c0,0-153.9-104.1-123.2-559.3c0-266.1-351.2-933.4-351.2-933.4s0-906.4,0-999
	c0-204.4,489.9-968.1,1042.8-575.9"/>
<ellipse transform="matrix(0.4038 -0.9148 0.9148 0.4038 -920.0981 2834.0085)" class="st2" cx="1714.4" cy="2123" rx="267.5" ry="223"/>
<path class="st2" d="M1486.3,2197.6c220.3,51.9,299-223.3,187.2-312"/>
<ellipse transform="matrix(0.4038 -0.9148 0.9148 0.4038 -1955.4373 3508.7063)" class="st2" cx="1714.4" cy="3254.7" rx="267.5" ry="223"/>
<path class="st2" d="M1486.3,3329.3c220.3,51.9,299-223.3,187.2-312"/>
<path class="st3" d="M1795.1,4101.1c-89.7-39.7-199.8,8.4-260.4,108.3c0.6,10.4,0.6,21,1,31.6c1.5,43.9,5.8,87.6,5,131.5
	c-0.3,14.9-3.1,29.1-5.8,43.5c-0.9,11.5-2.2,22.9-4.2,34.2c0,4.6,0.1,9.3,0.5,14c0.9,9.9,1.9,19.9,1.7,29.8
	c17.1,22.8,39.2,41.1,65.8,52.9c99.6,44.1,224.3-20,278.5-143.1C1931.6,4280.7,1894.8,4145.2,1795.1,4101.1z"/>
<path class="st4" d="M1540,4403.7c53.8-17.3,96.8-58.3,122.8-108.3c2-2,4-4,5-7c19-40,30-82,24-127c-4-25-14-48-33.4-64.3"/>
<path class="st4" d="M1605.2,4618.4c0,0,448.1-47.6,550.9-521.4c41-431.4,37.2-990.6,37.2-990.6"/>
<g id="TORNLLOCOLG1_00000029741929351247163300000004783970656133465514_">
	<path d="M6018.8,8035.8c6.7-63.6-11-126.3,24.9-180.6c58.4,42.9,49.7,115.7,74.6,179.9c5.8-64.3-11.5-126.2,25.2-179.7
		c59.6,43.5,49.1,117.5,74.8,180.2c6.2-62.2-12.2-124.1,25.8-180.8c16.2,19.9,37.5,35.4,43.6,63.1c8.4,37.7,17.7,75.2,28.7,112.8
		c9-58.5-10.5-121,26.5-174.9c59.6,43.1,49,116.3,74.6,179.4c7.5-63.2-11.9-126.1,24.9-179.7c58.7,42.5,49.4,114.7,76.1,173.6
		c0-18.2,0-36.3,0-54.5c0.1-18.3-0.5-36.7,0.7-54.9c0.5-6.4,5.6-12.6,8.6-18.8c2.6,1,5.1,2.1,7.7,3.1c0,57.2,2.1,114.4-1.2,171.4
		c-1.1,19-16.1,37.3-26.3,59.1c-10.9-12.8-20.2-25.4-31.3-36c-5.9-5.6-14.6-9.3-22.7-11.2c-19.5-4.6-31.8,2.9-35.2,23.8
		c-1.2,7.3-5.2,14.2-9.1,24.4c-11.6-13.4-21.2-26-32.3-37c-5.4-5.3-13.2-9.8-20.5-11.1c-18.7-3.2-34.8-0.6-37.7,23.5
		c-0.9,7.3-5.3,14.1-9.4,24.4c-11.5-13.4-20.9-25.9-31.9-36.8c-5.3-5.3-13.1-9.6-20.5-11.1c-20.8-4.5-34.9,2.6-38.6,25.6
		c-1.1,6.5-5.1,12.5-9.1,21.9c-11.6-13.5-21.1-25.9-32.2-36.7c-5.4-5.3-13.3-9.4-20.7-10.9c-19.6-4-34.1,1.3-37.4,24.2
		c-1,7.1-5.4,13.8-9.4,23.7c-12-14-21.5-26.5-32.6-37.4c-5.3-5.2-13.4-8.9-20.8-10.5c-20.2-4.5-33.5,2.8-37.2,24.7
		c-1.2,7.1-4.8,13.8-8.2,23c-6.2-6.7-11.5-11-15.1-16.4c-15.4-22.9-34-38.2-64.1-31.8c-3.9,0.8-9.1-1-12.9-3.1
		c-53.5-29-106.9-58.3-163.9-89.5c43.9-24.1,84-47.9,125.7-68.5c30.8-15.3,56.4-32.9,59.2-72.3
		C6003.7,7898.4,5993.4,7972.1,6018.8,8035.8z"/>
	<path d="M6557,7771.4c53.9-10.7,94.4,7.5,122.9,53.5c24.5,39.6,37.9,82.4,40.8,131.5c-32.4,0-63.3,0-95.7,0c0,25.6,0,48.7,0,74
		c31.8,0,62.8,0,96.5,0c-7.2,65-23.5,122.9-72.4,167c-26.2,23.6-58,24-92.3,20.9C6557,8069.8,6557,7921.5,6557,7771.4z"/>
	<g id="TORNLLOCOLG1_00000146464270762335863050000002461408572285067918_">
		<path d="M4524.7,9752.5c-6.2,58.7,10.1,116.6-22.9,166.7c-53.9-39.5-45.8-106.7-68.9-166c-5.4,59.3,10.6,116.4-23.3,165.8
			c-55-40.2-45.4-108.4-69-166.3c-5.7,57.4,11.3,114.5-23.8,166.9c-14.9-18.3-34.6-32.7-40.2-58.2c-7.7-34.8-16.4-69.4-26.5-104.1
			c-8.3,54,9.7,111.7-24.5,161.4c-55-39.8-45.2-107.4-68.9-165.6c-6.9,58.3,11,116.4-23,165.9c-54.2-39.2-45.6-105.8-70.2-160.2
			c0,16.8,0,33.5,0,50.3c-0.1,16.9,0.5,33.9-0.7,50.7c-0.4,5.9-5.2,11.6-7.9,17.4c-2.4-0.9-4.7-1.9-7.1-2.8
			c0-52.7-2-105.6,1.1-158.2c1-17.6,14.9-34.4,24.2-54.5c10.1,11.8,18.6,23.4,28.9,33.2c5.4,5.2,13.5,8.6,21,10.3
			c18,4.3,29.3-2.7,32.5-21.9c1.1-6.7,4.8-13.1,8.4-22.5c10.7,12.4,19.6,24,29.8,34.1c4.9,4.9,12.2,9.1,18.9,10.2
			c17.2,2.9,32.1,0.6,34.8-21.7c0.8-6.7,4.9-13,8.6-22.5c10.6,12.4,19.3,23.9,29.4,33.9c4.9,4.9,12.1,8.8,18.9,10.3
			c19.2,4.2,32.2-2.4,35.6-23.6c1-6,4.7-11.5,8.4-20.2c10.8,12.5,19.5,23.9,29.7,33.9c5,4.9,12.3,8.6,19.1,10
			c18.1,3.7,31.4-1.2,34.5-22.3c0.9-6.6,4.9-12.7,8.7-21.8c11.1,12.9,19.8,24.5,30.1,34.5c4.9,4.8,12.3,8.2,19.2,9.7
			c18.7,4.2,30.9-2.6,34.3-22.8c1.1-6.5,4.4-12.7,7.6-21.2c5.7,6.1,10.6,10.1,14,15.2c14.2,21.2,31.4,35.3,59.1,29.3
			c3.6-0.8,8.4,0.9,11.9,2.9c49.4,26.8,98.6,53.8,151.2,82.6c-40.5,22.3-77.5,44.2-116,63.3c-28.5,14.1-52.1,30.3-54.6,66.7
			C4538.6,9879.3,4548.1,9811.2,4524.7,9752.5z"/>
		<path d="M4028,9996.5c-49.7,9.9-87.1-7-113.4-49.4c-22.6-36.5-35-76.1-37.7-121.3c29.9,0,58.4,0,88.3,0c0-23.6,0-44.9,0-68.3
			c-29.4,0-57.9,0-89.1,0c6.6-60,21.7-113.5,66.8-154.1c24.1-21.8,53.5-22.1,85.1-19.3C4028,9721.2,4028,9858,4028,9996.5z"/>
	</g>
</g>
<line class="st0" x1="5668.2" y1="8329.7" x2="10542.8" y2="8327.2"/>
<line class="st0" x1="5947.3" y1="9863.9" x2="10542.8" y2="9863.9"/>
<g>
	<path class="st0" d="M5083.5,8039.6c-1.6,66-35.2,1459.5-35.2,1459.5s-35.2,474.8,255,584.7c268.2-17.6,725.3-83.5,725.3-83.5
		s4.4-92.3-48.4-114.3c-52.8-22-193.4-52.8-206.6-298.9c-13.2-246.2-4.4-681.4-4.4-681.4s-4.4-118.7-149.5-114.3
		c-145.1,4.4-316.5-4.4-316.5-4.4s-114.3-461.6,364.9-457.2C5615.4,7142.8,5047,7762.6,5083.5,8039.6z"/>
	<path class="st5" d="M5303.3,8786.9c0,0-131.9,39.6-142.9-127.5c4.4-149.5,19.8-659.4,19.8-659.4s91.7-389.5,318.1-231.3l94.7,74"
		/>
	<ellipse class="st5" cx="5442" cy="8076.4" rx="95.8" ry="202.8"/>
	<path class="st5" d="M5392.3,7931.9c-5.4,0-10.6,1-15.7,3c-0.8,0.9-1.5,1.8-2.2,2.7c-0.4,1.8-1.1,3.7-2.2,5.5
		c-1.4,2.2-2.9,4.4-4.3,6.7c-3.1,7.6-5.4,15.7-7.9,22.4c-0.9,2.4-1.8,4.9-2.6,7.3c-0.1,0.7-0.2,1.4-0.3,2.1
		c-1.6,10.7-8.6,66.9-9.2,84.9c-0.7,21.3-1.1,42.6,2.3,63.7c3.2,20.2,1.4,55.9,38.5,113.7c1.2,0.1,2.4,0.2,3.7,0.2
		c44.3,0,80.2-69.9,80.2-156.1C5472.5,8001.8,5436.6,7931.9,5392.3,7931.9z"/>
</g>
<g>
	<g>
		<path class="st6" d="M3720,9082.6c0,0,0,37.3-6.7,41.5c-6.7,4.2-83.5,3.7-83.5,3.7s-8.6-87.7,4.3-130.2c13.8-4.2,80.7,0,80.7,0
			s5.7,16,1.9,24.6"/>
		<path class="st6" d="M3626.9,9121.8c0,0-147.1,3.5-218,0c-22.2-84,0-119.7,0-119.7l223.1,3.1"/>
		<polyline class="st6" points="3443.3,9123.4 3443.3,9149.1 2816.8,9149.1 2816.8,8969.3 3443.3,8969.3 3443.3,9002.6 		"/>
		<polyline class="st6" points="2816.8,8994.5 2421.5,8994.5 2421.5,9138.6 2816.8,9138.6 		"/>
		<path class="st7" d="M2438.7,8992.6v-13.2c0,0-40.2-26.4-235.2-14.5c-83.5,120.1,12.9,243.3,12.9,243.3s180.7,9.3,222.3-13.2
			c18.6-14.5,17.2-66.1,17.2-66.1"/>
		<path class="st7" d="M2238.2,8961.8c0,0-22.9-153.5-97.4-166.1c-28.6-15.4-118.9-36.4-169,36.4c-50.1,72.8-50.1,309.4-37.2,361.2
			c12.9,51.8,48.6,217,148.2,236.6c135.4,16.8,186.9-219.8,186.9-219.8"/>
		<path class="st7" d="M2034.5,8780.5c0,0-371.6-36-406-25.5c-89.2-1.9-252.4,481.9,14,675.6c178.3,0,275,0,275,0
			s55.9,4.7,34.4,34.1c-21.5,29.4-18.6,88.2-12.9,86.8c5.7-1.4,44.4,12.6,84.5,0c63-12.6,70.2-121,70.2-121"/>
		<path class="st7" d="M1535.2,8881c0,0,64.3-21,108.7,0c17.2,35,0,388.7,0,388.7s-86.5,18.5-122-5.9s-18.8-251.2-18.8-251.2
			L1535.2,8881z"/>
		<path class="st7" d="M1608,8753.2h-178.3c0,0-85.9,64.9-90.2,102.7c-90.2,2.1-543.5,15.8-543.5,15.8s-182.6,49.3-171.9,265.6
			s219.1,201.6,219.1,201.6l397.4-10.5c0,0,80.6-5.2,65.5,214.2c-15,219.4,235.9,198.1,235.9,198.1s31.5-20.6,18.6,113.7
			c-12.9,134.4,205.2,100.8,205.2,100.8s4.3,2.1,8.6,13.6c4.3,11.5,24-15.7,20.6-24.1c4.7-8.4,11.7-17.8,0.4-18.9
			s-109.1,9.4-130.5-4.2c-21.5-13.6-78.4-46.2-61.2-145.9c-10.7-115.5,14-166.9,49.4-176.4s213.7-35.7,287.9-7.3
			c31.1-9.4,38.7-34.9,38.7-34.9"/>
		<ellipse class="st7" cx="1460.7" cy="9491.1" rx="100.1" ry="43"/>
		<polygon class="st8" points="917.8,9257.1 917.8,8932.4 930.3,8921.7 965.9,8921.7 979.8,8931.4 979.8,9257.3 970.2,9264.2 
			928,9264.2 		"/>
		<rect x="845.1" y="8933.6" class="st8" width="72.7" height="25.5"/>
		<rect x="832.5" y="8980.3" class="st8" width="85.2" height="37.4"/>
		<rect x="831.1" y="9038.9" class="st8" width="85.2" height="42.7"/>
		<rect x="831.1" y="9104.1" class="st8" width="85.2" height="42.7"/>
		<rect x="831.1" y="9169.3" class="st8" width="85.2" height="37.4"/>
		<rect x="843.6" y="9226.7" class="st8" width="72.7" height="29.2"/>
		<path class="st7" d="M1008.7,9285.3c0,0,141.8,0,412.5,0c-40.8-253.9,21.5-382.2,21.5-382.2l-433.9,0H822.9
			c0,0-131.8,14.3-156.8,189.4c0,161.9,147.2,192.7,147.2,192.7H1008.7z"/>
		<path class="st7" d="M1429.7,8753.2l-512,10.3c0,0-123.9,32.8-151.8,61.6c-99.9-8.4-78.8,81.4-78.8,81.4s-69.3,44-63.5,159.4
			c-33.9,203.9,57.7,253.4,57.7,253.4s-17.2,103.6,64.4,98c-17.2,42,89.4,161,277.1,207.2c0,174.3,30.8,318.5,11.5,347.2
			c6.4,32.9-62.3,270.2-88.1,293.3c-25.8,23.1-79.5,163.8-21.5,258.3c58,94.5-53.7,281.4-53.7,281.4s-143.9,88.2-111.7,199.5
			c-105.3,98.7,6.4,172.2,6.4,172.2s-141.8,64.7-124.6,201.6c-2.1,153.3-8.6,163.8-8.6,163.8l1342.6,91.7l354.5-91.7l0-310.1
			c0,0-130.3-235.2-277.8-296.8c-107.4-85.4-32.9-70-249.2-74.2c-5.7-40.6-77.3-40.6-77.3-40.6s-227.7,0-280.7-30.8
			c-53-30.8,9.2-547.3,28.2-555.7c23.3-144.9,298.1-158.8,248.8-274.7"/>
		<path class="st7" d="M1800.5,9927.5c0,0,54.6-0.7,50.3-19.6c-4.3-18.9,1.1-132.3,7.5-220.5c-12.9-68.2,62.3-42,82.7-95.5
			c9.8-3.8,9.8-3.8,9.8-3.8"/>
		<path class="st7" d="M1802.8,10860.5c0,0-289.3-106.4-383.8,193.2c20,212.8-707.5,114.8-659.5-49.7c-4.2-43.6-4.2-22.2-4.2-22.2"
			/>
		<path class="st7" d="M2041.7,10926.3c0,0-195.9-7.1-293.3,114.7c-97.4,121.8-123.2,149.8-123.2,149.8l-885,0"/>
		<path class="st7" d="M2312.7,11202.5c0,0,2.9,87.7-30.1,93.3c-32.9,5.6,0,40.6,0,40.6l-171.9,43.4l0-113.4l-190.5-240.8
			c0,0-34.3-63.3,170.5-70.8"/>
		<polyline class="st7" points="1761.1,11026.4 2000.5,11263.6 2000.5,11426 2115.4,11448.4 2329.8,11403.6 		"/>
		<path class="st7" d="M702,11220.9c0,0,1045.7,14,1146.6,1.4c101-12.6,126.7,65.1,126.7,65.1l0,345.8"/>
		<path class="st7" d="M1610.2,11608.2l0-253.6H766c0,0-83.8,21-45.1,186.9"/>
		<path class="st7" d="M1160.4,10980.9c0,0,234.7-37.2,261.7,63.3"/>
		<path class="st7" d="M1900.2,11628l0-273.4c0,0-7.9-69.3-97.4-67.2s-642.4,0-642.4,0"/>
		<path class="st7" d="M2197.2,9373.2c0,0-65,78-148.1-103.4c-121.8-516.6,131.9-450.3,131.9-450.3"/>
		<path class="st9" d="M800.3,10907.4c0,0,15-62.3,80.9-62.3c65.9,0,212.7,0,219.8,0c61.6,5.6,59.3,62.3,59.3,62.3l0,508.1
			c0,0,35.2-7.7,39.5,32.9c-70.9,0-408.2-0.3-408.2-0.3L800.3,10907.4z M900.5,11269.6l57.7,52.5l87-89.2l0-254.1
			c0,0-156.8-69.3-143.9,110.2C900.5,11259.1,900.5,11269.6,900.5,11269.6z"/>
	</g>
	<path class="st6" d="M3747.3,9024c0,0-38.5-0.3-49.6,0c-11.5,19.6,0,58.1,0,58.1h44.4h5.2L3747.3,9024z"/>
</g>
<g id="TORNLLOCOLG1_00000013913859319698678130000001018456520664912818_">
	<path d="M3462.7,3370.3c11.8-112.2-19.3-222.9,43.9-318.7c103.1,75.6,87.7,204.1,131.7,317.5c10.3-113.5-20.3-222.7,44.5-317
		c105.2,76.8,86.7,207.3,132,317.9c11-109.8-21.6-219,45.5-319.1c28.5,35,66.1,62.4,77,111.3c14.8,66.6,31.3,132.7,50.6,199
		c15.9-103.3-18.5-213.5,46.8-308.6c105.2,76.1,86.5,205.3,131.7,316.6c13.2-111.5-21.1-222.5,44-317.2
		c103.6,75,87.2,202.4,134.3,306.3c0-32.1-0.1-64.1,0-96.2c0.1-32.3-1-64.7,1.3-96.9c0.8-11.4,9.9-22.1,15.2-33.2
		c4.5,1.8,9.1,3.6,13.6,5.4c0,100.8,3.7,201.9-2.1,302.4c-2,33.6-28.4,65.7-46.3,104.3c-19.3-22.6-35.6-44.8-55.2-63.5
		c-10.4-9.9-25.8-16.4-40.1-19.8c-34.5-8.2-56,5.1-62.1,41.9c-2.1,12.9-9.1,25-16.1,43c-20.4-23.7-37.4-45.8-57-65.2
		c-9.5-9.4-23.3-17.3-36.2-19.5c-32.9-5.6-61.4-1.1-66.5,41.5c-1.5,12.8-9.3,24.9-16.5,43.1c-20.2-23.7-36.9-45.7-56.3-64.9
		c-9.4-9.4-23.2-16.9-36.1-19.7c-36.7-7.9-61.5,4.6-68.1,45.1c-1.9,11.4-8.9,22-16,38.7c-20.6-23.8-37.3-45.7-56.8-64.7
		c-9.5-9.3-23.4-16.5-36.5-19.2c-34.5-7-60.1,2.3-65.9,42.7c-1.8,12.6-9.5,24.3-16.6,41.8c-21.2-24.7-37.9-46.8-57.5-66
		c-9.4-9.2-23.6-15.6-36.7-18.6c-35.7-8-59.1,4.9-65.6,43.5c-2.1,12.5-8.5,24.3-14.5,40.5c-11-11.7-20.3-19.4-26.7-29
		c-27.1-40.4-60.1-67.4-113-56c-7,1.5-16.1-1.8-22.8-5.5c-94.4-51.2-188.6-102.9-289.1-158c77.4-42.6,148.2-84.5,221.8-120.9
		c54.4-27,99.6-58,104.5-127.5C3436,3127.8,3417.9,3258,3462.7,3370.3z"/>
	<path d="M4412.4,2903.8c95.1-18.9,166.6,13.3,216.9,94.5c43.3,69.8,66.9,145.4,72.1,232c-57.2,0-111.7,0-168.8,0
		c0,45.1,0,85.9,0,130.5c56.1,0,110.8,0,170.3,0c-12.6,114.7-41.5,216.9-127.7,294.6c-46.2,41.6-102.3,42.3-162.8,36.8
		C4412.4,3430.3,4412.4,3168.6,4412.4,2903.8z"/>
	<g id="TORNLLOCOLG1_00000000224051590730914850000004861493107856610481_">
		<path d="M4064,2056.6c-10.9,103.6,17.9,205.7-40.5,294.2c-95.1-69.8-80.9-188.3-121.5-293c-9.5,104.7,18.8,205.5-41.1,292.5
			c-97.1-70.9-80-191.3-121.8-293.4c-10.1,101.3,19.9,202.1-42,294.5c-26.3-32.3-61-57.6-71-102.7c-13.7-61.4-28.9-122.5-46.7-183.7
			c-14.7,95.3,17.1,197.1-43.2,284.8c-97.1-70.2-79.8-189.4-121.6-292.1c-12.2,102.9,19.4,205.3-40.6,292.7
			c-95.6-69.2-80.5-186.8-123.9-282.7c0,29.6,0.1,59.2,0,88.8c-0.1,29.8,0.9,59.7-1.2,89.4c-0.7,10.5-9.1,20.4-14,30.6
			c-4.2-1.7-8.4-3.3-12.6-5c0-93.1-3.5-186.3,1.9-279.1c1.8-31,26.2-60.7,42.8-96.2c17.8,20.8,32.9,41.3,51,58.6
			c9.6,9.1,23.8,15.1,37,18.2c31.8,7.5,51.7-4.7,57.3-38.7c2-11.9,8.4-23,14.8-39.7c18.8,21.9,34.5,42.3,52.6,60.2
			c8.7,8.6,21.5,16,33.4,18c30.4,5.2,56.7,1,61.4-38.3c1.4-11.8,8.6-23,15.2-39.7c18.7,21.9,34.1,42.1,51.9,59.9
			c8.7,8.6,21.4,15.6,33.4,18.1c33.9,7.3,56.8-4.3,62.9-41.6c1.7-10.6,8.2-20.3,14.8-35.7c19,22,34.4,42.2,52.4,59.8
			c8.8,8.6,21.6,15.2,33.7,17.7c31.9,6.5,55.4-2.1,60.8-39.4c1.7-11.6,8.7-22.4,15.4-38.5c19.5,22.8,35,43.2,53.1,60.9
			c8.7,8.5,21.8,14.4,33.9,17.1c33,7.4,54.5-4.5,60.5-40.2c1.9-11.5,7.8-22.4,13.3-37.4c10.1,10.8,18.7,17.9,24.7,26.7
			c25,37.3,55.4,62.2,104.3,51.7c6.4-1.4,14.9,1.7,21.1,5c87.1,47.3,174,95,266.8,145.8c-71.4,39.3-136.8,78-204.7,111.6
			c-50.2,24.9-91.9,53.5-96.4,117.7C4088.6,2280.4,4105.4,2160.2,4064,2056.6z"/>
		<path d="M3187.6,2487c-87.8,17.4-153.7-12.3-200.1-87.2c-39.9-64.4-61.7-134.2-66.5-214.1c52.8,0,103.1,0,155.8,0
			c0-41.7,0-79.3,0-120.4c-51.8,0-102.2,0-157.2,0c11.7-105.9,38.3-200.2,117.8-271.9c42.6-38.4,94.4-39,150.2-34
			C3187.6,2001.3,3187.6,2242.8,3187.6,2487z"/>
	</g>
	<g id="TORNLLOCOLG1_00000097480929379744180990000009036300400191199124_">
		<path d="M4142.5,4316.9c-10.9,103.6,17.9,205.7-40.5,294.2c-95.1-69.8-80.9-188.3-121.5-293c-9.5,104.7,18.8,205.5-41.1,292.5
			c-97.1-70.9-80-191.3-121.8-293.4c-10.1,101.3,19.9,202.1-42,294.5c-26.3-32.3-61-57.6-71-102.7c-13.7-61.4-28.9-122.5-46.7-183.7
			c-14.7,95.3,17.1,197.1-43.2,284.8c-97.1-70.2-79.8-189.4-121.6-292.1c-12.2,102.9,19.4,205.3-40.6,292.7
			c-95.6-69.2-80.5-186.8-123.9-282.7c0,29.6,0.1,59.2,0,88.8c-0.1,29.8,0.9,59.7-1.2,89.4c-0.7,10.5-9.1,20.4-14,30.6
			c-4.2-1.7-8.4-3.3-12.6-5c0-93.1-3.5-186.3,1.9-279.1c1.8-31,26.2-60.7,42.8-96.2c17.8,20.8,32.9,41.3,51,58.6
			c9.6,9.1,23.8,15.1,37,18.2c31.8,7.5,51.7-4.7,57.3-38.7c2-11.9,8.4-23,14.8-39.7c18.8,21.9,34.5,42.3,52.6,60.2
			c8.7,8.6,21.5,16,33.4,18c30.4,5.2,56.7,1,61.4-38.3c1.4-11.8,8.6-23,15.2-39.7c18.7,21.9,34.1,42.1,51.9,59.9
			c8.7,8.6,21.4,15.6,33.4,18.1c33.9,7.3,56.8-4.3,62.9-41.6c1.7-10.6,8.2-20.3,14.8-35.7c19,22,34.4,42.2,52.4,59.8
			c8.8,8.6,21.6,15.2,33.7,17.7c31.9,6.5,55.4-2.1,60.8-39.4c1.7-11.6,8.7-22.4,15.4-38.5c19.5,22.8,35,43.2,53.1,60.9
			c8.7,8.5,21.8,14.4,33.9,17.1c33,7.4,54.5-4.5,60.5-40.2c1.9-11.5,7.8-22.4,13.3-37.4c10.1,10.8,18.7,17.9,24.7,26.7
			c25,37.3,55.4,62.2,104.3,51.7c6.4-1.4,14.9,1.7,21.1,5c87.1,47.3,174,95,266.8,145.8c-71.4,39.3-136.8,78-204.7,111.6
			c-50.2,24.9-91.9,53.5-96.4,117.7C4167.1,4540.7,4183.8,4420.5,4142.5,4316.9z"/>
		<path d="M3266.1,4747.3c-87.8,17.4-153.7-12.3-200.1-87.2c-39.9-64.4-61.7-134.2-66.5-214.1c52.8,0,103.1,0,155.8,0
			c0-41.7,0-79.3,0-120.4c-51.8,0-102.2,0-157.2,0c11.7-105.9,38.3-200.2,117.8-271.9c42.6-38.4,94.4-39,150.2-34
			C3266.1,4261.6,3266.1,4503.1,3266.1,4747.3z"/>
	</g>
</g>
<rect x="249.8" y="1229.2" class="st10" width="4939.3" height="5122.3"/>
<rect x="3316" y="7460.6" class="st10" width="4815" height="3117.5"/>
<polyline class="st11" points="1902.4,6351.5 1902.4,7954.6 3334,7954.6 "/>
<ellipse cx="5741.2" cy="2545.5" rx="93.8" ry="85.5"/>
<g>
	<g>
		<g id="COLGADOR-IZQUIERDO_00000075843759613291055920000000466590292930245534_">
			<line class="st12" x1="987.7" y1="5173.6" x2="2611.7" y2="5173.6"/>
			<line class="st12" x1="769.7" y1="4873" x2="753" y2="1706"/>
			<polygon points="683.6,4873.9 855.7,4873 770.2,4976.5 			"/>
			<polygon points="839,1708.7 666.9,1708.7 753,1605.7 			"/>
			<polygon points="987.7,5087.6 987.7,5259.6 884.6,5173.6 			"/>
			<polygon points="2611.7,5259.6 2611.7,5087.6 2714.7,5173.6 			"/>
		</g>
	</g>
</g>
<g>
	<path d="M596.4,3631.9l-10.5,3.7l-151.6-120.5l2.9-9.6c23.2,1.2,55.3,1.8,96.3,1.8h43.2v-49.8l20.5,3.1v46.7h52.3l4.9-40.2
		l12.5,2.1v115.6l-11.1-1.4l-7.4-48.2h-52V3631.9z M576.7,3606.8V3536h-94.9L576.7,3606.8z"/>
	<path d="M673.2,3418.1c0,5.3-2.1,9.6-6.2,12.9c-4.1,3.3-9.4,4.9-15.9,4.9c-6.2,0-11.2-1.6-14.9-4.8c-3.7-3.2-5.6-7.5-5.6-12.8
		c0-5.3,1.9-9.7,5.7-13.1c3.8-3.4,8.8-5.1,15-5.1c6.5,0,11.8,1.6,15.8,4.9C671.2,3408.2,673.2,3412.6,673.2,3418.1z"/>
	<path d="M670.1,3324.1c0,10.8-1.6,20.7-4.8,29.7s-8.4,17.2-15.5,24.6l-54.9-5.5l2.7-13.1l39.1-3.5c6.4-5.2,11.1-11.3,14.3-18.2
		c3.1-6.9,4.7-14.4,4.7-22.5c0-9.2-2-17.3-6.1-24.1c-4-6.8-9.7-12.1-17.1-15.8c-7.4-3.7-15.9-5.6-25.7-5.6c-19.3,0-34.4,8-45.4,24.1
		c-11,16.1-17.4,38.3-19.2,66.5l-103.9-22.5l-5.3-87.7l29.1,4.1l3.3,75.2l51,8.6c1.4-22.3,5.7-40.6,12.9-55.1
		c7.2-14.5,16.4-25.1,27.6-31.8c11.3-6.8,24-10.2,38.2-10.2c13.3,0,25.7,3.6,37.2,10.7c11.5,7.2,20.7,17.1,27.5,29.7
		C666.6,3294.6,670.1,3308.6,670.1,3324.1z"/>
	<path d="M672.8,3088.2c0,14.6-3.8,27.3-11.3,38.1c-7.5,10.8-17.8,19.1-30.7,24.8c-12.9,5.7-27.2,8.6-43,8.6
		c-18.8,0-35.3-3.5-49.6-10.5c-14.3-7-25.4-16.5-33.1-28.4c-7.7-11.9-11.6-25-11.6-39.2c0-10.4,1.5-19,4.5-25.7
		c3-6.7,6.9-11.6,11.7-14.7c4.8-3.1,10-4.7,15.4-4.7c10.8,0,17.3,6.2,19.3,18.6c-11.3,4-20.1,8.9-26.4,14.5
		c-6.2,5.6-9.4,12.8-9.4,21.5c0,7.8,2.5,14.8,7.6,21.1c5.1,6.2,12.5,11.2,22.2,14.8c9.7,3.6,21.3,5.5,34.7,5.5
		c15.2,0,28.9-2.3,41.1-6.8c12.2-4.6,21.7-11.1,28.7-19.7c7-8.6,10.4-18.8,10.4-30.5c0-15.9-5.1-30.1-15.4-42.8l9-4.1
		c4.6,3.4,8.8,8.2,12.7,14.5s7.1,13.3,9.5,21.3C671.6,3072.1,672.8,3080.1,672.8,3088.2z"/>
	<path d="M666.9,2928v83l-10.5-1.8l-6.2-29.7H519.9l-7.8,30.7l-10.2-1.2l-5.9-52.5l2.7-2.3l26,2.1v-1.6c-8.6-7-16-15.9-22.2-26.7
		c-6.2-10.7-9.3-21.8-9.3-33.3c0-10.3,2.8-19.2,8.3-26.8c5.5-7.5,13.6-12.5,24.1-14.8v-2.1c-8.7-6.8-16.2-15.4-22.4-25.9
		c-6.2-10.5-9.3-21.5-9.3-32.9c0-16.4,4.9-28.2,14.6-35.4c9.8-7.2,23.6-10.7,41.6-10.7h99.6l5.3-27.7l11.3,2.5v77.5l-10.2-1.2
		l-6.2-25.4H555c-12.9,0-22.9,3-29.9,8.9c-7,5.9-10.5,14.4-10.5,25.5c0,8.7,2.3,16.7,6.8,23.8c4.6,7.2,10.1,13.8,16.6,19.9h112.1
		l5.5-27.1l11.3,1.6v77.7l-10.5-1.6l-6.2-26H555c-12.2,0-22.1,3-29.5,9.1s-11.1,14.3-11.1,24.7c0,8.7,2.1,17.1,6.2,25.2
		c4.1,8.1,9.5,14.8,16.3,20.3h113.3l5.5-27.9L666.9,2928z"/>
</g>
<g>
	<path d="M1353.7,5504.2l0.8-11.7l53.5-8.2v-186.9h-50.6l1-11.9l75.4-12.5h5.3v212.3l52.3,5.5l-1.8,13.5H1353.7z"/>
	<path d="M1529.9,5510.6c-5.3,0-9.6-2.1-12.9-6.2c-3.3-4.1-4.9-9.4-4.9-15.9c0-6.2,1.6-11.2,4.8-14.9c3.2-3.7,7.5-5.6,12.8-5.6
		c5.3,0,9.7,1.9,13.1,5.7c3.4,3.8,5.1,8.8,5.1,15c0,6.5-1.6,11.8-4.9,15.8C1539.7,5508.6,1535.3,5510.6,1529.9,5510.6z"/>
	<path d="M1568.9,5342.5l5.5-68.9h149v10.2l-84.6,227.1l-31.1-3.3l92.6-207.6h-107.6l-13.3,44.3L1568.9,5342.5z"/>
	<path d="M1875,5510.3c-14.6,0-27.3-3.8-38.1-11.3c-10.8-7.6-19.1-17.8-24.8-30.7c-5.7-12.9-8.6-27.2-8.6-43
		c0-18.8,3.5-35.3,10.5-49.6c7-14.3,16.5-25.4,28.4-33.1c11.9-7.7,25-11.6,39.2-11.6c10.4,0,19,1.5,25.7,4.5
		c6.7,3,11.6,6.9,14.7,11.7c3.1,4.8,4.7,10,4.7,15.4c0,10.8-6.2,17.3-18.6,19.3c-4-11.3-8.9-20.1-14.5-26.4
		c-5.6-6.2-12.8-9.4-21.5-9.4c-7.8,0-14.8,2.5-21.1,7.6s-11.2,12.5-14.8,22.2c-3.6,9.7-5.5,21.3-5.5,34.7c0,15.2,2.3,28.9,6.8,41.1
		c4.6,12.2,11.1,21.7,19.7,28.7c8.6,7,18.8,10.4,30.5,10.4c15.9,0,30.1-5.1,42.8-15.4l4.1,9c-3.4,4.6-8.2,8.8-14.5,12.7
		s-13.3,7.1-21.3,9.5C1891.1,5509,1883,5510.3,1875,5510.3z"/>
	<path d="M2035.1,5504.4h-83l1.8-10.5l29.7-6.2v-130.3l-30.7-7.8l1.2-10.2l52.5-5.9l2.3,2.7l-2.1,26h1.6c7-8.6,15.9-16,26.7-22.2
		c10.7-6.2,21.8-9.3,33.3-9.3c10.3,0,19.2,2.8,26.8,8.3c7.5,5.5,12.5,13.6,14.8,24.1h2.1c6.8-8.7,15.4-16.2,25.9-22.4
		c10.5-6.2,21.5-9.3,32.9-9.3c16.4,0,28.2,4.9,35.4,14.6c7.2,9.8,10.7,23.6,10.7,41.6v99.6l27.7,5.3l-2.5,11.3h-77.5l1.2-10.2
		l25.4-6.2v-95.1c0-12.9-3-22.9-8.9-29.9c-5.9-7-14.4-10.5-25.5-10.5c-8.7,0-16.7,2.3-23.8,6.8c-7.2,4.6-13.8,10.1-19.9,16.6v112.1
		l27.1,5.5l-1.6,11.3h-77.7l1.6-10.5l26-6.2v-95.1c0-12.2-3-22.1-9.1-29.5s-14.3-11.1-24.7-11.1c-8.7,0-17.1,2.1-25.2,6.2
		c-8.1,4.1-14.8,9.5-20.3,16.3v113.3l27.9,5.5L2035.1,5504.4z"/>
</g>
<g>
	<path d="M3247.8,5188h-83l1.8-10.5l29.7-6.2V5041l-30.7-7.8l1.2-10.2l52.5-5.9l2.3,2.7l-2.1,26h1.6c7-8.6,15.9-16,26.7-22.2
		c10.7-6.2,21.8-9.3,33.3-9.3c10.3,0,19.2,2.8,26.8,8.3c7.5,5.5,12.5,13.6,14.8,24.1h2.1c6.8-8.7,15.4-16.2,25.9-22.4
		c10.5-6.2,21.5-9.3,32.9-9.3c16.4,0,28.2,4.9,35.4,14.6c7.2,9.8,10.7,23.6,10.7,41.6v99.6l27.7,5.3l-2.5,11.3h-77.5l1.2-10.2
		l25.4-6.2v-95.1c0-12.9-3-22.9-8.9-29.9c-5.9-7-14.4-10.5-25.5-10.5c-8.7,0-16.7,2.3-23.8,6.8c-7.2,4.6-13.8,10.1-19.9,16.6v112.1
		l27.1,5.5l-1.6,11.3h-77.7l1.6-10.5l26-6.2v-95.1c0-12.2-3-22.1-9.1-29.5s-14.3-11.1-24.7-11.1c-8.7,0-17.1,2.1-25.2,6.2
		c-8.1,4.1-14.8,9.5-20.3,16.3v113.3l27.9,5.5L3247.8,5188z"/>
	<path d="M3547.4,5193.9c-12.8,0-24.4-3.3-35.1-9.9c-10.6-6.6-19.1-16.5-25.5-29.7c-6.4-13.2-9.6-29.3-9.6-48.3
		c0-18.6,3.6-34.8,10.9-48.6c7.3-13.8,16.8-24.3,28.6-31.5c11.8-7.2,24.1-10.8,37-10.8c15,0,26.9,5,35.6,14.8
		c8.8,9.9,13.2,24.7,13.2,44.5c0,3.1-0.3,7.3-1,12.6c-0.7,5.3-1.4,9.6-2.3,13l-94.5,1.2c0.3,12.9,2.4,24.7,6.5,35.5
		c4.1,10.8,10.3,19.5,18.7,26.2c8.3,6.6,18.6,10,30.9,10c8.2,0,15.6-1,22.3-3.1c6.6-2.1,13.6-5.6,20.9-10.5l3.7,8.6
		c-6.9,8.1-15.6,14.5-26,19.1C3571.4,5191.6,3559.9,5193.9,3547.4,5193.9z M3544.3,5030c-7,0-13.4,2.2-19.2,6.6
		c-5.8,4.4-10.5,11.1-14.1,19.9c-3.6,8.9-5.5,19.7-5.8,32.4l68.6-4.5c0.9-2.6,1.4-7.8,1.4-15.6c0-11.8-2.8-21.3-8.3-28.3
		C3561.3,5033.6,3553.8,5030,3544.3,5030z"/>
	<path d="M3665.8,5192.9c-7.2,0-13.8-1.4-19.9-4.3c-6.1-2.9-11-7-14.7-12.5s-5.6-11.8-5.6-19.1c0-11.1,3.4-20.9,10.3-29.4
		c6.8-8.5,17.2-15.4,31.1-20.5c13.9-5.1,31-8.2,51.5-9.1v-13.1c0-17.8-2.9-31.6-8.7-41.2c-5.8-9.6-15.4-14.5-28.8-14.5
		c-6.6,0-11.7,1.6-15.1,4.7c-3.5,3.1-5.9,7.7-7.3,13.7c-1.4,6-2.5,14.3-3.1,25c-6.1,0-11.3-1.3-15.6-3.8s-6.4-7.1-6.4-13.8
		s3.1-13.1,9.4-19.2c6.2-6.2,14.2-11.2,23.8-14.9c9.6-3.8,19.1-5.7,28.5-5.7c16.8,0,29,4.8,36.7,14.4c7.7,9.6,11.5,24.6,11.5,45
		v68.6c0,6.8,0.4,12.1,1.3,16c0.8,3.9,2.7,7.1,5.5,9.6c2.8,2.5,7.1,4.2,12.8,5.1l11.3,2.1l-1.8,11.7l-3.9,1c-3.9,1-7.2,1.8-10,2.2
		c-2.7,0.5-5.9,0.7-9.4,0.7c-9,0-15.8-2.6-20.4-7.7c-4.6-5.1-6.9-11.3-6.9-18.5v-2.7h-1.6c-2.2,4.3-5.7,8.8-10.5,13.4
		c-4.8,4.6-11,8.6-18.5,11.9C3683.6,5191.3,3675.2,5192.9,3665.8,5192.9z M3718.3,5108c-43.5,4.7-65.2,18.6-65.2,41.6
		c0,4,1,8,3,11.8c2,3.8,5,6.9,8.9,9.3s8.5,3.5,13.7,3.5c8.6,0,16.5-2.2,23.6-6.6c7.2-4.4,12.5-9.8,16-16V5108z"/>
	<path d="M3840,5194.9c-10.3,0-19.5-1.6-27.7-4.8s-14.6-7.6-19.3-13.2c-4.7-5.6-7-11.9-7-18.9c0-5.9,2-10.7,5.9-14.6
		s8.9-6.2,14.8-6.8c3.3,15.4,8.1,26.5,14.5,33.4c6.4,6.9,14.8,10.4,25.2,10.4c8.5,0,15.4-2.2,20.9-6.6c5.5-4.4,8.2-10,8.2-16.8
		c0-4.8-1.5-9.3-4.6-13.5c-3.1-4.2-6.9-7.9-11.5-11.1c-4.6-3.3-11-7.4-19-12.3c-10.2-6.1-18.3-11.5-24.5-16.2
		c-6.2-4.7-11.5-10.4-15.9-17.1c-4.4-6.7-6.6-14.4-6.6-22.9c0-8.1,2-15.9,6.1-23.4c4-7.5,10.1-13.7,18.3-18.6
		c8.1-4.8,18.1-7.2,29.8-7.2c8.5,0,16.1,1.5,22.9,4.5c6.8,3,12.2,7.1,16.1,12.3c3.9,5.2,5.9,11.1,5.9,17.6c0,7.2-1.9,12.6-5.6,16.3
		s-8.7,5.8-14.9,6.3l-1.6-7.6c-3.1-13.8-7.3-23.4-12.4-28.8c-5.1-5.4-11.1-8.1-17.9-8.1c-7.9,0-14.3,2.2-18.9,6.7s-7,10.4-7,17.7
		c0,5.7,1.7,11,5.2,15.8c3.4,4.8,7.7,9.1,12.9,12.8c5.1,3.7,12.1,8.2,20.8,13.4c9.9,6,17.9,11.3,23.9,15.8
		c6.1,4.6,11.2,10,15.4,16.2c4.2,6.2,6.3,13.3,6.3,21.3c0,9.4-2.7,17.7-8.2,25c-5.5,7.3-12.7,13-21.7,17.1S3850,5194.9,3840,5194.9z
		"/>
	<path d="M3943.5,5040.2l-28.3-8.4l1.6-10.4l48.6-4.1l3.1,3.3v105.5c0,30.1,11.2,45.1,33.6,45.1c8.1,0,15.5-1.9,22.4-5.7
		c6.8-3.8,12.8-8.5,17.9-14.1v-110.7l-30.7-7l1.2-11.7l52-4.7l2.7,3.3v123.8c0,9.8,1.4,16.8,4.1,21.2c2.7,4.4,7.8,7.3,15.2,8.7
		l10.5,2.3l-1.4,11.5c-4.6,1.3-8.7,2.3-12.3,2.9c-3.6,0.6-7.7,1-12.3,1c-8.5,0-15-2.6-19.7-7.8s-7-11.8-7-19.7v-2.3h-2.3
		c-6.6,9.9-14.7,17.5-24.1,22.7c-9.4,5.2-19.5,7.8-30.2,7.8c-29.7,0-44.5-19.5-44.5-58.4V5040.2z"/>
	<path d="M4217.6,5188H4117l1.6-10.2l30.3-6.6v-131.1l-31.2-7.6l1.8-10.2l50.6-5.7l3.1,3.3l-2.7,47.9h2.7c3.1-11.1,7.1-20.7,12-29
		c4.9-8.3,10.4-14.6,16.4-19c6.1-4.4,12.2-6.6,18.5-6.6c6.6,0,11.9,1.8,15.8,5.5c3.9,3.6,5.9,8.1,5.9,13.3c0,3.3-1.1,6.5-3.2,9.8
		c-2.1,3.3-5.1,6.2-8.9,8.8c-6.6-6.8-13.6-10.2-20.9-10.2c-5.2,0-10.2,2.5-14.9,7.6c-4.8,5.1-8.8,11.9-12.2,20.6
		c-3.4,8.7-5.8,18.3-7.2,28.8v73.4l44.9,5.3L4217.6,5188z"/>
	<path d="M4331,5193.9c-12.8,0-24.4-3.3-35.1-9.9c-10.6-6.6-19.1-16.5-25.5-29.7c-6.4-13.2-9.6-29.3-9.6-48.3
		c0-18.6,3.6-34.8,10.9-48.6c7.3-13.8,16.8-24.3,28.6-31.5c11.8-7.2,24.1-10.8,37-10.8c15,0,26.9,5,35.6,14.8
		c8.8,9.9,13.2,24.7,13.2,44.5c0,3.1-0.3,7.3-1,12.6c-0.7,5.3-1.4,9.6-2.3,13l-94.5,1.2c0.3,12.9,2.4,24.7,6.5,35.5
		c4.1,10.8,10.3,19.5,18.7,26.2c8.3,6.6,18.6,10,30.9,10c8.2,0,15.6-1,22.3-3.1c6.6-2.1,13.6-5.6,20.9-10.5l3.7,8.6
		c-6.9,8.1-15.6,14.5-26,19.1C4355,5191.6,4343.5,5193.9,4331,5193.9z M4327.9,5030c-7,0-13.4,2.2-19.2,6.6
		c-5.8,4.4-10.5,11.1-14.1,19.9c-3.6,8.9-5.5,19.7-5.8,32.4l68.6-4.5c0.9-2.6,1.4-7.8,1.4-15.6c0-11.8-2.8-21.3-8.3-28.3
		C4344.9,5033.6,4337.4,5030,4327.9,5030z"/>
	<path d="M3538.7,5529.2l0.8-11.7l53.5-8.2v-186.9h-50.6l1-11.9l75.4-12.5h5.3v212.3l52.3,5.5l-1.8,13.5H3538.7z"/>
	<path d="M3692.5,5599.9l90.4-312.3l20.9-1.2l-91,312.3L3692.5,5599.9z"/>
	<path d="M3824.3,5458.9l-3.7-10.5l120.5-151.6l9.6,2.9c-1.2,23.2-1.8,55.3-1.8,96.3v43.2h49.8l-3.1,20.5h-46.7v52.3l40.2,4.9
		l-2.1,12.5h-115.6l1.4-11.1l48.2-7.4v-52H3824.3z M3849.5,5439.2h70.7v-94.9L3849.5,5439.2z"/>
	<path d="M3331.8,5869.2c-10.3,0-19.5-1.6-27.7-4.8s-14.6-7.6-19.3-13.2c-4.7-5.6-7-11.9-7-18.9c0-5.9,2-10.7,5.9-14.6
		s8.9-6.2,14.8-6.8c3.3,15.4,8.1,26.5,14.5,33.4c6.4,6.9,14.8,10.4,25.2,10.4c8.5,0,15.4-2.2,20.9-6.6c5.5-4.4,8.2-10,8.2-16.8
		c0-4.8-1.5-9.3-4.6-13.5c-3.1-4.2-6.9-7.9-11.5-11.1c-4.6-3.3-11-7.4-19-12.3c-10.2-6.1-18.3-11.5-24.5-16.2
		c-6.2-4.7-11.5-10.4-15.9-17.1c-4.4-6.7-6.6-14.4-6.6-22.9c0-8.1,2-15.9,6.1-23.4c4-7.5,10.1-13.7,18.3-18.6
		c8.1-4.8,18.1-7.2,29.8-7.2c8.5,0,16.1,1.5,22.9,4.5c6.8,3,12.2,7.1,16.1,12.3c3.9,5.2,5.9,11.1,5.9,17.6c0,7.2-1.9,12.6-5.6,16.3
		s-8.7,5.8-14.9,6.3l-1.6-7.6c-3.1-13.8-7.3-23.4-12.4-28.8c-5.1-5.4-11.1-8.1-17.9-8.1c-7.9,0-14.3,2.2-18.9,6.7s-7,10.4-7,17.7
		c0,5.7,1.7,11,5.2,15.8c3.4,4.8,7.7,9.1,12.9,12.8c5.1,3.7,12.1,8.2,20.8,13.4c9.9,6,17.9,11.3,23.9,15.8
		c6.1,4.6,11.2,10,15.4,16.2c4.2,6.2,6.3,13.3,6.3,21.3c0,9.4-2.7,17.7-8.2,25c-5.5,7.3-12.7,13-21.7,17.1
		S3341.8,5869.2,3331.8,5869.2z"/>
	<path d="M3480.6,5868.2c-14.6,0-27.3-3.8-38.1-11.3c-10.8-7.5-19.1-17.8-24.8-30.7c-5.7-12.9-8.6-27.2-8.6-43
		c0-18.8,3.5-35.3,10.5-49.6c7-14.3,16.5-25.4,28.4-33.1c11.9-7.7,25-11.6,39.2-11.6c10.4,0,19,1.5,25.7,4.5
		c6.7,3,11.6,6.9,14.7,11.7c3.1,4.8,4.7,10,4.7,15.4c0,10.8-6.2,17.3-18.6,19.3c-4-11.3-8.9-20.1-14.5-26.4
		c-5.6-6.2-12.8-9.4-21.5-9.4c-7.8,0-14.8,2.5-21.1,7.6s-11.2,12.5-14.8,22.2c-3.6,9.7-5.5,21.3-5.5,34.7c0,15.2,2.3,28.9,6.8,41.1
		c4.6,12.2,11.1,21.7,19.7,28.7c8.6,7,18.8,10.4,30.5,10.4c15.9,0,30.1-5.1,42.8-15.4l4.1,9c-3.4,4.6-8.2,8.8-14.5,12.7
		s-13.3,7.1-21.3,9.5C3496.7,5867,3488.7,5868.2,3480.6,5868.2z"/>
	<path d="M3658.4,5862.3h-100.6l1.6-10.2l30.3-6.6v-131.1l-31.2-7.6l1.8-10.2l50.6-5.7l3.1,3.3l-2.7,47.9h2.7
		c3.1-11.1,7.1-20.7,12-29c4.9-8.3,10.4-14.6,16.4-19c6.1-4.4,12.2-6.6,18.5-6.6c6.6,0,11.9,1.8,15.8,5.5c3.9,3.6,5.9,8.1,5.9,13.3
		c0,3.3-1.1,6.5-3.2,9.8c-2.1,3.3-5.1,6.2-8.9,8.8c-6.6-6.8-13.6-10.2-20.9-10.2c-5.2,0-10.2,2.5-14.9,7.6
		c-4.8,5.1-8.8,11.9-12.2,20.6c-3.4,8.7-5.8,18.3-7.2,28.8v73.4l44.9,5.3L3658.4,5862.3z"/>
	<path d="M3771.9,5868.2c-12.8,0-24.4-3.3-35.1-9.9c-10.6-6.6-19.1-16.5-25.5-29.7c-6.4-13.2-9.6-29.3-9.6-48.3
		c0-18.6,3.6-34.8,10.9-48.6c7.3-13.8,16.8-24.3,28.6-31.5c11.8-7.2,24.1-10.8,37-10.8c15,0,26.9,5,35.6,14.8
		c8.8,9.9,13.2,24.7,13.2,44.5c0,3.1-0.3,7.3-1,12.6c-0.7,5.3-1.4,9.6-2.3,13l-94.5,1.2c0.3,12.9,2.4,24.7,6.5,35.5
		c4.1,10.8,10.3,19.5,18.7,26.2c8.3,6.6,18.6,10,30.9,10c8.2,0,15.6-1,22.3-3.1c6.6-2.1,13.6-5.6,20.9-10.5l3.7,8.6
		c-6.9,8.1-15.6,14.5-26,19.1C3795.8,5865.9,3784.4,5868.2,3771.9,5868.2z M3768.7,5704.3c-7,0-13.4,2.2-19.2,6.6
		c-5.8,4.4-10.5,11.1-14.1,19.9c-3.6,8.9-5.5,19.7-5.8,32.4l68.6-4.5c0.9-2.6,1.4-7.8,1.4-15.6c0-11.8-2.8-21.3-8.3-28.3
		C3785.8,5707.9,3778.2,5704.3,3768.7,5704.3z"/>
	<path d="M3849.2,5704.5l1.4-10.7h74.8l-1.4,10.5l-26.4,6.2l23.6,81.4l7.2,30.7l31.8-116.2l22.3-3.7l27,92.2l6.2,29.7l31.4-113.7
		l-29.5-6.4l1.4-10.7h69.5l-1.6,10.5l-21.1,6.2l-43.4,153.5l-16.6,3.1l-37.3-127.9l-33.6,124.8l-17,3.1l-46.3-156.2L3849.2,5704.5z"
		/>
	<path d="M4160.1,5869.2c-10.3,0-19.5-1.6-27.7-4.8s-14.6-7.6-19.3-13.2c-4.7-5.6-7-11.9-7-18.9c0-5.9,2-10.7,5.9-14.6
		s8.9-6.2,14.8-6.8c3.3,15.4,8.1,26.5,14.5,33.4c6.4,6.9,14.8,10.4,25.2,10.4c8.5,0,15.4-2.2,20.9-6.6c5.5-4.4,8.2-10,8.2-16.8
		c0-4.8-1.5-9.3-4.6-13.5c-3.1-4.2-6.9-7.9-11.5-11.1c-4.6-3.3-11-7.4-19-12.3c-10.2-6.1-18.3-11.5-24.5-16.2
		c-6.2-4.7-11.5-10.4-15.9-17.1c-4.4-6.7-6.6-14.4-6.6-22.9c0-8.1,2-15.9,6.1-23.4c4-7.5,10.1-13.7,18.3-18.6
		c8.1-4.8,18.1-7.2,29.8-7.2c8.5,0,16.1,1.5,22.9,4.5c6.8,3,12.2,7.1,16.1,12.3c3.9,5.2,5.9,11.1,5.9,17.6c0,7.2-1.9,12.6-5.6,16.3
		s-8.7,5.8-14.9,6.3l-1.6-7.6c-3.1-13.8-7.3-23.4-12.4-28.8c-5.1-5.4-11.1-8.1-17.9-8.1c-7.9,0-14.3,2.2-18.9,6.7s-7,10.4-7,17.7
		c0,5.7,1.7,11,5.2,15.8c3.4,4.8,7.7,9.1,12.9,12.8c5.1,3.7,12.1,8.2,20.8,13.4c9.9,6,17.9,11.3,23.9,15.8
		c6.1,4.6,11.2,10,15.4,16.2c4.2,6.2,6.3,13.3,6.3,21.3c0,9.4-2.7,17.7-8.2,25c-5.5,7.3-12.7,13-21.7,17.1
		S4170.2,5869.2,4160.1,5869.2z"/>
</g>
<polyline class="st11" points="1634.7,1584.9 1634.7,617.1 5716.8,617.1 5741.2,2545.5 "/>
<g id="TORNLLOCOLG1_00000047751883990000180490000013571902833252265097_">
	<path d="M4524.7,9003.2c-6.2,58.7,10.1,116.6-22.9,166.7c-53.9-39.5-45.8-106.7-68.9-166c-5.4,59.3,10.6,116.4-23.3,165.8
		c-55-40.2-45.4-108.4-69-166.3c-5.7,57.4,11.3,114.5-23.8,166.9c-14.9-18.3-34.6-32.7-40.2-58.2c-7.7-34.8-16.4-69.4-26.5-104.1
		c-8.3,54,9.7,111.7-24.5,161.4c-55-39.8-45.2-107.4-68.9-165.6c-6.9,58.3,11,116.4-23,165.9c-54.2-39.2-45.6-105.8-70.2-160.2
		c0,16.8,0,33.5,0,50.3c-0.1,16.9,0.5,33.9-0.7,50.7c-0.4,5.9-5.2,11.6-7.9,17.4c-2.4-0.9-4.7-1.9-7.1-2.8c0-52.7-2-105.6,1.1-158.2
		c1-17.6,14.9-34.4,24.2-54.5c10.1,11.8,18.6,23.4,28.9,33.2c5.4,5.2,13.5,8.6,21,10.3c18,4.3,29.3-2.7,32.5-21.9
		c1.1-6.7,4.8-13.1,8.4-22.5c10.7,12.4,19.6,24,29.8,34.1c4.9,4.9,12.2,9.1,18.9,10.2c17.2,2.9,32.1,0.6,34.8-21.7
		c0.8-6.7,4.9-13,8.6-22.5c10.6,12.4,19.3,23.9,29.4,33.9c4.9,4.9,12.1,8.8,18.9,10.3c19.2,4.2,32.2-2.4,35.6-23.6
		c1-6,4.7-11.5,8.4-20.2c10.8,12.5,19.5,23.9,29.7,33.9c5,4.9,12.3,8.6,19.1,10c18.1,3.7,31.4-1.2,34.5-22.3
		c0.9-6.6,4.9-12.7,8.7-21.8c11.1,12.9,19.8,24.5,30.1,34.5c4.9,4.8,12.3,8.2,19.2,9.7c18.7,4.2,30.9-2.6,34.3-22.8
		c1.1-6.5,4.4-12.7,7.6-21.2c5.7,6.1,10.6,10.1,14,15.2c14.2,21.2,31.4,35.3,59.1,29.3c3.6-0.8,8.4,0.9,11.9,2.9
		c49.4,26.8,98.6,53.8,151.2,82.6c-40.5,22.3-77.5,44.2-116,63.3c-28.5,14.1-52.1,30.3-54.6,66.7
		C4538.6,9130,4548.1,9061.9,4524.7,9003.2z"/>
	<path d="M4028,9247.1c-49.7,9.9-87.1-7-113.4-49.4c-22.6-36.5-35-76.1-37.7-121.3c29.9,0,58.4,0,88.3,0c0-23.6,0-44.9,0-68.3
		c-29.4,0-57.9,0-89.1,0c6.6-60,21.7-113.5,66.8-154.1c24.1-21.8,53.5-22.1,85.1-19.3C4028,8971.8,4028,9108.7,4028,9247.1z"/>
</g>
<line class="st13" x1="1027" y1="12571.7" x2="9761.1" y2="12540.7"/>
<line class="st14" x1="1190.3" y1="13469.1" x2="9562.5" y2="13443.7"/>
<g>
	<path class="st15" d="M685,12402c-0.9,38.6-20.6,853.7-20.6,853.7s-20.6,277.7,149.1,342c156.9-10.3,424.3-48.9,424.3-48.9
		s2.6-54-28.3-66.9s-113.1-30.9-120.9-174.9c-7.7-144-2.6-398.6-2.6-398.6s-2.6-69.4-87.4-66.9c-84.9,2.6-185.1-2.6-185.1-2.6
		s-66.9-270,213.4-267.4C996.2,11877.4,663.7,12240,685,12402z"/>
	<path class="st16" d="M813.6,12839.1c0,0-77.1,23.1-83.6-74.6c2.6-87.4,11.6-385.7,11.6-385.7s57.9-225,190.3-132.4"/>
	<ellipse class="st16" cx="894.8" cy="12423.5" rx="56.1" ry="118.6"/>
</g>
<g>
	<path class="st17" d="M10133,12363.7c1,38.6,22.4,853.7,22.4,853.7s22.4,277.7-162.2,342c-170.6-10.3-461.4-48.9-461.4-48.9
		s-2.8-54,30.8-66.9c33.6-12.9,123-30.9,131.4-174.9s2.8-398.6,2.8-398.6s2.8-69.4,95.1-66.9c92.3,2.6,201.4-2.6,201.4-2.6
		s72.7-270-232.1-267.4C9794.7,11839.2,10156.3,12201.7,10133,12363.7z"/>
	<path class="st18" d="M9993.2,12800.9c0,0,83.9,23.1,90.9-74.6c-2.8-87.4-12.6-385.7-12.6-385.7s-62.9-225-206.9-132.4"/>
	<ellipse class="st18" cx="9905" cy="12385.3" rx="61" ry="118.6"/>
</g>
<line class="st12" x1="1244.4" y1="12841.5" x2="9564.1" y2="12803.3"/>
<path class="st19" d="M903.3,12483.4l1.8-26c0,0,2.2-11.9,11-10.8l12.1,1c0,0,1.8,0,2.1-3.7s1.6-23,1.6-23s0.1-1.5-1.1-2.7
	c-1.4-0.1-15.2-1.3-15.2-1.3s-6.6-2.2-6.7-13.1c0.6-10.4,1.8-25.9,1.8-25.9s-0.2-3.1-1.7-3.1c-1.5,0-13.9-1.2-13.9-1.2
	s-1.1-0.2-1.7,2.1c-0.2,2.6-0.9,13.1-0.9,13.1l-1,13.4c0,0-1.7,11.1-8.4,11.8c-6.7,0.1-15.5-1-15.5-1s-1,0.3-1.5,2.4
	c-0.2,2.3-1.2,17.4-1.2,17.4l-0.5,6.7c0,0,0,2.4,1.1,2.7c1.1,0.2,15.8,1.6,15.8,1.6s5.8,0.6,6.3,13.7c-0.7,12.2-1.8,25.3-1.8,25.3
	s-0.4,2.2,1.3,3c1.8,0.4,14.1,1.1,14.5,1.2C903,12486.2,903.3,12483.4,903.3,12483.4z"/>
<path class="st19" d="M9910.1,12438.4l1.8-26c0,0,2.2-11.9,11-10.8l12.1,1c0,0,1.8,0,2.1-3.7c0.3-3.6,1.6-23,1.6-23s0.1-1.5-1.1-2.7
	c-1.4-0.1-15.2-1.3-15.2-1.3s-6.6-2.2-6.7-13.1c0.6-10.4,1.8-25.9,1.8-25.9s-0.2-3.1-1.7-3.1c-1.5,0-13.9-1.2-13.9-1.2
	s-1.1-0.2-1.7,2.1c-0.2,2.6-0.9,13.1-0.9,13.1l-1,13.4c0,0-1.7,11.1-8.4,11.8c-6.7,0.1-15.5-1-15.5-1s-1,0.3-1.5,2.4
	c-0.2,2.3-1.2,17.4-1.2,17.4l-0.5,6.7c0,0,0,2.4,1.1,2.7c1.1,0.2,15.8,1.6,15.8,1.6s5.8,0.6,6.3,13.7c-0.7,12.2-1.8,25.3-1.8,25.3
	s-0.4,2.2,1.3,3c1.8,0.4,14.1,1.1,14.5,1.2C9909.9,12441.2,9910.1,12438.4,9910.1,12438.4z"/>
<line class="st20" x1="1243.5" y1="12373.6" x2="9531.7" y2="12373.6"/>
<polygon points="1285.1,12287.7 1285.1,12459.8 1182.1,12373.7 "/>
<polygon points="9480.2,12459.7 9480.2,12287.6 9583.2,12373.6 "/>
<g>
	<path d="M5059.6,12062.2l5.5-68.9h149v10.2l-84.6,227.1l-31.1-3.3l92.6-207.6h-107.6l-13.3,44.3L5059.6,12062.2z"/>
	<path d="M5289.7,12230.5c-8.9,0-17.3-1.1-25.3-3.3c-8-2.2-14.9-5.2-20.6-8.9c-5.7-3.7-9.8-7.6-12.3-11.8l8.8-51.4l13.1,2.1l2,39.8
		c3,5.2,8,9.8,15.1,13.9c7.1,4,14.7,6.1,22.9,6.1c9.9,0,18.6-2.1,26.2-6.2c7.5-4.1,13.4-9.9,17.6-17.5c4.2-7.5,6.2-16.3,6.2-26.4
		c0-9.8-2.8-18.5-8.5-26.2c-5.7-7.7-13.5-13.7-23.5-18.2c-10-4.4-21.2-6.8-33.6-7l-1.2-9.8c15-6.6,28.3-14.9,40-24.8
		c11.7-9.9,17.6-22.7,17.6-38.5c0-6.8-1.3-13.3-4-19.5c-2.7-6.2-6.7-11.3-12-15.2c-5.3-3.9-11.9-5.9-19.5-5.9
		c-12.9,0-23.9,5.2-33,15.6l-8.4,43.8l-12.5-2.1l-1.4-48.4c6-5.7,14.8-11,26.5-15.9c11.7-4.9,24.6-7.3,38.8-7.3
		c10.9,0,20.8,2,29.7,6.1c8.9,4,15.8,9.8,20.9,17.2s7.6,16.1,7.6,26c0,9.9-2.6,19-7.8,27.2c-5.2,8.3-11.8,15.3-19.7,21
		c-7.9,5.7-16.3,10.2-25,13.5v2c11.7,1.7,22.2,5,31.5,10c9.3,5,16.6,11.4,22,19.2c5.3,7.9,8,16.9,8,27.1c0,13.8-4,26.3-12,37.6
		c-8,11.3-18.6,20.1-31.8,26.6C5318.8,12227.3,5304.7,12230.5,5289.7,12230.5z"/>
	<path d="M5528.8,12230c-14.6,0-27.3-3.8-38.1-11.3c-10.8-7.5-19.1-17.8-24.8-30.7c-5.7-12.9-8.6-27.2-8.6-43
		c0-18.8,3.5-35.3,10.5-49.6c7-14.3,16.5-25.4,28.4-33.1c11.9-7.7,25-11.6,39.2-11.6c10.4,0,19,1.5,25.7,4.5
		c6.7,3,11.6,6.9,14.7,11.7c3.1,4.8,4.7,10,4.7,15.4c0,10.8-6.2,17.3-18.6,19.3c-4-11.3-8.9-20.1-14.5-26.4
		c-5.6-6.2-12.8-9.4-21.5-9.4c-7.8,0-14.8,2.5-21.1,7.6s-11.2,12.5-14.8,22.2c-3.6,9.7-5.5,21.3-5.5,34.7c0,15.2,2.3,28.9,6.8,41.1
		c4.6,12.2,11.1,21.7,19.7,28.7c8.6,7,18.8,10.4,30.5,10.4c15.9,0,30.1-5.1,42.8-15.4l4.1,9c-3.4,4.6-8.2,8.8-14.5,12.7
		s-13.3,7.1-21.3,9.5C5544.8,12228.7,5536.8,12230,5528.8,12230z"/>
	<path d="M5688.9,12224.1h-83l1.8-10.5l29.7-6.2V12077l-30.7-7.8l1.2-10.2l52.5-5.9l2.3,2.7l-2.1,26h1.6c7-8.6,15.9-16,26.7-22.2
		c10.7-6.2,21.8-9.3,33.3-9.3c10.3,0,19.2,2.8,26.8,8.3c7.5,5.5,12.5,13.6,14.8,24.1h2.1c6.8-8.7,15.4-16.2,25.9-22.4
		c10.5-6.2,21.5-9.3,32.9-9.3c16.4,0,28.2,4.9,35.4,14.6c7.2,9.8,10.7,23.6,10.7,41.6v99.6l27.7,5.3l-2.5,11.3h-77.5l1.2-10.2
		l25.4-6.2v-95.1c0-12.9-3-22.9-8.9-29.9c-5.9-7-14.4-10.5-25.5-10.5c-8.7,0-16.7,2.3-23.8,6.8c-7.2,4.6-13.8,10.1-19.9,16.6v112.1
		l27.1,5.5l-1.6,11.3h-77.7l1.6-10.5l26-6.2v-95.1c0-12.2-3-22.1-9.1-29.5s-14.3-11.1-24.7-11.1c-8.7,0-17.1,2.1-25.2,6.2
		c-8.1,4.1-14.8,9.5-20.3,16.3v113.3l27.9,5.5L5688.9,12224.1z"/>
</g>
<line class="st21" x1="6024.9" y1="8791" x2="10542.8" y2="8791"/>
<g>
	<path d="M5968,2627.8l40.5-35.4c17.1-14.8,30-27.1,38.9-36.9c8.8-9.7,15.6-19.9,20.4-30.6c4.8-10.7,7.2-22.3,7.2-34.9
		c0-13.7-3.5-25.2-10.6-34.6c-7.1-9.3-17-14-29.7-14c-18.1,0-31.1,5.5-39.1,16.4l-7.6,37.1l-6.1-1.2l1-42.5
		c5.3-4.8,12.9-9.2,22.8-13.2c9.9-4,21-6,33.2-6c17.1,0,30.9,4.9,41.5,14.8c10.6,9.8,15.9,24.8,15.9,44.8c0,6.9-0.8,13.4-2.5,19.6
		c-1.7,6.2-4.3,12.3-7.8,18.2c-3.5,5.9-7.7,11.8-12.6,17.7c-4.9,5.9-10.9,12.1-17.7,18.5c-6.9,6.4-14.3,13.1-22.3,20
		c-8,6.9-17.1,14.5-27.1,22.9c-0.7,0.5-1.2,0.8-1.5,1.2l-13.8,11.6h91.7l14.7-45.4l6.7,1l-7.8,58.7H5969L5968,2627.8z"/>
	<path d="M6190.5,2622.7l5.6-53.1l9.3,1.3l1.3,42c3.9,5.1,10.6,9.1,20,12c9.4,2.9,19.4,4.4,29.9,4.4c12.6,0,23.3-3.3,32.2-10
		c8.9-6.7,13.3-16,13.3-27.9c0-6.7-1.9-13.1-5.7-19.1c-3.8-6-8.6-11.3-14.6-15.9c-6-4.6-12.6-9.2-19.8-13.7
		c-7.3-4.5-14.5-9.1-21.7-13.7c-7.2-4.7-13.8-9.6-19.7-14.7c-6-5.1-10.8-11.1-14.6-18c-3.8-6.9-5.6-14.4-5.6-22.3
		c0-10.7,3-20.1,9-28.3c6-8.2,13.5-14.3,22.3-18.3c8.9-4,18.2-6,28-6c9.8,0,19.2,1,28.3,3c9.1,2,16.4,4.9,21.9,8.8l-3.5,55.7
		l-9.4-1.2l-2.9-42.7c-3.4-4-9-7.4-16.8-10c-7.8-2.6-15.7-4-23.7-4c-10.3,0-19.1,3.2-26.1,9.5c-7.1,6.4-10.6,14.9-10.6,25.6
		c0,7.2,1.9,14,5.7,20.4c3.8,6.4,8.8,12,14.8,16.9c6.1,4.8,12.8,9.6,20.2,14.3c7.4,4.7,14.8,9.3,22.2,13.9
		c7.4,4.6,14.2,9.4,20.2,14.3c6.1,4.9,11,10.7,14.8,17.2c3.8,6.5,5.7,13.4,5.7,20.7c0,16.3-6.6,29.8-19.9,40.4
		c-13.3,10.6-30.9,15.9-53,15.9c-12,0-23.1-1.6-33.3-4.8C6204.3,2631.9,6196.3,2627.8,6190.5,2622.7z"/>
	<path d="M6332.8,2432.3l1-6.6h77.1l-1.2,6.6l-29.5,3.9v188.4l32.5,3.2l-1.5,7.8h-76.7l0.8-7.1l26.6-5.1v-186.9L6332.8,2432.3z"/>
	<path d="M6430.1,2635.6l1.3-7.1l28.5-5.1v-182.3l-29-3.7l1.7-6.1c34.3-5.4,60.9-8.1,79.9-8.1c16,0,30.3,1.8,43,5.3
		c12.7,3.5,23.3,8.4,31.7,14.6c8.4,6.2,15.5,13.6,21.1,22.3c5.6,8.7,9.7,17.9,12.1,27.8c2.5,9.9,3.7,20.5,3.7,31.9
		c0,11.8-1.4,23-4.2,33.6c-2.8,10.6-7.4,20.7-13.7,30.1c-6.3,9.4-14.1,17.6-23.4,24.5c-9.3,6.9-20.7,12.3-34.4,16.3
		c-13.7,4-28.9,6-45.8,6H6430.1z M6477,2626.4h30.4c30.4,0,54.4-8.1,72.1-24.4c17.7-16.2,26.6-39.1,26.6-68.6
		c0-32.7-8.8-57.8-26.4-75.3c-17.6-17.5-42.6-26.2-75-26.2c-13.4,0-22.6,1.1-27.7,3.2V2626.4z"/>
	<path d="M6642,2432.8l1.2-7.1h152.8l-5.2,53.8l-7.8-1l-3.2-44.2h-90.1v90.1h56.5l6.2-23.4l9.1-1.3l-5.6,65.6l-8.6,1.5l-2.7-33.2
		h-55v92.9h94.8l12.5-45.4l6.9,1.7l-5.1,52.8h-156.3l1-7.1l28.7-5.1v-186L6642,2432.8z"/>
	<path d="M6819.9,2622.7l5.6-53.1l9.3,1.3l1.3,42c3.9,5.1,10.6,9.1,20,12c9.4,2.9,19.4,4.4,29.9,4.4c12.6,0,23.3-3.3,32.2-10
		c8.9-6.7,13.3-16,13.3-27.9c0-6.7-1.9-13.1-5.7-19.1c-3.8-6-8.6-11.3-14.6-15.9c-6-4.6-12.6-9.2-19.8-13.7
		c-7.3-4.5-14.5-9.1-21.7-13.7c-7.2-4.7-13.8-9.6-19.7-14.7c-6-5.1-10.8-11.1-14.6-18c-3.8-6.9-5.6-14.4-5.6-22.3
		c0-10.7,3-20.1,9-28.3c6-8.2,13.5-14.3,22.3-18.3c8.9-4,18.2-6,28-6c9.8,0,19.2,1,28.3,3c9.1,2,16.4,4.9,21.9,8.8l-3.5,55.7
		l-9.4-1.2l-2.9-42.7c-3.4-4-9-7.4-16.8-10c-7.8-2.6-15.7-4-23.7-4c-10.3,0-19.1,3.2-26.1,9.5c-7.1,6.4-10.6,14.9-10.6,25.6
		c0,7.2,1.9,14,5.7,20.4c3.8,6.4,8.8,12,14.8,16.9c6.1,4.8,12.8,9.6,20.2,14.3c7.4,4.7,14.8,9.3,22.2,13.9
		c7.4,4.6,14.2,9.4,20.2,14.3c6.1,4.9,11,10.7,14.8,17.2c3.8,6.5,5.7,13.4,5.7,20.7c0,16.3-6.6,29.8-19.9,40.4
		c-13.3,10.6-30.9,15.9-53,15.9c-12,0-23.1-1.6-33.3-4.8C6833.7,2631.9,6825.7,2627.8,6819.9,2622.7z"/>
	<path d="M7033.1,2622.7l5.6-53.1l9.3,1.3l1.3,42c3.9,5.1,10.6,9.1,20,12c9.4,2.9,19.4,4.4,29.9,4.4c12.6,0,23.3-3.3,32.2-10
		c8.9-6.7,13.3-16,13.3-27.9c0-6.7-1.9-13.1-5.7-19.1c-3.8-6-8.6-11.3-14.6-15.9c-6-4.6-12.6-9.2-19.8-13.7
		c-7.3-4.5-14.5-9.1-21.7-13.7c-7.2-4.7-13.8-9.6-19.7-14.7c-6-5.1-10.8-11.1-14.6-18c-3.8-6.9-5.6-14.4-5.6-22.3
		c0-10.7,3-20.1,9-28.3c6-8.2,13.5-14.3,22.3-18.3c8.9-4,18.2-6,28-6c9.8,0,19.2,1,28.3,3c9.1,2,16.4,4.9,21.9,8.8l-3.5,55.7
		l-9.4-1.2l-2.9-42.7c-3.4-4-9-7.4-16.8-10c-7.8-2.6-15.7-4-23.7-4c-10.3,0-19.1,3.2-26.1,9.5c-7.1,6.4-10.6,14.9-10.6,25.6
		c0,7.2,1.9,14,5.7,20.4c3.8,6.4,8.8,12,14.8,16.9c6.1,4.8,12.8,9.6,20.2,14.3c7.4,4.7,14.8,9.3,22.2,13.9
		c7.4,4.6,14.2,9.4,20.2,14.3c6.1,4.9,11,10.7,14.8,17.2c3.8,6.5,5.7,13.4,5.7,20.7c0,16.3-6.6,29.8-19.9,40.4
		c-13.3,10.6-30.9,15.9-53,15.9c-12,0-23.1-1.6-33.3-4.8C7046.9,2631.9,7038.9,2627.8,7033.1,2622.7z"/>
	<path d="M7175.2,2432.3l0.7-6.6h76.6l-0.7,6.6l-28.5,3.9v117.5c0,13.8,1.6,25.7,4.7,35.6c3.1,9.9,7.7,17.6,13.7,23.2
		c6,5.6,12.9,9.6,20.7,12.1s16.8,3.8,27,3.8c41.6,0,62.4-22.9,62.4-68.6v-123.3l-31.4-4.2l0.8-6.6h71.7l-1.3,6.6l-28,3.9l-0.5,116.7
		c-0.1,29.7-6.4,51.6-18.8,65.9c-12.4,14.2-32.6,21.3-60.5,21.3c-8.9,0-16.9-0.7-24-2c-7.1-1.3-14.2-3.8-21.1-7.4
		c-6.9-3.6-12.7-8.3-17.4-14.3c-4.7-5.9-8.4-13.7-11.3-23.4c-2.9-9.7-4.3-20.9-4.3-33.7v-122.8L7175.2,2432.3z"/>
	<path d="M7404.8,2635.6l0.8-7.1l26.6-5.1v-182.3l-27.3-3.7l1.5-6.1c2.8-0.4,7.9-1.3,15.3-2.5c7.4-1.2,12.9-2.1,16.7-2.6
		c3.8-0.5,9-1,15.8-1.6c6.7-0.6,13.5-0.8,20.4-0.8c54.1,0,81.1,20.9,81.1,62.6c0,10.3-2.3,20-6.8,29c-4.6,9-10.6,16.6-18.1,22.7
		c-7.5,6.1-16.2,10.9-26.1,14.4c-9.8,3.5-20,5.2-30.4,5.2c-4,0-6.9-0.1-8.4-0.3l-1.7-7.1l9.1-0.5c11.2-0.4,21.1-2.3,29.4-5.6
		c8.4-3.3,15-7.6,19.9-13c4.9-5.4,8.5-11.4,10.9-18c2.4-6.6,3.5-13.7,3.5-21.5c0-18.3-5.8-33-17.3-44c-11.5-11-28.3-16.5-50.3-16.5
		l-18.6,1v192.3l39.5,3.4l-1.3,7.8H7404.8z"/>
	<path d="M7573.2,2635.6l0.8-7.1l26.6-5.1v-182.3l-27.3-3.7l1.5-6.1c2.8-0.4,7.9-1.3,15.3-2.5c7.4-1.2,12.9-2.1,16.7-2.6
		c3.8-0.5,9-1,15.8-1.6c6.7-0.6,13.5-0.8,20.4-0.8c54.1,0,81.1,20.9,81.1,62.6c0,10.3-2.3,20-6.8,29c-4.6,9-10.6,16.6-18.1,22.7
		c-7.5,6.1-16.2,10.9-26.1,14.4c-9.8,3.5-20,5.2-30.4,5.2c-4,0-6.9-0.1-8.4-0.3l-1.7-7.1l9.1-0.5c11.2-0.4,21.1-2.3,29.4-5.6
		c8.4-3.3,15-7.6,19.9-13c4.9-5.4,8.5-11.4,10.9-18c2.4-6.6,3.5-13.7,3.5-21.5c0-18.3-5.8-33-17.3-44c-11.5-11-28.3-16.5-50.3-16.5
		l-18.6,1v192.3l39.5,3.4l-1.3,7.8H7573.2z"/>
	<path d="M7742.4,2531c0-21.6,4.2-40.7,12.5-57.3c8.3-16.6,20.4-29.6,36.2-39c15.8-9.3,34.2-14,55.1-14c18.9,0,35.1,4.8,48.7,14.4
		c13.5,9.6,23.6,22.5,30.2,38.8c6.6,16.2,9.9,34.9,9.9,55.9c0,10.6-1.2,21-3.7,31.3c-2.5,10.3-6.4,20.2-11.9,29.8
		c-5.5,9.6-12,18-19.7,25.3c-7.7,7.3-17.2,13.1-28.5,17.5s-23.6,6.5-37,6.5c-18.1,0-34.2-5-48.2-14.9c-14.1-10-24.8-23.2-32.2-39.6
		C7746.1,2569.1,7742.4,2550.9,7742.4,2531z M7761,2522.7c0,20.6,3.1,38.8,9.4,54.8c6.2,16,15.5,28.6,27.9,37.9
		c12.4,9.3,27,13.9,43.8,13.9c9.7,0,18.6-1.7,26.8-5c8.2-3.3,15.2-7.8,21-13.5c5.8-5.7,10.7-12.3,14.8-20c4-7.6,7.1-15.9,9-24.6
		c2-8.8,3-17.9,3-27.3c0-32.5-7.1-58.7-21.2-78.8c-14.2-20-33.3-30-57.3-30c-12.6,0-23.9,2.7-34,8.1c-10.1,5.4-18.2,12.6-24.3,21.5
		c-6.1,8.9-10.8,18.8-14,29.6C7762.6,2500.1,7761,2511.3,7761,2522.7z"/>
	<path d="M7947.6,2635.6l1.2-7.1l26.3-5.1v-182.3l-27-3.5l1.5-6.1c30-4.8,53.9-7.3,71.7-7.3c13.8,0,26.2,2.1,37.2,6.2
		c11,4.2,19.9,10.7,26.7,19.6c6.9,8.9,10.3,19.6,10.3,32c0,24.3-13.5,43.4-40.6,57.3v0.2l27.5,41.5c5.5,8.2,10.6,15.2,15.3,21
		c4.7,5.8,9,10.3,13,13.6c4,3.3,7.4,5.7,10.4,7.3c2.9,1.6,6.1,3,9.6,4.1l8.1,2.7l-1,6.2c-4.8,1.7-10.1,2.5-15.7,2.5
		c-10.5,0-19.5-3.3-27.2-9.9c-7.6-6.6-16.1-17.7-25.3-33.3l-29.2-49.4h-47.9v78.6l35.6,3.2l-1.7,7.8H7947.6z M7992.5,2536.6h50.1
		c9.8-3.1,18-9.5,24.5-19c6.6-9.5,9.9-19.8,9.9-30.9c0-17.8-5.7-31.3-17-40.6c-11.4-9.3-27-14-47.1-14l-20.4,0.8V2536.6z"/>
	<path d="M8143.8,2425.8H8318l-5.9,56l-8.4-1l-2.9-46.4h-62.6v188.9l29.9,4.6l-1.9,7.8h-76.4l0.8-7.1l29.5-5.1v-189.1h-60l-5.9,47.1
		l-8.8-1.3L8143.8,2425.8z"/>
	<path d="M8312.3,2622.7l5.6-53.1l9.3,1.3l1.3,42c3.9,5.1,10.6,9.1,20,12c9.4,2.9,19.4,4.4,29.9,4.4c12.6,0,23.3-3.3,32.2-10
		c8.9-6.7,13.3-16,13.3-27.9c0-6.7-1.9-13.1-5.7-19.1c-3.8-6-8.6-11.3-14.6-15.9c-6-4.6-12.6-9.2-19.8-13.7
		c-7.3-4.5-14.5-9.1-21.7-13.7c-7.2-4.7-13.8-9.6-19.7-14.7c-6-5.1-10.8-11.1-14.6-18c-3.8-6.9-5.6-14.4-5.6-22.3
		c0-10.7,3-20.1,9-28.3c6-8.2,13.5-14.3,22.3-18.3c8.9-4,18.2-6,28-6c9.8,0,19.2,1,28.3,3c9.1,2,16.4,4.9,21.9,8.8l-3.5,55.7
		l-9.4-1.2l-2.9-42.7c-3.4-4-9-7.4-16.8-10c-7.8-2.6-15.7-4-23.7-4c-10.3,0-19.1,3.2-26.1,9.5c-7.1,6.4-10.6,14.9-10.6,25.6
		c0,7.2,1.9,14,5.7,20.4c3.8,6.4,8.8,12,14.8,16.9c6.1,4.8,12.8,9.6,20.2,14.3c7.4,4.7,14.8,9.3,22.2,13.9
		c7.4,4.6,14.2,9.4,20.2,14.3c6.1,4.9,11,10.7,14.8,17.2c3.8,6.5,5.7,13.4,5.7,20.7c0,16.3-6.6,29.8-19.9,40.4
		c-13.3,10.6-30.9,15.9-53,15.9c-12,0-23.1-1.6-33.3-4.8C8326.1,2631.9,8318.1,2627.8,8312.3,2622.7z"/>
	<path d="M8527,2432.8l1.2-7.1h152.8l-5.6,54.3l-8.3-1.3l-3.5-44.4h-89.4v94.4h56.2l6.6-23.6l9.4-1.2l-5.2,65.4l-9.3,1.3l-3-33.1
		h-54.6v86l41.5,2.9l-2,8.9h-86l0.5-7.1l28.7-5.1v-186L8527,2432.8z"/>
	<path d="M8699.2,2531c0-21.6,4.2-40.7,12.5-57.3c8.3-16.6,20.4-29.6,36.2-39c15.8-9.3,34.2-14,55.1-14c18.9,0,35.1,4.8,48.7,14.4
		c13.5,9.6,23.6,22.5,30.2,38.8c6.6,16.2,9.9,34.9,9.9,55.9c0,10.6-1.2,21-3.7,31.3c-2.5,10.3-6.4,20.2-11.9,29.8
		c-5.5,9.6-12,18-19.7,25.3c-7.7,7.3-17.2,13.1-28.5,17.5s-23.6,6.5-37,6.5c-18.1,0-34.2-5-48.2-14.9c-14.1-10-24.8-23.2-32.2-39.6
		C8702.9,2569.1,8699.2,2550.9,8699.2,2531z M8717.7,2522.7c0,20.6,3.1,38.8,9.4,54.8c6.2,16,15.5,28.6,27.9,37.9
		c12.4,9.3,27,13.9,43.8,13.9c9.7,0,18.6-1.7,26.8-5c8.2-3.3,15.2-7.8,21-13.5c5.8-5.7,10.7-12.3,14.8-20c4-7.6,7.1-15.9,9-24.6
		c2-8.8,3-17.9,3-27.3c0-32.5-7.1-58.7-21.2-78.8c-14.2-20-33.3-30-57.3-30c-12.6,0-23.9,2.7-34,8.1c-10.1,5.4-18.2,12.6-24.3,21.5
		c-6.1,8.9-10.8,18.8-14,29.6C8719.3,2500.1,8717.7,2511.3,8717.7,2522.7z"/>
	<path d="M8904.4,2635.6l1.2-7.1l26.3-5.1v-182.3l-27-3.5l1.5-6.1c30-4.8,53.9-7.3,71.7-7.3c13.8,0,26.2,2.1,37.2,6.2
		c11,4.2,19.9,10.7,26.7,19.6c6.9,8.9,10.3,19.6,10.3,32c0,24.3-13.5,43.4-40.6,57.3v0.2l27.5,41.5c5.5,8.2,10.6,15.2,15.3,21
		c4.7,5.8,9,10.3,13,13.6c4,3.3,7.4,5.7,10.4,7.3c2.9,1.6,6.1,3,9.6,4.1l8.1,2.7l-1,6.2c-4.8,1.7-10.1,2.5-15.7,2.5
		c-10.5,0-19.5-3.3-27.2-9.9c-7.6-6.6-16.1-17.7-25.3-33.3l-29.2-49.4h-47.9v78.6l35.6,3.2l-1.7,7.8H8904.4z M8949.3,2536.6h50.1
		c9.8-3.1,18-9.5,24.5-19c6.6-9.5,9.9-19.8,9.9-30.9c0-17.8-5.7-31.3-17-40.6c-11.4-9.3-27-14-47.1-14l-20.4,0.8V2536.6z"/>
	<path d="M9172.4,2432.3l0.5-6.6h76.9l-0.8,6.6l-28.5,3.9v89.6h121.1v-89.2l-31-4.2l1.2-6.6h76.7l-1.3,6.6l-28.2,3.9v188.4l30.9,3.2
		l-1.2,7.8h-76.4l1.3-7.1l28-5.1v-87.5h-121.1v88.7l31.4,3.2l-1.9,7.8h-76.2l0.8-7.1l28.2-5.1v-186.9L9172.4,2432.3z"/>
	<path d="M9407.3,2432.8l1.2-7.1h152.8l-5.2,53.8l-7.8-1l-3.2-44.2H9455v90.1h56.5l6.2-23.4l9.1-1.3l-5.6,65.6l-8.6,1.5l-2.7-33.2
		h-55v92.9h94.8l12.5-45.4l6.9,1.7l-5.1,52.8h-156.3l1-7.1l28.7-5.1v-186L9407.3,2432.8z"/>
	<path d="M9586.8,2635.6l1.2-7.1l26.3-5.1v-182.3l-27-3.5l1.5-6.1c30-4.8,53.9-7.3,71.7-7.3c13.8,0,26.2,2.1,37.2,6.2
		c11,4.2,19.9,10.7,26.7,19.6c6.9,8.9,10.3,19.6,10.3,32c0,24.3-13.5,43.4-40.6,57.3v0.2l27.5,41.5c5.5,8.2,10.6,15.2,15.3,21
		c4.7,5.8,9,10.3,13,13.6c4,3.3,7.4,5.7,10.4,7.3c2.9,1.6,6.1,3,9.6,4.1l8.1,2.7l-1,6.2c-4.8,1.7-10.1,2.5-15.7,2.5
		c-10.5,0-19.5-3.3-27.2-9.9c-7.6-6.6-16.1-17.7-25.3-33.3l-29.2-49.4h-47.9v78.6l35.6,3.2l-1.7,7.8H9586.8z M9631.6,2536.6h50.1
		c9.8-3.1,18-9.5,24.5-19c6.6-9.5,9.9-19.8,9.9-30.9c0-17.8-5.7-31.3-17-40.6c-11.4-9.3-27-14-47.1-14l-20.4,0.8V2536.6z"/>
	<path d="M9782.4,2635.6l0.8-5.6l28.2-5.2l14-187.4l-31-5.6l1.2-6.1h53.8l12,31.7l53,139.8l60.4-147.1l10.3-24.5h55l-0.8,6.1
		l-29,5.1l9.3,189.1l30.4,2.9l-0.3,6.7h-77.9l1-5.6l28.8-5.2l-9.6-186.4l-78.4,187l-8.4,1.7l-68.8-185.7l-13.3,184.5l30.5,2.9
		l-1,6.7H9782.4z"/>
	<path d="M10066.9,2432.8l1.2-7.1h152.8l-5.2,53.8l-7.8-1l-3.2-44.2h-90.1v90.1h56.5l6.2-23.4l9.1-1.3l-5.6,65.6l-8.6,1.5l-2.7-33.2
		h-55v92.9h94.8l12.5-45.4l6.9,1.7l-5.1,52.8h-156.3l1-7.1l28.7-5.1v-186L10066.9,2432.8z"/>
	<path d="M10246.4,2635.6l1-6.1l20.9-4.7l69.7-95.5l-65.1-93.4l-22.9-4.7l0.7-5.4h70.8l-0.8,5.4l-26.3,5.1l56.2,81.5l60-81.8
		l-29-3.9l0.8-6.2h62.1v6.1l-21.2,3.5l-66.6,90.1l69.7,101.2l21.4,2.9l-1.2,6.1h-70l0.7-4.6l27.5-5.6l-59.7-87l-63.2,87l27.8,3
		l-1.3,7.1H10246.4z"/>
	<path d="M6474.1,2945.5c0-21.6,4.2-40.7,12.5-57.3c8.3-16.6,20.4-29.6,36.2-39c15.8-9.3,34.2-14,55.1-14c18.9,0,35.1,4.8,48.7,14.4
		c13.5,9.6,23.6,22.5,30.2,38.8c6.6,16.2,9.9,34.9,9.9,55.9c0,10.6-1.2,21-3.7,31.3c-2.5,10.3-6.4,20.2-11.9,29.8
		c-5.5,9.6-12,18-19.7,25.3c-7.7,7.3-17.2,13.1-28.5,17.5s-23.6,6.5-37,6.5c-18.1,0-34.2-5-48.2-14.9c-14.1-10-24.8-23.2-32.2-39.6
		C6477.9,2983.6,6474.1,2965.4,6474.1,2945.5z M6492.7,2937.2c0,20.6,3.1,38.8,9.4,54.8c6.2,16,15.5,28.6,27.9,37.9
		c12.4,9.3,27,13.9,43.8,13.9c9.7,0,18.6-1.7,26.8-5c8.2-3.3,15.2-7.8,21-13.5c5.8-5.7,10.7-12.3,14.8-20c4-7.6,7.1-15.9,9-24.6
		c2-8.8,3-17.9,3-27.3c0-32.5-7.1-58.7-21.2-78.8c-14.2-20-33.3-30-57.3-30c-12.6,0-23.9,2.7-34,8.1c-10.1,5.4-18.2,12.6-24.3,21.5
		c-6.1,8.9-10.8,18.8-14,29.6C6494.3,2914.6,6492.7,2925.7,6492.7,2937.2z"/>
	<path d="M6677.2,2846.3l0.7-6.1h71.5l-0.7,6.1l-28.3,4.4l60,172.4l65.3-171.7l-31.4-5.1l0.5-6.1h65.8l-0.7,6.1l-21.8,4.4
		l-76.1,201.2l-8.6,2.5l-71.5-203.1L6677.2,2846.3z"/>
	<path d="M6896.4,3050l0.8-7.1l23.9-5.1l73.9-199.3l8.9-2.4l70,202.7l22.3,3.2l-1.3,7.8h-69l1.5-7.1l28-5.1l-23.4-68.3h-72.9
		l-25,69.7l31,3.2l-1.5,7.8H6896.4z M6962.6,2960h66.3l-32.5-92.9L6962.6,2960z"/>
	<path d="M7113.7,3050l0.8-7.1l28.5-5.1v-186.5l-29-4.2l0.7-6.7h76.7l-0.7,6.7l-29.7,3.5v190.2h89.4l13-47.9l7.4,1.3l-2.7,55.7
		H7113.7z"/>
	<path d="M7360.2,2840.2h174.2l-5.9,56l-8.4-1l-2.9-46.4h-62.6v188.9l29.9,4.6l-1.9,7.8h-76.4l0.8-7.1l29.5-5.1v-189.1h-60
		l-5.9,47.1l-8.8-1.3L7360.2,2840.2z"/>
	<path d="M7529.6,2846.8l0.7-6.6h76.6l-0.7,6.6l-28.5,3.9v117.5c0,13.8,1.6,25.7,4.7,35.6c3.1,9.9,7.7,17.6,13.7,23.2
		c6,5.6,12.9,9.6,20.7,12.1s16.8,3.8,27,3.8c41.6,0,62.4-22.9,62.4-68.6V2851l-31.4-4.2l0.8-6.6h71.7l-1.3,6.6l-28,3.9l-0.5,116.7
		c-0.1,29.7-6.4,51.6-18.8,65.9c-12.4,14.2-32.6,21.3-60.5,21.3c-8.9,0-16.9-0.7-24-2c-7.1-1.3-14.2-3.8-21.1-7.4
		c-6.9-3.6-12.7-8.3-17.4-14.3c-4.7-5.9-8.4-13.7-11.3-23.4c-2.9-9.7-4.3-20.9-4.3-33.7V2851L7529.6,2846.8z"/>
	<path d="M7758.9,3050l1.3-7.1l28.5-5.1v-182.3l-29-3.7l1.7-6.1c2-0.3,6.6-1.1,13.8-2.2c7.2-1.1,12.2-1.9,15.1-2.3
		c2.9-0.4,7.2-0.9,13.1-1.6c5.8-0.7,11.3-1.1,16.4-1.3c5.1-0.2,10.5-0.3,16.3-0.3c21.8,0,38.4,4.6,49.8,13.7
		c11.4,9.2,17.1,22,17.1,38.5c0,9.9-2.9,19-8.8,27.3c-5.8,8.3-12.9,14.9-21.1,19.7v1c13.4,2.1,24.3,7.7,32.9,16.7
		c8.5,9,12.8,20.8,12.8,35.4c0,8.5-1.8,16.4-5.5,23.5c-3.7,7.1-9.1,13.4-16.2,18.8c-7.1,5.4-16.4,9.6-27.7,12.6
		c-11.4,3-24.3,4.6-39,4.6H7758.9z M7805.8,2937h54c17.4-8.9,26.1-23.7,26.1-44.4c0-15.5-5.3-27.2-15.8-35.2
		c-10.5-7.9-25.1-11.9-43.8-11.9c-10.7,0-17.5,0.3-20.6,1V2937z M7805.8,3040.9h24.6c25.9,0,44.4-3.8,55.7-11.5
		c11.2-7.6,16.9-19.2,16.9-34.6c0-6-1.2-11.8-3.5-17.6c-2.3-5.8-5.6-11.1-9.9-15.9c-4.3-4.8-10-8.7-17-11.6c-7.1-3-15-4.5-23.6-4.5
		h-43.2V3040.9z"/>
	<path d="M7938.4,2847.3l1.2-7.1h152.8l-5.2,53.8l-7.8-1l-3.2-44.2h-90.1v90.1h56.5l6.2-23.4l9.1-1.3l-5.6,65.6l-8.6,1.5l-2.7-33.2
		h-55v92.9h94.8l12.5-45.4l6.9,1.7l-5.1,52.8h-156.3l1-7.1l28.7-5.1v-186L7938.4,2847.3z"/>
	<path d="M8190,3050l0.8-7.1l23.9-5.1l73.9-199.3l8.9-2.4l70,202.7l22.3,3.2l-1.3,7.8h-69l1.5-7.1l28-5.1l-23.4-68.3h-72.9l-25,69.7
		l31,3.2l-1.5,7.8H8190z M8256.1,2960h66.3l-32.5-92.9L8256.1,2960z"/>
	<path d="M8406.4,2846.3l1.3-6.1h50.3l120.8,177.9V2851l-30.9-4.2l1-6.6h71.5l-1.3,6.6l-28,3.9v200.5l-9.1,1.9L8450.1,2859v180.1
		l31,3.2l-1.7,7.8h-71l1-7.1l28.2-5.1v-186L8406.4,2846.3z"/>
	<path d="M8633.7,3050l1.3-7.1l28.5-5.1v-182.3l-29-3.7l1.7-6.1c34.3-5.4,60.9-8.1,79.9-8.1c16,0,30.3,1.8,43,5.3
		c12.7,3.5,23.3,8.4,31.7,14.6c8.4,6.2,15.5,13.6,21.1,22.3c5.6,8.7,9.7,17.9,12.1,27.8c2.5,9.9,3.7,20.5,3.7,31.9
		c0,11.8-1.4,23-4.2,33.6c-2.8,10.6-7.4,20.7-13.7,30.1c-6.3,9.4-14.1,17.6-23.4,24.5c-9.3,6.9-20.7,12.3-34.4,16.3
		c-13.7,4-28.9,6-45.8,6H8633.7z M8680.6,3040.9h30.4c30.4,0,54.4-8.1,72.1-24.4c17.7-16.2,26.6-39.1,26.6-68.6
		c0-32.7-8.8-57.8-26.4-75.3c-17.6-17.5-42.6-26.2-75-26.2c-13.4,0-22.6,1.1-27.7,3.2V3040.9z"/>
	<path d="M8917.2,3032.2l6.6-38.3l8.4,1.7l1,31.5c3,5.3,8.2,10,15.3,14.2c7.2,4.2,15,6.2,23.3,6.2c12.7,0,23.2-4.2,31.6-12.6
		c8.4-8.4,12.6-19.5,12.6-33.2c0-14.5-5.4-25.7-16.1-33.7c-10.7-8-24.5-12.4-41.4-13.2l-0.3-5.7c0.6-0.3,2.3-1.3,5.3-2.9
		c3-1.6,5.1-2.7,6.2-3.4c1.2-0.7,3.3-1.9,6.2-3.7c3-1.8,5.2-3.3,6.7-4.5c1.5-1.2,3.5-2.8,6.1-5c2.6-2.1,4.6-4.1,6-5.9
		c1.4-1.8,3-4,4.9-6.6c1.9-2.6,3.2-5.1,4.1-7.6c0.9-2.5,1.7-5.3,2.4-8.3c0.7-3.1,1-6.3,1-9.5c0-9.3-2.6-17.8-7.9-25.3
		c-5.3-7.5-12.7-11.3-22.3-11.3c-13.2,0-24,5.7-32.5,17.2l-6.6,33.7l-7.6-1.7l0.8-38.6c3-2.6,5.8-4.7,8.3-6.4
		c2.5-1.7,5.9-3.7,10.3-5.9c4.4-2.2,9.5-4,15.4-5.1c5.9-1.2,12.4-1.8,19.5-1.8c12.3,0,22.5,4,30.8,11.9c8.3,7.9,12.4,18,12.4,30.3
		c0,12.7-4.2,23.8-12.6,33.3c-8.4,9.5-18.4,16.4-29.9,20.7v1.5c15.1,2.3,27.3,7.9,36.6,16.9c9.3,9.1,14,20,14,33
		c0,11.8-3.3,22.5-9.9,32.2c-6.6,9.7-15,17.1-25.1,22.2c-10.2,5.1-20.8,7.7-32,7.7c-12,0-22.7-2.2-31.9-6.6
		C8927.7,3045.1,8921.2,3039.4,8917.2,3032.2z"/>
	<path d="M9122.8,3037.2l5.6-53.1l9.3,1.3l1.3,42c3.9,5.1,10.6,9.1,20,12c9.4,2.9,19.4,4.4,29.9,4.4c12.6,0,23.3-3.3,32.2-10
		c8.9-6.7,13.3-16,13.3-27.9c0-6.7-1.9-13.1-5.7-19.1c-3.8-6-8.6-11.3-14.6-15.9c-6-4.6-12.6-9.2-19.8-13.7
		c-7.3-4.5-14.5-9.1-21.7-13.7c-7.2-4.7-13.8-9.6-19.7-14.7c-6-5.1-10.8-11.1-14.6-18c-3.8-6.9-5.6-14.4-5.6-22.3
		c0-10.7,3-20.1,9-28.3c6-8.2,13.5-14.3,22.3-18.3c8.9-4,18.2-6,28-6c9.8,0,19.2,1,28.3,3c9.1,2,16.4,4.9,21.9,8.8l-3.5,55.7
		l-9.4-1.2l-2.9-42.7c-3.4-4-9-7.4-16.8-10c-7.8-2.6-15.7-4-23.7-4c-10.3,0-19.1,3.2-26.1,9.5c-7.1,6.4-10.6,14.9-10.6,25.6
		c0,7.2,1.9,14,5.7,20.4c3.8,6.4,8.8,12,14.8,16.9c6.1,4.8,12.8,9.6,20.2,14.3c7.4,4.7,14.8,9.3,22.2,13.9
		c7.4,4.6,14.2,9.4,20.2,14.3c6.1,4.9,11,10.7,14.8,17.2c3.8,6.5,5.7,13.4,5.7,20.7c0,16.3-6.6,29.8-19.9,40.4
		c-13.3,10.6-30.9,15.9-53,15.9c-12,0-23.1-1.6-33.3-4.8C9136.7,3046.4,9128.6,3042.3,9122.8,3037.2z"/>
	<path d="M9266.3,2947.7c0-8.4,0.9-17,2.6-25.6c1.7-8.7,4.3-17.2,7.6-25.6c3.3-8.4,7.7-16.2,13.1-23.5c5.4-7.3,11.5-13.7,18.3-19.3
		c6.8-5.6,14.8-10,23.9-13.2c9.2-3.2,19-4.8,29.4-4.8c23.3,0,42.4,5.6,57.3,16.9l-5.2,56.8l-7.9-1.3l-5.1-43.7
		c-9.8-12.8-25.5-19.2-47.1-19.2c-18.9,0-35.1,9.1-48.7,27.2c-13.6,18.2-20.4,41.2-20.4,69.2c0,31.6,6.6,56.1,19.8,73.4
		c13.2,17.3,32,26,56.2,26c12,0,23.7-3.1,35.1-9.3c11.4-6.2,20.9-13.7,28.7-22.6l3.9,6.2c-2.8,4.3-6.6,8.6-11.3,12.9
		c-4.7,4.3-10.3,8.5-16.6,12.6c-6.4,4-13.7,7.3-22,9.9c-8.3,2.5-16.8,3.8-25.5,3.8c-25.9,0-46.7-9.7-62.5-29.1
		C9274.2,3005.9,9266.3,2980,9266.3,2947.7z"/>
	<path d="M9444.6,3050l1.2-7.1l26.3-5.1v-182.3l-27-3.5l1.5-6.1c30-4.8,53.9-7.3,71.7-7.3c13.8,0,26.2,2.1,37.2,6.2
		c11,4.2,19.9,10.7,26.7,19.6c6.9,8.9,10.3,19.6,10.3,32c0,24.3-13.5,43.4-40.6,57.3v0.2l27.5,41.5c5.5,8.2,10.6,15.2,15.3,21
		c4.7,5.8,9,10.3,13,13.6c4,3.3,7.4,5.7,10.4,7.3c2.9,1.6,6.1,3,9.6,4.1l8.1,2.7l-1,6.2c-4.8,1.7-10.1,2.5-15.7,2.5
		c-10.5,0-19.5-3.3-27.2-9.9c-7.6-6.6-16.1-17.7-25.3-33.3l-29.2-49.4h-47.9v78.6l35.6,3.2l-1.7,7.8H9444.6z M9489.4,2951h50.1
		c9.8-3.1,18-9.5,24.5-19c6.6-9.5,9.9-19.8,9.9-30.9c0-17.8-5.7-31.3-17-40.6c-11.4-9.3-27-14-47.1-14l-20.4,0.8V2951z"/>
	<path d="M9640.9,2847.3l1.2-7.1h152.8l-5.2,53.8l-7.8-1l-3.2-44.2h-90.1v90.1h56.5l6.2-23.4l9.1-1.3l-5.6,65.6l-8.6,1.5l-2.7-33.2
		h-55v92.9h94.8l12.5-45.4l6.9,1.7l-5.1,52.8h-156.3l1-7.1l28.7-5.1v-186L9640.9,2847.3z"/>
	<path d="M9818.8,3037.2l5.6-53.1l9.3,1.3l1.3,42c3.9,5.1,10.6,9.1,20,12c9.4,2.9,19.4,4.4,29.9,4.4c12.6,0,23.3-3.3,32.2-10
		c8.9-6.7,13.3-16,13.3-27.9c0-6.7-1.9-13.1-5.7-19.1c-3.8-6-8.6-11.3-14.6-15.9c-6-4.6-12.6-9.2-19.8-13.7
		c-7.3-4.5-14.5-9.1-21.7-13.7c-7.2-4.7-13.8-9.6-19.7-14.7c-6-5.1-10.8-11.1-14.6-18c-3.8-6.9-5.6-14.4-5.6-22.3
		c0-10.7,3-20.1,9-28.3c6-8.2,13.5-14.3,22.3-18.3c8.9-4,18.2-6,28-6c9.8,0,19.2,1,28.3,3c9.1,2,16.4,4.9,21.9,8.8l-3.5,55.7
		l-9.4-1.2l-2.9-42.7c-3.4-4-9-7.4-16.8-10c-7.8-2.6-15.7-4-23.7-4c-10.3,0-19.1,3.2-26.1,9.5c-7.1,6.4-10.6,14.9-10.6,25.6
		c0,7.2,1.9,14,5.7,20.4c3.8,6.4,8.8,12,14.8,16.9c6.1,4.8,12.8,9.6,20.2,14.3c7.4,4.7,14.8,9.3,22.2,13.9
		c7.4,4.6,14.2,9.4,20.2,14.3c6.1,4.9,11,10.7,14.8,17.2c3.8,6.5,5.7,13.4,5.7,20.7c0,16.3-6.6,29.8-19.9,40.4
		c-13.3,10.6-30.9,15.9-53,15.9c-12,0-23.1-1.6-33.3-4.8C9832.7,3046.4,9824.7,3042.3,9818.8,3037.2z"/>
	<path d="M5887.7,3464.5l0.8-7.1l23.9-5.1l73.9-199.3l8.9-2.4l70,202.7l22.3,3.2l-1.3,7.8h-69l1.5-7.1l28-5.1l-23.4-68.3h-72.9
		l-25,69.7l31,3.2l-1.5,7.8H5887.7z M5953.8,3374.4h66.3l-32.5-92.9L5953.8,3374.4z"/>
	<path d="M6104.6,3464.5l1.2-7.1l26.3-5.1v-182.3l-27-3.5l1.5-6.1c30-4.8,53.9-7.3,71.7-7.3c13.8,0,26.2,2.1,37.2,6.2
		c11,4.2,19.9,10.7,26.7,19.6c6.9,8.9,10.3,19.6,10.3,32c0,24.3-13.5,43.4-40.6,57.3v0.2l27.5,41.5c5.5,8.2,10.6,15.2,15.3,21
		c4.7,5.8,9,10.3,13,13.6c4,3.3,7.4,5.7,10.4,7.3c2.9,1.6,6.1,3,9.6,4.1l8.1,2.7l-1,6.2c-4.8,1.7-10.1,2.5-15.7,2.5
		c-10.5,0-19.5-3.3-27.2-9.9c-7.6-6.6-16.1-17.7-25.3-33.3l-29.2-49.4h-47.9v78.6l35.6,3.2l-1.7,7.8H6104.6z M6149.4,3365.5h50.1
		c9.8-3.1,18-9.5,24.5-19c6.6-9.5,9.9-19.8,9.9-30.9c0-17.8-5.7-31.3-17-40.6c-11.4-9.3-27-14-47.1-14l-20.4,0.8V3365.5z"/>
	<path d="M6300.9,3261.8l1.2-7.1h152.8l-5.2,53.8l-7.8-1l-3.2-44.2h-90.1v90.1h56.5l6.2-23.4l9.1-1.3l-5.6,65.6l-8.6,1.5l-2.7-33.2
		h-55v92.9h94.8l12.5-45.4l6.9,1.7l-5.1,52.8h-156.3l1-7.1l28.7-5.1v-186L6300.9,3261.8z"/>
	<path d="M6551.6,3260.8l1.3-6.1h50.3l120.8,177.9v-167.1l-30.9-4.2l1-6.6h71.5l-1.3,6.6l-28,3.9v200.5l-9.1,1.9l-131.9-194.1v180.1
		l31,3.2l-1.7,7.8h-71l1-7.1l28.2-5.1v-186L6551.6,3260.8z"/>
	<path d="M6779.2,3261.8l1.2-7.1h152.8l-5.2,53.8l-7.8-1l-3.2-44.2h-90.1v90.1h56.5l6.2-23.4l9.1-1.3l-5.6,65.6l-8.6,1.5l-2.7-33.2
		h-55v92.9h94.8l12.5-45.4l6.9,1.7l-5.1,52.8h-156.3l1-7.1l28.7-5.1v-186L6779.2,3261.8z"/>
	<path d="M6958.6,3261.8l1.2-7.1h152.8l-5.2,53.8l-7.8-1l-3.2-44.2h-90.1v90.1h56.5l6.2-23.4l9.1-1.3l-5.6,65.6l-8.6,1.5l-2.7-33.2
		h-55v92.9h94.8l12.5-45.4l6.9,1.7l-5.1,52.8h-156.3l1-7.1l28.7-5.1v-186L6958.6,3261.8z"/>
	<path d="M7137.9,3464.5l1.3-7.1l28.5-5.1v-182.3l-29-3.7l1.7-6.1c34.3-5.4,60.9-8.1,79.9-8.1c16,0,30.3,1.8,43,5.3
		c12.7,3.5,23.3,8.4,31.7,14.6c8.4,6.2,15.5,13.6,21.1,22.3c5.6,8.7,9.7,17.9,12.1,27.8c2.5,9.9,3.7,20.5,3.7,31.9
		c0,11.8-1.4,23-4.2,33.6c-2.8,10.6-7.4,20.7-13.7,30.1c-6.3,9.4-14.1,17.6-23.4,24.5c-9.3,6.9-20.7,12.3-34.4,16.3
		c-13.7,4-28.9,6-45.8,6H7137.9z M7184.8,3455.4h30.4c30.4,0,54.4-8.1,72.1-24.4c17.7-16.2,26.6-39.1,26.6-68.6
		c0-32.7-8.8-57.8-26.4-75.3c-17.6-17.5-42.6-26.2-75-26.2c-13.4,0-22.6,1.1-27.7,3.2V3455.4z"/>
	<path d="M7349.7,3261.8l1.2-7.1h152.8l-5.2,53.8l-7.8-1l-3.2-44.2h-90.1v90.1h56.5l6.2-23.4l9.1-1.3l-5.6,65.6l-8.6,1.5l-2.7-33.2
		h-55v92.9h94.8l12.5-45.4l6.9,1.7l-5.1,52.8h-156.3l1-7.1l28.7-5.1v-186L7349.7,3261.8z"/>
	<path d="M7529,3464.5l1.3-7.1l28.5-5.1v-182.3l-29-3.7l1.7-6.1c34.3-5.4,60.9-8.1,79.9-8.1c16,0,30.3,1.8,43,5.3
		c12.7,3.5,23.3,8.4,31.7,14.6c8.4,6.2,15.5,13.6,21.1,22.3c5.6,8.7,9.7,17.9,12.1,27.8c2.5,9.9,3.7,20.5,3.7,31.9
		c0,11.8-1.4,23-4.2,33.6c-2.8,10.6-7.4,20.7-13.7,30.1c-6.3,9.4-14.1,17.6-23.4,24.5c-9.3,6.9-20.7,12.3-34.4,16.3
		c-13.7,4-28.9,6-45.8,6H7529z M7575.9,3455.4h30.4c30.4,0,54.4-8.1,72.1-24.4c17.7-16.2,26.6-39.1,26.6-68.6
		c0-32.7-8.8-57.8-26.4-75.3c-17.6-17.5-42.6-26.2-75-26.2c-13.4,0-22.6,1.1-27.7,3.2V3455.4z"/>
	<path d="M7812.6,3261.8l1.2-7.1h152.8l-5.6,54.3l-8.3-1.3l-3.5-44.4h-89.4v94.4h56.2l6.6-23.6l9.4-1.2l-5.2,65.4l-9.3,1.3l-3-33.1
		h-54.6v86l41.5,2.9l-2,8.9h-86l0.5-7.1l28.7-5.1v-186L7812.6,3261.8z"/>
	<path d="M7984.8,3359.9c0-21.6,4.2-40.7,12.5-57.3c8.3-16.6,20.4-29.6,36.2-39c15.8-9.3,34.2-14,55.1-14c18.9,0,35.1,4.8,48.7,14.4
		c13.5,9.6,23.6,22.5,30.2,38.8c6.6,16.2,9.9,34.9,9.9,55.9c0,10.6-1.2,21-3.7,31.3c-2.5,10.3-6.4,20.2-11.9,29.8
		c-5.5,9.6-12,18-19.7,25.3c-7.7,7.3-17.2,13.1-28.5,17.5s-23.6,6.5-37,6.5c-18.1,0-34.2-5-48.2-14.9c-14.1-10-24.8-23.2-32.2-39.6
		C7988.5,3398,7984.8,3379.8,7984.8,3359.9z M8003.4,3351.7c0,20.6,3.1,38.8,9.4,54.8c6.2,16,15.5,28.6,27.9,37.9
		c12.4,9.3,27,13.9,43.8,13.9c9.7,0,18.6-1.7,26.8-5c8.2-3.3,15.2-7.8,21-13.5c5.8-5.7,10.7-12.3,14.8-20c4-7.6,7.1-15.9,9-24.6
		c2-8.8,3-17.9,3-27.3c0-32.5-7.1-58.7-21.2-78.8c-14.2-20-33.3-30-57.3-30c-12.6,0-23.9,2.7-34,8.1c-10.1,5.4-18.2,12.6-24.3,21.5
		c-6.1,8.9-10.8,18.8-14,29.6C8005,3329.1,8003.4,3340.2,8003.4,3351.7z"/>
	<path d="M8190.1,3464.5l1.2-7.1l26.3-5.1v-182.3l-27-3.5l1.5-6.1c30-4.8,53.9-7.3,71.7-7.3c13.8,0,26.2,2.1,37.2,6.2
		c11,4.2,19.9,10.7,26.7,19.6c6.9,8.9,10.3,19.6,10.3,32c0,24.3-13.5,43.4-40.6,57.3v0.2l27.5,41.5c5.5,8.2,10.6,15.2,15.3,21
		c4.7,5.8,9,10.3,13,13.6c4,3.3,7.4,5.7,10.4,7.3c2.9,1.6,6.1,3,9.6,4.1l8.1,2.7l-1,6.2c-4.8,1.7-10.1,2.5-15.7,2.5
		c-10.5,0-19.5-3.3-27.2-9.9c-7.6-6.6-16.1-17.7-25.3-33.3l-29.2-49.4h-47.9v78.6l35.6,3.2l-1.7,7.8H8190.1z M8234.9,3365.5h50.1
		c9.8-3.1,18-9.5,24.5-19c6.6-9.5,9.9-19.8,9.9-30.9c0-17.8-5.7-31.3-17-40.6c-11.4-9.3-27-14-47.1-14l-20.4,0.8V3365.5z"/>
	<path d="M8458.2,3261.8l1.2-7.1h152.8l-5.2,53.8l-7.8-1l-3.2-44.2H8506v90.1h56.5l6.2-23.4l9.1-1.3l-5.6,65.6l-8.6,1.5l-2.7-33.2
		h-55v92.9h94.8l12.5-45.4l6.9,1.7l-5.1,52.8h-156.3l1-7.1l28.7-5.1v-186L8458.2,3261.8z"/>
	<path d="M8638,3464.5l0.8-7.1l23.9-5.1l73.9-199.3l8.9-2.4l70,202.7l22.3,3.2l-1.3,7.8h-69l1.5-7.1l28-5.1l-23.4-68.3h-72.9
		l-25,69.7l31,3.2l-1.5,7.8H8638z M8704.1,3374.4h66.3l-32.5-92.9L8704.1,3374.4z"/>
	<path d="M8855.6,3362.1c0-8.4,0.9-17,2.6-25.6c1.7-8.7,4.3-17.2,7.6-25.6c3.3-8.4,7.7-16.2,13.1-23.5c5.4-7.3,11.5-13.7,18.3-19.3
		c6.8-5.6,14.8-10,23.9-13.2c9.2-3.2,19-4.8,29.4-4.8c23.3,0,42.4,5.6,57.3,16.9l-5.2,56.8l-7.9-1.3l-5.1-43.7
		c-9.8-12.8-25.5-19.2-47.1-19.2c-18.9,0-35.1,9.1-48.7,27.2c-13.6,18.2-20.4,41.2-20.4,69.2c0,31.6,6.6,56.1,19.8,73.4
		c13.2,17.3,32,26,56.2,26c12,0,23.7-3.1,35.1-9.3c11.4-6.2,20.9-13.7,28.7-22.6l3.9,6.2c-2.8,4.3-6.6,8.6-11.3,12.9
		c-4.7,4.3-10.3,8.5-16.6,12.6c-6.4,4-13.7,7.3-22,9.9c-8.3,2.5-16.8,3.8-25.5,3.8c-25.9,0-46.7-9.7-62.5-29.1
		C8863.5,3420.4,8855.6,3394.5,8855.6,3362.1z"/>
	<path d="M9033.7,3261.3l0.5-6.6h76.9l-0.8,6.6l-28.5,3.9v89.6h121.1v-89.2l-31-4.2l1.2-6.6h76.7l-1.3,6.6l-28.2,3.9v188.4l30.9,3.2
		l-1.2,7.8h-76.4l1.3-7.1l28-5.1v-87.5h-121.1v88.7l31.4,3.2l-1.9,7.8H9035l0.8-7.1l28.2-5.1v-186.9L9033.7,3261.3z"/>
	<path d="M9338.9,3451.7l5.6-53.1l9.3,1.3l1.3,42c3.9,5.1,10.6,9.1,20,12c9.4,2.9,19.4,4.4,29.9,4.4c12.6,0,23.3-3.3,32.2-10
		c8.9-6.7,13.3-16,13.3-27.9c0-6.7-1.9-13.1-5.7-19.1c-3.8-6-8.6-11.3-14.6-15.9c-6-4.6-12.6-9.2-19.8-13.7
		c-7.3-4.5-14.5-9.1-21.7-13.7c-7.2-4.7-13.8-9.6-19.7-14.7c-6-5.1-10.8-11.1-14.6-18c-3.8-6.9-5.6-14.4-5.6-22.3
		c0-10.7,3-20.1,9-28.3c6-8.2,13.5-14.3,22.3-18.3c8.9-4,18.2-6,28-6c9.8,0,19.2,1,28.3,3c9.1,2,16.4,4.9,21.9,8.8l-3.5,55.7
		l-9.4-1.2l-2.9-42.7c-3.4-4-9-7.4-16.8-10c-7.8-2.6-15.7-4-23.7-4c-10.3,0-19.1,3.2-26.1,9.5c-7.1,6.4-10.6,14.9-10.6,25.6
		c0,7.2,1.9,14,5.7,20.4c3.8,6.4,8.8,12,14.8,16.9c6.1,4.8,12.8,9.6,20.2,14.3c7.4,4.7,14.8,9.3,22.2,13.9
		c7.4,4.6,14.2,9.4,20.2,14.3c6.1,4.9,11,10.7,14.8,17.2c3.8,6.5,5.7,13.4,5.7,20.7c0,16.3-6.6,29.8-19.9,40.4
		c-13.3,10.6-30.9,15.9-53,15.9c-12,0-23.1-1.6-33.3-4.8C9352.8,3460.9,9344.8,3456.7,9338.9,3451.7z"/>
	<path d="M9481.1,3261.3l0.7-6.6h76.6l-0.7,6.6l-28.5,3.9v117.5c0,13.8,1.6,25.7,4.7,35.6c3.1,9.9,7.7,17.6,13.7,23.2
		c6,5.6,12.9,9.6,20.7,12.1s16.8,3.8,27,3.8c41.6,0,62.4-22.9,62.4-68.6v-123.3l-31.4-4.2l0.8-6.6h71.7l-1.3,6.6l-28,3.9l-0.5,116.7
		c-0.1,29.7-6.4,51.6-18.8,65.9c-12.4,14.2-32.6,21.3-60.5,21.3c-8.9,0-16.9-0.7-24-2c-7.1-1.3-14.2-3.8-21.1-7.4
		c-6.9-3.6-12.7-8.3-17.4-14.3c-4.7-5.9-8.4-13.7-11.3-23.4c-2.9-9.7-4.3-20.9-4.3-33.7v-122.8L9481.1,3261.3z"/>
	<path d="M9710.6,3464.5l0.8-7.1l26.6-5.1v-182.3l-27.3-3.7l1.5-6.1c2.8-0.4,7.9-1.3,15.3-2.5c7.4-1.2,12.9-2.1,16.7-2.6
		c3.8-0.5,9-1,15.8-1.6c6.7-0.6,13.5-0.8,20.4-0.8c54.1,0,81.1,20.9,81.1,62.6c0,10.3-2.3,20-6.8,29c-4.6,9-10.6,16.6-18.1,22.7
		c-7.5,6.1-16.2,10.9-26.1,14.4c-9.8,3.5-20,5.2-30.4,5.2c-4,0-6.9-0.1-8.4-0.3l-1.7-7.1l9.1-0.5c11.2-0.4,21.1-2.3,29.4-5.6
		c8.4-3.3,15-7.6,19.9-13c4.9-5.4,8.5-11.4,10.9-18c2.4-6.6,3.5-13.7,3.5-21.5c0-18.3-5.8-33-17.3-44c-11.5-11-28.3-16.5-50.3-16.5
		l-18.6,1v192.3l39.5,3.4l-1.3,7.8H9710.6z"/>
	<path d="M9879.1,3464.5l0.8-7.1l26.6-5.1v-182.3l-27.3-3.7l1.5-6.1c2.8-0.4,7.9-1.3,15.3-2.5c7.4-1.2,12.9-2.1,16.7-2.6
		c3.8-0.5,9-1,15.8-1.6c6.7-0.6,13.5-0.8,20.4-0.8c54.1,0,81.1,20.9,81.1,62.6c0,10.3-2.3,20-6.8,29c-4.6,9-10.6,16.6-18.1,22.7
		c-7.5,6.1-16.2,10.9-26.1,14.4c-9.8,3.5-20,5.2-30.4,5.2c-4,0-6.9-0.1-8.4-0.3l-1.7-7.1l9.1-0.5c11.2-0.4,21.1-2.3,29.4-5.6
		c8.4-3.3,15-7.6,19.9-13c4.9-5.4,8.5-11.4,10.9-18c2.4-6.6,3.5-13.7,3.5-21.5c0-18.3-5.8-33-17.3-44c-11.5-11-28.3-16.5-50.3-16.5
		l-18.6,1v192.3l39.5,3.4l-1.3,7.8H9879.1z"/>
	<path d="M10048.3,3359.9c0-21.6,4.2-40.7,12.5-57.3c8.3-16.6,20.4-29.6,36.2-39c15.8-9.3,34.2-14,55.1-14
		c18.9,0,35.1,4.8,48.7,14.4c13.5,9.6,23.6,22.5,30.2,38.8c6.6,16.2,9.9,34.9,9.9,55.9c0,10.6-1.2,21-3.7,31.3
		c-2.5,10.3-6.4,20.2-11.9,29.8c-5.5,9.6-12,18-19.7,25.3c-7.7,7.3-17.2,13.1-28.5,17.5s-23.6,6.5-37,6.5c-18.1,0-34.2-5-48.2-14.9
		c-14.1-10-24.8-23.2-32.2-39.6C10052,3398,10048.3,3379.8,10048.3,3359.9z M10066.8,3351.7c0,20.6,3.1,38.8,9.4,54.8
		c6.2,16,15.5,28.6,27.9,37.9c12.4,9.3,27,13.9,43.8,13.9c9.7,0,18.6-1.7,26.8-5c8.2-3.3,15.2-7.8,21-13.5
		c5.8-5.7,10.7-12.3,14.8-20c4-7.6,7.1-15.9,9-24.6c2-8.8,3-17.9,3-27.3c0-32.5-7.1-58.7-21.2-78.8c-14.2-20-33.3-30-57.3-30
		c-12.6,0-23.9,2.7-34,8.1c-10.1,5.4-18.2,12.6-24.3,21.5c-6.1,8.9-10.8,18.8-14,29.6C10068.4,3329.1,10066.8,3340.2,10066.8,3351.7
		z"/>
	<path d="M10253.5,3464.5l1.2-7.1l26.3-5.1v-182.3l-27-3.5l1.5-6.1c30-4.8,53.9-7.3,71.7-7.3c13.8,0,26.2,2.1,37.2,6.2
		c11,4.2,19.9,10.7,26.7,19.6c6.9,8.9,10.3,19.6,10.3,32c0,24.3-13.5,43.4-40.6,57.3v0.2l27.5,41.5c5.5,8.2,10.6,15.2,15.3,21
		c4.7,5.8,9,10.3,13,13.6c4,3.3,7.4,5.7,10.4,7.3c2.9,1.6,6.1,3,9.6,4.1l8.1,2.7l-1,6.2c-4.8,1.7-10.1,2.5-15.7,2.5
		c-10.5,0-19.5-3.3-27.2-9.9c-7.6-6.6-16.1-17.7-25.3-33.3l-29.2-49.4h-47.9v78.6l35.6,3.2l-1.7,7.8H10253.5z M10298.4,3365.5h50.1
		c9.8-3.1,18-9.5,24.5-19c6.6-9.5,9.9-19.8,9.9-30.9c0-17.8-5.7-31.3-17-40.6c-11.4-9.3-27-14-47.1-14l-20.4,0.8V3365.5z"/>
	<path d="M10449.7,3254.7h174.2l-5.9,56l-8.4-1l-2.9-46.4h-62.6v188.9l29.9,4.6l-1.9,7.8h-76.4l0.8-7.1l29.5-5.1v-189.1h-60
		l-5.9,47.1l-8.8-1.3L10449.7,3254.7z"/>
</g>
</svg>
