<?xml version="1.0" encoding="utf-8"?>
<!-- Generator: Adobe Illustrator 26.5.0, SVG Export Plug-In . SVG Version: 6.00 Build 0)  -->
<svg version="1.1" id="TORNILLOSMAD" xmlns="http://www.w3.org/2000/svg" xmlns:xlink="http://www.w3.org/1999/xlink" x="0px"
	 y="0px" viewBox="0 0 10752.6 14626.3" style="enable-background:new 0 0 10752.6 14626.3;" xml:space="preserve">
<style type="text/css">
	.st0{fill:none;stroke:#000000;stroke-width:33.1929;stroke-miterlimit:10;}
	.st1{fill:none;stroke:#000000;stroke-width:12;stroke-miterlimit:10;}
	.st2{fill:none;stroke:#000000;stroke-width:32.8472;stroke-miterlimit:10;}
	.st3{fill:none;stroke:#000000;stroke-width:40.6474;stroke-miterlimit:10;}
	.st4{fill:none;stroke:#000000;stroke-width:37.3313;stroke-miterlimit:10;}
	.st5{font-family:'Neuton-Light';}
	.st6{font-size:437.1815px;}
	.st7{fill:none;stroke:#000000;stroke-width:42.9378;stroke-miterlimit:10;}
	.st8{fill:none;stroke:#000000;stroke-width:66.7304;stroke-miterlimit:10;}
</style>
<path class="st0" d="M10921.3,6374.3"/>
<text transform="matrix(1 0 0 1 465.5412 16840.6016)" style="font-family:'MyriadPro-Regular'; font-size:12px;">S</text>
<g>
	<path class="st1" d="M5582.1,9048.9"/>
</g>
<g>
	<path class="st2" d="M959,10915.9l31.2,1667.2c0,0,31.7,538.5,371,665.2s1552,357.5,1552,357.5s945.7,117.6,1248.9-303.2
		c104.1-348.4,0-466.1,0-466.1s-81.4-140.3-298.6-162.9l-1312.2-307.7c0,0-158.4-4.5-140.3-262.4c-9-267,9-1194.6,9-1194.6v-574.7
		c0,0-104.1-548.7-506.8-570.1c-671.9-83.7-948,1104.1-948,1104.1L959,10915.9z"/>
	<path class="st2" d="M1952.5,9767.9c0,0-509.9-101.9-790.4,1134.9c11.2,1381.7,27.1,1938.2,27.1,1938.2s-11.3,117.6,92.8,162.9
		s533.9,156.1,533.9,156.1l1110.9,239.8c0,0,1012.9,68.1,1281.3-357.3"/>
	
		<ellipse transform="matrix(0.2685 -0.9633 0.9633 0.2685 -9425.2041 9869.543)" class="st2" cx="1785.7" cy="11140.5" rx="608.9" ry="284.1"/>
	
		<ellipse transform="matrix(0.226 -0.9741 0.9741 0.226 -9531.3379 10228.7461)" class="st2" cx="1670.8" cy="11112" rx="405.7" ry="163.3"/>
	<ellipse class="st2" cx="3021.8" cy="12976.7" rx="520.4" ry="170.4"/>
	<ellipse class="st2" cx="3035.2" cy="13076.3" rx="350.1" ry="70.9"/>
</g>
<line class="st2" x1="1210" y1="12938.6" x2="2444.9" y2="12295.9"/>
<g>
	<line class="st3" x1="745.4" y1="10005.6" x2="745.4" y2="13246.6"/>
	<line class="st3" x1="663.2" y1="10005.6" x2="846.8" y2="10005.6"/>
	<line class="st3" x1="653.6" y1="13246.6" x2="837.2" y2="13246.6"/>
</g>
<g>
	<line class="st4" x1="1210.5" y1="13809.7" x2="3944.2" y2="13804.9"/>
	<line class="st4" x1="1210.8" y1="13891.9" x2="1210" y2="13708.2"/>
	<line class="st4" x1="3944.6" y1="13896.7" x2="3943.8" y2="13713"/>
	<text transform="matrix(1.5441 7.010123e-03 -1.082000e-02 0.9999 1955.1764 13716.5586)" class="st5 st6"> </text>
</g>
<g>
	<path d="M2155.3,14205l50.8-43.5c13.2-11.4,24.2-21.5,33-30.4c8.8-8.9,16.6-18.3,23.7-28.2c7-9.9,12.2-19.9,15.5-29.9
		c3.3-10,4.9-20.7,4.9-31.9c0-17.5-3.7-32.1-11-43.7c-7.3-11.6-18.9-17.4-34.7-17.4c-10.7,0-19.8,2.2-27.4,6.6
		c-7.6,4.4-13.1,9.8-16.5,16.2l-8.8,51.4l-12.2-1.7l-2.1-57.4c6.1-8.3,16.6-15.7,31.4-22.4c14.8-6.7,30-10,45.5-10
		c22.5,0,40.3,6.3,53.4,19c13.1,12.7,19.6,31.2,19.6,55.5c0,5.5-0.5,11-1.4,16.4c-0.9,5.4-2.5,10.8-4.8,16.2
		c-2.3,5.4-4.5,10.4-6.7,14.8c-2.2,4.5-5.5,9.5-9.8,14.9c-4.3,5.5-8,10.1-11.1,14c-3.1,3.8-7.6,8.6-13.6,14.2
		c-6,5.6-10.7,10.1-14.3,13.3c-3.6,3.3-9,7.9-16.2,13.9c-7.3,6-12.7,10.4-16.3,13.3c-3.6,2.9-9.4,7.6-17.4,14l-16.9,13.2h106.5
		l20.3-51.9l11.7,1.7l-10,75.4h-163.7L2155.3,14205z"/>
	<path d="M2418.1,14093c0-12.9,1.6-26,4.7-39.1c3.1-13.1,8.1-25.9,14.9-38.5c6.8-12.6,15.1-23.7,24.9-33.4
		c9.7-9.7,21.9-17.5,36.5-23.4c14.6-5.9,30.5-8.9,47.7-8.9c31.4,0,56.4,7,74.9,21.1l-6.6,71.5l-14.5-2.1l-7.7-51.2
		c-12-15.5-31-23.3-57.2-23.3c-23.2,0-42.8,10.8-58.8,32.4c-16,21.6-24,49.5-24,83.7c0,38.1,9,67.8,27,89.1
		c18,21.3,41.4,31.9,70.3,31.9c14.2,0,28-3.4,41.2-10.2c13.2-6.8,24.9-15.4,35-25.6l6.2,12.2c-9,12-22.2,22.8-39.8,32.4
		c-17.6,9.7-36.7,14.5-57.3,14.5c-16.4,0-31.7-3.1-45.9-9.2c-14.2-6.1-26.6-14.8-37.2-25.9c-10.6-11.2-19-25.2-25.1-42.1
		C2421.1,14132.1,2418.1,14113.5,2418.1,14093z"/>
	<path d="M2650.8,14220.8l1.7-11.5l35.9-8.1l16.4-226.1l-39.3-7.9l1.9-12h76.8l16,40.8l61.3,167.6l71.3-175.9l14.3-32.4h76.8
		l-1.5,12l-36.5,7.3l11.5,228l38.6,5.5l-1.3,12.8h-106.5l1.7-11.5l36.1-8.1l-12.2-212.4l-90.3,220.3l-19,3l-80.3-217.3l-15.2,207.7
		l39.1,5.5l-2.1,12.8H2650.8z"/>
</g>
<g>
	<path d="M401.2,11199l43.5,50.8c11.4,13.2,21.5,24.2,30.4,33c8.9,8.8,18.3,16.7,28.2,23.7c9.9,7,19.9,12.2,29.9,15.5
		c10,3.3,20.7,4.9,31.9,4.9c17.5,0,32.1-3.7,43.7-11c11.6-7.3,17.4-18.9,17.4-34.7c0-10.7-2.2-19.8-6.6-27.4
		c-4.4-7.6-9.8-13.1-16.2-16.5l-51.4-8.8l1.7-12.2l57.4-2.1c8.3,6.1,15.7,16.6,22.4,31.4c6.7,14.8,10,30,10,45.5
		c0,22.5-6.3,40.3-19,53.4c-12.7,13.1-31.2,19.6-55.5,19.6c-5.5,0-11-0.5-16.4-1.4c-5.4-0.9-10.8-2.5-16.2-4.8
		c-5.4-2.3-10.4-4.5-14.8-6.7c-4.5-2.2-9.5-5.5-14.9-9.8c-5.5-4.3-10.1-8-14-11.1c-3.8-3.1-8.6-7.6-14.2-13.6
		c-5.6-6-10.1-10.7-13.3-14.3c-3.3-3.6-7.9-9-13.9-16.2c-6-7.3-10.4-12.7-13.3-16.3c-2.9-3.6-7.6-9.4-14-17.4l-13.2-16.9v106.5
		l51.9,20.3l-1.7,11.7l-75.4-10v-163.7L401.2,11199z"/>
	<path d="M513.2,11461.8c12.9,0,26,1.6,39.1,4.7c13.1,3.1,25.9,8.1,38.5,14.9c12.6,6.8,23.7,15.1,33.4,24.9
		c9.7,9.7,17.5,21.9,23.4,36.5c5.9,14.6,8.9,30.5,8.9,47.7c0,31.4-7,56.4-21.1,74.9l-71.5-6.6l2.1-14.5l51.2-7.7
		c15.5-12,23.3-31,23.3-57.2c0-23.2-10.8-42.8-32.4-58.8c-21.6-16-49.5-24-83.7-24c-38.1,0-67.8,9-89.1,27
		c-21.3,18-31.9,41.4-31.9,70.3c0,14.2,3.4,28,10.2,41.2s15.4,24.9,25.6,35l-12.2,6.2c-12-9-22.8-22.2-32.4-39.8
		c-9.7-17.6-14.5-36.7-14.5-57.3c0-16.4,3.1-31.7,9.2-45.9c6.1-14.2,14.8-26.6,25.9-37.2c11.2-10.6,25.2-19,42.1-25.1
		C474.1,11464.9,492.7,11461.8,513.2,11461.8z"/>
	<path d="M385.4,11694.5l11.5,1.7l8.1,35.9l226.1,16.4l7.9-39.3l12,1.9v76.8l-40.8,16l-167.6,61.3l175.9,71.3l32.4,14.3v76.8
		l-12-1.5l-7.3-36.5l-228,11.5l-5.5,38.6l-12.8-1.3v-106.5l11.5,1.7l8.1,36.1l212.4-12.2l-220.3-90.3l-3-19l217.3-80.3l-207.7-15.2
		l-5.5,39.1l-12.8-2.1V11694.5z"/>
</g>
<g>
	<g>
		<g>
			<path class="st0" d="M902.3,3952.5"/>
			
				<ellipse transform="matrix(0.9994 -3.558623e-02 3.558623e-02 0.9994 -165.5283 78.303)" class="st0" cx="2116.9" cy="4689.1" rx="212" ry="277.8"/>
			
				<ellipse transform="matrix(0.9994 -3.558623e-02 3.558623e-02 0.9994 -165.5283 78.303)" class="st0" cx="2116.9" cy="4689.1" rx="179" ry="234.5"/>
			<g>
				<polygon class="st0" points="2192,4564.6 2151,4603.5 2111,4596.5 2080.2,4549.6 2031.4,4598 2055.2,4635.3 2062.5,4680.4 
					2047.2,4708.9 2020.6,4734.4 2059.4,4795 2097.7,4759.8 2137.1,4766.3 2168.7,4817.5 2216.7,4769.2 2182.7,4708 2188.9,4668.2 
					2229.8,4625.8 				"/>
			</g>
			<path class="st0" d="M2350.9,4281.6c0,0,41.1,460.3,31.5,714.2c-297.6,307.9-595.9-34.1-619.1-190.9
				c-1.8-69.3-12.5-496.5-18-712.3c0,0,21.9-97.7,114.4-134.4c92.6-36.6,673-263.6,705.9-262.3c162-54,727.1,50.1,572.8,252.6
				c-592.1,210.2-765.6,266.1-765.6,266.1S2343.2,4241.7,2350.9,4281.6z"/>
			<path class="st0" d="M3148.6,3933.7c-40.4-34-135.5-203.7-575.2-154.9c-331.7,105.4-704.6,269.4-704.6,269.4
				s-66.9,8.3-56.6,111.2c10.3,102.9,12.9,642.9,12.9,642.9s109,310.5,468.5,267.1"/>
			<path class="st0" d="M2354.3,4243.2"/>
			<path class="st0" d="M1822.9,4083.7"/>
			<ellipse class="st0" cx="2609.4" cy="3973" rx="154.3" ry="47.6"/>
			<polygon class="st0" points="902.3,3431.7 902.3,3952.5 4397.1,2360.7 4397.9,1836.7 			"/>
			<line class="st0" x1="902.3" y1="3952.5" x2="1745.3" y2="4121.7"/>
			<path class="st0" d="M5876.6,4911.5c392.7,74.6,784.7,148.6,1177.7,223.5"/>
			<path class="st0" d="M2354.3,4243.2c76,14.9,150,28.9,229,42.9c29,6,55,10,84,17c4,1,7,1,11,1c388,76,734,139,1122,213
				c693,133,1337,255,2006.4,381.1"/>
			<path class="st0" d="M1811.1,4139.5"/>
			<line class="st0" x1="1812" y1="4121.7" x2="2354.3" y2="4243.2"/>
			<path class="st0" d="M6260.1,4993.5"/>
			<path class="st0" d="M5728.6,4834.1"/>
			<g>
				
					<ellipse transform="matrix(0.9994 -3.558623e-02 3.558623e-02 0.9994 -190.8384 223.2799)" class="st0" cx="6176.9" cy="5472.6" rx="212" ry="277.8"/>
				
					<ellipse transform="matrix(0.9994 -3.558623e-02 3.558623e-02 0.9994 -190.8384 223.2799)" class="st0" cx="6176.9" cy="5472.6" rx="179" ry="234.5"/>
				<g>
					<polygon class="st0" points="6252.1,5348.1 6211.1,5387 6171,5380 6140.3,5333.1 6091.4,5381.5 6115.2,5418.8 6122.5,5463.9 
						6107.3,5492.4 6080.6,5517.9 6119.4,5578.5 6157.7,5543.3 6197.2,5549.8 6228.7,5601 6276.7,5552.7 6242.7,5491.5 
						6248.9,5451.7 6289.8,5409.3 					"/>
				</g>
				<path class="st0" d="M6410.9,5065.1c0,0,41.1,460.3,31.5,714.2c-297.6,307.9-595.9-34.1-619.1-190.9
					c-1.8-69.3-12.5-496.5-18-712.3c0,0,21.9-97.7,114.4-134.4c92.6-36.6,673-263.6,705.9-262.3c162-54,727.1,50.1,572.8,252.6
					c-592.1,210.2-765.6,266.1-765.6,266.1S6403.2,5025.2,6410.9,5065.1z"/>
				<path class="st0" d="M7208.6,4717.2c-40.4-34-135.5-203.7-575.2-154.9c-331.7,105.4-704.6,269.4-704.6,269.4
					s-66.9,8.3-56.6,111.2s12.9,642.9,12.9,642.9s109,310.5,468.5,267.1"/>
				<ellipse class="st0" cx="6669.4" cy="4756.5" rx="154.3" ry="47.6"/>
			</g>
			<path class="st0" d="M5716.9,4889.9"/>
		</g>
		<polyline class="st0" points="9955.9,3804.4 7054.3,5126.1 7054.3,8378.9 899.3,7529.3 899.3,1666.3 902.3,483.4 		"/>
		<polyline class="st0" points="7054.3,2526.9 7054.3,1666.3 902.3,483.4 465.5,730.3 465.5,1666.3 465.5,7535.4 465.5,7655.1 
			899.3,7529.3 		"/>
		<line class="st0" x1="4397.1" y1="2360.7" x2="9955.9" y2="3804.4"/>
		<line class="st0" x1="4397.1" y1="1836.7" x2="9955.9" y2="3280.5"/>
		<polyline class="st0" points="465.5,7655.1 6755.1,8537.1 7054.3,8378.9 		"/>
	</g>
	<line class="st0" x1="9943.8" y1="3788.5" x2="9944.7" y2="3264.6"/>
</g>
<polyline class="st7" points="1732.8,4465.3 1509.4,4465.3 1509.4,9879.3 "/>
<g id="TORNILLOSMET3">
	<path d="M8796.1,9438.8c-104.4-83.5-234.6-123.1-289.8-247.4c141.3-54.5,259.5,43,400.7,71.6c-106.5-82.8-235-122-287.6-247
		c143.9-55.8,262.1,46,401.3,71.6c-102.5-81.1-232.1-118.4-289.1-249.3c53.2-6,104.5-26,160.1-5.6c75.8,27.8,152.4,53.6,230.8,76.8
		c-92.8-81.9-224.8-118-277.8-243.9c143.1-56.3,260,44.9,399.8,71c-102.7-84.4-235.3-121.2-288.1-246.6
		c141-55.4,257.5,42.4,391.2,61.9c-32-20.5-64-40.9-95.9-61.5c-32.2-20.8-65.2-40.4-95.8-63.2c-10.8-8.1-15.8-24-23.4-36.3
		c4.7-3.4,9.4-6.7,14.1-10.1c100.6,64.4,203.7,125.3,300.2,195.3c32.2,23.4,47.4,70.3,74.4,112.8c-34.8,4.8-67.4,6.9-98.6,14.5
		c-16.5,4-32.8,15.3-45.3,27.3c-30.2,29.1-30.7,59.1,2.1,88.7c11.5,10.4,19.1,25.1,32.6,43.5c-36.7,5.2-69.6,8-101.5,15.2
		c-15.4,3.5-32.1,12.2-42.6,23.7c-26.6,29.2-40.4,60.6-1.1,92.9c11.8,9.7,18.9,25.2,32.4,44c-36.6,5-69.1,7.6-100.7,14.6
		c-15.3,3.4-31.6,12.3-42.7,23.5c-31.4,31.5-34.7,64.3,1.4,96.8c10.2,9.2,16.3,23,28.3,40.7c-36.9,5.3-69.4,8-100.8,15.2
		c-15.3,3.5-31.5,12.8-42.4,24.1c-29.1,29.9-36.1,61.4,0.5,93c11.4,9.8,18.2,25,31,43.3c-38.1,5.3-70.9,7.9-102.6,15.2
		c-15.2,3.5-30.7,13.5-41.9,24.7c-30.8,30.5-32.9,62,1.5,93.2c11.1,10.1,18.8,24,31.2,40.3c-18.7,3.4-32.3,7.8-46,8.1
		c-57.7,1.2-105.6,16.8-128.1,76.9c-3,7.9-12.1,14.9-20,19.3c-111.4,61.4-223.1,122.2-342.3,187.4c7-104.4,10.5-201.8,21.1-298.4
		c7.9-71.5,5.8-136.4-60.4-185.6C8537.3,9310.4,8655.5,9411.7,8796.1,9438.8z"/>
	<path d="M8937.9,8193.7c42-106.9,119.7-157.6,232.8-155.9c97.3,1.5,187.8,26.3,277.4,76.4c-36.6,57.1-71.4,111.4-107.9,168.3
		c45,28.8,85.7,54.9,130.1,83.4c35.9-56,70.8-110.4,108.9-169.8c106.3,85.9,189.8,180,212.2,315.6c12,72.6-23.2,129.1-67.3,185.9
		C9462.8,8530.1,9201.9,8362.9,8937.9,8193.7z"/>
	<circle class="st8" cx="8974" cy="9048.9" r="1348"/>
</g>
<polyline class="st7" points="6187.8,5750.2 6187.8,9293.1 7648.1,9293.1 "/>
<line class="st2" x1="2416.4" y1="11112" x2="3385.3" y2="11112"/>
<g>
	<path d="M3539.5,10432.7h114.3l-3.6,35.7l-7.8-1.2l-2.9-27h-36v115l19.3,3.3l-1.3,6.7h-53l0.6-6.2l18.3-4v-114.8h-34.6l-4.8,27.8
		l-7.6-1.2L3539.5,10432.7z"/>
	<path d="M3663.6,10438.6l0.9-6h48.4l-1,5.8l-17.7,3.6l28.1,99.2l30.9-103.8l11.8-1.6l28.4,104.6l31.1-97.8l-19.6-4.1l0.9-5.9h44.4
		l-0.9,6l-12.8,3.6l-40.5,123.4l-11.6,2.2l-28.2-106.2l-30.9,103.9l-12.5,2.1l-35.3-125.5L3663.6,10438.6z"/>
	<path d="M3860.4,10499.2c0-13.6,2.6-25.7,7.9-36.2c5.3-10.5,13-18.7,23-24.6c10.1-5.9,21.7-8.8,35-8.8c9.2,0,17.5,1.8,24.9,5.4
		c7.5,3.6,13.6,8.6,18.4,14.9c4.8,6.3,8.6,13.6,11.2,22c2.6,8.4,3.9,17.4,3.9,27c0,7-0.9,13.9-2.6,20.5c-1.7,6.6-4.4,12.9-8,18.9
		c-3.6,5.9-8,11.1-13.1,15.6c-5.1,4.4-11.3,8-18.5,10.6c-7.2,2.6-15.1,3.9-23.7,3.9c-11.4,0-21.7-3.1-30.6-9.3
		c-9-6.2-15.9-14.5-20.7-25C3862.8,10523.4,3860.4,10511.8,3860.4,10499.2z M3878.2,10493c0,9,1,17.5,2.9,25.3
		c1.9,7.9,4.7,14.8,8.4,20.9c3.7,6.1,8.5,10.9,14.4,14.5c5.9,3.6,12.7,5.3,20.2,5.3c6.1,0,11.7-1.1,16.6-3.2c5-2.2,9.1-5,12.3-8.6
		c3.2-3.6,5.9-7.8,8.1-12.6c2.2-4.8,3.7-9.7,4.7-14.8c1-5.1,1.4-10.3,1.4-15.7c0-12.1-1.7-23.1-5-32.9c-3.3-9.9-8.6-17.9-15.7-24.1
		c-7.1-6.2-15.6-9.3-25.4-9.3c-6.1,0-11.6,1-16.6,3.1c-4.9,2.1-9,4.8-12.3,8.3c-3.2,3.5-5.9,7.6-8.1,12.4c-2.2,4.8-3.7,9.8-4.6,15
		C3878.7,10481.8,3878.2,10487.2,3878.2,10493z"/>
	<path d="M4029.1,10499.2c0-13.6,2.6-25.7,7.9-36.2c5.3-10.5,13-18.7,23-24.6c10.1-5.9,21.7-8.8,35-8.8c9.2,0,17.5,1.8,24.9,5.4
		c7.5,3.6,13.6,8.6,18.4,14.9c4.8,6.3,8.6,13.6,11.2,22c2.6,8.4,3.9,17.4,3.9,27c0,7-0.9,13.9-2.6,20.5c-1.7,6.6-4.4,12.9-8,18.9
		c-3.6,5.9-8,11.1-13.1,15.6c-5.1,4.4-11.3,8-18.5,10.6c-7.2,2.6-15.1,3.9-23.7,3.9c-11.4,0-21.7-3.1-30.6-9.3
		c-9-6.2-15.9-14.5-20.7-25C4031.5,10523.4,4029.1,10511.8,4029.1,10499.2z M4046.9,10493c0,9,1,17.5,2.9,25.3
		c1.9,7.9,4.7,14.8,8.4,20.9c3.7,6.1,8.5,10.9,14.4,14.5c5.9,3.6,12.7,5.3,20.2,5.3c6.1,0,11.7-1.1,16.6-3.2c5-2.2,9.1-5,12.3-8.6
		c3.2-3.6,5.9-7.8,8.1-12.6c2.2-4.8,3.7-9.7,4.7-14.8c1-5.1,1.4-10.3,1.4-15.7c0-12.1-1.7-23.1-5-32.9c-3.3-9.9-8.6-17.9-15.7-24.1
		c-7.1-6.2-15.6-9.3-25.4-9.3c-6.1,0-11.6,1-16.6,3.1c-4.9,2.1-9,4.8-12.3,8.3c-3.2,3.5-5.9,7.6-8.1,12.4c-2.2,4.8-3.7,9.8-4.6,15
		C4047.3,10481.8,4046.9,10487.2,4046.9,10493z"/>
	<path d="M4163.8,10439l0.9-6.3h101.3l-3.9,34.2l-7.2-1.1l-3-25.6h-53v55.5h33.1l4.4-13.9l7.6-1.1l-3.1,41.6l-7.4,1.2l-2.6-20h-32.1
		l-0.1,51.5l25.7,3l-1.3,7.2h-58.7l0.5-6.2l18-4v-112.4L4163.8,10439z"/>
	<path d="M4309.5,10432.7h114.3l-3.6,35.7l-7.8-1.2l-2.9-27h-36v115l19.3,3.3l-1.3,6.7h-53l0.6-6.2l18.3-4v-114.8h-34.6l-4.8,27.8
		l-7.6-1.2L4309.5,10432.7z"/>
	<path d="M4433.8,10438.8l0.7-6.1h53.4l-0.9,6.1l-18,3.3v51.6h71.7v-51.4l-19.5-3.5l1-6.1h53.3l-1,6.1l-17.8,3.3v113.6l19.4,2.9
		l-0.9,6.7h-53.2l1.1-6.2l17.6-4v-52.9l-71.7,0.1v53.4l19.8,2.9l-1.3,6.7h-53l0.6-6.2l17.9-4v-112.8L4433.8,10438.8z"/>
	<path d="M4586.8,10439l1-6.3h101.4l-3.3,34l-7.1-1l-3.2-25.5h-53.6v53.8h33.6l4.3-13.7l7.7-1.2l-3.5,41.5l-7,1.2l-2.7-19.8h-32.3
		v55.3h56.4l9.2-26.5l6.6,1.2l-3.2,33.4h-103.4l0.6-6.2l18-4v-112.4L4586.8,10439z"/>
	<path d="M4737.6,10552.6l2.3-29.4l8,1.2l3.5,21.6c2.2,3.9,5.7,7.1,10.4,9.5c4.7,2.5,9.8,3.7,15.3,3.7c6.7,0,12.7-2,17.8-6
		c5.1-4,7.7-9.7,7.7-17.1c0-4.1-1.1-7.8-3.4-11.2c-2.2-3.4-5.2-6.5-8.8-9.2c-3.6-2.7-7.6-5.3-11.9-7.8c-4.3-2.6-8.7-5.2-13-8
		c-4.3-2.8-8.3-5.7-11.9-8.8s-6.6-6.9-8.8-11.3c-2.2-4.4-3.4-9.2-3.4-14.4c0-7.2,1.9-13.6,5.7-19.1c3.8-5.5,8.6-9.6,14.3-12.3
		c5.8-2.7,11.9-4,18.4-4c12.6,0,22.8,3.7,30.6,11.2l-2.9,31.5l-7.8-1l-2.8-23.2c-1.5-2.8-4.2-5.4-8.2-7.7c-4-2.3-8-3.4-12.2-3.4
		c-6,0-10.9,1.9-14.9,5.6c-3.9,3.7-5.9,8.9-5.9,15.6c0,4.3,1.2,8.4,3.5,12.1c2.3,3.7,5.3,7,9,9.7c3.7,2.7,7.7,5.4,12.1,8
		c4.4,2.6,8.8,5.3,13.3,8c4.4,2.7,8.5,5.6,12.2,8.7c3.7,3.1,6.6,6.7,9,10.9c2.3,4.2,3.5,8.9,3.5,13.9c0,11-4.3,20.1-13,27.2
		c-8.7,7.1-19.4,10.7-32.2,10.7c-7.4,0-14.2-1.5-20.6-4.4C4746.2,10560.7,4741.3,10557,4737.6,10552.6z"/>
	<path d="M4827.7,10438.8l1-6.1h53.1l-0.7,6.1l-18,3.3v69.6c0,30.6,12.8,45.8,38.4,45.8c11.7,0,20.7-3.5,27-10.6
		c6.4-7,9.5-17.5,9.5-31.3l0.1-73.3l-19.6-3.5l0.9-6.1h48.1l-1,6.1l-17.7,3.3l-0.5,69.6c-0.1,18.8-4.3,32.9-12.4,42.3
		c-8.1,9.5-21,14.2-38.8,14.2c-33.2,0-49.8-17.5-49.8-52.4v-73.4L4827.7,10438.8z"/>
	<path d="M4977,10565.3l0.9-6.2l17.4-4v-110.1l-17.7-2.8l0.9-6c0.6-0.1,2.3-0.3,5.1-0.8c2.8-0.5,4.6-0.8,5.5-0.9
		c0.9-0.1,2.7-0.4,5.3-0.7c2.6-0.4,4.6-0.6,6-0.7c1.3-0.1,3.3-0.3,5.7-0.6c2.5-0.2,4.6-0.4,6.4-0.5c1.8-0.1,3.9-0.2,6.2-0.3
		c2.3-0.1,4.6-0.2,6.8-0.2c5.8,0,11.2,0.4,16.3,1.2c5,0.8,9.8,2.2,14.3,4c4.5,1.9,8.4,4.3,11.6,7.2c3.2,2.9,5.7,6.6,7.6,11
		c1.9,4.4,2.8,9.5,2.8,15.2c0,8.3-2.4,15.8-7.1,22.5c-4.8,6.7-11,11.8-18.7,15.3s-15.9,5.3-24.7,5.3c-2.8,0-5.4-0.1-7.9-0.3
		l-1.6-6.6l5.7-0.2c12.4-0.5,21.7-3.7,27.7-9.5c6-5.8,9-13.7,9-23.6c0-4.7-0.7-9.1-2.2-13.2c-1.5-4.1-3.7-7.8-6.7-11
		c-3-3.3-6.9-5.9-11.8-7.8c-4.9-1.9-10.5-2.9-16.8-2.9l-11.3,0.6v116.4l25,3.1l-1.2,6.9H4977z"/>
	<path d="M5087.8,10565.3l0.9-6.2l17.4-4v-110.1l-17.7-2.8l0.9-6c0.6-0.1,2.3-0.3,5.1-0.8c2.8-0.5,4.6-0.8,5.5-0.9
		c0.9-0.1,2.7-0.4,5.3-0.7c2.6-0.4,4.6-0.6,6-0.7c1.3-0.1,3.3-0.3,5.7-0.6c2.5-0.2,4.6-0.4,6.4-0.5c1.8-0.1,3.9-0.2,6.2-0.3
		c2.3-0.1,4.6-0.2,6.8-0.2c5.8,0,11.2,0.4,16.3,1.2c5,0.8,9.8,2.2,14.3,4c4.5,1.9,8.4,4.3,11.6,7.2c3.2,2.9,5.7,6.6,7.6,11
		c1.9,4.4,2.8,9.5,2.8,15.2c0,8.3-2.4,15.8-7.1,22.5c-4.8,6.7-11,11.8-18.7,15.3c-7.7,3.6-15.9,5.3-24.7,5.3c-2.8,0-5.4-0.1-7.9-0.3
		l-1.6-6.6l5.6-0.2c12.4-0.5,21.7-3.7,27.7-9.5c6-5.8,9-13.7,9-23.6c0-4.7-0.7-9.1-2.2-13.2c-1.5-4.1-3.7-7.8-6.7-11
		c-3-3.3-6.9-5.9-11.8-7.8c-4.9-1.9-10.5-2.9-16.8-2.9l-11.3,0.6v116.4l25,3.1l-1.2,6.9H5087.8z"/>
	<path d="M5199,10499.2c0-13.6,2.6-25.7,7.9-36.2c5.3-10.5,13-18.7,23-24.6c10.1-5.9,21.7-8.8,35-8.8c9.2,0,17.5,1.8,24.9,5.4
		c7.5,3.6,13.6,8.6,18.4,14.9c4.8,6.3,8.6,13.6,11.2,22c2.6,8.4,3.9,17.4,3.9,27c0,7-0.9,13.9-2.6,20.5c-1.7,6.6-4.4,12.9-8,18.9
		c-3.6,5.9-8,11.1-13.1,15.6c-5.1,4.4-11.3,8-18.5,10.6c-7.2,2.6-15.1,3.9-23.7,3.9c-11.4,0-21.7-3.1-30.6-9.3
		c-9-6.2-15.9-14.5-20.7-25S5199,10511.8,5199,10499.2z M5216.8,10493c0,9,1,17.5,2.9,25.3c1.9,7.9,4.7,14.8,8.4,20.9
		c3.7,6.1,8.5,10.9,14.4,14.5c5.9,3.6,12.7,5.3,20.2,5.3c6.1,0,11.7-1.1,16.6-3.2c5-2.2,9.1-5,12.3-8.6c3.2-3.6,5.9-7.8,8.1-12.6
		c2.2-4.8,3.7-9.7,4.7-14.8c1-5.1,1.4-10.3,1.4-15.7c0-12.1-1.7-23.1-5-32.9c-3.3-9.9-8.6-17.9-15.7-24.1s-15.6-9.3-25.4-9.3
		c-6.1,0-11.6,1-16.6,3.1c-4.9,2.1-9,4.8-12.3,8.3c-3.2,3.5-5.9,7.6-8.1,12.4c-2.2,4.8-3.7,9.8-4.6,15
		C5217.2,10481.8,5216.8,10487.2,5216.8,10493z"/>
	<path d="M5333.5,10565.3l1-6.2l17.3-4v-109.9l-17.7-2.8l1.1-6c19.7-3.2,35.3-4.8,46.9-4.8c14.6,0,26.2,2.6,35,7.9
		c8.7,5.3,13.1,13.4,13.1,24.2c0,7.5-2.5,14.4-7.4,20.8c-4.9,6.4-12.4,11.8-22.6,16.1v0.1l19.8,28.6c7.2,10.3,12.6,17.3,16.4,21.1
		c3.8,3.7,8.1,6.4,13.1,7.9l4.4,1.4l-1.2,5.7c-3.5,1.2-7.2,1.8-11.3,1.8c-3.6,0-6.9-0.7-10.1-2c-3.2-1.3-6.1-3.4-9-6.1
		c-2.8-2.7-5.4-5.6-7.7-8.7c-2.3-3.1-4.7-6.9-7.3-11.3l-19.3-32.9h-20.7v48.8l21.3,3.4l-1.1,6.8H5333.5z M5367.4,10498.3h22.7
		c6.5-2.3,12-6.2,16.5-11.5c4.4-5.3,6.7-11.5,6.7-18.5c0-9.2-2.9-16.4-8.8-21.7c-5.9-5.3-13.9-8-24.1-8l-12.9,0.5V10498.3z"/>
	<path d="M5463.8,10432.7h114.3l-3.6,35.7l-7.8-1.2l-2.9-27h-36v115l19.3,3.3l-1.3,6.7h-53l0.6-6.2l18.3-4v-114.8h-34.6l-4.8,27.8
		l-7.6-1.2L5463.8,10432.7z"/>
	<path d="M5588.3,10552.6l2.3-29.4l8,1.2l3.5,21.6c2.2,3.9,5.7,7.1,10.4,9.5c4.7,2.5,9.8,3.7,15.3,3.7c6.8,0,12.7-2,17.8-6
		c5.1-4,7.7-9.7,7.7-17.1c0-4.1-1.1-7.8-3.4-11.2c-2.2-3.4-5.2-6.5-8.8-9.2c-3.6-2.7-7.6-5.3-11.9-7.8c-4.3-2.6-8.7-5.2-13-8
		c-4.3-2.8-8.3-5.7-11.9-8.8s-6.6-6.9-8.8-11.3c-2.2-4.4-3.4-9.2-3.4-14.4c0-7.2,1.9-13.6,5.7-19.1c3.8-5.5,8.6-9.6,14.3-12.3
		c5.8-2.7,11.9-4,18.4-4c12.6,0,22.8,3.7,30.6,11.2l-2.9,31.5l-7.8-1l-2.8-23.2c-1.5-2.8-4.2-5.4-8.2-7.7c-4-2.3-8-3.4-12.2-3.4
		c-6,0-10.9,1.9-14.9,5.6c-3.9,3.7-5.9,8.9-5.9,15.6c0,4.3,1.2,8.4,3.5,12.1c2.3,3.7,5.3,7,9,9.7c3.7,2.7,7.7,5.4,12.1,8
		c4.4,2.6,8.8,5.3,13.3,8c4.4,2.7,8.5,5.6,12.2,8.7c3.7,3.1,6.6,6.7,9,10.9c2.3,4.2,3.5,8.9,3.5,13.9c0,11-4.3,20.1-13,27.2
		c-8.7,7.1-19.4,10.7-32.2,10.7c-7.4,0-14.2-1.5-20.6-4.4C5596.9,10560.7,5591.9,10557,5588.3,10552.6z"/>
	<path d="M3539.5,10827.2l0.9-6.2l15.5-4.6l46.7-122l10.9-2.3l42.8,125l14.4,3.3l-0.9,6.8h-49.2l1.1-6.2l18-4.6l-13.2-37.7h-45.3
		l-14,38.4l19.7,3.4l-1.1,6.7H3539.5z M3584.1,10770.3h39.8l-19.2-56.1L3584.1,10770.3z"/>
	<path d="M3680.8,10700.6l1.1-6h34.9l71.1,108.6v-99l-19.7-3.5l1-6.1h48l-1.2,6.1l-17.7,3.3v123.5l-11.1,2.2l-76-114.2v102l19.6,2.9
		l-1.1,6.7h-47.8l0.6-6.2l17.8-4.1v-112L3680.8,10700.6z"/>
	<path d="M3827.1,10764.2c0-12.9,2.9-24.9,8.7-35.8c5.8-10.9,13.8-19.6,24.1-26.1c10.3-6.5,21.6-9.7,34.1-9.7c8.5,0,16.4,0.9,24,2.7
		c7.5,1.8,13.9,4.5,19,7.9l-3,34.2l-7-1.2l-3.5-22.8c-2.8-3.3-7.3-6.1-13.3-8.6c-6-2.5-12.9-3.7-20.6-3.7
		c-13.1,0-23.9,5.2-32.3,15.5c-8.4,10.3-12.6,24.4-12.6,42.3c0,6.4,0.7,12.5,2,18.4c1.3,5.9,3.4,11.5,6.2,16.8
		c2.8,5.3,6.2,9.9,10.3,13.8c4.1,3.9,9,7,14.9,9.3c5.9,2.3,12.4,3.4,19.5,3.4c9.2,0,16.9-2.1,23-6.2l0.1-36.7l-25.5-3.4l1.1-6.5
		h55.2l-1.1,6.1l-13.8,3.4v41.4c-6.9,4.1-14.3,7-22.3,8.7c-8,1.7-17.4,2.5-28.5,2.5c-17.9,0-32.2-6.1-42.8-18.2
		C3832.4,10799.6,3827.1,10783.8,3827.1,10764.2z"/>
	<path d="M3961.4,10827.2l0.9-6.2l17.8-4.1v-112.1l-19.2-4l1-6.2h53.5l-0.7,6.2l-18.7,3.6v114.8h51.9l11.2-28.4l6.8,1.1l-3.6,35.3
		H3961.4z"/>
	<path d="M4075.7,10700.9l1-6.3h101.4l-3.3,34l-7.1-1l-3.2-25.5h-53.6v53.8h33.6l4.3-13.8l7.7-1.2l-3.5,41.5l-7,1.2l-2.7-19.8h-32.3
		v55.3h56.4l9.2-26.5l6.6,1.2l-3.2,33.4h-103.4l0.6-6.2l18-4.1v-112.4L4075.7,10700.9z"/>
	<path d="M4226.8,10761.1c0-13.6,2.6-25.7,7.9-36.2c5.3-10.5,13-18.7,23-24.6c10.1-5.9,21.7-8.8,35-8.8c9.2,0,17.5,1.8,24.9,5.4
		c7.5,3.6,13.6,8.6,18.4,14.9c4.8,6.3,8.6,13.6,11.2,22c2.6,8.3,3.9,17.4,3.9,27c0,7-0.9,13.9-2.6,20.5c-1.7,6.6-4.4,12.9-8,18.9
		c-3.6,5.9-8,11.1-13.1,15.6c-5.1,4.4-11.3,8-18.5,10.6s-15.1,3.9-23.7,3.9c-11.4,0-21.7-3.1-30.6-9.3c-9-6.2-15.9-14.5-20.7-25
		C4229.2,10785.3,4226.8,10773.8,4226.8,10761.1z M4244.6,10755c0,9,1,17.5,2.9,25.3c1.9,7.9,4.7,14.8,8.4,20.9
		c3.7,6.1,8.5,10.9,14.4,14.5c5.9,3.6,12.7,5.3,20.2,5.3c6.1,0,11.7-1.1,16.6-3.3c5-2.2,9.1-5,12.3-8.6c3.2-3.6,5.9-7.8,8.1-12.6
		c2.2-4.8,3.7-9.7,4.7-14.8c1-5.1,1.4-10.3,1.4-15.7c0-12.1-1.7-23.1-5-32.9c-3.3-9.9-8.6-17.9-15.7-24.1
		c-7.1-6.2-15.6-9.3-25.4-9.3c-6.1,0-11.6,1-16.6,3.1c-4.9,2.1-9,4.8-12.3,8.3c-3.2,3.5-5.9,7.6-8.1,12.4c-2.2,4.8-3.7,9.8-4.6,15
		C4245,10743.7,4244.6,10749.2,4244.6,10755z"/>
	<path d="M4361.3,10700.6l1.1-6h34.9l71.1,108.6v-99l-19.7-3.5l1-6.1h48l-1.2,6.1l-17.7,3.3v123.5l-11.1,2.2l-76-114.2v102l19.6,2.9
		l-1.1,6.7h-47.8l0.6-6.2l17.8-4.1v-112L4361.3,10700.6z"/>
	<path d="M4540.9,10700.9l1-6.3h101.4l-3.3,34l-7.1-1l-3.2-25.5H4576v53.8h33.6l4.3-13.8l7.7-1.2l-3.5,41.5l-7,1.2l-2.7-19.8H4576
		v55.3h56.4l9.2-26.5l6.6,1.2l-3.2,33.4h-103.4l0.6-6.2l18-4.1v-112.4L4540.9,10700.9z"/>
	<path d="M4657.8,10827.2l0.9-6.2l15.5-4.6l46.7-122l10.9-2.3l42.8,125l14.4,3.3l-0.9,6.8h-49.2l1.1-6.2l18-4.6l-13.2-37.7h-45.3
		l-14,38.4l19.7,3.4l-1.1,6.7H4657.8z M4702.4,10770.3h39.8l-19.2-56.1L4702.4,10770.3z"/>
	<path d="M4799.6,10763.4c0-6.5,0.8-13,2.3-19.5c1.6-6.5,4-13,7.5-19.2c3.4-6.3,7.5-11.8,12.4-16.7s10.9-8.7,18.2-11.7
		c7.3-2.9,15.2-4.4,23.8-4.4c15.7,0,28.2,3.5,37.4,10.6l-3.3,35.7l-7.2-1.1l-3.8-25.6c-6-7.7-15.5-11.6-28.6-11.6
		c-11.6,0-21.4,5.4-29.4,16.2c-8,10.8-12,24.7-12,41.8c0,19,4.5,33.9,13.5,44.5c9,10.6,20.7,15.9,35.1,15.9c7.1,0,14-1.7,20.6-5.1
		s12.4-7.7,17.5-12.8l3.1,6.1c-4.5,6-11.1,11.4-19.9,16.2c-8.8,4.8-18.3,7.2-28.6,7.2c-8.2,0-15.8-1.5-22.9-4.6
		c-7.1-3.1-13.3-7.4-18.6-13c-5.3-5.6-9.5-12.6-12.5-21C4801.1,10782.9,4799.6,10773.6,4799.6,10763.4z"/>
	<path d="M4916,10700.7l0.7-6.1h53.4l-0.9,6.1l-18,3.3v51.6h71.7v-51.4l-19.5-3.5l1-6.1h53.3l-1,6.1l-17.8,3.3v113.6l19.4,2.9
		l-0.9,6.7h-53.2l1.1-6.2l17.6-4.1v-52.9l-71.7,0.1v53.4l19.8,2.9l-1.3,6.7h-53l0.6-6.2l17.9-4.1v-112.8L4916,10700.7z"/>
	<path d="M3539.7,11076.5l2.3-29.4l8,1.2l3.5,21.6c2.2,3.9,5.7,7.1,10.4,9.5c4.7,2.5,9.8,3.7,15.3,3.7c6.8,0,12.7-2,17.8-6
		c5.1-4,7.7-9.7,7.7-17.1c0-4.1-1.1-7.8-3.4-11.2c-2.2-3.4-5.2-6.5-8.8-9.2s-7.6-5.3-11.9-7.8c-4.3-2.6-8.7-5.2-13-8
		c-4.3-2.8-8.3-5.7-11.9-8.8c-3.6-3.1-6.6-6.9-8.8-11.3c-2.2-4.4-3.4-9.2-3.4-14.4c0-7.2,1.9-13.6,5.7-19.1
		c3.8-5.5,8.6-9.6,14.3-12.3c5.8-2.7,11.9-4,18.4-4c12.6,0,22.8,3.7,30.6,11.2l-2.9,31.5l-7.8-1l-2.8-23.2c-1.5-2.8-4.2-5.4-8.2-7.7
		c-4-2.3-8-3.4-12.2-3.4c-6,0-10.9,1.9-14.9,5.6c-3.9,3.7-5.9,8.9-5.9,15.6c0,4.3,1.2,8.4,3.5,12.1c2.3,3.7,5.3,7,9,9.7
		c3.7,2.7,7.7,5.4,12.1,8c4.4,2.6,8.8,5.3,13.3,8c4.4,2.7,8.5,5.6,12.2,8.7c3.7,3.1,6.6,6.7,9,10.9c2.3,4.2,3.5,8.9,3.5,13.9
		c0,11-4.3,20.1-13,27.2c-8.7,7.1-19.4,10.7-32.2,10.7c-7.4,0-14.2-1.5-20.6-4.4C3548.3,11084.5,3543.3,11080.9,3539.7,11076.5z"/>
	<path d="M3630.1,10962.6l0.9-6.1h53.4l-1,6.1l-18.3,3.3v113.6l19.9,2.9l-1.1,6.7h-53l0.7-6.2l17.3-4v-112.8L3630.1,10962.6z"/>
	<path d="M3695.4,11089.2l1.2-6.2l18.2-4.6v-109.5l-18.4-2.8l1.1-6c22.1-3.5,39.6-5.2,52.5-5.2c11,0,20.9,1.2,29.5,3.6
		c8.7,2.4,15.8,5.6,21.3,9.6c5.5,4,10.1,8.8,13.7,14.4c3.6,5.6,6.1,11.5,7.6,17.5c1.5,6,2.2,12.5,2.2,19.3c0,7.4-1,14.5-3,21.3
		c-2,6.8-5.1,13.1-9.3,19c-4.2,5.9-9.4,11-15.6,15.3c-6.1,4.3-13.6,7.8-22.5,10.3c-8.8,2.5-18.6,3.8-29.2,3.8H3695.4z
		 M3730.4,11080.7h17.3c18.5,0,33-5.1,43.5-15.4c10.5-10.3,15.8-23.6,15.8-40c0-9-1.3-17.3-3.9-24.8c-2.6-7.5-6.4-14-11.3-19.6
		c-4.9-5.6-11.3-9.9-19.1-13c-7.8-3.1-16.6-4.6-26.5-4.6c-7.6,0-12.9,0.2-15.8,0.5V11080.7z"/>
	<path d="M3834.4,10962.9l1-6.3h101.4l-3.3,34l-7.1-1l-3.2-25.5h-53.6v53.8h33.6l4.3-13.7l7.7-1.2l-3.5,41.5l-7,1.2l-2.7-19.8h-32.3
		v55.3h56.4l9.2-26.5l6.6,1.2l-3.2,33.4h-103.4l0.6-6.2l18-4v-112.4L3834.4,10962.9z"/>
	<path d="M3985,10956.6h114.3l-3.6,35.7l-7.8-1.2l-2.9-27h-36v115l19.3,3.3l-1.3,6.7h-53l0.6-6.2l18.3-4v-114.8h-34.6l-4.8,27.8
		l-7.6-1.2L3985,10956.6z"/>
	<path d="M4109.7,11023.1c0-13.6,2.6-25.7,7.9-36.2c5.3-10.5,13-18.7,23-24.6c10.1-5.9,21.7-8.8,35-8.8c9.2,0,17.5,1.8,24.9,5.4
		s13.6,8.6,18.4,14.9c4.8,6.3,8.6,13.6,11.2,22c2.6,8.3,3.9,17.4,3.9,27c0,7-0.9,13.9-2.6,20.5c-1.7,6.6-4.4,12.9-8,18.9
		c-3.6,5.9-8,11.1-13.1,15.6c-5.1,4.4-11.3,8-18.5,10.6c-7.2,2.6-15.1,3.9-23.7,3.9c-11.4,0-21.7-3.1-30.6-9.3
		c-9-6.2-15.9-14.5-20.7-25C4112.1,11047.3,4109.7,11035.7,4109.7,11023.1z M4127.5,11016.9c0,9,1,17.5,2.9,25.3
		c1.9,7.9,4.7,14.8,8.4,20.9c3.7,6.1,8.5,10.9,14.4,14.5c5.9,3.6,12.7,5.3,20.2,5.3c6.1,0,11.7-1.1,16.6-3.3c5-2.2,9.1-5,12.3-8.6
		s5.9-7.8,8.1-12.6c2.2-4.8,3.7-9.7,4.7-14.8c1-5.1,1.4-10.3,1.4-15.7c0-12.1-1.7-23.1-5-32.9c-3.3-9.9-8.6-17.9-15.7-24.1
		c-7.1-6.2-15.6-9.3-25.4-9.3c-6.1,0-11.6,1-16.6,3.1c-4.9,2.1-9,4.8-12.3,8.3c-3.2,3.5-5.9,7.6-8.1,12.4c-2.2,4.8-3.7,9.8-4.6,15
		C4128,11005.7,4127.5,11011.1,4127.5,11016.9z"/>
	<path d="M4277.9,10962.6l0.7-6.1h53.4l-0.9,6.1l-18,3.3v51.6h71.7v-51.4l-19.5-3.5l1-6.1h53.3l-1,6.1l-17.8,3.3v113.6l19.4,2.9
		l-0.9,6.7h-53.2l1.1-6.2l17.6-4v-52.9l-71.7,0.1v53.4l19.8,2.9l-1.3,6.7h-53l0.6-6.2l17.9-4v-112.8L4277.9,10962.6z"/>
	<path d="M4431.3,11023.1c0-13.6,2.6-25.7,7.9-36.2c5.3-10.5,13-18.7,23-24.6c10.1-5.9,21.7-8.8,35-8.8c9.2,0,17.5,1.8,24.9,5.4
		s13.6,8.6,18.4,14.9c4.8,6.3,8.6,13.6,11.2,22c2.6,8.3,3.9,17.4,3.9,27c0,7-0.9,13.9-2.6,20.5c-1.7,6.6-4.4,12.9-8,18.9
		c-3.6,5.9-8,11.1-13.1,15.6c-5.1,4.4-11.3,8-18.5,10.6c-7.2,2.6-15.1,3.9-23.7,3.9c-11.4,0-21.7-3.1-30.6-9.3
		c-9-6.2-15.9-14.5-20.7-25C4433.7,11047.3,4431.3,11035.7,4431.3,11023.1z M4449.1,11016.9c0,9,1,17.5,2.9,25.3s4.7,14.8,8.4,20.9
		c3.7,6.1,8.5,10.9,14.4,14.5c5.9,3.6,12.7,5.3,20.2,5.3c6.1,0,11.7-1.1,16.6-3.3c5-2.2,9.1-5,12.3-8.6c3.2-3.6,5.9-7.8,8.1-12.6
		c2.2-4.8,3.7-9.7,4.7-14.8c1-5.1,1.4-10.3,1.4-15.7c0-12.1-1.7-23.1-5-32.9c-3.3-9.9-8.6-17.9-15.7-24.1
		c-7.1-6.2-15.6-9.3-25.4-9.3c-6.1,0-11.6,1-16.6,3.1c-4.9,2.1-9,4.8-12.3,8.3c-3.2,3.5-5.9,7.6-8.1,12.4c-2.2,4.8-3.7,9.8-4.6,15
		C4449.6,11005.7,4449.1,11011.1,4449.1,11016.9z"/>
	<path d="M4566.5,11089.2l0.9-6.2l17.8-4v-112.1l-19.2-4.1l1-6.2h53.5l-0.7,6.2l-18.7,3.6v114.8h51.9l11.2-28.4l6.8,1.1l-3.6,35.3
		H4566.5z"/>
	<path d="M4680.6,11089.2l1.2-6.2l18.2-4.6v-109.5l-18.4-2.8l1.1-6c22.1-3.5,39.6-5.2,52.5-5.2c11,0,20.9,1.2,29.5,3.6
		c8.7,2.4,15.8,5.6,21.3,9.6c5.5,4,10.1,8.8,13.7,14.4c3.6,5.6,6.1,11.5,7.6,17.5c1.5,6,2.2,12.5,2.2,19.3c0,7.4-1,14.5-3,21.3
		c-2,6.8-5.1,13.1-9.3,19c-4.2,5.9-9.4,11-15.6,15.3c-6.1,4.3-13.6,7.8-22.5,10.3c-8.8,2.5-18.6,3.8-29.2,3.8H4680.6z
		 M4715.6,11080.7h17.3c18.5,0,33-5.1,43.5-15.4c10.5-10.3,15.8-23.6,15.8-40c0-9-1.3-17.3-3.9-24.8c-2.6-7.5-6.4-14-11.3-19.6
		c-4.9-5.6-11.3-9.9-19.1-13c-7.8-3.1-16.6-4.6-26.5-4.6c-7.6,0-12.9,0.2-15.8,0.5V11080.7z"/>
	<path d="M4853.2,10956.6h114.3l-3.6,35.7l-7.8-1.2l-2.9-27h-36v115l19.3,3.3l-1.3,6.7h-53l0.6-6.2l18.3-4v-114.8h-34.6l-4.8,27.8
		l-7.6-1.2L4853.2,10956.6z"/>
	<path d="M4977.5,10962.6l0.7-6.1h53.4l-0.9,6.1l-18,3.3v51.6h71.7v-51.4l-19.5-3.5l1-6.1h53.3l-1,6.1l-17.8,3.3v113.6l19.4,2.9
		l-0.9,6.7h-53.2l1.1-6.2l17.6-4v-52.9l-71.7,0.1v53.4l19.8,2.9l-1.3,6.7h-53l0.6-6.2l17.9-4v-112.8L4977.5,10962.6z"/>
	<path d="M5130.5,10962.9l1-6.3h101.4l-3.3,34l-7.1-1l-3.2-25.5h-53.6v53.8h33.6l4.3-13.7l7.7-1.2l-3.5,41.5l-7,1.2l-2.7-19.8h-32.3
		v55.3h56.4l9.2-26.5l6.6,1.2l-3.2,33.4h-103.4l0.6-6.2l18-4v-112.4L5130.5,10962.9z"/>
	<path d="M5281.3,11076.5l2.3-29.4l8,1.2l3.5,21.6c2.2,3.9,5.7,7.1,10.4,9.5c4.7,2.5,9.8,3.7,15.3,3.7c6.8,0,12.7-2,17.8-6
		c5.1-4,7.7-9.7,7.7-17.1c0-4.1-1.1-7.8-3.4-11.2c-2.2-3.4-5.2-6.5-8.8-9.2s-7.6-5.3-11.9-7.8c-4.3-2.6-8.7-5.2-13-8
		c-4.3-2.8-8.3-5.7-11.9-8.8c-3.6-3.1-6.6-6.9-8.8-11.3c-2.2-4.4-3.4-9.2-3.4-14.4c0-7.2,1.9-13.6,5.7-19.1
		c3.8-5.5,8.6-9.6,14.3-12.3c5.8-2.7,11.9-4,18.4-4c12.6,0,22.8,3.7,30.6,11.2l-2.9,31.5l-7.8-1l-2.8-23.2c-1.5-2.8-4.2-5.4-8.2-7.7
		c-4-2.3-8-3.4-12.2-3.4c-6,0-10.9,1.9-14.9,5.6c-3.9,3.7-5.9,8.9-5.9,15.6c0,4.3,1.2,8.4,3.5,12.1c2.3,3.7,5.3,7,9,9.7
		c3.7,2.7,7.7,5.4,12.1,8c4.4,2.6,8.8,5.3,13.3,8c4.4,2.7,8.5,5.6,12.2,8.7c3.7,3.1,6.6,6.7,9,10.9c2.3,4.2,3.5,8.9,3.5,13.9
		c0,11-4.3,20.1-13,27.2c-8.7,7.1-19.4,10.7-32.2,10.7c-7.4,0-14.2-1.5-20.6-4.4C5289.9,11084.5,5285,11080.9,5281.3,11076.5z"/>
	<path d="M5371.7,10962.6l0.7-6.1h53.4l-0.9,6.1l-18,3.3v51.6h71.7v-51.4l-19.5-3.5l1-6.1h53.3l-1,6.1l-17.8,3.3v113.6l19.4,2.9
		l-0.9,6.7h-53.2l1.1-6.2l17.6-4v-52.9l-71.7,0.1v53.4l19.8,2.9l-1.3,6.7h-53l0.6-6.2l17.9-4v-112.8L5371.7,10962.6z"/>
	<path d="M5524.8,10962.9l1-6.3h101.4l-3.3,34l-7.1-1l-3.2-25.5h-53.6v53.8h33.6l4.3-13.7l7.7-1.2l-3.5,41.5l-7,1.2l-2.7-19.8h-32.3
		v55.3h56.4l9.2-26.5l6.6,1.2l-3.2,33.4h-103.4l0.6-6.2l18-4v-112.4L5524.8,10962.9z"/>
	<path d="M5642.4,11089.2l0.9-6.2l17.8-4v-112.1l-19.2-4.1l1-6.2h53.5l-0.7,6.2l-18.7,3.6v114.8h51.9l11.2-28.4l6.8,1.1l-3.6,35.3
		H5642.4z"/>
	<path d="M5756.8,10962.9l0.9-6.3h101.3l-3.9,34.2l-7.2-1.1l-3-25.6h-53v55.5h33.1l4.4-13.9l7.6-1.1l-3.1,41.6l-7.4,1.2l-2.6-20
		h-32.1l-0.1,51.5l25.7,3l-1.3,7.2h-58.7l0.5-6.2l18-4v-112.4L5756.8,10962.9z"/>
	<path d="M5902.5,11089.2l0.9-6.2l15.5-4.6l46.7-122l10.9-2.3l42.8,125l14.4,3.3l-0.9,6.8h-49.2l1.1-6.2l18-4.6l-13.2-37.7h-45.3
		l-14,38.4l19.7,3.4l-1.1,6.7H5902.5z M5947.1,11032.2h39.8l-19.2-56.1L5947.1,11032.2z"/>
	<path d="M6043.9,11089.2l1-6.2l17.3-4V10969l-17.7-2.8l1.1-6c19.7-3.2,35.3-4.8,46.9-4.8c14.6,0,26.2,2.6,35,7.9
		c8.7,5.3,13.1,13.4,13.1,24.2c0,7.5-2.5,14.4-7.4,20.8c-4.9,6.4-12.4,11.8-22.6,16.1v0.1l19.8,28.6c7.2,10.3,12.6,17.3,16.4,21.1
		c3.8,3.7,8.1,6.4,13.1,7.9l4.4,1.4l-1.2,5.6c-3.5,1.2-7.2,1.8-11.3,1.8c-3.6,0-6.9-0.7-10.1-2c-3.2-1.3-6.1-3.4-9-6.1
		c-2.8-2.7-5.4-5.6-7.7-8.7c-2.3-3.1-4.7-6.9-7.3-11.3l-19.3-32.9h-20.7v48.8l21.3,3.4l-1.1,6.8H6043.9z M6077.8,11022.2h22.7
		c6.5-2.3,12-6.2,16.5-11.5c4.4-5.3,6.7-11.5,6.7-18.5c0-9.2-2.9-16.4-8.8-21.7c-5.9-5.3-13.9-8-24.1-8l-12.9,0.5V11022.2z"/>
	<path d="M6174.3,10962.9l1-6.3h101.4l-3.3,34l-7.1-1l-3.2-25.5h-53.6v53.8h33.6l4.3-13.7l7.7-1.2l-3.5,41.5l-7,1.2l-2.7-19.8h-32.3
		v55.3h56.4l9.2-26.5l6.6,1.2l-3.2,33.4H6175l0.6-6.2l18-4v-112.4L6174.3,10962.9z"/>
	<path d="M6324.9,10956.6h114.3l-3.6,35.7l-7.8-1.2l-2.9-27h-36v115l19.3,3.3l-1.3,6.7h-53l0.6-6.2l18.3-4v-114.8h-34.6l-4.8,27.8
		l-7.6-1.2L6324.9,10956.6z"/>
	<path d="M6449,10962.5l0.9-6h48.4l-1,5.8l-17.7,3.6l28.1,99.2l30.9-103.8l11.8-1.6l28.4,104.6l31.1-97.8l-19.6-4l0.9-5.9h44.4
		l-0.9,6l-12.8,3.6l-40.5,123.4l-11.6,2.2l-28.2-106.2l-30.9,103.9l-12.5,2.1l-35.3-125.5L6449,10962.5z"/>
	<path d="M6645.9,11023.1c0-13.6,2.6-25.7,7.9-36.2c5.3-10.5,13-18.7,23-24.6c10.1-5.9,21.7-8.8,35-8.8c9.2,0,17.5,1.8,24.9,5.4
		s13.6,8.6,18.4,14.9c4.8,6.3,8.6,13.6,11.2,22c2.6,8.3,3.9,17.4,3.9,27c0,7-0.9,13.9-2.6,20.5c-1.7,6.6-4.4,12.9-8,18.9
		c-3.6,5.9-8,11.1-13.1,15.6c-5.1,4.4-11.3,8-18.5,10.6c-7.2,2.6-15.1,3.9-23.7,3.9c-11.4,0-21.7-3.1-30.6-9.3
		c-9-6.2-15.9-14.5-20.7-25S6645.9,11035.7,6645.9,11023.1z M6663.7,11016.9c0,9,1,17.5,2.9,25.3c1.9,7.9,4.7,14.8,8.4,20.9
		c3.7,6.1,8.5,10.9,14.4,14.5c5.9,3.6,12.7,5.3,20.2,5.3c6.1,0,11.7-1.1,16.6-3.3c5-2.2,9.1-5,12.3-8.6s5.9-7.8,8.1-12.6
		c2.2-4.8,3.7-9.7,4.7-14.8s1.4-10.3,1.4-15.7c0-12.1-1.7-23.1-5-32.9c-3.3-9.9-8.6-17.9-15.7-24.1c-7.1-6.2-15.6-9.3-25.4-9.3
		c-6.1,0-11.6,1-16.6,3.1c-4.9,2.1-9,4.8-12.3,8.3c-3.2,3.5-5.9,7.6-8.1,12.4c-2.2,4.8-3.7,9.8-4.6,15
		C6664.1,11005.7,6663.7,11011.1,6663.7,11016.9z"/>
	<path d="M6781.3,11114.7c12.8-4.2,19.2-10.9,19.2-20.3c0-3.8-1.1-6.9-3.4-9.4c-2.3-2.5-5.1-3.8-8.5-3.8c-1.1,0-2.1,0.1-3.1,0.3
		c-0.6-1.7-0.9-3.2-0.9-4.4c0-3.4,1.2-6.1,3.5-8.2c2.3-2.1,5-3.1,8-3.1c4.4,0,8.3,1.9,11.8,5.8c3.4,3.8,5.2,9.3,5.2,16.5
		c0,2.8-0.4,5.6-1.2,8.4c-0.8,2.8-2.2,5.7-4.2,8.8c-2,3.1-5.1,6.1-9.2,8.8c-4.2,2.7-9.2,5-15.2,6.7L6781.3,11114.7z"/>
	<path d="M3539.5,11218.5h114.3l-3.6,35.7l-7.8-1.2l-2.9-27h-36v115l19.3,3.3l-1.3,6.7h-53l0.6-6.2l18.3-4.1v-114.8h-34.6l-4.8,27.8
		l-7.6-1.2L3539.5,11218.5z"/>
	<path d="M3663.8,11224.6l0.7-6.1h53.4l-0.9,6.1l-18,3.3v51.6h71.7v-51.4l-19.5-3.5l1-6.1h53.3l-1,6.1l-17.8,3.3v113.6l19.4,2.9
		l-0.9,6.7h-53.2l1.1-6.2l17.6-4.1v-52.9l-71.7,0.1v53.4l19.8,2.9l-1.3,6.7h-53l0.6-6.2l17.9-4.1v-112.8L3663.8,11224.6z"/>
	<path d="M3816.8,11224.8l1-6.3h101.4l-3.3,34l-7.1-1l-3.2-25.5h-53.6v53.8h33.6l4.3-13.8l7.7-1.2l-3.5,41.5l-7,1.2l-2.7-19.8h-32.3
		v55.3h56.4l9.2-26.5l6.6,1.2l-3.2,33.4h-103.4l0.6-6.2l18-4.1v-112.4L3816.8,11224.8z"/>
	<path d="M3967.7,11338.4l2.3-29.4l8,1.2l3.5,21.6c2.2,3.9,5.7,7.1,10.4,9.5c4.7,2.5,9.8,3.7,15.3,3.7c6.8,0,12.7-2,17.8-6
		c5.1-4,7.7-9.7,7.7-17.1c0-4-1.1-7.8-3.4-11.2c-2.2-3.4-5.2-6.5-8.8-9.2c-3.6-2.7-7.6-5.3-11.9-7.8c-4.3-2.6-8.7-5.2-13-8
		c-4.3-2.8-8.3-5.7-11.9-8.8c-3.6-3.1-6.6-6.9-8.8-11.3c-2.2-4.4-3.4-9.2-3.4-14.4c0-7.2,1.9-13.6,5.7-19.1
		c3.8-5.5,8.6-9.6,14.3-12.3c5.8-2.7,11.9-4,18.4-4c12.6,0,22.8,3.7,30.6,11.2l-2.9,31.5l-7.8-1l-2.8-23.2c-1.5-2.8-4.2-5.4-8.2-7.7
		c-4-2.3-8-3.4-12.2-3.4c-6,0-10.9,1.9-14.9,5.6c-3.9,3.7-5.9,8.9-5.9,15.6c0,4.3,1.2,8.4,3.5,12.1c2.3,3.7,5.3,7,9,9.7
		c3.7,2.7,7.7,5.4,12.1,8c4.4,2.6,8.8,5.3,13.3,8c4.4,2.7,8.5,5.6,12.2,8.7c3.7,3.1,6.6,6.7,9,10.9c2.3,4.2,3.5,8.9,3.5,13.9
		c0,11-4.3,20.1-13,27.2c-8.7,7.1-19.4,10.7-32.2,10.7c-7.4,0-14.2-1.5-20.6-4.4C3976.3,11346.5,3971.3,11342.8,3967.7,11338.4z"/>
	<path d="M4058.1,11351.1l0.9-6.2l15.5-4.6l46.7-122l10.9-2.3l42.8,125l14.4,3.3l-0.9,6.8h-49.2l1.1-6.2l18-4.6l-13.2-37.7h-45.3
		l-14,38.4l19.7,3.4l-1.1,6.7H4058.1z M4102.6,11294.2h39.8l-19.2-56.1L4102.6,11294.2z"/>
	<path d="M4199.2,11351.1l0.9-5.8l17.9-4l8.2-112.9l-19.6-3.9l1-6h38.4l8,20.4l30.6,83.7l35.6-87.8l7.1-16.2h38.4l-0.7,6l-18.2,3.6
		l5.8,113.8l19.3,2.8l-0.6,6.4h-53.2l0.9-5.8l18-4l-6.1-106.1l-45.1,110l-9.5,1.5l-40.1-108.5l-7.6,103.7l19.5,2.8l-1.1,6.4H4199.2z
		"/>
	<path d="M4381.9,11224.8l1-6.3h101.4l-3.3,34l-7.1-1l-3.2-25.5h-53.6v53.8h33.6l4.3-13.8l7.7-1.2l-3.5,41.5l-7,1.2l-2.7-19.8h-32.3
		v55.3h56.4l9.2-26.5l6.6,1.2l-3.2,33.4h-103.4l0.6-6.2l18-4.1v-112.4L4381.9,11224.8z"/>
	<path d="M4532.5,11224.6l0.9-6.1h53.4l-1,6.1l-18.3,3.3v113.6l19.9,2.9l-1.1,6.7h-53l0.7-6.2l17.3-4.1v-112.8L4532.5,11224.6z"/>
	<path d="M4597.9,11218.5h114.3l-3.6,35.7l-7.8-1.2l-2.9-27h-36v115l19.3,3.3l-1.3,6.7h-53l0.6-6.2l18.3-4.1v-114.8h-34.6l-4.8,27.8
		l-7.6-1.2L4597.9,11218.5z"/>
	<path d="M4723.2,11263.3c12.8-4.2,19.2-10.9,19.2-20.3c0-3.8-1.1-6.9-3.4-9.4c-2.3-2.5-5.1-3.8-8.5-3.8c-1.1,0-2.1,0.1-3.1,0.3
		c-0.6-1.7-0.9-3.2-0.9-4.4c0-3.4,1.2-6.1,3.5-8.2c2.3-2.1,5-3.1,8-3.1c4.4,0,8.3,1.9,11.8,5.8c3.4,3.8,5.2,9.3,5.2,16.5
		c0,2.8-0.4,5.6-1.2,8.4c-0.8,2.8-2.2,5.7-4.2,8.8c-2,3.1-5.1,6.1-9.2,8.8c-4.2,2.7-9.2,5-15.2,6.7L4723.2,11263.3z"/>
	<path d="M4765.7,11338.4l2.3-29.4l8,1.2l3.5,21.6c2.2,3.9,5.7,7.1,10.4,9.5c4.7,2.5,9.8,3.7,15.3,3.7c6.8,0,12.7-2,17.8-6
		c5.1-4,7.7-9.7,7.7-17.1c0-4-1.1-7.8-3.4-11.2c-2.2-3.4-5.2-6.5-8.8-9.2c-3.6-2.7-7.6-5.3-11.9-7.8c-4.3-2.6-8.7-5.2-13-8
		c-4.3-2.8-8.3-5.7-11.9-8.8c-3.6-3.1-6.6-6.9-8.8-11.3c-2.2-4.4-3.4-9.2-3.4-14.4c0-7.2,1.9-13.6,5.7-19.1
		c3.8-5.5,8.6-9.6,14.3-12.3c5.8-2.7,11.9-4,18.4-4c12.6,0,22.8,3.7,30.6,11.2l-2.9,31.5l-7.8-1l-2.8-23.2c-1.5-2.8-4.2-5.4-8.2-7.7
		c-4-2.3-8-3.4-12.2-3.4c-6,0-10.9,1.9-14.9,5.6c-3.9,3.7-5.9,8.9-5.9,15.6c0,4.3,1.2,8.4,3.5,12.1c2.3,3.7,5.3,7,9,9.7
		c3.7,2.7,7.7,5.4,12.1,8c4.4,2.6,8.8,5.3,13.3,8c4.4,2.7,8.5,5.6,12.2,8.7c3.7,3.1,6.6,6.7,9,10.9c2.3,4.2,3.5,8.9,3.5,13.9
		c0,11-4.3,20.1-13,27.2c-8.7,7.1-19.4,10.7-32.2,10.7c-7.4,0-14.2-1.5-20.6-4.4C4774.3,11346.5,4769.3,11342.8,4765.7,11338.4z"/>
	<path d="M4889.5,11351.1l0.9-5.8l17.9-4l8.2-112.9l-19.6-3.9l1-6h38.4l8,20.4l30.6,83.7l35.6-87.8l7.1-16.2h38.4l-0.7,6l-18.2,3.6
		l5.8,113.8l19.3,2.8l-0.6,6.4h-53.2l0.9-5.8l18-4l-6.1-106.1l-45.1,110l-9.5,1.5l-40.1-108.5l-7.6,103.7l19.5,2.8l-1.1,6.4H4889.5z
		"/>
	<path d="M5072.2,11224.8l1-6.3h101.4l-3.3,34l-7.1-1l-3.2-25.5h-53.6v53.8h33.6l4.3-13.8l7.7-1.2l-3.5,41.5l-7,1.2l-2.7-19.8h-32.3
		v55.3h56.4l9.2-26.5l6.6,1.2l-3.2,33.4h-103.4l0.6-6.2l18-4.1v-112.4L5072.2,11224.8z"/>
	<path d="M5189.1,11351.1l0.9-6.2l15.5-4.6l46.7-122l10.9-2.3l42.8,125l14.4,3.3l-0.9,6.8h-49.2l1.1-6.2l18-4.6l-13.2-37.7h-45.3
		l-14,38.4l19.7,3.4l-1.1,6.7H5189.1z M5233.7,11294.2h39.8l-19.2-56.1L5233.7,11294.2z"/>
	<path d="M5330.7,11338.4l2.3-29.4l8,1.2l3.5,21.6c2.2,3.9,5.7,7.1,10.4,9.5c4.7,2.5,9.8,3.7,15.3,3.7c6.8,0,12.7-2,17.8-6
		c5.1-4,7.7-9.7,7.7-17.1c0-4-1.1-7.8-3.4-11.2c-2.2-3.4-5.2-6.5-8.8-9.2c-3.6-2.7-7.6-5.3-11.9-7.8c-4.3-2.6-8.7-5.2-13-8
		c-4.3-2.8-8.3-5.7-11.9-8.8c-3.6-3.1-6.6-6.9-8.8-11.3c-2.2-4.4-3.4-9.2-3.4-14.4c0-7.2,1.9-13.6,5.7-19.1
		c3.8-5.5,8.6-9.6,14.3-12.3c5.8-2.7,11.9-4,18.4-4c12.6,0,22.8,3.7,30.6,11.2l-2.9,31.5l-7.8-1l-2.8-23.2c-1.5-2.8-4.2-5.4-8.2-7.7
		c-4-2.3-8-3.4-12.2-3.4c-6,0-10.9,1.9-14.9,5.6c-3.9,3.7-5.9,8.9-5.9,15.6c0,4.3,1.2,8.4,3.5,12.1c2.3,3.7,5.3,7,9,9.7
		c3.7,2.7,7.7,5.4,12.1,8c4.4,2.6,8.8,5.3,13.3,8c4.4,2.7,8.5,5.6,12.2,8.7c3.7,3.1,6.6,6.7,9,10.9c2.3,4.2,3.5,8.9,3.5,13.9
		c0,11-4.3,20.1-13,27.2c-8.7,7.1-19.4,10.7-32.2,10.7c-7.4,0-14.2-1.5-20.6-4.4C5339.3,11346.5,5334.3,11342.8,5330.7,11338.4z"/>
	<path d="M5420.8,11224.6l1-6.1h53.1l-0.7,6.1l-18,3.3v69.6c0,30.6,12.8,45.8,38.4,45.8c11.7,0,20.7-3.5,27-10.6
		c6.4-7,9.5-17.5,9.5-31.3l0.1-73.3l-19.6-3.5l0.9-6.1h48.1l-1,6.1l-17.7,3.3l-0.5,69.6c-0.1,18.8-4.3,32.9-12.4,42.3
		c-8.1,9.5-21,14.2-38.8,14.2c-33.2,0-49.8-17.5-49.8-52.4v-73.4L5420.8,11224.6z"/>
	<path d="M5570.1,11351.1l1-6.2l17.3-4.1V11231l-17.7-2.8l1.1-6c19.7-3.2,35.3-4.8,46.9-4.8c14.6,0,26.2,2.6,35,7.9
		c8.7,5.3,13.1,13.4,13.1,24.2c0,7.5-2.5,14.4-7.4,20.8c-4.9,6.4-12.4,11.8-22.6,16.1v0.1l19.8,28.6c7.2,10.3,12.6,17.3,16.4,21.1
		c3.8,3.7,8.1,6.4,13.1,7.9l4.4,1.4l-1.2,5.6c-3.5,1.2-7.2,1.8-11.3,1.8c-3.6,0-6.9-0.7-10.1-2s-6.1-3.4-9-6.1
		c-2.8-2.7-5.4-5.6-7.7-8.7c-2.3-3.1-4.7-6.9-7.3-11.3l-19.3-32.9H5604v48.8l21.3,3.4l-1.1,6.8H5570.1z M5604,11284.2h22.7
		c6.5-2.3,12-6.2,16.5-11.5c4.4-5.3,6.7-11.5,6.7-18.5c0-9.2-2.9-16.4-8.8-21.7c-5.9-5.3-13.9-8-24.1-8l-12.9,0.5V11284.2z"/>
	<path d="M5700.5,11224.8l1-6.3h101.4l-3.3,34l-7.1-1l-3.2-25.5h-53.6v53.8h33.6l4.3-13.8l7.7-1.2l-3.5,41.5l-7,1.2l-2.7-19.8h-32.3
		v55.3h56.4l9.2-26.5l6.6,1.2l-3.2,33.4h-103.4l0.6-6.2l18-4.1v-112.4L5700.5,11224.8z"/>
	<path d="M5817.7,11338.4l2.3-29.4l8,1.2l3.5,21.6c2.2,3.9,5.7,7.1,10.4,9.5c4.7,2.5,9.8,3.7,15.3,3.7c6.8,0,12.7-2,17.8-6
		c5.1-4,7.7-9.7,7.7-17.1c0-4-1.1-7.8-3.4-11.2c-2.2-3.4-5.2-6.5-8.8-9.2c-3.6-2.7-7.6-5.3-11.9-7.8c-4.3-2.6-8.7-5.2-13-8
		c-4.3-2.8-8.3-5.7-11.9-8.8c-3.6-3.1-6.6-6.9-8.8-11.3c-2.2-4.4-3.4-9.2-3.4-14.4c0-7.2,1.9-13.6,5.7-19.1
		c3.8-5.5,8.6-9.6,14.3-12.3c5.8-2.7,11.9-4,18.4-4c12.6,0,22.8,3.7,30.6,11.2l-2.9,31.5l-7.8-1l-2.8-23.2c-1.5-2.8-4.2-5.4-8.2-7.7
		c-4-2.3-8-3.4-12.2-3.4c-6,0-10.9,1.9-14.9,5.6c-3.9,3.7-5.9,8.9-5.9,15.6c0,4.3,1.2,8.4,3.5,12.1c2.3,3.7,5.3,7,9,9.7
		c3.7,2.7,7.7,5.4,12.1,8c4.4,2.6,8.8,5.3,13.3,8c4.4,2.7,8.5,5.6,12.2,8.7c3.7,3.1,6.6,6.7,9,10.9c2.3,4.2,3.5,8.9,3.5,13.9
		c0,11-4.3,20.1-13,27.2c-8.7,7.1-19.4,10.7-32.2,10.7c-7.4,0-14.2-1.5-20.6-4.4C5826.3,11346.5,5821.3,11342.8,5817.7,11338.4z"/>
	<path d="M3539.5,11486.5l0.9-6.1h53.4l-1,6.1l-18.3,3.3v113.6l19.9,2.9l-1.1,6.7h-53l0.7-6.2l17.3-4.1v-112.8L3539.5,11486.5z"/>
	<path d="M3605.2,11600.4l2.3-29.4l8,1.2l3.5,21.6c2.2,3.9,5.7,7.1,10.4,9.5c4.7,2.5,9.8,3.7,15.3,3.7c6.8,0,12.7-2,17.8-6
		c5.1-4,7.7-9.7,7.7-17.1c0-4-1.1-7.8-3.4-11.2c-2.2-3.4-5.2-6.5-8.8-9.2c-3.6-2.7-7.6-5.3-11.9-7.8c-4.3-2.6-8.7-5.2-13-8
		c-4.3-2.8-8.3-5.7-11.9-8.8c-3.6-3.1-6.6-6.9-8.8-11.3c-2.2-4.4-3.4-9.2-3.4-14.4c0-7.2,1.9-13.6,5.7-19.1
		c3.8-5.5,8.6-9.6,14.3-12.3c5.8-2.7,11.9-4,18.4-4c12.6,0,22.8,3.7,30.6,11.2l-2.9,31.5l-7.8-1l-2.8-23.2c-1.5-2.8-4.2-5.4-8.2-7.7
		c-4-2.3-8-3.4-12.2-3.4c-6,0-10.9,1.9-14.9,5.6c-3.9,3.7-5.9,8.9-5.9,15.6c0,4.3,1.2,8.4,3.5,12.1c2.3,3.7,5.3,7,9,9.7
		c3.7,2.7,7.7,5.4,12.1,8c4.4,2.6,8.8,5.3,13.3,8c4.4,2.7,8.5,5.6,12.2,8.7c3.7,3.1,6.6,6.7,9,10.9c2.3,4.2,3.5,8.9,3.5,13.9
		c0,11-4.3,20.1-13,27.2c-8.7,7.1-19.4,10.7-32.2,10.7c-7.4,0-14.2-1.5-20.6-4.4C3613.8,11608.4,3608.8,11604.8,3605.2,11600.4z"/>
	<path d="M3729.2,11480.5h114.3l-3.6,35.7l-7.8-1.2l-2.9-27h-36v115l19.3,3.3l-1.3,6.7h-53l0.6-6.2l18.3-4.1V11488h-34.6l-4.8,27.8
		l-7.6-1.2L3729.2,11480.5z"/>
	<path d="M3853.5,11486.5l0.7-6.1h53.4l-0.9,6.1l-18,3.3v51.6h71.7v-51.4l-19.5-3.5l1-6.1h53.3l-1,6.1l-17.8,3.3v113.6l19.4,2.9
		l-0.9,6.7h-53.2l1.1-6.2l17.6-4.1v-52.9l-71.7,0.1v53.4l19.8,2.9l-1.3,6.7h-53l0.6-6.2l17.9-4.1v-112.8L3853.5,11486.5z"/>
	<path d="M4006.6,11486.8l1-6.3h101.4l-3.3,34l-7.1-1l-3.2-25.5h-53.6v53.8h33.6l4.3-13.8l7.7-1.2l-3.5,41.5l-7,1.2l-2.7-19.8h-32.3
		v55.3h56.4l9.2-26.5l6.6,1.2l-3.2,33.4h-103.4l0.6-6.2l18-4.1v-112.4L4006.6,11486.8z"/>
	<path d="M4157.1,11605.2l25.4-21.7c6.6-5.7,12.1-10.7,16.5-15.2c4.4-4.4,8.3-9.1,11.8-14.1c3.5-4.9,6.1-9.9,7.7-14.9
		c1.6-5,2.5-10.3,2.5-15.9c0-8.7-1.8-16-5.5-21.8c-3.7-5.8-9.4-8.7-17.3-8.7c-5.3,0-9.9,1.1-13.7,3.3c-3.8,2.2-6.6,4.9-8.3,8.1
		l-4.4,25.7l-6.1-0.9l-1.1-28.7c3.1-4.1,8.3-7.9,15.7-11.2c7.4-3.3,15-5,22.7-5c11.2,0,20.1,3.2,26.6,9.5c6.5,6.3,9.8,15.6,9.8,27.7
		c0,2.8-0.2,5.5-0.7,8.2c-0.5,2.7-1.3,5.4-2.4,8.1c-1.1,2.7-2.3,5.2-3.4,7.4c-1.1,2.2-2.7,4.7-4.9,7.5c-2.2,2.7-4,5.1-5.5,7
		c-1.5,1.9-3.8,4.3-6.8,7.1c-3,2.8-5.4,5-7.1,6.7c-1.8,1.6-4.5,3.9-8.1,6.9c-3.6,3-6.3,5.2-8.2,6.7c-1.8,1.5-4.7,3.8-8.7,7l-8.4,6.6
		h53.2l10.1-25.9l5.9,0.9l-5,37.6h-81.8L4157.1,11605.2z"/>
	<path d="M4288.3,11549.2c0-6.5,0.8-13,2.3-19.5c1.6-6.5,4.1-13,7.5-19.2c3.4-6.3,7.5-11.8,12.4-16.7c4.9-4.8,10.9-8.7,18.2-11.7
		c7.3-2.9,15.2-4.4,23.8-4.4c15.7,0,28.2,3.5,37.4,10.6l-3.3,35.7l-7.2-1.1l-3.8-25.6c-6-7.7-15.5-11.6-28.6-11.6
		c-11.6,0-21.4,5.4-29.4,16.2c-8,10.8-12,24.7-12,41.8c0,19,4.5,33.9,13.5,44.5c9,10.6,20.7,15.9,35.1,15.9c7.1,0,14-1.7,20.6-5.1
		c6.6-3.4,12.4-7.7,17.5-12.8l3.1,6.1c-4.5,6-11.1,11.4-19.9,16.2c-8.8,4.8-18.3,7.2-28.6,7.2c-8.2,0-15.8-1.5-22.9-4.6
		c-7.1-3.1-13.3-7.4-18.6-13c-5.3-5.6-9.5-12.6-12.5-21C4289.8,11568.8,4288.3,11559.4,4288.3,11549.2z"/>
	<path d="M4404.5,11613.1l0.9-5.8l17.9-4l8.2-112.9l-19.6-3.9l1-6h38.4l8,20.4l30.6,83.7l35.6-87.8l7.1-16.2h38.4l-0.7,6l-18.2,3.6
		l5.8,113.8l19.3,2.8l-0.6,6.4h-53.2l0.9-5.8l18-4l-6.1-106.1l-45.1,110l-9.5,1.5l-40.1-108.5l-7.6,103.7l19.5,2.8l-1.1,6.4H4404.5z
		"/>
	<path d="M4621.4,11613.1l0.9-6.2l17.8-4.1v-112.1l-19.2-4l1-6.2h53.5l-0.7,6.2l-18.7,3.6v114.8h51.9l11.2-28.4l6.8,1.1l-3.6,35.3
		H4621.4z"/>
	<path d="M4736,11547c0-13.6,2.6-25.7,7.9-36.2c5.3-10.5,13-18.7,23-24.6c10.1-5.9,21.7-8.8,35-8.8c9.2,0,17.5,1.8,24.9,5.4
		c7.5,3.6,13.6,8.6,18.4,14.9c4.8,6.3,8.6,13.6,11.2,22c2.6,8.4,3.9,17.4,3.9,27c0,7-0.9,13.9-2.6,20.5c-1.7,6.6-4.4,12.9-8,18.9
		c-3.6,5.9-8,11.1-13.1,15.6c-5.1,4.4-11.3,8-18.5,10.6s-15.1,3.9-23.7,3.9c-11.4,0-21.7-3.1-30.6-9.3c-9-6.2-15.9-14.5-20.7-25
		C4738.4,11571.2,4736,11559.6,4736,11547z M4753.8,11540.8c0,9,1,17.5,2.9,25.3c1.9,7.9,4.7,14.8,8.4,20.9
		c3.7,6.1,8.5,10.9,14.4,14.5c5.9,3.6,12.7,5.3,20.2,5.3c6.1,0,11.7-1.1,16.6-3.3c5-2.2,9.1-5,12.3-8.6c3.2-3.6,5.9-7.8,8.1-12.6
		c2.2-4.8,3.7-9.7,4.7-14.8c1-5.1,1.4-10.3,1.4-15.7c0-12.1-1.7-23.1-5-32.9c-3.3-9.9-8.6-17.9-15.7-24.1
		c-7.1-6.2-15.6-9.3-25.4-9.3c-6.1,0-11.6,1-16.6,3.1c-4.9,2.1-9,4.8-12.3,8.3c-3.2,3.5-5.9,7.6-8.1,12.4c-2.2,4.8-3.7,9.8-4.6,15
		C4754.3,11529.5,4753.8,11535,4753.8,11540.8z"/>
	<path d="M4870.6,11486.4l1.1-6h34.9l71.1,108.6v-99l-19.7-3.5l1-6.1h48l-1.2,6.1l-17.7,3.3v123.5l-11.1,2.2l-76-114.2v102l19.6,2.9
		l-1.1,6.7h-47.8l0.6-6.2l17.8-4.1v-112L4870.6,11486.4z"/>
	<path d="M5016.8,11550.1c0-12.9,2.9-24.9,8.7-35.8c5.8-10.9,13.8-19.6,24.1-26.1c10.3-6.5,21.6-9.7,34.1-9.7c8.5,0,16.4,0.9,24,2.7
		c7.5,1.8,13.9,4.5,19,7.9l-3,34.2l-7-1.2l-3.5-22.8c-2.8-3.3-7.3-6.1-13.3-8.6c-6-2.5-12.9-3.7-20.6-3.7
		c-13.1,0-23.9,5.2-32.3,15.5c-8.4,10.3-12.6,24.4-12.6,42.3c0,6.4,0.7,12.5,2,18.4c1.3,5.9,3.4,11.5,6.2,16.8
		c2.8,5.3,6.2,9.9,10.3,13.8c4,3.9,9,7,14.9,9.3c5.9,2.3,12.4,3.4,19.5,3.4c9.2,0,16.9-2.1,23-6.2l0.1-36.7l-25.5-3.4l1.1-6.5h55.2
		l-1.1,6.1l-13.8,3.4v41.4c-6.9,4.1-14.3,7-22.3,8.7c-8,1.7-17.4,2.5-28.5,2.5c-17.9,0-32.2-6.1-42.8-18.2
		C5022.1,11585.5,5016.8,11569.6,5016.8,11550.1z"/>
	<path d="M5184.4,11486.8l0.9-6.3h101.3l-3.9,34.2l-7.2-1.1l-3-25.6h-53v55.5h33.1l4.4-13.9l7.6-1.1l-3.1,41.6l-7.4,1.2l-2.6-20
		h-32.1l-0.1,51.5l25.7,3l-1.3,7.2h-58.7l0.5-6.2l18-4.1v-112.4L5184.4,11486.8z"/>
	<path d="M5296.8,11547c0-13.6,2.6-25.7,7.9-36.2c5.3-10.5,13-18.7,23-24.6c10.1-5.9,21.7-8.8,35-8.8c9.2,0,17.5,1.8,24.9,5.4
		c7.5,3.6,13.6,8.6,18.4,14.9c4.8,6.3,8.6,13.6,11.2,22c2.6,8.4,3.9,17.4,3.9,27c0,7-0.9,13.9-2.6,20.5c-1.7,6.6-4.4,12.9-8,18.9
		c-3.6,5.9-8,11.1-13.1,15.6c-5.1,4.4-11.3,8-18.5,10.6c-7.2,2.6-15.1,3.9-23.7,3.9c-11.4,0-21.7-3.1-30.6-9.3
		c-9-6.2-15.9-14.5-20.7-25C5299.2,11571.2,5296.8,11559.6,5296.8,11547z M5314.6,11540.8c0,9,1,17.5,2.9,25.3
		c1.9,7.9,4.7,14.8,8.4,20.9c3.7,6.1,8.5,10.9,14.4,14.5c5.9,3.6,12.7,5.3,20.2,5.3c6.1,0,11.7-1.1,16.6-3.3c5-2.2,9.1-5,12.3-8.6
		c3.2-3.6,5.9-7.8,8.1-12.6c2.2-4.8,3.7-9.7,4.7-14.8c1-5.1,1.4-10.3,1.4-15.7c0-12.1-1.7-23.1-5-32.9c-3.3-9.9-8.6-17.9-15.7-24.1
		c-7.1-6.2-15.6-9.3-25.4-9.3c-6.1,0-11.6,1-16.6,3.1c-4.9,2.1-9,4.8-12.3,8.3c-3.2,3.5-5.9,7.6-8.1,12.4c-2.2,4.8-3.7,9.8-4.6,15
		C5315.1,11529.5,5314.6,11535,5314.6,11540.8z"/>
	<path d="M5431.3,11613.1l1-6.2l17.3-4.1v-109.9l-17.7-2.8l1.1-6c19.7-3.2,35.3-4.8,46.9-4.8c14.6,0,26.2,2.6,35,7.9
		c8.7,5.3,13.1,13.4,13.1,24.2c0,7.5-2.5,14.4-7.4,20.8c-4.9,6.4-12.4,11.8-22.6,16.1v0.1l19.8,28.6c7.2,10.3,12.6,17.3,16.4,21.1
		c3.8,3.7,8.1,6.4,13.1,7.9l4.4,1.4l-1.2,5.6c-3.5,1.2-7.2,1.8-11.3,1.8c-3.6,0-6.9-0.7-10.1-2c-3.2-1.3-6.1-3.4-9-6.1
		c-2.8-2.7-5.4-5.6-7.7-8.7c-2.3-3.1-4.7-6.9-7.3-11.3l-19.3-32.9h-20.7v48.8l21.3,3.4l-1.1,6.8H5431.3z M5465.2,11546.1h22.7
		c6.5-2.3,12-6.2,16.5-11.5c4.4-5.3,6.7-11.5,6.7-18.5c0-9.2-2.9-16.4-8.8-21.7s-13.9-8-24.1-8l-12.9,0.5V11546.1z"/>
	<path d="M5595.2,11605.2l25.4-21.7c6.6-5.7,12.1-10.7,16.5-15.2c4.4-4.4,8.3-9.1,11.8-14.1c3.5-4.9,6.1-9.9,7.7-14.9
		c1.6-5,2.5-10.3,2.5-15.9c0-8.7-1.8-16-5.5-21.8c-3.7-5.8-9.4-8.7-17.3-8.7c-5.3,0-9.9,1.1-13.7,3.3c-3.8,2.2-6.6,4.9-8.3,8.1
		l-4.4,25.7l-6.1-0.9l-1.1-28.7c3.1-4.1,8.3-7.9,15.7-11.2c7.4-3.3,15-5,22.7-5c11.2,0,20.1,3.2,26.6,9.5c6.5,6.3,9.8,15.6,9.8,27.7
		c0,2.8-0.2,5.5-0.7,8.2c-0.5,2.7-1.3,5.4-2.4,8.1c-1.1,2.7-2.3,5.2-3.4,7.4c-1.1,2.2-2.7,4.7-4.9,7.5c-2.2,2.7-4,5.1-5.5,7
		c-1.5,1.9-3.8,4.3-6.8,7.1c-3,2.8-5.4,5-7.1,6.7c-1.8,1.6-4.5,3.9-8.1,6.9c-3.6,3-6.3,5.2-8.2,6.7c-1.8,1.5-4.7,3.8-8.7,7l-8.4,6.6
		h53.2l10.1-25.9l5.9,0.9l-5,37.6h-81.8L5595.2,11605.2z"/>
	<path d="M5726,11486.5l0.7-6.1h53.4l-0.9,6.1l-18,3.3v51.6h71.7v-51.4l-19.5-3.5l1-6.1h53.3l-1,6.1l-17.8,3.3v113.6l19.4,2.9
		l-0.9,6.7h-53.2l1.1-6.2l17.6-4.1v-52.9l-71.7,0.1v53.4l19.8,2.9l-1.3,6.7h-53l0.6-6.2l17.9-4.1v-112.8L5726,11486.5z"/>
	<path d="M5879,11486.5l0.9-6.1h53.4l-1,6.1l-18.3,3.3v113.6l19.9,2.9l-1.1,6.7h-53l0.7-6.2l17.3-4.1v-112.8L5879,11486.5z"/>
	<path d="M5944.8,11550.1c0-12.9,2.9-24.9,8.7-35.8c5.8-10.9,13.8-19.6,24.1-26.1c10.3-6.5,21.6-9.7,34.1-9.7c8.5,0,16.4,0.9,24,2.7
		c7.5,1.8,13.9,4.5,19,7.9l-3,34.2l-7-1.2l-3.5-22.8c-2.8-3.3-7.3-6.1-13.3-8.6c-6-2.5-12.9-3.7-20.6-3.7
		c-13.1,0-23.9,5.2-32.3,15.5c-8.4,10.3-12.6,24.4-12.6,42.3c0,6.4,0.7,12.5,2,18.4c1.3,5.9,3.4,11.5,6.2,16.8
		c2.8,5.3,6.2,9.9,10.3,13.8c4,3.9,9,7,14.9,9.3c5.9,2.3,12.4,3.4,19.5,3.4c9.2,0,16.9-2.1,23-6.2l0.1-36.7l-25.5-3.4l1.1-6.5h55.2
		l-1.1,6.1l-13.7,3.4v41.4c-6.9,4.1-14.3,7-22.3,8.7c-8,1.7-17.4,2.5-28.5,2.5c-17.9,0-32.2-6.1-42.8-18.2
		C5950.2,11585.5,5944.8,11569.6,5944.8,11550.1z"/>
	<path d="M6078.5,11486.5l0.7-6.1h53.4l-0.9,6.1l-18,3.3v51.6h71.7v-51.4l-19.5-3.5l1-6.1h53.3l-1,6.1l-17.8,3.3v113.6l19.4,2.9
		l-0.9,6.7h-53.2l1.1-6.2l17.6-4.1v-52.9l-71.7,0.1v53.4l19.8,2.9l-1.3,6.7h-53l0.6-6.2l17.9-4.1v-112.8L6078.5,11486.5z"/>
	<path d="M3539.6,11748.7l1-6.3h101.4l-3.3,34l-7.1-1l-3.2-25.5h-53.6v53.8h33.6l4.3-13.8l7.7-1.2l-3.5,41.5l-7,1.2l-2.7-19.8h-32.3
		v55.3h56.4l9.2-26.5l6.6,1.2l-3.2,33.4h-103.4l0.6-6.2l18-4.1v-112.4L3539.6,11748.7z"/>
	<path d="M3656.5,11875l0.9-6.2l15.5-4.6l46.7-122l10.9-2.3l42.8,125l14.4,3.3l-0.9,6.8h-49.2l1.1-6.2l18-4.6l-13.2-37.7h-45.3
		l-14,38.4l19.7,3.4l-1.1,6.7H3656.5z M3701.1,11818.1h39.8l-19.2-56.1L3701.1,11818.1z"/>
	<path d="M3798.3,11811.2c0-6.5,0.8-13,2.3-19.5c1.6-6.5,4-13,7.5-19.2c3.4-6.3,7.5-11.8,12.4-16.7c4.9-4.8,10.9-8.7,18.2-11.7
		c7.3-2.9,15.2-4.4,23.8-4.4c15.7,0,28.2,3.5,37.4,10.6l-3.3,35.7l-7.2-1.1l-3.8-25.6c-6-7.7-15.5-11.6-28.6-11.6
		c-11.6,0-21.4,5.4-29.4,16.2c-8,10.8-12,24.7-12,41.8c0,19,4.5,33.9,13.5,44.5c9,10.6,20.7,15.9,35.1,15.9c7.1,0,14-1.7,20.6-5.1
		s12.4-7.7,17.5-12.8l3.1,6.1c-4.5,6-11.1,11.4-19.9,16.2c-8.8,4.8-18.3,7.2-28.6,7.2c-8.2,0-15.8-1.5-22.9-4.6
		c-7.1-3.1-13.3-7.4-18.6-13c-5.3-5.6-9.5-12.6-12.5-21C3799.8,11830.7,3798.3,11821.4,3798.3,11811.2z"/>
	<path d="M3914.7,11748.5l0.7-6.1h53.4l-0.9,6.1l-18,3.3v51.6h71.7v-51.4l-19.5-3.5l1-6.1h53.3l-1,6.1l-17.8,3.3v113.6l19.4,2.9
		l-0.9,6.7h-53.2l1.1-6.2l17.6-4.1v-52.9l-71.7,0.1v53.4l19.8,2.9l-1.3,6.7h-53l0.6-6.2l17.9-4.1V11752L3914.7,11748.5z"/>
	<path d="M4101.5,11862.3l2.3-29.4l8,1.2l3.5,21.6c2.2,3.9,5.7,7.1,10.4,9.5c4.7,2.5,9.8,3.7,15.3,3.7c6.8,0,12.7-2,17.8-6
		c5.1-4,7.7-9.7,7.7-17.1c0-4-1.1-7.8-3.4-11.2c-2.2-3.4-5.2-6.5-8.8-9.2c-3.6-2.7-7.6-5.3-11.9-7.8c-4.3-2.6-8.7-5.2-13-8
		c-4.3-2.8-8.3-5.7-11.9-8.8c-3.6-3.1-6.6-6.9-8.8-11.3c-2.2-4.4-3.4-9.2-3.4-14.4c0-7.2,1.9-13.6,5.7-19.1
		c3.8-5.5,8.6-9.6,14.3-12.3c5.8-2.7,11.9-4,18.4-4c12.6,0,22.8,3.7,30.6,11.2l-2.9,31.5l-7.8-1l-2.8-23.2c-1.5-2.8-4.2-5.4-8.2-7.7
		c-4-2.3-8-3.4-12.2-3.4c-6,0-10.9,1.9-14.9,5.6c-3.9,3.7-5.9,8.9-5.9,15.6c0,4.3,1.2,8.4,3.5,12.1c2.3,3.7,5.3,7,9,9.7
		c3.7,2.7,7.7,5.4,12.1,8c4.4,2.6,8.8,5.3,13.3,8c4.4,2.7,8.5,5.6,12.2,8.7c3.7,3.1,6.6,6.7,9,10.9c2.3,4.2,3.5,8.9,3.5,13.9
		c0,11-4.3,20.1-13,27.2c-8.7,7.1-19.4,10.7-32.2,10.7c-7.4,0-14.2-1.5-20.6-4.4C4110.1,11870.4,4105.2,11866.7,4101.5,11862.3z"/>
	<path d="M4191.6,11748.5l1-6.1h53.1l-0.7,6.1l-18,3.3v69.6c0,30.6,12.8,45.8,38.4,45.8c11.7,0,20.7-3.5,27-10.6
		c6.4-7,9.5-17.5,9.5-31.3l0.1-73.3l-19.6-3.5l0.9-6.1h48.1l-1,6.1l-17.7,3.3l-0.5,69.6c-0.1,18.8-4.3,32.9-12.4,42.3
		c-8.1,9.5-21,14.2-38.8,14.2c-33.2,0-49.8-17.5-49.8-52.4v-73.4L4191.6,11748.5z"/>
	<path d="M4340.9,11875l0.9-6.2l17.4-4.1v-110.1l-17.7-2.8l0.9-6c0.6-0.1,2.3-0.3,5.1-0.8c2.8-0.5,4.6-0.8,5.5-0.9
		c0.9-0.1,2.7-0.4,5.3-0.7c2.6-0.4,4.6-0.6,6-0.7c1.3-0.1,3.3-0.3,5.7-0.6c2.5-0.2,4.6-0.4,6.4-0.5c1.8-0.1,3.9-0.2,6.2-0.3
		c2.3-0.1,4.6-0.2,6.8-0.2c5.8,0,11.2,0.4,16.3,1.2c5,0.8,9.8,2.2,14.3,4c4.5,1.9,8.4,4.3,11.6,7.2c3.2,2.9,5.7,6.6,7.6,11
		c1.9,4.4,2.8,9.5,2.8,15.2c0,8.3-2.4,15.8-7.1,22.5c-4.8,6.7-11,11.8-18.7,15.3c-7.7,3.6-15.9,5.3-24.7,5.3c-2.8,0-5.4-0.1-7.9-0.3
		l-1.6-6.6l5.6-0.2c12.4-0.5,21.7-3.7,27.7-9.5c6-5.8,9-13.7,9-23.6c0-4.7-0.7-9.1-2.2-13.2c-1.5-4.1-3.7-7.8-6.7-11
		c-3-3.3-6.9-5.9-11.8-7.8c-4.9-1.9-10.5-2.9-16.8-2.9l-11.3,0.6v116.4l25,3.1l-1.2,6.9H4340.9z"/>
	<path d="M4451.7,11875l0.9-6.2l17.4-4.1v-110.1l-17.7-2.8l0.9-6c0.6-0.1,2.3-0.3,5.1-0.8c2.8-0.5,4.6-0.8,5.5-0.9
		c0.9-0.1,2.7-0.4,5.3-0.7c2.6-0.4,4.6-0.6,6-0.7c1.3-0.1,3.3-0.3,5.7-0.6c2.5-0.2,4.6-0.4,6.4-0.5c1.8-0.1,3.9-0.2,6.2-0.3
		c2.3-0.1,4.6-0.2,6.8-0.2c5.8,0,11.2,0.4,16.3,1.2c5,0.8,9.8,2.2,14.3,4c4.5,1.9,8.4,4.3,11.6,7.2c3.2,2.9,5.7,6.6,7.6,11
		c1.9,4.4,2.8,9.5,2.8,15.2c0,8.3-2.4,15.8-7.1,22.5c-4.8,6.7-11,11.8-18.7,15.3c-7.7,3.6-15.9,5.3-24.7,5.3c-2.8,0-5.4-0.1-7.9-0.3
		l-1.6-6.6l5.6-0.2c12.4-0.5,21.7-3.7,27.7-9.5c6-5.8,9-13.7,9-23.6c0-4.7-0.7-9.1-2.2-13.2c-1.5-4.1-3.7-7.8-6.7-11
		c-3-3.3-6.9-5.9-11.8-7.8c-4.9-1.9-10.5-2.9-16.8-2.9l-11.3,0.6v116.4l25,3.1l-1.2,6.9H4451.7z"/>
	<path d="M4562.8,11808.9c0-13.6,2.6-25.7,7.9-36.2c5.3-10.5,13-18.7,23-24.6c10.1-5.9,21.7-8.8,35-8.8c9.2,0,17.5,1.8,24.9,5.4
		c7.5,3.6,13.6,8.6,18.4,14.9c4.8,6.3,8.6,13.6,11.2,22c2.6,8.4,3.9,17.4,3.9,27c0,7-0.9,13.9-2.6,20.5c-1.7,6.6-4.4,12.9-8,18.9
		c-3.6,5.9-8,11.1-13.1,15.6c-5.1,4.4-11.3,8-18.5,10.6c-7.2,2.6-15.1,3.9-23.7,3.9c-11.4,0-21.7-3.1-30.6-9.3
		c-9-6.2-15.9-14.5-20.7-25C4565.2,11833.1,4562.8,11821.6,4562.8,11808.9z M4580.6,11802.7c0,9,1,17.5,2.9,25.3
		c1.9,7.9,4.7,14.8,8.4,20.9c3.7,6.1,8.5,10.9,14.4,14.5c5.9,3.6,12.7,5.3,20.2,5.3c6.1,0,11.7-1.1,16.6-3.3c5-2.2,9.1-5,12.3-8.6
		c3.2-3.6,5.9-7.8,8.1-12.6c2.2-4.8,3.7-9.7,4.7-14.8c1-5.1,1.4-10.3,1.4-15.7c0-12.1-1.7-23.1-5-32.9c-3.3-9.9-8.6-17.9-15.7-24.1
		c-7.1-6.2-15.6-9.3-25.4-9.3c-6.1,0-11.6,1-16.6,3.1c-4.9,2.1-9,4.8-12.3,8.3c-3.2,3.5-5.9,7.6-8.1,12.4c-2.2,4.8-3.7,9.8-4.6,15
		C4581.1,11791.5,4580.6,11797,4580.6,11802.7z"/>
	<path d="M4697.4,11875l1-6.2l17.3-4.1v-109.9l-17.7-2.8l1.1-6c19.7-3.2,35.3-4.8,46.9-4.8c14.6,0,26.2,2.6,35,7.9
		c8.7,5.3,13.1,13.4,13.1,24.2c0,7.5-2.5,14.4-7.4,20.8c-4.9,6.4-12.4,11.8-22.6,16.1v0.1l19.8,28.6c7.2,10.3,12.6,17.3,16.4,21.1
		c3.8,3.7,8.1,6.4,13.1,7.9l4.4,1.4l-1.2,5.6c-3.5,1.2-7.2,1.8-11.3,1.8c-3.6,0-6.9-0.7-10.1-2c-3.2-1.3-6.1-3.4-9-6.1
		c-2.8-2.7-5.4-5.6-7.7-8.7c-2.3-3.1-4.7-6.9-7.3-11.3l-19.3-32.9h-20.7v48.8l21.3,3.4l-1.1,6.8H4697.4z M4731.3,11808.1h22.7
		c6.5-2.3,12-6.2,16.5-11.5c4.4-5.3,6.7-11.5,6.7-18.5c0-9.2-2.9-16.4-8.8-21.7s-13.9-8-24.1-8l-12.9,0.5V11808.1z"/>
	<path d="M4827.7,11742.4H4942l-3.6,35.7l-7.8-1.2l-2.9-27h-36v115l19.3,3.3l-1.3,6.7h-53l0.6-6.2l18.3-4.1V11750H4841l-4.8,27.8
		l-7.6-1.2L4827.7,11742.4z"/>
	<path d="M4985.7,11748.5l0.7-6.1h53.4l-0.9,6.1l-18,3.3v51.6h71.7v-51.4l-19.5-3.5l1-6.1h53.3l-1,6.1l-17.8,3.3v113.6l19.4,2.9
		l-0.9,6.7H5074l1.1-6.2l17.6-4.1v-52.9l-71.7,0.1v53.4l19.8,2.9l-1.3,6.7h-53l0.6-6.2l17.9-4.1V11752L4985.7,11748.5z"/>
	<path d="M5138.6,11875l0.9-6.2l15.5-4.6l46.7-122l10.9-2.3l42.8,125l14.4,3.3l-0.9,6.8h-49.2l1.1-6.2l18-4.6l-13.2-37.7h-45.3
		l-14,38.4l19.7,3.4l-1.1,6.7H5138.6z M5183.2,11818.1h39.8l-19.2-56.1L5183.2,11818.1z"/>
	<path d="M5280.2,11862.3l2.3-29.4l8,1.2l3.5,21.6c2.2,3.9,5.7,7.1,10.4,9.5c4.7,2.5,9.8,3.7,15.3,3.7c6.8,0,12.7-2,17.8-6
		c5.1-4,7.7-9.7,7.7-17.1c0-4-1.1-7.8-3.4-11.2c-2.2-3.4-5.2-6.5-8.8-9.2c-3.6-2.7-7.6-5.3-11.9-7.8c-4.3-2.6-8.7-5.2-13-8
		c-4.3-2.8-8.3-5.7-11.9-8.8c-3.6-3.1-6.6-6.9-8.8-11.3c-2.2-4.4-3.4-9.2-3.4-14.4c0-7.2,1.9-13.6,5.7-19.1
		c3.8-5.5,8.6-9.6,14.3-12.3c5.8-2.7,11.9-4,18.4-4c12.6,0,22.8,3.7,30.6,11.2l-2.9,31.5l-7.8-1l-2.8-23.2c-1.5-2.8-4.2-5.4-8.2-7.7
		c-4-2.3-8-3.4-12.2-3.4c-6,0-10.9,1.9-14.9,5.6s-5.9,8.9-5.9,15.6c0,4.3,1.2,8.4,3.5,12.1c2.3,3.7,5.3,7,9,9.7
		c3.7,2.7,7.7,5.4,12.1,8c4.4,2.6,8.8,5.3,13.3,8c4.4,2.7,8.5,5.6,12.2,8.7c3.7,3.1,6.6,6.7,9,10.9c2.3,4.2,3.5,8.9,3.5,13.9
		c0,11-4.3,20.1-13,27.2c-8.7,7.1-19.4,10.7-32.2,10.7c-7.4,0-14.2-1.5-20.6-4.4C5288.8,11870.4,5283.8,11866.7,5280.2,11862.3z"/>
	<path d="M5404.1,11867.1l25.4-21.7c6.6-5.7,12.1-10.7,16.5-15.2c4.4-4.4,8.3-9.1,11.8-14.1c3.5-4.9,6.1-9.9,7.7-14.9
		c1.6-5,2.5-10.3,2.5-15.9c0-8.7-1.8-16-5.5-21.8c-3.7-5.8-9.4-8.7-17.3-8.7c-5.3,0-9.9,1.1-13.7,3.3c-3.8,2.2-6.6,4.9-8.3,8.1
		l-4.4,25.7l-6.1-0.9l-1.1-28.7c3.1-4.1,8.3-7.9,15.7-11.2c7.4-3.3,15-5,22.7-5c11.2,0,20.1,3.2,26.6,9.5c6.5,6.3,9.8,15.6,9.8,27.7
		c0,2.8-0.2,5.5-0.7,8.2c-0.5,2.7-1.3,5.4-2.4,8.1c-1.1,2.7-2.3,5.2-3.4,7.4s-2.7,4.7-4.9,7.5c-2.2,2.7-4,5.1-5.5,7
		c-1.5,1.9-3.8,4.3-6.8,7.1c-3,2.8-5.4,5-7.1,6.7c-1.8,1.6-4.5,3.9-8.1,6.9c-3.6,3-6.3,5.2-8.2,6.7c-1.8,1.5-4.7,3.8-8.7,7l-8.4,6.6
		h53.2l10.1-25.9l5.9,0.9l-5,37.6h-81.8L5404.1,11867.1z"/>
	<path d="M5535.1,11862.3l2.3-29.4l8,1.2l3.5,21.6c2.2,3.9,5.7,7.1,10.4,9.5c4.7,2.5,9.8,3.7,15.3,3.7c6.8,0,12.7-2,17.8-6
		c5.1-4,7.7-9.7,7.7-17.1c0-4-1.1-7.8-3.4-11.2c-2.2-3.4-5.2-6.5-8.8-9.2c-3.6-2.7-7.6-5.3-11.9-7.8c-4.3-2.6-8.7-5.2-13-8
		c-4.3-2.8-8.3-5.7-11.9-8.8c-3.6-3.1-6.6-6.9-8.8-11.3c-2.2-4.4-3.4-9.2-3.4-14.4c0-7.2,1.9-13.6,5.7-19.1
		c3.8-5.5,8.6-9.6,14.3-12.3c5.8-2.7,11.9-4,18.4-4c12.6,0,22.8,3.7,30.6,11.2l-2.9,31.5l-7.8-1l-2.8-23.2c-1.5-2.8-4.2-5.4-8.2-7.7
		c-4-2.3-8-3.4-12.2-3.4c-6,0-10.9,1.9-14.9,5.6s-5.9,8.9-5.9,15.6c0,4.3,1.2,8.4,3.5,12.1c2.3,3.7,5.3,7,9,9.7
		c3.7,2.7,7.7,5.4,12.1,8c4.4,2.6,8.8,5.3,13.3,8c4.4,2.7,8.5,5.6,12.2,8.7c3.7,3.1,6.6,6.7,9,10.9c2.3,4.2,3.5,8.9,3.5,13.9
		c0,11-4.3,20.1-13,27.2c-8.7,7.1-19.4,10.7-32.2,10.7c-7.4,0-14.2-1.5-20.6-4.4C5543.7,11870.4,5538.8,11866.7,5535.1,11862.3z"/>
	<path d="M5625.9,11811.2c0-6.5,0.8-13,2.3-19.5c1.6-6.5,4-13,7.5-19.2c3.4-6.3,7.5-11.8,12.4-16.7c4.9-4.8,10.9-8.7,18.2-11.7
		c7.3-2.9,15.2-4.4,23.8-4.4c15.7,0,28.2,3.5,37.4,10.6l-3.3,35.7l-7.2-1.1l-3.8-25.6c-6-7.7-15.5-11.6-28.6-11.6
		c-11.6,0-21.4,5.4-29.4,16.2c-8,10.8-12,24.7-12,41.8c0,19,4.5,33.9,13.5,44.5c9,10.6,20.7,15.9,35.1,15.9c7.1,0,14-1.7,20.6-5.1
		c6.6-3.4,12.4-7.7,17.5-12.8l3.1,6.1c-4.5,6-11.1,11.4-19.9,16.2c-8.8,4.8-18.3,7.2-28.6,7.2c-8.2,0-15.8-1.5-22.9-4.6
		c-7.1-3.1-13.3-7.4-18.6-13c-5.3-5.6-9.5-12.6-12.5-21C5627.5,11830.7,5625.9,11821.4,5625.9,11811.2z"/>
	<path d="M5742.3,11875l1-6.2l17.3-4.1v-109.9l-17.7-2.8l1.1-6c19.7-3.2,35.3-4.8,46.9-4.8c14.6,0,26.2,2.6,35,7.9
		c8.7,5.3,13.1,13.4,13.1,24.2c0,7.5-2.5,14.4-7.4,20.8c-4.9,6.4-12.4,11.8-22.6,16.1v0.1l19.8,28.6c7.2,10.3,12.6,17.3,16.4,21.1
		c3.8,3.7,8.1,6.4,13.1,7.9l4.4,1.4l-1.2,5.6c-3.5,1.2-7.2,1.8-11.3,1.8c-3.6,0-6.9-0.7-10.1-2c-3.2-1.3-6.1-3.4-9-6.1
		c-2.8-2.7-5.4-5.6-7.7-8.7c-2.3-3.1-4.7-6.9-7.3-11.3l-19.3-32.9h-20.7v48.8l21.3,3.4l-1.1,6.8H5742.3z M5776.2,11808.1h22.7
		c6.5-2.3,12-6.2,16.5-11.5c4.4-5.3,6.7-11.5,6.7-18.5c0-9.2-2.9-16.4-8.8-21.7s-13.9-8-24.1-8l-12.9,0.5V11808.1z"/>
	<path d="M5872.8,11748.7l1-6.3h101.4l-3.3,34l-7.1-1l-3.2-25.5h-53.6v53.8h33.6l4.3-13.8l7.7-1.2l-3.5,41.5l-7,1.2l-2.7-19.8h-32.3
		v55.3h56.4l9.2-26.5l6.6,1.2l-3.2,33.4h-103.4l0.6-6.2l18-4.1v-112.4L5872.8,11748.7z"/>
	<path d="M5989.5,11748.4l0.9-6h48.4l-1,5.8l-17.7,3.6l28.1,99.2l30.9-103.8l11.8-1.6l28.4,104.6l31.1-97.8l-19.6-4.1l0.9-5.9h44.4
		l-0.9,6l-12.8,3.6l-40.5,123.4l-11.6,2.2l-28.2-106.2l-30.9,103.9l-12.5,2.1l-35.3-125.5L5989.5,11748.4z"/>
	<path d="M6186.2,11862.3l2.3-29.4l8,1.2l3.5,21.6c2.2,3.9,5.7,7.1,10.4,9.5c4.7,2.5,9.8,3.7,15.3,3.7c6.8,0,12.7-2,17.8-6
		c5.1-4,7.7-9.7,7.7-17.1c0-4-1.1-7.8-3.4-11.2c-2.2-3.4-5.2-6.5-8.8-9.2c-3.6-2.7-7.6-5.3-11.9-7.8c-4.3-2.6-8.7-5.2-13-8
		c-4.3-2.8-8.3-5.7-11.9-8.8c-3.6-3.1-6.6-6.9-8.8-11.3c-2.2-4.4-3.4-9.2-3.4-14.4c0-7.2,1.9-13.6,5.7-19.1
		c3.8-5.5,8.6-9.6,14.3-12.3c5.8-2.7,11.9-4,18.4-4c12.6,0,22.8,3.7,30.6,11.2l-2.9,31.5l-7.8-1l-2.8-23.2c-1.5-2.8-4.2-5.4-8.2-7.7
		c-4-2.3-8-3.4-12.2-3.4c-6,0-10.9,1.9-14.9,5.6c-3.9,3.7-5.9,8.9-5.9,15.6c0,4.3,1.2,8.4,3.5,12.1c2.3,3.7,5.3,7,9,9.7
		c3.7,2.7,7.7,5.4,12.1,8c4.4,2.6,8.8,5.3,13.3,8c4.4,2.7,8.5,5.6,12.2,8.7c3.7,3.1,6.6,6.7,9,10.9c2.3,4.2,3.5,8.9,3.5,13.9
		c0,11-4.3,20.1-13,27.2c-8.7,7.1-19.4,10.7-32.2,10.7c-7.4,0-14.2-1.5-20.6-4.4C6194.8,11870.4,6189.8,11866.7,6186.2,11862.3z"/>
</g>
<g>
	<path d="M8450.9,10918.3l78.5-98.8l6.2,1.9c-0.8,15.1-1.1,36-1.1,62.7v28.1h32.5l-2,13.4h-30.4v34.1l26.2,3.2l-1.4,8.1H8484
		l0.9-7.3l31.4-4.8v-33.9h-63L8450.9,10918.3z M8469.7,10912.3h46.1v-61.8L8469.7,10912.3z"/>
	<path d="M8619.2,10956l2.8-35.1l9.5,1.4l4.2,25.8c2.6,4.7,6.8,8.5,12.4,11.4c5.6,2.9,11.7,4.4,18.3,4.4c8.1,0,15.1-2.4,21.3-7.2
		c6.1-4.8,9.2-11.6,9.2-20.4c0-4.8-1.3-9.3-4-13.4c-2.7-4.1-6.2-7.8-10.5-10.9c-4.3-3.2-9.1-6.3-14.3-9.4
		c-5.2-3.1-10.4-6.2-15.5-9.5c-5.2-3.3-9.9-6.8-14.3-10.6c-4.3-3.7-7.8-8.2-10.5-13.5c-2.7-5.3-4-11-4-17.2c0-8.7,2.3-16.3,6.8-22.8
		c4.5-6.6,10.2-11.5,17.1-14.6c6.9-3.2,14.2-4.8,22-4.8c15,0,27.2,4.5,36.5,13.4l-3.4,37.7l-9.3-1.1l-3.3-27.7
		c-1.8-3.4-5-6.4-9.8-9.2c-4.8-2.7-9.6-4.1-14.5-4.1c-7.1,0-13,2.2-17.8,6.7c-4.7,4.5-7.1,10.7-7.1,18.6c0,5.2,1.4,10,4.1,14.4
		c2.8,4.5,6.3,8.3,10.7,11.6c4.4,3.3,9.2,6.5,14.4,9.6c5.3,3.1,10.5,6.3,15.8,9.6c5.3,3.3,10.1,6.7,14.5,10.4c4.4,3.6,7.9,8,10.7,13
		c2.8,5,4.1,10.6,4.1,16.6c0,13.2-5.2,24-15.5,32.5c-10.4,8.5-23.2,12.8-38.4,12.8c-8.8,0-17-1.7-24.6-5.2
		C8629.5,10965.6,8623.6,10961.2,8619.2,10956z"/>
	<path d="M8727.7,10894.9c0-7.7,0.9-15.5,2.8-23.3c1.9-7.8,4.8-15.5,8.9-23s9-14.1,14.8-19.9c5.8-5.8,13.1-10.4,21.8-13.9
		c8.7-3.5,18.2-5.3,28.4-5.3c18.7,0,33.6,4.2,44.7,12.6l-3.9,42.6l-8.7-1.3l-4.6-30.5c-7.1-9.2-18.5-13.9-34.1-13.9
		c-13.8,0-25.5,6.4-35.1,19.3c-9.5,12.9-14.3,29.5-14.3,49.9c0,22.7,5.4,40.4,16.1,53.1c10.7,12.7,24.7,19,41.9,19
		c8.5,0,16.7-2,24.6-6.1c7.9-4.1,14.8-9.2,20.9-15.3l3.7,7.3c-5.3,7.1-13.3,13.6-23.7,19.3c-10.5,5.8-21.9,8.7-34.2,8.7
		c-9.8,0-18.9-1.8-27.4-5.5c-8.5-3.6-15.9-8.8-22.2-15.5c-6.3-6.7-11.3-15-15-25.1C8729.5,10918.2,8727.7,10907.1,8727.7,10894.9z"
		/>
	<path d="M8866.6,10971.1l1.1-7.4l20.6-4.8v-131.2l-21.1-3.3l1.3-7.1c23.5-3.8,42.2-5.7,56-5.7c17.4,0,31.3,3.2,41.7,9.5
		c10.4,6.3,15.7,16,15.7,29c0,8.9-2.9,17.2-8.8,24.9c-5.9,7.7-14.8,14.1-27,19.3v0.1l23.7,34.1c8.6,12.3,15.1,20.7,19.6,25.1
		c4.5,4.5,9.7,7.6,15.7,9.5l5.2,1.7l-1.4,6.7c-4.2,1.4-8.7,2.2-13.5,2.2c-4.2,0-8.3-0.8-12-2.4c-3.8-1.6-7.3-4-10.7-7.3
		c-3.4-3.2-6.4-6.7-9.2-10.4c-2.8-3.7-5.7-8.2-8.7-13.5l-23-39.3h-24.7v58.3l25.5,4.1l-1.3,8.1H8866.6z M8907.1,10891.2h27.1
		c7.8-2.8,14.4-7.4,19.7-13.7c5.3-6.4,8-13.7,8-22.1c0-10.9-3.5-19.6-10.5-26c-7-6.4-16.6-9.5-28.8-9.5l-15.4,0.6V10891.2z"/>
	<path d="M9022.4,10820.3l1.1-7.5h121l-3.9,40.6l-8.5-1.1l-3.8-30.4h-64v64.3h40.1l5.1-16.4l9.2-1.4l-4.2,49.5l-8.4,1.4l-3.2-23.7
		h-38.6v66h67.3l10.9-31.7l7.9,1.4l-3.8,39.8h-123.4l0.8-7.4l21.5-4.8v-134.3L9022.4,10820.3z"/>
	<path d="M9161.8,10819.9l1-7.1h57.8l-1.1,6.9l-21.1,4.3l33.6,118.5l36.9-124l14.1-1.9l33.9,124.8l37.2-116.8l-23.4-4.8l1-7h53.1
		l-1,7.1l-15.3,4.3l-48.4,147.4l-13.9,2.7l-33.7-126.8l-36.9,124.1l-14.9,2.5l-42.1-149.8L9161.8,10819.9z"/>
	<path d="M7812.8,11283.8l1.3-7.4l21.4-4.8v-131.5l-21.8-3.3l1.1-7.1c1-0.2,4-0.6,9-1.3c5-0.7,8.3-1.2,10-1.4c1.7-0.2,4.7-0.6,9-1.1
		c4.3-0.6,7.8-0.9,10.5-1.1c2.7-0.2,5.9-0.4,9.8-0.6c3.9-0.2,7.6-0.3,11.3-0.3c17.2,0,30.4,3.5,39.5,10.6
		c9.1,7.1,13.6,15.8,13.6,26.3c0,7.8-2.2,14.9-6.7,21.3c-4.5,6.4-11,11.5-19.5,15.4v0.9c12.3,0.7,22,4.7,29,12.2
		c7,7.4,10.5,15.8,10.5,25c0,5.1-0.7,9.9-2,14.4c-1.3,4.5-3.6,8.9-6.9,13.1s-7.5,7.8-12.5,10.8c-5,3-11.5,5.4-19.4,7.3
		c-7.9,1.8-16.9,2.7-27,2.7H7812.8z M7854.2,11196.7h36.1c5.5-2.9,10-6.9,13.5-12c3.5-5.1,5.2-11.2,5.2-18.1
		c0-10.4-3.5-18.8-10.5-25s-17.5-9.4-31.6-9.4c-5.8,0-10,0.3-12.7,0.8V11196.7z M7854.2,11274.3h29.5c6.6,0,12.4-1,17.4-3
		c5-2,9-4.7,11.8-8c2.9-3.3,5-7,6.4-10.9c1.4-3.9,2.1-8.2,2.1-12.7c0-4.2-0.7-8.2-2-12.1c-1.4-3.9-3.4-7.6-6.2-11
		c-2.8-3.4-6.7-6.2-11.6-8.3c-4.9-2.1-10.6-3.1-17.1-3.1h-30.4V11274.3z"/>
	<path d="M7953.2,11283.8l1-7.4l21.3-4.8v-133.9l-22.9-4.8l1.1-7.4h63.9l-0.9,7.4l-22.3,4.3v137.1h62l13.4-33.9l8.1,1.3l-4.3,42.1
		H7953.2z"/>
	<path d="M8089.6,11283.8l1-7.4l18.5-5.5l55.7-145.7l13-2.8l51.2,149.3l17.2,3.9l-1,8.1h-58.8l1.3-7.4l21.5-5.5l-15.8-45h-54.1
		l-16.7,45.8l23.5,4.1l-1.3,8H8089.6z M8142.8,11215.9h47.5l-22.9-66.9L8142.8,11215.9z"/>
	<path d="M8258.9,11207.6c0-7.7,0.9-15.5,2.8-23.3c1.9-7.8,4.8-15.5,8.9-23s9-14.1,14.8-19.9c5.8-5.8,13.1-10.4,21.8-13.9
		c8.7-3.5,18.2-5.3,28.4-5.3c18.7,0,33.6,4.2,44.7,12.6l-3.9,42.6l-8.7-1.3l-4.6-30.5c-7.1-9.2-18.5-13.9-34.1-13.9
		c-13.8,0-25.5,6.4-35.1,19.3c-9.5,12.9-14.3,29.5-14.3,49.9c0,22.7,5.4,40.4,16.1,53.1c10.7,12.7,24.7,19,41.9,19
		c8.5,0,16.7-2,24.6-6.1c7.9-4.1,14.8-9.2,20.9-15.3l3.7,7.3c-5.3,7.1-13.3,13.6-23.7,19.3c-10.5,5.8-21.9,8.7-34.2,8.7
		c-9.8,0-18.9-1.8-27.4-5.5c-8.5-3.6-15.9-8.8-22.2-15.5c-6.3-6.7-11.3-15-15-25.1C8260.7,11231,8258.9,11219.8,8258.9,11207.6z"/>
	<path d="M8397.8,11132.8l1.3-7.3h63.6l-0.9,7.3l-21.8,4.5v134.5l23.8,4.1l-1.3,8H8399l1-7.4l20.9-5.5v-133.4L8397.8,11132.8z
		 M8445,11204.6c8.5-8.9,14.8-16,19.1-21.3l36.8-45.9l-21-4.6l0.8-7.3h57.3l-0.9,7.3l-21,4.5l-52.3,64l31.2,37
		c10.9,12.9,19.1,21.8,24.7,26.9c5.6,5,12,8.4,19.2,10.1l5.9,1.3l-1.4,7.1c-5.6,2-10.6,2.9-15.1,2.9c-4.6,0-9-0.8-13.2-2.5
		c-4.2-1.7-8.4-4.2-12.4-7.6c-4-3.4-7.6-6.9-10.8-10.4s-6.9-8.1-11.1-13.5l-35.3-45.6L8445,11204.6z"/>
	<path d="M8597.2,11132.8l1-7.3h63.8l-1.1,7.3l-21.9,3.9v135.7l23.8,3.4l-1.3,8h-63.2l0.9-7.4l20.6-4.8V11137L8597.2,11132.8z"/>
	<path d="M8675.4,11132.7l1.3-7.1h41.6l84.9,129.7V11137l-23.5-4.2l1.1-7.3h57.3l-1.4,7.3l-21.1,3.9v147.5l-13.2,2.7l-90.7-136.3
		v121.8l23.4,3.4l-1.3,8h-57l0.8-7.4l21.3-4.8v-133.7L8675.4,11132.7z"/>
	<path d="M8889.7,11125.5h136.4l-4.3,42.6l-9.3-1.4l-3.4-32.2h-43v137.3l23,3.9l-1.5,8h-63.2l0.8-7.4l21.9-4.8v-137.1h-41.4
		l-5.7,33.2l-9-1.4L8889.7,11125.5z"/>
	<path d="M9038.6,11204.9c0-16.3,3.2-30.7,9.5-43.3c6.3-12.6,15.5-22.4,27.5-29.4c12-7,25.9-10.6,41.8-10.6
		c10.9,0,20.9,2.2,29.8,6.5c8.9,4.3,16.2,10.2,22,17.8c5.8,7.5,10.2,16.2,13.4,26.2c3.1,10,4.7,20.7,4.7,32.3c0,8.4-1,16.6-3.1,24.5
		c-2.1,7.9-5.3,15.4-9.6,22.5c-4.3,7.1-9.5,13.3-15.7,18.6c-6.1,5.3-13.5,9.5-22.1,12.6s-18.1,4.6-28.3,4.6
		c-13.7,0-25.9-3.7-36.6-11.1c-10.7-7.4-19-17.4-24.7-29.8C9041.4,11233.8,9038.6,11220.1,9038.6,11204.9z M9059.8,11197.6
		c0,10.8,1.1,20.9,3.4,30.2c2.3,9.4,5.6,17.7,10,25c4.4,7.3,10.1,13.1,17.2,17.3c7.1,4.2,15.1,6.4,24.1,6.4c7.3,0,13.9-1.3,19.9-3.9
		c5.9-2.6,10.8-6,14.7-10.3c3.9-4.3,7.1-9.3,9.7-15c2.6-5.7,4.5-11.6,5.6-17.7c1.1-6.1,1.7-12.3,1.7-18.8c0-14.4-2-27.5-6-39.3
		c-4-11.8-10.2-21.4-18.7-28.8c-8.5-7.4-18.6-11.1-30.3-11.1c-7.3,0-13.9,1.2-19.8,3.7c-5.9,2.5-10.8,5.8-14.6,9.9
		c-3.9,4.2-7.1,9.1-9.7,14.8c-2.6,5.7-4.4,11.7-5.5,17.9C9060.4,11184.1,9059.8,11190.7,9059.8,11197.6z"/>
	<path d="M9199.2,11125.5h136.4l-4.3,42.6l-9.3-1.4l-3.4-32.2h-43v137.3l23,3.9l-1.5,8h-63.2l0.8-7.4l21.9-4.8v-137.1h-41.4
		l-5.7,33.2l-9-1.4L9199.2,11125.5z"/>
	<path d="M9347.6,11283.8l1-7.4l18.5-5.5l55.7-145.7l13-2.8l51.2,149.3l17.2,3.9l-1,8.1h-58.8l1.3-7.4l21.5-5.5l-15.8-45h-54.1
		l-16.7,45.8l23.5,4.1l-1.3,8H9347.6z M9400.7,11215.9h47.5l-22.9-66.9L9400.7,11215.9z"/>
	<path d="M9517.1,11283.8l1-7.4l21.3-4.8v-133.9l-22.9-4.8l1.1-7.4h63.9l-0.9,7.4l-22.3,4.3v137.1h62l13.4-33.9l8.1,1.3l-4.3,42.1
		H9517.1z"/>
	<path d="M9653.5,11132.8l1-7.3h63.8l-1.1,7.3l-21.9,3.9v135.7l23.8,3.4l-1.3,8h-63.2l0.9-7.4l20.6-4.8V11137L9653.5,11132.8z"/>
	<path d="M9731.6,11125.5H9868l-4.3,42.6l-9.3-1.4l-3.4-32.2h-43v137.3l23,3.9l-1.5,8h-63.2l0.8-7.4l21.9-4.8v-137.1h-41.4
		l-5.7,33.2l-9-1.4L9731.6,11125.5z"/>
	<path d="M9879.7,11132.7l1.1-7.1h58.9l-1,7.1l-20.7,4.1l37.7,70.1l36.5-69.6l-23.4-4.6l0.8-7.1h53.1l-0.8,7.1l-16.2,4.1l-44.2,82.3
		v53.2l21.9,3.6l-1.1,8h-61.5l1-7.4l20.6-4.8v-51l-45-83.4L9879.7,11132.7z"/>
	<path d="M7904.6,11438.3H8041l-4.3,42.6l-9.3-1.4l-3.4-32.2h-43v137.3l23,3.9l-1.5,8h-63.2l0.8-7.4l21.9-4.8v-137.1h-41.4
		l-5.7,33.2l-9-1.4L7904.6,11438.3z"/>
	<path d="M8052.9,11445.5l0.9-7.3h63.8l-1,7.3l-21.5,3.9v61.6h85.6v-61.3l-23.3-4.2l1.1-7.3h63.6l-1.1,7.3l-21.3,3.9v135.7l23.2,3.4
		l-1,8h-63.5l1.3-7.4l21-4.8v-63.1l-85.6,0.1v63.8l23.7,3.4l-1.5,8H8054l0.8-7.4l21.4-4.8v-134.6L8052.9,11445.5z"/>
	<path d="M8235.7,11445.8l1.1-7.5h121l-3.9,40.6l-8.5-1.1l-3.8-30.4h-64v64.3h40.1l5.1-16.4l9.2-1.4l-4.2,49.5l-8.4,1.4l-3.2-23.7
		h-38.6v66h67.3l10.9-31.7l7.9,1.4l-3.8,39.8h-123.4l0.8-7.4l21.5-4.8v-134.3L8235.7,11445.8z"/>
	<path d="M8415.3,11596.6l1-6.9l21.4-4.8l9.8-134.8l-23.4-4.7l1.1-7.1h45.8l9.5,24.3l36.5,99.9l42.5-104.9l8.5-19.3h45.8l-0.9,7.1
		l-21.8,4.3l6.9,135.9l23,3.3l-0.8,7.6h-63.5l1-6.9l21.5-4.8l-7.3-126.6l-53.8,131.3l-11.3,1.8l-47.8-129.5l-9,123.8l23.3,3.3
		l-1.3,7.6H8415.3z"/>
	<path d="M8633.4,11445.8l1.1-7.5h121l-3.9,40.6l-8.5-1.1l-3.8-30.4h-64v64.3h40.1l5.1-16.4l9.2-1.4l-4.2,49.5l-8.4,1.4l-3.2-23.7
		h-38.6v66h67.3l10.9-31.7l7.9,1.4l-3.8,39.8h-123.4l0.8-7.4l21.5-4.8v-134.3L8633.4,11445.8z"/>
	<path d="M8773,11596.6l1-7.4l18.5-5.5l55.7-145.7l13-2.8l51.2,149.3l17.2,3.9l-1,8.1h-58.8l1.3-7.4l21.5-5.5l-15.8-45h-54.1
		l-16.7,45.8l23.5,4.1l-1.3,8H8773z M8826.2,11528.6h47.5l-22.9-66.9L8826.2,11528.6z"/>
	<path d="M8942,11581.5l2.8-35.1l9.5,1.4l4.2,25.8c2.6,4.7,6.8,8.5,12.4,11.4c5.6,2.9,11.7,4.4,18.3,4.4c8.1,0,15.1-2.4,21.3-7.2
		c6.1-4.8,9.2-11.6,9.2-20.4c0-4.8-1.3-9.3-4-13.4c-2.7-4.1-6.2-7.8-10.5-10.9c-4.3-3.2-9.1-6.3-14.3-9.4
		c-5.2-3.1-10.4-6.2-15.5-9.5c-5.2-3.3-9.9-6.8-14.3-10.6c-4.3-3.7-7.8-8.2-10.5-13.5c-2.7-5.3-4-11-4-17.2c0-8.7,2.3-16.3,6.8-22.8
		c4.5-6.6,10.2-11.5,17.1-14.6c6.9-3.2,14.2-4.8,22-4.8c15,0,27.2,4.5,36.5,13.4l-3.4,37.7l-9.3-1.1l-3.3-27.7
		c-1.8-3.4-5-6.4-9.8-9.2c-4.8-2.7-9.6-4.1-14.5-4.1c-7.1,0-13,2.2-17.8,6.7c-4.7,4.5-7.1,10.7-7.1,18.6c0,5.2,1.4,10,4.1,14.4
		c2.8,4.5,6.3,8.3,10.7,11.6c4.4,3.3,9.2,6.5,14.4,9.6c5.3,3.1,10.5,6.3,15.8,9.6c5.3,3.3,10.1,6.7,14.5,10.4c4.4,3.6,7.9,8,10.7,13
		c2.8,5,4.1,10.6,4.1,16.6c0,13.2-5.2,24-15.5,32.5c-10.4,8.5-23.2,12.8-38.4,12.8c-8.8,0-17-1.7-24.6-5.2
		C8952.2,11591.1,8946.3,11586.7,8942,11581.5z"/>
	<path d="M9049.5,11445.5l1.1-7.3h63.4l-0.9,7.3l-21.5,3.9v83.1c0,36.5,15.3,54.7,45.8,54.7c13.9,0,24.7-4.2,32.3-12.6
		c7.6-8.4,11.4-20.9,11.4-37.4l0.1-87.6l-23.4-4.2l1-7.3h57.4l-1.1,7.3l-21.1,3.9l-0.6,83.1c-0.2,22.4-5.1,39.2-14.8,50.5
		c-9.7,11.3-25.1,16.9-46.3,16.9c-39.6,0-59.4-20.9-59.4-62.6v-87.7L9049.5,11445.5z"/>
	<path d="M9227.8,11596.6l1.1-7.4l20.6-4.8v-131.2l-21.1-3.3l1.3-7.1c23.5-3.8,42.2-5.7,56-5.7c17.4,0,31.3,3.2,41.7,9.5
		c10.4,6.3,15.7,16,15.7,29c0,8.9-2.9,17.2-8.8,24.9c-5.9,7.7-14.8,14.1-27,19.3v0.1l23.7,34.1c8.6,12.3,15.1,20.7,19.6,25.1
		c4.5,4.5,9.7,7.6,15.7,9.5l5.2,1.7l-1.4,6.7c-4.2,1.4-8.7,2.2-13.5,2.2c-4.2,0-8.3-0.8-12-2.4c-3.8-1.6-7.3-4-10.7-7.3
		c-3.4-3.2-6.4-6.7-9.2-10.4c-2.8-3.7-5.7-8.2-8.7-13.5l-23-39.3h-24.7v58.3l25.5,4.1l-1.3,8.1H9227.8z M9268.3,11516.7h27.1
		c7.8-2.8,14.4-7.4,19.7-13.7c5.3-6.4,8-13.7,8-22.1c0-10.9-3.5-19.6-10.5-26c-7-6.4-16.6-9.5-28.8-9.5l-15.4,0.6V11516.7z"/>
	<path d="M9383.6,11445.8l1.1-7.5h121l-3.9,40.6l-8.5-1.1l-3.8-30.4h-64v64.3h40.1l5.1-16.4l9.2-1.4l-4.2,49.5l-8.4,1.4l-3.2-23.7
		h-38.6v66h67.3l10.9-31.7l7.9,1.4l-3.8,39.8h-123.4l0.8-7.4l21.5-4.8v-134.3L9383.6,11445.8z"/>
	<path d="M9523.4,11581.5l2.8-35.1l9.5,1.4l4.2,25.8c2.6,4.7,6.8,8.5,12.4,11.4c5.6,2.9,11.7,4.4,18.3,4.4c8.1,0,15.1-2.4,21.3-7.2
		c6.1-4.8,9.2-11.6,9.2-20.4c0-4.8-1.3-9.3-4-13.4c-2.7-4.1-6.2-7.8-10.5-10.9c-4.3-3.2-9.1-6.3-14.3-9.4
		c-5.2-3.1-10.4-6.2-15.5-9.5c-5.2-3.3-9.9-6.8-14.3-10.6c-4.3-3.7-7.8-8.2-10.5-13.5c-2.7-5.3-4-11-4-17.2c0-8.7,2.3-16.3,6.8-22.8
		c4.5-6.6,10.2-11.5,17.1-14.6c6.9-3.2,14.2-4.8,22-4.8c15,0,27.2,4.5,36.5,13.4l-3.4,37.7l-9.3-1.1l-3.3-27.7
		c-1.8-3.4-5-6.4-9.8-9.2c-4.8-2.7-9.6-4.1-14.5-4.1c-7.1,0-13,2.2-17.8,6.7c-4.7,4.5-7.1,10.7-7.1,18.6c0,5.2,1.4,10,4.1,14.4
		c2.8,4.5,6.3,8.3,10.7,11.6c4.4,3.3,9.2,6.5,14.4,9.6c5.3,3.1,10.5,6.3,15.8,9.6c5.3,3.3,10.1,6.7,14.5,10.4c4.4,3.6,7.9,8,10.7,13
		c2.8,5,4.1,10.6,4.1,16.6c0,13.2-5.2,24-15.5,32.5c-10.4,8.5-23.2,12.8-38.4,12.8c-8.8,0-17-1.7-24.6-5.2
		C9533.7,11591.1,9527.7,11586.7,9523.4,11581.5z"/>
	<path d="M9671.4,11596.5l0.5-7.6l34.9-5.3v-121.8h-33l0.6-7.8l49.1-8.1h3.4v138.3l34.1,3.6l-1.1,8.8H9671.4z"/>
	<path d="M9771.6,11642.5l58.9-203.5l13.6-0.8l-59.3,203.5L9771.6,11642.5z"/>
	<path d="M9855.1,11543.8l78.5-98.8l6.2,1.9c-0.8,15.1-1.1,36-1.1,62.7v28.1h32.5l-2,13.4h-30.4v34.1l26.2,3.2l-1.4,8.1h-75.3
		l0.9-7.3l31.4-4.8v-33.9h-63L9855.1,11543.8z M9873.9,11537.8h46.1v-61.8L9873.9,11537.8z"/>
	<path d="M7335.2,11909.4l1-7.4l20.7-4.8v-131.5l-21.1-3.3l1-7.1c0.8-0.1,2.8-0.4,6.1-1c3.3-0.6,5.5-0.9,6.6-1.1
		c1.1-0.2,3.2-0.5,6.4-0.9c3.1-0.4,5.5-0.7,7.1-0.9c1.6-0.2,3.9-0.4,6.8-0.7c2.9-0.3,5.5-0.5,7.6-0.6c2.2-0.1,4.6-0.3,7.4-0.4
		c2.8-0.1,5.5-0.2,8.1-0.2c7,0,13.4,0.5,19.4,1.5c6,1,11.7,2.6,17.1,4.8c5.4,2.2,10,5.1,13.8,8.6c3.8,3.5,6.8,7.9,9.1,13.2
		c2.2,5.3,3.4,11.3,3.4,18.1c0,9.9-2.8,18.9-8.5,26.9c-5.7,8-13.1,14.1-22.3,18.3c-9.2,4.2-19,6.4-29.5,6.4c-3.3,0-6.4-0.1-9.4-0.4
		l-1.9-7.9l6.7-0.3c14.8-0.6,25.9-4.4,33-11.3c7.2-7,10.8-16.3,10.8-28.1c0-5.6-0.9-10.8-2.7-15.7c-1.8-4.9-4.5-9.3-8-13.2
		c-3.6-3.9-8.3-7-14.1-9.3c-5.9-2.3-12.6-3.4-20.1-3.4l-13.5,0.8v139l29.9,3.7l-1.4,8.3H7335.2z"/>
	<path d="M7467.4,11758.3l0.9-7.3h63.8l-1,7.3l-21.5,3.9v61.6h85.6v-61.3l-23.3-4.2l1.1-7.3h63.6l-1.1,7.3l-21.3,3.9v135.7l23.2,3.4
		l-1,8h-63.5l1.3-7.4l21-4.8v-63.1l-85.6,0.1v63.8l23.7,3.4l-1.5,8h-63.2l0.8-7.4l21.4-4.8v-134.6L7467.4,11758.3z"/>
	<path d="M7650,11758.3l1-7.3h63.8l-1.1,7.3l-21.9,3.9v135.7l23.8,3.4l-1.3,8h-63.2l0.9-7.4l20.6-4.8v-134.6L7650,11758.3z"/>
	<path d="M7728.9,11909.4l1-7.4l21.3-4.8v-133.9l-22.9-4.8l1.1-7.4h63.9l-0.9,7.4l-22.3,4.3v137.1h62l13.4-33.9l8.1,1.3l-4.3,42.1
		H7728.9z"/>
	<path d="M7865.4,11758.3l1-7.3h63.8l-1.1,7.3l-21.9,3.9v135.7l23.8,3.4l-1.3,8h-63.2l0.9-7.4l20.6-4.8v-134.6L7865.4,11758.3z"/>
	<path d="M7943.5,11909.4l1-7.4l20.7-4.8v-131.5l-21.1-3.3l1-7.1c0.8-0.1,2.8-0.4,6.1-1c3.3-0.6,5.5-0.9,6.6-1.1
		c1.1-0.2,3.2-0.5,6.4-0.9c3.1-0.4,5.5-0.7,7.1-0.9c1.6-0.2,3.9-0.4,6.8-0.7c2.9-0.3,5.5-0.5,7.6-0.6c2.2-0.1,4.6-0.3,7.4-0.4
		c2.8-0.1,5.5-0.2,8.1-0.2c7,0,13.4,0.5,19.4,1.5c6,1,11.7,2.6,17.1,4.8c5.4,2.2,10,5.1,13.8,8.6c3.8,3.5,6.8,7.9,9.1,13.2
		c2.2,5.3,3.4,11.3,3.4,18.1c0,9.9-2.8,18.9-8.5,26.9c-5.7,8-13.1,14.1-22.3,18.3c-9.2,4.2-19,6.4-29.5,6.4c-3.3,0-6.4-0.1-9.4-0.4
		l-1.9-7.9l6.7-0.3c14.8-0.6,25.9-4.4,33-11.3c7.2-7,10.8-16.3,10.8-28.1c0-5.6-0.9-10.8-2.7-15.7c-1.8-4.9-4.5-9.3-8-13.2
		c-3.6-3.9-8.3-7-14.1-9.3c-5.9-2.3-12.6-3.4-20.1-3.4l-13.5,0.8v139l29.9,3.7l-1.4,8.3H7943.5z"/>
	<path d="M8076,11894.2l2.8-35.1l9.5,1.4l4.2,25.8c2.6,4.7,6.8,8.5,12.4,11.4c5.6,2.9,11.7,4.4,18.3,4.4c8.1,0,15.1-2.4,21.3-7.2
		c6.1-4.8,9.2-11.6,9.2-20.4c0-4.8-1.3-9.3-4-13.4c-2.7-4.1-6.2-7.8-10.5-10.9c-4.3-3.2-9.1-6.3-14.3-9.4
		c-5.2-3.1-10.4-6.2-15.5-9.5c-5.2-3.3-9.9-6.8-14.3-10.6c-4.3-3.7-7.8-8.2-10.5-13.5c-2.7-5.3-4-11-4-17.2c0-8.7,2.3-16.3,6.8-22.8
		c4.5-6.6,10.2-11.5,17.1-14.6c6.9-3.2,14.2-4.8,22-4.8c15,0,27.2,4.5,36.5,13.4l-3.4,37.7l-9.3-1.1l-3.3-27.7
		c-1.8-3.4-5-6.4-9.8-9.2c-4.8-2.7-9.6-4.1-14.5-4.1c-7.1,0-13,2.2-17.8,6.7c-4.7,4.5-7.1,10.7-7.1,18.6c0,5.2,1.4,10,4.1,14.4
		c2.8,4.5,6.3,8.3,10.7,11.6c4.4,3.3,9.2,6.5,14.4,9.6c5.3,3.1,10.5,6.3,15.8,9.6c5.3,3.3,10.1,6.7,14.5,10.4c4.4,3.6,7.9,8,10.7,13
		c2.8,5,4.1,10.6,4.1,16.6c0,13.2-5.2,24-15.5,32.5c-10.4,8.5-23.2,12.8-38.4,12.8c-8.8,0-17-1.7-24.6-5.2
		C8086.2,11903.8,8080.3,11899.5,8076,11894.2z"/>
	<path d="M8224.1,11758.3l0.9-7.3h63.8l-1,7.3l-21.5,3.9v61.6h85.6v-61.3l-23.3-4.2l1.1-7.3h63.6l-1.1,7.3l-21.3,3.9v135.7l23.2,3.4
		l-1,8h-63.5l1.3-7.4l21-4.8v-63.1l-85.6,0.1v63.8l23.7,3.4l-1.5,8h-63.2l0.8-7.4l21.4-4.8v-134.6L8224.1,11758.3z"/>
	<path d="M8406.9,11758.5l1.1-7.5h121l-3.9,40.6l-8.5-1.1l-3.8-30.4h-64v64.3h40.1l5.1-16.4l9.2-1.4l-4.2,49.5l-8.4,1.4l-3.2-23.7
		h-38.6v66h67.3l10.9-31.7l7.9,1.4l-3.8,39.8h-123.4l0.8-7.4l21.5-4.8v-134.3L8406.9,11758.5z"/>
	<path d="M8546.5,11909.4l1-7.4l18.5-5.5l55.7-145.7l13-2.8l51.2,149.3l17.2,3.9l-1,8.1h-58.8l1.3-7.4l21.5-5.5l-15.8-45h-54.1
		l-16.7,45.8l23.5,4.1l-1.3,8H8546.5z M8599.7,11841.4h47.5l-22.9-66.9L8599.7,11841.4z"/>
	<path d="M8715.1,11909.4l1.4-7.4l21.8-5.5v-130.7l-22-3.3l1.3-7.1c26.4-4.2,47.3-6.2,62.7-6.2c13.1,0,24.9,1.4,35.3,4.3
		c10.3,2.9,18.8,6.7,25.5,11.5c6.6,4.8,12.1,10.5,16.4,17.2c4.3,6.7,7.3,13.7,9,20.9c1.7,7.2,2.6,14.9,2.6,23.1
		c0,8.8-1.2,17.3-3.6,25.4c-2.4,8.1-6.1,15.7-11.1,22.7c-5,7-11.2,13.2-18.6,18.3c-7.3,5.2-16.3,9.3-26.9,12.3
		c-10.6,3-22.2,4.5-34.8,4.5H8715.1z M8756.8,11899.3h20.6c22.1,0,39.4-6.1,51.9-18.4c12.6-12.3,18.8-28.2,18.8-47.8
		c0-10.8-1.5-20.6-4.6-29.6c-3.1-9-7.6-16.8-13.5-23.4c-5.9-6.7-13.5-11.8-22.8-15.5c-9.3-3.7-19.8-5.5-31.6-5.5
		c-9.1,0-15.4,0.2-18.8,0.6V11899.3z"/>
	<path d="M8921.4,11758.5l1-7.5h120.9l-4.7,40.8l-8.7-1.3l-3.6-30.5h-63.2v66.3h39.6l5.2-16.5l9-1.3l-3.7,49.6l-8.8,1.4l-3.1-23.9
		h-38.3l-0.1,61.5l30.7,3.6l-1.5,8.7H8922l0.6-7.4l21.5-4.8v-134.3L8921.4,11758.5z"/>
	<path d="M9055.6,11830.5c0-16.3,3.2-30.7,9.5-43.3c6.3-12.6,15.5-22.4,27.5-29.4c12-7,25.9-10.6,41.8-10.6
		c10.9,0,20.9,2.2,29.8,6.5c8.9,4.3,16.2,10.2,22,17.8c5.8,7.5,10.2,16.2,13.4,26.2c3.1,10,4.7,20.7,4.7,32.3c0,8.4-1,16.6-3.1,24.5
		c-2.1,7.9-5.3,15.4-9.6,22.5c-4.3,7.1-9.5,13.3-15.7,18.6c-6.1,5.3-13.5,9.5-22.1,12.6s-18.1,4.6-28.3,4.6
		c-13.7,0-25.9-3.7-36.6-11.1c-10.7-7.4-19-17.4-24.7-29.8C9058.5,11859.3,9055.6,11845.6,9055.6,11830.5z M9076.9,11823.1
		c0,10.8,1.1,20.9,3.4,30.2c2.3,9.4,5.6,17.7,10,25c4.4,7.3,10.1,13.1,17.2,17.3c7.1,4.2,15.1,6.4,24.1,6.4c7.3,0,13.9-1.3,19.9-3.9
		c5.9-2.6,10.8-6,14.7-10.3c3.9-4.3,7.1-9.3,9.7-15c2.6-5.7,4.5-11.6,5.6-17.7c1.1-6.1,1.7-12.3,1.7-18.8c0-14.4-2-27.5-6-39.3
		c-4-11.8-10.2-21.4-18.7-28.8c-8.5-7.4-18.6-11.1-30.3-11.1c-7.3,0-13.9,1.2-19.8,3.7c-5.9,2.5-10.8,5.8-14.6,9.9
		c-3.9,4.2-7.1,9.1-9.7,14.8c-2.6,5.7-4.4,11.7-5.5,17.9C9077.4,11809.6,9076.9,11816.2,9076.9,11823.1z"/>
	<path d="M9216.2,11909.4l1.1-7.4l20.6-4.8v-131.2l-21.1-3.3l1.3-7.1c23.5-3.8,42.2-5.7,56-5.7c17.4,0,31.3,3.2,41.7,9.5
		c10.4,6.3,15.7,16,15.7,29c0,8.9-2.9,17.2-8.8,24.9c-5.9,7.7-14.8,14.1-27,19.3v0.1l23.7,34.1c8.6,12.3,15.1,20.7,19.6,25.1
		c4.5,4.5,9.7,7.6,15.7,9.5l5.2,1.7l-1.4,6.7c-4.2,1.4-8.7,2.2-13.5,2.2c-4.2,0-8.3-0.8-12-2.4c-3.8-1.6-7.3-4-10.7-7.3
		c-3.4-3.2-6.4-6.7-9.2-10.4c-2.8-3.7-5.7-8.2-8.7-13.5l-23-39.3h-24.7v58.3l25.5,4.1l-1.3,8.1H9216.2z M9256.7,11829.4h27.1
		c7.8-2.8,14.4-7.4,19.7-13.7c5.3-6.4,8-13.7,8-22.1c0-10.9-3.5-19.6-10.5-26c-7-6.4-16.6-9.5-28.8-9.5l-15.4,0.6V11829.4z"/>
	<path d="M9412.1,11751h136.4l-4.3,42.6l-9.3-1.4l-3.4-32.2h-43v137.3l23,3.9l-1.5,8h-63.2l0.8-7.4l21.9-4.8v-137.1H9428l-5.7,33.2
		l-9-1.4L9412.1,11751z"/>
	<path d="M9560.5,11758.3l0.9-7.3h63.8l-1,7.3l-21.5,3.9v61.6h85.6v-61.3l-23.3-4.2l1.1-7.3h63.6l-1.1,7.3l-21.3,3.9v135.7l23.2,3.4
		l-1,8H9666l1.3-7.4l21-4.8v-63.1l-85.6,0.1v63.8l23.7,3.4l-1.5,8h-63.2l0.8-7.4l21.4-4.8v-134.6L9560.5,11758.3z"/>
	<path d="M9743.2,11758.5l1.1-7.5h121l-3.9,40.6l-8.5-1.1l-3.8-30.4h-64v64.3h40.1l5.1-16.4l9.2-1.4l-4.2,49.5l-8.4,1.4l-3.2-23.7
		h-38.6v66h67.3l10.9-31.7l7.9,1.4l-3.8,39.8H9744l0.8-7.4l21.5-4.8v-134.3L9743.2,11758.5z"/>
	<path d="M9923,11909.4l1-7.4l20.7-4.8v-131.5l-21.1-3.3l1-7.1c0.8-0.1,2.8-0.4,6.1-1c3.3-0.6,5.5-0.9,6.6-1.1
		c1.1-0.2,3.2-0.5,6.4-0.9c3.1-0.4,5.5-0.7,7.1-0.9c1.6-0.2,3.9-0.4,6.8-0.7c2.9-0.3,5.5-0.5,7.6-0.6c2.2-0.1,4.6-0.3,7.4-0.4
		c2.8-0.1,5.5-0.2,8.1-0.2c7,0,13.4,0.5,19.4,1.5c6,1,11.7,2.6,17.1,4.8c5.4,2.2,10,5.1,13.8,8.6c3.8,3.5,6.8,7.9,9.1,13.2
		c2.2,5.3,3.4,11.3,3.4,18.1c0,9.9-2.8,18.9-8.5,26.9c-5.7,8-13.1,14.1-22.3,18.3c-9.2,4.2-19,6.4-29.5,6.4c-3.3,0-6.4-0.1-9.4-0.4
		l-1.9-7.9l6.7-0.3c14.8-0.6,25.9-4.4,33-11.3c7.2-7,10.8-16.3,10.8-28.1c0-5.6-0.9-10.8-2.7-15.7c-1.8-4.9-4.5-9.3-8-13.2
		c-3.6-3.9-8.3-7-14.1-9.3c-5.9-2.3-12.6-3.4-20.1-3.4l-13.5,0.8v139l29.9,3.7l-1.4,8.3H9923z"/>
	<path d="M10055.2,11758.3l1-7.3h63.8l-1.1,7.3l-21.9,3.9v135.7l23.8,3.4l-1.3,8h-63.2l0.9-7.4l20.6-4.8v-134.6L10055.2,11758.3z"/>
	<path d="M10133.5,11758.5l1.1-7.5h121l-3.9,40.6l-8.5-1.1l-3.8-30.4h-64v64.3h40.1l5.1-16.4l9.2-1.4l-4.2,49.5l-8.4,1.4l-3.2-23.7
		h-38.6v66h67.3l10.9-31.7l7.9,1.4l-3.8,39.8h-123.4l0.8-7.4l21.5-4.8v-134.3L10133.5,11758.5z"/>
	<path d="M10273.6,11833.1c0-7.7,0.9-15.5,2.8-23.3c1.9-7.8,4.8-15.5,8.9-23s9-14.1,14.8-19.9c5.8-5.8,13.1-10.4,21.8-13.9
		c8.7-3.5,18.2-5.3,28.4-5.3c18.7,0,33.6,4.2,44.7,12.6l-3.9,42.6l-8.7-1.3l-4.6-30.5c-7.1-9.2-18.5-13.9-34.1-13.9
		c-13.8,0-25.5,6.4-35.1,19.3c-9.5,12.9-14.3,29.5-14.3,49.9c0,22.7,5.4,40.4,16.1,53.1c10.7,12.7,24.7,19,41.9,19
		c8.5,0,16.7-2,24.6-6.1c7.9-4.1,14.8-9.2,20.9-15.3l3.7,7.3c-5.3,7.1-13.3,13.6-23.7,19.3c-10.5,5.8-21.9,8.7-34.2,8.7
		c-9.8,0-18.9-1.8-27.4-5.5c-8.5-3.6-15.9-8.8-22.2-15.5c-6.3-6.7-11.3-15-15-25.1C10275.4,11856.5,10273.6,11845.3,10273.6,11833.1
		z"/>
	<path d="M10412.7,11758.5l1.1-7.5h121l-3.9,40.6l-8.5-1.1l-3.8-30.4h-64v64.3h40.1l5.1-16.4l9.2-1.4l-4.2,49.5l-8.4,1.4l-3.2-23.7
		h-38.6v66h67.3l10.9-31.7l7.9,1.4l-3.8,39.8h-123.4l0.8-7.4l21.5-4.8v-134.3L10412.7,11758.5z"/>
	<path d="M7972.1,12207l2.8-35.1l9.5,1.4l4.2,25.8c2.6,4.7,6.8,8.5,12.4,11.4c5.6,2.9,11.7,4.4,18.3,4.4c8.1,0,15.1-2.4,21.3-7.2
		c6.1-4.8,9.2-11.6,9.2-20.4c0-4.8-1.3-9.3-4-13.4c-2.7-4.1-6.2-7.8-10.5-10.9c-4.3-3.2-9.1-6.3-14.3-9.4
		c-5.2-3.1-10.4-6.2-15.5-9.5c-5.2-3.3-9.9-6.8-14.3-10.6c-4.3-3.7-7.8-8.2-10.5-13.5c-2.7-5.3-4-11-4-17.2c0-8.7,2.3-16.3,6.8-22.8
		c4.5-6.6,10.2-11.5,17.1-14.6c6.9-3.2,14.2-4.8,22-4.8c15,0,27.2,4.5,36.5,13.4l-3.4,37.7l-9.3-1.1l-3.3-27.7
		c-1.8-3.4-5-6.4-9.8-9.2c-4.8-2.7-9.6-4.1-14.5-4.1c-7.1,0-13,2.2-17.8,6.7c-4.7,4.5-7.1,10.7-7.1,18.6c0,5.2,1.4,10,4.1,14.4
		c2.8,4.5,6.3,8.3,10.7,11.6c4.4,3.3,9.2,6.5,14.4,9.6c5.3,3.1,10.5,6.3,15.8,9.6c5.3,3.3,10.1,6.7,14.5,10.4c4.4,3.6,7.9,8,10.7,13
		c2.8,5,4.1,10.6,4.1,16.6c0,13.2-5.2,24-15.5,32.5c-10.4,8.5-23.2,12.8-38.4,12.8c-8.8,0-17-1.7-24.6-5.2
		C7982.3,12216.6,7976.4,12212.2,7972.1,12207z"/>
	<path d="M8079.6,12071l1.1-7.3h63.4l-0.9,7.3l-21.5,3.9v83.1c0,36.5,15.3,54.7,45.8,54.7c13.9,0,24.7-4.2,32.3-12.6
		c7.6-8.4,11.4-20.9,11.4-37.4l0.1-87.6l-23.4-4.2l1-7.3h57.4l-1.1,7.3l-21.1,3.9l-0.6,83.1c-0.2,22.4-5.1,39.2-14.8,50.5
		c-9.7,11.3-25.1,16.9-46.3,16.9c-39.6,0-59.4-20.9-59.4-62.6v-87.7L8079.6,12071z"/>
	<path d="M8257.9,12222.1l1-7.4l20.7-4.8v-131.5l-21.1-3.3l1-7.1c0.8-0.1,2.8-0.4,6.1-1c3.3-0.6,5.5-0.9,6.6-1.1
		c1.1-0.2,3.2-0.5,6.4-0.9c3.1-0.4,5.5-0.7,7.1-0.9c1.6-0.2,3.9-0.4,6.8-0.7c2.9-0.3,5.5-0.5,7.6-0.6c2.2-0.1,4.6-0.3,7.4-0.4
		c2.8-0.1,5.5-0.2,8.1-0.2c7,0,13.4,0.5,19.4,1.5c6,1,11.7,2.6,17.1,4.8c5.4,2.2,10,5.1,13.8,8.6c3.8,3.5,6.8,7.9,9.1,13.2
		c2.2,5.3,3.4,11.3,3.4,18.1c0,9.9-2.8,18.9-8.5,26.9c-5.7,8-13.1,14.1-22.3,18.3c-9.2,4.2-19,6.4-29.5,6.4c-3.3,0-6.4-0.1-9.4-0.4
		l-1.9-7.9l6.7-0.3c14.8-0.6,25.9-4.4,33-11.3c7.2-7,10.8-16.3,10.8-28.1c0-5.6-0.9-10.8-2.7-15.7c-1.8-4.9-4.5-9.3-8-13.2
		c-3.6-3.9-8.3-7-14.1-9.3c-5.9-2.3-12.6-3.4-20.1-3.4l-13.5,0.8v139l29.9,3.7l-1.4,8.3H8257.9z"/>
	<path d="M8390.1,12222.1l1-7.4l20.7-4.8v-131.5l-21.1-3.3l1-7.1c0.8-0.1,2.8-0.4,6.1-1c3.3-0.6,5.5-0.9,6.6-1.1
		c1.1-0.2,3.2-0.5,6.4-0.9c3.1-0.4,5.5-0.7,7.1-0.9c1.6-0.2,3.9-0.4,6.8-0.7c2.9-0.3,5.5-0.5,7.6-0.6c2.2-0.1,4.6-0.3,7.4-0.4
		c2.8-0.1,5.5-0.2,8.1-0.2c7,0,13.4,0.5,19.4,1.5c6,1,11.7,2.6,17.1,4.8c5.4,2.2,10,5.1,13.8,8.6c3.8,3.5,6.8,7.9,9.1,13.2
		c2.2,5.3,3.4,11.3,3.4,18.1c0,9.9-2.8,18.9-8.5,26.9c-5.7,8-13.1,14.1-22.3,18.3c-9.2,4.2-19,6.4-29.5,6.4c-3.3,0-6.4-0.1-9.4-0.4
		l-1.9-7.9l6.7-0.3c14.8-0.6,25.9-4.4,33-11.3c7.2-7,10.8-16.3,10.8-28.1c0-5.6-0.9-10.8-2.7-15.7c-1.8-4.9-4.5-9.3-8-13.2
		c-3.6-3.9-8.3-7-14.1-9.3c-5.9-2.3-12.6-3.4-20.1-3.4l-13.5,0.8v139l29.9,3.7l-1.4,8.3H8390.1z"/>
	<path d="M8522.9,12143.2c0-16.3,3.2-30.7,9.5-43.3c6.3-12.6,15.5-22.4,27.5-29.4c12-7,25.9-10.6,41.8-10.6
		c10.9,0,20.9,2.2,29.8,6.5c8.9,4.3,16.2,10.2,22,17.8c5.8,7.5,10.2,16.2,13.4,26.2c3.1,10,4.7,20.7,4.7,32.3c0,8.4-1,16.6-3.1,24.5
		c-2.1,7.9-5.3,15.4-9.6,22.5c-4.3,7.1-9.5,13.3-15.7,18.6c-6.1,5.3-13.5,9.5-22.1,12.6s-18.1,4.6-28.3,4.6
		c-13.7,0-25.9-3.7-36.6-11.1c-10.7-7.4-19-17.4-24.7-29.8C8525.7,12172.1,8522.9,12158.3,8522.9,12143.2z M8544.1,12135.8
		c0,10.8,1.1,20.9,3.4,30.2c2.3,9.4,5.6,17.7,10,25c4.4,7.3,10.1,13.1,17.2,17.3c7.1,4.2,15.1,6.4,24.1,6.4c7.3,0,13.9-1.3,19.9-3.9
		c5.9-2.6,10.8-6,14.7-10.3c3.9-4.3,7.1-9.3,9.7-15c2.6-5.7,4.5-11.6,5.6-17.7c1.1-6.1,1.7-12.3,1.7-18.8c0-14.4-2-27.5-6-39.3
		c-4-11.8-10.2-21.4-18.7-28.8c-8.5-7.4-18.6-11.1-30.3-11.1c-7.3,0-13.9,1.2-19.8,3.7c-5.9,2.5-10.8,5.8-14.6,9.9
		c-3.9,4.2-7.1,9.1-9.7,14.8c-2.6,5.7-4.4,11.7-5.5,17.9C8544.7,12122.4,8544.1,12128.9,8544.1,12135.8z"/>
	<path d="M8683.5,12222.1l1.1-7.4l20.6-4.8v-131.2l-21.1-3.3l1.3-7.1c23.5-3.8,42.2-5.7,56-5.7c17.4,0,31.3,3.2,41.7,9.5
		c10.4,6.3,15.7,16,15.7,29c0,8.9-2.9,17.2-8.8,24.9c-5.9,7.7-14.8,14.1-27,19.3v0.1l23.7,34.1c8.6,12.3,15.1,20.7,19.6,25.1
		c4.5,4.5,9.7,7.6,15.7,9.5l5.2,1.7l-1.4,6.7c-4.2,1.4-8.7,2.2-13.5,2.2c-4.2,0-8.3-0.8-12-2.4c-3.8-1.6-7.3-4-10.7-7.3
		c-3.4-3.2-6.4-6.7-9.2-10.4c-2.8-3.7-5.7-8.2-8.7-13.5l-23-39.3h-24.7v58.3l25.5,4.1l-1.3,8.1H8683.5z M8723.9,12142.2h27.1
		c7.8-2.8,14.4-7.4,19.7-13.7c5.3-6.4,8-13.7,8-22.1c0-10.9-3.5-19.6-10.5-26c-7-6.4-16.6-9.5-28.8-9.5l-15.4,0.6V12142.2z"/>
	<path d="M8839.1,12063.8h136.4l-4.3,42.6l-9.3-1.4l-3.4-32.2h-43v137.3l23,3.9l-1.5,8h-63.2l0.8-7.4l21.9-4.8v-137.1H8855
		l-5.7,33.2l-9-1.4L8839.1,12063.8z"/>
	<path d="M8987.7,12207l2.8-35.1l9.5,1.4l4.2,25.8c2.6,4.7,6.8,8.5,12.4,11.4c5.6,2.9,11.7,4.4,18.3,4.4c8.1,0,15.1-2.4,21.3-7.2
		c6.1-4.8,9.2-11.6,9.2-20.4c0-4.8-1.3-9.3-4-13.4c-2.7-4.1-6.2-7.8-10.5-10.9c-4.3-3.2-9.1-6.3-14.3-9.4
		c-5.2-3.1-10.4-6.2-15.5-9.5c-5.2-3.3-9.9-6.8-14.3-10.6c-4.3-3.7-7.8-8.2-10.5-13.5c-2.7-5.3-4-11-4-17.2c0-8.7,2.3-16.3,6.8-22.8
		c4.5-6.6,10.2-11.5,17.1-14.6c6.9-3.2,14.2-4.8,22-4.8c15,0,27.2,4.5,36.5,13.4l-3.4,37.7l-9.3-1.1l-3.3-27.7
		c-1.8-3.4-5-6.4-9.8-9.2c-4.8-2.7-9.6-4.1-14.5-4.1c-7.1,0-13,2.2-17.8,6.7c-4.7,4.5-7.1,10.7-7.1,18.6c0,5.2,1.4,10,4.1,14.4
		c2.8,4.5,6.3,8.3,10.7,11.6c4.4,3.3,9.2,6.5,14.4,9.6c5.3,3.1,10.5,6.3,15.8,9.6c5.3,3.3,10.1,6.7,14.5,10.4c4.4,3.6,7.9,8,10.7,13
		c2.8,5,4.1,10.6,4.1,16.6c0,13.2-5.2,24-15.5,32.5c-10.4,8.5-23.2,12.8-38.4,12.8c-8.8,0-17-1.7-24.6-5.2
		C8998,12216.6,8992.1,12212.2,8987.7,12207z"/>
	<path d="M9135.9,12222.1l1-7.4l18.5-5.5l55.7-145.7l13-2.8l51.2,149.3l17.2,3.9l-1,8.1h-58.8l1.3-7.4l21.5-5.5l-15.8-45h-54.1
		l-16.7,45.8l23.5,4.1l-1.3,8H9135.9z M9189,12154.1h47.5l-22.9-66.9L9189,12154.1z"/>
	<path d="M9304.6,12070.9l1.3-7.1h41.6l84.9,129.7v-118.2l-23.5-4.2l1.1-7.3h57.3l-1.4,7.3l-21.1,3.9v147.5l-13.2,2.7l-90.7-136.3
		v121.8l23.4,3.4l-1.3,8h-57l0.8-7.4l21.3-4.8v-133.7L9304.6,12070.9z"/>
	<path d="M9479.2,12146.9c0-15.4,3.5-29.7,10.4-42.7c6.9-13,16.5-23.4,28.8-31.1c12.3-7.7,25.8-11.6,40.7-11.6
		c10.1,0,19.6,1.1,28.6,3.2c9,2.2,16.5,5.3,22.7,9.5l-3.6,40.8l-8.4-1.4l-4.2-27.2c-3.4-3.9-8.7-7.3-15.8-10.3
		c-7.2-3-15.4-4.5-24.6-4.5c-15.7,0-28.5,6.2-38.6,18.5c-10,12.3-15,29.1-15,50.5c0,7.6,0.8,15,2.4,22c1.6,7,4,13.7,7.4,20
		c3.4,6.3,7.4,11.8,12.3,16.5c4.8,4.7,10.8,8.4,17.8,11.1c7,2.7,14.8,4.1,23.3,4.1c11,0,20.2-2.5,27.5-7.4l0.1-43.8l-30.4-4.1
		l1.3-7.8h65.9l-1.3,7.3l-16.4,4.1v49.4c-8.2,4.9-17.1,8.4-26.6,10.4c-9.5,2-20.8,3-34,3c-21.4,0-38.4-7.3-51.1-21.8
		C9485.5,12189.1,9479.2,12170.2,9479.2,12146.9z"/>
	<path d="M9639.5,12222.1l1-7.4l21.3-4.8V12076l-22.9-4.8l1.1-7.4h63.9l-0.9,7.4l-22.3,4.3v137.1h62l13.4-33.9l8.1,1.3l-4.3,42.1
		H9639.5z"/>
	<path d="M9776.1,12071.3l1.1-7.5h121l-3.9,40.6l-8.5-1.1l-3.8-30.4h-64v64.3h40.1l5.1-16.4l9.2-1.4l-4.2,49.5l-8.4,1.4l-3.2-23.7
		H9818v66h67.3l10.9-31.7l7.9,1.4l-3.8,39.8h-123.4l0.8-7.4l21.5-4.8v-134.3L9776.1,12071.3z"/>
</g>
</svg>
