<?xml version="1.0" encoding="utf-8"?>
<!-- Generator: Adobe Illustrator 26.5.0, SVG Export Plug-In . SVG Version: 6.00 Build 0)  -->
<svg version="1.1" xmlns="http://www.w3.org/2000/svg" xmlns:xlink="http://www.w3.org/1999/xlink" x="0px" y="0px"
	 viewBox="0 0 13638.7 4988.3" style="enable-background:new 0 0 13638.7 4988.3;" xml:space="preserve">
<style type="text/css">
	.st0{fill:#E6E6E6;stroke:#000000;stroke-width:21.4611;stroke-miterlimit:10;}
	.st1{stroke:#000000;stroke-width:15.4863;stroke-miterlimit:10;}
	.st2{fill:#F7F7F7;stroke:#000000;stroke-width:27.1981;stroke-miterlimit:10;}
	.st3{fill:#E6E6E6;stroke:#000000;stroke-width:41.9358;stroke-miterlimit:10;}
	.st4{fill:#FFFFFF;}
	.st5{fill:none;stroke:#000000;stroke-width:52.695;stroke-miterlimit:10;}
	.st6{fill:none;stroke:#000000;stroke-width:37.6393;stroke-miterlimit:10;}
	.st7{fill:none;stroke:#000000;stroke-width:45.1672;stroke-miterlimit:10;}
	.st8{fill:none;stroke:#000000;stroke-width:41.9358;stroke-miterlimit:10;}
</style>
<g id="ELEMENTOS">
	<g id="PARTES-7">
		<g id="TRIPLEX">
			<g>
				<polyline class="st0" points="3673.8,934.3 3877.7,798.2 12526.2,833.2 12447.2,1008.2 				"/>
				<polygon class="st0" points="12415.9,4255.7 3661,4204.8 3681,943.8 12446.7,999.5 				"/>
				<polygon class="st0" points="12488.8,4187.6 12421.1,4260.8 12452.5,1003.5 12517,849.6 				"/>
			</g>
		</g>
		<g>
			<g>
				<g>
					<polygon class="st1" points="3849.5,4366 3736.4,4404.2 3843.3,4450.3 					"/>
					<polygon class="st1" points="12259.8,4479.9 12371.2,4437.2 12262.5,4395.5 					"/>
					<line class="st2" x1="3823.3" y1="4406" x2="12292.7" y2="4434.2"/>
				</g>
				<g>
					<g>
						<path d="M6338.9,2713.8l6.1,90h-6.1c-8.2-27-19.7-46.4-34.5-58.3c-14.9-11.8-32.8-17.8-53.8-17.8c-13.6,0-26.1,2.6-37.6,7.7
							c-11.5,5.1-21.3,13.1-29.6,23.7c-8.3,10.7-14.7,24.1-19.4,40.2c-4.7,16.1-7,35.2-7,57.1c0,17.7,2.2,33.7,6.6,48.1
							c4.4,14.4,10.8,26.7,19.2,36.9c8.5,10.2,18.8,18.1,31,23.6c12.2,5.5,26.3,8.3,42.3,8.3c16.7,0,31.9-3.7,45.5-11.1
							c13-6.8,27.5-21.4,43.4-43.7l6.1,3.8c-13.4,23.5-28.9,40.7-46.5,51.7c-17.6,11-38.6,16.5-63.1,16.5c-18.8,0-36.1-3.3-51.9-9.9
							c-15.7-6.6-29.3-15.9-40.6-27.8c-11.4-11.9-20.3-26.1-26.7-42.5c-6.4-16.4-9.6-34.4-9.6-54.1c0-26.6,5.9-50.9,17.8-72.8
							c11.7-22.1,27.9-39.2,48.7-51.3c21-12.2,43.7-18.4,68.2-18.4c19.2,0,38.1,4.7,56.5,14c5.4,2.9,9.3,4.4,11.7,4.4
							c4.3,0,7.8-1.7,10.6-5.2c2.8-3.5,4.8-7.9,6-13.1H6338.9z"/>
						<path d="M6511.2,2713.8c16.9,0,33,3.5,48.4,10.5c15.3,7,28.8,16.6,40.5,28.8c11.7,12.2,20.9,26.7,27.8,43.3
							c6.9,16.6,10.3,34.6,10.3,54.1c0,20-3.5,38.6-10.3,55.7c-6.9,17.1-16.2,31.9-28,44.4c-11.8,12.5-25.5,22.3-41.4,29.4
							c-15.8,7.1-32.7,10.6-50.6,10.6c-18.1,0-35-3.4-50.7-10.2c-15.7-6.8-29.4-16.4-40.9-28.7c-11.6-12.3-20.7-27-27.4-44.1
							c-6.7-17.1-10.1-35.9-10.1-56.5c0-19,3.4-36.9,10.1-53.6c6.7-16.7,15.9-31.2,27.7-43.6c11.8-12.3,25.7-22.1,41.8-29.3
							C6474.5,2717.4,6492.1,2713.8,6511.2,2713.8z M6507.4,2728.1c-13.4,0-25.3,2.9-35.7,8.6c-10.4,5.7-19.1,13.9-26.2,24.5
							c-7.1,10.6-12.5,23.4-16.2,38.5c-3.7,15.1-5.5,32-5.5,50.8c0,18.6,1.8,35.7,5.4,51.1c3.6,15.4,8.9,28.8,16,39.9
							c7.1,11.2,15.9,19.8,26.4,25.9c10.5,6.1,22.5,9.2,36.1,9.2c12.2,0,23.6-2.3,33.9-7c10.4-4.7,19.5-11.9,27.2-21.7
							c7.8-9.8,13.8-22.3,18.2-37.6c4.4-15.2,6.6-33.5,6.6-54.6c0-20-1.8-37.9-5.4-53.8c-3.6-15.8-9-29.2-16.3-40.2
							c-7.3-11-16.3-19.3-27.1-25.1C6534,2731,6521.5,2728.1,6507.4,2728.1z"/>
						<path d="M6937.5,2719.7v7.3c-5.6,1-10.4,2.5-14.3,4.5c-3.9,2-7.3,4.6-10.3,7.7c-3,3.1-5.7,6.8-8,11.2c-2.3,4.4-4.7,9.4-7,15
							l-92.4,225.2h-7.3l-99.1-228.2c-2.9-7.2-5.6-13-8-17.3c-2.4-4.4-5.1-7.8-8-10.3c-2.9-2.5-6.4-4.3-10.5-5.4
							c-4.1-1.1-9.2-1.9-15.4-2.5v-7.3h108.1v7.3c-6.2,0.6-11.3,1.4-15.2,2.5c-3.9,1.1-6.8,2.4-8.9,3.9c-2,1.6-3.4,3.3-4.1,5.1
							c-0.7,1.8-1,3.9-1,6.3c0,6.6,3,16.8,9,30.6l67.3,155l62.4-153.3c6.2-15.2,9.3-25.5,9.3-31.2c0-4.1-2.1-7.9-6.4-11.5
							c-4.3-3.6-11.6-6.1-21.9-7.4v-7.3H6937.5z"/>
						<path d="M7026,2734.2v104.6h58c8.5,0,15.4-0.8,20.7-2.3c5.2-1.6,9.4-3.9,12.4-7c3-3.1,5.1-7.1,6.3-11.9
							c1.2-4.9,1.9-10.6,2.3-17.2h7.3v92.1h-7.3c-1-7.6-2.1-13.9-3.4-18.9c-1.3-5-3.3-9.1-6.1-12.1c-2.8-3-6.8-5.1-11.8-6.4
							c-5.1-1.3-11.9-1.9-20.4-1.9h-58v87.4c0,6.6,0.1,11.9,0.3,15.7c0.2,3.9,1,6.8,2.3,8.9c1.4,2,3.5,3.4,6.4,3.9
							c2.9,0.6,7.2,0.9,12.8,0.9h44.9c7.6,0,14-0.2,19.2-0.6c5.2-0.4,9.8-1.2,13.5-2.3c3.8-1.2,7.1-2.8,10.1-4.8
							c2.9-2,6-4.6,9.3-7.7c7.8-7.6,16-19.7,24.8-36.4h7.9l-23,66.4h-204v-7.3h9.3c2.5,0,5.1-0.3,7.9-0.9c2.7-0.6,5.3-1.4,7.7-2.5
							c2.4-1.1,4.6-2.5,6.6-4.2c1.9-1.7,3.3-3.8,4.1-6.1c1.6-4.3,2.3-12.8,2.3-25.6V2766c0-16.9-1.7-27.3-5-31.2
							c-4.7-5.2-12.5-7.9-23.6-7.9h-9.3v-7.3h204v58h-4.7c-1.9-9.5-4-17.1-6.3-22.9c-2.2-5.7-5.2-10.1-8.9-13.3
							c-3.7-3.1-8.4-5.1-14.1-6c-5.7-0.9-13.1-1.3-22-1.3H7026z"/>
						<path d="M7456.7,2984.5h-70.5l-89.7-123.8c-3.3,0.2-6.3,0.3-8.9,0.4c-2.6,0.1-5,0.1-7.1,0.1c-1.7,0-3.6,0-5.5-0.1
							c-1.9-0.1-4-0.2-6.1-0.4v76.9c0,9.3,0.6,16.7,1.9,22c1.3,5.3,3.1,9.3,5.5,11.9c2.4,2.6,5.3,4.2,8.7,4.8
							c3.4,0.6,7.2,0.9,11.5,0.9h10.5v7.3h-113.6v-7.3h10.2c10.9,0,18.8-3.6,23.9-10.8c2.7-4.3,4.1-13.9,4.1-28.8v-171
							c0-16.3-1.8-26.6-5.5-30.9c-5.1-5.8-12.5-8.7-22.4-8.7h-10.2v-7.3h96.5c14.2,0,26.4,0.5,36.7,1.6c10.3,1.1,18.7,2.7,25.4,4.8
							c6.6,2.1,12.8,5.1,18.6,8.9c5.8,3.8,10.9,8.4,15.3,13.7c4.4,5.3,7.8,11.3,10.3,17.9c2.5,6.6,3.8,13.7,3.8,21.3
							c0,16.5-5.2,30.7-15.7,42.5c-10.5,11.9-26.9,20.3-49.2,25.4l54.5,75.8c6.4,8.7,12.1,15.9,17,21.6c5,5.6,9.9,10.1,14.9,13.4
							c5,3.3,10.2,5.7,15.7,7.3c5.5,1.6,12.1,2.7,19.7,3.5V2984.5z M7268.8,2848.5c2.5,0,4.7,0,6.6,0.1c1.8,0.1,3.4,0.1,4.5,0.1
							c12.6,0,23.7-1.5,33.2-4.4c9.5-2.9,17.5-7,23.9-12.2c6.4-5.2,11.2-11.4,14.4-18.5c3.2-7.1,4.8-14.8,4.8-23.2
							c0-8.2-1.4-15.7-4.1-22.6c-2.7-6.9-6.6-12.8-11.7-17.8c-5.1-5-11.1-8.8-18.1-11.5c-7-2.7-14.7-4.1-23-4.1
							c-8,0-18.2,1.3-30.6,3.8V2848.5z"/>
						<path d="M7735,2734.2v104h48.1c5.6,0,10.4-0.5,14.4-1.6c4-1.1,7.3-3,10.1-5.7c2.7-2.7,4.9-6.4,6.4-11.1
							c1.6-4.7,2.8-10.6,3.8-17.8h7.3v89.5h-7.3c-0.2-6.6-0.9-12.2-2-16.9c-1.2-4.7-3.1-8.5-5.7-11.5c-2.6-3-6.1-5.2-10.5-6.6
							c-4.4-1.4-9.9-2-16.5-2H7735v83c0,6.2,0.1,11.3,0.3,15.2c0.2,3.9,0.7,7.1,1.5,9.6c0.8,2.5,1.9,4.5,3.4,6
							c1.5,1.5,3.4,2.9,5.7,4.2c5.4,3.1,11.4,4.7,17.8,4.7h9.6v7.3h-113.6v-7.3h9.3c4.7,0,8.8-0.3,12.4-1c3.6-0.7,6.6-2.3,8.9-5
							c2.3-2.6,4.1-6.6,5.4-11.9c1.3-5.3,1.9-12.6,1.9-21.7v-171c0-6-0.1-11-0.4-15c-0.3-4-0.8-7.2-1.5-9.8
							c-0.7-2.5-1.7-4.6-3.1-6.1c-1.4-1.6-3.2-2.9-5.5-4.1c-2.9-1.6-5.8-2.7-8.7-3.5c-2.9-0.8-6-1.2-9.3-1.2h-9.3v-7.3h197v58.3
							h-4.4c-2.5-9.5-5.4-17.1-8.6-22.9c-3.2-5.7-7.1-10.1-11.7-13.3c-4.6-3.1-10-5.1-16.2-6.1c-6.2-1-13.7-1.5-22.4-1.5H7735z"/>
						<path d="M8145.6,2984.5H8075l-89.7-123.8c-3.3,0.2-6.3,0.3-8.9,0.4c-2.6,0.1-5,0.1-7.1,0.1c-1.7,0-3.6,0-5.5-0.1
							c-1.9-0.1-4-0.2-6.1-0.4v76.9c0,9.3,0.6,16.7,1.9,22c1.3,5.3,3.1,9.3,5.5,11.9c2.4,2.6,5.3,4.2,8.7,4.8
							c3.4,0.6,7.2,0.9,11.5,0.9h10.5v7.3h-113.6v-7.3h10.2c10.9,0,18.8-3.6,23.9-10.8c2.7-4.3,4.1-13.9,4.1-28.8v-171
							c0-16.3-1.8-26.6-5.5-30.9c-5.1-5.8-12.5-8.7-22.4-8.7h-10.2v-7.3h96.4c14.2,0,26.4,0.5,36.7,1.6c10.3,1.1,18.7,2.7,25.4,4.8
							c6.6,2.1,12.8,5.1,18.6,8.9c5.8,3.8,10.9,8.4,15.3,13.7c4.4,5.3,7.8,11.3,10.3,17.9c2.5,6.6,3.8,13.7,3.8,21.3
							c0,16.5-5.2,30.7-15.7,42.5c-10.5,11.9-26.9,20.3-49.2,25.4l54.5,75.8c6.4,8.7,12.1,15.9,17,21.6c5,5.6,9.9,10.1,14.9,13.4
							c5,3.3,10.2,5.7,15.7,7.3c5.5,1.6,12.1,2.7,19.7,3.5V2984.5z M7957.6,2848.5c2.5,0,4.7,0,6.6,0.1c1.8,0.1,3.4,0.1,4.5,0.1
							c12.6,0,23.7-1.5,33.2-4.4c9.5-2.9,17.5-7,23.9-12.2c6.4-5.2,11.2-11.4,14.4-18.5c3.2-7.1,4.8-14.8,4.8-23.2
							c0-8.2-1.4-15.7-4.1-22.6c-2.7-6.9-6.6-12.8-11.7-17.8c-5.1-5-11.1-8.8-18.1-11.5c-7-2.7-14.7-4.1-23-4.1
							c-8,0-18.2,1.3-30.6,3.8V2848.5z"/>
						<path d="M8288.3,2713.8c16.9,0,33,3.5,48.4,10.5c15.3,7,28.8,16.6,40.5,28.8c11.7,12.2,20.9,26.7,27.8,43.3
							c6.9,16.6,10.3,34.6,10.3,54.1c0,20-3.5,38.6-10.3,55.7c-6.9,17.1-16.2,31.9-28,44.4c-11.8,12.5-25.5,22.3-41.4,29.4
							c-15.8,7.1-32.7,10.6-50.6,10.6c-18.1,0-35-3.4-50.7-10.2c-15.7-6.8-29.4-16.4-40.9-28.7c-11.6-12.3-20.7-27-27.4-44.1
							c-6.7-17.1-10.1-35.9-10.1-56.5c0-19,3.4-36.9,10.1-53.6c6.7-16.7,15.9-31.2,27.7-43.6c11.8-12.3,25.7-22.1,41.8-29.3
							C8251.7,2717.4,8269.3,2713.8,8288.3,2713.8z M8284.6,2728.1c-13.4,0-25.3,2.9-35.7,8.6c-10.4,5.7-19.1,13.9-26.2,24.5
							c-7.1,10.6-12.5,23.4-16.2,38.5c-3.7,15.1-5.5,32-5.5,50.8c0,18.6,1.8,35.7,5.4,51.1c3.6,15.4,8.9,28.8,16,39.9
							c7.1,11.2,15.9,19.8,26.4,25.9c10.5,6.1,22.5,9.2,36.1,9.2c12.2,0,23.6-2.3,33.9-7c10.4-4.7,19.5-11.9,27.2-21.7
							c7.8-9.8,13.8-22.3,18.2-37.6c4.4-15.2,6.6-33.5,6.6-54.6c0-20-1.8-37.9-5.4-53.8c-3.6-15.8-9-29.2-16.3-40.2
							c-7.3-11-16.3-19.3-27.1-25.1C8311.2,2731,8298.7,2728.1,8284.6,2728.1z"/>
						<path d="M8425.6,2719.7h71.7l162,198.7v-152.7c0-8.9-0.6-16-1.9-21.3c-1.3-5.2-3.1-9.1-5.5-11.7c-2.4-2.5-5.4-4.1-8.9-4.8
							c-3.5-0.7-7.5-1-11.9-1h-9.3v-7.3h92.4v7.3h-9.6c-4.7,0-8.7,0.4-12.2,1.2c-3.5,0.8-6.4,2.5-8.7,5.2c-2.3,2.7-4.1,6.6-5.2,11.7
							c-1.2,5.1-1.7,11.9-1.7,20.7v223.2h-7l-174.5-213.3v163.2c0,9.1,0.6,16.3,1.9,21.4c1.3,5.1,3.1,9,5.4,11.5
							c2.3,2.5,5.2,4.1,8.7,4.7c3.5,0.6,7.5,0.9,11.9,0.9h9.3v7.3h-92.1v-7.3h9.3c4.7,0,8.7-0.4,12.2-1.2c3.5-0.8,6.5-2.5,8.9-5.1
							c2.4-2.6,4.2-6.5,5.4-11.5c1.2-5,1.7-11.9,1.7-20.7v-184.2c-3.9-4.7-7.1-8.4-9.8-11.1c-2.6-2.7-5.1-5-7.4-6.7
							c-2.3-1.7-4.9-3.2-7.6-4.4c-2.7-1.2-6.1-2.4-10.2-3.8c-3.9-1.2-9.6-1.7-17.2-1.7V2719.7z"/>
						<path d="M8951,2719.7v62.4h-4.4c-2.1-16.7-7-28.5-14.7-35.4c-7.7-6.9-19-10.3-33.9-10.3h-37.3v202.5c0,8.9,0.6,16,1.9,21.1
							c1.3,5.1,3.1,9,5.4,11.5c2.3,2.5,5.2,4.1,8.7,4.8c3.5,0.7,7.6,1,12.2,1h9v7.3h-112.2v-7.3h9.3c4.7,0,8.7-0.4,12.2-1.2
							c3.5-0.8,6.4-2.5,8.7-5.1c2.3-2.6,4.1-6.5,5.4-11.5c1.3-5,1.9-11.9,1.9-20.7v-202.5h-31.8c-8,0-15,0.6-21.1,1.9
							c-6.1,1.3-11.4,3.6-15.9,7c-4.5,3.4-8,8.1-10.6,14c-2.6,5.9-4.2,13.5-4.8,22.9h-7.3v-62.4H8951z"/>
						<path d="M9114.7,2896h-102.6l-18.1,41.7c-4.3,10.3-6.4,18-6.4,23c0,2.1,0.3,4.1,1,5.8c0.7,1.7,2.1,3.4,4.4,4.8
							c2.2,1.5,5.3,2.7,9.3,3.8c4,1.1,9.3,1.8,15.9,2.2v7.3h-83.3v-7.3c6.6-1,11.9-2.4,16-4.4c4.1-1.9,7.6-4.6,10.5-8
							c2.9-3.4,5.6-7.8,8-13.3c2.4-5.4,5.4-12.1,8.9-20.1l93.2-217.7h6.7l92.1,220c3.7,9.1,7.1,16.5,10.3,22c3.2,5.5,6.5,9.9,9.9,13
							c3.4,3.1,7.1,5.2,11.1,6.4c4,1.2,8.8,1.8,14.4,2v7.3h-104.6v-7.3c10.5-0.4,17.6-2.1,21.4-5.1c3.8-3,5.7-6.7,5.7-10.9
							c-0.2-5.6-2.8-14.8-7.9-27.4L9114.7,2896z M9109.2,2881.4l-44.9-106.9l-46,106.9H9109.2z"/>
						<path d="M9449.8,2911.4l6.4,1.2l-22.7,72h-205.1v-7.3h10.2c10.9,0,18.8-3.6,23.9-10.8c2.7-4.3,4.1-13.9,4.1-28.8v-171
							c0-16.3-1.8-26.6-5.5-30.9c-5.1-5.8-12.5-8.7-22.4-8.7h-10.2v-7.3h120.1v7.3c-7.2,0-13.2,0.3-17.9,1
							c-4.8,0.7-8.7,1.7-11.8,2.9c-3.1,1.3-5.5,2.8-7.3,4.5c-1.7,1.7-3.2,3.7-4.4,5.8c-1.9,3.9-2.9,13.9-2.9,30v166.4
							c0,9.1,0.7,15.7,2,19.8c1.4,4.1,4.1,6.9,8.2,8.5c3.5,1.2,13.7,1.7,30.6,1.7h19.2c20.4,0,34.7-1.5,42.8-4.4
							c4.1-1.4,8-3.3,11.7-5.8c3.7-2.5,7.3-5.8,10.8-9.9c3.5-4.1,6.9-9,10.2-14.9C9442.9,2926.9,9446.3,2919.8,9449.8,2911.4z"/>
						<path d="M9734.5,2849.3c10.7,2.3,19.9,5.5,27.5,9.6c7.7,4.1,13.9,8.8,18.6,14.3c4.8,5.4,8.3,11.5,10.5,18.1
							c2.2,6.6,3.4,13.5,3.4,20.7c0,6.6-1.1,13.1-3.2,19.5c-2.1,6.4-5.2,12.5-9.2,18.2c-4,5.7-8.9,10.9-14.7,15.4
							c-5.8,4.6-12.4,8.3-19.8,11.2c-14,5.4-36,8.2-66.1,8.2h-125v-7.3h9.9c4.5,0,8.5-0.4,11.9-1.2c3.5-0.8,6.5-2.5,8.9-5.2
							c2.4-2.7,4.3-6.7,5.5-11.9c1.3-5.2,1.9-12.3,1.9-21.3v-171c0-9.3-0.7-16.6-2-21.9c-1.4-5.2-3.3-9.2-5.8-11.8
							c-2.5-2.6-5.5-4.3-9-5c-3.5-0.7-7.3-1-11.4-1h-9.9v-7.3h114.2c36.7,0,64.5,6.2,83.5,18.6c18.9,12.4,28.4,29.8,28.4,52.2
							c0,13.4-4.1,25.3-12.2,35.7C9762.2,2836.6,9750.2,2844.3,9734.5,2849.3z M9632.2,2838.9c4.9,1,10.3,1.7,16.5,2.2
							c6.1,0.5,12.9,0.7,20.3,0.7c25.8,0,44.4-4.7,55.7-14c11.3-9.3,16.9-22.2,16.9-38.8c0-7.6-1.6-14.8-4.8-21.7
							c-3.2-6.9-7.9-12.9-14.1-17.9c-6.2-5-13.9-9.1-23.2-12.1c-9.2-3-20-4.5-32.2-4.5c-13.2,0-24.9,1.5-35,4.4V2838.9z
							 M9632.2,2965.3c14.8,3.5,29.6,5.2,44.6,5.2c11.8,0,22.3-1.5,31.5-4.4c9.1-2.9,16.7-6.8,22.7-11.8c6-5,10.6-10.8,13.7-17.5
							c3.1-6.7,4.7-13.8,4.7-21.4c0-8.3-1.7-16.2-5-23.6c-3.3-7.4-8.4-13.8-15.3-19.2c-6.9-5.4-15.5-9.7-25.9-12.8
							c-10.4-3.1-22.6-4.7-36.6-4.7c-8.2,0-15.1,0.1-20.7,0.3c-5.6,0.2-10.2,0.7-13.7,1.5V2965.3z"/>
						<path d="M9962.7,2713.8c16.9,0,33,3.5,48.4,10.5c15.3,7,28.8,16.6,40.5,28.8c11.7,12.2,20.9,26.7,27.8,43.3
							c6.9,16.6,10.3,34.6,10.3,54.1c0,20-3.5,38.6-10.3,55.7c-6.9,17.1-16.2,31.9-28,44.4c-11.8,12.5-25.5,22.3-41.4,29.4
							c-15.8,7.1-32.7,10.6-50.6,10.6c-18.1,0-35-3.4-50.7-10.2c-15.7-6.8-29.4-16.4-40.9-28.7c-11.6-12.3-20.7-27-27.4-44.1
							c-6.7-17.1-10.1-35.9-10.1-56.5c0-19,3.4-36.9,10.1-53.6c6.7-16.7,15.9-31.2,27.7-43.6c11.8-12.3,25.7-22.1,41.8-29.3
							C9926,2717.4,9943.6,2713.8,9962.7,2713.8z M9958.9,2728.1c-13.4,0-25.3,2.9-35.7,8.6c-10.4,5.7-19.1,13.9-26.2,24.5
							c-7.1,10.6-12.5,23.4-16.2,38.5c-3.7,15.1-5.5,32-5.5,50.8c0,18.6,1.8,35.7,5.4,51.1c3.6,15.4,8.9,28.8,16,39.9
							c7.1,11.2,15.9,19.8,26.4,25.9s22.5,9.2,36.1,9.2c12.2,0,23.6-2.3,33.9-7c10.4-4.7,19.5-11.9,27.2-21.7
							c7.8-9.8,13.8-22.3,18.2-37.6c4.4-15.2,6.6-33.5,6.6-54.6c0-20-1.8-37.9-5.4-53.8c-3.6-15.8-9-29.2-16.3-40.2
							c-7.3-11-16.3-19.3-27.1-25.1C9985.5,2731,9973.1,2728.1,9958.9,2728.1z"/>
						<path d="M10268.3,2838l56.8,84.8c8.2,12,14.9,21.6,20.3,28.7c5.3,7.1,10.3,12.5,14.9,16.2c4.6,3.7,9,6.2,13.4,7.4
							c4.4,1.3,9.6,2,15.6,2.2v7.3h-113.6v-7.3c10.7-0.2,17.7-1.8,21.1-5c3.4-3.1,5.1-7.5,5.1-13.1c0-1-0.1-1.9-0.3-2.8
							c-0.2-0.9-0.7-2.1-1.6-3.8c-0.9-1.6-2.2-3.7-3.9-6.3c-1.7-2.5-4-5.9-6.7-10.2l-44.9-67.9l-55.7,71.1c-3.1,3.9-5.5,7-7.1,9.3
							c-1.7,2.3-2.9,4.3-3.6,5.8c-0.8,1.6-1.2,2.9-1.3,4.1c-0.1,1.2-0.1,2.4-0.1,3.8c0,4.1,1.7,7.5,5.2,10.2
							c3.5,2.7,10.2,4.3,20.1,4.7v7.3h-93.8v-7.3c6.4-0.4,12.4-1.6,18.1-3.8c5.6-2.1,11-5,16.2-8.6c5.1-3.6,10.2-8.1,15.3-13.4
							c5-5.3,10.3-11.4,15.7-18.2l62.4-79l-52.2-76.3c-7.2-10.5-13.7-19-19.4-25.5c-5.7-6.5-11.3-11.6-16.6-15.2
							c-5.3-3.6-10.7-6.1-16.2-7.6c-5.4-1.5-11.5-2.4-18.1-2.8v-7.3h122.4v7.3c-10.3,0.4-17.4,2.1-21.3,5.1c-3.9,3-5.8,6.4-5.8,10.1
							c0,4.9,3.1,11.9,9.3,21l40.8,60.9l46.9-59.7c2.9-3.7,5.1-6.7,6.7-8.9c1.6-2.2,2.7-4.1,3.5-5.5c0.8-1.5,1.3-2.8,1.5-3.9
							c0.2-1.2,0.3-2.5,0.3-4.1c0-5.6-2.1-9.4-6.3-11.4c-4.2-1.9-11.5-3.1-22-3.5v-7.3h93.8v7.3c-8.9,0.6-16.2,2.2-21.7,5
							c-5.5,2.7-10.8,6.3-15.9,10.8c-5.4,4.7-13.7,14-24.8,28L10268.3,2838z"/>
					</g>
					<g>
						<path d="M7795.7,2121c28.3,0,55.3,5.9,81,17.6c25.7,11.7,48.3,27.8,67.9,48.3c19.5,20.5,35.1,44.7,46.6,72.5
							c11.5,27.8,17.3,58,17.3,90.6c0,33.5-5.8,64.6-17.3,93.2c-11.6,28.6-27.2,53.5-46.9,74.4c-19.7,21-42.8,37.4-69.3,49.3
							c-26.5,11.9-54.8,17.8-84.7,17.8c-30.3,0-58.6-5.7-84.9-17.1c-26.4-11.4-49.2-27.4-68.6-48.1c-19.4-20.7-34.7-45.3-45.9-74
							c-11.2-28.6-16.8-60.2-16.8-94.7c0-31.9,5.6-61.8,16.8-89.8c11.2-28,26.7-52.3,46.4-73c19.7-20.7,43-37,70-49.1
							C7734.4,2127.1,7763.8,2121,7795.7,2121z M7789.4,2145c-22.5,0-42.4,4.8-59.8,14.4c-17.4,9.6-32.1,23.3-43.9,41
							c-11.9,17.7-20.9,39.2-27.1,64.4c-6.2,25.2-9.3,53.6-9.3,85.2c0,31.2,3,59.8,9,85.7c6,25.9,15,48.2,26.8,66.9
							c11.9,18.7,26.6,33.2,44.2,43.4c17.6,10.3,37.7,15.4,60.5,15.4c20.5,0,39.5-3.9,56.9-11.7c17.4-7.8,32.6-19.9,45.6-36.4
							c13-16.4,23.2-37.4,30.5-63c7.3-25.5,11-56.1,11-91.5c0-33.5-3-63.5-9-90.1c-6-26.5-15.1-49-27.3-67.4
							c-12.2-18.4-27.3-32.4-45.4-42C7834.1,2149.8,7813.1,2145,7789.4,2145z"/>
						<path d="M8025.7,2130.8h120.1l271.4,332.9v-255.8c0-15-1.1-26.8-3.2-35.6c-2.1-8.8-5.2-15.3-9.3-19.5c-4.1-4.2-9-6.9-14.9-8.1
							c-5.9-1.1-12.5-1.7-20-1.7h-15.6v-12.2h154.7v12.2h-16.1c-7.8,0-14.6,0.7-20.5,2c-5.9,1.3-10.7,4.2-14.6,8.8
							c-3.9,4.6-6.8,11.1-8.8,19.5c-2,8.5-2.9,20-2.9,34.7v373.9h-11.7l-292.4-357.3v273.4c0,15.3,1.1,27.3,3.2,35.9
							c2.1,8.6,5.1,15.1,9,19.3c3.9,4.2,8.8,6.8,14.6,7.8c5.9,1,12.5,1.5,20,1.5h15.6v12.2h-154.3v-12.2h15.6c7.8,0,14.6-0.6,20.5-2
							c5.9-1.3,10.8-4.1,14.9-8.5c4.1-4.4,7.1-10.8,9-19.3c2-8.5,2.9-20,2.9-34.7v-308.5c-6.5-7.8-12-14-16.4-18.5
							c-4.4-4.6-8.5-8.3-12.4-11.2c-3.9-2.9-8.1-5.4-12.7-7.3c-4.6-2-10.3-4.1-17.1-6.3c-6.5-2-16.1-2.9-28.8-2.9V2130.8z"/>
						<path d="M8658.3,2155.2v175.2h97.1c14.3,0,25.9-1.3,34.7-3.9c8.8-2.6,15.7-6.5,20.7-11.7c5-5.2,8.5-11.9,10.5-20
							c2-8.1,3.2-17.7,3.9-28.8h12.2v154.3h-12.2c-1.6-12.7-3.5-23.3-5.6-31.7c-2.1-8.5-5.5-15.2-10.3-20.3
							c-4.7-5-11.3-8.6-19.8-10.7c-8.5-2.1-19.9-3.2-34.2-3.2h-97.1v146.4c0,11.1,0.2,19.9,0.5,26.4c0.3,6.5,1.6,11.5,3.9,14.9
							c2.3,3.4,5.9,5.6,10.7,6.6s12,1.5,21.5,1.5h75.2c12.7,0,23.4-0.3,32.2-1c8.8-0.6,16.4-2,22.7-3.9c6.3-2,12-4.6,16.8-8.1
							c4.9-3.4,10.1-7.7,15.6-12.9c13-12.7,26.8-33,41.5-61h13.2l-38.6,111.3h-341.7v-12.2h15.6c4.2,0,8.6-0.5,13.2-1.5
							c4.6-1,8.9-2.4,12.9-4.1c4.1-1.8,7.7-4.1,11-7.1c3.2-2.9,5.5-6.3,6.8-10.3c2.6-7.2,3.9-21.5,3.9-43v-288
							c0-28.3-2.8-45.7-8.3-52.2c-7.8-8.8-21-13.2-39.5-13.2h-15.6v-12.2h341.7v97.1h-7.8c-3.3-15.9-6.8-28.7-10.5-38.3
							c-3.7-9.6-8.7-17-14.9-22.2c-6.2-5.2-14.1-8.5-23.7-10c-9.6-1.5-21.9-2.2-36.9-2.2H8658.3z"/>
					</g>
					<polygon class="st1" points="12724.4,1009.6 12679.1,899.1 12639.9,1008.8 					"/>
					<polygon class="st1" points="12611.2,4099.2 12653.3,4210.9 12695.7,4102.4 					"/>
					<line class="st2" x1="12684.5" y1="921.2" x2="12654" y2="4190.2"/>
				</g>
			</g>
			<g>
				<g>
					<path d="M696.1,3210.8v50.4h-3.5c-1.7-13.5-5.7-23-11.9-28.6c-6.2-5.6-15.4-8.4-27.4-8.4H623V3388c0,7.2,0.5,12.9,1.5,17.1
						c1,4.2,2.5,7.3,4.4,9.3c1.9,2,4.2,3.3,7.1,3.9c2.8,0.6,6.1,0.8,9.9,0.8h7.3v5.9h-90.7v-5.9h7.5c3.8,0,7.1-0.3,9.9-0.9
						c2.8-0.6,5.2-2,7.1-4.1c1.9-2.1,3.3-5.2,4.4-9.3c1-4.1,1.5-9.7,1.5-16.7v-163.8h-25.7c-6.4,0-12.1,0.5-17.1,1.5
						c-4.9,1-9.2,2.9-12.8,5.7c-3.6,2.7-6.5,6.5-8.6,11.3c-2.1,4.8-3.4,11-3.9,18.5h-5.9v-50.4H696.1z"/>
					<path d="M772.9,3310.3h99.4V3249c0-5-0.1-9.1-0.2-12.4c-0.2-3.2-0.6-5.9-1.2-7.9c-0.6-2-1.5-3.7-2.7-4.8
						c-1.2-1.2-2.7-2.3-4.6-3.4c-4.4-2.5-9.2-3.8-14.4-3.8h-7.5v-5.9h91.7v5.9h-7.5c-2,0-4.2,0.2-6.5,0.7c-2.3,0.5-4.4,1.2-6.4,2.1
						c-2,0.9-3.7,2.1-5.3,3.5c-1.6,1.4-2.7,3.1-3.3,4.9c-1.1,3.3-1.6,10.3-1.6,21v138.1c0,5,0.1,9.1,0.4,12.3
						c0.2,3.1,0.6,5.7,1.2,7.8c0.5,2,1.4,3.7,2.5,4.8c1.1,1.2,2.6,2.3,4.5,3.4c4.4,2.5,9.3,3.8,14.6,3.8h7.5v5.9h-91.7v-5.9h7.5
						c3.6,0,6.8-0.3,9.7-0.8c2.8-0.5,5.3-1.9,7.3-4c2-2.1,3.6-5.3,4.6-9.7c1-4.3,1.5-10.2,1.5-17.6v-65.3h-99.4v65.3
						c0,5,0.1,9.1,0.2,12.3c0.2,3.1,0.5,5.7,1.2,7.8c0.6,2,1.5,3.7,2.7,4.8c1.2,1.2,2.7,2.3,4.6,3.4c4.4,2.5,9.2,3.8,14.4,3.8h7.8
						v5.9h-91.9v-5.9h7.8c8.6,0,15-2.6,19.1-7.8c2.5-3.1,3.8-11.2,3.8-24.3V3249c0-5.2-0.1-9.4-0.2-12.6c-0.2-3.2-0.6-5.8-1.2-7.8
						c-0.6-2-1.5-3.5-2.6-4.7c-1.1-1.2-2.6-2.3-4.5-3.4c-4.4-2.5-9.2-3.8-14.4-3.8h-7.8v-5.9h91.9v5.9H796c-1.9,0-4,0.2-6.2,0.7
						c-2.3,0.5-4.4,1.2-6.4,2.1c-2,0.9-3.7,2.1-5.3,3.5c-1.6,1.4-2.7,3.1-3.3,4.9c-1.3,3.8-1.9,10.8-1.9,21V3310.3z"/>
					<path d="M1039.6,3419.1v5.9h-91.7v-5.9h7.5c3.8,0,7.1-0.3,10-0.8c2.9-0.5,5.3-1.9,7.2-4c1.9-2.1,3.3-5.3,4.4-9.7
						c1-4.3,1.5-10.2,1.5-17.6v-138.3c0-4.9-0.1-8.9-0.4-12.1c-0.2-3.2-0.6-5.9-1.2-7.9c-0.6-2-1.4-3.7-2.5-4.8
						c-1.1-1.2-2.6-2.3-4.5-3.4c-4.7-2.5-9.6-3.8-14.6-3.8h-7.5v-5.9h91.7v5.9h-7.5c-3.8,0-7.1,0.3-10,0.9c-2.9,0.6-5.3,2-7.2,4.1
						c-1.9,2.1-3.3,5.3-4.4,9.7c-1,4.3-1.5,10.1-1.5,17.3v138.3c0,5,0.1,9.1,0.2,12.3c0.2,3.1,0.5,5.7,1.2,7.8
						c0.6,2,1.5,3.7,2.7,4.8c1.2,1.2,2.7,2.3,4.6,3.4c4.4,2.5,9.2,3.8,14.4,3.8H1039.6z"/>
					<path d="M1242.2,3206.1l4.9,72.8h-4.9c-6.6-21.8-15.9-37.5-27.9-47.1c-12-9.6-26.5-14.4-43.5-14.4c-11,0-21.1,2.1-30.4,6.2
						c-9.3,4.2-17.2,10.6-23.9,19.2c-6.7,8.6-11.9,19.5-15.7,32.5c-3.8,13-5.7,28.4-5.7,46.2c0,14.3,1.8,27.3,5.3,38.9
						c3.5,11.6,8.7,21.6,15.6,29.8c6.8,8.2,15.2,14.6,25.1,19.1c9.9,4.5,21.3,6.7,34.2,6.7c13.5,0,25.8-3,36.8-9
						c10.5-5.5,22.2-17.3,35.1-35.3l4.9,3.1c-10.8,19-23.4,32.9-37.6,41.8c-14.2,8.9-31.2,13.3-51,13.3c-15.2,0-29.2-2.7-41.9-8
						c-12.7-5.3-23.7-12.8-32.9-22.5c-9.2-9.7-16.4-21.1-21.6-34.4c-5.2-13.3-7.8-27.8-7.8-43.7c0-21.5,4.8-41.2,14.4-58.9
						c9.4-17.9,22.5-31.7,39.3-41.5c17-9.9,35.3-14.8,55.1-14.8c15.6,0,30.8,3.8,45.7,11.3c4.4,2.4,7.5,3.5,9.4,3.5
						c3.5,0,6.3-1.4,8.6-4.2c2.3-2.8,3.9-6.4,4.8-10.6H1242.2z"/>
					<path d="M1359.8,3306.3l78.9,78.5c6.6,6.6,12.6,12.1,17.9,16.4c5.3,4.3,10.4,7.8,15.1,10.4c4.7,2.6,9.3,4.5,13.8,5.7
						c4.5,1.2,9.1,1.8,13.8,2v5.9h-101.8v-5.9c6.8,0,11.3-1.2,13.7-3.5c2.4-2.4,3.5-4.9,3.5-7.5c0-1.1-0.1-2.1-0.2-2.9
						c-0.2-0.9-0.6-1.8-1.3-2.9c-0.7-1.1-1.8-2.5-3.4-4.2c-1.6-1.7-3.7-3.9-6.4-6.6l-74-73.3v69c0,5,0.1,9.1,0.4,12.3
						c0.2,3.1,0.6,5.7,1.2,7.8c0.5,2,1.4,3.7,2.6,4.8c1.2,1.2,2.7,2.3,4.6,3.4c4.6,2.5,9.3,3.8,14.4,3.8h7.3v5.9h-91.2v-5.9h7.5
						c8.8,0,15.2-2.6,19.3-7.8c2.5-3.5,3.8-11.5,3.8-24.3v-138.3c0-4.7-0.1-8.7-0.2-11.9c-0.2-3.2-0.6-5.9-1.2-7.9
						c-0.6-2-1.5-3.7-2.6-5.1c-1.1-1.3-2.6-2.5-4.5-3.4c-5-2.5-9.9-3.8-14.6-3.8h-7.5v-5.9h91.2v5.9h-7.3c-3.9,0-8.1,0.9-12.4,2.6
						c-4.3,1.7-7.3,4.6-8.8,8.7c-1.3,3.5-1.9,10.4-1.9,20.7v65.5c0.2-0.2,1.2-1.1,3.2-2.9c2-1.8,4.2-3.8,6.6-6
						c2.4-2.2,4.8-4.4,7.1-6.6c2.3-2.2,3.9-3.7,4.8-4.5c11.5-10.5,21.1-19.6,29-27.1c7.9-7.5,14.1-13.9,18.8-19.2
						c4.7-5.3,8.1-9.7,10.1-13.2c2-3.5,3.1-6.5,3.1-8.8c0-2.5-1.1-4.7-3.3-6.5c-2.2-1.8-6-2.7-11.3-2.7h-4.9v-5.9h78.7v5.9
						c-2.8,0.2-5.7,0.4-8.6,0.8c-2.9,0.4-6.1,1.4-9.7,2.9c-3.5,1.6-7.6,4-12.1,7.3c-4.6,3.3-10,7.9-16.3,13.7
						c-1.3,1.1-4.5,4.4-9.7,9.8c-5.2,5.4-12.6,12.9-22.4,22.5L1359.8,3306.3z"/>
					<path d="M1492.4,3210.8h58l131,160.7v-123.5c0-7.2-0.5-13-1.5-17.2c-1-4.2-2.5-7.4-4.5-9.4c-2-2-4.4-3.3-7.2-3.9
						c-2.8-0.5-6-0.8-9.7-0.8h-7.5v-5.9h74.7v5.9h-7.8c-3.8,0-7.1,0.3-9.9,0.9c-2.8,0.6-5.2,2-7.1,4.2c-1.9,2.2-3.3,5.3-4.2,9.4
						c-0.9,4.1-1.4,9.7-1.4,16.7v180.5h-5.7l-141.1-172.5V3388c0,7.4,0.5,13.2,1.5,17.3c1,4.2,2.5,7.3,4.4,9.3
						c1.9,2,4.2,3.3,7.1,3.8c2.8,0.5,6,0.7,9.7,0.7h7.5v5.9h-74.5v-5.9h7.5c3.8,0,7.1-0.3,9.9-0.9c2.8-0.6,5.2-2,7.2-4.1
						c2-2.1,3.4-5.2,4.4-9.3c0.9-4.1,1.4-9.7,1.4-16.7v-148.9c-3.1-3.8-5.8-6.8-7.9-9c-2.1-2.2-4.1-4-6-5.4
						c-1.9-1.4-3.9-2.6-6.1-3.5c-2.2-0.9-4.9-2-8.2-3.1c-3.1-0.9-7.8-1.4-13.9-1.4V3210.8z"/>
					<path d="M1797.8,3222.6v84.6h46.9c6.9,0,12.5-0.6,16.7-1.9c4.2-1.3,7.6-3.1,10-5.7c2.4-2.5,4.1-5.7,5.1-9.7
						c0.9-3.9,1.6-8.6,1.9-13.9h5.9v74.5h-5.9c-0.8-6.1-1.7-11.2-2.7-15.3c-1-4.1-2.7-7.3-4.9-9.8c-2.3-2.4-5.5-4.2-9.5-5.2
						c-4.1-1-9.6-1.5-16.5-1.5h-46.9v70.7c0,5.3,0.1,9.6,0.2,12.7c0.2,3.1,0.8,5.5,1.9,7.2c1.1,1.6,2.8,2.7,5.2,3.2
						c2.4,0.5,5.8,0.7,10.4,0.7h36.3c6.1,0,11.3-0.2,15.6-0.5c4.2-0.3,7.9-0.9,11-1.9c3.1-0.9,5.8-2.2,8.1-3.9
						c2.4-1.6,4.9-3.7,7.5-6.2c6.3-6.1,13-15.9,20-29.5h6.4l-18.6,53.7h-164.9v-5.9h7.5c2,0,4.2-0.2,6.4-0.7c2.2-0.5,4.3-1.1,6.2-2
						c2-0.9,3.7-2,5.3-3.4c1.6-1.4,2.7-3.1,3.3-4.9c1.3-3.5,1.9-10.4,1.9-20.7v-139c0-13.7-1.3-22.1-4-25.2
						c-3.8-4.2-10.1-6.4-19.1-6.4h-7.5v-5.9h164.9v46.9h-3.8c-1.6-7.7-3.3-13.9-5.1-18.5c-1.8-4.6-4.2-8.2-7.2-10.7
						c-3-2.5-6.8-4.1-11.4-4.8c-4.6-0.7-10.6-1.1-17.8-1.1H1797.8z"/>
					<path d="M2075.8,3206.1v74h-5.9c-2.7-19.9-9.2-35.2-19.6-45.7c-10.4-10.5-23.6-15.8-39.6-15.8c-5.5,0-10.5,0.9-15.1,2.8
						c-4.6,1.9-8.6,4.4-12,7.4c-3.5,3.1-6.1,6.6-8,10.5c-1.9,3.9-2.8,8-2.8,12.3c0,3.9,0.8,7.7,2.4,11.2c1.6,3.5,6.4,9.1,14.6,16.6
						c13.7,8.6,25.8,15.8,36.5,21.4c10.1,5.5,23.6,13.8,40.8,25c7.4,5.7,13,12.4,17,20.1c3.9,7.8,5.9,15.9,5.9,24.4
						c0,8-1.6,15.6-4.9,22.9c-3.3,7.2-7.9,13.5-13.8,19c-5.9,5.4-13,9.7-21.3,13c-8.3,3.2-17.4,4.8-27.3,4.8
						c-6.3,0-12.1-0.5-17.4-1.4c-0.9-0.2-3.4-0.8-7.4-2c-4-1.2-8.3-2.4-12.8-3.7c-4.6-1.3-8.8-2.4-12.7-3.5
						c-3.9-1.1-6.2-1.6-6.8-1.6c-2.7,0-4.8,0.8-6.2,2.4c-1.5,1.6-2.6,4.9-3.4,9.9h-5.9v-73.5h5.9c2.8,15.1,6.5,26.6,11.1,34.6
						c2.2,3.8,5.1,7.3,8.8,10.5c3.7,3.2,7.9,6,12.5,8.5c4.6,2.4,9.6,4.3,15,5.7c5.3,1.3,10.8,2,16.3,2c6.6,0,12.5-0.9,17.8-2.8
						c5.3-1.9,9.7-4.4,13.4-7.7c3.7-3.2,6.5-7,8.5-11.2c2-4.2,2.9-8.7,2.9-13.4c0-5.3-1.5-10.7-4.4-16c-2.9-5.3-7.8-10.6-14.7-15.8
						c-6.8-4.1-14.8-8.9-24-14.4c-17.8-10.2-33.5-20-47.4-29.5c-7.7-6.1-13.5-12.8-17.6-20.1s-6-15.4-6-24.4
						c0-7.5,1.6-14.7,4.7-21.6c3.1-6.8,7.5-12.8,13.1-18c5.6-5.2,12.2-9.3,19.9-12.3c7.7-3,16-4.5,25-4.5c11.3,0,23.3,2.8,36,8.2
						c3,1.3,5.5,2.3,7.5,3.1c2,0.8,3.7,1.1,4.9,0.9c2.8,0,5.1-0.8,6.8-2.4c1.7-1.6,3.1-4.9,4-9.9H2075.8z"/>
					<path d="M2255.6,3206.1v74h-5.9c-2.7-19.9-9.2-35.2-19.6-45.7c-10.4-10.5-23.6-15.8-39.6-15.8c-5.5,0-10.5,0.9-15.1,2.8
						c-4.6,1.9-8.6,4.4-12,7.4c-3.5,3.1-6.1,6.6-8,10.5c-1.9,3.9-2.8,8-2.8,12.3c0,3.9,0.8,7.7,2.4,11.2c1.6,3.5,6.4,9.1,14.6,16.6
						c13.7,8.6,25.8,15.8,36.5,21.4c10.1,5.5,23.6,13.8,40.8,25c7.4,5.7,13,12.4,17,20.1c3.9,7.8,5.9,15.9,5.9,24.4
						c0,8-1.6,15.6-4.9,22.9c-3.3,7.2-7.9,13.5-13.8,19c-5.9,5.4-13,9.7-21.3,13c-8.3,3.2-17.4,4.8-27.3,4.8
						c-6.3,0-12.1-0.5-17.4-1.4c-0.9-0.2-3.4-0.8-7.4-2c-4-1.2-8.3-2.4-12.8-3.7c-4.6-1.3-8.8-2.4-12.7-3.5
						c-3.9-1.1-6.2-1.6-6.8-1.6c-2.7,0-4.8,0.8-6.2,2.4c-1.5,1.6-2.6,4.9-3.4,9.9h-5.9v-73.5h5.9c2.8,15.1,6.5,26.6,11.1,34.6
						c2.2,3.8,5.1,7.3,8.8,10.5c3.7,3.2,7.9,6,12.5,8.5c4.6,2.4,9.6,4.3,15,5.7c5.3,1.3,10.8,2,16.3,2c6.6,0,12.5-0.9,17.8-2.8
						c5.3-1.9,9.7-4.4,13.4-7.7c3.7-3.2,6.5-7,8.5-11.2c2-4.2,2.9-8.7,2.9-13.4c0-5.3-1.5-10.7-4.4-16c-2.9-5.3-7.8-10.6-14.7-15.8
						c-6.8-4.1-14.8-8.9-24-14.4c-17.8-10.2-33.5-20-47.4-29.5c-7.7-6.1-13.5-12.8-17.6-20.1s-6-15.4-6-24.4
						c0-7.5,1.6-14.7,4.7-21.6c3.1-6.8,7.5-12.8,13.1-18c5.6-5.2,12.2-9.3,19.9-12.3c7.7-3,16-4.5,25-4.5c11.3,0,23.3,2.8,36,8.2
						c3,1.3,5.5,2.3,7.5,3.1c2,0.8,3.7,1.1,4.9,0.9c2.8,0,5.1-0.8,6.8-2.4c1.7-1.6,3.1-4.9,4-9.9H2255.6z"/>
				</g>
				<g>
					<path d="M627.2,3535.8c13.7,0,26.7,2.8,39.1,8.5c12.4,5.7,23.3,13.4,32.8,23.3c9.4,9.9,16.9,21.6,22.5,35
						c5.6,13.4,8.4,28,8.4,43.7c0,16.2-2.8,31.2-8.4,45c-5.6,13.8-13.1,25.8-22.6,35.9c-9.5,10.1-20.7,18.1-33.5,23.8
						c-12.8,5.7-26.4,8.6-40.9,8.6c-14.6,0-28.3-2.8-41-8.2c-12.7-5.5-23.8-13.2-33.1-23.2c-9.3-10-16.7-21.9-22.1-35.7
						c-5.4-13.8-8.1-29.1-8.1-45.7c0-15.4,2.7-29.8,8.1-43.4c5.4-13.5,12.9-25.2,22.4-35.2c9.5-10,20.8-17.9,33.8-23.7
						C597.6,3538.7,611.8,3535.8,627.2,3535.8z M624.1,3547.4c-10.8,0-20.5,2.3-28.9,7c-8.4,4.6-15.5,11.2-21.2,19.8
						c-5.7,8.6-10.1,18.9-13.1,31.1c-3,12.2-4.5,25.9-4.5,41.1c0,15.1,1.4,28.9,4.4,41.4c2.9,12.5,7.2,23.2,13,32.3
						c5.7,9,12.8,16,21.3,21s18.2,7.4,29.2,7.4c9.9,0,19-1.9,27.4-5.7c8.4-3.8,15.7-9.6,22-17.6c6.3-7.9,11.2-18.1,14.7-30.4
						c3.5-12.3,5.3-27.1,5.3-44.2c0-16.2-1.5-30.7-4.4-43.5c-2.9-12.8-7.3-23.6-13.2-32.5c-5.9-8.9-13.2-15.6-21.9-20.3
						C645.7,3549.7,635.6,3547.4,624.1,3547.4z"/>
					<path d="M808.6,3552.3v84.1h38.9c4.6,0,8.4-0.4,11.7-1.3c3.2-0.9,5.9-2.4,8.1-4.6c2.2-2.2,3.9-5.2,5.2-9
						c1.3-3.8,2.3-8.6,3.1-14.4h5.9v72.3h-5.9c-0.2-5.3-0.7-9.9-1.6-13.7c-0.9-3.8-2.5-6.9-4.6-9.3c-2.1-2.4-4.9-4.2-8.5-5.3
						c-3.5-1.1-8-1.6-13.3-1.6h-38.9v67.1c0,5,0.1,9.1,0.2,12.3c0.2,3.1,0.5,5.7,1.2,7.8c0.6,2,1.5,3.7,2.7,4.8
						c1.2,1.2,2.7,2.3,4.6,3.4c4.4,2.5,9.2,3.8,14.4,3.8h7.8v5.9h-91.9v-5.9h7.5c3.8,0,7.1-0.3,10-0.8c2.9-0.5,5.3-1.9,7.2-4
						c1.9-2.1,3.3-5.3,4.4-9.7c1-4.3,1.5-10.2,1.5-17.6v-138.3c0-4.9-0.1-8.9-0.4-12.1c-0.2-3.2-0.6-5.9-1.2-7.9
						c-0.6-2-1.4-3.7-2.5-4.9c-1.1-1.3-2.6-2.4-4.5-3.3c-2.4-1.3-4.7-2.2-7.1-2.8c-2.4-0.6-4.9-0.9-7.5-0.9h-7.5v-5.9h159.3v47.1
						h-3.5c-2-7.7-4.4-13.9-7-18.5c-2.6-4.6-5.7-8.2-9.4-10.7c-3.7-2.5-8.1-4.2-13.1-4.9c-5-0.8-11.1-1.2-18.1-1.2H808.6z"/>
					<path d="M1040.9,3561.7l52.1-25.4h5.2V3717c0,6.3,0.1,11.2,0.2,14.7c0.2,3.5,0.5,6.2,1.2,8.1c0.6,1.9,1.4,3.2,2.4,4
						c0.9,0.8,2.3,1.6,4,2.4c3.1,1.7,9.6,2.6,19.3,2.6v5.9h-80.6v-5.9c5.2,0,9.3-0.2,12.5-0.7c3.1-0.5,5.6-1.1,7.3-1.8
						c1.7-0.7,3-1.6,3.9-2.7c0.9-1.1,1.5-2.3,2-3.5c1.1-2.4,1.7-10.1,1.7-23.1v-115.7c0-9.1-0.2-16.3-0.6-21.6
						c-0.4-5.3-1.1-9.1-2-11.7c-0.9-2.5-2.2-4.1-3.8-4.8c-1.6-0.7-3.6-1.1-6.1-1.1c-4.4,0-9.8,1.4-16.3,4.2L1040.9,3561.7z"/>
					<path d="M1205.1,3724.1c4.7,0,8.8,1.7,12.3,5.1c3.5,3.4,5.2,7.5,5.2,12.4c0,4.9-1.7,9-5.2,12.5c-3.5,3.5-7.5,5.2-12.3,5.2
						c-4.9,0-9-1.7-12.5-5.2c-3.5-3.5-5.2-7.6-5.2-12.5c0-5,1.7-9.2,5.2-12.5C1196.1,3725.7,1200.3,3724.1,1205.1,3724.1z"/>
					<path d="M1385.9,3540.5l-12.5,26.9H1309l-14.1,28.7c12.7,1.9,24.5,5.2,35.2,10c10.8,4.8,20,10.7,27.7,17.8
						c7.7,7.1,13.7,15.2,18,24.4c4.3,9.2,6.5,19,6.5,29.6c0,13-2.7,24.5-8.2,34.5c-5.5,10-12.5,18.4-20.9,25.2
						c-8.4,6.8-17.6,12-27.4,15.6c-9.9,3.5-19.2,5.3-28,5.3c-6.6,0-12.2-0.6-16.8-1.8c-4.6-1.2-8.4-2.8-11.3-4.8
						c-2.9-2-5.1-4.3-6.5-6.7c-1.4-2.4-2.1-5-2.1-7.7c0-3,1.2-5.6,3.5-7.9c2.4-2.3,5.4-3.4,9.2-3.4c1.4,0,2.7,0.1,3.8,0.2
						c1.1,0.2,2.2,0.5,3.4,1.1c1.2,0.6,2.6,1.3,4.2,2.4c1.6,1,3.7,2.4,6.2,4.1c3.9,2.8,7.9,4.9,11.9,6.2c4,1.3,8,2,12.1,2
						c6.1,0,12-1.3,17.6-3.8c5.6-2.5,10.5-5.9,14.7-10.2c4.2-4.3,7.7-9.4,10.2-15.2c2.6-5.8,3.9-12.1,3.9-18.8
						c0-6.4-1.1-12.7-3.3-18.8c-2.2-6.1-5.3-11.9-9.4-17.3c-4.1-5.4-9-10.3-14.7-14.7c-5.7-4.4-12.2-8.2-19.4-11.3
						c-5.8-2.5-12.6-4.4-20.4-5.5c-7.8-1.2-16.6-2-26.5-2.5l41-83.4H1385.9z"/>
					<path d="M1682.5,3535.8l4.9,72.8h-4.9c-6.6-21.8-15.9-37.5-27.9-47.1c-12-9.6-26.5-14.4-43.5-14.4c-11,0-21.1,2.1-30.4,6.2
						c-9.3,4.2-17.2,10.6-23.9,19.2c-6.7,8.6-11.9,19.5-15.7,32.5c-3.8,13-5.7,28.4-5.7,46.2c0,14.3,1.8,27.3,5.3,38.9
						c3.5,11.6,8.7,21.6,15.6,29.8c6.8,8.2,15.2,14.6,25.1,19.1c9.9,4.5,21.3,6.7,34.2,6.7c13.5,0,25.8-3,36.8-9
						c10.5-5.5,22.2-17.3,35.1-35.3l4.9,3.1c-10.8,19-23.4,32.9-37.6,41.8c-14.2,8.9-31.2,13.3-51,13.3c-15.2,0-29.2-2.7-41.9-8
						c-12.7-5.3-23.7-12.8-32.9-22.5c-9.2-9.7-16.4-21.1-21.6-34.4c-5.2-13.3-7.8-27.8-7.8-43.7c0-21.5,4.8-41.2,14.4-58.9
						c9.4-17.9,22.5-31.7,39.3-41.5c17-9.9,35.3-14.8,55.1-14.8c15.6,0,30.8,3.8,45.7,11.3c4.4,2.4,7.5,3.5,9.4,3.5
						c3.5,0,6.3-1.4,8.6-4.2c2.3-2.8,3.9-6.4,4.8-10.6H1682.5z"/>
					<path d="M1835.6,3754.7l-82.7-180v143c0,7.4,0.5,13.2,1.5,17.3c1,4.2,2.5,7.3,4.5,9.3c2,2,4.4,3.3,7.2,3.8
						c2.8,0.5,6,0.7,9.7,0.7h7.5v5.9h-74.5v-5.9h7.5c3.8,0,7.1-0.3,9.9-0.8c2.8-0.5,5.2-1.9,7.1-4c1.9-2.1,3.3-5.3,4.2-9.4
						c0.9-4.2,1.4-9.8,1.4-16.8v-140c0-5-0.2-9.5-0.7-13.3c-0.5-3.8-1.7-7.1-3.7-9.8c-2-2.7-4.9-4.7-9-6.1c-4-1.4-9.6-2.1-16.8-2.1
						v-5.9h60.6l77.8,167.5l76.3-167.5h60.6v5.9h-7.3c-3.9,0-7.3,0.3-10.1,0.9c-2.8,0.6-5.2,2-7.1,4.1c-1.9,2.1-3.3,5.3-4.2,9.4
						c-0.9,4.2-1.4,9.8-1.4,16.8v140c0,7.4,0.5,13.2,1.5,17.3c1,4.2,2.5,7.3,4.5,9.3c2,2,4.4,3.3,7.2,3.8c2.8,0.5,6,0.7,9.7,0.7h7.3
						v5.9h-90.9v-5.9h7.5c3.8,0,7.1-0.3,9.9-0.9c2.8-0.6,5.2-2,7.2-4.1c2-2.1,3.4-5.2,4.4-9.3c0.9-4.1,1.4-9.7,1.4-16.7v-143
						l-82.5,180H1835.6z"/>
				</g>
				<g>
					<path d="M822.4,3885.3v5.9c-4.2,0-7.7,0.4-10.5,1.2c-2.7,0.8-5.3,2.6-7.7,5.3c-2.4,2.8-4.7,6.8-7.1,12.3
						c-2.4,5.4-5.1,12.7-8.2,21.8l-59.6,172.7H723l-48.8-136.9l-48.3,136.9H620l-63.6-177.9c-2.4-6.6-4.2-11.8-5.7-15.7
						c-1.4-3.8-2.5-6.4-3.3-7.7c-2.2-4.1-5.1-7.1-8.6-9.1c-3.5-2-8.4-2.9-14.7-2.9v-5.9h79.2v5.9h-3.8c-5.5,0-9.7,1.3-12.7,3.8
						c-3,2.5-4.5,5.6-4.5,9.2c0,3.8,2.4,12.3,7.1,25.4l42.2,120.2l35.3-102.3l-11.3-32.3c-1.7-3.9-3.5-7.4-5.2-10.4
						c-1.7-3-3.7-5.5-5.9-7.5c-2.2-2-4.8-3.6-7.8-4.6c-3-1-6.6-1.5-10.8-1.5v-5.9h83.2v5.9h-5.7c-6,0-10.3,1.3-13,3.8
						c-2.7,2.5-4,6-4,10.4c0,5.3,2.4,14.7,7.1,28l41,116.4l40.8-118c2.2-6.6,3.9-12.1,5.2-16.5c1.3-4.4,1.9-7.9,1.9-10.6
						c0-5-2.2-8.5-6.6-10.5c-4.4-2-10.1-2.9-17.2-2.9v-5.9H822.4z"/>
					<path d="M924.6,4093.6v5.9H833v-5.9h7.5c3.8,0,7.1-0.3,10-0.8c2.9-0.5,5.3-1.9,7.2-4c1.9-2.1,3.3-5.3,4.4-9.7
						c1-4.3,1.5-10.2,1.5-17.6v-138.3c0-4.9-0.1-8.9-0.4-12.1c-0.2-3.2-0.6-5.9-1.2-7.9c-0.6-2-1.4-3.7-2.5-4.8
						c-1.1-1.2-2.6-2.3-4.5-3.4c-4.7-2.5-9.6-3.8-14.6-3.8H833v-5.9h91.7v5.9h-7.5c-3.8,0-7.1,0.3-10,0.9c-2.9,0.6-5.3,2-7.2,4.1
						c-1.9,2.1-3.3,5.3-4.4,9.7c-1,4.3-1.5,10.1-1.5,17.3v138.3c0,5,0.1,9.1,0.2,12.3c0.2,3.1,0.5,5.7,1.2,7.8
						c0.6,2,1.5,3.7,2.7,4.8c1.2,1.2,2.7,2.3,4.6,3.4c4.4,2.5,9.2,3.8,14.4,3.8H924.6z"/>
					<path d="M1119.7,3885.3v50.4h-3.5c-1.7-13.5-5.7-23-11.9-28.6c-6.2-5.6-15.4-8.4-27.4-8.4h-30.2v163.8c0,7.2,0.5,12.9,1.5,17.1
						c1,4.2,2.5,7.3,4.4,9.3c1.9,2,4.2,3.3,7.1,3.9c2.8,0.6,6.1,0.8,9.9,0.8h7.3v5.9h-90.7v-5.9h7.5c3.8,0,7.1-0.3,9.9-0.9
						c2.8-0.6,5.2-2,7.1-4.1c1.9-2.1,3.3-5.2,4.4-9.3c1-4.1,1.5-9.7,1.5-16.7v-163.8h-25.7c-6.4,0-12.1,0.5-17.1,1.5
						c-4.9,1-9.2,2.9-12.8,5.7c-3.6,2.7-6.5,6.5-8.6,11.3c-2.1,4.8-3.4,11-3.9,18.5h-5.9v-50.4H1119.7z"/>
					<path d="M1196.5,3984.7h99.4v-61.3c0-5-0.1-9.1-0.2-12.4c-0.2-3.2-0.6-5.9-1.2-7.9c-0.6-2-1.5-3.7-2.7-4.8
						c-1.2-1.2-2.7-2.3-4.6-3.4c-4.4-2.5-9.2-3.8-14.4-3.8h-7.5v-5.9h91.7v5.9h-7.5c-2,0-4.2,0.2-6.5,0.7c-2.3,0.5-4.4,1.2-6.4,2.1
						c-2,0.9-3.7,2.1-5.3,3.5c-1.6,1.4-2.7,3.1-3.3,4.9c-1.1,3.3-1.6,10.3-1.6,21v138.1c0,5,0.1,9.1,0.4,12.3
						c0.2,3.1,0.6,5.7,1.2,7.8c0.5,2,1.4,3.7,2.5,4.8c1.1,1.2,2.6,2.3,4.5,3.4c4.4,2.5,9.3,3.8,14.6,3.8h7.5v5.9h-91.7v-5.9h7.5
						c3.6,0,6.8-0.3,9.7-0.8c2.8-0.5,5.3-1.9,7.3-4c2-2.1,3.6-5.3,4.6-9.7c1-4.3,1.5-10.2,1.5-17.6v-65.3h-99.4v65.3
						c0,5,0.1,9.1,0.2,12.3c0.2,3.1,0.5,5.7,1.2,7.8c0.6,2,1.5,3.7,2.7,4.8c1.2,1.2,2.7,2.3,4.6,3.4c4.4,2.5,9.2,3.8,14.4,3.8h7.8
						v5.9h-91.9v-5.9h7.8c8.6,0,15-2.6,19.1-7.8c2.5-3.1,3.8-11.2,3.8-24.3v-138.1c0-5.2-0.1-9.4-0.2-12.6c-0.2-3.2-0.6-5.8-1.2-7.8
						c-0.6-2-1.5-3.5-2.6-4.7c-1.1-1.2-2.6-2.3-4.5-3.4c-4.4-2.5-9.2-3.8-14.4-3.8h-7.8v-5.9h91.9v5.9h-7.8c-1.9,0-4,0.2-6.2,0.7
						c-2.3,0.5-4.4,1.2-6.4,2.1c-2,0.9-3.7,2.1-5.3,3.5c-1.6,1.4-2.7,3.1-3.3,4.9c-1.3,3.8-1.9,10.8-1.9,21V3984.7z"/>
				</g>
				<g>
					<path d="M642,4435.9l-82.7-180v143c0,7.4,0.5,13.2,1.5,17.3c1,4.2,2.5,7.3,4.5,9.3c2,2,4.4,3.3,7.2,3.8c2.8,0.5,6,0.7,9.7,0.7
						h7.5v5.9h-74.5v-5.9h7.5c3.8,0,7.1-0.3,9.9-0.8c2.8-0.5,5.2-1.9,7.1-4c1.9-2.1,3.3-5.3,4.2-9.4c0.9-4.2,1.4-9.8,1.4-16.8v-140
						c0-5-0.2-9.5-0.7-13.3c-0.5-3.8-1.7-7.1-3.7-9.8c-2-2.7-4.9-4.7-9-6.1s-9.6-2.1-16.8-2.1v-5.9h60.6l77.8,167.5l76.3-167.5h60.6
						v5.9h-7.3c-3.9,0-7.3,0.3-10.1,0.9c-2.8,0.6-5.2,2-7.1,4.1s-3.3,5.3-4.2,9.4c-0.9,4.2-1.4,9.8-1.4,16.8v140
						c0,7.4,0.5,13.2,1.5,17.3c1,4.2,2.5,7.3,4.5,9.3c2,2,4.4,3.3,7.2,3.8s6,0.7,9.7,0.7h7.3v5.9h-90.9v-5.9h7.5
						c3.8,0,7.1-0.3,9.9-0.9c2.8-0.6,5.2-2,7.2-4.1c2-2.1,3.4-5.2,4.4-9.3c0.9-4.1,1.4-9.7,1.4-16.7v-143l-82.5,180H642z"/>
					<path d="M945.3,4364.2h-82.9l-14.6,33.7c-3.5,8.3-5.2,14.5-5.2,18.6c0,1.7,0.3,3.3,0.8,4.7c0.5,1.4,1.7,2.7,3.5,3.9
						c1.8,1.2,4.3,2.2,7.5,3.1c3.2,0.9,7.5,1.5,12.8,1.8v5.9h-67.4v-5.9c5.3-0.8,9.7-2,13-3.5c3.3-1.6,6.1-3.7,8.5-6.5
						c2.4-2.7,4.5-6.3,6.5-10.7c2-4.4,4.4-9.8,7.2-16.3l75.4-176h5.4l74.5,177.9c3,7.4,5.8,13.3,8.4,17.8c2.6,4.5,5.3,8,8,10.5
						c2.7,2.5,5.7,4.2,9,5.2c3.2,0.9,7.1,1.5,11.7,1.6v5.9h-84.6v-5.9c8.5-0.3,14.3-1.7,17.3-4.1c3.1-2.4,4.6-5.4,4.6-8.8
						c-0.2-4.6-2.3-11.9-6.4-22.1L945.3,4364.2z M940.8,4352.5l-36.3-86.5l-37.2,86.5H940.8z"/>
					<path d="M1182.1,4221.7v50.4h-3.5c-1.7-13.5-5.7-23-11.9-28.6c-6.2-5.6-15.4-8.4-27.4-8.4H1109v163.8c0,7.2,0.5,12.9,1.5,17.1
						c1,4.2,2.5,7.3,4.4,9.3c1.9,2,4.2,3.3,7.1,3.9c2.8,0.6,6.1,0.8,9.9,0.8h7.3v5.9h-90.7v-5.9h7.5c3.8,0,7.1-0.3,9.9-0.9
						c2.8-0.6,5.2-2,7.1-4.1s3.3-5.2,4.4-9.3c1-4.1,1.5-9.7,1.5-16.7v-163.8h-25.7c-6.4,0-12.1,0.5-17.1,1.5
						c-4.9,1-9.2,2.9-12.8,5.7c-3.6,2.7-6.5,6.5-8.6,11.3c-2.1,4.8-3.4,11-3.9,18.5h-5.9v-50.4H1182.1z"/>
					<path d="M1260,4233.5v84.6h46.9c6.9,0,12.5-0.6,16.7-1.9c4.2-1.3,7.6-3.1,10-5.7c2.4-2.5,4.1-5.7,5.1-9.7
						c0.9-3.9,1.6-8.6,1.9-13.9h5.9v74.5h-5.9c-0.8-6.1-1.7-11.2-2.7-15.3c-1-4.1-2.7-7.3-4.9-9.8c-2.3-2.4-5.5-4.2-9.5-5.2
						c-4.1-1-9.6-1.5-16.5-1.5H1260v70.7c0,5.3,0.1,9.6,0.2,12.7c0.2,3.1,0.8,5.5,1.9,7.2c1.1,1.6,2.8,2.7,5.2,3.2
						c2.4,0.5,5.8,0.7,10.4,0.7h36.3c6.1,0,11.3-0.2,15.6-0.5c4.2-0.3,7.9-0.9,11-1.9c3.1-0.9,5.8-2.2,8.1-3.9
						c2.4-1.6,4.9-3.7,7.5-6.2c6.3-6.1,13-15.9,20-29.5h6.4l-18.6,53.7H1199v-5.9h7.5c2,0,4.2-0.2,6.4-0.7c2.2-0.5,4.3-1.1,6.2-2
						c2-0.9,3.7-2,5.3-3.4c1.6-1.4,2.7-3.1,3.3-4.9c1.3-3.5,1.9-10.4,1.9-20.7v-139c0-13.7-1.3-22.1-4-25.2
						c-3.8-4.2-10.1-6.4-19.1-6.4h-7.5v-5.9h164.9v46.9h-3.8c-1.6-7.7-3.3-13.9-5.1-18.5c-1.8-4.6-4.2-8.2-7.2-10.7
						c-3-2.5-6.8-4.1-11.4-4.8c-4.6-0.7-10.6-1.1-17.8-1.1H1260z"/>
					<path d="M1608.3,4435.9h-57l-72.6-100.1c-2.7,0.2-5.1,0.3-7.2,0.4c-2.1,0.1-4,0.1-5.8,0.1c-1.4,0-2.9,0-4.5-0.1
						c-1.6-0.1-3.2-0.2-4.9-0.4v62.2c0,7.5,0.5,13.5,1.5,17.8c1,4.3,2.5,7.5,4.5,9.7c2,2.1,4.3,3.4,7.1,3.9c2.7,0.5,5.8,0.7,9.3,0.7
						h8.5v5.9h-91.9v-5.9h8.2c8.8,0,15.2-2.9,19.3-8.7c2.2-3.5,3.3-11.2,3.3-23.3v-138.3c0-13.2-1.5-21.5-4.5-25
						c-4.1-4.7-10.1-7.1-18.1-7.1h-8.2v-5.9h78c11.5,0,21.4,0.4,29.7,1.3c8.3,0.9,15.2,2.2,20.5,3.9c5.3,1.7,10.4,4.1,15.1,7.2
						c4.7,3.1,8.8,6.8,12.4,11.1c3.5,4.3,6.3,9.2,8.4,14.5c2,5.3,3.1,11.1,3.1,17.2c0,13.4-4.2,24.8-12.7,34.4
						c-8.5,9.6-21.8,16.4-39.8,20.5l44.1,61.3c5.2,7.1,9.8,12.9,13.8,17.4c4,4.6,8,8.2,12,10.8c4,2.7,8.2,4.6,12.7,5.9
						c4.5,1.3,9.8,2.2,15.9,2.8V4435.9z M1456.3,4325.8c2,0,3.8,0,5.3,0.1c1.5,0.1,2.7,0.1,3.7,0.1c10.2,0,19.2-1.2,26.9-3.5
						c7.7-2.4,14.1-5.7,19.3-9.9c5.2-4.2,9.1-9.2,11.7-15c2.6-5.7,3.9-12,3.9-18.7c0-6.6-1.1-12.7-3.3-18.3
						c-2.2-5.6-5.3-10.4-9.4-14.4c-4.1-4-9-7.1-14.6-9.3c-5.7-2.2-11.9-3.3-18.6-3.3c-6.4,0-14.7,1-24.7,3.1V4325.8z"/>
					<path d="M1705.1,4430v5.9h-91.7v-5.9h7.5c3.8,0,7.1-0.3,10-0.8c2.9-0.5,5.3-1.9,7.2-4c1.9-2.1,3.3-5.3,4.4-9.7
						c1-4.3,1.5-10.2,1.5-17.6v-138.3c0-4.9-0.1-8.9-0.4-12.1c-0.2-3.2-0.6-5.9-1.2-7.9c-0.6-2-1.4-3.7-2.5-4.8
						c-1.1-1.2-2.6-2.3-4.5-3.4c-4.7-2.5-9.6-3.8-14.6-3.8h-7.5v-5.9h91.7v5.9h-7.5c-3.8,0-7.1,0.3-10,0.9c-2.9,0.6-5.3,2-7.2,4.1
						c-1.9,2.1-3.3,5.3-4.4,9.7c-1,4.3-1.5,10.1-1.5,17.3v138.3c0,5,0.1,9.1,0.2,12.3c0.2,3.1,0.5,5.7,1.2,7.8
						c0.6,2,1.5,3.7,2.7,4.8s2.7,2.3,4.6,3.4c4.4,2.5,9.2,3.8,14.4,3.8H1705.1z"/>
					<path d="M1861.1,4364.2h-82.9l-14.6,33.7c-3.5,8.3-5.2,14.5-5.2,18.6c0,1.7,0.3,3.3,0.8,4.7c0.5,1.4,1.7,2.7,3.5,3.9
						c1.8,1.2,4.3,2.2,7.5,3.1c3.2,0.9,7.5,1.5,12.8,1.8v5.9h-67.4v-5.9c5.3-0.8,9.7-2,13-3.5c3.3-1.6,6.1-3.7,8.5-6.5
						c2.4-2.7,4.5-6.3,6.5-10.7c2-4.4,4.4-9.8,7.2-16.3l75.4-176h5.4l74.5,177.9c3,7.4,5.8,13.3,8.4,17.8c2.6,4.5,5.3,8,8,10.5
						c2.7,2.5,5.7,4.2,9,5.2c3.2,0.9,7.1,1.5,11.7,1.6v5.9h-84.6v-5.9c8.5-0.3,14.3-1.7,17.3-4.1c3.1-2.4,4.6-5.4,4.6-8.8
						c-0.2-4.6-2.3-11.9-6.4-22.1L1861.1,4364.2z M1856.6,4352.5l-36.3-86.5l-37.2,86.5H1856.6z"/>
					<path d="M2132.1,4376.7l5.2,0.9l-18.4,58.2H1953v-5.9h8.2c8.8,0,15.2-2.9,19.3-8.7c2.2-3.5,3.3-11.2,3.3-23.3v-138.3
						c0-13.2-1.5-21.5-4.5-25c-4.1-4.7-10.1-7.1-18.1-7.1h-8.2v-5.9h97.1v5.9c-5.8,0-10.6,0.3-14.5,0.8c-3.9,0.6-7,1.3-9.5,2.4
						c-2.5,1-4.5,2.2-5.9,3.7c-1.4,1.4-2.6,3-3.5,4.7c-1.6,3.1-2.4,11.2-2.4,24.3v134.5c0,7.4,0.5,12.7,1.6,16
						c1.1,3.3,3.3,5.6,6.6,6.8c2.8,0.9,11.1,1.4,24.7,1.4h15.6c16.5,0,28-1.2,34.6-3.5c3.3-1.1,6.4-2.7,9.4-4.7c3-2,5.9-4.7,8.7-8
						c2.8-3.3,5.6-7.3,8.2-12C2126.5,4389.2,2129.2,4383.5,2132.1,4376.7z"/>
				</g>
				<g>
					<path d="M829.7,4566.6v5.9c-4.2,0-7.7,0.4-10.5,1.2c-2.7,0.8-5.3,2.6-7.7,5.3c-2.4,2.8-4.7,6.8-7.1,12.3
						c-2.4,5.4-5.1,12.7-8.2,21.8l-59.6,172.7h-6.4l-48.8-136.9l-48.3,136.9h-5.9l-63.6-177.9c-2.4-6.6-4.2-11.8-5.7-15.7
						c-1.4-3.8-2.5-6.4-3.3-7.7c-2.2-4.1-5.1-7.1-8.6-9.1c-3.5-2-8.4-2.9-14.7-2.9v-5.9h79.2v5.9h-3.8c-5.5,0-9.7,1.3-12.7,3.8
						c-3,2.5-4.5,5.6-4.5,9.2c0,3.8,2.4,12.3,7.1,25.4l42.2,120.2l35.3-102.3l-11.3-32.3c-1.7-3.9-3.5-7.4-5.2-10.4
						c-1.7-3-3.7-5.5-5.9-7.5c-2.2-2-4.8-3.6-7.8-4.6c-3-1-6.6-1.5-10.8-1.5v-5.9h83.2v5.9h-5.7c-6,0-10.3,1.3-13,3.8
						c-2.7,2.5-4,6-4,10.4c0,5.3,2.4,14.7,7.1,28l41,116.4l40.8-118c2.2-6.6,3.9-12.1,5.2-16.5c1.3-4.4,1.9-7.9,1.9-10.6
						c0-5-2.2-8.5-6.6-10.5c-4.4-2-10.1-2.9-17.2-2.9v-5.9H829.7z"/>
					<path d="M950.6,4561.9c13.7,0,26.7,2.8,39.1,8.5c12.4,5.7,23.3,13.4,32.8,23.3c9.4,9.9,16.9,21.6,22.5,35
						c5.6,13.4,8.4,28,8.4,43.7c0,16.2-2.8,31.2-8.4,45c-5.6,13.8-13.1,25.8-22.6,35.9c-9.5,10.1-20.7,18.1-33.5,23.8
						c-12.8,5.7-26.4,8.6-40.9,8.6c-14.6,0-28.3-2.8-41-8.2c-12.7-5.5-23.8-13.2-33.1-23.2c-9.3-10-16.7-21.9-22.1-35.7
						c-5.4-13.8-8.1-29.1-8.1-45.7c0-15.4,2.7-29.8,8.1-43.4c5.4-13.5,12.9-25.2,22.4-35.2c9.5-10,20.8-17.9,33.8-23.7
						C921,4564.8,935.2,4561.9,950.6,4561.9z M947.5,4573.4c-10.8,0-20.5,2.3-28.9,7c-8.4,4.6-15.5,11.2-21.2,19.8
						c-5.7,8.6-10.1,18.9-13.1,31.1c-3,12.2-4.5,25.9-4.5,41.1c0,15.1,1.4,28.9,4.4,41.4c2.9,12.5,7.2,23.2,13,32.3
						c5.7,9,12.8,16,21.3,21c8.5,4.9,18.2,7.4,29.2,7.4c9.9,0,19-1.9,27.4-5.7c8.4-3.8,15.7-9.6,22-17.6
						c6.3-7.9,11.2-18.1,14.7-30.4c3.5-12.3,5.3-27.1,5.3-44.2c0-16.2-1.5-30.7-4.4-43.5c-2.9-12.8-7.3-23.6-13.2-32.5
						c-5.9-8.9-13.2-15.6-21.9-20.3C969.1,4575.7,959,4573.4,947.5,4573.4z"/>
					<path d="M1184.1,4561.9c13.7,0,26.7,2.8,39.1,8.5c12.4,5.7,23.3,13.4,32.8,23.3c9.4,9.9,16.9,21.6,22.5,35
						c5.6,13.4,8.4,28,8.4,43.7c0,16.2-2.8,31.2-8.4,45c-5.6,13.8-13.1,25.8-22.6,35.9c-9.5,10.1-20.7,18.1-33.5,23.8
						c-12.8,5.7-26.4,8.6-40.9,8.6c-14.6,0-28.3-2.8-41-8.2c-12.7-5.5-23.8-13.2-33.1-23.2c-9.3-10-16.7-21.9-22.1-35.7
						c-5.4-13.8-8.1-29.1-8.1-45.7c0-15.4,2.7-29.8,8.1-43.4c5.4-13.5,12.9-25.2,22.4-35.2c9.5-10,20.8-17.9,33.8-23.7
						C1154.5,4564.8,1168.7,4561.9,1184.1,4561.9z M1181,4573.4c-10.8,0-20.5,2.3-28.9,7c-8.4,4.6-15.5,11.2-21.2,19.8
						c-5.7,8.6-10.1,18.9-13.1,31.1c-3,12.2-4.5,25.9-4.5,41.1c0,15.1,1.4,28.9,4.4,41.4c2.9,12.5,7.2,23.2,13,32.3
						c5.7,9,12.8,16,21.3,21c8.5,4.9,18.2,7.4,29.2,7.4c9.9,0,19-1.9,27.4-5.7c8.4-3.8,15.7-9.6,22-17.6
						c6.3-7.9,11.2-18.1,14.7-30.4c3.5-12.3,5.3-27.1,5.3-44.2c0-16.2-1.5-30.7-4.4-43.5c-2.9-12.8-7.3-23.6-13.2-32.5
						c-5.9-8.9-13.2-15.6-21.9-20.3C1202.6,4575.7,1192.5,4573.4,1181,4573.4z"/>
					<path d="M1304.7,4780.8v-5.9h8.2c3.6,0,6.8-0.3,9.7-0.9c2.8-0.6,5.2-2,7.1-4.2c1.9-2.2,3.3-5.4,4.4-9.7c1-4.2,1.5-10,1.5-17.2
						v-138.3c0-13.2-1.5-21.5-4.5-25c-4.1-4.7-10.1-7.1-18.1-7.1h-8.2v-5.9h87.2c31.7,0,56.1,3.7,73,11.1
						c16.8,7.4,30.2,19.5,40.3,36.3c10.2,17.1,15.3,36.7,15.3,58.7c0,15.9-2.6,30.4-7.7,43.6c-5.1,13.2-12.7,24.6-22.9,34.2
						c-10.1,9.6-22.7,17-37.6,22.4c-14.9,5.3-32.3,8-52.1,8H1304.7z M1366,4765.2c13,3,24.2,4.5,33.5,4.5c12.1,0,23.3-2.2,33.7-6.7
						c10.4-4.5,19.4-10.8,27-19.1c7.6-8.2,13.6-18.3,17.9-30c4.3-11.8,6.5-25,6.5-39.6c0-14.8-2.1-28.1-6.4-39.9
						c-4.2-11.9-10.2-21.9-17.9-30.2c-7.7-8.2-16.8-14.6-27.3-19c-10.5-4.4-22.1-6.6-34.6-6.6c-9.3,0-20,1.6-32.3,4.7V4765.2z"/>
				</g>
			</g>
		</g>
		<g id="SELECTOR-TRIPLEX-SUB">
			<circle class="st3" cx="1414.6" cy="1551.8" r="1337.2"/>
			<ellipse class="st4" cx="1420.8" cy="1551.1" rx="1351.1" ry="1340.7"/>
			<line class="st5" x1="235.6" y1="967.5" x2="2606" y2="967.5"/>
			<line class="st5" x1="2436.6" y1="2425.8" x2="406.6" y2="2425.5"/>
			<line class="st6" x1="958.6" y1="1059.6" x2="958.6" y2="2333.7"/>
			<line class="st7" x1="1146.8" y1="1059.6" x2="770.4" y2="1059.6"/>
			<line class="st7" x1="1146.8" y1="2333.2" x2="770.4" y2="2333.2"/>
			<circle class="st8" cx="1410.7" cy="1546.7" r="1337.2"/>
		</g>
		<circle cx="389" cy="3328.1" r="51.7"/>
		<line class="st2" x1="2565.1" y1="868" x2="4172.5" y2="868"/>
		<circle cx="4186.3" cy="868.7" r="47.4"/>
		<g>
			<path d="M1210.6,1881.8l1.1-15.8l72.3-11.1v-252.7h-68.4l1.3-16.1l101.9-16.9h7.1v287l70.8,7.4l-2.4,18.2H1210.6z"/>
			<path d="M1424.7,1860.7c0-8.4,2.2-15.2,6.5-20.2c4.3-5,10.1-7.5,17.3-7.5c7.2,0,13.1,2.6,17.7,7.7c4.6,5.1,6.9,11.9,6.9,20.3
				c0,8.8-2.2,15.9-6.6,21.4c-4.4,5.5-10.3,8.2-17.7,8.2c-7.2,0-13-2.8-17.4-8.3C1426.9,1876.7,1424.7,1869.5,1424.7,1860.7z"/>
			<path d="M1502.3,1858.9l7.4-74.2l17.7,3.7l4.8,52.8c13.9,17.1,32.2,25.6,54.9,25.6c18.8,0,33.8-6,44.9-18.1
				c11.1-12.1,16.6-28,16.6-47.9c0-26-10.9-46.5-32.6-61.4c-21.7-14.9-51.7-23.5-89.9-26l30.4-140.5l118.5-7.1l-5.5,39.3l-101.6,4.5
				l-11.6,68.9c22.7,1.4,42.6,5.1,59.8,11.2c17.2,6.1,30.8,14,41.1,23.6c10.2,9.7,17.8,20.5,22.8,32.3c5,11.9,7.5,24.9,7.5,39.2
				c0,27.6-10.7,51.4-32.1,71.4c-21.4,20-47.9,30-79.6,30C1545.8,1886.3,1521.3,1877.2,1502.3,1858.9z"/>
			<path d="M1797.5,1724c0-16,1.9-32.1,5.8-48.3c3.9-16.2,10-32.1,18.5-47.7c8.4-15.6,18.7-29.3,30.8-41.3
				c12.1-12,27.1-21.6,45.1-28.9c18-7.3,37.7-11,59-11c38.9,0,69.8,8.7,92.7,26.1l-8.2,88.4l-18-2.6l-9.5-63.4
				c-14.8-19.2-38.4-28.8-70.8-28.8c-28.7,0-52.9,13.4-72.7,40.1c-19.8,26.8-29.7,61.2-29.7,103.5c0,47.2,11.1,83.9,33.4,110.2
				c22.3,26.3,51.3,39.5,87,39.5c17.6,0,34.6-4.2,51-12.7c16.4-8.4,30.8-19,43.3-31.7l7.7,15c-11.1,14.8-27.5,28.2-49.2,40.1
				c-21.7,12-45.4,18-70.9,18c-20.2,0-39.2-3.8-56.8-11.4c-17.6-7.6-33-18.3-46.1-32.1c-13.1-13.8-23.5-31.2-31-52
				C1801.3,1772.4,1797.5,1749.3,1797.5,1724z"/>
			<path d="M2085.3,1882.1l2.1-14.3l44.4-10l20.3-279.6l-48.6-9.8l2.4-14.8h95l19.8,50.4l75.8,207.2l88.2-217.5l17.7-40.1h95
				l-1.8,14.8l-45.1,9l14.3,282l47.8,6.9l-1.6,15.8h-131.7l2.1-14.3l44.6-10l-15-262.7l-111.7,272.5l-23.5,3.7l-99.3-268.8
				l-18.7,256.9l48.3,6.9l-2.6,15.8H2085.3z"/>
		</g>
		<g>
			<path d="M12745,2671.7l37.7-18.4h3.8v130.8c0,4.5,0.1,8.1,0.2,10.7c0.1,2.6,0.4,4.5,0.9,5.9c0.5,1.4,1,2.3,1.7,2.9
				c0.7,0.6,1.6,1.1,2.9,1.7c2.3,1.3,6.9,1.9,14,1.9v4.3h-58.3v-4.3c3.8,0,6.8-0.2,9-0.5c2.3-0.3,4-0.8,5.3-1.3
				c1.2-0.5,2.2-1.2,2.8-2c0.6-0.8,1.1-1.6,1.4-2.6c0.8-1.7,1.2-7.3,1.2-16.7v-83.7c0-6.6-0.1-11.8-0.4-15.6
				c-0.3-3.8-0.8-6.6-1.4-8.4c-0.7-1.8-1.6-3-2.7-3.5c-1.1-0.5-2.6-0.8-4.4-0.8c-3.2,0-7.1,1-11.8,3.1L12745,2671.7z"/>
			<path d="M12846.9,2814.7v-4.3c5.1-0.1,10-0.7,14.6-1.8c4.6-1.1,9-2.8,13.3-5.2c4.3-2.4,8.4-5.5,12.4-9.3c4-3.8,8-8.5,12-14.1
				c4-5.6,7.4-11.4,10.1-17.4c2.8-6,5-12.4,6.6-19.3c-12.1,7.7-22.9,11.6-32.4,11.6c-5.5,0-10.6-1.1-15.4-3.3
				c-4.8-2.2-9-5.3-12.6-9.4c-3.6-4-6.4-8.9-8.5-14.6c-2.1-5.7-3.2-12-3.2-18.9c0-7.5,1.2-14.6,3.8-21.4c2.5-6.8,5.9-12.6,10.3-17.7
				c4.4-5,9.5-9,15.4-11.9c5.9-3,12.2-4.4,18.9-4.4c7.3,0,13.9,1.8,20,5.4c6,3.6,11.2,8.3,15.6,14.2c4.4,5.9,7.8,12.7,10.1,20.4
				c2.4,7.7,3.6,15.7,3.6,24c0,17.1-4.2,33.1-12.6,48.3c-4.3,7.5-9.4,14.3-15.3,20.4c-5.9,6.1-12.5,11.6-20,16.6
				c-12.4,8.1-25.8,12.1-40.1,12.1H12846.9z M12917.8,2735c1.4-10,2-18,2-23.9c0-7.3-0.8-14-2.5-20.1c-1.6-6.1-3.8-11.5-6.6-15.9
				c-2.7-4.5-5.9-8-9.5-10.6c-3.6-2.6-7.5-3.8-11.6-3.8c-3.3,0-6.5,0.8-9.6,2.3c-3.1,1.5-5.8,3.8-8.1,6.8c-2.3,3-4.2,6.8-5.6,11.3
				c-1.4,4.5-2.1,9.8-2.1,15.9c0,6.7,0.7,13,2,18.8c1.3,5.8,3.2,10.8,5.6,15.1c2.4,4.3,5.4,7.6,8.9,10.1c3.5,2.4,7.4,3.7,11.9,3.7
				c1.7,0,3.7-0.2,5.9-0.7c2.2-0.5,4.5-1.1,6.7-1.9c2.3-0.8,4.5-1.8,6.7-3C12914,2737.8,12916,2736.5,12917.8,2735z"/>
			<path d="M12980.9,2789.2c3.4,0,6.4,1.2,8.9,3.7c2.5,2.4,3.8,5.4,3.8,9c0,3.5-1.3,6.5-3.8,9c-2.5,2.5-5.5,3.8-8.9,3.8
				c-3.5,0-6.5-1.3-9-3.8c-2.5-2.5-3.8-5.5-3.8-9c0-3.6,1.2-6.7,3.8-9C12974.4,2790.4,12977.4,2789.2,12980.9,2789.2z"/>
			<path d="M13111.7,2656.4l-9,19.4h-46.6l-10.2,20.8c9.2,1.4,17.7,3.8,25.5,7.2c7.8,3.5,14.5,7.8,20,12.9c5.6,5.1,9.9,11,13,17.7
				c3.1,6.7,4.7,13.8,4.7,21.4c0,9.4-2,17.8-6,25c-4,7.2-9,13.3-15.1,18.2c-6.1,4.9-12.7,8.7-19.9,11.3c-7.2,2.6-13.9,3.8-20.3,3.8
				c-4.8,0-8.8-0.4-12.2-1.3c-3.4-0.9-6.1-2-8.2-3.5c-2.1-1.5-3.7-3.1-4.7-4.9c-1-1.8-1.5-3.6-1.5-5.5c0-2.2,0.9-4.1,2.6-5.7
				c1.7-1.6,3.9-2.5,6.7-2.5c1,0,1.9,0.1,2.7,0.2c0.8,0.1,1.6,0.4,2.5,0.8c0.9,0.4,1.9,1,3.1,1.7c1.2,0.7,2.7,1.7,4.5,3
				c2.8,2,5.7,3.6,8.6,4.5c2.9,1,5.8,1.4,8.8,1.4c4.4,0,8.7-0.9,12.7-2.7c4-1.8,7.6-4.3,10.7-7.4c3.1-3.1,5.5-6.8,7.4-11
				c1.9-4.2,2.8-8.8,2.8-13.6c0-4.7-0.8-9.2-2.4-13.6c-1.6-4.4-3.9-8.6-6.8-12.5c-3-3.9-6.5-7.5-10.7-10.7
				c-4.2-3.2-8.8-5.9-14.1-8.2c-4.2-1.8-9.1-3.2-14.8-4c-5.6-0.9-12-1.4-19.2-1.8l29.7-60.4H13111.7z"/>
			<path d="M13326.4,2653l3.6,52.7h-3.6c-4.8-15.8-11.5-27.2-20.2-34.1c-8.7-6.9-19.2-10.4-31.5-10.4c-8,0-15.3,1.5-22,4.5
				c-6.7,3-12.5,7.6-17.3,13.9c-4.8,6.3-8.6,14.1-11.3,23.5c-2.7,9.4-4.1,20.6-4.1,33.4c0,10.3,1.3,19.7,3.8,28.1
				c2.6,8.4,6.3,15.6,11.3,21.6c4.9,6,11,10.6,18.2,13.8c7.2,3.2,15.4,4.9,24.7,4.9c9.8,0,18.6-2.2,26.6-6.5
				c7.6-4,16.1-12.5,25.4-25.6l3.6,2.2c-7.8,13.8-16.9,23.8-27.2,30.3c-10.3,6.4-22.6,9.6-36.9,9.6c-11,0-21.1-1.9-30.4-5.8
				c-9.2-3.9-17.1-9.3-23.8-16.3c-6.7-7-11.9-15.3-15.6-24.9c-3.8-9.6-5.6-20.2-5.6-31.6c0-15.6,3.5-29.8,10.4-42.6
				c6.8-13,16.3-23,28.5-30c12.3-7.2,25.6-10.7,39.9-10.7c11.3,0,22.3,2.7,33.1,8.2c3.2,1.7,5.5,2.6,6.8,2.6c2.5,0,4.6-1,6.2-3.1
				c1.6-2,2.8-4.6,3.5-7.7H13326.4z"/>
			<path d="M13437.3,2811.4l-59.9-130.3v103.5c0,5.3,0.4,9.5,1.1,12.5c0.7,3,1.8,5.3,3.2,6.7c1.4,1.5,3.2,2.4,5.2,2.7
				c2,0.3,4.4,0.5,7,0.5h5.5v4.3h-53.9v-4.3h5.5c2.7,0,5.1-0.2,7.2-0.6c2-0.4,3.8-1.4,5.1-2.9c1.4-1.5,2.4-3.8,3.1-6.8
				c0.7-3,1-7.1,1-12.2v-101.3c0-3.6-0.2-6.8-0.5-9.6c-0.3-2.8-1.2-5.1-2.6-7.1c-1.4-1.9-3.6-3.4-6.5-4.4c-2.9-1-7-1.5-12.2-1.5
				v-4.3h43.8l56.3,121.3l55.3-121.3h43.8v4.3h-5.3c-2.8,0-5.3,0.2-7.3,0.7c-2,0.5-3.8,1.4-5.1,3s-2.4,3.8-3.1,6.8
				c-0.7,3-1,7.1-1,12.2v101.3c0,5.3,0.4,9.5,1.1,12.5c0.7,3,1.8,5.3,3.2,6.7c1.4,1.5,3.2,2.4,5.2,2.7c2,0.3,4.4,0.5,7,0.5h5.3v4.3
				h-65.8v-4.3h5.5c2.7,0,5.1-0.2,7.2-0.7c2-0.5,3.8-1.4,5.2-3c1.4-1.5,2.5-3.8,3.2-6.7c0.7-3,1-7,1-12.1v-103.5l-59.7,130.3
				H13437.3z"/>
		</g>
		<g>
			<path d="M7841.2,4697.2v21.2h-25.7v53.6h-23.4v-53.6h-81.2v-19.2l89-134.2h15.6v132.2H7841.2z M7792.1,4697.2v-100.7l-67.3,100.7
				H7792.1z"/>
			<path d="M7906.6,4669.7c-7.6-6.7-13.7-12.6-18.5-17.6c-4.7-5.1-8.4-9.7-11-14c-2.6-4.2-4.3-8.3-5.2-12.3
				c-0.8-3.9-1.3-8.1-1.3-12.6c0-6.4,1.3-12.5,3.8-18.4c2.5-5.9,6.1-11,10.8-15.4c4.6-4.4,10.2-7.9,16.7-10.5
				c6.5-2.6,13.6-3.9,21.5-3.9c7.6,0,14.6,1.2,20.9,3.7c6.3,2.5,11.8,5.7,16.3,9.7c4.6,4,8.1,8.7,10.5,14c2.5,5.3,3.7,10.7,3.7,16.2
				c0,4-0.5,7.9-1.6,11.7c-1.1,3.8-3.1,7.7-6,11.7c-3,4-7,8.3-12.1,12.8c-5.1,4.5-11.7,9.5-19.7,14.8c8.3,6.8,15.2,12.9,20.7,18.2
				c5.5,5.3,9.6,9.9,12.2,13.7c7.2,10.3,10.8,21,10.8,32.1c0,7-1.3,13.7-4,20c-2.7,6.3-6.5,11.8-11.4,16.5
				c-4.9,4.7-10.8,8.4-17.7,11.2c-6.9,2.8-14.5,4.1-22.8,4.1c-8,0-15.4-1.3-22-4c-6.7-2.7-12.4-6.3-17.3-10.9
				c-4.9-4.6-8.6-9.9-11.3-15.8c-2.7-6-4-12.3-4-19c0-9.1,2.9-18,8.6-26.9C7883.1,4690,7892.8,4680.3,7906.6,4669.7z M7913.4,4675.5
				c-8,7-13.9,14.6-17.5,22.8c-3.7,8.2-5.5,17.1-5.5,26.8c0,6.4,0.9,12.2,2.6,17.4c1.8,5.2,4.2,9.7,7.3,13.4
				c3.1,3.7,6.8,6.6,11.1,8.6c4.3,2,9,3,14.2,3c5.1,0,9.7-0.8,13.8-2.5c4.1-1.6,7.7-3.9,10.7-6.7c3-2.8,5.2-6.1,6.9-9.9
				c1.6-3.8,2.4-7.8,2.4-12.2c0-4.6-0.9-9.1-2.6-13.4c-1.8-4.3-4.5-8.8-8.1-13.5c-3.7-4.7-8.4-9.8-14.2-15.3
				C7928.5,4688.6,7921.5,4682.4,7913.4,4675.5z M7928.8,4653.9c5.9-5.7,10.6-10.5,14-14.5c3.4-4,6.1-7.7,7.9-11.2
				c1.8-3.4,3-6.8,3.5-10c0.5-3.3,0.7-6.9,0.7-10.9c0-10.6-2.8-18.8-8.3-24.7c-5.6-5.9-13.2-8.8-22.9-8.8c-4.8,0-9.1,0.8-13.1,2.3
				c-3.9,1.6-7.4,3.7-10.2,6.4c-2.9,2.7-5.1,5.8-6.8,9.4c-1.6,3.6-2.4,7.4-2.4,11.4c0,5.2,1.3,10.4,3.8,15.5
				c2.5,5.1,6.1,10.1,10.8,14.8L7928.8,4653.9z"/>
			<path d="M8242.5,4564.6l4.4,69h-4.4c-5.9-20.7-14.2-35.6-25-44.6c-10.8-9.1-23.7-13.6-38.9-13.6c-9.8,0-18.9,2-27.2,5.9
				c-8.3,3.9-15.4,10-21.4,18.2c-6,8.2-10.7,18.5-14,30.8c-3.4,12.4-5.1,26.9-5.1,43.8c0,13.5,1.6,25.8,4.7,36.8
				c3.2,11,7.8,20.4,13.9,28.2c6.1,7.8,13.6,13.8,22.5,18.1c8.9,4.2,19.1,6.4,30.6,6.4c12.1,0,23.1-2.8,32.9-8.5
				c9.4-5.2,19.9-16.4,31.4-33.5l4.4,2.9c-9.7,18-20.9,31.2-33.6,39.6c-12.7,8.4-28,12.6-45.7,12.6c-13.6,0-26.2-2.5-37.6-7.6
				c-11.4-5.1-21.2-12.2-29.4-21.3s-14.7-20-19.3-32.6c-4.6-12.6-7-26.4-7-41.4c0-20.4,4.3-39,12.9-55.8c8.4-17,20.2-30.1,35.2-39.3
				c15.2-9.4,31.6-14.1,49.4-14.1c13.9,0,27.6,3.6,40.9,10.7c3.9,2.2,6.8,3.3,8.4,3.3c3.1,0,5.7-1.3,7.7-4c2-2.7,3.5-6,4.3-10
				H8242.5z"/>
			<path d="M8379.6,4772l-74-170.6v135.5c0,7,0.5,12.5,1.4,16.4c0.9,3.9,2.2,6.9,4,8.8c1.8,1.9,3.9,3.1,6.4,3.6s5.4,0.7,8.6,0.7h6.8
				v5.6h-66.7v-5.6h6.8c3.4,0,6.3-0.3,8.9-0.8c2.5-0.5,4.6-1.8,6.3-3.8c1.7-2,3-5,3.8-8.9c0.8-3.9,1.3-9.3,1.3-16v-132.6
				c0-4.8-0.2-9-0.6-12.6c-0.4-3.6-1.5-6.7-3.3-9.3c-1.8-2.5-4.4-4.5-8-5.8c-3.6-1.3-8.6-2-15.1-2v-5.6h54.2l69.6,158.7l68.4-158.7
				h54.2v5.6h-6.5c-3.5,0-6.5,0.3-9.1,0.9c-2.5,0.6-4.6,1.9-6.3,3.9c-1.7,2-3,5-3.8,8.9c-0.8,3.9-1.3,9.3-1.3,16v132.6
				c0,7,0.5,12.5,1.4,16.4c0.9,3.9,2.2,6.9,4,8.8c1.8,1.9,3.9,3.1,6.4,3.6s5.4,0.7,8.6,0.7h6.5v5.6h-81.4v-5.6h6.8
				c3.4,0,6.3-0.3,8.9-0.9c2.5-0.6,4.7-1.9,6.4-3.9c1.8-2,3.1-4.9,3.9-8.8c0.8-3.9,1.3-9.2,1.3-15.8v-135.5l-73.8,170.6H8379.6z"/>
		</g>
	</g>
	<g id="PARTES-1-8">
	</g>
	<g id="PARTES-1-5">
	</g>
</g>
<g id="MEDIDAS">
</g>
<g id="ELEMENTOS-ADC">
</g>
<g id="TEXTO">
</g>
<g id="SELECTOR-MADERAS">
	<g id="SELECTOR-ELEMENTOS-MADERA">
	</g>
	<g id="SELECTOR-PUERTAS">
	</g>
	<g id="SELECTOR-TRIPLEX">
	</g>
</g>
</svg>
