<?xml version="1.0" encoding="utf-8"?>
<!-- Generator: Adobe Illustrator 26.5.0, SVG Export Plug-In . SVG Version: 6.00 Build 0)  -->
<svg version="1.1" xmlns="http://www.w3.org/2000/svg" xmlns:xlink="http://www.w3.org/1999/xlink" x="0px" y="0px"
	 viewBox="0 0 13638.7 4988.3" style="enable-background:new 0 0 13638.7 4988.3;" xml:space="preserve">
<style type="text/css">
	.st0{fill:#E6E6E6;stroke:#000000;stroke-width:21.4611;stroke-miterlimit:10;}
	.st1{stroke:#000000;stroke-width:15.4863;stroke-miterlimit:10;}
	.st2{fill:#F7F7F7;stroke:#000000;stroke-width:27.1981;stroke-miterlimit:10;}
	.st3{fill:#E6E6E6;stroke:#000000;stroke-width:41.9358;stroke-miterlimit:10;}
	.st4{fill:#FFFFFF;}
	.st5{fill:none;stroke:#000000;stroke-width:52.695;stroke-miterlimit:10;}
	.st6{fill:none;stroke:#000000;stroke-width:37.6393;stroke-miterlimit:10;}
	.st7{fill:none;stroke:#000000;stroke-width:45.1672;stroke-miterlimit:10;}
	.st8{fill:none;stroke:#000000;stroke-width:41.9358;stroke-miterlimit:10;}
</style>
<g id="ELEMENTOS">
	<g id="PARTES-7">
		<g id="TRIPLEX">
			<g>
				<polyline class="st0" points="3673.8,934.3 3877.7,798.2 12526.2,833.2 12447.2,1008.2 				"/>
				<polygon class="st0" points="12415.9,4255.7 3661,4204.8 3681,943.8 12446.7,999.5 				"/>
				<polygon class="st0" points="12488.8,4187.6 12421.1,4260.8 12452.5,1003.5 12517,849.6 				"/>
			</g>
		</g>
		<g>
			<g>
				<g>
					<polygon class="st1" points="3849.5,4366 3736.4,4404.2 3843.3,4450.3 					"/>
					<polygon class="st1" points="12259.8,4479.9 12371.2,4437.2 12262.5,4395.5 					"/>
					<line class="st2" x1="3823.3" y1="4406" x2="12292.7" y2="4434.2"/>
				</g>
				<g>
					<polygon class="st1" points="12724.4,1009.6 12679.1,899.1 12639.9,1008.8 					"/>
					<polygon class="st1" points="12611.2,4099.2 12653.3,4210.9 12695.7,4102.4 					"/>
					<line class="st2" x1="12684.5" y1="921.2" x2="12654" y2="4190.2"/>
					<g>
						<path d="M12764.1,2413l48.9-23.9h4.9v169.7c0,5.9,0.1,10.5,0.2,13.8c0.1,3.3,0.5,5.9,1.1,7.6c0.6,1.8,1.3,3,2.2,3.8
							c0.9,0.7,2.1,1.5,3.8,2.2c2.9,1.6,9,2.4,18.1,2.4v5.5h-75.7v-5.5c4.9,0,8.8-0.2,11.7-0.7c2.9-0.4,5.2-1,6.9-1.7
							c1.6-0.7,2.8-1.5,3.7-2.5c0.8-1,1.4-2.1,1.9-3.3c1-2.2,1.5-9.4,1.5-21.7v-108.6c0-8.6-0.2-15.3-0.6-20.2
							c-0.4-4.9-1-8.6-1.9-11c-0.9-2.4-2.1-3.9-3.5-4.5c-1.5-0.7-3.4-1-5.8-1c-4.1,0-9.2,1.3-15.3,4L12764.1,2413z"/>
						<path d="M13019.4,2555.4l-14.2,38.7h-118.6v-5.5c34.4-32.6,58.9-58.5,73.7-77.9c14.3-20.1,21.5-38.5,21.5-55.3
							c0-6.3-1.1-12.2-3.2-17.6c-2.1-5.4-5-10-8.6-13.8c-3.6-3.8-7.8-6.9-12.6-9.1c-4.8-2.2-9.9-3.3-15.4-3.3
							c-9.9,0-18.7,2.9-26.5,8.6c-7.8,5.8-13.6,14.2-17.5,25.4h-5.3c2.5-18.4,8.8-32.5,18.9-42.1c10.1-9.7,22.9-14.5,38.4-14.5
							c8.1,0,15.7,1.4,22.7,4.3c7,2.9,13.1,6.7,18.1,11.6c5.1,4.9,9.1,10.5,12.1,16.8c2.9,6.3,4.4,13,4.4,19.9
							c0,10.2-1.8,19.5-5.4,28.1c-3.6,8.6-7.3,15.5-11.1,20.9c-3.8,5.4-9.2,12.6-16.3,21.6c-13.4,15-24.2,26.8-32.2,35.4
							c-8,8.6-16,16.6-24,24.1h52.4c6.6,0,12.2-0.1,16.8-0.4c4.6-0.3,8.4-1,11.6-2.1c3.2-1.1,5.9-2.8,8.1-5c2.2-2.2,4.4-5.2,6.6-8.8
							H13019.4z"/>
						<path d="M13290.6,2388.6l4.6,68.4h-4.6c-6.2-20.5-14.9-35.2-26.2-44.2c-11.3-9-24.9-13.5-40.8-13.5c-10.3,0-19.8,2-28.5,5.9
							c-8.7,3.9-16.2,9.9-22.5,18c-6.3,8.1-11.2,18.3-14.7,30.5c-3.5,12.2-5.3,26.7-5.3,43.4c0,13.4,1.7,25.6,5,36.5
							c3.3,10.9,8.2,20.2,14.6,28c6.4,7.7,14.3,13.7,23.6,17.9c9.3,4.2,20,6.3,32.1,6.3c12.7,0,24.2-2.8,34.5-8.4
							c9.9-5.2,20.9-16.2,33-33.2l4.6,2.9c-10.2,17.8-21.9,30.9-35.3,39.3c-13.3,8.3-29.3,12.5-47.9,12.5c-14.3,0-27.4-2.5-39.4-7.5
							c-11.9-5-22.2-12.1-30.9-21.1c-8.6-9.1-15.4-19.8-20.2-32.3c-4.9-12.5-7.3-26.1-7.3-41c0-20.2,4.5-38.6,13.5-55.3
							c8.8-16.8,21.2-29.8,36.9-38.9c15.9-9.3,33.2-13.9,51.8-13.9c14.6,0,28.9,3.5,42.9,10.6c4.1,2.2,7.1,3.3,8.8,3.3
							c3.2,0,5.9-1.3,8.1-4c2.1-2.7,3.7-6,4.5-10H13290.6z"/>
						<path d="M13434.4,2594.2l-77.6-169v134.3c0,6.9,0.5,12.4,1.4,16.3c1,3.9,2.4,6.8,4.2,8.7c1.8,1.9,4.1,3.1,6.7,3.5
							c2.7,0.4,5.7,0.7,9.1,0.7h7.1v5.5h-69.9v-5.5h7.1c3.5,0,6.6-0.3,9.3-0.8c2.7-0.5,4.9-1.8,6.6-3.8c1.8-2,3.1-4.9,4-8.8
							c0.9-3.9,1.3-9.2,1.3-15.8V2428c0-4.7-0.2-8.9-0.7-12.5c-0.4-3.6-1.6-6.7-3.4-9.2c-1.8-2.5-4.6-4.4-8.4-5.8s-9-2-15.8-2v-5.5
							h56.9l73,157.3l71.7-157.3h56.9v5.5h-6.9c-3.7,0-6.9,0.3-9.5,0.9c-2.7,0.6-4.9,1.9-6.6,3.9c-1.8,2-3.1,4.9-4,8.8
							c-0.9,3.9-1.3,9.2-1.3,15.8v131.4c0,6.9,0.5,12.4,1.4,16.3c1,3.9,2.4,6.8,4.2,8.7c1.8,1.9,4.1,3.1,6.7,3.5s5.7,0.7,9.1,0.7
							h6.9v5.5h-85.4v-5.5h7.1c3.5,0,6.6-0.3,9.3-0.9c2.7-0.6,4.9-1.9,6.7-3.9c1.8-2,3.2-4.9,4.1-8.7c0.9-3.8,1.3-9.1,1.3-15.7
							v-134.3l-77.4,169H13434.4z"/>
					</g>
					<g>
						<path d="M7794.2,4678.1v21.9h-28.1v55.3h-25.6V4700h-88.6v-19.8l97.2-138.4h17v136.3H7794.2z M7740.5,4678.1v-103.8
							l-73.4,103.8H7740.5z"/>
						<path d="M7816.5,4651.9c0-24.1,3.5-44.6,10.6-61.5c6.4-15.2,14.8-27.1,25-35.7c10.2-8.6,21.1-12.9,32.6-12.9
							c9.2,0,17.8,2.7,25.9,8.1c8.1,5.4,15.2,12.9,21.3,22.4c6.1,9.6,11,20.9,14.5,34c3.5,13,5.3,27.2,5.3,42.4
							c0,24.3-3.5,44.9-10.4,61.9c-3.5,8.3-7.6,15.5-12.2,21.6c-4.6,6.1-9.4,11.2-14.5,15.1c-5.1,3.9-10.3,6.8-15.8,8.7
							c-5.5,1.9-10.7,2.9-15.8,2.9c-9.1,0-17.6-2.7-25.7-8.1c-8.1-5.4-15.1-12.9-21.2-22.4c-6.1-9.6-10.9-20.9-14.4-34
							C7818.3,4681.4,7816.5,4667.2,7816.5,4651.9z M7846.7,4655.8c0,12.7,0.7,24.8,2.2,36.1c1.5,11.4,3.7,21.3,6.7,29.8
							c3,8.5,6.8,15.2,11.4,20.1c4.6,4.9,10.1,7.4,16.6,7.4c6,0,11.3-2,16-6.1c4.7-4.1,8.6-10.4,11.9-19.1
							c3.2-8.7,5.7-19.8,7.5-33.4c1.8-13.6,2.6-29.8,2.6-48.7c0-13.5-0.8-25.8-2.3-37c-1.5-11.1-3.9-20.6-7-28.4
							c-3.1-7.8-7-13.9-11.6-18.2c-4.6-4.3-10-6.4-16.1-6.4c-6.9,0-12.7,2.8-17.5,8.3c-4.8,5.5-8.6,13-11.6,22.6
							c-3,9.5-5.2,20.6-6.6,33.2C7847.4,4628.5,7846.7,4641.8,7846.7,4655.8z"/>
						<path d="M8232,4541.4l4.8,71.1h-4.8c-6.4-21.3-15.5-36.7-27.3-46c-11.7-9.4-25.9-14-42.5-14c-10.7,0-20.6,2-29.7,6.1
							c-9.1,4.1-16.8,10.3-23.4,18.8c-6.5,8.4-11.6,19-15.3,31.8c-3.7,12.7-5.5,27.8-5.5,45.1c0,14,1.7,26.6,5.2,38
							c3.5,11.4,8.5,21.1,15.2,29.1c6.7,8.1,14.8,14.3,24.5,18.6c9.7,4.4,20.8,6.6,33.4,6.6c13.2,0,25.2-2.9,35.9-8.7
							c10.3-5.4,21.7-16.9,34.3-34.5l4.8,3c-10.6,18.6-22.8,32.2-36.7,40.9c-13.9,8.7-30.5,13-49.8,13c-14.9,0-28.5-2.6-41-7.8
							c-12.4-5.2-23.1-12.5-32.1-22s-16-20.6-21.1-33.6c-5.1-13-7.6-27.2-7.6-42.7c0-21,4.7-40.2,14-57.6c9.2-17.5,22-31,38.4-40.5
							c16.6-9.7,34.5-14.5,53.9-14.5c15.2,0,30.1,3.7,44.7,11.1c4.3,2.3,7.4,3.5,9.2,3.5c3.4,0,6.2-1.4,8.4-4.1
							c2.2-2.8,3.8-6.2,4.7-10.4H8232z"/>
						<path d="M8381.7,4755.2l-80.8-175.9v139.7c0,7.2,0.5,12.9,1.5,16.9c1,4.1,2.5,7.1,4.4,9.1c1.9,2,4.3,3.2,7,3.7
							c2.8,0.5,5.9,0.7,9.4,0.7h7.4v5.8h-72.7v-5.8h7.4c3.7,0,6.9-0.3,9.7-0.8c2.8-0.5,5.1-1.8,6.9-3.9c1.8-2.1,3.2-5.1,4.1-9.2
							c0.9-4.1,1.4-9.6,1.4-16.5v-136.8c0-4.9-0.2-9.2-0.7-13c-0.5-3.8-1.7-6.9-3.6-9.6c-1.9-2.6-4.8-4.6-8.7-6
							c-3.9-1.4-9.4-2.1-16.5-2.1v-5.8h59.2l76,163.7l74.6-163.7h59.2v5.8h-7.1c-3.8,0-7.1,0.3-9.9,0.9c-2.8,0.6-5.1,2-6.9,4
							c-1.8,2.1-3.2,5.1-4.1,9.2c-0.9,4.1-1.4,9.6-1.4,16.5v136.8c0,7.2,0.5,12.9,1.5,16.9c1,4.1,2.5,7.1,4.4,9.1
							c1.9,2,4.3,3.2,7,3.7c2.8,0.5,5.9,0.7,9.4,0.7h7.1v5.8h-88.9v-5.8h7.4c3.7,0,6.9-0.3,9.7-0.9c2.8-0.6,5.1-2,7-4
							c1.9-2.1,3.3-5.1,4.3-9.1c0.9-4,1.4-9.4,1.4-16.3v-139.7l-80.6,175.9H8381.7z"/>
					</g>
					<g>
						<path d="M6044,2811.7l7,1.3l-24.7,78.1h-222.5v-7.9h11.1c11.8,0,20.4-3.9,25.9-11.7c2.9-4.6,4.4-15.1,4.4-31.3v-185.5
							c0-17.7-2-28.9-6-33.5c-5.5-6.3-13.6-9.5-24.3-9.5h-11.1v-7.9H5934v7.9c-7.8,0-14.3,0.4-19.4,1.1c-5.2,0.7-9.4,1.8-12.8,3.2
							c-3.4,1.4-6,3-7.9,4.9c-1.9,1.9-3.5,4-4.7,6.3c-2.1,4.2-3.2,15.1-3.2,32.6v180.5c0,9.9,0.7,17.1,2.2,21.5
							c1.5,4.4,4.4,7.5,8.9,9.2c3.8,1.3,14.9,1.9,33.2,1.9h20.9c22.1,0,37.6-1.6,46.5-4.7c4.4-1.5,8.6-3.6,12.6-6.3
							c4-2.7,7.9-6.3,11.7-10.7c3.8-4.4,7.5-9.8,11.1-16.1C6036.5,2828.4,6040.2,2820.8,6044,2811.7z"/>
						<path d="M6150.8,2619.5V2733h62.9c9.3,0,16.8-0.8,22.4-2.5c5.7-1.7,10.2-4.2,13.4-7.6c3.3-3.4,5.5-7.7,6.8-13
							c1.3-5.3,2.1-11.5,2.5-18.6h7.9v99.9h-7.9c-1.1-8.2-2.3-15.1-3.6-20.5c-1.4-5.5-3.6-9.8-6.6-13.1c-3.1-3.3-7.3-5.6-12.8-7
							c-5.5-1.4-12.9-2.1-22.1-2.1h-62.9v94.8c0,7.2,0.1,12.9,0.3,17.1c0.2,4.2,1.1,7.4,2.5,9.6c1.5,2.2,3.8,3.6,7,4.3
							c3.2,0.6,7.8,0.9,13.9,0.9h48.7c8.2,0,15.2-0.2,20.9-0.6c5.7-0.4,10.6-1.3,14.7-2.5c4.1-1.3,7.7-3,10.9-5.2
							c3.2-2.2,6.5-5,10.1-8.4c8.4-8.2,17.4-21.4,26.9-39.5h8.5l-25,72.1h-221.3v-7.9h10.1c2.7,0,5.6-0.3,8.5-0.9
							c2.9-0.6,5.7-1.5,8.4-2.7c2.6-1.2,5-2.7,7.1-4.6c2.1-1.9,3.6-4.1,4.4-6.6c1.7-4.6,2.5-13.9,2.5-27.8V2654
							c0-18.3-1.8-29.6-5.4-33.8c-5.1-5.7-13.6-8.5-25.6-8.5h-10.1v-7.9h221.3v62.9h-5.1c-2.1-10.3-4.4-18.6-6.8-24.8
							c-2.4-6.2-5.6-11-9.6-14.4c-4-3.4-9.1-5.5-15.3-6.5c-6.2-0.9-14.2-1.4-23.9-1.4H6150.8z"/>
						<path d="M6413.8,2619.5v112.8h52.2c6.1,0,11.3-0.6,15.6-1.7c4.3-1.2,8-3.2,10.9-6.2c2.9-2.9,5.3-7,7-12
							c1.7-5.1,3.1-11.5,4.1-19.3h7.9v97h-7.9c-0.2-7.2-0.9-13.3-2.2-18.3c-1.3-5.1-3.3-9.2-6.2-12.5c-2.8-3.3-6.6-5.6-11.4-7.1
							c-4.7-1.5-10.7-2.2-17.9-2.2h-52.2v90.1c0,6.7,0.1,12.2,0.3,16.4c0.2,4.2,0.7,7.7,1.6,10.4c0.8,2.7,2.1,4.9,3.6,6.5
							c1.6,1.6,3.6,3.1,6.2,4.6c5.9,3.4,12.3,5.1,19.3,5.1h10.4v7.9h-123.3v-7.9h10.1c5.1,0,9.5-0.4,13.4-1.1
							c3.9-0.7,7.1-2.5,9.6-5.4c2.5-2.8,4.5-7.2,5.8-13c1.4-5.8,2.1-13.6,2.1-23.5v-185.5c0-6.5-0.2-12-0.5-16.3
							c-0.3-4.3-0.8-7.8-1.6-10.6c-0.7-2.7-1.8-4.9-3.3-6.6c-1.5-1.7-3.5-3.2-6-4.4c-3.2-1.7-6.3-2.9-9.5-3.8
							c-3.2-0.8-6.5-1.3-10.1-1.3h-10.1v-7.9h213.7v63.2h-4.7c-2.7-10.3-5.8-18.6-9.3-24.8c-3.5-6.2-7.7-11-12.6-14.4
							c-5-3.4-10.8-5.6-17.5-6.6c-6.7-1.1-14.9-1.6-24.3-1.6H6413.8z"/>
						<path d="M6817.1,2603.7v67.6h-4.7c-2.3-18.1-7.6-30.9-16-38.4c-8.3-7.5-20.6-11.2-36.8-11.2h-40.5v219.7
							c0,9.7,0.7,17.3,2.1,22.9c1.4,5.6,3.3,9.7,5.8,12.5c2.5,2.7,5.7,4.5,9.5,5.2c3.8,0.7,8.2,1.1,13.3,1.1h9.8v7.9h-121.7v-7.9
							h10.1c5.1,0,9.5-0.4,13.3-1.3c3.8-0.8,7-2.7,9.5-5.5c2.5-2.8,4.5-7,5.8-12.5c1.4-5.5,2.1-13,2.1-22.4v-219.7h-34.5
							c-8.6,0-16.3,0.7-22.9,2.1c-6.6,1.4-12.4,3.9-17.2,7.6c-4.8,3.7-8.7,8.7-11.5,15.2c-2.8,6.4-4.6,14.7-5.2,24.8h-7.9v-67.6
							H6817.1z"/>
						<path d="M7130.4,2597.4v99.3h-7.9c-3.6-26.8-12.3-47.2-26.2-61.3c-13.9-14.1-31.6-21.2-53.1-21.2c-7.4,0-14.1,1.3-20.2,3.8
							c-6.1,2.5-11.5,5.8-16.1,10c-4.6,4.1-8.2,8.8-10.7,14.1c-2.5,5.3-3.8,10.7-3.8,16.4c0,5.3,1.1,10.3,3.2,15
							c2.1,4.7,8.6,12.2,19.6,22.3c18.3,11.6,34.7,21.2,49,28.8c13.5,7.4,31.7,18.5,54.7,33.5c9.9,7.6,17.5,16.6,22.8,27
							c5.3,10.4,7.9,21.3,7.9,32.7c0,10.7-2.2,21-6.6,30.7c-4.4,9.7-10.6,18.2-18.5,25.4c-7.9,7.3-17.4,13.1-28.6,17.4
							c-11.2,4.3-23.4,6.5-36.7,6.5c-8.4,0-16.2-0.6-23.4-1.9c-1.3-0.2-4.6-1.1-10-2.7c-5.4-1.6-11.1-3.2-17.2-4.9
							c-6.1-1.7-11.8-3.3-17.1-4.7c-5.3-1.5-8.3-2.2-9.2-2.2c-3.6,0-6.4,1.1-8.4,3.2c-2,2.1-3.5,6.5-4.6,13.3h-7.9V2799h7.9
							c3.8,20.2,8.7,35.7,14.9,46.5c2.9,5.1,6.9,9.7,11.9,14.1c4.9,4.3,10.5,8.1,16.8,11.4c6.2,3.3,12.9,5.8,20.1,7.6
							c7.2,1.8,14.4,2.7,21.8,2.7c8.9,0,16.8-1.3,23.9-3.8c7.1-2.5,13.1-6,18-10.3c4.9-4.3,8.7-9.3,11.4-15c2.6-5.7,4-11.7,4-18
							c0-7.2-2-14.3-5.8-21.5c-3.9-7.2-10.5-14.2-19.8-21.2c-9.1-5.5-19.8-11.9-32.2-19.3c-23.8-13.7-45-26.9-63.5-39.5
							c-10.3-8.2-18.2-17.2-23.5-27c-5.4-9.8-8.1-20.7-8.1-32.7c0-10.1,2.1-19.8,6.3-28.9c4.2-9.2,10.1-17.2,17.5-24.2
							c7.5-7,16.4-12.4,26.7-16.4c10.3-4,21.5-6,33.5-6c15.2,0,31.3,3.7,48.4,11.1c4,1.7,7.4,3.1,10.1,4.1c2.7,1.1,4.9,1.5,6.6,1.3
							c3.8,0,6.8-1.1,9.2-3.2c2.3-2.1,4.1-6.5,5.4-13.3H7130.4z"/>
						<path d="M7306.5,2883.1v7.9h-123v-7.9h10.1c5.1,0,9.5-0.4,13.4-1.1c3.9-0.7,7.1-2.5,9.6-5.4c2.5-2.8,4.5-7.2,5.8-13
							c1.4-5.8,2.1-13.6,2.1-23.5v-185.5c0-6.5-0.2-12-0.5-16.3c-0.3-4.3-0.8-7.8-1.6-10.6c-0.7-2.7-1.8-4.9-3.3-6.5
							c-1.5-1.6-3.5-3.1-6-4.6c-6.3-3.4-12.9-5.1-19.6-5.1h-10.1v-7.9h123v7.9h-10.1c-5.1,0-9.5,0.4-13.4,1.3
							c-3.9,0.8-7.1,2.7-9.6,5.5c-2.5,2.8-4.5,7.2-5.8,13c-1.4,5.8-2.1,13.5-2.1,23.2v185.5c0,6.7,0.1,12.2,0.3,16.4
							c0.2,4.2,0.7,7.7,1.6,10.4c0.8,2.7,2.1,4.9,3.6,6.5c1.6,1.6,3.6,3.1,6.2,4.6c5.9,3.4,12.3,5.1,19.3,5.1H7306.5z"/>
						<path d="M7324.5,2891v-7.9h11.1c4.8,0,9.2-0.4,13-1.3c3.8-0.8,7-2.7,9.5-5.7c2.5-2.9,4.5-7.3,5.8-13
							c1.4-5.7,2.1-13.4,2.1-23.1v-185.5c0-17.7-2-28.9-6-33.5c-5.5-6.3-13.6-9.5-24.3-9.5h-11.1v-7.9h117c42.6,0,75.2,5,98,14.9
							c22.5,9.9,40.6,26.1,54.1,48.7c13.7,23,20.5,49.2,20.5,78.7c0,21.3-3.4,40.8-10.3,58.5c-6.9,17.7-17.1,33-30.7,45.8
							c-13.6,12.9-30.4,22.9-50.4,30c-20,7.2-43.3,10.7-69.9,10.7H7324.5z M7406.7,2870.2c17.5,4,32.4,6,44.9,6
							c16.2,0,31.3-3,45.2-9c13.9-6,26-14.5,36.2-25.6c10.2-11.1,18.2-24.5,24-40.3c5.8-15.8,8.7-33.5,8.7-53.1
							c0-19.8-2.8-37.7-8.5-53.6c-5.7-15.9-13.7-29.4-24-40.5c-10.3-11.1-22.6-19.5-36.7-25.4c-14.1-5.9-29.6-8.9-46.5-8.9
							c-12.4,0-26.9,2.1-43.3,6.3V2870.2z"/>
						<path d="M7721.2,2619.5V2733h62.9c9.3,0,16.8-0.8,22.4-2.5c5.7-1.7,10.2-4.2,13.4-7.6c3.3-3.4,5.5-7.7,6.8-13
							c1.3-5.3,2.1-11.5,2.5-18.6h7.9v99.9h-7.9c-1.1-8.2-2.3-15.1-3.6-20.5c-1.4-5.5-3.6-9.8-6.6-13.1c-3.1-3.3-7.3-5.6-12.8-7
							c-5.5-1.4-12.9-2.1-22.1-2.1h-62.9v94.8c0,7.2,0.1,12.9,0.3,17.1c0.2,4.2,1.1,7.4,2.5,9.6c1.5,2.2,3.8,3.6,7,4.3
							c3.2,0.6,7.8,0.9,13.9,0.9h48.7c8.2,0,15.2-0.2,20.9-0.6c5.7-0.4,10.6-1.3,14.7-2.5c4.1-1.3,7.7-3,10.9-5.2
							c3.2-2.2,6.5-5,10.1-8.4c8.4-8.2,17.4-21.4,26.9-39.5h8.5l-25,72.1h-221.3v-7.9h10.1c2.7,0,5.6-0.3,8.5-0.9
							c2.9-0.6,5.7-1.5,8.4-2.7c2.6-1.2,5-2.7,7.1-4.6c2.1-1.9,3.6-4.1,4.4-6.6c1.7-4.6,2.5-13.9,2.5-27.8V2654
							c0-18.3-1.8-29.6-5.4-33.8c-5.1-5.7-13.6-8.5-25.6-8.5h-10.1v-7.9h221.3v62.9h-5.1c-2.1-10.3-4.4-18.6-6.8-24.8
							c-2.4-6.2-5.6-11-9.6-14.4c-4-3.4-9.1-5.5-15.3-6.5c-6.2-0.9-14.2-1.4-23.9-1.4H7721.2z"/>
						<path d="M8017,2589.8L7913,2897H7896l104-307.2H8017z"/>
						<path d="M8308.8,2891h-76.5l-97.4-134.3c-3.6,0.2-6.8,0.4-9.6,0.5c-2.8,0.1-5.4,0.2-7.7,0.2c-1.9,0-3.9,0-6-0.2
							c-2.1-0.1-4.3-0.3-6.6-0.5v83.4c0,10.1,0.7,18.1,2.1,23.9c1.4,5.8,3.4,10.1,6,13c2.6,2.8,5.8,4.6,9.5,5.2
							c3.7,0.6,7.8,0.9,12.5,0.9h11.4v7.9H8023v-7.9h11.1c11.8,0,20.4-3.9,25.9-11.7c2.9-4.6,4.4-15.1,4.4-31.3v-185.5
							c0-17.7-2-28.9-6-33.5c-5.5-6.3-13.6-9.5-24.3-9.5H8023v-7.9h104.6c15.4,0,28.7,0.6,39.8,1.7c11.2,1.2,20.3,2.9,27.5,5.2
							c7.2,2.3,13.9,5.5,20.2,9.6c6.3,4.1,11.9,9.1,16.6,14.9c4.7,5.8,8.5,12.3,11.2,19.4c2.7,7.2,4.1,14.9,4.1,23.1
							c0,17.9-5.7,33.3-17.1,46.2c-11.4,12.9-29.2,22-53.4,27.5l59.1,82.2c7,9.5,13.1,17.3,18.5,23.4c5.4,6.1,10.7,11,16.1,14.5
							c5.4,3.6,11.1,6.2,17.1,7.9c6,1.7,13.1,3,21.3,3.8V2891z M8104.9,2743.4c2.7,0,5.1,0.1,7.1,0.2c2,0.1,3.6,0.2,4.9,0.2
							c13.7,0,25.7-1.6,36-4.7c10.3-3.2,19-7.6,25.9-13.3c7-5.7,12.2-12.4,15.6-20.1c3.5-7.7,5.2-16.1,5.2-25.1
							c0-8.9-1.5-17-4.4-24.5c-3-7.5-7.2-13.9-12.6-19.3c-5.5-5.4-12-9.5-19.6-12.5c-7.6-2.9-15.9-4.4-25-4.4
							c-8.6,0-19.7,1.4-33.2,4.1V2743.4z"/>
						<path d="M8438.7,2883.1v7.9h-123v-7.9h10.1c5.1,0,9.5-0.4,13.4-1.1c3.9-0.7,7.1-2.5,9.6-5.4c2.5-2.8,4.5-7.2,5.8-13
							c1.4-5.8,2.1-13.6,2.1-23.5v-185.5c0-6.5-0.2-12-0.5-16.3c-0.3-4.3-0.8-7.8-1.6-10.6c-0.7-2.7-1.8-4.9-3.3-6.5
							c-1.5-1.6-3.5-3.1-6-4.6c-6.3-3.4-12.9-5.1-19.6-5.1h-10.1v-7.9h123v7.9h-10.1c-5.1,0-9.5,0.4-13.4,1.3
							c-3.9,0.8-7.1,2.7-9.6,5.5s-4.5,7.2-5.8,13c-1.4,5.8-2.1,13.5-2.1,23.2v185.5c0,6.7,0.1,12.2,0.3,16.4
							c0.2,4.2,0.7,7.7,1.6,10.4c0.8,2.7,2.1,4.9,3.6,6.5c1.6,1.6,3.6,3.1,6.2,4.6c5.9,3.4,12.3,5.1,19.3,5.1H8438.7z"/>
						<path d="M8715.6,2597.4l7.6,90.4h-7.6c-8.6-26.6-20.9-45.8-36.8-57.7c-15.9-11.9-35.2-17.9-58-17.9c-16.9,0-31.9,3.3-45.2,10
							c-13.3,6.6-24.6,15.8-33.8,27.5c-9.3,11.7-16.3,25.5-21.2,41.4c-4.8,15.9-7.3,33.1-7.3,51.7c0,27.2,5.4,52.2,16.1,74.9
							c5.3,11.4,11.4,21.2,18.5,29.4c7.1,8.2,14.7,15,22.9,20.4c8.2,5.4,16.8,9.3,25.8,11.9c9,2.5,18,3.8,27,3.8
							c21.1,0,40.9-5.3,59.4-15.8v-83.1c0-7.2-0.3-13-0.8-17.5c-0.5-4.5-1.4-8.1-2.5-10.7c-1.2-2.6-2.6-4.6-4.3-6
							c-1.7-1.4-3.7-2.7-6-4c-4.6-2.3-12.6-3.5-24-3.5v-8.2h111.3v8.2h-5.4c-4.9,0-9,0.5-12.3,1.6c-3.4,1.1-6.2,3.1-8.4,6
							c-2.2,3-3.8,7.2-4.7,12.6c-0.9,5.5-1.4,12.6-1.4,21.5v87.9c-8.2,4.4-16.3,8.3-24.2,11.5c-7.9,3.3-15.9,5.8-23.9,7.7
							c-16.4,4.2-34,6.3-52.8,6.3c-24,0-45.8-3.7-65.3-11.1c-19.5-7.4-36.2-17.6-50.1-30.7c-13.9-13.1-24.7-28.4-32.2-46.2
							s-11.4-37-11.4-57.8c0-25.1,6.1-49.3,18.3-72.7c14.1-27.4,33.8-48.6,59.1-63.5c21.1-12.2,45.9-18.3,74.6-18.3
							c5.7,0,10.7,0.2,15.2,0.5c4.4,0.3,9,0.9,13.8,1.9c4.7,0.9,9.9,2.3,15.5,4.1c5.6,1.8,12.4,4.2,20.4,7.1
							c8,3.2,13.4,4.6,16.1,4.4c2.5,0,4.7-1.2,6.6-3.6c1.9-2.4,3.1-7.2,3.5-14.4H8715.6z"/>
						<path d="M8851.9,2737.1h133.4v-82.2c0-6.7-0.1-12.3-0.3-16.6c-0.2-4.3-0.7-7.8-1.6-10.6c-0.8-2.7-2.1-4.9-3.6-6.5
							c-1.6-1.6-3.6-3.1-6.2-4.6c-5.9-3.4-12.3-5.1-19.3-5.1h-10.1v-7.9h123v7.9H9057c-2.7,0-5.6,0.3-8.7,0.9
							c-3.1,0.6-5.9,1.6-8.5,2.8c-2.6,1.3-5,2.8-7.1,4.7c-2.1,1.9-3.6,4.1-4.4,6.6c-1.5,4.4-2.2,13.8-2.2,28.1v185.2
							c0,6.7,0.2,12.2,0.5,16.4c0.3,4.2,0.8,7.7,1.6,10.4c0.7,2.7,1.8,4.9,3.3,6.5c1.5,1.6,3.5,3.1,6,4.6c5.9,3.4,12.4,5.1,19.6,5.1
							h10.1v7.9h-123v-7.9h10.1c4.8,0,9.2-0.4,13-1.1c3.8-0.7,7.1-2.5,9.8-5.4c2.7-2.8,4.8-7.2,6.2-13c1.4-5.8,2.1-13.6,2.1-23.5
							v-87.6h-133.4v87.6c0,6.7,0.1,12.2,0.3,16.4c0.2,4.2,0.7,7.7,1.6,10.4c0.8,2.7,2.1,4.9,3.6,6.5c1.6,1.6,3.6,3.1,6.2,4.6
							c5.9,3.4,12.3,5.1,19.3,5.1h10.4v7.9H8770v-7.9h10.4c11.6,0,20.1-3.5,25.6-10.4c3.4-4.2,5.1-15.1,5.1-32.6v-185.2
							c0-7-0.1-12.6-0.3-16.9c-0.2-4.3-0.7-7.8-1.6-10.4c-0.8-2.6-2-4.7-3.5-6.3c-1.5-1.6-3.5-3.1-6-4.6c-5.9-3.4-12.3-5.1-19.3-5.1
							H8770v-7.9h123.3v7.9h-10.4c-2.5,0-5.3,0.3-8.4,0.9c-3.1,0.6-5.9,1.6-8.5,2.8c-2.6,1.3-5,2.8-7.1,4.7
							c-2.1,1.9-3.6,4.1-4.4,6.6c-1.7,5.1-2.5,14.4-2.5,28.1V2737.1z"/>
						<path d="M9326.9,2603.7v67.6h-4.7c-2.3-18.1-7.6-30.9-16-38.4c-8.3-7.5-20.6-11.2-36.8-11.2H9229v219.7
							c0,9.7,0.7,17.3,2.1,22.9c1.4,5.6,3.3,9.7,5.8,12.5c2.5,2.7,5.7,4.5,9.5,5.2c3.8,0.7,8.2,1.1,13.3,1.1h9.8v7.9h-121.7v-7.9
							h10.1c5.1,0,9.5-0.4,13.3-1.3c3.8-0.8,7-2.7,9.5-5.5c2.5-2.8,4.5-7,5.8-12.5c1.4-5.5,2.1-13,2.1-22.4v-219.7H9154
							c-8.6,0-16.3,0.7-22.9,2.1c-6.6,1.4-12.4,3.9-17.2,7.6c-4.8,3.7-8.7,8.7-11.5,15.2c-2.8,6.4-4.6,14.7-5.2,24.8h-7.9v-67.6
							H9326.9z"/>
						<path d="M9640.2,2597.4v99.3h-7.9c-3.6-26.8-12.3-47.2-26.2-61.3c-13.9-14.1-31.6-21.2-53.1-21.2c-7.4,0-14.1,1.3-20.2,3.8
							c-6.1,2.5-11.5,5.8-16.1,10c-4.6,4.1-8.2,8.8-10.7,14.1c-2.5,5.3-3.8,10.7-3.8,16.4c0,5.3,1.1,10.3,3.2,15
							c2.1,4.7,8.6,12.2,19.6,22.3c18.3,11.6,34.7,21.2,49,28.8c13.5,7.4,31.7,18.5,54.7,33.5c9.9,7.6,17.5,16.6,22.8,27
							c5.3,10.4,7.9,21.3,7.9,32.7c0,10.7-2.2,21-6.6,30.7c-4.4,9.7-10.6,18.2-18.5,25.4c-7.9,7.3-17.4,13.1-28.6,17.4
							c-11.2,4.3-23.4,6.5-36.7,6.5c-8.4,0-16.2-0.6-23.4-1.9c-1.3-0.2-4.6-1.1-10-2.7c-5.4-1.6-11.1-3.2-17.2-4.9
							c-6.1-1.7-11.8-3.3-17.1-4.7c-5.3-1.5-8.3-2.2-9.2-2.2c-3.6,0-6.4,1.1-8.4,3.2c-2,2.1-3.5,6.5-4.6,13.3h-7.9V2799h7.9
							c3.8,20.2,8.7,35.7,14.9,46.5c2.9,5.1,6.9,9.7,11.9,14.1c4.9,4.3,10.5,8.1,16.8,11.4c6.2,3.3,12.9,5.8,20.1,7.6
							c7.2,1.8,14.4,2.7,21.8,2.7c8.9,0,16.8-1.3,23.9-3.8c7.1-2.5,13.1-6,18-10.3c4.9-4.3,8.7-9.3,11.4-15c2.6-5.7,4-11.7,4-18
							c0-7.2-2-14.3-5.8-21.5c-3.9-7.2-10.5-14.2-19.8-21.2c-9.1-5.5-19.8-11.9-32.2-19.3c-23.8-13.7-45-26.9-63.5-39.5
							c-10.3-8.2-18.2-17.2-23.5-27c-5.4-9.8-8.1-20.7-8.1-32.7c0-10.1,2.1-19.8,6.3-28.9c4.2-9.2,10.1-17.2,17.5-24.2
							c7.5-7,16.4-12.4,26.7-16.4c10.3-4,21.5-6,33.5-6c15.2,0,31.3,3.7,48.4,11.1c4,1.7,7.4,3.1,10.1,4.1c2.7,1.1,4.9,1.5,6.6,1.3
							c3.8,0,6.8-1.1,9.2-3.2c2.3-2.1,4.1-6.5,5.4-13.3H9640.2z"/>
						<path d="M9816.3,2883.1v7.9h-123v-7.9h10.1c5.1,0,9.5-0.4,13.4-1.1c3.9-0.7,7.1-2.5,9.6-5.4c2.5-2.8,4.5-7.2,5.8-13
							c1.4-5.8,2.1-13.6,2.1-23.5v-185.5c0-6.5-0.2-12-0.5-16.3c-0.3-4.3-0.8-7.8-1.6-10.6c-0.7-2.7-1.8-4.9-3.3-6.5
							c-1.5-1.6-3.5-3.1-6-4.6c-6.3-3.4-12.9-5.1-19.6-5.1h-10.1v-7.9h123v7.9h-10.1c-5.1,0-9.5,0.4-13.4,1.3
							c-3.9,0.8-7.1,2.7-9.6,5.5c-2.5,2.8-4.5,7.2-5.8,13c-1.4,5.8-2.1,13.5-2.1,23.2v185.5c0,6.7,0.1,12.2,0.3,16.4
							c0.2,4.2,0.7,7.7,1.6,10.4c0.8,2.7,2.1,4.9,3.6,6.5c1.6,1.6,3.6,3.1,6.2,4.6c5.9,3.4,12.3,5.1,19.3,5.1H9816.3z"/>
						<path d="M9834.3,2891v-7.9h11.1c4.8,0,9.2-0.4,13-1.3c3.8-0.8,7-2.7,9.5-5.7c2.5-2.9,4.5-7.3,5.8-13
							c1.4-5.7,2.1-13.4,2.1-23.1v-185.5c0-17.7-2-28.9-6-33.5c-5.5-6.3-13.6-9.5-24.3-9.5h-11.1v-7.9h117c42.6,0,75.2,5,98,14.9
							c22.5,9.9,40.6,26.1,54.1,48.7c13.7,23,20.5,49.2,20.5,78.7c0,21.3-3.4,40.8-10.3,58.5c-6.9,17.7-17.1,33-30.7,45.8
							c-13.6,12.9-30.4,22.9-50.4,30c-20,7.2-43.3,10.7-69.9,10.7H9834.3z M9916.5,2870.2c17.5,4,32.5,6,44.9,6
							c16.2,0,31.3-3,45.2-9c13.9-6,26-14.5,36.2-25.6c10.2-11.1,18.2-24.5,24-40.3c5.8-15.8,8.7-33.5,8.7-53.1
							c0-19.8-2.8-37.7-8.5-53.6c-5.7-15.9-13.7-29.4-24-40.5c-10.3-11.1-22.6-19.5-36.7-25.4c-14.1-5.9-29.6-8.9-46.5-8.9
							c-12.4,0-26.9,2.1-43.3,6.3V2870.2z"/>
						<path d="M10231,2619.5V2733h62.9c9.3,0,16.8-0.8,22.4-2.5c5.7-1.7,10.2-4.2,13.4-7.6c3.3-3.4,5.5-7.7,6.8-13
							c1.3-5.3,2.1-11.5,2.5-18.6h7.9v99.9h-7.9c-1.1-8.2-2.3-15.1-3.6-20.5c-1.4-5.5-3.6-9.8-6.6-13.1c-3.1-3.3-7.3-5.6-12.8-7
							c-5.5-1.4-12.9-2.1-22.1-2.1h-62.9v94.8c0,7.2,0.1,12.9,0.3,17.1c0.2,4.2,1.1,7.4,2.5,9.6c1.5,2.2,3.8,3.6,7,4.3
							c3.2,0.6,7.8,0.9,13.9,0.9h48.7c8.2,0,15.2-0.2,20.9-0.6c5.7-0.4,10.6-1.3,14.7-2.5c4.1-1.3,7.7-3,10.9-5.2s6.5-5,10.1-8.4
							c8.4-8.2,17.4-21.4,26.9-39.5h8.5l-25,72.1h-221.3v-7.9h10.1c2.7,0,5.6-0.3,8.5-0.9c2.9-0.6,5.7-1.5,8.4-2.7
							c2.6-1.2,5-2.7,7.1-4.6c2.1-1.9,3.6-4.1,4.4-6.6c1.7-4.6,2.5-13.9,2.5-27.8V2654c0-18.3-1.8-29.6-5.4-33.8
							c-5.1-5.7-13.6-8.5-25.6-8.5h-10.1v-7.9h221.3v62.9h-5.1c-2.1-10.3-4.4-18.6-6.8-24.8c-2.4-6.2-5.6-11-9.6-14.4
							c-4-3.4-9.1-5.5-15.3-6.5c-6.2-0.9-14.2-1.4-23.9-1.4H10231z"/>
					</g>
					<g>
						<path d="M7791.2,1964.9v113.3h-7.9c-3.9-30.4-12.8-51.8-26.7-64.3c-14-12.5-34.5-18.8-61.7-18.8h-67.8v368
							c0,16.2,1.1,29,3.4,38.4c2.3,9.4,5.6,16.3,9.8,20.9c4.2,4.6,9.5,7.5,15.9,8.7c6.4,1.2,13.8,1.9,22.2,1.9h16.4v13.2H7491V2433
							h16.9c8.5,0,15.9-0.7,22.2-2.1c6.4-1.4,11.6-4.5,15.9-9.3c4.2-4.8,7.5-11.7,9.8-20.9c2.3-9.2,3.4-21.7,3.4-37.6v-368h-57.7
							c-14.5,0-27.3,1.2-38.4,3.4c-11.1,2.3-20.7,6.5-28.9,12.7c-8.1,6.2-14.6,14.7-19.3,25.4c-4.8,10.8-7.7,24.6-8.7,41.6H7393
							v-113.3H7791.2z"/>
						<path d="M8494.5,1964.9v13.2c-9.5,0-17.4,0.9-23.6,2.6c-6.2,1.8-11.9,5.7-17.2,11.9c-5.3,6.2-10.6,15.4-15.9,27.5
							c-5.3,12.2-11.5,28.5-18.5,49l-134,388.2H8271l-109.6-307.7l-108.6,307.7h-13.2l-143-399.8c-5.3-14.8-9.5-26.6-12.7-35.2
							c-3.2-8.6-5.7-14.4-7.4-17.2c-4.9-9.2-11.4-16-19.3-20.4c-7.9-4.4-19-6.6-33.1-6.6v-13.2H8002v13.2h-8.5
							c-12.4,0-21.9,2.8-28.6,8.5c-6.7,5.7-10.1,12.5-10.1,20.7c0,8.5,5.3,27.5,15.9,57.2l94.8,270.1l79.4-229.8l-25.4-72.5
							c-3.9-8.8-7.8-16.6-11.6-23.3c-3.9-6.7-8.3-12.4-13.2-16.9c-4.9-4.6-10.8-8-17.5-10.3c-6.7-2.3-14.8-3.4-24.4-3.4v-13.2h186.9
							v13.2H8227c-13.4,0-23.1,2.8-29.1,8.5c-6,5.7-9,13.4-9,23.3c0,12,5.3,33,15.9,63l92.1,261.6l91.6-265.3
							c4.9-14.8,8.8-27.2,11.6-37.1c2.8-9.9,4.2-17.8,4.2-23.8c0-11.3-4.9-19.1-14.8-23.6c-9.9-4.4-22.8-6.6-38.7-6.6v-13.2H8494.5z
							"/>
						<path d="M8766.1,1954.3c30.7,0,60,6.4,87.9,19.1c27.9,12.7,52.4,30.2,73.6,52.4c21.2,22.2,38,48.5,50.6,78.6
							c12.5,30.2,18.8,62.9,18.8,98.2c0,36.4-6.3,70.1-18.8,101.1c-12.5,31.1-29.5,58-50.8,80.8c-21.4,22.8-46.4,40.6-75.2,53.5
							c-28.8,12.9-59.4,19.3-91.9,19.3c-32.8,0-63.5-6.2-92.1-18.5c-28.6-12.4-53.4-29.7-74.4-52.2c-21-22.4-37.6-49.2-49.8-80.2
							c-12.2-31.1-18.3-65.3-18.3-102.7c0-34.6,6.1-67.1,18.3-97.4c12.2-30.4,28.9-56.7,50.3-79.2c21.4-22.4,46.7-40.2,76-53.2
							C8699.6,1960.8,8731.5,1954.3,8766.1,1954.3z M8759.2,1980.2c-24.4,0-46,5.2-64.9,15.6c-18.9,10.4-34.8,25.2-47.7,44.5
							c-12.9,19.2-22.7,42.5-29.4,69.9c-6.7,27.4-10.1,58.2-10.1,92.4c0,33.9,3.3,64.9,9.8,92.9c6.5,28.1,16.2,52.3,29.1,72.5
							c12.9,20.3,28.9,36,47.9,47.1c19.1,11.1,40.9,16.7,65.7,16.7c22.2,0,42.8-4.2,61.7-12.7c18.9-8.5,35.4-21.6,49.5-39.5
							c14.1-17.8,25.2-40.6,33.1-68.3c7.9-27.7,11.9-60.8,11.9-99.3c0-36.4-3.3-68.9-9.8-97.7c-6.5-28.8-16.4-53.1-29.7-73.1
							c-13.2-19.9-29.7-35.1-49.2-45.5C8807.7,1985.5,8785,1980.2,8759.2,1980.2z"/>
					</g>
				</g>
			</g>
			<g>
				<g>
					<path d="M696.1,3210.8v50.4h-3.5c-1.7-13.5-5.7-23-11.9-28.6c-6.2-5.6-15.4-8.4-27.4-8.4H623V3388c0,7.2,0.5,12.9,1.5,17.1
						c1,4.2,2.5,7.3,4.4,9.3c1.9,2,4.2,3.3,7.1,3.9c2.8,0.6,6.1,0.8,9.9,0.8h7.3v5.9h-90.7v-5.9h7.5c3.8,0,7.1-0.3,9.9-0.9
						c2.8-0.6,5.2-2,7.1-4.1c1.9-2.1,3.3-5.2,4.4-9.3c1-4.1,1.5-9.7,1.5-16.7v-163.8h-25.7c-6.4,0-12.1,0.5-17.1,1.5
						c-4.9,1-9.2,2.9-12.8,5.7c-3.6,2.7-6.5,6.5-8.6,11.3c-2.1,4.8-3.4,11-3.9,18.5h-5.9v-50.4H696.1z"/>
					<path d="M772.9,3310.3h99.4V3249c0-5-0.1-9.1-0.2-12.4c-0.2-3.2-0.6-5.9-1.2-7.9c-0.6-2-1.5-3.7-2.7-4.8
						c-1.2-1.2-2.7-2.3-4.6-3.4c-4.4-2.5-9.2-3.8-14.4-3.8h-7.5v-5.9h91.7v5.9h-7.5c-2,0-4.2,0.2-6.5,0.7c-2.3,0.5-4.4,1.2-6.4,2.1
						c-2,0.9-3.7,2.1-5.3,3.5c-1.6,1.4-2.7,3.1-3.3,4.9c-1.1,3.3-1.6,10.3-1.6,21v138.1c0,5,0.1,9.1,0.4,12.3
						c0.2,3.1,0.6,5.7,1.2,7.8c0.5,2,1.4,3.7,2.5,4.8c1.1,1.2,2.6,2.3,4.5,3.4c4.4,2.5,9.3,3.8,14.6,3.8h7.5v5.9h-91.7v-5.9h7.5
						c3.6,0,6.8-0.3,9.7-0.8c2.8-0.5,5.3-1.9,7.3-4c2-2.1,3.6-5.3,4.6-9.7c1-4.3,1.5-10.2,1.5-17.6v-65.3h-99.4v65.3
						c0,5,0.1,9.1,0.2,12.3c0.2,3.1,0.5,5.7,1.2,7.8c0.6,2,1.5,3.7,2.7,4.8c1.2,1.2,2.7,2.3,4.6,3.4c4.4,2.5,9.2,3.8,14.4,3.8h7.8
						v5.9h-91.9v-5.9h7.8c8.6,0,15-2.6,19.1-7.8c2.5-3.1,3.8-11.2,3.8-24.3V3249c0-5.2-0.1-9.4-0.2-12.6c-0.2-3.2-0.6-5.8-1.2-7.8
						c-0.6-2-1.5-3.5-2.6-4.7c-1.1-1.2-2.6-2.3-4.5-3.4c-4.4-2.5-9.2-3.8-14.4-3.8h-7.8v-5.9h91.9v5.9H796c-1.9,0-4,0.2-6.2,0.7
						c-2.3,0.5-4.4,1.2-6.4,2.1c-2,0.9-3.7,2.1-5.3,3.5c-1.6,1.4-2.7,3.1-3.3,4.9c-1.3,3.8-1.9,10.8-1.9,21V3310.3z"/>
					<path d="M1039.6,3419.1v5.9h-91.7v-5.9h7.5c3.8,0,7.1-0.3,10-0.8c2.9-0.5,5.3-1.9,7.2-4c1.9-2.1,3.3-5.3,4.4-9.7
						c1-4.3,1.5-10.2,1.5-17.6v-138.3c0-4.9-0.1-8.9-0.4-12.1c-0.2-3.2-0.6-5.9-1.2-7.9c-0.6-2-1.4-3.7-2.5-4.8
						c-1.1-1.2-2.6-2.3-4.5-3.4c-4.7-2.5-9.6-3.8-14.6-3.8h-7.5v-5.9h91.7v5.9h-7.5c-3.8,0-7.1,0.3-10,0.9c-2.9,0.6-5.3,2-7.2,4.1
						c-1.9,2.1-3.3,5.3-4.4,9.7c-1,4.3-1.5,10.1-1.5,17.3v138.3c0,5,0.1,9.1,0.2,12.3c0.2,3.1,0.5,5.7,1.2,7.8
						c0.6,2,1.5,3.7,2.7,4.8c1.2,1.2,2.7,2.3,4.6,3.4c4.4,2.5,9.2,3.8,14.4,3.8H1039.6z"/>
					<path d="M1242.2,3206.1l4.9,72.8h-4.9c-6.6-21.8-15.9-37.5-27.9-47.1c-12-9.6-26.5-14.4-43.5-14.4c-11,0-21.1,2.1-30.4,6.2
						c-9.3,4.2-17.2,10.6-23.9,19.2c-6.7,8.6-11.9,19.5-15.7,32.5c-3.8,13-5.7,28.4-5.7,46.2c0,14.3,1.8,27.3,5.3,38.9
						c3.5,11.6,8.7,21.6,15.6,29.8c6.8,8.2,15.2,14.6,25.1,19.1c9.9,4.5,21.3,6.7,34.2,6.7c13.5,0,25.8-3,36.8-9
						c10.5-5.5,22.2-17.3,35.1-35.3l4.9,3.1c-10.8,19-23.4,32.9-37.6,41.8c-14.2,8.9-31.2,13.3-51,13.3c-15.2,0-29.2-2.7-41.9-8
						c-12.7-5.3-23.7-12.8-32.9-22.5c-9.2-9.7-16.4-21.1-21.6-34.4c-5.2-13.3-7.8-27.8-7.8-43.7c0-21.5,4.8-41.2,14.4-58.9
						c9.4-17.9,22.5-31.7,39.3-41.5c17-9.9,35.3-14.8,55.1-14.8c15.6,0,30.8,3.8,45.7,11.3c4.4,2.4,7.5,3.5,9.4,3.5
						c3.5,0,6.3-1.4,8.6-4.2c2.3-2.8,3.9-6.4,4.8-10.6H1242.2z"/>
					<path d="M1359.8,3306.3l78.9,78.5c6.6,6.6,12.6,12.1,17.9,16.4c5.3,4.3,10.4,7.8,15.1,10.4c4.7,2.6,9.3,4.5,13.8,5.7
						c4.5,1.2,9.1,1.8,13.8,2v5.9h-101.8v-5.9c6.8,0,11.3-1.2,13.7-3.5c2.4-2.4,3.5-4.9,3.5-7.5c0-1.1-0.1-2.1-0.2-2.9
						c-0.2-0.9-0.6-1.8-1.3-2.9c-0.7-1.1-1.8-2.5-3.4-4.2c-1.6-1.7-3.7-3.9-6.4-6.6l-74-73.3v69c0,5,0.1,9.1,0.4,12.3
						c0.2,3.1,0.6,5.7,1.2,7.8c0.5,2,1.4,3.7,2.6,4.8c1.2,1.2,2.7,2.3,4.6,3.4c4.6,2.5,9.3,3.8,14.4,3.8h7.3v5.9h-91.2v-5.9h7.5
						c8.8,0,15.2-2.6,19.3-7.8c2.5-3.5,3.8-11.5,3.8-24.3v-138.3c0-4.7-0.1-8.7-0.2-11.9c-0.2-3.2-0.6-5.9-1.2-7.9
						c-0.6-2-1.5-3.7-2.6-5.1c-1.1-1.3-2.6-2.5-4.5-3.4c-5-2.5-9.9-3.8-14.6-3.8h-7.5v-5.9h91.2v5.9h-7.3c-3.9,0-8.1,0.9-12.4,2.6
						c-4.3,1.7-7.3,4.6-8.8,8.7c-1.3,3.5-1.9,10.4-1.9,20.7v65.5c0.2-0.2,1.2-1.1,3.2-2.9c2-1.8,4.2-3.8,6.6-6
						c2.4-2.2,4.8-4.4,7.1-6.6c2.3-2.2,3.9-3.7,4.8-4.5c11.5-10.5,21.1-19.6,29-27.1c7.9-7.5,14.1-13.9,18.8-19.2
						c4.7-5.3,8.1-9.7,10.1-13.2c2-3.5,3.1-6.5,3.1-8.8c0-2.5-1.1-4.7-3.3-6.5c-2.2-1.8-6-2.7-11.3-2.7h-4.9v-5.9h78.7v5.9
						c-2.8,0.2-5.7,0.4-8.6,0.8c-2.9,0.4-6.1,1.4-9.7,2.9c-3.5,1.6-7.6,4-12.1,7.3c-4.6,3.3-10,7.9-16.3,13.7
						c-1.3,1.1-4.5,4.4-9.7,9.8c-5.2,5.4-12.6,12.9-22.4,22.5L1359.8,3306.3z"/>
					<path d="M1492.4,3210.8h58l131,160.7v-123.5c0-7.2-0.5-13-1.5-17.2c-1-4.2-2.5-7.4-4.5-9.4c-2-2-4.4-3.3-7.2-3.9
						c-2.8-0.5-6-0.8-9.7-0.8h-7.5v-5.9h74.7v5.9h-7.8c-3.8,0-7.1,0.3-9.9,0.9c-2.8,0.6-5.2,2-7.1,4.2c-1.9,2.2-3.3,5.3-4.2,9.4
						c-0.9,4.1-1.4,9.7-1.4,16.7v180.5h-5.7l-141.1-172.5V3388c0,7.4,0.5,13.2,1.5,17.3c1,4.2,2.5,7.3,4.4,9.3
						c1.9,2,4.2,3.3,7.1,3.8c2.8,0.5,6,0.7,9.7,0.7h7.5v5.9h-74.5v-5.9h7.5c3.8,0,7.1-0.3,9.9-0.9c2.8-0.6,5.2-2,7.2-4.1
						c2-2.1,3.4-5.2,4.4-9.3c0.9-4.1,1.4-9.7,1.4-16.7v-148.9c-3.1-3.8-5.8-6.8-7.9-9c-2.1-2.2-4.1-4-6-5.4
						c-1.9-1.4-3.9-2.6-6.1-3.5c-2.2-0.9-4.9-2-8.2-3.1c-3.1-0.9-7.8-1.4-13.9-1.4V3210.8z"/>
					<path d="M1797.8,3222.6v84.6h46.9c6.9,0,12.5-0.6,16.7-1.9c4.2-1.3,7.6-3.1,10-5.7c2.4-2.5,4.1-5.7,5.1-9.7
						c0.9-3.9,1.6-8.6,1.9-13.9h5.9v74.5h-5.9c-0.8-6.1-1.7-11.2-2.7-15.3c-1-4.1-2.7-7.3-4.9-9.8c-2.3-2.4-5.5-4.2-9.5-5.2
						c-4.1-1-9.6-1.5-16.5-1.5h-46.9v70.7c0,5.3,0.1,9.6,0.2,12.7c0.2,3.1,0.8,5.5,1.9,7.2c1.1,1.6,2.8,2.7,5.2,3.2
						c2.4,0.5,5.8,0.7,10.4,0.7h36.3c6.1,0,11.3-0.2,15.6-0.5c4.2-0.3,7.9-0.9,11-1.9c3.1-0.9,5.8-2.2,8.1-3.9
						c2.4-1.6,4.9-3.7,7.5-6.2c6.3-6.1,13-15.9,20-29.5h6.4l-18.6,53.7h-164.9v-5.9h7.5c2,0,4.2-0.2,6.4-0.7c2.2-0.5,4.3-1.1,6.2-2
						c2-0.9,3.7-2,5.3-3.4c1.6-1.4,2.7-3.1,3.3-4.9c1.3-3.5,1.9-10.4,1.9-20.7v-139c0-13.7-1.3-22.1-4-25.2
						c-3.8-4.2-10.1-6.4-19.1-6.4h-7.5v-5.9h164.9v46.9h-3.8c-1.6-7.7-3.3-13.9-5.1-18.5c-1.8-4.6-4.2-8.2-7.2-10.7
						c-3-2.5-6.8-4.1-11.4-4.8c-4.6-0.7-10.6-1.1-17.8-1.1H1797.8z"/>
					<path d="M2075.8,3206.1v74h-5.9c-2.7-19.9-9.2-35.2-19.6-45.7c-10.4-10.5-23.6-15.8-39.6-15.8c-5.5,0-10.5,0.9-15.1,2.8
						c-4.6,1.9-8.6,4.4-12,7.4c-3.5,3.1-6.1,6.6-8,10.5c-1.9,3.9-2.8,8-2.8,12.3c0,3.9,0.8,7.7,2.4,11.2c1.6,3.5,6.4,9.1,14.6,16.6
						c13.7,8.6,25.8,15.8,36.5,21.4c10.1,5.5,23.6,13.8,40.8,25c7.4,5.7,13,12.4,17,20.1c3.9,7.8,5.9,15.9,5.9,24.4
						c0,8-1.6,15.6-4.9,22.9c-3.3,7.2-7.9,13.5-13.8,19c-5.9,5.4-13,9.7-21.3,13c-8.3,3.2-17.4,4.8-27.3,4.8
						c-6.3,0-12.1-0.5-17.4-1.4c-0.9-0.2-3.4-0.8-7.4-2c-4-1.2-8.3-2.4-12.8-3.7c-4.6-1.3-8.8-2.4-12.7-3.5
						c-3.9-1.1-6.2-1.6-6.8-1.6c-2.7,0-4.8,0.8-6.2,2.4c-1.5,1.6-2.6,4.9-3.4,9.9h-5.9v-73.5h5.9c2.8,15.1,6.5,26.6,11.1,34.6
						c2.2,3.8,5.1,7.3,8.8,10.5c3.7,3.2,7.9,6,12.5,8.5c4.6,2.4,9.6,4.3,15,5.7c5.3,1.3,10.8,2,16.3,2c6.6,0,12.5-0.9,17.8-2.8
						c5.3-1.9,9.7-4.4,13.4-7.7c3.7-3.2,6.5-7,8.5-11.2c2-4.2,2.9-8.7,2.9-13.4c0-5.3-1.5-10.7-4.4-16c-2.9-5.3-7.8-10.6-14.7-15.8
						c-6.8-4.1-14.8-8.9-24-14.4c-17.8-10.2-33.5-20-47.4-29.5c-7.7-6.1-13.5-12.8-17.6-20.1s-6-15.4-6-24.4
						c0-7.5,1.6-14.7,4.7-21.6c3.1-6.8,7.5-12.8,13.1-18c5.6-5.2,12.2-9.3,19.9-12.3c7.7-3,16-4.5,25-4.5c11.3,0,23.3,2.8,36,8.2
						c3,1.3,5.5,2.3,7.5,3.1c2,0.8,3.7,1.1,4.9,0.9c2.8,0,5.1-0.8,6.8-2.4c1.7-1.6,3.1-4.9,4-9.9H2075.8z"/>
					<path d="M2255.6,3206.1v74h-5.9c-2.7-19.9-9.2-35.2-19.6-45.7c-10.4-10.5-23.6-15.8-39.6-15.8c-5.5,0-10.5,0.9-15.1,2.8
						c-4.6,1.9-8.6,4.4-12,7.4c-3.5,3.1-6.1,6.6-8,10.5c-1.9,3.9-2.8,8-2.8,12.3c0,3.9,0.8,7.7,2.4,11.2c1.6,3.5,6.4,9.1,14.6,16.6
						c13.7,8.6,25.8,15.8,36.5,21.4c10.1,5.5,23.6,13.8,40.8,25c7.4,5.7,13,12.4,17,20.1c3.9,7.8,5.9,15.9,5.9,24.4
						c0,8-1.6,15.6-4.9,22.9c-3.3,7.2-7.9,13.5-13.8,19c-5.9,5.4-13,9.7-21.3,13c-8.3,3.2-17.4,4.8-27.3,4.8
						c-6.3,0-12.1-0.5-17.4-1.4c-0.9-0.2-3.4-0.8-7.4-2c-4-1.2-8.3-2.4-12.8-3.7c-4.6-1.3-8.8-2.4-12.7-3.5
						c-3.9-1.1-6.2-1.6-6.8-1.6c-2.7,0-4.8,0.8-6.2,2.4c-1.5,1.6-2.6,4.9-3.4,9.9h-5.9v-73.5h5.9c2.8,15.1,6.5,26.6,11.1,34.6
						c2.2,3.8,5.1,7.3,8.8,10.5c3.7,3.2,7.9,6,12.5,8.5c4.6,2.4,9.6,4.3,15,5.7c5.3,1.3,10.8,2,16.3,2c6.6,0,12.5-0.9,17.8-2.8
						c5.3-1.9,9.7-4.4,13.4-7.7c3.7-3.2,6.5-7,8.5-11.2c2-4.2,2.9-8.7,2.9-13.4c0-5.3-1.5-10.7-4.4-16c-2.9-5.3-7.8-10.6-14.7-15.8
						c-6.8-4.1-14.8-8.9-24-14.4c-17.8-10.2-33.5-20-47.4-29.5c-7.7-6.1-13.5-12.8-17.6-20.1s-6-15.4-6-24.4
						c0-7.5,1.6-14.7,4.7-21.6c3.1-6.8,7.5-12.8,13.1-18c5.6-5.2,12.2-9.3,19.9-12.3c7.7-3,16-4.5,25-4.5c11.3,0,23.3,2.8,36,8.2
						c3,1.3,5.5,2.3,7.5,3.1c2,0.8,3.7,1.1,4.9,0.9c2.8,0,5.1-0.8,6.8-2.4c1.7-1.6,3.1-4.9,4-9.9H2255.6z"/>
				</g>
				<g>
					<path d="M627.2,3535.8c13.7,0,26.7,2.8,39.1,8.5c12.4,5.7,23.3,13.4,32.8,23.3c9.4,9.9,16.9,21.6,22.5,35
						c5.6,13.4,8.4,28,8.4,43.7c0,16.2-2.8,31.2-8.4,45c-5.6,13.8-13.1,25.8-22.6,35.9c-9.5,10.1-20.7,18.1-33.5,23.8
						c-12.8,5.7-26.4,8.6-40.9,8.6c-14.6,0-28.3-2.8-41-8.2c-12.7-5.5-23.8-13.2-33.1-23.2c-9.3-10-16.7-21.9-22.1-35.7
						c-5.4-13.8-8.1-29.1-8.1-45.7c0-15.4,2.7-29.8,8.1-43.4c5.4-13.5,12.9-25.2,22.4-35.2c9.5-10,20.8-17.9,33.8-23.7
						C597.6,3538.7,611.8,3535.8,627.2,3535.8z M624.1,3547.4c-10.8,0-20.5,2.3-28.9,7c-8.4,4.6-15.5,11.2-21.2,19.8
						c-5.7,8.6-10.1,18.9-13.1,31.1c-3,12.2-4.5,25.9-4.5,41.1c0,15.1,1.4,28.9,4.4,41.4c2.9,12.5,7.2,23.2,13,32.3
						c5.7,9,12.8,16,21.3,21s18.2,7.4,29.2,7.4c9.9,0,19-1.9,27.4-5.7c8.4-3.8,15.7-9.6,22-17.6c6.3-7.9,11.2-18.1,14.7-30.4
						c3.5-12.3,5.3-27.1,5.3-44.2c0-16.2-1.5-30.7-4.4-43.5c-2.9-12.8-7.3-23.6-13.2-32.5c-5.9-8.9-13.2-15.6-21.9-20.3
						C645.7,3549.7,635.6,3547.4,624.1,3547.4z"/>
					<path d="M808.6,3552.3v84.1h38.9c4.6,0,8.4-0.4,11.7-1.3c3.2-0.9,5.9-2.4,8.1-4.6c2.2-2.2,3.9-5.2,5.2-9
						c1.3-3.8,2.3-8.6,3.1-14.4h5.9v72.3h-5.9c-0.2-5.3-0.7-9.9-1.6-13.7c-0.9-3.8-2.5-6.9-4.6-9.3c-2.1-2.4-4.9-4.2-8.5-5.3
						c-3.5-1.1-8-1.6-13.3-1.6h-38.9v67.1c0,5,0.1,9.1,0.2,12.3c0.2,3.1,0.5,5.7,1.2,7.8c0.6,2,1.5,3.7,2.7,4.8
						c1.2,1.2,2.7,2.3,4.6,3.4c4.4,2.5,9.2,3.8,14.4,3.8h7.8v5.9h-91.9v-5.9h7.5c3.8,0,7.1-0.3,10-0.8c2.9-0.5,5.3-1.9,7.2-4
						c1.9-2.1,3.3-5.3,4.4-9.7c1-4.3,1.5-10.2,1.5-17.6v-138.3c0-4.9-0.1-8.9-0.4-12.1c-0.2-3.2-0.6-5.9-1.2-7.9
						c-0.6-2-1.4-3.7-2.5-4.9c-1.1-1.3-2.6-2.4-4.5-3.3c-2.4-1.3-4.7-2.2-7.1-2.8c-2.4-0.6-4.9-0.9-7.5-0.9h-7.5v-5.9h159.3v47.1
						h-3.5c-2-7.7-4.4-13.9-7-18.5c-2.6-4.6-5.7-8.2-9.4-10.7c-3.7-2.5-8.1-4.2-13.1-4.9c-5-0.8-11.1-1.2-18.1-1.2H808.6z"/>
					<path d="M1040.9,3561.7l52.1-25.4h5.2V3717c0,6.3,0.1,11.2,0.2,14.7c0.2,3.5,0.5,6.2,1.2,8.1c0.6,1.9,1.4,3.2,2.4,4
						c0.9,0.8,2.3,1.6,4,2.4c3.1,1.7,9.6,2.6,19.3,2.6v5.9h-80.6v-5.9c5.2,0,9.3-0.2,12.5-0.7c3.1-0.5,5.6-1.1,7.3-1.8
						c1.7-0.7,3-1.6,3.9-2.7c0.9-1.1,1.5-2.3,2-3.5c1.1-2.4,1.7-10.1,1.7-23.1v-115.7c0-9.1-0.2-16.3-0.6-21.6
						c-0.4-5.3-1.1-9.1-2-11.7c-0.9-2.5-2.2-4.1-3.8-4.8c-1.6-0.7-3.6-1.1-6.1-1.1c-4.4,0-9.8,1.4-16.3,4.2L1040.9,3561.7z"/>
					<path d="M1205.1,3724.1c4.7,0,8.8,1.7,12.3,5.1c3.5,3.4,5.2,7.5,5.2,12.4c0,4.9-1.7,9-5.2,12.5c-3.5,3.5-7.5,5.2-12.3,5.2
						c-4.9,0-9-1.7-12.5-5.2c-3.5-3.5-5.2-7.6-5.2-12.5c0-5,1.7-9.2,5.2-12.5C1196.1,3725.7,1200.3,3724.1,1205.1,3724.1z"/>
					<path d="M1385.9,3540.5l-12.5,26.9H1309l-14.1,28.7c12.7,1.9,24.5,5.2,35.2,10c10.8,4.8,20,10.7,27.7,17.8
						c7.7,7.1,13.7,15.2,18,24.4c4.3,9.2,6.5,19,6.5,29.6c0,13-2.7,24.5-8.2,34.5c-5.5,10-12.5,18.4-20.9,25.2
						c-8.4,6.8-17.6,12-27.4,15.6c-9.9,3.5-19.2,5.3-28,5.3c-6.6,0-12.2-0.6-16.8-1.8c-4.6-1.2-8.4-2.8-11.3-4.8
						c-2.9-2-5.1-4.3-6.5-6.7c-1.4-2.4-2.1-5-2.1-7.7c0-3,1.2-5.6,3.5-7.9c2.4-2.3,5.4-3.4,9.2-3.4c1.4,0,2.7,0.1,3.8,0.2
						c1.1,0.2,2.2,0.5,3.4,1.1c1.2,0.6,2.6,1.3,4.2,2.4c1.6,1,3.7,2.4,6.2,4.1c3.9,2.8,7.9,4.9,11.9,6.2c4,1.3,8,2,12.1,2
						c6.1,0,12-1.3,17.6-3.8c5.6-2.5,10.5-5.9,14.7-10.2c4.2-4.3,7.7-9.4,10.2-15.2c2.6-5.8,3.9-12.1,3.9-18.8
						c0-6.4-1.1-12.7-3.3-18.8c-2.2-6.1-5.3-11.9-9.4-17.3c-4.1-5.4-9-10.3-14.7-14.7c-5.7-4.4-12.2-8.2-19.4-11.3
						c-5.8-2.5-12.6-4.4-20.4-5.5c-7.8-1.2-16.6-2-26.5-2.5l41-83.4H1385.9z"/>
					<path d="M1682.5,3535.8l4.9,72.8h-4.9c-6.6-21.8-15.9-37.5-27.9-47.1c-12-9.6-26.5-14.4-43.5-14.4c-11,0-21.1,2.1-30.4,6.2
						c-9.3,4.2-17.2,10.6-23.9,19.2c-6.7,8.6-11.9,19.5-15.7,32.5c-3.8,13-5.7,28.4-5.7,46.2c0,14.3,1.8,27.3,5.3,38.9
						c3.5,11.6,8.7,21.6,15.6,29.8c6.8,8.2,15.2,14.6,25.1,19.1c9.9,4.5,21.3,6.7,34.2,6.7c13.5,0,25.8-3,36.8-9
						c10.5-5.5,22.2-17.3,35.1-35.3l4.9,3.1c-10.8,19-23.4,32.9-37.6,41.8c-14.2,8.9-31.2,13.3-51,13.3c-15.2,0-29.2-2.7-41.9-8
						c-12.7-5.3-23.7-12.8-32.9-22.5c-9.2-9.7-16.4-21.1-21.6-34.4c-5.2-13.3-7.8-27.8-7.8-43.7c0-21.5,4.8-41.2,14.4-58.9
						c9.4-17.9,22.5-31.7,39.3-41.5c17-9.9,35.3-14.8,55.1-14.8c15.6,0,30.8,3.8,45.7,11.3c4.4,2.4,7.5,3.5,9.4,3.5
						c3.5,0,6.3-1.4,8.6-4.2c2.3-2.8,3.9-6.4,4.8-10.6H1682.5z"/>
					<path d="M1835.6,3754.7l-82.7-180v143c0,7.4,0.5,13.2,1.5,17.3c1,4.2,2.5,7.3,4.5,9.3c2,2,4.4,3.3,7.2,3.8
						c2.8,0.5,6,0.7,9.7,0.7h7.5v5.9h-74.5v-5.9h7.5c3.8,0,7.1-0.3,9.9-0.8c2.8-0.5,5.2-1.9,7.1-4c1.9-2.1,3.3-5.3,4.2-9.4
						c0.9-4.2,1.4-9.8,1.4-16.8v-140c0-5-0.2-9.5-0.7-13.3c-0.5-3.8-1.7-7.1-3.7-9.8c-2-2.7-4.9-4.7-9-6.1c-4-1.4-9.6-2.1-16.8-2.1
						v-5.9h60.6l77.8,167.5l76.3-167.5h60.6v5.9h-7.3c-3.9,0-7.3,0.3-10.1,0.9c-2.8,0.6-5.2,2-7.1,4.1c-1.9,2.1-3.3,5.3-4.2,9.4
						c-0.9,4.2-1.4,9.8-1.4,16.8v140c0,7.4,0.5,13.2,1.5,17.3c1,4.2,2.5,7.3,4.5,9.3c2,2,4.4,3.3,7.2,3.8c2.8,0.5,6,0.7,9.7,0.7h7.3
						v5.9h-90.9v-5.9h7.5c3.8,0,7.1-0.3,9.9-0.9c2.8-0.6,5.2-2,7.2-4.1c2-2.1,3.4-5.2,4.4-9.3c0.9-4.1,1.4-9.7,1.4-16.7v-143
						l-82.5,180H1835.6z"/>
				</g>
				<g>
					<path d="M822.4,3885.3v5.9c-4.2,0-7.7,0.4-10.5,1.2c-2.7,0.8-5.3,2.6-7.7,5.3c-2.4,2.8-4.7,6.8-7.1,12.3
						c-2.4,5.4-5.1,12.7-8.2,21.8l-59.6,172.7H723l-48.8-136.9l-48.3,136.9H620l-63.6-177.9c-2.4-6.6-4.2-11.8-5.7-15.7
						c-1.4-3.8-2.5-6.4-3.3-7.7c-2.2-4.1-5.1-7.1-8.6-9.1c-3.5-2-8.4-2.9-14.7-2.9v-5.9h79.2v5.9h-3.8c-5.5,0-9.7,1.3-12.7,3.8
						c-3,2.5-4.5,5.6-4.5,9.2c0,3.8,2.4,12.3,7.1,25.4l42.2,120.2l35.3-102.3l-11.3-32.3c-1.7-3.9-3.5-7.4-5.2-10.4
						c-1.7-3-3.7-5.5-5.9-7.5c-2.2-2-4.8-3.6-7.8-4.6c-3-1-6.6-1.5-10.8-1.5v-5.9h83.2v5.9h-5.7c-6,0-10.3,1.3-13,3.8
						c-2.7,2.5-4,6-4,10.4c0,5.3,2.4,14.7,7.1,28l41,116.4l40.8-118c2.2-6.6,3.9-12.1,5.2-16.5c1.3-4.4,1.9-7.9,1.9-10.6
						c0-5-2.2-8.5-6.6-10.5c-4.4-2-10.1-2.9-17.2-2.9v-5.9H822.4z"/>
					<path d="M924.6,4093.6v5.9H833v-5.9h7.5c3.8,0,7.1-0.3,10-0.8c2.9-0.5,5.3-1.9,7.2-4c1.9-2.1,3.3-5.3,4.4-9.7
						c1-4.3,1.5-10.2,1.5-17.6v-138.3c0-4.9-0.1-8.9-0.4-12.1c-0.2-3.2-0.6-5.9-1.2-7.9c-0.6-2-1.4-3.7-2.5-4.8
						c-1.1-1.2-2.6-2.3-4.5-3.4c-4.7-2.5-9.6-3.8-14.6-3.8H833v-5.9h91.7v5.9h-7.5c-3.8,0-7.1,0.3-10,0.9c-2.9,0.6-5.3,2-7.2,4.1
						c-1.9,2.1-3.3,5.3-4.4,9.7c-1,4.3-1.5,10.1-1.5,17.3v138.3c0,5,0.1,9.1,0.2,12.3c0.2,3.1,0.5,5.7,1.2,7.8
						c0.6,2,1.5,3.7,2.7,4.8c1.2,1.2,2.7,2.3,4.6,3.4c4.4,2.5,9.2,3.8,14.4,3.8H924.6z"/>
					<path d="M1119.7,3885.3v50.4h-3.5c-1.7-13.5-5.7-23-11.9-28.6c-6.2-5.6-15.4-8.4-27.4-8.4h-30.2v163.8c0,7.2,0.5,12.9,1.5,17.1
						c1,4.2,2.5,7.3,4.4,9.3c1.9,2,4.2,3.3,7.1,3.9c2.8,0.6,6.1,0.8,9.9,0.8h7.3v5.9h-90.7v-5.9h7.5c3.8,0,7.1-0.3,9.9-0.9
						c2.8-0.6,5.2-2,7.1-4.1c1.9-2.1,3.3-5.2,4.4-9.3c1-4.1,1.5-9.7,1.5-16.7v-163.8h-25.7c-6.4,0-12.1,0.5-17.1,1.5
						c-4.9,1-9.2,2.9-12.8,5.7c-3.6,2.7-6.5,6.5-8.6,11.3c-2.1,4.8-3.4,11-3.9,18.5h-5.9v-50.4H1119.7z"/>
					<path d="M1196.5,3984.7h99.4v-61.3c0-5-0.1-9.1-0.2-12.4c-0.2-3.2-0.6-5.9-1.2-7.9c-0.6-2-1.5-3.7-2.7-4.8
						c-1.2-1.2-2.7-2.3-4.6-3.4c-4.4-2.5-9.2-3.8-14.4-3.8h-7.5v-5.9h91.7v5.9h-7.5c-2,0-4.2,0.2-6.5,0.7c-2.3,0.5-4.4,1.2-6.4,2.1
						c-2,0.9-3.7,2.1-5.3,3.5c-1.6,1.4-2.7,3.1-3.3,4.9c-1.1,3.3-1.6,10.3-1.6,21v138.1c0,5,0.1,9.1,0.4,12.3
						c0.2,3.1,0.6,5.7,1.2,7.8c0.5,2,1.4,3.7,2.5,4.8c1.1,1.2,2.6,2.3,4.5,3.4c4.4,2.5,9.3,3.8,14.6,3.8h7.5v5.9h-91.7v-5.9h7.5
						c3.6,0,6.8-0.3,9.7-0.8c2.8-0.5,5.3-1.9,7.3-4c2-2.1,3.6-5.3,4.6-9.7c1-4.3,1.5-10.2,1.5-17.6v-65.3h-99.4v65.3
						c0,5,0.1,9.1,0.2,12.3c0.2,3.1,0.5,5.7,1.2,7.8c0.6,2,1.5,3.7,2.7,4.8c1.2,1.2,2.7,2.3,4.6,3.4c4.4,2.5,9.2,3.8,14.4,3.8h7.8
						v5.9h-91.9v-5.9h7.8c8.6,0,15-2.6,19.1-7.8c2.5-3.1,3.8-11.2,3.8-24.3v-138.1c0-5.2-0.1-9.4-0.2-12.6c-0.2-3.2-0.6-5.8-1.2-7.8
						c-0.6-2-1.5-3.5-2.6-4.7c-1.1-1.2-2.6-2.3-4.5-3.4c-4.4-2.5-9.2-3.8-14.4-3.8h-7.8v-5.9h91.9v5.9h-7.8c-1.9,0-4,0.2-6.2,0.7
						c-2.3,0.5-4.4,1.2-6.4,2.1c-2,0.9-3.7,2.1-5.3,3.5c-1.6,1.4-2.7,3.1-3.3,4.9c-1.3,3.8-1.9,10.8-1.9,21V3984.7z"/>
				</g>
				<g>
					<path d="M642,4435.9l-82.7-180v143c0,7.4,0.5,13.2,1.5,17.3c1,4.2,2.5,7.3,4.5,9.3c2,2,4.4,3.3,7.2,3.8c2.8,0.5,6,0.7,9.7,0.7
						h7.5v5.9h-74.5v-5.9h7.5c3.8,0,7.1-0.3,9.9-0.8c2.8-0.5,5.2-1.9,7.1-4c1.9-2.1,3.3-5.3,4.2-9.4c0.9-4.2,1.4-9.8,1.4-16.8v-140
						c0-5-0.2-9.5-0.7-13.3c-0.5-3.8-1.7-7.1-3.7-9.8c-2-2.7-4.9-4.7-9-6.1s-9.6-2.1-16.8-2.1v-5.9h60.6l77.8,167.5l76.3-167.5h60.6
						v5.9h-7.3c-3.9,0-7.3,0.3-10.1,0.9c-2.8,0.6-5.2,2-7.1,4.1s-3.3,5.3-4.2,9.4c-0.9,4.2-1.4,9.8-1.4,16.8v140
						c0,7.4,0.5,13.2,1.5,17.3c1,4.2,2.5,7.3,4.5,9.3c2,2,4.4,3.3,7.2,3.8s6,0.7,9.7,0.7h7.3v5.9h-90.9v-5.9h7.5
						c3.8,0,7.1-0.3,9.9-0.9c2.8-0.6,5.2-2,7.2-4.1c2-2.1,3.4-5.2,4.4-9.3c0.9-4.1,1.4-9.7,1.4-16.7v-143l-82.5,180H642z"/>
					<path d="M945.3,4364.2h-82.9l-14.6,33.7c-3.5,8.3-5.2,14.5-5.2,18.6c0,1.7,0.3,3.3,0.8,4.7c0.5,1.4,1.7,2.7,3.5,3.9
						c1.8,1.2,4.3,2.2,7.5,3.1c3.2,0.9,7.5,1.5,12.8,1.8v5.9h-67.4v-5.9c5.3-0.8,9.7-2,13-3.5c3.3-1.6,6.1-3.7,8.5-6.5
						c2.4-2.7,4.5-6.3,6.5-10.7c2-4.4,4.4-9.8,7.2-16.3l75.4-176h5.4l74.5,177.9c3,7.4,5.8,13.3,8.4,17.8c2.6,4.5,5.3,8,8,10.5
						c2.7,2.5,5.7,4.2,9,5.2c3.2,0.9,7.1,1.5,11.7,1.6v5.9h-84.6v-5.9c8.5-0.3,14.3-1.7,17.3-4.1c3.1-2.4,4.6-5.4,4.6-8.8
						c-0.2-4.6-2.3-11.9-6.4-22.1L945.3,4364.2z M940.8,4352.5l-36.3-86.5l-37.2,86.5H940.8z"/>
					<path d="M1182.1,4221.7v50.4h-3.5c-1.7-13.5-5.7-23-11.9-28.6c-6.2-5.6-15.4-8.4-27.4-8.4H1109v163.8c0,7.2,0.5,12.9,1.5,17.1
						c1,4.2,2.5,7.3,4.4,9.3c1.9,2,4.2,3.3,7.1,3.9c2.8,0.6,6.1,0.8,9.9,0.8h7.3v5.9h-90.7v-5.9h7.5c3.8,0,7.1-0.3,9.9-0.9
						c2.8-0.6,5.2-2,7.1-4.1s3.3-5.2,4.4-9.3c1-4.1,1.5-9.7,1.5-16.7v-163.8h-25.7c-6.4,0-12.1,0.5-17.1,1.5
						c-4.9,1-9.2,2.9-12.8,5.7c-3.6,2.7-6.5,6.5-8.6,11.3c-2.1,4.8-3.4,11-3.9,18.5h-5.9v-50.4H1182.1z"/>
					<path d="M1260,4233.5v84.6h46.9c6.9,0,12.5-0.6,16.7-1.9c4.2-1.3,7.6-3.1,10-5.7c2.4-2.5,4.1-5.7,5.1-9.7
						c0.9-3.9,1.6-8.6,1.9-13.9h5.9v74.5h-5.9c-0.8-6.1-1.7-11.2-2.7-15.3c-1-4.1-2.7-7.3-4.9-9.8c-2.3-2.4-5.5-4.2-9.5-5.2
						c-4.1-1-9.6-1.5-16.5-1.5H1260v70.7c0,5.3,0.1,9.6,0.2,12.7c0.2,3.1,0.8,5.5,1.9,7.2c1.1,1.6,2.8,2.7,5.2,3.2
						c2.4,0.5,5.8,0.7,10.4,0.7h36.3c6.1,0,11.3-0.2,15.6-0.5c4.2-0.3,7.9-0.9,11-1.9c3.1-0.9,5.8-2.2,8.1-3.9
						c2.4-1.6,4.9-3.7,7.5-6.2c6.3-6.1,13-15.9,20-29.5h6.4l-18.6,53.7H1199v-5.9h7.5c2,0,4.2-0.2,6.4-0.7c2.2-0.5,4.3-1.1,6.2-2
						c2-0.9,3.7-2,5.3-3.4c1.6-1.4,2.7-3.1,3.3-4.9c1.3-3.5,1.9-10.4,1.9-20.7v-139c0-13.7-1.3-22.1-4-25.2
						c-3.8-4.2-10.1-6.4-19.1-6.4h-7.5v-5.9h164.9v46.9h-3.8c-1.6-7.7-3.3-13.9-5.1-18.5c-1.8-4.6-4.2-8.2-7.2-10.7
						c-3-2.5-6.8-4.1-11.4-4.8c-4.6-0.7-10.6-1.1-17.8-1.1H1260z"/>
					<path d="M1608.3,4435.9h-57l-72.6-100.1c-2.7,0.2-5.1,0.3-7.2,0.4c-2.1,0.1-4,0.1-5.8,0.1c-1.4,0-2.9,0-4.5-0.1
						c-1.6-0.1-3.2-0.2-4.9-0.4v62.2c0,7.5,0.5,13.5,1.5,17.8c1,4.3,2.5,7.5,4.5,9.7c2,2.1,4.3,3.4,7.1,3.9c2.7,0.5,5.8,0.7,9.3,0.7
						h8.5v5.9h-91.9v-5.9h8.2c8.8,0,15.2-2.9,19.3-8.7c2.2-3.5,3.3-11.2,3.3-23.3v-138.3c0-13.2-1.5-21.5-4.5-25
						c-4.1-4.7-10.1-7.1-18.1-7.1h-8.2v-5.9h78c11.5,0,21.4,0.4,29.7,1.3c8.3,0.9,15.2,2.2,20.5,3.9c5.3,1.7,10.4,4.1,15.1,7.2
						c4.7,3.1,8.8,6.8,12.4,11.1c3.5,4.3,6.3,9.2,8.4,14.5c2,5.3,3.1,11.1,3.1,17.2c0,13.4-4.2,24.8-12.7,34.4
						c-8.5,9.6-21.8,16.4-39.8,20.5l44.1,61.3c5.2,7.1,9.8,12.9,13.8,17.4c4,4.6,8,8.2,12,10.8c4,2.7,8.2,4.6,12.7,5.9
						c4.5,1.3,9.8,2.2,15.9,2.8V4435.9z M1456.3,4325.8c2,0,3.8,0,5.3,0.1c1.5,0.1,2.7,0.1,3.7,0.1c10.2,0,19.2-1.2,26.9-3.5
						c7.7-2.4,14.1-5.7,19.3-9.9c5.2-4.2,9.1-9.2,11.7-15c2.6-5.7,3.9-12,3.9-18.7c0-6.6-1.1-12.7-3.3-18.3
						c-2.2-5.6-5.3-10.4-9.4-14.4c-4.1-4-9-7.1-14.6-9.3c-5.7-2.2-11.9-3.3-18.6-3.3c-6.4,0-14.7,1-24.7,3.1V4325.8z"/>
					<path d="M1705.1,4430v5.9h-91.7v-5.9h7.5c3.8,0,7.1-0.3,10-0.8c2.9-0.5,5.3-1.9,7.2-4c1.9-2.1,3.3-5.3,4.4-9.7
						c1-4.3,1.5-10.2,1.5-17.6v-138.3c0-4.9-0.1-8.9-0.4-12.1c-0.2-3.2-0.6-5.9-1.2-7.9c-0.6-2-1.4-3.7-2.5-4.8
						c-1.1-1.2-2.6-2.3-4.5-3.4c-4.7-2.5-9.6-3.8-14.6-3.8h-7.5v-5.9h91.7v5.9h-7.5c-3.8,0-7.1,0.3-10,0.9c-2.9,0.6-5.3,2-7.2,4.1
						c-1.9,2.1-3.3,5.3-4.4,9.7c-1,4.3-1.5,10.1-1.5,17.3v138.3c0,5,0.1,9.1,0.2,12.3c0.2,3.1,0.5,5.7,1.2,7.8
						c0.6,2,1.5,3.7,2.7,4.8s2.7,2.3,4.6,3.4c4.4,2.5,9.2,3.8,14.4,3.8H1705.1z"/>
					<path d="M1861.1,4364.2h-82.9l-14.6,33.7c-3.5,8.3-5.2,14.5-5.2,18.6c0,1.7,0.3,3.3,0.8,4.7c0.5,1.4,1.7,2.7,3.5,3.9
						c1.8,1.2,4.3,2.2,7.5,3.1c3.2,0.9,7.5,1.5,12.8,1.8v5.9h-67.4v-5.9c5.3-0.8,9.7-2,13-3.5c3.3-1.6,6.1-3.7,8.5-6.5
						c2.4-2.7,4.5-6.3,6.5-10.7c2-4.4,4.4-9.8,7.2-16.3l75.4-176h5.4l74.5,177.9c3,7.4,5.8,13.3,8.4,17.8c2.6,4.5,5.3,8,8,10.5
						c2.7,2.5,5.7,4.2,9,5.2c3.2,0.9,7.1,1.5,11.7,1.6v5.9h-84.6v-5.9c8.5-0.3,14.3-1.7,17.3-4.1c3.1-2.4,4.6-5.4,4.6-8.8
						c-0.2-4.6-2.3-11.9-6.4-22.1L1861.1,4364.2z M1856.6,4352.5l-36.3-86.5l-37.2,86.5H1856.6z"/>
					<path d="M2132.1,4376.7l5.2,0.9l-18.4,58.2H1953v-5.9h8.2c8.8,0,15.2-2.9,19.3-8.7c2.2-3.5,3.3-11.2,3.3-23.3v-138.3
						c0-13.2-1.5-21.5-4.5-25c-4.1-4.7-10.1-7.1-18.1-7.1h-8.2v-5.9h97.1v5.9c-5.8,0-10.6,0.3-14.5,0.8c-3.9,0.6-7,1.3-9.5,2.4
						c-2.5,1-4.5,2.2-5.9,3.7c-1.4,1.4-2.6,3-3.5,4.7c-1.6,3.1-2.4,11.2-2.4,24.3v134.5c0,7.4,0.5,12.7,1.6,16
						c1.1,3.3,3.3,5.6,6.6,6.8c2.8,0.9,11.1,1.4,24.7,1.4h15.6c16.5,0,28-1.2,34.6-3.5c3.3-1.1,6.4-2.7,9.4-4.7c3-2,5.9-4.7,8.7-8
						c2.8-3.3,5.6-7.3,8.2-12C2126.5,4389.2,2129.2,4383.5,2132.1,4376.7z"/>
				</g>
				<g>
					<path d="M829.7,4566.6v5.9c-4.2,0-7.7,0.4-10.5,1.2c-2.7,0.8-5.3,2.6-7.7,5.3c-2.4,2.8-4.7,6.8-7.1,12.3
						c-2.4,5.4-5.1,12.7-8.2,21.8l-59.6,172.7h-6.4l-48.8-136.9l-48.3,136.9h-5.9l-63.6-177.9c-2.4-6.6-4.2-11.8-5.7-15.7
						c-1.4-3.8-2.5-6.4-3.3-7.7c-2.2-4.1-5.1-7.1-8.6-9.1c-3.5-2-8.4-2.9-14.7-2.9v-5.9h79.2v5.9h-3.8c-5.5,0-9.7,1.3-12.7,3.8
						c-3,2.5-4.5,5.6-4.5,9.2c0,3.8,2.4,12.3,7.1,25.4l42.2,120.2l35.3-102.3l-11.3-32.3c-1.7-3.9-3.5-7.4-5.2-10.4
						c-1.7-3-3.7-5.5-5.9-7.5c-2.2-2-4.8-3.6-7.8-4.6c-3-1-6.6-1.5-10.8-1.5v-5.9h83.2v5.9h-5.7c-6,0-10.3,1.3-13,3.8
						c-2.7,2.5-4,6-4,10.4c0,5.3,2.4,14.7,7.1,28l41,116.4l40.8-118c2.2-6.6,3.9-12.1,5.2-16.5c1.3-4.4,1.9-7.9,1.9-10.6
						c0-5-2.2-8.5-6.6-10.5c-4.4-2-10.1-2.9-17.2-2.9v-5.9H829.7z"/>
					<path d="M950.6,4561.9c13.7,0,26.7,2.8,39.1,8.5c12.4,5.7,23.3,13.4,32.8,23.3c9.4,9.9,16.9,21.6,22.5,35
						c5.6,13.4,8.4,28,8.4,43.7c0,16.2-2.8,31.2-8.4,45c-5.6,13.8-13.1,25.8-22.6,35.9c-9.5,10.1-20.7,18.1-33.5,23.8
						c-12.8,5.7-26.4,8.6-40.9,8.6c-14.6,0-28.3-2.8-41-8.2c-12.7-5.5-23.8-13.2-33.1-23.2c-9.3-10-16.7-21.9-22.1-35.7
						c-5.4-13.8-8.1-29.1-8.1-45.7c0-15.4,2.7-29.8,8.1-43.4c5.4-13.5,12.9-25.2,22.4-35.2c9.5-10,20.8-17.9,33.8-23.7
						C921,4564.8,935.2,4561.9,950.6,4561.9z M947.5,4573.4c-10.8,0-20.5,2.3-28.9,7c-8.4,4.6-15.5,11.2-21.2,19.8
						c-5.7,8.6-10.1,18.9-13.1,31.1c-3,12.2-4.5,25.9-4.5,41.1c0,15.1,1.4,28.9,4.4,41.4c2.9,12.5,7.2,23.2,13,32.3
						c5.7,9,12.8,16,21.3,21c8.5,4.9,18.2,7.4,29.2,7.4c9.9,0,19-1.9,27.4-5.7c8.4-3.8,15.7-9.6,22-17.6
						c6.3-7.9,11.2-18.1,14.7-30.4c3.5-12.3,5.3-27.1,5.3-44.2c0-16.2-1.5-30.7-4.4-43.5c-2.9-12.8-7.3-23.6-13.2-32.5
						c-5.9-8.9-13.2-15.6-21.9-20.3C969.1,4575.7,959,4573.4,947.5,4573.4z"/>
					<path d="M1184.1,4561.9c13.7,0,26.7,2.8,39.1,8.5c12.4,5.7,23.3,13.4,32.8,23.3c9.4,9.9,16.9,21.6,22.5,35
						c5.6,13.4,8.4,28,8.4,43.7c0,16.2-2.8,31.2-8.4,45c-5.6,13.8-13.1,25.8-22.6,35.9c-9.5,10.1-20.7,18.1-33.5,23.8
						c-12.8,5.7-26.4,8.6-40.9,8.6c-14.6,0-28.3-2.8-41-8.2c-12.7-5.5-23.8-13.2-33.1-23.2c-9.3-10-16.7-21.9-22.1-35.7
						c-5.4-13.8-8.1-29.1-8.1-45.7c0-15.4,2.7-29.8,8.1-43.4c5.4-13.5,12.9-25.2,22.4-35.2c9.5-10,20.8-17.9,33.8-23.7
						C1154.5,4564.8,1168.7,4561.9,1184.1,4561.9z M1181,4573.4c-10.8,0-20.5,2.3-28.9,7c-8.4,4.6-15.5,11.2-21.2,19.8
						c-5.7,8.6-10.1,18.9-13.1,31.1c-3,12.2-4.5,25.9-4.5,41.1c0,15.1,1.4,28.9,4.4,41.4c2.9,12.5,7.2,23.2,13,32.3
						c5.7,9,12.8,16,21.3,21c8.5,4.9,18.2,7.4,29.2,7.4c9.9,0,19-1.9,27.4-5.7c8.4-3.8,15.7-9.6,22-17.6
						c6.3-7.9,11.2-18.1,14.7-30.4c3.5-12.3,5.3-27.1,5.3-44.2c0-16.2-1.5-30.7-4.4-43.5c-2.9-12.8-7.3-23.6-13.2-32.5
						c-5.9-8.9-13.2-15.6-21.9-20.3C1202.6,4575.7,1192.5,4573.4,1181,4573.4z"/>
					<path d="M1304.7,4780.8v-5.9h8.2c3.6,0,6.8-0.3,9.7-0.9c2.8-0.6,5.2-2,7.1-4.2c1.9-2.2,3.3-5.4,4.4-9.7c1-4.2,1.5-10,1.5-17.2
						v-138.3c0-13.2-1.5-21.5-4.5-25c-4.1-4.7-10.1-7.1-18.1-7.1h-8.2v-5.9h87.2c31.7,0,56.1,3.7,73,11.1
						c16.8,7.4,30.2,19.5,40.3,36.3c10.2,17.1,15.3,36.7,15.3,58.7c0,15.9-2.6,30.4-7.7,43.6c-5.1,13.2-12.7,24.6-22.9,34.2
						c-10.1,9.6-22.7,17-37.6,22.4c-14.9,5.3-32.3,8-52.1,8H1304.7z M1366,4765.2c13,3,24.2,4.5,33.5,4.5c12.1,0,23.3-2.2,33.7-6.7
						c10.4-4.5,19.4-10.8,27-19.1c7.6-8.2,13.6-18.3,17.9-30c4.3-11.8,6.5-25,6.5-39.6c0-14.8-2.1-28.1-6.4-39.9
						c-4.2-11.9-10.2-21.9-17.9-30.2c-7.7-8.2-16.8-14.6-27.3-19c-10.5-4.4-22.1-6.6-34.6-6.6c-9.3,0-20,1.6-32.3,4.7V4765.2z"/>
				</g>
			</g>
		</g>
		<g id="SELECTOR-TRIPLEX-SUB">
			<circle class="st3" cx="1414.6" cy="1551.8" r="1337.2"/>
			<ellipse class="st4" cx="1420.8" cy="1551.1" rx="1351.1" ry="1340.7"/>
			<line class="st5" x1="235.6" y1="967.5" x2="2606" y2="967.5"/>
			<line class="st5" x1="2436.6" y1="2425.8" x2="406.6" y2="2425.5"/>
			<line class="st6" x1="958.6" y1="1059.6" x2="958.6" y2="2333.7"/>
			<line class="st7" x1="1146.8" y1="1059.6" x2="770.4" y2="1059.6"/>
			<line class="st7" x1="1146.8" y1="2333.2" x2="770.4" y2="2333.2"/>
			<circle class="st8" cx="1410.7" cy="1546.7" r="1337.2"/>
		</g>
		<circle cx="389" cy="3328.1" r="51.7"/>
		<line class="st2" x1="2565.1" y1="868" x2="4172.5" y2="868"/>
		<circle cx="4186.3" cy="868.7" r="47.4"/>
		<g>
			<path d="M1210.6,1881.8l1.1-15.8l72.3-11.1v-252.7h-68.4l1.3-16.1l101.9-16.9h7.1v287l70.8,7.4l-2.4,18.2H1210.6z"/>
			<path d="M1424.7,1860.7c0-8.4,2.2-15.2,6.5-20.2c4.3-5,10.1-7.5,17.3-7.5c7.2,0,13.1,2.6,17.7,7.7c4.6,5.1,6.9,11.9,6.9,20.3
				c0,8.8-2.2,15.9-6.6,21.4c-4.4,5.5-10.3,8.2-17.7,8.2c-7.2,0-13-2.8-17.4-8.3C1426.9,1876.7,1424.7,1869.5,1424.7,1860.7z"/>
			<path d="M1502.3,1858.9l7.4-74.2l17.7,3.7l4.8,52.8c13.9,17.1,32.2,25.6,54.9,25.6c18.8,0,33.8-6,44.9-18.1
				c11.1-12.1,16.6-28,16.6-47.9c0-26-10.9-46.5-32.6-61.4c-21.7-14.9-51.7-23.5-89.9-26l30.4-140.5l118.5-7.1l-5.5,39.3l-101.6,4.5
				l-11.6,68.9c22.7,1.4,42.6,5.1,59.8,11.2c17.2,6.1,30.8,14,41.1,23.6c10.2,9.7,17.8,20.5,22.8,32.3c5,11.9,7.5,24.9,7.5,39.2
				c0,27.6-10.7,51.4-32.1,71.4c-21.4,20-47.9,30-79.6,30C1545.8,1886.3,1521.3,1877.2,1502.3,1858.9z"/>
			<path d="M1797.5,1724c0-16,1.9-32.1,5.8-48.3c3.9-16.2,10-32.1,18.5-47.7c8.4-15.6,18.7-29.3,30.8-41.3
				c12.1-12,27.1-21.6,45.1-28.9c18-7.3,37.7-11,59-11c38.9,0,69.8,8.7,92.7,26.1l-8.2,88.4l-18-2.6l-9.5-63.4
				c-14.8-19.2-38.4-28.8-70.8-28.8c-28.7,0-52.9,13.4-72.7,40.1c-19.8,26.8-29.7,61.2-29.7,103.5c0,47.2,11.1,83.9,33.4,110.2
				c22.3,26.3,51.3,39.5,87,39.5c17.6,0,34.6-4.2,51-12.7c16.4-8.4,30.8-19,43.3-31.7l7.7,15c-11.1,14.8-27.5,28.2-49.2,40.1
				c-21.7,12-45.4,18-70.9,18c-20.2,0-39.2-3.8-56.8-11.4c-17.6-7.6-33-18.3-46.1-32.1c-13.1-13.8-23.5-31.2-31-52
				C1801.3,1772.4,1797.5,1749.3,1797.5,1724z"/>
			<path d="M2085.3,1882.1l2.1-14.3l44.4-10l20.3-279.6l-48.6-9.8l2.4-14.8h95l19.8,50.4l75.8,207.2l88.2-217.5l17.7-40.1h95
				l-1.8,14.8l-45.1,9l14.3,282l47.8,6.9l-1.6,15.8h-131.7l2.1-14.3l44.6-10l-15-262.7l-111.7,272.5l-23.5,3.7l-99.3-268.8
				l-18.7,256.9l48.3,6.9l-2.6,15.8H2085.3z"/>
		</g>
	</g>
	<g id="PARTES-1-8">
	</g>
	<g id="PARTES-1-5">
	</g>
</g>
<g id="MEDIDAS">
</g>
<g id="ELEMENTOS-ADC">
</g>
<g id="TEXTO">
</g>
<g id="SELECTOR-MADERAS">
	<g id="SELECTOR-ELEMENTOS-MADERA">
	</g>
	<g id="SELECTOR-PUERTAS">
	</g>
	<g id="SELECTOR-TRIPLEX">
	</g>
</g>
</svg>
