<?xml version="1.0" encoding="utf-8"?>
<!-- Generator: Adobe Illustrator 26.5.0, SVG Export Plug-In . SVG Version: 6.00 Build 0)  -->
<svg version="1.1" xmlns="http://www.w3.org/2000/svg" xmlns:xlink="http://www.w3.org/1999/xlink" x="0px" y="0px"
	 viewBox="0 0 13638.7 4988.3" style="enable-background:new 0 0 13638.7 4988.3;" xml:space="preserve">
<style type="text/css">
	.st0{fill:#E6E6E6;stroke:#000000;stroke-width:21.4611;stroke-miterlimit:10;}
	.st1{stroke:#000000;stroke-width:15.4863;stroke-miterlimit:10;}
	.st2{fill:#F7F7F7;stroke:#000000;stroke-width:27.1981;stroke-miterlimit:10;}
	.st3{fill:#E6E6E6;stroke:#000000;stroke-width:41.9358;stroke-miterlimit:10;}
	.st4{fill:#FFFFFF;}
	.st5{fill:none;stroke:#000000;stroke-width:52.695;stroke-miterlimit:10;}
	.st6{fill:none;stroke:#000000;stroke-width:37.6393;stroke-miterlimit:10;}
	.st7{fill:none;stroke:#000000;stroke-width:45.1672;stroke-miterlimit:10;}
	.st8{fill:none;stroke:#000000;stroke-width:41.9358;stroke-miterlimit:10;}
</style>
<g id="ELEMENTOS">
	<g id="PARTES-7">
		<g id="TRIPLEX">
			<g>
				<polyline class="st0" points="3673.8,934.3 3877.7,798.2 12526.2,833.2 12447.2,1008.2 				"/>
				<polygon class="st0" points="12415.9,4255.7 3661,4204.8 3681,943.8 12446.7,999.5 				"/>
				<polygon class="st0" points="12488.8,4187.6 12421.1,4260.8 12452.5,1003.5 12517,849.6 				"/>
			</g>
		</g>
		<g>
			<g>
				<g>
					<polygon class="st1" points="3849.5,4366 3736.4,4404.2 3843.3,4450.3 					"/>
					<polygon class="st1" points="12259.8,4479.9 12371.2,4437.2 12262.5,4395.5 					"/>
					<line class="st2" x1="3823.3" y1="4406" x2="12292.7" y2="4434.2"/>
				</g>
				<g>
					<polygon class="st1" points="12724.4,1009.6 12679.1,899.1 12639.9,1008.8 					"/>
					<polygon class="st1" points="12611.2,4099.2 12653.3,4210.9 12695.7,4102.4 					"/>
					<line class="st2" x1="12684.5" y1="921.2" x2="12654" y2="4190.2"/>
					<g>
						<path d="M7811.5,4681.3v21.4h-27.4v53.9h-24.9v-53.9h-86.5v-19.3l94.9-135.1h16.6v133.1H7811.5z M7759.1,4681.3v-101.4
							l-71.7,101.4H7759.1z"/>
						<path d="M7963.5,4717.3l-14.4,39.3h-120.5v-5.6c34.9-33.1,59.9-59.5,74.8-79.1c14.5-20.4,21.8-39.1,21.8-56.2
							c0-6.4-1.1-12.4-3.3-17.9c-2.2-5.5-5.1-10.1-8.8-14c-3.7-3.9-7.9-7-12.8-9.2c-4.9-2.2-10.1-3.4-15.6-3.4c-10,0-19,2.9-27,8.8
							c-7.9,5.8-13.9,14.5-17.8,25.8h-5.4c2.5-18.7,9-33,19.2-42.8c10.3-9.8,23.3-14.7,39-14.7c8.2,0,15.9,1.5,23,4.4
							c7.1,2.9,13.3,6.9,18.4,11.8c5.2,4.9,9.2,10.6,12.3,17.1c3,6.4,4.5,13.2,4.5,20.2c0,10.3-1.8,19.9-5.5,28.5
							c-3.7,8.7-7.4,15.8-11.2,21.2c-3.8,5.5-9.3,12.8-16.5,21.9c-13.6,15.3-24.5,27.3-32.7,36c-8.2,8.7-16.3,16.9-24.4,24.5h53.3
							c6.7,0,12.4-0.1,17.1-0.4c4.6-0.3,8.6-1,11.8-2.1c3.2-1.1,6-2.8,8.2-5.1c2.2-2.2,4.5-5.2,6.7-9H7963.5z"/>
						<path d="M8239,4547.8l4.7,69.5h-4.7c-6.3-20.8-15.2-35.8-26.6-45c-11.5-9.1-25.3-13.7-41.5-13.7c-10.5,0-20.2,2-29,6
							c-8.8,4-16.4,10.1-22.8,18.3c-6.4,8.2-11.4,18.6-14.9,31c-3.6,12.4-5.4,27.1-5.4,44.1c0,13.6,1.7,26,5.1,37.1
							c3.4,11.1,8.3,20.6,14.8,28.4c6.5,7.9,14.5,13.9,23.9,18.2c9.4,4.3,20.3,6.4,32.6,6.4c12.9,0,24.6-2.8,35.1-8.5
							c10-5.2,21.2-16.5,33.5-33.7l4.7,2.9c-10.3,18.1-22.3,31.4-35.9,39.9c-13.6,8.5-29.8,12.7-48.7,12.7c-14.5,0-27.9-2.5-40-7.6
							c-12.1-5.1-22.6-12.3-31.4-21.5s-15.6-20.2-20.6-32.8c-4.9-12.7-7.4-26.6-7.4-41.7c0-20.5,4.6-39.3,13.7-56.2
							c9-17.1,21.5-30.3,37.5-39.6c16.2-9.4,33.7-14.2,52.6-14.2c14.8,0,29.4,3.6,43.6,10.8c4.2,2.2,7.2,3.4,9,3.4
							c3.3,0,6-1.3,8.2-4c2.2-2.7,3.7-6.1,4.6-10.1H8239z"/>
						<path d="M8385.1,4756.6l-78.9-171.7v136.4c0,7,0.5,12.6,1.5,16.5c1,4,2.4,6.9,4.3,8.9c1.9,1.9,4.2,3.1,6.9,3.6
							s5.8,0.7,9.2,0.7h7.2v5.6h-71v-5.6h7.2c3.6,0,6.7-0.3,9.4-0.8c2.7-0.5,4.9-1.8,6.7-3.8c1.8-2,3.1-5,4-9
							c0.9-4,1.3-9.3,1.3-16.1v-133.5c0-4.8-0.2-9-0.7-12.7c-0.4-3.7-1.6-6.8-3.5-9.3c-1.9-2.5-4.7-4.5-8.5-5.8
							c-3.8-1.3-9.2-2-16.1-2v-5.6h57.8l74.2,159.8l72.8-159.8h57.8v5.6h-7c-3.7,0-7,0.3-9.7,0.9c-2.7,0.6-4.9,1.9-6.7,3.9
							s-3.1,5-4,9c-0.9,4-1.3,9.3-1.3,16.1v133.5c0,7,0.5,12.6,1.5,16.5c1,4,2.4,6.9,4.3,8.9c1.9,1.9,4.2,3.1,6.9,3.6
							c2.7,0.4,5.8,0.7,9.2,0.7h7v5.6H8440v-5.6h7.2c3.6,0,6.7-0.3,9.4-0.9c2.7-0.6,5-1.9,6.9-3.9c1.9-2,3.3-5,4.2-8.9
							c0.9-3.9,1.3-9.2,1.3-16v-136.4l-78.7,171.7H8385.1z"/>
					</g>
					<g>
						<path d="M12764.1,2413l48.9-23.9h4.9v169.7c0,5.9,0.1,10.5,0.2,13.8c0.1,3.3,0.5,5.9,1.1,7.6c0.6,1.8,1.3,3,2.2,3.8
							c0.9,0.7,2.1,1.5,3.8,2.2c2.9,1.6,9,2.4,18.1,2.4v5.5h-75.7v-5.5c4.9,0,8.8-0.2,11.7-0.7c2.9-0.4,5.2-1,6.9-1.7
							c1.6-0.7,2.8-1.5,3.7-2.5c0.8-1,1.4-2.1,1.9-3.3c1-2.2,1.5-9.4,1.5-21.7v-108.6c0-8.6-0.2-15.3-0.6-20.2
							c-0.4-4.9-1-8.6-1.9-11c-0.9-2.4-2.1-3.9-3.5-4.5c-1.5-0.7-3.4-1-5.8-1c-4.1,0-9.2,1.3-15.3,4L12764.1,2413z"/>
						<path d="M13019.4,2555.4l-14.2,38.7h-118.6v-5.5c34.4-32.6,58.9-58.5,73.7-77.9c14.3-20.1,21.5-38.5,21.5-55.3
							c0-6.3-1.1-12.2-3.2-17.6c-2.1-5.4-5-10-8.6-13.8c-3.6-3.8-7.8-6.9-12.6-9.1c-4.8-2.2-9.9-3.3-15.4-3.3
							c-9.9,0-18.7,2.9-26.5,8.6c-7.8,5.8-13.6,14.2-17.5,25.4h-5.3c2.5-18.4,8.8-32.5,18.9-42.1c10.1-9.7,22.9-14.5,38.4-14.5
							c8.1,0,15.7,1.4,22.7,4.3c7,2.9,13.1,6.7,18.1,11.6c5.1,4.9,9.1,10.5,12.1,16.8c2.9,6.3,4.4,13,4.4,19.9
							c0,10.2-1.8,19.5-5.4,28.1c-3.6,8.6-7.3,15.5-11.1,20.9c-3.8,5.4-9.2,12.6-16.3,21.6c-13.4,15-24.2,26.8-32.2,35.4
							c-8,8.6-16,16.6-24,24.1h52.4c6.6,0,12.2-0.1,16.8-0.4c4.6-0.3,8.4-1,11.6-2.1c3.2-1.1,5.9-2.8,8.1-5c2.2-2.2,4.4-5.2,6.6-8.8
							H13019.4z"/>
						<path d="M13290.6,2388.6l4.6,68.4h-4.6c-6.2-20.5-14.9-35.2-26.2-44.2c-11.3-9-24.9-13.5-40.8-13.5c-10.3,0-19.8,2-28.5,5.9
							c-8.7,3.9-16.2,9.9-22.5,18c-6.3,8.1-11.2,18.3-14.7,30.5c-3.5,12.2-5.3,26.7-5.3,43.4c0,13.4,1.7,25.6,5,36.5
							c3.3,10.9,8.2,20.2,14.6,28c6.4,7.7,14.3,13.7,23.6,17.9c9.3,4.2,20,6.3,32.1,6.3c12.7,0,24.2-2.8,34.5-8.4
							c9.9-5.2,20.9-16.2,33-33.2l4.6,2.9c-10.2,17.8-21.9,30.9-35.3,39.3c-13.3,8.3-29.3,12.5-47.9,12.5c-14.3,0-27.4-2.5-39.4-7.5
							c-11.9-5-22.2-12.1-30.9-21.1c-8.6-9.1-15.4-19.8-20.2-32.3c-4.9-12.5-7.3-26.1-7.3-41c0-20.2,4.5-38.6,13.5-55.3
							c8.8-16.8,21.2-29.8,36.9-38.9c15.9-9.3,33.2-13.9,51.8-13.9c14.6,0,28.9,3.5,42.9,10.6c4.1,2.2,7.1,3.3,8.8,3.3
							c3.2,0,5.9-1.3,8.1-4c2.1-2.7,3.7-6,4.5-10H13290.6z"/>
						<path d="M13434.4,2594.2l-77.6-169v134.3c0,6.9,0.5,12.4,1.4,16.3c1,3.9,2.4,6.8,4.2,8.7c1.8,1.9,4.1,3.1,6.7,3.5
							c2.7,0.4,5.7,0.7,9.1,0.7h7.1v5.5h-69.9v-5.5h7.1c3.5,0,6.6-0.3,9.3-0.8c2.7-0.5,4.9-1.8,6.6-3.8c1.8-2,3.1-4.9,4-8.8
							c0.9-3.9,1.3-9.2,1.3-15.8V2428c0-4.7-0.2-8.9-0.7-12.5c-0.4-3.6-1.6-6.7-3.4-9.2c-1.8-2.5-4.6-4.4-8.4-5.8s-9-2-15.8-2v-5.5
							h56.9l73,157.3l71.7-157.3h56.9v5.5h-6.9c-3.7,0-6.9,0.3-9.5,0.9c-2.7,0.6-4.9,1.9-6.6,3.9c-1.8,2-3.1,4.9-4,8.8
							c-0.9,3.9-1.3,9.2-1.3,15.8v131.4c0,6.9,0.5,12.4,1.4,16.3c1,3.9,2.4,6.8,4.2,8.7c1.8,1.9,4.1,3.1,6.7,3.5s5.7,0.7,9.1,0.7
							h6.9v5.5h-85.4v-5.5h7.1c3.5,0,6.6-0.3,9.3-0.9c2.7-0.6,4.9-1.9,6.7-3.9c1.8-2,3.2-4.9,4.1-8.7c0.9-3.8,1.3-9.1,1.3-15.7
							v-134.3l-77.4,169H13434.4z"/>
					</g>
					<g>
						<path d="M6015.5,2694.8v96.9h44.8c5.2,0,9.7-0.5,13.4-1.5c3.7-1,6.8-2.8,9.4-5.3c2.5-2.5,4.5-6,6-10.3
							c1.4-4.3,2.6-9.9,3.5-16.6h6.8v83.3h-6.8c-0.2-6.1-0.8-11.4-1.9-15.7c-1.1-4.3-2.8-7.9-5.3-10.7c-2.4-2.8-5.7-4.8-9.8-6.1
							c-4.1-1.3-9.2-1.9-15.3-1.9h-44.8v77.3c0,5.8,0.1,10.5,0.3,14.1c0.2,3.6,0.6,6.6,1.4,9c0.7,2.4,1.8,4.2,3.1,5.6
							c1.4,1.4,3.1,2.7,5.3,3.9c5.1,2.9,10.6,4.3,16.6,4.3h9v6.8h-105.8v-6.8h8.7c4.3,0,8.2-0.3,11.5-0.9c3.3-0.6,6.1-2.2,8.3-4.6
							c2.2-2.4,3.8-6.1,5-11.1c1.2-5,1.8-11.7,1.8-20.2v-159.3c0-5.6-0.1-10.3-0.4-14c-0.3-3.7-0.7-6.7-1.4-9.1
							c-0.6-2.3-1.6-4.2-2.8-5.7c-1.3-1.4-3-2.7-5.2-3.8c-2.7-1.4-5.4-2.5-8.1-3.3c-2.7-0.7-5.6-1.1-8.7-1.1h-8.7v-6.8h183.4v54.3
							h-4.1c-2.4-8.9-5-16-8-21.3c-3-5.3-6.6-9.5-10.9-12.3c-4.3-2.9-9.3-4.8-15.1-5.7c-5.8-0.9-12.8-1.4-20.9-1.4H6015.5z"/>
						<path d="M6397.8,2927.9h-65.7l-83.6-115.3c-3.1,0.2-5.8,0.3-8.3,0.4c-2.4,0.1-4.7,0.1-6.6,0.1c-1.6,0-3.3,0-5.2-0.1
							c-1.8-0.1-3.7-0.2-5.7-0.4v71.6c0,8.7,0.6,15.5,1.8,20.5c1.2,5,2.9,8.7,5.2,11.1c2.3,2.4,5,3.9,8.1,4.5
							c3.2,0.5,6.7,0.8,10.7,0.8h9.8v6.8h-105.8v-6.8h9.5c10.1,0,17.5-3.3,22.3-10c2.5-4,3.8-12.9,3.8-26.9v-159.3
							c0-15.2-1.7-24.8-5.2-28.8c-4.7-5.4-11.7-8.1-20.9-8.1h-9.5v-6.8h89.8c13.2,0,24.6,0.5,34.2,1.5c9.6,1,17.5,2.5,23.6,4.5
							c6.1,2,11.9,4.7,17.4,8.3c5.4,3.5,10.2,7.8,14.2,12.8c4.1,5,7.3,10.5,9.6,16.7c2.3,6.2,3.5,12.8,3.5,19.8
							c0,15.4-4.9,28.6-14.7,39.6c-9.8,11-25.1,18.9-45.9,23.6l50.7,70.6c6,8.1,11.3,14.8,15.9,20.1c4.6,5.2,9.2,9.4,13.8,12.5
							c4.6,3.1,9.5,5.3,14.7,6.8c5.2,1.5,11.3,2.5,18.3,3.3V2927.9z M6222.8,2801.1c2.4,0,4.4,0,6.1,0.1c1.7,0.1,3.1,0.1,4.2,0.1
							c11.8,0,22.1-1.4,30.9-4.1c8.9-2.7,16.3-6.5,22.3-11.4c6-4.9,10.4-10.6,13.4-17.2c3-6.6,4.5-13.8,4.5-21.6
							c0-7.6-1.3-14.6-3.8-21c-2.5-6.4-6.2-11.9-10.9-16.6c-4.7-4.6-10.3-8.2-16.8-10.7c-6.5-2.5-13.7-3.8-21.4-3.8
							c-7.4,0-16.9,1.2-28.5,3.5V2801.1z"/>
						<path d="M6530.8,2675.8c15.7,0,30.8,3.3,45,9.8c14.3,6.5,26.9,15.5,37.7,26.9c10.9,11.4,19.5,24.8,25.9,40.3
							c6.4,15.5,9.6,32.2,9.6,50.3c0,18.6-3.2,35.9-9.6,51.8c-6.4,15.9-15.1,29.7-26.1,41.4c-10.9,11.7-23.8,20.8-38.5,27.4
							c-14.7,6.6-30.4,9.9-47.1,9.9c-16.8,0-32.6-3.2-47.2-9.5c-14.7-6.3-27.4-15.2-38.1-26.7c-10.8-11.5-19.3-25.2-25.5-41.1
							c-6.2-15.9-9.4-33.5-9.4-52.6c0-17.7,3.1-34.4,9.4-49.9c6.2-15.6,14.8-29.1,25.8-40.6c10.9-11.5,23.9-20.6,38.9-27.3
							C6496.7,2679.1,6513,2675.8,6530.8,2675.8z M6527.2,2689.1c-12.5,0-23.6,2.7-33.2,8c-9.7,5.3-17.8,12.9-24.4,22.8
							c-6.6,9.9-11.6,21.8-15.1,35.8c-3.4,14-5.2,29.8-5.2,47.4c0,17.4,1.7,33.2,5,47.6c3.3,14.4,8.3,26.8,14.9,37.2
							c6.6,10.4,14.8,18.5,24.6,24.2c9.8,5.7,21,8.5,33.6,8.5c11.4,0,21.9-2.2,31.6-6.5c9.7-4.3,18.1-11.1,25.4-20.2
							c7.2-9.1,12.9-20.8,17-35c4.1-14.2,6.1-31.2,6.1-50.9c0-18.6-1.7-35.3-5-50.1c-3.3-14.7-8.4-27.2-15.2-37.4
							c-6.8-10.2-15.2-18-25.2-23.3C6552.1,2691.7,6540.5,2689.1,6527.2,2689.1z"/>
						<path d="M6658.6,2681.2h66.8l150.9,185.1v-142.2c0-8.3-0.6-14.9-1.8-19.8c-1.2-4.9-2.9-8.5-5.2-10.9c-2.3-2.3-5-3.8-8.3-4.5
							c-3.3-0.6-7-0.9-11.1-0.9h-8.7v-6.8h86v6.8h-9c-4.3,0-8.1,0.4-11.4,1.1c-3.3,0.7-6,2.4-8.1,4.9c-2.2,2.5-3.8,6.2-4.9,10.9
							c-1.1,4.7-1.6,11.1-1.6,19.3v207.9h-6.5l-162.5-198.6v152c0,8.5,0.6,15.2,1.8,19.9c1.2,4.8,2.8,8.4,5,10.7
							c2.2,2.4,4.9,3.8,8.1,4.3c3.3,0.5,7,0.8,11.1,0.8h8.7v6.8h-85.8v-6.8h8.7c4.3,0,8.1-0.4,11.4-1.1c3.3-0.7,6-2.3,8.3-4.7
							c2.3-2.4,3.9-6,5-10.7c1.1-4.7,1.6-11.1,1.6-19.3v-171.5c-3.6-4.3-6.6-7.8-9.1-10.3c-2.4-2.5-4.8-4.6-6.9-6.2
							c-2.2-1.6-4.5-3-7.1-4.1c-2.5-1.1-5.7-2.3-9.5-3.5c-3.6-1.1-9-1.6-16-1.6V2681.2z"/>
						<path d="M7147.8,2681.2v58.1h-4.1c-2-15.6-6.6-26.5-13.7-33c-7.1-6.4-17.7-9.6-31.6-9.6h-34.7v188.6c0,8.3,0.6,14.9,1.8,19.7
							c1.2,4.8,2.8,8.4,5,10.7c2.2,2.4,4.9,3.8,8.1,4.5c3.3,0.6,7.1,0.9,11.4,0.9h8.4v6.8H6994v-6.8h8.7c4.3,0,8.1-0.4,11.4-1.1
							c3.3-0.7,6-2.3,8.1-4.7c2.2-2.4,3.8-6,5-10.7c1.2-4.7,1.8-11.1,1.8-19.3v-188.6h-29.6c-7.4,0-14,0.6-19.7,1.8
							c-5.7,1.2-10.6,3.3-14.8,6.5c-4.2,3.2-7.5,7.5-9.9,13c-2.4,5.5-3.9,12.6-4.5,21.3h-6.8v-58.1H7147.8z"/>
						<path d="M7300.4,2845.4h-95.5l-16.8,38.8c-4,9.6-6,16.7-6,21.4c0,2,0.3,3.8,1,5.4c0.6,1.6,2,3.1,4.1,4.5
							c2.1,1.4,5,2.5,8.7,3.5c3.7,1,8.6,1.7,14.8,2v6.8h-77.6v-6.8c6.1-0.9,11.1-2.3,14.9-4.1c3.8-1.8,7.1-4.3,9.8-7.5
							c2.7-3.2,5.2-7.3,7.5-12.3c2.3-5.1,5-11.3,8.3-18.7l86.8-202.7h6.2l85.8,204.9c3.4,8.5,6.6,15.3,9.6,20.5
							c3,5.2,6.1,9.2,9.2,12.1c3.2,2.9,6.6,4.9,10.3,6c3.7,1.1,8.2,1.7,13.4,1.9v6.8h-97.4v-6.8c9.8-0.4,16.4-1.9,19.9-4.7
							c3.5-2.8,5.3-6.2,5.3-10.2c-0.2-5.2-2.6-13.7-7.3-25.5L7300.4,2845.4z M7295.2,2831.8l-41.8-99.6l-42.9,99.6H7295.2z"/>
						<path d="M7612.4,2859.7l6,1.1l-21.2,67h-191v-6.8h9.5c10.1,0,17.5-3.3,22.3-10c2.5-4,3.8-12.9,3.8-26.9v-159.3
							c0-15.2-1.7-24.8-5.2-28.8c-4.7-5.4-11.7-8.1-20.9-8.1h-9.5v-6.8H7518v6.8c-6.7,0-12.3,0.3-16.7,0.9c-4.4,0.6-8.1,1.5-11,2.7
							c-2.9,1.2-5.2,2.6-6.8,4.2c-1.6,1.6-3,3.4-4.1,5.4c-1.8,3.6-2.7,12.9-2.7,28v154.9c0,8.5,0.6,14.7,1.9,18.5
							c1.3,3.8,3.8,6.4,7.6,7.9c3.3,1.1,12.8,1.6,28.5,1.6h17.9c19,0,32.3-1.4,39.9-4.1c3.8-1.3,7.4-3.1,10.9-5.4
							c3.4-2.3,6.8-5.4,10-9.2c3.3-3.8,6.4-8.4,9.5-13.8C7606,2874.1,7609.2,2867.5,7612.4,2859.7z"/>
						<path d="M7876.2,2675.8v85.2h-6.8c-3.1-23-10.6-40.5-22.5-52.6c-11.9-12.1-27.1-18.2-45.6-18.2c-6.3,0-12.1,1.1-17.4,3.3
							c-5.3,2.2-9.9,5-13.8,8.5c-4,3.5-7.1,7.6-9.2,12.1c-2.2,4.5-3.3,9.2-3.3,14.1c0,4.5,0.9,8.8,2.7,12.9
							c1.8,4.1,7.4,10.4,16.8,19.1c15.7,10,29.8,18.2,42.1,24.7c11.6,6.3,27.2,15.9,46.9,28.8c8.5,6.5,15,14.2,19.5,23.2
							c4.5,9,6.8,18.3,6.8,28.1c0,9.2-1.9,18-5.7,26.3c-3.8,8.3-9.1,15.6-15.9,21.8c-6.8,6.2-15,11.2-24.6,14.9
							c-9.6,3.7-20.1,5.6-31.5,5.6c-7.2,0-13.9-0.5-20.1-1.6c-1.1-0.2-3.9-0.9-8.5-2.3c-4.6-1.4-9.5-2.8-14.8-4.2
							c-5.2-1.4-10.1-2.8-14.7-4.1c-4.5-1.3-7.1-1.9-7.9-1.9c-3.1,0-5.5,0.9-7.2,2.7c-1.7,1.8-3,5.6-3.9,11.4h-6.8v-84.7h6.8
							c3.3,17.4,7.5,30.7,12.8,39.9c2.5,4.3,5.9,8.4,10.2,12.1c4.2,3.7,9,7,14.4,9.8c5.3,2.8,11.1,5,17.2,6.5
							c6.1,1.5,12.4,2.3,18.7,2.3c7.6,0,14.4-1.1,20.5-3.3c6.1-2.2,11.2-5.1,15.5-8.8c4.2-3.7,7.5-8,9.8-12.9
							c2.3-4.9,3.4-10,3.4-15.5c0-6.1-1.7-12.3-5-18.5c-3.3-6.1-9-12.2-17-18.2c-7.8-4.7-17-10.2-27.7-16.6
							c-20.4-11.8-38.6-23.1-54.5-33.9c-8.9-7.1-15.6-14.8-20.2-23.2c-4.6-8.4-6.9-17.8-6.9-28.1c0-8.7,1.8-17,5.4-24.8
							c3.6-7.9,8.6-14.8,15.1-20.8c6.4-6,14.1-10.7,22.9-14.1c8.9-3.4,18.5-5.2,28.8-5.2c13,0,26.9,3.2,41.5,9.5
							c3.4,1.5,6.3,2.6,8.7,3.5c2.3,0.9,4.2,1.3,5.7,1.1c3.3,0,5.9-0.9,7.9-2.7c2-1.8,3.5-5.6,4.6-11.4H7876.2z"/>
						<path d="M8027.3,2921.1v6.8h-105.6v-6.8h8.7c4.3,0,8.2-0.3,11.5-0.9c3.3-0.6,6.1-2.2,8.3-4.6c2.2-2.4,3.8-6.1,5-11.1
							c1.2-5,1.8-11.7,1.8-20.2v-159.3c0-5.6-0.1-10.3-0.4-14c-0.3-3.7-0.7-6.7-1.4-9.1c-0.6-2.3-1.6-4.2-2.9-5.6
							c-1.3-1.4-3-2.7-5.2-3.9c-5.4-2.9-11-4.3-16.8-4.3h-8.7v-6.8h105.6v6.8h-8.7c-4.3,0-8.2,0.4-11.5,1.1
							c-3.4,0.7-6.1,2.3-8.3,4.7c-2.2,2.4-3.8,6.2-5,11.1c-1.2,5-1.8,11.6-1.8,19.9v159.3c0,5.8,0.1,10.5,0.3,14.1
							c0.2,3.6,0.6,6.6,1.4,9c0.7,2.4,1.8,4.2,3.1,5.6c1.4,1.4,3.1,2.7,5.3,3.9c5.1,2.9,10.6,4.3,16.6,4.3H8027.3z"/>
						<path d="M8042.8,2927.9v-6.8h9.5c4.2,0,7.9-0.4,11.1-1.1c3.3-0.7,6-2.3,8.1-4.9c2.2-2.5,3.8-6.2,5-11.1
							c1.2-4.9,1.8-11.5,1.8-19.8v-159.3c0-15.2-1.7-24.8-5.2-28.8c-4.7-5.4-11.7-8.1-20.9-8.1h-9.5v-6.8h100.4
							c36.5,0,64.6,4.3,84.1,12.8c19.4,8.5,34.8,22.4,46.4,41.8c11.8,19.7,17.6,42.2,17.6,67.6c0,18.3-2.9,35-8.8,50.2
							c-5.9,15.2-14.7,28.3-26.3,39.3c-11.7,11-26.1,19.6-43.3,25.8c-17.2,6.2-37.2,9.2-60,9.2H8042.8z M8113.3,2909.9
							c15,3.4,27.9,5.2,38.5,5.2c13.9,0,26.9-2.6,38.8-7.7c11.9-5.2,22.3-12.5,31.1-22c8.8-9.5,15.6-21,20.6-34.6
							c5-13.6,7.5-28.8,7.5-45.6c0-17-2.4-32.3-7.3-46c-4.9-13.7-11.8-25.2-20.6-34.7c-8.9-9.5-19.4-16.8-31.5-21.8
							c-12.1-5.1-25.4-7.6-39.9-7.6c-10.7,0-23.1,1.8-37.2,5.4V2909.9z"/>
						<path d="M8383.4,2694.8v97.4h54c8,0,14.4-0.7,19.3-2.2c4.9-1.4,8.7-3.6,11.5-6.5c2.8-2.9,4.7-6.6,5.8-11.1
							c1.1-4.5,1.8-9.9,2.2-16h6.8v85.8h-6.8c-0.9-7.1-1.9-12.9-3.1-17.6c-1.2-4.7-3.1-8.5-5.7-11.3c-2.6-2.8-6.3-4.8-11-6
							c-4.7-1.2-11-1.8-19-1.8h-54v81.4c0,6.2,0.1,11,0.3,14.7c0.2,3.6,0.9,6.4,2.2,8.3c1.3,1.9,3.3,3.1,6,3.7
							c2.7,0.5,6.7,0.8,11.9,0.8h41.8c7.1,0,13-0.2,17.9-0.5c4.9-0.4,9.1-1.1,12.6-2.2c3.5-1.1,6.6-2.6,9.4-4.5
							c2.7-1.9,5.6-4.3,8.7-7.2c7.2-7.1,14.9-18.4,23.1-33.9h7.3l-21.4,61.9h-190v-6.8h8.7c2.3,0,4.8-0.3,7.3-0.8
							c2.5-0.5,4.9-1.3,7.2-2.3c2.3-1,4.3-2.3,6.1-3.9c1.8-1.6,3.1-3.5,3.8-5.7c1.4-4,2.2-11.9,2.2-23.9v-160.1
							c0-15.7-1.5-25.4-4.6-29c-4.3-4.9-11.7-7.3-22-7.3h-8.7v-6.8h190v54h-4.3c-1.8-8.9-3.8-16-5.8-21.3c-2.1-5.3-4.8-9.5-8.3-12.3
							c-3.4-2.9-7.8-4.7-13.2-5.6c-5.3-0.8-12.2-1.2-20.5-1.2H8383.4z"/>
						<path d="M8637.3,2669.2l-89.3,263.8h-14.7l89.3-263.8H8637.3z"/>
						<path d="M8808.3,2801.9c9.9,2.2,18.5,5.2,25.6,9c7.1,3.8,12.9,8.2,17.4,13.3c4.4,5.1,7.7,10.7,9.8,16.8
							c2.1,6.2,3.1,12.6,3.1,19.3c0,6.2-1,12.2-3,18.2c-2,6-4.8,11.6-8.5,17c-3.7,5.3-8.3,10.1-13.7,14.4
							c-5.4,4.3-11.6,7.7-18.5,10.4c-13,5.1-33.6,7.6-61.6,7.6h-116.4v-6.8h9.2c4.2,0,7.9-0.4,11.1-1.1c3.3-0.7,6-2.3,8.3-4.9
							c2.3-2.5,4-6.2,5.2-11.1c1.2-4.9,1.8-11.5,1.8-19.8v-159.3c0-8.7-0.6-15.5-1.9-20.4c-1.3-4.9-3.1-8.5-5.4-11
							c-2.4-2.4-5.2-4-8.4-4.6c-3.3-0.6-6.8-0.9-10.6-0.9h-9.2v-6.8h106.4c34.2,0,60.1,5.8,77.7,17.4c17.6,11.6,26.5,27.8,26.5,48.6
							c0,12.5-3.8,23.6-11.4,33.2C8834.1,2790.1,8823,2797.2,8808.3,2801.9z M8713.1,2792.2c4.5,0.9,9.6,1.6,15.3,2
							c5.7,0.5,12,0.7,18.9,0.7c24.1,0,41.3-4.3,51.8-13c10.5-8.7,15.7-20.7,15.7-36.1c0-7.1-1.5-13.8-4.5-20.2
							c-3-6.4-7.4-12-13.2-16.7c-5.8-4.7-13-8.5-21.6-11.3c-8.6-2.8-18.6-4.2-30-4.2c-12.3,0-23.2,1.4-32.6,4.1V2792.2z
							 M8713.1,2909.9c13.7,3.3,27.6,4.9,41.5,4.9c11,0,20.8-1.4,29.3-4.1c8.5-2.7,15.6-6.4,21.2-11c5.6-4.6,9.9-10,12.8-16.3
							c2.9-6.2,4.3-12.9,4.3-19.9c0-7.8-1.5-15.1-4.6-22c-3.1-6.9-7.8-12.8-14.2-17.9c-6.4-5.1-14.5-9-24.2-11.9
							c-9.7-2.9-21-4.3-34.1-4.3c-7.6,0-14,0.1-19.3,0.3c-5.2,0.2-9.5,0.6-12.8,1.4V2909.9z"/>
						<path d="M9055,2845.4h-95.5l-16.8,38.8c-4,9.6-6,16.7-6,21.4c0,2,0.3,3.8,1,5.4c0.6,1.6,2,3.1,4.1,4.5c2.1,1.4,5,2.5,8.7,3.5
							c3.7,1,8.6,1.7,14.8,2v6.8h-77.6v-6.8c6.1-0.9,11.1-2.3,14.9-4.1c3.8-1.8,7.1-4.3,9.8-7.5c2.7-3.2,5.2-7.3,7.5-12.3
							c2.3-5.1,5-11.3,8.3-18.7l86.8-202.7h6.2l85.8,204.9c3.4,8.5,6.6,15.3,9.6,20.5c3,5.2,6.1,9.2,9.2,12.1
							c3.2,2.9,6.6,4.9,10.3,6c3.7,1.1,8.2,1.7,13.4,1.9v6.8H9052v-6.8c9.8-0.4,16.4-1.9,19.9-4.7c3.5-2.8,5.3-6.2,5.3-10.2
							c-0.2-5.2-2.6-13.7-7.3-25.5L9055,2845.4z M9049.8,2831.8l-41.8-99.6l-42.9,99.6H9049.8z"/>
						<path d="M9377.6,2675.8l5.7,83.9h-5.7c-7.6-25.1-18.3-43.2-32.2-54.3c-13.8-11-30.5-16.6-50.1-16.6c-12.7,0-24.3,2.4-35,7.2
							c-10.7,4.8-19.9,12.2-27.5,22.1c-7.7,10-13.7,22.4-18,37.4c-4.3,15-6.5,32.7-6.5,53.2c0,16.5,2,31.4,6.1,44.8
							c4.1,13.4,10,24.8,17.9,34.3c7.9,9.5,17.5,16.8,28.9,22c11.4,5.2,24.5,7.7,39.3,7.7c15.6,0,29.7-3.4,42.3-10.3
							c12.1-6.3,25.6-19.9,40.4-40.7l5.7,3.5c-12.5,21.9-26.9,37.9-43.3,48.2c-16.4,10.2-36,15.3-58.8,15.3
							c-17.5,0-33.6-3.1-48.3-9.2c-14.7-6.1-27.3-14.8-37.9-25.9c-10.6-11.1-18.9-24.3-24.8-39.6c-6-15.3-9-32.1-9-50.3
							c0-24.8,5.5-47.4,16.6-67.8c10.9-20.6,26-36.5,45.3-47.8c19.5-11.4,40.7-17.1,63.5-17.1c17.9,0,35.5,4.3,52.6,13
							c5.1,2.7,8.7,4.1,10.9,4.1c4,0,7.3-1.6,9.9-4.9c2.6-3.3,4.5-7.3,5.6-12.2H9377.6z"/>
						<path d="M9513,2791.1l90.9,90.4c7.6,7.6,14.5,13.9,20.6,18.9c6.1,5,11.9,9,17.4,11.9c5.4,3,10.7,5.2,15.9,6.5
							c5.2,1.4,10.4,2.1,15.9,2.3v6.8h-117.2v-6.8c7.8,0,13-1.4,15.7-4.1s4.1-5.6,4.1-8.7c0-1.3-0.1-2.4-0.3-3.4
							c-0.2-1-0.7-2.1-1.5-3.4c-0.8-1.3-2.1-2.9-3.9-4.9c-1.8-2-4.3-4.5-7.3-7.6l-85.2-84.4v79.5c0,5.8,0.1,10.5,0.4,14.1
							c0.3,3.6,0.7,6.6,1.4,9c0.6,2.4,1.6,4.2,3,5.6c1.4,1.4,3.1,2.7,5.3,3.9c5.2,2.9,10.8,4.3,16.6,4.3h8.4v6.8h-105v-6.8h8.7
							c10.1,0,17.5-3,22.2-9c2.9-4,4.3-13.3,4.3-27.9v-159.3c0-5.4-0.1-10-0.3-13.7c-0.2-3.7-0.6-6.7-1.4-9.1
							c-0.7-2.3-1.7-4.3-3-5.8c-1.3-1.5-3-2.8-5.2-3.9c-5.8-2.9-11.4-4.3-16.8-4.3h-8.7v-6.8h105v6.8h-8.4c-4.5,0-9.3,1-14.2,3
							c-5,2-8.4,5.3-10.2,10c-1.4,4-2.2,11.9-2.2,23.9v75.4c0.2-0.2,1.4-1.3,3.7-3.4c2.3-2.1,4.8-4.4,7.6-6.9
							c2.8-2.5,5.5-5.1,8.1-7.6c2.6-2.5,4.5-4.2,5.6-5.2c13.2-12.1,24.3-22.5,33.4-31.2c9-8.7,16.3-16.1,21.7-22.1
							c5.4-6.1,9.3-11.1,11.7-15.2c2.3-4.1,3.5-7.5,3.5-10.2c0-2.9-1.3-5.4-3.8-7.5c-2.5-2.1-6.9-3.1-13-3.1h-5.7v-6.8h90.6v6.8
							c-3.3,0.2-6.6,0.5-9.9,0.9c-3.3,0.5-7.1,1.6-11.1,3.4c-4.1,1.8-8.7,4.6-14,8.4c-5.2,3.8-11.5,9-18.7,15.7
							c-1.4,1.3-5.2,5-11.1,11.3c-6,6.2-14.6,14.9-25.8,25.9L9513,2791.1z"/>
						<path d="M9934.4,2675.8v85.2h-6.8c-3.1-23-10.6-40.5-22.5-52.6c-11.9-12.1-27.1-18.2-45.6-18.2c-6.3,0-12.1,1.1-17.4,3.3
							c-5.2,2.2-9.9,5-13.8,8.5c-4,3.5-7.1,7.6-9.2,12.1c-2.2,4.5-3.3,9.2-3.3,14.1c0,4.5,0.9,8.8,2.7,12.9
							c1.8,4.1,7.4,10.4,16.8,19.1c15.7,10,29.8,18.2,42.1,24.7c11.6,6.3,27.2,15.9,46.9,28.8c8.5,6.5,15,14.2,19.5,23.2
							c4.5,9,6.8,18.3,6.8,28.1c0,9.2-1.9,18-5.7,26.3c-3.8,8.3-9.1,15.6-15.9,21.8c-6.8,6.2-15,11.2-24.6,14.9
							c-9.6,3.7-20.1,5.6-31.5,5.6c-7.2,0-13.9-0.5-20.1-1.6c-1.1-0.2-3.9-0.9-8.5-2.3c-4.6-1.4-9.5-2.8-14.8-4.2
							c-5.2-1.4-10.1-2.8-14.7-4.1c-4.5-1.3-7.1-1.9-7.9-1.9c-3.1,0-5.5,0.9-7.2,2.7c-1.7,1.8-3,5.6-3.9,11.4h-6.8v-84.7h6.8
							c3.3,17.4,7.5,30.7,12.8,39.9c2.5,4.3,5.9,8.4,10.2,12.1c4.2,3.7,9,7,14.4,9.8c5.3,2.8,11.1,5,17.2,6.5
							c6.1,1.5,12.4,2.3,18.7,2.3c7.6,0,14.4-1.1,20.5-3.3c6.1-2.2,11.2-5.1,15.5-8.8c4.2-3.7,7.5-8,9.8-12.9
							c2.3-4.9,3.4-10,3.4-15.5c0-6.1-1.7-12.3-5-18.5c-3.3-6.1-9-12.2-17-18.2c-7.8-4.7-17-10.2-27.7-16.6
							c-20.4-11.8-38.6-23.1-54.5-33.9c-8.9-7.1-15.6-14.8-20.2-23.2c-4.6-8.4-6.9-17.8-6.9-28.1c0-8.7,1.8-17,5.4-24.8
							c3.6-7.9,8.6-14.8,15.1-20.8c6.4-6,14.1-10.7,22.9-14.1c8.9-3.4,18.5-5.2,28.8-5.2c13,0,26.9,3.2,41.5,9.5
							c3.4,1.5,6.3,2.6,8.7,3.5c2.3,0.9,4.2,1.3,5.7,1.1c3.3,0,5.9-0.9,7.9-2.7c2-1.8,3.5-5.6,4.6-11.4H9934.4z"/>
						<path d="M10085.6,2921.1v6.8H9980v-6.8h8.7c4.3,0,8.2-0.3,11.5-0.9c3.3-0.6,6.1-2.2,8.3-4.6c2.2-2.4,3.8-6.1,5-11.1
							c1.2-5,1.8-11.7,1.8-20.2v-159.3c0-5.6-0.1-10.3-0.4-14c-0.3-3.7-0.7-6.7-1.4-9.1c-0.6-2.3-1.6-4.2-2.8-5.6
							c-1.3-1.4-3-2.7-5.2-3.9c-5.4-2.9-11-4.3-16.8-4.3h-8.7v-6.8h105.6v6.8h-8.7c-4.3,0-8.2,0.4-11.5,1.1
							c-3.4,0.7-6.1,2.3-8.3,4.7c-2.2,2.4-3.8,6.2-5,11.1c-1.2,5-1.8,11.6-1.8,19.9v159.3c0,5.8,0.1,10.5,0.3,14.1
							c0.2,3.6,0.6,6.6,1.4,9c0.7,2.4,1.8,4.2,3.1,5.6c1.4,1.4,3.1,2.7,5.3,3.9c5.1,2.9,10.6,4.3,16.6,4.3H10085.6z"/>
						<path d="M10101.1,2927.9v-6.8h9.5c4.2,0,7.9-0.4,11.1-1.1c3.3-0.7,6-2.3,8.1-4.9c2.2-2.5,3.8-6.2,5-11.1
							c1.2-4.9,1.8-11.5,1.8-19.8v-159.3c0-15.2-1.7-24.8-5.2-28.8c-4.7-5.4-11.7-8.1-20.9-8.1h-9.5v-6.8h100.4
							c36.5,0,64.6,4.3,84.1,12.8c19.4,8.5,34.8,22.4,46.4,41.8c11.8,19.7,17.6,42.2,17.6,67.6c0,18.3-2.9,35-8.8,50.2
							c-5.9,15.2-14.7,28.3-26.3,39.3c-11.7,11-26.1,19.6-43.3,25.8c-17.2,6.2-37.2,9.2-60,9.2H10101.1z M10171.6,2909.9
							c15,3.4,27.9,5.2,38.5,5.2c13.9,0,26.9-2.6,38.8-7.7c11.9-5.2,22.3-12.5,31.1-22c8.8-9.5,15.6-21,20.6-34.6
							c5-13.6,7.5-28.8,7.5-45.6c0-17-2.4-32.3-7.3-46c-4.9-13.7-11.8-25.2-20.6-34.7c-8.9-9.5-19.4-16.8-31.5-21.8
							c-12.1-5.1-25.4-7.6-39.9-7.6c-10.7,0-23.1,1.8-37.2,5.4V2909.9z"/>
						<path d="M10441.6,2694.8v97.4h54c8,0,14.4-0.7,19.3-2.2c4.9-1.4,8.7-3.6,11.5-6.5c2.8-2.9,4.7-6.6,5.8-11.1
							c1.1-4.5,1.8-9.9,2.2-16h6.8v85.8h-6.8c-0.9-7.1-1.9-12.9-3.1-17.6c-1.2-4.7-3.1-8.5-5.7-11.3c-2.6-2.8-6.3-4.8-11-6
							c-4.7-1.2-11-1.8-19-1.8h-54v81.4c0,6.2,0.1,11,0.3,14.7c0.2,3.6,0.9,6.4,2.2,8.3c1.3,1.9,3.3,3.1,6,3.7
							c2.7,0.5,6.7,0.8,11.9,0.8h41.8c7.1,0,13-0.2,17.9-0.5c4.9-0.4,9.1-1.1,12.6-2.2c3.5-1.1,6.6-2.6,9.4-4.5
							c2.7-1.9,5.6-4.3,8.7-7.2c7.2-7.1,14.9-18.4,23.1-33.9h7.3l-21.4,61.9h-190v-6.8h8.7c2.3,0,4.8-0.3,7.3-0.8
							c2.5-0.5,4.9-1.3,7.2-2.3c2.3-1,4.3-2.3,6.1-3.9c1.8-1.6,3.1-3.5,3.8-5.7c1.4-4,2.2-11.9,2.2-23.9v-160.1
							c0-15.7-1.5-25.4-4.6-29c-4.3-4.9-11.7-7.3-22-7.3h-8.7v-6.8h190v54h-4.3c-1.8-8.9-3.8-16-5.8-21.3c-2.1-5.3-4.8-9.5-8.3-12.3
							c-3.4-2.9-7.8-4.7-13.2-5.6c-5.3-0.8-12.2-1.2-20.5-1.2H10441.6z"/>
					</g>
					<g>
						<path d="M7861.4,2060.4v110.9h-7.8c-3.8-29.7-12.5-50.7-26.2-62.9c-13.6-12.3-33.8-18.4-60.3-18.4h-66.3v360
							c0,15.9,1.1,28.4,3.4,37.6c2.2,9.2,5.4,16,9.6,20.5c4.1,4.5,9.3,7.3,15.5,8.5c6.2,1.2,13.5,1.8,21.8,1.8h16.1v13h-199.4v-13
							h16.6c8.3,0,15.5-0.7,21.8-2.1c6.2-1.4,11.4-4.4,15.5-9.1c4.1-4.7,7.3-11.5,9.6-20.5c2.2-9,3.4-21.2,3.4-36.8v-360H7578
							c-14.2,0-26.7,1.1-37.6,3.4c-10.9,2.3-20.3,6.4-28.2,12.4c-7.9,6-14.2,14.3-18.9,24.9c-4.7,10.5-7.5,24.1-8.5,40.7h-12.9
							v-110.9H7861.4z"/>
						<path d="M8549.3,2060.4v13c-9.3,0-17,0.9-23.1,2.6c-6,1.7-11.7,5.6-16.8,11.7c-5.2,6-10.4,15-15.5,26.9
							c-5.2,11.9-11.2,27.9-18.1,47.9l-131.1,379.7h-14l-107.2-301l-106.2,301h-13l-139.9-391.1c-5.2-14.5-9.3-26-12.4-34.4
							c-3.1-8.5-5.5-14.1-7.3-16.8c-4.8-9-11.1-15.6-18.9-19.9c-7.8-4.3-18.6-6.5-32.4-6.5v-13h174.1v13h-8.3
							c-12.1,0-21.4,2.8-28,8.3c-6.6,5.5-9.8,12.3-9.8,20.2c0,8.3,5.2,26.9,15.5,55.9l92.7,264.2l77.7-224.8l-24.9-71
							c-3.8-8.6-7.6-16.2-11.4-22.8c-3.8-6.6-8.1-12.1-12.9-16.6c-4.8-4.5-10.5-7.9-17.1-10.1c-6.6-2.2-14.5-3.4-23.8-3.4v-13h182.9
							v13h-12.4c-13.1,0-22.6,2.8-28.5,8.3c-5.9,5.5-8.8,13.1-8.8,22.8c0,11.7,5.2,32.3,15.5,61.6l90.1,255.9l89.6-259.5
							c4.8-14.5,8.6-26.6,11.4-36.3c2.8-9.7,4.1-17.4,4.1-23.3c0-11-4.8-18.7-14.5-23.1c-9.7-4.3-22.3-6.5-37.8-6.5v-13H8549.3z"/>
						<path d="M8815,2050.1c30,0,58.7,6.2,86,18.6c27.3,12.4,51.3,29.5,72,51.3c20.7,21.8,37.2,47.4,49.5,76.9
							c12.3,29.5,18.4,61.6,18.4,96.1c0,35.6-6.1,68.6-18.4,98.9c-12.3,30.4-28.8,56.7-49.7,79c-20.9,22.3-45.4,39.7-73.6,52.3
							c-28.2,12.6-58.1,18.9-89.9,18.9c-32.1,0-62.2-6-90.1-18.1c-28-12.1-52.2-29.1-72.8-51c-20.5-21.9-36.8-48.1-48.7-78.5
							c-11.9-30.4-17.9-63.9-17.9-100.5c0-33.8,6-65.6,17.9-95.3c11.9-29.7,28.3-55.5,49.2-77.4c20.9-21.9,45.7-39.3,74.3-52.1
							C8749.9,2056.5,8781.2,2050.1,8815,2050.1z M8808.3,2075.5c-23.8,0-45,5.1-63.5,15.3c-18.5,10.2-34,24.7-46.6,43.5
							c-12.6,18.8-22.2,41.6-28.7,68.4c-6.6,26.8-9.8,56.9-9.8,90.4c0,33.2,3.2,63.5,9.6,90.9c6.4,27.5,15.9,51.1,28.5,71
							c12.6,19.9,28.2,35.2,46.9,46.1c18.6,10.9,40.1,16.3,64.2,16.3c21.8,0,41.9-4.1,60.3-12.4c18.5-8.3,34.6-21.1,48.4-38.6
							c13.8-17.4,24.6-39.7,32.4-66.8c7.8-27.1,11.7-59.5,11.7-97.1c0-35.6-3.2-67.4-9.6-95.6c-6.4-28.1-16.1-52-29-71.5
							c-13-19.5-29-34.4-48.2-44.5C8855.7,2080.6,8833.5,2075.5,8808.3,2075.5z"/>
					</g>
				</g>
			</g>
			<g>
				<g>
					<path d="M696.1,3210.8v50.4h-3.5c-1.7-13.5-5.7-23-11.9-28.6c-6.2-5.6-15.4-8.4-27.4-8.4H623V3388c0,7.2,0.5,12.9,1.5,17.1
						c1,4.2,2.5,7.3,4.4,9.3c1.9,2,4.2,3.3,7.1,3.9c2.8,0.6,6.1,0.8,9.9,0.8h7.3v5.9h-90.7v-5.9h7.5c3.8,0,7.1-0.3,9.9-0.9
						c2.8-0.6,5.2-2,7.1-4.1c1.9-2.1,3.3-5.2,4.4-9.3c1-4.1,1.5-9.7,1.5-16.7v-163.8h-25.7c-6.4,0-12.1,0.5-17.1,1.5
						c-4.9,1-9.2,2.9-12.8,5.7c-3.6,2.7-6.5,6.5-8.6,11.3c-2.1,4.8-3.4,11-3.9,18.5h-5.9v-50.4H696.1z"/>
					<path d="M772.9,3310.3h99.4V3249c0-5-0.1-9.1-0.2-12.4c-0.2-3.2-0.6-5.9-1.2-7.9c-0.6-2-1.5-3.7-2.7-4.8
						c-1.2-1.2-2.7-2.3-4.6-3.4c-4.4-2.5-9.2-3.8-14.4-3.8h-7.5v-5.9h91.7v5.9h-7.5c-2,0-4.2,0.2-6.5,0.7c-2.3,0.5-4.4,1.2-6.4,2.1
						c-2,0.9-3.7,2.1-5.3,3.5c-1.6,1.4-2.7,3.1-3.3,4.9c-1.1,3.3-1.6,10.3-1.6,21v138.1c0,5,0.1,9.1,0.4,12.3
						c0.2,3.1,0.6,5.7,1.2,7.8c0.5,2,1.4,3.7,2.5,4.8c1.1,1.2,2.6,2.3,4.5,3.4c4.4,2.5,9.3,3.8,14.6,3.8h7.5v5.9h-91.7v-5.9h7.5
						c3.6,0,6.8-0.3,9.7-0.8c2.8-0.5,5.3-1.9,7.3-4c2-2.1,3.6-5.3,4.6-9.7c1-4.3,1.5-10.2,1.5-17.6v-65.3h-99.4v65.3
						c0,5,0.1,9.1,0.2,12.3c0.2,3.1,0.5,5.7,1.2,7.8c0.6,2,1.5,3.7,2.7,4.8c1.2,1.2,2.7,2.3,4.6,3.4c4.4,2.5,9.2,3.8,14.4,3.8h7.8
						v5.9h-91.9v-5.9h7.8c8.6,0,15-2.6,19.1-7.8c2.5-3.1,3.8-11.2,3.8-24.3V3249c0-5.2-0.1-9.4-0.2-12.6c-0.2-3.2-0.6-5.8-1.2-7.8
						c-0.6-2-1.5-3.5-2.6-4.7c-1.1-1.2-2.6-2.3-4.5-3.4c-4.4-2.5-9.2-3.8-14.4-3.8h-7.8v-5.9h91.9v5.9H796c-1.9,0-4,0.2-6.2,0.7
						c-2.3,0.5-4.4,1.2-6.4,2.1c-2,0.9-3.7,2.1-5.3,3.5c-1.6,1.4-2.7,3.1-3.3,4.9c-1.3,3.8-1.9,10.8-1.9,21V3310.3z"/>
					<path d="M1039.6,3419.1v5.9h-91.7v-5.9h7.5c3.8,0,7.1-0.3,10-0.8c2.9-0.5,5.3-1.9,7.2-4c1.9-2.1,3.3-5.3,4.4-9.7
						c1-4.3,1.5-10.2,1.5-17.6v-138.3c0-4.9-0.1-8.9-0.4-12.1c-0.2-3.2-0.6-5.9-1.2-7.9c-0.6-2-1.4-3.7-2.5-4.8
						c-1.1-1.2-2.6-2.3-4.5-3.4c-4.7-2.5-9.6-3.8-14.6-3.8h-7.5v-5.9h91.7v5.9h-7.5c-3.8,0-7.1,0.3-10,0.9c-2.9,0.6-5.3,2-7.2,4.1
						c-1.9,2.1-3.3,5.3-4.4,9.7c-1,4.3-1.5,10.1-1.5,17.3v138.3c0,5,0.1,9.1,0.2,12.3c0.2,3.1,0.5,5.7,1.2,7.8
						c0.6,2,1.5,3.7,2.7,4.8c1.2,1.2,2.7,2.3,4.6,3.4c4.4,2.5,9.2,3.8,14.4,3.8H1039.6z"/>
					<path d="M1242.2,3206.1l4.9,72.8h-4.9c-6.6-21.8-15.9-37.5-27.9-47.1c-12-9.6-26.5-14.4-43.5-14.4c-11,0-21.1,2.1-30.4,6.2
						c-9.3,4.2-17.2,10.6-23.9,19.2c-6.7,8.6-11.9,19.5-15.7,32.5c-3.8,13-5.7,28.4-5.7,46.2c0,14.3,1.8,27.3,5.3,38.9
						c3.5,11.6,8.7,21.6,15.6,29.8c6.8,8.2,15.2,14.6,25.1,19.1c9.9,4.5,21.3,6.7,34.2,6.7c13.5,0,25.8-3,36.8-9
						c10.5-5.5,22.2-17.3,35.1-35.3l4.9,3.1c-10.8,19-23.4,32.9-37.6,41.8c-14.2,8.9-31.2,13.3-51,13.3c-15.2,0-29.2-2.7-41.9-8
						c-12.7-5.3-23.7-12.8-32.9-22.5c-9.2-9.7-16.4-21.1-21.6-34.4c-5.2-13.3-7.8-27.8-7.8-43.7c0-21.5,4.8-41.2,14.4-58.9
						c9.4-17.9,22.5-31.7,39.3-41.5c17-9.9,35.3-14.8,55.1-14.8c15.6,0,30.8,3.8,45.7,11.3c4.4,2.4,7.5,3.5,9.4,3.5
						c3.5,0,6.3-1.4,8.6-4.2c2.3-2.8,3.9-6.4,4.8-10.6H1242.2z"/>
					<path d="M1359.8,3306.3l78.9,78.5c6.6,6.6,12.6,12.1,17.9,16.4c5.3,4.3,10.4,7.8,15.1,10.4c4.7,2.6,9.3,4.5,13.8,5.7
						c4.5,1.2,9.1,1.8,13.8,2v5.9h-101.8v-5.9c6.8,0,11.3-1.2,13.7-3.5c2.4-2.4,3.5-4.9,3.5-7.5c0-1.1-0.1-2.1-0.2-2.9
						c-0.2-0.9-0.6-1.8-1.3-2.9c-0.7-1.1-1.8-2.5-3.4-4.2c-1.6-1.7-3.7-3.9-6.4-6.6l-74-73.3v69c0,5,0.1,9.1,0.4,12.3
						c0.2,3.1,0.6,5.7,1.2,7.8c0.5,2,1.4,3.7,2.6,4.8c1.2,1.2,2.7,2.3,4.6,3.4c4.6,2.5,9.3,3.8,14.4,3.8h7.3v5.9h-91.2v-5.9h7.5
						c8.8,0,15.2-2.6,19.3-7.8c2.5-3.5,3.8-11.5,3.8-24.3v-138.3c0-4.7-0.1-8.7-0.2-11.9c-0.2-3.2-0.6-5.9-1.2-7.9
						c-0.6-2-1.5-3.7-2.6-5.1c-1.1-1.3-2.6-2.5-4.5-3.4c-5-2.5-9.9-3.8-14.6-3.8h-7.5v-5.9h91.2v5.9h-7.3c-3.9,0-8.1,0.9-12.4,2.6
						c-4.3,1.7-7.3,4.6-8.8,8.7c-1.3,3.5-1.9,10.4-1.9,20.7v65.5c0.2-0.2,1.2-1.1,3.2-2.9c2-1.8,4.2-3.8,6.6-6
						c2.4-2.2,4.8-4.4,7.1-6.6c2.3-2.2,3.9-3.7,4.8-4.5c11.5-10.5,21.1-19.6,29-27.1c7.9-7.5,14.1-13.9,18.8-19.2
						c4.7-5.3,8.1-9.7,10.1-13.2c2-3.5,3.1-6.5,3.1-8.8c0-2.5-1.1-4.7-3.3-6.5c-2.2-1.8-6-2.7-11.3-2.7h-4.9v-5.9h78.7v5.9
						c-2.8,0.2-5.7,0.4-8.6,0.8c-2.9,0.4-6.1,1.4-9.7,2.9c-3.5,1.6-7.6,4-12.1,7.3c-4.6,3.3-10,7.9-16.3,13.7
						c-1.3,1.1-4.5,4.4-9.7,9.8c-5.2,5.4-12.6,12.9-22.4,22.5L1359.8,3306.3z"/>
					<path d="M1492.4,3210.8h58l131,160.7v-123.5c0-7.2-0.5-13-1.5-17.2c-1-4.2-2.5-7.4-4.5-9.4c-2-2-4.4-3.3-7.2-3.9
						c-2.8-0.5-6-0.8-9.7-0.8h-7.5v-5.9h74.7v5.9h-7.8c-3.8,0-7.1,0.3-9.9,0.9c-2.8,0.6-5.2,2-7.1,4.2c-1.9,2.2-3.3,5.3-4.2,9.4
						c-0.9,4.1-1.4,9.7-1.4,16.7v180.5h-5.7l-141.1-172.5V3388c0,7.4,0.5,13.2,1.5,17.3c1,4.2,2.5,7.3,4.4,9.3
						c1.9,2,4.2,3.3,7.1,3.8c2.8,0.5,6,0.7,9.7,0.7h7.5v5.9h-74.5v-5.9h7.5c3.8,0,7.1-0.3,9.9-0.9c2.8-0.6,5.2-2,7.2-4.1
						c2-2.1,3.4-5.2,4.4-9.3c0.9-4.1,1.4-9.7,1.4-16.7v-148.9c-3.1-3.8-5.8-6.8-7.9-9c-2.1-2.2-4.1-4-6-5.4
						c-1.9-1.4-3.9-2.6-6.1-3.5c-2.2-0.9-4.9-2-8.2-3.1c-3.1-0.9-7.8-1.4-13.9-1.4V3210.8z"/>
					<path d="M1797.8,3222.6v84.6h46.9c6.9,0,12.5-0.6,16.7-1.9c4.2-1.3,7.6-3.1,10-5.7c2.4-2.5,4.1-5.7,5.1-9.7
						c0.9-3.9,1.6-8.6,1.9-13.9h5.9v74.5h-5.9c-0.8-6.1-1.7-11.2-2.7-15.3c-1-4.1-2.7-7.3-4.9-9.8c-2.3-2.4-5.5-4.2-9.5-5.2
						c-4.1-1-9.6-1.5-16.5-1.5h-46.9v70.7c0,5.3,0.1,9.6,0.2,12.7c0.2,3.1,0.8,5.5,1.9,7.2c1.1,1.6,2.8,2.7,5.2,3.2
						c2.4,0.5,5.8,0.7,10.4,0.7h36.3c6.1,0,11.3-0.2,15.6-0.5c4.2-0.3,7.9-0.9,11-1.9c3.1-0.9,5.8-2.2,8.1-3.9
						c2.4-1.6,4.9-3.7,7.5-6.2c6.3-6.1,13-15.9,20-29.5h6.4l-18.6,53.7h-164.9v-5.9h7.5c2,0,4.2-0.2,6.4-0.7c2.2-0.5,4.3-1.1,6.2-2
						c2-0.9,3.7-2,5.3-3.4c1.6-1.4,2.7-3.1,3.3-4.9c1.3-3.5,1.9-10.4,1.9-20.7v-139c0-13.7-1.3-22.1-4-25.2
						c-3.8-4.2-10.1-6.4-19.1-6.4h-7.5v-5.9h164.9v46.9h-3.8c-1.6-7.7-3.3-13.9-5.1-18.5c-1.8-4.6-4.2-8.2-7.2-10.7
						c-3-2.5-6.8-4.1-11.4-4.8c-4.6-0.7-10.6-1.1-17.8-1.1H1797.8z"/>
					<path d="M2075.8,3206.1v74h-5.9c-2.7-19.9-9.2-35.2-19.6-45.7c-10.4-10.5-23.6-15.8-39.6-15.8c-5.5,0-10.5,0.9-15.1,2.8
						c-4.6,1.9-8.6,4.4-12,7.4c-3.5,3.1-6.1,6.6-8,10.5c-1.9,3.9-2.8,8-2.8,12.3c0,3.9,0.8,7.7,2.4,11.2c1.6,3.5,6.4,9.1,14.6,16.6
						c13.7,8.6,25.8,15.8,36.5,21.4c10.1,5.5,23.6,13.8,40.8,25c7.4,5.7,13,12.4,17,20.1c3.9,7.8,5.9,15.9,5.9,24.4
						c0,8-1.6,15.6-4.9,22.9c-3.3,7.2-7.9,13.5-13.8,19c-5.9,5.4-13,9.7-21.3,13c-8.3,3.2-17.4,4.8-27.3,4.8
						c-6.3,0-12.1-0.5-17.4-1.4c-0.9-0.2-3.4-0.8-7.4-2c-4-1.2-8.3-2.4-12.8-3.7c-4.6-1.3-8.8-2.4-12.7-3.5
						c-3.9-1.1-6.2-1.6-6.8-1.6c-2.7,0-4.8,0.8-6.2,2.4c-1.5,1.6-2.6,4.9-3.4,9.9h-5.9v-73.5h5.9c2.8,15.1,6.5,26.6,11.1,34.6
						c2.2,3.8,5.1,7.3,8.8,10.5c3.7,3.2,7.9,6,12.5,8.5c4.6,2.4,9.6,4.3,15,5.7c5.3,1.3,10.8,2,16.3,2c6.6,0,12.5-0.9,17.8-2.8
						c5.3-1.9,9.7-4.4,13.4-7.7c3.7-3.2,6.5-7,8.5-11.2c2-4.2,2.9-8.7,2.9-13.4c0-5.3-1.5-10.7-4.4-16c-2.9-5.3-7.8-10.6-14.7-15.8
						c-6.8-4.1-14.8-8.9-24-14.4c-17.8-10.2-33.5-20-47.4-29.5c-7.7-6.1-13.5-12.8-17.6-20.1s-6-15.4-6-24.4
						c0-7.5,1.6-14.7,4.7-21.6c3.1-6.8,7.5-12.8,13.1-18c5.6-5.2,12.2-9.3,19.9-12.3c7.7-3,16-4.5,25-4.5c11.3,0,23.3,2.8,36,8.2
						c3,1.3,5.5,2.3,7.5,3.1c2,0.8,3.7,1.1,4.9,0.9c2.8,0,5.1-0.8,6.8-2.4c1.7-1.6,3.1-4.9,4-9.9H2075.8z"/>
					<path d="M2255.6,3206.1v74h-5.9c-2.7-19.9-9.2-35.2-19.6-45.7c-10.4-10.5-23.6-15.8-39.6-15.8c-5.5,0-10.5,0.9-15.1,2.8
						c-4.6,1.9-8.6,4.4-12,7.4c-3.5,3.1-6.1,6.6-8,10.5c-1.9,3.9-2.8,8-2.8,12.3c0,3.9,0.8,7.7,2.4,11.2c1.6,3.5,6.4,9.1,14.6,16.6
						c13.7,8.6,25.8,15.8,36.5,21.4c10.1,5.5,23.6,13.8,40.8,25c7.4,5.7,13,12.4,17,20.1c3.9,7.8,5.9,15.9,5.9,24.4
						c0,8-1.6,15.6-4.9,22.9c-3.3,7.2-7.9,13.5-13.8,19c-5.9,5.4-13,9.7-21.3,13c-8.3,3.2-17.4,4.8-27.3,4.8
						c-6.3,0-12.1-0.5-17.4-1.4c-0.9-0.2-3.4-0.8-7.4-2c-4-1.2-8.3-2.4-12.8-3.7c-4.6-1.3-8.8-2.4-12.7-3.5
						c-3.9-1.1-6.2-1.6-6.8-1.6c-2.7,0-4.8,0.8-6.2,2.4c-1.5,1.6-2.6,4.9-3.4,9.9h-5.9v-73.5h5.9c2.8,15.1,6.5,26.6,11.1,34.6
						c2.2,3.8,5.1,7.3,8.8,10.5c3.7,3.2,7.9,6,12.5,8.5c4.6,2.4,9.6,4.3,15,5.7c5.3,1.3,10.8,2,16.3,2c6.6,0,12.5-0.9,17.8-2.8
						c5.3-1.9,9.7-4.4,13.4-7.7c3.7-3.2,6.5-7,8.5-11.2c2-4.2,2.9-8.7,2.9-13.4c0-5.3-1.5-10.7-4.4-16c-2.9-5.3-7.8-10.6-14.7-15.8
						c-6.8-4.1-14.8-8.9-24-14.4c-17.8-10.2-33.5-20-47.4-29.5c-7.7-6.1-13.5-12.8-17.6-20.1s-6-15.4-6-24.4
						c0-7.5,1.6-14.7,4.7-21.6c3.1-6.8,7.5-12.8,13.1-18c5.6-5.2,12.2-9.3,19.9-12.3c7.7-3,16-4.5,25-4.5c11.3,0,23.3,2.8,36,8.2
						c3,1.3,5.5,2.3,7.5,3.1c2,0.8,3.7,1.1,4.9,0.9c2.8,0,5.1-0.8,6.8-2.4c1.7-1.6,3.1-4.9,4-9.9H2255.6z"/>
				</g>
				<g>
					<path d="M627.2,3535.8c13.7,0,26.7,2.8,39.1,8.5c12.4,5.7,23.3,13.4,32.8,23.3c9.4,9.9,16.9,21.6,22.5,35
						c5.6,13.4,8.4,28,8.4,43.7c0,16.2-2.8,31.2-8.4,45c-5.6,13.8-13.1,25.8-22.6,35.9c-9.5,10.1-20.7,18.1-33.5,23.8
						c-12.8,5.7-26.4,8.6-40.9,8.6c-14.6,0-28.3-2.8-41-8.2c-12.7-5.5-23.8-13.2-33.1-23.2c-9.3-10-16.7-21.9-22.1-35.7
						c-5.4-13.8-8.1-29.1-8.1-45.7c0-15.4,2.7-29.8,8.1-43.4c5.4-13.5,12.9-25.2,22.4-35.2c9.5-10,20.8-17.9,33.8-23.7
						C597.6,3538.7,611.8,3535.8,627.2,3535.8z M624.1,3547.4c-10.8,0-20.5,2.3-28.9,7c-8.4,4.6-15.5,11.2-21.2,19.8
						c-5.7,8.6-10.1,18.9-13.1,31.1c-3,12.2-4.5,25.9-4.5,41.1c0,15.1,1.4,28.9,4.4,41.4c2.9,12.5,7.2,23.2,13,32.3
						c5.7,9,12.8,16,21.3,21s18.2,7.4,29.2,7.4c9.9,0,19-1.9,27.4-5.7c8.4-3.8,15.7-9.6,22-17.6c6.3-7.9,11.2-18.1,14.7-30.4
						c3.5-12.3,5.3-27.1,5.3-44.2c0-16.2-1.5-30.7-4.4-43.5c-2.9-12.8-7.3-23.6-13.2-32.5c-5.9-8.9-13.2-15.6-21.9-20.3
						C645.7,3549.7,635.6,3547.4,624.1,3547.4z"/>
					<path d="M808.6,3552.3v84.1h38.9c4.6,0,8.4-0.4,11.7-1.3c3.2-0.9,5.9-2.4,8.1-4.6c2.2-2.2,3.9-5.2,5.2-9
						c1.3-3.8,2.3-8.6,3.1-14.4h5.9v72.3h-5.9c-0.2-5.3-0.7-9.9-1.6-13.7c-0.9-3.8-2.5-6.9-4.6-9.3c-2.1-2.4-4.9-4.2-8.5-5.3
						c-3.5-1.1-8-1.6-13.3-1.6h-38.9v67.1c0,5,0.1,9.1,0.2,12.3c0.2,3.1,0.5,5.7,1.2,7.8c0.6,2,1.5,3.7,2.7,4.8
						c1.2,1.2,2.7,2.3,4.6,3.4c4.4,2.5,9.2,3.8,14.4,3.8h7.8v5.9h-91.9v-5.9h7.5c3.8,0,7.1-0.3,10-0.8c2.9-0.5,5.3-1.9,7.2-4
						c1.9-2.1,3.3-5.3,4.4-9.7c1-4.3,1.5-10.2,1.5-17.6v-138.3c0-4.9-0.1-8.9-0.4-12.1c-0.2-3.2-0.6-5.9-1.2-7.9
						c-0.6-2-1.4-3.7-2.5-4.9c-1.1-1.3-2.6-2.4-4.5-3.3c-2.4-1.3-4.7-2.2-7.1-2.8c-2.4-0.6-4.9-0.9-7.5-0.9h-7.5v-5.9h159.3v47.1
						h-3.5c-2-7.7-4.4-13.9-7-18.5c-2.6-4.6-5.7-8.2-9.4-10.7c-3.7-2.5-8.1-4.2-13.1-4.9c-5-0.8-11.1-1.2-18.1-1.2H808.6z"/>
					<path d="M1040.9,3561.7l52.1-25.4h5.2V3717c0,6.3,0.1,11.2,0.2,14.7c0.2,3.5,0.5,6.2,1.2,8.1c0.6,1.9,1.4,3.2,2.4,4
						c0.9,0.8,2.3,1.6,4,2.4c3.1,1.7,9.6,2.6,19.3,2.6v5.9h-80.6v-5.9c5.2,0,9.3-0.2,12.5-0.7c3.1-0.5,5.6-1.1,7.3-1.8
						c1.7-0.7,3-1.6,3.9-2.7c0.9-1.1,1.5-2.3,2-3.5c1.1-2.4,1.7-10.1,1.7-23.1v-115.7c0-9.1-0.2-16.3-0.6-21.6
						c-0.4-5.3-1.1-9.1-2-11.7c-0.9-2.5-2.2-4.1-3.8-4.8c-1.6-0.7-3.6-1.1-6.1-1.1c-4.4,0-9.8,1.4-16.3,4.2L1040.9,3561.7z"/>
					<path d="M1205.1,3724.1c4.7,0,8.8,1.7,12.3,5.1c3.5,3.4,5.2,7.5,5.2,12.4c0,4.9-1.7,9-5.2,12.5c-3.5,3.5-7.5,5.2-12.3,5.2
						c-4.9,0-9-1.7-12.5-5.2c-3.5-3.5-5.2-7.6-5.2-12.5c0-5,1.7-9.2,5.2-12.5C1196.1,3725.7,1200.3,3724.1,1205.1,3724.1z"/>
					<path d="M1385.9,3540.5l-12.5,26.9H1309l-14.1,28.7c12.7,1.9,24.5,5.2,35.2,10c10.8,4.8,20,10.7,27.7,17.8
						c7.7,7.1,13.7,15.2,18,24.4c4.3,9.2,6.5,19,6.5,29.6c0,13-2.7,24.5-8.2,34.5c-5.5,10-12.5,18.4-20.9,25.2
						c-8.4,6.8-17.6,12-27.4,15.6c-9.9,3.5-19.2,5.3-28,5.3c-6.6,0-12.2-0.6-16.8-1.8c-4.6-1.2-8.4-2.8-11.3-4.8
						c-2.9-2-5.1-4.3-6.5-6.7c-1.4-2.4-2.1-5-2.1-7.7c0-3,1.2-5.6,3.5-7.9c2.4-2.3,5.4-3.4,9.2-3.4c1.4,0,2.7,0.1,3.8,0.2
						c1.1,0.2,2.2,0.5,3.4,1.1c1.2,0.6,2.6,1.3,4.2,2.4c1.6,1,3.7,2.4,6.2,4.1c3.9,2.8,7.9,4.9,11.9,6.2c4,1.3,8,2,12.1,2
						c6.1,0,12-1.3,17.6-3.8c5.6-2.5,10.5-5.9,14.7-10.2c4.2-4.3,7.7-9.4,10.2-15.2c2.6-5.8,3.9-12.1,3.9-18.8
						c0-6.4-1.1-12.7-3.3-18.8c-2.2-6.1-5.3-11.9-9.4-17.3c-4.1-5.4-9-10.3-14.7-14.7c-5.7-4.4-12.2-8.2-19.4-11.3
						c-5.8-2.5-12.6-4.4-20.4-5.5c-7.8-1.2-16.6-2-26.5-2.5l41-83.4H1385.9z"/>
					<path d="M1682.5,3535.8l4.9,72.8h-4.9c-6.6-21.8-15.9-37.5-27.9-47.1c-12-9.6-26.5-14.4-43.5-14.4c-11,0-21.1,2.1-30.4,6.2
						c-9.3,4.2-17.2,10.6-23.9,19.2c-6.7,8.6-11.9,19.5-15.7,32.5c-3.8,13-5.7,28.4-5.7,46.2c0,14.3,1.8,27.3,5.3,38.9
						c3.5,11.6,8.7,21.6,15.6,29.8c6.8,8.2,15.2,14.6,25.1,19.1c9.9,4.5,21.3,6.7,34.2,6.7c13.5,0,25.8-3,36.8-9
						c10.5-5.5,22.2-17.3,35.1-35.3l4.9,3.1c-10.8,19-23.4,32.9-37.6,41.8c-14.2,8.9-31.2,13.3-51,13.3c-15.2,0-29.2-2.7-41.9-8
						c-12.7-5.3-23.7-12.8-32.9-22.5c-9.2-9.7-16.4-21.1-21.6-34.4c-5.2-13.3-7.8-27.8-7.8-43.7c0-21.5,4.8-41.2,14.4-58.9
						c9.4-17.9,22.5-31.7,39.3-41.5c17-9.9,35.3-14.8,55.1-14.8c15.6,0,30.8,3.8,45.7,11.3c4.4,2.4,7.5,3.5,9.4,3.5
						c3.5,0,6.3-1.4,8.6-4.2c2.3-2.8,3.9-6.4,4.8-10.6H1682.5z"/>
					<path d="M1835.6,3754.7l-82.7-180v143c0,7.4,0.5,13.2,1.5,17.3c1,4.2,2.5,7.3,4.5,9.3c2,2,4.4,3.3,7.2,3.8
						c2.8,0.5,6,0.7,9.7,0.7h7.5v5.9h-74.5v-5.9h7.5c3.8,0,7.1-0.3,9.9-0.8c2.8-0.5,5.2-1.9,7.1-4c1.9-2.1,3.3-5.3,4.2-9.4
						c0.9-4.2,1.4-9.8,1.4-16.8v-140c0-5-0.2-9.5-0.7-13.3c-0.5-3.8-1.7-7.1-3.7-9.8c-2-2.7-4.9-4.7-9-6.1c-4-1.4-9.6-2.1-16.8-2.1
						v-5.9h60.6l77.8,167.5l76.3-167.5h60.6v5.9h-7.3c-3.9,0-7.3,0.3-10.1,0.9c-2.8,0.6-5.2,2-7.1,4.1c-1.9,2.1-3.3,5.3-4.2,9.4
						c-0.9,4.2-1.4,9.8-1.4,16.8v140c0,7.4,0.5,13.2,1.5,17.3c1,4.2,2.5,7.3,4.5,9.3c2,2,4.4,3.3,7.2,3.8c2.8,0.5,6,0.7,9.7,0.7h7.3
						v5.9h-90.9v-5.9h7.5c3.8,0,7.1-0.3,9.9-0.9c2.8-0.6,5.2-2,7.2-4.1c2-2.1,3.4-5.2,4.4-9.3c0.9-4.1,1.4-9.7,1.4-16.7v-143
						l-82.5,180H1835.6z"/>
				</g>
				<g>
					<path d="M822.4,3885.3v5.9c-4.2,0-7.7,0.4-10.5,1.2c-2.7,0.8-5.3,2.6-7.7,5.3c-2.4,2.8-4.7,6.8-7.1,12.3
						c-2.4,5.4-5.1,12.7-8.2,21.8l-59.6,172.7H723l-48.8-136.9l-48.3,136.9H620l-63.6-177.9c-2.4-6.6-4.2-11.8-5.7-15.7
						c-1.4-3.8-2.5-6.4-3.3-7.7c-2.2-4.1-5.1-7.1-8.6-9.1c-3.5-2-8.4-2.9-14.7-2.9v-5.9h79.2v5.9h-3.8c-5.5,0-9.7,1.3-12.7,3.8
						c-3,2.5-4.5,5.6-4.5,9.2c0,3.8,2.4,12.3,7.1,25.4l42.2,120.2l35.3-102.3l-11.3-32.3c-1.7-3.9-3.5-7.4-5.2-10.4
						c-1.7-3-3.7-5.5-5.9-7.5c-2.2-2-4.8-3.6-7.8-4.6c-3-1-6.6-1.5-10.8-1.5v-5.9h83.2v5.9h-5.7c-6,0-10.3,1.3-13,3.8
						c-2.7,2.5-4,6-4,10.4c0,5.3,2.4,14.7,7.1,28l41,116.4l40.8-118c2.2-6.6,3.9-12.1,5.2-16.5c1.3-4.4,1.9-7.9,1.9-10.6
						c0-5-2.2-8.5-6.6-10.5c-4.4-2-10.1-2.9-17.2-2.9v-5.9H822.4z"/>
					<path d="M924.6,4093.6v5.9H833v-5.9h7.5c3.8,0,7.1-0.3,10-0.8c2.9-0.5,5.3-1.9,7.2-4c1.9-2.1,3.3-5.3,4.4-9.7
						c1-4.3,1.5-10.2,1.5-17.6v-138.3c0-4.9-0.1-8.9-0.4-12.1c-0.2-3.2-0.6-5.9-1.2-7.9c-0.6-2-1.4-3.7-2.5-4.8
						c-1.1-1.2-2.6-2.3-4.5-3.4c-4.7-2.5-9.6-3.8-14.6-3.8H833v-5.9h91.7v5.9h-7.5c-3.8,0-7.1,0.3-10,0.9c-2.9,0.6-5.3,2-7.2,4.1
						c-1.9,2.1-3.3,5.3-4.4,9.7c-1,4.3-1.5,10.1-1.5,17.3v138.3c0,5,0.1,9.1,0.2,12.3c0.2,3.1,0.5,5.7,1.2,7.8
						c0.6,2,1.5,3.7,2.7,4.8c1.2,1.2,2.7,2.3,4.6,3.4c4.4,2.5,9.2,3.8,14.4,3.8H924.6z"/>
					<path d="M1119.7,3885.3v50.4h-3.5c-1.7-13.5-5.7-23-11.9-28.6c-6.2-5.6-15.4-8.4-27.4-8.4h-30.2v163.8c0,7.2,0.5,12.9,1.5,17.1
						c1,4.2,2.5,7.3,4.4,9.3c1.9,2,4.2,3.3,7.1,3.9c2.8,0.6,6.1,0.8,9.9,0.8h7.3v5.9h-90.7v-5.9h7.5c3.8,0,7.1-0.3,9.9-0.9
						c2.8-0.6,5.2-2,7.1-4.1c1.9-2.1,3.3-5.2,4.4-9.3c1-4.1,1.5-9.7,1.5-16.7v-163.8h-25.7c-6.4,0-12.1,0.5-17.1,1.5
						c-4.9,1-9.2,2.9-12.8,5.7c-3.6,2.7-6.5,6.5-8.6,11.3c-2.1,4.8-3.4,11-3.9,18.5h-5.9v-50.4H1119.7z"/>
					<path d="M1196.5,3984.7h99.4v-61.3c0-5-0.1-9.1-0.2-12.4c-0.2-3.2-0.6-5.9-1.2-7.9c-0.6-2-1.5-3.7-2.7-4.8
						c-1.2-1.2-2.7-2.3-4.6-3.4c-4.4-2.5-9.2-3.8-14.4-3.8h-7.5v-5.9h91.7v5.9h-7.5c-2,0-4.2,0.2-6.5,0.7c-2.3,0.5-4.4,1.2-6.4,2.1
						c-2,0.9-3.7,2.1-5.3,3.5c-1.6,1.4-2.7,3.1-3.3,4.9c-1.1,3.3-1.6,10.3-1.6,21v138.1c0,5,0.1,9.1,0.4,12.3
						c0.2,3.1,0.6,5.7,1.2,7.8c0.5,2,1.4,3.7,2.5,4.8c1.1,1.2,2.6,2.3,4.5,3.4c4.4,2.5,9.3,3.8,14.6,3.8h7.5v5.9h-91.7v-5.9h7.5
						c3.6,0,6.8-0.3,9.7-0.8c2.8-0.5,5.3-1.9,7.3-4c2-2.1,3.6-5.3,4.6-9.7c1-4.3,1.5-10.2,1.5-17.6v-65.3h-99.4v65.3
						c0,5,0.1,9.1,0.2,12.3c0.2,3.1,0.5,5.7,1.2,7.8c0.6,2,1.5,3.7,2.7,4.8c1.2,1.2,2.7,2.3,4.6,3.4c4.4,2.5,9.2,3.8,14.4,3.8h7.8
						v5.9h-91.9v-5.9h7.8c8.6,0,15-2.6,19.1-7.8c2.5-3.1,3.8-11.2,3.8-24.3v-138.1c0-5.2-0.1-9.4-0.2-12.6c-0.2-3.2-0.6-5.8-1.2-7.8
						c-0.6-2-1.5-3.5-2.6-4.7c-1.1-1.2-2.6-2.3-4.5-3.4c-4.4-2.5-9.2-3.8-14.4-3.8h-7.8v-5.9h91.9v5.9h-7.8c-1.9,0-4,0.2-6.2,0.7
						c-2.3,0.5-4.4,1.2-6.4,2.1c-2,0.9-3.7,2.1-5.3,3.5c-1.6,1.4-2.7,3.1-3.3,4.9c-1.3,3.8-1.9,10.8-1.9,21V3984.7z"/>
				</g>
				<g>
					<path d="M642,4435.9l-82.7-180v143c0,7.4,0.5,13.2,1.5,17.3c1,4.2,2.5,7.3,4.5,9.3c2,2,4.4,3.3,7.2,3.8c2.8,0.5,6,0.7,9.7,0.7
						h7.5v5.9h-74.5v-5.9h7.5c3.8,0,7.1-0.3,9.9-0.8c2.8-0.5,5.2-1.9,7.1-4c1.9-2.1,3.3-5.3,4.2-9.4c0.9-4.2,1.4-9.8,1.4-16.8v-140
						c0-5-0.2-9.5-0.7-13.3c-0.5-3.8-1.7-7.1-3.7-9.8c-2-2.7-4.9-4.7-9-6.1s-9.6-2.1-16.8-2.1v-5.9h60.6l77.8,167.5l76.3-167.5h60.6
						v5.9h-7.3c-3.9,0-7.3,0.3-10.1,0.9c-2.8,0.6-5.2,2-7.1,4.1s-3.3,5.3-4.2,9.4c-0.9,4.2-1.4,9.8-1.4,16.8v140
						c0,7.4,0.5,13.2,1.5,17.3c1,4.2,2.5,7.3,4.5,9.3c2,2,4.4,3.3,7.2,3.8s6,0.7,9.7,0.7h7.3v5.9h-90.9v-5.9h7.5
						c3.8,0,7.1-0.3,9.9-0.9c2.8-0.6,5.2-2,7.2-4.1c2-2.1,3.4-5.2,4.4-9.3c0.9-4.1,1.4-9.7,1.4-16.7v-143l-82.5,180H642z"/>
					<path d="M945.3,4364.2h-82.9l-14.6,33.7c-3.5,8.3-5.2,14.5-5.2,18.6c0,1.7,0.3,3.3,0.8,4.7c0.5,1.4,1.7,2.7,3.5,3.9
						c1.8,1.2,4.3,2.2,7.5,3.1c3.2,0.9,7.5,1.5,12.8,1.8v5.9h-67.4v-5.9c5.3-0.8,9.7-2,13-3.5c3.3-1.6,6.1-3.7,8.5-6.5
						c2.4-2.7,4.5-6.3,6.5-10.7c2-4.4,4.4-9.8,7.2-16.3l75.4-176h5.4l74.5,177.9c3,7.4,5.8,13.3,8.4,17.8c2.6,4.5,5.3,8,8,10.5
						c2.7,2.5,5.7,4.2,9,5.2c3.2,0.9,7.1,1.5,11.7,1.6v5.9h-84.6v-5.9c8.5-0.3,14.3-1.7,17.3-4.1c3.1-2.4,4.6-5.4,4.6-8.8
						c-0.2-4.6-2.3-11.9-6.4-22.1L945.3,4364.2z M940.8,4352.5l-36.3-86.5l-37.2,86.5H940.8z"/>
					<path d="M1182.1,4221.7v50.4h-3.5c-1.7-13.5-5.7-23-11.9-28.6c-6.2-5.6-15.4-8.4-27.4-8.4H1109v163.8c0,7.2,0.5,12.9,1.5,17.1
						c1,4.2,2.5,7.3,4.4,9.3c1.9,2,4.2,3.3,7.1,3.9c2.8,0.6,6.1,0.8,9.9,0.8h7.3v5.9h-90.7v-5.9h7.5c3.8,0,7.1-0.3,9.9-0.9
						c2.8-0.6,5.2-2,7.1-4.1s3.3-5.2,4.4-9.3c1-4.1,1.5-9.7,1.5-16.7v-163.8h-25.7c-6.4,0-12.1,0.5-17.1,1.5
						c-4.9,1-9.2,2.9-12.8,5.7c-3.6,2.7-6.5,6.5-8.6,11.3c-2.1,4.8-3.4,11-3.9,18.5h-5.9v-50.4H1182.1z"/>
					<path d="M1260,4233.5v84.6h46.9c6.9,0,12.5-0.6,16.7-1.9c4.2-1.3,7.6-3.1,10-5.7c2.4-2.5,4.1-5.7,5.1-9.7
						c0.9-3.9,1.6-8.6,1.9-13.9h5.9v74.5h-5.9c-0.8-6.1-1.7-11.2-2.7-15.3c-1-4.1-2.7-7.3-4.9-9.8c-2.3-2.4-5.5-4.2-9.5-5.2
						c-4.1-1-9.6-1.5-16.5-1.5H1260v70.7c0,5.3,0.1,9.6,0.2,12.7c0.2,3.1,0.8,5.5,1.9,7.2c1.1,1.6,2.8,2.7,5.2,3.2
						c2.4,0.5,5.8,0.7,10.4,0.7h36.3c6.1,0,11.3-0.2,15.6-0.5c4.2-0.3,7.9-0.9,11-1.9c3.1-0.9,5.8-2.2,8.1-3.9
						c2.4-1.6,4.9-3.7,7.5-6.2c6.3-6.1,13-15.9,20-29.5h6.4l-18.6,53.7H1199v-5.9h7.5c2,0,4.2-0.2,6.4-0.7c2.2-0.5,4.3-1.1,6.2-2
						c2-0.9,3.7-2,5.3-3.4c1.6-1.4,2.7-3.1,3.3-4.9c1.3-3.5,1.9-10.4,1.9-20.7v-139c0-13.7-1.3-22.1-4-25.2
						c-3.8-4.2-10.1-6.4-19.1-6.4h-7.5v-5.9h164.9v46.9h-3.8c-1.6-7.7-3.3-13.9-5.1-18.5c-1.8-4.6-4.2-8.2-7.2-10.7
						c-3-2.5-6.8-4.1-11.4-4.8c-4.6-0.7-10.6-1.1-17.8-1.1H1260z"/>
					<path d="M1608.3,4435.9h-57l-72.6-100.1c-2.7,0.2-5.1,0.3-7.2,0.4c-2.1,0.1-4,0.1-5.8,0.1c-1.4,0-2.9,0-4.5-0.1
						c-1.6-0.1-3.2-0.2-4.9-0.4v62.2c0,7.5,0.5,13.5,1.5,17.8c1,4.3,2.5,7.5,4.5,9.7c2,2.1,4.3,3.4,7.1,3.9c2.7,0.5,5.8,0.7,9.3,0.7
						h8.5v5.9h-91.9v-5.9h8.2c8.8,0,15.2-2.9,19.3-8.7c2.2-3.5,3.3-11.2,3.3-23.3v-138.3c0-13.2-1.5-21.5-4.5-25
						c-4.1-4.7-10.1-7.1-18.1-7.1h-8.2v-5.9h78c11.5,0,21.4,0.4,29.7,1.3c8.3,0.9,15.2,2.2,20.5,3.9c5.3,1.7,10.4,4.1,15.1,7.2
						c4.7,3.1,8.8,6.8,12.4,11.1c3.5,4.3,6.3,9.2,8.4,14.5c2,5.3,3.1,11.1,3.1,17.2c0,13.4-4.2,24.8-12.7,34.4
						c-8.5,9.6-21.8,16.4-39.8,20.5l44.1,61.3c5.2,7.1,9.8,12.9,13.8,17.4c4,4.6,8,8.2,12,10.8c4,2.7,8.2,4.6,12.7,5.9
						c4.5,1.3,9.8,2.2,15.9,2.8V4435.9z M1456.3,4325.8c2,0,3.8,0,5.3,0.1c1.5,0.1,2.7,0.1,3.7,0.1c10.2,0,19.2-1.2,26.9-3.5
						c7.7-2.4,14.1-5.7,19.3-9.9c5.2-4.2,9.1-9.2,11.7-15c2.6-5.7,3.9-12,3.9-18.7c0-6.6-1.1-12.7-3.3-18.3
						c-2.2-5.6-5.3-10.4-9.4-14.4c-4.1-4-9-7.1-14.6-9.3c-5.7-2.2-11.9-3.3-18.6-3.3c-6.4,0-14.7,1-24.7,3.1V4325.8z"/>
					<path d="M1705.1,4430v5.9h-91.7v-5.9h7.5c3.8,0,7.1-0.3,10-0.8c2.9-0.5,5.3-1.9,7.2-4c1.9-2.1,3.3-5.3,4.4-9.7
						c1-4.3,1.5-10.2,1.5-17.6v-138.3c0-4.9-0.1-8.9-0.4-12.1c-0.2-3.2-0.6-5.9-1.2-7.9c-0.6-2-1.4-3.7-2.5-4.8
						c-1.1-1.2-2.6-2.3-4.5-3.4c-4.7-2.5-9.6-3.8-14.6-3.8h-7.5v-5.9h91.7v5.9h-7.5c-3.8,0-7.1,0.3-10,0.9c-2.9,0.6-5.3,2-7.2,4.1
						c-1.9,2.1-3.3,5.3-4.4,9.7c-1,4.3-1.5,10.1-1.5,17.3v138.3c0,5,0.1,9.1,0.2,12.3c0.2,3.1,0.5,5.7,1.2,7.8
						c0.6,2,1.5,3.7,2.7,4.8s2.7,2.3,4.6,3.4c4.4,2.5,9.2,3.8,14.4,3.8H1705.1z"/>
					<path d="M1861.1,4364.2h-82.9l-14.6,33.7c-3.5,8.3-5.2,14.5-5.2,18.6c0,1.7,0.3,3.3,0.8,4.7c0.5,1.4,1.7,2.7,3.5,3.9
						c1.8,1.2,4.3,2.2,7.5,3.1c3.2,0.9,7.5,1.5,12.8,1.8v5.9h-67.4v-5.9c5.3-0.8,9.7-2,13-3.5c3.3-1.6,6.1-3.7,8.5-6.5
						c2.4-2.7,4.5-6.3,6.5-10.7c2-4.4,4.4-9.8,7.2-16.3l75.4-176h5.4l74.5,177.9c3,7.4,5.8,13.3,8.4,17.8c2.6,4.5,5.3,8,8,10.5
						c2.7,2.5,5.7,4.2,9,5.2c3.2,0.9,7.1,1.5,11.7,1.6v5.9h-84.6v-5.9c8.5-0.3,14.3-1.7,17.3-4.1c3.1-2.4,4.6-5.4,4.6-8.8
						c-0.2-4.6-2.3-11.9-6.4-22.1L1861.1,4364.2z M1856.6,4352.5l-36.3-86.5l-37.2,86.5H1856.6z"/>
					<path d="M2132.1,4376.7l5.2,0.9l-18.4,58.2H1953v-5.9h8.2c8.8,0,15.2-2.9,19.3-8.7c2.2-3.5,3.3-11.2,3.3-23.3v-138.3
						c0-13.2-1.5-21.5-4.5-25c-4.1-4.7-10.1-7.1-18.1-7.1h-8.2v-5.9h97.1v5.9c-5.8,0-10.6,0.3-14.5,0.8c-3.9,0.6-7,1.3-9.5,2.4
						c-2.5,1-4.5,2.2-5.9,3.7c-1.4,1.4-2.6,3-3.5,4.7c-1.6,3.1-2.4,11.2-2.4,24.3v134.5c0,7.4,0.5,12.7,1.6,16
						c1.1,3.3,3.3,5.6,6.6,6.8c2.8,0.9,11.1,1.4,24.7,1.4h15.6c16.5,0,28-1.2,34.6-3.5c3.3-1.1,6.4-2.7,9.4-4.7c3-2,5.9-4.7,8.7-8
						c2.8-3.3,5.6-7.3,8.2-12C2126.5,4389.2,2129.2,4383.5,2132.1,4376.7z"/>
				</g>
				<g>
					<path d="M829.7,4566.6v5.9c-4.2,0-7.7,0.4-10.5,1.2c-2.7,0.8-5.3,2.6-7.7,5.3c-2.4,2.8-4.7,6.8-7.1,12.3
						c-2.4,5.4-5.1,12.7-8.2,21.8l-59.6,172.7h-6.4l-48.8-136.9l-48.3,136.9h-5.9l-63.6-177.9c-2.4-6.6-4.2-11.8-5.7-15.7
						c-1.4-3.8-2.5-6.4-3.3-7.7c-2.2-4.1-5.1-7.1-8.6-9.1c-3.5-2-8.4-2.9-14.7-2.9v-5.9h79.2v5.9h-3.8c-5.5,0-9.7,1.3-12.7,3.8
						c-3,2.5-4.5,5.6-4.5,9.2c0,3.8,2.4,12.3,7.1,25.4l42.2,120.2l35.3-102.3l-11.3-32.3c-1.7-3.9-3.5-7.4-5.2-10.4
						c-1.7-3-3.7-5.5-5.9-7.5c-2.2-2-4.8-3.6-7.8-4.6c-3-1-6.6-1.5-10.8-1.5v-5.9h83.2v5.9h-5.7c-6,0-10.3,1.3-13,3.8
						c-2.7,2.5-4,6-4,10.4c0,5.3,2.4,14.7,7.1,28l41,116.4l40.8-118c2.2-6.6,3.9-12.1,5.2-16.5c1.3-4.4,1.9-7.9,1.9-10.6
						c0-5-2.2-8.5-6.6-10.5c-4.4-2-10.1-2.9-17.2-2.9v-5.9H829.7z"/>
					<path d="M950.6,4561.9c13.7,0,26.7,2.8,39.1,8.5c12.4,5.7,23.3,13.4,32.8,23.3c9.4,9.9,16.9,21.6,22.5,35
						c5.6,13.4,8.4,28,8.4,43.7c0,16.2-2.8,31.2-8.4,45c-5.6,13.8-13.1,25.8-22.6,35.9c-9.5,10.1-20.7,18.1-33.5,23.8
						c-12.8,5.7-26.4,8.6-40.9,8.6c-14.6,0-28.3-2.8-41-8.2c-12.7-5.5-23.8-13.2-33.1-23.2c-9.3-10-16.7-21.9-22.1-35.7
						c-5.4-13.8-8.1-29.1-8.1-45.7c0-15.4,2.7-29.8,8.1-43.4c5.4-13.5,12.9-25.2,22.4-35.2c9.5-10,20.8-17.9,33.8-23.7
						C921,4564.8,935.2,4561.9,950.6,4561.9z M947.5,4573.4c-10.8,0-20.5,2.3-28.9,7c-8.4,4.6-15.5,11.2-21.2,19.8
						c-5.7,8.6-10.1,18.9-13.1,31.1c-3,12.2-4.5,25.9-4.5,41.1c0,15.1,1.4,28.9,4.4,41.4c2.9,12.5,7.2,23.2,13,32.3
						c5.7,9,12.8,16,21.3,21c8.5,4.9,18.2,7.4,29.2,7.4c9.9,0,19-1.9,27.4-5.7c8.4-3.8,15.7-9.6,22-17.6
						c6.3-7.9,11.2-18.1,14.7-30.4c3.5-12.3,5.3-27.1,5.3-44.2c0-16.2-1.5-30.7-4.4-43.5c-2.9-12.8-7.3-23.6-13.2-32.5
						c-5.9-8.9-13.2-15.6-21.9-20.3C969.1,4575.7,959,4573.4,947.5,4573.4z"/>
					<path d="M1184.1,4561.9c13.7,0,26.7,2.8,39.1,8.5c12.4,5.7,23.3,13.4,32.8,23.3c9.4,9.9,16.9,21.6,22.5,35
						c5.6,13.4,8.4,28,8.4,43.7c0,16.2-2.8,31.2-8.4,45c-5.6,13.8-13.1,25.8-22.6,35.9c-9.5,10.1-20.7,18.1-33.5,23.8
						c-12.8,5.7-26.4,8.6-40.9,8.6c-14.6,0-28.3-2.8-41-8.2c-12.7-5.5-23.8-13.2-33.1-23.2c-9.3-10-16.7-21.9-22.1-35.7
						c-5.4-13.8-8.1-29.1-8.1-45.7c0-15.4,2.7-29.8,8.1-43.4c5.4-13.5,12.9-25.2,22.4-35.2c9.5-10,20.8-17.9,33.8-23.7
						C1154.5,4564.8,1168.7,4561.9,1184.1,4561.9z M1181,4573.4c-10.8,0-20.5,2.3-28.9,7c-8.4,4.6-15.5,11.2-21.2,19.8
						c-5.7,8.6-10.1,18.9-13.1,31.1c-3,12.2-4.5,25.9-4.5,41.1c0,15.1,1.4,28.9,4.4,41.4c2.9,12.5,7.2,23.2,13,32.3
						c5.7,9,12.8,16,21.3,21c8.5,4.9,18.2,7.4,29.2,7.4c9.9,0,19-1.9,27.4-5.7c8.4-3.8,15.7-9.6,22-17.6
						c6.3-7.9,11.2-18.1,14.7-30.4c3.5-12.3,5.3-27.1,5.3-44.2c0-16.2-1.5-30.7-4.4-43.5c-2.9-12.8-7.3-23.6-13.2-32.5
						c-5.9-8.9-13.2-15.6-21.9-20.3C1202.6,4575.7,1192.5,4573.4,1181,4573.4z"/>
					<path d="M1304.7,4780.8v-5.9h8.2c3.6,0,6.8-0.3,9.7-0.9c2.8-0.6,5.2-2,7.1-4.2c1.9-2.2,3.3-5.4,4.4-9.7c1-4.2,1.5-10,1.5-17.2
						v-138.3c0-13.2-1.5-21.5-4.5-25c-4.1-4.7-10.1-7.1-18.1-7.1h-8.2v-5.9h87.2c31.7,0,56.1,3.7,73,11.1
						c16.8,7.4,30.2,19.5,40.3,36.3c10.2,17.1,15.3,36.7,15.3,58.7c0,15.9-2.6,30.4-7.7,43.6c-5.1,13.2-12.7,24.6-22.9,34.2
						c-10.1,9.6-22.7,17-37.6,22.4c-14.9,5.3-32.3,8-52.1,8H1304.7z M1366,4765.2c13,3,24.2,4.5,33.5,4.5c12.1,0,23.3-2.2,33.7-6.7
						c10.4-4.5,19.4-10.8,27-19.1c7.6-8.2,13.6-18.3,17.9-30c4.3-11.8,6.5-25,6.5-39.6c0-14.8-2.1-28.1-6.4-39.9
						c-4.2-11.9-10.2-21.9-17.9-30.2c-7.7-8.2-16.8-14.6-27.3-19c-10.5-4.4-22.1-6.6-34.6-6.6c-9.3,0-20,1.6-32.3,4.7V4765.2z"/>
				</g>
			</g>
		</g>
		<g id="SELECTOR-TRIPLEX-SUB">
			<circle class="st3" cx="1414.6" cy="1551.8" r="1337.2"/>
			<ellipse class="st4" cx="1420.8" cy="1551.1" rx="1351.1" ry="1340.7"/>
			<line class="st5" x1="235.6" y1="967.5" x2="2606" y2="967.5"/>
			<line class="st5" x1="2436.6" y1="2425.8" x2="406.6" y2="2425.5"/>
			<line class="st6" x1="958.6" y1="1059.6" x2="958.6" y2="2333.7"/>
			<line class="st7" x1="1146.8" y1="1059.6" x2="770.4" y2="1059.6"/>
			<line class="st7" x1="1146.8" y1="2333.2" x2="770.4" y2="2333.2"/>
			<circle class="st8" cx="1410.7" cy="1546.7" r="1337.2"/>
		</g>
		<circle cx="389" cy="3328.1" r="51.7"/>
		<line class="st2" x1="2565.1" y1="868" x2="4172.5" y2="868"/>
		<circle cx="4186.3" cy="868.7" r="47.4"/>
		<g>
			<path d="M1210.6,1881.8l1.1-15.8l72.3-11.1v-252.7h-68.4l1.3-16.1l101.9-16.9h7.1v287l70.8,7.4l-2.4,18.2H1210.6z"/>
			<path d="M1424.7,1860.7c0-8.4,2.2-15.2,6.5-20.2c4.3-5,10.1-7.5,17.3-7.5c7.2,0,13.1,2.6,17.7,7.7c4.6,5.1,6.9,11.9,6.9,20.3
				c0,8.8-2.2,15.9-6.6,21.4c-4.4,5.5-10.3,8.2-17.7,8.2c-7.2,0-13-2.8-17.4-8.3C1426.9,1876.7,1424.7,1869.5,1424.7,1860.7z"/>
			<path d="M1502.3,1858.9l7.4-74.2l17.7,3.7l4.8,52.8c13.9,17.1,32.2,25.6,54.9,25.6c18.8,0,33.8-6,44.9-18.1
				c11.1-12.1,16.6-28,16.6-47.9c0-26-10.9-46.5-32.6-61.4c-21.7-14.9-51.7-23.5-89.9-26l30.4-140.5l118.5-7.1l-5.5,39.3l-101.6,4.5
				l-11.6,68.9c22.7,1.4,42.6,5.1,59.8,11.2c17.2,6.1,30.8,14,41.1,23.6c10.2,9.7,17.8,20.5,22.8,32.3c5,11.9,7.5,24.9,7.5,39.2
				c0,27.6-10.7,51.4-32.1,71.4c-21.4,20-47.9,30-79.6,30C1545.8,1886.3,1521.3,1877.2,1502.3,1858.9z"/>
			<path d="M1797.5,1724c0-16,1.9-32.1,5.8-48.3c3.9-16.2,10-32.1,18.5-47.7c8.4-15.6,18.7-29.3,30.8-41.3
				c12.1-12,27.1-21.6,45.1-28.9c18-7.3,37.7-11,59-11c38.9,0,69.8,8.7,92.7,26.1l-8.2,88.4l-18-2.6l-9.5-63.4
				c-14.8-19.2-38.4-28.8-70.8-28.8c-28.7,0-52.9,13.4-72.7,40.1c-19.8,26.8-29.7,61.2-29.7,103.5c0,47.2,11.1,83.9,33.4,110.2
				c22.3,26.3,51.3,39.5,87,39.5c17.6,0,34.6-4.2,51-12.7c16.4-8.4,30.8-19,43.3-31.7l7.7,15c-11.1,14.8-27.5,28.2-49.2,40.1
				c-21.7,12-45.4,18-70.9,18c-20.2,0-39.2-3.8-56.8-11.4c-17.6-7.6-33-18.3-46.1-32.1c-13.1-13.8-23.5-31.2-31-52
				C1801.3,1772.4,1797.5,1749.3,1797.5,1724z"/>
			<path d="M2085.3,1882.1l2.1-14.3l44.4-10l20.3-279.6l-48.6-9.8l2.4-14.8h95l19.8,50.4l75.8,207.2l88.2-217.5l17.7-40.1h95
				l-1.8,14.8l-45.1,9l14.3,282l47.8,6.9l-1.6,15.8h-131.7l2.1-14.3l44.6-10l-15-262.7l-111.7,272.5l-23.5,3.7l-99.3-268.8
				l-18.7,256.9l48.3,6.9l-2.6,15.8H2085.3z"/>
		</g>
	</g>
	<g id="PARTES-1-8">
	</g>
	<g id="PARTES-1-5">
	</g>
</g>
<g id="MEDIDAS">
</g>
<g id="ELEMENTOS-ADC">
</g>
<g id="TEXTO">
</g>
<g id="SELECTOR-MADERAS">
	<g id="SELECTOR-ELEMENTOS-MADERA">
	</g>
	<g id="SELECTOR-PUERTAS">
	</g>
	<g id="SELECTOR-TRIPLEX">
	</g>
</g>
</svg>
