<?xml version="1.0" encoding="utf-8"?>
<!-- Generator: Adobe Illustrator 26.5.0, SVG Export Plug-In . SVG Version: 6.00 Build 0)  -->
<svg version="1.1" id="TORNILLOSMAD" xmlns="http://www.w3.org/2000/svg" xmlns:xlink="http://www.w3.org/1999/xlink" x="0px"
	 y="0px" viewBox="0 0 5314 2701" style="enable-background:new 0 0 5314 2701;" xml:space="preserve">
<style type="text/css">
	.st0{fill:#F7F7F7;stroke:#000000;stroke-width:20.8718;stroke-miterlimit:10;}
	.st1{fill:#F7F7F7;stroke:#000000;stroke-width:68.3278;stroke-miterlimit:10;}
	.st2{fill:none;stroke:#000000;stroke-width:68.0729;stroke-miterlimit:10;}
</style>
<g id="PUNTILLAS">
	<g id="TORNILLERIA-SOPORTE-4_00000073697413006203562230000008240210573162313872_">
		<circle id="_x31_0_00000165195292160582914830000008888818712141629096_" class="st0" cx="1363" cy="1334.9" r="1289.8"/>
		<g>
			<g>
				<path class="st1" d="M739.6,657.7c0,0,132-36.5,159.5,64.3c27.5,100.8,746.8,1395.4,746.8,1395.4s50.6,113.2,227.1,145.6
					c40.6-120.8-54.7-268.9-54.7-268.9l-756-1470.9c0,0,241.6-153.5-30.2-108C790.7,535,744.3,580.6,722.4,622.2
					C700.8,663.9,739.6,657.7,739.6,657.7z"/>
				<g>
					<g>
						<path d="M906.2,746.1c25.4,3.4,49.6-8.2,67.6-25.1c9.5-9,17.9-19.4,25.5-29.9c7.6-10.5,16.7-21.6,20.8-33.9
							c0.6-2,0.6-5.4,1.1-7.4c0.6-6.1,1.3-11.9,1.9-18s1.3-11.9,1.9-18c0.3-2.4-0.1-5.5,0.4-7.5c-4,12.3-13.1,23.3-20.8,33.9
							c-7.7,10.9-16,21-25.5,29.9c-18.3,17-42.6,28.8-67.6,25.1C911.6,695.1,905.1,746,906.2,746.1L906.2,746.1z"/>
					</g>
				</g>
				<g>
					<g>
						<path d="M918.5,782.1c18.2-3.2,35.5-10.7,50.1-21.8c0.4-0.3,0.5-5.1,0.5-5.1c0.4-4.1,0.9-8.2,1.3-11.9s0.9-8.2,1.3-11.9
							c0.1-0.7-0.2-4.8,0.5-5.1c-14.6,11.2-31.9,18.6-50.1,21.8c-0.3,0-0.6,5.8-0.5,5.1c-0.4,4.1-0.9,8.2-1.3,11.9
							c-0.4,3.7-0.9,8.2-1.3,11.9C919,777.7,918.5,782.1,918.5,782.1L918.5,782.1z"/>
					</g>
				</g>
				<g>
					<g>
						<path d="M952.1,844.4c41.7,1.7,74.4-27.5,98.2-58.3c0.8-0.9,1.1-7.1,1.1-7.4c0.6-6.1,1.3-11.9,1.9-18s1.3-11.9,1.9-18
							c0.2-1.7-0.3-6.6,0.4-7.5c-23.9,30.8-56.5,60.3-98.2,58.3C955.8,793.2,952.8,844.5,952.1,844.4L952.1,844.4z"/>
					</g>
				</g>
				<g>
					<g>
						<path d="M983.1,889.2c16.1,0.7,32.2-5.5,43.7-17c0.4-0.6,0.5-5.1,0.5-5.1c0.4-4.1,0.9-8.2,1.3-11.9c0.4-3.7,0.9-8.2,1.3-11.9
							c0.1-1,0.2-1.7,0.3-2.7c0.1-0.7,0.2-1.7,0.3-2.4c-11.5,11.5-27.3,17.7-43.7,17c-0.3,0-2,15.6-1.8,17
							C984.5,873.2,983.1,889.2,983.1,889.2L983.1,889.2z"/>
					</g>
				</g>
				<g>
					<g>
						<path d="M1002.7,944.2c4.1,3.9,9.8,1.4,14.4-0.2c5-1.9,10.1-4.1,15.1-6.6c10.1-4.8,19.7-10.6,28.9-16.9
							c18.2-12.8,34.3-28.3,47.8-46.1c0.8-0.9,1.1-7.1,1.1-7.4c0.6-6.1,1.3-11.9,1.9-18s1.3-11.9,1.9-18c0.2-1.7-0.4-6.2,0.4-7.5
							c-13.2,17.8-29.3,33.3-47.8,46.1c-8.9,6.3-18.4,11.8-28.2,16.6c-5.1,2.6-9.8,4.8-15.1,6.6c-4.7,1.9-10.8,4.4-14.8,0.5
							c0.3,0-1.2,8.5-1.1,7.4c-0.6,6.1-1.3,11.9-1.9,18c-0.6,6.1-1.3,11.9-1.9,18C1003.4,938.1,1002.1,943.8,1002.7,944.2
							L1002.7,944.2z"/>
					</g>
				</g>
			</g>
			<path class="st2" d="M817,653.2c0,0,219.1-112.5,245.3-130"/>
		</g>
		<g>
			<g>
				<path d="M3460.3,522.2h66.1l149.4,183.3V564.7c0-8.2-0.6-14.8-1.7-19.6c-1.2-4.8-2.9-8.4-5.1-10.7c-2.2-2.3-5-3.8-8.2-4.4
					c-3.2-0.6-6.9-0.9-11-0.9h-8.6v-6.7h85.2v6.7h-8.9c-4.3,0-8.1,0.4-11.3,1.1c-3.2,0.7-5.9,2.3-8.1,4.8c-2.2,2.5-3.8,6.1-4.8,10.8
					c-1.1,4.7-1.6,11-1.6,19.1v205.9h-6.4l-161-196.7v150.5c0,8.4,0.6,15,1.7,19.8c1.2,4.8,2.8,8.3,5,10.6c2.1,2.3,4.8,3.8,8.1,4.3
					s6.9,0.8,11,0.8h8.6v6.7h-84.9v-6.7h8.6c4.3,0,8.1-0.4,11.3-1.1c3.2-0.7,6-2.3,8.2-4.7c2.2-2.4,3.9-6,5-10.6
					c1.1-4.7,1.6-11,1.6-19.1V554.5c-3.6-4.3-6.6-7.7-9-10.2c-2.4-2.5-4.7-4.6-6.9-6.2c-2.2-1.6-4.5-3-7-4c-2.5-1.1-5.6-2.2-9.4-3.5
					c-3.6-1.1-8.9-1.6-15.9-1.6V522.2z"/>
				<path d="M3900.3,684.8h-94.6l-16.7,38.4c-3.9,9.5-5.9,16.6-5.9,21.2c0,2,0.3,3.8,0.9,5.4c0.6,1.6,2,3.1,4,4.4
					c2.1,1.3,4.9,2.5,8.6,3.5c3.7,1,8.6,1.7,14.6,2v6.7h-76.9v-6.7c6.1-0.9,11-2.2,14.8-4c3.8-1.8,7-4.3,9.7-7.4
					c2.7-3.1,5.1-7.2,7.4-12.2c2.2-5,5-11.2,8.2-18.5l86-200.8h6.2l84.9,202.9c3.4,8.4,6.6,15.2,9.5,20.3c3,5.1,6,9.1,9.1,12
					c3.1,2.9,6.5,4.8,10.2,5.9c3.7,1.1,8.1,1.7,13.3,1.9v6.7h-96.5v-6.7c9.7-0.4,16.3-1.9,19.8-4.7c3.5-2.8,5.2-6.1,5.2-10.1
					c-0.2-5.2-2.6-13.6-7.3-25.3L3900.3,684.8z M3895.2,671.4l-41.4-98.6l-42.5,98.6H3895.2z"/>
				<path d="M4111.6,759.8v6.7H4007v-6.7h8.6c4.3,0,8.1-0.3,11.4-0.9c3.3-0.6,6-2.1,8.2-4.6c2.1-2.4,3.8-6.1,5-11
					c1.2-4.9,1.7-11.6,1.7-20V565.5c0-5.6-0.1-10.2-0.4-13.8c-0.3-3.7-0.7-6.7-1.3-9c-0.6-2.3-1.6-4.2-2.8-5.5
					c-1.3-1.3-3-2.6-5.1-3.9c-5.4-2.9-10.9-4.3-16.7-4.3h-8.6v-6.7h104.6v6.7h-8.6c-4.3,0-8.1,0.4-11.4,1.1c-3.3,0.7-6,2.3-8.2,4.7
					c-2.1,2.4-3.8,6.1-5,11c-1.2,4.9-1.7,11.5-1.7,19.8v157.8c0,5.7,0.1,10.4,0.3,14c0.2,3.6,0.6,6.5,1.3,8.9
					c0.7,2.3,1.7,4.2,3.1,5.5c1.3,1.3,3.1,2.6,5.2,3.9c5,2.9,10.5,4.3,16.4,4.3H4111.6z"/>
				<path d="M4332.2,699.1l5.9,1.1l-21,66.4H4128v-6.7h9.4c10,0,17.4-3.3,22-9.9c2.5-3.9,3.8-12.8,3.8-26.6V565.5
					c0-15.1-1.7-24.5-5.1-28.5c-4.7-5.4-11.6-8.1-20.7-8.1h-9.4v-6.7h110.7v6.7c-6.6,0-12.1,0.3-16.5,0.9c-4.4,0.6-8,1.5-10.9,2.7
					c-2.9,1.2-5.1,2.6-6.7,4.2c-1.6,1.6-3,3.4-4,5.4c-1.8,3.6-2.7,12.8-2.7,27.7v153.5c0,8.4,0.6,14.5,1.9,18.3
					c1.3,3.8,3.8,6.4,7.5,7.8c3.2,1.1,12.6,1.6,28.2,1.6h17.7c18.8,0,32-1.3,39.5-4c3.8-1.3,7.3-3,10.8-5.4c3.4-2.3,6.7-5.4,9.9-9.1
					c3.2-3.8,6.4-8.3,9.4-13.7C4325.9,713.3,4329,706.8,4332.2,699.1z"/>
				<path d="M4515,516.8v84.4h-6.7c-3.1-22.8-10.5-40.1-22.3-52.1c-11.8-12-26.9-18-45.2-18c-6.3,0-12,1.1-17.2,3.2
					c-5.2,2.1-9.8,5-13.7,8.5c-3.9,3.5-7,7.5-9.1,12c-2.2,4.5-3.2,9.1-3.2,14c0,4.5,0.9,8.7,2.7,12.8c1.8,4,7.3,10.3,16.7,18.9
					c15.6,9.9,29.5,18,41.7,24.5c11.5,6.3,27,15.8,46.5,28.5c8.4,6.5,14.9,14.1,19.4,23c4.5,8.9,6.7,18.1,6.7,27.8
					c0,9.1-1.9,17.8-5.6,26.1c-3.8,8.2-9,15.5-15.7,21.6c-6.7,6.2-14.8,11.1-24.3,14.8c-9.5,3.7-19.9,5.5-31.2,5.5
					c-7.2,0-13.8-0.5-19.9-1.6c-1.1-0.2-3.9-0.9-8.5-2.3c-4.6-1.3-9.5-2.7-14.6-4.2c-5.2-1.4-10-2.8-14.5-4
					c-4.5-1.3-7.1-1.9-7.8-1.9c-3,0-5.4,0.9-7.1,2.7c-1.7,1.8-3,5.6-3.9,11.3h-6.7v-83.9h6.7c3.2,17.2,7.4,30.4,12.6,39.5
					c2.5,4.3,5.9,8.3,10.1,12c4.2,3.7,9,6.9,14.2,9.7c5.3,2.8,11,4.9,17.1,6.4c6.1,1.5,12.3,2.3,18.5,2.3c7.5,0,14.3-1.1,20.3-3.2
					c6-2.2,11.1-5.1,15.3-8.7c4.2-3.7,7.4-7.9,9.7-12.8c2.2-4.8,3.4-9.9,3.4-15.3c0-6.1-1.7-12.2-5-18.3c-3.3-6.1-8.9-12.1-16.8-18
					c-7.7-4.7-16.8-10.1-27.4-16.4c-20.3-11.6-38.3-22.8-54-33.6c-8.8-7-15.5-14.6-20-23c-4.6-8.3-6.9-17.6-6.9-27.8
					c0-8.6,1.8-16.8,5.4-24.6c3.6-7.8,8.6-14.7,14.9-20.6c6.4-5.9,13.9-10.6,22.7-14c8.8-3.4,18.3-5.1,28.5-5.1
					c12.9,0,26.6,3.1,41.1,9.4c3.4,1.4,6.3,2.6,8.6,3.5c2.3,0.9,4.2,1.3,5.6,1.1c3.2,0,5.8-0.9,7.8-2.7c2-1.8,3.5-5.6,4.6-11.3H4515
					z"/>
			</g>
			<g>
				<path d="M2870.4,856.9c15.6,0,30.5,3.2,44.6,9.7c14.2,6.4,26.6,15.3,37.4,26.6c10.8,11.3,19.3,24.6,25.7,39.9
					c6.4,15.3,9.5,31.9,9.5,49.9c0,18.5-3.2,35.6-9.5,51.3c-6.4,15.8-15,29.4-25.8,41c-10.8,11.6-23.6,20.6-38.2,27.1
					c-14.6,6.5-30.1,9.8-46.6,9.8c-16.7,0-32.3-3.1-46.8-9.4c-14.5-6.3-27.1-15.1-37.8-26.5c-10.7-11.4-19.1-24.9-25.3-40.7
					c-6.2-15.8-9.3-33.1-9.3-52.1c0-17.6,3.1-34,9.3-49.5c6.2-15.4,14.7-28.8,25.5-40.2c10.8-11.4,23.7-20.4,38.6-27
					C2836.6,860.2,2852.9,856.9,2870.4,856.9z M2866.9,870c-12.4,0-23.3,2.6-32.9,7.9c-9.6,5.3-17.7,12.8-24.2,22.6
					c-6.5,9.8-11.5,21.6-14.9,35.5c-3.4,13.9-5.1,29.5-5.1,46.9c0,17.2,1.7,32.9,5,47.2c3.3,14.2,8.2,26.5,14.8,36.8
					c6.5,10.3,14.6,18.3,24.3,23.9c9.7,5.6,20.8,8.5,33.3,8.5c11.3,0,21.7-2.2,31.3-6.5c9.6-4.3,18-11,25.1-20
					c7.2-9,12.8-20.6,16.8-34.7c4-14.1,6-30.9,6-50.4c0-18.5-1.7-35-5-49.6c-3.3-14.6-8.3-27-15.1-37.1c-6.7-10.1-15.1-17.8-25-23.1
					C2891.5,872.7,2880,870,2866.9,870z"/>
				<path d="M3077.4,875.7v96h44.3c5.2,0,9.6-0.5,13.3-1.5c3.7-1,6.8-2.7,9.3-5.2c2.5-2.5,4.5-5.9,5.9-10.2
					c1.4-4.3,2.6-9.8,3.5-16.4h6.7v82.5h-6.7c-0.2-6.1-0.8-11.3-1.9-15.6c-1.1-4.3-2.8-7.8-5.2-10.6c-2.4-2.8-5.6-4.8-9.7-6
					c-4-1.3-9.1-1.9-15.2-1.9h-44.3v76.6c0,5.7,0.1,10.4,0.3,14c0.2,3.6,0.6,6.5,1.3,8.9c0.7,2.3,1.7,4.2,3.1,5.5
					c1.3,1.3,3.1,2.6,5.2,3.9c5,2.9,10.5,4.3,16.4,4.3h8.9v6.7h-104.8v-6.7h8.6c4.3,0,8.1-0.3,11.4-0.9c3.3-0.6,6-2.1,8.2-4.6
					c2.2-2.4,3.8-6.1,5-11c1.2-4.9,1.7-11.6,1.7-20V905.5c0-5.6-0.1-10.2-0.4-13.8c-0.3-3.7-0.7-6.7-1.3-9c-0.6-2.3-1.6-4.2-2.8-5.6
					c-1.3-1.4-3-2.7-5.1-3.8c-2.7-1.4-5.4-2.5-8.1-3.2c-2.7-0.7-5.6-1.1-8.6-1.1h-8.6v-6.7h181.7V916h-4c-2.3-8.8-5-15.8-7.9-21.1
					c-3-5.3-6.5-9.4-10.8-12.2c-4.2-2.9-9.2-4.7-14.9-5.6c-5.7-0.9-12.6-1.3-20.7-1.3H3077.4z"/>
				<path d="M3317.9,908.7c6.8-16.5,15.5-29.2,26.2-38c10.7-8.9,24-13.3,39.9-13.3c8.2,0,15.9,1.3,22.8,4c7,2.7,13,6.3,18,10.9
					c5,4.6,8.9,9.9,11.7,15.9c2.8,6,4.2,12.2,4.2,18.7c0,17.9-11.1,36.3-33.3,55.1c15.2,5.9,26.6,14.3,34.1,25.1
					s11.3,23.7,11.3,38.6c0,12.4-2.3,23.7-6.9,34.1c-4.6,10.4-11.1,19.4-19.5,27c-8.4,7.6-18.5,13.5-30.4,17.7
					c-11.8,4.2-25,6.3-39.5,6.3c-8.4,0-15.4-0.6-20.8-1.7c-5.5-1.2-9.8-2.7-13-4.6c-3.2-1.9-5.5-3.9-6.7-6.2
					c-1.3-2.2-1.9-4.5-1.9-6.9c0-4.3,1.7-7.6,5-9.8c3.3-2.2,7.3-3.4,12-3.4c1.1,0,2.1,0.1,3,0.3c0.9,0.2,2,0.5,3.4,1.1
					c1.3,0.5,3.1,1.3,5.2,2.4c2.1,1.1,5.1,2.6,8.9,4.6c4.3,2.3,7.8,4.1,10.5,5.2c2.7,1.2,5,2,7,2.6c2,0.5,3.8,0.8,5.4,0.8
					c1.8,0,3.9,0,6.5,0c6.1,0,11.9-1.3,17.3-3.9c5.5-2.6,10.3-6.1,14.5-10.5c4.2-4.4,7.5-9.5,9.9-15.3c2.4-5.8,3.6-11.9,3.6-18.1
					c0-3.9-0.4-8-1.3-12.2c-0.9-4.2-2.1-8.3-3.6-12.2c-1.5-3.9-3.3-7.5-5.2-10.7c-2-3.2-4.1-5.9-6.4-8.1c-2.5-2.3-5.6-4.6-9.4-6.9
					c-3.8-2.2-7.8-4.3-12.1-6c-4.3-1.8-8.8-3.2-13.4-4.3c-4.7-1.1-9.2-1.6-13.7-1.6h-5.9V980c9.1-1.3,17.2-3.7,24.2-7.4
					c7-3.7,12.8-8.1,17.5-13.2c4.7-5.1,8.2-10.8,10.6-17.1c2.4-6.3,3.6-12.6,3.6-19.1c0-6.1-1.1-11.7-3.2-16.8
					c-2.2-5.1-5-9.5-8.6-13.2c-3.6-3.7-7.9-6.5-12.9-8.5c-5-2-10.3-3-15.9-3c-18.6,0-34.1,9.9-46.5,29.8L3317.9,908.7z"/>
				<path d="M3587,850.4l-88.4,261.3H3484l88.4-261.3H3587z"/>
				<path d="M3757.7,1016.5v25.5h-32.8v64.5H3695V1042h-103.5v-23.1L3705,857.4h19.9v159.1H3757.7z M3695,1016.5V895.3l-85.7,121.2
					H3695z"/>
				<path d="M3976.2,1099.8v6.7h-104.6v-6.7h8.6c4.3,0,8.1-0.3,11.4-0.9c3.3-0.6,6-2.1,8.2-4.6c2.1-2.4,3.8-6.1,5-11
					c1.2-4.9,1.7-11.6,1.7-20V905.5c0-5.6-0.1-10.2-0.4-13.8c-0.3-3.7-0.7-6.7-1.3-9c-0.6-2.3-1.6-4.2-2.8-5.5
					c-1.3-1.3-3-2.6-5.1-3.9c-5.4-2.9-10.9-4.3-16.7-4.3h-8.6v-6.7h104.6v6.7h-8.6c-4.3,0-8.1,0.4-11.4,1.1c-3.3,0.7-6,2.3-8.2,4.7
					c-2.1,2.4-3.8,6.1-5,11c-1.2,4.9-1.7,11.5-1.7,19.8v157.8c0,5.7,0.1,10.4,0.3,14c0.2,3.6,0.6,6.5,1.3,8.9
					c0.7,2.3,1.7,4.2,3.1,5.5c1.3,1.3,3.1,2.6,5.2,3.9c5,2.9,10.5,4.3,16.4,4.3H3976.2z"/>
				<path d="M3980.5,862.2h66.1l149.4,183.3V904.7c0-8.2-0.6-14.8-1.7-19.6c-1.2-4.8-2.9-8.4-5.1-10.7c-2.2-2.3-5-3.8-8.2-4.4
					c-3.2-0.6-6.9-0.9-11-0.9h-8.6v-6.7h85.2v6.7h-8.9c-4.3,0-8.1,0.4-11.3,1.1c-3.2,0.7-5.9,2.3-8.1,4.8c-2.2,2.5-3.8,6.1-4.8,10.8
					c-1.1,4.7-1.6,11-1.6,19.1v205.9h-6.4l-161-196.7v150.5c0,8.4,0.6,15,1.7,19.8c1.2,4.8,2.8,8.3,5,10.6c2.1,2.3,4.8,3.8,8.1,4.3
					c3.2,0.5,6.9,0.8,11,0.8h8.6v6.7h-84.9v-6.7h8.6c4.3,0,8.1-0.4,11.3-1.1c3.2-0.7,6-2.3,8.2-4.7c2.2-2.4,3.9-6,5-10.6
					c1.1-4.7,1.6-11,1.6-19.1V894.5c-3.6-4.3-6.6-7.7-9-10.2c-2.4-2.5-4.7-4.6-6.9-6.2c-2.2-1.6-4.5-3-7-4c-2.5-1.1-5.6-2.2-9.4-3.5
					c-3.6-1.1-8.9-1.6-15.9-1.6V862.2z"/>
				<path d="M4473.7,856.9l5.6,83.1h-5.6c-7.5-24.9-18.1-42.8-31.8-53.8c-13.7-10.9-30.2-16.4-49.6-16.4c-12.5,0-24.1,2.4-34.7,7.1
					c-10.6,4.8-19.7,12.1-27.3,21.9c-7.6,9.9-13.6,22.2-17.9,37.1c-4.3,14.9-6.5,32.4-6.5,52.7c0,16.3,2,31.1,6,44.3
					c4,13.3,9.9,24.6,17.7,34c7.8,9.4,17.3,16.7,28.6,21.8c11.3,5.1,24.3,7.7,39,7.7c15.4,0,29.4-3.4,41.9-10.2
					c12-6.3,25.4-19.7,40-40.3l5.6,3.5c-12.4,21.7-26.7,37.6-42.9,47.7c-16.2,10.1-35.6,15.2-58.2,15.2c-17.4,0-33.3-3-47.8-9.1
					c-14.5-6.1-27-14.6-37.5-25.7c-10.5-11-18.7-24.1-24.6-39.2c-5.9-15.1-8.9-31.8-8.9-49.9c0-24.5,5.5-46.9,16.4-67.2
					c10.8-20.4,25.7-36.2,44.9-47.3c19.4-11.3,40.3-16.9,62.9-16.9c17.7,0,35.1,4.3,52.1,12.9c5,2.7,8.6,4,10.8,4
					c3.9,0,7.2-1.6,9.8-4.8c2.6-3.2,4.4-7.3,5.5-12.1H4473.7z"/>
				<path d="M4573.4,975.7h113.4v-69.9c0-5.7-0.1-10.4-0.3-14.1c-0.2-3.7-0.6-6.7-1.3-9c-0.7-2.3-1.7-4.2-3.1-5.5
					c-1.3-1.3-3.1-2.6-5.2-3.9c-5-2.9-10.5-4.3-16.4-4.3h-8.6v-6.7h104.6v6.7h-8.6c-2.3,0-4.8,0.3-7.4,0.8c-2.6,0.5-5,1.3-7.3,2.4
					c-2.2,1.1-4.3,2.4-6,4c-1.8,1.6-3,3.5-3.8,5.6c-1.3,3.8-1.9,11.7-1.9,23.9v157.5c0,5.7,0.1,10.4,0.4,14c0.3,3.6,0.7,6.5,1.3,8.9
					c0.6,2.3,1.6,4.2,2.8,5.5c1.3,1.3,3,2.6,5.1,3.9c5,2.9,10.6,4.3,16.7,4.3h8.6v6.7h-104.6v-6.7h8.6c4.1,0,7.8-0.3,11-0.9
					c3.2-0.6,6-2.1,8.3-4.6c2.3-2.4,4.1-6.1,5.2-11c1.2-4.9,1.7-11.6,1.7-20v-74.5h-113.4v74.5c0,5.7,0.1,10.4,0.3,14
					c0.2,3.6,0.6,6.5,1.3,8.9c0.7,2.3,1.7,4.2,3.1,5.5c1.3,1.3,3.1,2.6,5.2,3.9c5,2.9,10.5,4.3,16.4,4.3h8.9v6.7h-104.8v-6.7h8.9
					c9.9,0,17.1-3,21.8-8.9c2.9-3.6,4.3-12.8,4.3-27.7V905.8c0-5.9-0.1-10.7-0.3-14.4c-0.2-3.7-0.6-6.6-1.3-8.9
					c-0.7-2.2-1.7-4-3-5.4c-1.3-1.3-3-2.6-5.1-3.9c-5-2.9-10.5-4.3-16.4-4.3h-8.9v-6.7h104.8v6.7h-8.9c-2.1,0-4.5,0.3-7.1,0.8
					c-2.6,0.5-5,1.3-7.3,2.4c-2.2,1.1-4.3,2.4-6,4c-1.8,1.6-3,3.5-3.8,5.6c-1.4,4.3-2.1,12.3-2.1,23.9V975.7z"/>
				<path d="M4841.1,875.7v96.5h53.5c7.9,0,14.2-0.7,19.1-2.2c4.8-1.4,8.6-3.6,11.4-6.5c2.8-2.9,4.7-6.5,5.8-11
					c1.1-4.5,1.8-9.8,2.2-15.9h6.7v84.9h-6.7c-0.9-7-1.9-12.8-3.1-17.5c-1.2-4.7-3-8.4-5.6-11.2c-2.6-2.8-6.2-4.7-10.9-5.9
					c-4.7-1.2-10.9-1.7-18.8-1.7h-53.5v80.6c0,6.1,0.1,10.9,0.3,14.5c0.2,3.6,0.9,6.3,2.1,8.2c1.3,1.9,3.2,3.1,5.9,3.6
					c2.7,0.5,6.6,0.8,11.8,0.8h41.4c7,0,12.9-0.2,17.7-0.5c4.8-0.4,9-1.1,12.5-2.1s6.6-2.6,9.3-4.4c2.7-1.9,5.6-4.3,8.6-7.1
					c7.2-7,14.8-18.2,22.8-33.6h7.3l-21.2,61.3h-188.1v-6.7h8.6c2.3,0,4.7-0.3,7.3-0.8c2.5-0.5,4.9-1.3,7.1-2.3c2.2-1,4.3-2.3,6-3.9
					c1.8-1.6,3-3.5,3.8-5.6c1.4-3.9,2.1-11.8,2.1-23.7V905c0-15.6-1.5-25.2-4.6-28.8c-4.3-4.8-11.6-7.3-21.8-7.3h-8.6v-6.7h188.1
					v53.5h-4.3c-1.8-8.8-3.7-15.8-5.8-21.1c-2.1-5.3-4.8-9.4-8.2-12.2c-3.4-2.9-7.8-4.7-13-5.5c-5.3-0.8-12.1-1.2-20.3-1.2H4841.1z"
					/>
				<path d="M5158.2,856.9v84.4h-6.7c-3.1-22.8-10.5-40.1-22.3-52.1c-11.8-12-26.9-18-45.2-18c-6.3,0-12,1.1-17.2,3.2
					c-5.2,2.1-9.8,5-13.7,8.5c-3.9,3.5-7,7.5-9.1,12c-2.2,4.5-3.2,9.1-3.2,14c0,4.5,0.9,8.7,2.7,12.8c1.8,4,7.3,10.3,16.7,18.9
					c15.6,9.9,29.5,18,41.7,24.5c11.5,6.3,27,15.8,46.5,28.5c8.4,6.5,14.9,14.1,19.4,23c4.5,8.9,6.7,18.1,6.7,27.8
					c0,9.1-1.9,17.8-5.6,26.1c-3.8,8.2-9,15.5-15.7,21.6c-6.7,6.2-14.8,11.1-24.3,14.8c-9.5,3.7-19.9,5.5-31.2,5.5
					c-7.2,0-13.8-0.5-19.9-1.6c-1.1-0.2-3.9-0.9-8.5-2.3c-4.6-1.3-9.5-2.7-14.6-4.2c-5.2-1.4-10-2.8-14.5-4
					c-4.5-1.3-7.1-1.9-7.8-1.9c-3,0-5.4,0.9-7.1,2.7c-1.7,1.8-3,5.6-3.9,11.3h-6.7v-83.9h6.7c3.2,17.2,7.4,30.4,12.6,39.5
					c2.5,4.3,5.9,8.3,10.1,12c4.2,3.7,9,6.9,14.2,9.7c5.3,2.8,11,4.9,17.1,6.4c6.1,1.5,12.3,2.3,18.5,2.3c7.5,0,14.3-1.1,20.3-3.2
					c6-2.2,11.1-5.1,15.3-8.7c4.2-3.7,7.4-7.9,9.7-12.8c2.2-4.8,3.4-9.9,3.4-15.3c0-6.1-1.7-12.2-5-18.3c-3.3-6.1-8.9-12.1-16.8-18
					c-7.7-4.7-16.8-10.1-27.4-16.4c-20.3-11.6-38.3-22.8-54-33.6c-8.8-7-15.5-14.6-20-23c-4.6-8.3-6.9-17.6-6.9-27.8
					c0-8.6,1.8-16.8,5.4-24.6c3.6-7.8,8.6-14.7,14.9-20.6c6.4-5.9,13.9-10.6,22.7-14c8.8-3.4,18.3-5.1,28.5-5.1
					c12.9,0,26.6,3.1,41.1,9.4c3.4,1.4,6.3,2.6,8.6,3.5c2.3,0.9,4.2,1.3,5.6,1.1c3.2,0,5.8-0.9,7.8-2.7c2-1.8,3.5-5.6,4.6-11.3
					H5158.2z"/>
			</g>
			<g>
				<path d="M3036.2,1259.4l59.4-29h5.9v206.2c0,7.2,0.1,12.8,0.3,16.8c0.2,4,0.6,7.1,1.3,9.3c0.7,2.2,1.6,3.7,2.7,4.6
					c1.1,0.9,2.6,1.8,4.6,2.7c3.6,2,10.9,3,22,3v6.7h-91.9v-6.7c5.9,0,10.7-0.3,14.2-0.8c3.6-0.5,6.4-1.2,8.3-2
					c2-0.8,3.4-1.8,4.4-3.1c1-1.3,1.7-2.6,2.3-4c1.3-2.7,1.9-11.5,1.9-26.3v-132c0-10.4-0.2-18.6-0.7-24.6c-0.4-6-1.2-10.4-2.3-13.3
					c-1.1-2.9-2.5-4.7-4.3-5.5c-1.8-0.8-4.1-1.2-7-1.2c-5,0-11.2,1.6-18.5,4.8L3036.2,1259.4z"/>
				<path d="M3491.5,1229.8l5.6,83.1h-5.6c-7.5-24.9-18.1-42.8-31.8-53.8c-13.7-10.9-30.2-16.4-49.6-16.4c-12.5,0-24.1,2.4-34.7,7.1
					c-10.6,4.8-19.7,12.1-27.3,21.9c-7.6,9.9-13.6,22.2-17.9,37.1c-4.3,14.9-6.5,32.4-6.5,52.7c0,16.3,2,31.1,6,44.3
					c4,13.3,9.9,24.6,17.7,34c7.8,9.4,17.3,16.7,28.6,21.8c11.3,5.1,24.3,7.7,39,7.7c15.4,0,29.4-3.4,41.9-10.2
					c12-6.3,25.4-19.7,40-40.3l5.6,3.5c-12.4,21.7-26.7,37.6-42.9,47.7c-16.2,10.1-35.6,15.2-58.2,15.2c-17.4,0-33.3-3-47.8-9.1
					c-14.5-6.1-27-14.6-37.5-25.7c-10.5-11-18.7-24.1-24.6-39.2c-5.9-15.1-8.9-31.8-8.9-49.9c0-24.5,5.5-46.9,16.4-67.2
					c10.8-20.4,25.7-36.2,44.9-47.3c19.4-11.3,40.3-16.9,62.9-16.9c17.7,0,35.1,4.3,52.1,12.9c5,2.7,8.6,4,10.8,4
					c3.9,0,7.2-1.6,9.8-4.8c2.6-3.2,4.4-7.3,5.5-12.1H3491.5z"/>
				<path d="M3666.2,1479.5l-94.3-205.3v163.1c0,8.4,0.6,15,1.7,19.8c1.2,4.8,2.9,8.3,5.1,10.6c2.2,2.3,5,3.8,8.2,4.3
					c3.2,0.5,6.9,0.8,11,0.8h8.6v6.7h-84.9v-6.7h8.6c4.3,0,8.1-0.3,11.3-0.9c3.2-0.6,5.9-2.1,8.1-4.6c2.2-2.4,3.8-6,4.8-10.8
					c1.1-4.7,1.6-11.2,1.6-19.2v-159.7c0-5.7-0.3-10.8-0.8-15.2c-0.5-4.4-1.9-8.1-4.2-11.2c-2.2-3-5.6-5.4-10.2-7
					c-4.6-1.6-11-2.4-19.2-2.4v-6.7h69.1l88.7,191.1l87.1-191.1h69.1v6.7h-8.3c-4.5,0-8.3,0.4-11.6,1.1c-3.2,0.7-5.9,2.3-8.1,4.7
					c-2.2,2.4-3.8,6-4.8,10.8c-1.1,4.8-1.6,11.2-1.6,19.2v159.7c0,8.4,0.6,15,1.7,19.8c1.2,4.8,2.9,8.3,5.1,10.6
					c2.2,2.3,5,3.8,8.2,4.3c3.2,0.5,6.9,0.8,11,0.8h8.3v6.7h-103.7v-6.7h8.6c4.3,0,8.1-0.4,11.3-1.1c3.2-0.7,6-2.3,8.2-4.7
					c2.2-2.4,3.9-6,5-10.6c1.1-4.7,1.6-11,1.6-19.1v-163.1l-94.1,205.3H3666.2z"/>
				<path d="M4147.1,1412l5.9,1.1l-21,66.4h-189.2v-6.7h9.4c10,0,17.4-3.3,22-9.9c2.5-3.9,3.8-12.8,3.8-26.6v-157.8
					c0-15.1-1.7-24.5-5.1-28.5c-4.7-5.4-11.6-8.1-20.7-8.1h-9.4v-6.7h110.7v6.7c-6.6,0-12.1,0.3-16.5,0.9c-4.4,0.6-8,1.5-10.9,2.7
					c-2.9,1.2-5.1,2.6-6.7,4.2c-1.6,1.6-3,3.4-4,5.4c-1.8,3.6-2.7,12.8-2.7,27.7v153.5c0,8.4,0.6,14.5,1.9,18.3
					c1.3,3.8,3.8,6.4,7.5,7.8c3.2,1.1,12.6,1.6,28.2,1.6h17.7c18.8,0,32-1.3,39.5-4c3.8-1.3,7.3-3,10.8-5.4c3.4-2.3,6.7-5.4,9.9-9.1
					c3.2-3.8,6.4-8.3,9.4-13.7C4140.7,1426.3,4143.9,1419.7,4147.1,1412z"/>
				<path d="M4295.7,1229.8c15.6,0,30.5,3.2,44.6,9.7c14.2,6.4,26.6,15.3,37.4,26.6c10.8,11.3,19.3,24.6,25.7,39.9
					c6.4,15.3,9.5,31.9,9.5,49.9c0,18.5-3.2,35.6-9.5,51.3c-6.4,15.8-15,29.4-25.8,41c-10.8,11.6-23.6,20.6-38.2,27.1
					c-14.6,6.5-30.1,9.8-46.6,9.8c-16.7,0-32.3-3.1-46.8-9.4c-14.5-6.3-27.1-15.1-37.8-26.5c-10.7-11.4-19.1-24.9-25.3-40.7
					c-6.2-15.8-9.3-33.1-9.3-52.1c0-17.6,3.1-34,9.3-49.5c6.2-15.4,14.7-28.8,25.5-40.2c10.8-11.4,23.7-20.4,38.6-27
					C4261.9,1233.1,4278.1,1229.8,4295.7,1229.8z M4292.2,1243c-12.4,0-23.3,2.6-32.9,7.9c-9.6,5.3-17.7,12.8-24.2,22.6
					c-6.5,9.8-11.5,21.6-14.9,35.5c-3.4,13.9-5.1,29.5-5.1,46.9c0,17.2,1.7,32.9,5,47.2c3.3,14.2,8.2,26.5,14.8,36.8
					c6.5,10.3,14.6,18.3,24.3,23.9c9.7,5.6,20.8,8.5,33.3,8.5c11.3,0,21.7-2.2,31.3-6.5c9.6-4.3,18-11,25.1-20
					c7.2-9,12.8-20.6,16.8-34.7c4-14.1,6-30.9,6-50.4c0-18.5-1.7-35-5-49.6c-3.3-14.6-8.3-27-15.1-37.1c-6.7-10.1-15.1-17.8-25-23.1
					C4316.8,1245.6,4305.3,1243,4292.2,1243z"/>
				<path d="M4422.3,1235.2h66.1l149.4,183.3v-140.8c0-8.2-0.6-14.8-1.7-19.6c-1.2-4.8-2.9-8.4-5.1-10.7c-2.2-2.3-5-3.8-8.2-4.4
					c-3.2-0.6-6.9-0.9-11-0.9h-8.6v-6.7h85.2v6.7h-8.9c-4.3,0-8.1,0.4-11.3,1.1c-3.2,0.7-5.9,2.3-8.1,4.8c-2.2,2.5-3.8,6.1-4.8,10.8
					c-1.1,4.7-1.6,11-1.6,19.1v205.9h-6.4l-161-196.7v150.5c0,8.4,0.6,15,1.7,19.8c1.2,4.8,2.8,8.3,5,10.6c2.1,2.3,4.8,3.8,8.1,4.3
					c3.2,0.5,6.9,0.8,11,0.8h8.6v6.7h-84.9v-6.7h8.6c4.3,0,8.1-0.4,11.3-1.1c3.2-0.7,6-2.3,8.2-4.7c2.2-2.4,3.9-6,5-10.6
					c1.1-4.7,1.6-11,1.6-19.1v-169.9c-3.6-4.3-6.6-7.7-9-10.2c-2.4-2.5-4.7-4.6-6.9-6.2c-2.2-1.6-4.5-3-7-4
					c-2.5-1.1-5.6-2.2-9.4-3.5c-3.6-1.1-8.9-1.6-15.9-1.6V1235.2z"/>
				<path d="M4919.8,1229.8l6.5,76.9h-6.5c-7.3-22.6-17.8-38.9-31.3-49.1c-13.5-10.1-30-15.2-49.3-15.2c-14.3,0-27.1,2.8-38.4,8.5
					c-11.3,5.6-20.9,13.4-28.8,23.4c-7.9,9.9-13.9,21.7-18,35.2c-4.1,13.5-6.2,28.2-6.2,43.9c0,23.1,4.6,44.3,13.7,63.7
					c4.5,9.7,9.7,18,15.7,25c6,7,12.5,12.8,19.5,17.3c7,4.6,14.3,7.9,21.9,10.1c7.6,2.1,15.3,3.2,23,3.2c17.9,0,34.8-4.5,50.5-13.4
					v-70.7c0-6.1-0.2-11.1-0.7-14.9c-0.5-3.9-1.2-6.9-2.2-9.1c-1-2.2-2.2-3.9-3.6-5.1c-1.4-1.2-3.1-2.3-5.1-3.4
					c-3.9-2-10.8-3-20.4-3v-7h94.6v7h-4.6c-4.1,0-7.6,0.4-10.5,1.3c-2.9,0.9-5.2,2.6-7.1,5.1c-1.9,2.5-3.2,6.1-4,10.8
					c-0.8,4.7-1.2,10.7-1.2,18.3v74.7c-7,3.8-13.8,7-20.6,9.8c-6.7,2.8-13.5,5-20.3,6.6c-14,3.6-28.9,5.4-44.9,5.4
					c-20.4,0-38.9-3.1-55.5-9.4c-16.6-6.3-30.8-15-42.6-26.1c-11.8-11.1-21-24.2-27.4-39.2c-6.5-15.1-9.7-31.4-9.7-49.2
					c0-21.3,5.2-41.9,15.6-61.8c12-23.3,28.8-41.3,50.3-54c17.9-10.4,39.1-15.6,63.4-15.6c4.8,0,9.1,0.1,12.9,0.4
					c3.8,0.3,7.7,0.8,11.7,1.6c4,0.8,8.4,2,13.2,3.5c4.7,1.5,10.5,3.5,17.3,6c6.8,2.7,11.4,3.9,13.7,3.8c2.1,0,4-1,5.6-3.1
					c1.6-2.1,2.6-6.1,3-12.2H4919.8z"/>
			</g>
			<g>
				<path d="M3689.8,1580h66.1l149.4,183.3v-140.8c0-8.2-0.6-14.8-1.7-19.6c-1.2-4.8-2.9-8.4-5.1-10.7c-2.2-2.3-5-3.8-8.2-4.4
					s-6.9-0.9-11-0.9h-8.6v-6.7h85.2v6.7h-8.9c-4.3,0-8.1,0.4-11.3,1.1c-3.2,0.7-5.9,2.3-8.1,4.8c-2.2,2.5-3.8,6.1-4.8,10.8
					c-1.1,4.7-1.6,11-1.6,19.1v205.9h-6.4l-161-196.7v150.5c0,8.4,0.6,15,1.7,19.8c1.2,4.8,2.8,8.3,5,10.6c2.1,2.3,4.8,3.8,8.1,4.3
					s6.9,0.8,11,0.8h8.6v6.7h-84.9v-6.7h8.6c4.3,0,8.1-0.4,11.3-1.1c3.2-0.7,6-2.3,8.2-4.7c2.2-2.4,3.9-6,5-10.6
					c1.1-4.7,1.6-11,1.6-19.1v-169.9c-3.6-4.3-6.6-7.7-9-10.2c-2.4-2.5-4.7-4.6-6.9-6.2c-2.2-1.6-4.5-3-7-4
					c-2.5-1.1-5.6-2.2-9.4-3.5c-3.6-1.1-8.9-1.6-15.9-1.6V1580z"/>
				<path d="M4129.8,1742.6h-94.6l-16.7,38.4c-3.9,9.5-5.9,16.6-5.9,21.2c0,2,0.3,3.8,0.9,5.4c0.6,1.6,2,3.1,4,4.4
					c2.1,1.3,4.9,2.5,8.6,3.5c3.7,1,8.6,1.7,14.6,2v6.7H3964v-6.7c6.1-0.9,11-2.2,14.8-4c3.8-1.8,7-4.3,9.7-7.4
					c2.7-3.1,5.1-7.2,7.4-12.2c2.2-5,5-11.2,8.2-18.5l86-200.8h6.2l84.9,202.9c3.4,8.4,6.6,15.2,9.5,20.3c3,5.1,6,9.1,9.1,12
					c3.1,2.9,6.5,4.8,10.2,5.9c3.7,1.1,8.1,1.7,13.3,1.9v6.7h-96.5v-6.7c9.7-0.4,16.3-1.9,19.8-4.7c3.5-2.8,5.2-6.1,5.2-10.1
					c-0.2-5.2-2.6-13.6-7.3-25.3L4129.8,1742.6z M4124.7,1729.2l-41.4-98.6l-42.5,98.6H4124.7z"/>
				<path d="M4341.1,1817.6v6.7h-104.6v-6.7h8.6c4.3,0,8.1-0.3,11.4-0.9c3.3-0.6,6-2.1,8.2-4.6c2.1-2.4,3.8-6.1,5-11
					c1.2-4.9,1.7-11.6,1.7-20v-157.8c0-5.6-0.1-10.2-0.4-13.8c-0.3-3.7-0.7-6.7-1.3-9c-0.6-2.3-1.6-4.2-2.8-5.5
					c-1.3-1.3-3-2.6-5.1-3.9c-5.4-2.9-10.9-4.3-16.7-4.3h-8.6v-6.7h104.6v6.7h-8.6c-4.3,0-8.1,0.4-11.4,1.1c-3.3,0.7-6,2.3-8.2,4.7
					c-2.1,2.4-3.8,6.1-5,11c-1.2,4.9-1.7,11.5-1.7,19.8v157.8c0,5.7,0.1,10.4,0.3,14c0.2,3.6,0.6,6.5,1.3,8.9
					c0.7,2.3,1.7,4.2,3.1,5.5c1.3,1.3,3.1,2.6,5.2,3.9c5,2.9,10.5,4.3,16.4,4.3H4341.1z"/>
				<path d="M4561.7,1756.9l5.9,1.1l-21,66.4h-189.2v-6.7h9.4c10,0,17.4-3.3,22-9.9c2.5-3.9,3.8-12.8,3.8-26.6v-157.8
					c0-15.1-1.7-24.5-5.1-28.5c-4.7-5.4-11.6-8.1-20.7-8.1h-9.4v-6.7h110.7v6.7c-6.6,0-12.1,0.3-16.5,0.9c-4.4,0.6-8,1.5-10.9,2.7
					c-2.9,1.2-5.1,2.6-6.7,4.2c-1.6,1.6-3,3.4-4,5.4c-1.8,3.6-2.7,12.8-2.7,27.7v153.5c0,8.4,0.6,14.5,1.9,18.3
					c1.3,3.8,3.8,6.4,7.5,7.8c3.2,1.1,12.6,1.6,28.2,1.6h17.7c18.8,0,32-1.3,39.5-4c3.8-1.3,7.3-3,10.8-5.4c3.4-2.3,6.7-5.4,9.9-9.1
					c3.2-3.8,6.4-8.3,9.4-13.7C4555.4,1771.1,4558.5,1764.6,4561.7,1756.9z"/>
				<path d="M4744.5,1574.6v84.4h-6.7c-3.1-22.8-10.5-40.1-22.3-52.1c-11.8-12-26.9-18-45.2-18c-6.3,0-12,1.1-17.2,3.2
					c-5.2,2.1-9.8,5-13.7,8.5c-3.9,3.5-7,7.5-9.1,12c-2.2,4.5-3.2,9.1-3.2,14c0,4.5,0.9,8.7,2.7,12.8c1.8,4,7.3,10.3,16.7,18.9
					c15.6,9.9,29.5,18,41.7,24.5c11.5,6.3,27,15.8,46.5,28.5c8.4,6.5,14.9,14.1,19.4,23c4.5,8.9,6.7,18.1,6.7,27.8
					c0,9.1-1.9,17.8-5.6,26.1c-3.8,8.2-9,15.5-15.7,21.6c-6.7,6.2-14.8,11.1-24.3,14.8c-9.5,3.7-19.9,5.5-31.2,5.5
					c-7.2,0-13.8-0.5-19.9-1.6c-1.1-0.2-3.9-0.9-8.5-2.3c-4.6-1.3-9.5-2.7-14.6-4.2c-5.2-1.4-10-2.8-14.5-4
					c-4.5-1.3-7.1-1.9-7.8-1.9c-3,0-5.4,0.9-7.1,2.7c-1.7,1.8-3,5.6-3.9,11.3h-6.7v-83.9h6.7c3.2,17.2,7.4,30.4,12.6,39.5
					c2.5,4.3,5.9,8.3,10.1,12c4.2,3.7,9,6.9,14.2,9.7c5.3,2.8,11,4.9,17.1,6.4c6.1,1.5,12.3,2.3,18.5,2.3c7.5,0,14.3-1.1,20.3-3.2
					c6-2.2,11.1-5.1,15.3-8.7c4.2-3.7,7.4-7.9,9.7-12.8c2.2-4.8,3.4-9.9,3.4-15.3c0-6.1-1.7-12.2-5-18.3c-3.3-6.1-8.9-12.1-16.8-18
					c-7.7-4.7-16.8-10.1-27.4-16.4c-20.3-11.6-38.3-22.8-54-33.6c-8.8-7-15.5-14.6-20-23c-4.6-8.3-6.9-17.6-6.9-27.8
					c0-8.6,1.8-16.8,5.4-24.6c3.6-7.8,8.6-14.7,14.9-20.6c6.4-5.9,13.9-10.6,22.7-14c8.8-3.4,18.3-5.1,28.5-5.1
					c12.9,0,26.6,3.1,41.1,9.4c3.4,1.4,6.3,2.6,8.6,3.5c2.3,0.9,4.2,1.3,5.6,1.1c3.2,0,5.8-0.9,7.8-2.7c2-1.8,3.5-5.6,4.6-11.3
					H4744.5z"/>
				<g>
					<path d="M3267.3,1608.1l59.9-29.3h6v207.8c0,7.2,0.1,12.9,0.3,16.9c0.2,4.1,0.6,7.2,1.4,9.3c0.7,2.2,1.6,3.7,2.7,4.6
						c1.1,0.9,2.6,1.8,4.6,2.7c3.6,2,11,3,22.2,3v6.8h-92.6v-6.8c6,0,10.7-0.3,14.4-0.8c3.6-0.5,6.4-1.2,8.4-2
						c2-0.8,3.5-1.8,4.5-3.1c1-1.3,1.8-2.6,2.3-4.1c1.3-2.7,1.9-11.6,1.9-26.5v-133c0-10.5-0.2-18.7-0.7-24.8
						c-0.5-6-1.2-10.5-2.3-13.4c-1.1-2.9-2.5-4.7-4.3-5.6c-1.8-0.8-4.2-1.2-7-1.2c-5.1,0-11.3,1.6-18.7,4.9L3267.3,1608.1z"/>
					<path d="M3580,1782.6l-17.3,47.4h-145.2v-6.8c42.1-39.9,72.2-71.7,90.2-95.4c17.5-24.6,26.3-47.1,26.3-67.7
						c0-7.8-1.3-14.9-3.9-21.5c-2.6-6.6-6.1-12.2-10.6-16.9c-4.4-4.7-9.6-8.4-15.4-11.1c-5.9-2.7-12.1-4.1-18.8-4.1
						c-12.1,0-22.9,3.5-32.5,10.6c-9.6,7-16.7,17.4-21.4,31.2h-6.5c3.1-22.6,10.8-39.8,23.2-51.6c12.4-11.8,28-17.7,47-17.7
						c9.9,0,19.2,1.8,27.8,5.3c8.6,3.5,16,8.3,22.2,14.2c6.2,6,11.1,12.8,14.8,20.6c3.6,7.8,5.4,15.9,5.4,24.4
						c0,12.5-2.2,23.9-6.6,34.4c-4.4,10.5-8.9,19-13.5,25.6c-4.6,6.6-11.2,15.4-19.9,26.4c-16.4,18.4-29.6,32.9-39.4,43.3
						c-9.8,10.5-19.6,20.3-29.4,29.5h64.2c8.1,0,15-0.2,20.6-0.5c5.6-0.4,10.3-1.2,14.2-2.6c3.9-1.4,7.2-3.4,9.9-6.1
						c2.7-2.7,5.4-6.3,8.1-10.8H3580z"/>
				</g>
			</g>
			<g>
				<path d="M3393.1,1934.3v57.5h-4c-2-15.4-6.5-26.3-13.6-32.7c-7.1-6.4-17.5-9.5-31.3-9.5h-34.4v186.8c0,8.2,0.6,14.7,1.7,19.5
					c1.2,4.8,2.8,8.3,5,10.6c2.1,2.3,4.8,3.8,8.1,4.4c3.2,0.6,7,0.9,11.3,0.9h8.3v6.7h-103.5v-6.7h8.6c4.3,0,8.1-0.4,11.3-1.1
					c3.2-0.7,5.9-2.3,8.1-4.7c2.2-2.4,3.8-6,5-10.6c1.2-4.7,1.7-11,1.7-19.1v-186.8h-29.3c-7.3,0-13.8,0.6-19.5,1.7
					c-5.6,1.2-10.5,3.3-14.6,6.5c-4.1,3.1-7.4,7.4-9.8,12.9c-2.4,5.5-3.9,12.5-4.4,21.1h-6.7v-57.5H3393.1z"/>
				<path d="M3533.1,1928.9c15.6,0,30.5,3.2,44.6,9.7c14.2,6.4,26.6,15.3,37.4,26.6c10.8,11.3,19.3,24.6,25.7,39.9
					c6.4,15.3,9.5,31.9,9.5,49.9c0,18.5-3.2,35.6-9.5,51.3c-6.4,15.8-15,29.4-25.8,41c-10.8,11.6-23.6,20.6-38.2,27.1
					c-14.6,6.5-30.1,9.8-46.6,9.8c-16.7,0-32.3-3.1-46.8-9.4c-14.5-6.3-27.1-15.1-37.8-26.5c-10.7-11.4-19.1-24.9-25.3-40.7
					c-6.2-15.8-9.3-33.1-9.3-52.1c0-17.6,3.1-34,9.3-49.5c6.2-15.4,14.7-28.8,25.5-40.2c10.8-11.4,23.7-20.4,38.6-27
					C3499.3,1932.2,3515.6,1928.9,3533.1,1928.9z M3529.6,1942c-12.4,0-23.3,2.6-32.9,7.9c-9.6,5.3-17.7,12.8-24.2,22.6
					c-6.5,9.8-11.5,21.6-14.9,35.5c-3.4,13.9-5.1,29.5-5.1,46.9c0,17.2,1.7,32.9,5,47.2c3.3,14.2,8.2,26.5,14.8,36.8
					c6.5,10.3,14.6,18.3,24.3,23.9c9.7,5.6,20.8,8.5,33.3,8.5c11.3,0,21.7-2.2,31.3-6.5c9.6-4.3,18-11,25.1-20
					c7.2-9,12.8-20.6,16.8-34.7c4-14.1,6-30.9,6-50.4c0-18.5-1.7-35-5-49.6c-3.3-14.6-8.3-27-15.1-37.1c-6.7-10.1-15.1-17.8-25-23.1
					C3554.2,1944.7,3542.7,1942,3529.6,1942z"/>
				<path d="M3878,1934.3v57.5h-4c-2-15.4-6.5-26.3-13.6-32.7c-7.1-6.4-17.5-9.5-31.3-9.5h-34.4v186.8c0,8.2,0.6,14.7,1.7,19.5
					c1.2,4.8,2.8,8.3,5,10.6c2.1,2.3,4.8,3.8,8.1,4.4c3.2,0.6,7,0.9,11.3,0.9h8.3v6.7h-103.5v-6.7h8.6c4.3,0,8.1-0.4,11.3-1.1
					c3.2-0.7,5.9-2.3,8.1-4.7c2.2-2.4,3.8-6,5-10.6c1.2-4.7,1.7-11,1.7-19.1v-186.8h-29.3c-7.3,0-13.8,0.6-19.5,1.7
					c-5.6,1.2-10.5,3.3-14.6,6.5c-4.1,3.1-7.4,7.4-9.8,12.9c-2.4,5.5-3.9,12.5-4.4,21.1h-6.7v-57.5H3878z"/>
				<path d="M4029,2096.9h-94.6l-16.7,38.4c-3.9,9.5-5.9,16.6-5.9,21.2c0,2,0.3,3.8,0.9,5.4c0.6,1.6,2,3.1,4,4.4
					c2.1,1.3,4.9,2.5,8.6,3.5c3.7,1,8.6,1.7,14.6,2v6.7h-76.9v-6.7c6.1-0.9,11-2.2,14.8-4c3.8-1.8,7-4.3,9.7-7.4
					c2.7-3.1,5.1-7.2,7.4-12.2c2.2-5,5-11.2,8.2-18.5l86-200.8h6.2l84.9,202.9c3.4,8.4,6.6,15.2,9.5,20.3c3,5.1,6,9.1,9.1,12
					c3.1,2.9,6.5,4.8,10.2,5.9c3.7,1.1,8.1,1.7,13.3,1.9v6.7h-96.5v-6.7c9.7-0.4,16.3-1.9,19.8-4.7c3.5-2.8,5.2-6.1,5.2-10.1
					c-0.2-5.2-2.6-13.6-7.3-25.3L4029,2096.9z M4023.9,2083.4l-41.4-98.6l-42.5,98.6H4023.9z"/>
				<path d="M4338.1,2111.1l5.9,1.1l-21,66.4h-189.2v-6.7h9.4c10,0,17.4-3.3,22-9.9c2.5-3.9,3.8-12.8,3.8-26.6v-157.8
					c0-15.1-1.7-24.5-5.1-28.5c-4.7-5.4-11.6-8.1-20.7-8.1h-9.4v-6.7h110.7v6.7c-6.6,0-12.1,0.3-16.5,0.9c-4.4,0.6-8,1.5-10.9,2.7
					c-2.9,1.2-5.1,2.6-6.7,4.2c-1.6,1.6-3,3.4-4,5.4c-1.8,3.6-2.7,12.8-2.7,27.7v153.5c0,8.4,0.6,14.5,1.9,18.3
					c1.3,3.8,3.8,6.4,7.5,7.8c3.2,1.1,12.6,1.6,28.2,1.6h17.7c18.8,0,32-1.3,39.5-4c3.8-1.3,7.3-3,10.8-5.4c3.4-2.3,6.7-5.4,9.9-9.1
					c3.2-3.8,6.4-8.3,9.4-13.7C4331.7,2125.4,4334.9,2118.8,4338.1,2111.1z"/>
				<path d="M4563.3,2111.1l5.9,1.1l-21,66.4h-189.2v-6.7h9.4c10,0,17.4-3.3,22-9.9c2.5-3.9,3.8-12.8,3.8-26.6v-157.8
					c0-15.1-1.7-24.5-5.1-28.5c-4.7-5.4-11.6-8.1-20.7-8.1h-9.4v-6.7h110.7v6.7c-6.6,0-12.1,0.3-16.5,0.9c-4.4,0.6-8,1.5-10.9,2.7
					c-2.9,1.2-5.1,2.6-6.7,4.2c-1.6,1.6-3,3.4-4,5.4c-1.8,3.6-2.7,12.8-2.7,27.7v153.5c0,8.4,0.6,14.5,1.9,18.3
					c1.3,3.8,3.8,6.4,7.5,7.8c3.2,1.1,12.6,1.6,28.2,1.6h17.7c18.8,0,32-1.3,39.5-4c3.8-1.3,7.3-3,10.8-5.4c3.4-2.3,6.7-5.4,9.9-9.1
					c3.2-3.8,6.4-8.3,9.4-13.7C4557,2125.4,4560.1,2118.8,4563.3,2111.1z"/>
				<path d="M4716,1934.3h85.2v6.7h-4.8c-6.8,0-14.2,3.1-22,9.3c-7.9,6.2-16.6,16.9-26.1,32.1l-58.9,92.7v61.3
					c0,8.2,0.6,14.7,1.7,19.5c1.2,4.8,2.9,8.3,5.1,10.6c2.2,2.3,5,3.8,8.3,4.4c3.3,0.6,7.1,0.9,11.4,0.9h7.8v6.7H4620v-6.7h8.9
					c4.3,0,8.1-0.4,11.3-1.1c3.2-0.7,5.9-2.3,8.1-4.7c2.2-2.4,3.8-6,4.8-10.6c1.1-4.7,1.6-11,1.6-19.1v-58.1l-66.9-102.1
					c-4.1-6.1-7.5-11-10.1-14.6c-2.6-3.7-4.6-6.3-6-7.9c-0.7-0.7-1.9-1.8-3.6-3.2c-1.7-1.4-3.8-2.8-6.3-4.2
					c-2.5-1.3-5.3-2.6-8.3-3.6c-3-1.1-6.3-1.6-9.7-1.6v-6.7H4648v6.7h-5.4c-2.7,0-5.4,0.3-8.1,0.9c-2.7,0.6-5.1,1.6-7.3,2.8
					c-2.1,1.3-3.9,2.9-5.2,5c-1.3,2.1-2,4.4-2,7.1c-0.2,2.2,0.7,5.2,2.7,9c2,3.9,4.7,8.6,8.3,14.4l50.8,78.8l48.1-75.3
					c6.8-10.9,10.4-19.4,10.8-25.3c-0.4-2.5-0.9-4.8-1.7-7c-0.8-2.1-2.2-4-4-5.5c-1.9-1.5-4.3-2.7-7.4-3.6c-3-0.9-6.9-1.3-11.6-1.3
					V1934.3z"/>
			</g>
		</g>
	</g>
</g>
</svg>
