<?xml version="1.0" encoding="utf-8"?>
<!-- Generator: Adobe Illustrator 26.5.0, SVG Export Plug-In . SVG Version: 6.00 Build 0)  -->
<svg version="1.1" id="TORNILLOSMAD" xmlns="http://www.w3.org/2000/svg" xmlns:xlink="http://www.w3.org/1999/xlink" x="0px"
	 y="0px" viewBox="0 0 6349.8 3933.8" style="enable-background:new 0 0 6349.8 3933.8;" xml:space="preserve">
<style type="text/css">
	.st0{fill:#F7F7F7;stroke:#000000;stroke-width:20.8718;stroke-miterlimit:10;}
	.st1{fill:#CECECE;stroke:#000000;stroke-width:17.1639;stroke-miterlimit:10;}
	.st2{fill:#CECECE;stroke:#000000;stroke-width:18.5829;stroke-miterlimit:10;}
	.st3{fill:#CECECE;stroke:#000000;stroke-width:19.8623;stroke-miterlimit:10;}
	.st4{fill:#161616;stroke:#000000;stroke-width:4.6915;stroke-miterlimit:10;}
</style>
<rect x="150.8" y="125.4" class="st0" width="3024.1" height="3707.7"/>
<g>
	
		<rect x="-649.1" y="1835.8" transform="matrix(8.210469e-03 1 -1 8.210469e-03 2986.5161 978.8524)" class="st1" width="3297.8" height="318.4"/>
	
		<rect x="-682.4" y="1871.1" transform="matrix(8.210469e-03 1 -1 8.210469e-03 2984.8359 977.0293)" class="st2" width="3364.6" height="244.3"/>
	
		<rect x="-794.5" y="1880.5" transform="matrix(8.210469e-03 1 -1 8.210469e-03 2957.1743 952.2027)" class="st3" width="3586.1" height="172.7"/>
	
		<ellipse transform="matrix(1 -8.210469e-03 8.210469e-03 1 -3.6477 8.133)" class="st4" cx="988.7" cy="448.3" rx="53.4" ry="24.4"/>
	
		<ellipse transform="matrix(1 -8.210469e-03 8.210469e-03 1 -2.4618 8.0968)" class="st4" cx="984.9" cy="303.9" rx="24.4" ry="53.4"/>
	<circle class="st4" cx="987.1" cy="567.7" r="31.6"/>
	<circle class="st4" cx="991.1" cy="1058.8" r="31.6"/>
	<circle class="st4" cx="999.5" cy="1754.8" r="31.6"/>
	<circle class="st4" cx="1002.5" cy="2451.6" r="31.6"/>
	
		<ellipse transform="matrix(1 -8.210469e-03 8.210469e-03 1 -28.644 8.4275)" class="st4" cx="1012.1" cy="3492.9" rx="53.4" ry="24.4"/>
	
		<ellipse transform="matrix(1 -8.210469e-03 8.210469e-03 1 -29.7048 8.4323)" class="st4" cx="1012.2" cy="3622.1" rx="24.4" ry="53.4"/>
	<circle class="st4" cx="1008.3" cy="3348.4" r="31.6"/>
</g>
<g>
	<g>
		<path d="M5304.6,1830.8l-95.8,261.8h-802v-37.4c232.4-220.4,398.5-396,498.2-526.7c96.7-135.6,145.1-260.3,145.1-374
			c0-42.9-7.2-82.5-21.7-118.9c-14.5-36.4-33.9-67.6-58.4-93.5c-24.5-25.9-52.9-46.4-85.3-61.3c-32.4-15-67.1-22.4-104-22.4
			c-66.8,0-126.7,19.5-179.5,58.4c-52.9,38.9-92.3,96.3-118.2,172.1h-35.9c16.9-124.7,59.6-219.7,127.9-285
			c68.3-65.3,154.9-98,259.6-98c54.8,0,106,9.7,153.4,29.2c47.4,19.5,88.3,45.6,122.7,78.6c34.4,32.9,61.6,70.8,81.5,113.7
			c19.9,42.9,29.9,87.8,29.9,134.7c0,68.8-12.2,132.2-36.7,190c-24.5,57.9-49.4,105-74.8,141.4c-25.4,36.4-62.1,85-110,145.9
			c-90.8,101.7-163.3,181.6-217.7,239.4c-54.4,57.9-108.5,112.2-162.3,163.1h354.6c44.9,0,82.8-1,113.7-3c30.9-2,57.1-6.7,78.5-14.2
			c21.4-7.5,39.7-18.7,54.6-33.7c15-15,29.9-34.9,44.9-59.8H5304.6z"/>
	</g>
	<g>
		<path d="M4195.6,2411.8v86.8c0,19.1,2.1,30.8,6.2,35.2c5.7,6.4,14.1,9.5,25.3,9.5h11.5v8.2h-128v-8.2h11.2
			c12.5,0,21.5-4.1,27-12.2c3.1-4.8,4.6-15.7,4.6-32.6v-193.1c0-18.6-2-30.3-5.9-34.9c-5.9-6.6-14.5-9.9-25.7-9.9h-11.2v-8.2h109.5
			c26.3,0,47.4,2.9,63.2,8.6c7.7,2.6,14.9,6.3,21.5,11c6.7,4.7,12.5,10.3,17.4,16.8c4.9,6.5,8.8,13.6,11.7,21.4
			c2.8,7.8,4.3,16.2,4.3,25.2c0,12.1-2.1,23.1-6.2,33.2c-4.2,10.1-10.2,18.7-18.1,26c-7.9,7.2-17.5,12.9-28.9,16.9
			c-11.4,4.1-24.5,6.1-39.1,6.1C4231.7,2417.7,4214.9,2415.7,4195.6,2411.8z M4195.6,2398.9c7.9,1.5,14.8,2.7,20.7,3.5
			c5.9,0.8,11.1,1.2,15.5,1.2c7.7,0,14.9-1.6,21.7-4.8c6.8-3.2,12.8-7.6,17.9-13.2c5.2-5.6,9.2-12.3,12.2-20.2
			c3-7.9,4.4-16.4,4.4-25.7c0-11-1.6-20.7-4.9-29.3c-3.3-8.6-7.8-15.8-13.5-21.7c-5.7-5.9-12.4-10.4-20.1-13.5
			c-7.7-3.1-16-4.6-25-4.6c-7.5,0-17.1,1.3-28.9,3.9V2398.9z"/>
		<path d="M4493.3,2543.3v8.2h-128v-8.2h10.5c5.3,0,9.9-0.4,14-1.2c4.1-0.8,7.4-2.6,10-5.6c2.6-3,4.7-7.5,6.1-13.5
			c1.4-6,2.1-14.2,2.1-24.5v-193.1c0-6.8-0.2-12.4-0.5-16.9c-0.3-4.5-0.9-8.2-1.6-11c-0.8-2.8-1.9-5.1-3.5-6.7
			c-1.5-1.6-3.6-3.2-6.2-4.8c-6.6-3.5-13.4-5.3-20.4-5.3h-10.5v-8.2h128v8.2h-10.5c-5.3,0-9.9,0.4-14,1.3c-4.1,0.9-7.4,2.8-10,5.8
			c-2.6,3-4.7,7.5-6.1,13.5c-1.4,6-2.1,14.1-2.1,24.2v193.1c0,7,0.1,12.7,0.3,17.1c0.2,4.4,0.8,8,1.6,10.9c0.9,2.9,2.1,5.1,3.8,6.7
			c1.6,1.6,3.8,3.2,6.4,4.8c6.1,3.5,12.8,5.3,20.1,5.3H4493.3z"/>
		<path d="M4598.9,2269v118.1h65.5c9.6,0,17.4-0.9,23.4-2.6c5.9-1.8,10.6-4.4,14-7.9c3.4-3.5,5.8-8,7.1-13.5
			c1.3-5.5,2.2-11.9,2.6-19.4h8.2v103.9h-8.2c-1.1-8.6-2.4-15.7-3.8-21.4c-1.4-5.7-3.7-10.2-6.9-13.7c-3.2-3.4-7.6-5.8-13.3-7.2
			c-5.7-1.4-13.4-2.1-23-2.1h-65.5v98.7c0,7.5,0.1,13.4,0.3,17.8c0.2,4.4,1.1,7.7,2.6,10c1.5,2.3,3.9,3.8,7.2,4.4
			c3.3,0.7,8.1,1,14.5,1h50.7c8.6,0,15.8-0.2,21.7-0.7c5.9-0.4,11-1.3,15.3-2.6c4.3-1.3,8.1-3.1,11.3-5.4c3.3-2.3,6.8-5.2,10.5-8.7
			c8.8-8.6,18.1-22.3,28-41.1h8.9l-26,75h-230.2v-8.2h10.5c2.8,0,5.8-0.3,8.9-1c3.1-0.7,6-1.6,8.7-2.8c2.7-1.2,5.2-2.8,7.4-4.8
			c2.2-2,3.7-4.3,4.6-6.9c1.8-4.8,2.6-14.5,2.6-28.9v-194.1c0-19.1-1.9-30.8-5.6-35.2c-5.3-5.9-14.1-8.9-26.6-8.9h-10.5v-8.2h230.2
			v65.5h-5.3c-2.2-10.7-4.6-19.3-7.1-25.8c-2.5-6.5-5.9-11.5-10-15c-4.2-3.5-9.5-5.8-16-6.7c-6.5-1-14.8-1.5-24.8-1.5H4598.9z"/>
		<path d="M5051.8,2246l6.9,101.6h-6.9c-9.2-30.5-22.2-52.4-39-65.8c-16.8-13.4-37-20.1-60.7-20.1c-15.4,0-29.5,2.9-42.4,8.7
			c-12.9,5.8-24.1,14.8-33.4,26.8c-9.3,12.1-16.6,27.2-21.9,45.4c-5.3,18.2-7.9,39.7-7.9,64.5c0,20,2.5,38,7.4,54.3
			c4.9,16.2,12.2,30.1,21.7,41.6c9.5,11.5,21.2,20.4,35,26.6c13.8,6.2,29.7,9.4,47.7,9.4c18.9,0,36-4.2,51.3-12.5
			c14.7-7.7,31-24.1,49-49.3l6.9,4.3c-15.1,26.5-32.6,46-52.5,58.4c-19.8,12.4-43.6,18.6-71.2,18.6c-21.3,0-40.8-3.7-58.5-11.2
			c-17.8-7.5-33.1-17.9-45.9-31.4c-12.8-13.5-22.9-29.5-30.1-48c-7.2-18.5-10.9-38.9-10.9-61c0-30,6.7-57.4,20.1-82.2
			c13.2-25,31.5-44.3,54.9-57.9c23.7-13.8,49.3-20.7,77-20.7c21.7,0,43,5.3,63.8,15.8c6.1,3.3,10.5,4.9,13.2,4.9c4.8,0,8.8-2,12-5.9
			c3.2-3.9,5.4-8.9,6.7-14.8H5051.8z"/>
		<path d="M5175.5,2269v118.1h65.5c9.6,0,17.4-0.9,23.4-2.6c5.9-1.8,10.6-4.4,14-7.9c3.4-3.5,5.8-8,7.1-13.5
			c1.3-5.5,2.2-11.9,2.6-19.4h8.2v103.9h-8.2c-1.1-8.6-2.4-15.7-3.8-21.4c-1.4-5.7-3.7-10.2-6.9-13.7c-3.2-3.4-7.6-5.8-13.3-7.2
			c-5.7-1.4-13.4-2.1-23-2.1h-65.5v98.7c0,7.5,0.1,13.4,0.3,17.8c0.2,4.4,1.1,7.7,2.6,10c1.5,2.3,3.9,3.8,7.2,4.4
			c3.3,0.7,8.1,1,14.5,1h50.7c8.6,0,15.8-0.2,21.7-0.7c5.9-0.4,11-1.3,15.3-2.6c4.3-1.3,8.1-3.1,11.3-5.4c3.3-2.3,6.8-5.2,10.5-8.7
			c8.8-8.6,18.1-22.3,28-41.1h8.9l-26,75h-230.2v-8.2h10.5c2.8,0,5.8-0.3,8.9-1c3.1-0.7,6-1.6,8.7-2.8c2.7-1.2,5.2-2.8,7.4-4.8
			c2.2-2,3.7-4.3,4.6-6.9c1.8-4.8,2.6-14.5,2.6-28.9v-194.1c0-19.1-1.9-30.8-5.6-35.2c-5.3-5.9-14.1-8.9-26.6-8.9h-10.5v-8.2h230.2
			v65.5h-5.3c-2.2-10.7-4.6-19.3-7.1-25.8c-2.5-6.5-5.9-11.5-10-15c-4.2-3.5-9.5-5.8-16-6.7c-6.5-1-14.8-1.5-24.8-1.5H5175.5z"/>
		<path d="M5563.6,2246v103.3h-8.2c-3.7-27.8-12.8-49.1-27.3-63.8c-14.5-14.7-32.9-22-55.3-22c-7.7,0-14.7,1.3-21.1,3.9
			c-6.4,2.6-12,6.1-16.8,10.4c-4.8,4.3-8.6,9.2-11.2,14.6c-2.6,5.5-3.9,11.2-3.9,17.1c0,5.5,1.1,10.7,3.3,15.6
			c2.2,4.9,9,12.7,20.4,23.2c19.1,12.1,36.1,22,51,29.9c14,7.7,33,19.3,56.9,34.9c10.3,7.9,18.2,17.3,23.7,28.1
			c5.5,10.9,8.2,22.2,8.2,34c0,11.2-2.3,21.8-6.9,31.9c-4.6,10.1-11,18.9-19.2,26.5c-8.2,7.6-18.1,13.6-29.8,18.1
			c-11.6,4.5-24.3,6.7-38.2,6.7c-8.8,0-16.9-0.7-24.3-2c-1.3-0.2-4.8-1.2-10.4-2.8c-5.6-1.6-11.6-3.3-17.9-5.1
			c-6.4-1.8-12.3-3.4-17.8-4.9c-5.5-1.5-8.7-2.3-9.5-2.3c-3.7,0-6.6,1.1-8.7,3.3c-2.1,2.2-3.7,6.8-4.8,13.8h-8.2v-102.6h8.2
			c3.9,21.1,9.1,37.2,15.5,48.4c3.1,5.3,7.2,10.1,12.3,14.6c5.2,4.5,11,8.4,17.4,11.8c6.5,3.4,13.4,6,20.9,7.9
			c7.5,1.9,15,2.8,22.7,2.8c9.2,0,17.5-1.3,24.8-3.9c7.3-2.6,13.6-6.2,18.7-10.7c5.1-4.5,9.1-9.7,11.8-15.6
			c2.7-5.9,4.1-12.2,4.1-18.7c0-7.5-2-14.9-6.1-22.4c-4.1-7.5-10.9-14.8-20.6-22c-9.4-5.7-20.6-12.4-33.5-20.1
			c-24.8-14.3-46.8-28-66.1-41.1c-10.7-8.6-18.9-17.9-24.5-28.1c-5.6-10.2-8.4-21.5-8.4-34c0-10.5,2.2-20.6,6.6-30.1
			c4.4-9.5,10.5-17.9,18.3-25.2c7.8-7.2,17-12.9,27.8-17.1c10.7-4.2,22.4-6.2,34.9-6.2c15.8,0,32.6,3.8,50.3,11.5
			c4.2,1.8,7.7,3.2,10.5,4.3c2.8,1.1,5.2,1.5,6.9,1.3c3.9,0,7.1-1.1,9.5-3.3c2.4-2.2,4.3-6.8,5.6-13.8H5563.6z"/>
	</g>
	<g>
		<path d="M4538.7,2949.5h-79.6l-101.3-139.8c-3.7,0.2-7.1,0.4-10,0.5c-3,0.1-5.6,0.2-8.1,0.2c-2,0-4.1-0.1-6.3-0.2
			c-2.2-0.1-4.5-0.3-6.9-0.5v86.8c0,10.5,0.7,18.8,2.1,24.8c1.4,6,3.5,10.5,6.2,13.5c2.7,3,6,4.8,9.9,5.4c3.8,0.7,8.2,1,13,1h11.8
			v8.2h-128.3v-8.2h11.5c12.3,0,21.3-4.1,27-12.2c3.1-4.8,4.6-15.7,4.6-32.6v-193.1c0-18.4-2.1-30-6.2-34.9
			c-5.7-6.6-14.1-9.9-25.3-9.9h-11.5v-8.2h108.9c16,0,29.8,0.6,41.4,1.8c11.6,1.2,21.2,3,28.6,5.4c7.5,2.4,14.5,5.8,21,10
			c6.6,4.3,12.3,9.4,17.3,15.5c4.9,6,8.8,12.8,11.7,20.2c2.8,7.5,4.3,15.5,4.3,24c0,18.6-5.9,34.6-17.8,48
			c-11.8,13.4-30.4,22.9-55.6,28.6l61.5,85.5c7.2,9.9,13.6,18,19.2,24.3c5.6,6.4,11.2,11.4,16.8,15.1c5.6,3.7,11.5,6.5,17.8,8.2
			c6.2,1.8,13.6,3.1,22.2,3.9V2949.5z M4326.5,2795.9c2.8,0,5.3,0.1,7.4,0.2c2.1,0.1,3.8,0.2,5.1,0.2c14.3,0,26.8-1.6,37.5-4.9
			c10.7-3.3,19.7-7.9,27-13.8c7.2-5.9,12.7-12.9,16.3-20.9c3.6-8,5.4-16.7,5.4-26.1c0-9.2-1.5-17.7-4.6-25.5
			c-3.1-7.8-7.5-14.5-13.2-20.1c-5.7-5.6-12.5-9.9-20.4-13c-7.9-3.1-16.6-4.6-26-4.6c-9,0-20.5,1.4-34.5,4.3V2795.9z"/>
		<path d="M4741.3,2849.5h-115.8l-20.4,47c-4.8,11.6-7.2,20.3-7.2,26c0,2.4,0.4,4.6,1.2,6.6c0.8,2,2.4,3.8,4.9,5.4
			c2.5,1.6,6,3.1,10.5,4.3c4.5,1.2,10.5,2,17.9,2.5v8.2h-94.1v-8.2c7.5-1.1,13.5-2.7,18.1-4.9c4.6-2.2,8.6-5.2,11.8-9
			c3.3-3.8,6.3-8.8,9-15c2.7-6.1,6.1-13.7,10-22.7l105.3-245.7h7.6l103.9,248.3c4.2,10.3,8.1,18.6,11.7,24.8
			c3.6,6.2,7.3,11.1,11.2,14.6c3.8,3.5,8,5.9,12.5,7.2c4.5,1.3,9.9,2.1,16.3,2.3v8.2h-118.1v-8.2c11.8-0.4,19.9-2.4,24.2-5.8
			c4.3-3.4,6.4-7.5,6.4-12.3c-0.2-6.4-3.2-16.7-8.9-30.9L4741.3,2849.5z M4735.1,2833.1l-50.7-120.7l-52,120.7H4735.1z"/>
		<path d="M4999.8,2941.3v8.2h-128v-8.2h10.5c5.3,0,9.9-0.4,14-1.2c4.1-0.8,7.4-2.6,10-5.6c2.6-3,4.7-7.5,6.1-13.5
			c1.4-6,2.1-14.2,2.1-24.5v-193.1c0-6.8-0.2-12.4-0.5-16.9c-0.3-4.5-0.9-8.2-1.6-11c-0.8-2.8-1.9-5.1-3.5-6.7
			c-1.5-1.6-3.6-3.2-6.2-4.8c-6.6-3.5-13.4-5.3-20.4-5.3h-10.5v-8.2h128v8.2h-10.5c-5.3,0-9.9,0.4-14,1.3c-4.1,0.9-7.4,2.8-10,5.8
			c-2.6,3-4.7,7.5-6.1,13.5c-1.4,6-2.1,14.1-2.1,24.2v193.1c0,7,0.1,12.7,0.3,17.1c0.2,4.4,0.8,8,1.6,10.9c0.9,2.9,2.1,5.1,3.8,6.7
			c1.6,1.6,3.8,3.2,6.4,4.8c6.1,3.5,12.8,5.3,20.1,5.3H4999.8z"/>
		<path d="M5269.9,2867l7.2,1.3l-25.7,81.2h-231.6v-8.2h11.5c12.3,0,21.3-4.1,27-12.2c3.1-4.8,4.6-15.7,4.6-32.6v-193.1
			c0-18.4-2.1-30-6.2-34.9c-5.7-6.6-14.1-9.9-25.3-9.9h-11.5v-8.2h135.5v8.2c-8.1,0-14.9,0.4-20.2,1.2c-5.4,0.8-9.8,1.9-13.3,3.3
			c-3.5,1.4-6.2,3.1-8.2,5.1c-2,2-3.6,4.2-4.9,6.6c-2.2,4.4-3.3,15.7-3.3,33.9v187.8c0,10.3,0.8,17.8,2.3,22.4
			c1.5,4.6,4.6,7.8,9.2,9.5c3.9,1.3,15.5,2,34.5,2h21.7c23,0,39.1-1.6,48.4-4.9c4.6-1.5,9-3.7,13.2-6.6c4.2-2.8,8.2-6.6,12.2-11.2
			c3.9-4.6,7.8-10.2,11.5-16.8C5262.1,2884.4,5265.9,2876.4,5269.9,2867z"/>
		<path d="M5493.5,2644v103.3h-8.2c-3.7-27.8-12.8-49.1-27.3-63.8c-14.5-14.7-32.9-22-55.3-22c-7.7,0-14.7,1.3-21.1,3.9
			c-6.4,2.6-12,6.1-16.8,10.4c-4.8,4.3-8.6,9.2-11.2,14.6c-2.6,5.5-3.9,11.2-3.9,17.1c0,5.5,1.1,10.7,3.3,15.6
			c2.2,4.9,9,12.7,20.4,23.2c19.1,12.1,36.1,22,51,29.9c14,7.7,33,19.3,56.9,34.9c10.3,7.9,18.2,17.3,23.7,28.1
			c5.5,10.9,8.2,22.2,8.2,34c0,11.2-2.3,21.8-6.9,31.9c-4.6,10.1-11,18.9-19.2,26.5c-8.2,7.6-18.1,13.6-29.8,18.1
			c-11.6,4.5-24.3,6.7-38.2,6.7c-8.8,0-16.9-0.7-24.3-2c-1.3-0.2-4.8-1.2-10.4-2.8c-5.6-1.6-11.6-3.3-17.9-5.1
			c-6.4-1.8-12.3-3.4-17.8-4.9c-5.5-1.5-8.7-2.3-9.5-2.3c-3.7,0-6.6,1.1-8.7,3.3c-2.1,2.2-3.7,6.8-4.8,13.8h-8.2v-102.6h8.2
			c3.9,21.1,9.1,37.2,15.5,48.4c3.1,5.3,7.2,10.1,12.3,14.6c5.2,4.5,11,8.4,17.4,11.8c6.5,3.4,13.4,6,20.9,7.9
			c7.5,1.9,15,2.8,22.7,2.8c9.2,0,17.5-1.3,24.8-3.9c7.3-2.6,13.6-6.2,18.7-10.7c5.1-4.5,9.1-9.7,11.8-15.6
			c2.7-5.9,4.1-12.2,4.1-18.7c0-7.5-2-14.9-6.1-22.4c-4.1-7.5-10.9-14.8-20.6-22c-9.4-5.7-20.6-12.4-33.5-20.1
			c-24.8-14.3-46.8-28-66.1-41.1c-10.7-8.6-18.9-17.9-24.5-28.1c-5.6-10.2-8.4-21.5-8.4-34c0-10.5,2.2-20.6,6.6-30.1
			c4.4-9.5,10.5-17.9,18.3-25.2c7.8-7.2,17-12.9,27.8-17.1c10.7-4.2,22.4-6.2,34.9-6.2c15.8,0,32.6,3.8,50.3,11.5
			c4.2,1.8,7.7,3.2,10.5,4.3c2.8,1.1,5.2,1.5,6.9,1.3c3.9,0,7.1-1.1,9.5-3.3c2.4-2.2,4.3-6.8,5.6-13.8H5493.5z"/>
	</g>
	<path d="M3710.6,3248.6v31.2h-40.1v78.9H3634v-78.9h-126.6v-28.3l138.8-197.7h24.3v194.7H3710.6z M3634,3248.6v-148.3L3529,3248.6
		H3634z"/>
	<path d="M3742.5,3211.1c0-34.4,5-63.7,15.1-87.8c9.2-21.7,21.1-38.7,35.7-51c14.6-12.3,30.1-18.4,46.5-18.4
		c13.2,0,25.5,3.8,37,11.5c11.5,7.7,21.7,18.4,30.4,32.1c8.8,13.7,15.7,29.9,20.7,48.5c5,18.6,7.6,38.8,7.6,60.5
		c0,34.6-4.9,64.1-14.8,88.5c-5,11.8-10.9,22.2-17.4,30.9c-6.6,8.8-13.5,16-20.7,21.5c-7.2,5.6-14.8,9.8-22.5,12.5
		c-7.8,2.7-15.3,4.1-22.5,4.1c-12.9,0-25.2-3.8-36.7-11.5c-11.5-7.7-21.6-18.4-30.3-32.1c-8.7-13.7-15.5-29.9-20.6-48.5
		C3745,3253.3,3742.5,3233,3742.5,3211.1z M3785.6,3216.7c0,18.2,1,35.4,3.1,51.6c2.1,16.2,5.3,30.4,9.5,42.6
		c4.3,12.2,9.7,21.8,16.3,28.8c6.6,7,14.5,10.5,23.7,10.5c8.6,0,16.2-2.9,22.9-8.7c6.7-5.8,12.3-14.9,16.9-27.3
		c4.6-12.4,8.2-28.3,10.7-47.7c2.5-19.4,3.8-42.6,3.8-69.6c0-19.3-1.1-36.9-3.3-52.8c-2.2-15.9-5.5-29.4-10-40.6
		c-4.5-11.2-10-19.8-16.6-26c-6.6-6.1-14.3-9.2-23-9.2c-9.9,0-18.2,3.9-25,11.8c-6.8,7.9-12.3,18.6-16.6,32.2
		c-4.3,13.6-7.4,29.4-9.4,47.4C3786.6,3177.7,3785.6,3196.7,3785.6,3216.7z"/>
	<path d="M4336.2,3053.2l6.9,101.6h-6.9c-9.2-30.5-22.2-52.4-39-65.8c-16.8-13.4-37-20.1-60.7-20.1c-15.4,0-29.5,2.9-42.4,8.7
		c-12.9,5.8-24.1,14.8-33.4,26.8c-9.3,12.1-16.6,27.2-21.9,45.4c-5.3,18.2-7.9,39.7-7.9,64.5c0,20,2.5,38,7.4,54.3
		c4.9,16.2,12.2,30.1,21.7,41.6c9.5,11.5,21.2,20.4,35,26.6c13.8,6.2,29.7,9.4,47.7,9.4c18.9,0,36-4.2,51.3-12.5
		c14.7-7.7,31-24.1,49-49.3l6.9,4.3c-15.1,26.5-32.6,46-52.5,58.4c-19.8,12.4-43.6,18.6-71.2,18.6c-21.3,0-40.8-3.7-58.5-11.2
		c-17.8-7.5-33.1-17.9-45.9-31.4c-12.8-13.5-22.9-29.5-30.1-48c-7.2-18.5-10.9-38.9-10.9-61c0-30,6.7-57.4,20.1-82.2
		c13.2-25,31.5-44.3,54.9-57.9c23.7-13.8,49.3-20.7,77-20.7c21.7,0,43,5.3,63.8,15.8c6.1,3.3,10.5,4.9,13.2,4.9c4.8,0,8.8-2,12-5.9
		c3.2-3.9,5.4-8.9,6.7-14.8H4336.2z"/>
	<path d="M4550,3358.8l-115.4-251.3v199.7c0,10.3,0.7,18.4,2.1,24.2c1.4,5.8,3.5,10.1,6.2,13c2.7,2.9,6.1,4.6,10,5.3
		c3.9,0.7,8.4,1,13.5,1h10.5v8.2h-103.9v-8.2h10.5c5.3,0,9.9-0.4,13.8-1.2c3.9-0.8,7.2-2.6,9.9-5.6s4.6-7.3,5.9-13.2
		c1.3-5.8,2-13.7,2-23.5v-195.4c0-7-0.3-13.2-1-18.6c-0.7-5.4-2.4-9.9-5.1-13.7c-2.7-3.7-6.9-6.6-12.5-8.6c-5.6-2-13.4-3-23.5-3
		v-8.2h84.5l108.5,233.9l106.6-233.9h84.5v8.2H4747c-5.5,0-10.2,0.4-14.1,1.3c-3.9,0.9-7.2,2.8-9.9,5.8c-2.6,3-4.6,7.3-5.9,13.2
		c-1.3,5.8-2,13.7-2,23.5v195.4c0,10.3,0.7,18.4,2.1,24.2c1.4,5.8,3.5,10.1,6.2,13c2.7,2.9,6.1,4.6,10,5.3c3.9,0.7,8.4,1,13.5,1
		h10.2v8.2h-127v-8.2h10.5c5.3,0,9.9-0.4,13.8-1.3c3.9-0.9,7.3-2.8,10-5.8c2.7-3,4.8-7.3,6.1-13c1.3-5.7,2-13.5,2-23.4v-199.7
		l-115.1,251.3H4550z"/>
	<path d="M5138.4,3276.2l7.2,1.3l-25.7,81.2h-231.6v-8.2h11.5c12.3,0,21.3-4.1,27-12.2c3.1-4.8,4.6-15.7,4.6-32.6v-193.1
		c0-18.4-2.1-30-6.2-34.9c-5.7-6.6-14.1-9.9-25.3-9.9h-11.5v-8.2H5024v8.2c-8.1,0-14.9,0.4-20.2,1.2c-5.4,0.8-9.8,1.9-13.3,3.3
		c-3.5,1.4-6.2,3.1-8.2,5.1c-2,2-3.6,4.2-4.9,6.6c-2.2,4.4-3.3,15.7-3.3,33.9v187.8c0,10.3,0.8,17.8,2.3,22.4
		c1.5,4.6,4.6,7.8,9.2,9.5c3.9,1.3,15.5,2,34.5,2h21.7c23,0,39.1-1.6,48.4-4.9c4.6-1.5,9-3.7,13.2-6.6c4.2-2.8,8.2-6.6,12.2-11.2
		c3.9-4.6,7.8-10.2,11.5-16.8C5130.7,3293.6,5134.5,3285.6,5138.4,3276.2z"/>
	<path d="M5320.3,3053.2c19.1,0,37.3,3.9,54.6,11.8c17.3,7.9,32.6,18.7,45.7,32.6c13.2,13.8,23.6,30.1,31.4,48.8
		c7.8,18.7,11.7,39.1,11.7,61c0,22.6-3.9,43.5-11.7,62.8c-7.8,19.3-18.3,36-31.6,50.2c-13.3,14.1-28.8,25.2-46.7,33.2
		c-17.9,8-36.9,12-57.1,12c-20.4,0-39.5-3.8-57.2-11.5c-17.8-7.7-33.2-18.5-46.2-32.4c-13-13.9-23.4-30.5-30.9-49.8
		c-7.6-19.3-11.3-40.6-11.3-63.8c0-21.5,3.8-41.7,11.3-60.5c7.6-18.9,18-35.2,31.2-49.2c13.3-13.9,29-24.9,47.2-33.1
		C5279,3057.2,5298.8,3053.2,5320.3,3053.2z M5316.1,3069.3c-15.1,0-28.6,3.2-40.3,9.7c-11.7,6.5-21.6,15.7-29.6,27.6
		c-8,12-14.1,26.4-18.3,43.4c-4.2,17-6.2,36.1-6.2,57.4c0,21.1,2,40.3,6.1,57.7c4.1,17.4,10.1,32.5,18.1,45.1
		c8,12.6,17.9,22.4,29.8,29.3c11.8,6.9,25.4,10.4,40.8,10.4c13.8,0,26.6-2.6,38.3-7.9c11.7-5.3,22-13.4,30.8-24.5
		c8.8-11.1,15.6-25.2,20.6-42.4c4.9-17.2,7.4-37.8,7.4-61.7c0-22.6-2-42.8-6.1-60.7c-4.1-17.9-10.2-33-18.4-45.4
		c-8.2-12.4-18.4-21.8-30.6-28.3C5346.2,3072.5,5332.1,3069.3,5316.1,3069.3z"/>
	<path d="M5475.3,3059.8h80.9l182.9,224.3v-172.4c0-10.1-0.7-18.1-2.1-24c-1.4-5.9-3.5-10.3-6.2-13.2c-2.7-2.8-6.1-4.7-10-5.4
		c-3.9-0.8-8.4-1.2-13.5-1.2h-10.5v-8.2h104.3v8.2H5790c-5.3,0-9.9,0.4-13.8,1.3c-3.9,0.9-7.2,2.9-9.9,5.9
		c-2.6,3.1-4.6,7.5-5.9,13.2c-1.3,5.7-2,13.5-2,23.4v252h-7.9l-197-240.8v184.2c0,10.3,0.7,18.4,2.1,24.2c1.4,5.8,3.5,10.1,6.1,13
		c2.6,2.9,5.9,4.6,9.9,5.3c3.9,0.7,8.4,1,13.5,1h10.5v8.2h-103.9v-8.2h10.5c5.3,0,9.9-0.4,13.8-1.3c3.9-0.9,7.3-2.8,10-5.8
		c2.7-3,4.8-7.3,6.1-13c1.3-5.7,2-13.5,2-23.4v-207.9c-4.4-5.3-8.1-9.4-11-12.5c-3-3.1-5.8-5.6-8.4-7.6c-2.6-2-5.5-3.6-8.6-4.9
		c-3.1-1.3-6.9-2.7-11.5-4.3c-4.4-1.3-10.9-2-19.4-2V3059.8z"/>
	<path d="M6084.1,3053.2l7.9,94.1h-7.9c-9-27.6-21.8-47.6-38.3-60c-16.6-12.4-36.7-18.6-60.4-18.6c-17.5,0-33.2,3.5-47,10.4
		c-13.8,6.9-25.5,16.4-35.2,28.6c-9.7,12.2-17,26.5-22,43.1c-5,16.6-7.6,34.5-7.6,53.8c0,28.3,5.6,54.3,16.8,78
		c5.5,11.8,11.9,22,19.2,30.6c7.3,8.6,15.3,15.6,23.8,21.2c8.6,5.6,17.5,9.7,26.8,12.3c9.3,2.6,18.7,3.9,28.1,3.9
		c21.9,0,42.5-5.5,61.8-16.4v-86.5c0-7.5-0.3-13.5-0.8-18.3c-0.5-4.7-1.4-8.4-2.6-11.2c-1.2-2.7-2.7-4.8-4.4-6.2
		c-1.8-1.4-3.8-2.8-6.2-4.1c-4.8-2.4-13.2-3.6-25-3.6v-8.6h115.8v8.6h-5.6c-5,0-9.3,0.5-12.8,1.6c-3.5,1.1-6.4,3.2-8.7,6.2
		c-2.3,3.1-3.9,7.5-4.9,13.2c-1,5.7-1.5,13.2-1.5,22.4v91.4c-8.6,4.6-16.9,8.6-25.2,12c-8.2,3.4-16.5,6.1-24.8,8.1
		c-17.1,4.4-35.4,6.6-54.9,6.6c-25,0-47.6-3.8-67.9-11.5c-20.3-7.7-37.7-18.3-52.1-31.9c-14.5-13.6-25.7-29.6-33.5-48
		c-7.9-18.4-11.8-38.5-11.8-60.2c0-26.1,6.4-51.3,19.1-75.7c14.7-28.5,35.2-50.5,61.5-66.1c21.9-12.7,47.8-19.1,77.6-19.1
		c5.9,0,11.2,0.2,15.8,0.5c4.6,0.3,9.4,1,14.3,2c4.9,1,10.3,2.4,16.1,4.3c5.8,1.9,12.9,4.3,21.2,7.4c8.3,3.3,13.9,4.8,16.8,4.6
		c2.6,0,4.9-1.3,6.9-3.8c2-2.5,3.2-7.5,3.6-15H6084.1z"/>
</g>
<g>
	
		<rect x="574" y="1835.8" transform="matrix(8.210469e-03 1 -1 8.210469e-03 4199.5894 -244.2222)" class="st1" width="3297.8" height="318.4"/>
	
		<rect x="540.7" y="1871.1" transform="matrix(8.210469e-03 1 -1 8.210469e-03 4197.9092 -246.0453)" class="st2" width="3364.6" height="244.3"/>
	
		<rect x="428.7" y="1880.5" transform="matrix(8.210469e-03 1 -1 8.210469e-03 4170.2476 -270.8719)" class="st3" width="3586.1" height="172.7"/>
	
		<ellipse transform="matrix(1 -8.210469e-03 8.210469e-03 1 -3.6064 18.1754)" class="st4" cx="2211.8" cy="448.3" rx="53.4" ry="24.4"/>
	
		<ellipse transform="matrix(1 -8.210469e-03 8.210469e-03 1 -2.4206 18.1391)" class="st4" cx="2208" cy="303.9" rx="24.4" ry="53.4"/>
	<circle class="st4" cx="2210.2" cy="567.7" r="31.6"/>
	<circle class="st4" cx="2214.2" cy="1058.8" r="31.6"/>
	<circle class="st4" cx="2222.6" cy="1754.8" r="31.6"/>
	<circle class="st4" cx="2225.7" cy="2451.6" r="31.6"/>
	
		<ellipse transform="matrix(1 -8.210469e-03 8.210469e-03 1 -28.6027 18.4699)" class="st4" cx="2235.2" cy="3492.9" rx="53.4" ry="24.4"/>
	
		<ellipse transform="matrix(1 -8.210469e-03 8.210469e-03 1 -29.6636 18.4747)" class="st4" cx="2235.3" cy="3622.1" rx="24.4" ry="53.4"/>
	<circle class="st4" cx="2231.4" cy="3348.4" r="31.6"/>
</g>
</svg>
