<?xml version="1.0" encoding="utf-8"?>
<!-- Generator: Adobe Illustrator 26.5.0, SVG Export Plug-In . SVG Version: 6.00 Build 0)  -->
<svg version="1.1" id="TORNILLOSMAD" xmlns="http://www.w3.org/2000/svg" xmlns:xlink="http://www.w3.org/1999/xlink" x="0px"
	 y="0px" viewBox="0 0 5314 2701" style="enable-background:new 0 0 5314 2701;" xml:space="preserve">
<style type="text/css">
	.st0{fill:#F7F7F7;stroke:#000000;stroke-width:20.8718;stroke-miterlimit:10;}
</style>
<g id="PUNTILLAS">
	<g id="TORNILLERIA-SOPORTE-4_00000073697413006203562230000008240210573162313872_">
		<circle id="_x31_0_00000165195292160582914830000008888818712141629096_" class="st0" cx="1363" cy="1334.9" r="1289.8"/>
		<g>
			<g>
				<path d="M2847.1,1930.8l43.6-21.3h4.3v151.2c0,5.3,0.1,9.4,0.2,12.3c0.1,3,0.5,5.2,1,6.8c0.5,1.6,1.2,2.7,2,3.4
					c0.8,0.7,1.9,1.3,3.4,2c2.6,1.4,8,2.2,16.2,2.2v4.9h-67.4v-4.9c4.3,0,7.8-0.2,10.4-0.6c2.6-0.4,4.7-0.9,6.1-1.5
					c1.4-0.6,2.5-1.3,3.3-2.3c0.7-0.9,1.3-1.9,1.7-3c0.9-2,1.4-8.4,1.4-19.3v-96.8c0-7.6-0.2-13.6-0.5-18c-0.3-4.4-0.9-7.7-1.7-9.8
					c-0.8-2.1-1.8-3.5-3.2-4c-1.3-0.6-3-0.9-5.1-0.9c-3.7,0-8.2,1.2-13.6,3.5L2847.1,1930.8z"/>
				<path d="M3074.5,2057.7l-12.6,34.5h-105.7v-4.9c30.6-29,52.5-52.2,65.6-69.4c12.7-17.9,19.1-34.3,19.1-49.3
					c0-5.6-1-10.9-2.9-15.7c-1.9-4.8-4.5-8.9-7.7-12.3c-3.2-3.4-7-6.1-11.2-8.1c-4.3-2-8.8-3-13.7-3c-8.8,0-16.7,2.6-23.7,7.7
					c-7,5.1-12.2,12.7-15.6,22.7h-4.7c2.2-16.4,7.9-28.9,16.9-37.5c9-8.6,20.4-12.9,34.2-12.9c7.2,0,14,1.3,20.2,3.8
					c6.2,2.6,11.6,6,16.2,10.3c4.5,4.3,8.1,9.3,10.7,15c2.6,5.7,3.9,11.6,3.9,17.7c0,9.1-1.6,17.4-4.8,25
					c-3.2,7.6-6.5,13.8-9.9,18.6c-3.4,4.8-8.2,11.2-14.5,19.2c-12,13.4-21.5,23.9-28.7,31.5c-7.2,7.6-14.3,14.8-21.4,21.5h46.7
					c5.9,0,10.9-0.1,15-0.4c4.1-0.3,7.5-0.9,10.3-1.9c2.8-1,5.2-2.5,7.2-4.4c2-2,3.9-4.6,5.9-7.9H3074.5z"/>
			</g>
			<g>
				<g>
					<g>
						<path d="M3167.9,481.7v64.2h-5.1c-2.3-17.3-8-30.5-17-39.7c-9-9.1-20.4-13.7-34.4-13.7c-4.8,0-9.1,0.8-13.1,2.5
							c-4,1.6-7.4,3.8-10.4,6.4c-3,2.7-5.3,5.7-7,9.1c-1.6,3.4-2.5,7-2.5,10.6c0,3.4,0.7,6.6,2,9.7c1.4,3.1,5.6,7.9,12.7,14.4
							c11.9,7.5,22.4,13.7,31.7,18.6c8.7,4.8,20.5,12,35.4,21.7c6.4,4.9,11.3,10.7,14.7,17.5c3.4,6.7,5.1,13.8,5.1,21.2
							c0,7-1.4,13.6-4.3,19.8c-2.9,6.3-6.8,11.8-12,16.5c-5.1,4.7-11.3,8.5-18.5,11.2c-7.2,2.8-15.1,4.2-23.7,4.2
							c-5.5,0-10.5-0.4-15.1-1.2c-0.8-0.1-3-0.7-6.4-1.7c-3.5-1-7.2-2.1-11.1-3.2c-4-1.1-7.6-2.1-11-3.1c-3.4-1-5.4-1.4-5.9-1.4
							c-2.3,0-4.1,0.7-5.4,2c-1.3,1.4-2.3,4.2-3,8.6h-5.1v-63.8h5.1c2.5,13.1,5.7,23.1,9.6,30.1c1.9,3.3,4.5,6.3,7.7,9.1
							c3.2,2.8,6.8,5.3,10.8,7.4c4,2.1,8.3,3.8,13,4.9c4.6,1.2,9.3,1.7,14.1,1.7c5.7,0,10.9-0.8,15.4-2.5c4.6-1.6,8.4-3.9,11.7-6.6
							c3.2-2.8,5.7-6,7.4-9.7c1.7-3.7,2.6-7.6,2.6-11.7c0-4.6-1.3-9.3-3.8-13.9c-2.5-4.6-6.8-9.2-12.8-13.7
							c-5.9-3.5-12.8-7.7-20.9-12.5c-15.4-8.9-29.1-17.4-41.1-25.6c-6.7-5.3-11.8-11.1-15.2-17.5c-3.5-6.3-5.2-13.4-5.2-21.2
							c0-6.5,1.4-12.8,4.1-18.7c2.7-5.9,6.5-11.1,11.3-15.6c4.8-4.5,10.6-8,17.3-10.6c6.7-2.6,13.9-3.9,21.7-3.9
							c9.8,0,20.2,2.4,31.3,7.2c2.6,1.1,4.8,2,6.5,2.7c1.8,0.7,3.2,1,4.3,0.8c2.5,0,4.4-0.7,5.9-2c1.5-1.4,2.7-4.2,3.5-8.6H3167.9z"
							/>
						<path d="M3364.2,481.7l4.3,63.2h-4.3c-5.7-18.9-13.8-32.6-24.2-40.9c-10.4-8.3-23-12.5-37.7-12.5c-9.5,0-18.3,1.8-26.4,5.4
							c-8,3.6-15,9.2-20.8,16.7c-5.8,7.5-10.3,16.9-13.6,28.2s-4.9,24.7-4.9,40.1c0,12.4,1.5,23.7,4.6,33.7
							c3.1,10.1,7.6,18.7,13.5,25.9c5.9,7.2,13.2,12.7,21.8,16.6c8.6,3.9,18.5,5.8,29.7,5.8c11.7,0,22.4-2.6,31.9-7.8
							c9.1-4.8,19.3-15,30.5-30.7l4.3,2.7c-9.4,16.5-20.3,28.6-32.6,36.3c-12.3,7.7-27.1,11.6-44.3,11.6c-13.2,0-25.4-2.3-36.4-7
							s-20.6-11.1-28.5-19.5c-8-8.4-14.2-18.3-18.7-29.9c-4.5-11.5-6.7-24.2-6.7-37.9c0-18.7,4.2-35.7,12.5-51.1
							c8.2-15.5,19.6-27.5,34.1-36c14.7-8.6,30.7-12.9,47.8-12.9c13.5,0,26.7,3.3,39.7,9.8c3.8,2,6.5,3.1,8.2,3.1
							c3,0,5.5-1.2,7.5-3.7c2-2.5,3.4-5.5,4.2-9.2H3364.2z"/>
						<path d="M3572,671.7h-49.5l-63-86.9c-2.3,0.1-4.4,0.2-6.2,0.3c-1.8,0.1-3.5,0.1-5,0.1c-1.2,0-2.5,0-3.9-0.1
							c-1.4-0.1-2.8-0.2-4.3-0.3v54c0,6.5,0.4,11.7,1.3,15.4c0.9,3.8,2.2,6.5,3.9,8.4c1.7,1.8,3.7,3,6.1,3.4
							c2.4,0.4,5.1,0.6,8.1,0.6h7.4v5.1h-79.7v-5.1h7.2c7.6,0,13.2-2.5,16.8-7.6c1.9-3,2.9-9.7,2.9-20.2v-120
							c0-11.5-1.3-18.7-3.9-21.7c-3.5-4.1-8.8-6.1-15.7-6.1h-7.2v-5.1h67.7c10,0,18.5,0.4,25.8,1.1c7.2,0.7,13.2,1.9,17.8,3.4
							c4.6,1.5,9,3.6,13.1,6.2c4.1,2.7,7.7,5.9,10.7,9.6c3.1,3.8,5.5,7.9,7.3,12.6c1.8,4.6,2.7,9.6,2.7,14.9
							c0,11.6-3.7,21.5-11,29.9c-7.4,8.3-18.9,14.2-34.6,17.8l38.2,53.2c4.5,6.1,8.5,11.2,12,15.1c3.5,4,7,7.1,10.4,9.4
							c3.5,2.3,7.2,4,11,5.1c3.9,1.1,8.5,1.9,13.8,2.5V671.7z M3440.1,576.2c1.8,0,3.3,0,4.6,0.1c1.3,0.1,2.3,0.1,3.2,0.1
							c8.9,0,16.6-1,23.3-3.1c6.7-2,12.3-4.9,16.8-8.6s7.9-8,10.1-13c2.2-5,3.4-10.4,3.4-16.3c0-5.7-1-11-2.9-15.8
							c-1.9-4.8-4.6-9-8.2-12.5c-3.5-3.5-7.8-6.2-12.7-8.1c-4.9-1.9-10.3-2.9-16.2-2.9c-5.6,0-12.7,0.9-21.5,2.7V576.2z"/>
						<path d="M3628.2,496v73.4h40.7c6,0,10.8-0.5,14.5-1.6c3.7-1.1,6.6-2.7,8.7-4.9c2.1-2.2,3.6-5,4.4-8.4
							c0.8-3.4,1.4-7.4,1.6-12.1h5.1v64.6h-5.1c-0.7-5.3-1.5-9.7-2.4-13.3c-0.9-3.5-2.3-6.4-4.3-8.5c-2-2.1-4.7-3.6-8.3-4.5
							c-3.5-0.9-8.3-1.3-14.3-1.3h-40.7v61.3c0,4.6,0.1,8.3,0.2,11c0.1,2.7,0.7,4.8,1.6,6.2c1,1.4,2.5,2.3,4.5,2.8
							c2,0.4,5,0.6,9,0.6h31.5c5.3,0,9.8-0.1,13.5-0.4c3.7-0.3,6.9-0.8,9.5-1.6c2.7-0.8,5-1.9,7.1-3.4c2-1.4,4.2-3.2,6.5-5.4
							c5.5-5.3,11.2-13.8,17.4-25.6h5.5l-16.2,46.6h-143.1v-5.1h6.5c1.8,0,3.6-0.2,5.5-0.6c1.9-0.4,3.7-1,5.4-1.7
							c1.7-0.7,3.2-1.7,4.6-3c1.4-1.2,2.3-2.7,2.9-4.3c1.1-3,1.6-9,1.6-18V518.3c0-11.9-1.2-19.1-3.5-21.9
							c-3.3-3.7-8.8-5.5-16.6-5.5h-6.5v-5.1h143.1v40.7h-3.3c-1.4-6.7-2.8-12-4.4-16.1c-1.6-4-3.6-7.1-6.2-9.3
							c-2.6-2.2-5.9-3.6-9.9-4.2c-4-0.6-9.2-0.9-15.4-0.9H3628.2z"/>
						<path d="M4003.5,485.8v5.1c-3.7,0-6.7,0.3-9.1,1c-2.4,0.7-4.6,2.2-6.6,4.6c-2,2.4-4.1,5.9-6.1,10.6c-2,4.7-4.4,11-7.2,18.9
							L3922.7,676h-5.5l-42.3-118.8L3832.9,676h-5.1l-55.2-154.4c-2-5.7-3.7-10.3-4.9-13.6c-1.2-3.3-2.2-5.6-2.9-6.6
							c-1.9-3.5-4.4-6.2-7.5-7.9c-3.1-1.7-7.3-2.6-12.8-2.6v-5.1h68.7v5.1h-3.3c-4.8,0-8.5,1.1-11,3.3c-2.6,2.2-3.9,4.8-3.9,8
							c0,3.3,2,10.6,6.1,22.1l36.6,104.3l30.7-88.7l-9.8-28c-1.5-3.4-3-6.4-4.5-9c-1.5-2.6-3.2-4.8-5.1-6.5c-1.9-1.8-4.2-3.1-6.7-4
							c-2.6-0.9-5.7-1.3-9.4-1.3v-5.1h72.2v5.1h-4.9c-5.2,0-8.9,1.1-11.2,3.3c-2.3,2.2-3.5,5.2-3.5,9c0,4.6,2,12.7,6.1,24.3
							l35.6,101l35.4-102.4c1.9-5.7,3.4-10.5,4.5-14.3c1.1-3.8,1.6-6.9,1.6-9.2c0-4.4-1.9-7.4-5.7-9.1c-3.8-1.7-8.8-2.6-14.9-2.6
							v-5.1H4003.5z"/>
						<path d="M4200.4,576.8c7.5,1.6,13.9,3.9,19.3,6.7c5.4,2.9,9.7,6.2,13.1,10c3.3,3.8,5.8,8,7.4,12.7c1.6,4.6,2.4,9.5,2.4,14.5
							c0,4.6-0.8,9.2-2.2,13.7c-1.5,4.5-3.6,8.8-6.4,12.8c-2.8,4-6.2,7.6-10.3,10.8c-4.1,3.2-8.7,5.8-13.9,7.9
							c-9.8,3.8-25.3,5.7-46.4,5.7h-87.7v-5.1h7c3.1,0,5.9-0.3,8.4-0.8c2.5-0.5,4.5-1.8,6.2-3.7c1.7-1.9,3-4.7,3.9-8.4
							c0.9-3.7,1.3-8.7,1.3-14.9v-120c0-6.5-0.5-11.7-1.4-15.3c-1-3.7-2.3-6.4-4.1-8.3c-1.8-1.8-3.9-3-6.3-3.5
							c-2.5-0.5-5.1-0.7-8-0.7h-7v-5.1h80.2c25.8,0,45.3,4.4,58.6,13.1c13.3,8.7,19.9,20.9,19.9,36.6c0,9.4-2.9,17.8-8.6,25.1
							C4219.8,567.8,4211.4,573.3,4200.4,576.8z M4128.6,569.4c3.4,0.7,7.3,1.2,11.6,1.5c4.3,0.3,9,0.5,14.2,0.5
							c18.1,0,31.1-3.3,39.1-9.8c7.9-6.5,11.9-15.6,11.9-27.2c0-5.3-1.1-10.4-3.4-15.2c-2.2-4.8-5.6-9-9.9-12.6
							c-4.4-3.5-9.8-6.4-16.3-8.5c-6.5-2.1-14-3.2-22.6-3.2c-9.3,0-17.5,1-24.5,3.1V569.4z M4128.6,658.2
							c10.4,2.5,20.8,3.7,31.3,3.7c8.3,0,15.7-1,22.1-3.1c6.4-2,11.7-4.8,16-8.3c4.2-3.5,7.4-7.6,9.6-12.3c2.2-4.7,3.3-9.7,3.3-15
							c0-5.9-1.2-11.4-3.5-16.6c-2.3-5.2-5.9-9.7-10.7-13.5c-4.8-3.8-10.9-6.8-18.2-9c-7.3-2.2-15.8-3.3-25.7-3.3
							c-5.7,0-10.6,0.1-14.5,0.2c-4,0.1-7.2,0.5-9.6,1V658.2z"/>
						<path d="M4418.8,620.4l4.5,0.8l-16,50.5h-144v-5.1h7.2c7.6,0,13.2-2.5,16.8-7.6c1.9-3,2.9-9.7,2.9-20.2v-120
							c0-11.5-1.3-18.7-3.9-21.7c-3.5-4.1-8.8-6.1-15.7-6.1h-7.2v-5.1h84.2v5.1c-5,0-9.2,0.2-12.6,0.7c-3.3,0.5-6.1,1.2-8.3,2
							c-2.2,0.9-3.9,1.9-5.1,3.2c-1.2,1.2-2.2,2.6-3.1,4.1c-1.4,2.7-2,9.7-2,21.1v116.8c0,6.4,0.5,11,1.4,13.9
							c1,2.9,2.9,4.8,5.7,5.9c2.5,0.8,9.6,1.2,21.5,1.2h13.5c14.3,0,24.3-1,30.1-3.1c2.9-1,5.6-2.3,8.2-4.1c2.6-1.8,5.1-4.1,7.6-7
							c2.5-2.9,4.8-6.3,7.2-10.4C4413.9,631.2,4416.3,626.2,4418.8,620.4z"/>
						<path d="M4557.6,609.5h-72l-12.7,29.2c-3,7.2-4.5,12.6-4.5,16.2c0,1.5,0.2,2.9,0.7,4.1c0.5,1.2,1.5,2.4,3.1,3.4
							c1.6,1,3.7,1.9,6.5,2.7c2.8,0.8,6.5,1.3,11.1,1.5v5.1h-58.5v-5.1c4.6-0.7,8.4-1.7,11.2-3.1c2.9-1.4,5.3-3.2,7.4-5.6
							c2-2.4,3.9-5.5,5.6-9.3c1.7-3.8,3.8-8.5,6.2-14.1l65.4-152.8h4.7l64.6,154.4c2.6,6.4,5,11.6,7.3,15.4c2.2,3.9,4.6,6.9,7,9.1
							c2.4,2.2,5,3.7,7.8,4.5c2.8,0.8,6.2,1.3,10.1,1.4v5.1h-73.4v-5.1c7.4-0.3,12.4-1.5,15-3.6c2.7-2.1,4-4.7,4-7.7
							c-0.1-4-2-10.4-5.5-19.2L4557.6,609.5z M4553.7,599.3l-31.5-75l-32.3,75H4553.7z"/>
						<path d="M4800.7,481.7l4.3,63.2h-4.3c-5.7-18.9-13.8-32.6-24.2-40.9c-10.4-8.3-23-12.5-37.7-12.5c-9.5,0-18.3,1.8-26.4,5.4
							c-8,3.6-15,9.2-20.8,16.7c-5.8,7.5-10.3,16.9-13.6,28.2c-3.3,11.3-4.9,24.7-4.9,40.1c0,12.4,1.5,23.7,4.6,33.7
							c3.1,10.1,7.6,18.7,13.5,25.9c5.9,7.2,13.2,12.7,21.8,16.6c8.6,3.9,18.5,5.8,29.7,5.8c11.7,0,22.4-2.6,31.9-7.8
							c9.1-4.8,19.3-15,30.5-30.7l4.3,2.7c-9.4,16.5-20.3,28.6-32.6,36.3c-12.3,7.7-27.1,11.6-44.3,11.6c-13.2,0-25.4-2.3-36.4-7
							s-20.6-11.1-28.5-19.5c-8-8.4-14.2-18.3-18.7-29.9c-4.5-11.5-6.7-24.2-6.7-37.9c0-18.7,4.2-35.7,12.5-51.1
							c8.2-15.5,19.6-27.5,34.1-36c14.7-8.6,30.7-12.9,47.8-12.9c13.5,0,26.7,3.3,39.7,9.8c3.8,2,6.5,3.1,8.2,3.1
							c3,0,5.5-1.2,7.5-3.7c2-2.5,3.4-5.5,4.2-9.2H4800.7z"/>
						<path d="M4902.8,568.6l68.5,68.1c5.7,5.7,10.9,10.5,15.5,14.2c4.6,3.8,9,6.7,13.1,9c4.1,2.2,8.1,3.9,12,4.9
							c3.9,1,7.9,1.6,12,1.7v5.1h-88.3v-5.1c5.9,0,9.8-1,11.9-3.1c2-2,3.1-4.2,3.1-6.5c0-1-0.1-1.8-0.2-2.6
							c-0.1-0.7-0.5-1.6-1.1-2.6c-0.6-1-1.6-2.2-3-3.7c-1.4-1.5-3.2-3.4-5.5-5.7l-64.2-63.6v59.9c0,4.4,0.1,7.9,0.3,10.6
							c0.2,2.7,0.5,5,1,6.7c0.5,1.8,1.2,3.2,2.2,4.2c1,1,2.3,2,4,3c4,2.2,8.1,3.3,12.5,3.3h6.3v5.1h-79.1v-5.1h6.5
							c7.6,0,13.2-2.2,16.8-6.7c2.2-3,3.3-10,3.3-21.1v-120c0-4.1-0.1-7.5-0.2-10.3c-0.1-2.8-0.5-5.1-1-6.9
							c-0.5-1.8-1.3-3.2-2.2-4.4c-1-1.2-2.2-2.1-3.9-3c-4.4-2.2-8.6-3.3-12.7-3.3h-6.5v-5.1h79.1v5.1h-6.3c-3.4,0-7,0.8-10.7,2.2
							c-3.8,1.5-6.3,4-7.7,7.6c-1.1,3-1.6,9-1.6,18v56.8c0.1-0.1,1.1-1,2.8-2.6c1.7-1.6,3.6-3.3,5.7-5.2c2.1-1.9,4.2-3.8,6.1-5.7
							c2-1.9,3.4-3.2,4.2-3.9c10-9.1,18.3-17,25.2-23.5c6.8-6.5,12.3-12.1,16.4-16.7c4.1-4.6,7-8.4,8.8-11.5
							c1.8-3.1,2.7-5.6,2.7-7.7c0-2.2-1-4.1-2.9-5.6c-1.9-1.6-5.2-2.4-9.8-2.4h-4.3v-5.1h68.3v5.1c-2.5,0.1-4.9,0.4-7.5,0.7
							c-2.5,0.3-5.3,1.2-8.4,2.6c-3.1,1.4-6.6,3.5-10.5,6.3c-4,2.9-8.7,6.8-14.1,11.9c-1.1,1-3.9,3.8-8.4,8.5
							c-4.5,4.7-11,11.2-19.4,19.5L4902.8,568.6z"/>
					</g>
					<g>
						<path d="M3580.7,779.8c11.8,0,23.1,2.4,33.8,7.3c10.7,4.9,20.1,11.6,28.3,20.1c8.1,8.5,14.6,18.6,19.4,30.2
							c4.8,11.6,7.2,24.2,7.2,37.7c0,14-2.4,26.9-7.2,38.9c-4.8,11.9-11.3,22.3-19.5,31c-8.2,8.7-17.8,15.6-28.9,20.5
							c-11.1,4.9-22.8,7.4-35.3,7.4c-12.6,0-24.4-2.4-35.4-7.1c-11-4.7-20.5-11.4-28.6-20c-8.1-8.6-14.4-18.9-19.1-30.8
							c-4.7-11.9-7-25.1-7-39.5c0-13.3,2.3-25.8,7-37.4c4.7-11.7,11.1-21.8,19.3-30.4c8.2-8.6,17.9-15.4,29.2-20.4
							C3555.1,782.3,3567.4,779.8,3580.7,779.8z M3578.1,789.8c-9.4,0-17.7,2-24.9,6c-7.3,4-13.4,9.7-18.3,17.1s-8.7,16.3-11.3,26.9
							c-2.6,10.5-3.9,22.3-3.9,35.5c0,13,1.3,24.9,3.8,35.7c2.5,10.8,6.2,20.1,11.2,27.9c4.9,7.8,11.1,13.8,18.4,18.1
							c7.3,4.3,15.7,6.4,25.2,6.4c8.5,0,16.4-1.6,23.7-4.9c7.3-3.3,13.6-8.3,19-15.2c5.4-6.8,9.7-15.6,12.7-26.2
							c3-10.6,4.6-23.4,4.6-38.1c0-14-1.3-26.5-3.8-37.5c-2.5-11.1-6.3-20.4-11.4-28.1c-5.1-7.7-11.4-13.5-18.9-17.5
							C3596.7,791.8,3588,789.8,3578.1,789.8z"/>
						<path d="M3737.4,794v72.6h33.6c3.9,0,7.3-0.4,10.1-1.1c2.8-0.7,5.1-2.1,7-4c1.9-1.9,3.4-4.5,4.5-7.7c1.1-3.3,2-7.4,2.6-12.4
							h5.1v62.5h-5.1c-0.1-4.6-0.6-8.5-1.4-11.8c-0.8-3.3-2.1-5.9-4-8c-1.8-2.1-4.3-3.6-7.3-4.6c-3.1-0.9-6.9-1.4-11.5-1.4h-33.6v58
							c0,4.3,0.1,7.9,0.2,10.6c0.1,2.7,0.5,5,1,6.7c0.5,1.8,1.3,3.2,2.3,4.2c1,1,2.3,2,4,2.9c3.8,2.2,7.9,3.3,12.4,3.3h6.7v5.1
							h-79.3v-5.1h6.5c3.3,0,6.1-0.2,8.6-0.7c2.5-0.5,4.6-1.6,6.2-3.5c1.6-1.8,2.9-4.6,3.8-8.3c0.9-3.7,1.3-8.8,1.3-15.2V816.6
							c0-4.2-0.1-7.7-0.3-10.5c-0.2-2.8-0.5-5-1-6.8c-0.5-1.8-1.2-3.2-2.1-4.3c-0.9-1.1-2.2-2-3.9-2.8c-2-1.1-4.1-1.9-6.1-2.4
							c-2-0.5-4.2-0.8-6.5-0.8h-6.5v-5.1h137.5v40.7h-3.1c-1.8-6.6-3.8-12-6-16c-2.2-4-5-7.1-8.1-9.3c-3.2-2.2-7-3.6-11.3-4.3
							c-4.3-0.7-9.6-1-15.7-1H3737.4z"/>
						<path d="M3958.7,875.6c-7.3-6.1-13.3-11.5-17.8-16.1c-4.5-4.6-8.1-8.8-10.6-12.7c-2.5-3.9-4.2-7.6-5-11.2
							c-0.8-3.6-1.2-7.4-1.2-11.5c0-5.8,1.2-11.4,3.7-16.8c2.4-5.4,5.9-10,10.4-14c4.5-4,9.8-7.2,16.1-9.6
							c6.2-2.4,13.2-3.6,20.8-3.6c7.3,0,14,1.1,20.1,3.4c6.1,2.2,11.4,5.2,15.8,8.8c4.4,3.7,7.8,7.9,10.2,12.7
							c2.4,4.8,3.6,9.7,3.6,14.8c0,3.7-0.5,7.2-1.5,10.7c-1,3.5-2.9,7-5.8,10.7c-2.8,3.7-6.7,7.6-11.7,11.7c-5,4.1-11.3,8.6-19,13.5
							c8,6.2,14.7,11.8,19.9,16.6c5.3,4.8,9.2,9,11.8,12.5c6.9,9.4,10.4,19.1,10.4,29.3c0,6.4-1.3,12.4-3.9,18.2
							c-2.6,5.8-6.2,10.8-11,15.1c-4.7,4.3-10.4,7.7-17.1,10.2s-14,3.8-22,3.8c-7.7,0-14.8-1.2-21.3-3.7c-6.4-2.4-12-5.8-16.7-10
							c-4.7-4.2-8.3-9-10.9-14.4c-2.6-5.4-3.9-11.2-3.9-17.3c0-8.3,2.8-16.4,8.3-24.5C3936,894.1,3945.4,885.3,3958.7,875.6z
							 M3965.3,880.9c-7.7,6.4-13.4,13.3-16.9,20.8c-3.5,7.5-5.3,15.6-5.3,24.4c0,5.8,0.8,11.1,2.5,15.9c1.7,4.8,4,8.8,7,12.2
							c3,3.4,6.5,6,10.7,7.8c4.1,1.8,8.7,2.7,13.7,2.7c4.9,0,9.3-0.7,13.3-2.2c4-1.5,7.4-3.5,10.3-6.1c2.8-2.6,5.1-5.6,6.6-9.1
							c1.6-3.5,2.3-7.2,2.3-11.1c0-4.2-0.8-8.3-2.5-12.2c-1.7-3.9-4.3-8-7.8-12.3c-3.5-4.3-8.1-8.9-13.7-13.9
							C3979.9,892.8,3973.1,887.2,3965.3,880.9z M3980.1,861.2c5.7-5.2,10.2-9.6,13.5-13.2c3.3-3.7,5.9-7.1,7.6-10.2
							c1.8-3.1,2.9-6.2,3.4-9.2c0.5-3,0.7-6.3,0.7-10c0-9.6-2.7-17.1-8-22.5c-5.4-5.4-12.7-8-22.1-8c-4.6,0-8.8,0.7-12.6,2.1
							c-3.8,1.4-7.1,3.4-9.9,5.8c-2.8,2.4-5,5.3-6.5,8.5c-1.6,3.3-2.3,6.7-2.3,10.4c0,4.7,1.2,9.5,3.7,14.1
							c2.4,4.7,5.9,9.2,10.4,13.5L3980.1,861.2z"/>
						<path d="M4228.7,968.8l-71.4-155.4v123.5c0,6.4,0.4,11.4,1.3,15c0.9,3.6,2.2,6.3,3.9,8c1.7,1.8,3.8,2.8,6.2,3.3
							c2.4,0.4,5.2,0.6,8.3,0.6h6.5v5.1h-64.3v-5.1h6.5c3.3,0,6.1-0.2,8.5-0.7c2.4-0.5,4.5-1.6,6.1-3.5c1.6-1.8,2.8-4.5,3.7-8.1
							c0.8-3.6,1.2-8.4,1.2-14.5V816c0-4.3-0.2-8.2-0.6-11.5c-0.4-3.3-1.5-6.1-3.2-8.4c-1.7-2.3-4.3-4.1-7.7-5.3s-8.3-1.8-14.5-1.8
							v-5.1h52.3l67.1,144.7l65.9-144.7h52.3v5.1h-6.3c-3.4,0-6.3,0.3-8.7,0.8c-2.4,0.5-4.5,1.7-6.1,3.6c-1.6,1.8-2.8,4.5-3.7,8.1
							c-0.8,3.6-1.2,8.4-1.2,14.5v120.9c0,6.4,0.4,11.4,1.3,15c0.9,3.6,2.2,6.3,3.9,8c1.7,1.8,3.8,2.8,6.2,3.3
							c2.4,0.4,5.2,0.6,8.3,0.6h6.3v5.1h-78.5v-5.1h6.5c3.3,0,6.1-0.3,8.5-0.8c2.4-0.5,4.5-1.7,6.2-3.6c1.7-1.8,2.9-4.5,3.8-8
							c0.8-3.5,1.2-8.3,1.2-14.4V813.4l-71.2,155.4H4228.7z"/>
						<path d="M4477,968.8l-71.4-155.4v123.5c0,6.4,0.4,11.4,1.3,15c0.9,3.6,2.2,6.3,3.9,8c1.7,1.8,3.8,2.8,6.2,3.3
							c2.4,0.4,5.2,0.6,8.3,0.6h6.5v5.1h-64.3v-5.1h6.5c3.3,0,6.1-0.2,8.5-0.7c2.4-0.5,4.5-1.6,6.1-3.5c1.6-1.8,2.8-4.5,3.7-8.1
							c0.8-3.6,1.2-8.4,1.2-14.5V816c0-4.3-0.2-8.2-0.6-11.5c-0.4-3.3-1.5-6.1-3.2-8.4c-1.7-2.3-4.3-4.1-7.7-5.3
							c-3.5-1.2-8.3-1.8-14.5-1.8v-5.1h52.3l67.1,144.7l65.9-144.7h52.3v5.1h-6.3c-3.4,0-6.3,0.3-8.7,0.8c-2.4,0.5-4.5,1.7-6.1,3.6
							c-1.6,1.8-2.8,4.5-3.7,8.1c-0.8,3.6-1.2,8.4-1.2,14.5v120.9c0,6.4,0.4,11.4,1.3,15c0.9,3.6,2.2,6.3,3.9,8
							c1.7,1.8,3.8,2.8,6.2,3.3c2.4,0.4,5.2,0.6,8.3,0.6h6.3v5.1h-78.5v-5.1h6.5c3.3,0,6.1-0.3,8.5-0.8c2.4-0.5,4.5-1.7,6.2-3.6
							c1.7-1.8,2.9-4.5,3.8-8c0.8-3.5,1.2-8.3,1.2-14.4V813.4l-71.2,155.4H4477z"/>
					</g>
					<g>
						<path d="M3102,1151.8v52.7c0,11.6,1.3,18.7,3.8,21.4c3.5,3.9,8.6,5.8,15.4,5.8h7v5h-77.7v-5h6.8c7.6,0,13-2.5,16.4-7.4
							c1.9-2.9,2.8-9.5,2.8-19.8v-117.2c0-11.3-1.2-18.4-3.6-21.2c-3.6-4-8.8-6-15.6-6h-6.8v-5h66.5c16,0,28.7,1.7,38.3,5.2
							c4.7,1.6,9,3.8,13.1,6.7c4.1,2.9,7.6,6.3,10.6,10.2c3,3.9,5.4,8.3,7.1,13c1.7,4.7,2.6,9.8,2.6,15.3c0,7.3-1.3,14-3.8,20.2
							c-2.5,6.1-6.2,11.4-11,15.8c-4.8,4.4-10.6,7.8-17.6,10.3c-6.9,2.5-14.8,3.7-23.8,3.7C3123.9,1155.4,3113.7,1154.2,3102,1151.8
							z M3102,1144c4.8,0.9,9,1.6,12.6,2.1c3.6,0.5,6.7,0.7,9.4,0.7c4.7,0,9-1,13.2-2.9c4.1-1.9,7.8-4.6,10.9-8
							c3.1-3.4,5.6-7.5,7.4-12.3c1.8-4.8,2.7-10,2.7-15.6c0-6.7-1-12.6-3-17.8c-2-5.2-4.7-9.6-8.2-13.2c-3.5-3.6-7.5-6.3-12.2-8.2
							c-4.7-1.9-9.7-2.8-15.2-2.8c-4.5,0-10.4,0.8-17.6,2.4V1144z"/>
						<path d="M3254.5,1139.4h84.2v-51.9c0-4.3-0.1-7.7-0.2-10.5c-0.1-2.7-0.5-5-1-6.7c-0.5-1.7-1.3-3.1-2.3-4.1c-1-1-2.3-2-3.9-2.9
							c-3.7-2.1-7.8-3.2-12.2-3.2h-6.4v-5h77.7v5h-6.4c-1.7,0-3.6,0.2-5.5,0.6c-1.9,0.4-3.7,1-5.4,1.8c-1.7,0.8-3.2,1.8-4.5,3
							c-1.3,1.2-2.3,2.6-2.8,4.2c-0.9,2.8-1.4,8.7-1.4,17.8v117c0,4.3,0.1,7.7,0.3,10.4c0.2,2.7,0.5,4.9,1,6.6
							c0.5,1.7,1.2,3.1,2.1,4.1c0.9,1,2.2,2,3.8,2.9c3.7,2.1,7.9,3.2,12.4,3.2h6.4v5h-77.7v-5h6.4c3.1,0,5.8-0.2,8.2-0.7
							c2.4-0.5,4.5-1.6,6.2-3.4c1.7-1.8,3-4.5,3.9-8.2c0.9-3.7,1.3-8.6,1.3-14.9v-55.3h-84.2v55.3c0,4.3,0.1,7.7,0.2,10.4
							c0.1,2.7,0.5,4.9,1,6.6c0.5,1.7,1.3,3.1,2.3,4.1c1,1,2.3,2,3.9,2.9c3.7,2.1,7.8,3.2,12.2,3.2h6.6v5h-77.9v-5h6.6
							c7.3,0,12.7-2.2,16.2-6.6c2.1-2.7,3.2-9.5,3.2-20.6v-117c0-4.4-0.1-8-0.2-10.7c-0.1-2.7-0.5-4.9-1-6.6c-0.5-1.7-1.3-3-2.2-4
							c-0.9-1-2.2-2-3.8-2.9c-3.7-2.1-7.8-3.2-12.2-3.2h-6.6v-5h77.9v5h-6.6c-1.6,0-3.4,0.2-5.3,0.6c-1.9,0.4-3.7,1-5.4,1.8
							c-1.7,0.8-3.2,1.8-4.5,3c-1.3,1.2-2.3,2.6-2.8,4.2c-1.1,3.2-1.6,9.1-1.6,17.8V1139.4z"/>
						<path d="M3480.4,1231.6v5h-77.7v-5h6.4c3.2,0,6-0.2,8.5-0.7c2.5-0.5,4.5-1.6,6.1-3.4c1.6-1.8,2.8-4.5,3.7-8.2
							c0.9-3.7,1.3-8.6,1.3-14.9v-117.2c0-4.1-0.1-7.6-0.3-10.3c-0.2-2.7-0.5-5-1-6.7c-0.5-1.7-1.2-3.1-2.1-4.1
							c-0.9-1-2.2-2-3.8-2.9c-4-2.1-8.1-3.2-12.4-3.2h-6.4v-5h77.7v5h-6.4c-3.2,0-6,0.3-8.5,0.8c-2.5,0.5-4.5,1.7-6.1,3.5
							c-1.6,1.8-2.8,4.5-3.7,8.2c-0.9,3.7-1.3,8.6-1.3,14.7v117.2c0,4.3,0.1,7.7,0.2,10.4c0.1,2.7,0.5,4.9,1,6.6
							c0.5,1.7,1.3,3.1,2.3,4.1c1,1,2.3,2,3.9,2.9c3.7,2.1,7.8,3.2,12.2,3.2H3480.4z"/>
						<path d="M3644.3,1186.5l4.4,0.8l-15.6,49.3h-140.5v-5h7c7.5,0,12.9-2.5,16.4-7.4c1.9-2.9,2.8-9.5,2.8-19.8v-117.2
							c0-11.2-1.3-18.2-3.8-21.2c-3.5-4-8.6-6-15.4-6h-7v-5h82.2v5c-4.9,0-9,0.2-12.3,0.7c-3.3,0.5-6,1.1-8.1,2
							c-2.1,0.9-3.8,1.9-5,3.1c-1.2,1.2-2.2,2.5-3,4c-1.3,2.7-2,9.5-2,20.6v114c0,6.3,0.5,10.8,1.4,13.6c0.9,2.8,2.8,4.7,5.6,5.8
							c2.4,0.8,9.4,1.2,21,1.2h13.2c14,0,23.8-1,29.3-3c2.8-0.9,5.5-2.3,8-4c2.5-1.7,5-4,7.4-6.8c2.4-2.8,4.7-6.2,7-10.2
							C3639.6,1197.1,3641.9,1192.2,3644.3,1186.5z"/>
						<path d="M3811.6,1186.5l4.4,0.8l-15.6,49.3h-140.5v-5h7c7.5,0,12.9-2.5,16.4-7.4c1.9-2.9,2.8-9.5,2.8-19.8v-117.2
							c0-11.2-1.3-18.2-3.8-21.2c-3.5-4-8.6-6-15.4-6h-7v-5h82.2v5c-4.9,0-9,0.2-12.3,0.7c-3.3,0.5-6,1.1-8.1,2
							c-2.1,0.9-3.8,1.9-5,3.1c-1.2,1.2-2.2,2.5-3,4c-1.3,2.7-2,9.5-2,20.6v114c0,6.3,0.5,10.8,1.4,13.6c0.9,2.8,2.8,4.7,5.6,5.8
							c2.4,0.8,9.4,1.2,21,1.2h13.2c14,0,23.8-1,29.3-3c2.8-0.9,5.5-2.3,8-4c2.5-1.7,5-4,7.4-6.8c2.4-2.8,4.7-6.2,7-10.2
							C3806.9,1197.1,3809.2,1192.2,3811.6,1186.5z"/>
						<path d="M3906.2,1231.6v5h-77.7v-5h6.4c3.2,0,6-0.2,8.5-0.7c2.5-0.5,4.5-1.6,6.1-3.4c1.6-1.8,2.8-4.5,3.7-8.2
							c0.9-3.7,1.3-8.6,1.3-14.9v-117.2c0-4.1-0.1-7.6-0.3-10.3c-0.2-2.7-0.5-5-1-6.7c-0.5-1.7-1.2-3.1-2.1-4.1
							c-0.9-1-2.2-2-3.8-2.9c-4-2.1-8.1-3.2-12.4-3.2h-6.4v-5h77.7v5h-6.4c-3.2,0-6,0.3-8.5,0.8c-2.5,0.5-4.5,1.7-6.1,3.5
							c-1.6,1.8-2.8,4.5-3.7,8.2c-0.9,3.7-1.3,8.6-1.3,14.7v117.2c0,4.3,0.1,7.7,0.2,10.4c0.1,2.7,0.5,4.9,1,6.6
							c0.5,1.7,1.3,3.1,2.3,4.1c1,1,2.3,2,3.9,2.9c3.7,2.1,7.8,3.2,12.2,3.2H3906.2z"/>
						<path d="M3969.1,1151.8v52.7c0,11.6,1.3,18.7,3.8,21.4c3.5,3.9,8.6,5.8,15.4,5.8h7v5h-77.7v-5h6.8c7.6,0,13-2.5,16.4-7.4
							c1.9-2.9,2.8-9.5,2.8-19.8v-117.2c0-11.3-1.2-18.4-3.6-21.2c-3.6-4-8.8-6-15.6-6h-6.8v-5h66.5c16,0,28.7,1.7,38.3,5.2
							c4.7,1.6,9,3.8,13.1,6.7c4.1,2.9,7.6,6.3,10.6,10.2c3,3.9,5.4,8.3,7.1,13c1.7,4.7,2.6,9.8,2.6,15.3c0,7.3-1.3,14-3.8,20.2
							c-2.5,6.1-6.2,11.4-11,15.8c-4.8,4.4-10.6,7.8-17.6,10.3c-6.9,2.5-14.8,3.7-23.8,3.7C3991,1155.4,3980.8,1154.2,3969.1,1151.8
							z M3969.1,1144c4.8,0.9,9,1.6,12.6,2.1c3.6,0.5,6.7,0.7,9.4,0.7c4.7,0,9-1,13.2-2.9c4.1-1.9,7.8-4.6,10.9-8
							c3.1-3.4,5.6-7.5,7.4-12.3c1.8-4.8,2.7-10,2.7-15.6c0-6.7-1-12.6-3-17.8c-2-5.2-4.7-9.6-8.2-13.2c-3.5-3.6-7.5-6.3-12.2-8.2
							c-4.7-1.9-9.7-2.8-15.2-2.8c-4.5,0-10.4,0.8-17.6,2.4V1144z"/>
						<path d="M4190.9,1051.2v62.7h-5c-2.3-16.9-7.8-29.8-16.6-38.7c-8.8-8.9-20-13.4-33.5-13.4c-4.7,0-8.9,0.8-12.8,2.4
							c-3.9,1.6-7.3,3.7-10.2,6.3c-2.9,2.6-5.2,5.6-6.8,8.9c-1.6,3.3-2.4,6.8-2.4,10.4c0,3.3,0.7,6.5,2,9.5c1.3,3,5.5,7.7,12.4,14.1
							c11.6,7.3,21.9,13.4,30.9,18.2c8.5,4.7,20,11.7,34.5,21.2c6.3,4.8,11,10.5,14.4,17.1c3.3,6.6,5,13.5,5,20.7
							c0,6.8-1.4,13.2-4.2,19.4c-2.8,6.1-6.7,11.5-11.7,16.1c-5,4.6-11,8.3-18.1,11c-7.1,2.7-14.8,4.1-23.2,4.1
							c-5.3,0-10.2-0.4-14.8-1.2c-0.8-0.1-2.9-0.7-6.3-1.7c-3.4-1-7-2-10.9-3.1c-3.9-1.1-7.5-2.1-10.8-3c-3.3-0.9-5.3-1.4-5.8-1.4
							c-2.3,0-4,0.7-5.3,2c-1.3,1.3-2.2,4.1-2.9,8.4h-5v-62.3h5c2.4,12.8,5.5,22.6,9.4,29.3c1.9,3.2,4.4,6.2,7.5,8.9
							c3.1,2.7,6.7,5.1,10.6,7.2c3.9,2.1,8.1,3.7,12.7,4.8c4.5,1.1,9.1,1.7,13.8,1.7c5.6,0,10.6-0.8,15.1-2.4
							c4.5-1.6,8.2-3.8,11.4-6.5c3.1-2.7,5.5-5.9,7.2-9.5c1.7-3.6,2.5-7.4,2.5-11.4c0-4.5-1.2-9-3.7-13.6c-2.5-4.5-6.6-9-12.5-13.4
							c-5.7-3.5-12.5-7.5-20.4-12.2c-15-8.7-28.4-17-40.1-25c-6.5-5.2-11.5-10.9-14.9-17.1c-3.4-6.2-5.1-13.1-5.1-20.7
							c0-6.4,1.3-12.5,4-18.3c2.7-5.8,6.4-10.9,11.1-15.3c4.7-4.4,10.3-7.9,16.9-10.4c6.5-2.5,13.6-3.8,21.2-3.8
							c9.6,0,19.8,2.3,30.5,7c2.5,1.1,4.7,1.9,6.4,2.6c1.7,0.7,3.1,0.9,4.2,0.8c2.4,0,4.3-0.7,5.8-2c1.5-1.3,2.6-4.1,3.4-8.4H4190.9
							z"/>
					</g>
					<g>
						<path d="M4354.1,1143.2h84.2v-51.9c0-4.3-0.1-7.7-0.2-10.5c-0.1-2.7-0.5-5-1-6.7c-0.5-1.7-1.3-3.1-2.3-4.1c-1-1-2.3-2-3.9-2.9
							c-3.7-2.1-7.8-3.2-12.2-3.2h-6.4v-5h77.7v5h-6.4c-1.7,0-3.6,0.2-5.5,0.6c-1.9,0.4-3.7,1-5.4,1.8c-1.7,0.8-3.2,1.8-4.5,3
							c-1.3,1.2-2.3,2.6-2.8,4.2c-0.9,2.8-1.4,8.7-1.4,17.8v117c0,4.3,0.1,7.7,0.3,10.4c0.2,2.7,0.5,4.9,1,6.6
							c0.5,1.7,1.2,3.1,2.1,4.1c0.9,1,2.2,2,3.8,2.9c3.7,2.1,7.9,3.2,12.4,3.2h6.4v5h-77.7v-5h6.4c3.1,0,5.8-0.2,8.2-0.7
							c2.4-0.5,4.5-1.6,6.2-3.4c1.7-1.8,3-4.5,3.9-8.2c0.9-3.7,1.3-8.6,1.3-14.9V1153h-84.2v55.3c0,4.3,0.1,7.7,0.2,10.4
							c0.1,2.7,0.5,4.9,1,6.6c0.5,1.7,1.3,3.1,2.3,4.1c1,1,2.3,2,3.9,2.9c3.7,2.1,7.8,3.2,12.2,3.2h6.6v5h-77.9v-5h6.6
							c7.3,0,12.7-2.2,16.2-6.6c2.1-2.7,3.2-9.5,3.2-20.6v-117c0-4.4-0.1-8-0.2-10.7c-0.1-2.7-0.5-4.9-1-6.6c-0.5-1.7-1.3-3-2.2-4
							c-0.9-1-2.2-2-3.8-2.9c-3.7-2.1-7.8-3.2-12.2-3.2h-6.6v-5h77.9v5h-6.6c-1.6,0-3.4,0.2-5.3,0.6c-1.9,0.4-3.7,1-5.4,1.8
							c-1.7,0.8-3.2,1.8-4.5,3c-1.3,1.2-2.3,2.6-2.8,4.2c-1.1,3.2-1.6,9.1-1.6,17.8V1143.2z"/>
						<path d="M4552.9,1069v71.7h39.7c5.9,0,10.6-0.5,14.2-1.6c3.6-1.1,6.4-2.7,8.5-4.8c2.1-2.1,3.5-4.9,4.3-8.2
							c0.8-3.3,1.3-7.3,1.6-11.8h5v63.1h-5c-0.7-5.2-1.4-9.5-2.3-13c-0.9-3.5-2.3-6.2-4.2-8.3c-1.9-2.1-4.6-3.5-8.1-4.4
							c-3.5-0.9-8.1-1.3-14-1.3h-39.7v59.9c0,4.5,0.1,8.1,0.2,10.8c0.1,2.7,0.7,4.7,1.6,6.1c0.9,1.4,2.4,2.3,4.4,2.7
							c2,0.4,4.9,0.6,8.8,0.6h30.7c5.2,0,9.6-0.1,13.2-0.4c3.6-0.3,6.7-0.8,9.3-1.6c2.6-0.8,4.9-1.9,6.9-3.3c2-1.4,4.1-3.2,6.4-5.3
							c5.3-5.2,11-13.5,17-25h5.4l-15.8,45.5h-139.7v-5h6.4c1.7,0,3.5-0.2,5.4-0.6c1.9-0.4,3.6-1,5.3-1.7c1.7-0.7,3.2-1.7,4.5-2.9
							c1.3-1.2,2.3-2.6,2.8-4.2c1.1-2.9,1.6-8.8,1.6-17.6v-117.8c0-11.6-1.1-18.7-3.4-21.4c-3.2-3.6-8.6-5.4-16.2-5.4h-6.4v-5h139.7
							v39.7h-3.2c-1.3-6.5-2.8-11.7-4.3-15.7c-1.5-3.9-3.6-7-6.1-9.1c-2.5-2.1-5.8-3.5-9.7-4.1c-3.9-0.6-9-0.9-15.1-0.9H4552.9z"/>
						<path d="M4788.2,1179.8H4718l-12.4,28.5c-2.9,7.1-4.4,12.3-4.4,15.8c0,1.5,0.2,2.8,0.7,4c0.5,1.2,1.5,2.3,3,3.3
							c1.5,1,3.7,1.9,6.4,2.6c2.7,0.7,6.4,1.2,10.9,1.5v5h-57.1v-5c4.5-0.7,8.2-1.7,11-3c2.8-1.3,5.2-3.2,7.2-5.5
							c2-2.3,3.8-5.4,5.5-9.1c1.7-3.7,3.7-8.3,6.1-13.8l63.9-149.1h4.6l63.1,150.7c2.5,6.3,4.9,11.3,7.1,15.1
							c2.2,3.8,4.5,6.8,6.8,8.9c2.3,2.1,4.9,3.6,7.6,4.4c2.7,0.8,6,1.3,9.9,1.4v5H4786v-5c7.2-0.3,12.1-1.4,14.7-3.5
							c2.6-2.1,3.9-4.6,3.9-7.5c-0.1-3.9-1.9-10.1-5.4-18.8L4788.2,1179.8z M4784.5,1169.8l-30.7-73.3l-31.5,73.3H4784.5z"/>
						<path d="M4865.3,1240.4v-5h7c3.1,0,5.8-0.3,8.2-0.8c2.4-0.5,4.4-1.7,6-3.6c1.6-1.9,2.8-4.6,3.7-8.2c0.9-3.6,1.3-8.4,1.3-14.6
							v-117.2c0-11.2-1.3-18.2-3.8-21.2c-3.5-4-8.6-6-15.4-6h-7v-5h73.9c26.9,0,47.5,3.1,61.9,9.4c14.2,6.3,25.6,16.5,34.1,30.7
							c8.6,14.5,13,31.1,13,49.7c0,13.4-2.2,25.8-6.5,36.9c-4.3,11.2-10.8,20.8-19.4,28.9c-8.6,8.1-19.2,14.4-31.8,19
							c-12.6,4.5-27.3,6.8-44.1,6.8H4865.3z M4917.2,1227.3c11,2.5,20.5,3.8,28.3,3.8c10.2,0,19.8-1.9,28.5-5.7
							c8.8-3.8,16.4-9.2,22.9-16.2c6.5-7,11.5-15.5,15.2-25.4c3.7-10,5.5-21.2,5.5-33.5c0-12.5-1.8-23.8-5.4-33.8
							c-3.6-10-8.7-18.6-15.2-25.6c-6.5-7-14.2-12.3-23.2-16.1c-8.9-3.7-18.7-5.6-29.3-5.6c-7.9,0-17,1.3-27.3,4V1227.3z"/>
					</g>
					<g>
						<path d="M3895.2,1336.8v5c-3.6,0-6.6,0.3-8.9,1c-2.3,0.7-4.5,2.2-6.5,4.5c-2,2.3-4,5.8-6,10.4c-2,4.6-4.3,10.7-7,18.5
							l-50.5,146.3h-5.4l-41.3-116l-40.9,116h-5l-53.9-150.7c-2-5.6-3.6-10-4.8-13.3c-1.2-3.3-2.1-5.4-2.8-6.5
							c-1.9-3.5-4.3-6-7.3-7.7c-3-1.7-7.2-2.5-12.5-2.5v-5h67.1v5h-3.2c-4.7,0-8.3,1.1-10.8,3.2c-2.5,2.1-3.8,4.7-3.8,7.8
							c0,3.2,2,10.4,6,21.6l35.7,101.8l29.9-86.6l-9.6-27.3c-1.5-3.3-2.9-6.3-4.4-8.8c-1.5-2.5-3.1-4.7-5-6.4
							c-1.9-1.7-4.1-3-6.6-3.9c-2.5-0.9-5.6-1.3-9.2-1.3v-5h70.5v5h-4.8c-5.1,0-8.7,1.1-11,3.2c-2.3,2.1-3.4,5.1-3.4,8.8
							c0,4.5,2,12.4,6,23.8l34.7,98.6l34.5-100c1.9-5.6,3.3-10.2,4.4-14c1.1-3.7,1.6-6.7,1.6-9c0-4.3-1.9-7.2-5.6-8.9
							c-3.7-1.7-8.6-2.5-14.6-2.5v-5H3895.2z"/>
						<path d="M3997.6,1332.9c11.6,0,22.6,2.4,33.1,7.2c10.5,4.8,19.8,11.4,27.7,19.8c8,8.4,14.3,18.3,19.1,29.6
							c4.7,11.4,7.1,23.7,7.1,37c0,13.7-2.4,26.4-7.1,38.1c-4.7,11.7-11.1,21.9-19.2,30.4c-8.1,8.6-17.5,15.3-28.3,20.2
							c-10.8,4.9-22.4,7.3-34.6,7.3c-12.4,0-24-2.3-34.7-7c-10.8-4.7-20.1-11.2-28-19.7c-7.9-8.4-14.2-18.5-18.8-30.2
							c-4.6-11.7-6.9-24.6-6.9-38.7c0-13,2.3-25.3,6.9-36.7c4.6-11.4,10.9-21.4,19-29.8c8.1-8.4,17.6-15.1,28.6-20.1
							C3972.5,1335.3,3984.5,1332.9,3997.6,1332.9z M3995,1342.6c-9.2,0-17.3,2-24.5,5.9c-7.1,3.9-13.1,9.5-18,16.8
							c-4.9,7.3-8.6,16-11.1,26.4c-2.5,10.3-3.8,21.9-3.8,34.8c0,12.8,1.2,24.5,3.7,35c2.5,10.6,6.1,19.7,11,27.3
							c4.9,7.7,10.9,13.6,18.1,17.8c7.2,4.2,15.4,6.3,24.8,6.3c8.4,0,16.1-1.6,23.3-4.8c7.1-3.2,13.3-8.1,18.7-14.9
							c5.3-6.7,9.5-15.3,12.5-25.8c3-10.4,4.5-22.9,4.5-37.4c0-13.7-1.2-26-3.7-36.8c-2.5-10.8-6.2-20-11.2-27.5
							c-5-7.5-11.2-13.2-18.6-17.2C4013.3,1344.6,4004.7,1342.6,3995,1342.6z"/>
						<path d="M4195.4,1332.9c11.6,0,22.6,2.4,33.1,7.2c10.5,4.8,19.8,11.4,27.7,19.8c8,8.4,14.3,18.3,19.1,29.6
							c4.7,11.4,7.1,23.7,7.1,37c0,13.7-2.4,26.4-7.1,38.1c-4.7,11.7-11.1,21.9-19.2,30.4c-8.1,8.6-17.5,15.3-28.3,20.2
							c-10.8,4.9-22.4,7.3-34.6,7.3c-12.4,0-24-2.3-34.7-7c-10.8-4.7-20.1-11.2-28-19.7c-7.9-8.4-14.2-18.5-18.8-30.2
							c-4.6-11.7-6.9-24.6-6.9-38.7c0-13,2.3-25.3,6.9-36.7c4.6-11.4,10.9-21.4,19-29.8c8.1-8.4,17.6-15.1,28.6-20.1
							C4170.3,1335.3,4182.4,1332.9,4195.4,1332.9z M4192.8,1342.6c-9.2,0-17.3,2-24.5,5.9c-7.1,3.9-13.1,9.5-18,16.8
							c-4.9,7.3-8.6,16-11.1,26.4c-2.5,10.3-3.8,21.9-3.8,34.8c0,12.8,1.2,24.5,3.7,35c2.5,10.6,6.1,19.7,11,27.3
							c4.9,7.7,10.9,13.6,18.1,17.8c7.2,4.2,15.4,6.3,24.8,6.3c8.4,0,16.1-1.6,23.3-4.8c7.1-3.2,13.3-8.1,18.7-14.9
							c5.3-6.7,9.5-15.3,12.5-25.8c3-10.4,4.5-22.9,4.5-37.4c0-13.7-1.2-26-3.7-36.8c-2.5-10.8-6.2-20-11.2-27.5
							c-5-7.5-11.2-13.2-18.6-17.2C4211.1,1344.6,4202.5,1342.6,4192.8,1342.6z"/>
						<path d="M4297.6,1518.3v-5h7c3.1,0,5.8-0.3,8.2-0.8c2.4-0.5,4.4-1.7,6-3.6c1.6-1.9,2.8-4.6,3.7-8.2c0.9-3.6,1.3-8.4,1.3-14.6
							V1369c0-11.2-1.3-18.2-3.8-21.2c-3.5-4-8.6-6-15.4-6h-7v-5h73.9c26.9,0,47.5,3.1,61.9,9.4c14.2,6.3,25.6,16.5,34.1,30.7
							c8.6,14.5,13,31.1,13,49.7c0,13.4-2.2,25.8-6.5,36.9c-4.3,11.2-10.8,20.8-19.4,28.9c-8.6,8.1-19.2,14.4-31.8,19
							c-12.6,4.5-27.3,6.8-44.1,6.8H4297.6z M4349.5,1505.1c11,2.5,20.5,3.8,28.3,3.8c10.2,0,19.8-1.9,28.5-5.7
							c8.8-3.8,16.4-9.2,22.9-16.2c6.5-7,11.5-15.5,15.2-25.4c3.7-10,5.5-21.2,5.5-33.5c0-12.5-1.8-23.8-5.4-33.8
							c-3.6-10-8.7-18.6-15.2-25.6c-6.5-7-14.2-12.3-23.2-16.1c-8.9-3.7-18.7-5.6-29.3-5.6c-7.9,0-17,1.3-27.3,4V1505.1z"/>
					</g>
					<g>
						<path d="M3396.4,1622.4l-10.6,22.8h-54.5l-12,24.4c10.8,1.6,20.7,4.4,29.8,8.5c9.1,4.1,16.9,9.1,23.5,15.1
							c6.5,6,11.6,12.9,15.3,20.7c3.7,7.8,5.5,16.1,5.5,25.1c0,11-2.3,20.8-7,29.2c-4.7,8.5-10.6,15.6-17.7,21.4
							c-7.1,5.8-14.9,10.2-23.3,13.2c-8.4,3-16.3,4.5-23.8,4.5c-5.6,0-10.3-0.5-14.3-1.5c-3.9-1-7.1-2.4-9.6-4.1
							c-2.5-1.7-4.3-3.6-5.5-5.7c-1.2-2.1-1.8-4.2-1.8-6.5c0-2.5,1-4.8,3-6.7c2-1.9,4.6-2.9,7.8-2.9c1.2,0,2.3,0.1,3.2,0.2
							c0.9,0.1,1.9,0.4,2.9,0.9c1,0.5,2.2,1.1,3.6,2c1.4,0.9,3.2,2,5.3,3.5c3.3,2.4,6.7,4.2,10.1,5.3c3.4,1.1,6.8,1.7,10.3,1.7
							c5.2,0,10.1-1.1,14.9-3.2c4.7-2.1,8.9-5,12.5-8.7c3.6-3.7,6.5-8,8.7-12.9c2.2-4.9,3.3-10.2,3.3-16c0-5.5-0.9-10.8-2.8-16
							c-1.9-5.2-4.5-10.1-8-14.7c-3.5-4.6-7.6-8.7-12.5-12.5c-4.9-3.7-10.3-6.9-16.5-9.6c-4.9-2.1-10.7-3.7-17.3-4.7
							c-6.6-1-14.1-1.7-22.5-2.1l34.7-70.7H3396.4z"/>
						<path d="M3647.7,1618.4l4.2,61.7h-4.2c-5.6-18.5-13.5-31.8-23.7-39.9c-10.2-8.1-22.5-12.2-36.8-12.2c-9.3,0-17.9,1.8-25.8,5.3
							c-7.9,3.5-14.6,9-20.3,16.3c-5.7,7.3-10.1,16.5-13.3,27.5c-3.2,11-4.8,24.1-4.8,39.1c0,12.1,1.5,23.1,4.5,32.9
							c3,9.8,7.4,18.3,13.2,25.3c5.8,7,12.9,12.4,21.3,16.2c8.4,3.8,18,5.7,28.9,5.7c11.4,0,21.8-2.5,31.1-7.6
							c8.9-4.7,18.8-14.6,29.7-29.9l4.2,2.6c-9.2,16.1-19.8,27.9-31.8,35.4c-12,7.5-26.4,11.3-43.2,11.3c-12.9,0-24.8-2.3-35.5-6.8
							c-10.8-4.5-20.1-10.9-27.8-19.1c-7.8-8.2-13.9-17.9-18.3-29.1c-4.4-11.2-6.6-23.6-6.6-37c0-18.2,4.1-34.9,12.2-49.9
							c8-15.2,19.1-26.9,33.3-35.1c14.4-8.4,29.9-12.6,46.7-12.6c13.2,0,26.1,3.2,38.7,9.6c3.7,2,6.4,3,8,3c2.9,0,5.4-1.2,7.3-3.6
							c1.9-2.4,3.3-5.4,4.1-9H3647.7z"/>
						<path d="M3777.4,1803.8l-70.1-152.5v121.2c0,6.3,0.4,11.1,1.3,14.7c0.9,3.5,2.1,6.2,3.8,7.9c1.7,1.7,3.7,2.8,6.1,3.2
							c2.4,0.4,5.1,0.6,8.2,0.6h6.4v5H3670v-5h6.4c3.2,0,6-0.2,8.4-0.7c2.4-0.5,4.4-1.6,6-3.4c1.6-1.8,2.8-4.5,3.6-8
							c0.8-3.5,1.2-8.3,1.2-14.3v-118.6c0-4.3-0.2-8-0.6-11.3c-0.4-3.3-1.4-6-3.1-8.3c-1.7-2.3-4.2-4-7.6-5.2
							c-3.4-1.2-8.2-1.8-14.3-1.8v-5h51.3l65.9,141.9l64.7-141.9h51.3v5h-6.2c-3.3,0-6.2,0.3-8.6,0.8c-2.4,0.5-4.4,1.7-6,3.5
							c-1.6,1.8-2.8,4.5-3.6,8c-0.8,3.5-1.2,8.3-1.2,14.3v118.6c0,6.3,0.4,11.1,1.3,14.7c0.9,3.5,2.1,6.2,3.8,7.9
							c1.7,1.7,3.7,2.8,6.1,3.2c2.4,0.4,5.1,0.6,8.2,0.6h6.2v5h-77.1v-5h6.4c3.2,0,6-0.3,8.4-0.8c2.4-0.5,4.4-1.7,6.1-3.5
							c1.7-1.8,2.9-4.4,3.7-7.9c0.8-3.5,1.2-8.2,1.2-14.2v-121.2l-69.9,152.5H3777.4z"/>
						<path d="M4134.6,1753.7l4.4,0.8l-15.6,49.3h-140.5v-5h7c7.5,0,12.9-2.5,16.4-7.4c1.9-2.9,2.8-9.5,2.8-19.8v-117.2
							c0-11.2-1.3-18.2-3.8-21.2c-3.5-4-8.6-6-15.4-6h-7v-5h82.2v5c-4.9,0-9,0.2-12.3,0.7c-3.3,0.5-6,1.1-8.1,2
							c-2.1,0.9-3.8,1.9-5,3.1c-1.2,1.2-2.2,2.5-3,4c-1.3,2.7-2,9.5-2,20.6v114c0,6.3,0.5,10.8,1.4,13.6c0.9,2.8,2.8,4.7,5.6,5.8
							c2.4,0.8,9.4,1.2,21,1.2h13.2c14,0,23.8-1,29.3-3c2.8-0.9,5.5-2.3,8-4c2.5-1.7,5-4,7.4-6.8c2.4-2.8,4.7-6.2,7-10.2
							C4129.8,1764.3,4132.2,1759.4,4134.6,1753.7z"/>
						<path d="M4245,1618.4c11.6,0,22.6,2.4,33.1,7.2c10.5,4.8,19.8,11.4,27.7,19.8c8,8.4,14.3,18.3,19.1,29.6
							c4.7,11.4,7.1,23.7,7.1,37c0,13.7-2.4,26.4-7.1,38.1c-4.7,11.7-11.1,21.9-19.2,30.4c-8.1,8.6-17.5,15.3-28.3,20.2
							c-10.8,4.9-22.4,7.3-34.6,7.3c-12.4,0-24-2.3-34.7-7c-10.8-4.7-20.1-11.2-28-19.7c-7.9-8.4-14.2-18.5-18.8-30.2
							c-4.6-11.7-6.9-24.6-6.9-38.7c0-13,2.3-25.3,6.9-36.7c4.6-11.4,10.9-21.4,19-29.8c8.1-8.4,17.6-15.1,28.6-20.1
							C4219.9,1620.8,4231.9,1618.4,4245,1618.4z M4242.4,1628.2c-9.2,0-17.3,2-24.5,5.9c-7.1,3.9-13.1,9.5-18,16.8
							c-4.9,7.3-8.6,16-11.1,26.4c-2.5,10.3-3.8,21.9-3.8,34.8c0,12.8,1.2,24.5,3.7,35c2.5,10.6,6.1,19.7,11,27.3
							c4.9,7.7,10.9,13.6,18.1,17.8c7.2,4.2,15.4,6.3,24.8,6.3c8.4,0,16.1-1.6,23.3-4.8c7.1-3.2,13.3-8.1,18.7-14.9
							c5.3-6.7,9.5-15.3,12.5-25.8c3-10.4,4.5-22.9,4.5-37.4c0-13.7-1.2-26-3.7-36.8c-2.5-10.8-6.2-20-11.2-27.5
							c-5-7.5-11.2-13.2-18.6-17.2C4260.6,1630.1,4252.1,1628.2,4242.4,1628.2z"/>
						<path d="M4339,1622.4h49.1l111,136.1v-104.6c0-6.1-0.4-11-1.3-14.6c-0.9-3.6-2.1-6.3-3.8-8c-1.7-1.7-3.7-2.8-6.1-3.3
							c-2.4-0.5-5.1-0.7-8.2-0.7h-6.4v-5h63.3v5h-6.6c-3.2,0-6,0.3-8.4,0.8c-2.4,0.5-4.4,1.7-6,3.6c-1.6,1.9-2.8,4.5-3.6,8
							c-0.8,3.5-1.2,8.2-1.2,14.2v152.9h-4.8l-119.6-146.1v111.8c0,6.3,0.4,11.1,1.3,14.7c0.9,3.5,2.1,6.2,3.7,7.9
							c1.6,1.7,3.6,2.8,6,3.2c2.4,0.4,5.1,0.6,8.2,0.6h6.4v5H4349v-5h6.4c3.2,0,6-0.3,8.4-0.8c2.4-0.5,4.4-1.7,6.1-3.5
							c1.7-1.8,2.9-4.4,3.7-7.9c0.8-3.5,1.2-8.2,1.2-14.2v-126.2c-2.7-3.2-4.9-5.7-6.7-7.6c-1.8-1.9-3.5-3.4-5.1-4.6
							c-1.6-1.2-3.3-2.2-5.2-3c-1.9-0.8-4.2-1.7-7-2.6c-2.7-0.8-6.6-1.2-11.8-1.2V1622.4z"/>
						<path d="M4708.5,1618.4l4.8,57.1h-4.8c-5.5-16.8-13.2-28.9-23.3-36.4c-10.1-7.5-22.3-11.3-36.6-11.3
							c-10.6,0-20.2,2.1-28.5,6.3c-8.4,4.2-15.5,10-21.4,17.4c-5.9,7.4-10.3,16.1-13.4,26.2c-3.1,10-4.6,20.9-4.6,32.6
							c0,17.2,3.4,32.9,10.2,47.3c3.3,7.2,7.2,13.4,11.7,18.6c4.5,5.2,9.3,9.5,14.5,12.9c5.2,3.4,10.6,5.9,16.3,7.5
							c5.7,1.6,11.3,2.4,17.1,2.4c13.3,0,25.8-3.3,37.5-10v-52.5c0-4.5-0.2-8.2-0.5-11.1c-0.3-2.9-0.9-5.1-1.6-6.8
							c-0.7-1.7-1.6-2.9-2.7-3.8c-1.1-0.9-2.3-1.7-3.8-2.5c-2.9-1.5-8-2.2-15.2-2.2v-5.2h70.3v5.2h-3.4c-3.1,0-5.7,0.3-7.8,1
							c-2.1,0.7-3.9,1.9-5.3,3.8c-1.4,1.9-2.4,4.5-3,8c-0.6,3.5-0.9,8-0.9,13.6v55.5c-5.2,2.8-10.3,5.2-15.3,7.3
							c-5,2.1-10,3.7-15.1,4.9c-10.4,2.7-21.5,4-33.3,4c-15.2,0-28.9-2.3-41.2-7c-12.3-4.7-22.9-11.1-31.6-19.4
							c-8.8-8.3-15.6-18-20.4-29.1c-4.8-11.2-7.2-23.4-7.2-36.5c0-15.8,3.9-31.1,11.6-45.9c8.9-17.3,21.4-30.7,37.3-40.1
							c13.3-7.7,29-11.6,47.1-11.6c3.6,0,6.8,0.1,9.6,0.3c2.8,0.2,5.7,0.6,8.7,1.2c3,0.6,6.3,1.5,9.8,2.6c3.5,1.1,7.8,2.6,12.9,4.5
							c5.1,2,8.4,2.9,10.2,2.8c1.6,0,3-0.8,4.2-2.3c1.2-1.5,1.9-4.6,2.2-9.1H4708.5z"/>
					</g>
					<g>
						<path d="M3279.2,1906.8v62.7h-5c-2.3-16.9-7.8-29.8-16.6-38.7c-8.8-8.9-20-13.4-33.5-13.4c-4.7,0-8.9,0.8-12.8,2.4
							c-3.9,1.6-7.3,3.7-10.2,6.3c-2.9,2.6-5.2,5.6-6.8,8.9c-1.6,3.3-2.4,6.8-2.4,10.4c0,3.3,0.7,6.5,2,9.5c1.3,3,5.5,7.7,12.4,14.1
							c11.6,7.3,21.9,13.4,30.9,18.2c8.5,4.7,20,11.7,34.5,21.2c6.3,4.8,11,10.5,14.4,17.1c3.3,6.6,5,13.5,5,20.7
							c0,6.8-1.4,13.2-4.2,19.4c-2.8,6.1-6.7,11.5-11.7,16.1c-5,4.6-11,8.3-18.1,11c-7.1,2.7-14.8,4.1-23.2,4.1
							c-5.3,0-10.2-0.4-14.8-1.2c-0.8-0.1-2.9-0.7-6.3-1.7s-7-2-10.9-3.1c-3.9-1.1-7.5-2.1-10.8-3c-3.3-0.9-5.3-1.4-5.8-1.4
							c-2.3,0-4,0.7-5.3,2c-1.3,1.3-2.2,4.1-2.9,8.4h-5v-62.3h5c2.4,12.8,5.5,22.6,9.4,29.3c1.9,3.2,4.4,6.2,7.5,8.9
							c3.1,2.7,6.7,5.1,10.6,7.2c3.9,2.1,8.1,3.7,12.7,4.8c4.5,1.1,9.1,1.7,13.8,1.7c5.6,0,10.6-0.8,15.1-2.4
							c4.5-1.6,8.2-3.8,11.4-6.5c3.1-2.7,5.5-5.9,7.2-9.5c1.7-3.6,2.5-7.4,2.5-11.4c0-4.5-1.2-9-3.7-13.6c-2.5-4.5-6.6-9-12.5-13.4
							c-5.7-3.5-12.5-7.5-20.4-12.2c-15-8.7-28.4-17-40.1-25c-6.5-5.2-11.5-10.9-14.9-17.1s-5.1-13.1-5.1-20.7
							c0-6.4,1.3-12.5,4-18.3c2.7-5.8,6.4-10.9,11.1-15.3c4.7-4.4,10.3-7.9,16.9-10.4c6.5-2.5,13.6-3.8,21.2-3.8
							c9.6,0,19.8,2.3,30.5,7c2.5,1.1,4.7,1.9,6.4,2.6c1.7,0.7,3.1,0.9,4.2,0.8c2.4,0,4.3-0.7,5.8-2c1.5-1.3,2.6-4.1,3.4-8.4H3279.2
							z"/>
						<path d="M3470.8,1906.8l4.2,61.7h-4.2c-5.6-18.5-13.5-31.8-23.7-39.9c-10.2-8.1-22.5-12.2-36.8-12.2c-9.3,0-17.9,1.8-25.8,5.3
							c-7.9,3.5-14.6,9-20.3,16.3c-5.7,7.3-10.1,16.5-13.3,27.5c-3.2,11-4.8,24.1-4.8,39.1c0,12.1,1.5,23.1,4.5,32.9
							c3,9.9,7.4,18.3,13.2,25.3c5.8,7,12.9,12.4,21.3,16.2c8.4,3.8,18,5.7,28.9,5.7c11.4,0,21.8-2.5,31.1-7.6
							c8.9-4.7,18.8-14.6,29.7-29.9l4.2,2.6c-9.2,16.1-19.8,27.9-31.8,35.4c-12,7.5-26.4,11.3-43.2,11.3c-12.9,0-24.8-2.3-35.5-6.8
							c-10.8-4.5-20.1-10.9-27.8-19.1c-7.8-8.2-13.9-17.9-18.3-29.1c-4.4-11.2-6.6-23.6-6.6-37c0-18.2,4.1-34.9,12.2-49.9
							c8-15.2,19.1-26.9,33.3-35.1c14.4-8.4,29.9-12.6,46.7-12.6c13.2,0,26.1,3.2,38.7,9.6c3.7,2,6.4,3,8,3c2.9,0,5.4-1.2,7.3-3.6
							c1.9-2.4,3.3-5.4,4.1-9H3470.8z"/>
						<path d="M3673.6,2092.2h-48.3l-61.5-84.8c-2.3,0.1-4.3,0.2-6.1,0.3c-1.8,0.1-3.4,0.1-4.9,0.1c-1.2,0-2.5,0-3.8-0.1
							c-1.3-0.1-2.7-0.2-4.2-0.3v52.7c0,6.4,0.4,11.4,1.3,15.1c0.9,3.7,2.1,6.4,3.8,8.2c1.7,1.8,3.7,2.9,6,3.3
							c2.3,0.4,5,0.6,7.9,0.6h7.2v5h-77.9v-5h7c7.5,0,12.9-2.5,16.4-7.4c1.9-2.9,2.8-9.5,2.8-19.8v-117.2c0-11.2-1.3-18.2-3.8-21.2
							c-3.5-4-8.6-6-15.4-6h-7v-5h66.1c9.7,0,18.1,0.4,25.2,1.1c7.1,0.7,12.8,1.8,17.4,3.3c4.5,1.5,8.8,3.5,12.8,6.1
							c4,2.6,7.5,5.7,10.5,9.4c3,3.7,5.4,7.8,7.1,12.3c1.7,4.5,2.6,9.4,2.6,14.6c0,11.3-3.6,21-10.8,29.1
							c-7.2,8.1-18.4,13.9-33.7,17.4l37.3,51.9c4.4,6,8.3,10.9,11.7,14.8c3.4,3.9,6.8,6.9,10.2,9.2c3.4,2.3,7,3.9,10.8,5
							c3.8,1.1,8.3,1.9,13.5,2.4V2092.2z M3544.9,1999c1.7,0,3.2,0,4.5,0.1c1.3,0.1,2.3,0.1,3.1,0.1c8.6,0,16.2-1,22.8-3
							c6.5-2,12-4.8,16.4-8.4c4.4-3.6,7.7-7.8,9.9-12.7c2.2-4.9,3.3-10.1,3.3-15.9c0-5.6-0.9-10.7-2.8-15.5c-1.9-4.7-4.5-8.8-8-12.2
							c-3.5-3.4-7.6-6-12.4-7.9c-4.8-1.9-10-2.8-15.8-2.8c-5.5,0-12.4,0.9-21,2.6V1999z"/>
						<path d="M3728.5,1920.8v71.7h39.7c5.9,0,10.6-0.5,14.2-1.6c3.6-1.1,6.4-2.7,8.5-4.8c2.1-2.1,3.5-4.9,4.3-8.2
							c0.8-3.3,1.3-7.3,1.6-11.8h5v63.1h-5c-0.7-5.2-1.4-9.5-2.3-13c-0.9-3.5-2.3-6.2-4.2-8.3c-1.9-2.1-4.6-3.5-8.1-4.4
							c-3.5-0.9-8.1-1.3-14-1.3h-39.7v59.9c0,4.5,0.1,8.1,0.2,10.8c0.1,2.7,0.7,4.7,1.6,6.1c0.9,1.4,2.4,2.3,4.4,2.7
							c2,0.4,4.9,0.6,8.8,0.6h30.7c5.2,0,9.6-0.1,13.2-0.4c3.6-0.3,6.7-0.8,9.3-1.6c2.6-0.8,4.9-1.9,6.9-3.3c2-1.4,4.1-3.2,6.4-5.3
							c5.3-5.2,11-13.5,17-25h5.4l-15.8,45.5h-139.7v-5h6.4c1.7,0,3.5-0.2,5.4-0.6c1.9-0.4,3.6-1,5.3-1.7c1.7-0.7,3.2-1.7,4.5-2.9
							c1.3-1.2,2.3-2.6,2.8-4.2c1.1-2.9,1.6-8.8,1.6-17.6v-117.8c0-11.6-1.1-18.7-3.4-21.4c-3.2-3.6-8.6-5.4-16.2-5.4h-6.4v-5h139.7
							v39.7h-3.2c-1.3-6.5-2.8-11.7-4.3-15.7c-1.5-3.9-3.6-7-6.1-9.1c-2.5-2.1-5.8-3.5-9.7-4.1c-3.9-0.6-9-0.9-15.1-0.9H3728.5z"/>
						<path d="M4094.8,1910.8v5c-3.6,0-6.6,0.3-8.9,1c-2.3,0.7-4.5,2.2-6.5,4.5c-2,2.3-4,5.8-6,10.4c-2,4.6-4.3,10.7-7,18.5
							l-50.5,146.3h-5.4l-41.3-116l-40.9,116h-5l-53.9-150.7c-2-5.6-3.6-10-4.8-13.3c-1.2-3.3-2.1-5.4-2.8-6.5
							c-1.9-3.5-4.3-6-7.3-7.7c-3-1.7-7.2-2.5-12.5-2.5v-5h67.1v5h-3.2c-4.7,0-8.3,1.1-10.8,3.2c-2.5,2.1-3.8,4.7-3.8,7.8
							c0,3.2,2,10.4,6,21.6l35.7,101.8l29.9-86.6l-9.6-27.3c-1.5-3.3-2.9-6.3-4.4-8.8c-1.5-2.5-3.1-4.7-5-6.4
							c-1.9-1.7-4.1-3-6.6-3.9c-2.5-0.9-5.6-1.3-9.2-1.3v-5h70.5v5h-4.8c-5.1,0-8.7,1.1-11,3.2c-2.3,2.1-3.4,5.1-3.4,8.8
							c0,4.5,2,12.4,6,23.8l34.7,98.6l34.5-100c1.9-5.6,3.3-10.2,4.4-14c1.1-3.7,1.6-6.7,1.6-9c0-4.3-1.9-7.2-5.6-8.9
							c-3.7-1.7-8.6-2.5-14.6-2.5v-5H4094.8z"/>
						<path d="M4287.1,1999.6c7.3,1.6,13.6,3.8,18.9,6.6c5.3,2.8,9.5,6.1,12.8,9.8c3.3,3.7,5.7,7.9,7.2,12.4
							c1.5,4.5,2.3,9.3,2.3,14.2c0,4.5-0.7,9-2.2,13.4c-1.5,4.4-3.6,8.6-6.3,12.5c-2.7,3.9-6.1,7.5-10.1,10.6
							c-4,3.1-8.5,5.7-13.6,7.7c-9.6,3.7-24.7,5.6-45.3,5.6h-85.6v-5h6.8c3.1,0,5.8-0.3,8.2-0.8c2.4-0.5,4.4-1.7,6.1-3.6
							c1.7-1.9,2.9-4.6,3.8-8.2c0.9-3.6,1.3-8.4,1.3-14.6v-117.2c0-6.4-0.5-11.4-1.4-15c-0.9-3.6-2.3-6.3-4-8.1
							c-1.7-1.8-3.8-2.9-6.2-3.4c-2.4-0.5-5-0.7-7.8-0.7h-6.8v-5h78.3c25.2,0,44.2,4.3,57.2,12.8c13,8.5,19.5,20.4,19.5,35.7
							c0,9.2-2.8,17.3-8.4,24.5C4306,1990.9,4297.8,1996.2,4287.1,1999.6z M4217,1992.4c3.3,0.7,7.1,1.2,11.3,1.5
							c4.2,0.3,8.8,0.5,13.9,0.5c17.7,0,30.4-3.2,38.1-9.6c7.7-6.4,11.6-15.2,11.6-26.6c0-5.2-1.1-10.1-3.3-14.9s-5.4-8.8-9.7-12.3
							c-4.3-3.5-9.6-6.2-15.9-8.3c-6.3-2.1-13.7-3.1-22.1-3.1c-9.1,0-17,1-24,3V1992.4z M4217,2079.1c10.1,2.4,20.3,3.6,30.5,3.6
							c8.1,0,15.3-1,21.6-3c6.3-2,11.4-4.7,15.6-8.1c4.1-3.4,7.3-7.4,9.4-12c2.1-4.6,3.2-9.5,3.2-14.7c0-5.7-1.1-11.1-3.4-16.2
							c-2.3-5.1-5.8-9.4-10.5-13.2c-4.7-3.7-10.6-6.7-17.8-8.8c-7.1-2.1-15.5-3.2-25.1-3.2c-5.6,0-10.3,0.1-14.2,0.2
							c-3.9,0.1-7,0.5-9.4,1V2079.1z"/>
						<path d="M4500.3,2042.1l4.4,0.8l-15.6,49.3h-140.5v-5h7c7.5,0,12.9-2.5,16.4-7.4c1.9-2.9,2.8-9.5,2.8-19.8v-117.2
							c0-11.2-1.3-18.2-3.8-21.2c-3.5-4-8.6-6-15.4-6h-7v-5h82.2v5c-4.9,0-9,0.2-12.3,0.7c-3.3,0.5-6,1.1-8.1,2
							c-2.1,0.9-3.8,1.9-5,3.1c-1.2,1.2-2.2,2.5-3,4c-1.3,2.7-2,9.5-2,20.6v114c0,6.3,0.5,10.8,1.4,13.6c0.9,2.8,2.8,4.7,5.6,5.8
							c2.4,0.8,9.4,1.2,21,1.2h13.2c14,0,23.8-1,29.3-3c2.8-0.9,5.5-2.3,8-4c2.5-1.7,5-4,7.4-6.8c2.4-2.8,4.7-6.2,7-10.2
							C4495.5,2052.7,4497.9,2047.9,4500.3,2042.1z"/>
						<path d="M4635.8,2031.6h-70.3l-12.4,28.5c-2.9,7.1-4.4,12.3-4.4,15.8c0,1.5,0.2,2.8,0.7,4c0.5,1.2,1.5,2.3,3,3.3
							c1.5,1,3.7,1.9,6.4,2.6c2.7,0.7,6.4,1.2,10.9,1.5v5h-57.1v-5c4.5-0.7,8.2-1.7,11-3c2.8-1.3,5.2-3.2,7.2-5.5
							c2-2.3,3.8-5.4,5.5-9.1c1.7-3.7,3.7-8.3,6.1-13.8l63.9-149.1h4.6l63.1,150.7c2.5,6.3,4.9,11.3,7.1,15.1
							c2.2,3.8,4.5,6.8,6.8,8.9c2.3,2.1,4.9,3.6,7.6,4.4c2.7,0.8,6,1.3,9.9,1.4v5h-71.7v-5c7.2-0.3,12.1-1.4,14.7-3.5
							c2.6-2.1,3.9-4.6,3.9-7.5c-0.1-3.9-1.9-10.1-5.4-18.8L4635.8,2031.6z M4632,2021.6l-30.7-73.3l-31.5,73.3H4632z"/>
						<path d="M4873.1,1906.8l4.2,61.7h-4.2c-5.6-18.5-13.5-31.8-23.7-39.9c-10.2-8.1-22.5-12.2-36.8-12.2c-9.3,0-17.9,1.8-25.8,5.3
							c-7.9,3.5-14.6,9-20.3,16.3c-5.7,7.3-10.1,16.5-13.3,27.5c-3.2,11-4.8,24.1-4.8,39.1c0,12.1,1.5,23.1,4.5,32.9
							c3,9.9,7.4,18.3,13.2,25.3c5.8,7,12.9,12.4,21.3,16.2c8.4,3.8,18,5.7,28.9,5.7c11.4,0,21.8-2.5,31.1-7.6
							c8.9-4.7,18.8-14.6,29.7-29.9l4.2,2.6c-9.2,16.1-19.8,27.9-31.8,35.4c-12,7.5-26.4,11.3-43.2,11.3c-12.9,0-24.8-2.3-35.5-6.8
							c-10.8-4.5-20.1-10.9-27.8-19.1c-7.8-8.2-13.9-17.9-18.3-29.1c-4.4-11.2-6.6-23.6-6.6-37c0-18.2,4.1-34.9,12.2-49.9
							c8-15.2,19.1-26.9,33.3-35.1c14.4-8.4,29.9-12.6,46.7-12.6c13.2,0,26.1,3.2,38.7,9.6c3.7,2,6.4,3,8,3c2.9,0,5.4-1.2,7.3-3.6
							c1.9-2.4,3.3-5.4,4.1-9H4873.1z"/>
						<path d="M4972.8,1991.6l66.9,66.5c5.6,5.6,10.6,10.2,15.2,13.9c4.5,3.7,8.8,6.6,12.8,8.8c4,2.2,7.9,3.8,11.7,4.8
							c3.8,1,7.7,1.6,11.7,1.7v5h-86.2v-5c5.7,0,9.6-1,11.6-3c2-2,3-4.1,3-6.4c0-0.9-0.1-1.8-0.2-2.5c-0.1-0.7-0.5-1.6-1.1-2.5
							c-0.6-0.9-1.6-2.1-2.9-3.6c-1.3-1.5-3.1-3.3-5.4-5.6l-62.7-62.1v58.5c0,4.3,0.1,7.7,0.3,10.4c0.2,2.7,0.5,4.9,1,6.6
							c0.5,1.7,1.2,3.1,2.2,4.1c1,1,2.3,2,3.9,2.9c3.9,2.1,7.9,3.2,12.2,3.2h6.2v5h-77.3v-5h6.4c7.5,0,12.9-2.2,16.4-6.6
							c2.1-2.9,3.2-9.8,3.2-20.6v-117.2c0-4-0.1-7.4-0.2-10.1c-0.1-2.7-0.5-5-1-6.7c-0.5-1.7-1.3-3.2-2.2-4.3
							c-0.9-1.1-2.2-2.1-3.8-2.9c-4.3-2.1-8.4-3.2-12.4-3.2h-6.4v-5h77.3v5h-6.2c-3.3,0-6.8,0.7-10.5,2.2c-3.7,1.5-6.2,3.9-7.5,7.4
							c-1.1,2.9-1.6,8.8-1.6,17.6v55.5c0.1-0.1,1-1,2.7-2.5c1.7-1.5,3.5-3.2,5.6-5.1c2.1-1.9,4.1-3.7,6-5.6c1.9-1.9,3.3-3.1,4.1-3.8
							c9.7-8.9,17.9-16.6,24.6-23c6.7-6.4,12-11.8,16-16.3c4-4.5,6.9-8.2,8.6-11.2c1.7-3,2.6-5.5,2.6-7.5c0-2.1-0.9-4-2.8-5.5
							c-1.9-1.5-5.1-2.3-9.6-2.3h-4.2v-5h66.7v5c-2.4,0.1-4.8,0.4-7.3,0.7c-2.5,0.3-5.2,1.2-8.2,2.5c-3,1.3-6.4,3.4-10.3,6.2
							c-3.9,2.8-8.5,6.7-13.8,11.6c-1.1,0.9-3.8,3.7-8.2,8.3c-4.4,4.6-10.7,10.9-19,19.1L4972.8,1991.6z"/>
					</g>
					<g>
						<path d="M3564.3,2197.5v42.7h-3c-1.5-11.4-4.8-19.5-10.1-24.3c-5.3-4.7-13-7.1-23.3-7.1h-25.6v138.7c0,6.1,0.4,10.9,1.3,14.5
							c0.9,3.5,2.1,6.2,3.7,7.9c1.6,1.7,3.6,2.8,6,3.3c2.4,0.5,5.2,0.7,8.4,0.7h6.2v5h-76.9v-5h6.4c3.2,0,6-0.3,8.4-0.8
							c2.4-0.5,4.4-1.7,6-3.5c1.6-1.8,2.8-4.4,3.7-7.9c0.9-3.5,1.3-8.2,1.3-14.2v-138.7h-21.8c-5.5,0-10.3,0.4-14.5,1.3
							c-4.2,0.9-7.8,2.5-10.9,4.8c-3.1,2.3-5.5,5.5-7.3,9.6c-1.8,4.1-2.9,9.3-3.3,15.7h-5v-42.7H3564.3z"/>
						<path d="M3668.3,2193.5c11.6,0,22.6,2.4,33.1,7.2c10.5,4.8,19.8,11.4,27.7,19.8c8,8.4,14.3,18.3,19.1,29.6
							c4.7,11.4,7.1,23.7,7.1,37c0,13.7-2.4,26.4-7.1,38.1c-4.7,11.7-11.1,21.9-19.2,30.4c-8.1,8.6-17.5,15.3-28.3,20.2
							s-22.4,7.3-34.6,7.3c-12.4,0-24-2.3-34.7-7c-10.8-4.7-20.1-11.2-28-19.7c-7.9-8.4-14.2-18.5-18.8-30.2
							c-4.6-11.7-6.9-24.6-6.9-38.7c0-13,2.3-25.3,6.9-36.7c4.6-11.4,10.9-21.4,19-29.8c8.1-8.4,17.6-15.1,28.6-20.1
							C3643.2,2196,3655.3,2193.5,3668.3,2193.5z M3665.7,2203.3c-9.2,0-17.3,2-24.5,5.9c-7.1,3.9-13.1,9.5-18,16.8
							c-4.9,7.3-8.6,16-11.1,26.4c-2.5,10.3-3.8,21.9-3.8,34.8c0,12.8,1.2,24.5,3.7,35c2.5,10.6,6.1,19.7,11,27.3
							c4.9,7.7,10.9,13.6,18.1,17.8c7.2,4.2,15.4,6.3,24.8,6.3c8.4,0,16.1-1.6,23.3-4.8c7.1-3.2,13.3-8.1,18.7-14.9
							c5.3-6.7,9.5-15.3,12.5-25.8c3-10.4,4.5-22.9,4.5-37.4c0-13.7-1.2-26-3.7-36.8c-2.5-10.8-6.2-20-11.2-27.5
							c-5-7.5-11.2-13.2-18.6-17.2C3684,2205.3,3675.4,2203.3,3665.7,2203.3z"/>
						<path d="M3924.4,2197.5v42.7h-3c-1.5-11.4-4.8-19.5-10.1-24.3c-5.3-4.7-13-7.1-23.3-7.1h-25.6v138.7c0,6.1,0.4,10.9,1.3,14.5
							c0.9,3.5,2.1,6.2,3.7,7.9c1.6,1.7,3.6,2.8,6,3.3c2.4,0.5,5.2,0.7,8.4,0.7h6.2v5h-76.9v-5h6.4c3.2,0,6-0.3,8.4-0.8
							c2.4-0.5,4.4-1.7,6-3.5c1.6-1.8,2.8-4.4,3.7-7.9c0.9-3.5,1.3-8.2,1.3-14.2v-138.7h-21.8c-5.5,0-10.3,0.4-14.5,1.3
							c-4.2,0.9-7.8,2.5-10.9,4.8c-3.1,2.3-5.5,5.5-7.3,9.6c-1.8,4.1-2.9,9.3-3.3,15.7h-5v-42.7H3924.4z"/>
						<path d="M4036.6,2318.3h-70.3l-12.4,28.5c-2.9,7.1-4.4,12.3-4.4,15.8c0,1.5,0.2,2.8,0.7,4c0.5,1.2,1.5,2.3,3,3.3
							c1.5,1,3.7,1.9,6.4,2.6c2.7,0.7,6.4,1.2,10.9,1.5v5h-57.1v-5c4.5-0.7,8.2-1.7,11-3c2.8-1.3,5.2-3.2,7.2-5.5
							c2-2.3,3.8-5.4,5.5-9.1c1.7-3.7,3.7-8.3,6.1-13.8l63.9-149.1h4.6l63.1,150.7c2.5,6.3,4.9,11.3,7.1,15.1
							c2.2,3.8,4.5,6.8,6.8,8.9c2.3,2.1,4.9,3.6,7.6,4.4c2.7,0.8,6,1.3,9.9,1.4v5h-71.7v-5c7.2-0.3,12.1-1.4,14.7-3.5
							c2.6-2.1,3.9-4.6,3.9-7.5c-0.1-3.9-1.9-10.1-5.4-18.8L4036.6,2318.3z M4032.8,2308.3l-30.7-73.3l-31.5,73.3H4032.8z"/>
						<path d="M4266.2,2328.9l4.4,0.8L4255,2379h-140.5v-5h7c7.5,0,12.9-2.5,16.4-7.4c1.9-2.9,2.8-9.5,2.8-19.8v-117.2
							c0-11.2-1.3-18.2-3.8-21.2c-3.5-4-8.6-6-15.4-6h-7v-5h82.2v5c-4.9,0-9,0.2-12.3,0.7c-3.3,0.5-6,1.1-8.1,2
							c-2.1,0.9-3.8,1.9-5,3.1c-1.2,1.2-2.2,2.5-3,4c-1.3,2.7-2,9.5-2,20.6v114c0,6.3,0.5,10.8,1.4,13.6c0.9,2.8,2.8,4.7,5.6,5.8
							c2.4,0.8,9.4,1.2,21,1.2h13.2c14,0,23.8-1,29.3-3c2.8-0.9,5.5-2.3,8-4c2.5-1.7,5-4,7.4-6.8c2.4-2.8,4.7-6.2,7-10.2
							C4261.4,2339.5,4263.8,2334.6,4266.2,2328.9z"/>
						<path d="M4433.4,2328.9l4.4,0.8l-15.6,49.3h-140.5v-5h7c7.5,0,12.9-2.5,16.4-7.4c1.9-2.9,2.8-9.5,2.8-19.8v-117.2
							c0-11.2-1.3-18.2-3.8-21.2c-3.5-4-8.6-6-15.4-6h-7v-5h82.2v5c-4.9,0-9,0.2-12.3,0.7c-3.3,0.5-6,1.1-8.1,2
							c-2.1,0.9-3.8,1.9-5,3.1c-1.2,1.2-2.2,2.5-3,4c-1.3,2.7-2,9.5-2,20.6v114c0,6.3,0.5,10.8,1.4,13.6c0.9,2.8,2.8,4.7,5.6,5.8
							c2.4,0.8,9.4,1.2,21,1.2h13.2c14,0,23.8-1,29.3-3c2.8-0.9,5.5-2.3,8-4c2.5-1.7,5-4,7.4-6.8c2.4-2.8,4.7-6.2,7-10.2
							C4428.7,2339.5,4431,2334.6,4433.4,2328.9z"/>
						<path d="M4546.8,2197.5h63.3v5h-3.6c-5.1,0-10.5,2.3-16.4,6.9c-5.9,4.6-12.3,12.5-19.4,23.9l-43.7,68.9v45.5
							c0,6.1,0.4,10.9,1.3,14.5c0.9,3.5,2.1,6.2,3.8,7.9c1.7,1.7,3.7,2.8,6.2,3.3c2.5,0.5,5.3,0.7,8.5,0.7h5.8v5h-77.1v-5h6.6
							c3.2,0,6-0.3,8.4-0.8c2.4-0.5,4.4-1.7,6-3.5c1.6-1.8,2.8-4.4,3.6-7.9c0.8-3.5,1.2-8.2,1.2-14.2v-43.1l-49.7-75.9
							c-3.1-4.5-5.6-8.2-7.5-10.9c-1.9-2.7-3.4-4.7-4.5-5.9c-0.5-0.5-1.4-1.3-2.7-2.4c-1.3-1.1-2.8-2.1-4.7-3.1
							c-1.9-1-3.9-1.9-6.2-2.7c-2.3-0.8-4.7-1.2-7.2-1.2v-5h77.5v5h-4c-2,0-4,0.2-6,0.7c-2,0.5-3.8,1.2-5.4,2.1
							c-1.6,0.9-2.9,2.2-3.9,3.7c-1,1.5-1.5,3.3-1.5,5.3c-0.1,1.6,0.5,3.8,2,6.7c1.5,2.9,3.5,6.4,6.2,10.7l37.7,58.5l35.7-55.9
							c5.1-8.1,7.7-14.4,8-18.8c-0.3-1.9-0.7-3.6-1.3-5.2c-0.6-1.6-1.6-3-3-4.1c-1.4-1.1-3.2-2-5.5-2.7c-2.3-0.7-5.1-1-8.6-1V2197.5
							z"/>
					</g>
				</g>
				<g>
					<path d="M3225.5,1767.6l-12.9,35.1h-107.6v-5c31.2-29.6,53.5-53.1,66.9-70.7c13-18.2,19.5-34.9,19.5-50.2c0-5.8-1-11.1-2.9-16
						c-1.9-4.9-4.6-9.1-7.8-12.6c-3.3-3.5-7.1-6.2-11.4-8.2c-4.4-2-9-3-14-3c-9,0-17,2.6-24.1,7.8c-7.1,5.2-12.4,12.9-15.9,23.1
						h-4.8c2.3-16.7,8-29.5,17.2-38.3c9.2-8.8,20.8-13.2,34.8-13.2c7.4,0,14.2,1.3,20.6,3.9c6.4,2.6,11.8,6.1,16.5,10.5
						c4.6,4.4,8.3,9.5,10.9,15.3c2.7,5.8,4,11.8,4,18.1c0,9.2-1.6,17.7-4.9,25.5c-3.3,7.8-6.6,14.1-10,19
						c-3.4,4.9-8.3,11.4-14.8,19.6c-12.2,13.7-21.9,24.4-29.2,32.1c-7.3,7.8-14.6,15.1-21.8,21.9h47.6c6,0,11.1-0.1,15.3-0.4
						c4.1-0.3,7.7-0.9,10.5-1.9c2.9-1,5.3-2.5,7.3-4.5c2-2,4-4.7,6-8H3225.5z"/>
				</g>
				<g>
					<path d="M3261,1777.7c4,0,7.5,1.4,10.4,4.3c2.9,2.9,4.4,6.4,4.4,10.5c0,4.2-1.5,7.7-4.4,10.6c-2.9,2.9-6.4,4.4-10.4,4.4
						c-4.2,0-7.7-1.5-10.6-4.4c-2.9-2.9-4.4-6.5-4.4-10.6c0-4.3,1.5-7.8,4.4-10.6C3253.3,1779.1,3256.8,1777.7,3261,1777.7z"/>
				</g>
			</g>
		</g>
	</g>
</g>
<path id="TORN_00000072250542941562971250000003082889310484187032_" d="M1323.5,1642c18.7,13.3,30.1,29.6,31.3,52
	c2,36.8-25.7,67.2-61.9,68.3c-1.1,0-2.3,0.4-3.4,0.1c-22.6-6.5-33.6,5.2-42,25.3c-7.9,19-19,36.7-29,55.4c3.5,2.9,6.4,5.2,9.2,7.6
	c19.8,17.3,27.1,44.7,18.5,69.8c-8.3,24.1-31.1,41.4-56.7,42.9c-1.5,0.1-3.1,0.5-4.5,0.1c-23-6.5-34.3,5-42.9,25.7
	c-8.9,21.5-21.3,41.6-32.1,62.4c-11.1,21.4-26.3,39.4-45,54.4c-61.3,49-122.5,98.1-183.7,147.3c-9.5,7.6-19.3,12.5-31.1,6.5
	c-12.4-6.2-14.2-17.5-13.3-30.2c5.8-79.9,11.3-159.9,17.6-239.8c1.3-16.3,5.9-32.3,9-48.5c-6.6-7.7-15.2-15.4-20.9-24.9
	c-12.4-20.6-11.8-42.3,0-63.3c12.1-21.6,31.5-34.8,55-31.8c24.4,3.1,35.9-6.1,44.6-27.6c7.6-18.7,18.6-36,28.3-54.3
	c-17.9-12.3-29.1-28-31.1-49.2c-3.7-39.2,27.2-74,66-70.2c22.3,2.2,32.3-5.7,40.5-24.8c8.4-19.6,19.7-37.9,28-53.5
	c-9.6-14-19.9-24.2-24.8-36.8c-16.7-42.5,14.9-89.6,59.7-86.1c24.1,1.9,34.9-6.4,43.6-27.2c7.7-18.6,18.8-35.9,27.3-51.7
	c-9-11.7-18.4-20.5-23.7-31.4c-20.2-41.6,9.6-90.2,55.4-91.7c1.5,0,3.1-0.3,4.5,0.1c21.8,6.5,32.3-4.8,40.3-24.1
	c7.7-18.4,18.1-35.5,27.3-53.2c0.5-1,0.8-2.1,1.5-4.1c-2.3-2-4.7-4.2-7.2-6.2c-20.9-17.5-28.3-44.4-19.4-70.4
	c8.6-25,31.3-42.1,57.5-43.3c1.5-0.1,3.1-0.4,4.5,0c21.8,6,31.6-5.2,41.4-24.4c64.6-125.9,130.5-251.2,196.4-376.5
	c22.3-42.3,34-86.8,34.4-134.6c0.6-59.4,1.8-118.8,3-178.2c0.8-42.1,35.8-63.7,72.2-44.3c118.9,63.4,237.8,126.9,356.6,190.5
	c37,19.8,39,60.9,4.4,85.8c-52.5,37.8-105.3,75.2-157.5,113.3c-29,21.2-52.1,48.4-69,80.3c-54.1,102.4-107.6,205.1-161.4,307.8
	c-0.3,0.7-0.4,1.5-0.9,3.2c2.1,1.8,4.6,4,7.1,6.1c20.7,17.1,28.4,44.4,19.8,70.4c-8.3,24.9-31.1,42.2-57.3,43.5
	c-2.3,0.1-4.6,0.5-6.7-0.1c-20-5.5-30.5,3.5-38.3,22.2c-8.4,20.1-20,38.8-29.7,57.2c8,9.5,16.9,17.2,22.2,26.8
	c22.8,41.6-5.2,92-52.1,95.1c-1.9,0.1-3.9,0.5-5.6,0c-22-6.1-33.1,4.5-41.3,24.6c-7.9,19.4-19.3,37.3-27.4,52.5
	c9.9,14.9,20.8,26.3,25.8,39.9c14.9,41-16.7,86.2-60.4,83.3c-25.2-1.7-36.1,7.5-44.9,28.9C1343.9,1607.4,1333,1624.3,1323.5,1642z
	 M1606.3,605.6c-72.5,138-144.7,275.5-217.1,413.4c4.6,0.3,9.5,0.8,14.3,1c62.4,3.3,124.7,6.3,187,10.1c10.5,0.6,15.9-2.2,20.9-11.9
	c47.8-92.3,96.2-184.2,144.2-276.3c7.7-14.8,14.5-30.1,21.7-45.1C1720,666.3,1662,635.4,1606.3,605.6z M1615.5,567.3
	c62.8,33.7,124,66.6,183.4,98.5c21.8-18.9,42.6-38.4,64.9-56.1c22.1-17.5,45.7-33.1,67.7-48.9c-101.2-54.1-201.5-107.8-302-161.6
	C1626.3,455.1,1632.7,512.6,1615.5,567.3z M1117.9,1961.7c-2.5-0.9-3.5-1.5-4.5-1.5c-68.7-3.7-137.4-7.5-206.1-10.7
	c-3.3-0.2-9.1,4.2-10,7.4c-3.7,13.2-7.3,26.7-8.4,40.3c-5.4,67.6-9.9,135.3-14.8,202.9c-0.3,3.9-0.2,7.9-0.4,13.6
	c4.4-3.3,7.1-5.2,9.7-7.3c48.4-38.8,95.4-79.7,145.7-115.8C1074.9,2057.9,1091.3,2007.1,1117.9,1961.7z M1637.4,284.1
	c-2.6,6.3-6,11.1-6.3,16c-1,16-1.3,32.2-0.8,48.2c0.1,4.2,3.6,10,7.1,12c107,57.6,214.2,114.9,321.6,171.8
	c3.5,1.9,10.3,1.2,13.8-1.1c12.8-8.1,25-17.3,37.3-26.3c12.3-9,11.7-17.6-1.8-25.1c-14.9-8.1-29.9-16-44.8-24
	c-103.6-55.3-207.1-110.7-310.7-165.9C1648.8,287.6,1644.1,286.5,1637.4,284.1z M1319.3,1691c-3.3-13-13.4-20.3-29.8-21.2
	c-58.5-3.1-117.1-6.2-175.6-9.2c-35.7-1.9-71.3-3.9-107-5.6c-18.3-0.9-31.1,9.5-32.7,26c-1.6,16.9,10,29.6,28.9,30.7
	c58.9,3.3,117.8,6.3,176.7,9.5c36,1.9,72,4,108.1,5.6C1309.6,1727.7,1324.2,1710.6,1319.3,1691z M891.4,1856.5
	c-15.2,4.8-23.4,17.4-22.2,30.9c1.4,15.2,12,24.8,29.2,25.7c94.2,5,188.4,10,282.6,14.9c19.7,1,33-9.7,33.9-27
	c0.9-16.8-10.9-28.8-30-29.8c-93.8-5-187.6-9.9-281.5-14.8C898.7,1856.1,893.8,1856.5,891.4,1856.5z M1529.6,1288.1
	c-3.6-12.5-13.1-19.7-27.9-20.5c-93.1-5-186.1-9.8-279.2-14.8c-22.6-1.2-36.7,8.5-37.8,26.4c-1.1,18.1,11.3,29.3,34.1,30.5
	c1.1,0.1,2.2,0.1,3.4,0.2c49.1,2.6,98.3,5.1,147.4,7.7c43.2,2.3,86.3,4.7,129.5,6.7C1520.3,1325.3,1535.1,1307.4,1529.6,1288.1z
	 M1614.8,1122.6c12.3-4.7,19.1-12.3,20.8-24.1c2.6-17.8-9.4-31.1-29.4-32.2c-94.2-5.1-188.4-10.1-282.6-15
	c-18.9-1-32.2,9.6-33.6,26.3c-1.4,17,10.8,29.6,30.3,30.7c94.2,5,188.4,9.9,282.6,14.7C1607.3,1123.3,1611.8,1122.7,1614.8,1122.6z
	 M1101.5,1454.2c-15,5.1-22.9,17-22.1,30.2c0.9,15.1,12.4,25.3,30.1,26.3c66.1,3.6,132.3,7,198.4,10.5c29.3,1.5,58.6,3.4,87.9,4.4
	c16.4,0.5,28.9-11.6,29.5-27.1c0.6-15.8-10.4-28-26.8-29.6c-2.2-0.2-4.5-0.3-6.8-0.4c-92.4-4.9-184.9-9.8-277.3-14.6
	C1109.3,1453.6,1104.1,1454.1,1101.5,1454.2z M1282.1,1218.4c1.6,1.3,1.9,1.7,2.2,1.7c69.8,3.8,139.5,7.7,209.3,11.3
	c2.7,0.1,6.8-2,8.1-4.3c12.8-23,25-46.3,38.5-71.4c-10.7-0.7-18.9-1.3-27-1.7c-60.4-3.2-120.8-6.5-181.2-9.4
	c-4.4-0.2-11.3,1.6-13.1,4.7C1306,1171.9,1294.3,1195.1,1282.1,1218.4z M1329.4,1558.4c-5.7-0.6-8.9-1-12.2-1.2
	c-56.7-3-113.4-6-170.1-8.9c-12-0.6-26.3-5.1-35.3,0c-9,5.1-12.7,20.1-18.4,30.8c-7.5,14.1-14.7,28.2-22.7,43.7
	c72.2,3.8,142.4,7.5,212.6,10.9c2.5,0.1,6.3-1.4,7.4-3.4C1303.6,1606.9,1316.1,1583.4,1329.4,1558.4z M965.5,1824
	c72.4,3.8,142.2,7.6,212.1,10.8c3.2,0.2,8-3.7,9.8-6.9c8.7-15.3,16.6-31.1,24.7-46.8c3.6-6.9,6.8-13.9,10.9-22.2
	c-71.9-3.8-141.7-7.5-211.6-10.9c-2.7-0.1-6.9,1.8-8.1,4C990.8,1775.2,978.8,1798.6,965.5,1824z M1435.3,1356.6
	c-73.4-3.9-143.1-7.6-212.9-11.1c-2.8-0.1-7.2,1.5-8.5,3.7c-12.9,23.3-25.4,46.8-38.1,70.5c2.7,1.2,3.3,1.7,4,1.8
	c69.4,3.7,138.9,7.5,208.3,11c2.7,0.1,7-1.8,8.2-4C1409.2,1405.4,1421.6,1382.1,1435.3,1356.6z"/>
</svg>
