<?xml version="1.0" encoding="utf-8"?>
<!-- Generator: Adobe Illustrator 26.5.0, SVG Export Plug-In . SVG Version: 6.00 Build 0)  -->
<svg version="1.1" xmlns="http://www.w3.org/2000/svg" xmlns:xlink="http://www.w3.org/1999/xlink" x="0px" y="0px"
	 viewBox="0 0 3963 2608" style="enable-background:new 0 0 3963 2608;" xml:space="preserve">
<style type="text/css">
	.st0{fill:#E6E6E6;stroke:#000000;stroke-width:23.753;stroke-miterlimit:10;}
	.st1{stroke:#000000;stroke-width:8.2038;stroke-miterlimit:10;}
	.st2{fill:#F7F7F7;stroke:#000000;stroke-width:15.5912;stroke-miterlimit:10;}
	.st3{stroke:#000000;stroke-width:9.5954;stroke-miterlimit:10;}
	.st4{fill:#F7F7F7;stroke:#000000;stroke-width:17.6277;stroke-miterlimit:10;}
	.st5{stroke:#000000;stroke-width:9.3761;stroke-miterlimit:10;}
	.st6{fill:#E6E6E6;stroke:#000000;stroke-width:17.0137;stroke-miterlimit:10;}
	.st7{fill:#FFFFFF;}
	.st8{fill:none;stroke:#000000;stroke-width:21.3789;stroke-miterlimit:10;}
	.st9{fill:none;stroke:#000000;stroke-width:15.2706;stroke-miterlimit:10;}
	.st10{fill:none;stroke:#000000;stroke-width:18.3248;stroke-miterlimit:10;}
	.st11{fill:none;stroke:#000000;stroke-width:20;stroke-miterlimit:10;}
</style>
<g id="CIRCULOS-SELECCION4">
</g>
<g id="CLOSET">
	<g id="LATERAL-DERECHA">
	</g>
	<g id="BASE">
	</g>
	<g id="DIVISIONES-VERTICALES">
		<g id="DIVISION-VERTICAL-DERECHA">
		</g>
		<g id="DIVISION-CENTRAL">
		</g>
		<g id="DIVISION-VERTICAL-IZQUIERDA_00000085229740836627909760000005526871516412138418_">
		</g>
	</g>
	<g id="DIVISIONES-HORIZONTALES">
	</g>
	<g id="LATERAL-IZQUIERDA">
	</g>
	<g id="TECHO">
	</g>
	<g id="SOPORTES-COOK">
	</g>
</g>
<g id="TABLITAS-TRASERAS">
</g>
<g id="TRIPLEX_00000062169277959621118470000012963048032068378272_">
</g>
<g id="PUNTILLAS">
</g>
<g id="SOPORTE-MUEBLE">
	<g id="PUERTAS">
		<g>
			<polyline class="st0" points="3282.7,239.2 3123.7,186.2 1375.9,177.8 1464.1,223.9 			"/>
			<polygon class="st0" points="1470.9,2262.8 3268.7,2263.2 3282.7,239.2 1464.7,223.3 			"/>
			<polygon class="st0" points="1382,2216.1 1474.1,2262.2 1464.1,223.9 1375.9,177.8 			"/>
		</g>
	</g>
	<g>
		<g>
			<polygon class="st1" points="3404.8,292.1 3380.3,233.9 3360,292.1 			"/>
			<polygon class="st1" points="3350.7,2233.7 3373.7,2292.6 3395.4,2234.9 			"/>
			<line class="st2" x1="3381.8" y1="274.1" x2="3372.7" y2="2263.2"/>
		</g>
		<g>
			<polygon class="st3" points="3187.2,2387.9 3255.1,2358.6 3186.7,2335.5 			"/>
			<line class="st4" x1="1408.5" y1="2361.4" x2="3220.7" y2="2360.2"/>
			<polygon class="st5" points="1459,2335.6 1389.3,2359.6 1456.4,2385.4 			"/>
		</g>
	</g>
	<circle cx="1421.7" cy="608.4" r="21.5"/>
	<line class="st2" x1="1424.6" y1="606.4" x2="1179.7" y2="607.2"/>
	<circle cx="191.2" cy="1391.2" r="21.5"/>
	<g>
		<g>
			<path d="M2162.2,2485.7v10.3H2149v26.1h-12.1v-26.1H2095v-9.4l45.9-65.4h8.1v64.4H2162.2z M2136.9,2485.7v-49.1l-34.7,49.1
				H2136.9z"/>
			<path d="M2232.2,2423.3l-5.8,12.4h-29.7l-6.5,13.3c5.9,0.9,11.3,2.4,16.3,4.6c5,2.2,9.2,5,12.8,8.2c3.6,3.3,6.3,7,8.3,11.3
				c2,4.2,3,8.8,3,13.7c0,6-1.3,11.3-3.8,15.9c-2.5,4.6-5.8,8.5-9.6,11.6c-3.9,3.2-8.1,5.6-12.7,7.2c-4.6,1.6-8.9,2.4-13,2.4
				c-3,0-5.6-0.3-7.8-0.8c-2.1-0.5-3.9-1.3-5.2-2.2c-1.3-0.9-2.3-2-3-3.1c-0.7-1.1-1-2.3-1-3.5c0-1.4,0.5-2.6,1.6-3.6
				c1.1-1.1,2.5-1.6,4.2-1.6c0.7,0,1.2,0,1.7,0.1c0.5,0.1,1,0.2,1.6,0.5c0.5,0.3,1.2,0.6,2,1.1c0.8,0.5,1.7,1.1,2.9,1.9
				c1.8,1.3,3.6,2.3,5.5,2.9c1.9,0.6,3.7,0.9,5.6,0.9c2.8,0,5.5-0.6,8.1-1.7c2.6-1.2,4.8-2.7,6.8-4.7c2-2,3.5-4.3,4.7-7
				c1.2-2.7,1.8-5.6,1.8-8.7c0-3-0.5-5.9-1.5-8.7c-1-2.8-2.5-5.5-4.4-8c-1.9-2.5-4.2-4.8-6.8-6.8c-2.6-2-5.6-3.8-9-5.2
				c-2.7-1.2-5.8-2-9.4-2.6c-3.6-0.5-7.7-0.9-12.2-1.1l18.9-38.5H2232.2z"/>
			<path d="M2369.2,2421.1l2.3,33.6h-2.3c-3-10.1-7.3-17.3-12.9-21.8c-5.6-4.4-12.2-6.6-20.1-6.6c-5.1,0-9.8,1-14,2.9
				c-4.3,1.9-8,4.9-11,8.9c-3.1,4-5.5,9-7.2,15c-1.7,6-2.6,13.1-2.6,21.3c0,6.6,0.8,12.6,2.4,18c1.6,5.4,4,10,7.2,13.8
				c3.2,3.8,7,6.7,11.6,8.8s9.8,3.1,15.8,3.1c6.2,0,11.9-1.4,17-4.1c4.9-2.5,10.3-8,16.2-16.3l2.3,1.4c-5,8.8-10.8,15.2-17.4,19.3
				c-6.6,4.1-14.4,6.1-23.6,6.1c-7,0-13.5-1.2-19.4-3.7c-5.9-2.5-10.9-5.9-15.2-10.4c-4.2-4.5-7.6-9.8-10-15.9
				c-2.4-6.1-3.6-12.9-3.6-20.2c0-9.9,2.2-19,6.6-27.2c4.4-8.3,10.4-14.7,18.2-19.2c7.8-4.6,16.3-6.9,25.5-6.9
				c7.2,0,14.2,1.7,21.1,5.2c2,1.1,3.5,1.6,4.4,1.6c1.6,0,2.9-0.7,4-2c1.1-1.3,1.8-2.9,2.2-4.9H2369.2z"/>
			<path d="M2440,2522.2l-38.2-83.1v66.1c0,3.4,0.2,6.1,0.7,8c0.5,1.9,1.2,3.4,2.1,4.3c0.9,0.9,2,1.5,3.3,1.7
				c1.3,0.2,2.8,0.3,4.5,0.3h3.5v2.7h-34.4v-2.7h3.5c1.7,0,3.3-0.1,4.6-0.4c1.3-0.3,2.4-0.9,3.3-1.9c0.9-1,1.5-2.4,2-4.4
				c0.4-1.9,0.7-4.5,0.7-7.8v-64.6c0-2.3-0.1-4.4-0.3-6.1c-0.2-1.8-0.8-3.3-1.7-4.5c-0.9-1.2-2.3-2.2-4.1-2.8c-1.9-0.7-4.4-1-7.8-1
				v-2.7h28l35.9,77.4l35.3-77.4h28v2.7h-3.4c-1.8,0-3.4,0.1-4.7,0.4c-1.3,0.3-2.4,0.9-3.3,1.9s-1.5,2.4-2,4.4
				c-0.4,1.9-0.7,4.5-0.7,7.8v64.6c0,3.4,0.2,6.1,0.7,8c0.5,1.9,1.2,3.4,2.1,4.3c0.9,0.9,2,1.5,3.3,1.7c1.3,0.2,2.8,0.3,4.5,0.3h3.4
				v2.7h-42v-2.7h3.5c1.7,0,3.3-0.1,4.6-0.4c1.3-0.3,2.4-0.9,3.3-1.9c0.9-1,1.6-2.4,2-4.3c0.4-1.9,0.7-4.5,0.7-7.7V2439l-38.1,83.1
				H2440z"/>
		</g>
		<g>
			<path d="M3517.2,1338.7v10.3H3504v26.1h-12.1v-26.1H3450v-9.4l45.9-65.4h8.1v64.4H3517.2z M3491.9,1338.7v-49.1l-34.7,49.1
				H3491.9z"/>
			<path d="M3527.8,1326.3c0-11.4,1.7-21.1,5-29.1c3-7.2,7-12.8,11.8-16.9c4.8-4.1,10-6.1,15.4-6.1c4.4,0,8.4,1.3,12.2,3.8
				c3.8,2.5,7.2,6.1,10.1,10.6c2.9,4.5,5.2,9.9,6.9,16.1c1.7,6.2,2.5,12.8,2.5,20c0,11.5-1.6,21.2-4.9,29.3
				c-1.7,3.9-3.6,7.3-5.8,10.2c-2.2,2.9-4.5,5.3-6.9,7.1c-2.4,1.9-4.9,3.2-7.5,4.1c-2.6,0.9-5.1,1.4-7.5,1.4
				c-4.3,0-8.3-1.3-12.1-3.8c-3.8-2.5-7.1-6.1-10-10.6c-2.9-4.5-5.1-9.9-6.8-16.1C3528.6,1340.3,3527.8,1333.6,3527.8,1326.3z
				 M3542,1328.2c0,6,0.3,11.7,1,17.1c0.7,5.4,1.7,10.1,3.2,14.1s3.2,7.2,5.4,9.5c2.2,2.3,4.8,3.5,7.8,3.5c2.8,0,5.3-1,7.6-2.9
				c2.2-1.9,4.1-4.9,5.6-9c1.5-4.1,2.7-9.4,3.5-15.8c0.8-6.4,1.3-14.1,1.3-23c0-6.4-0.4-12.2-1.1-17.5c-0.7-5.3-1.8-9.7-3.3-13.4
				c-1.5-3.7-3.3-6.6-5.5-8.6c-2.2-2-4.7-3-7.6-3c-3.3,0-6,1.3-8.3,3.9c-2.2,2.6-4.1,6.2-5.5,10.7c-1.4,4.5-2.4,9.7-3.1,15.7
				C3542.4,1315.3,3542,1321.6,3542,1328.2z"/>
			<path d="M3724.2,1274.1l2.3,33.6h-2.3c-3-10.1-7.3-17.3-12.9-21.8c-5.6-4.4-12.2-6.6-20.1-6.6c-5.1,0-9.8,1-14,2.9
				c-4.3,1.9-8,4.9-11,8.9c-3.1,4-5.5,9-7.2,15c-1.7,6-2.6,13.1-2.6,21.3c0,6.6,0.8,12.6,2.4,18c1.6,5.4,4,10,7.2,13.8
				c3.2,3.8,7,6.7,11.6,8.8s9.8,3.1,15.8,3.1c6.2,0,11.9-1.4,17-4.1c4.9-2.5,10.3-8,16.2-16.3l2.3,1.4c-5,8.8-10.8,15.2-17.4,19.3
				c-6.6,4.1-14.4,6.1-23.6,6.1c-7,0-13.5-1.2-19.4-3.7c-5.9-2.5-10.9-5.9-15.2-10.4c-4.2-4.5-7.6-9.8-10-15.9
				c-2.4-6.1-3.6-12.9-3.6-20.2c0-9.9,2.2-19,6.6-27.2c4.4-8.3,10.4-14.7,18.2-19.2c7.8-4.6,16.3-6.9,25.5-6.9
				c7.2,0,14.2,1.7,21.1,5.2c2,1.1,3.5,1.6,4.4,1.6c1.6,0,2.9-0.7,4-2c1.1-1.3,1.8-2.9,2.2-4.9H3724.2z"/>
			<path d="M3795,1375.2l-38.2-83.1v66.1c0,3.4,0.2,6.1,0.7,8c0.5,1.9,1.2,3.4,2.1,4.3c0.9,0.9,2,1.5,3.3,1.7s2.8,0.3,4.5,0.3h3.5
				v2.7h-34.4v-2.7h3.5c1.7,0,3.3-0.1,4.6-0.4c1.3-0.3,2.4-0.9,3.3-1.9c0.9-1,1.5-2.4,2-4.4c0.4-1.9,0.7-4.5,0.7-7.8v-64.6
				c0-2.3-0.1-4.4-0.3-6.1c-0.2-1.8-0.8-3.3-1.7-4.5c-0.9-1.2-2.3-2.2-4.1-2.8c-1.9-0.7-4.4-1-7.8-1v-2.7h28l35.9,77.4l35.3-77.4h28
				v2.7h-3.4c-1.8,0-3.4,0.1-4.7,0.4c-1.3,0.3-2.4,0.9-3.3,1.9c-0.9,1-1.5,2.4-2,4.4c-0.4,1.9-0.7,4.5-0.7,7.8v64.6
				c0,3.4,0.2,6.1,0.7,8c0.5,1.9,1.2,3.4,2.1,4.3c0.9,0.9,2,1.5,3.3,1.7c1.3,0.2,2.8,0.3,4.5,0.3h3.4v2.7h-42v-2.7h3.5
				c1.7,0,3.3-0.1,4.6-0.4c1.3-0.3,2.4-0.9,3.3-1.9c0.9-1,1.6-2.4,2-4.3c0.4-1.9,0.7-4.5,0.7-7.7V1292l-38.1,83.1H3795z"/>
		</g>
	</g>
	<g>
		<g>
			<path d="M356.7,1335.2v24.8H355c-0.8-6.6-2.8-11.3-5.8-14.1c-3-2.7-7.5-4.1-13.5-4.1h-14.8v80.4c0,3.5,0.2,6.3,0.8,8.4
				c0.5,2,1.2,3.6,2.1,4.6c0.9,1,2.1,1.6,3.5,1.9c1.4,0.3,3,0.4,4.9,0.4h3.6v2.9h-44.5v-2.9h3.7c1.9,0,3.5-0.2,4.9-0.5
				c1.4-0.3,2.5-1,3.5-2c0.9-1,1.6-2.6,2.1-4.6c0.5-2,0.8-4.7,0.8-8.2v-80.4h-12.6c-3.2,0-6,0.3-8.4,0.8c-2.4,0.5-4.5,1.4-6.3,2.8
				c-1.8,1.3-3.2,3.2-4.2,5.6c-1,2.4-1.7,5.4-1.9,9.1h-2.9v-24.8H356.7z"/>
			<path d="M394.4,1384.1h48.8V1354c0-2.5,0-4.5-0.1-6.1c-0.1-1.6-0.3-2.9-0.6-3.9c-0.3-1-0.8-1.8-1.3-2.4c-0.6-0.6-1.3-1.1-2.3-1.7
				c-2.2-1.2-4.5-1.9-7.1-1.9h-3.7v-2.9h45v2.9h-3.7c-1,0-2.1,0.1-3.2,0.3c-1.1,0.2-2.2,0.6-3.1,1c-1,0.5-1.8,1-2.6,1.7
				c-0.8,0.7-1.3,1.5-1.6,2.4c-0.5,1.6-0.8,5.1-0.8,10.3v67.8c0,2.5,0.1,4.5,0.2,6c0.1,1.5,0.3,2.8,0.6,3.8c0.3,1,0.7,1.8,1.2,2.4
				c0.5,0.6,1.3,1.1,2.2,1.7c2.2,1.2,4.5,1.9,7.2,1.9h3.7v2.9h-45v-2.9h3.7c1.8,0,3.4-0.1,4.7-0.4c1.4-0.3,2.6-0.9,3.6-2
				c1-1,1.8-2.6,2.3-4.7c0.5-2.1,0.8-5,0.8-8.6v-32h-48.8v32c0,2.5,0,4.5,0.1,6c0.1,1.5,0.3,2.8,0.6,3.8c0.3,1,0.8,1.8,1.3,2.4
				c0.6,0.6,1.3,1.1,2.3,1.7c2.2,1.2,4.5,1.9,7.1,1.9h3.8v2.9h-45.1v-2.9h3.8c4.2,0,7.4-1.3,9.4-3.8c1.2-1.5,1.9-5.5,1.9-11.9V1354
				c0-2.5,0-4.6-0.1-6.2c-0.1-1.6-0.3-2.9-0.6-3.8c-0.3-1-0.7-1.7-1.3-2.3c-0.5-0.6-1.3-1.1-2.2-1.7c-2.2-1.2-4.5-1.9-7.1-1.9h-3.8
				v-2.9h45.1v2.9h-3.8c-0.9,0-1.9,0.1-3.1,0.3c-1.1,0.2-2.2,0.6-3.1,1c-1,0.5-1.8,1-2.6,1.7c-0.8,0.7-1.3,1.5-1.6,2.4
				c-0.6,1.9-0.9,5.3-0.9,10.3V1384.1z"/>
			<path d="M525.4,1437.5v2.9h-45v-2.9h3.7c1.9,0,3.5-0.1,4.9-0.4c1.4-0.3,2.6-0.9,3.5-2c0.9-1,1.6-2.6,2.1-4.7
				c0.5-2.1,0.8-5,0.8-8.6v-67.9c0-2.4-0.1-4.4-0.2-6c-0.1-1.6-0.3-2.9-0.6-3.9c-0.3-1-0.7-1.8-1.2-2.4c-0.5-0.6-1.3-1.1-2.2-1.7
				c-2.3-1.2-4.7-1.9-7.2-1.9h-3.7v-2.9h45v2.9h-3.7c-1.8,0-3.5,0.2-4.9,0.5c-1.4,0.3-2.6,1-3.5,2c-0.9,1-1.6,2.6-2.1,4.7
				c-0.5,2.1-0.8,5-0.8,8.5v67.9c0,2.5,0,4.5,0.1,6c0.1,1.5,0.3,2.8,0.6,3.8c0.3,1,0.8,1.8,1.3,2.4c0.6,0.6,1.3,1.1,2.3,1.7
				c2.2,1.2,4.5,1.9,7.1,1.9H525.4z"/>
			<path d="M624.8,1332.9l2.4,35.7h-2.4c-3.2-10.7-7.8-18.4-13.7-23.1c-5.9-4.7-13-7.1-21.3-7.1c-5.4,0-10.4,1-14.9,3.1
				c-4.6,2-8.5,5.2-11.7,9.4c-3.3,4.2-5.8,9.6-7.7,16c-1.8,6.4-2.8,14-2.8,22.7c0,7,0.9,13.4,2.6,19.1c1.7,5.7,4.3,10.6,7.6,14.6
				s7.5,7.2,12.3,9.4s10.4,3.3,16.8,3.3c6.6,0,12.6-1.5,18-4.4c5.2-2.7,10.9-8.5,17.2-17.3l2.4,1.5c-5.3,9.3-11.5,16.2-18.4,20.5
				c-7,4.4-15.3,6.5-25,6.5c-7.5,0-14.3-1.3-20.6-3.9c-6.2-2.6-11.6-6.3-16.1-11s-8-10.4-10.6-16.9c-2.5-6.5-3.8-13.7-3.8-21.5
				c0-10.6,2.4-20.2,7.1-28.9c4.6-8.8,11.1-15.6,19.3-20.4c8.3-4.9,17.3-7.3,27.1-7.3c7.6,0,15.1,1.9,22.4,5.6
				c2.2,1.2,3.7,1.7,4.6,1.7c1.7,0,3.1-0.7,4.2-2.1c1.1-1.4,1.9-3.1,2.4-5.2H624.8z"/>
			<path d="M682.6,1382.1l38.7,38.5c3.2,3.2,6.2,5.9,8.8,8c2.6,2.1,5.1,3.8,7.4,5.1c2.3,1.3,4.6,2.2,6.8,2.8s4.5,0.9,6.8,1v2.9h-50
				v-2.9c3.3,0,5.6-0.6,6.7-1.7c1.2-1.2,1.7-2.4,1.7-3.7c0-0.5,0-1-0.1-1.4c-0.1-0.4-0.3-0.9-0.6-1.4c-0.3-0.5-0.9-1.2-1.7-2.1
				c-0.8-0.8-1.8-1.9-3.1-3.2l-36.3-36v33.9c0,2.5,0.1,4.5,0.2,6c0.1,1.5,0.3,2.8,0.6,3.8c0.3,1,0.7,1.8,1.3,2.4
				c0.6,0.6,1.3,1.1,2.3,1.7c2.2,1.2,4.6,1.9,7.1,1.9h3.6v2.9h-44.8v-2.9h3.7c4.3,0,7.5-1.3,9.5-3.8c1.2-1.7,1.9-5.7,1.9-11.9v-67.9
				c0-2.3,0-4.3-0.1-5.8c-0.1-1.6-0.3-2.9-0.6-3.9c-0.3-1-0.7-1.8-1.3-2.5c-0.5-0.7-1.3-1.2-2.2-1.7c-2.5-1.2-4.9-1.9-7.2-1.9h-3.7
				v-2.9h44.8v2.9H679c-1.9,0-4,0.4-6.1,1.3c-2.1,0.8-3.6,2.3-4.3,4.3c-0.6,1.7-0.9,5.1-0.9,10.2v32.2c0.1-0.1,0.6-0.6,1.6-1.4
				c1-0.9,2-1.9,3.2-2.9c1.2-1.1,2.4-2.2,3.5-3.2c1.1-1.1,1.9-1.8,2.4-2.2c5.6-5.2,10.4-9.6,14.2-13.3c3.9-3.7,6.9-6.8,9.3-9.4
				c2.3-2.6,4-4.7,5-6.5c1-1.7,1.5-3.2,1.5-4.3c0-1.2-0.5-2.3-1.6-3.2c-1.1-0.9-2.9-1.3-5.6-1.3h-2.4v-2.9h38.6v2.9
				c-1.4,0.1-2.8,0.2-4.2,0.4c-1.4,0.2-3,0.7-4.7,1.4c-1.7,0.8-3.7,2-6,3.6c-2.2,1.6-4.9,3.9-8,6.7c-0.6,0.5-2.2,2.1-4.7,4.8
				c-2.5,2.7-6.2,6.3-11,11L682.6,1382.1z"/>
			<path d="M747.7,1335.2h28.5l64.3,78.9v-60.6c0-3.5-0.3-6.4-0.8-8.4c-0.5-2.1-1.2-3.6-2.2-4.6c-1-1-2.1-1.6-3.5-1.9
				c-1.4-0.3-3-0.4-4.7-0.4h-3.7v-2.9h36.7v2.9h-3.8c-1.9,0-3.5,0.2-4.9,0.5c-1.4,0.3-2.5,1-3.5,2.1c-0.9,1.1-1.6,2.6-2.1,4.6
				c-0.5,2-0.7,4.7-0.7,8.2v88.6h-2.8l-69.3-84.7v64.8c0,3.6,0.2,6.5,0.8,8.5c0.5,2,1.2,3.6,2.1,4.6c0.9,1,2.1,1.6,3.5,1.9
				c1.4,0.2,3,0.3,4.7,0.3h3.7v2.9h-36.6v-2.9h3.7c1.9,0,3.5-0.2,4.9-0.5c1.4-0.3,2.6-1,3.5-2c1-1,1.7-2.6,2.1-4.6
				c0.5-2,0.7-4.7,0.7-8.2v-73.1c-1.5-1.9-2.8-3.3-3.9-4.4c-1-1.1-2-2-2.9-2.7c-0.9-0.7-1.9-1.3-3-1.7c-1.1-0.5-2.4-1-4-1.5
				c-1.5-0.5-3.8-0.7-6.8-0.7V1335.2z"/>
			<path d="M897.6,1341v41.5h23c3.4,0,6.1-0.3,8.2-0.9c2.1-0.6,3.7-1.5,4.9-2.8c1.2-1.2,2-2.8,2.5-4.7c0.5-1.9,0.8-4.2,0.9-6.8h2.9
				v36.6h-2.9c-0.4-3-0.8-5.5-1.3-7.5c-0.5-2-1.3-3.6-2.4-4.8c-1.1-1.2-2.7-2-4.7-2.5c-2-0.5-4.7-0.8-8.1-0.8h-23v34.7
				c0,2.6,0,4.7,0.1,6.2c0.1,1.5,0.4,2.7,0.9,3.5c0.5,0.8,1.4,1.3,2.5,1.6c1.2,0.2,2.9,0.3,5.1,0.3h17.8c3,0,5.6-0.1,7.6-0.2
				c2.1-0.2,3.9-0.5,5.4-0.9s2.8-1.1,4-1.9c1.2-0.8,2.4-1.8,3.7-3.1c3.1-3,6.4-7.8,9.8-14.5h3.1l-9.1,26.4h-81v-2.9h3.7
				c1,0,2-0.1,3.1-0.3c1.1-0.2,2.1-0.6,3.1-1c1-0.4,1.8-1,2.6-1.7c0.8-0.7,1.3-1.5,1.6-2.4c0.6-1.7,0.9-5.1,0.9-10.2v-68.2
				c0-6.7-0.7-10.8-2-12.4c-1.9-2.1-5-3.1-9.4-3.1h-3.7v-2.9h81v23h-1.9c-0.8-3.8-1.6-6.8-2.5-9.1c-0.9-2.3-2.1-4-3.5-5.3
				c-1.5-1.2-3.3-2-5.6-2.4c-2.3-0.3-5.2-0.5-8.7-0.5H897.6z"/>
			<path d="M1034.1,1332.9v36.3h-2.9c-1.3-9.8-4.5-17.3-9.6-22.4c-5.1-5.2-11.6-7.8-19.4-7.8c-2.7,0-5.2,0.5-7.4,1.4
				c-2.2,0.9-4.2,2.1-5.9,3.6c-1.7,1.5-3,3.2-3.9,5.1c-0.9,1.9-1.4,3.9-1.4,6c0,1.9,0.4,3.8,1.2,5.5c0.8,1.7,3.2,4.5,7.2,8.2
				c6.7,4.2,12.7,7.7,17.9,10.5c4.9,2.7,11.6,6.8,20,12.3c3.6,2.8,6.4,6.1,8.3,9.9c1.9,3.8,2.9,7.8,2.9,12c0,3.9-0.8,7.7-2.4,11.2
				c-1.6,3.5-3.9,6.7-6.8,9.3c-2.9,2.7-6.4,4.8-10.5,6.4c-4.1,1.6-8.6,2.4-13.4,2.4c-3.1,0-5.9-0.2-8.6-0.7c-0.5-0.1-1.7-0.4-3.6-1
				c-2-0.6-4.1-1.2-6.3-1.8c-2.2-0.6-4.3-1.2-6.2-1.7c-1.9-0.5-3-0.8-3.4-0.8c-1.3,0-2.3,0.4-3.1,1.2c-0.7,0.8-1.3,2.4-1.7,4.9h-2.9
				v-36.1h2.9c1.4,7.4,3.2,13.1,5.4,17c1.1,1.9,2.5,3.6,4.3,5.1c1.8,1.6,3.9,3,6.1,4.2c2.3,1.2,4.7,2.1,7.3,2.8c2.6,0.7,5.3,1,8,1
				c3.2,0,6.1-0.5,8.7-1.4c2.6-0.9,4.8-2.2,6.6-3.8c1.8-1.6,3.2-3.4,4.2-5.5c1-2.1,1.4-4.3,1.4-6.6c0-2.6-0.7-5.2-2.1-7.9
				c-1.4-2.6-3.8-5.2-7.2-7.8c-3.3-2-7.2-4.4-11.8-7.1c-8.7-5-16.5-9.8-23.2-14.5c-3.8-3-6.6-6.3-8.6-9.9c-2-3.6-2.9-7.6-2.9-12
				c0-3.7,0.8-7.2,2.3-10.6c1.5-3.4,3.7-6.3,6.4-8.8c2.7-2.5,6-4.5,9.8-6c3.8-1.5,7.9-2.2,12.3-2.2c5.6,0,11.5,1.4,17.7,4
				c1.5,0.6,2.7,1.1,3.7,1.5c1,0.4,1.8,0.5,2.4,0.5c1.4,0,2.5-0.4,3.4-1.2c0.8-0.8,1.5-2.4,2-4.9H1034.1z"/>
			<path d="M1122.3,1332.9v36.3h-2.9c-1.3-9.8-4.5-17.3-9.6-22.4c-5.1-5.2-11.6-7.8-19.4-7.8c-2.7,0-5.2,0.5-7.4,1.4
				c-2.2,0.9-4.2,2.1-5.9,3.6c-1.7,1.5-3,3.2-3.9,5.1c-0.9,1.9-1.4,3.9-1.4,6c0,1.9,0.4,3.8,1.2,5.5c0.8,1.7,3.2,4.5,7.2,8.2
				c6.7,4.2,12.7,7.7,17.9,10.5c4.9,2.7,11.6,6.8,20,12.3c3.6,2.8,6.4,6.1,8.3,9.9c1.9,3.8,2.9,7.8,2.9,12c0,3.9-0.8,7.7-2.4,11.2
				c-1.6,3.5-3.9,6.7-6.8,9.3c-2.9,2.7-6.4,4.8-10.5,6.4c-4.1,1.6-8.6,2.4-13.4,2.4c-3.1,0-5.9-0.2-8.6-0.7c-0.5-0.1-1.7-0.4-3.6-1
				c-2-0.6-4.1-1.2-6.3-1.8c-2.2-0.6-4.3-1.2-6.2-1.7c-1.9-0.5-3-0.8-3.4-0.8c-1.3,0-2.3,0.4-3.1,1.2c-0.7,0.8-1.3,2.4-1.7,4.9h-2.9
				v-36.1h2.9c1.4,7.4,3.2,13.1,5.4,17c1.1,1.9,2.5,3.6,4.3,5.1c1.8,1.6,3.9,3,6.1,4.2c2.3,1.2,4.7,2.1,7.3,2.8c2.6,0.7,5.3,1,8,1
				c3.2,0,6.1-0.5,8.7-1.4c2.6-0.9,4.8-2.2,6.6-3.8c1.8-1.6,3.2-3.4,4.2-5.5c1-2.1,1.4-4.3,1.4-6.6c0-2.6-0.7-5.2-2.1-7.9
				c-1.4-2.6-3.8-5.2-7.2-7.8c-3.3-2-7.2-4.4-11.8-7.1c-8.7-5-16.5-9.8-23.2-14.5c-3.8-3-6.7-6.3-8.6-9.9c-2-3.6-2.9-7.6-2.9-12
				c0-3.7,0.8-7.2,2.3-10.6c1.5-3.4,3.7-6.3,6.4-8.8c2.7-2.5,6-4.5,9.8-6c3.8-1.5,7.9-2.2,12.3-2.2c5.6,0,11.5,1.4,17.7,4
				c1.5,0.6,2.7,1.1,3.7,1.5c1,0.4,1.8,0.5,2.4,0.5c1.4,0,2.5-0.4,3.4-1.2c0.8-0.8,1.5-2.4,2-4.9H1122.3z"/>
		</g>
		<g>
			<path d="M322.9,1494.8c6.7,0,13.1,1.4,19.2,4.2c6.1,2.8,11.5,6.6,16.1,11.5s8.3,10.6,11,17.2c2.7,6.6,4.1,13.7,4.1,21.5
				c0,7.9-1.4,15.3-4.1,22.1c-2.7,6.8-6.4,12.7-11.1,17.6c-4.7,5-10.1,8.9-16.4,11.7c-6.3,2.8-13,4.2-20.1,4.2
				c-7.2,0-13.9-1.4-20.1-4c-6.2-2.7-11.7-6.5-16.3-11.4c-4.6-4.9-8.2-10.7-10.9-17.5c-2.7-6.8-4-14.3-4-22.4c0-7.6,1.3-14.7,4-21.3
				c2.7-6.6,6.3-12.4,11-17.3c4.7-4.9,10.2-8.8,16.6-11.6C308.4,1496.2,315.3,1494.8,322.9,1494.8z M321.4,1500.4
				c-5.3,0-10,1.1-14.2,3.4c-4.1,2.3-7.6,5.5-10.4,9.7c-2.8,4.2-5,9.3-6.4,15.3c-1.5,6-2.2,12.7-2.2,20.2c0,7.4,0.7,14.2,2.1,20.3
				c1.4,6.1,3.5,11.4,6.4,15.8c2.8,4.4,6.3,7.9,10.5,10.3c4.2,2.4,8.9,3.6,14.3,3.6c4.9,0,9.3-0.9,13.5-2.8
				c4.1-1.9,7.7-4.7,10.8-8.6c3.1-3.9,5.5-8.9,7.2-14.9c1.7-6.1,2.6-13.3,2.6-21.7c0-7.9-0.7-15.1-2.1-21.3
				c-1.4-6.3-3.6-11.6-6.5-16c-2.9-4.4-6.5-7.7-10.8-9.9C332,1501.6,327,1500.4,321.4,1500.4z"/>
			<path d="M412,1502.9v41.3h19.1c2.2,0,4.1-0.2,5.7-0.6c1.6-0.4,2.9-1.2,4-2.3c1.1-1.1,1.9-2.5,2.5-4.4c0.6-1.9,1.1-4.2,1.5-7.1
				h2.9v35.5h-2.9c-0.1-2.6-0.3-4.9-0.8-6.7c-0.5-1.9-1.2-3.4-2.3-4.6c-1-1.2-2.4-2.1-4.2-2.6c-1.7-0.5-3.9-0.8-6.5-0.8H412v33
				c0,2.5,0,4.5,0.1,6c0.1,1.5,0.3,2.8,0.6,3.8c0.3,1,0.8,1.8,1.3,2.4c0.6,0.6,1.3,1.1,2.3,1.7c2.2,1.2,4.5,1.9,7.1,1.9h3.8v2.9H382
				v-2.9h3.7c1.9,0,3.5-0.1,4.9-0.4c1.4-0.3,2.6-0.9,3.5-2c0.9-1,1.6-2.6,2.1-4.7c0.5-2.1,0.8-5,0.8-8.6v-67.9c0-2.4-0.1-4.4-0.2-6
				c-0.1-1.6-0.3-2.9-0.6-3.9c-0.3-1-0.7-1.8-1.2-2.4c-0.5-0.6-1.3-1.2-2.2-1.6c-1.2-0.6-2.3-1.1-3.5-1.4c-1.2-0.3-2.4-0.5-3.7-0.5
				H382v-2.9h78.2v23.1h-1.7c-1-3.8-2.1-6.8-3.4-9.1c-1.3-2.3-2.8-4-4.6-5.3c-1.8-1.2-4-2-6.4-2.4c-2.5-0.4-5.4-0.6-8.9-0.6H412z"/>
			<path d="M523.4,1497.1h56.3v3l-35,104.3H536l31.5-94.6h-28.9c-3.5,0-6.5,0.3-9,0.9c-2.4,0.6-4.5,1.5-6.2,2.6
				c-1.7,1.1-3.2,2.5-4.4,4.1c-1.2,1.6-2.3,3.4-3.4,5.4l-2.2-0.8L523.4,1497.1z"/>
			<path d="M691.3,1602.2l-40.6-88.4v70.2c0,3.6,0.2,6.5,0.8,8.5c0.5,2,1.2,3.6,2.2,4.6c1,1,2.1,1.6,3.5,1.9c1.4,0.2,3,0.3,4.7,0.3
				h3.7v2.9h-36.6v-2.9h3.7c1.9,0,3.5-0.1,4.9-0.4c1.4-0.3,2.5-0.9,3.5-2c0.9-1,1.6-2.6,2.1-4.6c0.5-2,0.7-4.8,0.7-8.3v-68.7
				c0-2.5-0.1-4.6-0.3-6.5c-0.2-1.9-0.8-3.5-1.8-4.8c-1-1.3-2.4-2.3-4.4-3c-2-0.7-4.7-1-8.3-1v-2.9h29.7l38.2,82.2l37.5-82.2h29.7
				v2.9h-3.6c-1.9,0-3.6,0.2-5,0.5c-1.4,0.3-2.5,1-3.5,2c-0.9,1-1.6,2.6-2.1,4.6c-0.5,2-0.7,4.8-0.7,8.3v68.7c0,3.6,0.3,6.5,0.8,8.5
				c0.5,2,1.2,3.6,2.2,4.6c1,1,2.1,1.6,3.5,1.9s3,0.3,4.7,0.3h3.6v2.9h-44.6v-2.9h3.7c1.9,0,3.5-0.2,4.9-0.5c1.4-0.3,2.6-1,3.5-2
				c1-1,1.7-2.6,2.1-4.6c0.5-2,0.7-4.7,0.7-8.2v-70.2l-40.5,88.4H691.3z"/>
			<path d="M832.4,1602.2l-40.6-88.4v70.2c0,3.6,0.2,6.5,0.8,8.5c0.5,2,1.2,3.6,2.2,4.6c1,1,2.1,1.6,3.5,1.9c1.4,0.2,3,0.3,4.7,0.3
				h3.7v2.9h-36.6v-2.9h3.7c1.9,0,3.5-0.1,4.9-0.4c1.4-0.3,2.5-0.9,3.5-2c0.9-1,1.6-2.6,2.1-4.6c0.5-2,0.7-4.8,0.7-8.3v-68.7
				c0-2.5-0.1-4.6-0.3-6.5c-0.2-1.9-0.8-3.5-1.8-4.8c-1-1.3-2.4-2.3-4.4-3c-2-0.7-4.7-1-8.3-1v-2.9h29.7l38.2,82.2l37.5-82.2h29.7
				v2.9h-3.6c-1.9,0-3.6,0.2-5,0.5c-1.4,0.3-2.5,1-3.5,2c-0.9,1-1.6,2.6-2.1,4.6c-0.5,2-0.7,4.8-0.7,8.3v68.7c0,3.6,0.3,6.5,0.8,8.5
				c0.5,2,1.2,3.6,2.2,4.6c1,1,2.1,1.6,3.5,1.9c1.4,0.2,3,0.3,4.7,0.3h3.6v2.9h-44.6v-2.9h3.7c1.9,0,3.5-0.2,4.9-0.5
				c1.4-0.3,2.6-1,3.5-2c1-1,1.7-2.6,2.1-4.6c0.5-2,0.7-4.7,0.7-8.2v-70.2l-40.5,88.4H832.4z"/>
		</g>
		<g>
			<path d="M418.7,1666.3v2.9c-2.1,0-3.8,0.2-5.1,0.6c-1.3,0.4-2.6,1.3-3.8,2.6c-1.2,1.3-2.3,3.4-3.5,6c-1.2,2.7-2.5,6.2-4,10.7
				l-29.3,84.8h-3.1l-23.9-67.2l-23.7,67.2h-2.9l-31.2-87.3c-1.2-3.2-2.1-5.8-2.8-7.7c-0.7-1.9-1.2-3.1-1.6-3.8
				c-1.1-2-2.5-3.5-4.2-4.5c-1.7-1-4.1-1.4-7.2-1.4v-2.9h38.9v2.9h-1.9c-2.7,0-4.8,0.6-6.2,1.9c-1.5,1.2-2.2,2.7-2.2,4.5
				c0,1.9,1.2,6,3.5,12.5l20.7,59l17.3-50.2l-5.6-15.8c-0.8-1.9-1.7-3.6-2.5-5.1c-0.8-1.5-1.8-2.7-2.9-3.7c-1.1-1-2.4-1.8-3.8-2.3
				c-1.5-0.5-3.2-0.8-5.3-0.8v-2.9h40.8v2.9h-2.8c-2.9,0-5.1,0.6-6.4,1.9c-1.3,1.2-2,2.9-2,5.1c0,2.6,1.2,7.2,3.5,13.8l20.1,57.1
				l20-57.9c1.1-3.2,1.9-5.9,2.5-8.1c0.6-2.2,0.9-3.9,0.9-5.2c0-2.5-1.1-4.2-3.2-5.1c-2.2-1-5-1.4-8.4-1.4v-2.9H418.7z"/>
			<path d="M468.9,1768.6v2.9h-45v-2.9h3.7c1.9,0,3.5-0.1,4.9-0.4c1.4-0.3,2.6-0.9,3.5-2c0.9-1,1.6-2.6,2.1-4.7
				c0.5-2.1,0.8-5,0.8-8.6V1685c0-2.4-0.1-4.4-0.2-6c-0.1-1.6-0.3-2.9-0.6-3.9c-0.3-1-0.7-1.8-1.2-2.4c-0.5-0.6-1.3-1.1-2.2-1.7
				c-2.3-1.2-4.7-1.9-7.2-1.9h-3.7v-2.9h45v2.9h-3.7c-1.8,0-3.5,0.2-4.9,0.5c-1.4,0.3-2.6,1-3.5,2c-0.9,1-1.6,2.6-2.1,4.7
				c-0.5,2.1-0.8,5-0.8,8.5v67.9c0,2.5,0,4.5,0.1,6c0.1,1.5,0.3,2.8,0.6,3.8c0.3,1,0.8,1.8,1.3,2.4c0.6,0.6,1.3,1.1,2.3,1.7
				c2.2,1.2,4.5,1.9,7.1,1.9H468.9z"/>
			<path d="M564.7,1666.3v24.8H563c-0.8-6.6-2.8-11.3-5.8-14.1c-3-2.7-7.5-4.1-13.5-4.1h-14.8v80.4c0,3.5,0.2,6.3,0.8,8.4
				c0.5,2,1.2,3.6,2.1,4.6c0.9,1,2.1,1.6,3.5,1.9c1.4,0.3,3,0.4,4.9,0.4h3.6v2.9h-44.5v-2.9h3.7c1.9,0,3.5-0.2,4.9-0.5
				c1.4-0.3,2.5-1,3.5-2c0.9-1,1.6-2.6,2.1-4.6c0.5-2,0.8-4.7,0.8-8.2v-80.4h-12.6c-3.2,0-6,0.3-8.4,0.8c-2.4,0.5-4.5,1.4-6.3,2.8
				c-1.8,1.3-3.2,3.2-4.2,5.6c-1,2.4-1.7,5.4-1.9,9.1h-2.9v-24.8H564.7z"/>
			<path d="M602.4,1715.1h48.8v-30.1c0-2.5,0-4.5-0.1-6.1c-0.1-1.6-0.3-2.9-0.6-3.9c-0.3-1-0.8-1.8-1.3-2.4
				c-0.6-0.6-1.3-1.1-2.3-1.7c-2.2-1.2-4.5-1.9-7.1-1.9h-3.7v-2.9h45v2.9h-3.7c-1,0-2.1,0.1-3.2,0.3c-1.1,0.2-2.2,0.6-3.1,1
				c-1,0.5-1.8,1-2.6,1.7c-0.8,0.7-1.3,1.5-1.6,2.4c-0.5,1.6-0.8,5.1-0.8,10.3v67.8c0,2.5,0.1,4.5,0.2,6c0.1,1.5,0.3,2.8,0.6,3.8
				c0.3,1,0.7,1.8,1.2,2.4c0.5,0.6,1.3,1.1,2.2,1.7c2.2,1.2,4.5,1.9,7.2,1.9h3.7v2.9h-45v-2.9h3.7c1.8,0,3.4-0.1,4.7-0.4
				c1.4-0.3,2.6-0.9,3.6-2c1-1,1.8-2.6,2.3-4.7c0.5-2.1,0.8-5,0.8-8.6v-32h-48.8v32c0,2.5,0,4.5,0.1,6c0.1,1.5,0.3,2.8,0.6,3.8
				c0.3,1,0.8,1.8,1.3,2.4c0.6,0.6,1.3,1.1,2.3,1.7c2.2,1.2,4.5,1.9,7.1,1.9h3.8v2.9h-45.1v-2.9h3.8c4.2,0,7.4-1.3,9.4-3.8
				c1.2-1.5,1.9-5.5,1.9-11.9v-67.8c0-2.5,0-4.6-0.1-6.2c-0.1-1.6-0.3-2.9-0.6-3.8c-0.3-1-0.7-1.7-1.3-2.3c-0.5-0.6-1.3-1.1-2.2-1.7
				c-2.2-1.2-4.5-1.9-7.1-1.9h-3.8v-2.9h45.1v2.9h-3.8c-0.9,0-1.9,0.1-3.1,0.3c-1.1,0.2-2.2,0.6-3.1,1c-1,0.5-1.8,1-2.6,1.7
				c-0.8,0.7-1.3,1.5-1.6,2.4c-0.6,1.9-0.9,5.3-0.9,10.3V1715.1z"/>
		</g>
		<g>
			<path d="M330.2,1936.6l-40.6-88.4v70.2c0,3.6,0.2,6.5,0.8,8.5c0.5,2,1.2,3.6,2.2,4.6c1,1,2.1,1.6,3.5,1.9c1.4,0.2,3,0.3,4.7,0.3
				h3.7v2.9H268v-2.9h3.7c1.9,0,3.5-0.1,4.9-0.4c1.4-0.3,2.5-0.9,3.5-2c0.9-1,1.6-2.6,2.1-4.6c0.5-2,0.7-4.8,0.7-8.3v-68.7
				c0-2.5-0.1-4.6-0.3-6.5c-0.2-1.9-0.8-3.5-1.8-4.8c-1-1.3-2.4-2.3-4.4-3c-2-0.7-4.7-1-8.3-1v-2.9h29.7l38.2,82.2l37.5-82.2h29.7
				v2.9h-3.6c-1.9,0-3.6,0.2-5,0.5c-1.4,0.3-2.5,1-3.5,2c-0.9,1-1.6,2.6-2.1,4.6c-0.5,2-0.7,4.8-0.7,8.3v68.7c0,3.6,0.3,6.5,0.8,8.5
				c0.5,2,1.2,3.6,2.2,4.6c1,1,2.1,1.6,3.5,1.9c1.4,0.2,3,0.3,4.7,0.3h3.6v2.9h-44.6v-2.9h3.7c1.9,0,3.5-0.2,4.9-0.5
				c1.4-0.3,2.6-1,3.5-2s1.7-2.6,2.1-4.6c0.5-2,0.7-4.7,0.7-8.2v-70.2l-40.5,88.4H330.2z"/>
			<path d="M479.1,1901.5h-40.7l-7.2,16.5c-1.7,4.1-2.5,7.1-2.5,9.1c0,0.8,0.1,1.6,0.4,2.3c0.3,0.7,0.8,1.3,1.7,1.9
				c0.9,0.6,2.1,1.1,3.7,1.5c1.6,0.4,3.7,0.7,6.3,0.9v2.9h-33.1v-2.9c2.6-0.4,4.7-1,6.4-1.7c1.6-0.8,3-1.8,4.2-3.2
				c1.2-1.3,2.2-3.1,3.2-5.3c1-2.2,2.1-4.8,3.5-8l37-86.4h2.7l36.6,87.3c1.5,3.6,2.8,6.5,4.1,8.7c1.3,2.2,2.6,3.9,3.9,5.1
				c1.3,1.2,2.8,2.1,4.4,2.5c1.6,0.5,3.5,0.7,5.7,0.8v2.9h-41.5v-2.9c4.2-0.2,7-0.8,8.5-2c1.5-1.2,2.3-2.6,2.3-4.3
				c-0.1-2.2-1.1-5.9-3.1-10.9L479.1,1901.5z M476.9,1895.7l-17.8-42.4l-18.3,42.4H476.9z"/>
			<path d="M595.3,1831.5v24.8h-1.7c-0.8-6.6-2.8-11.3-5.8-14.1c-3-2.7-7.5-4.1-13.5-4.1h-14.8v80.4c0,3.5,0.2,6.3,0.8,8.4
				c0.5,2,1.2,3.6,2.1,4.6c0.9,1,2.1,1.6,3.5,1.9c1.4,0.3,3,0.4,4.9,0.4h3.6v2.9h-44.5v-2.9h3.7c1.9,0,3.5-0.2,4.9-0.5
				c1.4-0.3,2.5-1,3.5-2c0.9-1,1.6-2.6,2.1-4.6c0.5-2,0.8-4.7,0.8-8.2v-80.4H532c-3.2,0-6,0.3-8.4,0.8c-2.4,0.5-4.5,1.4-6.3,2.8
				c-1.8,1.3-3.2,3.2-4.2,5.6c-1,2.4-1.7,5.4-1.9,9.1h-2.9v-24.8H595.3z"/>
			<path d="M633.6,1837.3v41.5h23c3.4,0,6.1-0.3,8.2-0.9c2.1-0.6,3.7-1.5,4.9-2.8c1.2-1.2,2-2.8,2.5-4.7c0.5-1.9,0.8-4.2,0.9-6.8
				h2.9v36.6h-2.9c-0.4-3-0.8-5.5-1.3-7.5c-0.5-2-1.3-3.6-2.4-4.8c-1.1-1.2-2.7-2-4.7-2.5c-2-0.5-4.7-0.8-8.1-0.8h-23v34.7
				c0,2.6,0,4.7,0.1,6.2c0.1,1.5,0.4,2.7,0.9,3.5c0.5,0.8,1.4,1.3,2.5,1.6c1.2,0.2,2.9,0.3,5.1,0.3h17.8c3,0,5.6-0.1,7.6-0.2
				c2.1-0.2,3.9-0.5,5.4-0.9c1.5-0.5,2.8-1.1,4-1.9c1.2-0.8,2.4-1.8,3.7-3.1c3.1-3,6.4-7.8,9.8-14.5h3.1l-9.1,26.4h-81v-2.9h3.7
				c1,0,2-0.1,3.1-0.3c1.1-0.2,2.1-0.6,3.1-1c1-0.4,1.8-1,2.6-1.7c0.8-0.7,1.3-1.5,1.6-2.4c0.6-1.7,0.9-5.1,0.9-10.2v-68.2
				c0-6.7-0.7-10.8-2-12.4c-1.9-2.1-5-3.1-9.4-3.1h-3.7v-2.9h81v23h-1.9c-0.8-3.8-1.6-6.8-2.5-9.1c-0.9-2.3-2.1-4-3.5-5.3
				c-1.5-1.2-3.3-2-5.6-2.4c-2.3-0.3-5.2-0.5-8.7-0.5H633.6z"/>
			<path d="M804.5,1936.6h-28l-35.6-49.2c-1.3,0.1-2.5,0.1-3.5,0.2c-1,0-2,0.1-2.8,0.1c-0.7,0-1.4,0-2.2-0.1c-0.8,0-1.6-0.1-2.4-0.2
				v30.5c0,3.7,0.3,6.6,0.8,8.7c0.5,2.1,1.2,3.7,2.2,4.7c1,1,2.1,1.7,3.5,1.9c1.3,0.2,2.9,0.3,4.6,0.3h4.2v2.9H700v-2.9h4
				c4.3,0,7.5-1.4,9.5-4.3c1.1-1.7,1.6-5.5,1.6-11.5v-67.9c0-6.5-0.7-10.6-2.2-12.3c-2-2.3-5-3.5-8.9-3.5h-4v-2.9h38.3
				c5.6,0,10.5,0.2,14.6,0.6c4.1,0.4,7.4,1.1,10.1,1.9c2.6,0.8,5.1,2,7.4,3.5c2.3,1.5,4.3,3.3,6.1,5.4c1.7,2.1,3.1,4.5,4.1,7.1
				c1,2.6,1.5,5.4,1.5,8.4c0,6.6-2.1,12.2-6.2,16.9c-4.2,4.7-10.7,8.1-19.5,10.1l21.6,30.1c2.5,3.5,4.8,6.3,6.8,8.6
				c2,2.2,3.9,4,5.9,5.3c2,1.3,4,2.3,6.2,2.9c2.2,0.6,4.8,1.1,7.8,1.4V1936.6z M729.9,1882.6c1,0,1.9,0,2.6,0.1
				c0.7,0,1.3,0.1,1.8,0.1c5,0,9.4-0.6,13.2-1.7c3.8-1.2,6.9-2.8,9.5-4.9c2.5-2.1,4.5-4.5,5.7-7.3c1.3-2.8,1.9-5.9,1.9-9.2
				c0-3.2-0.5-6.2-1.6-9c-1.1-2.7-2.6-5.1-4.6-7.1c-2-2-4.4-3.5-7.2-4.6c-2.8-1.1-5.8-1.6-9.1-1.6c-3.2,0-7.2,0.5-12.1,1.5V1882.6z"
				/>
			<path d="M852.1,1933.7v2.9h-45v-2.9h3.7c1.9,0,3.5-0.1,4.9-0.4c1.4-0.3,2.6-0.9,3.5-2c0.9-1,1.6-2.6,2.1-4.7
				c0.5-2.1,0.8-5,0.8-8.6v-67.9c0-2.4-0.1-4.4-0.2-6c-0.1-1.6-0.3-2.9-0.6-3.9c-0.3-1-0.7-1.8-1.2-2.4c-0.5-0.6-1.3-1.1-2.2-1.7
				c-2.3-1.2-4.7-1.9-7.2-1.9h-3.7v-2.9h45v2.9h-3.7c-1.8,0-3.5,0.2-4.9,0.5c-1.4,0.3-2.6,1-3.5,2c-0.9,1-1.6,2.6-2.1,4.7
				c-0.5,2.1-0.8,5-0.8,8.5v67.9c0,2.5,0,4.5,0.1,6c0.1,1.5,0.3,2.8,0.6,3.8c0.3,1,0.8,1.8,1.3,2.4c0.6,0.6,1.3,1.1,2.3,1.7
				c2.2,1.2,4.5,1.9,7.1,1.9H852.1z"/>
			<path d="M928.7,1901.5h-40.7l-7.2,16.5c-1.7,4.1-2.5,7.1-2.5,9.1c0,0.8,0.1,1.6,0.4,2.3c0.3,0.7,0.8,1.3,1.7,1.9
				c0.9,0.6,2.1,1.1,3.7,1.5c1.6,0.4,3.7,0.7,6.3,0.9v2.9h-33.1v-2.9c2.6-0.4,4.7-1,6.4-1.7c1.6-0.8,3-1.8,4.2-3.2
				c1.2-1.3,2.2-3.1,3.2-5.3c1-2.2,2.1-4.8,3.5-8l37-86.4h2.7l36.6,87.3c1.5,3.6,2.8,6.5,4.1,8.7c1.3,2.2,2.6,3.9,3.9,5.1
				c1.3,1.2,2.8,2.1,4.4,2.5c1.6,0.5,3.5,0.7,5.7,0.8v2.9h-41.5v-2.9c4.2-0.2,7-0.8,8.5-2c1.5-1.2,2.3-2.6,2.3-4.3
				c-0.1-2.2-1.1-5.9-3.1-10.9L928.7,1901.5z M926.5,1895.7l-17.8-42.4l-18.3,42.4H926.5z"/>
			<path d="M1061.7,1907.6l2.5,0.5l-9,28.6h-81.4v-2.9h4c4.3,0,7.5-1.4,9.5-4.3c1.1-1.7,1.6-5.5,1.6-11.5v-67.9
				c0-6.5-0.7-10.6-2.2-12.3c-2-2.3-5-3.5-8.9-3.5h-4v-2.9h47.7v2.9c-2.9,0-5.2,0.1-7.1,0.4c-1.9,0.3-3.5,0.7-4.7,1.2
				c-1.2,0.5-2.2,1.1-2.9,1.8c-0.7,0.7-1.3,1.5-1.7,2.3c-0.8,1.5-1.2,5.5-1.2,11.9v66c0,3.6,0.3,6.2,0.8,7.9
				c0.5,1.6,1.6,2.7,3.2,3.4c1.4,0.5,5.4,0.7,12.1,0.7h7.6c8.1,0,13.8-0.6,17-1.7c1.6-0.5,3.2-1.3,4.6-2.3c1.5-1,2.9-2.3,4.3-3.9
				c1.4-1.6,2.7-3.6,4-5.9C1058.9,1913.7,1060.3,1910.9,1061.7,1907.6z"/>
		</g>
		<g>
			<path d="M356.5,2011.4v24.8h-1.7c-0.8-6.6-2.8-11.3-5.8-14.1c-3-2.7-7.5-4.1-13.5-4.1h-14.8v80.4c0,3.5,0.2,6.3,0.8,8.4
				c0.5,2,1.2,3.6,2.1,4.6c0.9,1,2.1,1.6,3.5,1.9c1.4,0.3,3,0.4,4.9,0.4h3.6v2.9h-44.5v-2.9h3.7c1.9,0,3.5-0.2,4.9-0.5
				c1.4-0.3,2.5-1,3.5-2c0.9-1,1.6-2.6,2.1-4.6c0.5-2,0.8-4.7,0.8-8.2V2018h-12.6c-3.2,0-6,0.3-8.4,0.8c-2.4,0.5-4.5,1.4-6.3,2.8
				c-1.8,1.4-3.2,3.2-4.2,5.6c-1,2.4-1.7,5.4-1.9,9.1h-2.9v-24.8H356.5z"/>
			<path d="M468.8,2116.5h-28l-35.6-49.2c-1.3,0.1-2.5,0.1-3.5,0.2c-1,0-2,0.1-2.8,0.1c-0.7,0-1.4,0-2.2-0.1c-0.8,0-1.6-0.1-2.4-0.2
				v30.5c0,3.7,0.3,6.6,0.8,8.7c0.5,2.1,1.2,3.7,2.2,4.7c1,1,2.1,1.7,3.5,1.9c1.3,0.2,2.9,0.3,4.6,0.3h4.2v2.9h-45.1v-2.9h4
				c4.3,0,7.5-1.4,9.5-4.3c1.1-1.7,1.6-5.5,1.6-11.5V2030c0-6.5-0.7-10.6-2.2-12.3c-2-2.3-5-3.5-8.9-3.5h-4v-2.9h38.3
				c5.6,0,10.5,0.2,14.6,0.6c4.1,0.4,7.4,1.1,10.1,1.9c2.6,0.8,5.1,2,7.4,3.5c2.3,1.5,4.3,3.3,6.1,5.4c1.7,2.1,3.1,4.5,4.1,7.1
				c1,2.6,1.5,5.4,1.5,8.4c0,6.6-2.1,12.2-6.2,16.9c-4.2,4.7-10.7,8.1-19.5,10.1l21.6,30.1c2.5,3.5,4.8,6.3,6.8,8.6
				c2,2.2,3.9,4,5.9,5.3c2,1.3,4,2.3,6.2,2.9c2.2,0.6,4.8,1.1,7.8,1.4V2116.5z M394.2,2062.5c1,0,1.9,0,2.6,0.1
				c0.7,0,1.3,0.1,1.8,0.1c5,0,9.4-0.6,13.2-1.7c3.8-1.2,6.9-2.8,9.5-4.9c2.5-2.1,4.5-4.5,5.7-7.3c1.3-2.8,1.9-5.9,1.9-9.2
				c0-3.2-0.5-6.2-1.6-9c-1.1-2.7-2.6-5.1-4.6-7.1c-2-2-4.4-3.5-7.2-4.6c-2.8-1.1-5.8-1.6-9.1-1.6c-3.2,0-7.2,0.5-12.1,1.5V2062.5z"
				/>
			<path d="M516.4,2113.6v2.9h-45v-2.9h3.7c1.9,0,3.5-0.1,4.9-0.4c1.4-0.3,2.6-0.9,3.5-2c0.9-1,1.6-2.6,2.1-4.7
				c0.5-2.1,0.8-5,0.8-8.6V2030c0-2.4-0.1-4.4-0.2-6c-0.1-1.6-0.3-2.9-0.6-3.9c-0.3-1-0.7-1.8-1.2-2.4c-0.5-0.6-1.3-1.1-2.2-1.7
				c-2.3-1.2-4.7-1.9-7.2-1.9h-3.7v-2.9h45v2.9h-3.7c-1.8,0-3.5,0.2-4.9,0.5c-1.4,0.3-2.6,1-3.5,2c-0.9,1-1.6,2.6-2.1,4.7
				c-0.5,2.1-0.8,5-0.8,8.5v67.9c0,2.5,0,4.5,0.1,6c0.1,1.5,0.3,2.8,0.6,3.8c0.3,1,0.8,1.8,1.3,2.4c0.6,0.6,1.3,1.1,2.3,1.7
				c2.2,1.2,4.5,1.9,7.1,1.9H516.4z"/>
			<path d="M552.8,2067.4v30.5c0,6.7,0.7,10.8,2.2,12.4c2,2.2,5,3.4,8.9,3.4h4v2.9h-45v-2.9h3.9c4.4,0,7.6-1.4,9.5-4.3
				c1.1-1.7,1.6-5.5,1.6-11.5V2030c0-6.6-0.7-10.6-2.1-12.3c-2.1-2.3-5.1-3.5-9-3.5H523v-2.9h38.5c9.3,0,16.7,1,22.2,3
				c2.7,0.9,5.2,2.2,7.6,3.9c2.4,1.7,4.4,3.6,6.1,5.9c1.7,2.3,3.1,4.8,4.1,7.5c1,2.7,1.5,5.7,1.5,8.8c0,4.2-0.7,8.1-2.2,11.7
				c-1.5,3.5-3.6,6.6-6.4,9.1c-2.8,2.5-6.2,4.5-10.2,6c-4,1.4-8.6,2.1-13.8,2.1C565.5,2069.4,559.6,2068.8,552.8,2067.4z
				 M552.8,2062.9c2.8,0.5,5.2,0.9,7.3,1.2c2.1,0.3,3.9,0.4,5.4,0.4c2.7,0,5.2-0.6,7.6-1.7c2.4-1.1,4.5-2.7,6.3-4.6
				c1.8-2,3.2-4.3,4.3-7.1c1-2.8,1.6-5.8,1.6-9c0-3.9-0.6-7.3-1.7-10.3s-2.7-5.6-4.7-7.6c-2-2.1-4.4-3.7-7.1-4.7
				c-2.7-1.1-5.6-1.6-8.8-1.6c-2.6,0-6,0.5-10.2,1.4V2062.9z"/>
			<path d="M699.6,2087.5l2.5,0.5l-9,28.6h-81.4v-2.9h4c4.3,0,7.5-1.4,9.5-4.3c1.1-1.7,1.6-5.5,1.6-11.5V2030
				c0-6.5-0.7-10.6-2.2-12.3c-2-2.3-5-3.5-8.9-3.5h-4v-2.9h47.7v2.9c-2.9,0-5.2,0.1-7.1,0.4c-1.9,0.3-3.5,0.7-4.7,1.2
				c-1.2,0.5-2.2,1.1-2.9,1.8c-0.7,0.7-1.3,1.5-1.7,2.3c-0.8,1.5-1.2,5.5-1.2,11.9v66c0,3.6,0.3,6.2,0.8,7.9
				c0.5,1.6,1.6,2.7,3.2,3.4c1.4,0.5,5.4,0.7,12.1,0.7h7.6c8.1,0,13.8-0.6,17-1.7c1.6-0.5,3.2-1.3,4.6-2.3c1.5-1,2.9-2.3,4.3-3.9
				c1.4-1.6,2.7-3.6,4-5.9C696.8,2093.6,698.2,2090.8,699.6,2087.5z"/>
			<path d="M738.7,2017.2v41.5h23c3.4,0,6.1-0.3,8.2-0.9c2.1-0.6,3.7-1.5,4.9-2.8c1.2-1.2,2-2.8,2.5-4.7c0.5-1.9,0.8-4.2,0.9-6.8
				h2.9v36.6h-2.9c-0.4-3-0.8-5.5-1.3-7.5c-0.5-2-1.3-3.6-2.4-4.8c-1.1-1.2-2.7-2-4.7-2.5c-2-0.5-4.7-0.8-8.1-0.8h-23v34.7
				c0,2.6,0,4.7,0.1,6.2c0.1,1.5,0.4,2.7,0.9,3.5c0.5,0.8,1.4,1.3,2.5,1.6c1.2,0.2,2.9,0.3,5.1,0.3h17.8c3,0,5.6-0.1,7.6-0.2
				c2.1-0.2,3.9-0.5,5.4-0.9c1.5-0.5,2.8-1.1,4-1.9c1.2-0.8,2.4-1.8,3.7-3.1c3.1-3,6.4-7.8,9.8-14.5h3.1l-9.1,26.4h-81v-2.9h3.7
				c1,0,2-0.1,3.1-0.3c1.1-0.2,2.1-0.6,3.1-1c1-0.4,1.8-1,2.6-1.7c0.8-0.7,1.3-1.5,1.6-2.4c0.6-1.7,0.9-5.1,0.9-10.2v-68.2
				c0-6.7-0.7-10.8-2-12.4c-1.9-2.1-5-3.1-9.4-3.1h-3.7v-2.9h81v23h-1.9c-0.8-3.8-1.6-6.8-2.5-9.1c-0.9-2.3-2.1-4-3.5-5.3
				c-1.5-1.2-3.3-2-5.6-2.4c-2.3-0.3-5.2-0.5-8.7-0.5H738.7z"/>
			<path d="M867.2,2058.3l22.6,33.7c3.2,4.8,5.9,8.6,8,11.4c2.1,2.8,4.1,5,5.9,6.4c1.8,1.5,3.6,2.4,5.3,2.9c1.7,0.5,3.8,0.8,6.2,0.9
				v2.9h-45.1v-2.9c4.2-0.1,7-0.7,8.4-2c1.3-1.2,2-3,2-5.2c0-0.4,0-0.8-0.1-1.1c-0.1-0.3-0.3-0.8-0.6-1.5c-0.3-0.7-0.9-1.5-1.6-2.5
				c-0.7-1-1.6-2.4-2.7-4l-17.8-27l-22.1,28.2c-1.2,1.5-2.2,2.8-2.8,3.7c-0.7,0.9-1.1,1.7-1.4,2.3c-0.3,0.6-0.5,1.2-0.5,1.6
				c0,0.5-0.1,1-0.1,1.5c0,1.6,0.7,3,2.1,4c1.4,1.1,4,1.7,8,1.9v2.9h-37.2v-2.9c2.5-0.2,4.9-0.7,7.2-1.5c2.2-0.8,4.4-2,6.4-3.4
				c2-1.4,4.1-3.2,6.1-5.3c2-2.1,4.1-4.5,6.2-7.2l24.8-31.3l-20.7-30.3c-2.9-4.2-5.4-7.5-7.7-10.1c-2.3-2.6-4.5-4.6-6.6-6
				c-2.1-1.4-4.3-2.4-6.4-3c-2.2-0.6-4.6-0.9-7.2-1.1v-2.9h48.6v2.9c-4.1,0.2-6.9,0.8-8.4,2c-1.5,1.2-2.3,2.5-2.3,4
				c0,1.9,1.2,4.7,3.7,8.3l16.2,24.2l18.6-23.7c1.2-1.5,2-2.6,2.7-3.5c0.6-0.9,1.1-1.6,1.4-2.2c0.3-0.6,0.5-1.1,0.6-1.6
				c0.1-0.5,0.1-1,0.1-1.6c0-2.2-0.8-3.7-2.5-4.5c-1.7-0.8-4.6-1.2-8.7-1.4v-2.9h37.2v2.9c-3.5,0.2-6.4,0.9-8.6,2
				c-2.2,1.1-4.3,2.5-6.3,4.3c-2.2,1.9-5.4,5.6-9.8,11.1L867.2,2058.3z"/>
		</g>
	</g>
	<g id="SELECTOR-TRIPLEX-SUB_00000066513399321201476360000013848329574681957551_">
		<circle class="st6" cx="635.2" cy="595.8" r="542.5"/>
		<ellipse class="st7" cx="637.7" cy="595.5" rx="548.2" ry="543.9"/>
		<line class="st8" x1="156.8" y1="358.7" x2="1118.5" y2="358.7"/>
		<line class="st8" x1="1049.8" y1="950.4" x2="226.2" y2="950.3"/>
		<line class="st9" x1="450.2" y1="396.1" x2="450.2" y2="913"/>
		<line class="st10" x1="526.5" y1="396.1" x2="373.8" y2="396.1"/>
		<line class="st10" x1="526.5" y1="912.8" x2="373.8" y2="912.8"/>
		<g>
			<path d="M570,576.9h74.8v4l-46.5,138.5h-11.5l41.8-125.6h-38.4c-4.7,0-8.7,0.4-11.9,1.2c-3.2,0.8-6,2-8.3,3.5
				c-2.3,1.5-4.3,3.3-5.8,5.5c-1.6,2.2-3.1,4.6-4.5,7.2l-2.9-1.1L570,576.9z"/>
			<path d="M793,716.5l-53.9-117.3v93.2c0,4.8,0.3,8.6,1,11.3c0.7,2.7,1.6,4.7,2.9,6.1c1.3,1.3,2.8,2.2,4.7,2.5
				c1.8,0.3,3.9,0.5,6.3,0.5h4.9v3.8h-48.5v-3.8h4.9c2.5,0,4.6-0.2,6.5-0.5c1.8-0.4,3.4-1.2,4.6-2.6c1.2-1.4,2.2-3.4,2.8-6.1
				c0.6-2.7,0.9-6.4,0.9-11v-91.2c0-3.3-0.2-6.2-0.5-8.7c-0.3-2.5-1.1-4.6-2.4-6.4c-1.3-1.7-3.2-3.1-5.8-4c-2.6-0.9-6.3-1.4-11-1.4
				v-3.8h39.5l50.7,109.2l49.8-109.2h39.5v3.8H885c-2.6,0-4.8,0.2-6.6,0.6c-1.8,0.4-3.4,1.3-4.6,2.7c-1.2,1.4-2.1,3.4-2.8,6.1
				c-0.6,2.7-0.9,6.4-0.9,11v91.2c0,4.8,0.3,8.6,1,11.3c0.7,2.7,1.6,4.7,2.9,6.1c1.3,1.3,2.8,2.2,4.7,2.5c1.8,0.3,3.9,0.5,6.3,0.5
				h4.8v3.8h-59.3v-3.8h4.9c2.5,0,4.6-0.2,6.5-0.6c1.8-0.4,3.4-1.3,4.7-2.7c1.3-1.4,2.2-3.4,2.8-6.1c0.6-2.7,0.9-6.3,0.9-10.9v-93.2
				l-53.8,117.3H793z"/>
			<path d="M980.4,716.5l-53.9-117.3v93.2c0,4.8,0.3,8.6,1,11.3c0.7,2.7,1.6,4.7,2.9,6.1c1.3,1.3,2.8,2.2,4.7,2.5
				c1.8,0.3,3.9,0.5,6.3,0.5h4.9v3.8h-48.5v-3.8h4.9c2.5,0,4.6-0.2,6.5-0.5c1.8-0.4,3.4-1.2,4.6-2.6c1.2-1.4,2.2-3.4,2.8-6.1
				c0.6-2.7,0.9-6.4,0.9-11v-91.2c0-3.3-0.2-6.2-0.5-8.7c-0.3-2.5-1.1-4.6-2.4-6.4c-1.3-1.7-3.2-3.1-5.8-4c-2.6-0.9-6.3-1.4-11-1.4
				v-3.8h39.5l50.7,109.2l49.8-109.2h39.5v3.8h-4.8c-2.6,0-4.8,0.2-6.6,0.6c-1.8,0.4-3.4,1.3-4.6,2.7c-1.2,1.4-2.1,3.4-2.8,6.1
				c-0.6,2.7-0.9,6.4-0.9,11v91.2c0,4.8,0.3,8.6,1,11.3c0.7,2.7,1.6,4.7,2.9,6.1c1.3,1.3,2.8,2.2,4.7,2.5c1.8,0.3,3.9,0.5,6.3,0.5
				h4.8v3.8h-59.3v-3.8h4.9c2.5,0,4.6-0.2,6.5-0.6c1.8-0.4,3.4-1.3,4.7-2.7c1.3-1.4,2.2-3.4,2.8-6.1c0.6-2.7,0.9-6.3,0.9-10.9v-93.2
				l-53.8,117.3H980.4z"/>
		</g>
		<circle class="st11" cx="633.6" cy="593.7" r="542.5"/>
	</g>
	<g>
		<path d="M2097.3,949.9v33.5h-2.4c-1.2-9-3.8-15.3-7.9-19c-4.1-3.7-10.2-5.6-18.3-5.6h-20.1v108.9c0,4.8,0.3,8.6,1,11.4
			c0.7,2.8,1.6,4.8,2.9,6.2c1.3,1.4,2.8,2.2,4.7,2.6c1.9,0.4,4.1,0.5,6.6,0.5h4.9v3.9h-60.3v-3.9h5c2.5,0,4.7-0.2,6.6-0.6
			c1.9-0.4,3.4-1.3,4.7-2.7c1.3-1.4,2.2-3.5,2.9-6.2c0.7-2.7,1-6.4,1-11.1V958.8h-17.1c-4.3,0-8.1,0.3-11.4,1
			c-3.3,0.7-6.1,1.9-8.5,3.8c-2.4,1.8-4.3,4.3-5.7,7.5c-1.4,3.2-2.3,7.3-2.6,12.3h-3.9v-33.5H2097.3z"/>
		<path d="M2249.4,1092.3h-37.9l-48.3-66.6c-1.8,0.1-3.4,0.2-4.8,0.2c-1.4,0.1-2.7,0.1-3.8,0.1c-0.9,0-1.9,0-3-0.1
			c-1-0.1-2.1-0.1-3.3-0.2v41.4c0,5,0.3,9,1,11.8c0.7,2.9,1.7,5,3,6.4c1.3,1.4,2.9,2.3,4.7,2.6c1.8,0.3,3.9,0.5,6.2,0.5h5.6v3.9
			h-61.1v-3.9h5.5c5.8,0,10.1-1.9,12.8-5.8c1.5-2.3,2.2-7.5,2.2-15.5v-92c0-8.8-1-14.3-3-16.6c-2.7-3.1-6.7-4.7-12.1-4.7h-5.5v-3.9
			h51.9c7.6,0,14.2,0.3,19.7,0.9c5.5,0.6,10.1,1.4,13.6,2.6c3.6,1.2,6.9,2.7,10,4.8c3.1,2,5.9,4.5,8.2,7.4c2.4,2.9,4.2,6.1,5.6,9.6
			c1.4,3.6,2,7.4,2,11.4c0,8.9-2.8,16.5-8.5,22.9c-5.6,6.4-14.5,10.9-26.5,13.6l29.3,40.7c3.4,4.7,6.5,8.6,9.2,11.6
			c2.7,3,5.3,5.4,8,7.2c2.7,1.8,5.5,3.1,8.5,3.9c3,0.8,6.5,1.5,10.6,1.9V1092.3z M2148.3,1019.1c1.4,0,2.5,0,3.5,0.1
			c1,0.1,1.8,0.1,2.4,0.1c6.8,0,12.7-0.8,17.9-2.4c5.1-1.6,9.4-3.8,12.8-6.6c3.4-2.8,6-6.1,7.8-9.9c1.7-3.8,2.6-8,2.6-12.5
			c0-4.4-0.7-8.4-2.2-12.1c-1.5-3.7-3.6-6.9-6.3-9.6c-2.7-2.7-6-4.7-9.7-6.2c-3.8-1.5-7.9-2.2-12.4-2.2c-4.3,0-9.8,0.7-16.5,2
			V1019.1z"/>
		<path d="M2313.8,1088.4v3.9h-61v-3.9h5c2.5,0,4.7-0.2,6.7-0.5c1.9-0.4,3.5-1.3,4.8-2.7c1.3-1.4,2.2-3.6,2.9-6.4
			c0.7-2.9,1-6.8,1-11.7v-92c0-3.2-0.1-5.9-0.2-8.1c-0.2-2.1-0.4-3.9-0.8-5.2c-0.4-1.4-0.9-2.4-1.6-3.2c-0.7-0.8-1.7-1.5-3-2.3
			c-3.1-1.7-6.4-2.5-9.7-2.5h-5v-3.9h61v3.9h-5c-2.5,0-4.7,0.2-6.7,0.6c-1.9,0.4-3.5,1.3-4.8,2.7c-1.3,1.4-2.2,3.6-2.9,6.4
			c-0.7,2.9-1,6.7-1,11.5v92c0,3.3,0.1,6.1,0.2,8.1c0.1,2.1,0.4,3.8,0.8,5.2c0.4,1.4,1,2.4,1.8,3.2c0.8,0.8,1.8,1.5,3.1,2.3
			c2.9,1.7,6.1,2.5,9.6,2.5H2313.8z"/>
		<path d="M2363.2,1025.7v41.4c0,9.1,1,14.7,3,16.8c2.7,3,6.7,4.5,12.1,4.5h5.5v3.9h-61v-3.9h5.3c6,0,10.2-1.9,12.8-5.8
			c1.5-2.3,2.2-7.5,2.2-15.5v-92c0-8.9-0.9-14.4-2.8-16.6c-2.8-3.1-6.9-4.7-12.2-4.7h-5.3v-3.9h52.2c12.5,0,22.6,1.4,30.1,4.1
			c3.7,1.3,7.1,3,10.3,5.2c3.2,2.2,6,4.9,8.3,8c2.4,3.1,4.2,6.5,5.6,10.2c1.4,3.7,2,7.7,2,12c0,5.7-1,11-3,15.8
			c-2,4.8-4.9,8.9-8.6,12.4c-3.8,3.4-8.4,6.1-13.8,8.1c-5.4,1.9-11.6,2.9-18.6,2.9C2380.4,1028.5,2372.4,1027.6,2363.2,1025.7z
			 M2363.2,1019.6c3.8,0.7,7.1,1.3,9.9,1.6c2.8,0.4,5.3,0.5,7.4,0.5c3.7,0,7.1-0.8,10.3-2.3c3.2-1.5,6.1-3.6,8.5-6.3
			c2.5-2.7,4.4-5.9,5.8-9.6c1.4-3.8,2.1-7.8,2.1-12.2c0-5.2-0.8-9.9-2.4-13.9s-3.7-7.5-6.4-10.3c-2.7-2.8-5.9-5-9.6-6.4
			c-3.7-1.5-7.6-2.2-11.9-2.2c-3.6,0-8.1,0.6-13.8,1.9V1019.6z"/>
		<path d="M2562,1053l3.4,0.6l-12.2,38.7h-110.3v-3.9h5.5c5.8,0,10.1-1.9,12.8-5.8c1.5-2.3,2.2-7.5,2.2-15.5v-92
			c0-8.8-1-14.3-3-16.6c-2.7-3.1-6.7-4.7-12.1-4.7h-5.5v-3.9h64.6v3.9c-3.9,0-7.1,0.2-9.6,0.5c-2.6,0.4-4.7,0.9-6.3,1.6
			c-1.7,0.7-3,1.5-3.9,2.4c-0.9,0.9-1.7,2-2.4,3.1c-1,2.1-1.6,7.5-1.6,16.1v89.5c0,4.9,0.4,8.5,1.1,10.7c0.7,2.2,2.2,3.7,4.4,4.5
			c1.9,0.6,7.4,0.9,16.5,0.9h10.3c11,0,18.6-0.8,23-2.4c2.2-0.7,4.3-1.8,6.3-3.1c2-1.4,3.9-3.1,5.8-5.3s3.7-4.9,5.5-8
			C2558.3,1061.3,2560.1,1057.5,2562,1053z"/>
		<path d="M2615,957.7v56.3h31.2c4.6,0,8.3-0.4,11.1-1.3c2.8-0.8,5-2.1,6.7-3.8c1.6-1.7,2.7-3.8,3.4-6.4c0.6-2.6,1-5.7,1.3-9.2h3.9
			v49.5h-3.9c-0.5-4.1-1.1-7.5-1.8-10.2c-0.7-2.7-1.8-4.9-3.3-6.5c-1.5-1.6-3.6-2.8-6.3-3.4c-2.7-0.7-6.4-1-11-1H2615v47
			c0,3.6,0.1,6.4,0.2,8.5c0.1,2.1,0.5,3.7,1.3,4.8c0.7,1.1,1.9,1.8,3.4,2.1s3.9,0.5,6.9,0.5h24.1c4.1,0,7.5-0.1,10.3-0.3
			c2.8-0.2,5.2-0.6,7.3-1.3c2-0.6,3.8-1.5,5.4-2.6c1.6-1.1,3.2-2.5,5-4.2c4.2-4.1,8.6-10.6,13.3-19.6h4.2l-12.4,35.7h-109.7v-3.9h5
			c1.4,0,2.8-0.2,4.2-0.5c1.5-0.3,2.8-0.8,4.2-1.3c1.3-0.6,2.5-1.3,3.5-2.3c1-0.9,1.8-2,2.2-3.3c0.8-2.3,1.3-6.9,1.3-13.8v-92.4
			c0-9.1-0.9-14.7-2.7-16.8c-2.5-2.8-6.7-4.2-12.7-4.2h-5v-3.9h109.7V981h-2.5c-1-5.1-2.2-9.2-3.4-12.3c-1.2-3.1-2.8-5.5-4.8-7.1
			c-2-1.7-4.5-2.7-7.6-3.2c-3.1-0.5-7-0.7-11.8-0.7H2615z"/>
		<path d="M2789.1,1013.5l30.6,45.6c4.4,6.5,8,11.6,10.9,15.4c2.9,3.8,5.5,6.7,8,8.7c2.5,2,4.9,3.3,7.2,4c2.4,0.7,5.1,1.1,8.4,1.2
			v3.9H2793v-3.9c5.7-0.1,9.5-1,11.4-2.7c1.8-1.7,2.7-4,2.7-7.1c0-0.5-0.1-1-0.2-1.5c-0.1-0.5-0.4-1.1-0.9-2c-0.5-0.9-1.2-2-2.1-3.4
			c-0.9-1.4-2.1-3.2-3.6-5.5l-24.1-36.5l-29.9,38.2c-1.7,2.1-3,3.8-3.8,5c-0.9,1.3-1.5,2.3-2,3.1c-0.4,0.8-0.7,1.6-0.7,2.2
			c-0.1,0.6-0.1,1.3-0.1,2c0,2.2,0.9,4,2.8,5.5c1.9,1.5,5.5,2.3,10.8,2.5v3.9h-50.5v-3.9c3.4-0.2,6.7-0.9,9.7-2
			c3-1.1,5.9-2.7,8.7-4.6c2.8-1.9,5.5-4.3,8.2-7.2c2.7-2.9,5.5-6.1,8.5-9.8l33.5-42.5l-28-41.1c-3.9-5.6-7.3-10.2-10.4-13.7
			c-3.1-3.5-6.1-6.2-8.9-8.1c-2.9-1.9-5.8-3.3-8.7-4.1c-2.9-0.8-6.2-1.3-9.7-1.5v-3.9h65.8v3.9c-5.5,0.2-9.4,1.1-11.4,2.7
			c-2.1,1.6-3.1,3.4-3.1,5.4c0,2.6,1.7,6.4,5,11.3l21.9,32.7l25.2-32.1c1.6-2,2.8-3.6,3.6-4.8c0.8-1.2,1.5-2.2,1.9-3
			c0.4-0.8,0.7-1.5,0.8-2.1c0.1-0.6,0.2-1.4,0.2-2.2c0-3-1.1-5.1-3.4-6.1c-2.2-1-6.2-1.7-11.8-1.9v-3.9h50.5v3.9
			c-4.8,0.3-8.7,1.2-11.7,2.7c-3,1.5-5.8,3.4-8.5,5.8c-2.9,2.5-7.4,7.5-13.3,15L2789.1,1013.5z"/>
	</g>
	<g>
		<path d="M2287.9,1207.6c5.7,1.3,10.7,3,14.8,5.2c4.1,2.2,7.5,4.8,10,7.7c2.6,2.9,4.4,6.2,5.6,9.7c1.2,3.6,1.8,7.3,1.8,11.1
			c0,3.6-0.6,7.1-1.7,10.5c-1.2,3.4-2.8,6.7-4.9,9.8c-2.1,3.1-4.8,5.9-7.9,8.3c-3.1,2.5-6.7,4.5-10.7,6c-7.5,2.9-19.4,4.4-35.6,4.4
			h-67.2v-3.9h5.3c2.4,0,4.5-0.2,6.4-0.6c1.9-0.4,3.5-1.4,4.8-2.8c1.3-1.5,2.3-3.6,3-6.4c0.7-2.8,1-6.6,1-11.4v-92
			c0-5-0.4-8.9-1.1-11.8c-0.7-2.8-1.8-4.9-3.1-6.3c-1.4-1.4-3-2.3-4.9-2.7c-1.9-0.4-3.9-0.5-6.1-0.5h-5.3v-3.9h61.4
			c19.7,0,34.7,3.3,44.9,10c10.2,6.7,15.3,16,15.3,28c0,7.2-2.2,13.6-6.6,19.2C2302.8,1200.7,2296.4,1204.8,2287.9,1207.6z
			 M2232.9,1201.9c2.6,0.5,5.6,0.9,8.9,1.2c3.3,0.3,6.9,0.4,10.9,0.4c13.9,0,23.9-2.5,29.9-7.5c6.1-5,9.1-12,9.1-20.8
			c0-4.1-0.9-8-2.6-11.7c-1.7-3.7-4.3-6.9-7.6-9.6c-3.3-2.7-7.5-4.9-12.5-6.5c-5-1.6-10.7-2.4-17.3-2.4c-7.1,0-13.4,0.8-18.8,2.4
			V1201.9z M2232.9,1269.9c7.9,1.9,15.9,2.8,24,2.8c6.4,0,12-0.8,16.9-2.4c4.9-1.6,9-3.7,12.2-6.3c3.2-2.7,5.7-5.8,7.4-9.4
			c1.7-3.6,2.5-7.4,2.5-11.5c0-4.5-0.9-8.7-2.7-12.7c-1.8-4-4.5-7.4-8.2-10.3c-3.7-2.9-8.4-5.2-13.9-6.9c-5.6-1.7-12.1-2.5-19.7-2.5
			c-4.4,0-8.1,0.1-11.1,0.2c-3,0.1-5.5,0.4-7.4,0.8V1269.9z"/>
		<path d="M2410.6,1134.7c9.1,0,17.8,1.9,26,5.6c8.3,3.8,15.5,8.9,21.8,15.5c6.3,6.6,11.3,14.3,15,23.3c3.7,8.9,5.6,18.6,5.6,29.1
			c0,10.8-1.9,20.7-5.6,29.9c-3.7,9.2-8.7,17.2-15,23.9c-6.3,6.7-13.7,12-22.3,15.8c-8.5,3.8-17.6,5.7-27.2,5.7
			c-9.7,0-18.8-1.8-27.3-5.5c-8.5-3.7-15.8-8.8-22-15.4c-6.2-6.6-11.1-14.5-14.7-23.7c-3.6-9.2-5.4-19.3-5.4-30.4
			c0-10.2,1.8-19.8,5.4-28.8c3.6-9,8.6-16.8,14.9-23.4c6.3-6.6,13.8-11.9,22.5-15.7C2390.9,1136.6,2400.4,1134.7,2410.6,1134.7z
			 M2408.6,1142.4c-7.2,0-13.6,1.5-19.2,4.6c-5.6,3.1-10.3,7.5-14.1,13.2c-3.8,5.7-6.7,12.6-8.7,20.7c-2,8.1-3,17.2-3,27.3
			c0,10,1,19.2,2.9,27.5c1.9,8.3,4.8,15.5,8.6,21.5c3.8,6,8.5,10.7,14.2,13.9c5.6,3.3,12.1,4.9,19.4,4.9c6.6,0,12.7-1.3,18.3-3.8
			c5.6-2.5,10.5-6.4,14.7-11.7c4.2-5.3,7.4-12,9.8-20.2c2.4-8.2,3.5-18,3.5-29.4c0-10.8-1-20.4-2.9-28.9c-1.9-8.5-4.9-15.7-8.8-21.6
			c-3.9-5.9-8.8-10.4-14.6-13.5C2422.9,1143.9,2416.2,1142.4,2408.6,1142.4z"/>
		<path d="M2575,1201.4l30.6,45.6c4.4,6.5,8,11.6,10.9,15.4c2.9,3.8,5.5,6.7,8,8.7c2.5,2,4.9,3.3,7.2,4c2.4,0.7,5.1,1.1,8.4,1.2v3.9
			h-61.1v-3.9c5.7-0.1,9.5-1,11.4-2.7c1.8-1.7,2.7-4,2.7-7.1c0-0.5-0.1-1-0.2-1.5c-0.1-0.5-0.4-1.1-0.9-2c-0.5-0.9-1.2-2-2.1-3.4
			c-0.9-1.4-2.1-3.2-3.6-5.5l-24.1-36.5l-29.9,38.2c-1.7,2.1-3,3.8-3.8,5c-0.9,1.3-1.5,2.3-2,3.1c-0.4,0.8-0.7,1.6-0.7,2.2
			c-0.1,0.6-0.1,1.3-0.1,2c0,2.2,0.9,4,2.8,5.5c1.9,1.5,5.5,2.3,10.8,2.5v3.9h-50.5v-3.9c3.4-0.2,6.7-0.9,9.7-2
			c3-1.1,5.9-2.7,8.7-4.6c2.8-1.9,5.5-4.3,8.2-7.2c2.7-2.9,5.5-6.1,8.5-9.8l33.5-42.5l-28-41.1c-3.9-5.6-7.3-10.2-10.4-13.7
			c-3.1-3.5-6.1-6.2-8.9-8.1c-2.9-1.9-5.8-3.3-8.7-4.1c-2.9-0.8-6.2-1.3-9.7-1.5v-3.9h65.8v3.9c-5.5,0.2-9.4,1.1-11.4,2.7
			c-2.1,1.6-3.1,3.4-3.1,5.4c0,2.6,1.7,6.4,5,11.3l21.9,32.7l25.2-32.1c1.6-2,2.8-3.6,3.6-4.8c0.8-1.2,1.5-2.2,1.9-3
			c0.4-0.8,0.7-1.5,0.8-2.1c0.1-0.6,0.2-1.4,0.2-2.2c0-3-1.1-5.1-3.4-6.1c-2.2-1-6.2-1.7-11.8-1.9v-3.9h50.5v3.9
			c-4.8,0.3-8.7,1.2-11.7,2.7c-3,1.5-5.8,3.4-8.5,5.8c-2.9,2.5-7.4,7.5-13.3,15L2575,1201.4z"/>
	</g>
	<g>
		<path d="M2116.3,1522.7v35.4h-2.8c-1.3-9.5-4.4-16.8-9.3-21.9c-5-5-11.3-7.5-18.9-7.5c-2.6,0-5,0.5-7.2,1.4
			c-2.2,0.9-4.1,2.1-5.7,3.5c-1.7,1.5-2.9,3.1-3.8,5c-0.9,1.9-1.4,3.8-1.4,5.9c0,1.9,0.4,3.7,1.1,5.4c0.7,1.7,3.1,4.3,7,7.9
			c6.5,4.1,12.4,7.5,17.5,10.3c4.8,2.6,11.3,6.6,19.5,11.9c3.5,2.7,6.2,5.9,8.1,9.6c1.9,3.7,2.8,7.6,2.8,11.7
			c0,3.8-0.8,7.5-2.4,10.9c-1.6,3.5-3.8,6.5-6.6,9.1c-2.8,2.6-6.2,4.7-10.2,6.2c-4,1.5-8.3,2.3-13.1,2.3c-3,0-5.8-0.2-8.3-0.7
			c-0.5-0.1-1.6-0.4-3.5-1s-4-1.1-6.1-1.7c-2.2-0.6-4.2-1.2-6.1-1.7c-1.9-0.5-3-0.8-3.3-0.8c-1.3,0-2.3,0.4-3,1.1
			c-0.7,0.8-1.3,2.3-1.6,4.7h-2.8v-35.1h2.8c1.4,7.2,3.1,12.7,5.3,16.6c1.1,1.8,2.5,3.5,4.2,5c1.8,1.5,3.8,2.9,6,4.1
			c2.2,1.2,4.6,2.1,7.2,2.7c2.6,0.6,5.1,1,7.8,1c3.2,0,6-0.5,8.5-1.4c2.5-0.9,4.7-2.1,6.4-3.7c1.8-1.5,3.1-3.3,4.1-5.4
			c0.9-2,1.4-4.2,1.4-6.4c0-2.6-0.7-5.1-2.1-7.7c-1.4-2.6-3.7-5.1-7-7.5c-3.2-2-7.1-4.2-11.5-6.9c-8.5-4.9-16-9.6-22.6-14.1
			c-3.7-2.9-6.5-6.1-8.4-9.6c-1.9-3.5-2.9-7.4-2.9-11.7c0-3.6,0.7-7,2.3-10.3c1.5-3.3,3.6-6.1,6.3-8.6c2.7-2.5,5.8-4.4,9.5-5.9
			c3.7-1.4,7.7-2.1,11.9-2.1c5.4,0,11.2,1.3,17.2,3.9c1.4,0.6,2.6,1.1,3.6,1.5c1,0.4,1.8,0.5,2.4,0.5c1.4,0,2.4-0.4,3.3-1.1
			c0.8-0.7,1.5-2.3,1.9-4.7H2116.3z"/>
		<path d="M2179.1,1624.5v2.8h-43.8v-2.8h3.6c1.8,0,3.4-0.1,4.8-0.4c1.4-0.3,2.5-0.9,3.4-1.9s1.6-2.6,2.1-4.6
			c0.5-2.1,0.7-4.9,0.7-8.4v-66.1c0-2.3-0.1-4.3-0.2-5.8c-0.1-1.5-0.3-2.8-0.6-3.8c-0.3-1-0.7-1.7-1.2-2.3c-0.5-0.6-1.2-1.1-2.1-1.6
			c-2.3-1.2-4.6-1.8-7-1.8h-3.6v-2.8h43.8v2.8h-3.6c-1.8,0-3.4,0.2-4.8,0.5c-1.4,0.3-2.5,1-3.4,2c-0.9,1-1.6,2.6-2.1,4.6
			c-0.5,2.1-0.7,4.8-0.7,8.3v66.1c0,2.4,0,4.4,0.1,5.9c0.1,1.5,0.3,2.7,0.6,3.7c0.3,1,0.7,1.7,1.3,2.3s1.3,1.1,2.2,1.6
			c2.1,1.2,4.4,1.8,6.9,1.8H2179.1z"/>
		<path d="M2185.5,1627.3v-2.8h3.9c1.7,0,3.3-0.1,4.6-0.5c1.4-0.3,2.5-1,3.4-2c0.9-1.1,1.6-2.6,2.1-4.6c0.5-2,0.7-4.8,0.7-8.2v-66.1
			c0-6.3-0.7-10.3-2.1-11.9c-2-2.3-4.8-3.4-8.7-3.4h-3.9v-2.8h41.7c15.2,0,26.8,1.8,34.9,5.3c8,3.5,14.5,9.3,19.3,17.3
			c4.9,8.2,7.3,17.5,7.3,28c0,7.6-1.2,14.5-3.7,20.8c-2.4,6.3-6.1,11.8-10.9,16.3c-4.8,4.6-10.8,8.1-18,10.7
			c-7.1,2.6-15.4,3.8-24.9,3.8H2185.5z M2214.8,1619.9c6.2,1.4,11.6,2.1,16,2.1c5.8,0,11.2-1.1,16.1-3.2s9.3-5.2,12.9-9.1
			c3.6-3.9,6.5-8.7,8.6-14.4c2.1-5.6,3.1-11.9,3.1-18.9c0-7.1-1-13.4-3-19.1c-2-5.7-4.9-10.5-8.6-14.4c-3.7-3.9-8-7-13.1-9.1
			c-5-2.1-10.6-3.2-16.6-3.2c-4.4,0-9.6,0.8-15.4,2.3V1619.9z"/>
		<path d="M2326.9,1530.6v40.4h22.4c3.3,0,6-0.3,8-0.9c2-0.6,3.6-1.5,4.8-2.7c1.2-1.2,2-2.7,2.4-4.6c0.5-1.9,0.7-4.1,0.9-6.6h2.8
			v35.6h-2.8c-0.4-2.9-0.8-5.4-1.3-7.3c-0.5-2-1.3-3.5-2.4-4.7c-1.1-1.2-2.6-2-4.6-2.5c-2-0.5-4.6-0.7-7.9-0.7h-22.4v33.8
			c0,2.6,0,4.6,0.1,6.1c0.1,1.5,0.4,2.6,0.9,3.4c0.5,0.8,1.4,1.3,2.5,1.5c1.1,0.2,2.8,0.3,5,0.3h17.3c2.9,0,5.4-0.1,7.4-0.2
			c2-0.1,3.8-0.5,5.2-0.9c1.5-0.5,2.8-1.1,3.9-1.9c1.1-0.8,2.3-1.8,3.6-3c3-2.9,6.2-7.6,9.6-14.1h3l-8.9,25.7h-78.9v-2.8h3.6
			c1,0,2-0.1,3-0.3c1.1-0.2,2-0.5,3-1c0.9-0.4,1.8-1,2.5-1.6c0.8-0.7,1.3-1.5,1.6-2.4c0.6-1.7,0.9-5,0.9-9.9v-66.5
			c0-6.5-0.6-10.6-1.9-12.1c-1.8-2-4.8-3-9.1-3h-3.6v-2.8h78.9v22.4h-1.8c-0.8-3.7-1.6-6.6-2.4-8.8c-0.9-2.2-2-3.9-3.4-5.1
			c-1.4-1.2-3.2-2-5.5-2.3c-2.2-0.3-5.1-0.5-8.5-0.5H2326.9z"/>
		<path d="M2516.2,1599l2.5,0.5l-8.8,27.8h-79.3v-2.8h3.9c4.2,0,7.3-1.4,9.2-4.2c1.1-1.7,1.6-5.4,1.6-11.2v-66.1
			c0-6.3-0.7-10.3-2.1-11.9c-2-2.3-4.8-3.4-8.7-3.4h-3.9v-2.8h46.4v2.8c-2.8,0-5.1,0.1-6.9,0.4c-1.8,0.3-3.4,0.6-4.6,1.1
			c-1.2,0.5-2.1,1.1-2.8,1.7c-0.7,0.7-1.2,1.4-1.7,2.3c-0.8,1.5-1.1,5.4-1.1,11.6v64.3c0,3.5,0.3,6.1,0.8,7.7
			c0.5,1.6,1.6,2.7,3.2,3.3c1.4,0.5,5.3,0.7,11.8,0.7h7.4c7.9,0,13.4-0.6,16.6-1.7c1.6-0.5,3.1-1.3,4.5-2.3c1.4-1,2.8-2.3,4.2-3.8
			c1.4-1.6,2.7-3.5,3.9-5.7C2513.6,1605,2514.9,1602.3,2516.2,1599z"/>
		<path d="M2578.5,1522.7c6.5,0,12.8,1.4,18.7,4.1c5.9,2.7,11.2,6.4,15.7,11.2s8.1,10.3,10.8,16.7c2.7,6.4,4,13.4,4,20.9
			c0,7.7-1.3,14.9-4,21.5c-2.7,6.6-6.3,12.3-10.8,17.2c-4.5,4.8-9.9,8.6-16,11.4c-6.1,2.7-12.6,4.1-19.5,4.1c-7,0-13.5-1.3-19.6-3.9
			c-6.1-2.6-11.4-6.3-15.8-11.1c-4.5-4.8-8-10.5-10.6-17.1c-2.6-6.6-3.9-13.9-3.9-21.9c0-7.4,1.3-14.3,3.9-20.7
			c2.6-6.5,6.2-12.1,10.7-16.8c4.5-4.8,9.9-8.5,16.2-11.3C2564.4,1524.1,2571.2,1522.7,2578.5,1522.7z M2577.1,1528.2
			c-5.2,0-9.8,1.1-13.8,3.3c-4,2.2-7.4,5.4-10.1,9.5c-2.7,4.1-4.8,9.1-6.3,14.9c-1.4,5.8-2.1,12.4-2.1,19.7c0,7.2,0.7,13.8,2.1,19.8
			c1.4,6,3.5,11.1,6.2,15.4c2.7,4.3,6.1,7.7,10.2,10c4.1,2.4,8.7,3.5,14,3.5c4.7,0,9.1-0.9,13.1-2.7c4-1.8,7.5-4.6,10.5-8.4
			c3-3.8,5.4-8.6,7-14.5c1.7-5.9,2.5-12.9,2.5-21.1c0-7.7-0.7-14.7-2.1-20.8c-1.4-6.1-3.5-11.3-6.3-15.5c-2.8-4.2-6.3-7.5-10.5-9.7
			C2587.4,1529.3,2582.6,1528.2,2577.1,1528.2z"/>
		<path d="M2778.3,1524.9v2.8c-2,0-3.7,0.2-5,0.6c-1.3,0.4-2.5,1.2-3.7,2.5c-1.1,1.3-2.3,3.3-3.4,5.9c-1.1,2.6-2.4,6.1-3.9,10.4
			l-28.5,82.6h-3l-23.3-65.4l-23.1,65.4h-2.8l-30.4-85c-1.1-3.2-2-5.7-2.7-7.5c-0.7-1.8-1.2-3.1-1.6-3.7c-1.1-2-2.4-3.4-4.1-4.3
			c-1.7-0.9-4-1.4-7-1.4v-2.8h37.8v2.8h-1.8c-2.6,0-4.7,0.6-6.1,1.8c-1.4,1.2-2.1,2.7-2.1,4.4c0,1.8,1.1,5.9,3.4,12.2l20.2,57.5
			l16.9-48.9l-5.4-15.4c-0.8-1.9-1.7-3.5-2.5-5c-0.8-1.4-1.8-2.6-2.8-3.6c-1.1-1-2.3-1.7-3.7-2.2c-1.4-0.5-3.2-0.7-5.2-0.7v-2.8
			h39.8v2.8h-2.7c-2.9,0-4.9,0.6-6.2,1.8c-1.3,1.2-1.9,2.9-1.9,5c0,2.6,1.1,7,3.4,13.4l19.6,55.6l19.5-56.4c1.1-3.2,1.9-5.8,2.5-7.9
			c0.6-2.1,0.9-3.8,0.9-5.1c0-2.4-1.1-4.1-3.2-5c-2.1-0.9-4.8-1.4-8.2-1.4v-2.8H2778.3z"/>
	</g>
</g>
<g id="SOPORTE-PARED">
</g>
<g id="MEDIDAS">
</g>
<g id="PROCESOS">
</g>
</svg>
